solid abc_micro_000
  facet normal 0.0 -0.0 -1.0
    outer loop
      vertex 9.814586436738997 6.33732770173782 0.0
      vertex 9.999999997451809 4.9883438459527 0.0
      vertex 8.739038930262195 5.502262917895956 0.0
    endloop
  endfacet
  facet normal 0.0 0.0 -1.0
    outer loop
      vertex 9.999999997451809 4.9883438459527 0.0
      vertex 9.814586436738994 3.639359990167569 0.0
      vertex 8.976437174734862 4.436124781175817 0.0
    endloop
  endfacet
  facet normal 0.0 0.0 -1.0
    outer loop
      vertex 8.739038930262195 5.502262917895956 0.0
      vertex 9.999999997451809 4.9883438459527 0.0
      vertex 8.976437174734862 4.436124781175817 0.0
    endloop
  endfacet
  facet normal 0.0 -0.0 -1.0
    outer loop
      vertex 9.272097022732444 7.586263596129865 0.0
      vertex 9.814586436738997 6.33732770173782 0.0
      vertex 8.402883634778075 6.651897116673041 0.0
    endloop
  endfacet
  facet normal -0.0 0.0 -1.0
    outer loop
      vertex 9.814586436738997 6.33732770173782 0.0
      vertex 8.739038930262195 5.502262917895956 0.0
      vertex 8.402883634778075 6.651897116673041 0.0
    endloop
  endfacet
  facet normal 0.0 -0.0 -1.0
    outer loop
      vertex 8.412765716093274 8.642523667343319 0.0
      vertex 9.272097022732444 7.586263596129865 0.0
      vertex 8.094939690482438 7.646696500699523 0.0
    endloop
  endfacet
  facet normal -0.0 0.0 -1.0
    outer loop
      vertex 9.272097022732444 7.586263596129865 0.0
      vertex 8.402883634778075 6.651897116673041 0.0
      vertex 8.094939690482438 7.646696500699523 0.0
    endloop
  endfacet
  facet normal 0.0 -0.0 -1.0
    outer loop
      vertex 7.300325188655767 9.427769937964573 0.0
      vertex 8.412765716093274 8.642523667343319 0.0
      vertex 7.163364214788538 8.124601077452432 0.0
    endloop
  endfacet
  facet normal 0.0 0.0 -1.0
    outer loop
      vertex 7.163364214788538 8.124601077452432 0.0
      vertex 8.412765716093274 8.642523667343319 0.0
      vertex 8.094939690482438 7.646696500699523 0.0
    endloop
  endfacet
  facet normal 0.0 0.0 -1.0
    outer loop
      vertex 6.017280065263179 9.883764284364313 0.0
      vertex 7.300325188655767 9.427769937964573 0.0
      vertex 6.308544537813634 8.82846832305834 0.0
    endloop
  endfacet
  facet normal 0.0 0.0 -1.0
    outer loop
      vertex 7.300325188655767 9.427769937964573 0.0
      vertex 7.163364214788538 8.124601077452432 0.0
      vertex 6.308544537813634 8.82846832305834 0.0
    endloop
  endfacet
  facet normal 0.0 0.0 -1.0
    outer loop
      vertex 4.658787933176659 9.976687691905397 0.0
      vertex 6.017280065263179 9.883764284364313 0.0
      vertex 5.305784525803232 8.79358476791148 0.0
    endloop
  endfacet
  facet normal 0.0 -0.0 -1.0
    outer loop
      vertex 6.017280065263179 9.883764284364313 0.0
      vertex 6.308544537813634 8.82846832305834 0.0
      vertex 5.305784525803232 8.79358476791148 0.0
    endloop
  endfacet
  facet normal 0.0 0.0 -1.0
    outer loop
      vertex 3.3256019391450877 9.69964845654681 0.0
      vertex 4.658787933176659 9.976687691905397 0.0
      vertex 4.232117951826426 8.683595135425154 0.0
    endloop
  endfacet
  facet normal 0.0 0.0 -1.0
    outer loop
      vertex 4.232117951826426 8.683595135425154 0.0
      vertex 4.658787933176659 9.976687691905397 0.0
      vertex 5.305784525803232 8.79358476791148 0.0
    endloop
  endfacet
  facet normal 0.0 0.0 -1.0
    outer loop
      vertex 2.116598389425683 9.073193311004923 0.0
      vertex 3.3256019391450877 9.69964845654681 0.0
      vertex 3.163930626813311 8.58458548598532 0.0
    endloop
  endfacet
  facet normal 0.0 -0.0 -1.0
    outer loop
      vertex 3.3256019391450877 9.69964845654681 0.0
      vertex 4.232117951826426 8.683595135425154 0.0
      vertex 3.163930626813311 8.58458548598532 0.0
    endloop
  endfacet
  facet normal 0.0 0.0 -1.0
    outer loop
      vertex 1.1214435464779158 8.143783567582982 0.0
      vertex 2.116598389425683 9.073193311004923 0.0
      vertex 2.525693776414142 7.942752775425531 0.0
    endloop
  endfacet
  facet normal 0.0 0.0 -1.0
    outer loop
      vertex 2.525693776414142 7.942752775425531 0.0
      vertex 2.116598389425683 9.073193311004923 0.0
      vertex 3.163930626813311 8.58458548598532 0.0
    endloop
  endfacet
  facet normal 0.0 0.0 -1.0
    outer loop
      vertex 0.4139434924727468 6.980349295183935 0.0
      vertex 1.1214435464779158 8.143783567582982 0.0
      vertex 1.8931235380572313 6.97110925004946 0.0
    endloop
  endfacet
  facet normal 0.0 0.0 -1.0
    outer loop
      vertex 1.8931235380572313 6.97110925004946 0.0
      vertex 1.1214435464779158 8.143783567582982 0.0
      vertex 2.525693776414142 7.942752775425531 0.0
    endloop
  endfacet
  facet normal 0.0 0.0 -1.0
    outer loop
      vertex 0.04657026981835036 5.6691770914339665 0.0
      vertex 0.4139434924727468 6.980349295183935 0.0
      vertex 1.3019387235862059 5.820249175202436 0.0
    endloop
  endfacet
  facet normal 0.0 0.0 -1.0
    outer loop
      vertex 0.4139434924727468 6.980349295183935 0.0
      vertex 1.8931235380572313 6.97110925004946 0.0
      vertex 1.3019387235862059 5.820249175202436 0.0
    endloop
  endfacet
  facet normal 0.0 0.0 -1.0
    outer loop
      vertex 0.04657026981834099 4.307510600471505 0.0
      vertex 0.04657026981835036 5.6691770914339665 0.0
      vertex 0.9202181870022377 4.889428256909469 0.0
    endloop
  endfacet
  facet normal 0.0 0.0 -1.0
    outer loop
      vertex 0.04657026981835036 5.6691770914339665 0.0
      vertex 1.3019387235862059 5.820249175202436 0.0
      vertex 0.9202181870022377 4.889428256909469 0.0
    endloop
  endfacet
  facet normal 0.0 0.0 -1.0
    outer loop
      vertex 0.41394349247271794 2.996338396721533 0.0
      vertex 0.04657026981834099 4.307510600471505 0.0
      vertex 1.306892170556582 3.8943922525039785 0.0
    endloop
  endfacet
  facet normal 0.0 0.0 -1.0
    outer loop
      vertex 1.306892170556582 3.8943922525039785 0.0
      vertex 0.04657026981834099 4.307510600471505 0.0
      vertex 0.9202181870022377 4.889428256909469 0.0
    endloop
  endfacet
  facet normal 0.0 0.0 -1.0
    outer loop
      vertex 1.1214435464778698 1.832904124322474 0.0
      vertex 0.41394349247271794 2.996338396721533 0.0
      vertex 1.516934090462214 2.870244544975393 0.0
    endloop
  endfacet
  facet normal 0.0 0.0 -1.0
    outer loop
      vertex 0.41394349247271794 2.996338396721533 0.0
      vertex 1.306892170556582 3.8943922525039785 0.0
      vertex 1.516934090462214 2.870244544975393 0.0
    endloop
  endfacet
  facet normal 0.0 0.0 -1.0
    outer loop
      vertex 2.1165983894256204 0.9034943809005207 0.0
      vertex 1.1214435464778698 1.832904124322474 0.0
      vertex 2.54902546973582 2.453958737370831 0.0
    endloop
  endfacet
  facet normal 0.0 0.0 -1.0
    outer loop
      vertex 1.1214435464778698 1.832904124322474 0.0
      vertex 1.516934090462214 2.870244544975393 0.0
      vertex 2.54902546973582 2.453958737370831 0.0
    endloop
  endfacet
  facet normal 0.0 0.0 -1.0
    outer loop
      vertex 3.325601939145014 0.2770392353586175 0.0
      vertex 2.1165983894256204 0.9034943809005207 0.0
      vertex 3.3770160190784595 1.5404536665346509 0.0
    endloop
  endfacet
  facet normal -0.0 0.0 -1.0
    outer loop
      vertex 3.3770160190784595 1.5404536665346509 0.0
      vertex 2.1165983894256204 0.9034943809005207 0.0
      vertex 2.54902546973582 2.453958737370831 0.0
    endloop
  endfacet
  facet normal 0.0 0.0 -1.0
    outer loop
      vertex 4.658787933176586 7.804001412456875e-15 0.0
      vertex 3.325601939145014 0.2770392353586175 0.0
      vertex 4.1989560117725935 0.9145262235775277 0.0
    endloop
  endfacet
  facet normal 0.0 0.0 -1.0
    outer loop
      vertex 3.325601939145014 0.2770392353586175 0.0
      vertex 3.3770160190784595 1.5404536665346509 0.0
      vertex 4.1989560117725935 0.9145262235775277 0.0
    endloop
  endfacet
  facet normal -0.0 0.0 -1.0
    outer loop
      vertex 6.017280065263123 0.09292340754107596 0.0
      vertex 4.658787933176586 7.804001412456875e-15 0.0
      vertex 5.282290751214356 0.8613991434996058 0.0
    endloop
  endfacet
  facet normal -0.0 0.0 -1.0
    outer loop
      vertex 5.282290751214356 0.8613991434996058 0.0
      vertex 4.658787933176586 7.804001412456875e-15 0.0
      vertex 4.1989560117725935 0.9145262235775277 0.0
    endloop
  endfacet
  facet normal -0.0 0.0 -1.0
    outer loop
      vertex 7.300325188655723 0.5489177539408036 0.0
      vertex 6.017280065263123 0.09292340754107596 0.0
      vertex 6.224011626819622 1.4232515033989839 0.0
    endloop
  endfacet
  facet normal 0.0 0.0 -1.0
    outer loop
      vertex 6.224011626819622 1.4232515033989839 0.0
      vertex 6.017280065263123 0.09292340754107596 0.0
      vertex 5.282290751214356 0.8613991434996058 0.0
    endloop
  endfacet
  facet normal -0.0 0.0 -1.0
    outer loop
      vertex 8.412765716093249 1.3341640245620585 0.0
      vertex 7.300325188655723 0.5489177539408036 0.0
      vertex 7.346103654769152 1.5950893600244433 0.0
    endloop
  endfacet
  facet normal 0.0 0.0 -1.0
    outer loop
      vertex 7.300325188655723 0.5489177539408036 0.0
      vertex 6.224011626819622 1.4232515033989839 0.0
      vertex 7.346103654769152 1.5950893600244433 0.0
    endloop
  endfacet
  facet normal -0.0 0.0 -1.0
    outer loop
      vertex 9.272097022732432 2.390424095775513 0.0
      vertex 8.412765716093249 1.3341640245620585 0.0
      vertex 7.885273999105088 2.427714278875632 0.0
    endloop
  endfacet
  facet normal 0.0 -0.0 -1.0
    outer loop
      vertex 7.885273999105088 2.427714278875632 0.0
      vertex 8.412765716093249 1.3341640245620585 0.0
      vertex 7.346103654769152 1.5950893600244433 0.0
    endloop
  endfacet
  facet normal 0.0 0.0 -1.0
    outer loop
      vertex 9.814586436738994 3.639359990167569 0.0
      vertex 9.272097022732432 2.390424095775513 0.0
      vertex 8.461731517631764 3.4847016567254987 0.0
    endloop
  endfacet
  facet normal 0.0 -0.0 -1.0
    outer loop
      vertex 8.461731517631764 3.4847016567254987 0.0
      vertex 9.272097022732432 2.390424095775513 0.0
      vertex 7.885273999105088 2.427714278875632 0.0
    endloop
  endfacet
  facet normal -0.0 0.0 -1.0
    outer loop
      vertex 9.814586436738994 3.639359990167569 0.0
      vertex 8.461731517631764 3.4847016567254987 0.0
      vertex 8.976437174734862 4.436124781175817 0.0
    endloop
  endfacet
  facet normal 0.0 -0.0 -1.0
    outer loop
      vertex 8.739038930262195 5.502262917895956 0.0
      vertex 8.976437174734862 4.436124781175817 0.0
      vertex 7.862020494349578 4.611539765123556 0.0
    endloop
  endfacet
  facet normal -0.0 0.0 -1.0
    outer loop
      vertex 8.739038930262195 5.502262917895956 0.0
      vertex 7.862020494349578 4.611539765123556 0.0
      vertex 7.435664864740658 5.856278703555283 0.0
    endloop
  endfacet
  facet normal 0.0 0.0 -1.0
    outer loop
      vertex 8.739038930262195 5.502262917895956 0.0
      vertex 7.435664864740658 5.856278703555283 0.0
      vertex 8.402883634778075 6.651897116673041 0.0
    endloop
  endfacet
  facet normal 0.0 0.0 -1.0
    outer loop
      vertex 1.306892170556582 3.8943922525039785 0.0
      vertex 2.8913281495310845 3.6074269869702964 0.0
      vertex 1.516934090462214 2.870244544975393 0.0
    endloop
  endfacet
  facet normal 0.0 0.0 -1.0
    outer loop
      vertex 2.8913281495310845 3.6074269869702964 0.0
      vertex 1.306892170556582 3.8943922525039785 0.0
      vertex 2.0053456888806367 4.836995320867152 0.0
    endloop
  endfacet
  facet normal -0.0 0.0 -1.0
    outer loop
      vertex 2.0053456888806367 4.836995320867152 0.0
      vertex 1.306892170556582 3.8943922525039785 0.0
      vertex 0.9202181870022377 4.889428256909469 0.0
    endloop
  endfacet
  facet normal 0.0 0.0 -1.0
    outer loop
      vertex 3.5072234030287412 7.306638523799789 0.0
      vertex 4.232117951826426 8.683595135425154 0.0
      vertex 4.767994265773015 7.76007333592907 0.0
    endloop
  endfacet
  facet normal 0.0 0.0 -1.0
    outer loop
      vertex 4.232117951826426 8.683595135425154 0.0
      vertex 3.5072234030287412 7.306638523799789 0.0
      vertex 3.163930626813311 8.58458548598532 0.0
    endloop
  endfacet
  facet normal 0.0 0.0 -1.0
    outer loop
      vertex 4.767994265773015 7.76007333592907 0.0
      vertex 4.232117951826426 8.683595135425154 0.0
      vertex 5.305784525803232 8.79358476791148 0.0
    endloop
  endfacet
  facet normal 0.0 -0.0 -1.0
    outer loop
      vertex 5.75135274156108 2.7141827862818277 0.0
      vertex 6.224011626819622 1.4232515033989839 0.0
      vertex 4.733229676877455 1.8232020456642046 0.0
    endloop
  endfacet
  facet normal 0.0 0.0 -1.0
    outer loop
      vertex 6.224011626819622 1.4232515033989839 0.0
      vertex 5.75135274156108 2.7141827862818277 0.0
      vertex 6.820848238773606 2.341124079383912 0.0
    endloop
  endfacet
  facet normal 0.0 0.0 -1.0
    outer loop
      vertex 4.733229676877455 1.8232020456642046 0.0
      vertex 6.224011626819622 1.4232515033989839 0.0
      vertex 5.282290751214356 0.8613991434996058 0.0
    endloop
  endfacet
  facet normal 0.0 0.0 -1.0
    outer loop
      vertex 6.224011626819622 1.4232515033989839 0.0
      vertex 6.820848238773606 2.341124079383912 0.0
      vertex 7.346103654769152 1.5950893600244433 0.0
    endloop
  endfacet
  facet normal 0.0 0.0 -1.0
    outer loop
      vertex 1.8931235380572313 6.97110925004946 0.0
      vertex 3.5072234030287412 7.306638523799789 0.0
      vertex 2.5906085406406447 5.914842677724013 0.0
    endloop
  endfacet
  facet normal -0.0 0.0 -1.0
    outer loop
      vertex 3.5072234030287412 7.306638523799789 0.0
      vertex 1.8931235380572313 6.97110925004946 0.0
      vertex 2.525693776414142 7.942752775425531 0.0
    endloop
  endfacet
  facet normal 0.0 -0.0 -1.0
    outer loop
      vertex 1.8931235380572313 6.97110925004946 0.0
      vertex 2.5906085406406447 5.914842677724013 0.0
      vertex 1.3019387235862059 5.820249175202436 0.0
    endloop
  endfacet
  facet normal 0.0 0.0 -1.0
    outer loop
      vertex 3.3770160190784595 1.5404536665346509 0.0
      vertex 4.733229676877455 1.8232020456642046 0.0
      vertex 4.1989560117725935 0.9145262235775277 0.0
    endloop
  endfacet
  facet normal -0.0 0.0 -1.0
    outer loop
      vertex 4.733229676877455 1.8232020456642046 0.0
      vertex 3.3770160190784595 1.5404536665346509 0.0
      vertex 3.6052394495408833 2.5203840103253716 0.0
    endloop
  endfacet
  facet normal 0.0 0.0 -1.0
    outer loop
      vertex 3.3770160190784595 1.5404536665346509 0.0
      vertex 2.54902546973582 2.453958737370831 0.0
      vertex 3.6052394495408833 2.5203840103253716 0.0
    endloop
  endfacet
  facet normal 0.0 0.0 -1.0
    outer loop
      vertex 5.849982400966478 7.6289198367866025 0.0
      vertex 7.163364214788538 8.124601077452432 0.0
      vertex 7.095951532232393 6.981462492993116 0.0
    endloop
  endfacet
  facet normal -0.0 0.0 -1.0
    outer loop
      vertex 7.163364214788538 8.124601077452432 0.0
      vertex 5.849982400966478 7.6289198367866025 0.0
      vertex 6.308544537813634 8.82846832305834 0.0
    endloop
  endfacet
  facet normal 0.0 0.0 -1.0
    outer loop
      vertex 7.095951532232393 6.981462492993116 0.0
      vertex 7.163364214788538 8.124601077452432 0.0
      vertex 8.094939690482438 7.646696500699523 0.0
    endloop
  endfacet
  facet normal -0.0 0.0 -1.0
    outer loop
      vertex 8.976437174734862 4.436124781175817 0.0
      vertex 8.461731517631764 3.4847016567254987 0.0
      vertex 7.862020494349578 4.611539765123556 0.0
    endloop
  endfacet
  facet normal 0.0 -0.0 -1.0
    outer loop
      vertex 7.862020494349578 4.611539765123556 0.0
      vertex 8.461731517631764 3.4847016567254987 0.0
      vertex 7.006984675255525 3.4690940865590503 0.0
    endloop
  endfacet
  facet normal 0.0 0.0 -1.0
    outer loop
      vertex 7.006984675255525 3.4690940865590503 0.0
      vertex 8.461731517631764 3.4847016567254987 0.0
      vertex 7.885273999105088 2.427714278875632 0.0
    endloop
  endfacet
  facet normal 0.0 -0.0 -1.0
    outer loop
      vertex 7.435664864740658 5.856278703555283 0.0
      vertex 7.862020494349578 4.611539765123556 0.0
      vertex 6.522111511384306 4.925043917063767 0.0
    endloop
  endfacet
  facet normal 0.0 0.0 -1.0
    outer loop
      vertex 6.522111511384306 4.925043917063767 0.0
      vertex 7.862020494349578 4.611539765123556 0.0
      vertex 7.006984675255525 3.4690940865590503 0.0
    endloop
  endfacet
  facet normal -0.0 0.0 -1.0
    outer loop
      vertex 7.435664864740658 5.856278703555283 0.0
      vertex 6.522111511384306 4.925043917063767 0.0
      vertex 6.133396651171191 6.236753943938741 0.0
    endloop
  endfacet
  facet normal 0.0 0.0 -1.0
    outer loop
      vertex 7.435664864740658 5.856278703555283 0.0
      vertex 6.133396651171191 6.236753943938741 0.0
      vertex 7.095951532232393 6.981462492993116 0.0
    endloop
  endfacet
  facet normal -0.0 0.0 -1.0
    outer loop
      vertex 8.402883634778075 6.651897116673041 0.0
      vertex 7.435664864740658 5.856278703555283 0.0
      vertex 7.095951532232393 6.981462492993116 0.0
    endloop
  endfacet
  facet normal 0.0 -0.0 -1.0
    outer loop
      vertex 6.133396651171191 6.236753943938741 0.0
      vertex 6.522111511384306 4.925043917063767 0.0
      vertex 5.151611997094361 5.350136288486012 0.0
    endloop
  endfacet
  facet normal 0.0 0.0 -1.0
    outer loop
      vertex 5.151611997094361 5.350136288486012 0.0
      vertex 6.522111511384306 4.925043917063767 0.0
      vertex 5.464950061905754 4.02664760636226 0.0
    endloop
  endfacet
  facet normal 0.0 0.0 -1.0
    outer loop
      vertex 5.464950061905754 4.02664760636226 0.0
      vertex 6.522111511384306 4.925043917063767 0.0
      vertex 7.006984675255525 3.4690940865590503 0.0
    endloop
  endfacet
  facet normal -0.0 0.0 -1.0
    outer loop
      vertex 6.133396651171191 6.236753943938741 0.0
      vertex 5.151611997094361 5.350136288486012 0.0
      vertex 4.87725546189449 6.634465829044578 0.0
    endloop
  endfacet
  facet normal 0.0 0.0 -1.0
    outer loop
      vertex 6.133396651171191 6.236753943938741 0.0
      vertex 4.87725546189449 6.634465829044578 0.0
      vertex 5.849982400966478 7.6289198367866025 0.0
    endloop
  endfacet
  facet normal 0.0 0.0 -1.0
    outer loop
      vertex 6.133396651171191 6.236753943938741 0.0
      vertex 5.849982400966478 7.6289198367866025 0.0
      vertex 7.095951532232393 6.981462492993116 0.0
    endloop
  endfacet
  facet normal 0.0 -0.0 -1.0
    outer loop
      vertex 5.151611997094361 5.350136288486012 0.0
      vertex 5.464950061905754 4.02664760636226 0.0
      vertex 4.142406732400582 4.438624998205317 0.0
    endloop
  endfacet
  facet normal -0.0 0.0 -1.0
    outer loop
      vertex 5.151611997094361 5.350136288486012 0.0
      vertex 4.142406732400582 4.438624998205317 0.0
      vertex 3.854546715370848 5.744671064743467 0.0
    endloop
  endfacet
  facet normal 0.0 0.0 -1.0
    outer loop
      vertex 5.151611997094361 5.350136288486012 0.0
      vertex 3.854546715370848 5.744671064743467 0.0
      vertex 4.87725546189449 6.634465829044578 0.0
    endloop
  endfacet
  facet normal 0.0 0.0 -1.0
    outer loop
      vertex 4.142406732400582 4.438624998205317 0.0
      vertex 5.464950061905754 4.02664760636226 0.0
      vertex 4.4755979324816 3.1768786150868764 0.0
    endloop
  endfacet
  facet normal 0.0 0.0 -1.0
    outer loop
      vertex 5.464950061905754 4.02664760636226 0.0
      vertex 7.006984675255525 3.4690940865590503 0.0
      vertex 5.75135274156108 2.7141827862818277 0.0
    endloop
  endfacet
  facet normal 0.0 0.0 -1.0
    outer loop
      vertex 4.4755979324816 3.1768786150868764 0.0
      vertex 5.464950061905754 4.02664760636226 0.0
      vertex 5.75135274156108 2.7141827862818277 0.0
    endloop
  endfacet
  facet normal 0.0 -0.0 -1.0
    outer loop
      vertex 3.854546715370848 5.744671064743467 0.0
      vertex 4.142406732400582 4.438624998205317 0.0
      vertex 3.0742014557915263 4.936224153858562 0.0
    endloop
  endfacet
  facet normal 0.0 -0.0 -1.0
    outer loop
      vertex 4.142406732400582 4.438624998205317 0.0
      vertex 4.4755979324816 3.1768786150868764 0.0
      vertex 2.8913281495310845 3.6074269869702964 0.0
    endloop
  endfacet
  facet normal -0.0 0.0 -1.0
    outer loop
      vertex 4.142406732400582 4.438624998205317 0.0
      vertex 2.8913281495310845 3.6074269869702964 0.0
      vertex 3.0742014557915263 4.936224153858562 0.0
    endloop
  endfacet
  facet normal -0.0 0.0 -1.0
    outer loop
      vertex 3.854546715370848 5.744671064743467 0.0
      vertex 3.0742014557915263 4.936224153858562 0.0
      vertex 2.5906085406406447 5.914842677724013 0.0
    endloop
  endfacet
  facet normal -0.0 0.0 -1.0
    outer loop
      vertex 4.87725546189449 6.634465829044578 0.0
      vertex 3.854546715370848 5.744671064743467 0.0
      vertex 3.5072234030287412 7.306638523799789 0.0
    endloop
  endfacet
  facet normal 0.0 -0.0 -1.0
    outer loop
      vertex 3.5072234030287412 7.306638523799789 0.0
      vertex 3.854546715370848 5.744671064743467 0.0
      vertex 2.5906085406406447 5.914842677724013 0.0
    endloop
  endfacet
  facet normal 0.0 0.0 -1.0
    outer loop
      vertex 5.75135274156108 2.7141827862818277 0.0
      vertex 7.006984675255525 3.4690940865590503 0.0
      vertex 6.820848238773606 2.341124079383912 0.0
    endloop
  endfacet
  facet normal 0.0 -0.0 -1.0
    outer loop
      vertex 7.006984675255525 3.4690940865590503 0.0
      vertex 7.885273999105088 2.427714278875632 0.0
      vertex 6.820848238773606 2.341124079383912 0.0
    endloop
  endfacet
  facet normal 0.0 0.0 -1.0
    outer loop
      vertex 2.8913281495310845 3.6074269869702964 0.0
      vertex 4.4755979324816 3.1768786150868764 0.0
      vertex 3.6052394495408833 2.5203840103253716 0.0
    endloop
  endfacet
  facet normal 0.0 0.0 -1.0
    outer loop
      vertex 4.4755979324816 3.1768786150868764 0.0
      vertex 5.75135274156108 2.7141827862818277 0.0
      vertex 4.733229676877455 1.8232020456642046 0.0
    endloop
  endfacet
  facet normal 0.0 -0.0 -1.0
    outer loop
      vertex 4.4755979324816 3.1768786150868764 0.0
      vertex 4.733229676877455 1.8232020456642046 0.0
      vertex 3.6052394495408833 2.5203840103253716 0.0
    endloop
  endfacet
  facet normal 0.0 0.0 -1.0
    outer loop
      vertex 3.0742014557915263 4.936224153858562 0.0
      vertex 2.8913281495310845 3.6074269869702964 0.0
      vertex 2.0053456888806367 4.836995320867152 0.0
    endloop
  endfacet
  facet normal 0.0 0.0 -1.0
    outer loop
      vertex 1.516934090462214 2.870244544975393 0.0
      vertex 2.8913281495310845 3.6074269869702964 0.0
      vertex 2.54902546973582 2.453958737370831 0.0
    endloop
  endfacet
  facet normal 0.0 0.0 -1.0
    outer loop
      vertex 2.54902546973582 2.453958737370831 0.0
      vertex 2.8913281495310845 3.6074269869702964 0.0
      vertex 3.6052394495408833 2.5203840103253716 0.0
    endloop
  endfacet
  facet normal 0.0 -0.0 -1.0
    outer loop
      vertex 4.733229676877455 1.8232020456642046 0.0
      vertex 5.282290751214356 0.8613991434996058 0.0
      vertex 4.1989560117725935 0.9145262235775277 0.0
    endloop
  endfacet
  facet normal 0.0 -0.0 -1.0
    outer loop
      vertex 2.5906085406406447 5.914842677724013 0.0
      vertex 3.0742014557915263 4.936224153858562 0.0
      vertex 2.0053456888806367 4.836995320867152 0.0
    endloop
  endfacet
  facet normal 0.0 0.0 -1.0
    outer loop
      vertex 4.87725546189449 6.634465829044578 0.0
      vertex 3.5072234030287412 7.306638523799789 0.0
      vertex 4.767994265773015 7.76007333592907 0.0
    endloop
  endfacet
  facet normal -0.0 0.0 -1.0
    outer loop
      vertex 5.849982400966478 7.6289198367866025 0.0
      vertex 4.87725546189449 6.634465829044578 0.0
      vertex 4.767994265773015 7.76007333592907 0.0
    endloop
  endfacet
  facet normal 0.0 0.0 -1.0
    outer loop
      vertex 3.5072234030287412 7.306638523799789 0.0
      vertex 2.525693776414142 7.942752775425531 0.0
      vertex 3.163930626813311 8.58458548598532 0.0
    endloop
  endfacet
  facet normal 0.0 0.0 -1.0
    outer loop
      vertex 6.308544537813634 8.82846832305834 0.0
      vertex 5.849982400966478 7.6289198367866025 0.0
      vertex 5.305784525803232 8.79358476791148 0.0
    endloop
  endfacet
  facet normal 0.0 0.0 -1.0
    outer loop
      vertex 5.849982400966478 7.6289198367866025 0.0
      vertex 4.767994265773015 7.76007333592907 0.0
      vertex 5.305784525803232 8.79358476791148 0.0
    endloop
  endfacet
  facet normal 0.0 0.0 -1.0
    outer loop
      vertex 8.402883634778075 6.651897116673041 0.0
      vertex 7.095951532232393 6.981462492993116 0.0
      vertex 8.094939690482438 7.646696500699523 0.0
    endloop
  endfacet
  facet normal 0.0 0.0 -1.0
    outer loop
      vertex 1.3019387235862059 5.820249175202436 0.0
      vertex 2.5906085406406447 5.914842677724013 0.0
      vertex 2.0053456888806367 4.836995320867152 0.0
    endloop
  endfacet
  facet normal 0.0 -0.0 -1.0
    outer loop
      vertex 1.3019387235862059 5.820249175202436 0.0
      vertex 2.0053456888806367 4.836995320867152 0.0
      vertex 0.9202181870022377 4.889428256909469 0.0
    endloop
  endfacet
  facet normal 0.0 0.0 -1.0
    outer loop
      vertex 6.820848238773606 2.341124079383912 0.0
      vertex 7.885273999105088 2.427714278875632 0.0
      vertex 7.346103654769152 1.5950893600244433 0.0
    endloop
  endfacet
  facet normal 0.0 0.0 1.0
    outer loop
      vertex 9.814586436738997 6.33732770173782 1.394860758546478
      vertex 8.97796701827044 5.529432472490319 1.394860758546478
      vertex 9.999999997451809 4.9883438459527 1.394860758546478
    endloop
  endfacet
  facet normal 0.0 0.0 1.0
    outer loop
      vertex 9.999999997451809 4.9883438459527 1.394860758546478
      vertex 8.739038930262188 4.474424774009441 1.394860758546478
      vertex 9.814586436738994 3.639359990167569 1.394860758546478
    endloop
  endfacet
  facet normal 0.0 0.0 1.0
    outer loop
      vertex 9.999999997451809 4.9883438459527 1.394860758546478
      vertex 8.97796701827044 5.529432472490319 1.394860758546478
      vertex 8.739038930262188 4.474424774009441 1.394860758546478
    endloop
  endfacet
  facet normal 0.0 0.0 1.0
    outer loop
      vertex 9.272097022732444 7.586263596129865 1.394860758546478
      vertex 8.461731517631778 6.491986035179893 1.394860758546478
      vertex 9.814586436738997 6.33732770173782 1.394860758546478
    endloop
  endfacet
  facet normal 0.0 0.0 1.0
    outer loop
      vertex 8.461731517631778 6.491986035179893 1.394860758546478
      vertex 8.97796701827044 5.529432472490319 1.394860758546478
      vertex 9.814586436738997 6.33732770173782 1.394860758546478
    endloop
  endfacet
  facet normal 0.0 0.0 1.0
    outer loop
      vertex 8.412765716093274 8.642523667343319 1.394860758546478
      vertex 7.827874177546302 7.508295065956778 1.394860758546478
      vertex 9.272097022732444 7.586263596129865 1.394860758546478
    endloop
  endfacet
  facet normal 0.0 0.0 1.0
    outer loop
      vertex 9.272097022732444 7.586263596129865 1.394860758546478
      vertex 7.827874177546302 7.508295065956778 1.394860758546478
      vertex 8.461731517631778 6.491986035179893 1.394860758546478
    endloop
  endfacet
  facet normal 0.0 0.0 1.0
    outer loop
      vertex 7.300325188655767 9.427769937964573 1.394860758546478
      vertex 7.262955968332267 8.38312230851075 1.394860758546478
      vertex 8.412765716093274 8.642523667343319 1.394860758546478
    endloop
  endfacet
  facet normal 0.0 0.0 1.0
    outer loop
      vertex 8.412765716093274 8.642523667343319 1.394860758546478
      vertex 7.262955968332267 8.38312230851075 1.394860758546478
      vertex 7.827874177546302 7.508295065956778 1.394860758546478
    endloop
  endfacet
  facet normal 0.0 0.0 1.0
    outer loop
      vertex 6.017280065263179 9.883764284364313 1.394860758546478
      vertex 6.236988726554505 8.591968831593057 1.394860758546478
      vertex 7.300325188655767 9.427769937964573 1.394860758546478
    endloop
  endfacet
  facet normal -0.0 0.0 1.0
    outer loop
      vertex 6.236988726554505 8.591968831593057 1.394860758546478
      vertex 7.262955968332267 8.38312230851075 1.394860758546478
      vertex 7.300325188655767 9.427769937964573 1.394860758546478
    endloop
  endfacet
  facet normal 0.0 0.0 1.0
    outer loop
      vertex 4.658787933176659 9.976687691905397 1.394860758546478
      vertex 5.223966971803078 9.039107181575542 1.394860758546478
      vertex 6.017280065263179 9.883764284364313 1.394860758546478
    endloop
  endfacet
  facet normal 0.0 0.0 1.0
    outer loop
      vertex 6.017280065263179 9.883764284364313 1.394860758546478
      vertex 5.223966971803078 9.039107181575542 1.394860758546478
      vertex 6.236988726554505 8.591968831593057 1.394860758546478
    endloop
  endfacet
  facet normal -0.0 0.0 1.0
    outer loop
      vertex 3.3256019391450877 9.69964845654681 1.394860758546478
      vertex 4.267803491677125 8.734975789659613 1.394860758546478
      vertex 4.658787933176659 9.976687691905397 1.394860758546478
    endloop
  endfacet
  facet normal 0.0 0.0 1.0
    outer loop
      vertex 4.658787933176659 9.976687691905397 1.394860758546478
      vertex 4.267803491677125 8.734975789659613 1.394860758546478
      vertex 5.223966971803078 9.039107181575542 1.394860758546478
    endloop
  endfacet
  facet normal -0.0 0.0 1.0
    outer loop
      vertex 2.116598389425683 9.073193311004923 1.394860758546478
      vertex 3.263626234656136 8.339393096453302 1.394860758546478
      vertex 3.3256019391450877 9.69964845654681 1.394860758546478
    endloop
  endfacet
  facet normal 0.0 0.0 1.0
    outer loop
      vertex 3.263626234656136 8.339393096453302 1.394860758546478
      vertex 4.267803491677125 8.734975789659613 1.394860758546478
      vertex 3.3256019391450877 9.69964845654681 1.394860758546478
    endloop
  endfacet
  facet normal -0.0 0.0 1.0
    outer loop
      vertex 1.1214435464779158 8.143783567582982 1.394860758546478
      vertex 2.2617626770331825 7.955861502056471 1.394860758546478
      vertex 2.116598389425683 9.073193311004923 1.394860758546478
    endloop
  endfacet
  facet normal 0.0 0.0 1.0
    outer loop
      vertex 2.116598389425683 9.073193311004923 1.394860758546478
      vertex 2.2617626770331825 7.955861502056471 1.394860758546478
      vertex 3.263626234656136 8.339393096453302 1.394860758546478
    endloop
  endfacet
  facet normal 0.0 0.0 1.0
    outer loop
      vertex 0.4139434924727468 6.980349295183935 1.394860758546478
      vertex 1.8203577734669512 7.165635448047746 1.394860758546478
      vertex 1.1214435464779158 8.143783567582982 1.394860758546478
    endloop
  endfacet
  facet normal 0.0 -0.0 1.0
    outer loop
      vertex 1.8203577734669512 7.165635448047746 1.394860758546478
      vertex 2.2617626770331825 7.955861502056471 1.394860758546478
      vertex 1.1214435464779158 8.143783567582982 1.394860758546478
    endloop
  endfacet
  facet normal 0.0 0.0 1.0
    outer loop
      vertex 0.04657026981835036 5.6691770914339665 1.394860758546478
      vertex 1.4733912410484118 6.059357692272469 1.394860758546478
      vertex 0.4139434924727468 6.980349295183935 1.394860758546478
    endloop
  endfacet
  facet normal 0.0 -0.0 1.0
    outer loop
      vertex 1.4733912410484118 6.059357692272469 1.394860758546478
      vertex 1.8203577734669512 7.165635448047746 1.394860758546478
      vertex 0.4139434924727468 6.980349295183935 1.394860758546478
    endloop
  endfacet
  facet normal 0.0 0.0 1.0
    outer loop
      vertex 0.04657026981834099 4.307510600471505 1.394860758546478
      vertex 1.214813055521857 4.785589396599201 1.394860758546478
      vertex 0.04657026981835036 5.6691770914339665 1.394860758546478
    endloop
  endfacet
  facet normal -0.0 0.0 1.0
    outer loop
      vertex 0.04657026981835036 5.6691770914339665 1.394860758546478
      vertex 1.214813055521857 4.785589396599201 1.394860758546478
      vertex 1.4733912410484118 6.059357692272469 1.394860758546478
    endloop
  endfacet
  facet normal 0.0 -0.0 1.0
    outer loop
      vertex 0.41394349247271794 2.996338396721533 1.394860758546478
      vertex 1.0284961809261703 3.799623761164879 1.394860758546478
      vertex 0.04657026981834099 4.307510600471505 1.394860758546478
    endloop
  endfacet
  facet normal -0.0 0.0 1.0
    outer loop
      vertex 0.04657026981834099 4.307510600471505 1.394860758546478
      vertex 1.0284961809261703 3.799623761164879 1.394860758546478
      vertex 1.214813055521857 4.785589396599201 1.394860758546478
    endloop
  endfacet
  facet normal 0.0 -0.0 1.0
    outer loop
      vertex 1.1214435464778698 1.832904124322474 1.394860758546478
      vertex 1.4619362695701703 2.9931391645600485 1.394860758546478
      vertex 0.41394349247271794 2.996338396721533 1.394860758546478
    endloop
  endfacet
  facet normal 0.0 0.0 1.0
    outer loop
      vertex 1.4619362695701703 2.9931391645600485 1.394860758546478
      vertex 1.0284961809261703 3.799623761164879 1.394860758546478
      vertex 0.41394349247271794 2.996338396721533 1.394860758546478
    endloop
  endfacet
  facet normal 0.0 -0.0 1.0
    outer loop
      vertex 2.1165983894256204 0.9034943809005207 1.394860758546478
      vertex 2.6880365243965354 2.5066190585543597 1.394860758546478
      vertex 1.1214435464778698 1.832904124322474 1.394860758546478
    endloop
  endfacet
  facet normal 0.0 0.0 1.0
    outer loop
      vertex 1.1214435464778698 1.832904124322474 1.394860758546478
      vertex 2.6880365243965354 2.5066190585543597 1.394860758546478
      vertex 1.4619362695701703 2.9931391645600485 1.394860758546478
    endloop
  endfacet
  facet normal 0.0 -0.0 1.0
    outer loop
      vertex 3.325601939145014 0.2770392353586175 1.394860758546478
      vertex 3.347380036542972 1.4176237259800097 1.394860758546478
      vertex 2.1165983894256204 0.9034943809005207 1.394860758546478
    endloop
  endfacet
  facet normal 0.0 0.0 1.0
    outer loop
      vertex 3.347380036542972 1.4176237259800097 1.394860758546478
      vertex 2.6880365243965354 2.5066190585543597 1.394860758546478
      vertex 2.1165983894256204 0.9034943809005207 1.394860758546478
    endloop
  endfacet
  facet normal 0.0 0.0 1.0
    outer loop
      vertex 4.658787933176586 7.804001412456875e-15 1.394860758546478
      vertex 4.30918678635159 1.197287007991463 1.394860758546478
      vertex 3.325601939145014 0.2770392353586175 1.394860758546478
    endloop
  endfacet
  facet normal 0.0 0.0 1.0
    outer loop
      vertex 4.30918678635159 1.197287007991463 1.394860758546478
      vertex 3.347380036542972 1.4176237259800097 1.394860758546478
      vertex 3.325601939145014 0.2770392353586175 1.394860758546478
    endloop
  endfacet
  facet normal 0.0 0.0 1.0
    outer loop
      vertex 6.017280065263123 0.09292340754107596 1.394860758546478
      vertex 5.3118467408746834 0.8465269307739614 1.394860758546478
      vertex 4.658787933176586 7.804001412456875e-15 1.394860758546478
    endloop
  endfacet
  facet normal 0.0 -0.0 1.0
    outer loop
      vertex 4.658787933176586 7.804001412456875e-15 1.394860758546478
      vertex 5.3118467408746834 0.8465269307739614 1.394860758546478
      vertex 4.30918678635159 1.197287007991463 1.394860758546478
    endloop
  endfacet
  facet normal 0.0 0.0 1.0
    outer loop
      vertex 7.300325188655723 0.5489177539408036 1.394860758546478
      vertex 6.385259000097083 1.0905985805931326 1.394860758546478
      vertex 6.017280065263123 0.09292340754107596 1.394860758546478
    endloop
  endfacet
  facet normal 0.0 0.0 1.0
    outer loop
      vertex 6.385259000097083 1.0905985805931326 1.394860758546478
      vertex 5.3118467408746834 0.8465269307739614 1.394860758546478
      vertex 6.017280065263123 0.09292340754107596 1.394860758546478
    endloop
  endfacet
  facet normal 0.0 0.0 1.0
    outer loop
      vertex 8.412765716093249 1.3341640245620585 1.394860758546478
      vertex 7.140472358473955 1.8856891829574634 1.394860758546478
      vertex 7.300325188655723 0.5489177539408036 1.394860758546478
    endloop
  endfacet
  facet normal 0.0 0.0 1.0
    outer loop
      vertex 7.140472358473955 1.8856891829574634 1.394860758546478
      vertex 6.385259000097083 1.0905985805931326 1.394860758546478
      vertex 7.300325188655723 0.5489177539408036 1.394860758546478
    endloop
  endfacet
  facet normal 0.0 0.0 1.0
    outer loop
      vertex 9.272097022732432 2.390424095775513 1.394860758546478
      vertex 8.17459287135332 2.353891631916594 1.394860758546478
      vertex 8.412765716093249 1.3341640245620585 1.394860758546478
    endloop
  endfacet
  facet normal 0.0 0.0 1.0
    outer loop
      vertex 8.412765716093249 1.3341640245620585 1.394860758546478
      vertex 8.17459287135332 2.353891631916594 1.394860758546478
      vertex 7.140472358473955 1.8856891829574634 1.394860758546478
    endloop
  endfacet
  facet normal 0.0 0.0 1.0
    outer loop
      vertex 9.814586436738994 3.639359990167569 1.394860758546478
      vertex 8.469129802031041 3.3011069781702376 1.394860758546478
      vertex 9.272097022732432 2.390424095775513 1.394860758546478
    endloop
  endfacet
  facet normal 0.0 0.0 1.0
    outer loop
      vertex 8.469129802031041 3.3011069781702376 1.394860758546478
      vertex 8.17459287135332 2.353891631916594 1.394860758546478
      vertex 9.272097022732432 2.390424095775513 1.394860758546478
    endloop
  endfacet
  facet normal 0.0 0.0 1.0
    outer loop
      vertex 8.739038930262188 4.474424774009441 1.394860758546478
      vertex 8.469129802031041 3.3011069781702376 1.394860758546478
      vertex 9.814586436738994 3.639359990167569 1.394860758546478
    endloop
  endfacet
  facet normal 0.0 0.0 1.0
    outer loop
      vertex 8.97796701827044 5.529432472490319 1.394860758546478
      vertex 7.857549535159778 5.397676570768336 1.394860758546478
      vertex 8.739038930262188 4.474424774009441 1.394860758546478
    endloop
  endfacet
  facet normal 0.0 0.0 1.0
    outer loop
      vertex 7.857549535159778 5.397676570768336 1.394860758546478
      vertex 7.342448919194129 4.066909973759806 1.394860758546478
      vertex 8.739038930262188 4.474424774009441 1.394860758546478
    endloop
  endfacet
  facet normal -0.0 0.0 1.0
    outer loop
      vertex 7.342448919194129 4.066909973759806 1.394860758546478
      vertex 8.469129802031041 3.3011069781702376 1.394860758546478
      vertex 8.739038930262188 4.474424774009441 1.394860758546478
    endloop
  endfacet
  facet normal -0.0 0.0 1.0
    outer loop
      vertex 1.4733912410484118 6.059357692272469 1.394860758546478
      vertex 2.4315476251813704 5.179321514155755 1.394860758546478
      vertex 2.937111189846655 6.817923561966751 1.394860758546478
    endloop
  endfacet
  facet normal 0.0 0.0 1.0
    outer loop
      vertex 2.937111189846655 6.817923561966751 1.394860758546478
      vertex 1.8203577734669512 7.165635448047746 1.394860758546478
      vertex 1.4733912410484118 6.059357692272469 1.394860758546478
    endloop
  endfacet
  facet normal 0.0 0.0 1.0
    outer loop
      vertex 1.4733912410484118 6.059357692272469 1.394860758546478
      vertex 1.214813055521857 4.785589396599201 1.394860758546478
      vertex 2.4315476251813704 5.179321514155755 1.394860758546478
    endloop
  endfacet
  facet normal -0.0 0.0 1.0
    outer loop
      vertex 4.30918678635159 1.197287007991463 1.394860758546478
      vertex 5.3118467408746834 0.8465269307739614 1.394860758546478
      vertex 5.5931423294818945 1.867256145506396 1.394860758546478
    endloop
  endfacet
  facet normal 0.0 0.0 1.0
    outer loop
      vertex 5.5931423294818945 1.867256145506396 1.394860758546478
      vertex 4.170926108277739 2.247423541924931 1.394860758546478
      vertex 4.30918678635159 1.197287007991463 1.394860758546478
    endloop
  endfacet
  facet normal 0.0 0.0 1.0
    outer loop
      vertex 4.30918678635159 1.197287007991463 1.394860758546478
      vertex 4.170926108277739 2.247423541924931 1.394860758546478
      vertex 3.347380036542972 1.4176237259800097 1.394860758546478
    endloop
  endfacet
  facet normal -0.0 0.0 1.0
    outer loop
      vertex 5.106043871085218 7.760322622684479 1.394860758546478
      vertex 6.480490988010938 7.4730332025633475 1.394860758546478
      vertex 6.236988726554505 8.591968831593057 1.394860758546478
    endloop
  endfacet
  facet normal 0.0 0.0 1.0
    outer loop
      vertex 6.236988726554505 8.591968831593057 1.394860758546478
      vertex 5.223966971803078 9.039107181575542 1.394860758546478
      vertex 5.106043871085218 7.760322622684479 1.394860758546478
    endloop
  endfacet
  facet normal 0.0 -0.0 1.0
    outer loop
      vertex 6.480490988010938 7.4730332025633475 1.394860758546478
      vertex 7.262955968332267 8.38312230851075 1.394860758546478
      vertex 6.236988726554505 8.591968831593057 1.394860758546478
    endloop
  endfacet
  facet normal 0.0 0.0 1.0
    outer loop
      vertex 2.937111189846655 6.817923561966751 1.394860758546478
      vertex 4.028794000196571 7.5946956887921475 1.394860758546478
      vertex 3.263626234656136 8.339393096453302 1.394860758546478
    endloop
  endfacet
  facet normal 0.0 0.0 1.0
    outer loop
      vertex 3.263626234656136 8.339393096453302 1.394860758546478
      vertex 2.2617626770331825 7.955861502056471 1.394860758546478
      vertex 2.937111189846655 6.817923561966751 1.394860758546478
    endloop
  endfacet
  facet normal 0.0 -0.0 1.0
    outer loop
      vertex 4.028794000196571 7.5946956887921475 1.394860758546478
      vertex 4.267803491677125 8.734975789659613 1.394860758546478
      vertex 3.263626234656136 8.339393096453302 1.394860758546478
    endloop
  endfacet
  facet normal 0.0 0.0 1.0
    outer loop
      vertex 6.33705185541222 3.0012273905718283 1.394860758546478
      vertex 5.5931423294818945 1.867256145506396 1.394860758546478
      vertex 7.140472358473955 1.8856891829574634 1.394860758546478
    endloop
  endfacet
  facet normal 0.0 -0.0 1.0
    outer loop
      vertex 7.140472358473955 1.8856891829574634 1.394860758546478
      vertex 7.467537592683339 2.930549144773098 1.394860758546478
      vertex 6.33705185541222 3.0012273905718283 1.394860758546478
    endloop
  endfacet
  facet normal -0.0 0.0 1.0
    outer loop
      vertex 5.5931423294818945 1.867256145506396 1.394860758546478
      vertex 6.385259000097083 1.0905985805931326 1.394860758546478
      vertex 7.140472358473955 1.8856891829574634 1.394860758546478
    endloop
  endfacet
  facet normal 0.0 0.0 1.0
    outer loop
      vertex 7.140472358473955 1.8856891829574634 1.394860758546478
      vertex 8.17459287135332 2.353891631916594 1.394860758546478
      vertex 7.467537592683339 2.930549144773098 1.394860758546478
    endloop
  endfacet
  facet normal 0.0 0.0 1.0
    outer loop
      vertex 2.6880365243965354 2.5066190585543597 1.394860758546478
      vertex 2.0052178172477664 3.915541247472106 1.394860758546478
      vertex 1.4619362695701703 2.9931391645600485 1.394860758546478
    endloop
  endfacet
  facet normal 0.0 0.0 1.0
    outer loop
      vertex 2.0052178172477664 3.915541247472106 1.394860758546478
      vertex 1.0284961809261703 3.799623761164879 1.394860758546478
      vertex 1.4619362695701703 2.9931391645600485 1.394860758546478
    endloop
  endfacet
  facet normal 0.0 0.0 1.0
    outer loop
      vertex 8.461731517631778 6.491986035179893 1.394860758546478
      vertex 7.857549535159778 5.397676570768336 1.394860758546478
      vertex 8.97796701827044 5.529432472490319 1.394860758546478
    endloop
  endfacet
  facet normal 0.0 0.0 1.0
    outer loop
      vertex 8.461731517631778 6.491986035179893 1.394860758546478
      vertex 7.111177782130309 6.481227840481846 1.394860758546478
      vertex 7.857549535159778 5.397676570768336 1.394860758546478
    endloop
  endfacet
  facet normal 0.0 0.0 1.0
    outer loop
      vertex 8.461731517631778 6.491986035179893 1.394860758546478
      vertex 7.827874177546302 7.508295065956778 1.394860758546478
      vertex 7.111177782130309 6.481227840481846 1.394860758546478
    endloop
  endfacet
  facet normal 0.0 0.0 1.0
    outer loop
      vertex 7.111177782130309 6.481227840481846 1.394860758546478
      vertex 6.482745604092611 5.338052020806131 1.394860758546478
      vertex 7.857549535159778 5.397676570768336 1.394860758546478
    endloop
  endfacet
  facet normal -0.0 0.0 1.0
    outer loop
      vertex 6.482745604092611 5.338052020806131 1.394860758546478
      vertex 7.342448919194129 4.066909973759806 1.394860758546478
      vertex 7.857549535159778 5.397676570768336 1.394860758546478
    endloop
  endfacet
  facet normal 0.0 0.0 1.0
    outer loop
      vertex 7.111177782130309 6.481227840481846 1.394860758546478
      vertex 5.754550215151334 6.496246267339321 1.394860758546478
      vertex 6.482745604092611 5.338052020806131 1.394860758546478
    endloop
  endfacet
  facet normal 0.0 0.0 1.0
    outer loop
      vertex 7.111177782130309 6.481227840481846 1.394860758546478
      vertex 6.480490988010938 7.4730332025633475 1.394860758546478
      vertex 5.754550215151334 6.496246267339321 1.394860758546478
    endloop
  endfacet
  facet normal 0.0 0.0 1.0
    outer loop
      vertex 7.827874177546302 7.508295065956778 1.394860758546478
      vertex 6.480490988010938 7.4730332025633475 1.394860758546478
      vertex 7.111177782130309 6.481227840481846 1.394860758546478
    endloop
  endfacet
  facet normal 0.0 0.0 1.0
    outer loop
      vertex 5.754550215151334 6.496246267339321 1.394860758546478
      vertex 5.048379380248777 5.377624469794348 1.394860758546478
      vertex 6.482745604092611 5.338052020806131 1.394860758546478
    endloop
  endfacet
  facet normal 0.0 0.0 1.0
    outer loop
      vertex 5.048379380248777 5.377624469794348 1.394860758546478
      vertex 5.70717099302148 4.187751936492253 1.394860758546478
      vertex 6.482745604092611 5.338052020806131 1.394860758546478
    endloop
  endfacet
  facet normal -0.0 0.0 1.0
    outer loop
      vertex 5.70717099302148 4.187751936492253 1.394860758546478
      vertex 7.342448919194129 4.066909973759806 1.394860758546478
      vertex 6.482745604092611 5.338052020806131 1.394860758546478
    endloop
  endfacet
  facet normal 0.0 0.0 1.0
    outer loop
      vertex 5.754550215151334 6.496246267339321 1.394860758546478
      vertex 4.437688766145563 6.540307079583565 1.394860758546478
      vertex 5.048379380248777 5.377624469794348 1.394860758546478
    endloop
  endfacet
  facet normal 0.0 0.0 1.0
    outer loop
      vertex 5.754550215151334 6.496246267339321 1.394860758546478
      vertex 5.106043871085218 7.760322622684479 1.394860758546478
      vertex 4.437688766145563 6.540307079583565 1.394860758546478
    endloop
  endfacet
  facet normal 0.0 -0.0 1.0
    outer loop
      vertex 5.754550215151334 6.496246267339321 1.394860758546478
      vertex 6.480490988010938 7.4730332025633475 1.394860758546478
      vertex 5.106043871085218 7.760322622684479 1.394860758546478
    endloop
  endfacet
  facet normal 0.0 0.0 1.0
    outer loop
      vertex 5.048379380248777 5.377624469794348 1.394860758546478
      vertex 4.322520987667114 4.227634168741697 1.394860758546478
      vertex 5.70717099302148 4.187751936492253 1.394860758546478
    endloop
  endfacet
  facet normal 0.0 0.0 1.0
    outer loop
      vertex 5.048379380248777 5.377624469794348 1.394860758546478
      vertex 3.6929685888538173 5.407584801030235 1.394860758546478
      vertex 4.322520987667114 4.227634168741697 1.394860758546478
    endloop
  endfacet
  facet normal 0.0 0.0 1.0
    outer loop
      vertex 5.048379380248777 5.377624469794348 1.394860758546478
      vertex 4.437688766145563 6.540307079583565 1.394860758546478
      vertex 3.6929685888538173 5.407584801030235 1.394860758546478
    endloop
  endfacet
  facet normal 0.0 0.0 1.0
    outer loop
      vertex 4.322520987667114 4.227634168741697 1.394860758546478
      vertex 4.981322085397471 3.1036176875624855 1.394860758546478
      vertex 5.70717099302148 4.187751936492253 1.394860758546478
    endloop
  endfacet
  facet normal 0.0 0.0 1.0
    outer loop
      vertex 5.70717099302148 4.187751936492253 1.394860758546478
      vertex 6.33705185541222 3.0012273905718283 1.394860758546478
      vertex 7.342448919194129 4.066909973759806 1.394860758546478
    endloop
  endfacet
  facet normal -0.0 0.0 1.0
    outer loop
      vertex 4.981322085397471 3.1036176875624855 1.394860758546478
      vertex 6.33705185541222 3.0012273905718283 1.394860758546478
      vertex 5.70717099302148 4.187751936492253 1.394860758546478
    endloop
  endfacet
  facet normal 0.0 0.0 1.0
    outer loop
      vertex 3.6929685888538173 5.407584801030235 1.394860758546478
      vertex 3.169029255873813 4.111874440580352 1.394860758546478
      vertex 4.322520987667114 4.227634168741697 1.394860758546478
    endloop
  endfacet
  facet normal 0.0 0.0 1.0
    outer loop
      vertex 4.322520987667114 4.227634168741697 1.394860758546478
      vertex 3.8501159094504613 3.2601683378374675 1.394860758546478
      vertex 4.981322085397471 3.1036176875624855 1.394860758546478
    endloop
  endfacet
  facet normal 0.0 0.0 1.0
    outer loop
      vertex 4.322520987667114 4.227634168741697 1.394860758546478
      vertex 3.169029255873813 4.111874440580352 1.394860758546478
      vertex 3.8501159094504613 3.2601683378374675 1.394860758546478
    endloop
  endfacet
  facet normal 0.0 0.0 1.0
    outer loop
      vertex 3.6929685888538173 5.407584801030235 1.394860758546478
      vertex 2.4315476251813704 5.179321514155755 1.394860758546478
      vertex 3.169029255873813 4.111874440580352 1.394860758546478
    endloop
  endfacet
  facet normal 0.0 0.0 1.0
    outer loop
      vertex 4.437688766145563 6.540307079583565 1.394860758546478
      vertex 2.937111189846655 6.817923561966751 1.394860758546478
      vertex 3.6929685888538173 5.407584801030235 1.394860758546478
    endloop
  endfacet
  facet normal 0.0 0.0 1.0
    outer loop
      vertex 2.937111189846655 6.817923561966751 1.394860758546478
      vertex 2.4315476251813704 5.179321514155755 1.394860758546478
      vertex 3.6929685888538173 5.407584801030235 1.394860758546478
    endloop
  endfacet
  facet normal -0.0 0.0 1.0
    outer loop
      vertex 6.33705185541222 3.0012273905718283 1.394860758546478
      vertex 7.467537592683339 2.930549144773098 1.394860758546478
      vertex 7.342448919194129 4.066909973759806 1.394860758546478
    endloop
  endfacet
  facet normal 0.0 0.0 1.0
    outer loop
      vertex 7.342448919194129 4.066909973759806 1.394860758546478
      vertex 7.467537592683339 2.930549144773098 1.394860758546478
      vertex 8.469129802031041 3.3011069781702376 1.394860758546478
    endloop
  endfacet
  facet normal 0.0 0.0 1.0
    outer loop
      vertex 3.8501159094504613 3.2601683378374675 1.394860758546478
      vertex 4.170926108277739 2.247423541924931 1.394860758546478
      vertex 4.981322085397471 3.1036176875624855 1.394860758546478
    endloop
  endfacet
  facet normal 0.0 0.0 1.0
    outer loop
      vertex 4.981322085397471 3.1036176875624855 1.394860758546478
      vertex 5.5931423294818945 1.867256145506396 1.394860758546478
      vertex 6.33705185541222 3.0012273905718283 1.394860758546478
    endloop
  endfacet
  facet normal 0.0 0.0 1.0
    outer loop
      vertex 4.981322085397471 3.1036176875624855 1.394860758546478
      vertex 4.170926108277739 2.247423541924931 1.394860758546478
      vertex 5.5931423294818945 1.867256145506396 1.394860758546478
    endloop
  endfacet
  facet normal 0.0 0.0 1.0
    outer loop
      vertex 3.169029255873813 4.111874440580352 1.394860758546478
      vertex 2.6880365243965354 2.5066190585543597 1.394860758546478
      vertex 3.8501159094504613 3.2601683378374675 1.394860758546478
    endloop
  endfacet
  facet normal -0.0 0.0 1.0
    outer loop
      vertex 2.6880365243965354 2.5066190585543597 1.394860758546478
      vertex 4.170926108277739 2.247423541924931 1.394860758546478
      vertex 3.8501159094504613 3.2601683378374675 1.394860758546478
    endloop
  endfacet
  facet normal 0.0 0.0 1.0
    outer loop
      vertex 5.5931423294818945 1.867256145506396 1.394860758546478
      vertex 5.3118467408746834 0.8465269307739614 1.394860758546478
      vertex 6.385259000097083 1.0905985805931326 1.394860758546478
    endloop
  endfacet
  facet normal 0.0 0.0 1.0
    outer loop
      vertex 2.4315476251813704 5.179321514155755 1.394860758546478
      vertex 2.0052178172477664 3.915541247472106 1.394860758546478
      vertex 3.169029255873813 4.111874440580352 1.394860758546478
    endloop
  endfacet
  facet normal 0.0 0.0 1.0
    outer loop
      vertex 3.169029255873813 4.111874440580352 1.394860758546478
      vertex 2.0052178172477664 3.915541247472106 1.394860758546478
      vertex 2.6880365243965354 2.5066190585543597 1.394860758546478
    endloop
  endfacet
  facet normal 0.0 0.0 1.0
    outer loop
      vertex 4.437688766145563 6.540307079583565 1.394860758546478
      vertex 4.028794000196571 7.5946956887921475 1.394860758546478
      vertex 2.937111189846655 6.817923561966751 1.394860758546478
    endloop
  endfacet
  facet normal 0.0 0.0 1.0
    outer loop
      vertex 5.106043871085218 7.760322622684479 1.394860758546478
      vertex 4.028794000196571 7.5946956887921475 1.394860758546478
      vertex 4.437688766145563 6.540307079583565 1.394860758546478
    endloop
  endfacet
  facet normal 0.0 0.0 1.0
    outer loop
      vertex 2.937111189846655 6.817923561966751 1.394860758546478
      vertex 2.2617626770331825 7.955861502056471 1.394860758546478
      vertex 1.8203577734669512 7.165635448047746 1.394860758546478
    endloop
  endfacet
  facet normal 0.0 0.0 1.0
    outer loop
      vertex 5.223966971803078 9.039107181575542 1.394860758546478
      vertex 4.267803491677125 8.734975789659613 1.394860758546478
      vertex 5.106043871085218 7.760322622684479 1.394860758546478
    endloop
  endfacet
  facet normal 0.0 0.0 1.0
    outer loop
      vertex 5.106043871085218 7.760322622684479 1.394860758546478
      vertex 4.267803491677125 8.734975789659613 1.394860758546478
      vertex 4.028794000196571 7.5946956887921475 1.394860758546478
    endloop
  endfacet
  facet normal 0.0 0.0 1.0
    outer loop
      vertex 7.827874177546302 7.508295065956778 1.394860758546478
      vertex 7.262955968332267 8.38312230851075 1.394860758546478
      vertex 6.480490988010938 7.4730332025633475 1.394860758546478
    endloop
  endfacet
  facet normal -0.0 0.0 1.0
    outer loop
      vertex 1.214813055521857 4.785589396599201 1.394860758546478
      vertex 2.0052178172477664 3.915541247472106 1.394860758546478
      vertex 2.4315476251813704 5.179321514155755 1.394860758546478
    endloop
  endfacet
  facet normal 0.0 0.0 1.0
    outer loop
      vertex 1.214813055521857 4.785589396599201 1.394860758546478
      vertex 1.0284961809261703 3.799623761164879 1.394860758546478
      vertex 2.0052178172477664 3.915541247472106 1.394860758546478
    endloop
  endfacet
  facet normal -0.0 0.0 1.0
    outer loop
      vertex 7.467537592683339 2.930549144773098 1.394860758546478
      vertex 8.17459287135332 2.353891631916594 1.394860758546478
      vertex 8.469129802031041 3.3011069781702376 1.394860758546478
    endloop
  endfacet
  facet normal 0.0 -0.0 1.0
    outer loop
      vertex 3.347380036542972 1.4176237259800097 1.394860758546478
      vertex 4.170926108277739 2.247423541924931 1.394860758546478
      vertex 2.6880365243965354 2.5066190585543597 1.394860758546478
    endloop
  endfacet
  facet normal 0.9887726448881933 0.13590367003869283 -0.06211963611307568
    outer loop
      vertex 9.814586436738997 6.33732770173782 0.0
      vertex 9.926086315283262 5.844891342813785 0.697430379273239
      vertex 9.999999997451809 4.9883438459527 0.0
    endloop
  endfacet
  facet normal 0.9887726448881924 -0.13590367003869416 -0.06211963611308586
    outer loop
      vertex 9.999999997451809 4.9883438459527 0.0
      vertex 9.92608631528329 4.131796349091779 0.697430379273239
      vertex 9.814586436738994 3.639359990167569 0.0
    endloop
  endfacet
  facet normal 0.9962974613680025 0.08597306829277147 -3.640156980092814e-09
    outer loop
      vertex 9.999999997451809 4.9883438459527 0.0
      vertex 9.926086315283262 5.844891342813785 0.697430379273239
      vertex 10.0 4.9883438459526985 0.6974303792732386
    endloop
  endfacet
  facet normal 0.996297461368004 -0.0859730682927553 -3.64015741804004e-09
    outer loop
      vertex 10.0 4.9883438459526985 0.6974303792732386
      vertex 9.92608631528329 4.131796349091779 0.697430379273239
      vertex 9.999999997451809 4.9883438459527 0.0
    endloop
  endfacet
  facet normal 0.9887726448881933 0.13590367003869283 0.062119636113075694
    outer loop
      vertex 9.999999997451809 4.9883438459527 1.394860758546478
      vertex 9.926086315283262 5.844891342813785 0.697430379273239
      vertex 9.814586436738997 6.33732770173782 1.394860758546478
    endloop
  endfacet
  facet normal 0.9887726448881924 -0.13590367003869416 0.06211963611308586
    outer loop
      vertex 9.814586436738994 3.639359990167569 1.394860758546478
      vertex 9.92608631528329 4.131796349091779 0.697430379273239
      vertex 9.999999997451809 4.9883438459527 1.394860758546478
    endloop
  endfacet
  facet normal 0.9962974613680025 0.08597306829277147 3.640156980092809e-09
    outer loop
      vertex 10.0 4.9883438459526985 0.6974303792732386
      vertex 9.926086315283262 5.844891342813785 0.697430379273239
      vertex 9.999999997451809 4.9883438459527 1.394860758546478
    endloop
  endfacet
  facet normal 0.9962974613680038 -0.08597306829275528 3.6401574180400345e-09
    outer loop
      vertex 9.999999997451809 4.9883438459527 1.394860758546478
      vertex 9.92608631528329 4.131796349091779 0.697430379273239
      vertex 10.0 4.9883438459526985 0.6974303792732386
    endloop
  endfacet
  facet normal 0.9151823305025362 0.3975197833713848 -0.06647799458703399
    outer loop
      vertex 9.272097022732444 7.586263596129865 0.0
      vertex 9.586056507527267 6.980349295183906 0.698986959713485
      vertex 9.814586436738997 6.33732770173782 0.0
    endloop
  endfacet
  facet normal 0.9568210933747248 0.2864667573500002 0.049296979690164174
    outer loop
      vertex 9.586056507527267 6.980349295183906 0.698986959713485
      vertex 9.926086315283262 5.844891342813785 0.697430379273239
      vertex 9.814586436738997 6.33732770173782 0.0
    endloop
  endfacet
  facet normal 0.773995333091501 0.6296919092606023 -0.06647799458703266
    outer loop
      vertex 8.412765716093274 8.642523667343319 0.0
      vertex 8.878556453522101 8.143783567582963 0.6989869597134839
      vertex 9.272097022732444 7.586263596129865 0.0
    endloop
  endfacet
  facet normal 0.852529336038492 0.5184345739140619 0.06647799458702924
    outer loop
      vertex 9.272097022732444 7.586263596129865 0.0
      vertex 8.878556453522101 8.143783567582963 0.6989869597134839
      vertex 9.586056507527267 6.980349295183906 0.698986959713485
    endloop
  endfacet
  facet normal 0.5753932412300139 0.8151465148016301 -0.06677407695786589
    outer loop
      vertex 7.300325188655767 9.427769937964573 0.0
      vertex 7.88340161057434 9.073193311004907 0.6958737988329932
      vertex 8.412765716093274 8.642523667343319 0.0
    endloop
  endfacet
  facet normal 0.6809252038847741 0.729316037057518 0.06662570678946553
    outer loop
      vertex 7.88340161057434 9.073193311004907 0.6958737988329932
      vertex 8.878556453522101 8.143783567582963 0.6989869597134839
      vertex 8.412765716093274 8.642523667343319 0.0
    endloop
  endfacet
  facet normal 0.3341323011933752 0.9401581905541546 -0.06676961908800716
    outer loop
      vertex 6.017280065263179 9.883764284364313 0.0
      vertex 6.674410595264448 9.699644001797811 0.6959204666190826
      vertex 7.300325188655767 9.427769937964573 0.0
    endloop
  endfacet
  facet normal 0.45904154684081755 0.8859021115422215 0.06677055517982994
    outer loop
      vertex 7.300325188655767 9.427769937964573 0.0
      vertex 6.674410595264448 9.699644001797811 0.6959204666190826
      vertex 7.88340161057434 9.073193311004907 0.6958737988329932
    endloop
  endfacet
  facet normal 0.0680901045335761 0.9954420928969357 -0.06677407695786793
    outer loop
      vertex 4.658787933176659 9.976687691905397 0.0
      vertex 5.341212066823366 9.976687691905395 0.6958737988329848
      vertex 6.017280065263179 9.883764284364313 0.0
    endloop
  endfacet
  facet normal 0.20300099545223568 0.9768991470570784 0.066773140742024
    outer loop
      vertex 5.341212066823366 9.976687691905395 0.6958737988329848
      vertex 6.674410595264448 9.699644001797811 0.6959204666190826
      vertex 6.017280065263179 9.883764284364313 0.0
    endloop
  endfacet
  facet normal -0.20300201556986827 0.9768993318496012 -0.06676733562434267
    outer loop
      vertex 3.3256019391450877 9.69964845654681 0.0
      vertex 3.982719934736794 9.883764284364306 0.695944374161271
      vertex 4.658787933176659 9.976687691905397 0.0
    endloop
  endfacet
  facet normal -0.06808666726196301 0.9954425541161429 0.06677070612093877
    outer loop
      vertex 3.982719934736794 9.883764284364306 0.695944374161271
      vertex 5.341212066823366 9.976687691905395 0.6958737988329848
      vertex 4.658787933176659 9.976687691905397 0.0
    endloop
  endfacet
  facet normal -0.45903822808784195 0.8859035657453916 -0.06677407695786657
    outer loop
      vertex 2.116598389425683 9.073193311004923 0.0
      vertex 2.699674811344258 9.427769937964586 0.6958737988329909
      vertex 3.3256019391450877 9.69964845654681 0.0
    endloop
  endfacet
  facet normal -0.33413553774468785 0.9401569630759433 0.06677070612093032
    outer loop
      vertex 2.699674811344258 9.427769937964586 0.6958737988329909
      vertex 3.982719934736794 9.883764284364306 0.695944374161271
      vertex 3.3256019391450877 9.69964845654681 0.0
    endloop
  endfacet
  facet normal -0.6810297669738848 0.7292048266035552 -0.06677407695786744
    outer loop
      vertex 1.1214435464779158 8.143783567582982 0.0
      vertex 1.5872342839067455 8.642523667343335 0.6958737988329932
      vertex 2.116598389425683 9.073193311004923 0.0
    endloop
  endfacet
  facet normal -0.5753932412300098 0.8151465148016327 0.06677407695786779
    outer loop
      vertex 1.5872342839067455 8.642523667343335 0.6958737988329932
      vertex 2.699674811344258 9.427769937964586 0.6958737988329909
      vertex 2.116598389425683 9.073193311004923 0.0
    endloop
  endfacet
  facet normal -0.8525209179113089 0.5184294547375252 -0.06662570813290755
    outer loop
      vertex 0.4139434924727468 6.980349295183935 0.0
      vertex 0.7279098890424031 7.586274962025317 0.6974303730098524
      vertex 1.1214435464779158 8.143783567582982 0.0
    endloop
  endfacet
  facet normal -0.7739349588330038 0.6297427944812652 0.06669851793768347
    outer loop
      vertex 1.1214435464779158 8.143783567582982 0.0
      vertex 0.7279098890424031 7.586274962025317 0.6974303730098524
      vertex 1.5872342839067455 8.642523667343335 0.6958737988329932
    endloop
  endfacet
  facet normal -0.9607872097407848 0.26919995140082 -0.06647799458703113
    outer loop
      vertex 0.04657026981835036 5.6691770914339665 0.0
      vertex 0.18541356326101185 6.337327701737852 0.698986959713485
      vertex 0.4139434924727468 6.980349295183935 0.0
    endloop
  endfacet
  facet normal -0.9151468992398981 0.3975887867975541 0.06655305721339094
    outer loop
      vertex 0.18541356326101185 6.337327701737852 0.698986959713485
      vertex 0.7279098890424031 7.586274962025317 0.6974303730098524
      vertex 0.4139434924727468 6.980349295183935 0.0
    endloop
  endfacet
  facet normal -0.9977878914056267 6.8642247496549854e-15 -0.06647799458703067
    outer loop
      vertex 0.04657026981834099 4.307510600471505 0.0
      vertex 0.0 4.988343845952737 0.6989869597134872
      vertex 0.04657026981835036 5.6691770914339665 0.0
    endloop
  endfacet
  facet normal -0.988494441140778 0.13586543368152046 0.06647799458703163
    outer loop
      vertex 0.04657026981835036 5.6691770914339665 0.0
      vertex 0.0 4.988343845952737 0.6989869597134872
      vertex 0.18541356326101185 6.337327701737852 0.698986959713485
    endloop
  endfacet
  facet normal -0.9607681721678426 -0.2691946173230208 -0.06677407695786723
    outer loop
      vertex 0.41394349247271794 2.996338396721533 0.0
      vertex 0.18541356326099234 3.6393599901676192 0.6958737988329953
      vertex 0.04657026981834099 4.307510600471505 0.0
    endloop
  endfacet
  facet normal -0.9884639273692819 -0.1360149972778715 0.06662570678946397
    outer loop
      vertex 0.04657026981834099 4.307510600471505 0.0
      vertex 0.18541356326099234 3.6393599901676192 0.6958737988329953
      vertex 0.0 4.988343845952737 0.6989869597134872
    endloop
  endfacet
  facet normal -0.8525126984428781 -0.5184244563680277 -0.06676961908800572
    outer loop
      vertex 1.1214435464778698 1.832904124322474 0.0
      vertex 0.7279098890423765 2.390412729880128 0.6959204666190876
      vertex 0.41394349247271794 2.996338396721533 0.0
    endloop
  endfacet
  facet normal -0.9151646369735945 -0.3975110500456997 0.06677314074202412
    outer loop
      vertex 0.41394349247271794 2.996338396721533 0.0
      vertex 0.7279098890423765 2.390412729880128 0.6959204666190876
      vertex 0.18541356326099234 3.6393599901676192 0.6958737988329953
    endloop
  endfacet
  facet normal -0.681029766973896 -0.7292048266035449 -0.0667740769578671
    outer loop
      vertex 2.1165983894256204 0.9034943809005207 0.0
      vertex 1.587234283906692 1.3341640245621147 0.6958737988329919
      vertex 1.1214435464778698 1.832904124322474 0.0
    endloop
  endfacet
  facet normal -0.7739778977094194 -0.6296823856662065 0.06677055517982841
    outer loop
      vertex 1.587234283906692 1.3341640245621147 0.6958737988329919
      vertex 0.7279098890423765 2.390412729880128 0.6959204666190876
      vertex 1.1214435464778698 1.832904124322474 0.0
    endloop
  endfacet
  facet normal -0.45903822808785405 -0.8859035657453851 -0.06677407695786813
    outer loop
      vertex 3.325601939145014 0.2770392353586175 0.0
      vertex 2.699674811344189 0.5489177539408496 0.6958737988329893
      vertex 2.1165983894256204 0.9034943809005207 0.0
    endloop
  endfacet
  facet normal -0.5753932412300221 -0.815146514801624 0.06677407695786768
    outer loop
      vertex 2.1165983894256204 0.9034943809005207 0.0
      vertex 2.699674811344189 0.5489177539408496 0.6958737988329893
      vertex 1.587234283906692 1.3341640245621147 0.6958737988329919
    endloop
  endfacet
  facet normal -0.20300594625759505 -0.9769182473573441 -0.06647799458703202
    outer loop
      vertex 4.658787933176586 7.804001412456875e-15 0.0
      vertex 3.982719934736775 0.09292340754109703 0.698986959713485
      vertex 3.325601939145014 0.2770392353586175 0.0
    endloop
  endfacet
  facet normal -0.33427904922983886 -0.9401162334737121 0.06662570678946385
    outer loop
      vertex 3.982719934736775 0.09292340754109703 0.698986959713485
      vertex 2.699674811344189 0.5489177539408496 0.6958737988329893
      vertex 3.325601939145014 0.2770392353586175 0.0
    endloop
  endfacet
  facet normal 0.06809145373555572 -0.9954618175318756 -0.06647799458703302
    outer loop
      vertex 6.017280065263123 0.09292340754107596 0.0
      vertex 5.341212066823301 0.0 0.6989869597134856
      vertex 4.658787933176586 7.804001412456875e-15 0.0
    endloop
  endfacet
  facet normal -0.06809145373557735 -0.9954618175318741 0.06647799458703192
    outer loop
      vertex 5.341212066823301 0.0 0.6989869597134856
      vertex 3.982719934736775 0.09292340754109703 0.698986959713485
      vertex 4.658787933176586 7.804001412456875e-15 0.0
    endloop
  endfacet
  facet normal 0.33413220129007226 -0.940157909453234 -0.06677407695786768
    outer loop
      vertex 7.300325188655723 0.5489177539408036 0.0
      vertex 6.674398060854888 0.2770392353585824 0.6958737988329932
      vertex 6.017280065263123 0.09292340754107596 0.0
    endloop
  endfacet
  facet normal 0.20315307885326742 -0.9768775981397272 0.06662570678946536
    outer loop
      vertex 6.017280065263123 0.09292340754107596 0.0
      vertex 6.674398060854888 0.2770392353585824 0.6958737988329932
      vertex 5.341212066823301 0.0 0.6989869597134856
    endloop
  endfacet
  facet normal 0.5753932412300075 -0.8151465148016344 -0.06677407695786887
    outer loop
      vertex 8.412765716093249 1.3341640245620585 0.0
      vertex 7.883401610574309 0.9034943809004707 0.6958737988329932
      vertex 7.300325188655723 0.5489177539408036 0.0
    endloop
  endfacet
  facet normal 0.4590382280878372 -0.8859035657453938 0.0667740769578697
    outer loop
      vertex 7.883401610574309 0.9034943809004707 0.6958737988329932
      vertex 6.674398060854888 0.2770392353585824 0.6958737988329932
      vertex 7.300325188655723 0.5489177539408036 0.0
    endloop
  endfacet
  facet normal 0.7739799967168407 -0.62967943219437 -0.06677407695786741
    outer loop
      vertex 9.272097022732432 2.390424095775513 0.0
      vertex 8.87855645352208 1.8329041243224133 0.6958737988329919
      vertex 8.412765716093249 1.3341640245620585 0.0
    endloop
  endfacet
  facet normal 0.6810297669738843 -0.7292048266035555 0.06677407695786906
    outer loop
      vertex 8.412765716093249 1.3341640245620585 0.0
      vertex 8.87855645352208 1.8329041243224133 0.6958737988329919
      vertex 7.883401610574309 0.9034943809004707 0.6958737988329932
    endloop
  endfacet
  facet normal 0.9151641965700689 -0.3975119066929756 -0.06677407695786931
    outer loop
      vertex 9.814586436738994 3.639359990167569 0.0
      vertex 9.586056507527259 2.996338396721478 0.6958737988329865
      vertex 9.272097022732432 2.390424095775513 0.0
    endloop
  endfacet
  facet normal 0.852512443547354 -0.5184243013626425 0.06677407695787027
    outer loop
      vertex 9.586056507527259 2.996338396721478 0.6958737988329865
      vertex 8.87855645352208 1.8329041243224133 0.6958737988329919
      vertex 9.272097022732432 2.390424095775513 0.0
    endloop
  endfacet
  facet normal 0.9567794940388823 -0.2865895886403807 0.04939035806346976
    outer loop
      vertex 9.814586436738994 3.639359990167569 0.0
      vertex 9.92608631528329 4.131796349091779 0.697430379273239
      vertex 9.586056507527259 2.996338396721478 0.6958737988329865
    endloop
  endfacet
  facet normal 0.91516419657007 0.39751190669297287 0.06677407695787016
    outer loop
      vertex 9.814586436738997 6.33732770173782 1.394860758546478
      vertex 9.586056507527267 6.980349295183906 0.698986959713485
      vertex 9.272097022732444 7.586263596129865 1.394860758546478
    endloop
  endfacet
  facet normal 0.9567794940388794 0.28658958864039347 -0.049390358063451226
    outer loop
      vertex 9.814586436738997 6.33732770173782 1.394860758546478
      vertex 9.926086315283262 5.844891342813785 0.697430379273239
      vertex 9.586056507527267 6.980349295183906 0.698986959713485
    endloop
  endfacet
  facet normal 0.7739799967168448 0.6296794321943647 0.06677407695786862
    outer loop
      vertex 9.272097022732444 7.586263596129865 1.394860758546478
      vertex 8.878556453522101 8.143783567582963 0.6989869597134839
      vertex 8.412765716093274 8.642523667343319 1.394860758546478
    endloop
  endfacet
  facet normal 0.8525124435473567 0.5184243013626387 -0.06677407695786526
    outer loop
      vertex 9.586056507527267 6.980349295183906 0.698986959713485
      vertex 8.878556453522101 8.143783567582963 0.6989869597134839
      vertex 9.272097022732444 7.586263596129865 1.394860758546478
    endloop
  endfacet
  facet normal 0.5754046426181113 0.8151626668887691 0.06647799458702976
    outer loop
      vertex 8.412765716093274 8.642523667343319 1.394860758546478
      vertex 7.88340161057434 9.073193311004907 0.6958737988329932
      vertex 7.300325188655767 9.427769937964573 1.394860758546478
    endloop
  endfacet
  facet normal 0.6811478538081677 0.7291080965449027 -0.06662570678946543
    outer loop
      vertex 8.412765716093274 8.642523667343319 1.394860758546478
      vertex 8.878556453522101 8.143783567582963 0.6989869597134839
      vertex 7.88340161057434 9.073193311004907 0.6958737988329932
    endloop
  endfacet
  facet normal 0.33413872350400503 0.940176261204371 0.0664824136361211
    outer loop
      vertex 7.300325188655767 9.427769937964573 1.394860758546478
      vertex 6.674410595264448 9.699644001797811 0.6959204666190826
      vertex 6.017280065263179 9.883764284364313 1.394860758546478
    endloop
  endfacet
  facet normal 0.4590464511521281 0.8859215028947242 -0.06647891690897226
    outer loop
      vertex 7.88340161057434 9.073193311004907 0.6958737988329932
      vertex 6.674410595264448 9.699644001797811 0.6959204666190826
      vertex 7.300325188655767 9.427769937964573 1.394860758546478
    endloop
  endfacet
  facet normal 0.06809145373556834 0.9954618175318749 0.0664779945870302
    outer loop
      vertex 6.017280065263179 9.883764284364313 1.394860758546478
      vertex 5.341212066823366 9.976687691905395 0.6958737988329848
      vertex 4.658787933176659 9.976687691905397 1.394860758546478
    endloop
  endfacet
  facet normal 0.20300942921356022 0.9769172856384896 -0.06648149119198807
    outer loop
      vertex 6.017280065263179 9.883764284364313 1.394860758546478
      vertex 6.674410595264448 9.699644001797811 0.6959204666190826
      vertex 5.341212066823366 9.976687691905395 0.6958737988329848
    endloop
  endfacet
  facet normal -0.2030058556605614 0.9769178113805648 0.06648467774555732
    outer loop
      vertex 4.658787933176659 9.976687691905397 1.394860758546478
      vertex 3.982719934736794 9.883764284364306 0.695944374161271
      vertex 3.3256019391450877 9.69964845654681 1.394860758546478
    endloop
  endfacet
  facet normal -0.0680948762448264 0.9954613602712463 -0.06648133599832036
    outer loop
      vertex 4.658787933176659 9.976687691905397 1.394860758546478
      vertex 5.341212066823366 9.976687691905395 0.6958737988329848
      vertex 3.982719934736794 9.883764284364306 0.695944374161271
    endloop
  endfacet
  facet normal -0.45904732390721387 0.8859211198799317 0.06647799458703
    outer loop
      vertex 3.3256019391450877 9.69964845654681 1.394860758546478
      vertex 2.699674811344258 9.427769937964586 0.6958737988329909
      vertex 2.116598389425683 9.073193311004923 1.394860758546478
    endloop
  endfacet
  facet normal -0.33413550076552134 0.9401774827616612 -0.06648133599831257
    outer loop
      vertex 3.3256019391450877 9.69964845654681 1.394860758546478
      vertex 3.982719934736794 9.883764284364306 0.695944374161271
      vertex 2.699674811344258 9.427769937964586 0.6958737988329909
    endloop
  endfacet
  facet normal -0.68104326154442 0.7292192757604706 0.06647799458703131
    outer loop
      vertex 2.116598389425683 9.073193311004923 1.394860758546478
      vertex 1.5872342839067455 8.642523667343335 0.6958737988329932
      vertex 1.1214435464779158 8.143783567582982 1.394860758546478
    endloop
  endfacet
  facet normal -0.5754046426181074 0.8151626668887717 -0.06647799458703142
    outer loop
      vertex 2.116598389425683 9.073193311004923 1.394860758546478
      vertex 2.699674811344258 9.427769937964586 0.6958737988329909
      vertex 1.5872342839067455 8.642523667343335 0.6958737988329932
    endloop
  endfacet
  facet normal -0.8525209179792805 0.5184294547788597 0.06662570694153364
    outer loop
      vertex 1.1214435464779158 8.143783567582982 1.394860758546478
      vertex 0.7279098890424031 7.586274962025317 0.6974303730098524
      vertex 0.4139434924727468 6.980349295183935 1.394860758546478
    endloop
  endfacet
  facet normal -0.7740387563772877 0.6296308736918748 -0.06655048098930949
    outer loop
      vertex 1.5872342839067455 8.642523667343335 0.6958737988329932
      vertex 0.7279098890424031 7.586274962025317 0.6974303730098524
      vertex 1.1214435464779158 8.143783567582982 1.394860758546478
    endloop
  endfacet
  facet normal -0.9607681721678387 0.2691946173230346 0.06677407695786734
    outer loop
      vertex 0.4139434924727468 6.980349295183935 1.394860758546478
      vertex 0.18541356326101185 6.337327701737852 0.698986959713485
      vertex 0.04657026981835036 5.6691770914339665 1.394860758546478
    endloop
  endfacet
  facet normal -0.9151985196743214 0.3974451316077628 -0.06670110154426757
    outer loop
      vertex 0.4139434924727468 6.980349295183935 1.394860758546478
      vertex 0.7279098890424031 7.586274962025317 0.6974303730098524
      vertex 0.18541356326101185 6.337327701737852 0.698986959713485
    endloop
  endfacet
  facet normal -0.9977681206805642 6.864088738082324e-15 0.06677407695786725
    outer loop
      vertex 0.04657026981835036 5.6691770914339665 1.394860758546478
      vertex 0.0 4.988343845952737 0.6989869597134872
      vertex 0.04657026981834099 4.307510600471505 1.394860758546478
    endloop
  endfacet
  facet normal -0.9884748545613157 0.13586274156813827 -0.06677407695786801
    outer loop
      vertex 0.18541356326101185 6.337327701737852 0.698986959713485
      vertex 0.0 4.988343845952737 0.6989869597134872
      vertex 0.04657026981835036 5.6691770914339665 1.394860758546478
    endloop
  endfacet
  facet normal -0.9607872097407886 -0.2691999514008061 0.06647799458703149
    outer loop
      vertex 0.04657026981834099 4.307510600471505 1.394860758546478
      vertex 0.18541356326099234 3.6393599901676192 0.6958737988329953
      vertex 0.41394349247271794 2.996338396721533 1.394860758546478
    endloop
  endfacet
  facet normal -0.9885054106780843 -0.13571318379198194 -0.0666257067894644
    outer loop
      vertex 0.0 4.988343845952737 0.6989869597134872
      vertex 0.18541356326099234 3.6393599901676192 0.6958737988329953
      vertex 0.04657026981834099 4.307510600471505 1.394860758546478
    endloop
  endfacet
  facet normal -0.8525290844712438 -0.5184344209326177 0.06648241363612065
    outer loop
      vertex 0.41394349247271794 2.996338396721533 1.394860758546478
      vertex 0.7279098890423765 2.390412729880128 0.6959204666190876
      vertex 1.1214435464778698 1.832904124322474 1.394860758546478
    endloop
  endfacet
  facet normal -0.9151806802705733 -0.39752299781066763 -0.06648149119198962
    outer loop
      vertex 0.18541356326099234 3.6393599901676192 0.6958737988329953
      vertex 0.7279098890423765 2.390412729880128 0.6959204666190876
      vertex 0.41394349247271794 2.996338396721533 1.394860758546478
    endloop
  endfacet
  facet normal -0.6810432615444311 -0.7292192757604604 0.06647799458703078
    outer loop
      vertex 1.1214435464778698 1.832904124322474 1.394860758546478
      vertex 1.587234283906692 1.3341640245621147 0.6958737988329919
      vertex 2.1165983894256204 0.9034943809005207 1.394860758546478
    endloop
  endfacet
  facet normal -0.7739958856624677 -0.629691132686639 -0.06647891690897105
    outer loop
      vertex 1.1214435464778698 1.832904124322474 1.394860758546478
      vertex 0.7279098890423765 2.390412729880128 0.6959204666190876
      vertex 1.587234283906692 1.3341640245621147 0.6958737988329919
    endloop
  endfacet
  facet normal -0.45904732390722597 -0.8859211198799253 0.06647799458703126
    outer loop
      vertex 2.1165983894256204 0.9034943809005207 1.394860758546478
      vertex 2.699674811344189 0.5489177539408496 0.6958737988329893
      vertex 3.325601939145014 0.2770392353586175 1.394860758546478
    endloop
  endfacet
  facet normal -0.5754046426181199 -0.8151626668887629 -0.06647799458703103
    outer loop
      vertex 1.587234283906692 1.3341640245621147 0.6958737988329919
      vertex 2.699674811344189 0.5489177539408496 0.6958737988329893
      vertex 2.1165983894256204 0.9034943809005207 1.394860758546478
    endloop
  endfacet
  facet normal -0.20300192378469864 -0.9768988901550334 0.06677407695786822
    outer loop
      vertex 3.325601939145014 0.2770392353586175 1.394860758546478
      vertex 3.982719934736775 0.09292340754109703 0.698986959713485
      vertex 4.658787933176586 7.804001412456875e-15 1.394860758546478
    endloop
  endfacet
  facet normal -0.3339919884769733 -0.9402182548897898 -0.0666257067894635
    outer loop
      vertex 3.325601939145014 0.2770392353586175 1.394860758546478
      vertex 2.699674811344189 0.5489177539408496 0.6958737988329893
      vertex 3.982719934736775 0.09292340754109703 0.698986959713485
    endloop
  endfacet
  facet normal 0.06809010453356348 -0.9954420928969364 0.0667740769578693
    outer loop
      vertex 4.658787933176586 7.804001412456875e-15 1.394860758546478
      vertex 5.341212066823301 0.0 0.6989869597134856
      vertex 6.017280065263123 0.09292340754107596 1.394860758546478
    endloop
  endfacet
  facet normal -0.06809010453358506 -0.9954420928969351 -0.06677407695786815
    outer loop
      vertex 4.658787933176586 7.804001412456875e-15 1.394860758546478
      vertex 3.982719934736775 0.09292340754109703 0.698986959713485
      vertex 5.341212066823301 0.0 0.6989869597134856
    endloop
  endfacet
  facet normal 0.33413882210281354 -0.9401765386348625 0.06647799458703155
    outer loop
      vertex 6.017280065263123 0.09292340754107596 1.394860758546478
      vertex 6.674398060854888 0.2770392353585824 0.6958737988329932
      vertex 7.300325188655723 0.5489177539408036 1.394860758546478
    endloop
  endfacet
  facet normal 0.20285479988538177 -0.9769395812220252 -0.06662570678946543
    outer loop
      vertex 5.341212066823301 0.0 0.6989869597134856
      vertex 6.674398060854888 0.2770392353585824 0.6958737988329932
      vertex 6.017280065263123 0.09292340754107596 1.394860758546478
    endloop
  endfacet
  facet normal 0.5754046426181049 -0.8151626668887735 0.06647799458703273
    outer loop
      vertex 7.300325188655723 0.5489177539408036 1.394860758546478
      vertex 7.883401610574309 0.9034943809004707 0.6958737988329932
      vertex 8.412765716093249 1.3341640245620585 1.394860758546478
    endloop
  endfacet
  facet normal 0.45904732390720915 -0.8859211198799338 -0.06647799458703349
    outer loop
      vertex 7.300325188655723 0.5489177539408036 1.394860758546478
      vertex 6.674398060854888 0.2770392353585824 0.6958737988329932
      vertex 7.883401610574309 0.9034943809004707 0.6958737988329932
    endloop
  endfacet
  facet normal 0.773995333091497 -0.6296919092606075 0.0664779945870311
    outer loop
      vertex 8.412765716093249 1.3341640245620585 1.394860758546478
      vertex 8.87855645352208 1.8329041243224133 0.6958737988329919
      vertex 9.272097022732432 2.390424095775513 1.394860758546478
    endloop
  endfacet
  facet normal 0.6810432615444194 -0.7292192757604711 -0.06647799458703287
    outer loop
      vertex 7.883401610574309 0.9034943809004707 0.6958737988329932
      vertex 8.87855645352208 1.8329041243224133 0.6958737988329919
      vertex 8.412765716093249 1.3341640245620585 1.394860758546478
    endloop
  endfacet
  facet normal 0.9151823305025353 -0.39751978337138755 0.06647799458703191
    outer loop
      vertex 9.272097022732432 2.390424095775513 1.394860758546478
      vertex 9.586056507527259 2.996338396721478 0.6958737988329865
      vertex 9.814586436738994 3.639359990167569 1.394860758546478
    endloop
  endfacet
  facet normal 0.8525293360384891 -0.518434573914066 -0.06647799458703334
    outer loop
      vertex 9.272097022732432 2.390424095775513 1.394860758546478
      vertex 8.87855645352208 1.8329041243224133 0.6958737988329919
      vertex 9.586056507527259 2.996338396721478 0.6958737988329865
    endloop
  endfacet
  facet normal 0.9568210933747279 -0.2864667573499869 -0.04929697969018231
    outer loop
      vertex 9.586056507527259 2.996338396721478 0.6958737988329865
      vertex 9.92608631528329 4.131796349091779 0.697430379273239
      vertex 9.814586436738994 3.639359990167569 1.394860758546478
    endloop
  endfacet
endsolid abc_micro_000
