solid abc_micro_003
  facet normal 1.0 0.0 -0.0
    outer loop
      vertex 10.0 10.0 0.0
      vertex 10.0 10.0 0.49999999999999994
      vertex 10.0 8.749999999999996 0.0
    endloop
  endfacet
  facet normal 1.0 0.0 0.0
    outer loop
      vertex 10.0 1.25 0.49999999999999994
      vertex 10.0 0.0 0.49999999999999994
      vertex 10.0 0.0 0.0
    endloop
  endfacet
  facet normal 1.0 0.0 0.0
    outer loop
      vertex 10.0 0.0 0.0
      vertex 10.0 1.25 0.0
      vertex 10.0 1.25 0.49999999999999994
    endloop
  endfacet
  facet normal 1.0 0.0 0.0
    outer loop
      vertex 10.0 10.0 0.49999999999999994
      vertex 10.0 8.749999999999996 0.49999999999999994
      vertex 10.0 8.749999999999996 0.0
    endloop
  endfacet
  facet normal 1.0 0.0 -0.0
    outer loop
      vertex 10.0 8.749999999999996 0.0
      vertex 10.0 8.749999999999996 0.49999999999999994
      vertex 10.0 7.499999999999993 0.0
    endloop
  endfacet
  facet normal 1.0 0.0 0.0
    outer loop
      vertex 10.0 6.249999999999993 0.49999999999999994
      vertex 10.0 6.249999999999993 0.0
      vertex 10.0 7.499999999999993 0.0
    endloop
  endfacet
  facet normal 1.0 0.0 0.0
    outer loop
      vertex 10.0 8.749999999999996 0.49999999999999994
      vertex 10.0 7.499999999999993 0.49999999999999994
      vertex 10.0 7.499999999999993 0.0
    endloop
  endfacet
  facet normal 1.0 0.0 -0.0
    outer loop
      vertex 10.0 7.499999999999993 0.0
      vertex 10.0 7.499999999999993 0.49999999999999994
      vertex 10.0 6.249999999999993 0.49999999999999994
    endloop
  endfacet
  facet normal 1.0 0.0 0.0
    outer loop
      vertex 10.0 6.249999999999993 0.0
      vertex 10.0 5.624999999999992 0.24999999999999997
      vertex 10.0 4.9999999999999964 0.0
    endloop
  endfacet
  facet normal 1.0 0.0 0.0
    outer loop
      vertex 10.0 6.249999999999993 0.49999999999999994
      vertex 10.0 5.624999999999992 0.24999999999999997
      vertex 10.0 6.249999999999993 0.0
    endloop
  endfacet
  facet normal 1.0 0.0 0.0
    outer loop
      vertex 10.0 4.9999999999999964 0.0
      vertex 10.0 4.374999999999996 0.24999999999999997
      vertex 10.0 3.7499999999999956 0.0
    endloop
  endfacet
  facet normal 1.0 0.0 0.0
    outer loop
      vertex 10.0 4.9999999999999964 0.0
      vertex 10.0 5.624999999999992 0.24999999999999997
      vertex 10.0 4.9999999999999964 0.49999999999999994
    endloop
  endfacet
  facet normal 1.0 0.0 0.0
    outer loop
      vertex 10.0 4.9999999999999964 0.49999999999999994
      vertex 10.0 4.374999999999996 0.24999999999999997
      vertex 10.0 4.9999999999999964 0.0
    endloop
  endfacet
  facet normal 1.0 0.0 0.0
    outer loop
      vertex 10.0 3.7499999999999956 0.0
      vertex 10.0 3.1249999999999956 0.24999999999999997
      vertex 10.0 2.4999999999999956 0.0
    endloop
  endfacet
  facet normal 1.0 0.0 0.0
    outer loop
      vertex 10.0 3.7499999999999956 0.0
      vertex 10.0 4.374999999999996 0.24999999999999997
      vertex 10.0 3.7499999999999956 0.49999999999999994
    endloop
  endfacet
  facet normal 1.0 0.0 0.0
    outer loop
      vertex 10.0 3.7499999999999956 0.49999999999999994
      vertex 10.0 3.1249999999999956 0.24999999999999997
      vertex 10.0 3.7499999999999956 0.0
    endloop
  endfacet
  facet normal 1.0 0.0 0.0
    outer loop
      vertex 10.0 2.4999999999999956 0.0
      vertex 10.0 1.875 0.24999999999999997
      vertex 10.0 1.25 0.0
    endloop
  endfacet
  facet normal 1.0 0.0 0.0
    outer loop
      vertex 10.0 2.4999999999999956 0.0
      vertex 10.0 3.1249999999999956 0.24999999999999997
      vertex 10.0 2.4999999999999956 0.49999999999999994
    endloop
  endfacet
  facet normal 1.0 0.0 0.0
    outer loop
      vertex 10.0 2.4999999999999956 0.49999999999999994
      vertex 10.0 1.875 0.24999999999999997
      vertex 10.0 2.4999999999999956 0.0
    endloop
  endfacet
  facet normal 1.0 0.0 0.0
    outer loop
      vertex 10.0 1.25 0.0
      vertex 10.0 1.875 0.24999999999999997
      vertex 10.0 1.25 0.49999999999999994
    endloop
  endfacet
  facet normal 1.0 -0.0 0.0
    outer loop
      vertex 10.0 4.9999999999999964 0.49999999999999994
      vertex 10.0 5.624999999999992 0.24999999999999997
      vertex 10.0 6.249999999999993 0.49999999999999994
    endloop
  endfacet
  facet normal 1.0 -0.0 0.0
    outer loop
      vertex 10.0 3.7499999999999956 0.49999999999999994
      vertex 10.0 4.374999999999996 0.24999999999999997
      vertex 10.0 4.9999999999999964 0.49999999999999994
    endloop
  endfacet
  facet normal 1.0 -0.0 0.0
    outer loop
      vertex 10.0 2.4999999999999956 0.49999999999999994
      vertex 10.0 3.1249999999999956 0.24999999999999997
      vertex 10.0 3.7499999999999956 0.49999999999999994
    endloop
  endfacet
  facet normal 1.0 -0.0 0.0
    outer loop
      vertex 10.0 1.25 0.49999999999999994
      vertex 10.0 1.875 0.24999999999999997
      vertex 10.0 2.4999999999999956 0.49999999999999994
    endloop
  endfacet
  facet normal 0.0 0.0 1.0
    outer loop
      vertex 10.0 10.0 0.49999999999999994
      vertex 9.053615881543914 9.062800825098229 0.49999999999999994
      vertex 10.0 8.749999999999996 0.49999999999999994
    endloop
  endfacet
  facet normal -0.0 0.0 1.0
    outer loop
      vertex 8.714285714285712 10.0 0.49999999999999994
      vertex 9.053615881543914 9.062800825098229 0.49999999999999994
      vertex 10.0 10.0 0.49999999999999994
    endloop
  endfacet
  facet normal 0.0 0.0 1.0
    outer loop
      vertex 10.0 1.25 0.49999999999999994
      vertex 9.09130091930618 0.9086990806938191 0.49999999999999994
      vertex 10.0 0.0 0.49999999999999994
    endloop
  endfacet
  facet normal 0.0 0.0 1.0
    outer loop
      vertex 10.0 0.0 0.49999999999999994
      vertex 9.09130091930618 0.9086990806938191 0.49999999999999994
      vertex 8.75 0.0 0.49999999999999994
    endloop
  endfacet
  facet normal -0.0 0.0 1.0
    outer loop
      vertex 0.9999999999999999 10.0 0.49999999999999994
      vertex 1.325726089135918 9.35046295909179 0.49999999999999994
      vertex 2.2857142857142883 10.0 0.49999999999999994
    endloop
  endfacet
  facet normal 0.0 0.0 1.0
    outer loop
      vertex 0.7071067811865468 9.292893218813452 0.49999999999999994
      vertex 1.325726089135918 9.35046295909179 0.49999999999999994
      vertex 0.9999999999999999 10.0 0.49999999999999994
    endloop
  endfacet
  facet normal -0.0 0.0 1.0
    outer loop
      vertex 0.0 9.0 0.49999999999999994
      vertex 0.7756387227507512 8.415945341635455 0.49999999999999994
      vertex 0.7071067811865468 9.292893218813452 0.49999999999999994
    endloop
  endfacet
  facet normal 0.0 0.0 1.0
    outer loop
      vertex 0.0 7.7142857142857135 0.49999999999999994
      vertex 0.7756387227507512 8.415945341635455 0.49999999999999994
      vertex 0.0 9.0 0.49999999999999994
    endloop
  endfacet
  facet normal 0.0 0.0 1.0
    outer loop
      vertex 0.0 0.0 0.49999999999999994
      vertex 0.9371991749017702 0.9463841184560862 0.49999999999999994
      vertex 0.0 1.2857142857142907 0.49999999999999994
    endloop
  endfacet
  facet normal 0.0 0.0 1.0
    outer loop
      vertex 1.2500000000000036 0.0 0.49999999999999994
      vertex 0.9371991749017702 0.9463841184560862 0.49999999999999994
      vertex 0.0 0.0 0.49999999999999994
    endloop
  endfacet
  facet normal 0.0 0.0 1.0
    outer loop
      vertex 10.0 8.749999999999996 0.49999999999999994
      vertex 8.971740510120677 8.142783415244576 0.49999999999999994
      vertex 10.0 7.499999999999993 0.49999999999999994
    endloop
  endfacet
  facet normal 0.0 0.0 1.0
    outer loop
      vertex 10.0 8.749999999999996 0.49999999999999994
      vertex 9.053615881543914 9.062800825098229 0.49999999999999994
      vertex 8.971740510120677 8.142783415244576 0.49999999999999994
    endloop
  endfacet
  facet normal 0.0 0.0 1.0
    outer loop
      vertex 10.0 7.499999999999993 0.49999999999999994
      vertex 8.723564412752497 6.995687733995547 0.49999999999999994
      vertex 10.0 6.249999999999993 0.49999999999999994
    endloop
  endfacet
  facet normal 0.0 0.0 1.0
    outer loop
      vertex 10.0 7.499999999999993 0.49999999999999994
      vertex 8.971740510120677 8.142783415244576 0.49999999999999994
      vertex 8.723564412752497 6.995687733995547 0.49999999999999994
    endloop
  endfacet
  facet normal 0.0 0.0 1.0
    outer loop
      vertex 10.0 6.249999999999993 0.49999999999999994
      vertex 8.9302947939657 5.624999999999992 0.49999999999999994
      vertex 10.0 4.9999999999999964 0.49999999999999994
    endloop
  endfacet
  facet normal 0.0 0.0 1.0
    outer loop
      vertex 8.723564412752497 6.995687733995547 0.49999999999999994
      vertex 8.9302947939657 5.624999999999992 0.49999999999999994
      vertex 10.0 6.249999999999993 0.49999999999999994
    endloop
  endfacet
  facet normal 0.0 0.0 1.0
    outer loop
      vertex 10.0 4.9999999999999964 0.49999999999999994
      vertex 8.841852640372547 4.203390708111688 0.49999999999999994
      vertex 10.0 3.7499999999999956 0.49999999999999994
    endloop
  endfacet
  facet normal 0.0 0.0 1.0
    outer loop
      vertex 10.0 4.9999999999999964 0.49999999999999994
      vertex 8.9302947939657 5.624999999999992 0.49999999999999994
      vertex 8.841852640372547 4.203390708111688 0.49999999999999994
    endloop
  endfacet
  facet normal 0.0 0.0 1.0
    outer loop
      vertex 10.0 3.7499999999999956 0.49999999999999994
      vertex 9.176216742106185 3.0700169266136808 0.49999999999999994
      vertex 10.0 2.4999999999999956 0.49999999999999994
    endloop
  endfacet
  facet normal 0.0 0.0 1.0
    outer loop
      vertex 8.841852640372547 4.203390708111688 0.49999999999999994
      vertex 9.176216742106185 3.0700169266136808 0.49999999999999994
      vertex 10.0 3.7499999999999956 0.49999999999999994
    endloop
  endfacet
  facet normal 0.0 0.0 1.0
    outer loop
      vertex 10.0 2.4999999999999956 0.49999999999999994
      vertex 8.91603979386528 1.923786055713472 0.49999999999999994
      vertex 10.0 1.25 0.49999999999999994
    endloop
  endfacet
  facet normal 0.0 0.0 1.0
    outer loop
      vertex 10.0 2.4999999999999956 0.49999999999999994
      vertex 9.176216742106185 3.0700169266136808 0.49999999999999994
      vertex 8.91603979386528 1.923786055713472 0.49999999999999994
    endloop
  endfacet
  facet normal 0.0 0.0 1.0
    outer loop
      vertex 8.91603979386528 1.923786055713472 0.49999999999999994
      vertex 9.09130091930618 0.9086990806938191 0.49999999999999994
      vertex 10.0 1.25 0.49999999999999994
    endloop
  endfacet
  facet normal -0.0 0.0 1.0
    outer loop
      vertex 2.2857142857142883 10.0 0.49999999999999994
      vertex 2.945297759989281 8.926148228710808 0.49999999999999994
      vertex 3.571428571428574 10.0 0.49999999999999994
    endloop
  endfacet
  facet normal 0.0 0.0 1.0
    outer loop
      vertex 2.2857142857142883 10.0 0.49999999999999994
      vertex 1.827112290301858 8.856362828851143 0.49999999999999994
      vertex 2.945297759989281 8.926148228710808 0.49999999999999994
    endloop
  endfacet
  facet normal 0.0 0.0 1.0
    outer loop
      vertex 2.2857142857142883 10.0 0.49999999999999994
      vertex 1.325726089135918 9.35046295909179 0.49999999999999994
      vertex 1.827112290301858 8.856362828851143 0.49999999999999994
    endloop
  endfacet
  facet normal -0.0 0.0 1.0
    outer loop
      vertex 3.571428571428574 10.0 0.49999999999999994
      vertex 4.197049049950075 8.880311147202368 0.49999999999999994
      vertex 4.857142857142858 10.0 0.49999999999999994
    endloop
  endfacet
  facet normal -0.0 0.0 1.0
    outer loop
      vertex 2.945297759989281 8.926148228710808 0.49999999999999994
      vertex 4.197049049950075 8.880311147202368 0.49999999999999994
      vertex 3.571428571428574 10.0 0.49999999999999994
    endloop
  endfacet
  facet normal -0.0 0.0 1.0
    outer loop
      vertex 4.857142857142858 10.0 0.49999999999999994
      vertex 5.499999999999999 8.886538766562868 0.49999999999999994
      vertex 6.142857142857142 10.0 0.49999999999999994
    endloop
  endfacet
  facet normal 0.0 0.0 1.0
    outer loop
      vertex 4.857142857142858 10.0 0.49999999999999994
      vertex 4.197049049950075 8.880311147202368 0.49999999999999994
      vertex 5.499999999999999 8.886538766562868 0.49999999999999994
    endloop
  endfacet
  facet normal -0.0 0.0 1.0
    outer loop
      vertex 6.142857142857142 10.0 0.49999999999999994
      vertex 6.953333031199331 8.705983976176286 0.49999999999999994
      vertex 7.428571428571425 10.0 0.49999999999999994
    endloop
  endfacet
  facet normal -0.0 0.0 1.0
    outer loop
      vertex 5.499999999999999 8.886538766562868 0.49999999999999994
      vertex 6.953333031199331 8.705983976176286 0.49999999999999994
      vertex 6.142857142857142 10.0 0.49999999999999994
    endloop
  endfacet
  facet normal -0.0 0.0 1.0
    outer loop
      vertex 7.428571428571425 10.0 0.49999999999999994
      vertex 8.160388888563544 8.99730900003175 0.49999999999999994
      vertex 8.714285714285712 10.0 0.49999999999999994
    endloop
  endfacet
  facet normal 0.0 0.0 1.0
    outer loop
      vertex 7.428571428571425 10.0 0.49999999999999994
      vertex 6.953333031199331 8.705983976176286 0.49999999999999994
      vertex 8.160388888563544 8.99730900003175 0.49999999999999994
    endloop
  endfacet
  facet normal 0.0 0.0 1.0
    outer loop
      vertex 8.160388888563544 8.99730900003175 0.49999999999999994
      vertex 9.053615881543914 9.062800825098229 0.49999999999999994
      vertex 8.714285714285712 10.0 0.49999999999999994
    endloop
  endfacet
  facet normal 0.0 -0.0 1.0
    outer loop
      vertex 0.7756387227507512 8.415945341635455 0.49999999999999994
      vertex 1.325726089135918 9.35046295909179 0.49999999999999994
      vertex 0.7071067811865468 9.292893218813452 0.49999999999999994
    endloop
  endfacet
  facet normal 0.0 0.0 1.0
    outer loop
      vertex 0.0 6.428571428571428 0.49999999999999994
      vertex 1.216962388273398 7.122939388045399 0.49999999999999994
      vertex 0.0 7.7142857142857135 0.49999999999999994
    endloop
  endfacet
  facet normal 0.0 0.0 1.0
    outer loop
      vertex 1.216962388273398 7.122939388045399 0.49999999999999994
      vertex 0.7756387227507512 8.415945341635455 0.49999999999999994
      vertex 0.0 7.7142857142857135 0.49999999999999994
    endloop
  endfacet
  facet normal 0.0 0.0 1.0
    outer loop
      vertex 0.0 5.142857142857145 0.49999999999999994
      vertex 0.836181612149687 5.7956458915367515 0.49999999999999994
      vertex 0.0 6.428571428571428 0.49999999999999994
    endloop
  endfacet
  facet normal -0.0 0.0 1.0
    outer loop
      vertex 0.0 6.428571428571428 0.49999999999999994
      vertex 0.836181612149687 5.7956458915367515 0.49999999999999994
      vertex 1.216962388273398 7.122939388045399 0.49999999999999994
    endloop
  endfacet
  facet normal 0.0 0.0 1.0
    outer loop
      vertex 0.0 3.857142857142862 0.49999999999999994
      vertex 1.1760332565784233 4.5719402471575155 0.49999999999999994
      vertex 0.0 5.142857142857145 0.49999999999999994
    endloop
  endfacet
  facet normal 0.0 0.0 1.0
    outer loop
      vertex 1.1760332565784233 4.5719402471575155 0.49999999999999994
      vertex 0.836181612149687 5.7956458915367515 0.49999999999999994
      vertex 0.0 5.142857142857145 0.49999999999999994
    endloop
  endfacet
  facet normal 0.0 0.0 1.0
    outer loop
      vertex 0.0 2.5714285714285783 0.49999999999999994
      vertex 1.1080799736251217 3.1510743855437013 0.49999999999999994
      vertex 0.0 3.857142857142862 0.49999999999999994
    endloop
  endfacet
  facet normal -0.0 0.0 1.0
    outer loop
      vertex 0.0 3.857142857142862 0.49999999999999994
      vertex 1.1080799736251217 3.1510743855437013 0.49999999999999994
      vertex 1.1760332565784233 4.5719402471575155 0.49999999999999994
    endloop
  endfacet
  facet normal 0.0 0.0 1.0
    outer loop
      vertex 0.0 1.2857142857142907 0.49999999999999994
      vertex 1.0545118471982287 1.905547309831858 0.49999999999999994
      vertex 0.0 2.5714285714285783 0.49999999999999994
    endloop
  endfacet
  facet normal 0.0 -0.0 1.0
    outer loop
      vertex 1.0545118471982287 1.905547309831858 0.49999999999999994
      vertex 1.1080799736251217 3.1510743855437013 0.49999999999999994
      vertex 0.0 2.5714285714285783 0.49999999999999994
    endloop
  endfacet
  facet normal -0.0 0.0 1.0
    outer loop
      vertex 0.0 1.2857142857142907 0.49999999999999994
      vertex 0.9371991749017702 0.9463841184560862 0.49999999999999994
      vertex 1.0545118471982287 1.905547309831858 0.49999999999999994
    endloop
  endfacet
  facet normal 0.0 0.0 1.0
    outer loop
      vertex 2.500000000000007 0.0 0.49999999999999994
      vertex 1.8930522826079441 1.0499529628559836 0.49999999999999994
      vertex 1.2500000000000036 0.0 0.49999999999999994
    endloop
  endfacet
  facet normal 0.0 0.0 1.0
    outer loop
      vertex 1.8930522826079441 1.0499529628559836 0.49999999999999994
      vertex 0.9371991749017702 0.9463841184560862 0.49999999999999994
      vertex 1.2500000000000036 0.0 0.49999999999999994
    endloop
  endfacet
  facet normal 0.0 0.0 1.0
    outer loop
      vertex 3.7500000000000067 0.0 0.49999999999999994
      vertex 3.1250000000000067 1.082531754730547 0.49999999999999994
      vertex 2.500000000000007 0.0 0.49999999999999994
    endloop
  endfacet
  facet normal 0.0 0.0 1.0
    outer loop
      vertex 3.1250000000000067 1.082531754730547 0.49999999999999994
      vertex 1.8930522826079441 1.0499529628559836 0.49999999999999994
      vertex 2.500000000000007 0.0 0.49999999999999994
    endloop
  endfacet
  facet normal 0.0 0.0 1.0
    outer loop
      vertex 5.0000000000000036 0.0 0.49999999999999994
      vertex 4.375000000000008 1.0220554060897478 0.49999999999999994
      vertex 3.7500000000000067 0.0 0.49999999999999994
    endloop
  endfacet
  facet normal 0.0 -0.0 1.0
    outer loop
      vertex 3.7500000000000067 0.0 0.49999999999999994
      vertex 4.375000000000008 1.0220554060897478 0.49999999999999994
      vertex 3.1250000000000067 1.082531754730547 0.49999999999999994
    endloop
  endfacet
  facet normal 0.0 0.0 1.0
    outer loop
      vertex 6.250000000000004 0.0 0.49999999999999994
      vertex 5.583373403315771 1.056128646258732 0.49999999999999994
      vertex 5.0000000000000036 0.0 0.49999999999999994
    endloop
  endfacet
  facet normal 0.0 0.0 1.0
    outer loop
      vertex 5.583373403315771 1.056128646258732 0.49999999999999994
      vertex 4.375000000000008 1.0220554060897478 0.49999999999999994
      vertex 5.0000000000000036 0.0 0.49999999999999994
    endloop
  endfacet
  facet normal 0.0 0.0 1.0
    outer loop
      vertex 7.500000000000004 0.0 0.49999999999999994
      vertex 6.827794824927871 1.0349114757737479 0.49999999999999994
      vertex 6.250000000000004 0.0 0.49999999999999994
    endloop
  endfacet
  facet normal 0.0 -0.0 1.0
    outer loop
      vertex 6.250000000000004 0.0 0.49999999999999994
      vertex 6.827794824927871 1.0349114757737479 0.49999999999999994
      vertex 5.583373403315771 1.056128646258732 0.49999999999999994
    endloop
  endfacet
  facet normal 0.0 0.0 1.0
    outer loop
      vertex 8.75 0.0 0.49999999999999994
      vertex 8.101531490672185 0.9862812242680196 0.49999999999999994
      vertex 7.500000000000004 0.0 0.49999999999999994
    endloop
  endfacet
  facet normal 0.0 0.0 1.0
    outer loop
      vertex 8.101531490672185 0.9862812242680196 0.49999999999999994
      vertex 6.827794824927871 1.0349114757737479 0.49999999999999994
      vertex 7.500000000000004 0.0 0.49999999999999994
    endloop
  endfacet
  facet normal 0.0 -0.0 1.0
    outer loop
      vertex 8.75 0.0 0.49999999999999994
      vertex 9.09130091930618 0.9086990806938191 0.49999999999999994
      vertex 8.101531490672185 0.9862812242680196 0.49999999999999994
    endloop
  endfacet
  facet normal -0.0 0.0 1.0
    outer loop
      vertex 1.1760332565784233 4.5719402471575155 0.49999999999999994
      vertex 2.56648260549409 4.564244369329055 0.49999999999999994
      vertex 1.9575706796304881 5.731784462697208 0.49999999999999994
    endloop
  endfacet
  facet normal 0.0 0.0 1.0
    outer loop
      vertex 1.9575706796304881 5.731784462697208 0.49999999999999994
      vertex 0.836181612149687 5.7956458915367515 0.49999999999999994
      vertex 1.1760332565784233 4.5719402471575155 0.49999999999999994
    endloop
  endfacet
  facet normal 0.0 0.0 1.0
    outer loop
      vertex 1.1080799736251217 3.1510743855437013 0.49999999999999994
      vertex 2.067670523805023 3.6328178207548665 0.49999999999999994
      vertex 1.1760332565784233 4.5719402471575155 0.49999999999999994
    endloop
  endfacet
  facet normal 0.0 0.0 1.0
    outer loop
      vertex 1.1760332565784233 4.5719402471575155 0.49999999999999994
      vertex 2.067670523805023 3.6328178207548665 0.49999999999999994
      vertex 2.56648260549409 4.564244369329055 0.49999999999999994
    endloop
  endfacet
  facet normal -0.0 0.0 1.0
    outer loop
      vertex 7.566811941772012 4.062622259745736 0.49999999999999994
      vertex 8.12319127629309 2.972907869243256 0.49999999999999994
      vertex 8.841852640372547 4.203390708111688 0.49999999999999994
    endloop
  endfacet
  facet normal 0.0 0.0 1.0
    outer loop
      vertex 8.841852640372547 4.203390708111688 0.49999999999999994
      vertex 8.034614397437787 5.03189972946789 0.49999999999999994
      vertex 7.566811941772012 4.062622259745736 0.49999999999999994
    endloop
  endfacet
  facet normal 0.0 0.0 1.0
    outer loop
      vertex 8.12319127629309 2.972907869243256 0.49999999999999994
      vertex 9.176216742106185 3.0700169266136808 0.49999999999999994
      vertex 8.841852640372547 4.203390708111688 0.49999999999999994
    endloop
  endfacet
  facet normal 0.0 0.0 1.0
    outer loop
      vertex 8.9302947939657 5.624999999999992 0.49999999999999994
      vertex 8.034614397437787 5.03189972946789 0.49999999999999994
      vertex 8.841852640372547 4.203390708111688 0.49999999999999994
    endloop
  endfacet
  facet normal 0.0 0.0 1.0
    outer loop
      vertex 5.499999999999999 8.886538766562868 0.49999999999999994
      vertex 4.197049049950075 8.880311147202368 0.49999999999999994
      vertex 4.796076758142181 7.677286814126764 0.49999999999999994
    endloop
  endfacet
  facet normal -0.0 0.0 1.0
    outer loop
      vertex 4.796076758142181 7.677286814126764 0.49999999999999994
      vertex 6.08112286851429 7.626716703113364 0.49999999999999994
      vertex 5.499999999999999 8.886538766562868 0.49999999999999994
    endloop
  endfacet
  facet normal 0.0 0.0 1.0
    outer loop
      vertex 5.499999999999999 8.886538766562868 0.49999999999999994
      vertex 6.08112286851429 7.626716703113364 0.49999999999999994
      vertex 6.953333031199331 8.705983976176286 0.49999999999999994
    endloop
  endfacet
  facet normal 0.0 0.0 1.0
    outer loop
      vertex 4.942570184972444 2.145774010028575 0.49999999999999994
      vertex 4.375000000000008 1.0220554060897478 0.49999999999999994
      vertex 5.583373403315771 1.056128646258732 0.49999999999999994
    endloop
  endfacet
  facet normal 0.0 -0.0 1.0
    outer loop
      vertex 5.583373403315771 1.056128646258732 0.49999999999999994
      vertex 6.170978057041075 2.098098166896319 0.49999999999999994
      vertex 4.942570184972444 2.145774010028575 0.49999999999999994
    endloop
  endfacet
  facet normal 0.0 0.0 1.0
    outer loop
      vertex 6.827794824927871 1.0349114757737479 0.49999999999999994
      vertex 6.170978057041075 2.098098166896319 0.49999999999999994
      vertex 5.583373403315771 1.056128646258732 0.49999999999999994
    endloop
  endfacet
  facet normal -0.0 0.0 1.0
    outer loop
      vertex 1.827112290301858 8.856362828851143 0.49999999999999994
      vertex 2.2837448279447057 7.925953532704996 0.49999999999999994
      vertex 2.945297759989281 8.926148228710808 0.49999999999999994
    endloop
  endfacet
  facet normal -0.0 0.0 1.0
    outer loop
      vertex 2.2837448279447057 7.925953532704996 0.49999999999999994
      vertex 3.512348352997568 7.791893073813774 0.49999999999999994
      vertex 2.945297759989281 8.926148228710808 0.49999999999999994
    endloop
  endfacet
  facet normal 0.0 -0.0 1.0
    outer loop
      vertex 3.512348352997568 7.791893073813774 0.49999999999999994
      vertex 4.197049049950075 8.880311147202368 0.49999999999999994
      vertex 2.945297759989281 8.926148228710808 0.49999999999999994
    endloop
  endfacet
  facet normal 0.0 0.0 1.0
    outer loop
      vertex 8.723564412752497 6.995687733995547 0.49999999999999994
      vertex 7.323350987610583 7.358552615525578 0.49999999999999994
      vertex 7.784454463207657 6.09090780784483 0.49999999999999994
    endloop
  endfacet
  facet normal -0.0 0.0 1.0
    outer loop
      vertex 7.784454463207657 6.09090780784483 0.49999999999999994
      vertex 8.9302947939657 5.624999999999992 0.49999999999999994
      vertex 8.723564412752497 6.995687733995547 0.49999999999999994
    endloop
  endfacet
  facet normal 0.0 0.0 1.0
    outer loop
      vertex 8.723564412752497 6.995687733995547 0.49999999999999994
      vertex 8.026475566049326 8.040063348194746 0.49999999999999994
      vertex 7.323350987610583 7.358552615525578 0.49999999999999994
    endloop
  endfacet
  facet normal 0.0 0.0 1.0
    outer loop
      vertex 8.971740510120677 8.142783415244576 0.49999999999999994
      vertex 8.026475566049326 8.040063348194746 0.49999999999999994
      vertex 8.723564412752497 6.995687733995547 0.49999999999999994
    endloop
  endfacet
  facet normal 0.0 0.0 1.0
    outer loop
      vertex 3.609175613560574 2.2452257692931856 0.49999999999999994
      vertex 2.2882583563092767 2.3550351929011923 0.49999999999999994
      vertex 3.1250000000000067 1.082531754730547 0.49999999999999994
    endloop
  endfacet
  facet normal -0.0 0.0 1.0
    outer loop
      vertex 3.1250000000000067 1.082531754730547 0.49999999999999994
      vertex 4.375000000000008 1.0220554060897478 0.49999999999999994
      vertex 3.609175613560574 2.2452257692931856 0.49999999999999994
    endloop
  endfacet
  facet normal 0.0 0.0 1.0
    outer loop
      vertex 2.2882583563092767 2.3550351929011923 0.49999999999999994
      vertex 1.8930522826079441 1.0499529628559836 0.49999999999999994
      vertex 3.1250000000000067 1.082531754730547 0.49999999999999994
    endloop
  endfacet
  facet normal -0.0 0.0 1.0
    outer loop
      vertex 1.216962388273398 7.122939388045399 0.49999999999999994
      vertex 2.782974403935988 6.752171497997112 0.49999999999999994
      vertex 2.2837448279447057 7.925953532704996 0.49999999999999994
    endloop
  endfacet
  facet normal 0.0 0.0 1.0
    outer loop
      vertex 2.2837448279447057 7.925953532704996 0.49999999999999994
      vertex 1.517778868907165 8.11420799771143 0.49999999999999994
      vertex 1.216962388273398 7.122939388045399 0.49999999999999994
    endloop
  endfacet
  facet normal 0.0 0.0 1.0
    outer loop
      vertex 1.216962388273398 7.122939388045399 0.49999999999999994
      vertex 1.9575706796304881 5.731784462697208 0.49999999999999994
      vertex 2.782974403935988 6.752171497997112 0.49999999999999994
    endloop
  endfacet
  facet normal 0.0 0.0 1.0
    outer loop
      vertex 1.216962388273398 7.122939388045399 0.49999999999999994
      vertex 0.836181612149687 5.7956458915367515 0.49999999999999994
      vertex 1.9575706796304881 5.731784462697208 0.49999999999999994
    endloop
  endfacet
  facet normal 0.0 -0.0 1.0
    outer loop
      vertex 1.216962388273398 7.122939388045399 0.49999999999999994
      vertex 1.517778868907165 8.11420799771143 0.49999999999999994
      vertex 0.7756387227507512 8.415945341635455 0.49999999999999994
    endloop
  endfacet
  facet normal 0.0 0.0 1.0
    outer loop
      vertex 8.101531490672185 0.9862812242680196 0.49999999999999994
      vertex 7.50015475094461 2.0082873842289604 0.49999999999999994
      vertex 6.827794824927871 1.0349114757737479 0.49999999999999994
    endloop
  endfacet
  facet normal 0.0 0.0 1.0
    outer loop
      vertex 8.91603979386528 1.923786055713472 0.49999999999999994
      vertex 7.50015475094461 2.0082873842289604 0.49999999999999994
      vertex 8.101531490672185 0.9862812242680196 0.49999999999999994
    endloop
  endfacet
  facet normal -0.0 0.0 1.0
    outer loop
      vertex 8.101531490672185 0.9862812242680196 0.49999999999999994
      vertex 9.09130091930618 0.9086990806938191 0.49999999999999994
      vertex 8.91603979386528 1.923786055713472 0.49999999999999994
    endloop
  endfacet
  facet normal 0.0 0.0 1.0
    outer loop
      vertex 1.0545118471982287 1.905547309831858 0.49999999999999994
      vertex 2.2882583563092767 2.3550351929011923 0.49999999999999994
      vertex 1.1080799736251217 3.1510743855437013 0.49999999999999994
    endloop
  endfacet
  facet normal -0.0 0.0 1.0
    outer loop
      vertex 1.0545118471982287 1.905547309831858 0.49999999999999994
      vertex 1.8930522826079441 1.0499529628559836 0.49999999999999994
      vertex 2.2882583563092767 2.3550351929011923 0.49999999999999994
    endloop
  endfacet
  facet normal 0.0 0.0 1.0
    outer loop
      vertex 1.0545118471982287 1.905547309831858 0.49999999999999994
      vertex 0.9371991749017702 0.9463841184560862 0.49999999999999994
      vertex 1.8930522826079441 1.0499529628559836 0.49999999999999994
    endloop
  endfacet
  facet normal -0.0 0.0 1.0
    outer loop
      vertex 6.953333031199331 8.705983976176286 0.49999999999999994
      vertex 8.026475566049326 8.040063348194746 0.49999999999999994
      vertex 8.160388888563544 8.99730900003175 0.49999999999999994
    endloop
  endfacet
  facet normal 0.0 -0.0 1.0
    outer loop
      vertex 8.971740510120677 8.142783415244576 0.49999999999999994
      vertex 9.053615881543914 9.062800825098229 0.49999999999999994
      vertex 8.160388888563544 8.99730900003175 0.49999999999999994
    endloop
  endfacet
  facet normal 0.0 0.0 1.0
    outer loop
      vertex 8.160388888563544 8.99730900003175 0.49999999999999994
      vertex 8.026475566049326 8.040063348194746 0.49999999999999994
      vertex 8.971740510120677 8.142783415244576 0.49999999999999994
    endloop
  endfacet
  facet normal 0.0 0.0 1.0
    outer loop
      vertex 1.827112290301858 8.856362828851143 0.49999999999999994
      vertex 1.517778868907165 8.11420799771143 0.49999999999999994
      vertex 2.2837448279447057 7.925953532704996 0.49999999999999994
    endloop
  endfacet
  facet normal 0.0 0.0 1.0
    outer loop
      vertex 1.827112290301858 8.856362828851143 0.49999999999999994
      vertex 1.325726089135918 9.35046295909179 0.49999999999999994
      vertex 0.7756387227507512 8.415945341635455 0.49999999999999994
    endloop
  endfacet
  facet normal -0.0 0.0 1.0
    outer loop
      vertex 0.7756387227507512 8.415945341635455 0.49999999999999994
      vertex 1.517778868907165 8.11420799771143 0.49999999999999994
      vertex 1.827112290301858 8.856362828851143 0.49999999999999994
    endloop
  endfacet
  facet normal 0.0 0.0 1.0
    outer loop
      vertex 2.2837448279447057 7.925953532704996 0.49999999999999994
      vertex 2.782974403935988 6.752171497997112 0.49999999999999994
      vertex 3.512348352997568 7.791893073813774 0.49999999999999994
    endloop
  endfacet
  facet normal -0.0 0.0 1.0
    outer loop
      vertex 2.782974403935988 6.752171497997112 0.49999999999999994
      vertex 4.049053082304728 6.620583230484719 0.49999999999999994
      vertex 3.512348352997568 7.791893073813774 0.49999999999999994
    endloop
  endfacet
  facet normal 0.0 -0.0 1.0
    outer loop
      vertex 4.049053082304728 6.620583230484719 0.49999999999999994
      vertex 4.796076758142181 7.677286814126764 0.49999999999999994
      vertex 3.512348352997568 7.791893073813774 0.49999999999999994
    endloop
  endfacet
  facet normal 0.0 0.0 1.0
    outer loop
      vertex 4.796076758142181 7.677286814126764 0.49999999999999994
      vertex 4.197049049950075 8.880311147202368 0.49999999999999994
      vertex 3.512348352997568 7.791893073813774 0.49999999999999994
    endloop
  endfacet
  facet normal 0.0 0.0 1.0
    outer loop
      vertex 2.782974403935988 6.752171497997112 0.49999999999999994
      vertex 3.255713371937816 5.604050423605071 0.49999999999999994
      vertex 4.049053082304728 6.620583230484719 0.49999999999999994
    endloop
  endfacet
  facet normal 0.0 0.0 1.0
    outer loop
      vertex 2.782974403935988 6.752171497997112 0.49999999999999994
      vertex 1.9575706796304881 5.731784462697208 0.49999999999999994
      vertex 3.255713371937816 5.604050423605071 0.49999999999999994
    endloop
  endfacet
  facet normal -0.0 0.0 1.0
    outer loop
      vertex 3.255713371937816 5.604050423605071 0.49999999999999994
      vertex 4.562224611088873 5.457001044086129 0.49999999999999994
      vertex 4.049053082304728 6.620583230484719 0.49999999999999994
    endloop
  endfacet
  facet normal 0.0 -0.0 1.0
    outer loop
      vertex 4.562224611088873 5.457001044086129 0.49999999999999994
      vertex 5.315579354117359 6.513607039877086 0.49999999999999994
      vertex 4.049053082304728 6.620583230484719 0.49999999999999994
    endloop
  endfacet
  facet normal -0.0 0.0 1.0
    outer loop
      vertex 4.049053082304728 6.620583230484719 0.49999999999999994
      vertex 5.315579354117359 6.513607039877086 0.49999999999999994
      vertex 4.796076758142181 7.677286814126764 0.49999999999999994
    endloop
  endfacet
  facet normal 0.0 0.0 1.0
    outer loop
      vertex 3.255713371937816 5.604050423605071 0.49999999999999994
      vertex 3.816892380498636 4.428551116061524 0.49999999999999994
      vertex 4.562224611088873 5.457001044086129 0.49999999999999994
    endloop
  endfacet
  facet normal 0.0 0.0 1.0
    outer loop
      vertex 3.255713371937816 5.604050423605071 0.49999999999999994
      vertex 2.56648260549409 4.564244369329055 0.49999999999999994
      vertex 3.816892380498636 4.428551116061524 0.49999999999999994
    endloop
  endfacet
  facet normal 0.0 0.0 1.0
    outer loop
      vertex 1.9575706796304881 5.731784462697208 0.49999999999999994
      vertex 2.56648260549409 4.564244369329055 0.49999999999999994
      vertex 3.255713371937816 5.604050423605071 0.49999999999999994
    endloop
  endfacet
  facet normal -0.0 0.0 1.0
    outer loop
      vertex 3.816892380498636 4.428551116061524 0.49999999999999994
      vertex 5.085053533718594 4.295157854769992 0.49999999999999994
      vertex 4.562224611088873 5.457001044086129 0.49999999999999994
    endloop
  endfacet
  facet normal 0.0 -0.0 1.0
    outer loop
      vertex 5.085053533718594 4.295157854769992 0.49999999999999994
      vertex 5.830560964015137 5.319824244650894 0.49999999999999994
      vertex 4.562224611088873 5.457001044086129 0.49999999999999994
    endloop
  endfacet
  facet normal 0.0 0.0 1.0
    outer loop
      vertex 5.830560964015137 5.319824244650894 0.49999999999999994
      vertex 5.315579354117359 6.513607039877086 0.49999999999999994
      vertex 4.562224611088873 5.457001044086129 0.49999999999999994
    endloop
  endfacet
  facet normal 0.0 0.0 1.0
    outer loop
      vertex 3.816892380498636 4.428551116061524 0.49999999999999994
      vertex 4.343701614277079 3.2698777274689688 0.49999999999999994
      vertex 5.085053533718594 4.295157854769992 0.49999999999999994
    endloop
  endfacet
  facet normal 0.0 0.0 1.0
    outer loop
      vertex 3.816892380498636 4.428551116061524 0.49999999999999994
      vertex 3.1250154205141527 3.4163221456981576 0.49999999999999994
      vertex 4.343701614277079 3.2698777274689688 0.49999999999999994
    endloop
  endfacet
  facet normal 0.0 0.0 1.0
    outer loop
      vertex 3.816892380498636 4.428551116061524 0.49999999999999994
      vertex 2.56648260549409 4.564244369329055 0.49999999999999994
      vertex 3.1250154205141527 3.4163221456981576 0.49999999999999994
    endloop
  endfacet
  facet normal -0.0 0.0 1.0
    outer loop
      vertex 5.085053533718594 4.295157854769992 0.49999999999999994
      vertex 6.345587527831684 4.163564410323027 0.49999999999999994
      vertex 5.830560964015137 5.319824244650894 0.49999999999999994
    endloop
  endfacet
  facet normal 0.0 0.0 1.0
    outer loop
      vertex 5.085053533718594 4.295157854769992 0.49999999999999994
      vertex 5.605996026431689 3.165754037128839 0.49999999999999994
      vertex 6.345587527831684 4.163564410323027 0.49999999999999994
    endloop
  endfacet
  facet normal -0.0 0.0 1.0
    outer loop
      vertex 4.343701614277079 3.2698777274689688 0.49999999999999994
      vertex 5.605996026431689 3.165754037128839 0.49999999999999994
      vertex 5.085053533718594 4.295157854769992 0.49999999999999994
    endloop
  endfacet
  facet normal 0.0 -0.0 1.0
    outer loop
      vertex 6.345587527831684 4.163564410323027 0.49999999999999994
      vertex 7.049658147871011 5.177577871637192 0.49999999999999994
      vertex 5.830560964015137 5.319824244650894 0.49999999999999994
    endloop
  endfacet
  facet normal 0.0 0.0 1.0
    outer loop
      vertex 7.049658147871011 5.177577871637192 0.49999999999999994
      vertex 6.574437840638941 6.380230202800649 0.49999999999999994
      vertex 5.830560964015137 5.319824244650894 0.49999999999999994
    endloop
  endfacet
  facet normal 0.0 0.0 1.0
    outer loop
      vertex 6.574437840638941 6.380230202800649 0.49999999999999994
      vertex 5.315579354117359 6.513607039877086 0.49999999999999994
      vertex 5.830560964015137 5.319824244650894 0.49999999999999994
    endloop
  endfacet
  facet normal -0.0 0.0 1.0
    outer loop
      vertex 6.345587527831684 4.163564410323027 0.49999999999999994
      vertex 7.566811941772012 4.062622259745736 0.49999999999999994
      vertex 7.049658147871011 5.177577871637192 0.49999999999999994
    endloop
  endfacet
  facet normal 0.0 0.0 1.0
    outer loop
      vertex 6.345587527831684 4.163564410323027 0.49999999999999994
      vertex 6.861393062868154 3.0337395134789413 0.49999999999999994
      vertex 7.566811941772012 4.062622259745736 0.49999999999999994
    endloop
  endfacet
  facet normal 0.0 0.0 1.0
    outer loop
      vertex 6.345587527831684 4.163564410323027 0.49999999999999994
      vertex 5.605996026431689 3.165754037128839 0.49999999999999994
      vertex 6.861393062868154 3.0337395134789413 0.49999999999999994
    endloop
  endfacet
  facet normal 0.0 0.0 1.0
    outer loop
      vertex 3.1250154205141527 3.4163221456981576 0.49999999999999994
      vertex 3.609175613560574 2.2452257692931856 0.49999999999999994
      vertex 4.343701614277079 3.2698777274689688 0.49999999999999994
    endloop
  endfacet
  facet normal 0.0 0.0 1.0
    outer loop
      vertex 4.343701614277079 3.2698777274689688 0.49999999999999994
      vertex 4.942570184972444 2.145774010028575 0.49999999999999994
      vertex 5.605996026431689 3.165754037128839 0.49999999999999994
    endloop
  endfacet
  facet normal 0.0 0.0 1.0
    outer loop
      vertex 4.343701614277079 3.2698777274689688 0.49999999999999994
      vertex 3.609175613560574 2.2452257692931856 0.49999999999999994
      vertex 4.942570184972444 2.145774010028575 0.49999999999999994
    endloop
  endfacet
  facet normal 0.0 0.0 1.0
    outer loop
      vertex 3.1250154205141527 3.4163221456981576 0.49999999999999994
      vertex 2.2882583563092767 2.3550351929011923 0.49999999999999994
      vertex 3.609175613560574 2.2452257692931856 0.49999999999999994
    endloop
  endfacet
  facet normal 0.0 0.0 1.0
    outer loop
      vertex 3.1250154205141527 3.4163221456981576 0.49999999999999994
      vertex 2.067670523805023 3.6328178207548665 0.49999999999999994
      vertex 2.2882583563092767 2.3550351929011923 0.49999999999999994
    endloop
  endfacet
  facet normal 0.0 0.0 1.0
    outer loop
      vertex 2.56648260549409 4.564244369329055 0.49999999999999994
      vertex 2.067670523805023 3.6328178207548665 0.49999999999999994
      vertex 3.1250154205141527 3.4163221456981576 0.49999999999999994
    endloop
  endfacet
  facet normal 0.0 -0.0 1.0
    outer loop
      vertex 7.049658147871011 5.177577871637192 0.49999999999999994
      vertex 7.784454463207657 6.09090780784483 0.49999999999999994
      vertex 6.574437840638941 6.380230202800649 0.49999999999999994
    endloop
  endfacet
  facet normal 0.0 -0.0 1.0
    outer loop
      vertex 7.566811941772012 4.062622259745736 0.49999999999999994
      vertex 8.034614397437787 5.03189972946789 0.49999999999999994
      vertex 7.049658147871011 5.177577871637192 0.49999999999999994
    endloop
  endfacet
  facet normal -0.0 0.0 1.0
    outer loop
      vertex 7.049658147871011 5.177577871637192 0.49999999999999994
      vertex 8.034614397437787 5.03189972946789 0.49999999999999994
      vertex 7.784454463207657 6.09090780784483 0.49999999999999994
    endloop
  endfacet
  facet normal 0.0 0.0 1.0
    outer loop
      vertex 7.784454463207657 6.09090780784483 0.49999999999999994
      vertex 7.323350987610583 7.358552615525578 0.49999999999999994
      vertex 6.574437840638941 6.380230202800649 0.49999999999999994
    endloop
  endfacet
  facet normal 0.0 0.0 1.0
    outer loop
      vertex 7.323350987610583 7.358552615525578 0.49999999999999994
      vertex 6.08112286851429 7.626716703113364 0.49999999999999994
      vertex 6.574437840638941 6.380230202800649 0.49999999999999994
    endloop
  endfacet
  facet normal 0.0 0.0 1.0
    outer loop
      vertex 6.08112286851429 7.626716703113364 0.49999999999999994
      vertex 5.315579354117359 6.513607039877086 0.49999999999999994
      vertex 6.574437840638941 6.380230202800649 0.49999999999999994
    endloop
  endfacet
  facet normal 0.0 0.0 1.0
    outer loop
      vertex 4.796076758142181 7.677286814126764 0.49999999999999994
      vertex 5.315579354117359 6.513607039877086 0.49999999999999994
      vertex 6.08112286851429 7.626716703113364 0.49999999999999994
    endloop
  endfacet
  facet normal -0.0 0.0 1.0
    outer loop
      vertex 6.861393062868154 3.0337395134789413 0.49999999999999994
      vertex 8.12319127629309 2.972907869243256 0.49999999999999994
      vertex 7.566811941772012 4.062622259745736 0.49999999999999994
    endloop
  endfacet
  facet normal 0.0 0.0 1.0
    outer loop
      vertex 6.861393062868154 3.0337395134789413 0.49999999999999994
      vertex 7.50015475094461 2.0082873842289604 0.49999999999999994
      vertex 8.12319127629309 2.972907869243256 0.49999999999999994
    endloop
  endfacet
  facet normal 0.0 0.0 1.0
    outer loop
      vertex 5.605996026431689 3.165754037128839 0.49999999999999994
      vertex 6.170978057041075 2.098098166896319 0.49999999999999994
      vertex 6.861393062868154 3.0337395134789413 0.49999999999999994
    endloop
  endfacet
  facet normal -0.0 0.0 1.0
    outer loop
      vertex 6.170978057041075 2.098098166896319 0.49999999999999994
      vertex 7.50015475094461 2.0082873842289604 0.49999999999999994
      vertex 6.861393062868154 3.0337395134789413 0.49999999999999994
    endloop
  endfacet
  facet normal 0.0 0.0 1.0
    outer loop
      vertex 8.12319127629309 2.972907869243256 0.49999999999999994
      vertex 7.50015475094461 2.0082873842289604 0.49999999999999994
      vertex 8.91603979386528 1.923786055713472 0.49999999999999994
    endloop
  endfacet
  facet normal 0.0 -0.0 1.0
    outer loop
      vertex 8.91603979386528 1.923786055713472 0.49999999999999994
      vertex 9.176216742106185 3.0700169266136808 0.49999999999999994
      vertex 8.12319127629309 2.972907869243256 0.49999999999999994
    endloop
  endfacet
  facet normal 0.0 0.0 1.0
    outer loop
      vertex 7.784454463207657 6.09090780784483 0.49999999999999994
      vertex 8.034614397437787 5.03189972946789 0.49999999999999994
      vertex 8.9302947939657 5.624999999999992 0.49999999999999994
    endloop
  endfacet
  facet normal 0.0 0.0 1.0
    outer loop
      vertex 6.953333031199331 8.705983976176286 0.49999999999999994
      vertex 6.08112286851429 7.626716703113364 0.49999999999999994
      vertex 7.323350987610583 7.358552615525578 0.49999999999999994
    endloop
  endfacet
  facet normal 0.0 -0.0 1.0
    outer loop
      vertex 7.323350987610583 7.358552615525578 0.49999999999999994
      vertex 8.026475566049326 8.040063348194746 0.49999999999999994
      vertex 6.953333031199331 8.705983976176286 0.49999999999999994
    endloop
  endfacet
  facet normal 0.0 0.0 1.0
    outer loop
      vertex 2.2882583563092767 2.3550351929011923 0.49999999999999994
      vertex 2.067670523805023 3.6328178207548665 0.49999999999999994
      vertex 1.1080799736251217 3.1510743855437013 0.49999999999999994
    endloop
  endfacet
  facet normal -0.0 0.0 1.0
    outer loop
      vertex 4.942570184972444 2.145774010028575 0.49999999999999994
      vertex 6.170978057041075 2.098098166896319 0.49999999999999994
      vertex 5.605996026431689 3.165754037128839 0.49999999999999994
    endloop
  endfacet
  facet normal 0.0 0.0 1.0
    outer loop
      vertex 3.609175613560574 2.2452257692931856 0.49999999999999994
      vertex 4.375000000000008 1.0220554060897478 0.49999999999999994
      vertex 4.942570184972444 2.145774010028575 0.49999999999999994
    endloop
  endfacet
  facet normal 0.0 -0.0 1.0
    outer loop
      vertex 6.827794824927871 1.0349114757737479 0.49999999999999994
      vertex 7.50015475094461 2.0082873842289604 0.49999999999999994
      vertex 6.170978057041075 2.098098166896319 0.49999999999999994
    endloop
  endfacet
  facet normal 0.0 -1.0 0.0
    outer loop
      vertex 10.0 0.0 0.0
      vertex 10.0 0.0 0.49999999999999994
      vertex 9.375 0.0 0.24999999999999997
    endloop
  endfacet
  facet normal 0.0 -1.0 0.0
    outer loop
      vertex 8.75 0.0 0.0
      vertex 10.0 0.0 0.0
      vertex 9.375 0.0 0.24999999999999997
    endloop
  endfacet
  facet normal -0.0 -1.0 0.0
    outer loop
      vertex 10.0 0.0 0.49999999999999994
      vertex 8.75 0.0 0.49999999999999994
      vertex 9.375 0.0 0.24999999999999997
    endloop
  endfacet
  facet normal 0.0 -1.0 0.0
    outer loop
      vertex 0.0 0.0 0.49999999999999994
      vertex 0.0 0.0 0.0
      vertex 1.2500000000000036 0.0 0.49999999999999994
    endloop
  endfacet
  facet normal 0.0 -1.0 -0.0
    outer loop
      vertex 1.2500000000000036 0.0 0.49999999999999994
      vertex 0.0 0.0 0.0
      vertex 1.2500000000000036 0.0 0.0
    endloop
  endfacet
  facet normal 0.0 -1.0 0.0
    outer loop
      vertex 1.2500000000000036 0.0 0.49999999999999994
      vertex 2.500000000000007 0.0 0.0
      vertex 2.500000000000007 0.0 0.49999999999999994
    endloop
  endfacet
  facet normal 0.0 -1.0 0.0
    outer loop
      vertex 2.500000000000007 0.0 0.0
      vertex 1.2500000000000036 0.0 0.49999999999999994
      vertex 1.2500000000000036 0.0 0.0
    endloop
  endfacet
  facet normal 0.0 -1.0 0.0
    outer loop
      vertex 2.500000000000007 0.0 0.49999999999999994
      vertex 3.7500000000000067 0.0 0.0
      vertex 3.7500000000000067 0.0 0.49999999999999994
    endloop
  endfacet
  facet normal 0.0 -1.0 0.0
    outer loop
      vertex 2.500000000000007 0.0 0.0
      vertex 3.7500000000000067 0.0 0.0
      vertex 2.500000000000007 0.0 0.49999999999999994
    endloop
  endfacet
  facet normal -0.0 -1.0 0.0
    outer loop
      vertex 5.0000000000000036 0.0 0.49999999999999994
      vertex 3.7500000000000067 0.0 0.49999999999999994
      vertex 4.375000000000008 0.0 0.24999999999999994
    endloop
  endfacet
  facet normal 0.0 -1.0 0.0
    outer loop
      vertex 3.7500000000000067 0.0 0.49999999999999994
      vertex 3.7500000000000067 0.0 0.0
      vertex 4.375000000000008 0.0 0.24999999999999994
    endloop
  endfacet
  facet normal -0.0 -1.0 0.0
    outer loop
      vertex 6.250000000000004 0.0 0.49999999999999994
      vertex 5.0000000000000036 0.0 0.49999999999999994
      vertex 5.625000000000004 0.0 0.24999999999999997
    endloop
  endfacet
  facet normal 0.0 -1.0 0.0
    outer loop
      vertex 5.0000000000000036 0.0 0.0
      vertex 5.0000000000000036 0.0 0.49999999999999994
      vertex 4.375000000000008 0.0 0.24999999999999994
    endloop
  endfacet
  facet normal 0.0 -1.0 0.0
    outer loop
      vertex 5.0000000000000036 0.0 0.49999999999999994
      vertex 5.0000000000000036 0.0 0.0
      vertex 5.625000000000004 0.0 0.24999999999999997
    endloop
  endfacet
  facet normal -0.0 -1.0 0.0
    outer loop
      vertex 7.500000000000004 0.0 0.49999999999999994
      vertex 6.250000000000004 0.0 0.49999999999999994
      vertex 6.875000000000004 0.0 0.24999999999999997
    endloop
  endfacet
  facet normal 0.0 -1.0 0.0
    outer loop
      vertex 6.250000000000004 0.0 0.0
      vertex 6.250000000000004 0.0 0.49999999999999994
      vertex 5.625000000000004 0.0 0.24999999999999997
    endloop
  endfacet
  facet normal 0.0 -1.0 0.0
    outer loop
      vertex 6.250000000000004 0.0 0.49999999999999994
      vertex 6.250000000000004 0.0 0.0
      vertex 6.875000000000004 0.0 0.24999999999999997
    endloop
  endfacet
  facet normal -0.0 -1.0 0.0
    outer loop
      vertex 8.75 0.0 0.49999999999999994
      vertex 7.500000000000004 0.0 0.49999999999999994
      vertex 8.125000000000004 0.0 0.24999999999999997
    endloop
  endfacet
  facet normal 0.0 -1.0 0.0
    outer loop
      vertex 7.500000000000004 0.0 0.0
      vertex 7.500000000000004 0.0 0.49999999999999994
      vertex 6.875000000000004 0.0 0.24999999999999997
    endloop
  endfacet
  facet normal 0.0 -1.0 0.0
    outer loop
      vertex 7.500000000000004 0.0 0.49999999999999994
      vertex 7.500000000000004 0.0 0.0
      vertex 8.125000000000004 0.0 0.24999999999999997
    endloop
  endfacet
  facet normal 0.0 -1.0 0.0
    outer loop
      vertex 8.75 0.0 0.49999999999999994
      vertex 8.75 0.0 0.0
      vertex 9.375 0.0 0.24999999999999997
    endloop
  endfacet
  facet normal 0.0 -1.0 0.0
    outer loop
      vertex 8.75 0.0 0.0
      vertex 8.75 0.0 0.49999999999999994
      vertex 8.125000000000004 0.0 0.24999999999999997
    endloop
  endfacet
  facet normal 0.0 -1.0 0.0
    outer loop
      vertex 3.7500000000000067 0.0 0.0
      vertex 5.0000000000000036 0.0 0.0
      vertex 4.375000000000008 0.0 0.24999999999999994
    endloop
  endfacet
  facet normal 0.0 -1.0 0.0
    outer loop
      vertex 5.0000000000000036 0.0 0.0
      vertex 6.250000000000004 0.0 0.0
      vertex 5.625000000000004 0.0 0.24999999999999997
    endloop
  endfacet
  facet normal 0.0 -1.0 0.0
    outer loop
      vertex 6.250000000000004 0.0 0.0
      vertex 7.500000000000004 0.0 0.0
      vertex 6.875000000000004 0.0 0.24999999999999997
    endloop
  endfacet
  facet normal 0.0 -1.0 0.0
    outer loop
      vertex 7.500000000000004 0.0 0.0
      vertex 8.75 0.0 0.0
      vertex 8.125000000000004 0.0 0.24999999999999997
    endloop
  endfacet
  facet normal -0.0 1.0 0.0
    outer loop
      vertex 8.714285714285712 10.0 0.49999999999999994
      vertex 10.0 10.0 0.49999999999999994
      vertex 10.0 10.0 0.0
    endloop
  endfacet
  facet normal 0.0 1.0 0.0
    outer loop
      vertex 10.0 10.0 0.0
      vertex 8.714285714285712 10.0 0.0
      vertex 8.714285714285712 10.0 0.49999999999999994
    endloop
  endfacet
  facet normal 0.0 1.0 0.0
    outer loop
      vertex 0.9999999999999999 10.0 0.0
      vertex 0.9999999999999999 10.0 0.49999999999999994
      vertex 2.2857142857142883 10.0 0.0
    endloop
  endfacet
  facet normal -0.0 1.0 0.0
    outer loop
      vertex 0.9999999999999999 10.0 0.49999999999999994
      vertex 2.2857142857142883 10.0 0.49999999999999994
      vertex 2.2857142857142883 10.0 0.0
    endloop
  endfacet
  facet normal 0.0 1.0 0.0
    outer loop
      vertex 2.2857142857142883 10.0 0.0
      vertex 2.2857142857142883 10.0 0.49999999999999994
      vertex 3.571428571428574 10.0 0.49999999999999994
    endloop
  endfacet
  facet normal -0.0 1.0 0.0
    outer loop
      vertex 3.571428571428574 10.0 0.49999999999999994
      vertex 4.857142857142858 10.0 0.49999999999999994
      vertex 3.571428571428574 10.0 0.0
    endloop
  endfacet
  facet normal 0.0 1.0 0.0
    outer loop
      vertex 2.2857142857142883 10.0 0.0
      vertex 3.571428571428574 10.0 0.49999999999999994
      vertex 3.571428571428574 10.0 0.0
    endloop
  endfacet
  facet normal -0.0 1.0 0.0
    outer loop
      vertex 4.857142857142858 10.0 0.49999999999999994
      vertex 6.142857142857142 10.0 0.49999999999999994
      vertex 6.142857142857142 10.0 0.0
    endloop
  endfacet
  facet normal 0.0 1.0 0.0
    outer loop
      vertex 4.857142857142858 10.0 0.49999999999999994
      vertex 4.857142857142858 10.0 0.0
      vertex 3.571428571428574 10.0 0.0
    endloop
  endfacet
  facet normal 0.0 1.0 0.0
    outer loop
      vertex 6.142857142857142 10.0 0.0
      vertex 4.857142857142858 10.0 0.0
      vertex 4.857142857142858 10.0 0.49999999999999994
    endloop
  endfacet
  facet normal 0.0 1.0 0.0
    outer loop
      vertex 6.142857142857142 10.0 0.0
      vertex 6.142857142857142 10.0 0.49999999999999994
      vertex 7.428571428571425 10.0 0.49999999999999994
    endloop
  endfacet
  facet normal 0.0 1.0 0.0
    outer loop
      vertex 8.714285714285712 10.0 0.49999999999999994
      vertex 7.428571428571425 10.0 0.0
      vertex 7.428571428571425 10.0 0.49999999999999994
    endloop
  endfacet
  facet normal 0.0 1.0 0.0
    outer loop
      vertex 7.428571428571425 10.0 0.49999999999999994
      vertex 7.428571428571425 10.0 0.0
      vertex 6.142857142857142 10.0 0.0
    endloop
  endfacet
  facet normal 0.0 1.0 0.0
    outer loop
      vertex 8.714285714285712 10.0 0.49999999999999994
      vertex 8.714285714285712 10.0 0.0
      vertex 7.428571428571425 10.0 0.0
    endloop
  endfacet
  facet normal -0.9807852804032303 0.19509032201612864 0.0
    outer loop
      vertex 0.9999999999999999 10.0 0.49999999999999994
      vertex 0.9999999999999999 10.0 0.0
      vertex 0.9238795325112865 9.61731656763491 0.25840871994420117
    endloop
  endfacet
  facet normal -0.8811749615827755 0.36499461991117726 -0.3005155811526073
    outer loop
      vertex 0.7071067811865468 9.292893218813452 0.49999999999999994
      vertex 0.9999999999999999 10.0 0.49999999999999994
      vertex 0.9238795325112865 9.61731656763491 0.25840871994420117
    endloop
  endfacet
  facet normal -0.19525237875616705 0.9807530313947841 0.0
    outer loop
      vertex 0.0 9.0 0.0
      vertex 0.0 9.0 0.49999999999999994
      vertex 0.38298872470430717 9.076246982819884 0.24999999999999997
    endloop
  endfacet
  facet normal -0.3660895948810934 0.8838184650056079 -0.29127878301539206
    outer loop
      vertex 0.0 9.0 0.49999999999999994
      vertex 0.7071067811865468 9.292893218813452 0.49999999999999994
      vertex 0.38298872470430717 9.076246982819884 0.24999999999999997
    endloop
  endfacet
  facet normal -0.886228613835183 0.36708791121364176 0.2825691233319299
    outer loop
      vertex 0.9999999999999999 10.0 0.0
      vertex 0.7071067811865468 9.292893218813452 0.0
      vertex 0.9238795325112865 9.61731656763491 0.25840871994420117
    endloop
  endfacet
  facet normal -0.3660895948810934 0.8838184650056079 0.2912787830153921
    outer loop
      vertex 0.7071067811865468 9.292893218813452 0.0
      vertex 0.0 9.0 0.0
      vertex 0.38298872470430717 9.076246982819884 0.24999999999999997
    endloop
  endfacet
  facet normal -0.8314696123025451 0.5555702330196025 0.0
    outer loop
      vertex 0.7071067811865468 9.292893218813452 0.0
      vertex 0.7071067811865468 9.292893218813452 0.49999999999999994
      vertex 0.9238795325112865 9.61731656763491 0.25840871994420117
    endloop
  endfacet
  facet normal -0.5557076127635875 0.8313778016741815 0.0
    outer loop
      vertex 0.7071067811865468 9.292893218813452 0.49999999999999994
      vertex 0.7071067811865468 9.292893218813452 0.0
      vertex 0.38298872470430717 9.076246982819884 0.24999999999999997
    endloop
  endfacet
  facet normal -1.0 0.0 0.0
    outer loop
      vertex 0.0 9.0 0.0
      vertex 0.0 7.7142857142857135 0.0
      vertex 0.0 9.0 0.49999999999999994
    endloop
  endfacet
  facet normal -1.0 -0.0 0.0
    outer loop
      vertex 0.0 9.0 0.49999999999999994
      vertex 0.0 7.7142857142857135 0.0
      vertex 0.0 7.7142857142857135 0.49999999999999994
    endloop
  endfacet
  facet normal -1.0 0.0 0.0
    outer loop
      vertex 0.0 0.0 0.49999999999999994
      vertex 0.0 1.2857142857142907 0.0
      vertex 0.0 0.0 0.0
    endloop
  endfacet
  facet normal -1.0 0.0 0.0
    outer loop
      vertex 0.0 1.2857142857142907 0.0
      vertex 0.0 0.0 0.49999999999999994
      vertex 0.0 1.2857142857142907 0.49999999999999994
    endloop
  endfacet
  facet normal -1.0 0.0 0.0
    outer loop
      vertex 0.0 7.7142857142857135 0.0
      vertex 0.0 6.428571428571428 0.49999999999999994
      vertex 0.0 7.7142857142857135 0.49999999999999994
    endloop
  endfacet
  facet normal -1.0 0.0 0.0
    outer loop
      vertex 0.0 5.142857142857145 0.49999999999999994
      vertex 0.0 6.428571428571428 0.49999999999999994
      vertex 0.0 6.428571428571428 0.0
    endloop
  endfacet
  facet normal -1.0 0.0 0.0
    outer loop
      vertex 0.0 6.428571428571428 0.49999999999999994
      vertex 0.0 7.7142857142857135 0.0
      vertex 0.0 6.428571428571428 0.0
    endloop
  endfacet
  facet normal -1.0 -0.0 0.0
    outer loop
      vertex 0.0 5.142857142857145 0.49999999999999994
      vertex 0.0 3.857142857142862 0.0
      vertex 0.0 3.857142857142862 0.49999999999999994
    endloop
  endfacet
  facet normal -1.0 0.0 0.0
    outer loop
      vertex 0.0 5.142857142857145 0.49999999999999994
      vertex 0.0 6.428571428571428 0.0
      vertex 0.0 5.142857142857145 0.0
    endloop
  endfacet
  facet normal -1.0 0.0 0.0
    outer loop
      vertex 0.0 3.857142857142862 0.0
      vertex 0.0 5.142857142857145 0.49999999999999994
      vertex 0.0 5.142857142857145 0.0
    endloop
  endfacet
  facet normal -1.0 0.0 0.0
    outer loop
      vertex 0.0 3.857142857142862 0.0
      vertex 0.0 2.5714285714285783 0.49999999999999994
      vertex 0.0 3.857142857142862 0.49999999999999994
    endloop
  endfacet
  facet normal -1.0 -0.0 0.0
    outer loop
      vertex 0.0 2.5714285714285783 0.49999999999999994
      vertex 0.0 1.2857142857142907 0.0
      vertex 0.0 1.2857142857142907 0.49999999999999994
    endloop
  endfacet
  facet normal -1.0 0.0 0.0
    outer loop
      vertex 0.0 2.5714285714285783 0.49999999999999994
      vertex 0.0 3.857142857142862 0.0
      vertex 0.0 2.5714285714285783 0.0
    endloop
  endfacet
  facet normal -1.0 0.0 -0.0
    outer loop
      vertex 0.0 2.5714285714285783 0.49999999999999994
      vertex 0.0 2.5714285714285783 0.0
      vertex 0.0 1.2857142857142907 0.0
    endloop
  endfacet
  facet normal 0.0 -0.0 -1.0
    outer loop
      vertex 10.0 10.0 0.0
      vertex 10.0 8.749999999999996 0.0
      vertex 9.053615881543914 9.062800825098229 0.0
    endloop
  endfacet
  facet normal 0.0 0.0 -1.0
    outer loop
      vertex 8.714285714285712 10.0 0.0
      vertex 10.0 10.0 0.0
      vertex 9.053615881543914 9.062800825098229 0.0
    endloop
  endfacet
  facet normal 0.0 -0.0 -1.0
    outer loop
      vertex 10.0 1.25 0.0
      vertex 10.0 0.0 0.0
      vertex 9.09130091930618 0.9086990806938191 0.0
    endloop
  endfacet
  facet normal 0.0 0.0 -1.0
    outer loop
      vertex 10.0 0.0 0.0
      vertex 8.75 0.0 0.0
      vertex 9.09130091930618 0.9086990806938191 0.0
    endloop
  endfacet
  facet normal 0.0 0.0 -1.0
    outer loop
      vertex 1.2500000000000036 0.0 0.0
      vertex 0.0 0.0 0.0
      vertex 0.9371991749017702 0.9463841184560862 0.0
    endloop
  endfacet
  facet normal 0.0 0.0 -1.0
    outer loop
      vertex 0.0 0.0 0.0
      vertex 0.0 1.2857142857142907 0.0
      vertex 0.9371991749017702 0.9463841184560862 0.0
    endloop
  endfacet
  facet normal 0.0 0.0 -1.0
    outer loop
      vertex 0.9999999999999999 10.0 0.0
      vertex 2.2857142857142883 10.0 0.0
      vertex 1.2971053981795786 9.34263806929673 0.0
    endloop
  endfacet
  facet normal 0.0 0.0 -1.0
    outer loop
      vertex 0.7071067811865468 9.292893218813452 0.0
      vertex 0.9999999999999999 10.0 0.0
      vertex 1.2971053981795786 9.34263806929673 0.0
    endloop
  endfacet
  facet normal 0.0 0.0 -1.0
    outer loop
      vertex 0.0 9.0 0.0
      vertex 0.7071067811865468 9.292893218813452 0.0
      vertex 0.6784353385675336 8.587988988997049 0.0
    endloop
  endfacet
  facet normal 0.0 0.0 -1.0
    outer loop
      vertex 0.0 7.7142857142857135 0.0
      vertex 0.0 9.0 0.0
      vertex 0.6784353385675336 8.587988988997049 0.0
    endloop
  endfacet
  facet normal 0.0 -0.0 -1.0
    outer loop
      vertex 10.0 8.749999999999996 0.0
      vertex 10.0 7.499999999999993 0.0
      vertex 8.971740510120677 8.142783415244576 0.0
    endloop
  endfacet
  facet normal -0.0 0.0 -1.0
    outer loop
      vertex 10.0 8.749999999999996 0.0
      vertex 8.971740510120677 8.142783415244576 0.0
      vertex 9.053615881543914 9.062800825098229 0.0
    endloop
  endfacet
  facet normal 0.0 -0.0 -1.0
    outer loop
      vertex 10.0 7.499999999999993 0.0
      vertex 10.0 6.249999999999993 0.0
      vertex 8.723564412752497 6.995687733995546 0.0
    endloop
  endfacet
  facet normal -0.0 0.0 -1.0
    outer loop
      vertex 10.0 7.499999999999993 0.0
      vertex 8.723564412752497 6.995687733995546 0.0
      vertex 8.971740510120677 8.142783415244576 0.0
    endloop
  endfacet
  facet normal 0.0 -0.0 -1.0
    outer loop
      vertex 10.0 6.249999999999993 0.0
      vertex 10.0 4.9999999999999964 0.0
      vertex 8.9302947939657 5.624999999999992 0.0
    endloop
  endfacet
  facet normal 0.0 0.0 -1.0
    outer loop
      vertex 8.723564412752497 6.995687733995546 0.0
      vertex 10.0 6.249999999999993 0.0
      vertex 8.9302947939657 5.624999999999992 0.0
    endloop
  endfacet
  facet normal 0.0 -0.0 -1.0
    outer loop
      vertex 10.0 4.9999999999999964 0.0
      vertex 10.0 3.7499999999999956 0.0
      vertex 8.841852640372544 4.203390708111688 0.0
    endloop
  endfacet
  facet normal -0.0 0.0 -1.0
    outer loop
      vertex 10.0 4.9999999999999964 0.0
      vertex 8.841852640372544 4.203390708111688 0.0
      vertex 8.9302947939657 5.624999999999992 0.0
    endloop
  endfacet
  facet normal 0.0 -0.0 -1.0
    outer loop
      vertex 10.0 3.7499999999999956 0.0
      vertex 10.0 2.4999999999999956 0.0
      vertex 9.176215738793733 3.070017167601008 0.0
    endloop
  endfacet
  facet normal 0.0 0.0 -1.0
    outer loop
      vertex 8.841852640372544 4.203390708111688 0.0
      vertex 10.0 3.7499999999999956 0.0
      vertex 9.176215738793733 3.070017167601008 0.0
    endloop
  endfacet
  facet normal 0.0 -0.0 -1.0
    outer loop
      vertex 10.0 2.4999999999999956 0.0
      vertex 10.0 1.25 0.0
      vertex 8.916039453066213 1.923786137570579 0.0
    endloop
  endfacet
  facet normal -0.0 0.0 -1.0
    outer loop
      vertex 10.0 2.4999999999999956 0.0
      vertex 8.916039453066213 1.923786137570579 0.0
      vertex 9.176215738793733 3.070017167601008 0.0
    endloop
  endfacet
  facet normal 0.0 0.0 -1.0
    outer loop
      vertex 8.916039453066213 1.923786137570579 0.0
      vertex 10.0 1.25 0.0
      vertex 9.09130091930618 0.9086990806938191 0.0
    endloop
  endfacet
  facet normal 0.0 0.0 -1.0
    outer loop
      vertex 2.500000000000007 0.0 0.0
      vertex 1.2500000000000036 0.0 0.0
      vertex 1.8930477877969663 1.0499541307902327 0.0
    endloop
  endfacet
  facet normal 0.0 0.0 -1.0
    outer loop
      vertex 1.8930477877969663 1.0499541307902327 0.0
      vertex 1.2500000000000036 0.0 0.0
      vertex 0.9371991749017702 0.9463841184560862 0.0
    endloop
  endfacet
  facet normal 0.0 0.0 -1.0
    outer loop
      vertex 3.7500000000000067 0.0 0.0
      vertex 2.500000000000007 0.0 0.0
      vertex 3.1250000000000067 1.082531754730547 0.0
    endloop
  endfacet
  facet normal 0.0 0.0 -1.0
    outer loop
      vertex 3.1250000000000067 1.082531754730547 0.0
      vertex 2.500000000000007 0.0 0.0
      vertex 1.8930477877969663 1.0499541307902327 0.0
    endloop
  endfacet
  facet normal 0.0 0.0 -1.0
    outer loop
      vertex 5.0000000000000036 0.0 0.0
      vertex 3.7500000000000067 0.0 0.0
      vertex 4.375000000000008 1.0220554060897478 0.0
    endloop
  endfacet
  facet normal 0.0 0.0 -1.0
    outer loop
      vertex 3.7500000000000067 0.0 0.0
      vertex 3.1250000000000067 1.082531754730547 0.0
      vertex 4.375000000000008 1.0220554060897478 0.0
    endloop
  endfacet
  facet normal 0.0 0.0 -1.0
    outer loop
      vertex 6.250000000000004 0.0 0.0
      vertex 5.0000000000000036 0.0 0.0
      vertex 5.583373403315771 1.056128646258732 0.0
    endloop
  endfacet
  facet normal 0.0 0.0 -1.0
    outer loop
      vertex 5.583373403315771 1.056128646258732 0.0
      vertex 5.0000000000000036 0.0 0.0
      vertex 4.375000000000008 1.0220554060897478 0.0
    endloop
  endfacet
  facet normal 0.0 0.0 -1.0
    outer loop
      vertex 7.500000000000004 0.0 0.0
      vertex 6.250000000000004 0.0 0.0
      vertex 6.827794824927866 1.0349114757737479 0.0
    endloop
  endfacet
  facet normal 0.0 0.0 -1.0
    outer loop
      vertex 6.250000000000004 0.0 0.0
      vertex 5.583373403315771 1.056128646258732 0.0
      vertex 6.827794824927866 1.0349114757737479 0.0
    endloop
  endfacet
  facet normal 0.0 0.0 -1.0
    outer loop
      vertex 8.75 0.0 0.0
      vertex 7.500000000000004 0.0 0.0
      vertex 8.101531490672182 0.9862812242680196 0.0
    endloop
  endfacet
  facet normal -0.0 0.0 -1.0
    outer loop
      vertex 8.101531490672182 0.9862812242680196 0.0
      vertex 7.500000000000004 0.0 0.0
      vertex 6.827794824927866 1.0349114757737479 0.0
    endloop
  endfacet
  facet normal 0.0 0.0 -1.0
    outer loop
      vertex 8.75 0.0 0.0
      vertex 8.101531490672182 0.9862812242680196 0.0
      vertex 9.09130091930618 0.9086990806938191 0.0
    endloop
  endfacet
  facet normal 0.0 0.0 -1.0
    outer loop
      vertex 2.2857142857142883 10.0 0.0
      vertex 3.571428571428574 10.0 0.0
      vertex 2.945297759989281 8.926148228710808 0.0
    endloop
  endfacet
  facet normal 0.0 -0.0 -1.0
    outer loop
      vertex 2.2857142857142883 10.0 0.0
      vertex 2.945297759989281 8.926148228710808 0.0
      vertex 1.8142705854295238 8.832308138673149 0.0
    endloop
  endfacet
  facet normal 0.0 0.0 -1.0
    outer loop
      vertex 2.2857142857142883 10.0 0.0
      vertex 1.8142705854295238 8.832308138673149 0.0
      vertex 1.2971053981795786 9.34263806929673 0.0
    endloop
  endfacet
  facet normal 0.0 0.0 -1.0
    outer loop
      vertex 3.571428571428574 10.0 0.0
      vertex 4.857142857142858 10.0 0.0
      vertex 4.197356886597571 8.87957863850796 0.0
    endloop
  endfacet
  facet normal 0.0 0.0 -1.0
    outer loop
      vertex 2.945297759989281 8.926148228710808 0.0
      vertex 3.571428571428574 10.0 0.0
      vertex 4.197356886597571 8.87957863850796 0.0
    endloop
  endfacet
  facet normal 0.0 0.0 -1.0
    outer loop
      vertex 4.857142857142858 10.0 0.0
      vertex 6.142857142857142 10.0 0.0
      vertex 5.499999999999999 8.886538766562868 0.0
    endloop
  endfacet
  facet normal 0.0 -0.0 -1.0
    outer loop
      vertex 4.857142857142858 10.0 0.0
      vertex 5.499999999999999 8.886538766562868 0.0
      vertex 4.197356886597571 8.87957863850796 0.0
    endloop
  endfacet
  facet normal 0.0 0.0 -1.0
    outer loop
      vertex 6.142857142857142 10.0 0.0
      vertex 7.428571428571425 10.0 0.0
      vertex 6.953333031199334 8.705983976176285 0.0
    endloop
  endfacet
  facet normal 0.0 0.0 -1.0
    outer loop
      vertex 5.499999999999999 8.886538766562868 0.0
      vertex 6.142857142857142 10.0 0.0
      vertex 6.953333031199334 8.705983976176285 0.0
    endloop
  endfacet
  facet normal 0.0 0.0 -1.0
    outer loop
      vertex 7.428571428571425 10.0 0.0
      vertex 8.714285714285712 10.0 0.0
      vertex 8.160388888563544 8.99730900003175 0.0
    endloop
  endfacet
  facet normal 0.0 -0.0 -1.0
    outer loop
      vertex 7.428571428571425 10.0 0.0
      vertex 8.160388888563544 8.99730900003175 0.0
      vertex 6.953333031199334 8.705983976176285 0.0
    endloop
  endfacet
  facet normal 0.0 0.0 -1.0
    outer loop
      vertex 8.160388888563544 8.99730900003175 0.0
      vertex 8.714285714285712 10.0 0.0
      vertex 9.053615881543914 9.062800825098229 0.0
    endloop
  endfacet
  facet normal 0.0 0.0 -1.0
    outer loop
      vertex 0.6784353385675336 8.587988988997049 0.0
      vertex 0.7071067811865468 9.292893218813452 0.0
      vertex 1.2971053981795786 9.34263806929673 0.0
    endloop
  endfacet
  facet normal 0.0 0.0 -1.0
    outer loop
      vertex 0.0 6.428571428571428 0.0
      vertex 0.0 7.7142857142857135 0.0
      vertex 1.2827208224201878 6.941578310284911 0.0
    endloop
  endfacet
  facet normal 0.0 0.0 -1.0
    outer loop
      vertex 1.2827208224201878 6.941578310284911 0.0
      vertex 0.0 7.7142857142857135 0.0
      vertex 1.2142982967171263 7.995303307045569 0.0
    endloop
  endfacet
  facet normal 0.0 0.0 -1.0
    outer loop
      vertex 0.0 7.7142857142857135 0.0
      vertex 0.6784353385675336 8.587988988997049 0.0
      vertex 1.2142982967171263 7.995303307045569 0.0
    endloop
  endfacet
  facet normal 0.0 0.0 -1.0
    outer loop
      vertex 0.0 5.142857142857145 0.0
      vertex 0.0 6.428571428571428 0.0
      vertex 0.8459225617268752 5.765759383293224 0.0
    endloop
  endfacet
  facet normal 0.0 0.0 -1.0
    outer loop
      vertex 0.0 6.428571428571428 0.0
      vertex 1.2827208224201878 6.941578310284911 0.0
      vertex 0.8459225617268752 5.765759383293224 0.0
    endloop
  endfacet
  facet normal 0.0 0.0 -1.0
    outer loop
      vertex 0.0 3.857142857142862 0.0
      vertex 0.0 5.142857142857145 0.0
      vertex 1.1760332565784224 4.5719402471575155 0.0
    endloop
  endfacet
  facet normal 0.0 0.0 -1.0
    outer loop
      vertex 1.1760332565784224 4.5719402471575155 0.0
      vertex 0.0 5.142857142857145 0.0
      vertex 0.8459225617268752 5.765759383293224 0.0
    endloop
  endfacet
  facet normal 0.0 0.0 -1.0
    outer loop
      vertex 0.0 2.5714285714285783 0.0
      vertex 0.0 3.857142857142862 0.0
      vertex 1.1080799736251212 3.1510743855436965 0.0
    endloop
  endfacet
  facet normal 0.0 0.0 -1.0
    outer loop
      vertex 0.0 3.857142857142862 0.0
      vertex 1.1760332565784224 4.5719402471575155 0.0
      vertex 1.1080799736251212 3.1510743855436965 0.0
    endloop
  endfacet
  facet normal 0.0 0.0 -1.0
    outer loop
      vertex 0.0 1.2857142857142907 0.0
      vertex 0.0 2.5714285714285783 0.0
      vertex 1.0545118471982287 1.905547309831858 0.0
    endloop
  endfacet
  facet normal 0.0 0.0 -1.0
    outer loop
      vertex 1.0545118471982287 1.905547309831858 0.0
      vertex 0.0 2.5714285714285783 0.0
      vertex 1.1080799736251212 3.1510743855436965 0.0
    endloop
  endfacet
  facet normal 0.0 0.0 -1.0
    outer loop
      vertex 0.0 1.2857142857142907 0.0
      vertex 1.0545118471982287 1.905547309831858 0.0
      vertex 0.9371991749017702 0.9463841184560862 0.0
    endloop
  endfacet
  facet normal 0.0 0.0 -1.0
    outer loop
      vertex 5.499999999999999 8.886538766562868 0.0
      vertex 4.795870459823212 7.677158120246644 0.0
      vertex 4.197356886597571 8.87957863850796 0.0
    endloop
  endfacet
  facet normal 0.0 0.0 -1.0
    outer loop
      vertex 4.795870459823212 7.677158120246644 0.0
      vertex 5.499999999999999 8.886538766562868 0.0
      vertex 6.081085135161634 7.62670449790115 0.0
    endloop
  endfacet
  facet normal 0.0 0.0 -1.0
    outer loop
      vertex 5.499999999999999 8.886538766562868 0.0
      vertex 6.953333031199334 8.705983976176285 0.0
      vertex 6.081085135161634 7.62670449790115 0.0
    endloop
  endfacet
  facet normal 0.0 -0.0 -1.0
    outer loop
      vertex 4.942462307843984 2.1458013302776253 0.0
      vertex 5.583373403315771 1.056128646258732 0.0
      vertex 4.375000000000008 1.0220554060897478 0.0
    endloop
  endfacet
  facet normal 0.0 0.0 -1.0
    outer loop
      vertex 5.583373403315771 1.056128646258732 0.0
      vertex 4.942462307843984 2.1458013302776253 0.0
      vertex 6.170948262180153 2.098105591486031 0.0
    endloop
  endfacet
  facet normal 0.0 0.0 -1.0
    outer loop
      vertex 6.827794824927866 1.0349114757737479 0.0
      vertex 5.583373403315771 1.056128646258732 0.0
      vertex 6.170948262180153 2.098105591486031 0.0
    endloop
  endfacet
  facet normal 0.0 0.0 -1.0
    outer loop
      vertex 1.1760332565784224 4.5719402471575155 0.0
      vertex 1.9599988925240177 5.703939982753004 0.0
      vertex 2.5651447166547587 4.560069151563838 0.0
    endloop
  endfacet
  facet normal -0.0 0.0 -1.0
    outer loop
      vertex 1.9599988925240177 5.703939982753004 0.0
      vertex 1.1760332565784224 4.5719402471575155 0.0
      vertex 0.8459225617268752 5.765759383293224 0.0
    endloop
  endfacet
  facet normal 0.0 0.0 -1.0
    outer loop
      vertex 1.1080799736251212 3.1510743855436965 0.0
      vertex 1.1760332565784224 4.5719402471575155 0.0
      vertex 2.067670523805022 3.6328178207548665 0.0
    endloop
  endfacet
  facet normal 0.0 0.0 -1.0
    outer loop
      vertex 1.1760332565784224 4.5719402471575155 0.0
      vertex 2.5651447166547587 4.560069151563838 0.0
      vertex 2.067670523805022 3.6328178207548665 0.0
    endloop
  endfacet
  facet normal 0.0 0.0 -1.0
    outer loop
      vertex 7.566772113371193 4.062631813806186 0.0
      vertex 8.841852640372544 4.203390708111688 0.0
      vertex 8.12318660052991 2.972908992322771 0.0
    endloop
  endfacet
  facet normal -0.0 0.0 -1.0
    outer loop
      vertex 8.841852640372544 4.203390708111688 0.0
      vertex 7.566772113371193 4.062631813806186 0.0
      vertex 8.034573619248723 5.031909433128437 0.0
    endloop
  endfacet
  facet normal 0.0 0.0 -1.0
    outer loop
      vertex 8.12318660052991 2.972908992322771 0.0
      vertex 8.841852640372544 4.203390708111688 0.0
      vertex 9.176215738793733 3.070017167601008 0.0
    endloop
  endfacet
  facet normal 0.0 0.0 -1.0
    outer loop
      vertex 8.9302947939657 5.624999999999992 0.0
      vertex 8.841852640372544 4.203390708111688 0.0
      vertex 8.034573619248723 5.031909433128437 0.0
    endloop
  endfacet
  facet normal 0.0 0.0 -1.0
    outer loop
      vertex 1.8142705854295238 8.832308138673149 0.0
      vertex 2.945297759989281 8.926148228710808 0.0
      vertex 2.2960647371683853 7.900355382987029 0.0
    endloop
  endfacet
  facet normal 0.0 0.0 -1.0
    outer loop
      vertex 2.2960647371683853 7.900355382987029 0.0
      vertex 2.945297759989281 8.926148228710808 0.0
      vertex 3.514401671201514 7.787626715527446 0.0
    endloop
  endfacet
  facet normal 0.0 0.0 -1.0
    outer loop
      vertex 3.514401671201514 7.787626715527446 0.0
      vertex 2.945297759989281 8.926148228710808 0.0
      vertex 4.197356886597571 8.87957863850796 0.0
    endloop
  endfacet
  facet normal -0.0 0.0 -1.0
    outer loop
      vertex 8.723564412752497 6.995687733995546 0.0
      vertex 7.784415216866539 6.090917112750516 0.0
      vertex 7.323350987610583 7.358552615525575 0.0
    endloop
  endfacet
  facet normal 0.0 0.0 -1.0
    outer loop
      vertex 7.784415216866539 6.090917112750516 0.0
      vertex 8.723564412752497 6.995687733995546 0.0
      vertex 8.9302947939657 5.624999999999992 0.0
    endloop
  endfacet
  facet normal 0.0 0.0 -1.0
    outer loop
      vertex 8.723564412752497 6.995687733995546 0.0
      vertex 7.323350987610583 7.358552615525575 0.0
      vertex 8.026475566049326 8.040063348194746 0.0
    endloop
  endfacet
  facet normal 0.0 0.0 -1.0
    outer loop
      vertex 8.971740510120677 8.142783415244576 0.0
      vertex 8.723564412752497 6.995687733995546 0.0
      vertex 8.026475566049326 8.040063348194746 0.0
    endloop
  endfacet
  facet normal -0.0 0.0 -1.0
    outer loop
      vertex 3.6091756135605744 2.2452257692931856 0.0
      vertex 3.1250000000000067 1.082531754730547 0.0
      vertex 2.288205497332172 2.3550489278079207 0.0
    endloop
  endfacet
  facet normal 0.0 0.0 -1.0
    outer loop
      vertex 3.1250000000000067 1.082531754730547 0.0
      vertex 3.6091756135605744 2.2452257692931856 0.0
      vertex 4.375000000000008 1.0220554060897478 0.0
    endloop
  endfacet
  facet normal 0.0 -0.0 -1.0
    outer loop
      vertex 2.288205497332172 2.3550489278079207 0.0
      vertex 3.1250000000000067 1.082531754730547 0.0
      vertex 1.8930477877969663 1.0499541307902327 0.0
    endloop
  endfacet
  facet normal 0.0 0.0 -1.0
    outer loop
      vertex 1.2827208224201878 6.941578310284911 0.0
      vertex 2.2960647371683853 7.900355382987029 0.0
      vertex 2.7400706141107394 6.764237951246319 0.0
    endloop
  endfacet
  facet normal -0.0 0.0 -1.0
    outer loop
      vertex 2.2960647371683853 7.900355382987029 0.0
      vertex 1.2827208224201878 6.941578310284911 0.0
      vertex 1.2142982967171263 7.995303307045569 0.0
    endloop
  endfacet
  facet normal 0.0 0.0 -1.0
    outer loop
      vertex 1.2827208224201878 6.941578310284911 0.0
      vertex 2.7400706141107394 6.764237951246319 0.0
      vertex 1.9599988925240177 5.703939982753004 0.0
    endloop
  endfacet
  facet normal 0.0 -0.0 -1.0
    outer loop
      vertex 1.2827208224201878 6.941578310284911 0.0
      vertex 1.9599988925240177 5.703939982753004 0.0
      vertex 0.8459225617268752 5.765759383293224 0.0
    endloop
  endfacet
  facet normal 0.0 0.0 -1.0
    outer loop
      vertex 8.101531490672182 0.9862812242680196 0.0
      vertex 6.827794824927866 1.0349114757737479 0.0
      vertex 7.500146422611725 2.0082894313757946 0.0
    endloop
  endfacet
  facet normal -0.0 0.0 -1.0
    outer loop
      vertex 8.916039453066213 1.923786137570579 0.0
      vertex 8.101531490672182 0.9862812242680196 0.0
      vertex 7.500146422611725 2.0082894313757946 0.0
    endloop
  endfacet
  facet normal 0.0 0.0 -1.0
    outer loop
      vertex 8.101531490672182 0.9862812242680196 0.0
      vertex 8.916039453066213 1.923786137570579 0.0
      vertex 9.09130091930618 0.9086990806938191 0.0
    endloop
  endfacet
  facet normal 0.0 0.0 -1.0
    outer loop
      vertex 1.0545118471982287 1.905547309831858 0.0
      vertex 1.1080799736251212 3.1510743855436965 0.0
      vertex 2.288205497332172 2.3550489278079207 0.0
    endloop
  endfacet
  facet normal 0.0 0.0 -1.0
    outer loop
      vertex 1.0545118471982287 1.905547309831858 0.0
      vertex 2.288205497332172 2.3550489278079207 0.0
      vertex 1.8930477877969663 1.0499541307902327 0.0
    endloop
  endfacet
  facet normal 0.0 -0.0 -1.0
    outer loop
      vertex 1.0545118471982287 1.905547309831858 0.0
      vertex 1.8930477877969663 1.0499541307902327 0.0
      vertex 0.9371991749017702 0.9463841184560862 0.0
    endloop
  endfacet
  facet normal 0.0 0.0 -1.0
    outer loop
      vertex 6.953333031199334 8.705983976176285 0.0
      vertex 8.160388888563544 8.99730900003175 0.0
      vertex 8.026475566049326 8.040063348194746 0.0
    endloop
  endfacet
  facet normal 0.0 0.0 -1.0
    outer loop
      vertex 8.971740510120677 8.142783415244576 0.0
      vertex 8.160388888563544 8.99730900003175 0.0
      vertex 9.053615881543914 9.062800825098229 0.0
    endloop
  endfacet
  facet normal 0.0 -0.0 -1.0
    outer loop
      vertex 8.160388888563544 8.99730900003175 0.0
      vertex 8.971740510120677 8.142783415244576 0.0
      vertex 8.026475566049326 8.040063348194746 0.0
    endloop
  endfacet
  facet normal 0.0 -0.0 -1.0
    outer loop
      vertex 1.8142705854295238 8.832308138673149 0.0
      vertex 2.2960647371683853 7.900355382987029 0.0
      vertex 1.2142982967171263 7.995303307045569 0.0
    endloop
  endfacet
  facet normal 0.0 0.0 -1.0
    outer loop
      vertex 0.6784353385675336 8.587988988997049 0.0
      vertex 1.8142705854295238 8.832308138673149 0.0
      vertex 1.2142982967171263 7.995303307045569 0.0
    endloop
  endfacet
  facet normal -0.0 0.0 -1.0
    outer loop
      vertex 1.8142705854295238 8.832308138673149 0.0
      vertex 0.6784353385675336 8.587988988997049 0.0
      vertex 1.2971053981795786 9.34263806929673 0.0
    endloop
  endfacet
  facet normal 0.0 0.0 -1.0
    outer loop
      vertex 2.2960647371683853 7.900355382987029 0.0
      vertex 3.514401671201514 7.787626715527446 0.0
      vertex 2.7400706141107394 6.764237951246319 0.0
    endloop
  endfacet
  facet normal 0.0 0.0 -1.0
    outer loop
      vertex 2.7400706141107394 6.764237951246319 0.0
      vertex 3.514401671201514 7.787626715527446 0.0
      vertex 4.042244670367842 6.621883246311864 0.0
    endloop
  endfacet
  facet normal 0.0 0.0 -1.0
    outer loop
      vertex 4.042244670367842 6.621883246311864 0.0
      vertex 3.514401671201514 7.787626715527446 0.0
      vertex 4.795870459823212 7.677158120246644 0.0
    endloop
  endfacet
  facet normal 0.0 0.0 -1.0
    outer loop
      vertex 4.795870459823212 7.677158120246644 0.0
      vertex 3.514401671201514 7.787626715527446 0.0
      vertex 4.197356886597571 8.87957863850796 0.0
    endloop
  endfacet
  facet normal 0.0 0.0 -1.0
    outer loop
      vertex 2.7400706141107394 6.764237951246319 0.0
      vertex 4.042244670367842 6.621883246311864 0.0
      vertex 3.2474280049774595 5.6062781684511265 0.0
    endloop
  endfacet
  facet normal 0.0 -0.0 -1.0
    outer loop
      vertex 2.7400706141107394 6.764237951246319 0.0
      vertex 3.2474280049774595 5.6062781684511265 0.0
      vertex 1.9599988925240177 5.703939982753004 0.0
    endloop
  endfacet
  facet normal 0.0 0.0 -1.0
    outer loop
      vertex 3.2474280049774595 5.6062781684511265 0.0
      vertex 4.042244670367842 6.621883246311864 0.0
      vertex 4.559708981272665 5.457589004198331 0.0
    endloop
  endfacet
  facet normal 0.0 0.0 -1.0
    outer loop
      vertex 4.559708981272665 5.457589004198331 0.0
      vertex 4.042244670367842 6.621883246311864 0.0
      vertex 5.31387637242989 6.5139238079092525 0.0
    endloop
  endfacet
  facet normal 0.0 0.0 -1.0
    outer loop
      vertex 4.042244670367842 6.621883246311864 0.0
      vertex 4.795870459823212 7.677158120246644 0.0
      vertex 5.31387637242989 6.5139238079092525 0.0
    endloop
  endfacet
  facet normal 0.0 0.0 -1.0
    outer loop
      vertex 3.2474280049774595 5.6062781684511265 0.0
      vertex 4.559708981272665 5.457589004198331 0.0
      vertex 3.8150922143692068 4.429020400221233 0.0
    endloop
  endfacet
  facet normal 0.0 -0.0 -1.0
    outer loop
      vertex 3.2474280049774595 5.6062781684511265 0.0
      vertex 3.8150922143692068 4.429020400221233 0.0
      vertex 2.5651447166547587 4.560069151563838 0.0
    endloop
  endfacet
  facet normal 0.0 0.0 -1.0
    outer loop
      vertex 1.9599988925240177 5.703939982753004 0.0
      vertex 3.2474280049774595 5.6062781684511265 0.0
      vertex 2.5651447166547587 4.560069151563838 0.0
    endloop
  endfacet
  facet normal 0.0 0.0 -1.0
    outer loop
      vertex 3.8150922143692068 4.429020400221233 0.0
      vertex 4.559708981272665 5.457589004198331 0.0
      vertex 5.084334234394319 4.295334062148641 0.0
    endloop
  endfacet
  facet normal 0.0 0.0 -1.0
    outer loop
      vertex 5.084334234394319 4.295334062148641 0.0
      vertex 4.559708981272665 5.457589004198331 0.0
      vertex 5.8300218091583895 5.319951605899366 0.0
    endloop
  endfacet
  facet normal 0.0 0.0 -1.0
    outer loop
      vertex 5.8300218091583895 5.319951605899366 0.0
      vertex 4.559708981272665 5.457589004198331 0.0
      vertex 5.31387637242989 6.5139238079092525 0.0
    endloop
  endfacet
  facet normal 0.0 0.0 -1.0
    outer loop
      vertex 3.8150922143692068 4.429020400221233 0.0
      vertex 5.084334234394319 4.295334062148641 0.0
      vertex 4.34328170336813 3.269985309392028 0.0
    endloop
  endfacet
  facet normal 0.0 -0.0 -1.0
    outer loop
      vertex 3.8150922143692068 4.429020400221233 0.0
      vertex 4.34328170336813 3.269985309392028 0.0
      vertex 3.1246454076744214 3.416418290045283 0.0
    endloop
  endfacet
  facet normal -0.0 0.0 -1.0
    outer loop
      vertex 3.8150922143692068 4.429020400221233 0.0
      vertex 3.1246454076744214 3.416418290045283 0.0
      vertex 2.5651447166547587 4.560069151563838 0.0
    endloop
  endfacet
  facet normal 0.0 0.0 -1.0
    outer loop
      vertex 5.084334234394319 4.295334062148641 0.0
      vertex 5.8300218091583895 5.319951605899366 0.0
      vertex 6.34537778546818 4.163615005094213 0.0
    endloop
  endfacet
  facet normal 0.0 0.0 -1.0
    outer loop
      vertex 5.084334234394319 4.295334062148641 0.0
      vertex 6.34537778546818 4.163615005094213 0.0
      vertex 5.605768674569878 3.1658103767001027 0.0
    endloop
  endfacet
  facet normal 0.0 0.0 -1.0
    outer loop
      vertex 4.34328170336813 3.269985309392028 0.0
      vertex 5.084334234394319 4.295334062148641 0.0
      vertex 5.605768674569878 3.1658103767001027 0.0
    endloop
  endfacet
  facet normal 0.0 0.0 -1.0
    outer loop
      vertex 6.34537778546818 4.163615005094213 0.0
      vertex 5.8300218091583895 5.319951605899366 0.0
      vertex 7.049533331667638 5.177607530973799 0.0
    endloop
  endfacet
  facet normal 0.0 0.0 -1.0
    outer loop
      vertex 7.049533331667638 5.177607530973799 0.0
      vertex 5.8300218091583895 5.319951605899366 0.0
      vertex 6.574327178795587 6.380256372898161 0.0
    endloop
  endfacet
  facet normal -0.0 0.0 -1.0
    outer loop
      vertex 6.574327178795587 6.380256372898161 0.0
      vertex 5.8300218091583895 5.319951605899366 0.0
      vertex 5.31387637242989 6.5139238079092525 0.0
    endloop
  endfacet
  facet normal 0.0 0.0 -1.0
    outer loop
      vertex 6.34537778546818 4.163615005094213 0.0
      vertex 7.049533331667638 5.177607530973799 0.0
      vertex 7.566772113371193 4.062631813806186 0.0
    endloop
  endfacet
  facet normal 0.0 0.0 -1.0
    outer loop
      vertex 6.34537778546818 4.163615005094213 0.0
      vertex 7.566772113371193 4.062631813806186 0.0
      vertex 6.861377904294032 3.0337431668336303 0.0
    endloop
  endfacet
  facet normal 0.0 -0.0 -1.0
    outer loop
      vertex 6.34537778546818 4.163615005094213 0.0
      vertex 6.861377904294032 3.0337431668336303 0.0
      vertex 5.605768674569878 3.1658103767001027 0.0
    endloop
  endfacet
  facet normal 0.0 0.0 -1.0
    outer loop
      vertex 3.1246454076744214 3.416418290045283 0.0
      vertex 4.34328170336813 3.269985309392028 0.0
      vertex 3.6091756135605744 2.2452257692931856 0.0
    endloop
  endfacet
  facet normal 0.0 0.0 -1.0
    outer loop
      vertex 4.34328170336813 3.269985309392028 0.0
      vertex 5.605768674569878 3.1658103767001027 0.0
      vertex 4.942462307843984 2.1458013302776253 0.0
    endloop
  endfacet
  facet normal 0.0 -0.0 -1.0
    outer loop
      vertex 4.34328170336813 3.269985309392028 0.0
      vertex 4.942462307843984 2.1458013302776253 0.0
      vertex 3.6091756135605744 2.2452257692931856 0.0
    endloop
  endfacet
  facet normal 0.0 -0.0 -1.0
    outer loop
      vertex 3.1246454076744214 3.416418290045283 0.0
      vertex 3.6091756135605744 2.2452257692931856 0.0
      vertex 2.288205497332172 2.3550489278079207 0.0
    endloop
  endfacet
  facet normal -0.0 0.0 -1.0
    outer loop
      vertex 3.1246454076744214 3.416418290045283 0.0
      vertex 2.288205497332172 2.3550489278079207 0.0
      vertex 2.067670523805022 3.6328178207548665 0.0
    endloop
  endfacet
  facet normal 0.0 -0.0 -1.0
    outer loop
      vertex 2.5651447166547587 4.560069151563838 0.0
      vertex 3.1246454076744214 3.416418290045283 0.0
      vertex 2.067670523805022 3.6328178207548665 0.0
    endloop
  endfacet
  facet normal 0.0 0.0 -1.0
    outer loop
      vertex 7.049533331667638 5.177607530973799 0.0
      vertex 6.574327178795587 6.380256372898161 0.0
      vertex 7.784415216866539 6.090917112750516 0.0
    endloop
  endfacet
  facet normal 0.0 0.0 -1.0
    outer loop
      vertex 7.566772113371193 4.062631813806186 0.0
      vertex 7.049533331667638 5.177607530973799 0.0
      vertex 8.034573619248723 5.031909433128437 0.0
    endloop
  endfacet
  facet normal 0.0 0.0 -1.0
    outer loop
      vertex 7.049533331667638 5.177607530973799 0.0
      vertex 7.784415216866539 6.090917112750516 0.0
      vertex 8.034573619248723 5.031909433128437 0.0
    endloop
  endfacet
  facet normal 0.0 0.0 -1.0
    outer loop
      vertex 7.784415216866539 6.090917112750516 0.0
      vertex 6.574327178795587 6.380256372898161 0.0
      vertex 7.323350987610583 7.358552615525575 0.0
    endloop
  endfacet
  facet normal -0.0 0.0 -1.0
    outer loop
      vertex 7.323350987610583 7.358552615525575 0.0
      vertex 6.574327178795587 6.380256372898161 0.0
      vertex 6.081085135161634 7.62670449790115 0.0
    endloop
  endfacet
  facet normal 0.0 -0.0 -1.0
    outer loop
      vertex 6.081085135161634 7.62670449790115 0.0
      vertex 6.574327178795587 6.380256372898161 0.0
      vertex 5.31387637242989 6.5139238079092525 0.0
    endloop
  endfacet
  facet normal 0.0 0.0 -1.0
    outer loop
      vertex 4.795870459823212 7.677158120246644 0.0
      vertex 6.081085135161634 7.62670449790115 0.0
      vertex 5.31387637242989 6.5139238079092525 0.0
    endloop
  endfacet
  facet normal 0.0 0.0 -1.0
    outer loop
      vertex 6.861377904294032 3.0337431668336303 0.0
      vertex 7.566772113371193 4.062631813806186 0.0
      vertex 8.12318660052991 2.972908992322771 0.0
    endloop
  endfacet
  facet normal 0.0 0.0 -1.0
    outer loop
      vertex 6.861377904294032 3.0337431668336303 0.0
      vertex 8.12318660052991 2.972908992322771 0.0
      vertex 7.500146422611725 2.0082894313757946 0.0
    endloop
  endfacet
  facet normal 0.0 0.0 -1.0
    outer loop
      vertex 5.605768674569878 3.1658103767001027 0.0
      vertex 6.861377904294032 3.0337431668336303 0.0
      vertex 6.170948262180153 2.098105591486031 0.0
    endloop
  endfacet
  facet normal 0.0 0.0 -1.0
    outer loop
      vertex 6.170948262180153 2.098105591486031 0.0
      vertex 6.861377904294032 3.0337431668336303 0.0
      vertex 7.500146422611725 2.0082894313757946 0.0
    endloop
  endfacet
  facet normal 0.0 -0.0 -1.0
    outer loop
      vertex 8.12318660052991 2.972908992322771 0.0
      vertex 8.916039453066213 1.923786137570579 0.0
      vertex 7.500146422611725 2.0082894313757946 0.0
    endloop
  endfacet
  facet normal 0.0 0.0 -1.0
    outer loop
      vertex 8.916039453066213 1.923786137570579 0.0
      vertex 8.12318660052991 2.972908992322771 0.0
      vertex 9.176215738793733 3.070017167601008 0.0
    endloop
  endfacet
  facet normal 0.0 0.0 -1.0
    outer loop
      vertex 7.784415216866539 6.090917112750516 0.0
      vertex 8.9302947939657 5.624999999999992 0.0
      vertex 8.034573619248723 5.031909433128437 0.0
    endloop
  endfacet
  facet normal 0.0 -0.0 -1.0
    outer loop
      vertex 6.953333031199334 8.705983976176285 0.0
      vertex 7.323350987610583 7.358552615525575 0.0
      vertex 6.081085135161634 7.62670449790115 0.0
    endloop
  endfacet
  facet normal 0.0 0.0 -1.0
    outer loop
      vertex 7.323350987610583 7.358552615525575 0.0
      vertex 6.953333031199334 8.705983976176285 0.0
      vertex 8.026475566049326 8.040063348194746 0.0
    endloop
  endfacet
  facet normal 0.0 0.0 -1.0
    outer loop
      vertex 2.288205497332172 2.3550489278079207 0.0
      vertex 1.1080799736251212 3.1510743855436965 0.0
      vertex 2.067670523805022 3.6328178207548665 0.0
    endloop
  endfacet
  facet normal 0.0 0.0 -1.0
    outer loop
      vertex 4.942462307843984 2.1458013302776253 0.0
      vertex 5.605768674569878 3.1658103767001027 0.0
      vertex 6.170948262180153 2.098105591486031 0.0
    endloop
  endfacet
  facet normal 0.0 0.0 -1.0
    outer loop
      vertex 3.6091756135605744 2.2452257692931856 0.0
      vertex 4.942462307843984 2.1458013302776253 0.0
      vertex 4.375000000000008 1.0220554060897478 0.0
    endloop
  endfacet
  facet normal 0.0 0.0 -1.0
    outer loop
      vertex 6.827794824927866 1.0349114757737479 0.0
      vertex 6.170948262180153 2.098105591486031 0.0
      vertex 7.500146422611725 2.0082894313757946 0.0
    endloop
  endfacet
endsolid abc_micro_003
