solid abc_micro_004
  facet normal 1.0 0.0 0.0
    outer loop
      vertex 10.0 3.1194690265486713 0.0
      vertex 10.0 4.159292035398229 0.0
      vertex 10.0 4.159292035398229 0.22123893805309733
    endloop
  endfacet
  facet normal 1.0 0.0 0.0
    outer loop
      vertex 10.0 0.0 0.22123893805309733
      vertex 10.0 0.0 0.0
      vertex 10.0 1.039823008849556 0.0
    endloop
  endfacet
  facet normal 1.0 -0.0 0.0
    outer loop
      vertex 10.0 3.1194690265486713 0.22123893805309733
      vertex 10.0 3.1194690265486713 0.0
      vertex 10.0 4.159292035398229 0.22123893805309733
    endloop
  endfacet
  facet normal 1.0 0.0 -0.0
    outer loop
      vertex 10.0 1.039823008849556 0.0
      vertex 10.0 1.039823008849556 0.22123893805309733
      vertex 10.0 0.0 0.22123893805309733
    endloop
  endfacet
  facet normal 1.0 0.0 0.0
    outer loop
      vertex 10.0 2.079646017699113 0.0
      vertex 10.0 3.1194690265486713 0.0
      vertex 10.0 3.1194690265486713 0.22123893805309733
    endloop
  endfacet
  facet normal 1.0 0.0 0.0
    outer loop
      vertex 10.0 1.039823008849556 0.0
      vertex 10.0 2.079646017699113 0.0
      vertex 10.0 2.079646017699113 0.22123893805309733
    endloop
  endfacet
  facet normal 1.0 -0.0 0.0
    outer loop
      vertex 10.0 2.079646017699113 0.22123893805309733
      vertex 10.0 2.079646017699113 0.0
      vertex 10.0 3.1194690265486713 0.22123893805309733
    endloop
  endfacet
  facet normal 1.0 0.0 0.0
    outer loop
      vertex 10.0 2.079646017699113 0.22123893805309733
      vertex 10.0 1.039823008849556 0.22123893805309733
      vertex 10.0 1.039823008849556 0.0
    endloop
  endfacet
  facet normal 0.0 0.0 1.0
    outer loop
      vertex 10.0 4.159292035398229 0.22123893805309733
      vertex 9.25367230560426 3.40248666317159 0.22123893805309733
      vertex 10.0 3.1194690265486713 0.22123893805309733
    endloop
  endfacet
  facet normal -0.0 0.0 1.0
    outer loop
      vertex 8.999999999999998 4.159292035398229 0.22123893805309733
      vertex 9.25367230560426 3.40248666317159 0.22123893805309733
      vertex 10.0 4.159292035398229 0.22123893805309733
    endloop
  endfacet
  facet normal 0.0 0.0 1.0
    outer loop
      vertex 10.0 1.039823008849556 0.22123893805309733
      vertex 9.242474857134193 0.7675739822446616 0.22123893805309733
      vertex 10.0 0.0 0.22123893805309733
    endloop
  endfacet
  facet normal 0.0 0.0 1.0
    outer loop
      vertex 10.0 0.0 0.22123893805309733
      vertex 9.242474857134193 0.7675739822446616 0.22123893805309733
      vertex 8.999999999999998 0.0 0.22123893805309733
    endloop
  endfacet
  facet normal -0.0 0.0 1.0
    outer loop
      vertex 0.0 4.159292035398229 0.22123893805309733
      vertex 0.7575251428658079 3.3917180531535664 0.22123893805309733
      vertex 0.9999999999999982 4.159292035398229 0.22123893805309733
    endloop
  endfacet
  facet normal 0.0 0.0 1.0
    outer loop
      vertex 0.0 3.1194690265486713 0.22123893805309733
      vertex 0.7575251428658079 3.3917180531535664 0.22123893805309733
      vertex 0.0 4.159292035398229 0.22123893805309733
    endloop
  endfacet
  facet normal 0.0 0.0 1.0
    outer loop
      vertex 0.0 0.0 0.22123893805309733
      vertex 0.7463276943957389 0.7568053722266389 0.22123893805309733
      vertex 0.0 1.039823008849556 0.22123893805309733
    endloop
  endfacet
  facet normal 0.0 0.0 1.0
    outer loop
      vertex 0.9999999999999982 0.0 0.22123893805309733
      vertex 0.7463276943957389 0.7568053722266389 0.22123893805309733
      vertex 0.0 0.0 0.22123893805309733
    endloop
  endfacet
  facet normal 0.0 0.0 1.0
    outer loop
      vertex 10.0 3.1194690265486713 0.22123893805309733
      vertex 9.175706170618927 2.6003031469455653 0.22123893805309733
      vertex 10.0 2.079646017699113 0.22123893805309733
    endloop
  endfacet
  facet normal 0.0 0.0 1.0
    outer loop
      vertex 10.0 3.1194690265486713 0.22123893805309733
      vertex 9.25367230560426 3.40248666317159 0.22123893805309733
      vertex 9.175706170618927 2.6003031469455653 0.22123893805309733
    endloop
  endfacet
  facet normal 0.0 0.0 1.0
    outer loop
      vertex 10.0 2.079646017699113 0.22123893805309733
      vertex 9.12754362431942 1.6042995448440591 0.22123893805309733
      vertex 10.0 1.039823008849556 0.22123893805309733
    endloop
  endfacet
  facet normal 0.0 0.0 1.0
    outer loop
      vertex 10.0 2.079646017699113 0.22123893805309733
      vertex 9.175706170618927 2.6003031469455653 0.22123893805309733
      vertex 9.12754362431942 1.6042995448440591 0.22123893805309733
    endloop
  endfacet
  facet normal 0.0 0.0 1.0
    outer loop
      vertex 9.12754362431942 1.6042995448440591 0.22123893805309733
      vertex 9.242474857134193 0.7675739822446616 0.22123893805309733
      vertex 10.0 1.039823008849556 0.22123893805309733
    endloop
  endfacet
  facet normal -0.0 0.0 1.0
    outer loop
      vertex 0.9999999999999982 4.159292035398229 0.22123893805309733
      vertex 1.6465100901550023 3.1880228051293535 0.22123893805309733
      vertex 1.999999999999997 4.159292035398229 0.22123893805309733
    endloop
  endfacet
  facet normal 0.0 0.0 1.0
    outer loop
      vertex 0.9999999999999982 4.159292035398229 0.22123893805309733
      vertex 0.7575251428658079 3.3917180531535664 0.22123893805309733
      vertex 1.6465100901550023 3.1880228051293535 0.22123893805309733
    endloop
  endfacet
  facet normal -0.0 0.0 1.0
    outer loop
      vertex 1.999999999999997 4.159292035398229 0.22123893805309733
      vertex 2.5546494248601292 3.4538287682014412 0.22123893805309733
      vertex 2.9999999999999964 4.159292035398229 0.22123893805309733
    endloop
  endfacet
  facet normal 0.0 0.0 1.0
    outer loop
      vertex 1.6465100901550023 3.1880228051293535 0.22123893805309733
      vertex 2.5546494248601292 3.4538287682014412 0.22123893805309733
      vertex 1.999999999999997 4.159292035398229 0.22123893805309733
    endloop
  endfacet
  facet normal -0.0 0.0 1.0
    outer loop
      vertex 2.9999999999999964 4.159292035398229 0.22123893805309733
      vertex 3.499999999999997 3.293266631613792 0.22123893805309733
      vertex 3.999999999999997 4.159292035398229 0.22123893805309733
    endloop
  endfacet
  facet normal 0.0 0.0 1.0
    outer loop
      vertex 2.9999999999999964 4.159292035398229 0.22123893805309733
      vertex 2.5546494248601292 3.4538287682014412 0.22123893805309733
      vertex 3.499999999999997 3.293266631613792 0.22123893805309733
    endloop
  endfacet
  facet normal -0.0 0.0 1.0
    outer loop
      vertex 3.999999999999997 4.159292035398229 0.22123893805309733
      vertex 4.4999999999999964 3.500804711066789 0.22123893805309733
      vertex 4.999999999999995 4.159292035398229 0.22123893805309733
    endloop
  endfacet
  facet normal 0.0 0.0 1.0
    outer loop
      vertex 3.499999999999997 3.293266631613792 0.22123893805309733
      vertex 4.4999999999999964 3.500804711066789 0.22123893805309733
      vertex 3.999999999999997 4.159292035398229 0.22123893805309733
    endloop
  endfacet
  facet normal -0.0 0.0 1.0
    outer loop
      vertex 4.999999999999995 4.159292035398229 0.22123893805309733
      vertex 5.499999999999998 3.2932666316137906 0.22123893805309733
      vertex 5.999999999999999 4.159292035398229 0.22123893805309733
    endloop
  endfacet
  facet normal 0.0 0.0 1.0
    outer loop
      vertex 4.999999999999995 4.159292035398229 0.22123893805309733
      vertex 4.4999999999999964 3.500804711066789 0.22123893805309733
      vertex 5.499999999999998 3.2932666316137906 0.22123893805309733
    endloop
  endfacet
  facet normal -0.0 0.0 1.0
    outer loop
      vertex 5.999999999999999 4.159292035398229 0.22123893805309733
      vertex 6.499999999999999 3.3798349479368586 0.22123893805309733
      vertex 6.999999999999999 4.159292035398229 0.22123893805309733
    endloop
  endfacet
  facet normal 0.0 0.0 1.0
    outer loop
      vertex 5.499999999999998 3.2932666316137906 0.22123893805309733
      vertex 6.499999999999999 3.3798349479368586 0.22123893805309733
      vertex 5.999999999999999 4.159292035398229 0.22123893805309733
    endloop
  endfacet
  facet normal -0.0 0.0 1.0
    outer loop
      vertex 6.999999999999999 4.159292035398229 0.22123893805309733
      vertex 7.380801593457423 3.336340860215474 0.22123893805309733
      vertex 7.999999999999998 4.159292035398229 0.22123893805309733
    endloop
  endfacet
  facet normal 0.0 0.0 1.0
    outer loop
      vertex 6.999999999999999 4.159292035398229 0.22123893805309733
      vertex 6.499999999999999 3.3798349479368586 0.22123893805309733
      vertex 7.380801593457423 3.336340860215474 0.22123893805309733
    endloop
  endfacet
  facet normal -0.0 0.0 1.0
    outer loop
      vertex 7.999999999999998 4.159292035398229 0.22123893805309733
      vertex 8.404565177160597 3.220714813126133 0.22123893805309733
      vertex 8.999999999999998 4.159292035398229 0.22123893805309733
    endloop
  endfacet
  facet normal -0.0 0.0 1.0
    outer loop
      vertex 7.380801593457423 3.336340860215474 0.22123893805309733
      vertex 8.404565177160597 3.220714813126133 0.22123893805309733
      vertex 7.999999999999998 4.159292035398229 0.22123893805309733
    endloop
  endfacet
  facet normal 0.0 0.0 1.0
    outer loop
      vertex 8.404565177160597 3.220714813126133 0.22123893805309733
      vertex 9.25367230560426 3.40248666317159 0.22123893805309733
      vertex 8.999999999999998 4.159292035398229 0.22123893805309733
    endloop
  endfacet
  facet normal 0.0 0.0 1.0
    outer loop
      vertex 0.0 2.079646017699113 0.22123893805309733
      vertex 0.8724563756805789 2.5549924905541683 0.22123893805309733
      vertex 0.0 3.1194690265486713 0.22123893805309733
    endloop
  endfacet
  facet normal 0.0 0.0 1.0
    outer loop
      vertex 0.8724563756805789 2.5549924905541683 0.22123893805309733
      vertex 0.7575251428658079 3.3917180531535664 0.22123893805309733
      vertex 0.0 3.1194690265486713 0.22123893805309733
    endloop
  endfacet
  facet normal 0.0 0.0 1.0
    outer loop
      vertex 0.0 1.039823008849556 0.22123893805309733
      vertex 0.8242938293810729 1.5589888884526606 0.22123893805309733
      vertex 0.0 2.079646017699113 0.22123893805309733
    endloop
  endfacet
  facet normal -0.0 0.0 1.0
    outer loop
      vertex 0.0 2.079646017699113 0.22123893805309733
      vertex 0.8242938293810729 1.5589888884526606 0.22123893805309733
      vertex 0.8724563756805789 2.5549924905541683 0.22123893805309733
    endloop
  endfacet
  facet normal -0.0 0.0 1.0
    outer loop
      vertex 0.0 1.039823008849556 0.22123893805309733
      vertex 0.7463276943957389 0.7568053722266389 0.22123893805309733
      vertex 0.8242938293810729 1.5589888884526606 0.22123893805309733
    endloop
  endfacet
  facet normal 0.0 0.0 1.0
    outer loop
      vertex 1.999999999999997 0.0 0.22123893805309733
      vertex 1.5823399004463785 0.9618506804142439 0.22123893805309733
      vertex 0.9999999999999982 0.0 0.22123893805309733
    endloop
  endfacet
  facet normal 0.0 0.0 1.0
    outer loop
      vertex 1.5823399004463785 0.9618506804142439 0.22123893805309733
      vertex 0.7463276943957389 0.7568053722266389 0.22123893805309733
      vertex 0.9999999999999982 0.0 0.22123893805309733
    endloop
  endfacet
  facet normal 0.0 0.0 1.0
    outer loop
      vertex 2.9999999999999964 0.0 0.22123893805309733
      vertex 2.554675051343577 0.825675328515958 0.22123893805309733
      vertex 1.999999999999997 0.0 0.22123893805309733
    endloop
  endfacet
  facet normal 0.0 0.0 1.0
    outer loop
      vertex 2.554675051343577 0.825675328515958 0.22123893805309733
      vertex 1.5823399004463785 0.9618506804142439 0.22123893805309733
      vertex 1.999999999999997 0.0 0.22123893805309733
    endloop
  endfacet
  facet normal 0.0 0.0 1.0
    outer loop
      vertex 3.999999999999997 0.0 0.22123893805309733
      vertex 3.5093558713605932 0.8452744791851784 0.22123893805309733
      vertex 2.9999999999999964 0.0 0.22123893805309733
    endloop
  endfacet
  facet normal 0.0 -0.0 1.0
    outer loop
      vertex 2.9999999999999964 0.0 0.22123893805309733
      vertex 3.5093558713605932 0.8452744791851784 0.22123893805309733
      vertex 2.554675051343577 0.825675328515958 0.22123893805309733
    endloop
  endfacet
  facet normal 0.0 0.0 1.0
    outer loop
      vertex 4.999999999999995 0.0 0.22123893805309733
      vertex 4.4999999999999964 0.8660254037844384 0.22123893805309733
      vertex 3.999999999999997 0.0 0.22123893805309733
    endloop
  endfacet
  facet normal 0.0 0.0 1.0
    outer loop
      vertex 4.4999999999999964 0.8660254037844384 0.22123893805309733
      vertex 3.5093558713605932 0.8452744791851784 0.22123893805309733
      vertex 3.999999999999997 0.0 0.22123893805309733
    endloop
  endfacet
  facet normal 0.0 0.0 1.0
    outer loop
      vertex 5.999999999999999 0.0 0.22123893805309733
      vertex 5.507424697271091 0.8577846709088967 0.22123893805309733
      vertex 4.999999999999995 0.0 0.22123893805309733
    endloop
  endfacet
  facet normal 0.0 -0.0 1.0
    outer loop
      vertex 4.999999999999995 0.0 0.22123893805309733
      vertex 5.507424697271091 0.8577846709088967 0.22123893805309733
      vertex 4.4999999999999964 0.8660254037844384 0.22123893805309733
    endloop
  endfacet
  facet normal 0.0 0.0 1.0
    outer loop
      vertex 6.999999999999999 0.0 0.22123893805309733
      vertex 6.544548183626563 0.8165810065311849 0.22123893805309733
      vertex 5.999999999999999 0.0 0.22123893805309733
    endloop
  endfacet
  facet normal 0.0 0.0 1.0
    outer loop
      vertex 6.544548183626563 0.8165810065311849 0.22123893805309733
      vertex 5.507424697271091 0.8577846709088967 0.22123893805309733
      vertex 5.999999999999999 0.0 0.22123893805309733
    endloop
  endfacet
  facet normal 0.0 0.0 1.0
    outer loop
      vertex 7.999999999999998 0.0 0.22123893805309733
      vertex 7.434866190444663 0.6817332966887308 0.22123893805309733
      vertex 6.999999999999999 0.0 0.22123893805309733
    endloop
  endfacet
  facet normal 0.0 -0.0 1.0
    outer loop
      vertex 6.999999999999999 0.0 0.22123893805309733
      vertex 7.434866190444663 0.6817332966887308 0.22123893805309733
      vertex 6.544548183626563 0.8165810065311849 0.22123893805309733
    endloop
  endfacet
  facet normal 0.0 0.0 1.0
    outer loop
      vertex 8.999999999999998 0.0 0.22123893805309733
      vertex 8.349759493899938 0.9690780265469261 0.22123893805309733
      vertex 7.999999999999998 0.0 0.22123893805309733
    endloop
  endfacet
  facet normal 0.0 0.0 1.0
    outer loop
      vertex 8.349759493899938 0.9690780265469261 0.22123893805309733
      vertex 7.434866190444663 0.6817332966887308 0.22123893805309733
      vertex 7.999999999999998 0.0 0.22123893805309733
    endloop
  endfacet
  facet normal 0.0 -0.0 1.0
    outer loop
      vertex 8.999999999999998 0.0 0.22123893805309733
      vertex 9.242474857134193 0.7675739822446616 0.22123893805309733
      vertex 8.349759493899938 0.9690780265469261 0.22123893805309733
    endloop
  endfacet
  facet normal 0.0 0.0 1.0
    outer loop
      vertex 3.5093558713605932 0.8452744791851784 0.22123893805309733
      vertex 3.0762728568001414 1.6457124580799034 0.22123893805309733
      vertex 2.554675051343577 0.825675328515958 0.22123893805309733
    endloop
  endfacet
  facet normal 0.0 0.0 1.0
    outer loop
      vertex 3.0762728568001414 1.6457124580799034 0.22123893805309733
      vertex 2.288204513706257 1.5577943952658124 0.22123893805309733
      vertex 2.554675051343577 0.825675328515958 0.22123893805309733
    endloop
  endfacet
  facet normal 0.0 0.0 1.0
    outer loop
      vertex 2.554675051343577 0.825675328515958 0.22123893805309733
      vertex 2.288204513706257 1.5577943952658124 0.22123893805309733
      vertex 1.5823399004463785 0.9618506804142439 0.22123893805309733
    endloop
  endfacet
  facet normal 0.0 0.0 1.0
    outer loop
      vertex 7.380801593457423 3.336340860215474 0.22123893805309733
      vertex 6.499999999999999 3.3798349479368586 0.22123893805309733
      vertex 6.769537338498474 2.493887447038007 0.22123893805309733
    endloop
  endfacet
  facet normal 0.0 0.0 1.0
    outer loop
      vertex 6.769537338498474 2.493887447038007 0.22123893805309733
      vertex 7.555118016601289 2.5094670838106676 0.22123893805309733
      vertex 7.380801593457423 3.336340860215474 0.22123893805309733
    endloop
  endfacet
  facet normal 0.0 0.0 1.0
    outer loop
      vertex 7.380801593457423 3.336340860215474 0.22123893805309733
      vertex 7.555118016601289 2.5094670838106676 0.22123893805309733
      vertex 8.404565177160597 3.220714813126133 0.22123893805309733
    endloop
  endfacet
  facet normal 0.0 0.0 1.0
    outer loop
      vertex 5.507424697271091 0.8577846709088967 0.22123893805309733
      vertex 5.0012374495451795 1.7032351378068338 0.22123893805309733
      vertex 4.4999999999999964 0.8660254037844384 0.22123893805309733
    endloop
  endfacet
  facet normal 0.0 0.0 1.0
    outer loop
      vertex 5.0012374495451795 1.7032351378068338 0.22123893805309733
      vertex 4.001460176819997 1.6927343944525535 0.22123893805309733
      vertex 4.4999999999999964 0.8660254037844384 0.22123893805309733
    endloop
  endfacet
  facet normal 0.0 0.0 1.0
    outer loop
      vertex 4.001460176819997 1.6927343944525535 0.22123893805309733
      vertex 3.5093558713605932 0.8452744791851784 0.22123893805309733
      vertex 4.4999999999999964 0.8660254037844384 0.22123893805309733
    endloop
  endfacet
  facet normal 0.0 0.0 1.0
    outer loop
      vertex 3.499999999999997 3.293266631613792 0.22123893805309733
      vertex 2.5546494248601292 3.4538287682014412 0.22123893805309733
      vertex 2.5964179161956054 2.5177936993883376 0.22123893805309733
    endloop
  endfacet
  facet normal -0.0 0.0 1.0
    outer loop
      vertex 2.5964179161956054 2.5177936993883376 0.22123893805309733
      vertex 3.5270283103664815 2.374059758312521 0.22123893805309733
      vertex 3.499999999999997 3.293266631613792 0.22123893805309733
    endloop
  endfacet
  facet normal 0.0 -0.0 1.0
    outer loop
      vertex 4.4999999999999964 2.5989062213099037 0.22123893805309733
      vertex 4.4999999999999964 3.500804711066789 0.22123893805309733
      vertex 3.499999999999997 3.293266631613792 0.22123893805309733
    endloop
  endfacet
  facet normal 0.0 0.0 1.0
    outer loop
      vertex 3.499999999999997 3.293266631613792 0.22123893805309733
      vertex 3.5270283103664815 2.374059758312521 0.22123893805309733
      vertex 4.4999999999999964 2.5989062213099037 0.22123893805309733
    endloop
  endfacet
  facet normal 0.0 0.0 1.0
    outer loop
      vertex 7.280023274696812 1.6230074503655405 0.22123893805309733
      vertex 6.103177405464336 1.8153110810351316 0.22123893805309733
      vertex 6.544548183626563 0.8165810065311849 0.22123893805309733
    endloop
  endfacet
  facet normal -0.0 0.0 1.0
    outer loop
      vertex 6.544548183626563 0.8165810065311849 0.22123893805309733
      vertex 7.434866190444663 0.6817332966887308 0.22123893805309733
      vertex 7.280023274696812 1.6230074503655405 0.22123893805309733
    endloop
  endfacet
  facet normal 0.0 0.0 1.0
    outer loop
      vertex 6.544548183626563 0.8165810065311849 0.22123893805309733
      vertex 6.103177405464336 1.8153110810351316 0.22123893805309733
      vertex 5.507424697271091 0.8577846709088967 0.22123893805309733
    endloop
  endfacet
  facet normal 0.0 0.0 1.0
    outer loop
      vertex 5.499999999999998 3.2932666316137906 0.22123893805309733
      vertex 4.4999999999999964 3.500804711066789 0.22123893805309733
      vertex 4.4999999999999964 2.5989062213099037 0.22123893805309733
    endloop
  endfacet
  facet normal -0.0 0.0 1.0
    outer loop
      vertex 4.4999999999999964 2.5989062213099037 0.22123893805309733
      vertex 5.444777149924349 2.43816160213222 0.22123893805309733
      vertex 5.499999999999998 3.2932666316137906 0.22123893805309733
    endloop
  endfacet
  facet normal -0.0 0.0 1.0
    outer loop
      vertex 5.499999999999998 3.2932666316137906 0.22123893805309733
      vertex 6.0909134885740706 2.7311110833116445 0.22123893805309733
      vertex 6.499999999999999 3.3798349479368586 0.22123893805309733
    endloop
  endfacet
  facet normal 0.0 0.0 1.0
    outer loop
      vertex 5.444777149924349 2.43816160213222 0.22123893805309733
      vertex 6.0909134885740706 2.7311110833116445 0.22123893805309733
      vertex 5.499999999999998 3.2932666316137906 0.22123893805309733
    endloop
  endfacet
  facet normal 0.0 0.0 1.0
    outer loop
      vertex 0.8242938293810729 1.5589888884526606 0.22123893805309733
      vertex 1.6628782142980123 2.033690778438634 0.22123893805309733
      vertex 0.8724563756805789 2.5549924905541683 0.22123893805309733
    endloop
  endfacet
  facet normal 0.0 0.0 1.0
    outer loop
      vertex 1.6628782142980123 2.033690778438634 0.22123893805309733
      vertex 1.6465100901550023 3.1880228051293535 0.22123893805309733
      vertex 0.8724563756805789 2.5549924905541683 0.22123893805309733
    endloop
  endfacet
  facet normal 0.0 0.0 1.0
    outer loop
      vertex 1.6465100901550023 3.1880228051293535 0.22123893805309733
      vertex 0.7575251428658079 3.3917180531535664 0.22123893805309733
      vertex 0.8724563756805789 2.5549924905541683 0.22123893805309733
    endloop
  endfacet
  facet normal 0.0 0.0 1.0
    outer loop
      vertex 9.175706170618927 2.6003031469455653 0.22123893805309733
      vertex 8.311008874086578 2.1102628309059672 0.22123893805309733
      vertex 9.12754362431942 1.6042995448440591 0.22123893805309733
    endloop
  endfacet
  facet normal 0.0 0.0 1.0
    outer loop
      vertex 8.311008874086578 2.1102628309059672 0.22123893805309733
      vertex 8.349759493899938 0.9690780265469261 0.22123893805309733
      vertex 9.12754362431942 1.6042995448440591 0.22123893805309733
    endloop
  endfacet
  facet normal -0.0 0.0 1.0
    outer loop
      vertex 8.349759493899938 0.9690780265469261 0.22123893805309733
      vertex 9.242474857134193 0.7675739822446616 0.22123893805309733
      vertex 9.12754362431942 1.6042995448440591 0.22123893805309733
    endloop
  endfacet
  facet normal -0.0 0.0 1.0
    outer loop
      vertex 0.8242938293810729 1.5589888884526606 0.22123893805309733
      vertex 1.5823399004463785 0.9618506804142439 0.22123893805309733
      vertex 1.6628782142980123 2.033690778438634 0.22123893805309733
    endloop
  endfacet
  facet normal 0.0 0.0 1.0
    outer loop
      vertex 0.8242938293810729 1.5589888884526606 0.22123893805309733
      vertex 0.7463276943957389 0.7568053722266389 0.22123893805309733
      vertex 1.5823399004463785 0.9618506804142439 0.22123893805309733
    endloop
  endfacet
  facet normal 0.0 -0.0 1.0
    outer loop
      vertex 1.6628782142980123 2.033690778438634 0.22123893805309733
      vertex 2.5964179161956054 2.5177936993883376 0.22123893805309733
      vertex 1.6465100901550023 3.1880228051293535 0.22123893805309733
    endloop
  endfacet
  facet normal -0.0 0.0 1.0
    outer loop
      vertex 1.6628782142980123 2.033690778438634 0.22123893805309733
      vertex 2.288204513706257 1.5577943952658124 0.22123893805309733
      vertex 2.5964179161956054 2.5177936993883376 0.22123893805309733
    endloop
  endfacet
  facet normal 0.0 0.0 1.0
    outer loop
      vertex 1.5823399004463785 0.9618506804142439 0.22123893805309733
      vertex 2.288204513706257 1.5577943952658124 0.22123893805309733
      vertex 1.6628782142980123 2.033690778438634 0.22123893805309733
    endloop
  endfacet
  facet normal 0.0 0.0 1.0
    outer loop
      vertex 2.5964179161956054 2.5177936993883376 0.22123893805309733
      vertex 2.5546494248601292 3.4538287682014412 0.22123893805309733
      vertex 1.6465100901550023 3.1880228051293535 0.22123893805309733
    endloop
  endfacet
  facet normal 0.0 -0.0 1.0
    outer loop
      vertex 3.0762728568001414 1.6457124580799034 0.22123893805309733
      vertex 3.5270283103664815 2.374059758312521 0.22123893805309733
      vertex 2.5964179161956054 2.5177936993883376 0.22123893805309733
    endloop
  endfacet
  facet normal 0.0 0.0 1.0
    outer loop
      vertex 2.5964179161956054 2.5177936993883376 0.22123893805309733
      vertex 2.288204513706257 1.5577943952658124 0.22123893805309733
      vertex 3.0762728568001414 1.6457124580799034 0.22123893805309733
    endloop
  endfacet
  facet normal 0.0 0.0 1.0
    outer loop
      vertex 9.175706170618927 2.6003031469455653 0.22123893805309733
      vertex 8.404565177160597 3.220714813126133 0.22123893805309733
      vertex 8.311008874086578 2.1102628309059672 0.22123893805309733
    endloop
  endfacet
  facet normal 0.0 -0.0 1.0
    outer loop
      vertex 9.175706170618927 2.6003031469455653 0.22123893805309733
      vertex 9.25367230560426 3.40248666317159 0.22123893805309733
      vertex 8.404565177160597 3.220714813126133 0.22123893805309733
    endloop
  endfacet
  facet normal 0.0 0.0 1.0
    outer loop
      vertex 8.311008874086578 2.1102628309059672 0.22123893805309733
      vertex 7.280023274696812 1.6230074503655405 0.22123893805309733
      vertex 8.349759493899938 0.9690780265469261 0.22123893805309733
    endloop
  endfacet
  facet normal 0.0 0.0 1.0
    outer loop
      vertex 8.311008874086578 2.1102628309059672 0.22123893805309733
      vertex 7.555118016601289 2.5094670838106676 0.22123893805309733
      vertex 7.280023274696812 1.6230074503655405 0.22123893805309733
    endloop
  endfacet
  facet normal 0.0 0.0 1.0
    outer loop
      vertex 8.404565177160597 3.220714813126133 0.22123893805309733
      vertex 7.555118016601289 2.5094670838106676 0.22123893805309733
      vertex 8.311008874086578 2.1102628309059672 0.22123893805309733
    endloop
  endfacet
  facet normal 0.0 0.0 1.0
    outer loop
      vertex 7.280023274696812 1.6230074503655405 0.22123893805309733
      vertex 7.434866190444663 0.6817332966887308 0.22123893805309733
      vertex 8.349759493899938 0.9690780265469261 0.22123893805309733
    endloop
  endfacet
  facet normal 0.0 0.0 1.0
    outer loop
      vertex 7.280023274696812 1.6230074503655405 0.22123893805309733
      vertex 6.769537338498474 2.493887447038007 0.22123893805309733
      vertex 6.103177405464336 1.8153110810351316 0.22123893805309733
    endloop
  endfacet
  facet normal 0.0 -0.0 1.0
    outer loop
      vertex 7.280023274696812 1.6230074503655405 0.22123893805309733
      vertex 7.555118016601289 2.5094670838106676 0.22123893805309733
      vertex 6.769537338498474 2.493887447038007 0.22123893805309733
    endloop
  endfacet
  facet normal 0.0 -0.0 1.0
    outer loop
      vertex 5.507424697271091 0.8577846709088967 0.22123893805309733
      vertex 6.103177405464336 1.8153110810351316 0.22123893805309733
      vertex 5.0012374495451795 1.7032351378068338 0.22123893805309733
    endloop
  endfacet
  facet normal 0.0 0.0 1.0
    outer loop
      vertex 5.0012374495451795 1.7032351378068338 0.22123893805309733
      vertex 4.4999999999999964 2.5989062213099037 0.22123893805309733
      vertex 4.001460176819997 1.6927343944525535 0.22123893805309733
    endloop
  endfacet
  facet normal 0.0 -0.0 1.0
    outer loop
      vertex 5.0012374495451795 1.7032351378068338 0.22123893805309733
      vertex 5.444777149924349 2.43816160213222 0.22123893805309733
      vertex 4.4999999999999964 2.5989062213099037 0.22123893805309733
    endloop
  endfacet
  facet normal 0.0 0.0 1.0
    outer loop
      vertex 6.103177405464336 1.8153110810351316 0.22123893805309733
      vertex 5.444777149924349 2.43816160213222 0.22123893805309733
      vertex 5.0012374495451795 1.7032351378068338 0.22123893805309733
    endloop
  endfacet
  facet normal 0.0 0.0 1.0
    outer loop
      vertex 4.4999999999999964 2.5989062213099037 0.22123893805309733
      vertex 3.5270283103664815 2.374059758312521 0.22123893805309733
      vertex 4.001460176819997 1.6927343944525535 0.22123893805309733
    endloop
  endfacet
  facet normal 0.0 0.0 1.0
    outer loop
      vertex 4.001460176819997 1.6927343944525535 0.22123893805309733
      vertex 3.0762728568001414 1.6457124580799034 0.22123893805309733
      vertex 3.5093558713605932 0.8452744791851784 0.22123893805309733
    endloop
  endfacet
  facet normal 0.0 0.0 1.0
    outer loop
      vertex 4.001460176819997 1.6927343944525535 0.22123893805309733
      vertex 3.5270283103664815 2.374059758312521 0.22123893805309733
      vertex 3.0762728568001414 1.6457124580799034 0.22123893805309733
    endloop
  endfacet
  facet normal 0.0 0.0 1.0
    outer loop
      vertex 6.769537338498474 2.493887447038007 0.22123893805309733
      vertex 6.0909134885740706 2.7311110833116445 0.22123893805309733
      vertex 6.103177405464336 1.8153110810351316 0.22123893805309733
    endloop
  endfacet
  facet normal 0.0 0.0 1.0
    outer loop
      vertex 6.103177405464336 1.8153110810351316 0.22123893805309733
      vertex 6.0909134885740706 2.7311110833116445 0.22123893805309733
      vertex 5.444777149924349 2.43816160213222 0.22123893805309733
    endloop
  endfacet
  facet normal 0.0 0.0 1.0
    outer loop
      vertex 6.499999999999999 3.3798349479368586 0.22123893805309733
      vertex 6.0909134885740706 2.7311110833116445 0.22123893805309733
      vertex 6.769537338498474 2.493887447038007 0.22123893805309733
    endloop
  endfacet
  facet normal 0.0 -1.0 -0.0
    outer loop
      vertex 10.0 0.0 0.22123893805309733
      vertex 8.999999999999998 0.0 0.0
      vertex 10.0 0.0 0.0
    endloop
  endfacet
  facet normal 0.0 -1.0 0.0
    outer loop
      vertex 8.999999999999998 0.0 0.0
      vertex 10.0 0.0 0.22123893805309733
      vertex 8.999999999999998 0.0 0.22123893805309733
    endloop
  endfacet
  facet normal 0.0 -1.0 0.0
    outer loop
      vertex 0.0 0.0 0.0
      vertex 0.9999999999999982 0.0 0.22123893805309733
      vertex 0.0 0.0 0.22123893805309733
    endloop
  endfacet
  facet normal 0.0 -1.0 0.0
    outer loop
      vertex 0.0 0.0 0.0
      vertex 0.9999999999999982 0.0 0.0
      vertex 0.9999999999999982 0.0 0.22123893805309733
    endloop
  endfacet
  facet normal 0.0 -1.0 0.0
    outer loop
      vertex 0.9999999999999982 0.0 0.22123893805309733
      vertex 1.999999999999997 0.0 0.0
      vertex 1.999999999999997 0.0 0.22123893805309733
    endloop
  endfacet
  facet normal 0.0 -1.0 0.0
    outer loop
      vertex 0.9999999999999982 0.0 0.0
      vertex 1.999999999999997 0.0 0.0
      vertex 0.9999999999999982 0.0 0.22123893805309733
    endloop
  endfacet
  facet normal 0.0 -1.0 0.0
    outer loop
      vertex 1.999999999999997 0.0 0.22123893805309733
      vertex 2.9999999999999964 0.0 0.0
      vertex 2.9999999999999964 0.0 0.22123893805309733
    endloop
  endfacet
  facet normal 0.0 -1.0 0.0
    outer loop
      vertex 1.999999999999997 0.0 0.0
      vertex 2.9999999999999964 0.0 0.0
      vertex 1.999999999999997 0.0 0.22123893805309733
    endloop
  endfacet
  facet normal 0.0 -1.0 0.0
    outer loop
      vertex 2.9999999999999964 0.0 0.0
      vertex 3.999999999999997 0.0 0.22123893805309733
      vertex 2.9999999999999964 0.0 0.22123893805309733
    endloop
  endfacet
  facet normal 0.0 -1.0 0.0
    outer loop
      vertex 3.999999999999997 0.0 0.22123893805309733
      vertex 4.999999999999995 0.0 0.0
      vertex 4.999999999999995 0.0 0.22123893805309733
    endloop
  endfacet
  facet normal 0.0 -1.0 0.0
    outer loop
      vertex 2.9999999999999964 0.0 0.0
      vertex 3.999999999999997 0.0 0.0
      vertex 3.999999999999997 0.0 0.22123893805309733
    endloop
  endfacet
  facet normal 0.0 -1.0 0.0
    outer loop
      vertex 3.999999999999997 0.0 0.0
      vertex 4.999999999999995 0.0 0.0
      vertex 3.999999999999997 0.0 0.22123893805309733
    endloop
  endfacet
  facet normal 0.0 -1.0 0.0
    outer loop
      vertex 4.999999999999995 0.0 0.0
      vertex 5.999999999999999 0.0 0.22123893805309733
      vertex 4.999999999999995 0.0 0.22123893805309733
    endloop
  endfacet
  facet normal 0.0 -1.0 0.0
    outer loop
      vertex 5.999999999999999 0.0 0.22123893805309733
      vertex 6.999999999999999 0.0 0.0
      vertex 6.999999999999999 0.0 0.22123893805309733
    endloop
  endfacet
  facet normal 0.0 -1.0 0.0
    outer loop
      vertex 4.999999999999995 0.0 0.0
      vertex 5.999999999999999 0.0 0.0
      vertex 5.999999999999999 0.0 0.22123893805309733
    endloop
  endfacet
  facet normal 0.0 -1.0 0.0
    outer loop
      vertex 5.999999999999999 0.0 0.0
      vertex 6.999999999999999 0.0 0.0
      vertex 5.999999999999999 0.0 0.22123893805309733
    endloop
  endfacet
  facet normal 0.0 -1.0 0.0
    outer loop
      vertex 6.999999999999999 0.0 0.22123893805309733
      vertex 7.999999999999998 0.0 0.0
      vertex 7.999999999999998 0.0 0.22123893805309733
    endloop
  endfacet
  facet normal 0.0 -1.0 0.0
    outer loop
      vertex 6.999999999999999 0.0 0.0
      vertex 7.999999999999998 0.0 0.0
      vertex 6.999999999999999 0.0 0.22123893805309733
    endloop
  endfacet
  facet normal 0.0 -1.0 0.0
    outer loop
      vertex 7.999999999999998 0.0 0.22123893805309733
      vertex 8.999999999999998 0.0 0.0
      vertex 8.999999999999998 0.0 0.22123893805309733
    endloop
  endfacet
  facet normal 0.0 -1.0 0.0
    outer loop
      vertex 7.999999999999998 0.0 0.0
      vertex 8.999999999999998 0.0 0.0
      vertex 7.999999999999998 0.0 0.22123893805309733
    endloop
  endfacet
  facet normal -0.0 1.0 0.0
    outer loop
      vertex 8.999999999999998 4.159292035398229 0.22123893805309733
      vertex 10.0 4.159292035398229 0.22123893805309733
      vertex 10.0 4.159292035398229 0.0
    endloop
  endfacet
  facet normal 0.0 1.0 0.0
    outer loop
      vertex 8.999999999999998 4.159292035398229 0.0
      vertex 8.999999999999998 4.159292035398229 0.22123893805309733
      vertex 10.0 4.159292035398229 0.0
    endloop
  endfacet
  facet normal 0.0 1.0 0.0
    outer loop
      vertex 0.0 4.159292035398229 0.0
      vertex 0.0 4.159292035398229 0.22123893805309733
      vertex 0.9999999999999982 4.159292035398229 0.22123893805309733
    endloop
  endfacet
  facet normal 0.0 1.0 0.0
    outer loop
      vertex 0.9999999999999982 4.159292035398229 0.22123893805309733
      vertex 0.9999999999999982 4.159292035398229 0.0
      vertex 0.0 4.159292035398229 0.0
    endloop
  endfacet
  facet normal 0.0 1.0 0.0
    outer loop
      vertex 1.999999999999997 4.159292035398229 0.22123893805309733
      vertex 0.9999999999999982 4.159292035398229 0.0
      vertex 0.9999999999999982 4.159292035398229 0.22123893805309733
    endloop
  endfacet
  facet normal -0.0 1.0 0.0
    outer loop
      vertex 1.999999999999997 4.159292035398229 0.22123893805309733
      vertex 2.9999999999999964 4.159292035398229 0.22123893805309733
      vertex 2.9999999999999964 4.159292035398229 0.0
    endloop
  endfacet
  facet normal 0.0 1.0 0.0
    outer loop
      vertex 1.999999999999997 4.159292035398229 0.22123893805309733
      vertex 1.999999999999997 4.159292035398229 0.0
      vertex 0.9999999999999982 4.159292035398229 0.0
    endloop
  endfacet
  facet normal 0.0 1.0 0.0
    outer loop
      vertex 2.9999999999999964 4.159292035398229 0.0
      vertex 1.999999999999997 4.159292035398229 0.0
      vertex 1.999999999999997 4.159292035398229 0.22123893805309733
    endloop
  endfacet
  facet normal 0.0 1.0 0.0
    outer loop
      vertex 2.9999999999999964 4.159292035398229 0.0
      vertex 2.9999999999999964 4.159292035398229 0.22123893805309733
      vertex 3.999999999999997 4.159292035398229 0.22123893805309733
    endloop
  endfacet
  facet normal 0.0 1.0 0.0
    outer loop
      vertex 4.999999999999995 4.159292035398229 0.22123893805309733
      vertex 3.999999999999997 4.159292035398229 0.0
      vertex 3.999999999999997 4.159292035398229 0.22123893805309733
    endloop
  endfacet
  facet normal 0.0 1.0 0.0
    outer loop
      vertex 3.999999999999997 4.159292035398229 0.22123893805309733
      vertex 3.999999999999997 4.159292035398229 0.0
      vertex 2.9999999999999964 4.159292035398229 0.0
    endloop
  endfacet
  facet normal 0.0 1.0 0.0
    outer loop
      vertex 5.999999999999999 4.159292035398229 0.22123893805309733
      vertex 4.999999999999995 4.159292035398229 0.0
      vertex 4.999999999999995 4.159292035398229 0.22123893805309733
    endloop
  endfacet
  facet normal 0.0 1.0 0.0
    outer loop
      vertex 4.999999999999995 4.159292035398229 0.22123893805309733
      vertex 4.999999999999995 4.159292035398229 0.0
      vertex 3.999999999999997 4.159292035398229 0.0
    endloop
  endfacet
  facet normal 0.0 1.0 0.0
    outer loop
      vertex 6.999999999999999 4.159292035398229 0.22123893805309733
      vertex 5.999999999999999 4.159292035398229 0.0
      vertex 5.999999999999999 4.159292035398229 0.22123893805309733
    endloop
  endfacet
  facet normal 0.0 1.0 0.0
    outer loop
      vertex 5.999999999999999 4.159292035398229 0.22123893805309733
      vertex 5.999999999999999 4.159292035398229 0.0
      vertex 4.999999999999995 4.159292035398229 0.0
    endloop
  endfacet
  facet normal 0.0 1.0 0.0
    outer loop
      vertex 7.999999999999998 4.159292035398229 0.22123893805309733
      vertex 6.999999999999999 4.159292035398229 0.0
      vertex 6.999999999999999 4.159292035398229 0.22123893805309733
    endloop
  endfacet
  facet normal 0.0 1.0 0.0
    outer loop
      vertex 6.999999999999999 4.159292035398229 0.22123893805309733
      vertex 6.999999999999999 4.159292035398229 0.0
      vertex 5.999999999999999 4.159292035398229 0.0
    endloop
  endfacet
  facet normal -0.0 1.0 0.0
    outer loop
      vertex 7.999999999999998 4.159292035398229 0.22123893805309733
      vertex 8.999999999999998 4.159292035398229 0.22123893805309733
      vertex 8.999999999999998 4.159292035398229 0.0
    endloop
  endfacet
  facet normal 0.0 1.0 0.0
    outer loop
      vertex 7.999999999999998 4.159292035398229 0.22123893805309733
      vertex 7.999999999999998 4.159292035398229 0.0
      vertex 6.999999999999999 4.159292035398229 0.0
    endloop
  endfacet
  facet normal 0.0 1.0 0.0
    outer loop
      vertex 8.999999999999998 4.159292035398229 0.0
      vertex 7.999999999999998 4.159292035398229 0.0
      vertex 7.999999999999998 4.159292035398229 0.22123893805309733
    endloop
  endfacet
  facet normal -1.0 0.0 0.0
    outer loop
      vertex 0.0 4.159292035398229 0.0
      vertex 0.0 3.1194690265486713 0.22123893805309733
      vertex 0.0 4.159292035398229 0.22123893805309733
    endloop
  endfacet
  facet normal -1.0 -0.0 0.0
    outer loop
      vertex 0.0 1.039823008849556 0.22123893805309733
      vertex 0.0 0.0 0.0
      vertex 0.0 0.0 0.22123893805309733
    endloop
  endfacet
  facet normal -1.0 0.0 0.0
    outer loop
      vertex 0.0 1.039823008849556 0.0
      vertex 0.0 0.0 0.0
      vertex 0.0 1.039823008849556 0.22123893805309733
    endloop
  endfacet
  facet normal -1.0 0.0 0.0
    outer loop
      vertex 0.0 3.1194690265486713 0.0
      vertex 0.0 3.1194690265486713 0.22123893805309733
      vertex 0.0 4.159292035398229 0.0
    endloop
  endfacet
  facet normal -1.0 0.0 0.0
    outer loop
      vertex 0.0 3.1194690265486713 0.0
      vertex 0.0 2.079646017699113 0.22123893805309733
      vertex 0.0 3.1194690265486713 0.22123893805309733
    endloop
  endfacet
  facet normal -1.0 0.0 0.0
    outer loop
      vertex 0.0 2.079646017699113 0.0
      vertex 0.0 1.039823008849556 0.22123893805309733
      vertex 0.0 2.079646017699113 0.22123893805309733
    endloop
  endfacet
  facet normal -1.0 0.0 0.0
    outer loop
      vertex 0.0 3.1194690265486713 0.0
      vertex 0.0 2.079646017699113 0.0
      vertex 0.0 2.079646017699113 0.22123893805309733
    endloop
  endfacet
  facet normal -1.0 0.0 0.0
    outer loop
      vertex 0.0 2.079646017699113 0.0
      vertex 0.0 1.039823008849556 0.0
      vertex 0.0 1.039823008849556 0.22123893805309733
    endloop
  endfacet
  facet normal 0.0 -0.0 -1.0
    outer loop
      vertex 10.0 4.159292035398229 0.0
      vertex 10.0 3.1194690265486713 0.0
      vertex 9.242474857134193 3.3917180531535664 0.0
    endloop
  endfacet
  facet normal 0.0 0.0 -1.0
    outer loop
      vertex 8.999999999999998 4.159292035398229 0.0
      vertex 10.0 4.159292035398229 0.0
      vertex 9.242474857134193 3.3917180531535664 0.0
    endloop
  endfacet
  facet normal 0.0 -0.0 -1.0
    outer loop
      vertex 10.0 1.039823008849556 0.0
      vertex 10.0 0.0 0.0
      vertex 9.255557452619241 0.7549924223313802 0.0
    endloop
  endfacet
  facet normal 0.0 0.0 -1.0
    outer loop
      vertex 10.0 0.0 0.0
      vertex 8.999999999999998 0.0 0.0
      vertex 9.255557452619241 0.7549924223313802 0.0
    endloop
  endfacet
  facet normal 0.0 0.0 -1.0
    outer loop
      vertex 0.9999999999999982 0.0 0.0
      vertex 0.0 0.0 0.0
      vertex 0.7575251428658079 0.7675739822446616 0.0
    endloop
  endfacet
  facet normal 0.0 0.0 -1.0
    outer loop
      vertex 0.0 0.0 0.0
      vertex 0.0 1.039823008849556 0.0
      vertex 0.7575251428658079 0.7675739822446616 0.0
    endloop
  endfacet
  facet normal 0.0 0.0 -1.0
    outer loop
      vertex 0.0 4.159292035398229 0.0
      vertex 0.9999999999999982 4.159292035398229 0.0
      vertex 0.7444425473807551 3.40429961306685 0.0
    endloop
  endfacet
  facet normal 0.0 0.0 -1.0
    outer loop
      vertex 0.0 3.1194690265486713 0.0
      vertex 0.0 4.159292035398229 0.0
      vertex 0.7444425473807551 3.40429961306685 0.0
    endloop
  endfacet
  facet normal 0.0 -0.0 -1.0
    outer loop
      vertex 10.0 3.1194690265486713 0.0
      vertex 10.0 2.079646017699113 0.0
      vertex 9.128492977206587 2.5559893423298568 0.0
    endloop
  endfacet
  facet normal -0.0 0.0 -1.0
    outer loop
      vertex 10.0 3.1194690265486713 0.0
      vertex 9.128492977206587 2.5559893423298568 0.0
      vertex 9.242474857134193 3.3917180531535664 0.0
    endloop
  endfacet
  facet normal 0.0 -0.0 -1.0
    outer loop
      vertex 10.0 2.079646017699113 0.0
      vertex 10.0 1.039823008849556 0.0
      vertex 9.177051538996208 1.5591878650866917 0.0
    endloop
  endfacet
  facet normal 0.0 0.0 -1.0
    outer loop
      vertex 9.128492977206587 2.5559893423298568 0.0
      vertex 10.0 2.079646017699113 0.0
      vertex 9.177051538996208 1.5591878650866917 0.0
    endloop
  endfacet
  facet normal 0.0 0.0 -1.0
    outer loop
      vertex 9.177051538996208 1.5591878650866917 0.0
      vertex 10.0 1.039823008849556 0.0
      vertex 9.255557452619241 0.7549924223313802 0.0
    endloop
  endfacet
  facet normal 0.0 0.0 -1.0
    outer loop
      vertex 1.999999999999997 0.0 0.0
      vertex 0.9999999999999982 0.0 0.0
      vertex 1.6461159390009168 0.9714259350252411 0.0
    endloop
  endfacet
  facet normal 0.0 0.0 -1.0
    outer loop
      vertex 1.6461159390009168 0.9714259350252411 0.0
      vertex 0.9999999999999982 0.0 0.0
      vertex 0.7575251428658079 0.7675739822446616 0.0
    endloop
  endfacet
  facet normal 0.0 0.0 -1.0
    outer loop
      vertex 2.9999999999999964 0.0 0.0
      vertex 1.999999999999997 0.0 0.0
      vertex 2.545027506470966 0.7160036307368083 0.0
    endloop
  endfacet
  facet normal 0.0 0.0 -1.0
    outer loop
      vertex 1.999999999999997 0.0 0.0
      vertex 1.6461159390009168 0.9714259350252411 0.0
      vertex 2.545027506470966 0.7160036307368083 0.0
    endloop
  endfacet
  facet normal 0.0 0.0 -1.0
    outer loop
      vertex 3.999999999999997 0.0 0.0
      vertex 2.9999999999999964 0.0 0.0
      vertex 3.4377765567679197 0.9386938923792026 0.0
    endloop
  endfacet
  facet normal 0.0 0.0 -1.0
    outer loop
      vertex 3.4377765567679197 0.9386938923792026 0.0
      vertex 2.9999999999999964 0.0 0.0
      vertex 2.545027506470966 0.7160036307368083 0.0
    endloop
  endfacet
  facet normal 0.0 0.0 -1.0
    outer loop
      vertex 4.999999999999995 0.0 0.0
      vertex 3.999999999999997 0.0 0.0
      vertex 4.479670047212525 0.8629726146869455 0.0
    endloop
  endfacet
  facet normal 0.0 0.0 -1.0
    outer loop
      vertex 3.999999999999997 0.0 0.0
      vertex 3.4377765567679197 0.9386938923792026 0.0
      vertex 4.479670047212525 0.8629726146869455 0.0
    endloop
  endfacet
  facet normal 0.0 0.0 -1.0
    outer loop
      vertex 5.999999999999999 0.0 0.0
      vertex 4.999999999999995 0.0 0.0
      vertex 5.499999999999998 0.8660254037844384 0.0
    endloop
  endfacet
  facet normal 0.0 0.0 -1.0
    outer loop
      vertex 5.499999999999998 0.8660254037844384 0.0
      vertex 4.999999999999995 0.0 0.0
      vertex 4.479670047212525 0.8629726146869455 0.0
    endloop
  endfacet
  facet normal 0.0 0.0 -1.0
    outer loop
      vertex 6.999999999999999 0.0 0.0
      vertex 5.999999999999999 0.0 0.0
      vertex 6.4910025513573775 0.8517769264237832 0.0
    endloop
  endfacet
  facet normal 0.0 0.0 -1.0
    outer loop
      vertex 5.999999999999999 0.0 0.0
      vertex 5.499999999999998 0.8660254037844384 0.0
      vertex 6.4910025513573775 0.8517769264237832 0.0
    endloop
  endfacet
  facet normal 0.0 0.0 -1.0
    outer loop
      vertex 7.999999999999998 0.0 0.0
      vertex 6.999999999999999 0.0 0.0
      vertex 7.4460153081442755 0.8259638474774744 0.0
    endloop
  endfacet
  facet normal -0.0 0.0 -1.0
    outer loop
      vertex 7.4460153081442755 0.8259638474774744 0.0
      vertex 6.999999999999999 0.0 0.0
      vertex 6.4910025513573775 0.8517769264237832 0.0
    endloop
  endfacet
  facet normal 0.0 0.0 -1.0
    outer loop
      vertex 8.999999999999998 0.0 0.0
      vertex 7.999999999999998 0.0 0.0
      vertex 8.418505277718497 0.961749123779834 0.0
    endloop
  endfacet
  facet normal 0.0 0.0 -1.0
    outer loop
      vertex 7.999999999999998 0.0 0.0
      vertex 7.4460153081442755 0.8259638474774744 0.0
      vertex 8.418505277718497 0.961749123779834 0.0
    endloop
  endfacet
  facet normal 0.0 0.0 -1.0
    outer loop
      vertex 8.999999999999998 0.0 0.0
      vertex 8.418505277718497 0.961749123779834 0.0
      vertex 9.255557452619241 0.7549924223313802 0.0
    endloop
  endfacet
  facet normal 0.0 0.0 -1.0
    outer loop
      vertex 0.9999999999999982 4.159292035398229 0.0
      vertex 1.999999999999997 4.159292035398229 0.0
      vertex 1.5814947222814992 3.1975429116183958 0.0
    endloop
  endfacet
  facet normal 0.0 -0.0 -1.0
    outer loop
      vertex 0.9999999999999982 4.159292035398229 0.0
      vertex 1.5814947222814992 3.1975429116183958 0.0
      vertex 0.7444425473807551 3.40429961306685 0.0
    endloop
  endfacet
  facet normal 0.0 0.0 -1.0
    outer loop
      vertex 1.999999999999997 4.159292035398229 0.0
      vertex 2.9999999999999964 4.159292035398229 0.0
      vertex 2.5539846918557196 3.3333281879207552 0.0
    endloop
  endfacet
  facet normal 0.0 -0.0 -1.0
    outer loop
      vertex 1.999999999999997 4.159292035398229 0.0
      vertex 2.5539846918557196 3.3333281879207552 0.0
      vertex 1.5814947222814992 3.1975429116183958 0.0
    endloop
  endfacet
  facet normal 0.0 0.0 -1.0
    outer loop
      vertex 2.9999999999999964 4.159292035398229 0.0
      vertex 3.999999999999997 4.159292035398229 0.0
      vertex 3.499999999999997 3.2932666316137915 0.0
    endloop
  endfacet
  facet normal 0.0 0.0 -1.0
    outer loop
      vertex 2.5539846918557196 3.3333281879207552 0.0
      vertex 2.9999999999999964 4.159292035398229 0.0
      vertex 3.499999999999997 3.2932666316137915 0.0
    endloop
  endfacet
  facet normal 0.0 0.0 -1.0
    outer loop
      vertex 3.999999999999997 4.159292035398229 0.0
      vertex 4.999999999999995 4.159292035398229 0.0
      vertex 4.457136216488617 3.345594597838122 0.0
    endloop
  endfacet
  facet normal 0.0 -0.0 -1.0
    outer loop
      vertex 3.999999999999997 4.159292035398229 0.0
      vertex 4.457136216488617 3.345594597838122 0.0
      vertex 3.499999999999997 3.2932666316137915 0.0
    endloop
  endfacet
  facet normal 0.0 0.0 -1.0
    outer loop
      vertex 4.999999999999995 4.159292035398229 0.0
      vertex 5.999999999999999 4.159292035398229 0.0
      vertex 5.457215139087534 3.4193023144595798 0.0
    endloop
  endfacet
  facet normal 0.0 0.0 -1.0
    outer loop
      vertex 4.457136216488617 3.345594597838122 0.0
      vertex 4.999999999999995 4.159292035398229 0.0
      vertex 5.457215139087534 3.4193023144595798 0.0
    endloop
  endfacet
  facet normal 0.0 0.0 -1.0
    outer loop
      vertex 5.999999999999999 4.159292035398229 0.0
      vertex 6.999999999999999 4.159292035398229 0.0
      vertex 6.499999999999999 3.293266631613791 0.0
    endloop
  endfacet
  facet normal 0.0 -0.0 -1.0
    outer loop
      vertex 5.999999999999999 4.159292035398229 0.0
      vertex 6.499999999999999 3.293266631613791 0.0
      vertex 5.457215139087534 3.4193023144595798 0.0
    endloop
  endfacet
  facet normal 0.0 0.0 -1.0
    outer loop
      vertex 6.999999999999999 4.159292035398229 0.0
      vertex 7.999999999999998 4.159292035398229 0.0
      vertex 7.445316561506038 3.453537821373559 0.0
    endloop
  endfacet
  facet normal 0.0 0.0 -1.0
    outer loop
      vertex 6.499999999999999 3.293266631613791 0.0
      vertex 6.999999999999999 4.159292035398229 0.0
      vertex 7.445316561506038 3.453537821373559 0.0
    endloop
  endfacet
  facet normal 0.0 0.0 -1.0
    outer loop
      vertex 7.999999999999998 4.159292035398229 0.0
      vertex 8.999999999999998 4.159292035398229 0.0
      vertex 8.35388406099908 3.1878661003729865 0.0
    endloop
  endfacet
  facet normal 0.0 -0.0 -1.0
    outer loop
      vertex 7.999999999999998 4.159292035398229 0.0
      vertex 8.35388406099908 3.1878661003729865 0.0
      vertex 7.445316561506038 3.453537821373559 0.0
    endloop
  endfacet
  facet normal 0.0 0.0 -1.0
    outer loop
      vertex 8.35388406099908 3.1878661003729865 0.0
      vertex 8.999999999999998 4.159292035398229 0.0
      vertex 9.242474857134193 3.3917180531535664 0.0
    endloop
  endfacet
  facet normal 0.0 0.0 -1.0
    outer loop
      vertex 0.0 2.079646017699113 0.0
      vertex 0.0 3.1194690265486713 0.0
      vertex 0.8229484610037895 2.600104170311536 0.0
    endloop
  endfacet
  facet normal 0.0 0.0 -1.0
    outer loop
      vertex 0.8229484610037895 2.600104170311536 0.0
      vertex 0.0 3.1194690265486713 0.0
      vertex 0.7444425473807551 3.40429961306685 0.0
    endloop
  endfacet
  facet normal 0.0 0.0 -1.0
    outer loop
      vertex 0.0 1.039823008849556 0.0
      vertex 0.0 2.079646017699113 0.0
      vertex 0.8715070227934109 1.6033026930683698 0.0
    endloop
  endfacet
  facet normal 0.0 0.0 -1.0
    outer loop
      vertex 0.8715070227934109 1.6033026930683698 0.0
      vertex 0.0 2.079646017699113 0.0
      vertex 0.8229484610037895 2.600104170311536 0.0
    endloop
  endfacet
  facet normal 0.0 0.0 -1.0
    outer loop
      vertex 0.0 1.039823008849556 0.0
      vertex 0.8715070227934109 1.6033026930683698 0.0
      vertex 0.7575251428658079 0.7675739822446616 0.0
    endloop
  endfacet
  facet normal 0.0 0.0 -1.0
    outer loop
      vertex 2.5539846918557196 3.3333281879207552 0.0
      vertex 3.499999999999997 3.2932666316137915 0.0
      vertex 3.042252747886831 2.5192479451066885 0.0
    endloop
  endfacet
  facet normal 0.0 -0.0 -1.0
    outer loop
      vertex 2.5539846918557196 3.3333281879207552 0.0
      vertex 3.042252747886831 2.5192479451066885 0.0
      vertex 2.287104968670501 2.5912861044142357 0.0
    endloop
  endfacet
  facet normal 0.0 0.0 -1.0
    outer loop
      vertex 1.5814947222814992 3.1975429116183958 0.0
      vertex 2.5539846918557196 3.3333281879207552 0.0
      vertex 2.287104968670501 2.5912861044142357 0.0
    endloop
  endfacet
  facet normal 0.0 0.0 -1.0
    outer loop
      vertex 7.4460153081442755 0.8259638474774744 0.0
      vertex 6.4910025513573775 0.8517769264237832 0.0
      vertex 6.923979975339879 1.6472012379908922 0.0
    endloop
  endfacet
  facet normal 0.0 0.0 -1.0
    outer loop
      vertex 7.4460153081442755 0.8259638474774744 0.0
      vertex 6.923979975339879 1.6472012379908922 0.0
      vertex 7.712507676378939 1.5581354654016109 0.0
    endloop
  endfacet
  facet normal -0.0 0.0 -1.0
    outer loop
      vertex 8.418505277718497 0.961749123779834 0.0
      vertex 7.4460153081442755 0.8259638474774744 0.0
      vertex 7.712507676378939 1.5581354654016109 0.0
    endloop
  endfacet
  facet normal 0.0 0.0 -1.0
    outer loop
      vertex 3.499999999999997 3.2932666316137915 0.0
      vertex 4.457136216488617 3.345594597838122 0.0
      vertex 3.9890938396250095 2.412504917587373 0.0
    endloop
  endfacet
  facet normal 0.0 0.0 -1.0
    outer loop
      vertex 3.9890938396250095 2.412504917587373 0.0
      vertex 4.457136216488617 3.345594597838122 0.0
      vertex 4.811842510653836 2.643874546364144 0.0
    endloop
  endfacet
  facet normal 0.0 0.0 -1.0
    outer loop
      vertex 4.457136216488617 3.345594597838122 0.0
      vertex 5.457215139087534 3.4193023144595798 0.0
      vertex 4.811842510653836 2.643874546364144 0.0
    endloop
  endfacet
  facet normal 0.0 -0.0 -1.0
    outer loop
      vertex 2.590694110081778 1.6407441331942938 0.0
      vertex 3.4377765567679197 0.9386938923792026 0.0
      vertex 2.545027506470966 0.7160036307368083 0.0
    endloop
  endfacet
  facet normal 0.0 0.0 -1.0
    outer loop
      vertex 3.4377765567679197 0.9386938923792026 0.0
      vertex 2.590694110081778 1.6407441331942938 0.0
      vertex 3.3755789103809404 1.8251332410282106 0.0
    endloop
  endfacet
  facet normal 0.0 0.0 -1.0
    outer loop
      vertex 4.479670047212525 0.8629726146869455 0.0
      vertex 3.4377765567679197 0.9386938923792026 0.0
      vertex 4.0260487611120395 1.5695761682378577 0.0
    endloop
  endfacet
  facet normal -0.0 0.0 -1.0
    outer loop
      vertex 4.0260487611120395 1.5695761682378577 0.0
      vertex 3.4377765567679197 0.9386938923792026 0.0
      vertex 3.3755789103809404 1.8251332410282106 0.0
    endloop
  endfacet
  facet normal 0.0 0.0 -1.0
    outer loop
      vertex 7.403937808989363 2.5176253305941407 0.0
      vertex 6.499999999999999 3.293266631613791 0.0
      vertex 7.445316561506038 3.453537821373559 0.0
    endloop
  endfacet
  facet normal 0.0 -0.0 -1.0
    outer loop
      vertex 6.499999999999999 3.293266631613791 0.0
      vertex 7.403937808989363 2.5176253305941407 0.0
      vertex 6.484179979727126 2.3445700104076423 0.0
    endloop
  endfacet
  facet normal -0.0 0.0 -1.0
    outer loop
      vertex 6.499999999999999 3.293266631613791 0.0
      vertex 5.595636534516865 2.569863036569288 0.0
      vertex 5.457215139087534 3.4193023144595798 0.0
    endloop
  endfacet
  facet normal 0.0 0.0 -1.0
    outer loop
      vertex 5.595636534516865 2.569863036569288 0.0
      vertex 6.499999999999999 3.293266631613791 0.0
      vertex 6.484179979727126 2.3445700104076423 0.0
    endloop
  endfacet
  facet normal 0.0 0.0 -1.0
    outer loop
      vertex 6.4910025513573775 0.8517769264237832 0.0
      vertex 5.499999999999998 0.8660254037844384 0.0
      vertex 5.997345579789528 1.6948938152700952 0.0
    endloop
  endfacet
  facet normal -0.0 0.0 -1.0
    outer loop
      vertex 5.997345579789528 1.6948938152700952 0.0
      vertex 5.499999999999998 0.8660254037844384 0.0
      vertex 4.891451839817318 1.7992221862084659 0.0
    endloop
  endfacet
  facet normal 0.0 -0.0 -1.0
    outer loop
      vertex 4.891451839817318 1.7992221862084659 0.0
      vertex 5.499999999999998 0.8660254037844384 0.0
      vertex 4.479670047212525 0.8629726146869455 0.0
    endloop
  endfacet
  facet normal 0.0 -0.0 -1.0
    outer loop
      vertex 9.128492977206587 2.5559893423298568 0.0
      vertex 9.177051538996208 1.5591878650866917 0.0
      vertex 8.33840496789082 2.0339642661616746 0.0
    endloop
  endfacet
  facet normal -0.0 0.0 -1.0
    outer loop
      vertex 9.128492977206587 2.5559893423298568 0.0
      vertex 8.33840496789082 2.0339642661616746 0.0
      vertex 8.35388406099908 3.1878661003729865 0.0
    endloop
  endfacet
  facet normal 0.0 0.0 -1.0
    outer loop
      vertex 9.128492977206587 2.5559893423298568 0.0
      vertex 8.35388406099908 3.1878661003729865 0.0
      vertex 9.242474857134193 3.3917180531535664 0.0
    endloop
  endfacet
  facet normal 0.0 0.0 -1.0
    outer loop
      vertex 0.8715070227934109 1.6033026930683698 0.0
      vertex 0.8229484610037895 2.600104170311536 0.0
      vertex 1.6615950321091768 2.1253277692365518 0.0
    endloop
  endfacet
  facet normal 0.0 0.0 -1.0
    outer loop
      vertex 0.8715070227934109 1.6033026930683698 0.0
      vertex 1.6615950321091768 2.1253277692365518 0.0
      vertex 1.6461159390009168 0.9714259350252411 0.0
    endloop
  endfacet
  facet normal 0.0 -0.0 -1.0
    outer loop
      vertex 0.8715070227934109 1.6033026930683698 0.0
      vertex 1.6461159390009168 0.9714259350252411 0.0
      vertex 0.7575251428658079 0.7675739822446616 0.0
    endloop
  endfacet
  facet normal 0.0 0.0 -1.0
    outer loop
      vertex 8.33840496789082 2.0339642661616746 0.0
      vertex 9.177051538996208 1.5591878650866917 0.0
      vertex 8.418505277718497 0.961749123779834 0.0
    endloop
  endfacet
  facet normal 0.0 0.0 -1.0
    outer loop
      vertex 8.418505277718497 0.961749123779834 0.0
      vertex 9.177051538996208 1.5591878650866917 0.0
      vertex 9.255557452619241 0.7549924223313802 0.0
    endloop
  endfacet
  facet normal 0.0 0.0 -1.0
    outer loop
      vertex 8.35388406099908 3.1878661003729865 0.0
      vertex 8.33840496789082 2.0339642661616746 0.0
      vertex 7.403937808989363 2.5176253305941407 0.0
    endloop
  endfacet
  facet normal 0.0 0.0 -1.0
    outer loop
      vertex 7.403937808989363 2.5176253305941407 0.0
      vertex 8.33840496789082 2.0339642661616746 0.0
      vertex 7.712507676378939 1.5581354654016109 0.0
    endloop
  endfacet
  facet normal 0.0 -0.0 -1.0
    outer loop
      vertex 8.33840496789082 2.0339642661616746 0.0
      vertex 8.418505277718497 0.961749123779834 0.0
      vertex 7.712507676378939 1.5581354654016109 0.0
    endloop
  endfacet
  facet normal -0.0 0.0 -1.0
    outer loop
      vertex 8.35388406099908 3.1878661003729865 0.0
      vertex 7.403937808989363 2.5176253305941407 0.0
      vertex 7.445316561506038 3.453537821373559 0.0
    endloop
  endfacet
  facet normal 0.0 0.0 -1.0
    outer loop
      vertex 7.403937808989363 2.5176253305941407 0.0
      vertex 6.923979975339879 1.6472012379908922 0.0
      vertex 6.484179979727126 2.3445700104076423 0.0
    endloop
  endfacet
  facet normal 0.0 0.0 -1.0
    outer loop
      vertex 6.923979975339879 1.6472012379908922 0.0
      vertex 7.403937808989363 2.5176253305941407 0.0
      vertex 7.712507676378939 1.5581354654016109 0.0
    endloop
  endfacet
  facet normal 0.0 0.0 -1.0
    outer loop
      vertex 1.6615950321091768 2.1253277692365518 0.0
      vertex 0.8229484610037895 2.600104170311536 0.0
      vertex 1.5814947222814992 3.1975429116183958 0.0
    endloop
  endfacet
  facet normal -0.0 0.0 -1.0
    outer loop
      vertex 1.5814947222814992 3.1975429116183958 0.0
      vertex 0.8229484610037895 2.600104170311536 0.0
      vertex 0.7444425473807551 3.40429961306685 0.0
    endloop
  endfacet
  facet normal 0.0 0.0 -1.0
    outer loop
      vertex 1.6461159390009168 0.9714259350252411 0.0
      vertex 1.6615950321091768 2.1253277692365518 0.0
      vertex 2.590694110081778 1.6407441331942938 0.0
    endloop
  endfacet
  facet normal 0.0 0.0 -1.0
    outer loop
      vertex 2.590694110081778 1.6407441331942938 0.0
      vertex 1.6615950321091768 2.1253277692365518 0.0
      vertex 2.287104968670501 2.5912861044142357 0.0
    endloop
  endfacet
  facet normal 0.0 0.0 -1.0
    outer loop
      vertex 1.6615950321091768 2.1253277692365518 0.0
      vertex 1.5814947222814992 3.1975429116183958 0.0
      vertex 2.287104968670501 2.5912861044142357 0.0
    endloop
  endfacet
  facet normal 0.0 0.0 -1.0
    outer loop
      vertex 1.6461159390009168 0.9714259350252411 0.0
      vertex 2.590694110081778 1.6407441331942938 0.0
      vertex 2.545027506470966 0.7160036307368083 0.0
    endloop
  endfacet
  facet normal -0.0 0.0 -1.0
    outer loop
      vertex 3.042252747886831 2.5192479451066885 0.0
      vertex 2.590694110081778 1.6407441331942938 0.0
      vertex 2.287104968670501 2.5912861044142357 0.0
    endloop
  endfacet
  facet normal 0.0 0.0 -1.0
    outer loop
      vertex 2.590694110081778 1.6407441331942938 0.0
      vertex 3.042252747886831 2.5192479451066885 0.0
      vertex 3.3755789103809404 1.8251332410282106 0.0
    endloop
  endfacet
  facet normal 0.0 0.0 -1.0
    outer loop
      vertex 6.4910025513573775 0.8517769264237832 0.0
      vertex 5.997345579789528 1.6948938152700952 0.0
      vertex 6.923979975339879 1.6472012379908922 0.0
    endloop
  endfacet
  facet normal 0.0 0.0 -1.0
    outer loop
      vertex 5.997345579789528 1.6948938152700952 0.0
      vertex 4.891451839817318 1.7992221862084659 0.0
      vertex 5.595636534516865 2.569863036569288 0.0
    endloop
  endfacet
  facet normal 0.0 0.0 -1.0
    outer loop
      vertex 5.997345579789528 1.6948938152700952 0.0
      vertex 5.595636534516865 2.569863036569288 0.0
      vertex 6.484179979727126 2.3445700104076423 0.0
    endloop
  endfacet
  facet normal 0.0 0.0 -1.0
    outer loop
      vertex 6.923979975339879 1.6472012379908922 0.0
      vertex 5.997345579789528 1.6948938152700952 0.0
      vertex 6.484179979727126 2.3445700104076423 0.0
    endloop
  endfacet
  facet normal -0.0 0.0 -1.0
    outer loop
      vertex 5.595636534516865 2.569863036569288 0.0
      vertex 4.891451839817318 1.7992221862084659 0.0
      vertex 4.811842510653836 2.643874546364144 0.0
    endloop
  endfacet
  facet normal 0.0 0.0 -1.0
    outer loop
      vertex 3.9890938396250095 2.412504917587373 0.0
      vertex 4.891451839817318 1.7992221862084659 0.0
      vertex 4.0260487611120395 1.5695761682378577 0.0
    endloop
  endfacet
  facet normal 0.0 0.0 -1.0
    outer loop
      vertex 4.891451839817318 1.7992221862084659 0.0
      vertex 3.9890938396250095 2.412504917587373 0.0
      vertex 4.811842510653836 2.643874546364144 0.0
    endloop
  endfacet
  facet normal 0.0 0.0 -1.0
    outer loop
      vertex 4.891451839817318 1.7992221862084659 0.0
      vertex 4.479670047212525 0.8629726146869455 0.0
      vertex 4.0260487611120395 1.5695761682378577 0.0
    endloop
  endfacet
  facet normal 0.0 -0.0 -1.0
    outer loop
      vertex 5.457215139087534 3.4193023144595798 0.0
      vertex 5.595636534516865 2.569863036569288 0.0
      vertex 4.811842510653836 2.643874546364144 0.0
    endloop
  endfacet
  facet normal 0.0 -0.0 -1.0
    outer loop
      vertex 3.499999999999997 3.2932666316137915 0.0
      vertex 3.9890938396250095 2.412504917587373 0.0
      vertex 3.042252747886831 2.5192479451066885 0.0
    endloop
  endfacet
  facet normal 0.0 0.0 -1.0
    outer loop
      vertex 3.042252747886831 2.5192479451066885 0.0
      vertex 3.9890938396250095 2.412504917587373 0.0
      vertex 3.3755789103809404 1.8251332410282106 0.0
    endloop
  endfacet
  facet normal 0.0 -0.0 -1.0
    outer loop
      vertex 3.9890938396250095 2.412504917587373 0.0
      vertex 4.0260487611120395 1.5695761682378577 0.0
      vertex 3.3755789103809404 1.8251332410282106 0.0
    endloop
  endfacet
endsolid abc_micro_004
