solid abc_micro_005
  facet normal 0.989121893988992 0.1422142520615752 -0.03758969728789985
    outer loop
      vertex 9.797464868072487 6.40866278398849 0.0
      vertex 9.886115465893003 6.061072878504193 1.0176727014823934
      vertex 9.99999999087225 4.99999999978134 0.0
    endloop
  endfacet
  facet normal 0.9893809408724985 -0.142251497378872 -0.029830610649439652
    outer loop
      vertex 9.99999999087225 4.99999999978134 0.0
      vertex 9.886115465892999 3.938927121058471 1.2827101597522121
      vertex 9.797464868072487 3.591337215574191 0.0
    endloop
  endfacet
  facet normal 0.9942894683125405 0.1067166959887969 -7.890534288784433e-09
    outer loop
      vertex 9.99999999087225 4.99999999978134 0.0
      vertex 9.886115465893003 6.061072878504193 1.0176727014823934
      vertex 10.0 4.99999999978134 1.1501914306172973
    endloop
  endfacet
  facet normal 0.9942894681034117 -0.1067166979372704 -7.890534287124816e-09
    outer loop
      vertex 10.0 4.99999999978134 1.1501914306172973
      vertex 9.886115465892999 3.938927121058471 1.2827101597522121
      vertex 9.99999999087225 4.99999999978134 0.0
    endloop
  endfacet
  facet normal 0.9942894681034119 0.10671669793726875 7.890534287124852e-09
    outer loop
      vertex 10.0 4.99999999978134 1.1501914306172973
      vertex 9.886115465893003 6.061072878504193 1.0176727014823934
      vertex 9.99999999087225 4.99999999978134 2.30038286123459
    endloop
  endfacet
  facet normal 0.9942894683125404 -0.10671669598879856 7.890534288784465e-09
    outer loop
      vertex 9.99999999087225 4.99999999978134 2.30038286123459
      vertex 9.886115465892999 3.938927121058471 1.2827101597522121
      vertex 10.0 4.99999999978134 1.1501914306172973
    endloop
  endfacet
  facet normal 0.9893809408724985 0.14225149737887194 0.029830610649440904
    outer loop
      vertex 9.99999999087225 4.99999999978134 2.30038286123459
      vertex 9.886115465893003 6.061072878504193 1.0176727014823934
      vertex 9.797464868072487 6.40866278398849 2.30038286123459
    endloop
  endfacet
  facet normal 0.989121893988992 -0.14221425206157526 0.03758969728789931
    outer loop
      vertex 9.797464868072487 3.591337215574191 2.30038286123459
      vertex 9.886115465892999 3.938927121058471 1.2827101597522121
      vertex 9.99999999087225 4.99999999978134 2.30038286123459
    endloop
  endfacet
  facet normal 0.9087445903943521 0.41500974873573643 -0.044160818417485675
    outer loop
      vertex 9.206267664155902 7.703204087059331 0.0
      vertex 9.548159976772592 7.077075064790776 1.1513179148843504
      vertex 9.797464868072487 6.40866278398849 0.0
    endloop
  endfacet
  facet normal 0.9495518213046442 0.3126841841078446 0.024081936505287605
    outer loop
      vertex 9.548159976772592 7.077075064790776 1.1513179148843504
      vertex 9.886115465893003 6.061072878504193 1.0176727014823934
      vertex 9.797464868072487 6.40866278398849 0.0
    endloop
  endfacet
  facet normal 0.7550108087864023 0.6542205899367443 -0.04420518429461554
    outer loop
      vertex 8.274303669726422 8.778747871552635 0.0
      vertex 8.778514322019323 8.274573180868433 1.1501598653436995
      vertex 9.206267664155902 7.703204087059331 0.0
    endloop
  endfacet
  facet normal 0.8403924861997831 0.5401725548964631 0.044204977950168284
    outer loop
      vertex 9.206267664155902 7.703204087059331 0.0
      vertex 8.778514322019323 8.274573180868433 1.1501598653436995
      vertex 9.548159976772592 7.077075064790776 1.1513179148843504
    endloop
  endfacet
  facet normal 0.5401115125631936 0.8404299183420415 -0.044239194751812455
    outer loop
      vertex 7.077075065009425 9.548159976553933 0.0
      vertex 7.703129049268605 9.20631588699193 1.1492741762903167
      vertex 8.274303669726422 8.778747871552635 0.0
    endloop
  endfacet
  facet normal 0.6541661183908644 0.7550579763182962 0.04420567777501979
    outer loop
      vertex 8.274303669726422 8.778747871552635 0.0
      vertex 7.703129049268605 9.20631588699193 1.1492741762903167
      vertex 8.778514322019323 8.274573180868433 1.1501598653436995
    endloop
  endfacet
  facet normal 0.28145663121344133 0.9585532572243771 -0.04424723506071098
    outer loop
      vertex 5.711574191366414 9.949107209186005 0.0
      vertex 6.408662784207138 9.797464867853831 1.1490649463502394
      vertex 7.077075065009425 9.548159976553933 0.0
    endloop
  endfacet
  facet normal 0.41499431338703013 0.9087478996268121 0.04423770767439015
    outer loop
      vertex 6.408662784207138 9.797464867853831 1.1490649463502394
      vertex 7.703129049268605 9.20631588699193 1.1492741762903167
      vertex 7.077075065009425 9.548159976553933 0.0
    endloop
  endfacet
  facet normal -2.4939321155567834e-15 0.9990209675716077 -0.04423919475181121
    outer loop
      vertex 4.288425808633559 9.949107209186002 0.0
      vertex 5.000089197342168 9.999999998985723 1.1492741762903167
      vertex 5.711574191366414 9.949107209186005 0.0
    endloop
  endfacet
  facet normal 0.14219077507360198 0.9888502458429604 0.044237707674392335
    outer loop
      vertex 5.711574191366414 9.949107209186005 0.0
      vertex 5.000089197342168 9.999999998985723 1.1492741762903167
      vertex 6.408662784207138 9.797464867853831 1.1490649463502394
    endloop
  endfacet
  facet normal -0.28145715567760504 0.9585550433852777 -0.044205184294613974
    outer loop
      vertex 2.922924934990549 9.548159976553926 0.0
      vertex 3.591679399189108 9.797565328709299 1.1501598653436995
      vertex 4.288425808633559 9.949107209186002 0.0
    endloop
  endfacet
  facet normal -0.14210439661168728 0.9888640950687204 0.04420567777501981
    outer loop
      vertex 3.591679399189108 9.797565328709299 1.1501598653436995
      vertex 5.000089197342168 9.999999998985723 1.1492741762903167
      vertex 4.288425808633559 9.949107209186002 0.0
    endloop
  endfacet
  facet normal -0.5401128167887306 0.8404319477565735 -0.04418468434463762
    outer loop
      vertex 1.72569633027356 8.778747871552618 0.0
      vertex 2.2968560107416933 9.206306285982652 1.1506948147185738
      vertex 2.922924934990549 9.548159976553926 0.0
    endloop
  endfacet
  facet normal -0.4149547837729964 0.9087671761596575 0.04421252038402527
    outer loop
      vertex 2.922924934990549 9.548159976553926 0.0
      vertex 2.2968560107416933 9.206306285982652 1.1506948147185738
      vertex 3.591679399189108 9.797565328709299 1.1501598653436995
    endloop
  endfacet
  facet normal -0.7550122331893476 0.6542218241889177 -0.044162568871828366
    outer loop
      vertex 0.7937323358440852 7.703204087059312 0.0
      vertex 1.2212594942411648 8.27431217031998 1.151272191092781
      vertex 1.72569633027356 8.778747871552618 0.0
    endloop
  endfacet
  facet normal -0.6542016088867034 0.7550288856233197 0.044177333605104
    outer loop
      vertex 1.2212594942411648 8.27431217031998 1.151272191092781
      vertex 2.2968560107416933 9.206306285982652 1.1506948147185738
      vertex 1.72569633027356 8.778747871552618 0.0
    endloop
  endfacet
  facet normal -0.9087442682686079 0.4150096016258331 -0.0441688289104395
    outer loop
      vertex 0.2025351319275092 6.408662783988473 0.0
      vertex 0.4518770778661834 7.077156201216598 1.1511086849442722
      vertex 0.7937323358440852 7.703204087059312 0.0
    endloop
  endfacet
  facet normal -0.8404301506135077 0.5401175587670711 0.04416089504591526
    outer loop
      vertex 0.4518770778661834 7.077156201216598 1.1511086849442722
      vertex 1.2212594942411648 8.27431217031998 1.151272191092781
      vertex 0.7937323358440852 7.703204087059312 0.0
    endloop
  endfacet
  facet normal -0.988853970810273 0.14217573693325355 -0.04420276281231709
    outer loop
      vertex 0.0 4.999999999781325 0.0
      vertex 0.05094355630692328 5.7119271850608655 1.15022299589089
      vertex 0.2025351319275092 6.408662783988473 0.0
    endloop
  endfacet
  facet normal -0.9585517636104944 0.2814739573807185 0.04416930829940719
    outer loop
      vertex 0.05094355630692328 5.7119271850608655 1.15022299589089
      vertex 0.4518770778661834 7.077156201216598 1.1511086849442722
      vertex 0.2025351319275092 6.408662783988473 0.0
    endloop
  endfacet
  facet normal -0.9888547400156019 -0.14217584752828852 -0.04418519580458214
    outer loop
      vertex 0.2025351319275159 3.5913372155741805 0.0
      vertex 0.050832623958118 4.288844402234142 1.1506810761279689
      vertex 0.0 4.999999999781325 0.0
    endloop
  endfacet
  facet normal -0.9990231456231203 9.210040280352615e-05 0.044189886023858954
    outer loop
      vertex 0.0 4.999999999781325 0.0
      vertex 0.050832623958118 4.288844402234142 1.1506810761279689
      vertex 0.05094355630692328 5.7119271850608655 1.15022299589089
    endloop
  endfacet
  facet normal -0.9087440236863835 -0.415009489928879 -0.044174910110301426
    outer loop
      vertex 0.7937323358440994 2.2967959125033413 0.0
      vertex 0.45177282009624276 2.9230720954031675 1.1509498702259002
      vertex 0.2025351319275159 3.5913372155741805 0.0
    endloop
  endfacet
  facet normal -0.9585742321344604 -0.28139321544164253 0.044196151317089497
    outer loop
      vertex 0.2025351319275159 3.5913372155741805 0.0
      vertex 0.45177282009624276 2.9230720954031675 1.1509498702259002
      vertex 0.050832623958118 4.288844402234142 1.1506810761279689
    endloop
  endfacet
  facet normal -0.7550120658904278 -0.6542216792235873 -0.04416757627194573
    outer loop
      vertex 1.7256963302735815 1.221252128010042 0.0
      vertex 1.221222533509075 1.7257304844939332 1.1511414087760448
      vertex 0.7937323358440994 2.2967959125033413 0.0
    endloop
  endfacet
  facet normal -0.84044657331828 -0.5400905699879582 0.04417842921204331
    outer loop
      vertex 0.7937323358440994 2.2967959125033413 0.0
      vertex 1.221222533509075 1.7257304844939332 1.1511414087760448
      vertex 0.45177282009624276 2.9230720954031675 1.1509498702259002
    endloop
  endfacet
  facet normal -0.5401123115550579 -0.8404311615976484 -0.04420580869387642
    outer loop
      vertex 2.9229249349905766 0.4518400230087437 0.0
      vertex 2.2964806398936233 0.7939349658654341 1.1501435577313117
      vertex 1.7256963302735815 1.221252128010042 0.0
    endloop
  endfacet
  facet normal -0.6542300129695959 -0.7550049150074083 0.0441663723262207
    outer loop
      vertex 1.7256963302735815 1.221252128010042 0.0
      vertex 2.2964806398936233 0.7939349658654341 1.1501435577313117
      vertex 1.221222533509075 1.7257304844939332 1.1511414087760448
    endloop
  endfacet
  facet normal -0.28145690282895336 -0.9585541822618624 -0.04422546232913098
    outer loop
      vertex 4.2884258086335825 0.050892790376673866 0.0
      vertex 3.5912538553122086 0.2025596093411132 1.1496317373451073
      vertex 2.9229249349905766 0.4518400230087437 0.0
    endloop
  endfacet
  facet normal -0.4150358994394731 -0.9087291170660758 0.04423340335965623
    outer loop
      vertex 2.9229249349905766 0.4518400230087437 0.0
      vertex 3.5912538553122086 0.2025596093411132 1.1496317373451073
      vertex 2.2964806398936233 0.7939349658654341 1.1501435577313117
    endloop
  endfacet
  facet normal 1.7681597837896384e-15 -0.999021465652472 -0.044227945527534465
    outer loop
      vertex 5.711574191366433 0.050892790376676385 0.0
      vertex 5.0000467612338655 0.0 1.1495670763544124
      vertex 4.2884258086335825 0.050892790376673866 0.0
    endloop
  endfacet
  facet normal -0.14217751213294702 -0.9888522761367867 0.04423495250118171
    outer loop
      vertex 4.2884258086335825 0.050892790376673866 0.0
      vertex 5.0000467612338655 0.0 1.1495670763544124
      vertex 3.5912538553122086 0.2025596093411132 1.1496317373451073
    endloop
  endfacet
  facet normal 0.28145680765513353 -0.958553858129586 -0.04423309269615465
    outer loop
      vertex 7.077075065009438 0.45184002300875126 0.0
      vertex 6.4088180094834 0.2025807126900785 1.1494329910086893
      vertex 5.711574191366433 0.050892790376676385 0.0
    endloop
  endfacet
  facet normal 0.1422002640946497 -0.988848885333748 0.044237618218164396
    outer loop
      vertex 6.4088180094834 0.2025807126900785 1.1494329910086893
      vertex 5.0000467612338655 0.0 1.1495670763544124
      vertex 5.711574191366433 0.050892790376676385 0.0
    endloop
  endfacet
  facet normal 0.5401119059961105 -0.8404305305356033 -0.0442227582234862
    outer loop
      vertex 8.274303669726425 1.221252128010049 0.0
      vertex 7.70355984014692 0.7939609853706596 1.1497017851066207
      vertex 7.077075065009438 0.45184002300875126 0.0
    endloop
  endfacet
  facet normal 0.41505375034107017 -0.9087204458862626 0.04424404543082372
    outer loop
      vertex 7.70355984014692 0.7939609853706596 1.1497017851066207
      vertex 6.4088180094834 0.2025807126900785 1.1494329910086893
      vertex 7.077075065009438 0.45184002300875126 0.0
    endloop
  endfacet
  facet normal 0.7550108087864021 -0.6542205899367444 -0.0442051842946179
    outer loop
      vertex 9.206267664155908 2.2967959125033555 0.0
      vertex 8.778981402299731 1.725965858072862 1.1501598653436995
      vertex 8.274303669726425 1.221252128010049 0.0
    endloop
  endfacet
  facet normal 0.6542685521084316 -0.7549689713646841 0.04420988575519171
    outer loop
      vertex 8.778981402299731 1.725965858072862 1.1501598653436995
      vertex 7.70355984014692 0.7939609853706596 1.1497017851066207
      vertex 8.274303669726425 1.221252128010049 0.0
    endloop
  endfacet
  facet normal 0.9087411122334129 -0.41500816031285676 -0.04424723506070804
    outer loop
      vertex 9.797464868072487 3.591337215574191 0.0
      vertex 9.548159976772592 2.9229249347719097 1.1490649463502394
      vertex 9.206267664155908 2.2967959125033555 0.0
    endloop
  endfacet
  facet normal 0.8404688728545111 -0.540053759637201 0.04420419057501106
    outer loop
      vertex 9.548159976772592 2.9229249347719097 1.1490649463502394
      vertex 8.778981402299731 1.725965858072862 1.1501598653436995
      vertex 9.206267664155908 2.2967959125033555 0.0
    endloop
  endfacet
  facet normal 0.94786264213569 -0.31800840607222913 0.020665558568518528
    outer loop
      vertex 9.797464868072487 3.591337215574191 0.0
      vertex 9.886115465892999 3.938927121058471 1.2827101597522121
      vertex 9.548159976772592 2.9229249347719097 1.1490649463502394
    endloop
  endfacet
  facet normal 0.9087411122334123 0.41500816031285837 0.04424723506071094
    outer loop
      vertex 9.797464868072487 6.40866278398849 2.30038286123459
      vertex 9.548159976772592 7.077075064790776 1.1513179148843504
      vertex 9.206267664155902 7.703204087059331 2.30038286123459
    endloop
  endfacet
  facet normal 0.9478626421356912 0.3180084060722258 -0.020665558568519364
    outer loop
      vertex 9.797464868072487 6.40866278398849 2.30038286123459
      vertex 9.886115465893003 6.061072878504193 1.0176727014823934
      vertex 9.548159976772592 7.077075064790776 1.1513179148843504
    endloop
  endfacet
  facet normal 0.7550108897603363 0.6542206601010575 0.04420276281231692
    outer loop
      vertex 9.206267664155902 7.703204087059331 2.30038286123459
      vertex 8.778514322019323 8.274573180868433 1.1501598653436995
      vertex 8.274303669726422 8.778747871552635 2.30038286123459
    endloop
  endfacet
  facet normal 0.8404298263731288 0.5401110156940958 -0.04424700745050084
    outer loop
      vertex 9.548159976772592 7.077075064790776 1.1513179148843504
      vertex 8.778514322019323 8.274573180868433 1.1501598653436995
      vertex 9.206267664155902 7.703204087059331 2.30038286123459
    endloop
  endfacet
  facet normal 0.5401131958461355 0.8404325375814256 0.04416882891044078
    outer loop
      vertex 8.274303669726422 8.778747871552635 2.30038286123459
      vertex 7.703129049268605 9.20631588699193 1.1492741762903167
      vertex 7.077075065009425 9.548159976553933 2.30038286123459
    endloop
  endfacet
  facet normal 0.6542087471281115 0.7550231700983875 -0.044169308299408204
    outer loop
      vertex 8.778514322019323 8.274573180868433 1.1501598653436995
      vertex 7.703129049268605 9.20631588699193 1.1492741762903167
      vertex 8.274303669726422 8.778747871552635 2.30038286123459
    endloop
  endfacet
  facet normal 0.2814577084745532 0.9585569260387988 0.044160818417485724
    outer loop
      vertex 7.077075065009425 9.548159976553933 2.30038286123459
      vertex 6.408662784207138 9.797464867853831 1.1490649463502394
      vertex 5.711574191366414 9.949107209186005 2.30038286123459
    endloop
  endfacet
  facet normal 0.4150075763028307 0.9087456549995545 -0.04415932665565487
    outer loop
      vertex 7.077075065009425 9.548159976553933 2.30038286123459
      vertex 7.703129049268605 9.20631588699193 1.1492741762903167
      vertex 6.408662784207138 9.797464867853831 1.1490649463502394
    endloop
  endfacet
  facet normal -2.4939398880135647e-15 0.9990240810674588 0.04416882891043951
    outer loop
      vertex 5.711574191366414 9.949107209186005 2.30038286123459
      vertex 5.000089197342168 9.999999998985723 1.1492741762903167
      vertex 4.288425808633559 9.949107209186002 2.30038286123459
    endloop
  endfacet
  facet normal 0.1421784040617137 0.9888555280159904 -0.04415932665565705
    outer loop
      vertex 6.408662784207138 9.797464867853831 1.1490649463502394
      vertex 5.000089197342168 9.999999998985723 1.1492741762903167
      vertex 5.711574191366414 9.949107209186005 2.30038286123459
    endloop
  endfacet
  facet normal -0.2814571858635214 0.958555146189068 0.044202762812315326
    outer loop
      vertex 4.288425808633559 9.949107209186002 2.30038286123459
      vertex 3.591679399189108 9.797565328709299 1.1501598653436995
      vertex 2.922924934990549 9.548159976553926 2.30038286123459
    endloop
  endfacet
  facet normal -0.14215907585068038 0.9888578610486101 -0.04416930829940823
    outer loop
      vertex 4.288425808633559 9.949107209186002 2.30038286123459
      vertex 5.000089197342168 9.999999998985723 1.1492741762903167
      vertex 3.591679399189108 9.797565328709299 1.1501598653436995
    endloop
  endfacet
  facet normal -0.5401118930131694 0.8404305103337426 0.04422330071235636
    outer loop
      vertex 2.922924934990549 9.548159976553926 2.30038286123459
      vertex 2.2968560107416933 9.206306285982652 1.1506948147185738
      vertex 1.72569633027356 8.778747871552618 2.30038286123459
    endloop
  endfacet
  facet normal -0.4149846861132836 0.9087526404681224 -0.044230631169753835
    outer loop
      vertex 3.591679399189108 9.797565328709299 1.1501598653436995
      vertex 2.2968560107416933 9.206306285982652 1.1506948147185738
      vertex 2.922924934990549 9.548159976553926 2.30038286123459
    endloop
  endfacet
  facet normal -0.755009460724081 0.654219421834089 0.04424547787291621
    outer loop
      vertex 1.72569633027356 8.778747871552618 2.30038286123459
      vertex 1.2212594942411648 8.27431217031998 1.151272191092781
      vertex 0.7937323358440852 7.703204087059312 2.30038286123459
    endloop
  endfacet
  facet normal -0.6542269560665743 0.7550033643831787 -0.04423810264857098
    outer loop
      vertex 1.72569633027356 8.778747871552618 2.30038286123459
      vertex 2.2968560107416933 9.206306285982652 1.1506948147185738
      vertex 1.2212594942411648 8.27431217031998 1.151272191092781
    endloop
  endfacet
  facet normal -0.9087414361331645 0.41500830823291374 0.0442391947518111
    outer loop
      vertex 0.7937323358440852 7.703204087059312 2.30038286123459
      vertex 0.4518770778661834 7.077156201216598 1.1511086849442722
      vertex 0.2025351319275092 6.408662783988473 2.30038286123459
    endloop
  endfacet
  facet normal -0.8404218073766725 0.54012427012756 -0.04423752372023057
    outer loop
      vertex 0.7937323358440852 7.703204087059312 2.30038286123459
      vertex 1.2212594942411648 8.27431217031998 1.151272191092781
      vertex 0.4518770778661834 7.077156201216598 1.1511086849442722
    endloop
  endfacet
  facet normal -0.9888538647569735 0.14217572168509107 0.044205184294615674
    outer loop
      vertex 0.2025351319275092 6.408662783988473 2.30038286123459
      vertex 0.05094355630692328 5.7119271850608655 1.15022299589089
      vertex 0.0 4.999999999781325 2.30038286123459
    endloop
  endfacet
  facet normal -0.9585347196978693 0.2815262850715334 -0.04420567777501872
    outer loop
      vertex 0.2025351319275092 6.408662783988473 2.30038286123459
      vertex 0.4518770778661834 7.077156201216598 1.1511086849442722
      vertex 0.05094355630692328 5.7119271850608655 1.15022299589089
    endloop
  endfacet
  facet normal -0.9888530948998051 -0.14217561099634582 0.044222758223484995
    outer loop
      vertex 0.0 4.999999999781325 2.30038286123459
      vertex 0.050832623958118 4.288844402234142 1.1506810761279689
      vertex 0.2025351319275159 3.5913372155741805 2.30038286123459
    endloop
  endfacet
  facet normal -0.9990222629905787 6.364507552711343e-05 -0.04420988575519335
    outer loop
      vertex 0.05094355630692328 5.7119271850608655 1.15022299589089
      vertex 0.050832623958118 4.288844402234142 1.1506810761279689
      vertex 0.0 4.999999999781325 2.30038286123459
    endloop
  endfacet
  facet normal -0.9087416819120028 -0.41500842047635345 0.04423309269615365
    outer loop
      vertex 0.2025351319275159 3.5913372155741805 2.30038286123459
      vertex 0.45177282009624276 2.9230720954031675 1.1509498702259002
      vertex 0.7937323358440994 2.2967959125033413 2.30038286123459
    endloop
  endfacet
  facet normal -0.95856749376065 -0.28140864298976537 -0.044244045430825066
    outer loop
      vertex 0.050832623958118 4.288844402234142 1.1506810761279689
      vertex 0.45177282009624276 2.9230720954031675 1.1509498702259002
      vertex 0.2025351319275159 3.5913372155741805 2.30038286123459
    endloop
  endfacet
  facet normal -0.7550096289208713 -0.654219567577446 0.04424045247901032
    outer loop
      vertex 0.7937323358440994 2.2967959125033413 2.30038286123459
      vertex 1.221222533509075 1.7257304844939332 1.1511414087760448
      vertex 1.7256963302735815 1.221252128010042 2.30038286123459
    endloop
  endfacet
  facet normal -0.840437700028569 -0.5400990126478347 -0.04424397029565906
    outer loop
      vertex 0.45177282009624276 2.9230720954031675 1.1509498702259002
      vertex 1.221222533509075 1.7257304844939332 1.1511414087760448
      vertex 0.7937323358440994 2.2967959125033413 2.30038286123459
    endloop
  endfacet
  facet normal -0.5401123994079754 -0.8404312982994565 0.044202136197810514
    outer loop
      vertex 1.7256963302735815 1.221252128010042 2.30038286123459
      vertex 2.2964806398936233 0.7939349658654341 1.1501435577313117
      vertex 2.9229249349905766 0.4518400230087437 2.30038286123459
    endloop
  endfacet
  facet normal -0.6542758463767255 -0.7549631733606736 -0.04420094701701546
    outer loop
      vertex 1.221222533509075 1.7257304844939332 1.1511414087760448
      vertex 2.2964806398936233 0.7939349658654341 1.1501435577313117
      vertex 1.7256963302735815 1.221252128010042 2.30038286123459
    endloop
  endfacet
  facet normal -0.2814574380649342 -0.9585560051082122 0.044182526284822714
    outer loop
      vertex 2.9229249349905766 0.4518400230087437 2.30038286123459
      vertex 3.5912538553122086 0.2025596093411132 1.1496317373451073
      vertex 4.2884258086335825 0.050892790376673866 2.30038286123459
    endloop
  endfacet
  facet normal -0.41506525526389776 -0.90871684390608 -0.04421008339834402
    outer loop
      vertex 2.2964806398936233 0.7939349658654341 1.1501435577313117
      vertex 3.5912538553122086 0.2025596093411132 1.1496317373451073
      vertex 2.9229249349905766 0.4518400230087437 2.30038286123459
    endloop
  endfacet
  facet normal 1.7681635346941368e-15 -0.9990235849372469 0.04418004910739
    outer loop
      vertex 4.2884258086335825 0.050892790376673866 2.30038286123459
      vertex 5.0000467612338655 0.0 1.1495670763544124
      vertex 5.711574191366433 0.050892790376676385 2.30038286123459
    endloop
  endfacet
  facet normal -0.14218177455211137 -0.9888536942447018 -0.04418952776188407
    outer loop
      vertex 3.5912538553122086 0.2025596093411132 1.1496317373451073
      vertex 5.0000467612338655 0.0 1.1495670763544124
      vertex 4.2884258086335825 0.050892790376673866 2.30038286123459
    endloop
  endfacet
  facet normal 0.2814575329529322 -0.9585563282670433 0.04417491011030239
    outer loop
      vertex 5.711574191366433 0.050892790376676385 2.30038286123459
      vertex 6.4088180094834 0.2025807126900785 1.1494329910086893
      vertex 7.077075065009438 0.45184002300875126 2.30038286123459
    endloop
  endfacet
  facet normal 0.14219235280924652 -0.9888523946924982 -0.04418457098900586
    outer loop
      vertex 5.711574191366433 0.050892790376676385 2.30038286123459
      vertex 5.0000467612338655 0.0 1.1495670763544124
      vertex 6.4088180094834 0.2025807126900785 1.1494329910086893
    endloop
  endfacet
  facet normal 0.5401128045589335 -0.8404319287266482 0.04418519580458331
    outer loop
      vertex 7.077075065009438 0.45184002300875126 2.30038286123459
      vertex 7.70355984014692 0.7939609853706596 1.1497017851066207
      vertex 8.274303669726425 1.221252128010049 2.30038286123459
    endloop
  endfacet
  facet normal 0.4150698224004164 -0.9087154355139149 -0.04419615131708813
    outer loop
      vertex 7.077075065009438 0.45184002300875126 2.30038286123459
      vertex 6.4088180094834 0.2025807126900785 1.1494329910086893
      vertex 7.70355984014692 0.7939609853706596 1.1497017851066207
    endloop
  endfacet
  facet normal 0.7550108897603361 -0.6542206601010574 0.044202762812319274
    outer loop
      vertex 8.274303669726425 1.221252128010049 2.30038286123459
      vertex 8.778981402299731 1.725965858072862 1.1501598653436995
      vertex 9.206267664155908 2.2967959125033555 2.30038286123459
    endloop
  endfacet
  facet normal 0.6542906352113028 -0.754951004137347 -0.04418988602385733
    outer loop
      vertex 8.274303669726425 1.221252128010049 2.30038286123459
      vertex 7.70355984014692 0.7939609853706596 1.1497017851066207
      vertex 8.778981402299731 1.725965858072862 1.1501598653436995
    endloop
  endfacet
  facet normal 0.908744590394353 -0.4150097487357348 0.04416081841748279
    outer loop
      vertex 9.206267664155908 2.2967959125033555 2.30038286123459
      vertex 9.548159976772592 2.9229249347719097 1.1490649463502394
      vertex 9.797464868072487 3.591337215574191 2.30038286123459
    endloop
  endfacet
  facet normal 0.8404337622339041 -0.5401120281948643 -0.04415980408239651
    outer loop
      vertex 9.206267664155908 2.2967959125033555 2.30038286123459
      vertex 8.778981402299731 1.725965858072862 1.1501598653436995
      vertex 9.548159976772592 2.9229249347719097 1.1490649463502394
    endloop
  endfacet
  facet normal 0.9495518213046433 -0.31268418410784726 -0.02408193650528711
    outer loop
      vertex 9.548159976772592 2.9229249347719097 1.1490649463502394
      vertex 9.886115465892999 3.938927121058471 1.2827101597522121
      vertex 9.797464868072487 3.591337215574191 2.30038286123459
    endloop
  endfacet
  facet normal 0.0 -0.0 -1.0
    outer loop
      vertex 9.797464868072487 6.40866278398849 0.0
      vertex 9.99999999087225 4.99999999978134 0.0
      vertex 8.952071507482193 5.567030864256893 0.0
    endloop
  endfacet
  facet normal 0.0 0.0 -1.0
    outer loop
      vertex 9.99999999087225 4.99999999978134 0.0
      vertex 9.797464868072487 3.591337215574191 0.0
      vertex 8.678794678660665 4.471069176925723 0.0
    endloop
  endfacet
  facet normal -0.0 0.0 -1.0
    outer loop
      vertex 9.99999999087225 4.99999999978134 0.0
      vertex 8.678794678660665 4.471069176925723 0.0
      vertex 8.952071507482193 5.567030864256893 0.0
    endloop
  endfacet
  facet normal 0.0 -0.0 -1.0
    outer loop
      vertex 9.206267664155902 7.703204087059331 0.0
      vertex 9.797464868072487 6.40866278398849 0.0
      vertex 8.380760611918296 6.543941638519487 0.0
    endloop
  endfacet
  facet normal 0.0 0.0 -1.0
    outer loop
      vertex 8.380760611918296 6.543941638519487 0.0
      vertex 9.797464868072487 6.40866278398849 0.0
      vertex 8.952071507482193 5.567030864256893 0.0
    endloop
  endfacet
  facet normal 0.0 -0.0 -1.0
    outer loop
      vertex 8.274303669726422 8.778747871552635 0.0
      vertex 9.206267664155902 7.703204087059331 0.0
      vertex 7.703447300152776 7.588730939076621 0.0
    endloop
  endfacet
  facet normal 0.0 0.0 -1.0
    outer loop
      vertex 9.206267664155902 7.703204087059331 0.0
      vertex 8.380760611918296 6.543941638519487 0.0
      vertex 7.703447300152776 7.588730939076621 0.0
    endloop
  endfacet
  facet normal 0.0 -0.0 -1.0
    outer loop
      vertex 7.077075065009425 9.548159976553933 0.0
      vertex 8.274303669726422 8.778747871552635 0.0
      vertex 7.067651449505807 8.44180933212721 0.0
    endloop
  endfacet
  facet normal 0.0 0.0 -1.0
    outer loop
      vertex 8.274303669726422 8.778747871552635 0.0
      vertex 7.703447300152776 7.588730939076621 0.0
      vertex 7.067651449505807 8.44180933212721 0.0
    endloop
  endfacet
  facet normal 0.0 0.0 -1.0
    outer loop
      vertex 5.711574191366414 9.949107209186005 0.0
      vertex 7.077075065009425 9.548159976553933 0.0
      vertex 5.97771245179337 8.725007873554835 0.0
    endloop
  endfacet
  facet normal 0.0 0.0 -1.0
    outer loop
      vertex 5.97771245179337 8.725007873554835 0.0
      vertex 7.077075065009425 9.548159976553933 0.0
      vertex 7.067651449505807 8.44180933212721 0.0
    endloop
  endfacet
  facet normal 0.0 0.0 -1.0
    outer loop
      vertex 4.288425808633559 9.949107209186002 0.0
      vertex 5.711574191366414 9.949107209186005 0.0
      vertex 4.967128687679184 9.123576450635458 0.0
    endloop
  endfacet
  facet normal 0.0 -0.0 -1.0
    outer loop
      vertex 5.711574191366414 9.949107209186005 0.0
      vertex 5.97771245179337 8.725007873554835 0.0
      vertex 4.967128687679184 9.123576450635458 0.0
    endloop
  endfacet
  facet normal 0.0 0.0 -1.0
    outer loop
      vertex 2.922924934990549 9.548159976553926 0.0
      vertex 4.288425808633559 9.949107209186002 0.0
      vertex 3.9483767809612265 8.949975761598171 0.0
    endloop
  endfacet
  facet normal 0.0 -0.0 -1.0
    outer loop
      vertex 4.288425808633559 9.949107209186002 0.0
      vertex 4.967128687679184 9.123576450635458 0.0
      vertex 3.9483767809612265 8.949975761598171 0.0
    endloop
  endfacet
  facet normal 0.0 0.0 -1.0
    outer loop
      vertex 1.72569633027356 8.778747871552618 0.0
      vertex 2.922924934990549 9.548159976553926 0.0
      vertex 3.0538268818436825 8.087484089704077 0.0
    endloop
  endfacet
  facet normal 0.0 0.0 -1.0
    outer loop
      vertex 3.0538268818436825 8.087484089704077 0.0
      vertex 2.922924934990549 9.548159976553926 0.0
      vertex 3.9483767809612265 8.949975761598171 0.0
    endloop
  endfacet
  facet normal 0.0 0.0 -1.0
    outer loop
      vertex 0.7937323358440852 7.703204087059312 0.0
      vertex 1.72569633027356 8.778747871552618 0.0
      vertex 1.9270477050805654 7.564448050729005 0.0
    endloop
  endfacet
  facet normal 0.0 0.0 -1.0
    outer loop
      vertex 1.72569633027356 8.778747871552618 0.0
      vertex 3.0538268818436825 8.087484089704077 0.0
      vertex 1.9270477050805654 7.564448050729005 0.0
    endloop
  endfacet
  facet normal 0.0 0.0 -1.0
    outer loop
      vertex 0.2025351319275092 6.408662783988473 0.0
      vertex 0.7937323358440852 7.703204087059312 0.0
      vertex 1.344946164809689 6.744991202675658 0.0
    endloop
  endfacet
  facet normal 0.0 0.0 -1.0
    outer loop
      vertex 0.7937323358440852 7.703204087059312 0.0
      vertex 1.9270477050805654 7.564448050729005 0.0
      vertex 1.344946164809689 6.744991202675658 0.0
    endloop
  endfacet
  facet normal 0.0 0.0 -1.0
    outer loop
      vertex 0.0 4.999999999781325 0.0
      vertex 0.2025351319275092 6.408662783988473 0.0
      vertex 1.3026959774370073 5.587636220859579 0.0
    endloop
  endfacet
  facet normal 0.0 0.0 -1.0
    outer loop
      vertex 1.3026959774370073 5.587636220859579 0.0
      vertex 0.2025351319275092 6.408662783988473 0.0
      vertex 1.344946164809689 6.744991202675658 0.0
    endloop
  endfacet
  facet normal 0.0 0.0 -1.0
    outer loop
      vertex 0.2025351319275159 3.5913372155741805 0.0
      vertex 0.0 4.999999999781325 0.0
      vertex 1.2818972558286976 4.485227454082858 0.0
    endloop
  endfacet
  facet normal 0.0 0.0 -1.0
    outer loop
      vertex 0.0 4.999999999781325 0.0
      vertex 1.3026959774370073 5.587636220859579 0.0
      vertex 1.2818972558286976 4.485227454082858 0.0
    endloop
  endfacet
  facet normal 0.0 0.0 -1.0
    outer loop
      vertex 0.7937323358440994 2.2967959125033413 0.0
      vertex 0.2025351319275159 3.5913372155741805 0.0
      vertex 1.3407067524063012 3.4183052866794825 0.0
    endloop
  endfacet
  facet normal 0.0 0.0 -1.0
    outer loop
      vertex 1.3407067524063012 3.4183052866794825 0.0
      vertex 0.2025351319275159 3.5913372155741805 0.0
      vertex 1.2818972558286976 4.485227454082858 0.0
    endloop
  endfacet
  facet normal 0.0 0.0 -1.0
    outer loop
      vertex 1.7256963302735815 1.221252128010042 0.0
      vertex 0.7937323358440994 2.2967959125033413 0.0
      vertex 2.1911625733124955 2.5661285148450426 0.0
    endloop
  endfacet
  facet normal -0.0 0.0 -1.0
    outer loop
      vertex 2.1911625733124955 2.5661285148450426 0.0
      vertex 0.7937323358440994 2.2967959125033413 0.0
      vertex 1.3407067524063012 3.4183052866794825 0.0
    endloop
  endfacet
  facet normal 0.0 0.0 -1.0
    outer loop
      vertex 2.9229249349905766 0.4518400230087437 0.0
      vertex 1.7256963302735815 1.221252128010042 0.0
      vertex 3.1232376306271776 1.7142465285378965 0.0
    endloop
  endfacet
  facet normal 0.0 0.0 -1.0
    outer loop
      vertex 1.7256963302735815 1.221252128010042 0.0
      vertex 2.1911625733124955 2.5661285148450426 0.0
      vertex 3.1232376306271776 1.7142465285378965 0.0
    endloop
  endfacet
  facet normal 0.0 0.0 -1.0
    outer loop
      vertex 4.2884258086335825 0.050892790376673866 0.0
      vertex 2.9229249349905766 0.4518400230087437 0.0
      vertex 3.9133930871840183 1.0731319325778161 0.0
    endloop
  endfacet
  facet normal 0.0 0.0 -1.0
    outer loop
      vertex 2.9229249349905766 0.4518400230087437 0.0
      vertex 3.1232376306271776 1.7142465285378965 0.0
      vertex 3.9133930871840183 1.0731319325778161 0.0
    endloop
  endfacet
  facet normal -0.0 0.0 -1.0
    outer loop
      vertex 5.711574191366433 0.050892790376676385 0.0
      vertex 4.2884258086335825 0.050892790376673866 0.0
      vertex 4.960870910595012 1.12793568107453 0.0
    endloop
  endfacet
  facet normal 0.0 0.0 -1.0
    outer loop
      vertex 4.960870910595012 1.12793568107453 0.0
      vertex 4.2884258086335825 0.050892790376673866 0.0
      vertex 3.9133930871840183 1.0731319325778161 0.0
    endloop
  endfacet
  facet normal -0.0 0.0 -1.0
    outer loop
      vertex 7.077075065009438 0.45184002300875126 0.0
      vertex 5.711574191366433 0.050892790376676385 0.0
      vertex 6.008849005941883 1.0624980641015636 0.0
    endloop
  endfacet
  facet normal 0.0 0.0 -1.0
    outer loop
      vertex 5.711574191366433 0.050892790376676385 0.0
      vertex 4.960870910595012 1.12793568107453 0.0
      vertex 6.008849005941883 1.0624980641015636 0.0
    endloop
  endfacet
  facet normal -0.0 0.0 -1.0
    outer loop
      vertex 8.274303669726425 1.221252128010049 0.0
      vertex 7.077075065009438 0.45184002300875126 0.0
      vertex 6.811396197959756 1.7421716228026403 0.0
    endloop
  endfacet
  facet normal 0.0 -0.0 -1.0
    outer loop
      vertex 6.811396197959756 1.7421716228026403 0.0
      vertex 7.077075065009438 0.45184002300875126 0.0
      vertex 6.008849005941883 1.0624980641015636 0.0
    endloop
  endfacet
  facet normal -0.0 0.0 -1.0
    outer loop
      vertex 9.206267664155908 2.2967959125033555 0.0
      vertex 8.274303669726425 1.221252128010049 0.0
      vertex 7.7485220567707875 2.5822883524179456 0.0
    endloop
  endfacet
  facet normal 0.0 -0.0 -1.0
    outer loop
      vertex 7.7485220567707875 2.5822883524179456 0.0
      vertex 8.274303669726425 1.221252128010049 0.0
      vertex 6.811396197959756 1.7421716228026403 0.0
    endloop
  endfacet
  facet normal 0.0 0.0 -1.0
    outer loop
      vertex 9.797464868072487 3.591337215574191 0.0
      vertex 9.206267664155908 2.2967959125033555 0.0
      vertex 8.678794677668352 3.3199507637611645 0.0
    endloop
  endfacet
  facet normal 0.0 0.0 -1.0
    outer loop
      vertex 9.206267664155908 2.2967959125033555 0.0
      vertex 7.7485220567707875 2.5822883524179456 0.0
      vertex 8.678794677668352 3.3199507637611645 0.0
    endloop
  endfacet
  facet normal 0.0 -0.0 -1.0
    outer loop
      vertex 8.678794678660665 4.471069176925723 0.0
      vertex 9.797464868072487 3.591337215574191 0.0
      vertex 8.678794677668352 3.3199507637611645 0.0
    endloop
  endfacet
  facet normal 0.0 0.0 -1.0
    outer loop
      vertex 8.952071507482193 5.567030864256893 0.0
      vertex 8.678794678660665 4.471069176925723 0.0
      vertex 7.762229217254601 5.4279601708189515 0.0
    endloop
  endfacet
  facet normal 0.0 -0.0 -1.0
    outer loop
      vertex 7.762229217254601 5.4279601708189515 0.0
      vertex 8.678794678660665 4.471069176925723 0.0
      vertex 7.35360435424643 3.996248615484757 0.0
    endloop
  endfacet
  facet normal 0.0 0.0 -1.0
    outer loop
      vertex 7.35360435424643 3.996248615484757 0.0
      vertex 8.678794678660665 4.471069176925723 0.0
      vertex 8.678794677668352 3.3199507637611645 0.0
    endloop
  endfacet
  facet normal -0.0 0.0 -1.0
    outer loop
      vertex 2.498719673759276 6.461004870741921 0.0
      vertex 1.3026959774370073 5.587636220859579 0.0
      vertex 1.344946164809689 6.744991202675658 0.0
    endloop
  endfacet
  facet normal 0.0 0.0 -1.0
    outer loop
      vertex 1.3026959774370073 5.587636220859579 0.0
      vertex 2.498719673759276 6.461004870741921 0.0
      vertex 2.276164823795667 5.2263431002760505 0.0
    endloop
  endfacet
  facet normal 0.0 -0.0 -1.0
    outer loop
      vertex 1.3026959774370073 5.587636220859579 0.0
      vertex 2.276164823795667 5.2263431002760505 0.0
      vertex 1.2818972558286976 4.485227454082858 0.0
    endloop
  endfacet
  facet normal 0.0 -0.0 -1.0
    outer loop
      vertex 4.2715061510737415 2.0207446398912334 0.0
      vertex 4.960870910595012 1.12793568107453 0.0
      vertex 3.9133930871840183 1.0731319325778161 0.0
    endloop
  endfacet
  facet normal 0.0 0.0 -1.0
    outer loop
      vertex 4.960870910595012 1.12793568107453 0.0
      vertex 4.2715061510737415 2.0207446398912334 0.0
      vertex 5.527981605113098 1.9996795821476263 0.0
    endloop
  endfacet
  facet normal 0.0 0.0 -1.0
    outer loop
      vertex 6.008849005941883 1.0624980641015636 0.0
      vertex 4.960870910595012 1.12793568107453 0.0
      vertex 5.527981605113098 1.9996795821476263 0.0
    endloop
  endfacet
  facet normal 0.0 0.0 -1.0
    outer loop
      vertex 4.736255132748715 8.006510242113668 0.0
      vertex 5.97771245179337 8.725007873554835 0.0
      vertex 6.305718760847043 7.568399999898033 0.0
    endloop
  endfacet
  facet normal -0.0 0.0 -1.0
    outer loop
      vertex 5.97771245179337 8.725007873554835 0.0
      vertex 4.736255132748715 8.006510242113668 0.0
      vertex 4.967128687679184 9.123576450635458 0.0
    endloop
  endfacet
  facet normal 0.0 0.0 -1.0
    outer loop
      vertex 6.305718760847043 7.568399999898033 0.0
      vertex 5.97771245179337 8.725007873554835 0.0
      vertex 7.067651449505807 8.44180933212721 0.0
    endloop
  endfacet
  facet normal 0.0 0.0 -1.0
    outer loop
      vertex 2.1911625733124955 2.5661285148450426 0.0
      vertex 2.5692808494056965 4.087742901326528 0.0
      vertex 3.5210884058167564 2.948692667395817 0.0
    endloop
  endfacet
  facet normal 0.0 0.0 -1.0
    outer loop
      vertex 2.5692808494056965 4.087742901326528 0.0
      vertex 2.1911625733124955 2.5661285148450426 0.0
      vertex 1.3407067524063012 3.4183052866794825 0.0
    endloop
  endfacet
  facet normal 0.0 0.0 -1.0
    outer loop
      vertex 2.1911625733124955 2.5661285148450426 0.0
      vertex 3.5210884058167564 2.948692667395817 0.0
      vertex 3.1232376306271776 1.7142465285378965 0.0
    endloop
  endfacet
  facet normal 0.0 -0.0 -1.0
    outer loop
      vertex 3.0538268818436825 8.087484089704077 0.0
      vertex 4.068328110364949 6.686265677831695 0.0
      vertex 2.498719673759276 6.461004870741921 0.0
    endloop
  endfacet
  facet normal 0.0 0.0 -1.0
    outer loop
      vertex 4.068328110364949 6.686265677831695 0.0
      vertex 3.0538268818436825 8.087484089704077 0.0
      vertex 4.736255132748715 8.006510242113668 0.0
    endloop
  endfacet
  facet normal 0.0 0.0 -1.0
    outer loop
      vertex 3.0538268818436825 8.087484089704077 0.0
      vertex 2.498719673759276 6.461004870741921 0.0
      vertex 1.9270477050805654 7.564448050729005 0.0
    endloop
  endfacet
  facet normal 0.0 0.0 -1.0
    outer loop
      vertex 4.736255132748715 8.006510242113668 0.0
      vertex 3.0538268818436825 8.087484089704077 0.0
      vertex 3.9483767809612265 8.949975761598171 0.0
    endloop
  endfacet
  facet normal 0.0 -0.0 -1.0
    outer loop
      vertex 8.380760611918296 6.543941638519487 0.0
      vertex 8.952071507482193 5.567030864256893 0.0
      vertex 7.762229217254601 5.4279601708189515 0.0
    endloop
  endfacet
  facet normal 0.0 0.0 -1.0
    outer loop
      vertex 8.380760611918296 6.543941638519487 0.0
      vertex 7.762229217254601 5.4279601708189515 0.0
      vertex 6.982370011620555 6.540854301720435 0.0
    endloop
  endfacet
  facet normal -0.0 0.0 -1.0
    outer loop
      vertex 8.380760611918296 6.543941638519487 0.0
      vertex 6.982370011620555 6.540854301720435 0.0
      vertex 7.703447300152776 7.588730939076621 0.0
    endloop
  endfacet
  facet normal 0.0 0.0 -1.0
    outer loop
      vertex 7.7485220567707875 2.5822883524179456 0.0
      vertex 6.285789245973809 2.9590298679105045 0.0
      vertex 7.35360435424643 3.996248615484757 0.0
    endloop
  endfacet
  facet normal 0.0 0.0 -1.0
    outer loop
      vertex 6.285789245973809 2.9590298679105045 0.0
      vertex 7.7485220567707875 2.5822883524179456 0.0
      vertex 6.811396197959756 1.7421716228026403 0.0
    endloop
  endfacet
  facet normal 0.0 0.0 -1.0
    outer loop
      vertex 7.7485220567707875 2.5822883524179456 0.0
      vertex 7.35360435424643 3.996248615484757 0.0
      vertex 8.678794677668352 3.3199507637611645 0.0
    endloop
  endfacet
  facet normal 0.0 -0.0 -1.0
    outer loop
      vertex 6.982370011620555 6.540854301720435 0.0
      vertex 7.762229217254601 5.4279601708189515 0.0
      vertex 6.3279164795928216 5.361743471351848 0.0
    endloop
  endfacet
  facet normal 0.0 0.0 -1.0
    outer loop
      vertex 6.3279164795928216 5.361743471351848 0.0
      vertex 7.762229217254601 5.4279601708189515 0.0
      vertex 7.35360435424643 3.996248615484757 0.0
    endloop
  endfacet
  facet normal -0.0 0.0 -1.0
    outer loop
      vertex 6.982370011620555 6.540854301720435 0.0
      vertex 6.3279164795928216 5.361743471351848 0.0
      vertex 5.509931235535642 6.597374862809516 0.0
    endloop
  endfacet
  facet normal 0.0 0.0 -1.0
    outer loop
      vertex 6.982370011620555 6.540854301720435 0.0
      vertex 5.509931235535642 6.597374862809516 0.0
      vertex 6.305718760847043 7.568399999898033 0.0
    endloop
  endfacet
  facet normal 0.0 0.0 -1.0
    outer loop
      vertex 7.703447300152776 7.588730939076621 0.0
      vertex 6.982370011620555 6.540854301720435 0.0
      vertex 6.305718760847043 7.568399999898033 0.0
    endloop
  endfacet
  facet normal 0.0 -0.0 -1.0
    outer loop
      vertex 5.509931235535642 6.597374862809516 0.0
      vertex 6.3279164795928216 5.361743471351848 0.0
      vertex 4.824083052374308 5.400392072378889 0.0
    endloop
  endfacet
  facet normal 0.0 0.0 -1.0
    outer loop
      vertex 4.824083052374308 5.400392072378889 0.0
      vertex 6.3279164795928216 5.361743471351848 0.0
      vertex 5.528823670414784 4.157895096219795 0.0
    endloop
  endfacet
  facet normal 0.0 0.0 -1.0
    outer loop
      vertex 5.528823670414784 4.157895096219795 0.0
      vertex 6.3279164795928216 5.361743471351848 0.0
      vertex 7.35360435424643 3.996248615484757 0.0
    endloop
  endfacet
  facet normal -0.0 0.0 -1.0
    outer loop
      vertex 5.509931235535642 6.597374862809516 0.0
      vertex 4.824083052374308 5.400392072378889 0.0
      vertex 4.068328110364949 6.686265677831695 0.0
    endloop
  endfacet
  facet normal 0.0 0.0 -1.0
    outer loop
      vertex 5.509931235535642 6.597374862809516 0.0
      vertex 4.068328110364949 6.686265677831695 0.0
      vertex 4.736255132748715 8.006510242113668 0.0
    endloop
  endfacet
  facet normal 0.0 0.0 -1.0
    outer loop
      vertex 5.509931235535642 6.597374862809516 0.0
      vertex 4.736255132748715 8.006510242113668 0.0
      vertex 6.305718760847043 7.568399999898033 0.0
    endloop
  endfacet
  facet normal 0.0 -0.0 -1.0
    outer loop
      vertex 4.824083052374308 5.400392072378889 0.0
      vertex 5.528823670414784 4.157895096219795 0.0
      vertex 4.103880961014594 4.195208814377105 0.0
    endloop
  endfacet
  facet normal 0.0 0.0 -1.0
    outer loop
      vertex 4.824083052374308 5.400392072378889 0.0
      vertex 4.103880961014594 4.195208814377105 0.0
      vertex 3.4600643153554533 5.395605748268413 0.0
    endloop
  endfacet
  facet normal -0.0 0.0 -1.0
    outer loop
      vertex 4.824083052374308 5.400392072378889 0.0
      vertex 3.4600643153554533 5.395605748268413 0.0
      vertex 4.068328110364949 6.686265677831695 0.0
    endloop
  endfacet
  facet normal 0.0 0.0 -1.0
    outer loop
      vertex 4.103880961014594 4.195208814377105 0.0
      vertex 5.528823670414784 4.157895096219795 0.0
      vertex 4.8294781191343885 3.0856976171052897 0.0
    endloop
  endfacet
  facet normal 0.0 0.0 -1.0
    outer loop
      vertex 4.8294781191343885 3.0856976171052897 0.0
      vertex 5.528823670414784 4.157895096219795 0.0
      vertex 6.285789245973809 2.9590298679105045 0.0
    endloop
  endfacet
  facet normal 0.0 0.0 -1.0
    outer loop
      vertex 6.285789245973809 2.9590298679105045 0.0
      vertex 5.528823670414784 4.157895096219795 0.0
      vertex 7.35360435424643 3.996248615484757 0.0
    endloop
  endfacet
  facet normal 0.0 -0.0 -1.0
    outer loop
      vertex 3.4600643153554533 5.395605748268413 0.0
      vertex 4.103880961014594 4.195208814377105 0.0
      vertex 2.5692808494056965 4.087742901326528 0.0
    endloop
  endfacet
  facet normal 0.0 0.0 -1.0
    outer loop
      vertex 2.5692808494056965 4.087742901326528 0.0
      vertex 4.103880961014594 4.195208814377105 0.0
      vertex 3.5210884058167564 2.948692667395817 0.0
    endloop
  endfacet
  facet normal 0.0 -0.0 -1.0
    outer loop
      vertex 4.103880961014594 4.195208814377105 0.0
      vertex 4.8294781191343885 3.0856976171052897 0.0
      vertex 3.5210884058167564 2.948692667395817 0.0
    endloop
  endfacet
  facet normal 0.0 0.0 -1.0
    outer loop
      vertex 3.4600643153554533 5.395605748268413 0.0
      vertex 2.5692808494056965 4.087742901326528 0.0
      vertex 2.276164823795667 5.2263431002760505 0.0
    endloop
  endfacet
  facet normal 0.0 0.0 -1.0
    outer loop
      vertex 4.068328110364949 6.686265677831695 0.0
      vertex 3.4600643153554533 5.395605748268413 0.0
      vertex 2.498719673759276 6.461004870741921 0.0
    endloop
  endfacet
  facet normal 0.0 -0.0 -1.0
    outer loop
      vertex 2.498719673759276 6.461004870741921 0.0
      vertex 3.4600643153554533 5.395605748268413 0.0
      vertex 2.276164823795667 5.2263431002760505 0.0
    endloop
  endfacet
  facet normal -0.0 0.0 -1.0
    outer loop
      vertex 2.5692808494056965 4.087742901326528 0.0
      vertex 1.3407067524063012 3.4183052866794825 0.0
      vertex 1.2818972558286976 4.485227454082858 0.0
    endloop
  endfacet
  facet normal 0.0 -0.0 -1.0
    outer loop
      vertex 2.276164823795667 5.2263431002760505 0.0
      vertex 2.5692808494056965 4.087742901326528 0.0
      vertex 1.2818972558286976 4.485227454082858 0.0
    endloop
  endfacet
  facet normal 0.0 0.0 -1.0
    outer loop
      vertex 4.8294781191343885 3.0856976171052897 0.0
      vertex 6.285789245973809 2.9590298679105045 0.0
      vertex 5.527981605113098 1.9996795821476263 0.0
    endloop
  endfacet
  facet normal 0.0 0.0 -1.0
    outer loop
      vertex 3.5210884058167564 2.948692667395817 0.0
      vertex 4.8294781191343885 3.0856976171052897 0.0
      vertex 4.2715061510737415 2.0207446398912334 0.0
    endloop
  endfacet
  facet normal 0.0 0.0 -1.0
    outer loop
      vertex 4.2715061510737415 2.0207446398912334 0.0
      vertex 4.8294781191343885 3.0856976171052897 0.0
      vertex 5.527981605113098 1.9996795821476263 0.0
    endloop
  endfacet
  facet normal 0.0 -0.0 -1.0
    outer loop
      vertex 6.285789245973809 2.9590298679105045 0.0
      vertex 6.811396197959756 1.7421716228026403 0.0
      vertex 5.527981605113098 1.9996795821476263 0.0
    endloop
  endfacet
  facet normal 0.0 -0.0 -1.0
    outer loop
      vertex 1.9270477050805654 7.564448050729005 0.0
      vertex 2.498719673759276 6.461004870741921 0.0
      vertex 1.344946164809689 6.744991202675658 0.0
    endloop
  endfacet
  facet normal 0.0 0.0 -1.0
    outer loop
      vertex 4.967128687679184 9.123576450635458 0.0
      vertex 4.736255132748715 8.006510242113668 0.0
      vertex 3.9483767809612265 8.949975761598171 0.0
    endloop
  endfacet
  facet normal 0.0 0.0 -1.0
    outer loop
      vertex 3.1232376306271776 1.7142465285378965 0.0
      vertex 3.5210884058167564 2.948692667395817 0.0
      vertex 4.2715061510737415 2.0207446398912334 0.0
    endloop
  endfacet
  facet normal -0.0 0.0 -1.0
    outer loop
      vertex 6.811396197959756 1.7421716228026403 0.0
      vertex 6.008849005941883 1.0624980641015636 0.0
      vertex 5.527981605113098 1.9996795821476263 0.0
    endloop
  endfacet
  facet normal 0.0 0.0 -1.0
    outer loop
      vertex 3.1232376306271776 1.7142465285378965 0.0
      vertex 4.2715061510737415 2.0207446398912334 0.0
      vertex 3.9133930871840183 1.0731319325778161 0.0
    endloop
  endfacet
  facet normal -0.0 0.0 -1.0
    outer loop
      vertex 7.703447300152776 7.588730939076621 0.0
      vertex 6.305718760847043 7.568399999898033 0.0
      vertex 7.067651449505807 8.44180933212721 0.0
    endloop
  endfacet
  facet normal 0.0 0.0 1.0
    outer loop
      vertex 9.797464868072487 6.40866278398849 2.30038286123459
      vertex 8.952071507482193 5.567030864256893 2.30038286123459
      vertex 9.99999999087225 4.99999999978134 2.30038286123459
    endloop
  endfacet
  facet normal 0.0 0.0 1.0
    outer loop
      vertex 9.99999999087225 4.99999999978134 2.30038286123459
      vertex 8.678794678660665 4.471069176925723 2.30038286123459
      vertex 9.797464868072487 3.591337215574191 2.30038286123459
    endloop
  endfacet
  facet normal 0.0 0.0 1.0
    outer loop
      vertex 9.99999999087225 4.99999999978134 2.30038286123459
      vertex 8.952071507482193 5.567030864256893 2.30038286123459
      vertex 8.678794678660665 4.471069176925723 2.30038286123459
    endloop
  endfacet
  facet normal 0.0 0.0 1.0
    outer loop
      vertex 9.206267664155902 7.703204087059331 2.30038286123459
      vertex 8.380760611918296 6.543941638519487 2.30038286123459
      vertex 9.797464868072487 6.40866278398849 2.30038286123459
    endloop
  endfacet
  facet normal 0.0 0.0 1.0
    outer loop
      vertex 8.380760611918296 6.543941638519487 2.30038286123459
      vertex 8.952071507482193 5.567030864256893 2.30038286123459
      vertex 9.797464868072487 6.40866278398849 2.30038286123459
    endloop
  endfacet
  facet normal 0.0 0.0 1.0
    outer loop
      vertex 8.274303669726422 8.778747871552635 2.30038286123459
      vertex 7.703447300152776 7.588730939076621 2.30038286123459
      vertex 9.206267664155902 7.703204087059331 2.30038286123459
    endloop
  endfacet
  facet normal 0.0 0.0 1.0
    outer loop
      vertex 9.206267664155902 7.703204087059331 2.30038286123459
      vertex 7.703447300152776 7.588730939076621 2.30038286123459
      vertex 8.380760611918296 6.543941638519487 2.30038286123459
    endloop
  endfacet
  facet normal 0.0 0.0 1.0
    outer loop
      vertex 7.077075065009425 9.548159976553933 2.30038286123459
      vertex 7.067651449505807 8.44180933212721 2.30038286123459
      vertex 8.274303669726422 8.778747871552635 2.30038286123459
    endloop
  endfacet
  facet normal 0.0 0.0 1.0
    outer loop
      vertex 8.274303669726422 8.778747871552635 2.30038286123459
      vertex 7.067651449505807 8.44180933212721 2.30038286123459
      vertex 7.703447300152776 7.588730939076621 2.30038286123459
    endloop
  endfacet
  facet normal 0.0 0.0 1.0
    outer loop
      vertex 5.711574191366414 9.949107209186005 2.30038286123459
      vertex 5.97771245179337 8.725007873554835 2.30038286123459
      vertex 7.077075065009425 9.548159976553933 2.30038286123459
    endloop
  endfacet
  facet normal -0.0 0.0 1.0
    outer loop
      vertex 5.97771245179337 8.725007873554835 2.30038286123459
      vertex 7.067651449505807 8.44180933212721 2.30038286123459
      vertex 7.077075065009425 9.548159976553933 2.30038286123459
    endloop
  endfacet
  facet normal -0.0 0.0 1.0
    outer loop
      vertex 4.288425808633559 9.949107209186002 2.30038286123459
      vertex 4.967128687679184 9.123576450635458 2.30038286123459
      vertex 5.711574191366414 9.949107209186005 2.30038286123459
    endloop
  endfacet
  facet normal 0.0 0.0 1.0
    outer loop
      vertex 5.711574191366414 9.949107209186005 2.30038286123459
      vertex 4.967128687679184 9.123576450635458 2.30038286123459
      vertex 5.97771245179337 8.725007873554835 2.30038286123459
    endloop
  endfacet
  facet normal -0.0 0.0 1.0
    outer loop
      vertex 2.922924934990549 9.548159976553926 2.30038286123459
      vertex 3.9483767809612265 8.949975761598171 2.30038286123459
      vertex 4.288425808633559 9.949107209186002 2.30038286123459
    endloop
  endfacet
  facet normal 0.0 0.0 1.0
    outer loop
      vertex 4.288425808633559 9.949107209186002 2.30038286123459
      vertex 3.9483767809612265 8.949975761598171 2.30038286123459
      vertex 4.967128687679184 9.123576450635458 2.30038286123459
    endloop
  endfacet
  facet normal -0.0 0.0 1.0
    outer loop
      vertex 1.72569633027356 8.778747871552618 2.30038286123459
      vertex 3.0538268818436825 8.087484089704077 2.30038286123459
      vertex 2.922924934990549 9.548159976553926 2.30038286123459
    endloop
  endfacet
  facet normal 0.0 -0.0 1.0
    outer loop
      vertex 3.0538268818436825 8.087484089704077 2.30038286123459
      vertex 3.9483767809612265 8.949975761598171 2.30038286123459
      vertex 2.922924934990549 9.548159976553926 2.30038286123459
    endloop
  endfacet
  facet normal -0.0 0.0 1.0
    outer loop
      vertex 0.7937323358440852 7.703204087059312 2.30038286123459
      vertex 1.9270477050805654 7.564448050729005 2.30038286123459
      vertex 1.72569633027356 8.778747871552618 2.30038286123459
    endloop
  endfacet
  facet normal 0.0 0.0 1.0
    outer loop
      vertex 1.72569633027356 8.778747871552618 2.30038286123459
      vertex 1.9270477050805654 7.564448050729005 2.30038286123459
      vertex 3.0538268818436825 8.087484089704077 2.30038286123459
    endloop
  endfacet
  facet normal 0.0 0.0 1.0
    outer loop
      vertex 0.2025351319275092 6.408662783988473 2.30038286123459
      vertex 1.344946164809689 6.744991202675658 2.30038286123459
      vertex 0.7937323358440852 7.703204087059312 2.30038286123459
    endloop
  endfacet
  facet normal 0.0 0.0 1.0
    outer loop
      vertex 0.7937323358440852 7.703204087059312 2.30038286123459
      vertex 1.344946164809689 6.744991202675658 2.30038286123459
      vertex 1.9270477050805654 7.564448050729005 2.30038286123459
    endloop
  endfacet
  facet normal 0.0 0.0 1.0
    outer loop
      vertex 0.0 4.999999999781325 2.30038286123459
      vertex 1.3026959774370073 5.587636220859579 2.30038286123459
      vertex 0.2025351319275092 6.408662783988473 2.30038286123459
    endloop
  endfacet
  facet normal 0.0 -0.0 1.0
    outer loop
      vertex 1.3026959774370073 5.587636220859579 2.30038286123459
      vertex 1.344946164809689 6.744991202675658 2.30038286123459
      vertex 0.2025351319275092 6.408662783988473 2.30038286123459
    endloop
  endfacet
  facet normal 0.0 -0.0 1.0
    outer loop
      vertex 0.2025351319275159 3.5913372155741805 2.30038286123459
      vertex 1.2818972558286976 4.485227454082858 2.30038286123459
      vertex 0.0 4.999999999781325 2.30038286123459
    endloop
  endfacet
  facet normal -0.0 0.0 1.0
    outer loop
      vertex 0.0 4.999999999781325 2.30038286123459
      vertex 1.2818972558286976 4.485227454082858 2.30038286123459
      vertex 1.3026959774370073 5.587636220859579 2.30038286123459
    endloop
  endfacet
  facet normal 0.0 -0.0 1.0
    outer loop
      vertex 0.7937323358440994 2.2967959125033413 2.30038286123459
      vertex 1.3407067524063012 3.4183052866794825 2.30038286123459
      vertex 0.2025351319275159 3.5913372155741805 2.30038286123459
    endloop
  endfacet
  facet normal 0.0 0.0 1.0
    outer loop
      vertex 1.3407067524063012 3.4183052866794825 2.30038286123459
      vertex 1.2818972558286976 4.485227454082858 2.30038286123459
      vertex 0.2025351319275159 3.5913372155741805 2.30038286123459
    endloop
  endfacet
  facet normal 0.0 -0.0 1.0
    outer loop
      vertex 1.7256963302735815 1.221252128010042 2.30038286123459
      vertex 2.1911625733124955 2.5661285148450426 2.30038286123459
      vertex 0.7937323358440994 2.2967959125033413 2.30038286123459
    endloop
  endfacet
  facet normal 0.0 0.0 1.0
    outer loop
      vertex 2.1911625733124955 2.5661285148450426 2.30038286123459
      vertex 1.3407067524063012 3.4183052866794825 2.30038286123459
      vertex 0.7937323358440994 2.2967959125033413 2.30038286123459
    endloop
  endfacet
  facet normal 0.0 -0.0 1.0
    outer loop
      vertex 2.9229249349905766 0.4518400230087437 2.30038286123459
      vertex 3.1232376306271776 1.7142465285378965 2.30038286123459
      vertex 1.7256963302735815 1.221252128010042 2.30038286123459
    endloop
  endfacet
  facet normal 0.0 0.0 1.0
    outer loop
      vertex 1.7256963302735815 1.221252128010042 2.30038286123459
      vertex 3.1232376306271776 1.7142465285378965 2.30038286123459
      vertex 2.1911625733124955 2.5661285148450426 2.30038286123459
    endloop
  endfacet
  facet normal 0.0 0.0 1.0
    outer loop
      vertex 4.2884258086335825 0.050892790376673866 2.30038286123459
      vertex 3.9133930871840183 1.0731319325778161 2.30038286123459
      vertex 2.9229249349905766 0.4518400230087437 2.30038286123459
    endloop
  endfacet
  facet normal 0.0 0.0 1.0
    outer loop
      vertex 2.9229249349905766 0.4518400230087437 2.30038286123459
      vertex 3.9133930871840183 1.0731319325778161 2.30038286123459
      vertex 3.1232376306271776 1.7142465285378965 2.30038286123459
    endloop
  endfacet
  facet normal 0.0 0.0 1.0
    outer loop
      vertex 5.711574191366433 0.050892790376676385 2.30038286123459
      vertex 4.960870910595012 1.12793568107453 2.30038286123459
      vertex 4.2884258086335825 0.050892790376673866 2.30038286123459
    endloop
  endfacet
  facet normal 0.0 0.0 1.0
    outer loop
      vertex 4.960870910595012 1.12793568107453 2.30038286123459
      vertex 3.9133930871840183 1.0731319325778161 2.30038286123459
      vertex 4.2884258086335825 0.050892790376673866 2.30038286123459
    endloop
  endfacet
  facet normal 0.0 0.0 1.0
    outer loop
      vertex 7.077075065009438 0.45184002300875126 2.30038286123459
      vertex 6.008849005941883 1.0624980641015636 2.30038286123459
      vertex 5.711574191366433 0.050892790376676385 2.30038286123459
    endloop
  endfacet
  facet normal 0.0 -0.0 1.0
    outer loop
      vertex 5.711574191366433 0.050892790376676385 2.30038286123459
      vertex 6.008849005941883 1.0624980641015636 2.30038286123459
      vertex 4.960870910595012 1.12793568107453 2.30038286123459
    endloop
  endfacet
  facet normal 0.0 0.0 1.0
    outer loop
      vertex 8.274303669726425 1.221252128010049 2.30038286123459
      vertex 6.811396197959756 1.7421716228026403 2.30038286123459
      vertex 7.077075065009438 0.45184002300875126 2.30038286123459
    endloop
  endfacet
  facet normal 0.0 0.0 1.0
    outer loop
      vertex 6.811396197959756 1.7421716228026403 2.30038286123459
      vertex 6.008849005941883 1.0624980641015636 2.30038286123459
      vertex 7.077075065009438 0.45184002300875126 2.30038286123459
    endloop
  endfacet
  facet normal 0.0 0.0 1.0
    outer loop
      vertex 9.206267664155908 2.2967959125033555 2.30038286123459
      vertex 7.7485220567707875 2.5822883524179456 2.30038286123459
      vertex 8.274303669726425 1.221252128010049 2.30038286123459
    endloop
  endfacet
  facet normal 0.0 0.0 1.0
    outer loop
      vertex 7.7485220567707875 2.5822883524179456 2.30038286123459
      vertex 6.811396197959756 1.7421716228026403 2.30038286123459
      vertex 8.274303669726425 1.221252128010049 2.30038286123459
    endloop
  endfacet
  facet normal 0.0 0.0 1.0
    outer loop
      vertex 9.797464868072487 3.591337215574191 2.30038286123459
      vertex 8.678794677668352 3.3199507637611645 2.30038286123459
      vertex 9.206267664155908 2.2967959125033555 2.30038286123459
    endloop
  endfacet
  facet normal 0.0 0.0 1.0
    outer loop
      vertex 9.206267664155908 2.2967959125033555 2.30038286123459
      vertex 8.678794677668352 3.3199507637611645 2.30038286123459
      vertex 7.7485220567707875 2.5822883524179456 2.30038286123459
    endloop
  endfacet
  facet normal 0.0 0.0 1.0
    outer loop
      vertex 8.678794678660665 4.471069176925723 2.30038286123459
      vertex 8.678794677668352 3.3199507637611645 2.30038286123459
      vertex 9.797464868072487 3.591337215574191 2.30038286123459
    endloop
  endfacet
  facet normal 0.0 0.0 1.0
    outer loop
      vertex 8.952071507482193 5.567030864256893 2.30038286123459
      vertex 7.762229217254601 5.4279601708189515 2.30038286123459
      vertex 8.678794678660665 4.471069176925723 2.30038286123459
    endloop
  endfacet
  facet normal 0.0 0.0 1.0
    outer loop
      vertex 7.762229217254601 5.4279601708189515 2.30038286123459
      vertex 7.35360435424643 3.996248615484757 2.30038286123459
      vertex 8.678794678660665 4.471069176925723 2.30038286123459
    endloop
  endfacet
  facet normal -0.0 0.0 1.0
    outer loop
      vertex 7.35360435424643 3.996248615484757 2.30038286123459
      vertex 8.678794677668352 3.3199507637611645 2.30038286123459
      vertex 8.678794678660665 4.471069176925723 2.30038286123459
    endloop
  endfacet
  facet normal 0.0 0.0 1.0
    outer loop
      vertex 2.498719673759276 6.461004870741921 2.30038286123459
      vertex 1.344946164809689 6.744991202675658 2.30038286123459
      vertex 1.3026959774370073 5.587636220859579 2.30038286123459
    endloop
  endfacet
  facet normal -0.0 0.0 1.0
    outer loop
      vertex 1.3026959774370073 5.587636220859579 2.30038286123459
      vertex 2.276164823795667 5.2263431002760505 2.30038286123459
      vertex 2.498719673759276 6.461004870741921 2.30038286123459
    endloop
  endfacet
  facet normal 0.0 0.0 1.0
    outer loop
      vertex 1.3026959774370073 5.587636220859579 2.30038286123459
      vertex 1.2818972558286976 4.485227454082858 2.30038286123459
      vertex 2.276164823795667 5.2263431002760505 2.30038286123459
    endloop
  endfacet
  facet normal 0.0 0.0 1.0
    outer loop
      vertex 4.2715061510737415 2.0207446398912334 2.30038286123459
      vertex 3.9133930871840183 1.0731319325778161 2.30038286123459
      vertex 4.960870910595012 1.12793568107453 2.30038286123459
    endloop
  endfacet
  facet normal 0.0 -0.0 1.0
    outer loop
      vertex 4.960870910595012 1.12793568107453 2.30038286123459
      vertex 5.527981605113098 1.9996795821476263 2.30038286123459
      vertex 4.2715061510737415 2.0207446398912334 2.30038286123459
    endloop
  endfacet
  facet normal 0.0 0.0 1.0
    outer loop
      vertex 6.008849005941883 1.0624980641015636 2.30038286123459
      vertex 5.527981605113098 1.9996795821476263 2.30038286123459
      vertex 4.960870910595012 1.12793568107453 2.30038286123459
    endloop
  endfacet
  facet normal -0.0 0.0 1.0
    outer loop
      vertex 4.736255132748715 8.006510242113668 2.30038286123459
      vertex 6.305718760847043 7.568399999898033 2.30038286123459
      vertex 5.97771245179337 8.725007873554835 2.30038286123459
    endloop
  endfacet
  facet normal 0.0 0.0 1.0
    outer loop
      vertex 5.97771245179337 8.725007873554835 2.30038286123459
      vertex 4.967128687679184 9.123576450635458 2.30038286123459
      vertex 4.736255132748715 8.006510242113668 2.30038286123459
    endloop
  endfacet
  facet normal 0.0 -0.0 1.0
    outer loop
      vertex 6.305718760847043 7.568399999898033 2.30038286123459
      vertex 7.067651449505807 8.44180933212721 2.30038286123459
      vertex 5.97771245179337 8.725007873554835 2.30038286123459
    endloop
  endfacet
  facet normal 0.0 0.0 1.0
    outer loop
      vertex 2.1911625733124955 2.5661285148450426 2.30038286123459
      vertex 3.5210884058167564 2.948692667395817 2.30038286123459
      vertex 2.5692808494056965 4.087742901326528 2.30038286123459
    endloop
  endfacet
  facet normal 0.0 0.0 1.0
    outer loop
      vertex 2.5692808494056965 4.087742901326528 2.30038286123459
      vertex 1.3407067524063012 3.4183052866794825 2.30038286123459
      vertex 2.1911625733124955 2.5661285148450426 2.30038286123459
    endloop
  endfacet
  facet normal -0.0 0.0 1.0
    outer loop
      vertex 2.1911625733124955 2.5661285148450426 2.30038286123459
      vertex 3.1232376306271776 1.7142465285378965 2.30038286123459
      vertex 3.5210884058167564 2.948692667395817 2.30038286123459
    endloop
  endfacet
  facet normal 0.0 0.0 1.0
    outer loop
      vertex 3.0538268818436825 8.087484089704077 2.30038286123459
      vertex 2.498719673759276 6.461004870741921 2.30038286123459
      vertex 4.068328110364949 6.686265677831695 2.30038286123459
    endloop
  endfacet
  facet normal 0.0 -0.0 1.0
    outer loop
      vertex 4.068328110364949 6.686265677831695 2.30038286123459
      vertex 4.736255132748715 8.006510242113668 2.30038286123459
      vertex 3.0538268818436825 8.087484089704077 2.30038286123459
    endloop
  endfacet
  facet normal 0.0 0.0 1.0
    outer loop
      vertex 3.0538268818436825 8.087484089704077 2.30038286123459
      vertex 1.9270477050805654 7.564448050729005 2.30038286123459
      vertex 2.498719673759276 6.461004870741921 2.30038286123459
    endloop
  endfacet
  facet normal 0.0 0.0 1.0
    outer loop
      vertex 4.736255132748715 8.006510242113668 2.30038286123459
      vertex 3.9483767809612265 8.949975761598171 2.30038286123459
      vertex 3.0538268818436825 8.087484089704077 2.30038286123459
    endloop
  endfacet
  facet normal 0.0 0.0 1.0
    outer loop
      vertex 8.380760611918296 6.543941638519487 2.30038286123459
      vertex 7.762229217254601 5.4279601708189515 2.30038286123459
      vertex 8.952071507482193 5.567030864256893 2.30038286123459
    endloop
  endfacet
  facet normal 0.0 0.0 1.0
    outer loop
      vertex 8.380760611918296 6.543941638519487 2.30038286123459
      vertex 6.982370011620555 6.540854301720435 2.30038286123459
      vertex 7.762229217254601 5.4279601708189515 2.30038286123459
    endloop
  endfacet
  facet normal 0.0 0.0 1.0
    outer loop
      vertex 8.380760611918296 6.543941638519487 2.30038286123459
      vertex 7.703447300152776 7.588730939076621 2.30038286123459
      vertex 6.982370011620555 6.540854301720435 2.30038286123459
    endloop
  endfacet
  facet normal 0.0 0.0 1.0
    outer loop
      vertex 7.7485220567707875 2.5822883524179456 2.30038286123459
      vertex 7.35360435424643 3.996248615484757 2.30038286123459
      vertex 6.285789245973809 2.9590298679105045 2.30038286123459
    endloop
  endfacet
  facet normal 0.0 0.0 1.0
    outer loop
      vertex 6.285789245973809 2.9590298679105045 2.30038286123459
      vertex 6.811396197959756 1.7421716228026403 2.30038286123459
      vertex 7.7485220567707875 2.5822883524179456 2.30038286123459
    endloop
  endfacet
  facet normal 0.0 -0.0 1.0
    outer loop
      vertex 7.7485220567707875 2.5822883524179456 2.30038286123459
      vertex 8.678794677668352 3.3199507637611645 2.30038286123459
      vertex 7.35360435424643 3.996248615484757 2.30038286123459
    endloop
  endfacet
  facet normal 0.0 0.0 1.0
    outer loop
      vertex 6.982370011620555 6.540854301720435 2.30038286123459
      vertex 6.3279164795928216 5.361743471351848 2.30038286123459
      vertex 7.762229217254601 5.4279601708189515 2.30038286123459
    endloop
  endfacet
  facet normal -0.0 0.0 1.0
    outer loop
      vertex 6.3279164795928216 5.361743471351848 2.30038286123459
      vertex 7.35360435424643 3.996248615484757 2.30038286123459
      vertex 7.762229217254601 5.4279601708189515 2.30038286123459
    endloop
  endfacet
  facet normal 0.0 0.0 1.0
    outer loop
      vertex 6.982370011620555 6.540854301720435 2.30038286123459
      vertex 5.509931235535642 6.597374862809516 2.30038286123459
      vertex 6.3279164795928216 5.361743471351848 2.30038286123459
    endloop
  endfacet
  facet normal 0.0 0.0 1.0
    outer loop
      vertex 6.982370011620555 6.540854301720435 2.30038286123459
      vertex 6.305718760847043 7.568399999898033 2.30038286123459
      vertex 5.509931235535642 6.597374862809516 2.30038286123459
    endloop
  endfacet
  facet normal 0.0 0.0 1.0
    outer loop
      vertex 7.703447300152776 7.588730939076621 2.30038286123459
      vertex 6.305718760847043 7.568399999898033 2.30038286123459
      vertex 6.982370011620555 6.540854301720435 2.30038286123459
    endloop
  endfacet
  facet normal 0.0 0.0 1.0
    outer loop
      vertex 5.509931235535642 6.597374862809516 2.30038286123459
      vertex 4.824083052374308 5.400392072378889 2.30038286123459
      vertex 6.3279164795928216 5.361743471351848 2.30038286123459
    endloop
  endfacet
  facet normal 0.0 0.0 1.0
    outer loop
      vertex 4.824083052374308 5.400392072378889 2.30038286123459
      vertex 5.528823670414784 4.157895096219795 2.30038286123459
      vertex 6.3279164795928216 5.361743471351848 2.30038286123459
    endloop
  endfacet
  facet normal -0.0 0.0 1.0
    outer loop
      vertex 5.528823670414784 4.157895096219795 2.30038286123459
      vertex 7.35360435424643 3.996248615484757 2.30038286123459
      vertex 6.3279164795928216 5.361743471351848 2.30038286123459
    endloop
  endfacet
  facet normal 0.0 0.0 1.0
    outer loop
      vertex 5.509931235535642 6.597374862809516 2.30038286123459
      vertex 4.068328110364949 6.686265677831695 2.30038286123459
      vertex 4.824083052374308 5.400392072378889 2.30038286123459
    endloop
  endfacet
  facet normal 0.0 0.0 1.0
    outer loop
      vertex 5.509931235535642 6.597374862809516 2.30038286123459
      vertex 4.736255132748715 8.006510242113668 2.30038286123459
      vertex 4.068328110364949 6.686265677831695 2.30038286123459
    endloop
  endfacet
  facet normal 0.0 -0.0 1.0
    outer loop
      vertex 5.509931235535642 6.597374862809516 2.30038286123459
      vertex 6.305718760847043 7.568399999898033 2.30038286123459
      vertex 4.736255132748715 8.006510242113668 2.30038286123459
    endloop
  endfacet
  facet normal 0.0 0.0 1.0
    outer loop
      vertex 4.824083052374308 5.400392072378889 2.30038286123459
      vertex 4.103880961014594 4.195208814377105 2.30038286123459
      vertex 5.528823670414784 4.157895096219795 2.30038286123459
    endloop
  endfacet
  facet normal 0.0 0.0 1.0
    outer loop
      vertex 4.824083052374308 5.400392072378889 2.30038286123459
      vertex 3.4600643153554533 5.395605748268413 2.30038286123459
      vertex 4.103880961014594 4.195208814377105 2.30038286123459
    endloop
  endfacet
  facet normal 0.0 0.0 1.0
    outer loop
      vertex 4.824083052374308 5.400392072378889 2.30038286123459
      vertex 4.068328110364949 6.686265677831695 2.30038286123459
      vertex 3.4600643153554533 5.395605748268413 2.30038286123459
    endloop
  endfacet
  facet normal 0.0 0.0 1.0
    outer loop
      vertex 4.103880961014594 4.195208814377105 2.30038286123459
      vertex 4.8294781191343885 3.0856976171052897 2.30038286123459
      vertex 5.528823670414784 4.157895096219795 2.30038286123459
    endloop
  endfacet
  facet normal -0.0 0.0 1.0
    outer loop
      vertex 4.8294781191343885 3.0856976171052897 2.30038286123459
      vertex 6.285789245973809 2.9590298679105045 2.30038286123459
      vertex 5.528823670414784 4.157895096219795 2.30038286123459
    endloop
  endfacet
  facet normal 0.0 -0.0 1.0
    outer loop
      vertex 6.285789245973809 2.9590298679105045 2.30038286123459
      vertex 7.35360435424643 3.996248615484757 2.30038286123459
      vertex 5.528823670414784 4.157895096219795 2.30038286123459
    endloop
  endfacet
  facet normal 0.0 0.0 1.0
    outer loop
      vertex 3.4600643153554533 5.395605748268413 2.30038286123459
      vertex 2.5692808494056965 4.087742901326528 2.30038286123459
      vertex 4.103880961014594 4.195208814377105 2.30038286123459
    endloop
  endfacet
  facet normal -0.0 0.0 1.0
    outer loop
      vertex 2.5692808494056965 4.087742901326528 2.30038286123459
      vertex 3.5210884058167564 2.948692667395817 2.30038286123459
      vertex 4.103880961014594 4.195208814377105 2.30038286123459
    endloop
  endfacet
  facet normal 0.0 0.0 1.0
    outer loop
      vertex 4.103880961014594 4.195208814377105 2.30038286123459
      vertex 3.5210884058167564 2.948692667395817 2.30038286123459
      vertex 4.8294781191343885 3.0856976171052897 2.30038286123459
    endloop
  endfacet
  facet normal 0.0 0.0 1.0
    outer loop
      vertex 3.4600643153554533 5.395605748268413 2.30038286123459
      vertex 2.276164823795667 5.2263431002760505 2.30038286123459
      vertex 2.5692808494056965 4.087742901326528 2.30038286123459
    endloop
  endfacet
  facet normal 0.0 0.0 1.0
    outer loop
      vertex 4.068328110364949 6.686265677831695 2.30038286123459
      vertex 2.498719673759276 6.461004870741921 2.30038286123459
      vertex 3.4600643153554533 5.395605748268413 2.30038286123459
    endloop
  endfacet
  facet normal 0.0 0.0 1.0
    outer loop
      vertex 2.498719673759276 6.461004870741921 2.30038286123459
      vertex 2.276164823795667 5.2263431002760505 2.30038286123459
      vertex 3.4600643153554533 5.395605748268413 2.30038286123459
    endloop
  endfacet
  facet normal 0.0 0.0 1.0
    outer loop
      vertex 2.5692808494056965 4.087742901326528 2.30038286123459
      vertex 1.2818972558286976 4.485227454082858 2.30038286123459
      vertex 1.3407067524063012 3.4183052866794825 2.30038286123459
    endloop
  endfacet
  facet normal 0.0 0.0 1.0
    outer loop
      vertex 2.276164823795667 5.2263431002760505 2.30038286123459
      vertex 1.2818972558286976 4.485227454082858 2.30038286123459
      vertex 2.5692808494056965 4.087742901326528 2.30038286123459
    endloop
  endfacet
  facet normal 0.0 0.0 1.0
    outer loop
      vertex 4.8294781191343885 3.0856976171052897 2.30038286123459
      vertex 5.527981605113098 1.9996795821476263 2.30038286123459
      vertex 6.285789245973809 2.9590298679105045 2.30038286123459
    endloop
  endfacet
  facet normal -0.0 0.0 1.0
    outer loop
      vertex 3.5210884058167564 2.948692667395817 2.30038286123459
      vertex 4.2715061510737415 2.0207446398912334 2.30038286123459
      vertex 4.8294781191343885 3.0856976171052897 2.30038286123459
    endloop
  endfacet
  facet normal -0.0 0.0 1.0
    outer loop
      vertex 4.2715061510737415 2.0207446398912334 2.30038286123459
      vertex 5.527981605113098 1.9996795821476263 2.30038286123459
      vertex 4.8294781191343885 3.0856976171052897 2.30038286123459
    endloop
  endfacet
  facet normal 0.0 0.0 1.0
    outer loop
      vertex 6.285789245973809 2.9590298679105045 2.30038286123459
      vertex 5.527981605113098 1.9996795821476263 2.30038286123459
      vertex 6.811396197959756 1.7421716228026403 2.30038286123459
    endloop
  endfacet
  facet normal 0.0 0.0 1.0
    outer loop
      vertex 1.9270477050805654 7.564448050729005 2.30038286123459
      vertex 1.344946164809689 6.744991202675658 2.30038286123459
      vertex 2.498719673759276 6.461004870741921 2.30038286123459
    endloop
  endfacet
  facet normal 0.0 0.0 1.0
    outer loop
      vertex 4.967128687679184 9.123576450635458 2.30038286123459
      vertex 3.9483767809612265 8.949975761598171 2.30038286123459
      vertex 4.736255132748715 8.006510242113668 2.30038286123459
    endloop
  endfacet
  facet normal 0.0 0.0 1.0
    outer loop
      vertex 3.1232376306271776 1.7142465285378965 2.30038286123459
      vertex 4.2715061510737415 2.0207446398912334 2.30038286123459
      vertex 3.5210884058167564 2.948692667395817 2.30038286123459
    endloop
  endfacet
  facet normal 0.0 0.0 1.0
    outer loop
      vertex 6.811396197959756 1.7421716228026403 2.30038286123459
      vertex 5.527981605113098 1.9996795821476263 2.30038286123459
      vertex 6.008849005941883 1.0624980641015636 2.30038286123459
    endloop
  endfacet
  facet normal -0.0 0.0 1.0
    outer loop
      vertex 3.1232376306271776 1.7142465285378965 2.30038286123459
      vertex 3.9133930871840183 1.0731319325778161 2.30038286123459
      vertex 4.2715061510737415 2.0207446398912334 2.30038286123459
    endloop
  endfacet
  facet normal 0.0 0.0 1.0
    outer loop
      vertex 7.703447300152776 7.588730939076621 2.30038286123459
      vertex 7.067651449505807 8.44180933212721 2.30038286123459
      vertex 6.305718760847043 7.568399999898033 2.30038286123459
    endloop
  endfacet
endsolid abc_micro_005
