solid abc_100_083
  facet normal -1.0 0.0 0.0
    outer loop
      vertex 0.020408163265306117 0.08843537414965985 2.36734693877551
      vertex 0.020408163265306117 0.06802721088435373 2.36734693877551
      vertex 0.020408163265306117 0.06802721088435373 2.6938775510204085
    endloop
  endfacet
  facet normal -1.0 -0.0 -0.0
    outer loop
      vertex 0.020408163265306117 0.08843537414965985 2.6938775510204085
      vertex 0.020408163265306117 0.08843537414965985 2.36734693877551
      vertex 0.020408163265306117 0.06802721088435373 2.6938775510204085
    endloop
  endfacet
  facet normal -1.0 0.0 0.0
    outer loop
      vertex 0.020408163265306117 0.06802721088435373 2.6938775510204085
      vertex 0.020408163265306117 0.06802721088435373 3.020408163265306
      vertex 0.020408163265306117 0.08843537414965985 3.020408163265306
    endloop
  endfacet
  facet normal -1.0 0.0 0.0
    outer loop
      vertex 0.020408163265306117 0.08843537414965985 2.6938775510204085
      vertex 0.020408163265306117 0.06802721088435373 2.6938775510204085
      vertex 0.020408163265306117 0.08843537414965985 3.020408163265306
    endloop
  endfacet
  facet normal 0.0 -1.0 0.0
    outer loop
      vertex 0.020408163265306117 0.06802721088435373 2.6938775510204085
      vertex 0.020408163265306117 0.06802721088435373 2.36734693877551
      vertex 0.06802721088435373 0.06802721088435373 2.36734693877551
    endloop
  endfacet
  facet normal 0.0 -1.0 0.0
    outer loop
      vertex 0.06802721088435373 0.06802721088435373 2.6938775510204085
      vertex 0.06802721088435373 0.06802721088435373 3.020408163265306
      vertex 0.020408163265306117 0.06802721088435373 3.020408163265306
    endloop
  endfacet
  facet normal 0.0 -1.0 0.0
    outer loop
      vertex 0.020408163265306117 0.06802721088435373 2.6938775510204085
      vertex 0.06802721088435373 0.06802721088435373 2.6938775510204085
      vertex 0.020408163265306117 0.06802721088435373 3.020408163265306
    endloop
  endfacet
  facet normal 0.0 -1.0 0.0
    outer loop
      vertex 0.020408163265306117 0.06802721088435373 2.6938775510204085
      vertex 0.06802721088435373 0.06802721088435373 2.36734693877551
      vertex 0.06802721088435373 0.06802721088435373 2.6938775510204085
    endloop
  endfacet
  facet normal 1.0 0.0 0.0
    outer loop
      vertex 0.06802721088435373 0.08843537414965985 2.36734693877551
      vertex 0.06802721088435373 0.06802721088435373 2.6938775510204085
      vertex 0.06802721088435373 0.06802721088435373 2.36734693877551
    endloop
  endfacet
  facet normal 1.0 0.0 0.0
    outer loop
      vertex 0.06802721088435373 0.06802721088435373 2.6938775510204085
      vertex 0.06802721088435373 0.08843537414965985 3.020408163265306
      vertex 0.06802721088435373 0.06802721088435373 3.020408163265306
    endloop
  endfacet
  facet normal 1.0 0.0 -0.0
    outer loop
      vertex 0.06802721088435373 0.08843537414965985 2.36734693877551
      vertex 0.06802721088435373 0.08843537414965985 2.6938775510204085
      vertex 0.06802721088435373 0.06802721088435373 2.6938775510204085
    endloop
  endfacet
  facet normal 1.0 0.0 -0.0
    outer loop
      vertex 0.06802721088435373 0.08843537414965985 2.6938775510204085
      vertex 0.06802721088435373 0.08843537414965985 3.020408163265306
      vertex 0.06802721088435373 0.06802721088435373 2.6938775510204085
    endloop
  endfacet
  facet normal 0.0 1.0 0.0
    outer loop
      vertex 0.020408163265306117 0.08843537414965985 2.36734693877551
      vertex 0.06802721088435373 0.08843537414965985 2.6938775510204085
      vertex 0.06802721088435373 0.08843537414965985 2.36734693877551
    endloop
  endfacet
  facet normal 0.0 1.0 0.0
    outer loop
      vertex 0.020408163265306117 0.08843537414965985 2.36734693877551
      vertex 0.020408163265306117 0.08843537414965985 2.6938775510204085
      vertex 0.06802721088435373 0.08843537414965985 2.6938775510204085
    endloop
  endfacet
  facet normal 0.0 1.0 -0.0
    outer loop
      vertex 0.06802721088435373 0.08843537414965985 2.6938775510204085
      vertex 0.020408163265306117 0.08843537414965985 3.020408163265306
      vertex 0.06802721088435373 0.08843537414965985 3.020408163265306
    endloop
  endfacet
  facet normal 0.0 1.0 0.0
    outer loop
      vertex 0.020408163265306117 0.08843537414965985 2.6938775510204085
      vertex 0.020408163265306117 0.08843537414965985 3.020408163265306
      vertex 0.06802721088435373 0.08843537414965985 2.6938775510204085
    endloop
  endfacet
  facet normal 0.0 0.0 -1.0
    outer loop
      vertex 0.020408163265306117 0.06802721088435373 2.36734693877551
      vertex 0.020408163265306117 0.08843537414965985 2.36734693877551
      vertex 0.044217687074829926 0.0782312925170068 2.36734693877551
    endloop
  endfacet
  facet normal 0.0 0.0 -1.0
    outer loop
      vertex 0.06802721088435373 0.06802721088435373 2.36734693877551
      vertex 0.020408163265306117 0.06802721088435373 2.36734693877551
      vertex 0.044217687074829926 0.0782312925170068 2.36734693877551
    endloop
  endfacet
  facet normal 0.0 0.0 -1.0
    outer loop
      vertex 0.020408163265306117 0.08843537414965985 2.36734693877551
      vertex 0.06802721088435373 0.08843537414965985 2.36734693877551
      vertex 0.044217687074829926 0.0782312925170068 2.36734693877551
    endloop
  endfacet
  facet normal 0.0 -0.0 -1.0
    outer loop
      vertex 0.06802721088435373 0.08843537414965985 2.36734693877551
      vertex 0.06802721088435373 0.06802721088435373 2.36734693877551
      vertex 0.044217687074829926 0.0782312925170068 2.36734693877551
    endloop
  endfacet
  facet normal 0.0 0.0 1.0
    outer loop
      vertex 0.020408163265306117 0.06802721088435373 3.020408163265306
      vertex 0.044217687074829926 0.0782312925170068 3.020408163265306
      vertex 0.020408163265306117 0.08843537414965985 3.020408163265306
    endloop
  endfacet
  facet normal 0.0 0.0 1.0
    outer loop
      vertex 0.06802721088435373 0.06802721088435373 3.020408163265306
      vertex 0.044217687074829926 0.0782312925170068 3.020408163265306
      vertex 0.020408163265306117 0.06802721088435373 3.020408163265306
    endloop
  endfacet
  facet normal -0.0 0.0 1.0
    outer loop
      vertex 0.020408163265306117 0.08843537414965985 3.020408163265306
      vertex 0.044217687074829926 0.0782312925170068 3.020408163265306
      vertex 0.06802721088435373 0.08843537414965985 3.020408163265306
    endloop
  endfacet
  facet normal 0.0 0.0 1.0
    outer loop
      vertex 0.06802721088435373 0.08843537414965985 3.020408163265306
      vertex 0.044217687074829926 0.0782312925170068 3.020408163265306
      vertex 0.06802721088435373 0.06802721088435373 3.020408163265306
    endloop
  endfacet
  facet normal -1.0 0.0 0.0
    outer loop
      vertex 0.020408163265306117 0.08843537414965985 1.0612244897959182
      vertex 0.020408163265306117 0.06802721088435373 1.0612244897959182
      vertex 0.020408163265306117 0.06802721088435373 1.3877551020408163
    endloop
  endfacet
  facet normal -1.0 -0.0 -0.0
    outer loop
      vertex 0.020408163265306117 0.08843537414965985 1.3877551020408163
      vertex 0.020408163265306117 0.08843537414965985 1.0612244897959182
      vertex 0.020408163265306117 0.06802721088435373 1.3877551020408163
    endloop
  endfacet
  facet normal -1.0 0.0 0.0
    outer loop
      vertex 0.020408163265306117 0.06802721088435373 1.3877551020408163
      vertex 0.020408163265306117 0.06802721088435373 1.7142857142857142
      vertex 0.020408163265306117 0.08843537414965985 1.7142857142857142
    endloop
  endfacet
  facet normal -1.0 0.0 0.0
    outer loop
      vertex 0.020408163265306117 0.08843537414965985 1.3877551020408163
      vertex 0.020408163265306117 0.06802721088435373 1.3877551020408163
      vertex 0.020408163265306117 0.08843537414965985 1.7142857142857142
    endloop
  endfacet
  facet normal 0.0 -1.0 0.0
    outer loop
      vertex 0.020408163265306117 0.06802721088435373 1.3877551020408163
      vertex 0.020408163265306117 0.06802721088435373 1.0612244897959182
      vertex 0.06802721088435373 0.06802721088435373 1.0612244897959182
    endloop
  endfacet
  facet normal 0.0 -1.0 0.0
    outer loop
      vertex 0.06802721088435373 0.06802721088435373 1.3877551020408163
      vertex 0.06802721088435373 0.06802721088435373 1.7142857142857142
      vertex 0.020408163265306117 0.06802721088435373 1.7142857142857142
    endloop
  endfacet
  facet normal 0.0 -1.0 0.0
    outer loop
      vertex 0.020408163265306117 0.06802721088435373 1.3877551020408163
      vertex 0.06802721088435373 0.06802721088435373 1.3877551020408163
      vertex 0.020408163265306117 0.06802721088435373 1.7142857142857142
    endloop
  endfacet
  facet normal 0.0 -1.0 0.0
    outer loop
      vertex 0.020408163265306117 0.06802721088435373 1.3877551020408163
      vertex 0.06802721088435373 0.06802721088435373 1.0612244897959182
      vertex 0.06802721088435373 0.06802721088435373 1.3877551020408163
    endloop
  endfacet
  facet normal 1.0 0.0 0.0
    outer loop
      vertex 0.06802721088435373 0.08843537414965985 1.0612244897959182
      vertex 0.06802721088435373 0.06802721088435373 1.3877551020408163
      vertex 0.06802721088435373 0.06802721088435373 1.0612244897959182
    endloop
  endfacet
  facet normal 1.0 0.0 0.0
    outer loop
      vertex 0.06802721088435373 0.06802721088435373 1.3877551020408163
      vertex 0.06802721088435373 0.08843537414965985 1.7142857142857142
      vertex 0.06802721088435373 0.06802721088435373 1.7142857142857142
    endloop
  endfacet
  facet normal 1.0 0.0 -0.0
    outer loop
      vertex 0.06802721088435373 0.08843537414965985 1.0612244897959182
      vertex 0.06802721088435373 0.08843537414965985 1.3877551020408163
      vertex 0.06802721088435373 0.06802721088435373 1.3877551020408163
    endloop
  endfacet
  facet normal 1.0 0.0 -0.0
    outer loop
      vertex 0.06802721088435373 0.08843537414965985 1.3877551020408163
      vertex 0.06802721088435373 0.08843537414965985 1.7142857142857142
      vertex 0.06802721088435373 0.06802721088435373 1.3877551020408163
    endloop
  endfacet
  facet normal 0.0 1.0 0.0
    outer loop
      vertex 0.020408163265306117 0.08843537414965985 1.0612244897959182
      vertex 0.06802721088435373 0.08843537414965985 1.3877551020408163
      vertex 0.06802721088435373 0.08843537414965985 1.0612244897959182
    endloop
  endfacet
  facet normal 0.0 1.0 0.0
    outer loop
      vertex 0.06802721088435373 0.08843537414965985 1.3877551020408163
      vertex 0.020408163265306117 0.08843537414965985 1.0612244897959182
      vertex 0.020408163265306117 0.08843537414965985 1.3877551020408163
    endloop
  endfacet
  facet normal 0.0 1.0 -0.0
    outer loop
      vertex 0.06802721088435373 0.08843537414965985 1.3877551020408163
      vertex 0.020408163265306117 0.08843537414965985 1.7142857142857142
      vertex 0.06802721088435373 0.08843537414965985 1.7142857142857142
    endloop
  endfacet
  facet normal 0.0 1.0 0.0
    outer loop
      vertex 0.020408163265306117 0.08843537414965985 1.7142857142857142
      vertex 0.06802721088435373 0.08843537414965985 1.3877551020408163
      vertex 0.020408163265306117 0.08843537414965985 1.3877551020408163
    endloop
  endfacet
  facet normal 0.0 0.0 -1.0
    outer loop
      vertex 0.020408163265306117 0.06802721088435373 1.0612244897959182
      vertex 0.020408163265306117 0.08843537414965985 1.0612244897959182
      vertex 0.044217687074829926 0.0782312925170068 1.0612244897959182
    endloop
  endfacet
  facet normal 0.0 0.0 -1.0
    outer loop
      vertex 0.06802721088435373 0.06802721088435373 1.0612244897959182
      vertex 0.020408163265306117 0.06802721088435373 1.0612244897959182
      vertex 0.044217687074829926 0.0782312925170068 1.0612244897959182
    endloop
  endfacet
  facet normal 0.0 0.0 -1.0
    outer loop
      vertex 0.020408163265306117 0.08843537414965985 1.0612244897959182
      vertex 0.06802721088435373 0.08843537414965985 1.0612244897959182
      vertex 0.044217687074829926 0.0782312925170068 1.0612244897959182
    endloop
  endfacet
  facet normal 0.0 -0.0 -1.0
    outer loop
      vertex 0.06802721088435373 0.08843537414965985 1.0612244897959182
      vertex 0.06802721088435373 0.06802721088435373 1.0612244897959182
      vertex 0.044217687074829926 0.0782312925170068 1.0612244897959182
    endloop
  endfacet
  facet normal 0.0 0.0 1.0
    outer loop
      vertex 0.020408163265306117 0.06802721088435373 1.7142857142857142
      vertex 0.044217687074829926 0.0782312925170068 1.7142857142857142
      vertex 0.020408163265306117 0.08843537414965985 1.7142857142857142
    endloop
  endfacet
  facet normal 0.0 0.0 1.0
    outer loop
      vertex 0.06802721088435373 0.06802721088435373 1.7142857142857142
      vertex 0.044217687074829926 0.0782312925170068 1.7142857142857142
      vertex 0.020408163265306117 0.06802721088435373 1.7142857142857142
    endloop
  endfacet
  facet normal -0.0 0.0 1.0
    outer loop
      vertex 0.020408163265306117 0.08843537414965985 1.7142857142857142
      vertex 0.044217687074829926 0.0782312925170068 1.7142857142857142
      vertex 0.06802721088435373 0.08843537414965985 1.7142857142857142
    endloop
  endfacet
  facet normal 0.0 0.0 1.0
    outer loop
      vertex 0.06802721088435373 0.08843537414965985 1.7142857142857142
      vertex 0.044217687074829926 0.0782312925170068 1.7142857142857142
      vertex 0.06802721088435373 0.06802721088435373 1.7142857142857142
    endloop
  endfacet
  facet normal 0.0 -1.0 0.0
    outer loop
      vertex 0.0 0.020408163265306117 2.36734693877551
      vertex 0.020408163265306117 0.020408163265306117 2.36734693877551
      vertex 0.020408163265306117 0.020408163265306117 2.6938775510204085
    endloop
  endfacet
  facet normal 0.0 -1.0 0.0
    outer loop
      vertex 0.0 0.020408163265306117 2.6938775510204085
      vertex 0.0 0.020408163265306117 2.36734693877551
      vertex 0.020408163265306117 0.020408163265306117 2.6938775510204085
    endloop
  endfacet
  facet normal 0.0 -1.0 0.0
    outer loop
      vertex 0.020408163265306117 0.020408163265306117 2.6938775510204085
      vertex 0.020408163265306117 0.020408163265306117 3.020408163265306
      vertex 0.0 0.020408163265306117 3.020408163265306
    endloop
  endfacet
  facet normal 0.0 -1.0 0.0
    outer loop
      vertex 0.0 0.020408163265306117 2.6938775510204085
      vertex 0.020408163265306117 0.020408163265306117 2.6938775510204085
      vertex 0.0 0.020408163265306117 3.020408163265306
    endloop
  endfacet
  facet normal 1.0 0.0 0.0
    outer loop
      vertex 0.020408163265306117 0.020408163265306117 2.6938775510204085
      vertex 0.020408163265306117 0.020408163265306117 2.36734693877551
      vertex 0.020408163265306117 0.06802721088435373 2.36734693877551
    endloop
  endfacet
  facet normal 1.0 0.0 0.0
    outer loop
      vertex 0.020408163265306117 0.020408163265306117 2.6938775510204085
      vertex 0.020408163265306117 0.06802721088435373 3.020408163265306
      vertex 0.020408163265306117 0.020408163265306117 3.020408163265306
    endloop
  endfacet
  facet normal 1.0 -0.0 0.0
    outer loop
      vertex 0.020408163265306117 0.020408163265306117 2.6938775510204085
      vertex 0.020408163265306117 0.06802721088435373 2.36734693877551
      vertex 0.020408163265306117 0.06802721088435373 2.6938775510204085
    endloop
  endfacet
  facet normal 1.0 0.0 0.0
    outer loop
      vertex 0.020408163265306117 0.020408163265306117 2.6938775510204085
      vertex 0.020408163265306117 0.06802721088435373 2.6938775510204085
      vertex 0.020408163265306117 0.06802721088435373 3.020408163265306
    endloop
  endfacet
  facet normal 0.0 1.0 0.0
    outer loop
      vertex 0.0 0.06802721088435373 2.36734693877551
      vertex 0.020408163265306117 0.06802721088435373 2.6938775510204085
      vertex 0.020408163265306117 0.06802721088435373 2.36734693877551
    endloop
  endfacet
  facet normal 0.0 1.0 0.0
    outer loop
      vertex 0.0 0.06802721088435373 2.6938775510204085
      vertex 0.0 0.06802721088435373 3.020408163265306
      vertex 0.020408163265306117 0.06802721088435373 3.020408163265306
    endloop
  endfacet
  facet normal 0.0 1.0 0.0
    outer loop
      vertex 0.0 0.06802721088435373 2.6938775510204085
      vertex 0.020408163265306117 0.06802721088435373 3.020408163265306
      vertex 0.020408163265306117 0.06802721088435373 2.6938775510204085
    endloop
  endfacet
  facet normal 0.0 1.0 0.0
    outer loop
      vertex 0.0 0.06802721088435373 2.36734693877551
      vertex 0.0 0.06802721088435373 2.6938775510204085
      vertex 0.020408163265306117 0.06802721088435373 2.6938775510204085
    endloop
  endfacet
  facet normal -1.0 0.0 0.0
    outer loop
      vertex 0.0 0.020408163265306117 2.36734693877551
      vertex 0.0 0.06802721088435373 2.6938775510204085
      vertex 0.0 0.06802721088435373 2.36734693877551
    endloop
  endfacet
  facet normal -1.0 0.0 0.0
    outer loop
      vertex 0.0 0.020408163265306117 2.36734693877551
      vertex 0.0 0.020408163265306117 2.6938775510204085
      vertex 0.0 0.06802721088435373 2.6938775510204085
    endloop
  endfacet
  facet normal -1.0 0.0 0.0
    outer loop
      vertex 0.0 0.06802721088435373 2.6938775510204085
      vertex 0.0 0.020408163265306117 3.020408163265306
      vertex 0.0 0.06802721088435373 3.020408163265306
    endloop
  endfacet
  facet normal -1.0 0.0 0.0
    outer loop
      vertex 0.0 0.020408163265306117 2.6938775510204085
      vertex 0.0 0.020408163265306117 3.020408163265306
      vertex 0.0 0.06802721088435373 2.6938775510204085
    endloop
  endfacet
  facet normal 0.0 0.0 -1.0
    outer loop
      vertex 0.020408163265306117 0.020408163265306117 2.36734693877551
      vertex 0.0 0.020408163265306117 2.36734693877551
      vertex 0.010204081632653059 0.044217687074829926 2.36734693877551
    endloop
  endfacet
  facet normal 0.0 -0.0 -1.0
    outer loop
      vertex 0.020408163265306117 0.06802721088435373 2.36734693877551
      vertex 0.020408163265306117 0.020408163265306117 2.36734693877551
      vertex 0.010204081632653059 0.044217687074829926 2.36734693877551
    endloop
  endfacet
  facet normal 0.0 0.0 -1.0
    outer loop
      vertex 0.0 0.020408163265306117 2.36734693877551
      vertex 0.0 0.06802721088435373 2.36734693877551
      vertex 0.010204081632653059 0.044217687074829926 2.36734693877551
    endloop
  endfacet
  facet normal 0.0 0.0 -1.0
    outer loop
      vertex 0.0 0.06802721088435373 2.36734693877551
      vertex 0.020408163265306117 0.06802721088435373 2.36734693877551
      vertex 0.010204081632653059 0.044217687074829926 2.36734693877551
    endloop
  endfacet
  facet normal 0.0 0.0 1.0
    outer loop
      vertex 0.020408163265306117 0.020408163265306117 3.020408163265306
      vertex 0.010204081632653059 0.044217687074829926 3.020408163265306
      vertex 0.0 0.020408163265306117 3.020408163265306
    endloop
  endfacet
  facet normal 0.0 0.0 1.0
    outer loop
      vertex 0.020408163265306117 0.06802721088435373 3.020408163265306
      vertex 0.010204081632653059 0.044217687074829926 3.020408163265306
      vertex 0.020408163265306117 0.020408163265306117 3.020408163265306
    endloop
  endfacet
  facet normal 0.0 0.0 1.0
    outer loop
      vertex 0.0 0.020408163265306117 3.020408163265306
      vertex 0.010204081632653059 0.044217687074829926 3.020408163265306
      vertex 0.0 0.06802721088435373 3.020408163265306
    endloop
  endfacet
  facet normal -0.0 0.0 1.0
    outer loop
      vertex 0.0 0.06802721088435373 3.020408163265306
      vertex 0.010204081632653059 0.044217687074829926 3.020408163265306
      vertex 0.020408163265306117 0.06802721088435373 3.020408163265306
    endloop
  endfacet
  facet normal 0.0 -1.0 0.0
    outer loop
      vertex 0.0 0.020408163265306117 1.0612244897959182
      vertex 0.020408163265306117 0.020408163265306117 1.0612244897959182
      vertex 0.020408163265306117 0.020408163265306117 1.3877551020408163
    endloop
  endfacet
  facet normal 0.0 -1.0 0.0
    outer loop
      vertex 0.0 0.020408163265306117 1.3877551020408163
      vertex 0.0 0.020408163265306117 1.0612244897959182
      vertex 0.020408163265306117 0.020408163265306117 1.3877551020408163
    endloop
  endfacet
  facet normal 0.0 -1.0 0.0
    outer loop
      vertex 0.020408163265306117 0.020408163265306117 1.3877551020408163
      vertex 0.020408163265306117 0.020408163265306117 1.7142857142857142
      vertex 0.0 0.020408163265306117 1.7142857142857142
    endloop
  endfacet
  facet normal 0.0 -1.0 0.0
    outer loop
      vertex 0.0 0.020408163265306117 1.3877551020408163
      vertex 0.020408163265306117 0.020408163265306117 1.3877551020408163
      vertex 0.0 0.020408163265306117 1.7142857142857142
    endloop
  endfacet
  facet normal 1.0 0.0 0.0
    outer loop
      vertex 0.020408163265306117 0.020408163265306117 1.3877551020408163
      vertex 0.020408163265306117 0.020408163265306117 1.0612244897959182
      vertex 0.020408163265306117 0.06802721088435373 1.0612244897959182
    endloop
  endfacet
  facet normal 1.0 0.0 0.0
    outer loop
      vertex 0.020408163265306117 0.020408163265306117 1.3877551020408163
      vertex 0.020408163265306117 0.06802721088435373 1.7142857142857142
      vertex 0.020408163265306117 0.020408163265306117 1.7142857142857142
    endloop
  endfacet
  facet normal 1.0 0.0 -0.0
    outer loop
      vertex 0.020408163265306117 0.06802721088435373 1.0612244897959182
      vertex 0.020408163265306117 0.06802721088435373 1.3877551020408163
      vertex 0.020408163265306117 0.020408163265306117 1.3877551020408163
    endloop
  endfacet
  facet normal 1.0 0.0 0.0
    outer loop
      vertex 0.020408163265306117 0.020408163265306117 1.3877551020408163
      vertex 0.020408163265306117 0.06802721088435373 1.3877551020408163
      vertex 0.020408163265306117 0.06802721088435373 1.7142857142857142
    endloop
  endfacet
  facet normal 0.0 1.0 0.0
    outer loop
      vertex 0.0 0.06802721088435373 1.0612244897959182
      vertex 0.020408163265306117 0.06802721088435373 1.3877551020408163
      vertex 0.020408163265306117 0.06802721088435373 1.0612244897959182
    endloop
  endfacet
  facet normal 0.0 1.0 -0.0
    outer loop
      vertex 0.020408163265306117 0.06802721088435373 1.3877551020408163
      vertex 0.0 0.06802721088435373 1.7142857142857142
      vertex 0.020408163265306117 0.06802721088435373 1.7142857142857142
    endloop
  endfacet
  facet normal 0.0 1.0 0.0
    outer loop
      vertex 0.0 0.06802721088435373 1.0612244897959182
      vertex 0.0 0.06802721088435373 1.3877551020408163
      vertex 0.020408163265306117 0.06802721088435373 1.3877551020408163
    endloop
  endfacet
  facet normal 0.0 1.0 0.0
    outer loop
      vertex 0.0 0.06802721088435373 1.3877551020408163
      vertex 0.0 0.06802721088435373 1.7142857142857142
      vertex 0.020408163265306117 0.06802721088435373 1.3877551020408163
    endloop
  endfacet
  facet normal -1.0 0.0 0.0
    outer loop
      vertex 0.0 0.020408163265306117 1.0612244897959182
      vertex 0.0 0.06802721088435373 1.3877551020408163
      vertex 0.0 0.06802721088435373 1.0612244897959182
    endloop
  endfacet
  facet normal -1.0 0.0 0.0
    outer loop
      vertex 0.0 0.020408163265306117 1.0612244897959182
      vertex 0.0 0.020408163265306117 1.3877551020408163
      vertex 0.0 0.06802721088435373 1.3877551020408163
    endloop
  endfacet
  facet normal -1.0 0.0 0.0
    outer loop
      vertex 0.0 0.06802721088435373 1.3877551020408163
      vertex 0.0 0.020408163265306117 1.7142857142857142
      vertex 0.0 0.06802721088435373 1.7142857142857142
    endloop
  endfacet
  facet normal -1.0 0.0 0.0
    outer loop
      vertex 0.0 0.020408163265306117 1.3877551020408163
      vertex 0.0 0.020408163265306117 1.7142857142857142
      vertex 0.0 0.06802721088435373 1.3877551020408163
    endloop
  endfacet
  facet normal 0.0 0.0 -1.0
    outer loop
      vertex 0.020408163265306117 0.020408163265306117 1.0612244897959182
      vertex 0.0 0.020408163265306117 1.0612244897959182
      vertex 0.010204081632653059 0.044217687074829926 1.0612244897959182
    endloop
  endfacet
  facet normal 0.0 -0.0 -1.0
    outer loop
      vertex 0.020408163265306117 0.06802721088435373 1.0612244897959182
      vertex 0.020408163265306117 0.020408163265306117 1.0612244897959182
      vertex 0.010204081632653059 0.044217687074829926 1.0612244897959182
    endloop
  endfacet
  facet normal 0.0 0.0 -1.0
    outer loop
      vertex 0.0 0.020408163265306117 1.0612244897959182
      vertex 0.0 0.06802721088435373 1.0612244897959182
      vertex 0.010204081632653059 0.044217687074829926 1.0612244897959182
    endloop
  endfacet
  facet normal 0.0 0.0 -1.0
    outer loop
      vertex 0.0 0.06802721088435373 1.0612244897959182
      vertex 0.020408163265306117 0.06802721088435373 1.0612244897959182
      vertex 0.010204081632653059 0.044217687074829926 1.0612244897959182
    endloop
  endfacet
  facet normal 0.0 0.0 1.0
    outer loop
      vertex 0.020408163265306117 0.020408163265306117 1.7142857142857142
      vertex 0.010204081632653059 0.044217687074829926 1.7142857142857142
      vertex 0.0 0.020408163265306117 1.7142857142857142
    endloop
  endfacet
  facet normal 0.0 0.0 1.0
    outer loop
      vertex 0.020408163265306117 0.06802721088435373 1.7142857142857142
      vertex 0.010204081632653059 0.044217687074829926 1.7142857142857142
      vertex 0.020408163265306117 0.020408163265306117 1.7142857142857142
    endloop
  endfacet
  facet normal 0.0 0.0 1.0
    outer loop
      vertex 0.0 0.020408163265306117 1.7142857142857142
      vertex 0.010204081632653059 0.044217687074829926 1.7142857142857142
      vertex 0.0 0.06802721088435373 1.7142857142857142
    endloop
  endfacet
  facet normal -0.0 0.0 1.0
    outer loop
      vertex 0.0 0.06802721088435373 1.7142857142857142
      vertex 0.010204081632653059 0.044217687074829926 1.7142857142857142
      vertex 0.020408163265306117 0.06802721088435373 1.7142857142857142
    endloop
  endfacet
  facet normal 1.0 0.0 0.0
    outer loop
      vertex 0.06802721088435373 0.0 2.36734693877551
      vertex 0.06802721088435373 0.020408163265306117 2.36734693877551
      vertex 0.06802721088435373 0.020408163265306117 2.6938775510204085
    endloop
  endfacet
  facet normal 1.0 -0.0 0.0
    outer loop
      vertex 0.06802721088435373 0.0 2.6938775510204085
      vertex 0.06802721088435373 0.0 2.36734693877551
      vertex 0.06802721088435373 0.020408163265306117 2.6938775510204085
    endloop
  endfacet
  facet normal 1.0 0.0 -0.0
    outer loop
      vertex 0.06802721088435373 0.020408163265306117 2.6938775510204085
      vertex 0.06802721088435373 0.020408163265306117 3.020408163265306
      vertex 0.06802721088435373 0.0 3.020408163265306
    endloop
  endfacet
  facet normal 1.0 0.0 0.0
    outer loop
      vertex 0.06802721088435373 0.0 2.6938775510204085
      vertex 0.06802721088435373 0.020408163265306117 2.6938775510204085
      vertex 0.06802721088435373 0.0 3.020408163265306
    endloop
  endfacet
  facet normal 0.0 1.0 0.0
    outer loop
      vertex 0.06802721088435373 0.020408163265306117 2.6938775510204085
      vertex 0.06802721088435373 0.020408163265306117 2.36734693877551
      vertex 0.020408163265306117 0.020408163265306117 2.36734693877551
    endloop
  endfacet
  facet normal 0.0 1.0 0.0
    outer loop
      vertex 0.020408163265306117 0.020408163265306117 2.6938775510204085
      vertex 0.020408163265306117 0.020408163265306117 3.020408163265306
      vertex 0.06802721088435373 0.020408163265306117 3.020408163265306
    endloop
  endfacet
  facet normal 0.0 1.0 -0.0
    outer loop
      vertex 0.06802721088435373 0.020408163265306117 2.6938775510204085
      vertex 0.020408163265306117 0.020408163265306117 2.6938775510204085
      vertex 0.06802721088435373 0.020408163265306117 3.020408163265306
    endloop
  endfacet
  facet normal 0.0 1.0 0.0
    outer loop
      vertex 0.06802721088435373 0.020408163265306117 2.6938775510204085
      vertex 0.020408163265306117 0.020408163265306117 2.36734693877551
      vertex 0.020408163265306117 0.020408163265306117 2.6938775510204085
    endloop
  endfacet
  facet normal -1.0 0.0 0.0
    outer loop
      vertex 0.020408163265306117 0.0 2.36734693877551
      vertex 0.020408163265306117 0.020408163265306117 2.6938775510204085
      vertex 0.020408163265306117 0.020408163265306117 2.36734693877551
    endloop
  endfacet
  facet normal -1.0 0.0 0.0
    outer loop
      vertex 0.020408163265306117 0.020408163265306117 2.6938775510204085
      vertex 0.020408163265306117 0.0 3.020408163265306
      vertex 0.020408163265306117 0.020408163265306117 3.020408163265306
    endloop
  endfacet
  facet normal -1.0 0.0 0.0
    outer loop
      vertex 0.020408163265306117 0.0 2.36734693877551
      vertex 0.020408163265306117 0.0 2.6938775510204085
      vertex 0.020408163265306117 0.020408163265306117 2.6938775510204085
    endloop
  endfacet
  facet normal -1.0 0.0 0.0
    outer loop
      vertex 0.020408163265306117 0.0 2.6938775510204085
      vertex 0.020408163265306117 0.0 3.020408163265306
      vertex 0.020408163265306117 0.020408163265306117 2.6938775510204085
    endloop
  endfacet
  facet normal 0.0 -1.0 0.0
    outer loop
      vertex 0.06802721088435373 0.0 2.36734693877551
      vertex 0.020408163265306117 0.0 2.6938775510204085
      vertex 0.020408163265306117 0.0 2.36734693877551
    endloop
  endfacet
  facet normal 0.0 -1.0 0.0
    outer loop
      vertex 0.06802721088435373 0.0 2.36734693877551
      vertex 0.06802721088435373 0.0 2.6938775510204085
      vertex 0.020408163265306117 0.0 2.6938775510204085
    endloop
  endfacet
  facet normal 0.0 -1.0 0.0
    outer loop
      vertex 0.020408163265306117 0.0 2.6938775510204085
      vertex 0.06802721088435373 0.0 3.020408163265306
      vertex 0.020408163265306117 0.0 3.020408163265306
    endloop
  endfacet
  facet normal 0.0 -1.0 0.0
    outer loop
      vertex 0.06802721088435373 0.0 2.6938775510204085
      vertex 0.06802721088435373 0.0 3.020408163265306
      vertex 0.020408163265306117 0.0 2.6938775510204085
    endloop
  endfacet
  facet normal 0.0 -0.0 -1.0
    outer loop
      vertex 0.06802721088435373 0.020408163265306117 2.36734693877551
      vertex 0.06802721088435373 0.0 2.36734693877551
      vertex 0.044217687074829926 0.010204081632653059 2.36734693877551
    endloop
  endfacet
  facet normal 0.0 0.0 -1.0
    outer loop
      vertex 0.020408163265306117 0.020408163265306117 2.36734693877551
      vertex 0.06802721088435373 0.020408163265306117 2.36734693877551
      vertex 0.044217687074829926 0.010204081632653059 2.36734693877551
    endloop
  endfacet
  facet normal 0.0 0.0 -1.0
    outer loop
      vertex 0.06802721088435373 0.0 2.36734693877551
      vertex 0.020408163265306117 0.0 2.36734693877551
      vertex 0.044217687074829926 0.010204081632653059 2.36734693877551
    endloop
  endfacet
  facet normal 0.0 0.0 -1.0
    outer loop
      vertex 0.020408163265306117 0.0 2.36734693877551
      vertex 0.020408163265306117 0.020408163265306117 2.36734693877551
      vertex 0.044217687074829926 0.010204081632653059 2.36734693877551
    endloop
  endfacet
  facet normal 0.0 0.0 1.0
    outer loop
      vertex 0.06802721088435373 0.020408163265306117 3.020408163265306
      vertex 0.044217687074829926 0.010204081632653059 3.020408163265306
      vertex 0.06802721088435373 0.0 3.020408163265306
    endloop
  endfacet
  facet normal -0.0 0.0 1.0
    outer loop
      vertex 0.020408163265306117 0.020408163265306117 3.020408163265306
      vertex 0.044217687074829926 0.010204081632653059 3.020408163265306
      vertex 0.06802721088435373 0.020408163265306117 3.020408163265306
    endloop
  endfacet
  facet normal 0.0 0.0 1.0
    outer loop
      vertex 0.06802721088435373 0.0 3.020408163265306
      vertex 0.044217687074829926 0.010204081632653059 3.020408163265306
      vertex 0.020408163265306117 0.0 3.020408163265306
    endloop
  endfacet
  facet normal 0.0 0.0 1.0
    outer loop
      vertex 0.020408163265306117 0.0 3.020408163265306
      vertex 0.044217687074829926 0.010204081632653059 3.020408163265306
      vertex 0.020408163265306117 0.020408163265306117 3.020408163265306
    endloop
  endfacet
  facet normal 1.0 0.0 0.0
    outer loop
      vertex 0.06802721088435373 0.0 1.0612244897959182
      vertex 0.06802721088435373 0.020408163265306117 1.0612244897959182
      vertex 0.06802721088435373 0.020408163265306117 1.3877551020408163
    endloop
  endfacet
  facet normal 1.0 -0.0 0.0
    outer loop
      vertex 0.06802721088435373 0.0 1.3877551020408163
      vertex 0.06802721088435373 0.0 1.0612244897959182
      vertex 0.06802721088435373 0.020408163265306117 1.3877551020408163
    endloop
  endfacet
  facet normal 1.0 0.0 -0.0
    outer loop
      vertex 0.06802721088435373 0.020408163265306117 1.3877551020408163
      vertex 0.06802721088435373 0.020408163265306117 1.7142857142857142
      vertex 0.06802721088435373 0.0 1.7142857142857142
    endloop
  endfacet
  facet normal 1.0 0.0 0.0
    outer loop
      vertex 0.06802721088435373 0.0 1.3877551020408163
      vertex 0.06802721088435373 0.020408163265306117 1.3877551020408163
      vertex 0.06802721088435373 0.0 1.7142857142857142
    endloop
  endfacet
  facet normal 0.0 1.0 0.0
    outer loop
      vertex 0.06802721088435373 0.020408163265306117 1.3877551020408163
      vertex 0.06802721088435373 0.020408163265306117 1.0612244897959182
      vertex 0.020408163265306117 0.020408163265306117 1.0612244897959182
    endloop
  endfacet
  facet normal 0.0 1.0 0.0
    outer loop
      vertex 0.020408163265306117 0.020408163265306117 1.3877551020408163
      vertex 0.020408163265306117 0.020408163265306117 1.7142857142857142
      vertex 0.06802721088435373 0.020408163265306117 1.7142857142857142
    endloop
  endfacet
  facet normal 0.0 1.0 -0.0
    outer loop
      vertex 0.06802721088435373 0.020408163265306117 1.3877551020408163
      vertex 0.020408163265306117 0.020408163265306117 1.3877551020408163
      vertex 0.06802721088435373 0.020408163265306117 1.7142857142857142
    endloop
  endfacet
  facet normal 0.0 1.0 0.0
    outer loop
      vertex 0.06802721088435373 0.020408163265306117 1.3877551020408163
      vertex 0.020408163265306117 0.020408163265306117 1.0612244897959182
      vertex 0.020408163265306117 0.020408163265306117 1.3877551020408163
    endloop
  endfacet
  facet normal -1.0 0.0 0.0
    outer loop
      vertex 0.020408163265306117 0.0 1.0612244897959182
      vertex 0.020408163265306117 0.020408163265306117 1.3877551020408163
      vertex 0.020408163265306117 0.020408163265306117 1.0612244897959182
    endloop
  endfacet
  facet normal -1.0 0.0 0.0
    outer loop
      vertex 0.020408163265306117 0.020408163265306117 1.3877551020408163
      vertex 0.020408163265306117 0.0 1.7142857142857142
      vertex 0.020408163265306117 0.020408163265306117 1.7142857142857142
    endloop
  endfacet
  facet normal -1.0 0.0 0.0
    outer loop
      vertex 0.020408163265306117 0.0 1.0612244897959182
      vertex 0.020408163265306117 0.0 1.3877551020408163
      vertex 0.020408163265306117 0.020408163265306117 1.3877551020408163
    endloop
  endfacet
  facet normal -1.0 0.0 0.0
    outer loop
      vertex 0.020408163265306117 0.0 1.3877551020408163
      vertex 0.020408163265306117 0.0 1.7142857142857142
      vertex 0.020408163265306117 0.020408163265306117 1.3877551020408163
    endloop
  endfacet
  facet normal 0.0 -1.0 0.0
    outer loop
      vertex 0.06802721088435373 0.0 1.0612244897959182
      vertex 0.020408163265306117 0.0 1.3877551020408163
      vertex 0.020408163265306117 0.0 1.0612244897959182
    endloop
  endfacet
  facet normal 0.0 -1.0 0.0
    outer loop
      vertex 0.06802721088435373 0.0 1.0612244897959182
      vertex 0.06802721088435373 0.0 1.3877551020408163
      vertex 0.020408163265306117 0.0 1.3877551020408163
    endloop
  endfacet
  facet normal 0.0 -1.0 0.0
    outer loop
      vertex 0.06802721088435373 0.0 1.3877551020408163
      vertex 0.06802721088435373 0.0 1.7142857142857142
      vertex 0.020408163265306117 0.0 1.7142857142857142
    endloop
  endfacet
  facet normal 0.0 -1.0 0.0
    outer loop
      vertex 0.06802721088435373 0.0 1.3877551020408163
      vertex 0.020408163265306117 0.0 1.7142857142857142
      vertex 0.020408163265306117 0.0 1.3877551020408163
    endloop
  endfacet
  facet normal 0.0 -0.0 -1.0
    outer loop
      vertex 0.06802721088435373 0.020408163265306117 1.0612244897959182
      vertex 0.06802721088435373 0.0 1.0612244897959182
      vertex 0.044217687074829926 0.010204081632653059 1.0612244897959182
    endloop
  endfacet
  facet normal 0.0 0.0 -1.0
    outer loop
      vertex 0.020408163265306117 0.020408163265306117 1.0612244897959182
      vertex 0.06802721088435373 0.020408163265306117 1.0612244897959182
      vertex 0.044217687074829926 0.010204081632653059 1.0612244897959182
    endloop
  endfacet
  facet normal 0.0 0.0 -1.0
    outer loop
      vertex 0.06802721088435373 0.0 1.0612244897959182
      vertex 0.020408163265306117 0.0 1.0612244897959182
      vertex 0.044217687074829926 0.010204081632653059 1.0612244897959182
    endloop
  endfacet
  facet normal 0.0 0.0 -1.0
    outer loop
      vertex 0.020408163265306117 0.0 1.0612244897959182
      vertex 0.020408163265306117 0.020408163265306117 1.0612244897959182
      vertex 0.044217687074829926 0.010204081632653059 1.0612244897959182
    endloop
  endfacet
  facet normal 0.0 0.0 1.0
    outer loop
      vertex 0.06802721088435373 0.020408163265306117 1.7142857142857142
      vertex 0.044217687074829926 0.010204081632653059 1.7142857142857142
      vertex 0.06802721088435373 0.0 1.7142857142857142
    endloop
  endfacet
  facet normal -0.0 0.0 1.0
    outer loop
      vertex 0.020408163265306117 0.020408163265306117 1.7142857142857142
      vertex 0.044217687074829926 0.010204081632653059 1.7142857142857142
      vertex 0.06802721088435373 0.020408163265306117 1.7142857142857142
    endloop
  endfacet
  facet normal 0.0 0.0 1.0
    outer loop
      vertex 0.06802721088435373 0.0 1.7142857142857142
      vertex 0.044217687074829926 0.010204081632653059 1.7142857142857142
      vertex 0.020408163265306117 0.0 1.7142857142857142
    endloop
  endfacet
  facet normal 0.0 0.0 1.0
    outer loop
      vertex 0.020408163265306117 0.0 1.7142857142857142
      vertex 0.044217687074829926 0.010204081632653059 1.7142857142857142
      vertex 0.020408163265306117 0.020408163265306117 1.7142857142857142
    endloop
  endfacet
  facet normal 0.0 -1.0 0.0
    outer loop
      vertex 0.020408163265306117 0.020408163265306117 2.6938775510204085
      vertex 0.06802721088435373 0.020408163265306117 2.6938775510204085
      vertex 0.06802721088435373 0.020408163265306117 3.0204081632653064
    endloop
  endfacet
  facet normal 0.0 -1.0 0.0
    outer loop
      vertex 0.020408163265306117 0.020408163265306117 3.0204081632653064
      vertex 0.020408163265306117 0.020408163265306117 2.6938775510204085
      vertex 0.06802721088435373 0.020408163265306117 3.0204081632653064
    endloop
  endfacet
  facet normal 0.0 -1.0 0.0
    outer loop
      vertex 0.06802721088435373 0.020408163265306117 3.6734693877551017
      vertex 0.06802721088435373 0.020408163265306117 4.0
      vertex 0.020408163265306117 0.020408163265306117 4.0
    endloop
  endfacet
  facet normal 0.0 -1.0 0.0
    outer loop
      vertex 0.020408163265306117 0.020408163265306117 4.0
      vertex 0.020408163265306117 0.020408163265306117 3.6734693877551017
      vertex 0.06802721088435373 0.020408163265306117 3.6734693877551017
    endloop
  endfacet
  facet normal 0.0 -1.0 0.0
    outer loop
      vertex 0.020408163265306117 0.020408163265306117 3.3469387755102042
      vertex 0.06802721088435373 0.020408163265306117 3.3469387755102042
      vertex 0.06802721088435373 0.020408163265306117 3.6734693877551017
    endloop
  endfacet
  facet normal -0.0 -1.0 0.0
    outer loop
      vertex 0.06802721088435373 0.020408163265306117 3.6734693877551017
      vertex 0.020408163265306117 0.020408163265306117 3.6734693877551017
      vertex 0.020408163265306117 0.020408163265306117 3.3469387755102042
    endloop
  endfacet
  facet normal 0.0 -1.0 0.0
    outer loop
      vertex 0.06802721088435373 0.020408163265306117 3.0204081632653064
      vertex 0.06802721088435373 0.020408163265306117 3.3469387755102042
      vertex 0.020408163265306117 0.020408163265306117 3.3469387755102042
    endloop
  endfacet
  facet normal 0.0 -1.0 0.0
    outer loop
      vertex 0.020408163265306117 0.020408163265306117 3.0204081632653064
      vertex 0.06802721088435373 0.020408163265306117 3.0204081632653064
      vertex 0.020408163265306117 0.020408163265306117 3.3469387755102042
    endloop
  endfacet
  facet normal 1.0 0.0 0.0
    outer loop
      vertex 0.06802721088435373 0.020408163265306117 3.0204081632653064
      vertex 0.06802721088435373 0.020408163265306117 2.6938775510204085
      vertex 0.06802721088435373 0.06802721088435373 2.6938775510204085
    endloop
  endfacet
  facet normal 1.0 0.0 -0.0
    outer loop
      vertex 0.06802721088435373 0.06802721088435373 3.6734693877551017
      vertex 0.06802721088435373 0.06802721088435373 4.0
      vertex 0.06802721088435373 0.020408163265306117 4.0
    endloop
  endfacet
  facet normal 1.0 0.0 0.0
    outer loop
      vertex 0.06802721088435373 0.020408163265306117 3.6734693877551017
      vertex 0.06802721088435373 0.06802721088435373 3.6734693877551017
      vertex 0.06802721088435373 0.020408163265306117 4.0
    endloop
  endfacet
  facet normal 1.0 -0.0 0.0
    outer loop
      vertex 0.06802721088435373 0.020408163265306117 3.0204081632653064
      vertex 0.06802721088435373 0.06802721088435373 2.6938775510204085
      vertex 0.06802721088435373 0.06802721088435373 3.0204081632653064
    endloop
  endfacet
  facet normal 1.0 0.0 0.0
    outer loop
      vertex 0.06802721088435373 0.020408163265306117 3.6734693877551017
      vertex 0.06802721088435373 0.020408163265306117 3.3469387755102042
      vertex 0.06802721088435373 0.06802721088435373 3.3469387755102042
    endloop
  endfacet
  facet normal 1.0 0.0 -0.0
    outer loop
      vertex 0.06802721088435373 0.06802721088435373 3.3469387755102042
      vertex 0.06802721088435373 0.06802721088435373 3.6734693877551017
      vertex 0.06802721088435373 0.020408163265306117 3.6734693877551017
    endloop
  endfacet
  facet normal 1.0 0.0 0.0
    outer loop
      vertex 0.06802721088435373 0.06802721088435373 3.0204081632653064
      vertex 0.06802721088435373 0.020408163265306117 3.3469387755102042
      vertex 0.06802721088435373 0.020408163265306117 3.0204081632653064
    endloop
  endfacet
  facet normal 1.0 0.0 0.0
    outer loop
      vertex 0.06802721088435373 0.06802721088435373 3.3469387755102042
      vertex 0.06802721088435373 0.020408163265306117 3.3469387755102042
      vertex 0.06802721088435373 0.06802721088435373 3.0204081632653064
    endloop
  endfacet
  facet normal 0.0 1.0 0.0
    outer loop
      vertex 0.020408163265306117 0.06802721088435373 2.6938775510204085
      vertex 0.06802721088435373 0.06802721088435373 3.0204081632653064
      vertex 0.06802721088435373 0.06802721088435373 2.6938775510204085
    endloop
  endfacet
  facet normal 0.0 1.0 -0.0
    outer loop
      vertex 0.06802721088435373 0.06802721088435373 3.6734693877551017
      vertex 0.020408163265306117 0.06802721088435373 4.0
      vertex 0.06802721088435373 0.06802721088435373 4.0
    endloop
  endfacet
  facet normal -0.0 1.0 0.0
    outer loop
      vertex 0.020408163265306117 0.06802721088435373 3.0204081632653064
      vertex 0.06802721088435373 0.06802721088435373 3.0204081632653064
      vertex 0.020408163265306117 0.06802721088435373 2.6938775510204085
    endloop
  endfacet
  facet normal 0.0 1.0 0.0
    outer loop
      vertex 0.020408163265306117 0.06802721088435373 3.6734693877551017
      vertex 0.020408163265306117 0.06802721088435373 4.0
      vertex 0.06802721088435373 0.06802721088435373 3.6734693877551017
    endloop
  endfacet
  facet normal 0.0 1.0 -0.0
    outer loop
      vertex 0.06802721088435373 0.06802721088435373 3.3469387755102042
      vertex 0.020408163265306117 0.06802721088435373 3.6734693877551017
      vertex 0.06802721088435373 0.06802721088435373 3.6734693877551017
    endloop
  endfacet
  facet normal 0.0 1.0 -0.0
    outer loop
      vertex 0.06802721088435373 0.06802721088435373 3.0204081632653064
      vertex 0.020408163265306117 0.06802721088435373 3.3469387755102042
      vertex 0.06802721088435373 0.06802721088435373 3.3469387755102042
    endloop
  endfacet
  facet normal 0.0 1.0 0.0
    outer loop
      vertex 0.020408163265306117 0.06802721088435373 3.3469387755102042
      vertex 0.020408163265306117 0.06802721088435373 3.6734693877551017
      vertex 0.06802721088435373 0.06802721088435373 3.3469387755102042
    endloop
  endfacet
  facet normal 0.0 1.0 0.0
    outer loop
      vertex 0.020408163265306117 0.06802721088435373 3.0204081632653064
      vertex 0.020408163265306117 0.06802721088435373 3.3469387755102042
      vertex 0.06802721088435373 0.06802721088435373 3.0204081632653064
    endloop
  endfacet
  facet normal -1.0 0.0 0.0
    outer loop
      vertex 0.020408163265306117 0.020408163265306117 2.6938775510204085
      vertex 0.020408163265306117 0.06802721088435373 3.0204081632653064
      vertex 0.020408163265306117 0.06802721088435373 2.6938775510204085
    endloop
  endfacet
  facet normal -1.0 0.0 0.0
    outer loop
      vertex 0.020408163265306117 0.020408163265306117 2.6938775510204085
      vertex 0.020408163265306117 0.020408163265306117 3.0204081632653064
      vertex 0.020408163265306117 0.06802721088435373 3.0204081632653064
    endloop
  endfacet
  facet normal -1.0 0.0 0.0
    outer loop
      vertex 0.020408163265306117 0.06802721088435373 3.6734693877551017
      vertex 0.020408163265306117 0.020408163265306117 4.0
      vertex 0.020408163265306117 0.06802721088435373 4.0
    endloop
  endfacet
  facet normal -1.0 0.0 0.0
    outer loop
      vertex 0.020408163265306117 0.020408163265306117 3.6734693877551017
      vertex 0.020408163265306117 0.020408163265306117 4.0
      vertex 0.020408163265306117 0.06802721088435373 3.6734693877551017
    endloop
  endfacet
  facet normal -1.0 0.0 0.0
    outer loop
      vertex 0.020408163265306117 0.020408163265306117 3.3469387755102042
      vertex 0.020408163265306117 0.020408163265306117 3.6734693877551017
      vertex 0.020408163265306117 0.06802721088435373 3.3469387755102042
    endloop
  endfacet
  facet normal -1.0 0.0 0.0
    outer loop
      vertex 0.020408163265306117 0.06802721088435373 3.3469387755102042
      vertex 0.020408163265306117 0.020408163265306117 3.6734693877551017
      vertex 0.020408163265306117 0.06802721088435373 3.6734693877551017
    endloop
  endfacet
  facet normal -1.0 0.0 0.0
    outer loop
      vertex 0.020408163265306117 0.020408163265306117 3.0204081632653064
      vertex 0.020408163265306117 0.020408163265306117 3.3469387755102042
      vertex 0.020408163265306117 0.06802721088435373 3.3469387755102042
    endloop
  endfacet
  facet normal -1.0 0.0 0.0
    outer loop
      vertex 0.020408163265306117 0.020408163265306117 3.0204081632653064
      vertex 0.020408163265306117 0.06802721088435373 3.3469387755102042
      vertex 0.020408163265306117 0.06802721088435373 3.0204081632653064
    endloop
  endfacet
  facet normal 0.0 0.0 -1.0
    outer loop
      vertex 0.06802721088435373 0.020408163265306117 2.6938775510204085
      vertex 0.020408163265306117 0.020408163265306117 2.6938775510204085
      vertex 0.044217687074829926 0.044217687074829926 2.6938775510204085
    endloop
  endfacet
  facet normal 0.0 -0.0 -1.0
    outer loop
      vertex 0.06802721088435373 0.06802721088435373 2.6938775510204085
      vertex 0.06802721088435373 0.020408163265306117 2.6938775510204085
      vertex 0.044217687074829926 0.044217687074829926 2.6938775510204085
    endloop
  endfacet
  facet normal 0.0 0.0 -1.0
    outer loop
      vertex 0.020408163265306117 0.020408163265306117 2.6938775510204085
      vertex 0.020408163265306117 0.06802721088435373 2.6938775510204085
      vertex 0.044217687074829926 0.044217687074829926 2.6938775510204085
    endloop
  endfacet
  facet normal 0.0 0.0 -1.0
    outer loop
      vertex 0.020408163265306117 0.06802721088435373 2.6938775510204085
      vertex 0.06802721088435373 0.06802721088435373 2.6938775510204085
      vertex 0.044217687074829926 0.044217687074829926 2.6938775510204085
    endloop
  endfacet
  facet normal 0.0 0.0 1.0
    outer loop
      vertex 0.06802721088435373 0.020408163265306117 4.0
      vertex 0.044217687074829926 0.044217687074829926 4.0
      vertex 0.020408163265306117 0.020408163265306117 4.0
    endloop
  endfacet
  facet normal 0.0 0.0 1.0
    outer loop
      vertex 0.06802721088435373 0.06802721088435373 4.0
      vertex 0.044217687074829926 0.044217687074829926 4.0
      vertex 0.06802721088435373 0.020408163265306117 4.0
    endloop
  endfacet
  facet normal 0.0 0.0 1.0
    outer loop
      vertex 0.020408163265306117 0.020408163265306117 4.0
      vertex 0.044217687074829926 0.044217687074829926 4.0
      vertex 0.020408163265306117 0.06802721088435373 4.0
    endloop
  endfacet
  facet normal -0.0 0.0 1.0
    outer loop
      vertex 0.020408163265306117 0.06802721088435373 4.0
      vertex 0.044217687074829926 0.044217687074829926 4.0
      vertex 0.06802721088435373 0.06802721088435373 4.0
    endloop
  endfacet
  facet normal 0.0 1.0 0.0
    outer loop
      vertex 0.08843537414965985 0.06802721088435373 2.36734693877551
      vertex 0.06802721088435373 0.06802721088435373 2.36734693877551
      vertex 0.06802721088435373 0.06802721088435373 2.6938775510204085
    endloop
  endfacet
  facet normal 0.0 1.0 0.0
    outer loop
      vertex 0.08843537414965985 0.06802721088435373 2.6938775510204085
      vertex 0.08843537414965985 0.06802721088435373 2.36734693877551
      vertex 0.06802721088435373 0.06802721088435373 2.6938775510204085
    endloop
  endfacet
  facet normal 0.0 1.0 0.0
    outer loop
      vertex 0.06802721088435373 0.06802721088435373 2.6938775510204085
      vertex 0.06802721088435373 0.06802721088435373 3.020408163265306
      vertex 0.08843537414965985 0.06802721088435373 3.020408163265306
    endloop
  endfacet
  facet normal 0.0 1.0 -0.0
    outer loop
      vertex 0.08843537414965985 0.06802721088435373 2.6938775510204085
      vertex 0.06802721088435373 0.06802721088435373 2.6938775510204085
      vertex 0.08843537414965985 0.06802721088435373 3.020408163265306
    endloop
  endfacet
  facet normal -1.0 0.0 -0.0
    outer loop
      vertex 0.06802721088435373 0.06802721088435373 2.6938775510204085
      vertex 0.06802721088435373 0.06802721088435373 2.36734693877551
      vertex 0.06802721088435373 0.020408163265306117 2.36734693877551
    endloop
  endfacet
  facet normal -1.0 0.0 0.0
    outer loop
      vertex 0.06802721088435373 0.020408163265306117 2.6938775510204085
      vertex 0.06802721088435373 0.020408163265306117 3.020408163265306
      vertex 0.06802721088435373 0.06802721088435373 3.020408163265306
    endloop
  endfacet
  facet normal -1.0 0.0 0.0
    outer loop
      vertex 0.06802721088435373 0.06802721088435373 2.6938775510204085
      vertex 0.06802721088435373 0.020408163265306117 2.6938775510204085
      vertex 0.06802721088435373 0.06802721088435373 3.020408163265306
    endloop
  endfacet
  facet normal -1.0 -0.0 0.0
    outer loop
      vertex 0.06802721088435373 0.06802721088435373 2.6938775510204085
      vertex 0.06802721088435373 0.020408163265306117 2.36734693877551
      vertex 0.06802721088435373 0.020408163265306117 2.6938775510204085
    endloop
  endfacet
  facet normal 0.0 -1.0 0.0
    outer loop
      vertex 0.08843537414965985 0.020408163265306117 2.36734693877551
      vertex 0.06802721088435373 0.020408163265306117 2.6938775510204085
      vertex 0.06802721088435373 0.020408163265306117 2.36734693877551
    endloop
  endfacet
  facet normal 0.0 -1.0 0.0
    outer loop
      vertex 0.06802721088435373 0.020408163265306117 2.6938775510204085
      vertex 0.08843537414965985 0.020408163265306117 3.020408163265306
      vertex 0.06802721088435373 0.020408163265306117 3.020408163265306
    endloop
  endfacet
  facet normal 0.0 -1.0 0.0
    outer loop
      vertex 0.08843537414965985 0.020408163265306117 2.36734693877551
      vertex 0.08843537414965985 0.020408163265306117 2.6938775510204085
      vertex 0.06802721088435373 0.020408163265306117 2.6938775510204085
    endloop
  endfacet
  facet normal 0.0 -1.0 0.0
    outer loop
      vertex 0.08843537414965985 0.020408163265306117 2.6938775510204085
      vertex 0.08843537414965985 0.020408163265306117 3.020408163265306
      vertex 0.06802721088435373 0.020408163265306117 2.6938775510204085
    endloop
  endfacet
  facet normal 1.0 0.0 0.0
    outer loop
      vertex 0.08843537414965985 0.06802721088435373 2.36734693877551
      vertex 0.08843537414965985 0.020408163265306117 2.6938775510204085
      vertex 0.08843537414965985 0.020408163265306117 2.36734693877551
    endloop
  endfacet
  facet normal 1.0 0.0 -0.0
    outer loop
      vertex 0.08843537414965985 0.06802721088435373 2.36734693877551
      vertex 0.08843537414965985 0.06802721088435373 2.6938775510204085
      vertex 0.08843537414965985 0.020408163265306117 2.6938775510204085
    endloop
  endfacet
  facet normal 1.0 0.0 -0.0
    outer loop
      vertex 0.08843537414965985 0.06802721088435373 2.6938775510204085
      vertex 0.08843537414965985 0.06802721088435373 3.020408163265306
      vertex 0.08843537414965985 0.020408163265306117 3.020408163265306
    endloop
  endfacet
  facet normal 1.0 0.0 0.0
    outer loop
      vertex 0.08843537414965985 0.06802721088435373 2.6938775510204085
      vertex 0.08843537414965985 0.020408163265306117 3.020408163265306
      vertex 0.08843537414965985 0.020408163265306117 2.6938775510204085
    endloop
  endfacet
  facet normal 0.0 0.0 -1.0
    outer loop
      vertex 0.06802721088435373 0.06802721088435373 2.36734693877551
      vertex 0.08843537414965985 0.06802721088435373 2.36734693877551
      vertex 0.0782312925170068 0.044217687074829926 2.36734693877551
    endloop
  endfacet
  facet normal 0.0 0.0 -1.0
    outer loop
      vertex 0.06802721088435373 0.020408163265306117 2.36734693877551
      vertex 0.06802721088435373 0.06802721088435373 2.36734693877551
      vertex 0.0782312925170068 0.044217687074829926 2.36734693877551
    endloop
  endfacet
  facet normal 0.0 -0.0 -1.0
    outer loop
      vertex 0.08843537414965985 0.06802721088435373 2.36734693877551
      vertex 0.08843537414965985 0.020408163265306117 2.36734693877551
      vertex 0.0782312925170068 0.044217687074829926 2.36734693877551
    endloop
  endfacet
  facet normal 0.0 0.0 -1.0
    outer loop
      vertex 0.08843537414965985 0.020408163265306117 2.36734693877551
      vertex 0.06802721088435373 0.020408163265306117 2.36734693877551
      vertex 0.0782312925170068 0.044217687074829926 2.36734693877551
    endloop
  endfacet
  facet normal -0.0 0.0 1.0
    outer loop
      vertex 0.06802721088435373 0.06802721088435373 3.020408163265306
      vertex 0.0782312925170068 0.044217687074829926 3.020408163265306
      vertex 0.08843537414965985 0.06802721088435373 3.020408163265306
    endloop
  endfacet
  facet normal 0.0 0.0 1.0
    outer loop
      vertex 0.06802721088435373 0.020408163265306117 3.020408163265306
      vertex 0.0782312925170068 0.044217687074829926 3.020408163265306
      vertex 0.06802721088435373 0.06802721088435373 3.020408163265306
    endloop
  endfacet
  facet normal 0.0 0.0 1.0
    outer loop
      vertex 0.08843537414965985 0.06802721088435373 3.020408163265306
      vertex 0.0782312925170068 0.044217687074829926 3.020408163265306
      vertex 0.08843537414965985 0.020408163265306117 3.020408163265306
    endloop
  endfacet
  facet normal 0.0 0.0 1.0
    outer loop
      vertex 0.08843537414965985 0.020408163265306117 3.020408163265306
      vertex 0.0782312925170068 0.044217687074829926 3.020408163265306
      vertex 0.06802721088435373 0.020408163265306117 3.020408163265306
    endloop
  endfacet
  facet normal 0.0 -1.0 0.0
    outer loop
      vertex 0.020408163265306117 0.020408163265306117 1.3877551020408163
      vertex 0.06802721088435373 0.020408163265306117 1.3877551020408163
      vertex 0.06802721088435373 0.020408163265306117 1.7142857142857142
    endloop
  endfacet
  facet normal 0.0 -1.0 0.0
    outer loop
      vertex 0.020408163265306117 0.020408163265306117 1.7142857142857142
      vertex 0.020408163265306117 0.020408163265306117 1.3877551020408163
      vertex 0.06802721088435373 0.020408163265306117 1.7142857142857142
    endloop
  endfacet
  facet normal 0.0 -1.0 0.0
    outer loop
      vertex 0.06802721088435373 0.020408163265306117 2.36734693877551
      vertex 0.06802721088435373 0.020408163265306117 2.6938775510204085
      vertex 0.020408163265306117 0.020408163265306117 2.6938775510204085
    endloop
  endfacet
  facet normal 0.0 -1.0 0.0
    outer loop
      vertex 0.020408163265306117 0.020408163265306117 2.6938775510204085
      vertex 0.020408163265306117 0.020408163265306117 2.36734693877551
      vertex 0.06802721088435373 0.020408163265306117 2.36734693877551
    endloop
  endfacet
  facet normal 0.0 -1.0 0.0
    outer loop
      vertex 0.020408163265306117 0.020408163265306117 2.0408163265306127
      vertex 0.06802721088435373 0.020408163265306117 2.0408163265306127
      vertex 0.06802721088435373 0.020408163265306117 2.36734693877551
    endloop
  endfacet
  facet normal -0.0 -1.0 0.0
    outer loop
      vertex 0.06802721088435373 0.020408163265306117 2.36734693877551
      vertex 0.020408163265306117 0.020408163265306117 2.36734693877551
      vertex 0.020408163265306117 0.020408163265306117 2.0408163265306127
    endloop
  endfacet
  facet normal 0.0 -1.0 -0.0
    outer loop
      vertex 0.06802721088435373 0.020408163265306117 2.0408163265306127
      vertex 0.020408163265306117 0.020408163265306117 1.7142857142857142
      vertex 0.06802721088435373 0.020408163265306117 1.7142857142857142
    endloop
  endfacet
  facet normal 0.0 -1.0 0.0
    outer loop
      vertex 0.020408163265306117 0.020408163265306117 2.0408163265306127
      vertex 0.020408163265306117 0.020408163265306117 1.7142857142857142
      vertex 0.06802721088435373 0.020408163265306117 2.0408163265306127
    endloop
  endfacet
  facet normal 1.0 0.0 0.0
    outer loop
      vertex 0.06802721088435373 0.020408163265306117 1.7142857142857142
      vertex 0.06802721088435373 0.020408163265306117 1.3877551020408163
      vertex 0.06802721088435373 0.06802721088435373 1.3877551020408163
    endloop
  endfacet
  facet normal 1.0 0.0 -0.0
    outer loop
      vertex 0.06802721088435373 0.06802721088435373 2.36734693877551
      vertex 0.06802721088435373 0.06802721088435373 2.6938775510204085
      vertex 0.06802721088435373 0.020408163265306117 2.6938775510204085
    endloop
  endfacet
  facet normal 1.0 0.0 0.0
    outer loop
      vertex 0.06802721088435373 0.020408163265306117 2.36734693877551
      vertex 0.06802721088435373 0.06802721088435373 2.36734693877551
      vertex 0.06802721088435373 0.020408163265306117 2.6938775510204085
    endloop
  endfacet
  facet normal 1.0 -0.0 0.0
    outer loop
      vertex 0.06802721088435373 0.020408163265306117 1.7142857142857142
      vertex 0.06802721088435373 0.06802721088435373 1.3877551020408163
      vertex 0.06802721088435373 0.06802721088435373 1.7142857142857142
    endloop
  endfacet
  facet normal 1.0 0.0 0.0
    outer loop
      vertex 0.06802721088435373 0.020408163265306117 2.36734693877551
      vertex 0.06802721088435373 0.020408163265306117 2.0408163265306127
      vertex 0.06802721088435373 0.06802721088435373 2.0408163265306127
    endloop
  endfacet
  facet normal 1.0 0.0 -0.0
    outer loop
      vertex 0.06802721088435373 0.06802721088435373 2.0408163265306127
      vertex 0.06802721088435373 0.06802721088435373 2.36734693877551
      vertex 0.06802721088435373 0.020408163265306117 2.36734693877551
    endloop
  endfacet
  facet normal 1.0 0.0 0.0
    outer loop
      vertex 0.06802721088435373 0.06802721088435373 1.7142857142857142
      vertex 0.06802721088435373 0.020408163265306117 2.0408163265306127
      vertex 0.06802721088435373 0.020408163265306117 1.7142857142857142
    endloop
  endfacet
  facet normal 1.0 0.0 0.0
    outer loop
      vertex 0.06802721088435373 0.06802721088435373 2.0408163265306127
      vertex 0.06802721088435373 0.020408163265306117 2.0408163265306127
      vertex 0.06802721088435373 0.06802721088435373 1.7142857142857142
    endloop
  endfacet
  facet normal 0.0 1.0 0.0
    outer loop
      vertex 0.020408163265306117 0.06802721088435373 1.3877551020408163
      vertex 0.06802721088435373 0.06802721088435373 1.7142857142857142
      vertex 0.06802721088435373 0.06802721088435373 1.3877551020408163
    endloop
  endfacet
  facet normal 0.0 1.0 -0.0
    outer loop
      vertex 0.06802721088435373 0.06802721088435373 2.36734693877551
      vertex 0.020408163265306117 0.06802721088435373 2.6938775510204085
      vertex 0.06802721088435373 0.06802721088435373 2.6938775510204085
    endloop
  endfacet
  facet normal -0.0 1.0 0.0
    outer loop
      vertex 0.020408163265306117 0.06802721088435373 1.7142857142857142
      vertex 0.06802721088435373 0.06802721088435373 1.7142857142857142
      vertex 0.020408163265306117 0.06802721088435373 1.3877551020408163
    endloop
  endfacet
  facet normal 0.0 1.0 0.0
    outer loop
      vertex 0.020408163265306117 0.06802721088435373 2.36734693877551
      vertex 0.020408163265306117 0.06802721088435373 2.6938775510204085
      vertex 0.06802721088435373 0.06802721088435373 2.36734693877551
    endloop
  endfacet
  facet normal 0.0 1.0 0.0
    outer loop
      vertex 0.06802721088435373 0.06802721088435373 2.36734693877551
      vertex 0.06802721088435373 0.06802721088435373 2.0408163265306127
      vertex 0.020408163265306117 0.06802721088435373 2.0408163265306127
    endloop
  endfacet
  facet normal -0.0 1.0 0.0
    outer loop
      vertex 0.020408163265306117 0.06802721088435373 2.36734693877551
      vertex 0.06802721088435373 0.06802721088435373 2.36734693877551
      vertex 0.020408163265306117 0.06802721088435373 2.0408163265306127
    endloop
  endfacet
  facet normal 0.0 1.0 0.0
    outer loop
      vertex 0.06802721088435373 0.06802721088435373 2.0408163265306127
      vertex 0.06802721088435373 0.06802721088435373 1.7142857142857142
      vertex 0.020408163265306117 0.06802721088435373 1.7142857142857142
    endloop
  endfacet
  facet normal -0.0 1.0 0.0
    outer loop
      vertex 0.020408163265306117 0.06802721088435373 2.0408163265306127
      vertex 0.06802721088435373 0.06802721088435373 2.0408163265306127
      vertex 0.020408163265306117 0.06802721088435373 1.7142857142857142
    endloop
  endfacet
  facet normal -1.0 0.0 0.0
    outer loop
      vertex 0.020408163265306117 0.020408163265306117 1.3877551020408163
      vertex 0.020408163265306117 0.06802721088435373 1.7142857142857142
      vertex 0.020408163265306117 0.06802721088435373 1.3877551020408163
    endloop
  endfacet
  facet normal -1.0 0.0 0.0
    outer loop
      vertex 0.020408163265306117 0.020408163265306117 1.3877551020408163
      vertex 0.020408163265306117 0.020408163265306117 1.7142857142857142
      vertex 0.020408163265306117 0.06802721088435373 1.7142857142857142
    endloop
  endfacet
  facet normal -1.0 0.0 0.0
    outer loop
      vertex 0.020408163265306117 0.06802721088435373 2.36734693877551
      vertex 0.020408163265306117 0.020408163265306117 2.6938775510204085
      vertex 0.020408163265306117 0.06802721088435373 2.6938775510204085
    endloop
  endfacet
  facet normal -1.0 0.0 0.0
    outer loop
      vertex 0.020408163265306117 0.020408163265306117 2.36734693877551
      vertex 0.020408163265306117 0.020408163265306117 2.6938775510204085
      vertex 0.020408163265306117 0.06802721088435373 2.36734693877551
    endloop
  endfacet
  facet normal -1.0 0.0 0.0
    outer loop
      vertex 0.020408163265306117 0.020408163265306117 2.0408163265306127
      vertex 0.020408163265306117 0.020408163265306117 2.36734693877551
      vertex 0.020408163265306117 0.06802721088435373 2.0408163265306127
    endloop
  endfacet
  facet normal -1.0 0.0 0.0
    outer loop
      vertex 0.020408163265306117 0.06802721088435373 2.0408163265306127
      vertex 0.020408163265306117 0.020408163265306117 2.36734693877551
      vertex 0.020408163265306117 0.06802721088435373 2.36734693877551
    endloop
  endfacet
  facet normal -1.0 0.0 0.0
    outer loop
      vertex 0.020408163265306117 0.020408163265306117 1.7142857142857142
      vertex 0.020408163265306117 0.020408163265306117 2.0408163265306127
      vertex 0.020408163265306117 0.06802721088435373 2.0408163265306127
    endloop
  endfacet
  facet normal -1.0 0.0 0.0
    outer loop
      vertex 0.020408163265306117 0.020408163265306117 1.7142857142857142
      vertex 0.020408163265306117 0.06802721088435373 2.0408163265306127
      vertex 0.020408163265306117 0.06802721088435373 1.7142857142857142
    endloop
  endfacet
  facet normal 0.0 0.0 -1.0
    outer loop
      vertex 0.06802721088435373 0.020408163265306117 1.3877551020408163
      vertex 0.020408163265306117 0.020408163265306117 1.3877551020408163
      vertex 0.044217687074829926 0.044217687074829926 1.3877551020408163
    endloop
  endfacet
  facet normal 0.0 -0.0 -1.0
    outer loop
      vertex 0.06802721088435373 0.06802721088435373 1.3877551020408163
      vertex 0.06802721088435373 0.020408163265306117 1.3877551020408163
      vertex 0.044217687074829926 0.044217687074829926 1.3877551020408163
    endloop
  endfacet
  facet normal 0.0 0.0 -1.0
    outer loop
      vertex 0.020408163265306117 0.020408163265306117 1.3877551020408163
      vertex 0.020408163265306117 0.06802721088435373 1.3877551020408163
      vertex 0.044217687074829926 0.044217687074829926 1.3877551020408163
    endloop
  endfacet
  facet normal 0.0 0.0 -1.0
    outer loop
      vertex 0.020408163265306117 0.06802721088435373 1.3877551020408163
      vertex 0.06802721088435373 0.06802721088435373 1.3877551020408163
      vertex 0.044217687074829926 0.044217687074829926 1.3877551020408163
    endloop
  endfacet
  facet normal 0.0 0.0 1.0
    outer loop
      vertex 0.06802721088435373 0.020408163265306117 2.6938775510204085
      vertex 0.044217687074829926 0.044217687074829926 2.6938775510204085
      vertex 0.020408163265306117 0.020408163265306117 2.6938775510204085
    endloop
  endfacet
  facet normal 0.0 0.0 1.0
    outer loop
      vertex 0.06802721088435373 0.06802721088435373 2.6938775510204085
      vertex 0.044217687074829926 0.044217687074829926 2.6938775510204085
      vertex 0.06802721088435373 0.020408163265306117 2.6938775510204085
    endloop
  endfacet
  facet normal 0.0 0.0 1.0
    outer loop
      vertex 0.020408163265306117 0.020408163265306117 2.6938775510204085
      vertex 0.044217687074829926 0.044217687074829926 2.6938775510204085
      vertex 0.020408163265306117 0.06802721088435373 2.6938775510204085
    endloop
  endfacet
  facet normal -0.0 0.0 1.0
    outer loop
      vertex 0.020408163265306117 0.06802721088435373 2.6938775510204085
      vertex 0.044217687074829926 0.044217687074829926 2.6938775510204085
      vertex 0.06802721088435373 0.06802721088435373 2.6938775510204085
    endloop
  endfacet
  facet normal 0.0 1.0 0.0
    outer loop
      vertex 0.08843537414965985 0.06802721088435373 1.0612244897959182
      vertex 0.06802721088435373 0.06802721088435373 1.0612244897959182
      vertex 0.06802721088435373 0.06802721088435373 1.3877551020408163
    endloop
  endfacet
  facet normal 0.0 1.0 0.0
    outer loop
      vertex 0.08843537414965985 0.06802721088435373 1.3877551020408163
      vertex 0.08843537414965985 0.06802721088435373 1.0612244897959182
      vertex 0.06802721088435373 0.06802721088435373 1.3877551020408163
    endloop
  endfacet
  facet normal 0.0 1.0 0.0
    outer loop
      vertex 0.06802721088435373 0.06802721088435373 1.3877551020408163
      vertex 0.06802721088435373 0.06802721088435373 1.7142857142857142
      vertex 0.08843537414965985 0.06802721088435373 1.7142857142857142
    endloop
  endfacet
  facet normal 0.0 1.0 -0.0
    outer loop
      vertex 0.08843537414965985 0.06802721088435373 1.3877551020408163
      vertex 0.06802721088435373 0.06802721088435373 1.3877551020408163
      vertex 0.08843537414965985 0.06802721088435373 1.7142857142857142
    endloop
  endfacet
  facet normal -1.0 0.0 -0.0
    outer loop
      vertex 0.06802721088435373 0.06802721088435373 1.3877551020408163
      vertex 0.06802721088435373 0.06802721088435373 1.0612244897959182
      vertex 0.06802721088435373 0.020408163265306117 1.0612244897959182
    endloop
  endfacet
  facet normal -1.0 0.0 0.0
    outer loop
      vertex 0.06802721088435373 0.020408163265306117 1.3877551020408163
      vertex 0.06802721088435373 0.020408163265306117 1.7142857142857142
      vertex 0.06802721088435373 0.06802721088435373 1.7142857142857142
    endloop
  endfacet
  facet normal -1.0 0.0 0.0
    outer loop
      vertex 0.06802721088435373 0.06802721088435373 1.3877551020408163
      vertex 0.06802721088435373 0.020408163265306117 1.3877551020408163
      vertex 0.06802721088435373 0.06802721088435373 1.7142857142857142
    endloop
  endfacet
  facet normal -1.0 -0.0 0.0
    outer loop
      vertex 0.06802721088435373 0.06802721088435373 1.3877551020408163
      vertex 0.06802721088435373 0.020408163265306117 1.0612244897959182
      vertex 0.06802721088435373 0.020408163265306117 1.3877551020408163
    endloop
  endfacet
  facet normal 0.0 -1.0 0.0
    outer loop
      vertex 0.08843537414965985 0.020408163265306117 1.0612244897959182
      vertex 0.06802721088435373 0.020408163265306117 1.3877551020408163
      vertex 0.06802721088435373 0.020408163265306117 1.0612244897959182
    endloop
  endfacet
  facet normal 0.0 -1.0 0.0
    outer loop
      vertex 0.06802721088435373 0.020408163265306117 1.3877551020408163
      vertex 0.08843537414965985 0.020408163265306117 1.7142857142857142
      vertex 0.06802721088435373 0.020408163265306117 1.7142857142857142
    endloop
  endfacet
  facet normal 0.0 -1.0 0.0
    outer loop
      vertex 0.08843537414965985 0.020408163265306117 1.0612244897959182
      vertex 0.08843537414965985 0.020408163265306117 1.3877551020408163
      vertex 0.06802721088435373 0.020408163265306117 1.3877551020408163
    endloop
  endfacet
  facet normal 0.0 -1.0 0.0
    outer loop
      vertex 0.08843537414965985 0.020408163265306117 1.3877551020408163
      vertex 0.08843537414965985 0.020408163265306117 1.7142857142857142
      vertex 0.06802721088435373 0.020408163265306117 1.3877551020408163
    endloop
  endfacet
  facet normal 1.0 0.0 0.0
    outer loop
      vertex 0.08843537414965985 0.06802721088435373 1.0612244897959182
      vertex 0.08843537414965985 0.020408163265306117 1.3877551020408163
      vertex 0.08843537414965985 0.020408163265306117 1.0612244897959182
    endloop
  endfacet
  facet normal 1.0 0.0 -0.0
    outer loop
      vertex 0.08843537414965985 0.06802721088435373 1.0612244897959182
      vertex 0.08843537414965985 0.06802721088435373 1.3877551020408163
      vertex 0.08843537414965985 0.020408163265306117 1.3877551020408163
    endloop
  endfacet
  facet normal 1.0 0.0 -0.0
    outer loop
      vertex 0.08843537414965985 0.06802721088435373 1.3877551020408163
      vertex 0.08843537414965985 0.06802721088435373 1.7142857142857142
      vertex 0.08843537414965985 0.020408163265306117 1.7142857142857142
    endloop
  endfacet
  facet normal 1.0 0.0 0.0
    outer loop
      vertex 0.08843537414965985 0.06802721088435373 1.3877551020408163
      vertex 0.08843537414965985 0.020408163265306117 1.7142857142857142
      vertex 0.08843537414965985 0.020408163265306117 1.3877551020408163
    endloop
  endfacet
  facet normal 0.0 0.0 -1.0
    outer loop
      vertex 0.06802721088435373 0.06802721088435373 1.0612244897959182
      vertex 0.08843537414965985 0.06802721088435373 1.0612244897959182
      vertex 0.0782312925170068 0.044217687074829926 1.0612244897959182
    endloop
  endfacet
  facet normal 0.0 0.0 -1.0
    outer loop
      vertex 0.06802721088435373 0.020408163265306117 1.0612244897959182
      vertex 0.06802721088435373 0.06802721088435373 1.0612244897959182
      vertex 0.0782312925170068 0.044217687074829926 1.0612244897959182
    endloop
  endfacet
  facet normal 0.0 -0.0 -1.0
    outer loop
      vertex 0.08843537414965985 0.06802721088435373 1.0612244897959182
      vertex 0.08843537414965985 0.020408163265306117 1.0612244897959182
      vertex 0.0782312925170068 0.044217687074829926 1.0612244897959182
    endloop
  endfacet
  facet normal 0.0 0.0 -1.0
    outer loop
      vertex 0.08843537414965985 0.020408163265306117 1.0612244897959182
      vertex 0.06802721088435373 0.020408163265306117 1.0612244897959182
      vertex 0.0782312925170068 0.044217687074829926 1.0612244897959182
    endloop
  endfacet
  facet normal -0.0 0.0 1.0
    outer loop
      vertex 0.06802721088435373 0.06802721088435373 1.7142857142857142
      vertex 0.0782312925170068 0.044217687074829926 1.7142857142857142
      vertex 0.08843537414965985 0.06802721088435373 1.7142857142857142
    endloop
  endfacet
  facet normal 0.0 0.0 1.0
    outer loop
      vertex 0.06802721088435373 0.020408163265306117 1.7142857142857142
      vertex 0.0782312925170068 0.044217687074829926 1.7142857142857142
      vertex 0.06802721088435373 0.06802721088435373 1.7142857142857142
    endloop
  endfacet
  facet normal 0.0 0.0 1.0
    outer loop
      vertex 0.08843537414965985 0.06802721088435373 1.7142857142857142
      vertex 0.0782312925170068 0.044217687074829926 1.7142857142857142
      vertex 0.08843537414965985 0.020408163265306117 1.7142857142857142
    endloop
  endfacet
  facet normal 0.0 0.0 1.0
    outer loop
      vertex 0.08843537414965985 0.020408163265306117 1.7142857142857142
      vertex 0.0782312925170068 0.044217687074829926 1.7142857142857142
      vertex 0.06802721088435373 0.020408163265306117 1.7142857142857142
    endloop
  endfacet
  facet normal 0.0 -1.0 0.0
    outer loop
      vertex 0.020408163265306117 0.020408163265306117 0.0
      vertex 0.06802721088435373 0.020408163265306117 0.0
      vertex 0.06802721088435373 0.020408163265306117 0.34693877551020397
    endloop
  endfacet
  facet normal 0.0 -1.0 0.0
    outer loop
      vertex 0.020408163265306117 0.020408163265306117 0.34693877551020397
      vertex 0.020408163265306117 0.020408163265306117 0.0
      vertex 0.06802721088435373 0.020408163265306117 0.34693877551020397
    endloop
  endfacet
  facet normal 0.0 -1.0 0.0
    outer loop
      vertex 0.06802721088435373 0.020408163265306117 1.0408163265306116
      vertex 0.06802721088435373 0.020408163265306117 1.3877551020408163
      vertex 0.020408163265306117 0.020408163265306117 1.3877551020408163
    endloop
  endfacet
  facet normal 0.0 -1.0 0.0
    outer loop
      vertex 0.020408163265306117 0.020408163265306117 1.3877551020408163
      vertex 0.020408163265306117 0.020408163265306117 1.0408163265306116
      vertex 0.06802721088435373 0.020408163265306117 1.0408163265306116
    endloop
  endfacet
  facet normal 0.0 -1.0 0.0
    outer loop
      vertex 0.020408163265306117 0.020408163265306117 0.693877551020407
      vertex 0.06802721088435373 0.020408163265306117 0.693877551020407
      vertex 0.06802721088435373 0.020408163265306117 1.0408163265306116
    endloop
  endfacet
  facet normal -0.0 -1.0 0.0
    outer loop
      vertex 0.06802721088435373 0.020408163265306117 1.0408163265306116
      vertex 0.020408163265306117 0.020408163265306117 1.0408163265306116
      vertex 0.020408163265306117 0.020408163265306117 0.693877551020407
    endloop
  endfacet
  facet normal 0.0 -1.0 0.0
    outer loop
      vertex 0.06802721088435373 0.020408163265306117 0.34693877551020397
      vertex 0.06802721088435373 0.020408163265306117 0.693877551020407
      vertex 0.020408163265306117 0.020408163265306117 0.693877551020407
    endloop
  endfacet
  facet normal 0.0 -1.0 0.0
    outer loop
      vertex 0.020408163265306117 0.020408163265306117 0.34693877551020397
      vertex 0.06802721088435373 0.020408163265306117 0.34693877551020397
      vertex 0.020408163265306117 0.020408163265306117 0.693877551020407
    endloop
  endfacet
  facet normal 1.0 0.0 0.0
    outer loop
      vertex 0.06802721088435373 0.020408163265306117 0.34693877551020397
      vertex 0.06802721088435373 0.020408163265306117 0.0
      vertex 0.06802721088435373 0.06802721088435373 0.0
    endloop
  endfacet
  facet normal 1.0 0.0 -0.0
    outer loop
      vertex 0.06802721088435373 0.06802721088435373 1.0408163265306116
      vertex 0.06802721088435373 0.06802721088435373 1.3877551020408163
      vertex 0.06802721088435373 0.020408163265306117 1.3877551020408163
    endloop
  endfacet
  facet normal 1.0 0.0 0.0
    outer loop
      vertex 0.06802721088435373 0.020408163265306117 1.0408163265306116
      vertex 0.06802721088435373 0.06802721088435373 1.0408163265306116
      vertex 0.06802721088435373 0.020408163265306117 1.3877551020408163
    endloop
  endfacet
  facet normal 1.0 -0.0 0.0
    outer loop
      vertex 0.06802721088435373 0.020408163265306117 0.34693877551020397
      vertex 0.06802721088435373 0.06802721088435373 0.0
      vertex 0.06802721088435373 0.06802721088435373 0.34693877551020397
    endloop
  endfacet
  facet normal 1.0 0.0 0.0
    outer loop
      vertex 0.06802721088435373 0.020408163265306117 1.0408163265306116
      vertex 0.06802721088435373 0.020408163265306117 0.693877551020407
      vertex 0.06802721088435373 0.06802721088435373 0.693877551020407
    endloop
  endfacet
  facet normal 1.0 0.0 -0.0
    outer loop
      vertex 0.06802721088435373 0.06802721088435373 0.693877551020407
      vertex 0.06802721088435373 0.06802721088435373 1.0408163265306116
      vertex 0.06802721088435373 0.020408163265306117 1.0408163265306116
    endloop
  endfacet
  facet normal 1.0 0.0 0.0
    outer loop
      vertex 0.06802721088435373 0.06802721088435373 0.693877551020407
      vertex 0.06802721088435373 0.020408163265306117 0.693877551020407
      vertex 0.06802721088435373 0.020408163265306117 0.34693877551020397
    endloop
  endfacet
  facet normal 1.0 0.0 -0.0
    outer loop
      vertex 0.06802721088435373 0.06802721088435373 0.34693877551020397
      vertex 0.06802721088435373 0.06802721088435373 0.693877551020407
      vertex 0.06802721088435373 0.020408163265306117 0.34693877551020397
    endloop
  endfacet
  facet normal 0.0 1.0 0.0
    outer loop
      vertex 0.020408163265306117 0.06802721088435373 0.0
      vertex 0.06802721088435373 0.06802721088435373 0.34693877551020397
      vertex 0.06802721088435373 0.06802721088435373 0.0
    endloop
  endfacet
  facet normal 0.0 1.0 -0.0
    outer loop
      vertex 0.06802721088435373 0.06802721088435373 1.0408163265306116
      vertex 0.020408163265306117 0.06802721088435373 1.3877551020408163
      vertex 0.06802721088435373 0.06802721088435373 1.3877551020408163
    endloop
  endfacet
  facet normal -0.0 1.0 0.0
    outer loop
      vertex 0.020408163265306117 0.06802721088435373 0.34693877551020397
      vertex 0.06802721088435373 0.06802721088435373 0.34693877551020397
      vertex 0.020408163265306117 0.06802721088435373 0.0
    endloop
  endfacet
  facet normal 0.0 1.0 0.0
    outer loop
      vertex 0.020408163265306117 0.06802721088435373 1.0408163265306116
      vertex 0.020408163265306117 0.06802721088435373 1.3877551020408163
      vertex 0.06802721088435373 0.06802721088435373 1.0408163265306116
    endloop
  endfacet
  facet normal 0.0 1.0 -0.0
    outer loop
      vertex 0.06802721088435373 0.06802721088435373 0.693877551020407
      vertex 0.020408163265306117 0.06802721088435373 1.0408163265306116
      vertex 0.06802721088435373 0.06802721088435373 1.0408163265306116
    endloop
  endfacet
  facet normal 0.0 1.0 -0.0
    outer loop
      vertex 0.06802721088435373 0.06802721088435373 0.34693877551020397
      vertex 0.020408163265306117 0.06802721088435373 0.693877551020407
      vertex 0.06802721088435373 0.06802721088435373 0.693877551020407
    endloop
  endfacet
  facet normal 0.0 1.0 0.0
    outer loop
      vertex 0.020408163265306117 0.06802721088435373 0.693877551020407
      vertex 0.020408163265306117 0.06802721088435373 1.0408163265306116
      vertex 0.06802721088435373 0.06802721088435373 0.693877551020407
    endloop
  endfacet
  facet normal 0.0 1.0 0.0
    outer loop
      vertex 0.020408163265306117 0.06802721088435373 0.34693877551020397
      vertex 0.020408163265306117 0.06802721088435373 0.693877551020407
      vertex 0.06802721088435373 0.06802721088435373 0.34693877551020397
    endloop
  endfacet
  facet normal -1.0 0.0 0.0
    outer loop
      vertex 0.020408163265306117 0.020408163265306117 0.0
      vertex 0.020408163265306117 0.06802721088435373 0.34693877551020397
      vertex 0.020408163265306117 0.06802721088435373 0.0
    endloop
  endfacet
  facet normal -1.0 0.0 0.0
    outer loop
      vertex 0.020408163265306117 0.020408163265306117 0.0
      vertex 0.020408163265306117 0.020408163265306117 0.34693877551020397
      vertex 0.020408163265306117 0.06802721088435373 0.34693877551020397
    endloop
  endfacet
  facet normal -1.0 0.0 0.0
    outer loop
      vertex 0.020408163265306117 0.06802721088435373 1.0408163265306116
      vertex 0.020408163265306117 0.020408163265306117 1.3877551020408163
      vertex 0.020408163265306117 0.06802721088435373 1.3877551020408163
    endloop
  endfacet
  facet normal -1.0 0.0 0.0
    outer loop
      vertex 0.020408163265306117 0.020408163265306117 1.0408163265306116
      vertex 0.020408163265306117 0.020408163265306117 1.3877551020408163
      vertex 0.020408163265306117 0.06802721088435373 1.0408163265306116
    endloop
  endfacet
  facet normal -1.0 0.0 0.0
    outer loop
      vertex 0.020408163265306117 0.020408163265306117 0.693877551020407
      vertex 0.020408163265306117 0.020408163265306117 1.0408163265306116
      vertex 0.020408163265306117 0.06802721088435373 0.693877551020407
    endloop
  endfacet
  facet normal -1.0 0.0 0.0
    outer loop
      vertex 0.020408163265306117 0.06802721088435373 0.693877551020407
      vertex 0.020408163265306117 0.020408163265306117 1.0408163265306116
      vertex 0.020408163265306117 0.06802721088435373 1.0408163265306116
    endloop
  endfacet
  facet normal -1.0 0.0 0.0
    outer loop
      vertex 0.020408163265306117 0.020408163265306117 0.34693877551020397
      vertex 0.020408163265306117 0.020408163265306117 0.693877551020407
      vertex 0.020408163265306117 0.06802721088435373 0.34693877551020397
    endloop
  endfacet
  facet normal -1.0 0.0 0.0
    outer loop
      vertex 0.020408163265306117 0.06802721088435373 0.34693877551020397
      vertex 0.020408163265306117 0.020408163265306117 0.693877551020407
      vertex 0.020408163265306117 0.06802721088435373 0.693877551020407
    endloop
  endfacet
  facet normal 0.0 0.0 -1.0
    outer loop
      vertex 0.06802721088435373 0.020408163265306117 0.0
      vertex 0.020408163265306117 0.020408163265306117 0.0
      vertex 0.044217687074829926 0.044217687074829926 0.0
    endloop
  endfacet
  facet normal 0.0 -0.0 -1.0
    outer loop
      vertex 0.06802721088435373 0.06802721088435373 0.0
      vertex 0.06802721088435373 0.020408163265306117 0.0
      vertex 0.044217687074829926 0.044217687074829926 0.0
    endloop
  endfacet
  facet normal 0.0 0.0 -1.0
    outer loop
      vertex 0.020408163265306117 0.020408163265306117 0.0
      vertex 0.020408163265306117 0.06802721088435373 0.0
      vertex 0.044217687074829926 0.044217687074829926 0.0
    endloop
  endfacet
  facet normal 0.0 0.0 -1.0
    outer loop
      vertex 0.020408163265306117 0.06802721088435373 0.0
      vertex 0.06802721088435373 0.06802721088435373 0.0
      vertex 0.044217687074829926 0.044217687074829926 0.0
    endloop
  endfacet
  facet normal 0.0 0.0 1.0
    outer loop
      vertex 0.06802721088435373 0.020408163265306117 1.3877551020408163
      vertex 0.044217687074829926 0.044217687074829926 1.3877551020408163
      vertex 0.020408163265306117 0.020408163265306117 1.3877551020408163
    endloop
  endfacet
  facet normal 0.0 0.0 1.0
    outer loop
      vertex 0.06802721088435373 0.06802721088435373 1.3877551020408163
      vertex 0.044217687074829926 0.044217687074829926 1.3877551020408163
      vertex 0.06802721088435373 0.020408163265306117 1.3877551020408163
    endloop
  endfacet
  facet normal 0.0 0.0 1.0
    outer loop
      vertex 0.020408163265306117 0.020408163265306117 1.3877551020408163
      vertex 0.044217687074829926 0.044217687074829926 1.3877551020408163
      vertex 0.020408163265306117 0.06802721088435373 1.3877551020408163
    endloop
  endfacet
  facet normal -0.0 0.0 1.0
    outer loop
      vertex 0.020408163265306117 0.06802721088435373 1.3877551020408163
      vertex 0.044217687074829926 0.044217687074829926 1.3877551020408163
      vertex 0.06802721088435373 0.06802721088435373 1.3877551020408163
    endloop
  endfacet
endsolid abc_100_083
