solid abc_100_084
  facet normal 0.0 0.0 1.0
    outer loop
      vertex 2.782705433401074 0.008365588940117212 0.4190264438620801
      vertex 2.5150065873173344 0.008365588940117212 0.4190264438620801
      vertex 2.5150065873173344 0.0055770592934114745 0.4190264438620801
    endloop
  endfacet
  facet normal 0.0 -0.0 1.0
    outer loop
      vertex 2.782705433401074 0.0055770592934114745 0.4190264438620801
      vertex 2.782705433401074 0.008365588940117212 0.4190264438620801
      vertex 2.5150065873173344 0.0055770592934114745 0.4190264438620801
    endloop
  endfacet
  facet normal 0.0 -1.0 0.0
    outer loop
      vertex 2.5150065873173344 0.0055770592934114745 0.4190264438620801
      vertex 2.6488560103592054 0.0055770592934114745 0.33502198825507096
      vertex 2.782705433401074 0.0055770592934114745 0.4190264438620801
    endloop
  endfacet
  facet normal 0.0 -1.0 0.0
    outer loop
      vertex 2.5150065873173344 0.0055770592934114745 0.28517702082020463
      vertex 2.6488560103592054 0.0055770592934114745 0.33502198825507096
      vertex 2.5150065873173344 0.0055770592934114745 0.4190264438620801
    endloop
  endfacet
  facet normal 0.0 -1.0 -0.0
    outer loop
      vertex 2.782705433401074 0.0055770592934114745 0.4190264438620801
      vertex 2.6488560103592054 0.0055770592934114745 0.33502198825507096
      vertex 2.782705433401074 0.0055770592934114745 0.21685804447591397
    endloop
  endfacet
  facet normal 0.0 -1.0 0.0
    outer loop
      vertex 2.782705433401074 0.0055770592934114745 0.21685804447591397
      vertex 2.6488560103592054 0.0055770592934114745 0.33502198825507096
      vertex 2.5150065873173344 0.0055770592934114745 0.28517702082020463
    endloop
  endfacet
  facet normal 1.0 0.0 -0.0
    outer loop
      vertex 2.782705433401074 0.008365588940117212 0.21685804447591397
      vertex 2.782705433401074 0.008365588940117212 0.4190264438620801
      vertex 2.782705433401074 0.0055770592934114745 0.4190264438620801
    endloop
  endfacet
  facet normal 1.0 0.0 0.0
    outer loop
      vertex 2.782705433401074 0.0055770592934114745 0.21685804447591397
      vertex 2.782705433401074 0.008365588940117212 0.21685804447591397
      vertex 2.782705433401074 0.0055770592934114745 0.4190264438620801
    endloop
  endfacet
  facet normal -1.0 0.0 0.0
    outer loop
      vertex 2.5150065873173344 0.008365588940117212 0.28517702082020463
      vertex 2.5150065873173344 0.0055770592934114745 0.4190264438620801
      vertex 2.5150065873173344 0.008365588940117212 0.4190264438620801
    endloop
  endfacet
  facet normal -1.0 0.0 0.0
    outer loop
      vertex 2.5150065873173344 0.008365588940117212 0.28517702082020463
      vertex 2.5150065873173344 0.0055770592934114745 0.28517702082020463
      vertex 2.5150065873173344 0.0055770592934114745 0.4190264438620801
    endloop
  endfacet
  facet normal -0.24728244100305055 -0.0 -0.9689434422976261
    outer loop
      vertex 2.782705433401074 0.008365588940117212 0.21685804447591397
      vertex 2.782705433401074 0.0055770592934114745 0.21685804447591397
      vertex 2.5150065873173344 0.0055770592934114745 0.28517702082020463
    endloop
  endfacet
  facet normal -0.24728244100305055 -0.0 -0.9689434422976261
    outer loop
      vertex 2.5150065873173344 0.008365588940117212 0.28517702082020463
      vertex 2.782705433401074 0.008365588940117212 0.21685804447591397
      vertex 2.5150065873173344 0.0055770592934114745 0.28517702082020463
    endloop
  endfacet
  facet normal -0.0 1.0 0.0
    outer loop
      vertex 2.5150065873173344 0.008365588940117212 0.4190264438620801
      vertex 2.782705433401074 0.008365588940117212 0.4190264438620801
      vertex 2.6488560103592054 0.008365588940117212 0.33502198825506974
    endloop
  endfacet
  facet normal 0.0 1.0 0.0
    outer loop
      vertex 2.5150065873173344 0.008365588940117212 0.28517702082020463
      vertex 2.5150065873173344 0.008365588940117212 0.4190264438620801
      vertex 2.6488560103592054 0.008365588940117212 0.33502198825506974
    endloop
  endfacet
  facet normal 0.0 1.0 0.0
    outer loop
      vertex 2.782705433401074 0.008365588940117212 0.4190264438620801
      vertex 2.782705433401074 0.008365588940117212 0.21685804447591397
      vertex 2.6488560103592054 0.008365588940117212 0.33502198825506974
    endloop
  endfacet
  facet normal 0.0 1.0 0.0
    outer loop
      vertex 2.782705433401074 0.008365588940117212 0.21685804447591397
      vertex 2.5150065873173344 0.008365588940117212 0.28517702082020463
      vertex 2.6488560103592054 0.008365588940117212 0.33502198825506974
    endloop
  endfacet
  facet normal 0.0 0.0 1.0
    outer loop
      vertex 3.7323011539162376 0.008365588940117212 0.2868855002048299
      vertex 3.4646023078324766 0.008365588940117212 0.2868855002048299
      vertex 3.4646023078324766 0.0055770592934114745 0.2868855002048299
    endloop
  endfacet
  facet normal 0.0 -0.0 1.0
    outer loop
      vertex 4.0 0.0055770592934114745 0.2868855002048299
      vertex 4.0 0.008365588940117212 0.2868855002048299
      vertex 3.7323011539162376 0.008365588940117212 0.2868855002048299
    endloop
  endfacet
  facet normal 0.0 0.0 1.0
    outer loop
      vertex 3.4646023078324766 0.0055770592934114745 0.2868855002048299
      vertex 3.7323011539162376 0.0055770592934114745 0.2868855002048299
      vertex 3.7323011539162376 0.008365588940117212 0.2868855002048299
    endloop
  endfacet
  facet normal 0.0 0.0 1.0
    outer loop
      vertex 3.7323011539162376 0.008365588940117212 0.2868855002048299
      vertex 3.7323011539162376 0.0055770592934114745 0.2868855002048299
      vertex 4.0 0.0055770592934114745 0.2868855002048299
    endloop
  endfacet
  facet normal 0.0 -1.0 0.0
    outer loop
      vertex 3.4646023078324766 0.0055770592934114745 0.15303607716295448
      vertex 3.5984517308743564 0.0055770592934114745 0.21996078868389218
      vertex 3.4646023078324766 0.0055770592934114745 0.2868855002048299
    endloop
  endfacet
  facet normal 0.0 -1.0 0.0
    outer loop
      vertex 3.4646023078324766 0.0055770592934114745 0.2868855002048299
      vertex 3.5984517308743564 0.0055770592934114745 0.21996078868389218
      vertex 3.7323011539162376 0.0055770592934114745 0.2868855002048299
    endloop
  endfacet
  facet normal 0.0 -1.0 -0.0
    outer loop
      vertex 4.0 0.0055770592934114745 0.2868855002048299
      vertex 3.8661505769581175 0.0055770592934114745 0.21996078868389218
      vertex 4.0 0.0055770592934114745 0.15303607716295448
    endloop
  endfacet
  facet normal 0.0 -1.0 0.0
    outer loop
      vertex 3.7323011539162376 0.0055770592934114745 0.2868855002048299
      vertex 3.8661505769581175 0.0055770592934114745 0.21996078868389218
      vertex 4.0 0.0055770592934114745 0.2868855002048299
    endloop
  endfacet
  facet normal 0.0 -1.0 0.0
    outer loop
      vertex 3.7323011539162376 0.0055770592934114745 0.15303607716295448
      vertex 3.5984517308743564 0.0055770592934114745 0.21996078868389218
      vertex 3.4646023078324766 0.0055770592934114745 0.15303607716295448
    endloop
  endfacet
  facet normal 0.0 -1.0 0.0
    outer loop
      vertex 4.0 0.0055770592934114745 0.15303607716295448
      vertex 3.8661505769581175 0.0055770592934114745 0.21996078868389218
      vertex 3.7323011539162376 0.0055770592934114745 0.15303607716295448
    endloop
  endfacet
  facet normal 0.0 -1.0 0.0
    outer loop
      vertex 3.7323011539162376 0.0055770592934114745 0.15303607716295448
      vertex 3.8661505769581175 0.0055770592934114745 0.21996078868389218
      vertex 3.7323011539162376 0.0055770592934114745 0.2868855002048299
    endloop
  endfacet
  facet normal 0.0 -1.0 -0.0
    outer loop
      vertex 3.7323011539162376 0.0055770592934114745 0.2868855002048299
      vertex 3.5984517308743564 0.0055770592934114745 0.21996078868389218
      vertex 3.7323011539162376 0.0055770592934114745 0.15303607716295448
    endloop
  endfacet
  facet normal 1.0 0.0 -0.0
    outer loop
      vertex 4.0 0.008365588940117212 0.15303607716295448
      vertex 4.0 0.008365588940117212 0.2868855002048299
      vertex 4.0 0.0055770592934114745 0.2868855002048299
    endloop
  endfacet
  facet normal 1.0 0.0 0.0
    outer loop
      vertex 4.0 0.0055770592934114745 0.15303607716295448
      vertex 4.0 0.008365588940117212 0.15303607716295448
      vertex 4.0 0.0055770592934114745 0.2868855002048299
    endloop
  endfacet
  facet normal -1.0 0.0 0.0
    outer loop
      vertex 3.4646023078324766 0.008365588940117212 0.15303607716295448
      vertex 3.4646023078324766 0.0055770592934114745 0.2868855002048299
      vertex 3.4646023078324766 0.008365588940117212 0.2868855002048299
    endloop
  endfacet
  facet normal -1.0 0.0 0.0
    outer loop
      vertex 3.4646023078324766 0.008365588940117212 0.15303607716295448
      vertex 3.4646023078324766 0.0055770592934114745 0.15303607716295448
      vertex 3.4646023078324766 0.0055770592934114745 0.2868855002048299
    endloop
  endfacet
  facet normal 0.0 0.0 -1.0
    outer loop
      vertex 3.4646023078324766 0.008365588940117212 0.15303607716295448
      vertex 3.7323011539162376 0.0055770592934114745 0.15303607716295448
      vertex 3.4646023078324766 0.0055770592934114745 0.15303607716295448
    endloop
  endfacet
  facet normal 0.0 0.0 -1.0
    outer loop
      vertex 3.7323011539162376 0.0055770592934114745 0.15303607716295448
      vertex 4.0 0.008365588940117212 0.15303607716295448
      vertex 4.0 0.0055770592934114745 0.15303607716295448
    endloop
  endfacet
  facet normal 0.0 0.0 -1.0
    outer loop
      vertex 3.7323011539162376 0.008365588940117212 0.15303607716295448
      vertex 4.0 0.008365588940117212 0.15303607716295448
      vertex 3.7323011539162376 0.0055770592934114745 0.15303607716295448
    endloop
  endfacet
  facet normal -0.0 -0.0 -1.0
    outer loop
      vertex 3.7323011539162376 0.008365588940117212 0.15303607716295448
      vertex 3.7323011539162376 0.0055770592934114745 0.15303607716295448
      vertex 3.4646023078324766 0.008365588940117212 0.15303607716295448
    endloop
  endfacet
  facet normal 0.0 1.0 0.0
    outer loop
      vertex 3.4646023078324766 0.008365588940117212 0.15303607716295448
      vertex 3.4646023078324766 0.008365588940117212 0.2868855002048299
      vertex 3.5984517308743564 0.008365588940117212 0.21996078868389218
    endloop
  endfacet
  facet normal -0.0 1.0 0.0
    outer loop
      vertex 3.4646023078324766 0.008365588940117212 0.2868855002048299
      vertex 3.7323011539162376 0.008365588940117212 0.2868855002048299
      vertex 3.5984517308743564 0.008365588940117212 0.21996078868389218
    endloop
  endfacet
  facet normal 0.0 1.0 0.0
    outer loop
      vertex 4.0 0.008365588940117212 0.2868855002048299
      vertex 4.0 0.008365588940117212 0.15303607716295448
      vertex 3.8661505769581175 0.008365588940117212 0.21996078868389218
    endloop
  endfacet
  facet normal -0.0 1.0 0.0
    outer loop
      vertex 3.7323011539162376 0.008365588940117212 0.2868855002048299
      vertex 4.0 0.008365588940117212 0.2868855002048299
      vertex 3.8661505769581175 0.008365588940117212 0.21996078868389218
    endloop
  endfacet
  facet normal 0.0 1.0 0.0
    outer loop
      vertex 4.0 0.008365588940117212 0.15303607716295448
      vertex 3.7323011539162376 0.008365588940117212 0.15303607716295448
      vertex 3.8661505769581175 0.008365588940117212 0.21996078868389218
    endloop
  endfacet
  facet normal 0.0 1.0 0.0
    outer loop
      vertex 3.7323011539162376 0.008365588940117212 0.15303607716295448
      vertex 3.4646023078324766 0.008365588940117212 0.15303607716295448
      vertex 3.5984517308743564 0.008365588940117212 0.21996078868389218
    endloop
  endfacet
  facet normal 0.0 1.0 0.0
    outer loop
      vertex 3.7323011539162376 0.008365588940117212 0.2868855002048299
      vertex 3.7323011539162376 0.008365588940117212 0.15303607716295448
      vertex 3.5984517308743564 0.008365588940117212 0.21996078868389218
    endloop
  endfacet
  facet normal 0.0 1.0 0.0
    outer loop
      vertex 3.7323011539162376 0.008365588940117212 0.15303607716295448
      vertex 3.7323011539162376 0.008365588940117212 0.2868855002048299
      vertex 3.8661505769581175 0.008365588940117212 0.21996078868389218
    endloop
  endfacet
  facet normal -0.0 0.0 1.0
    outer loop
      vertex 3.1129464791058434 0.008365588940117212 0.29183264614252963
      vertex 3.122706332869314 0.004182794470058606 0.29183264614252963
      vertex 3.1324661866327834 0.008365588940117212 0.29183264614252963
    endloop
  endfacet
  facet normal 0.0 0.0 1.0
    outer loop
      vertex 3.1129464791058434 0.0 0.29183264614252963
      vertex 3.122706332869314 0.004182794470058606 0.29183264614252963
      vertex 3.1129464791058434 0.008365588940117212 0.29183264614252963
    endloop
  endfacet
  facet normal 0.0 0.0 1.0
    outer loop
      vertex 3.1324661866327834 0.008365588940117212 0.29183264614252963
      vertex 3.122706332869314 0.004182794470058606 0.29183264614252963
      vertex 3.1324661866327834 0.0 0.29183264614252963
    endloop
  endfacet
  facet normal 0.0 0.0 1.0
    outer loop
      vertex 3.1324661866327834 0.0 0.29183264614252963
      vertex 3.122706332869314 0.004182794470058606 0.29183264614252963
      vertex 3.1129464791058434 0.0 0.29183264614252963
    endloop
  endfacet
  facet normal -0.0 -1.0 0.0
    outer loop
      vertex 3.1324661866327834 0.0 0.29183264614252963
      vertex 3.1129464791058434 0.0 0.29183264614252963
      vertex 3.1129464791058434 0.0 0.15798322310065419
    endloop
  endfacet
  facet normal 0.0 -1.0 -0.0
    outer loop
      vertex 3.1324661866327834 0.0 0.29183264614252963
      vertex 3.1129464791058434 0.0 0.15798322310065419
      vertex 3.1324661866327834 0.0 0.15798322310065419
    endloop
  endfacet
  facet normal 1.0 0.0 -0.0
    outer loop
      vertex 3.1324661866327834 0.008365588940117212 0.15798322310065419
      vertex 3.1324661866327834 0.008365588940117212 0.29183264614252963
      vertex 3.1324661866327834 0.0 0.29183264614252963
    endloop
  endfacet
  facet normal 1.0 0.0 0.0
    outer loop
      vertex 3.1324661866327834 0.0 0.15798322310065419
      vertex 3.1324661866327834 0.008365588940117212 0.15798322310065419
      vertex 3.1324661866327834 0.0 0.29183264614252963
    endloop
  endfacet
  facet normal -1.0 0.0 0.0
    outer loop
      vertex 3.1129464791058434 0.008365588940117212 0.15798322310065419
      vertex 3.1129464791058434 0.0 0.29183264614252963
      vertex 3.1129464791058434 0.008365588940117212 0.29183264614252963
    endloop
  endfacet
  facet normal -1.0 0.0 0.0
    outer loop
      vertex 3.1129464791058434 0.008365588940117212 0.15798322310065419
      vertex 3.1129464791058434 0.0 0.15798322310065419
      vertex 3.1129464791058434 0.0 0.29183264614252963
    endloop
  endfacet
  facet normal 0.0 0.0 -1.0
    outer loop
      vertex 3.1324661866327834 0.0 0.15798322310065419
      vertex 3.1129464791058434 0.0 0.15798322310065419
      vertex 3.122706332869314 0.004182794470058606 0.15798322310065419
    endloop
  endfacet
  facet normal 0.0 0.0 -1.0
    outer loop
      vertex 3.1129464791058434 0.0 0.15798322310065419
      vertex 3.1129464791058434 0.008365588940117212 0.15798322310065419
      vertex 3.122706332869314 0.004182794470058606 0.15798322310065419
    endloop
  endfacet
  facet normal 0.0 -0.0 -1.0
    outer loop
      vertex 3.1324661866327834 0.008365588940117212 0.15798322310065419
      vertex 3.1324661866327834 0.0 0.15798322310065419
      vertex 3.122706332869314 0.004182794470058606 0.15798322310065419
    endloop
  endfacet
  facet normal 0.0 0.0 -1.0
    outer loop
      vertex 3.1129464791058434 0.008365588940117212 0.15798322310065419
      vertex 3.1324661866327834 0.008365588940117212 0.15798322310065419
      vertex 3.122706332869314 0.004182794470058606 0.15798322310065419
    endloop
  endfacet
  facet normal -0.0 1.0 0.0
    outer loop
      vertex 3.1129464791058434 0.008365588940117212 0.29183264614252963
      vertex 3.1324661866327834 0.008365588940117212 0.29183264614252963
      vertex 3.1129464791058434 0.008365588940117212 0.15798322310065419
    endloop
  endfacet
  facet normal 0.0 1.0 0.0
    outer loop
      vertex 3.1129464791058434 0.008365588940117212 0.15798322310065419
      vertex 3.1324661866327834 0.008365588940117212 0.29183264614252963
      vertex 3.1324661866327834 0.008365588940117212 0.15798322310065419
    endloop
  endfacet
  facet normal -0.0 0.0 1.0
    outer loop
      vertex 2.9876933268060535 0.008365588940117212 0.3140469803390535
      vertex 2.9974531805695235 0.004182794470058606 0.3140469803390535
      vertex 3.0072130343329935 0.008365588940117212 0.3140469803390535
    endloop
  endfacet
  facet normal 0.0 0.0 1.0
    outer loop
      vertex 2.9876933268060535 0.0 0.3140469803390535
      vertex 2.9974531805695235 0.004182794470058606 0.3140469803390535
      vertex 2.9876933268060535 0.008365588940117212 0.3140469803390535
    endloop
  endfacet
  facet normal 0.0 0.0 1.0
    outer loop
      vertex 3.0072130343329935 0.008365588940117212 0.3140469803390535
      vertex 2.9974531805695235 0.004182794470058606 0.3140469803390535
      vertex 3.0072130343329935 0.0 0.3140469803390535
    endloop
  endfacet
  facet normal 0.0 0.0 1.0
    outer loop
      vertex 3.0072130343329935 0.0 0.3140469803390535
      vertex 2.9974531805695235 0.004182794470058606 0.3140469803390535
      vertex 2.9876933268060535 0.0 0.3140469803390535
    endloop
  endfacet
  facet normal -0.0 -1.0 0.0
    outer loop
      vertex 3.0072130343329935 0.0 0.3140469803390535
      vertex 2.9876933268060535 0.0 0.3140469803390535
      vertex 2.9876933268060535 0.0 0.11327284577624039
    endloop
  endfacet
  facet normal 0.0 -1.0 -0.0
    outer loop
      vertex 3.0072130343329935 0.0 0.3140469803390535
      vertex 2.9876933268060535 0.0 0.11327284577624039
      vertex 3.0072130343329935 0.0 0.11327284577624039
    endloop
  endfacet
  facet normal 1.0 0.0 -0.0
    outer loop
      vertex 3.0072130343329935 0.008365588940117212 0.11327284577624039
      vertex 3.0072130343329935 0.008365588940117212 0.3140469803390535
      vertex 3.0072130343329935 0.0 0.3140469803390535
    endloop
  endfacet
  facet normal 1.0 0.0 0.0
    outer loop
      vertex 3.0072130343329935 0.0 0.11327284577624039
      vertex 3.0072130343329935 0.008365588940117212 0.11327284577624039
      vertex 3.0072130343329935 0.0 0.3140469803390535
    endloop
  endfacet
  facet normal -1.0 0.0 0.0
    outer loop
      vertex 2.9876933268060535 0.008365588940117212 0.11327284577624039
      vertex 2.9876933268060535 0.0 0.3140469803390535
      vertex 2.9876933268060535 0.008365588940117212 0.3140469803390535
    endloop
  endfacet
  facet normal -1.0 0.0 0.0
    outer loop
      vertex 2.9876933268060535 0.008365588940117212 0.11327284577624039
      vertex 2.9876933268060535 0.0 0.11327284577624039
      vertex 2.9876933268060535 0.0 0.3140469803390535
    endloop
  endfacet
  facet normal 0.0 0.0 -1.0
    outer loop
      vertex 3.0072130343329935 0.0 0.11327284577624039
      vertex 2.9876933268060535 0.0 0.11327284577624039
      vertex 2.9974531805695235 0.004182794470058606 0.11327284577624039
    endloop
  endfacet
  facet normal 0.0 0.0 -1.0
    outer loop
      vertex 2.9876933268060535 0.0 0.11327284577624039
      vertex 2.9876933268060535 0.008365588940117212 0.11327284577624039
      vertex 2.9974531805695235 0.004182794470058606 0.11327284577624039
    endloop
  endfacet
  facet normal 0.0 -0.0 -1.0
    outer loop
      vertex 3.0072130343329935 0.008365588940117212 0.11327284577624039
      vertex 3.0072130343329935 0.0 0.11327284577624039
      vertex 2.9974531805695235 0.004182794470058606 0.11327284577624039
    endloop
  endfacet
  facet normal 0.0 0.0 -1.0
    outer loop
      vertex 2.9876933268060535 0.008365588940117212 0.11327284577624039
      vertex 3.0072130343329935 0.008365588940117212 0.11327284577624039
      vertex 2.9974531805695235 0.004182794470058606 0.11327284577624039
    endloop
  endfacet
  facet normal -0.0 1.0 0.0
    outer loop
      vertex 2.9876933268060535 0.008365588940117212 0.3140469803390535
      vertex 3.0072130343329935 0.008365588940117212 0.3140469803390535
      vertex 2.9876933268060535 0.008365588940117212 0.11327284577624039
    endloop
  endfacet
  facet normal 0.0 1.0 0.0
    outer loop
      vertex 2.9876933268060535 0.008365588940117212 0.11327284577624039
      vertex 3.0072130343329935 0.008365588940117212 0.3140469803390535
      vertex 3.0072130343329935 0.008365588940117212 0.11327284577624039
    endloop
  endfacet
  facet normal 0.24728244100305055 0.0 0.9689434422976261
    outer loop
      vertex 2.782705433401074 0.008365588940117212 0.21685804447591397
      vertex 2.5150065873173344 0.008365588940117212 0.28517702082020463
      vertex 2.782705433401074 0.0055770592934114745 0.21685804447591397
    endloop
  endfacet
  facet normal 0.24728244100305055 0.0 0.9689434422976261
    outer loop
      vertex 2.782705433401074 0.0055770592934114745 0.21685804447591397
      vertex 2.5150065873173344 0.008365588940117212 0.28517702082020463
      vertex 2.5150065873173344 0.0055770592934114745 0.28517702082020463
    endloop
  endfacet
  facet normal 0.0 -1.0 0.0
    outer loop
      vertex 2.5150065873173344 0.0055770592934114745 0.28517702082020463
      vertex 2.6488560103592054 0.0055770592934114745 0.12997969606975113
      vertex 2.782705433401074 0.0055770592934114745 0.21685804447591397
    endloop
  endfacet
  facet normal 0.0 -1.0 0.0
    outer loop
      vertex 2.5150065873173344 0.0055770592934114745 0.03420935261668906
      vertex 2.6488560103592054 0.0055770592934114745 0.12997969606975113
      vertex 2.5150065873173344 0.0055770592934114745 0.28517702082020463
    endloop
  endfacet
  facet normal 0.0 -1.0 -0.0
    outer loop
      vertex 2.782705433401074 0.0055770592934114745 0.21685804447591397
      vertex 2.6488560103592054 0.0055770592934114745 0.12997969606975113
      vertex 2.782705433401074 0.0055770592934114745 0.03420935261668906
    endloop
  endfacet
  facet normal 0.0 -1.0 0.0
    outer loop
      vertex 2.782705433401074 0.0055770592934114745 0.03420935261668906
      vertex 2.6488560103592054 0.0055770592934114745 0.12997969606975113
      vertex 2.5150065873173344 0.0055770592934114745 0.03420935261668906
    endloop
  endfacet
  facet normal 1.0 0.0 -0.0
    outer loop
      vertex 2.782705433401074 0.008365588940117212 0.03420935261668906
      vertex 2.782705433401074 0.008365588940117212 0.21685804447591397
      vertex 2.782705433401074 0.0055770592934114745 0.21685804447591397
    endloop
  endfacet
  facet normal 1.0 0.0 0.0
    outer loop
      vertex 2.782705433401074 0.0055770592934114745 0.03420935261668906
      vertex 2.782705433401074 0.008365588940117212 0.03420935261668906
      vertex 2.782705433401074 0.0055770592934114745 0.21685804447591397
    endloop
  endfacet
  facet normal -1.0 0.0 0.0
    outer loop
      vertex 2.5150065873173344 0.008365588940117212 0.03420935261668906
      vertex 2.5150065873173344 0.0055770592934114745 0.28517702082020463
      vertex 2.5150065873173344 0.008365588940117212 0.28517702082020463
    endloop
  endfacet
  facet normal -1.0 0.0 0.0
    outer loop
      vertex 2.5150065873173344 0.008365588940117212 0.03420935261668906
      vertex 2.5150065873173344 0.0055770592934114745 0.03420935261668906
      vertex 2.5150065873173344 0.0055770592934114745 0.28517702082020463
    endloop
  endfacet
  facet normal 0.0 0.0 -1.0
    outer loop
      vertex 2.5150065873173344 0.008365588940117212 0.03420935261668906
      vertex 2.782705433401074 0.0055770592934114745 0.03420935261668906
      vertex 2.5150065873173344 0.0055770592934114745 0.03420935261668906
    endloop
  endfacet
  facet normal -0.0 -0.0 -1.0
    outer loop
      vertex 2.782705433401074 0.008365588940117212 0.03420935261668906
      vertex 2.782705433401074 0.0055770592934114745 0.03420935261668906
      vertex 2.5150065873173344 0.008365588940117212 0.03420935261668906
    endloop
  endfacet
  facet normal 0.0 1.0 0.0
    outer loop
      vertex 2.5150065873173344 0.008365588940117212 0.28517702082020463
      vertex 2.782705433401074 0.008365588940117212 0.21685804447591397
      vertex 2.6488560103592054 0.008365588940117212 0.12997969606975113
    endloop
  endfacet
  facet normal 0.0 1.0 0.0
    outer loop
      vertex 2.5150065873173344 0.008365588940117212 0.03420935261668906
      vertex 2.5150065873173344 0.008365588940117212 0.28517702082020463
      vertex 2.6488560103592054 0.008365588940117212 0.12997969606975113
    endloop
  endfacet
  facet normal 0.0 1.0 0.0
    outer loop
      vertex 2.782705433401074 0.008365588940117212 0.21685804447591397
      vertex 2.782705433401074 0.008365588940117212 0.03420935261668906
      vertex 2.6488560103592054 0.008365588940117212 0.12997969606975113
    endloop
  endfacet
  facet normal 0.0 1.0 0.0
    outer loop
      vertex 2.782705433401074 0.008365588940117212 0.03420935261668906
      vertex 2.5150065873173344 0.008365588940117212 0.03420935261668906
      vertex 2.6488560103592054 0.008365588940117212 0.12997969606975113
    endloop
  endfacet
  facet normal 1.0 0.0 -0.0
    outer loop
      vertex 0.2230823717364583 0.008365588940117212 0.055534233684248945
      vertex 0.2230823717364583 0.008365588940117212 0.2719008642981169
      vertex 0.2230823717364583 0.0055770592934114745 0.2719008642981169
    endloop
  endfacet
  facet normal 1.0 0.0 0.0
    outer loop
      vertex 0.2230823717364583 0.0055770592934114745 0.055534233684248945
      vertex 0.2230823717364583 0.008365588940117212 0.055534233684248945
      vertex 0.2230823717364583 0.0055770592934114745 0.2719008642981169
    endloop
  endfacet
  facet normal 0.0 -1.0 -0.0
    outer loop
      vertex 0.2230823717364583 0.0055770592934114745 0.2719008642981169
      vertex 0.10915234646340775 0.0055770592934114745 0.22174701058325533
      vertex 0.2230823717364583 0.0055770592934114745 0.055534233684248945
    endloop
  endfacet
  facet normal 0.0 -1.0 -0.0
    outer loop
      vertex 0.1589508408854684 0.0055770592934114745 0.3483298465883518
      vertex 0.10915234646340775 0.0055770592934114745 0.22174701058325533
      vertex 0.2230823717364583 0.0055770592934114745 0.2719008642981169
    endloop
  endfacet
  facet normal 0.0 -1.0 0.0
    outer loop
      vertex 0.2230823717364583 0.0055770592934114745 0.055534233684248945
      vertex 0.10915234646340775 0.0055770592934114745 0.22174701058325533
      vertex 0.0 0.0055770592934114745 0.055534233684248945
    endloop
  endfacet
  facet normal 0.0 -1.0 0.0
    outer loop
      vertex 0.0 0.0055770592934114745 0.3483298465883518
      vertex 0.10915234646340775 0.0055770592934114745 0.22174701058325533
      vertex 0.1589508408854684 0.0055770592934114745 0.3483298465883518
    endloop
  endfacet
  facet normal 0.0 -1.0 0.0
    outer loop
      vertex 0.0 0.0055770592934114745 0.055534233684248945
      vertex 0.10915234646340775 0.0055770592934114745 0.22174701058325533
      vertex 0.0 0.0055770592934114745 0.3483298465883518
    endloop
  endfacet
  facet normal 0.0 0.0 -1.0
    outer loop
      vertex 0.0 0.008365588940117212 0.055534233684248945
      vertex 0.2230823717364583 0.008365588940117212 0.055534233684248945
      vertex 0.2230823717364583 0.0055770592934114745 0.055534233684248945
    endloop
  endfacet
  facet normal 0.0 0.0 -1.0
    outer loop
      vertex 0.0 0.0055770592934114745 0.055534233684248945
      vertex 0.0 0.008365588940117212 0.055534233684248945
      vertex 0.2230823717364583 0.0055770592934114745 0.055534233684248945
    endloop
  endfacet
  facet normal 0.7660444431189835 -0.0 0.6427876096865329
    outer loop
      vertex 0.2230823717364583 0.0055770592934114745 0.2719008642981169
      vertex 0.2230823717364583 0.008365588940117212 0.2719008642981169
      vertex 0.1589508408854684 0.008365588940117212 0.3483298465883518
    endloop
  endfacet
  facet normal 0.7660444431189835 0.0 0.6427876096865329
    outer loop
      vertex 0.2230823717364583 0.0055770592934114745 0.2719008642981169
      vertex 0.1589508408854684 0.008365588940117212 0.3483298465883518
      vertex 0.1589508408854684 0.0055770592934114745 0.3483298465883518
    endloop
  endfacet
  facet normal 0.0 0.0 1.0
    outer loop
      vertex 0.1589508408854684 0.0055770592934114745 0.3483298465883518
      vertex 0.0 0.008365588940117212 0.3483298465883518
      vertex 0.0 0.0055770592934114745 0.3483298465883518
    endloop
  endfacet
  facet normal 0.0 -0.0 1.0
    outer loop
      vertex 0.1589508408854684 0.0055770592934114745 0.3483298465883518
      vertex 0.1589508408854684 0.008365588940117212 0.3483298465883518
      vertex 0.0 0.008365588940117212 0.3483298465883518
    endloop
  endfacet
  facet normal -1.0 -0.0 0.0
    outer loop
      vertex 0.0 0.008365588940117212 0.3483298465883518
      vertex 0.0 0.0055770592934114745 0.055534233684248945
      vertex 0.0 0.0055770592934114745 0.3483298465883518
    endloop
  endfacet
  facet normal -1.0 0.0 0.0
    outer loop
      vertex 0.0 0.008365588940117212 0.055534233684248945
      vertex 0.0 0.0055770592934114745 0.055534233684248945
      vertex 0.0 0.008365588940117212 0.3483298465883518
    endloop
  endfacet
  facet normal 0.0 1.0 0.0
    outer loop
      vertex 0.2230823717364583 0.008365588940117212 0.2719008642981169
      vertex 0.2230823717364583 0.008365588940117212 0.055534233684248945
      vertex 0.12102311687167706 0.008365588940117212 0.21592580496866368
    endloop
  endfacet
  facet normal 0.0 1.0 0.0
    outer loop
      vertex 0.1589508408854684 0.008365588940117212 0.3483298465883518
      vertex 0.2230823717364583 0.008365588940117212 0.2719008642981169
      vertex 0.12102311687167706 0.008365588940117212 0.21592580496866368
    endloop
  endfacet
  facet normal 0.0 1.0 0.0
    outer loop
      vertex 0.2230823717364583 0.008365588940117212 0.055534233684248945
      vertex 0.0 0.008365588940117212 0.055534233684248945
      vertex 0.12102311687167706 0.008365588940117212 0.21592580496866368
    endloop
  endfacet
  facet normal 0.0 1.0 0.0
    outer loop
      vertex 0.0 0.008365588940117212 0.055534233684248945
      vertex 0.0 0.008365588940117212 0.3483298465883518
      vertex 0.12102311687167706 0.008365588940117212 0.21592580496866368
    endloop
  endfacet
  facet normal -0.0 1.0 0.0
    outer loop
      vertex 0.0 0.008365588940117212 0.3483298465883518
      vertex 0.1589508408854684 0.008365588940117212 0.3483298465883518
      vertex 0.12102311687167706 0.008365588940117212 0.21592580496866368
    endloop
  endfacet
  facet normal 1.0 0.0 -0.0
    outer loop
      vertex 2.2426133029049065 0.008365588940117212 0.03708606507745474
      vertex 2.2426133029049065 0.008365588940117212 0.28686686300158
      vertex 2.2426133029049065 0.0055770592934114745 0.28686686300158
    endloop
  endfacet
  facet normal 1.0 0.0 0.0
    outer loop
      vertex 2.2426133029049065 0.0055770592934114745 0.03708606507745474
      vertex 2.2426133029049065 0.008365588940117212 0.03708606507745474
      vertex 2.2426133029049065 0.0055770592934114745 0.28686686300158
    endloop
  endfacet
  facet normal 0.5000000000000003 -0.0 0.8660254037844384
    outer loop
      vertex 2.2426133029049065 0.0055770592934114745 0.28686686300158
      vertex 2.2426133029049065 0.008365588940117212 0.28686686300158
      vertex 1.9749144568211559 0.008365588940117212 0.44142286384978574
    endloop
  endfacet
  facet normal 0.5000000000000003 0.0 0.8660254037844384
    outer loop
      vertex 2.2426133029049065 0.0055770592934114745 0.28686686300158
      vertex 1.9749144568211559 0.008365588940117212 0.44142286384978574
      vertex 1.9749144568211559 0.0055770592934114745 0.44142286384978574
    endloop
  endfacet
  facet normal -1.0 0.0 0.0
    outer loop
      vertex 1.9749144568211559 0.008365588940117212 0.03708606507745474
      vertex 1.9749144568211559 0.0055770592934114745 0.44142286384978574
      vertex 1.9749144568211559 0.008365588940117212 0.44142286384978574
    endloop
  endfacet
  facet normal -1.0 0.0 0.0
    outer loop
      vertex 1.9749144568211559 0.008365588940117212 0.03708606507745474
      vertex 1.9749144568211559 0.0055770592934114745 0.03708606507745474
      vertex 1.9749144568211559 0.0055770592934114745 0.44142286384978574
    endloop
  endfacet
  facet normal 0.0 -0.0 -1.0
    outer loop
      vertex 2.2426133029049065 0.008365588940117212 0.03708606507745474
      vertex 2.2426133029049065 0.0055770592934114745 0.03708606507745474
      vertex 1.9749144568211559 0.0055770592934114745 0.03708606507745474
    endloop
  endfacet
  facet normal -0.0 0.0 -1.0
    outer loop
      vertex 2.2426133029049065 0.008365588940117212 0.03708606507745474
      vertex 1.9749144568211559 0.0055770592934114745 0.03708606507745474
      vertex 1.9749144568211559 0.008365588940117212 0.03708606507745474
    endloop
  endfacet
  facet normal 0.0 1.0 0.0
    outer loop
      vertex 2.2426133029049065 0.008365588940117212 0.28686686300158
      vertex 2.2426133029049065 0.008365588940117212 0.03708606507745474
      vertex 2.108763879863031 0.008365588940117212 0.20061546425156895
    endloop
  endfacet
  facet normal 0.0 1.0 0.0
    outer loop
      vertex 1.9749144568211559 0.008365588940117212 0.44142286384978574
      vertex 2.2426133029049065 0.008365588940117212 0.28686686300158
      vertex 2.108763879863031 0.008365588940117212 0.20061546425156895
    endloop
  endfacet
  facet normal 0.0 1.0 0.0
    outer loop
      vertex 2.2426133029049065 0.008365588940117212 0.03708606507745474
      vertex 1.9749144568211559 0.008365588940117212 0.03708606507745474
      vertex 2.108763879863031 0.008365588940117212 0.20061546425156895
    endloop
  endfacet
  facet normal 0.0 1.0 0.0
    outer loop
      vertex 1.9749144568211559 0.008365588940117212 0.03708606507745474
      vertex 1.9749144568211559 0.008365588940117212 0.44142286384978574
      vertex 2.108763879863031 0.008365588940117212 0.20061546425156895
    endloop
  endfacet
  facet normal 0.0 -1.0 -0.0
    outer loop
      vertex 2.2426133029049065 0.0055770592934114745 0.28686686300158
      vertex 2.108763879863031 0.0055770592934114745 0.20061546425156895
      vertex 2.2426133029049065 0.0055770592934114745 0.03708606507745474
    endloop
  endfacet
  facet normal 0.0 -1.0 0.0
    outer loop
      vertex 1.9749144568211559 0.0055770592934114745 0.44142286384978574
      vertex 2.108763879863031 0.0055770592934114745 0.20061546425156895
      vertex 2.2426133029049065 0.0055770592934114745 0.28686686300158
    endloop
  endfacet
  facet normal 0.0 -1.0 0.0
    outer loop
      vertex 2.2426133029049065 0.0055770592934114745 0.03708606507745474
      vertex 2.108763879863031 0.0055770592934114745 0.20061546425156895
      vertex 1.9749144568211559 0.0055770592934114745 0.03708606507745474
    endloop
  endfacet
  facet normal 0.0 -1.0 0.0
    outer loop
      vertex 1.9749144568211559 0.0055770592934114745 0.03708606507745474
      vertex 2.108763879863031 0.0055770592934114745 0.20061546425156895
      vertex 1.9749144568211559 0.0055770592934114745 0.44142286384978574
    endloop
  endfacet
  facet normal 1.0 0.0 -0.0
    outer loop
      vertex 1.7277060460195657 0.008365588940117212 0.07776011877819028
      vertex 1.7277060460195657 0.008365588940117212 0.3287277869817066
      vertex 1.7277060460195657 0.0055770592934114745 0.3287277869817066
    endloop
  endfacet
  facet normal 1.0 0.0 0.0
    outer loop
      vertex 1.7277060460195657 0.0055770592934114745 0.07776011877819028
      vertex 1.7277060460195657 0.008365588940117212 0.07776011877819028
      vertex 1.7277060460195657 0.0055770592934114745 0.3287277869817066
    endloop
  endfacet
  facet normal 0.573576436351044 -0.0 0.8191520442889932
    outer loop
      vertex 1.7277060460195657 0.0055770592934114745 0.3287277869817066
      vertex 1.7277060460195657 0.008365588940117212 0.3287277869817066
      vertex 1.460007199935815 0.0055770592934114745 0.5161725369795886
    endloop
  endfacet
  facet normal 0.573576436351044 -0.0 0.8191520442889932
    outer loop
      vertex 1.460007199935815 0.0055770592934114745 0.5161725369795886
      vertex 1.7277060460195657 0.008365588940117212 0.3287277869817066
      vertex 1.460007199935815 0.008365588940117212 0.5161725369795886
    endloop
  endfacet
  facet normal -1.0 0.0 0.0
    outer loop
      vertex 1.460007199935815 0.008365588940117212 0.26520486877607324
      vertex 1.460007199935815 0.0055770592934114745 0.5161725369795886
      vertex 1.460007199935815 0.008365588940117212 0.5161725369795886
    endloop
  endfacet
  facet normal -1.0 0.0 0.0
    outer loop
      vertex 1.460007199935815 0.008365588940117212 0.26520486877607324
      vertex 1.460007199935815 0.0055770592934114745 0.26520486877607324
      vertex 1.460007199935815 0.0055770592934114745 0.5161725369795886
    endloop
  endfacet
  facet normal -0.573576436351046 -0.0 -0.8191520442889918
    outer loop
      vertex 1.7277060460195657 0.008365588940117212 0.07776011877819028
      vertex 1.7277060460195657 0.0055770592934114745 0.07776011877819028
      vertex 1.460007199935815 0.0055770592934114745 0.26520486877607324
    endloop
  endfacet
  facet normal -0.573576436351046 0.0 -0.8191520442889918
    outer loop
      vertex 1.7277060460195657 0.008365588940117212 0.07776011877819028
      vertex 1.460007199935815 0.0055770592934114745 0.26520486877607324
      vertex 1.460007199935815 0.008365588940117212 0.26520486877607324
    endloop
  endfacet
  facet normal 0.0 1.0 -0.0
    outer loop
      vertex 1.7277060460195657 0.008365588940117212 0.07776011877819028
      vertex 1.460007199935815 0.008365588940117212 0.26520486877607324
      vertex 1.7277060460195657 0.008365588940117212 0.3287277869817066
    endloop
  endfacet
  facet normal 0.0 1.0 0.0
    outer loop
      vertex 1.460007199935815 0.008365588940117212 0.26520486877607324
      vertex 1.460007199935815 0.008365588940117212 0.5161725369795886
      vertex 1.7277060460195657 0.008365588940117212 0.3287277869817066
    endloop
  endfacet
  facet normal 0.0 -1.0 0.0
    outer loop
      vertex 1.7277060460195657 0.0055770592934114745 0.07776011877819028
      vertex 1.7277060460195657 0.0055770592934114745 0.3287277869817066
      vertex 1.460007199935815 0.0055770592934114745 0.26520486877607324
    endloop
  endfacet
  facet normal 0.0 -1.0 0.0
    outer loop
      vertex 1.460007199935815 0.0055770592934114745 0.26520486877607324
      vertex 1.7277060460195657 0.0055770592934114745 0.3287277869817066
      vertex 1.460007199935815 0.0055770592934114745 0.5161725369795886
    endloop
  endfacet
  facet normal 1.0 0.0 -0.0
    outer loop
      vertex 1.2528731123395775 0.008365588940117212 0.026641167506183144
      vertex 1.2528731123395775 0.008365588940117212 0.2497235392426434
      vertex 1.2528731123395775 0.0055770592934114745 0.2497235392426434
    endloop
  endfacet
  facet normal 1.0 0.0 0.0
    outer loop
      vertex 1.2528731123395775 0.0055770592934114745 0.026641167506183144
      vertex 1.2528731123395775 0.008365588940117212 0.026641167506183144
      vertex 1.2528731123395775 0.0055770592934114745 0.2497235392426434
    endloop
  endfacet
  facet normal 0.7071067811865516 -0.0 0.7071067811865436
    outer loop
      vertex 1.2528731123395775 0.0055770592934114745 0.2497235392426434
      vertex 1.2528731123395775 0.008365588940117212 0.2497235392426434
      vertex 0.9851742662558289 0.008365588940117212 0.5174223853263951
    endloop
  endfacet
  facet normal 0.7071067811865516 0.0 0.7071067811865436
    outer loop
      vertex 1.2528731123395775 0.0055770592934114745 0.2497235392426434
      vertex 0.9851742662558289 0.008365588940117212 0.5174223853263951
      vertex 0.9851742662558289 0.0055770592934114745 0.5174223853263951
    endloop
  endfacet
  facet normal -1.0 0.0 0.0
    outer loop
      vertex 0.9851742662558289 0.008365588940117212 0.27203177641628906
      vertex 0.9851742662558289 0.0055770592934114745 0.5174223853263951
      vertex 0.9851742662558289 0.008365588940117212 0.5174223853263951
    endloop
  endfacet
  facet normal -1.0 0.0 0.0
    outer loop
      vertex 0.9851742662558289 0.008365588940117212 0.27203177641628906
      vertex 0.9851742662558289 0.0055770592934114745 0.27203177641628906
      vertex 0.9851742662558289 0.0055770592934114745 0.5174223853263951
    endloop
  endfacet
  facet normal -1.0 0.0 0.0
    outer loop
      vertex 0.9851742662558289 0.0055770592934114745 0.27203177641628906
      vertex 0.9851742662558289 0.008365588940117212 0.026641167506183144
      vertex 0.9851742662558289 0.0055770592934114745 0.026641167506183144
    endloop
  endfacet
  facet normal -1.0 -0.0 -0.0
    outer loop
      vertex 0.9851742662558289 0.008365588940117212 0.27203177641628906
      vertex 0.9851742662558289 0.008365588940117212 0.026641167506183144
      vertex 0.9851742662558289 0.0055770592934114745 0.27203177641628906
    endloop
  endfacet
  facet normal 0.0 -0.0 -1.0
    outer loop
      vertex 1.2528731123395775 0.008365588940117212 0.026641167506183144
      vertex 1.2528731123395775 0.0055770592934114745 0.026641167506183144
      vertex 0.9851742662558289 0.0055770592934114745 0.026641167506183144
    endloop
  endfacet
  facet normal -0.0 0.0 -1.0
    outer loop
      vertex 1.2528731123395775 0.008365588940117212 0.026641167506183144
      vertex 0.9851742662558289 0.0055770592934114745 0.026641167506183144
      vertex 0.9851742662558289 0.008365588940117212 0.026641167506183144
    endloop
  endfacet
  facet normal 0.0 1.0 0.0
    outer loop
      vertex 1.2528731123395775 0.008365588940117212 0.2497235392426434
      vertex 1.2528731123395775 0.008365588940117212 0.026641167506183144
      vertex 1.1190236892977032 0.008365588940117212 0.1396341076677836
    endloop
  endfacet
  facet normal -0.0 1.0 0.0
    outer loop
      vertex 0.9851742662558289 0.008365588940117212 0.27203177641628906
      vertex 0.9851742662558289 0.008365588940117212 0.5174223853263951
      vertex 1.2528731123395775 0.008365588940117212 0.2497235392426434
    endloop
  endfacet
  facet normal 0.0 1.0 0.0
    outer loop
      vertex 0.9851742662558289 0.008365588940117212 0.27203177641628906
      vertex 1.2528731123395775 0.008365588940117212 0.2497235392426434
      vertex 1.1190236892977032 0.008365588940117212 0.1396341076677836
    endloop
  endfacet
  facet normal 0.0 1.0 0.0
    outer loop
      vertex 1.2528731123395775 0.008365588940117212 0.026641167506183144
      vertex 0.9851742662558289 0.008365588940117212 0.026641167506183144
      vertex 1.1190236892977032 0.008365588940117212 0.1396341076677836
    endloop
  endfacet
  facet normal 0.0 1.0 0.0
    outer loop
      vertex 0.9851742662558289 0.008365588940117212 0.026641167506183144
      vertex 0.9851742662558289 0.008365588940117212 0.27203177641628906
      vertex 1.1190236892977032 0.008365588940117212 0.1396341076677836
    endloop
  endfacet
  facet normal 0.0 -1.0 -0.0
    outer loop
      vertex 1.2528731123395775 0.0055770592934114745 0.2497235392426434
      vertex 1.1190236892977032 0.0055770592934114745 0.1396341076677836
      vertex 1.2528731123395775 0.0055770592934114745 0.026641167506183144
    endloop
  endfacet
  facet normal 0.0 -1.0 0.0
    outer loop
      vertex 0.9851742662558289 0.0055770592934114745 0.27203177641628906
      vertex 1.2528731123395775 0.0055770592934114745 0.2497235392426434
      vertex 0.9851742662558289 0.0055770592934114745 0.5174223853263951
    endloop
  endfacet
  facet normal 0.0 -1.0 0.0
    outer loop
      vertex 0.9851742662558289 0.0055770592934114745 0.27203177641628906
      vertex 1.1190236892977032 0.0055770592934114745 0.1396341076677836
      vertex 1.2528731123395775 0.0055770592934114745 0.2497235392426434
    endloop
  endfacet
  facet normal 0.0 -1.0 0.0
    outer loop
      vertex 1.2528731123395775 0.0055770592934114745 0.026641167506183144
      vertex 1.1190236892977032 0.0055770592934114745 0.1396341076677836
      vertex 0.9851742662558289 0.0055770592934114745 0.026641167506183144
    endloop
  endfacet
  facet normal 0.0 -1.0 0.0
    outer loop
      vertex 0.9851742662558289 0.0055770592934114745 0.026641167506183144
      vertex 1.1190236892977032 0.0055770592934114745 0.1396341076677836
      vertex 0.9851742662558289 0.0055770592934114745 0.27203177641628906
    endloop
  endfacet
  facet normal -0.0 0.0 -1.0
    outer loop
      vertex 0.8221738852219453 0.008365588940117212 0.0
      vertex 0.7803459405213614 0.0055770592934114745 0.0
      vertex 0.7803459405213614 0.008365588940117212 0.0
    endloop
  endfacet
  facet normal 0.0 -0.0 -1.0
    outer loop
      vertex 0.8221738852219453 0.008365588940117212 0.0
      vertex 0.8221738852219453 0.0055770592934114745 0.0
      vertex 0.7803459405213614 0.0055770592934114745 0.0
    endloop
  endfacet
  facet normal 0.0 -1.0 0.0
    outer loop
      vertex 0.7803459405213614 0.0055770592934114745 0.0
      vertex 0.8221738852219453 0.0055770592934114745 0.0
      vertex 0.7803459405213614 0.0055770592934114745 0.08365588940117147
    endloop
  endfacet
  facet normal 0.0 -1.0 0.0
    outer loop
      vertex 0.7803459405213614 0.0055770592934114745 0.08365588940117147
      vertex 0.8221738852219453 0.0055770592934114745 0.0
      vertex 0.8221738852219453 0.0055770592934114745 0.21636663061386707
    endloop
  endfacet
  facet normal 0.0 -1.0 0.0
    outer loop
      vertex 0.8221738852219453 0.0055770592934114745 0.21636663061386707
      vertex 0.6799588732399541 0.0055770592934114745 0.2138174723182462
      vertex 0.7803459405213614 0.0055770592934114745 0.08365588940117147
    endloop
  endfacet
  facet normal 0.0 -1.0 -0.0
    outer loop
      vertex 0.6883244621800713 0.0055770592934114745 0.37588216139068437
      vertex 0.6799588732399541 0.0055770592934114745 0.2138174723182462
      vertex 0.8221738852219453 0.0055770592934114745 0.21636663061386707
    endloop
  endfacet
  facet normal 0.0 -1.0 0.0
    outer loop
      vertex 0.5544750391381958 0.0055770592934114745 0.30952679078433676
      vertex 0.6883244621800713 0.0055770592934114745 0.37588216139068437
      vertex 0.5544750391381963 0.0055770592934114745 0.5353976921675015
    endloop
  endfacet
  facet normal 0.0 -1.0 0.0
    outer loop
      vertex 0.7803459405213614 0.0055770592934114745 0.08365588940117147
      vertex 0.6799588732399541 0.0055770592934114745 0.2138174723182462
      vertex 0.5544750391381958 0.0055770592934114745 0.08365588940117147
    endloop
  endfacet
  facet normal 0.0 -1.0 0.0
    outer loop
      vertex 0.5544750391381958 0.0055770592934114745 0.08365588940117147
      vertex 0.6799588732399541 0.0055770592934114745 0.2138174723182462
      vertex 0.5544750391381958 0.0055770592934114745 0.30952679078433676
    endloop
  endfacet
  facet normal 0.0 -1.0 0.0
    outer loop
      vertex 0.5544750391381958 0.0055770592934114745 0.30952679078433676
      vertex 0.6799588732399541 0.0055770592934114745 0.2138174723182462
      vertex 0.6883244621800713 0.0055770592934114745 0.37588216139068437
    endloop
  endfacet
  facet normal -1.0 0.0 0.0
    outer loop
      vertex 0.7803459405213614 0.008365588940117212 0.0
      vertex 0.7803459405213614 0.0055770592934114745 0.0
      vertex 0.7803459405213614 0.008365588940117212 0.08365588940117147
    endloop
  endfacet
  facet normal -1.0 -0.0 0.0
    outer loop
      vertex 0.7803459405213614 0.008365588940117212 0.08365588940117147
      vertex 0.7803459405213614 0.0055770592934114745 0.0
      vertex 0.7803459405213614 0.0055770592934114745 0.08365588940117147
    endloop
  endfacet
  facet normal 1.0 0.0 0.0
    outer loop
      vertex 0.8221738852219453 0.0055770592934114745 0.0
      vertex 0.8221738852219453 0.008365588940117212 0.0
      vertex 0.8221738852219453 0.008365588940117212 0.21636663061386707
    endloop
  endfacet
  facet normal 1.0 0.0 0.0
    outer loop
      vertex 0.8221738852219453 0.0055770592934114745 0.0
      vertex 0.8221738852219453 0.008365588940117212 0.21636663061386707
      vertex 0.8221738852219453 0.0055770592934114745 0.21636663061386707
    endloop
  endfacet
  facet normal 0.7660444431189813 -0.0 0.6427876096865355
    outer loop
      vertex 0.8221738852219453 0.0055770592934114745 0.21636663061386707
      vertex 0.8221738852219453 0.008365588940117212 0.21636663061386707
      vertex 0.6883244621800713 0.008365588940117212 0.37588216139068437
    endloop
  endfacet
  facet normal 0.7660444431189813 0.0 0.6427876096865355
    outer loop
      vertex 0.8221738852219453 0.0055770592934114745 0.21636663061386707
      vertex 0.6883244621800713 0.008365588940117212 0.37588216139068437
      vertex 0.6883244621800713 0.0055770592934114745 0.37588216139068437
    endloop
  endfacet
  facet normal 0.7660444431189789 0.0 0.6427876096865383
    outer loop
      vertex 0.6883244621800713 0.008365588940117212 0.37588216139068437
      vertex 0.5544750391381963 0.008365588940117212 0.5353976921675015
      vertex 0.5544750391381963 0.0055770592934114745 0.5353976921675015
    endloop
  endfacet
  facet normal 0.7660444431189789 -0.0 0.6427876096865383
    outer loop
      vertex 0.6883244621800713 0.0055770592934114745 0.37588216139068437
      vertex 0.6883244621800713 0.008365588940117212 0.37588216139068437
      vertex 0.5544750391381963 0.0055770592934114745 0.5353976921675015
    endloop
  endfacet
  facet normal -1.0 0.0 1.9661196158097178e-15
    outer loop
      vertex 0.5544750391381963 0.008365588940117212 0.5353976921675015
      vertex 0.5544750391381958 0.0055770592934114745 0.30952679078433676
      vertex 0.5544750391381963 0.0055770592934114745 0.5353976921675015
    endloop
  endfacet
  facet normal -1.0 0.0 -0.0
    outer loop
      vertex 0.5544750391381958 0.008365588940117212 0.30952679078433676
      vertex 0.5544750391381958 0.008365588940117212 0.08365588940117147
      vertex 0.5544750391381958 0.0055770592934114745 0.08365588940117147
    endloop
  endfacet
  facet normal -1.0 -0.0 0.0
    outer loop
      vertex 0.5544750391381958 0.008365588940117212 0.30952679078433676
      vertex 0.5544750391381958 0.0055770592934114745 0.08365588940117147
      vertex 0.5544750391381958 0.0055770592934114745 0.30952679078433676
    endloop
  endfacet
  facet normal -1.0 0.0 1.9661196158097178e-15
    outer loop
      vertex 0.5544750391381963 0.008365588940117212 0.5353976921675015
      vertex 0.5544750391381958 0.008365588940117212 0.30952679078433676
      vertex 0.5544750391381958 0.0055770592934114745 0.30952679078433676
    endloop
  endfacet
  facet normal 0.0 0.0 -1.0
    outer loop
      vertex 0.5544750391381958 0.008365588940117212 0.08365588940117147
      vertex 0.7803459405213614 0.0055770592934114745 0.08365588940117147
      vertex 0.5544750391381958 0.0055770592934114745 0.08365588940117147
    endloop
  endfacet
  facet normal -0.0 -0.0 -1.0
    outer loop
      vertex 0.7803459405213614 0.008365588940117212 0.08365588940117147
      vertex 0.7803459405213614 0.0055770592934114745 0.08365588940117147
      vertex 0.5544750391381958 0.008365588940117212 0.08365588940117147
    endloop
  endfacet
  facet normal 0.0 1.0 0.0
    outer loop
      vertex 0.8221738852219453 0.008365588940117212 0.0
      vertex 0.7803459405213614 0.008365588940117212 0.0
      vertex 0.7803459405213614 0.008365588940117212 0.08365588940117147
    endloop
  endfacet
  facet normal 0.0 1.0 -0.0
    outer loop
      vertex 0.8221738852219453 0.008365588940117212 0.0
      vertex 0.7803459405213614 0.008365588940117212 0.08365588940117147
      vertex 0.8221738852219453 0.008365588940117212 0.21636663061386707
    endloop
  endfacet
  facet normal 0.0 1.0 0.0
    outer loop
      vertex 0.8221738852219453 0.008365588940117212 0.21636663061386707
      vertex 0.7803459405213614 0.008365588940117212 0.08365588940117147
      vertex 0.6799588732399541 0.008365588940117212 0.2138174723182462
    endloop
  endfacet
  facet normal 0.0 1.0 0.0
    outer loop
      vertex 0.7803459405213614 0.008365588940117212 0.08365588940117147
      vertex 0.5544750391381958 0.008365588940117212 0.08365588940117147
      vertex 0.6799588732399541 0.008365588940117212 0.2138174723182462
    endloop
  endfacet
  facet normal 0.0 1.0 0.0
    outer loop
      vertex 0.6883244621800713 0.008365588940117212 0.37588216139068437
      vertex 0.8221738852219453 0.008365588940117212 0.21636663061386707
      vertex 0.6799588732399541 0.008365588940117212 0.2138174723182462
    endloop
  endfacet
  facet normal 0.0 1.0 0.0
    outer loop
      vertex 0.6883244621800713 0.008365588940117212 0.37588216139068437
      vertex 0.5544750391381958 0.008365588940117212 0.30952679078433676
      vertex 0.5544750391381963 0.008365588940117212 0.5353976921675015
    endloop
  endfacet
  facet normal 0.0 1.0 0.0
    outer loop
      vertex 0.5544750391381958 0.008365588940117212 0.08365588940117147
      vertex 0.5544750391381958 0.008365588940117212 0.30952679078433676
      vertex 0.6799588732399541 0.008365588940117212 0.2138174723182462
    endloop
  endfacet
  facet normal -0.0 1.0 0.0
    outer loop
      vertex 0.5544750391381958 0.008365588940117212 0.30952679078433676
      vertex 0.6883244621800713 0.008365588940117212 0.37588216139068437
      vertex 0.6799588732399541 0.008365588940117212 0.2138174723182462
    endloop
  endfacet
  facet normal -0.0 0.0 -1.0
    outer loop
      vertex 0.5244428080455477 0.008365588940117212 0.04584372500182094
      vertex 0.30136043630908876 0.0055770592934114745 0.04584372500182094
      vertex 0.30136043630908876 0.008365588940117212 0.04584372500182094
    endloop
  endfacet
  facet normal 0.0 -0.0 -1.0
    outer loop
      vertex 0.5244428080455477 0.008365588940117212 0.04584372500182094
      vertex 0.5244428080455477 0.0055770592934114745 0.04584372500182094
      vertex 0.30136043630908876 0.0055770592934114745 0.04584372500182094
    endloop
  endfacet
  facet normal 0.0 -1.0 0.0
    outer loop
      vertex 0.5244428080455477 0.0055770592934114745 0.04584372500182094
      vertex 0.41290162217731824 0.0055770592934114745 0.17522568311634235
      vertex 0.30136043630908876 0.0055770592934114745 0.04584372500182094
    endloop
  endfacet
  facet normal 0.0 -1.0 -0.0
    outer loop
      vertex 0.5244428080455477 0.0055770592934114745 0.26221035561568756
      vertex 0.41290162217731824 0.0055770592934114745 0.17522568311634235
      vertex 0.5244428080455477 0.0055770592934114745 0.04584372500182094
    endloop
  endfacet
  facet normal 0.0 -1.0 0.0
    outer loop
      vertex 0.30136043630908876 0.0055770592934114745 0.04584372500182094
      vertex 0.41290162217731824 0.0055770592934114745 0.17522568311634235
      vertex 0.30136043630908876 0.0055770592934114745 0.3470049268460399
    endloop
  endfacet
  facet normal 0.0 -1.0 0.0
    outer loop
      vertex 0.30136043630908876 0.0055770592934114745 0.3470049268460399
      vertex 0.5244428080455477 0.0055770592934114745 0.26221035561568756
      vertex 0.390593385003672 0.0055770592934114745 0.4217258863925048
    endloop
  endfacet
  facet normal 0.0 -1.0 0.0
    outer loop
      vertex 0.30136043630908876 0.0055770592934114745 0.3470049268460399
      vertex 0.41290162217731824 0.0055770592934114745 0.17522568311634235
      vertex 0.5244428080455477 0.0055770592934114745 0.26221035561568756
    endloop
  endfacet
  facet normal 0.0 -1.0 0.0
    outer loop
      vertex 0.30136043630908876 0.0055770592934114745 0.3470049268460399
      vertex 0.2567439619617967 0.0055770592934114745 0.5812414171693225
      vertex 0.2567439619617967 0.0055770592934114745 0.3470049268460399
    endloop
  endfacet
  facet normal -0.0 -1.0 0.0
    outer loop
      vertex 0.390593385003672 0.0055770592934114745 0.4217258863925048
      vertex 0.2567439619617967 0.0055770592934114745 0.5812414171693225
      vertex 0.30136043630908876 0.0055770592934114745 0.3470049268460399
    endloop
  endfacet
  facet normal -1.0 0.0 0.0
    outer loop
      vertex 0.30136043630908876 0.008365588940117212 0.04584372500182094
      vertex 0.30136043630908876 0.0055770592934114745 0.04584372500182094
      vertex 0.30136043630908876 0.008365588940117212 0.3470049268460399
    endloop
  endfacet
  facet normal -1.0 -0.0 0.0
    outer loop
      vertex 0.30136043630908876 0.008365588940117212 0.3470049268460399
      vertex 0.30136043630908876 0.0055770592934114745 0.04584372500182094
      vertex 0.30136043630908876 0.0055770592934114745 0.3470049268460399
    endloop
  endfacet
  facet normal 1.0 0.0 0.0
    outer loop
      vertex 0.5244428080455477 0.0055770592934114745 0.04584372500182094
      vertex 0.5244428080455477 0.008365588940117212 0.04584372500182094
      vertex 0.5244428080455477 0.008365588940117212 0.26221035561568756
    endloop
  endfacet
  facet normal 1.0 0.0 0.0
    outer loop
      vertex 0.5244428080455477 0.0055770592934114745 0.04584372500182094
      vertex 0.5244428080455477 0.008365588940117212 0.26221035561568756
      vertex 0.5244428080455477 0.0055770592934114745 0.26221035561568756
    endloop
  endfacet
  facet normal 0.7660444431189775 -0.0 0.6427876096865399
    outer loop
      vertex 0.5244428080455477 0.0055770592934114745 0.26221035561568756
      vertex 0.5244428080455477 0.008365588940117212 0.26221035561568756
      vertex 0.390593385003672 0.008365588940117212 0.4217258863925048
    endloop
  endfacet
  facet normal 0.7660444431189775 0.0 0.6427876096865399
    outer loop
      vertex 0.390593385003672 0.008365588940117212 0.4217258863925048
      vertex 0.390593385003672 0.0055770592934114745 0.4217258863925048
      vertex 0.5244428080455477 0.0055770592934114745 0.26221035561568756
    endloop
  endfacet
  facet normal 0.7660444431189793 0.0 0.6427876096865379
    outer loop
      vertex 0.390593385003672 0.008365588940117212 0.4217258863925048
      vertex 0.2567439619617967 0.008365588940117212 0.5812414171693225
      vertex 0.2567439619617967 0.0055770592934114745 0.5812414171693225
    endloop
  endfacet
  facet normal 0.7660444431189793 0.0 0.6427876096865379
    outer loop
      vertex 0.2567439619617967 0.0055770592934114745 0.5812414171693225
      vertex 0.390593385003672 0.0055770592934114745 0.4217258863925048
      vertex 0.390593385003672 0.008365588940117212 0.4217258863925048
    endloop
  endfacet
  facet normal -1.0 -0.0 0.0
    outer loop
      vertex 0.2567439619617967 0.008365588940117212 0.5812414171693225
      vertex 0.2567439619617967 0.0055770592934114745 0.3470049268460399
      vertex 0.2567439619617967 0.0055770592934114745 0.5812414171693225
    endloop
  endfacet
  facet normal -1.0 0.0 0.0
    outer loop
      vertex 0.2567439619617967 0.008365588940117212 0.3470049268460399
      vertex 0.2567439619617967 0.0055770592934114745 0.3470049268460399
      vertex 0.2567439619617967 0.008365588940117212 0.5812414171693225
    endloop
  endfacet
  facet normal 0.0 0.0 -1.0
    outer loop
      vertex 0.2567439619617967 0.008365588940117212 0.3470049268460399
      vertex 0.30136043630908876 0.0055770592934114745 0.3470049268460399
      vertex 0.2567439619617967 0.0055770592934114745 0.3470049268460399
    endloop
  endfacet
  facet normal -0.0 -0.0 -1.0
    outer loop
      vertex 0.30136043630908876 0.008365588940117212 0.3470049268460399
      vertex 0.30136043630908876 0.0055770592934114745 0.3470049268460399
      vertex 0.2567439619617967 0.008365588940117212 0.3470049268460399
    endloop
  endfacet
  facet normal 0.0 1.0 0.0
    outer loop
      vertex 0.5244428080455477 0.008365588940117212 0.04584372500182094
      vertex 0.30136043630908876 0.008365588940117212 0.04584372500182094
      vertex 0.41290162217731824 0.008365588940117212 0.17522568311634235
    endloop
  endfacet
  facet normal 0.0 1.0 0.0
    outer loop
      vertex 0.30136043630908876 0.008365588940117212 0.04584372500182094
      vertex 0.30136043630908876 0.008365588940117212 0.3470049268460399
      vertex 0.41290162217731824 0.008365588940117212 0.17522568311634235
    endloop
  endfacet
  facet normal 0.0 1.0 0.0
    outer loop
      vertex 0.5244428080455477 0.008365588940117212 0.26221035561568756
      vertex 0.5244428080455477 0.008365588940117212 0.04584372500182094
      vertex 0.41290162217731824 0.008365588940117212 0.17522568311634235
    endloop
  endfacet
  facet normal -0.0 1.0 0.0
    outer loop
      vertex 0.30136043630908876 0.008365588940117212 0.3470049268460399
      vertex 0.390593385003672 0.008365588940117212 0.4217258863925048
      vertex 0.5244428080455477 0.008365588940117212 0.26221035561568756
    endloop
  endfacet
  facet normal 0.0 1.0 0.0
    outer loop
      vertex 0.30136043630908876 0.008365588940117212 0.3470049268460399
      vertex 0.5244428080455477 0.008365588940117212 0.26221035561568756
      vertex 0.41290162217731824 0.008365588940117212 0.17522568311634235
    endloop
  endfacet
  facet normal 0.0 1.0 0.0
    outer loop
      vertex 0.30136043630908876 0.008365588940117212 0.3470049268460399
      vertex 0.2567439619617967 0.008365588940117212 0.3470049268460399
      vertex 0.2567439619617967 0.008365588940117212 0.5812414171693225
    endloop
  endfacet
  facet normal 0.0 1.0 0.0
    outer loop
      vertex 0.390593385003672 0.008365588940117212 0.4217258863925048
      vertex 0.30136043630908876 0.008365588940117212 0.3470049268460399
      vertex 0.2567439619617967 0.008365588940117212 0.5812414171693225
    endloop
  endfacet
endsolid abc_100_084
