solid thingi10k_123044
  facet normal -1.0 0.0 0.0
    outer loop
      vertex 0.0 1.6310679611650485 0.0
      vertex 0.0 1.6310679611650485 0.38834951456310673
      vertex 0.0 7.999999999999999 0.0
    endloop
  endfacet
  facet normal -1.0 0.0 0.0
    outer loop
      vertex 0.0 7.999999999999999 0.0
      vertex 0.0 1.6310679611650485 0.38834951456310673
      vertex 0.0 7.999999999999999 0.38834951456310673
    endloop
  endfacet
  facet normal 0.0 -1.0 0.0
    outer loop
      vertex 0.0 1.6310679611650485 0.38834951456310673
      vertex 0.0 1.6310679611650485 0.0
      vertex 2.122974757281553 1.6310679611650485 0.0
    endloop
  endfacet
  facet normal -0.0 -1.0 -0.0
    outer loop
      vertex 2.122974757281553 1.6310679611650485 0.38834951456310673
      vertex 0.0 1.6310679611650485 0.38834951456310673
      vertex 2.122974757281553 1.6310679611650485 0.0
    endloop
  endfacet
  facet normal 0.0 0.0 -1.0
    outer loop
      vertex 6.058252427184465 1.9417475728155338 0.0
      vertex 4.245957281553397 1.6310679611650485 0.0
      vertex 2.122974757281553 1.6310679611650485 0.0
    endloop
  endfacet
  facet normal 0.0 0.0 -1.0
    outer loop
      vertex 0.3106796116504854 7.689320388349514 0.0
      vertex 0.0 7.999999999999999 0.0
      vertex 6.368932038834951 7.999999999999999 0.0
    endloop
  endfacet
  facet normal 0.0 0.0 -1.0
    outer loop
      vertex 6.058252427184465 1.9417475728155338 0.0
      vertex 6.368932038834951 7.999999999999999 0.0
      vertex 6.368932038834951 1.6310679611650485 0.0
    endloop
  endfacet
  facet normal 0.0 0.0 -1.0
    outer loop
      vertex 0.3106796116504854 1.9417475728155338 0.0
      vertex 0.0 7.999999999999999 0.0
      vertex 0.3106796116504854 7.689320388349514 0.0
    endloop
  endfacet
  facet normal -0.0 -0.0 -1.0
    outer loop
      vertex 4.245957281553397 1.6310679611650485 0.0
      vertex 4.245957281553397 0.0 0.0
      vertex 2.122974757281553 1.6310679611650485 0.0
    endloop
  endfacet
  facet normal -0.0 0.0 -1.0
    outer loop
      vertex 6.058252427184465 1.9417475728155338 0.0
      vertex 2.122974757281553 1.6310679611650485 0.0
      vertex 0.3106796116504854 1.9417475728155338 0.0
    endloop
  endfacet
  facet normal 0.0 0.0 -1.0
    outer loop
      vertex 6.058252427184465 7.689320388349514 0.0
      vertex 0.3106796116504854 7.689320388349514 0.0
      vertex 6.368932038834951 7.999999999999999 0.0
    endloop
  endfacet
  facet normal 0.0 0.0 -1.0
    outer loop
      vertex 0.0 1.6310679611650485 0.0
      vertex 0.0 7.999999999999999 0.0
      vertex 0.3106796116504854 1.9417475728155338 0.0
    endloop
  endfacet
  facet normal 0.0 0.0 -1.0
    outer loop
      vertex 0.0 1.6310679611650485 0.0
      vertex 0.3106796116504854 1.9417475728155338 0.0
      vertex 2.122974757281553 1.6310679611650485 0.0
    endloop
  endfacet
  facet normal 0.0 0.0 -1.0
    outer loop
      vertex 4.245957281553397 1.6310679611650485 0.0
      vertex 6.058252427184465 1.9417475728155338 0.0
      vertex 6.368932038834951 1.6310679611650485 0.0
    endloop
  endfacet
  facet normal 0.0 0.0 -1.0
    outer loop
      vertex 2.122974757281553 1.6310679611650485 0.0
      vertex 4.245957281553397 0.0 0.0
      vertex 2.122974757281553 0.0 0.0
    endloop
  endfacet
  facet normal 0.0 0.0 -1.0
    outer loop
      vertex 6.058252427184465 7.689320388349514 0.0
      vertex 6.368932038834951 7.999999999999999 0.0
      vertex 6.058252427184465 1.9417475728155338 0.0
    endloop
  endfacet
  facet normal 0.0 1.0 0.0
    outer loop
      vertex 0.0 7.999999999999999 0.0
      vertex 0.0 7.999999999999999 0.38834951456310673
      vertex 6.368932038834951 7.999999999999999 0.0
    endloop
  endfacet
  facet normal 0.0 1.0 -0.0
    outer loop
      vertex 6.368932038834951 7.999999999999999 0.0
      vertex 0.0 7.999999999999999 0.38834951456310673
      vertex 6.368932038834951 7.999999999999999 0.38834951456310673
    endloop
  endfacet
  facet normal 0.0 0.0 1.0
    outer loop
      vertex 4.245957281553397 1.6310679611650485 0.38834951456310673
      vertex 6.368932038834951 1.6310679611650485 0.38834951456310673
      vertex 6.058252427184465 1.9417475728155338 0.38834951456310673
    endloop
  endfacet
  facet normal 0.0 0.0 1.0
    outer loop
      vertex 0.3106796116504854 1.9417475728155338 0.38834951456310673
      vertex 0.0 1.6310679611650485 0.38834951456310673
      vertex 2.122974757281553 1.6310679611650485 0.38834951456310673
    endloop
  endfacet
  facet normal 0.0 0.0 1.0
    outer loop
      vertex 2.122974757281553 0.0 0.38834951456310673
      vertex 4.245957281553397 0.0 0.38834951456310673
      vertex 2.122974757281553 1.6310679611650485 0.38834951456310673
    endloop
  endfacet
  facet normal 0.0 -0.0 1.0
    outer loop
      vertex 0.3106796116504854 7.689320388349514 0.38834951456310673
      vertex 6.368932038834951 7.999999999999999 0.38834951456310673
      vertex 0.0 7.999999999999999 0.38834951456310673
    endloop
  endfacet
  facet normal 0.0 0.0 1.0
    outer loop
      vertex 0.0 7.999999999999999 0.38834951456310673
      vertex 0.0 1.6310679611650485 0.38834951456310673
      vertex 0.3106796116504854 1.9417475728155338 0.38834951456310673
    endloop
  endfacet
  facet normal 0.0 -0.0 1.0
    outer loop
      vertex 6.058252427184465 7.689320388349514 0.38834951456310673
      vertex 6.368932038834951 7.999999999999999 0.38834951456310673
      vertex 0.3106796116504854 7.689320388349514 0.38834951456310673
    endloop
  endfacet
  facet normal 0.0 -0.0 1.0
    outer loop
      vertex 6.368932038834951 1.6310679611650485 0.38834951456310673
      vertex 6.368932038834951 7.999999999999999 0.38834951456310673
      vertex 6.058252427184465 7.689320388349514 0.38834951456310673
    endloop
  endfacet
  facet normal 0.0 0.0 1.0
    outer loop
      vertex 6.368932038834951 1.6310679611650485 0.38834951456310673
      vertex 6.058252427184465 7.689320388349514 0.38834951456310673
      vertex 6.058252427184465 1.9417475728155338 0.38834951456310673
    endloop
  endfacet
  facet normal 0.0 -0.0 1.0
    outer loop
      vertex 0.3106796116504854 1.9417475728155338 0.38834951456310673
      vertex 0.3106796116504854 7.689320388349514 0.38834951456310673
      vertex 0.0 7.999999999999999 0.38834951456310673
    endloop
  endfacet
  facet normal 0.0 0.0 1.0
    outer loop
      vertex 4.245957281553397 1.6310679611650485 0.38834951456310673
      vertex 2.122974757281553 1.6310679611650485 0.38834951456310673
      vertex 4.245957281553397 0.0 0.38834951456310673
    endloop
  endfacet
  facet normal 0.0 0.0 1.0
    outer loop
      vertex 6.058252427184465 1.9417475728155338 0.38834951456310673
      vertex 2.122974757281553 1.6310679611650485 0.38834951456310673
      vertex 4.245957281553397 1.6310679611650485 0.38834951456310673
    endloop
  endfacet
  facet normal 0.0 0.0 1.0
    outer loop
      vertex 6.058252427184465 1.9417475728155338 0.38834951456310673
      vertex 0.3106796116504854 1.9417475728155338 0.38834951456310673
      vertex 2.122974757281553 1.6310679611650485 0.38834951456310673
    endloop
  endfacet
  facet normal -1.0 0.0 0.0
    outer loop
      vertex 2.122974757281553 0.3014912621359225 0.2884295145631068
      vertex 2.122974757281553 0.0 0.38834951456310673
      vertex 2.122974757281553 1.6310679611650485 0.0
    endloop
  endfacet
  facet normal -1.0 0.0 0.0
    outer loop
      vertex 2.122974757281553 1.6310679611650485 0.0
      vertex 2.122974757281553 0.0 0.38834951456310673
      vertex 2.122974757281553 1.6310679611650485 0.38834951456310673
    endloop
  endfacet
  facet normal -1.0 0.0 0.0
    outer loop
      vertex 2.122974757281553 0.0 0.0
      vertex 2.122974757281553 0.0 0.38834951456310673
      vertex 2.122974757281553 0.16452815533980564 0.2884295145631068
    endloop
  endfacet
  facet normal -1.0 0.0 0.0
    outer loop
      vertex 2.122974757281553 0.0 0.0
      vertex 2.122974757281553 0.16452815533980564 0.2884295145631068
      vertex 2.122974757281553 0.12220582524271839 0.15817320388349515
    endloop
  endfacet
  facet normal -1.0 0.0 0.0
    outer loop
      vertex 2.122974757281553 0.0 0.0
      vertex 2.122974757281553 0.12220582524271839 0.15817320388349515
      vertex 2.122974757281553 0.23300970873786406 0.07766990291262135
    endloop
  endfacet
  facet normal -1.0 0.0 0.0
    outer loop
      vertex 2.122974757281553 0.0 0.0
      vertex 2.122974757281553 0.23300970873786406 0.07766990291262135
      vertex 2.122974757281553 1.6310679611650485 0.0
    endloop
  endfacet
  facet normal -1.0 0.0 0.0
    outer loop
      vertex 2.122974757281553 0.3014912621359225 0.2884295145631068
      vertex 2.122974757281553 1.6310679611650485 0.0
      vertex 2.122974757281553 0.3438135922330097 0.15817320388349515
    endloop
  endfacet
  facet normal -1.0 0.0 0.0
    outer loop
      vertex 2.122974757281553 0.16452815533980564 0.2884295145631068
      vertex 2.122974757281553 0.0 0.38834951456310673
      vertex 2.122974757281553 0.3014912621359225 0.2884295145631068
    endloop
  endfacet
  facet normal -1.0 0.0 -0.0
    outer loop
      vertex 2.122974757281553 0.3438135922330097 0.15817320388349515
      vertex 2.122974757281553 1.6310679611650485 0.0
      vertex 2.122974757281553 0.23300970873786406 0.07766990291262135
    endloop
  endfacet
  facet normal 0.0 -1.0 0.0
    outer loop
      vertex 2.122974757281553 0.0 0.38834951456310673
      vertex 2.122974757281553 0.0 0.0
      vertex 4.245957281553397 0.0 0.0
    endloop
  endfacet
  facet normal -0.0 -1.0 -0.0
    outer loop
      vertex 4.245957281553397 0.0 0.38834951456310673
      vertex 2.122974757281553 0.0 0.38834951456310673
      vertex 4.245957281553397 0.0 0.0
    endloop
  endfacet
  facet normal 1.0 0.0 0.0
    outer loop
      vertex 4.245957281553397 0.23300970873786406 0.07766990291262135
      vertex 4.245957281553397 0.0 0.0
      vertex 4.245957281553397 1.6310679611650485 0.0
    endloop
  endfacet
  facet normal 1.0 0.0 0.0
    outer loop
      vertex 4.245957281553397 1.6310679611650485 0.38834951456310673
      vertex 4.245957281553397 0.0 0.38834951456310673
      vertex 4.245957281553397 1.6310679611650485 0.0
    endloop
  endfacet
  facet normal 1.0 0.0 0.0
    outer loop
      vertex 4.245957281553397 0.0 0.38834951456310673
      vertex 4.245957281553397 0.0 0.0
      vertex 4.245957281553397 0.12220582524271839 0.15817320388349515
    endloop
  endfacet
  facet normal 1.0 0.0 0.0
    outer loop
      vertex 4.245957281553397 0.3438135922330097 0.15817320388349515
      vertex 4.245957281553397 0.23300970873786406 0.07766990291262135
      vertex 4.245957281553397 1.6310679611650485 0.0
    endloop
  endfacet
  facet normal 1.0 0.0 0.0
    outer loop
      vertex 4.245957281553397 0.0 0.38834951456310673
      vertex 4.245957281553397 0.12220582524271839 0.15817320388349515
      vertex 4.245957281553397 0.16452815533980564 0.2884295145631068
    endloop
  endfacet
  facet normal 1.0 0.0 0.0
    outer loop
      vertex 4.245957281553397 0.0 0.38834951456310673
      vertex 4.245957281553397 0.3014912621359225 0.2884295145631068
      vertex 4.245957281553397 1.6310679611650485 0.0
    endloop
  endfacet
  facet normal 1.0 0.0 0.0
    outer loop
      vertex 4.245957281553397 0.0 0.38834951456310673
      vertex 4.245957281553397 0.16452815533980564 0.2884295145631068
      vertex 4.245957281553397 0.3014912621359225 0.2884295145631068
    endloop
  endfacet
  facet normal 1.0 0.0 0.0
    outer loop
      vertex 4.245957281553397 0.12220582524271839 0.15817320388349515
      vertex 4.245957281553397 0.0 0.0
      vertex 4.245957281553397 0.23300970873786406 0.07766990291262135
    endloop
  endfacet
  facet normal 1.0 0.0 0.0
    outer loop
      vertex 4.245957281553397 0.3014912621359225 0.2884295145631068
      vertex 4.245957281553397 0.3438135922330097 0.15817320388349515
      vertex 4.245957281553397 1.6310679611650485 0.0
    endloop
  endfacet
  facet normal 0.0 -1.0 0.0
    outer loop
      vertex 4.245957281553397 1.6310679611650485 0.38834951456310673
      vertex 4.245957281553397 1.6310679611650485 0.0
      vertex 6.368932038834951 1.6310679611650485 0.0
    endloop
  endfacet
  facet normal -0.0 -1.0 -0.0
    outer loop
      vertex 6.368932038834951 1.6310679611650485 0.38834951456310673
      vertex 4.245957281553397 1.6310679611650485 0.38834951456310673
      vertex 6.368932038834951 1.6310679611650485 0.0
    endloop
  endfacet
  facet normal 1.0 0.0 0.0
    outer loop
      vertex 6.368932038834951 1.6310679611650485 0.38834951456310673
      vertex 6.368932038834951 1.6310679611650485 0.0
      vertex 6.368932038834951 7.999999999999999 0.0
    endloop
  endfacet
  facet normal 1.0 0.0 0.0
    outer loop
      vertex 6.368932038834951 7.999999999999999 0.38834951456310673
      vertex 6.368932038834951 1.6310679611650485 0.38834951456310673
      vertex 6.368932038834951 7.999999999999999 0.0
    endloop
  endfacet
  facet normal 1.0 0.0 -0.0
    outer loop
      vertex 0.3106796116504854 7.689320388349514 0.0
      vertex 0.3106796116504854 7.689320388349514 0.38834951456310673
      vertex 0.3106796116504854 1.9417475728155338 0.38834951456310673
    endloop
  endfacet
  facet normal 1.0 0.0 0.0
    outer loop
      vertex 0.3106796116504854 1.9417475728155338 0.0
      vertex 0.3106796116504854 7.689320388349514 0.0
      vertex 0.3106796116504854 1.9417475728155338 0.38834951456310673
    endloop
  endfacet
  facet normal 0.0 -1.0 0.0
    outer loop
      vertex 6.058252427184465 7.689320388349514 0.0
      vertex 6.058252427184465 7.689320388349514 0.38834951456310673
      vertex 0.3106796116504854 7.689320388349514 0.38834951456310673
    endloop
  endfacet
  facet normal 0.0 -1.0 0.0
    outer loop
      vertex 0.3106796116504854 7.689320388349514 0.0
      vertex 6.058252427184465 7.689320388349514 0.0
      vertex 0.3106796116504854 7.689320388349514 0.38834951456310673
    endloop
  endfacet
  facet normal -1.0 -0.0 -0.0
    outer loop
      vertex 6.058252427184465 7.689320388349514 0.38834951456310673
      vertex 6.058252427184465 7.689320388349514 0.0
      vertex 6.058252427184465 1.9417475728155338 0.38834951456310673
    endloop
  endfacet
  facet normal -1.0 0.0 0.0
    outer loop
      vertex 6.058252427184465 1.9417475728155338 0.38834951456310673
      vertex 6.058252427184465 7.689320388349514 0.0
      vertex 6.058252427184465 1.9417475728155338 0.0
    endloop
  endfacet
  facet normal 0.0 1.0 0.0
    outer loop
      vertex 6.058252427184465 1.9417475728155338 0.38834951456310673
      vertex 6.058252427184465 1.9417475728155338 0.0
      vertex 0.3106796116504854 1.9417475728155338 0.38834951456310673
    endloop
  endfacet
  facet normal 0.0 1.0 0.0
    outer loop
      vertex 0.3106796116504854 1.9417475728155338 0.38834951456310673
      vertex 6.058252427184465 1.9417475728155338 0.0
      vertex 0.3106796116504854 1.9417475728155338 0.0
    endloop
  endfacet
  facet normal -0.0 -0.0 -1.0
    outer loop
      vertex 4.245957281553397 0.3014912621359225 0.2884295145631068
      vertex 4.245957281553397 0.16452815533980564 0.2884295145631068
      vertex 2.122974757281553 0.3014912621359225 0.2884295145631068
    endloop
  endfacet
  facet normal 0.0 0.0 -1.0
    outer loop
      vertex 2.122974757281553 0.3014912621359225 0.2884295145631068
      vertex 4.245957281553397 0.16452815533980564 0.2884295145631068
      vertex 2.122974757281553 0.16452815533980564 0.2884295145631068
    endloop
  endfacet
  facet normal 0.0 0.9510576123856427 -0.30901362093493645
    outer loop
      vertex 4.245957281553397 0.16452815533980564 0.2884295145631068
      vertex 4.245957281553397 0.12220582524271839 0.15817320388349515
      vertex 2.122974757281553 0.16452815533980564 0.2884295145631068
    endloop
  endfacet
  facet normal 0.0 0.9510576123856427 -0.30901362093493645
    outer loop
      vertex 2.122974757281553 0.16452815533980564 0.2884295145631068
      vertex 4.245957281553397 0.12220582524271839 0.15817320388349515
      vertex 2.122974757281553 0.12220582524271839 0.15817320388349515
    endloop
  endfacet
  facet normal 0.0 -0.9510576123856427 -0.30901362093493645
    outer loop
      vertex 2.122974757281553 0.3438135922330097 0.15817320388349515
      vertex 4.245957281553397 0.3438135922330097 0.15817320388349515
      vertex 4.245957281553397 0.3014912621359225 0.2884295145631068
    endloop
  endfacet
  facet normal 0.0 -0.9510576123856427 -0.30901362093493645
    outer loop
      vertex 2.122974757281553 0.3014912621359225 0.2884295145631068
      vertex 2.122974757281553 0.3438135922330097 0.15817320388349515
      vertex 4.245957281553397 0.3014912621359225 0.2884295145631068
    endloop
  endfacet
  facet normal 0.0 -0.5877831847121285 0.8090184965559613
    outer loop
      vertex 4.245957281553397 0.23300970873786406 0.07766990291262135
      vertex 4.245957281553397 0.3438135922330097 0.15817320388349515
      vertex 2.122974757281553 0.3438135922330097 0.15817320388349515
    endloop
  endfacet
  facet normal 0.0 -0.5877831847121285 0.8090184965559613
    outer loop
      vertex 2.122974757281553 0.23300970873786406 0.07766990291262135
      vertex 4.245957281553397 0.23300970873786406 0.07766990291262135
      vertex 2.122974757281553 0.3438135922330097 0.15817320388349515
    endloop
  endfacet
  facet normal 0.0 0.5877831847121285 0.8090184965559613
    outer loop
      vertex 4.245957281553397 0.12220582524271839 0.15817320388349515
      vertex 4.245957281553397 0.23300970873786406 0.07766990291262135
      vertex 2.122974757281553 0.23300970873786406 0.07766990291262135
    endloop
  endfacet
  facet normal -0.0 0.5877831847121285 0.8090184965559613
    outer loop
      vertex 2.122974757281553 0.12220582524271839 0.15817320388349515
      vertex 4.245957281553397 0.12220582524271839 0.15817320388349515
      vertex 2.122974757281553 0.23300970873786406 0.07766990291262135
    endloop
  endfacet
endsolid thingi10k_123044
