solid thingi10k_204952
  facet normal 0.0006348549205576453 0.9999989809784486 0.001278671691290027
    outer loop
      vertex 3.9843399445416425 6.762685859593478 0.33842289763092925
      vertex 2.77974182040841 6.7634506054191705 0.33842289763092925
      vertex 0.6764592471022971 6.764785638924954 0.33861618073323524
    endloop
  endfacet
  facet normal -1.0 -0.0 -0.0
    outer loop
      vertex 0.0 6.088326391822657 0.33861618073323524
      vertex 0.0 6.088326391822657 0.0
      vertex 0.0 0.6766524150042799 0.33861618073323524
    endloop
  endfacet
  facet normal -1.0 0.0 0.0
    outer loop
      vertex 0.0 0.6766524150042799 0.0
      vertex 0.0 0.6766524150042799 0.33861618073323524
      vertex 0.0 6.088326391822657 0.0
    endloop
  endfacet
  facet normal 0.1465485727444229 0.9892034754420208 0.0
    outer loop
      vertex 5.846733987892354 5.843834626157441 0.33861618073323524
      vertex 5.622342743264375 5.877077753029676 0.33861618073323524
      vertex 5.622342743264375 5.877077753029676 0.708349475396124
    endloop
  endfacet
  facet normal 0.1465485727444229 0.9892034754420208 -0.0
    outer loop
      vertex 5.846733987892354 5.843834626157441 0.33861618073323524
      vertex 5.622342743264375 5.877077753029676 0.708349475396124
      vertex 5.846733987892354 5.843834626157441 0.708349475396124
    endloop
  endfacet
  facet normal 0.32796355481635675 -0.9446903761086055 0.0
    outer loop
      vertex 4.925976235187082 4.9503285697538875 0.708349475396124
      vertex 4.925976235187082 4.9503285697538875 0.33861618073323524
      vertex 5.0657133978160225 4.998840439626552 0.33861618073323524
    endloop
  endfacet
  facet normal 0.9131540334304638 -0.4076146602241821 0.0
    outer loop
      vertex 4.822381376844771 4.85890992477511 0.708349475396124
      vertex 4.758021075945214 4.714727504233842 0.708349475396124
      vertex 4.758021075945214 4.714727504233842 0.33861618073323524
    endloop
  endfacet
  facet normal 0.9131540334304638 -0.4076146602241821 0.0
    outer loop
      vertex 4.822381376844771 4.85890992477511 0.708349475396124
      vertex 4.758021075945214 4.714727504233842 0.33861618073323524
      vertex 4.822381376844771 4.85890992477511 0.33861618073323524
    endloop
  endfacet
  facet normal 0.6616680973213224 -0.7497968584804694 0.0
    outer loop
      vertex 4.925976235187082 4.9503285697538875 0.33861618073323524
      vertex 4.925976235187082 4.9503285697538875 0.708349475396124
      vertex 4.822381376844771 4.85890992477511 0.708349475396124
    endloop
  endfacet
  facet normal 0.6616680973213224 -0.7497968584804694 0.0
    outer loop
      vertex 4.925976235187082 4.9503285697538875 0.33861618073323524
      vertex 4.822381376844771 4.85890992477511 0.708349475396124
      vertex 4.822381376844771 4.85890992477511 0.33861618073323524
    endloop
  endfacet
  facet normal 0.0 -0.0 -1.0
    outer loop
      vertex 0.04677243715223326 6.3362970229287345 0.0
      vertex 6.764785638924954 0.6766524150042799 0.0
      vertex 0.011983045461549633 6.216660289176772 0.0
    endloop
  endfacet
  facet normal 0.0 -0.0 -1.0
    outer loop
      vertex 0.10204868568412034 6.446269831966044 0.0
      vertex 6.764785638924954 0.6766524150042799 0.0
      vertex 0.04677243715223326 6.3362970229287345 0.0
    endloop
  endfacet
  facet normal 0.0 -0.0 -1.0
    outer loop
      vertex 0.17568620685333172 6.543293571711372 0.0
      vertex 6.764785638924954 0.6766524150042799 0.0
      vertex 0.10204868568412034 6.446269831966044 0.0
    endloop
  endfacet
  facet normal 0.0 -0.0 -1.0
    outer loop
      vertex 0.2651719747289198 6.625434904260237 0.0
      vertex 6.764785638924954 0.6766524150042799 0.0
      vertex 0.17568620685333172 6.543293571711372 0.0
    endloop
  endfacet
  facet normal 0.0 -0.0 -1.0
    outer loop
      vertex 0.3683804051070054 6.69095494985376 0.0
      vertex 6.764785638924954 0.6766524150042799 0.0
      vertex 0.2651719747289198 6.625434904260237 0.0
    endloop
  endfacet
  facet normal 0.0 -0.0 -1.0
    outer loop
      vertex 0.48318517650164083 6.73695416243651 0.0
      vertex 6.764785638924954 0.6766524150042799 0.0
      vertex 0.3683804051070054 6.69095494985376 0.0
    endloop
  endfacet
  facet normal 0.0 -0.0 -1.0
    outer loop
      vertex 0.6764592471022971 6.764785638924954 0.0
      vertex 6.764785638924954 0.6766524150042799 0.0
      vertex 0.48318517650164083 6.73695416243651 0.0
    endloop
  endfacet
  facet normal -0.05042458799559862 0.9987278713070313 0.0
    outer loop
      vertex 4.89679184610269 5.916312402632687 0.33861618073323524
      vertex 4.659451255701955 5.904329357171137 0.33861618073323524
      vertex 4.659451255701955 5.904329357171137 0.708349475396124
    endloop
  endfacet
  facet normal -0.05042458799559862 0.9987278713070313 0.0
    outer loop
      vertex 4.89679184610269 5.916312402632687 0.33861618073323524
      vertex 4.659451255701955 5.904329357171137 0.708349475396124
      vertex 4.89679184610269 5.916312402632687 0.708349475396124
    endloop
  endfacet
  facet normal 0.0 0.0 -1.0
    outer loop
      vertex 0.5400076898519759 0.013722293861463224 0.0
      vertex 0.0 0.6766524150042799 0.0
      vertex 0.6764592471022971 0.0 0.0
    endloop
  endfacet
  facet normal 0.0 0.0 -1.0
    outer loop
      vertex 0.41302670509380807 0.053150295686973624 0.0
      vertex 0.0 0.6766524150042799 0.0
      vertex 0.5400076898519759 0.013722293861463224 0.0
    endloop
  endfacet
  facet normal 0.0 0.0 -1.0
    outer loop
      vertex 0.29802858147667277 0.11577097954558356 0.0
      vertex 0.0 0.6766524150042799 0.0
      vertex 0.41302670509380807 0.053150295686973624 0.0
    endloop
  endfacet
  facet normal 0.0 0.0 -1.0
    outer loop
      vertex 0.19810584863746586 0.19829901653944865 0.0
      vertex 0.0 0.6766524150042799 0.0
      vertex 0.29802858147667277 0.11577097954558356 0.0
    endloop
  endfacet
  facet normal 0.0 0.0 -1.0
    outer loop
      vertex 0.1155778116436008 0.29822174937865553 0.0
      vertex 0.0 0.6766524150042799 0.0
      vertex 0.19810584863746586 0.19829901653944865 0.0
    endloop
  endfacet
  facet normal 0.0 0.0 -1.0
    outer loop
      vertex 0.05295712778499085 0.4132196886752737 0.0
      vertex 0.0 0.6766524150042799 0.0
      vertex 0.1155778116436008 0.29822174937865553 0.0
    endloop
  endfacet
  facet normal 0.0 0.0 -1.0
    outer loop
      vertex 0.013529125959480451 0.5402010420744758 0.0
      vertex 0.0 0.6766524150042799 0.0
      vertex 0.05295712778499085 0.4132196886752737 0.0
    endloop
  endfacet
  facet normal 0.0 0.0 -1.0
    outer loop
      vertex 0.0 6.088326391822657 0.0
      vertex 6.088133223920674 0.0 0.0
      vertex 0.0 0.6766524150042799 0.0
    endloop
  endfacet
  facet normal 0.0 0.0 1.0
    outer loop
      vertex 2.997294290008427 3.9684963260082515 0.33861618073323524
      vertex 0.0 6.088326391822657 0.33861618073323524
      vertex 2.997294290008427 3.1074603360679123 0.33861618073323524
    endloop
  endfacet
  facet normal 0.0 -0.0 1.0
    outer loop
      vertex 6.466563889546299 0.11577097954558356 0.33861618073323524
      vertex 6.566486622385505 0.19829901653944865 0.33861618073323524
      vertex 5.597217091967828 3.1074603360679123 0.33861618073323524
    endloop
  endfacet
  facet normal 0.0 -0.0 1.0
    outer loop
      vertex 6.566486622385505 0.19829901653944865 0.33861618073323524
      vertex 6.649014659379371 0.29822174937865553 0.33861618073323524
      vertex 5.597217091967828 3.1074603360679123 0.33861618073323524
    endloop
  endfacet
  facet normal 0.0 -0.0 1.0
    outer loop
      vertex 6.649014659379371 0.29822174937865553 0.33861618073323524
      vertex 6.7116353432379805 0.4132196886752737 0.33861618073323524
      vertex 5.597217091967828 3.1074603360679123 0.33861618073323524
    endloop
  endfacet
  facet normal 0.0 -0.0 1.0
    outer loop
      vertex 6.7116353432379805 0.4132196886752737 0.33861618073323524
      vertex 6.751063345063491 0.5402010420744758 0.33861618073323524
      vertex 5.597217091967828 3.1074603360679123 0.33861618073323524
    endloop
  endfacet
  facet normal 0.0 -0.0 1.0
    outer loop
      vertex 6.751063345063491 0.5402010420744758 0.33861618073323524
      vertex 6.764785638924954 0.6766524150042799 0.33861618073323524
      vertex 5.597217091967828 3.1074603360679123 0.33861618073323524
    endloop
  endfacet
  facet normal 0.0 0.0 1.0
    outer loop
      vertex 5.7019716028438445 3.9684963260082515 0.33861618073323524
      vertex 5.597217091967828 3.1074603360679123 0.33861618073323524
      vertex 6.764785638924954 0.6766524150042799 0.33861618073323524
    endloop
  endfacet
  facet normal 0.0 0.0 1.0
    outer loop
      vertex 3.086393629919791 7.941051718125268 0.33842289763092925
      vertex 2.835523890519511 7.7734829868476245 0.33842289763092925
      vertex 3.1646696229834412 7.603788302725068 0.33842289763092925
    endloop
  endfacet
  facet normal 0.0 -0.0 1.0
    outer loop
      vertex 3.0052185285619384 7.44453058356613 0.33842289763092925
      vertex 3.1646696229834412 7.603788302725068 0.33842289763092925
      vertex 2.835523890519511 7.7734829868476245 0.33842289763092925
    endloop
  endfacet
  facet normal 0.0 0.0 1.0
    outer loop
      vertex 4.735987862125304 3.9684963260082515 0.33861618073323524
      vertex 5.7019716028438445 3.9684963260082515 0.33861618073323524
      vertex 4.735987862125304 4.507731001531335 0.33861618073323524
    endloop
  endfacet
  facet normal 0.0 0.0 1.0
    outer loop
      vertex 3.3822962355114856 7.662157080893851 0.33842289763092925
      vertex 3.086393629919791 7.941051718125268 0.33842289763092925
      vertex 3.1646696229834412 7.603788302725068 0.33842289763092925
    endloop
  endfacet
  facet normal 0.0 -0.0 1.0
    outer loop
      vertex 6.088133223920674 0.0 0.33861618073323524
      vertex 6.224584781170996 0.013722293861463224 0.33861618073323524
      vertex 5.597217091967828 3.1074603360679123 0.33861618073323524
    endloop
  endfacet
  facet normal -0.0 0.0 1.0
    outer loop
      vertex 4.735987862125304 3.1074603360679123 0.33861618073323524
      vertex 4.735987862125304 0.0 0.33861618073323524
      vertex 5.597217091967828 3.1074603360679123 0.33861618073323524
    endloop
  endfacet
  facet normal 0.0 0.0 1.0
    outer loop
      vertex 6.088133223920674 0.0 0.33861618073323524
      vertex 5.597217091967828 3.1074603360679123 0.33861618073323524
      vertex 4.735987862125304 0.0 0.33861618073323524
    endloop
  endfacet
  facet normal 0.0 -0.0 1.0
    outer loop
      vertex 6.224584781170996 0.013722293861463224 0.33861618073323524
      vertex 6.3515657659291636 0.053150295686973624 0.33861618073323524
      vertex 5.597217091967828 3.1074603360679123 0.33861618073323524
    endloop
  endfacet
  facet normal 0.0 -0.0 1.0
    outer loop
      vertex 6.3515657659291636 0.053150295686973624 0.33861618073323524
      vertex 6.466563889546299 0.11577097954558356 0.33861618073323524
      vertex 5.597217091967828 3.1074603360679123 0.33861618073323524
    endloop
  endfacet
  facet normal 0.0 0.0 1.0
    outer loop
      vertex 2.997294290008427 3.9684963260082515 0.33861618073323524
      vertex 3.592771695815113 3.9684963260082515 0.33861618073323524
      vertex 3.5977968260744224 5.009663740394136 0.33861618073323524
    endloop
  endfacet
  facet normal 0.0 0.0 1.0
    outer loop
      vertex 3.592771695815113 0.0 0.33861618073323524
      vertex 2.997294290008427 3.1074603360679123 0.33861618073323524
      vertex 0.6764592471022971 0.0 0.33861618073323524
    endloop
  endfacet
  facet normal -0.0 0.0 1.0
    outer loop
      vertex 3.6001161081017714 6.849632980986232 0.33842289763092925
      vertex 3.9843399445416425 6.762685859593478 0.33842289763092925
      vertex 3.759373942461033 7.009084052367671 0.33842289763092925
    endloop
  endfacet
  facet normal -0.0 0.0 1.0
    outer loop
      vertex 2.997294290008427 3.1074603360679123 0.33861618073323524
      vertex 3.592771695815113 0.0 0.33861618073323524
      vertex 3.592771695815113 3.1074603360679123 0.33861618073323524
    endloop
  endfacet
  facet normal 0.9955291344672652 0.0944549756596123 0.0
    outer loop
      vertex 6.764785638924954 6.088326391822657 0.0
      vertex 6.752609425561421 6.216660289176772 0.0
      vertex 6.752609425561421 6.216660289176772 0.33861618073323524
    endloop
  endfacet
  facet normal 0.9955291344672652 0.0944549756596123 -0.0
    outer loop
      vertex 6.764785638924954 6.088326391822657 0.0
      vertex 6.752609425561421 6.216660289176772 0.33861618073323524
      vertex 6.764785638924954 6.088326391822657 0.33861618073323524
    endloop
  endfacet
  facet normal 0.9602254757613474 0.2792257790729467 0.0
    outer loop
      vertex 6.752609425561421 6.216660289176772 0.0
      vertex 6.717820033870738 6.3362970229287345 0.0
      vertex 6.717820033870738 6.3362970229287345 0.33861618073323524
    endloop
  endfacet
  facet normal 0.9602254757613474 0.2792257790729467 -0.0
    outer loop
      vertex 6.752609425561421 6.216660289176772 0.0
      vertex 6.717820033870738 6.3362970229287345 0.33861618073323524
      vertex 6.752609425561421 6.216660289176772 0.33861618073323524
    endloop
  endfacet
  facet normal 0.8934832622771401 0.4490964930063462 0.0
    outer loop
      vertex 6.717820033870738 6.3362970229287345 0.0
      vertex 6.662543785338851 6.446269831966044 0.0
      vertex 6.662543785338851 6.446269831966044 0.33861618073323524
    endloop
  endfacet
  facet normal 0.8934832622771401 0.4490964930063462 -0.0
    outer loop
      vertex 6.717820033870738 6.3362970229287345 0.0
      vertex 6.662543785338851 6.446269831966044 0.33861618073323524
      vertex 6.717820033870738 6.3362970229287345 0.33861618073323524
    endloop
  endfacet
  facet normal 0.29653717127780016 -0.9550213118305583 0.0
    outer loop
      vertex 6.224584781170996 0.013722293861463224 0.33861618073323524
      vertex 6.224584781170996 0.013722293861463224 0.0
      vertex 6.3515657659291636 0.053150295686973624 0.0
    endloop
  endfacet
  facet normal 0.29653717127780016 -0.9550213118305583 0.0
    outer loop
      vertex 6.224584781170996 0.013722293861463224 0.33861618073323524
      vertex 6.3515657659291636 0.053150295686973624 0.0
      vertex 6.3515657659291636 0.053150295686973624 0.33861618073323524
    endloop
  endfacet
  facet normal 0.10006061240230811 -0.9949813434661352 0.0
    outer loop
      vertex 6.088133223920674 0.0 0.33861618073323524
      vertex 6.088133223920674 0.0 0.0
      vertex 6.224584781170996 0.013722293861463224 0.0
    endloop
  endfacet
  facet normal 0.10006061240230811 -0.9949813434661352 0.0
    outer loop
      vertex 6.088133223920674 0.0 0.33861618073323524
      vertex 6.224584781170996 0.013722293861463224 0.0
      vertex 6.224584781170996 0.013722293861463224 0.33861618073323524
    endloop
  endfacet
  facet normal 0.9949813300094745 -0.10006074621237337 0.0
    outer loop
      vertex 6.751063345063491 0.5402010420744758 0.33861618073323524
      vertex 6.751063345063491 0.5402010420744758 0.0
      vertex 6.764785638924954 0.6766524150042799 0.0
    endloop
  endfacet
  facet normal 0.9949813300094745 -0.10006074621237337 0.0
    outer loop
      vertex 6.751063345063491 0.5402010420744758 0.33861618073323524
      vertex 6.764785638924954 0.6766524150042799 0.0
      vertex 6.764785638924954 0.6766524150042799 0.33861618073323524
    endloop
  endfacet
  facet normal 0.9943826912107947 -0.10584452475389255 0.0
    outer loop
      vertex 4.735987862125304 4.507731001531335 0.708349475396124
      vertex 4.735987862125304 4.507731001531335 0.33861618073323524
      vertex 4.758021075945214 4.714727504233842 0.33861618073323524
    endloop
  endfacet
  facet normal 0.9943826912107947 -0.10584452475389255 0.0
    outer loop
      vertex 4.735987862125304 4.507731001531335 0.708349475396124
      vertex 4.758021075945214 4.714727504233842 0.33861618073323524
      vertex 4.758021075945214 4.714727504233842 0.708349475396124
    endloop
  endfacet
  facet normal 0.9550215556310652 -0.2965363860979296 0.0
    outer loop
      vertex 6.751063345063491 0.5402010420744758 0.33861618073323524
      vertex 6.7116353432379805 0.4132196886752737 0.33861618073323524
      vertex 6.7116353432379805 0.4132196886752737 0.0
    endloop
  endfacet
  facet normal 0.9550215556310652 -0.2965363860979296 0.0
    outer loop
      vertex 6.751063345063491 0.5402010420744758 0.33861618073323524
      vertex 6.7116353432379805 0.4132196886752737 0.0
      vertex 6.751063345063491 0.5402010420744758 0.0
    endloop
  endfacet
  facet normal 0.8782339419338143 -0.4782312654306426 0.0
    outer loop
      vertex 6.7116353432379805 0.4132196886752737 0.33861618073323524
      vertex 6.649014659379371 0.29822174937865553 0.33861618073323524
      vertex 6.649014659379371 0.29822174937865553 0.0
    endloop
  endfacet
  facet normal 0.8782339419338143 -0.4782312654306426 0.0
    outer loop
      vertex 6.7116353432379805 0.4132196886752737 0.33861618073323524
      vertex 6.649014659379371 0.29822174937865553 0.0
      vertex 6.7116353432379805 0.4132196886752737 0.0
    endloop
  endfacet
  facet normal 0.0 0.0 1.0
    outer loop
      vertex 3.9290685805034604 7.7734829868476245 0.33842289763092925
      vertex 3.6781988411031805 7.941051718125268 0.33842289763092925
      vertex 3.6001161081017714 7.603788302725068 0.33842289763092925
    endloop
  endfacet
  facet normal 0.0 -0.0 1.0
    outer loop
      vertex 3.759373942461033 7.44453058356613 0.33842289763092925
      vertex 3.9290685805034604 7.7734829868476245 0.33842289763092925
      vertex 3.6001161081017714 7.603788302725068 0.33842289763092925
    endloop
  endfacet
  facet normal -0.0 0.0 1.0
    outer loop
      vertex 3.3822962355114856 7.662157080893851 0.33842289763092925
      vertex 3.6001161081017714 7.603788302725068 0.33842289763092925
      vertex 3.6781988411031805 7.941051718125268 0.33842289763092925
    endloop
  endfacet
  facet normal 0.0 0.0 1.0
    outer loop
      vertex 3.6781988411031805 7.941051718125268 0.33842289763092925
      vertex 3.3822962355114856 8.0 0.33842289763092925
      vertex 3.3822962355114856 7.662157080893851 0.33842289763092925
    endloop
  endfacet
  facet normal -0.0 0.0 1.0
    outer loop
      vertex 3.086393629919791 7.941051718125268 0.33842289763092925
      vertex 3.3822962355114856 7.662157080893851 0.33842289763092925
      vertex 3.3822962355114856 8.0 0.33842289763092925
    endloop
  endfacet
  facet normal 0.7710255096285911 -0.6368042583886916 0.0
    outer loop
      vertex 6.649014659379371 0.29822174937865553 0.33861618073323524
      vertex 6.566486622385505 0.19829901653944865 0.33861618073323524
      vertex 6.566486622385505 0.19829901653944865 0.0
    endloop
  endfacet
  facet normal 0.7710255096285911 -0.6368042583886916 0.0
    outer loop
      vertex 6.649014659379371 0.29822174937865553 0.33861618073323524
      vertex 6.566486622385505 0.19829901653944865 0.0
      vertex 6.649014659379371 0.29822174937865553 0.0
    endloop
  endfacet
  facet normal 0.6368042583886903 -0.7710255096285921 0.0
    outer loop
      vertex 6.566486622385505 0.19829901653944865 0.33861618073323524
      vertex 6.466563889546299 0.11577097954558356 0.33861618073323524
      vertex 6.466563889546299 0.11577097954558356 0.0
    endloop
  endfacet
  facet normal 0.6368042583886903 -0.7710255096285921 0.0
    outer loop
      vertex 6.566486622385505 0.19829901653944865 0.33861618073323524
      vertex 6.466563889546299 0.11577097954558356 0.0
      vertex 6.566486622385505 0.19829901653944865 0.0
    endloop
  endfacet
  facet normal 0.0 0.0 1.0
    outer loop
      vertex 3.9290685805034604 7.7734829868476245 0.33842289763092925
      vertex 3.759373942461033 7.44453058356613 0.33842289763092925
      vertex 4.096637219620845 7.522613178327151 0.33842289763092925
    endloop
  endfacet
  facet normal -0.0 0.0 1.0
    outer loop
      vertex 3.759373942461033 7.44453058356613 0.33842289763092925
      vertex 3.817742720629816 7.226710549695392 0.33842289763092925
      vertex 4.096637219620845 7.522613178327151 0.33842289763092925
    endloop
  endfacet
  facet normal 0.0 0.0 1.0
    outer loop
      vertex 4.155585777976352 7.226710549695392 0.33842289763092925
      vertex 4.096637219620845 7.522613178327151 0.33842289763092925
      vertex 3.817742720629816 7.226710549695392 0.33842289763092925
    endloop
  endfacet
  facet normal -0.0 0.0 1.0
    outer loop
      vertex 3.759373942461033 7.009084052367671 0.33842289763092925
      vertex 4.096637219620845 6.930807921063632 0.33842289763092925
      vertex 3.817742720629816 7.226710549695392 0.33842289763092925
    endloop
  endfacet
  facet normal 0.0 0.0 1.0
    outer loop
      vertex 4.155585777976352 7.226710549695392 0.33842289763092925
      vertex 3.817742720629816 7.226710549695392 0.33842289763092925
      vertex 4.096637219620845 6.930807921063632 0.33842289763092925
    endloop
  endfacet
  facet normal 0.0 0.0 1.0
    outer loop
      vertex 2.77974182040841 6.7634506054191705 0.33842289763092925
      vertex 3.3822962355114856 6.79126420281745 0.33842289763092925
      vertex 3.1646696229834412 6.849632980986232 0.33842289763092925
    endloop
  endfacet
  facet normal 0.0 0.0 1.0
    outer loop
      vertex 3.0052185285619384 7.009084052367671 0.33842289763092925
      vertex 2.77974182040841 6.7634506054191705 0.33842289763092925
      vertex 3.1646696229834412 6.849632980986232 0.33842289763092925
    endloop
  endfacet
  facet normal -0.0 0.0 1.0
    outer loop
      vertex 3.3822962355114856 6.79126420281745 0.33842289763092925
      vertex 3.9843399445416425 6.762685859593478 0.33842289763092925
      vertex 3.6001161081017714 6.849632980986232 0.33842289763092925
    endloop
  endfacet
  facet normal 0.0 0.0 1.0
    outer loop
      vertex 4.096637219620845 6.930807921063632 0.33842289763092925
      vertex 3.759373942461033 7.009084052367671 0.33842289763092925
      vertex 3.9843399445416425 6.762685859593478 0.33842289763092925
    endloop
  endfacet
  facet normal 0.4782306742209245 -0.8782342638693846 0.0
    outer loop
      vertex 6.466563889546299 0.11577097954558356 0.33861618073323524
      vertex 6.3515657659291636 0.053150295686973624 0.33861618073323524
      vertex 6.3515657659291636 0.053150295686973624 0.0
    endloop
  endfacet
  facet normal 0.4782306742209245 -0.8782342638693846 0.0
    outer loop
      vertex 6.466563889546299 0.11577097954558356 0.33861618073323524
      vertex 6.3515657659291636 0.053150295686973624 0.0
      vertex 6.466563889546299 0.11577097954558356 0.0
    endloop
  endfacet
  facet normal -0.0 0.0 1.0
    outer loop
      vertex 0.3683804051070054 6.69095494985376 0.33861618073323524
      vertex 2.997294290008427 3.9684963260082515 0.33861618073323524
      vertex 0.48318517650164083 6.73695416243651 0.33861618073323524
    endloop
  endfacet
  facet normal -0.0 0.0 1.0
    outer loop
      vertex 0.2651719747289198 6.625434904260237 0.33861618073323524
      vertex 2.997294290008427 3.9684963260082515 0.33861618073323524
      vertex 0.3683804051070054 6.69095494985376 0.33861618073323524
    endloop
  endfacet
  facet normal -0.0 0.0 1.0
    outer loop
      vertex 0.17568620685333172 6.543293571711372 0.33861618073323524
      vertex 2.997294290008427 3.9684963260082515 0.33861618073323524
      vertex 0.2651719747289198 6.625434904260237 0.33861618073323524
    endloop
  endfacet
  facet normal -0.0 0.0 1.0
    outer loop
      vertex 0.10204868568412034 6.446269831966044 0.33861618073323524
      vertex 2.997294290008427 3.9684963260082515 0.33861618073323524
      vertex 0.17568620685333172 6.543293571711372 0.33861618073323524
    endloop
  endfacet
  facet normal -0.0 0.0 1.0
    outer loop
      vertex 0.04677243715223326 6.3362970229287345 0.33861618073323524
      vertex 2.997294290008427 3.9684963260082515 0.33861618073323524
      vertex 0.10204868568412034 6.446269831966044 0.33861618073323524
    endloop
  endfacet
  facet normal -0.0 0.0 1.0
    outer loop
      vertex 0.011983045461549633 6.216660289176772 0.33861618073323524
      vertex 2.997294290008427 3.9684963260082515 0.33861618073323524
      vertex 0.04677243715223326 6.3362970229287345 0.33861618073323524
    endloop
  endfacet
  facet normal -0.0 0.0 1.0
    outer loop
      vertex 0.0 6.088326391822657 0.33861618073323524
      vertex 2.997294290008427 3.9684963260082515 0.33861618073323524
      vertex 0.011983045461549633 6.216660289176772 0.33861618073323524
    endloop
  endfacet
  facet normal 0.0 0.0 1.0
    outer loop
      vertex 0.6764592471022971 6.764785638924954 0.33861618073323524
      vertex 0.48318517650164083 6.73695416243651 0.33861618073323524
      vertex 2.997294290008427 3.9684963260082515 0.33861618073323524
    endloop
  endfacet
  facet normal 0.0 0.0 1.0
    outer loop
      vertex 3.9843399445416425 6.762685859593478 0.33842289763092925
      vertex 3.3822962355114856 6.79126420281745 0.33842289763092925
      vertex 2.77974182040841 6.7634506054191705 0.33842289763092925
    endloop
  endfacet
  facet normal 0.0 0.0 -1.0
    outer loop
      vertex 6.396212065915966 6.69095494985376 0.0
      vertex 3.9843399445416425 6.762685859593478 0.0
      vertex 6.281407294521331 6.73695416243651 0.0
    endloop
  endfacet
  facet normal 0.0 0.0 -1.0
    outer loop
      vertex 6.499420496294052 6.625434904260237 0.0
      vertex 3.9843399445416425 6.762685859593478 0.0
      vertex 6.396212065915966 6.69095494985376 0.0
    endloop
  endfacet
  facet normal 0.0 0.0 1.0
    outer loop
      vertex 0.0 0.6766524150042799 0.33861618073323524
      vertex 2.997294290008427 3.1074603360679123 0.33861618073323524
      vertex 0.0 6.088326391822657 0.33861618073323524
    endloop
  endfacet
  facet normal 0.0 -0.0 1.0
    outer loop
      vertex 0.013529125959480451 0.5402010420744758 0.33861618073323524
      vertex 2.997294290008427 3.1074603360679123 0.33861618073323524
      vertex 0.0 0.6766524150042799 0.33861618073323524
    endloop
  endfacet
  facet normal 0.0 -0.0 1.0
    outer loop
      vertex 0.05295712778499085 0.4132196886752737 0.33861618073323524
      vertex 2.997294290008427 3.1074603360679123 0.33861618073323524
      vertex 0.013529125959480451 0.5402010420744758 0.33861618073323524
    endloop
  endfacet
  facet normal 0.0 -0.0 1.0
    outer loop
      vertex 0.1155778116436008 0.29822174937865553 0.33861618073323524
      vertex 2.997294290008427 3.1074603360679123 0.33861618073323524
      vertex 0.05295712778499085 0.4132196886752737 0.33861618073323524
    endloop
  endfacet
  facet normal 0.0 -0.0 1.0
    outer loop
      vertex 0.19810584863746586 0.19829901653944865 0.33861618073323524
      vertex 2.997294290008427 3.1074603360679123 0.33861618073323524
      vertex 0.1155778116436008 0.29822174937865553 0.33861618073323524
    endloop
  endfacet
  facet normal 0.0 -0.0 1.0
    outer loop
      vertex 0.29802858147667277 0.11577097954558356 0.33861618073323524
      vertex 2.997294290008427 3.1074603360679123 0.33861618073323524
      vertex 0.19810584863746586 0.19829901653944865 0.33861618073323524
    endloop
  endfacet
  facet normal 0.0 -0.0 1.0
    outer loop
      vertex 0.41302670509380807 0.053150295686973624 0.33861618073323524
      vertex 2.997294290008427 3.1074603360679123 0.33861618073323524
      vertex 0.29802858147667277 0.11577097954558356 0.33861618073323524
    endloop
  endfacet
  facet normal 0.0 -0.0 1.0
    outer loop
      vertex 0.5400076898519759 0.013722293861463224 0.33861618073323524
      vertex 2.997294290008427 3.1074603360679123 0.33861618073323524
      vertex 0.41302670509380807 0.053150295686973624 0.33861618073323524
    endloop
  endfacet
  facet normal 0.0 -0.0 1.0
    outer loop
      vertex 0.6764592471022971 0.0 0.33861618073323524
      vertex 2.997294290008427 3.1074603360679123 0.33861618073323524
      vertex 0.5400076898519759 0.013722293861463224 0.33861618073323524
    endloop
  endfacet
  facet normal -0.1807041446648009 0.983537499082248 0.0
    outer loop
      vertex 4.659451255701955 5.904329357171137 0.33861618073323524
      vertex 4.4480094490069915 5.865481412013127 0.33861618073323524
      vertex 4.4480094490069915 5.865481412013127 0.708349475396124
    endloop
  endfacet
  facet normal -0.1807041446648009 0.983537499082248 0.0
    outer loop
      vertex 4.659451255701955 5.904329357171137 0.33861618073323524
      vertex 4.4480094490069915 5.865481412013127 0.708349475396124
      vertex 4.659451255701955 5.904329357171137 0.708349475396124
    endloop
  endfacet
  facet normal -0.535954987399879 0.84424655846571 0.0
    outer loop
      vertex 0.3683804051070054 6.69095494985376 0.33861618073323524
      vertex 0.3683804051070054 6.69095494985376 0.0
      vertex 0.2651719747289198 6.625434904260237 0.0
    endloop
  endfacet
  facet normal -0.535954987399879 0.84424655846571 0.0
    outer loop
      vertex 0.3683804051070054 6.69095494985376 0.33861618073323524
      vertex 0.2651719747289198 6.625434904260237 0.0
      vertex 0.2651719747289198 6.625434904260237 0.33861618073323524
    endloop
  endfacet
  facet normal -0.0 0.0 1.0
    outer loop
      vertex 2.6091999531088605 7.226710549695392 0.33842289763092925
      vertex 2.6679552514021263 6.930807921063632 0.33842289763092925
      vertex 2.9468497503931554 7.226710549695392 0.33842289763092925
    endloop
  endfacet
  facet normal 0.0 0.0 1.0
    outer loop
      vertex 2.835523890519511 7.7734829868476245 0.33842289763092925
      vertex 2.6679552514021263 7.522613178327151 0.33842289763092925
      vertex 3.0052185285619384 7.44453058356613 0.33842289763092925
    endloop
  endfacet
  facet normal 0.0 -0.0 1.0
    outer loop
      vertex 2.9468497503931554 7.226710549695392 0.33842289763092925
      vertex 3.0052185285619384 7.44453058356613 0.33842289763092925
      vertex 2.6679552514021263 7.522613178327151 0.33842289763092925
    endloop
  endfacet
  facet normal 0.0 0.0 1.0
    outer loop
      vertex 2.6679552514021263 7.522613178327151 0.33842289763092925
      vertex 2.6091999531088605 7.226710549695392 0.33842289763092925
      vertex 2.9468497503931554 7.226710549695392 0.33842289763092925
    endloop
  endfacet
  facet normal 0.0 0.0 1.0
    outer loop
      vertex 3.0052185285619384 7.009084052367671 0.33842289763092925
      vertex 2.9468497503931554 7.226710549695392 0.33842289763092925
      vertex 2.6679552514021263 6.930807921063632 0.33842289763092925
    endloop
  endfacet
  facet normal 0.0 -0.0 1.0
    outer loop
      vertex 2.77974182040841 6.7634506054191705 0.33842289763092925
      vertex 3.0052185285619384 7.009084052367671 0.33842289763092925
      vertex 2.6679552514021263 6.930807921063632 0.33842289763092925
    endloop
  endfacet
  facet normal -0.6762286887475418 0.7366917676442301 0.0
    outer loop
      vertex 0.2651719747289198 6.625434904260237 0.0
      vertex 0.17568620685333172 6.543293571711372 0.0
      vertex 0.17568620685333172 6.543293571711372 0.33861618073323524
    endloop
  endfacet
  facet normal -0.6762286887475418 0.7366917676442301 0.0
    outer loop
      vertex 0.2651719747289198 6.625434904260237 0.0
      vertex 0.17568620685333172 6.543293571711372 0.33861618073323524
      vertex 0.2651719747289198 6.625434904260237 0.33861618073323524
    endloop
  endfacet
  facet normal -0.3105843142779309 0.9505458346258255 0.0
    outer loop
      vertex 4.4480094490069915 5.865481412013127 0.33861618073323524
      vertex 4.262273073795299 5.80479332877693 0.33861618073323524
      vertex 4.262273073795299 5.80479332877693 0.708349475396124
    endloop
  endfacet
  facet normal -0.3105843142779309 0.9505458346258255 0.0
    outer loop
      vertex 4.4480094490069915 5.865481412013127 0.33861618073323524
      vertex 4.262273073795299 5.80479332877693 0.708349475396124
      vertex 4.4480094490069915 5.865481412013127 0.708349475396124
    endloop
  endfacet
  facet normal -0.0 -0.0 -1.0
    outer loop
      vertex 6.157325302857042 6.761306589163575 0.0
      vertex 6.281407294521331 6.73695416243651 0.0
      vertex 3.9843399445416425 6.762685859593478 0.0
    endloop
  endfacet
  facet normal 0.0 0.0 -1.0
    outer loop
      vertex 6.58890626416964 6.543293571711372 0.0
      vertex 3.9843399445416425 6.762685859593478 0.0
      vertex 6.499420496294052 6.625434904260237 0.0
    endloop
  endfacet
  facet normal -0.43590141524235393 0.8999944200880987 0.0
    outer loop
      vertex 4.262273073795299 5.80479332877693 0.33861618073323524
      vertex 4.101855609942396 5.727097069819875 0.33861618073323524
      vertex 4.101855609942396 5.727097069819875 0.708349475396124
    endloop
  endfacet
  facet normal -0.43590141524235393 0.8999944200880987 0.0
    outer loop
      vertex 4.262273073795299 5.80479332877693 0.33861618073323524
      vertex 4.101855609942396 5.727097069819875 0.708349475396124
      vertex 4.262273073795299 5.80479332877693 0.708349475396124
    endloop
  endfacet
  facet normal -0.7965595925507662 0.604560018125047 0.0
    outer loop
      vertex 0.17568620685333172 6.543293571711372 0.0
      vertex 0.10204868568412034 6.446269831966044 0.0
      vertex 0.10204868568412034 6.446269831966044 0.33861618073323524
    endloop
  endfacet
  facet normal -0.7965595925507662 0.604560018125047 0.0
    outer loop
      vertex 0.17568620685333172 6.543293571711372 0.0
      vertex 0.10204868568412034 6.446269831966044 0.33861618073323524
      vertex 0.17568620685333172 6.543293571711372 0.33861618073323524
    endloop
  endfacet
  facet normal -0.893483262277139 0.44909649300634846 0.0
    outer loop
      vertex 0.10204868568412034 6.446269831966044 0.0
      vertex 0.04677243715223326 6.3362970229287345 0.0
      vertex 0.04677243715223326 6.3362970229287345 0.33861618073323524
    endloop
  endfacet
  facet normal -0.893483262277139 0.44909649300634846 0.0
    outer loop
      vertex 0.10204868568412034 6.446269831966044 0.0
      vertex 0.04677243715223326 6.3362970229287345 0.33861618073323524
      vertex 0.10204868568412034 6.446269831966044 0.33861618073323524
    endloop
  endfacet
  facet normal -0.551951862969176 0.8338759745698734 0.0
    outer loop
      vertex 4.101855609942396 5.727097069819875 0.33861618073323524
      vertex 3.9663704912436692 5.637417949721787 0.33861618073323524
      vertex 3.9663704912436692 5.637417949721787 0.708349475396124
    endloop
  endfacet
  facet normal -0.551951862969176 0.8338759745698734 0.0
    outer loop
      vertex 4.101855609942396 5.727097069819875 0.33861618073323524
      vertex 3.9663704912436692 5.637417949721787 0.708349475396124
      vertex 4.101855609942396 5.727097069819875 0.708349475396124
    endloop
  endfacet
  facet normal -0.9602254757613469 0.2792257790729484 0.0
    outer loop
      vertex 0.04677243715223326 6.3362970229287345 0.0
      vertex 0.011983045461549633 6.216660289176772 0.0
      vertex 0.011983045461549633 6.216660289176772 0.33861618073323524
    endloop
  endfacet
  facet normal -0.9602254757613469 0.2792257790729484 0.0
    outer loop
      vertex 0.04677243715223326 6.3362970229287345 0.0
      vertex 0.011983045461549633 6.216660289176772 0.33861618073323524
      vertex 0.04677243715223326 6.3362970229287345 0.33861618073323524
    endloop
  endfacet
  facet normal 0.980728247742717 -0.19537682585071253 0.0
    outer loop
      vertex 4.096637219620845 6.930807921063632 0.33842289763092925
      vertex 4.096637219620845 6.930807921063632 0.0
      vertex 4.155585777976352 7.226710549695392 0.0
    endloop
  endfacet
  facet normal 0.980728247742717 -0.19537682585071253 0.0
    outer loop
      vertex 4.096637219620845 6.930807921063632 0.33842289763092925
      vertex 4.155585777976352 7.226710549695392 0.0
      vertex 4.155585777976352 7.226710549695392 0.33842289763092925
    endloop
  endfacet
  facet normal -0.6575747527414599 0.7533893047800769 0.0
    outer loop
      vertex 3.9663704912436692 5.637417949721787 0.33861618073323524
      vertex 3.8554311514945074 5.540587654359217 0.33861618073323524
      vertex 3.8554311514945074 5.540587654359217 0.708349475396124
    endloop
  endfacet
  facet normal -0.6575747527414599 0.7533893047800769 0.0
    outer loop
      vertex 3.9663704912436692 5.637417949721787 0.33861618073323524
      vertex 3.8554311514945074 5.540587654359217 0.708349475396124
      vertex 3.9663704912436692 5.637417949721787 0.708349475396124
    endloop
  endfacet
  facet normal -0.9956689512207795 0.0929695626262337 0.0
    outer loop
      vertex 0.011983045461549633 6.216660289176772 0.0
      vertex 0.0 6.088326391822657 0.0
      vertex 0.0 6.088326391822657 0.33861618073323524
    endloop
  endfacet
  facet normal -0.9956689512207795 0.0929695626262337 0.0
    outer loop
      vertex 0.011983045461549633 6.216660289176772 0.0
      vertex 0.0 6.088326391822657 0.33861618073323524
      vertex 0.011983045461549633 6.216660289176772 0.33861618073323524
    endloop
  endfacet
  facet normal -0.7938459886939806 0.6081188586407072 0.0
    outer loop
      vertex 3.8554311514945074 5.540587654359217 0.33861618073323524
      vertex 3.7054504913247706 5.344801018628906 0.33861618073323524
      vertex 3.7054504913247706 5.344801018628906 0.708349475396124
    endloop
  endfacet
  facet normal -0.7938459886939806 0.6081188586407072 0.0
    outer loop
      vertex 3.8554311514945074 5.540587654359217 0.33861618073323524
      vertex 3.7054504913247706 5.344801018628906 0.708349475396124
      vertex 3.8554311514945074 5.540587654359217 0.708349475396124
    endloop
  endfacet
  facet normal -0.1425298847202225 0.9897904990257484 0.0
    outer loop
      vertex 0.6764592471022971 6.764785638924954 0.0
      vertex 0.48318517650164083 6.73695416243651 0.0
      vertex 0.48318517650164083 6.73695416243651 0.33861618073323524
    endloop
  endfacet
  facet normal -0.1425298847202225 0.9897904990257484 0.0
    outer loop
      vertex 0.6764592471022971 6.764785638924954 0.0
      vertex 0.48318517650164083 6.73695416243651 0.33861618073323524
      vertex 0.6764592471022971 6.764785638924954 0.33861618073323524
    endloop
  endfacet
  facet normal -0.9169073112146576 0.39910021628797315 0.0
    outer loop
      vertex 3.7054504913247706 5.344801018628906 0.33861618073323524
      vertex 3.6300735835152578 5.171627376905229 0.33861618073323524
      vertex 3.6300735835152578 5.171627376905229 0.708349475396124
    endloop
  endfacet
  facet normal -0.9169073112146576 0.39910021628797315 0.0
    outer loop
      vertex 3.7054504913247706 5.344801018628906 0.33861618073323524
      vertex 3.6300735835152578 5.171627376905229 0.708349475396124
      vertex 3.7054504913247706 5.344801018628906 0.708349475396124
    endloop
  endfacet
  facet normal 0.8315570992236985 -0.5554392772668025 0.0
    outer loop
      vertex 3.9843399445416425 6.762685859593478 0.33842289763092925
      vertex 4.096637219620845 6.930807921063632 0.0
      vertex 4.096637219620845 6.930807921063632 0.33842289763092925
    endloop
  endfacet
  facet normal -0.3719294469348542 0.9282610012829008 0.0
    outer loop
      vertex 0.48318517650164083 6.73695416243651 0.0
      vertex 0.3683804051070054 6.69095494985376 0.0
      vertex 0.3683804051070054 6.69095494985376 0.33861618073323524
    endloop
  endfacet
  facet normal -0.3719294469348542 0.9282610012829008 0.0
    outer loop
      vertex 0.48318517650164083 6.73695416243651 0.0
      vertex 0.3683804051070054 6.69095494985376 0.33861618073323524
      vertex 0.48318517650164083 6.73695416243651 0.33861618073323524
    endloop
  endfacet
  facet normal -0.9807154847408054 0.19544088106025118 0.0
    outer loop
      vertex 3.6300735835152578 5.171627376905229 0.33861618073323524
      vertex 3.5977968260744224 5.009663740394136 0.33861618073323524
      vertex 3.5977968260744224 5.009663740394136 0.708349475396124
    endloop
  endfacet
  facet normal -0.9807154847408054 0.19544088106025118 0.0
    outer loop
      vertex 3.6300735835152578 5.171627376905229 0.33861618073323524
      vertex 3.5977968260744224 5.009663740394136 0.708349475396124
      vertex 3.6300735835152578 5.171627376905229 0.708349475396124
    endloop
  endfacet
  facet normal 0.0 1.0 0.0
    outer loop
      vertex 5.7019716028438445 3.9684963260082515 0.708349475396124
      vertex 5.7019716028438445 3.9684963260082515 0.33861618073323524
      vertex 4.735987862125304 3.9684963260082515 0.33861618073323524
    endloop
  endfacet
  facet normal 0.0 1.0 0.0
    outer loop
      vertex 5.7019716028438445 3.9684963260082515 0.708349475396124
      vertex 4.735987862125304 3.9684963260082515 0.33861618073323524
      vertex 4.735987862125304 3.9684963260082515 0.708349475396124
    endloop
  endfacet
  facet normal -0.10006061240230835 -0.994981343466135 0.0
    outer loop
      vertex 0.6764592471022971 0.0 0.0
      vertex 0.6764592471022971 0.0 0.33861618073323524
      vertex 0.5400076898519759 0.013722293861463224 0.33861618073323524
    endloop
  endfacet
  facet normal -0.10006061240230835 -0.994981343466135 0.0
    outer loop
      vertex 0.6764592471022971 0.0 0.0
      vertex 0.5400076898519759 0.013722293861463224 0.33861618073323524
      vertex 0.5400076898519759 0.013722293861463224 0.0
    endloop
  endfacet
  facet normal -0.2965371712778005 -0.9550213118305583 0.0
    outer loop
      vertex 0.5400076898519759 0.013722293861463224 0.33861618073323524
      vertex 0.41302670509380807 0.053150295686973624 0.33861618073323524
      vertex 0.41302670509380807 0.053150295686973624 0.0
    endloop
  endfacet
  facet normal -0.2965371712778005 -0.9550213118305583 -0.0
    outer loop
      vertex 0.5400076898519759 0.013722293861463224 0.33861618073323524
      vertex 0.41302670509380807 0.053150295686973624 0.0
      vertex 0.5400076898519759 0.013722293861463224 0.0
    endloop
  endfacet
  facet normal 0.8315570992236985 -0.5554392772668025 0.0
    outer loop
      vertex 3.9843399445416425 6.762685859593478 0.33842289763092925
      vertex 3.9843399445416425 6.762685859593478 0.0
      vertex 4.096637219620845 6.930807921063632 0.0
    endloop
  endfacet
  facet normal 0.0 -1.0 0.0
    outer loop
      vertex 4.735987862125304 3.1074603360679123 0.33861618073323524
      vertex 5.597217091967828 3.1074603360679123 0.33861618073323524
      vertex 5.597217091967828 3.1074603360679123 0.708349475396124
    endloop
  endfacet
  facet normal 0.0 -1.0 0.0
    outer loop
      vertex 4.735987862125304 3.1074603360679123 0.33861618073323524
      vertex 5.597217091967828 3.1074603360679123 0.708349475396124
      vertex 4.735987862125304 3.1074603360679123 0.708349475396124
    endloop
  endfacet
  facet normal -0.478230674220924 -0.878234263869385 0.0
    outer loop
      vertex 0.41302670509380807 0.053150295686973624 0.33861618073323524
      vertex 0.29802858147667277 0.11577097954558356 0.33861618073323524
      vertex 0.29802858147667277 0.11577097954558356 0.0
    endloop
  endfacet
  facet normal -0.478230674220924 -0.878234263869385 -0.0
    outer loop
      vertex 0.41302670509380807 0.053150295686973624 0.33861618073323524
      vertex 0.29802858147667277 0.11577097954558356 0.0
      vertex 0.41302670509380807 0.053150295686973624 0.0
    endloop
  endfacet
  facet normal 0.0006347379347831789 0.9999997985538568 0.0
    outer loop
      vertex 0.6764592471022971 6.764785638924954 0.33861618073323524
      vertex 2.77974182040841 6.7634506054191705 0.33842289763092925
      vertex 0.6764592471022971 6.764785638924954 0.0
    endloop
  endfacet
  facet normal 0.000634737934783179 0.9999997985538568 -0.0
    outer loop
      vertex 2.77974182040841 6.7634506054191705 0.0
      vertex 0.6764592471022971 6.764785638924954 0.0
      vertex 2.77974182040841 6.7634506054191705 0.33842289763092925
    endloop
  endfacet
  facet normal 0.9926804541101812 -0.12077050975964382 0.0
    outer loop
      vertex 5.7019716028438445 3.9684963260082515 0.708349475396124
      vertex 5.597217091967828 3.1074603360679123 0.708349475396124
      vertex 5.597217091967828 3.1074603360679123 0.33861618073323524
    endloop
  endfacet
  facet normal 0.9926804541101812 -0.12077050975964382 0.0
    outer loop
      vertex 5.7019716028438445 3.9684963260082515 0.708349475396124
      vertex 5.597217091967828 3.1074603360679123 0.33861618073323524
      vertex 5.7019716028438445 3.9684963260082515 0.33861618073323524
    endloop
  endfacet
  facet normal -0.6368042583886888 -0.7710255096285934 0.0
    outer loop
      vertex 0.29802858147667277 0.11577097954558356 0.33861618073323524
      vertex 0.19810584863746586 0.19829901653944865 0.33861618073323524
      vertex 0.19810584863746586 0.19829901653944865 0.0
    endloop
  endfacet
  facet normal -0.6368042583886888 -0.7710255096285934 -0.0
    outer loop
      vertex 0.29802858147667277 0.11577097954558356 0.33861618073323524
      vertex 0.19810584863746586 0.19829901653944865 0.0
      vertex 0.29802858147667277 0.11577097954558356 0.0
    endloop
  endfacet
  facet normal -0.7710255096285934 -0.6368042583886887 -0.0
    outer loop
      vertex 0.1155778116436008 0.29822174937865553 0.33861618073323524
      vertex 0.1155778116436008 0.29822174937865553 0.0
      vertex 0.19810584863746586 0.19829901653944865 0.0
    endloop
  endfacet
  facet normal -0.7710255096285934 -0.6368042583886887 0.0
    outer loop
      vertex 0.1155778116436008 0.29822174937865553 0.33861618073323524
      vertex 0.19810584863746586 0.19829901653944865 0.0
      vertex 0.19810584863746586 0.19829901653944865 0.33861618073323524
    endloop
  endfacet
  facet normal 1.0 0.0 0.0
    outer loop
      vertex 4.735987862125304 3.9684963260082515 0.708349475396124
      vertex 4.735987862125304 3.9684963260082515 0.33861618073323524
      vertex 4.735987862125304 4.507731001531335 0.33861618073323524
    endloop
  endfacet
  facet normal 1.0 -0.0 0.0
    outer loop
      vertex 4.735987862125304 3.9684963260082515 0.708349475396124
      vertex 4.735987862125304 4.507731001531335 0.33861618073323524
      vertex 4.735987862125304 4.507731001531335 0.708349475396124
    endloop
  endfacet
  facet normal -0.8782339419338133 -0.4782312654306443 -0.0
    outer loop
      vertex 0.05295712778499085 0.4132196886752737 0.33861618073323524
      vertex 0.05295712778499085 0.4132196886752737 0.0
      vertex 0.1155778116436008 0.29822174937865553 0.0
    endloop
  endfacet
  facet normal -0.8782339419338133 -0.4782312654306443 0.0
    outer loop
      vertex 0.05295712778499085 0.4132196886752737 0.33861618073323524
      vertex 0.1155778116436008 0.29822174937865553 0.0
      vertex 0.1155778116436008 0.29822174937865553 0.33861618073323524
    endloop
  endfacet
  facet normal 1.0 0.0 0.0
    outer loop
      vertex 4.735987862125304 0.0 0.708349475396124
      vertex 4.735987862125304 0.0 0.33861618073323524
      vertex 4.735987862125304 3.1074603360679123 0.33861618073323524
    endloop
  endfacet
  facet normal 1.0 -0.0 0.0
    outer loop
      vertex 4.735987862125304 0.0 0.708349475396124
      vertex 4.735987862125304 3.1074603360679123 0.33861618073323524
      vertex 4.735987862125304 3.1074603360679123 0.708349475396124
    endloop
  endfacet
  facet normal -0.9550215556310653 -0.2965363860979294 -0.0
    outer loop
      vertex 0.013529125959480451 0.5402010420744758 0.33861618073323524
      vertex 0.013529125959480451 0.5402010420744758 0.0
      vertex 0.05295712778499085 0.4132196886752737 0.0
    endloop
  endfacet
  facet normal -0.9550215556310653 -0.2965363860979294 0.0
    outer loop
      vertex 0.013529125959480451 0.5402010420744758 0.33861618073323524
      vertex 0.05295712778499085 0.4132196886752737 0.0
      vertex 0.05295712778499085 0.4132196886752737 0.33861618073323524
    endloop
  endfacet
  facet normal -0.8315568546793047 -0.5554396433779837 -0.0
    outer loop
      vertex 2.6679552514021263 6.930807921063632 0.33842289763092925
      vertex 2.6679552514021263 6.930807921063632 0.0
      vertex 2.77974182040841 6.7634506054191705 0.0
    endloop
  endfacet
  facet normal -0.8315568546793047 -0.5554396433779837 0.0
    outer loop
      vertex 2.6679552514021263 6.930807921063632 0.33842289763092925
      vertex 2.77974182040841 6.7634506054191705 0.0
      vertex 2.77974182040841 6.7634506054191705 0.33842289763092925
    endloop
  endfacet
  facet normal 0.0 1.0 0.0
    outer loop
      vertex 3.592771695815113 3.9684963260082515 0.33861618073323524
      vertex 2.997294290008427 3.9684963260082515 0.33861618073323524
      vertex 2.997294290008427 3.9684963260082515 0.708349475396124
    endloop
  endfacet
  facet normal 0.0 1.0 -0.0
    outer loop
      vertex 3.592771695815113 3.9684963260082515 0.33861618073323524
      vertex 2.997294290008427 3.9684963260082515 0.708349475396124
      vertex 3.592771695815113 3.9684963260082515 0.708349475396124
    endloop
  endfacet
  facet normal -0.9951206053589714 -0.09866600625339196 -0.0
    outer loop
      vertex 0.0 0.6766524150042799 0.33861618073323524
      vertex 0.0 0.6766524150042799 0.0
      vertex 0.013529125959480451 0.5402010420744758 0.0
    endloop
  endfacet
  facet normal -0.9951206053589714 -0.09866600625339196 0.0
    outer loop
      vertex 0.0 0.6766524150042799 0.33861618073323524
      vertex 0.013529125959480451 0.5402010420744758 0.0
      vertex 0.013529125959480451 0.5402010420744758 0.33861618073323524
    endloop
  endfacet
  facet normal -0.980850803190148 -0.19476062713300568 -0.0
    outer loop
      vertex 2.6091999531088605 7.226710549695392 0.33842289763092925
      vertex 2.6091999531088605 7.226710549695392 0.0
      vertex 2.6679552514021263 6.930807921063632 0.0
    endloop
  endfacet
  facet normal -0.980850803190148 -0.19476062713300568 0.0
    outer loop
      vertex 2.6091999531088605 7.226710549695392 0.33842289763092925
      vertex 2.6679552514021263 6.930807921063632 0.0
      vertex 2.6679552514021263 6.930807921063632 0.33842289763092925
    endloop
  endfacet
  facet normal 0.0 -1.0 0.0
    outer loop
      vertex 4.735987862125304 0.0 0.33861618073323524
      vertex 4.735987862125304 0.0 0.708349475396124
      vertex 3.592771695815113 0.0 0.708349475396124
    endloop
  endfacet
  facet normal 0.0 -1.0 0.0
    outer loop
      vertex 4.735987862125304 0.0 0.33861618073323524
      vertex 3.592771695815113 0.0 0.708349475396124
      vertex 3.592771695815113 0.0 0.33861618073323524
    endloop
  endfacet
  facet normal -0.9808508031901478 0.19476062713300626 0.0
    outer loop
      vertex 2.6679552514021263 7.522613178327151 0.33842289763092925
      vertex 2.6679552514021263 7.522613178327151 0.0
      vertex 2.6091999531088605 7.226710549695392 0.0
    endloop
  endfacet
  facet normal -0.9808508031901478 0.19476062713300626 0.0
    outer loop
      vertex 2.6679552514021263 7.522613178327151 0.33842289763092925
      vertex 2.6091999531088605 7.226710549695392 0.0
      vertex 2.6091999531088605 7.226710549695392 0.33842289763092925
    endloop
  endfacet
  facet normal -0.9999883529502733 0.004826382061074529 0.0
    outer loop
      vertex 3.5977968260744224 5.009663740394136 0.33861618073323524
      vertex 3.592771695815113 3.9684963260082515 0.33861618073323524
      vertex 3.592771695815113 3.9684963260082515 0.708349475396124
    endloop
  endfacet
  facet normal -0.9999883529502733 0.004826382061074529 0.0
    outer loop
      vertex 3.5977968260744224 5.009663740394136 0.33861618073323524
      vertex 3.592771695815113 3.9684963260082515 0.708349475396124
      vertex 3.5977968260744224 5.009663740394136 0.708349475396124
    endloop
  endfacet
  facet normal -0.8315571980313264 0.555439129340281 0.0
    outer loop
      vertex 2.835523890519511 7.7734829868476245 0.33842289763092925
      vertex 2.835523890519511 7.7734829868476245 0.0
      vertex 2.6679552514021263 7.522613178327151 0.0
    endloop
  endfacet
  facet normal -0.8315571980313264 0.555439129340281 0.0
    outer loop
      vertex 2.835523890519511 7.7734829868476245 0.33842289763092925
      vertex 2.6679552514021263 7.522613178327151 0.0
      vertex 2.6679552514021263 7.522613178327151 0.33842289763092925
    endloop
  endfacet
  facet normal 0.0 -1.0 0.0
    outer loop
      vertex 6.088133223920674 0.0 0.0
      vertex 6.088133223920674 0.0 0.33861618073323524
      vertex 4.735987862125304 0.0 0.33861618073323524
    endloop
  endfacet
  facet normal 0.0 -1.0 0.0
    outer loop
      vertex 6.088133223920674 0.0 0.0
      vertex 4.735987862125304 0.0 0.33861618073323524
      vertex 3.592771695815113 0.0 0.33861618073323524
    endloop
  endfacet
  facet normal 0.0 -1.0 0.0
    outer loop
      vertex 0.6764592471022971 0.0 0.33861618073323524
      vertex 0.6764592471022971 0.0 0.0
      vertex 3.592771695815113 0.0 0.33861618073323524
    endloop
  endfacet
  facet normal 0.0 -1.0 0.0
    outer loop
      vertex 6.088133223920674 0.0 0.0
      vertex 3.592771695815113 0.0 0.33861618073323524
      vertex 0.6764592471022971 0.0 0.0
    endloop
  endfacet
  facet normal 0.0 -1.0 0.0
    outer loop
      vertex 2.997294290008427 3.1074603360679123 0.33861618073323524
      vertex 3.592771695815113 3.1074603360679123 0.33861618073323524
      vertex 2.997294290008427 3.1074603360679123 0.708349475396124
    endloop
  endfacet
  facet normal -0.0 -1.0 -0.0
    outer loop
      vertex 3.592771695815113 3.1074603360679123 0.708349475396124
      vertex 2.997294290008427 3.1074603360679123 0.708349475396124
      vertex 3.592771695815113 3.1074603360679123 0.33861618073323524
    endloop
  endfacet
  facet normal -0.5554394464003828 0.8315569862507537 0.0
    outer loop
      vertex 2.835523890519511 7.7734829868476245 0.0
      vertex 3.086393629919791 7.941051718125268 0.33842289763092925
      vertex 3.086393629919791 7.941051718125268 0.0
    endloop
  endfacet
  facet normal -1.0 0.0 -0.0
    outer loop
      vertex 3.592771695815113 3.1074603360679123 0.708349475396124
      vertex 3.592771695815113 3.1074603360679123 0.33861618073323524
      vertex 3.592771695815113 0.0 0.33861618073323524
    endloop
  endfacet
  facet normal -1.0 -0.0 0.0
    outer loop
      vertex 3.592771695815113 3.1074603360679123 0.708349475396124
      vertex 3.592771695815113 0.0 0.33861618073323524
      vertex 3.592771695815113 0.0 0.708349475396124
    endloop
  endfacet
  facet normal -0.5554394464003828 0.8315569862507537 0.0
    outer loop
      vertex 3.086393629919791 7.941051718125268 0.33842289763092925
      vertex 2.835523890519511 7.7734829868476245 0.0
      vertex 2.835523890519511 7.7734829868476245 0.33842289763092925
    endloop
  endfacet
  facet normal 0.0 0.0 -1.0
    outer loop
      vertex 6.764785638924954 6.088326391822657 0.0
      vertex 3.9843399445416425 6.762685859593478 0.0
      vertex 6.752609425561421 6.216660289176772 0.0
    endloop
  endfacet
  facet normal -0.0 -0.0 -1.0
    outer loop
      vertex 6.662543785338851 6.446269831966044 0.0
      vertex 6.717820033870738 6.3362970229287345 0.0
      vertex 3.9843399445416425 6.762685859593478 0.0
    endloop
  endfacet
  facet normal -0.0 -0.0 -1.0
    outer loop
      vertex 6.717820033870738 6.3362970229287345 0.0
      vertex 6.752609425561421 6.216660289176772 0.0
      vertex 3.9843399445416425 6.762685859593478 0.0
    endloop
  endfacet
  facet normal -0.19537595910454658 0.9807284204120825 0.0
    outer loop
      vertex 3.3822962355114856 8.0 0.33842289763092925
      vertex 3.3822962355114856 8.0 0.0
      vertex 3.086393629919791 7.941051718125268 0.0
    endloop
  endfacet
  facet normal -0.19537595910454658 0.9807284204120825 0.0
    outer loop
      vertex 3.3822962355114856 8.0 0.33842289763092925
      vertex 3.086393629919791 7.941051718125268 0.0
      vertex 3.086393629919791 7.941051718125268 0.33842289763092925
    endloop
  endfacet
  facet normal 0.1953759591045463 0.9807284204120825 0.0
    outer loop
      vertex 3.6781988411031805 7.941051718125268 0.33842289763092925
      vertex 3.6781988411031805 7.941051718125268 0.0
      vertex 3.3822962355114856 8.0 0.0
    endloop
  endfacet
  facet normal 0.1953759591045463 0.9807284204120825 0.0
    outer loop
      vertex 3.6781988411031805 7.941051718125268 0.33842289763092925
      vertex 3.3822962355114856 8.0 0.0
      vertex 3.3822962355114856 8.0 0.33842289763092925
    endloop
  endfacet
  facet normal 0.0 0.0 -1.0
    outer loop
      vertex 0.0 6.088326391822657 0.0
      vertex 0.011983045461549633 6.216660289176772 0.0
      vertex 6.764785638924954 0.6766524150042799 0.0
    endloop
  endfacet
  facet normal -0.0 -0.0 -1.0
    outer loop
      vertex 2.77974182040841 6.7634506054191705 0.0
      vertex 6.764785638924954 0.6766524150042799 0.0
      vertex 0.6764592471022971 6.764785638924954 0.0
    endloop
  endfacet
  facet normal 0.0 0.0 1.0
    outer loop
      vertex 6.662543785338851 6.446269831966044 0.33861618073323524
      vertex 6.58890626416964 6.543293571711372 0.33861618073323524
      vertex 5.846733987892354 5.843834626157441 0.33861618073323524
    endloop
  endfacet
  facet normal 0.0 0.0 1.0
    outer loop
      vertex 6.58890626416964 6.543293571711372 0.33861618073323524
      vertex 6.499420496294052 6.625434904260237 0.33861618073323524
      vertex 5.846733987892354 5.843834626157441 0.33861618073323524
    endloop
  endfacet
  facet normal -0.0 0.0 1.0
    outer loop
      vertex 5.846733987892354 5.843834626157441 0.33861618073323524
      vertex 5.7019716028438445 4.926169310928806 0.33861618073323524
      vertex 6.764785638924954 6.088326391822657 0.33861618073323524
    endloop
  endfacet
  facet normal 0.0 -0.0 1.0
    outer loop
      vertex 6.764785638924954 0.6766524150042799 0.33861618073323524
      vertex 6.764785638924954 6.088326391822657 0.33861618073323524
      vertex 5.7019716028438445 3.9684963260082515 0.33861618073323524
    endloop
  endfacet
  facet normal -0.0 0.0 1.0
    outer loop
      vertex 5.7019716028438445 4.926169310928806 0.33861618073323524
      vertex 5.7019716028438445 3.9684963260082515 0.33861618073323524
      vertex 6.764785638924954 6.088326391822657 0.33861618073323524
    endloop
  endfacet
  facet normal 0.5554394464003836 0.8315569862507534 0.0
    outer loop
      vertex 3.9290685805034604 7.7734829868476245 0.33842289763092925
      vertex 3.6781988411031805 7.941051718125268 0.0
      vertex 3.6781988411031805 7.941051718125268 0.33842289763092925
    endloop
  endfacet
  facet normal 0.0 -0.0 1.0
    outer loop
      vertex 5.622342743264375 5.877077753029676 0.33861618073323524
      vertex 6.157325302857042 6.761306589163575 0.33861618073323524
      vertex 4.89679184610269 5.916312402632687 0.33861618073323524
    endloop
  endfacet
  facet normal 0.5554394464003836 0.8315569862507534 0.0
    outer loop
      vertex 3.9290685805034604 7.7734829868476245 0.33842289763092925
      vertex 3.9290685805034604 7.7734829868476245 0.0
      vertex 3.6781988411031805 7.941051718125268 0.0
    endloop
  endfacet
  facet normal 0.0 -0.0 -1.0
    outer loop
      vertex 3.6781988411031805 7.941051718125268 0.0
      vertex 3.9290685805034604 7.7734829868476245 0.0
      vertex 3.6001161081017714 7.603788302725068 0.0
    endloop
  endfacet
  facet normal 0.0 0.0 -1.0
    outer loop
      vertex 3.6781988411031805 7.941051718125268 0.0
      vertex 3.6001161081017714 7.603788302725068 0.0
      vertex 3.3822962355114856 7.662157080893851 0.0
    endloop
  endfacet
  facet normal 0.0 0.0 -1.0
    outer loop
      vertex 2.835523890519511 7.7734829868476245 0.0
      vertex 3.086393629919791 7.941051718125268 0.0
      vertex 3.1646696229834412 7.603788302725068 0.0
    endloop
  endfacet
  facet normal -0.0 0.0 -1.0
    outer loop
      vertex 3.3822962355114856 7.662157080893851 0.0
      vertex 3.1646696229834412 7.603788302725068 0.0
      vertex 3.086393629919791 7.941051718125268 0.0
    endloop
  endfacet
  facet normal 0.0 0.0 -1.0
    outer loop
      vertex 3.086393629919791 7.941051718125268 0.0
      vertex 3.3822962355114856 8.0 0.0
      vertex 3.3822962355114856 7.662157080893851 0.0
    endloop
  endfacet
  facet normal -0.0 0.0 -1.0
    outer loop
      vertex 3.6781988411031805 7.941051718125268 0.0
      vertex 3.3822962355114856 7.662157080893851 0.0
      vertex 3.3822962355114856 8.0 0.0
    endloop
  endfacet
  facet normal 0.0 0.0 -1.0
    outer loop
      vertex 0.0 6.088326391822657 0.0
      vertex 6.764785638924954 0.6766524150042799 0.0
      vertex 6.751063345063491 0.5402010420744758 0.0
    endloop
  endfacet
  facet normal 0.0 0.0 -1.0
    outer loop
      vertex 0.0 6.088326391822657 0.0
      vertex 6.751063345063491 0.5402010420744758 0.0
      vertex 6.7116353432379805 0.4132196886752737 0.0
    endloop
  endfacet
  facet normal 0.0 0.0 -1.0
    outer loop
      vertex 0.0 6.088326391822657 0.0
      vertex 6.7116353432379805 0.4132196886752737 0.0
      vertex 6.649014659379371 0.29822174937865553 0.0
    endloop
  endfacet
  facet normal 0.0 0.0 -1.0
    outer loop
      vertex 0.0 6.088326391822657 0.0
      vertex 6.649014659379371 0.29822174937865553 0.0
      vertex 6.566486622385505 0.19829901653944865 0.0
    endloop
  endfacet
  facet normal 0.0 0.0 -1.0
    outer loop
      vertex 0.0 6.088326391822657 0.0
      vertex 6.566486622385505 0.19829901653944865 0.0
      vertex 6.466563889546299 0.11577097954558356 0.0
    endloop
  endfacet
  facet normal 0.0 0.0 -1.0
    outer loop
      vertex 0.0 6.088326391822657 0.0
      vertex 6.466563889546299 0.11577097954558356 0.0
      vertex 6.3515657659291636 0.053150295686973624 0.0
    endloop
  endfacet
  facet normal 0.0 0.0 -1.0
    outer loop
      vertex 0.0 6.088326391822657 0.0
      vertex 6.3515657659291636 0.053150295686973624 0.0
      vertex 6.224584781170996 0.013722293861463224 0.0
    endloop
  endfacet
  facet normal 0.0 0.0 -1.0
    outer loop
      vertex 0.0 6.088326391822657 0.0
      vertex 6.224584781170996 0.013722293861463224 0.0
      vertex 6.088133223920674 0.0 0.0
    endloop
  endfacet
  facet normal 0.0 0.0 -1.0
    outer loop
      vertex 0.6764592471022971 0.0 0.0
      vertex 0.0 0.6766524150042799 0.0
      vertex 6.088133223920674 0.0 0.0
    endloop
  endfacet
  facet normal 0.8315571980313259 0.555439129340282 0.0
    outer loop
      vertex 3.9290685805034604 7.7734829868476245 0.33842289763092925
      vertex 4.096637219620845 7.522613178327151 0.33842289763092925
      vertex 4.096637219620845 7.522613178327151 0.0
    endloop
  endfacet
  facet normal 0.8315571980313259 0.555439129340282 0.0
    outer loop
      vertex 3.9290685805034604 7.7734829868476245 0.33842289763092925
      vertex 4.096637219620845 7.522613178327151 0.0
      vertex 3.9290685805034604 7.7734829868476245 0.0
    endloop
  endfacet
  facet normal 1.0 -0.0 0.0
    outer loop
      vertex 6.764785638924954 0.6766524150042799 0.33861618073323524
      vertex 6.764785638924954 0.6766524150042799 0.0
      vertex 6.764785638924954 6.088326391822657 0.33861618073323524
    endloop
  endfacet
  facet normal 1.0 0.0 -0.0
    outer loop
      vertex 6.764785638924954 6.088326391822657 0.0
      vertex 6.764785638924954 6.088326391822657 0.33861618073323524
      vertex 6.764785638924954 0.6766524150042799 0.0
    endloop
  endfacet
  facet normal -0.0 0.0 1.0
    outer loop
      vertex 4.735987862125304 4.507731001531335 0.33861618073323524
      vertex 5.7019716028438445 3.9684963260082515 0.33861618073323524
      vertex 4.758021075945214 4.714727504233842 0.33861618073323524
    endloop
  endfacet
  facet normal 0.0 0.0 1.0
    outer loop
      vertex 5.0657133978160225 4.998840439626552 0.33861618073323524
      vertex 4.925976235187082 4.9503285697538875 0.33861618073323524
      vertex 5.7019716028438445 3.9684963260082515 0.33861618073323524
    endloop
  endfacet
  facet normal 0.0 0.0 1.0
    outer loop
      vertex 5.253575818032887 5.004445350072586 0.33861618073323524
      vertex 5.0657133978160225 4.998840439626552 0.33861618073323524
      vertex 5.7019716028438445 3.9684963260082515 0.33861618073323524
    endloop
  endfacet
  facet normal 0.9807282477427169 0.19537682585071312 0.0
    outer loop
      vertex 4.096637219620845 7.522613178327151 0.33842289763092925
      vertex 4.155585777976352 7.226710549695392 0.33842289763092925
      vertex 4.155585777976352 7.226710549695392 0.0
    endloop
  endfacet
  facet normal 0.9807282477427169 0.19537682585071312 0.0
    outer loop
      vertex 4.096637219620845 7.522613178327151 0.33842289763092925
      vertex 4.155585777976352 7.226710549695392 0.0
      vertex 4.096637219620845 7.522613178327151 0.0
    endloop
  endfacet
  facet normal 0.0 0.0 -1.0
    outer loop
      vertex 4.096637219620845 6.930807921063632 0.0
      vertex 3.759373942461033 7.009084052367671 0.0
      vertex 3.817742720629816 7.226710549695392 0.0
    endloop
  endfacet
  facet normal 0.0 -0.0 -1.0
    outer loop
      vertex 3.9290685805034604 7.7734829868476245 0.0
      vertex 4.096637219620845 7.522613178327151 0.0
      vertex 3.759373942461033 7.44453058356613 0.0
    endloop
  endfacet
  facet normal 0.0 0.0 -1.0
    outer loop
      vertex 3.759373942461033 7.44453058356613 0.0
      vertex 3.6001161081017714 7.603788302725068 0.0
      vertex 3.9290685805034604 7.7734829868476245 0.0
    endloop
  endfacet
  facet normal 0.0 0.0 -1.0
    outer loop
      vertex 3.817742720629816 7.226710549695392 0.0
      vertex 3.759373942461033 7.44453058356613 0.0
      vertex 4.096637219620845 7.522613178327151 0.0
    endloop
  endfacet
  facet normal 0.0 -0.0 -1.0
    outer loop
      vertex 4.096637219620845 7.522613178327151 0.0
      vertex 4.155585777976352 7.226710549695392 0.0
      vertex 3.817742720629816 7.226710549695392 0.0
    endloop
  endfacet
  facet normal 0.0 0.0 -1.0
    outer loop
      vertex 4.096637219620845 6.930807921063632 0.0
      vertex 3.817742720629816 7.226710549695392 0.0
      vertex 4.155585777976352 7.226710549695392 0.0
    endloop
  endfacet
  facet normal -1.0 0.0 0.0
    outer loop
      vertex 2.997294290008427 3.1074603360679123 0.33861618073323524
      vertex 2.997294290008427 3.1074603360679123 0.708349475396124
      vertex 2.997294290008427 3.9684963260082515 0.708349475396124
    endloop
  endfacet
  facet normal -1.0 0.0 0.0
    outer loop
      vertex 2.997294290008427 3.1074603360679123 0.33861618073323524
      vertex 2.997294290008427 3.9684963260082515 0.708349475396124
      vertex 2.997294290008427 3.9684963260082515 0.33861618073323524
    endloop
  endfacet
  facet normal 0.0 -0.0 1.0
    outer loop
      vertex 5.7019716028438445 4.926169310928806 0.708349475396124
      vertex 5.846733987892354 5.843834626157441 0.708349475396124
      vertex 5.4623117995359545 4.977580266055607 0.708349475396124
    endloop
  endfacet
  facet normal 0.9659213073964302 -0.2588359092505729 0.0
    outer loop
      vertex 3.0052185285619384 7.44453058356613 0.0
      vertex 3.0052185285619384 7.44453058356613 0.33842289763092925
      vertex 2.9468497503931554 7.226710549695392 0.33842289763092925
    endloop
  endfacet
  facet normal 0.9659213073964302 -0.2588359092505729 0.0
    outer loop
      vertex 3.0052185285619384 7.44453058356613 0.0
      vertex 2.9468497503931554 7.226710549695392 0.33842289763092925
      vertex 2.9468497503931554 7.226710549695392 0.0
    endloop
  endfacet
  facet normal 0.0 0.0 1.0
    outer loop
      vertex 5.846733987892354 5.843834626157441 0.708349475396124
      vertex 5.622342743264375 5.877077753029676 0.708349475396124
      vertex 5.4623117995359545 4.977580266055607 0.708349475396124
    endloop
  endfacet
  facet normal -0.0 -0.0 -1.0
    outer loop
      vertex 3.3822962355114856 6.79126420281745 0.0
      vertex 6.764785638924954 0.6766524150042799 0.0
      vertex 3.1646696229834412 6.849632980986232 0.0
    endloop
  endfacet
  facet normal 0.0 0.0 -1.0
    outer loop
      vertex 3.6001161081017714 6.849632980986232 0.0
      vertex 3.759373942461033 7.009084052367671 0.0
      vertex 3.9843399445416425 6.762685859593478 0.0
    endloop
  endfacet
  facet normal -0.0 0.0 -1.0
    outer loop
      vertex 4.096637219620845 6.930807921063632 0.0
      vertex 3.9843399445416425 6.762685859593478 0.0
      vertex 3.759373942461033 7.009084052367671 0.0
    endloop
  endfacet
  facet normal -0.0 -0.0 -1.0
    outer loop
      vertex 3.9843399445416425 6.762685859593478 0.0
      vertex 6.764785638924954 0.6766524150042799 0.0
      vertex 3.6001161081017714 6.849632980986232 0.0
    endloop
  endfacet
  facet normal -0.0 -0.0 -1.0
    outer loop
      vertex 6.58890626416964 6.543293571711372 0.0
      vertex 6.662543785338851 6.446269831966044 0.0
      vertex 3.9843399445416425 6.762685859593478 0.0
    endloop
  endfacet
  facet normal 0.0 0.0 -1.0
    outer loop
      vertex 3.3822962355114856 6.79126420281745 0.0
      vertex 3.6001161081017714 6.849632980986232 0.0
      vertex 6.764785638924954 0.6766524150042799 0.0
    endloop
  endfacet
  facet normal -0.0 -0.0 -1.0
    outer loop
      vertex 6.764785638924954 6.088326391822657 0.0
      vertex 6.764785638924954 0.6766524150042799 0.0
      vertex 3.9843399445416425 6.762685859593478 0.0
    endloop
  endfacet
  facet normal 0.0 0.0 -1.0
    outer loop
      vertex 2.77974182040841 6.7634506054191705 0.0
      vertex 3.1646696229834412 6.849632980986232 0.0
      vertex 6.764785638924954 0.6766524150042799 0.0
    endloop
  endfacet
  facet normal 0.7066776169753349 -0.7075356850831355 0.0
    outer loop
      vertex 3.1646696229834412 7.603788302725068 0.0
      vertex 3.1646696229834412 7.603788302725068 0.33842289763092925
      vertex 3.0052185285619384 7.44453058356613 0.33842289763092925
    endloop
  endfacet
  facet normal 0.7066776169753349 -0.7075356850831355 0.0
    outer loop
      vertex 3.1646696229834412 7.603788302725068 0.0
      vertex 3.0052185285619384 7.44453058356613 0.33842289763092925
      vertex 3.0052185285619384 7.44453058356613 0.0
    endloop
  endfacet
  facet normal 0.0 0.0 1.0
    outer loop
      vertex 6.752609425561421 6.216660289176772 0.33861618073323524
      vertex 6.717820033870738 6.3362970229287345 0.33861618073323524
      vertex 5.846733987892354 5.843834626157441 0.33861618073323524
    endloop
  endfacet
  facet normal 0.0 -0.0 1.0
    outer loop
      vertex 5.0657133978160225 4.998840439626552 0.708349475396124
      vertex 5.253575818032887 5.004445350072586 0.708349475396124
      vertex 4.89679184610269 5.916312402632687 0.708349475396124
    endloop
  endfacet
  facet normal 0.0 0.0 1.0
    outer loop
      vertex 5.622342743264375 5.877077753029676 0.708349475396124
      vertex 4.89679184610269 5.916312402632687 0.708349475396124
      vertex 5.253575818032887 5.004445350072586 0.708349475396124
    endloop
  endfacet
  facet normal -0.0 0.0 1.0
    outer loop
      vertex 5.253575818032887 5.004445350072586 0.708349475396124
      vertex 5.4623117995359545 4.977580266055607 0.708349475396124
      vertex 5.622342743264375 5.877077753029676 0.708349475396124
    endloop
  endfacet
  facet normal 0.25905052501158976 -0.9658637717044882 0.0
    outer loop
      vertex 3.3822962355114856 7.662157080893851 0.0
      vertex 3.3822962355114856 7.662157080893851 0.33842289763092925
      vertex 3.1646696229834412 7.603788302725068 0.33842289763092925
    endloop
  endfacet
  facet normal 0.25905052501158976 -0.9658637717044882 0.0
    outer loop
      vertex 3.3822962355114856 7.662157080893851 0.0
      vertex 3.1646696229834412 7.603788302725068 0.33842289763092925
      vertex 3.1646696229834412 7.603788302725068 0.0
    endloop
  endfacet
  facet normal 0.0 0.0 1.0
    outer loop
      vertex 6.764785638924954 6.088326391822657 0.33861618073323524
      vertex 6.752609425561421 6.216660289176772 0.33861618073323524
      vertex 5.846733987892354 5.843834626157441 0.33861618073323524
    endloop
  endfacet
  facet normal -0.0 0.0 -1.0
    outer loop
      vertex 3.1646696229834412 7.603788302725068 0.0
      vertex 3.0052185285619384 7.44453058356613 0.0
      vertex 2.835523890519511 7.7734829868476245 0.0
    endloop
  endfacet
  facet normal 0.0 0.0 -1.0
    outer loop
      vertex 2.6679552514021263 7.522613178327151 0.0
      vertex 2.835523890519511 7.7734829868476245 0.0
      vertex 3.0052185285619384 7.44453058356613 0.0
    endloop
  endfacet
  facet normal -0.0 0.0 -1.0
    outer loop
      vertex 3.0052185285619384 7.44453058356613 0.0
      vertex 2.9468497503931554 7.226710549695392 0.0
      vertex 2.6679552514021263 7.522613178327151 0.0
    endloop
  endfacet
  facet normal 0.0 0.0 -1.0
    outer loop
      vertex 2.6091999531088605 7.226710549695392 0.0
      vertex 2.6679552514021263 7.522613178327151 0.0
      vertex 2.9468497503931554 7.226710549695392 0.0
    endloop
  endfacet
  facet normal -0.0 0.0 -1.0
    outer loop
      vertex 3.0052185285619384 7.009084052367671 0.0
      vertex 2.6679552514021263 6.930807921063632 0.0
      vertex 2.9468497503931554 7.226710549695392 0.0
    endloop
  endfacet
  facet normal 0.0 -0.0 -1.0
    outer loop
      vertex 3.0052185285619384 7.009084052367671 0.0
      vertex 3.1646696229834412 6.849632980986232 0.0
      vertex 2.77974182040841 6.7634506054191705 0.0
    endloop
  endfacet
  facet normal 0.0 0.0 -1.0
    outer loop
      vertex 2.77974182040841 6.7634506054191705 0.0
      vertex 2.6679552514021263 6.930807921063632 0.0
      vertex 3.0052185285619384 7.009084052367671 0.0
    endloop
  endfacet
  facet normal 0.0 0.0 -1.0
    outer loop
      vertex 2.6091999531088605 7.226710549695392 0.0
      vertex 2.9468497503931554 7.226710549695392 0.0
      vertex 2.6679552514021263 6.930807921063632 0.0
    endloop
  endfacet
  facet normal -0.25883608806074654 -0.9659212594810249 0.0
    outer loop
      vertex 3.6001161081017714 7.603788302725068 0.0
      vertex 3.6001161081017714 7.603788302725068 0.33842289763092925
      vertex 3.3822962355114856 7.662157080893851 0.33842289763092925
    endloop
  endfacet
  facet normal -0.25883608806074654 -0.9659212594810249 0.0
    outer loop
      vertex 3.6001161081017714 7.603788302725068 0.0
      vertex 3.3822962355114856 7.662157080893851 0.33842289763092925
      vertex 3.3822962355114856 7.662157080893851 0.0
    endloop
  endfacet
  facet normal 0.0 0.0 1.0
    outer loop
      vertex 4.659451255701955 5.904329357171137 0.708349475396124
      vertex 4.4480094490069915 5.865481412013127 0.708349475396124
      vertex 4.925976235187082 4.9503285697538875 0.708349475396124
    endloop
  endfacet
  facet normal 0.0 -0.0 1.0
    outer loop
      vertex 4.925976235187082 4.9503285697538875 0.708349475396124
      vertex 5.0657133978160225 4.998840439626552 0.708349475396124
      vertex 4.659451255701955 5.904329357171137 0.708349475396124
    endloop
  endfacet
  facet normal 0.0 0.0 1.0
    outer loop
      vertex 4.89679184610269 5.916312402632687 0.708349475396124
      vertex 4.659451255701955 5.904329357171137 0.708349475396124
      vertex 5.0657133978160225 4.998840439626552 0.708349475396124
    endloop
  endfacet
  facet normal -0.0 0.0 1.0
    outer loop
      vertex 4.758021075945214 4.714727504233842 0.33861618073323524
      vertex 5.7019716028438445 3.9684963260082515 0.33861618073323524
      vertex 4.822381376844771 4.85890992477511 0.33861618073323524
    endloop
  endfacet
  facet normal 0.0 0.0 1.0
    outer loop
      vertex 4.925976235187082 4.9503285697538875 0.33861618073323524
      vertex 4.822381376844771 4.85890992477511 0.33861618073323524
      vertex 5.7019716028438445 3.9684963260082515 0.33861618073323524
    endloop
  endfacet
  facet normal 0.0 0.0 1.0
    outer loop
      vertex 5.4623117995359545 4.977580266055607 0.33861618073323524
      vertex 5.253575818032887 5.004445350072586 0.33861618073323524
      vertex 5.7019716028438445 3.9684963260082515 0.33861618073323524
    endloop
  endfacet
  facet normal 0.0 0.0 1.0
    outer loop
      vertex 5.7019716028438445 4.926169310928806 0.33861618073323524
      vertex 5.4623117995359545 4.977580266055607 0.33861618073323524
      vertex 5.7019716028438445 3.9684963260082515 0.33861618073323524
    endloop
  endfacet
  facet normal 0.0 0.0 1.0
    outer loop
      vertex 0.6764592471022971 6.764785638924954 0.33861618073323524
      vertex 4.659451255701955 5.904329357171137 0.33861618073323524
      vertex 6.157325302857042 6.761306589163575 0.33861618073323524
    endloop
  endfacet
  facet normal 0.0 0.0 1.0
    outer loop
      vertex 6.499420496294052 6.625434904260237 0.33861618073323524
      vertex 6.396212065915966 6.69095494985376 0.33861618073323524
      vertex 5.846733987892354 5.843834626157441 0.33861618073323524
    endloop
  endfacet
  facet normal 0.0 0.0 1.0
    outer loop
      vertex 6.717820033870738 6.3362970229287345 0.33861618073323524
      vertex 6.662543785338851 6.446269831966044 0.33861618073323524
      vertex 5.846733987892354 5.843834626157441 0.33861618073323524
    endloop
  endfacet
  facet normal 0.0 0.0 1.0
    outer loop
      vertex 6.396212065915966 6.69095494985376 0.33861618073323524
      vertex 6.281407294521331 6.73695416243651 0.33861618073323524
      vertex 5.846733987892354 5.843834626157441 0.33861618073323524
    endloop
  endfacet
  facet normal 0.0 0.0 1.0
    outer loop
      vertex 6.281407294521331 6.73695416243651 0.33861618073323524
      vertex 6.157325302857042 6.761306589163575 0.33861618073323524
      vertex 5.846733987892354 5.843834626157441 0.33861618073323524
    endloop
  endfacet
  facet normal -0.0 0.0 1.0
    outer loop
      vertex 5.622342743264375 5.877077753029676 0.33861618073323524
      vertex 5.846733987892354 5.843834626157441 0.33861618073323524
      vertex 6.157325302857042 6.761306589163575 0.33861618073323524
    endloop
  endfacet
  facet normal -0.7071065254409684 -0.707107036932034 0.0
    outer loop
      vertex 3.759373942461033 7.44453058356613 0.0
      vertex 3.759373942461033 7.44453058356613 0.33842289763092925
      vertex 3.6001161081017714 7.603788302725068 0.33842289763092925
    endloop
  endfacet
  facet normal -0.7071065254409684 -0.707107036932034 0.0
    outer loop
      vertex 3.759373942461033 7.44453058356613 0.0
      vertex 3.6001161081017714 7.603788302725068 0.33842289763092925
      vertex 3.6001161081017714 7.603788302725068 0.0
    endloop
  endfacet
  facet normal 0.7965595925507658 0.6045600181250477 0.0
    outer loop
      vertex 6.662543785338851 6.446269831966044 0.33861618073323524
      vertex 6.662543785338851 6.446269831966044 0.0
      vertex 6.58890626416964 6.543293571711372 0.0
    endloop
  endfacet
  facet normal 0.7965595925507658 0.6045600181250477 0.0
    outer loop
      vertex 6.662543785338851 6.446269831966044 0.33861618073323524
      vertex 6.58890626416964 6.543293571711372 0.0
      vertex 6.58890626416964 6.543293571711372 0.33861618073323524
    endloop
  endfacet
  facet normal 0.0 -0.0 1.0
    outer loop
      vertex 4.89679184610269 5.916312402632687 0.33861618073323524
      vertex 6.157325302857042 6.761306589163575 0.33861618073323524
      vertex 4.659451255701955 5.904329357171137 0.33861618073323524
    endloop
  endfacet
  facet normal 0.6762286887475429 0.7366917676442292 0.0
    outer loop
      vertex 6.58890626416964 6.543293571711372 0.0
      vertex 6.499420496294052 6.625434904260237 0.0
      vertex 6.499420496294052 6.625434904260237 0.33861618073323524
    endloop
  endfacet
  facet normal 0.6762286887475429 0.7366917676442292 -0.0
    outer loop
      vertex 6.58890626416964 6.543293571711372 0.0
      vertex 6.499420496294052 6.625434904260237 0.33861618073323524
      vertex 6.58890626416964 6.543293571711372 0.33861618073323524
    endloop
  endfacet
  facet normal -0.9659213073964302 -0.2588359092505729 0.0
    outer loop
      vertex 3.817742720629816 7.226710549695392 0.0
      vertex 3.817742720629816 7.226710549695392 0.33842289763092925
      vertex 3.759373942461033 7.44453058356613 0.33842289763092925
    endloop
  endfacet
  facet normal -0.9659213073964302 -0.2588359092505729 0.0
    outer loop
      vertex 3.817742720629816 7.226710549695392 0.0
      vertex 3.759373942461033 7.44453058356613 0.33842289763092925
      vertex 3.759373942461033 7.44453058356613 0.0
    endloop
  endfacet
  facet normal 0.5359549873998792 0.8442465584657098 0.0
    outer loop
      vertex 6.499420496294052 6.625434904260237 0.0
      vertex 6.396212065915966 6.69095494985376 0.0
      vertex 6.396212065915966 6.69095494985376 0.33861618073323524
    endloop
  endfacet
  facet normal 0.5359549873998792 0.8442465584657098 -0.0
    outer loop
      vertex 6.499420496294052 6.625434904260237 0.0
      vertex 6.396212065915966 6.69095494985376 0.33861618073323524
      vertex 6.499420496294052 6.625434904260237 0.33861618073323524
    endloop
  endfacet
  facet normal 0.3719294469348536 0.9282610012829011 0.0
    outer loop
      vertex 6.396212065915966 6.69095494985376 0.0
      vertex 6.281407294521331 6.73695416243651 0.0
      vertex 6.281407294521331 6.73695416243651 0.33861618073323524
    endloop
  endfacet
  facet normal 0.3719294469348536 0.9282610012829011 -0.0
    outer loop
      vertex 6.396212065915966 6.69095494985376 0.0
      vertex 6.281407294521331 6.73695416243651 0.33861618073323524
      vertex 6.396212065915966 6.69095494985376 0.33861618073323524
    endloop
  endfacet
  facet normal 0.1925867547787757 0.9812799508212627 0.0
    outer loop
      vertex 6.281407294521331 6.73695416243651 0.0
      vertex 6.157325302857042 6.761306589163575 0.0
      vertex 6.157325302857042 6.761306589163575 0.33861618073323524
    endloop
  endfacet
  facet normal 0.1925867547787757 0.9812799508212627 -0.0
    outer loop
      vertex 6.281407294521331 6.73695416243651 0.0
      vertex 6.157325302857042 6.761306589163575 0.33861618073323524
      vertex 6.281407294521331 6.73695416243651 0.33861618073323524
    endloop
  endfacet
  facet normal 0.0006347351337541957 0.9999997985556346 -0.0
    outer loop
      vertex 3.9843399445416425 6.762685859593478 0.0
      vertex 3.9843399445416425 6.762685859593478 0.33842289763092925
      vertex 6.157325302857042 6.761306589163575 0.0
    endloop
  endfacet
  facet normal -0.9658637373940046 0.25905065293738494 0.0
    outer loop
      vertex 3.759373942461033 7.009084052367671 0.0
      vertex 3.759373942461033 7.009084052367671 0.33842289763092925
      vertex 3.817742720629816 7.226710549695392 0.33842289763092925
    endloop
  endfacet
  facet normal -0.9658637373940046 0.25905065293738494 0.0
    outer loop
      vertex 3.759373942461033 7.009084052367671 0.0
      vertex 3.817742720629816 7.226710549695392 0.33842289763092925
      vertex 3.817742720629816 7.226710549695392 0.0
    endloop
  endfacet
  facet normal -0.0 0.0 1.0
    outer loop
      vertex 4.101855609942396 5.727097069819875 0.708349475396124
      vertex 4.822381376844771 4.85890992477511 0.708349475396124
      vertex 4.262273073795299 5.80479332877693 0.708349475396124
    endloop
  endfacet
  facet normal -0.0 0.0 1.0
    outer loop
      vertex 3.9663704912436692 5.637417949721787 0.708349475396124
      vertex 4.822381376844771 4.85890992477511 0.708349475396124
      vertex 4.101855609942396 5.727097069819875 0.708349475396124
    endloop
  endfacet
  facet normal -0.0 0.0 1.0
    outer loop
      vertex 3.8554311514945074 5.540587654359217 0.708349475396124
      vertex 4.822381376844771 4.85890992477511 0.708349475396124
      vertex 3.9663704912436692 5.637417949721787 0.708349475396124
    endloop
  endfacet
  facet normal -0.0 0.0 1.0
    outer loop
      vertex 3.7054504913247706 5.344801018628906 0.708349475396124
      vertex 4.822381376844771 4.85890992477511 0.708349475396124
      vertex 3.8554311514945074 5.540587654359217 0.708349475396124
    endloop
  endfacet
  facet normal 0.0 0.0 1.0
    outer loop
      vertex 4.4480094490069915 5.865481412013127 0.708349475396124
      vertex 4.262273073795299 5.80479332877693 0.708349475396124
      vertex 4.925976235187082 4.9503285697538875 0.708349475396124
    endloop
  endfacet
  facet normal -0.0 0.0 1.0
    outer loop
      vertex 3.6300735835152578 5.171627376905229 0.708349475396124
      vertex 4.758021075945214 4.714727504233842 0.708349475396124
      vertex 3.7054504913247706 5.344801018628906 0.708349475396124
    endloop
  endfacet
  facet normal -0.0 0.0 1.0
    outer loop
      vertex 3.5977968260744224 5.009663740394136 0.708349475396124
      vertex 4.758021075945214 4.714727504233842 0.708349475396124
      vertex 3.6300735835152578 5.171627376905229 0.708349475396124
    endloop
  endfacet
  facet normal 0.0 -0.0 1.0
    outer loop
      vertex 4.735987862125304 4.507731001531335 0.708349475396124
      vertex 4.758021075945214 4.714727504233842 0.708349475396124
      vertex 3.5977968260744224 5.009663740394136 0.708349475396124
    endloop
  endfacet
  facet normal 0.0 -0.0 1.0
    outer loop
      vertex 4.758021075945214 4.714727504233842 0.708349475396124
      vertex 4.822381376844771 4.85890992477511 0.708349475396124
      vertex 3.7054504913247706 5.344801018628906 0.708349475396124
    endloop
  endfacet
  facet normal 0.0 0.0 1.0
    outer loop
      vertex 4.925976235187082 4.9503285697538875 0.708349475396124
      vertex 4.262273073795299 5.80479332877693 0.708349475396124
      vertex 4.822381376844771 4.85890992477511 0.708349475396124
    endloop
  endfacet
  facet normal 0.0 -0.0 1.0
    outer loop
      vertex 5.597217091967828 3.1074603360679123 0.708349475396124
      vertex 5.7019716028438445 3.9684963260082515 0.708349475396124
      vertex 4.735987862125304 3.9684963260082515 0.708349475396124
    endloop
  endfacet
  facet normal 0.0 0.0 1.0
    outer loop
      vertex 5.597217091967828 3.1074603360679123 0.708349475396124
      vertex 4.735987862125304 3.9684963260082515 0.708349475396124
      vertex 4.735987862125304 3.1074603360679123 0.708349475396124
    endloop
  endfacet
  facet normal 0.0006347351337541959 0.9999997985556347 0.0
    outer loop
      vertex 6.157325302857042 6.761306589163575 0.33861618073323524
      vertex 6.157325302857042 6.761306589163575 0.0
      vertex 3.9843399445416425 6.762685859593478 0.33842289763092925
    endloop
  endfacet
  facet normal 0.0006347626193789779 0.9999997506898625 -0.0003093487187772676
    outer loop
      vertex 0.6764592471022971 6.764785638924954 0.33861618073323524
      vertex 6.157325302857042 6.761306589163575 0.33861618073323524
      vertex 3.9843399445416425 6.762685859593478 0.33842289763092925
    endloop
  endfacet
  facet normal -0.7075353784368906 0.7066779239937852 0.0
    outer loop
      vertex 3.6001161081017714 6.849632980986232 0.0
      vertex 3.6001161081017714 6.849632980986232 0.33842289763092925
      vertex 3.759373942461033 7.009084052367671 0.33842289763092925
    endloop
  endfacet
  facet normal -0.7075353784368906 0.7066779239937852 0.0
    outer loop
      vertex 3.6001161081017714 6.849632980986232 0.0
      vertex 3.759373942461033 7.009084052367671 0.33842289763092925
      vertex 3.759373942461033 7.009084052367671 0.0
    endloop
  endfacet
  facet normal 0.0 0.0 1.0
    outer loop
      vertex 3.592771695815113 3.9684963260082515 0.708349475396124
      vertex 2.997294290008427 3.9684963260082515 0.708349475396124
      vertex 2.997294290008427 3.1074603360679123 0.708349475396124
    endloop
  endfacet
  facet normal 0.0 0.0 1.0
    outer loop
      vertex 2.997294290008427 3.1074603360679123 0.708349475396124
      vertex 3.592771695815113 3.1074603360679123 0.708349475396124
      vertex 3.592771695815113 3.9684963260082515 0.708349475396124
    endloop
  endfacet
  facet normal -0.2588360880607429 0.9659212594810258 0.0
    outer loop
      vertex 3.6001161081017714 6.849632980986232 0.33842289763092925
      vertex 3.6001161081017714 6.849632980986232 0.0
      vertex 3.3822962355114856 6.79126420281745 0.0
    endloop
  endfacet
  facet normal -0.2588360880607429 0.9659212594810258 0.0
    outer loop
      vertex 3.6001161081017714 6.849632980986232 0.33842289763092925
      vertex 3.3822962355114856 6.79126420281745 0.0
      vertex 3.3822962355114856 6.79126420281745 0.33842289763092925
    endloop
  endfacet
  facet normal 0.0 -0.0 1.0
    outer loop
      vertex 4.735987862125304 3.9684963260082515 0.708349475396124
      vertex 4.735987862125304 4.507731001531335 0.708349475396124
      vertex 3.592771695815113 3.9684963260082515 0.708349475396124
    endloop
  endfacet
  facet normal 0.0 0.0 1.0
    outer loop
      vertex 3.5977968260744224 5.009663740394136 0.708349475396124
      vertex 3.592771695815113 3.9684963260082515 0.708349475396124
      vertex 4.735987862125304 4.507731001531335 0.708349475396124
    endloop
  endfacet
  facet normal 0.0 -0.0 1.0
    outer loop
      vertex 4.735987862125304 3.1074603360679123 0.708349475396124
      vertex 4.735987862125304 3.9684963260082515 0.708349475396124
      vertex 3.592771695815113 3.1074603360679123 0.708349475396124
    endloop
  endfacet
  facet normal 0.0 0.0 1.0
    outer loop
      vertex 3.592771695815113 3.1074603360679123 0.708349475396124
      vertex 4.735987862125304 3.9684963260082515 0.708349475396124
      vertex 3.592771695815113 3.9684963260082515 0.708349475396124
    endloop
  endfacet
  facet normal 0.0 -0.0 1.0
    outer loop
      vertex 4.735987862125304 0.0 0.708349475396124
      vertex 4.735987862125304 3.1074603360679123 0.708349475396124
      vertex 3.592771695815113 3.1074603360679123 0.708349475396124
    endloop
  endfacet
  facet normal 0.0 0.0 1.0
    outer loop
      vertex 4.735987862125304 0.0 0.708349475396124
      vertex 3.592771695815113 3.1074603360679123 0.708349475396124
      vertex 3.592771695815113 0.0 0.708349475396124
    endloop
  endfacet
  facet normal -0.2097447235254534 -0.9777561817514789 0.0
    outer loop
      vertex 5.4623117995359545 4.977580266055607 0.33861618073323524
      vertex 5.7019716028438445 4.926169310928806 0.33861618073323524
      vertex 5.7019716028438445 4.926169310928806 0.708349475396124
    endloop
  endfacet
  facet normal -0.2097447235254534 -0.9777561817514789 0.0
    outer loop
      vertex 5.4623117995359545 4.977580266055607 0.33861618073323524
      vertex 5.7019716028438445 4.926169310928806 0.708349475396124
      vertex 5.4623117995359545 4.977580266055607 0.708349475396124
    endloop
  endfacet
  facet normal 0.2590505250115861 0.9658637717044891 -0.0
    outer loop
      vertex 3.1646696229834412 6.849632980986232 0.0
      vertex 3.1646696229834412 6.849632980986232 0.33842289763092925
      vertex 3.3822962355114856 6.79126420281745 0.33842289763092925
    endloop
  endfacet
  facet normal 0.2590505250115861 0.9658637717044891 0.0
    outer loop
      vertex 3.1646696229834412 6.849632980986232 0.0
      vertex 3.3822962355114856 6.79126420281745 0.33842289763092925
      vertex 3.3822962355114856 6.79126420281745 0.0
    endloop
  endfacet
  facet normal 0.7071067300994487 0.7071068322736427 -0.0
    outer loop
      vertex 3.0052185285619384 7.009084052367671 0.0
      vertex 3.0052185285619384 7.009084052367671 0.33842289763092925
      vertex 3.1646696229834412 6.849632980986232 0.33842289763092925
    endloop
  endfacet
  facet normal 0.7071067300994487 0.7071068322736427 0.0
    outer loop
      vertex 3.0052185285619384 7.009084052367671 0.0
      vertex 3.1646696229834412 6.849632980986232 0.33842289763092925
      vertex 3.1646696229834412 6.849632980986232 0.0
    endloop
  endfacet
  facet normal -0.12765075477074872 -0.99181917949113 0.0
    outer loop
      vertex 5.253575818032887 5.004445350072586 0.33861618073323524
      vertex 5.4623117995359545 4.977580266055607 0.33861618073323524
      vertex 5.4623117995359545 4.977580266055607 0.708349475396124
    endloop
  endfacet
  facet normal -0.12765075477074872 -0.99181917949113 0.0
    outer loop
      vertex 5.253575818032887 5.004445350072586 0.33861618073323524
      vertex 5.4623117995359545 4.977580266055607 0.708349475396124
      vertex 5.253575818032887 5.004445350072586 0.708349475396124
    endloop
  endfacet
  facet normal 0.987784867491471 -0.15582379649738054 0.0
    outer loop
      vertex 5.846733987892354 5.843834626157441 0.708349475396124
      vertex 5.7019716028438445 4.926169310928806 0.708349475396124
      vertex 5.7019716028438445 4.926169310928806 0.33861618073323524
    endloop
  endfacet
  facet normal 0.9658637373940046 0.25905065293738494 0.0
    outer loop
      vertex 3.0052185285619384 7.009084052367671 0.33842289763092925
      vertex 3.0052185285619384 7.009084052367671 0.0
      vertex 2.9468497503931554 7.226710549695392 0.0
    endloop
  endfacet
  facet normal 0.9658637373940046 0.25905065293738494 0.0
    outer loop
      vertex 3.0052185285619384 7.009084052367671 0.33842289763092925
      vertex 2.9468497503931554 7.226710549695392 0.0
      vertex 2.9468497503931554 7.226710549695392 0.33842289763092925
    endloop
  endfacet
  facet normal 0.029821917181464538 -0.999555227716619 0.0
    outer loop
      vertex 5.0657133978160225 4.998840439626552 0.33861618073323524
      vertex 5.253575818032887 5.004445350072586 0.33861618073323524
      vertex 5.253575818032887 5.004445350072586 0.708349475396124
    endloop
  endfacet
  facet normal 0.029821917181464538 -0.999555227716619 0.0
    outer loop
      vertex 5.0657133978160225 4.998840439626552 0.33861618073323524
      vertex 5.253575818032887 5.004445350072586 0.708349475396124
      vertex 5.0657133978160225 4.998840439626552 0.708349475396124
    endloop
  endfacet
  facet normal 0.987784867491471 -0.15582379649738054 0.0
    outer loop
      vertex 5.846733987892354 5.843834626157441 0.708349475396124
      vertex 5.7019716028438445 4.926169310928806 0.33861618073323524
      vertex 5.846733987892354 5.843834626157441 0.33861618073323524
    endloop
  endfacet
  facet normal 0.32796355481635675 -0.9446903761086055 0.0
    outer loop
      vertex 5.0657133978160225 4.998840439626552 0.33861618073323524
      vertex 5.0657133978160225 4.998840439626552 0.708349475396124
      vertex 4.925976235187082 4.9503285697538875 0.708349475396124
    endloop
  endfacet
  facet normal 0.053996777774022786 0.998541109814725 -0.0
    outer loop
      vertex 4.89679184610269 5.916312402632687 0.33861618073323524
      vertex 4.89679184610269 5.916312402632687 0.708349475396124
      vertex 5.622342743264375 5.877077753029676 0.33861618073323524
    endloop
  endfacet
  facet normal 0.053996777774022786 0.998541109814725 0.0
    outer loop
      vertex 5.622342743264375 5.877077753029676 0.708349475396124
      vertex 5.622342743264375 5.877077753029676 0.33861618073323524
      vertex 4.89679184610269 5.916312402632687 0.708349475396124
    endloop
  endfacet
  facet normal 0.0 -0.0 1.0
    outer loop
      vertex 3.8554311514945074 5.540587654359217 0.33861618073323524
      vertex 3.9663704912436692 5.637417949721787 0.33861618073323524
      vertex 0.6764592471022971 6.764785638924954 0.33861618073323524
    endloop
  endfacet
  facet normal 0.0 -0.0 1.0
    outer loop
      vertex 4.101855609942396 5.727097069819875 0.33861618073323524
      vertex 4.262273073795299 5.80479332877693 0.33861618073323524
      vertex 0.6764592471022971 6.764785638924954 0.33861618073323524
    endloop
  endfacet
  facet normal 0.0 0.0 1.0
    outer loop
      vertex 4.4480094490069915 5.865481412013127 0.33861618073323524
      vertex 0.6764592471022971 6.764785638924954 0.33861618073323524
      vertex 4.262273073795299 5.80479332877693 0.33861618073323524
    endloop
  endfacet
  facet normal 0.0 0.0 1.0
    outer loop
      vertex 4.659451255701955 5.904329357171137 0.33861618073323524
      vertex 0.6764592471022971 6.764785638924954 0.33861618073323524
      vertex 4.4480094490069915 5.865481412013127 0.33861618073323524
    endloop
  endfacet
  facet normal 0.0 0.0 1.0
    outer loop
      vertex 4.101855609942396 5.727097069819875 0.33861618073323524
      vertex 0.6764592471022971 6.764785638924954 0.33861618073323524
      vertex 3.9663704912436692 5.637417949721787 0.33861618073323524
    endloop
  endfacet
  facet normal 0.0 0.0 1.0
    outer loop
      vertex 3.8554311514945074 5.540587654359217 0.33861618073323524
      vertex 0.6764592471022971 6.764785638924954 0.33861618073323524
      vertex 3.7054504913247706 5.344801018628906 0.33861618073323524
    endloop
  endfacet
  facet normal 0.0 -0.0 1.0
    outer loop
      vertex 3.5977968260744224 5.009663740394136 0.33861618073323524
      vertex 3.6300735835152578 5.171627376905229 0.33861618073323524
      vertex 0.6764592471022971 6.764785638924954 0.33861618073323524
    endloop
  endfacet
  facet normal 0.0 0.0 1.0
    outer loop
      vertex 3.7054504913247706 5.344801018628906 0.33861618073323524
      vertex 0.6764592471022971 6.764785638924954 0.33861618073323524
      vertex 3.6300735835152578 5.171627376905229 0.33861618073323524
    endloop
  endfacet
  facet normal 0.0 -0.0 1.0
    outer loop
      vertex 2.997294290008427 3.9684963260082515 0.33861618073323524
      vertex 3.5977968260744224 5.009663740394136 0.33861618073323524
      vertex 0.6764592471022971 6.764785638924954 0.33861618073323524
    endloop
  endfacet
endsolid thingi10k_204952
