solid thingi10k_237735
  facet normal 0.0 1.9073499999965297e-06 -0.999999999998181
    outer loop
      vertex 0.0 7.03030303030303 1.2946860606060607e-05
      vertex 0.0 8.0 1.4796412121212121e-05
      vertex 0.48484969696969693 7.03030303030303 1.2946860606060607e-05
    endloop
  endfacet
  facet normal 0.0 1.9073499999965297e-06 -0.999999999998181
    outer loop
      vertex 0.48484969696969693 7.03030303030303 1.2946860606060607e-05
      vertex 0.0 8.0 1.4796412121212121e-05
      vertex 0.48484969696969693 8.0 1.4796412121212121e-05
    endloop
  endfacet
  facet normal 0.0 2.179828571423393e-06 -0.9999999999976241
    outer loop
      vertex 0.48484969696969693 5.090909090909091 9.247757575757575e-06
      vertex 0.0 5.090909090909091 9.247757575757575e-06
      vertex 0.48484969696969693 6.787878787878788 1.2946860606060607e-05
    endloop
  endfacet
  facet normal 0.0 2.179828571423393e-06 -0.9999999999976241
    outer loop
      vertex 0.48484969696969693 6.787878787878788 1.2946860606060607e-05
      vertex 0.0 5.090909090909091 9.247757575757575e-06
      vertex 0.0 6.787878787878788 1.2946860606060607e-05
    endloop
  endfacet
  facet normal 0.0 2.179831685468657e-06 -0.9999999999976241
    outer loop
      vertex 0.48484969696969693 3.151517575757576 5.5486545454545455e-06
      vertex 0.0 3.151517575757576 5.5486545454545455e-06
      vertex 0.48484969696969693 4.848484848484849 9.247757575757575e-06
    endloop
  endfacet
  facet normal 0.0 2.179831685468657e-06 -0.9999999999976241
    outer loop
      vertex 0.48484969696969693 4.848484848484849 9.247757575757575e-06
      vertex 0.0 3.151517575757576 5.5486545454545455e-06
      vertex 0.0 4.848484848484849 9.247757575757575e-06
    endloop
  endfacet
  facet normal 0.0 2.1798268859564127e-06 -0.9999999999976242
    outer loop
      vertex 0.48484969696969693 1.2121212121212122 1.849549090909091e-06
      vertex 0.0 1.2121212121212122 1.849549090909091e-06
      vertex 0.48484969696969693 2.9090933333333333 5.5486545454545455e-06
    endloop
  endfacet
  facet normal 0.0 2.1798268859564127e-06 -0.9999999999976242
    outer loop
      vertex 0.48484969696969693 2.9090933333333333 5.5486545454545455e-06
      vertex 0.0 1.2121212121212122 1.849549090909091e-06
      vertex 0.0 2.9090933333333333 5.5486545454545455e-06
    endloop
  endfacet
  facet normal 0.9848071211386846 -3.6835222064352417e-07 0.17365176116123998
    outer loop
      vertex 0.48485333333333336 0.0 0.7272678787878788
      vertex 0.48485333333333336 8.0 0.7272848484848484
      vertex 0.3566128484848485 0.1282424242424242 1.454540606060606
    endloop
  endfacet
  facet normal 0.9848071437221838 -3.8055269914234166e-07 0.17365163308650258
    outer loop
      vertex 0.3566128484848485 0.1282424242424242 1.454540606060606
      vertex 0.48485333333333336 8.0 0.7272848484848484
      vertex 0.3566128484848485 7.871757575757577 1.4545575757575757
    endloop
  endfacet
  facet normal 8.682646075224591e-07 -0.9848066103264064 0.1736546580332922
    outer loop
      vertex 0.0 0.0 0.727270303030303
      vertex 0.48485333333333336 0.0 0.7272678787878788
      vertex 0.12824169696969695 0.1282424242424242 1.454540606060606
    endloop
  endfacet
  facet normal 0.0 -0.9848066831361378 0.17365424512633895
    outer loop
      vertex 0.12824169696969695 0.1282424242424242 1.454540606060606
      vertex 0.48485333333333336 0.0 0.7272678787878788
      vertex 0.3566128484848485 0.1282424242424242 1.454540606060606
    endloop
  endfacet
  facet normal -0.9848068610743499 -3.1573315640131854e-07 0.17365323602163601
    outer loop
      vertex 0.0 8.0 0.7272848484848484
      vertex 0.0 0.0 0.727270303030303
      vertex 0.12824169696969695 7.871757575757577 1.4545575757575757
    endloop
  endfacet
  facet normal -0.9848067410856503 -3.805577031560096e-07 0.17365391648942516
    outer loop
      vertex 0.12824169696969695 7.871757575757577 1.4545575757575757
      vertex 0.0 0.0 0.727270303030303
      vertex 0.12824169696969695 0.1282424242424242 1.454540606060606
    endloop
  endfacet
  facet normal 0.0 0.9848066831361381 0.17365424512633695
    outer loop
      vertex 0.48485333333333336 8.0 0.7272848484848484
      vertex 0.0 8.0 0.7272848484848484
      vertex 0.3566128484848485 7.871757575757577 1.4545575757575757
    endloop
  endfacet
  facet normal 0.0 0.9848066831361382 0.17365424512633695
    outer loop
      vertex 0.3566128484848485 7.871757575757577 1.4545575757575757
      vertex 0.0 8.0 0.7272848484848484
      vertex 0.12824169696969695 7.871757575757577 1.4545575757575757
    endloop
  endfacet
  facet normal 0.0 -2.191472043063712e-06 0.9999999999975987
    outer loop
      vertex 0.12824169696969695 7.871757575757577 1.4545575757575757
      vertex 0.12824169696969695 0.1282424242424242 1.454540606060606
      vertex 0.3566128484848485 7.871757575757577 1.4545575757575757
    endloop
  endfacet
  facet normal 0.0 -2.191472043063712e-06 0.9999999999975987
    outer loop
      vertex 0.3566128484848485 7.871757575757577 1.4545575757575757
      vertex 0.12824169696969695 0.1282424242424242 1.454540606060606
      vertex 0.3566128484848485 0.1282424242424242 1.454540606060606
    endloop
  endfacet
  facet normal 0.0 1.0 -0.0
    outer loop
      vertex 0.48484969696969693 8.0 1.4796412121212121e-05
      vertex 0.0 8.0 1.4796412121212121e-05
      vertex 0.48485333333333336 8.0 0.7272848484848484
    endloop
  endfacet
  facet normal 0.0 1.0 0.0
    outer loop
      vertex 0.48485333333333336 8.0 0.7272848484848484
      vertex 0.0 8.0 1.4796412121212121e-05
      vertex 0.0 8.0 0.7272848484848484
    endloop
  endfacet
  facet normal 1.0 0.0 0.0
    outer loop
      vertex 0.48484969696969693 3.151517575757576 0.2424290909090909
      vertex 0.48484969696969693 3.151517575757576 5.5486545454545455e-06
      vertex 0.48484969696969693 4.848484848484849 9.247757575757575e-06
    endloop
  endfacet
  facet normal 0.9999999999874998 9.536801078723004e-12 -5.000033333581323e-06
    outer loop
      vertex 0.48484969696969693 0.0 0.0
      vertex 0.48484969696969693 0.9696969696969697 1.849549090909091e-06
      vertex 0.48485333333333336 0.0 0.7272678787878788
    endloop
  endfacet
  facet normal 0.9999999999929687 3.750000000039833e-06 0.0
    outer loop
      vertex 0.48485333333333336 0.0 0.7272678787878788
      vertex 0.48484969696969693 0.9696969696969697 1.849549090909091e-06
      vertex 0.48484969696969693 0.9696969696969697 0.24242666666666668
    endloop
  endfacet
  facet normal 0.999999999971874 0.0 -7.500112501608989e-06
    outer loop
      vertex 0.48485333333333336 0.0 0.7272678787878788
      vertex 0.48484969696969693 0.9696969696969697 0.24242666666666668
      vertex 0.48484969696969693 1.2121212121212122 0.24242666666666668
    endloop
  endfacet
  facet normal 1.0 0.0 -0.0
    outer loop
      vertex 0.48484969696969693 5.090909090909091 9.247757575757575e-06
      vertex 0.48484969696969693 6.787878787878788 1.2946860606060607e-05
      vertex 0.48484969696969693 5.090906666666667 0.24243393939393942
    endloop
  endfacet
  facet normal 1.0 -0.0 0.0
    outer loop
      vertex 0.48484969696969693 5.090906666666667 0.24243393939393942
      vertex 0.48484969696969693 6.787878787878788 1.2946860606060607e-05
      vertex 0.48484969696969693 6.787878787878788 0.24243636363636367
    endloop
  endfacet
  facet normal 1.0 0.0 -0.0
    outer loop
      vertex 0.48484969696969693 4.848484848484849 9.247757575757575e-06
      vertex 0.48484969696969693 4.848484848484849 0.24243393939393942
      vertex 0.48484969696969693 3.151517575757576 0.2424290909090909
    endloop
  endfacet
  facet normal 0.9999999999718749 2.1428632652267226e-11 -7.500010713916358e-06
    outer loop
      vertex 0.48484969696969693 3.151517575757576 0.2424290909090909
      vertex 0.48484969696969693 4.848484848484849 0.24243393939393942
      vertex 0.48485333333333336 0.0 0.7272678787878788
    endloop
  endfacet
  facet normal 0.9999999999718738 0.0 -7.500150002921513e-06
    outer loop
      vertex 0.48484969696969693 3.151517575757576 0.2424290909090909
      vertex 0.48485333333333336 0.0 0.7272678787878788
      vertex 0.48484969696969693 2.9090933333333333 0.2424290909090909
    endloop
  endfacet
  facet normal 0.9999999999718743 1.0714392858234604e-11 -7.500085715225043e-06
    outer loop
      vertex 0.48484969696969693 2.9090933333333333 0.2424290909090909
      vertex 0.48485333333333336 0.0 0.7272678787878788
      vertex 0.48484969696969693 1.2121212121212122 0.24242666666666668
    endloop
  endfacet
  facet normal 1.0 0.0 0.0
    outer loop
      vertex 0.48484969696969693 2.9090933333333333 0.2424290909090909
      vertex 0.48484969696969693 1.2121212121212122 0.24242666666666668
      vertex 0.48484969696969693 2.9090933333333333 5.5486545454545455e-06
    endloop
  endfacet
  facet normal 1.0 0.0 0.0
    outer loop
      vertex 0.48484969696969693 2.9090933333333333 5.5486545454545455e-06
      vertex 0.48484969696969693 1.2121212121212122 0.24242666666666668
      vertex 0.48484969696969693 1.2121212121212122 1.849549090909091e-06
    endloop
  endfacet
  facet normal 1.0 0.0 0.0
    outer loop
      vertex 0.48484969696969693 7.03030303030303 1.2946860606060607e-05
      vertex 0.48484969696969693 8.0 1.4796412121212121e-05
      vertex 0.48484969696969693 7.03030303030303 0.24243636363636367
    endloop
  endfacet
  facet normal 0.9999999999867187 -1.2499908039716386e-06 -5.000018392089514e-06
    outer loop
      vertex 0.48484969696969693 7.03030303030303 0.24243636363636367
      vertex 0.48484969696969693 8.0 1.4796412121212121e-05
      vertex 0.48485333333333336 8.0 0.7272848484848484
    endloop
  endfacet
  facet normal 0.9999999999718749 0.0 -7.499999999921465e-06
    outer loop
      vertex 0.48484969696969693 7.03030303030303 0.24243636363636367
      vertex 0.48485333333333336 8.0 0.7272848484848484
      vertex 0.48484969696969693 6.787878787878788 0.24243636363636367
    endloop
  endfacet
  facet normal 0.9999999999718747 1.5909175275655446e-11 -7.500039772859651e-06
    outer loop
      vertex 0.48484969696969693 6.787878787878788 0.24243636363636367
      vertex 0.48485333333333336 8.0 0.7272848484848484
      vertex 0.48485333333333336 0.0 0.7272678787878788
    endloop
  endfacet
  facet normal 0.9999999999718743 1.0714431124871511e-11 -7.500112501823274e-06
    outer loop
      vertex 0.48484969696969693 6.787878787878788 0.24243636363636367
      vertex 0.48485333333333336 0.0 0.7272678787878788
      vertex 0.48484969696969693 5.090906666666667 0.24243393939393942
    endloop
  endfacet
  facet normal 0.9999999999718733 0.0 -7.500225006671651e-06
    outer loop
      vertex 0.48484969696969693 5.090906666666667 0.24243393939393942
      vertex 0.48485333333333336 0.0 0.7272678787878788
      vertex 0.48484969696969693 4.848484848484849 0.24243393939393942
    endloop
  endfacet
  facet normal 0.0 -1.0 0.0
    outer loop
      vertex 0.0 0.0 0.0
      vertex 0.48484969696969693 0.0 0.0
      vertex 0.0 0.0 0.727270303030303
    endloop
  endfacet
  facet normal 0.0 -1.0 0.0
    outer loop
      vertex 0.0 0.0 0.727270303030303
      vertex 0.48484969696969693 0.0 0.0
      vertex 0.48485333333333336 0.0 0.7272678787878788
    endloop
  endfacet
  facet normal -1.0 0.0 -0.0
    outer loop
      vertex 0.0 8.0 0.7272848484848484
      vertex 0.0 8.0 1.4796412121212121e-05
      vertex 0.0 7.03030303030303 1.2946860606060607e-05
    endloop
  endfacet
  facet normal -0.9999999996874981 -1.5000034053360187e-05 2.0000068109890905e-05
    outer loop
      vertex 0.0 7.03030303030303 1.2946860606060607e-05
      vertex 4.848484848462783e-06 7.03030303030303 0.24243636363636367
      vertex 0.0 8.0 0.7272848484848484
    endloop
  endfacet
  facet normal -0.99999999995 0.0 -9.999999999454495e-06
    outer loop
      vertex 0.0 8.0 0.7272848484848484
      vertex 4.848484848462783e-06 7.03030303030303 0.24243636363636367
      vertex 4.848484848462783e-06 6.787878787878788 0.24243636363636367
    endloop
  endfacet
  facet normal -0.9999999999499996 1.818190082573473e-11 -1.0000045454206551e-05
    outer loop
      vertex 0.0 8.0 0.7272848484848484
      vertex 4.848484848462783e-06 6.787878787878788 0.24243636363636367
      vertex 0.0 0.0 0.727270303030303
    endloop
  endfacet
  facet normal -0.9999999999499986 -0.0 -1.00001500017045e-05
    outer loop
      vertex 4.848484848462783e-06 3.151517575757576 0.2424290909090909
      vertex 4.848484848462783e-06 2.9090933333333333 0.2424290909090909
      vertex 0.0 0.0 0.727270303030303
    endloop
  endfacet
  facet normal -0.9999999998000006 -4.35965529163054e-11 1.999996293597767e-05
    outer loop
      vertex 4.848484848462783e-06 4.848484848484849 0.24243393939393942
      vertex 0.0 4.848484848484849 9.247757575757575e-06
      vertex 0.0 3.151517575757576 5.5486545454545455e-06
    endloop
  endfacet
  facet normal -0.9999999997999989 -5.71431038052883e-11 2.000005776007578e-05
    outer loop
      vertex 0.0 3.151517575757576 5.5486545454545455e-06
      vertex 4.848484848462783e-06 3.151517575757576 0.2424290909090909
      vertex 4.848484848462783e-06 4.848484848484849 0.24243393939393942
    endloop
  endfacet
  facet normal -0.9999999999500002 2.8571367344722753e-11 -9.999964284888167e-06
    outer loop
      vertex 4.848484848462783e-06 4.848484848484849 0.24243393939393942
      vertex 4.848484848462783e-06 3.151517575757576 0.2424290909090909
      vertex 0.0 0.0 0.727270303030303
    endloop
  endfacet
  facet normal -0.9999999999499976 0.0 -1.0000250005704607e-05
    outer loop
      vertex 4.848484848462783e-06 4.848484848484849 0.24243393939393942
      vertex 0.0 0.0 0.727270303030303
      vertex 4.848484848462783e-06 5.090906666666667 0.24243393939393942
    endloop
  endfacet
  facet normal -0.999999999949999 1.4285836735610498e-11 -1.0000100000740204e-05
    outer loop
      vertex 4.848484848462783e-06 5.090906666666667 0.24243393939393942
      vertex 0.0 0.0 0.727270303030303
      vertex 4.848484848462783e-06 6.787878787878788 0.24243636363636367
    endloop
  endfacet
  facet normal -0.9999999998000008 -2.857133480629273e-11 1.9999962935691958e-05
    outer loop
      vertex 4.848484848462783e-06 5.090906666666667 0.24243393939393942
      vertex 4.848484848462783e-06 6.787878787878788 0.24243636363636367
      vertex 0.0 5.090909090909091 9.247757575757575e-06
    endloop
  endfacet
  facet normal -0.9999999997999987 -4.359671990136229e-11 2.0000068112140926e-05
    outer loop
      vertex 0.0 5.090909090909091 9.247757575757575e-06
      vertex 4.848484848462783e-06 6.787878787878788 0.24243636363636367
      vertex 0.0 6.787878787878788 1.2946860606060607e-05
    endloop
  endfacet
  facet normal -0.999999999800001 -3.8146859560870294e-11 1.9999952583821403e-05
    outer loop
      vertex 0.0 0.9696969696969697 1.849549090909091e-06
      vertex 0.0 0.0 0.0
      vertex 4.848484848462783e-06 0.9696969696969697 0.24242666666666668
    endloop
  endfacet
  facet normal -0.9999999999875 4.999999999914745e-06 0.0
    outer loop
      vertex 4.848484848462783e-06 0.9696969696969697 0.24242666666666668
      vertex 0.0 0.0 0.0
      vertex 0.0 0.0 0.727270303030303
    endloop
  endfacet
  facet normal -0.999999999949999 0.0 -1.0000100000454485e-05
    outer loop
      vertex 4.848484848462783e-06 0.9696969696969697 0.24242666666666668
      vertex 0.0 0.0 0.727270303030303
      vertex 4.848484848462783e-06 1.2121212121212122 0.24242666666666668
    endloop
  endfacet
  facet normal -0.9999999999499993 1.4285785713938181e-11 -1.0000064285633055e-05
    outer loop
      vertex 4.848484848462783e-06 1.2121212121212122 0.24242666666666668
      vertex 0.0 0.0 0.727270303030303
      vertex 4.848484848462783e-06 2.9090933333333333 0.2424290909090909
    endloop
  endfacet
  facet normal -0.999999999800001 -2.857132001760023e-11 1.9999952583821403e-05
    outer loop
      vertex 4.848484848462783e-06 1.2121212121212122 0.24242666666666668
      vertex 4.848484848462783e-06 2.9090933333333333 0.2424290909090909
      vertex 0.0 1.2121212121212122 1.849549090909091e-06
    endloop
  endfacet
  facet normal -0.9999999997999989 -4.359666362619795e-11 2.000005776007578e-05
    outer loop
      vertex 0.0 1.2121212121212122 1.849549090909091e-06
      vertex 4.848484848462783e-06 2.9090933333333333 0.2424290909090909
      vertex 0.0 2.9090933333333333 5.5486545454545455e-06
    endloop
  endfacet
  facet normal 0.0 1.9073474999965306e-06 -0.999999999998181
    outer loop
      vertex 0.48484969696969693 0.0 0.0
      vertex 0.0 0.0 0.0
      vertex 0.48484969696969693 0.9696969696969697 1.849549090909091e-06
    endloop
  endfacet
  facet normal 0.0 1.9073474999965306e-06 -0.999999999998181
    outer loop
      vertex 0.48484969696969693 0.9696969696969697 1.849549090909091e-06
      vertex 0.0 0.0 0.0
      vertex 0.0 0.9696969696969697 1.849549090909091e-06
    endloop
  endfacet
  facet normal -0.0 1.0 0.0
    outer loop
      vertex 4.848484848462783e-06 0.9696969696969697 0.24242666666666668
      vertex 0.48484969696969693 0.9696969696969697 0.24242666666666668
      vertex 0.0 0.9696969696969697 1.849549090909091e-06
    endloop
  endfacet
  facet normal 0.0 1.0 0.0
    outer loop
      vertex 0.0 0.9696969696969697 1.849549090909091e-06
      vertex 0.48484969696969693 0.9696969696969697 0.24242666666666668
      vertex 0.48484969696969693 0.9696969696969697 1.849549090909091e-06
    endloop
  endfacet
  facet normal -0.0 -1.0 -0.0
    outer loop
      vertex 0.48484969696969693 1.2121212121212122 0.24242666666666668
      vertex 4.848484848462783e-06 1.2121212121212122 0.24242666666666668
      vertex 0.48484969696969693 1.2121212121212122 1.849549090909091e-06
    endloop
  endfacet
  facet normal 0.0 -1.0 0.0
    outer loop
      vertex 0.48484969696969693 1.2121212121212122 1.849549090909091e-06
      vertex 4.848484848462783e-06 1.2121212121212122 0.24242666666666668
      vertex 0.0 1.2121212121212122 1.849549090909091e-06
    endloop
  endfacet
  facet normal 0.0 0.0 -1.0
    outer loop
      vertex 4.848484848462783e-06 1.2121212121212122 0.24242666666666668
      vertex 0.48484969696969693 1.2121212121212122 0.24242666666666668
      vertex 4.848484848462783e-06 0.9696969696969697 0.24242666666666668
    endloop
  endfacet
  facet normal 0.0 0.0 -1.0
    outer loop
      vertex 4.848484848462783e-06 0.9696969696969697 0.24242666666666668
      vertex 0.48484969696969693 1.2121212121212122 0.24242666666666668
      vertex 0.48484969696969693 0.9696969696969697 0.24242666666666668
    endloop
  endfacet
  facet normal -0.0 1.0 0.0
    outer loop
      vertex 4.848484848462783e-06 2.9090933333333333 0.2424290909090909
      vertex 0.48484969696969693 2.9090933333333333 0.2424290909090909
      vertex 0.0 2.9090933333333333 5.5486545454545455e-06
    endloop
  endfacet
  facet normal 0.0 1.0 0.0
    outer loop
      vertex 0.0 2.9090933333333333 5.5486545454545455e-06
      vertex 0.48484969696969693 2.9090933333333333 0.2424290909090909
      vertex 0.48484969696969693 2.9090933333333333 5.5486545454545455e-06
    endloop
  endfacet
  facet normal -0.0 -1.0 -0.0
    outer loop
      vertex 0.48484969696969693 3.151517575757576 0.2424290909090909
      vertex 4.848484848462783e-06 3.151517575757576 0.2424290909090909
      vertex 0.48484969696969693 3.151517575757576 5.5486545454545455e-06
    endloop
  endfacet
  facet normal 0.0 -1.0 0.0
    outer loop
      vertex 0.48484969696969693 3.151517575757576 5.5486545454545455e-06
      vertex 4.848484848462783e-06 3.151517575757576 0.2424290909090909
      vertex 0.0 3.151517575757576 5.5486545454545455e-06
    endloop
  endfacet
  facet normal 0.0 0.0 -1.0
    outer loop
      vertex 4.848484848462783e-06 3.151517575757576 0.2424290909090909
      vertex 0.48484969696969693 3.151517575757576 0.2424290909090909
      vertex 4.848484848462783e-06 2.9090933333333333 0.2424290909090909
    endloop
  endfacet
  facet normal 0.0 0.0 -1.0
    outer loop
      vertex 4.848484848462783e-06 2.9090933333333333 0.2424290909090909
      vertex 0.48484969696969693 3.151517575757576 0.2424290909090909
      vertex 0.48484969696969693 2.9090933333333333 0.2424290909090909
    endloop
  endfacet
  facet normal -0.0 1.0 0.0
    outer loop
      vertex 4.848484848462783e-06 4.848484848484849 0.24243393939393942
      vertex 0.48484969696969693 4.848484848484849 0.24243393939393942
      vertex 0.0 4.848484848484849 9.247757575757575e-06
    endloop
  endfacet
  facet normal 0.0 1.0 0.0
    outer loop
      vertex 0.0 4.848484848484849 9.247757575757575e-06
      vertex 0.48484969696969693 4.848484848484849 0.24243393939393942
      vertex 0.48484969696969693 4.848484848484849 9.247757575757575e-06
    endloop
  endfacet
  facet normal -0.0 -0.9999999999500002 -9.999981467268386e-06
    outer loop
      vertex 0.48484969696969693 5.090906666666667 0.24243393939393942
      vertex 4.848484848462783e-06 5.090906666666667 0.24243393939393942
      vertex 0.48484969696969693 5.090909090909091 9.247757575757575e-06
    endloop
  endfacet
  facet normal -0.0 -0.9999999999500002 -9.999981467268386e-06
    outer loop
      vertex 0.48484969696969693 5.090909090909091 9.247757575757575e-06
      vertex 4.848484848462783e-06 5.090906666666667 0.24243393939393942
      vertex 0.0 5.090909090909091 9.247757575757575e-06
    endloop
  endfacet
  facet normal 0.0 0.0 -1.0
    outer loop
      vertex 4.848484848462783e-06 5.090906666666667 0.24243393939393942
      vertex 0.48484969696969693 5.090906666666667 0.24243393939393942
      vertex 4.848484848462783e-06 4.848484848484849 0.24243393939393942
    endloop
  endfacet
  facet normal 0.0 0.0 -1.0
    outer loop
      vertex 4.848484848462783e-06 4.848484848484849 0.24243393939393942
      vertex 0.48484969696969693 5.090906666666667 0.24243393939393942
      vertex 0.48484969696969693 4.848484848484849 0.24243393939393942
    endloop
  endfacet
  facet normal -0.0 1.0 0.0
    outer loop
      vertex 4.848484848462783e-06 6.787878787878788 0.24243636363636367
      vertex 0.48484969696969693 6.787878787878788 0.24243636363636367
      vertex 0.0 6.787878787878788 1.2946860606060607e-05
    endloop
  endfacet
  facet normal 0.0 1.0 0.0
    outer loop
      vertex 0.0 6.787878787878788 1.2946860606060607e-05
      vertex 0.48484969696969693 6.787878787878788 0.24243636363636367
      vertex 0.48484969696969693 6.787878787878788 1.2946860606060607e-05
    endloop
  endfacet
  facet normal -0.0 -1.0 -0.0
    outer loop
      vertex 0.48484969696969693 7.03030303030303 0.24243636363636367
      vertex 4.848484848462783e-06 7.03030303030303 0.24243636363636367
      vertex 0.48484969696969693 7.03030303030303 1.2946860606060607e-05
    endloop
  endfacet
  facet normal 0.0 -1.0 0.0
    outer loop
      vertex 0.48484969696969693 7.03030303030303 1.2946860606060607e-05
      vertex 4.848484848462783e-06 7.03030303030303 0.24243636363636367
      vertex 0.0 7.03030303030303 1.2946860606060607e-05
    endloop
  endfacet
  facet normal 0.0 0.0 -1.0
    outer loop
      vertex 4.848484848462783e-06 7.03030303030303 0.24243636363636367
      vertex 0.48484969696969693 7.03030303030303 0.24243636363636367
      vertex 4.848484848462783e-06 6.787878787878788 0.24243636363636367
    endloop
  endfacet
  facet normal 0.0 0.0 -1.0
    outer loop
      vertex 4.848484848462783e-06 6.787878787878788 0.24243636363636367
      vertex 0.48484969696969693 7.03030303030303 0.24243636363636367
      vertex 0.48484969696969693 6.787878787878788 0.24243636363636367
    endloop
  endfacet
endsolid thingi10k_237735
