solid thingi10k_311329
  facet normal 1.0 0.0 0.0
    outer loop
      vertex 2.636367680061433 8.0 0.9093305580281189
      vertex 2.636367680061433 3.4548013649596974 0.9093305580281189
      vertex 2.636367680061433 3.4548013649596974 0.0
    endloop
  endfacet
  facet normal 1.0 0.0 0.0
    outer loop
      vertex 2.636367680061433 8.0 0.9093305580281189
      vertex 2.636367680061433 3.4548013649596974 0.0
      vertex 2.636367680061433 8.0 0.0
    endloop
  endfacet
  facet normal -1.0 0.0 0.0
    outer loop
      vertex 0.8184336848982645 8.0 0.0
      vertex 0.8184336848982645 3.4548013649596974 0.0
      vertex 0.8184336848982645 3.4548013649596974 0.9093305580281189
    endloop
  endfacet
  facet normal -1.0 0.0 0.0
    outer loop
      vertex 0.8184336848982645 8.0 0.0
      vertex 0.8184336848982645 3.4548013649596974 0.9093305580281189
      vertex 0.8184336848982645 8.0 0.9093305580281189
    endloop
  endfacet
  facet normal 0.0 1.0 0.0
    outer loop
      vertex 3.4544379778848584 3.4548013649596974 0.9093305580281189
      vertex 3.4544379778848584 3.4548013649596974 0.0
      vertex 2.636367680061433 3.4548013649596974 0.0
    endloop
  endfacet
  facet normal 0.0 1.0 0.0
    outer loop
      vertex 3.4544379778848584 3.4548013649596974 0.9093305580281189
      vertex 2.636367680061433 3.4548013649596974 0.0
      vertex 2.636367680061433 3.4548013649596974 0.9093305580281189
    endloop
  endfacet
  facet normal 0.0 1.0 0.0
    outer loop
      vertex 0.8184336848982645 3.4548013649596974 0.9093305580281189
      vertex 0.8184336848982645 3.4548013649596974 0.0
      vertex 0.0 3.4548013649596974 0.0
    endloop
  endfacet
  facet normal 0.0 1.0 0.0
    outer loop
      vertex 0.8184336848982645 3.4548013649596974 0.9093305580281189
      vertex 0.0 3.4548013649596974 0.0
      vertex 0.0 3.4548013649596974 0.9093305580281189
    endloop
  endfacet
  facet normal -1.0 0.0 0.0
    outer loop
      vertex 0.0 3.4548013649596974 0.0
      vertex 0.0 0.0 0.0
      vertex 0.0 0.0 0.9093305580281189
    endloop
  endfacet
  facet normal -1.0 0.0 0.0
    outer loop
      vertex 0.0 3.4548013649596974 0.0
      vertex 0.0 0.0 0.9093305580281189
      vertex 0.0 3.4548013649596974 0.9093305580281189
    endloop
  endfacet
  facet normal 0.0 0.0 -1.0
    outer loop
      vertex 0.0 0.0 0.0
      vertex 0.8184336848982645 3.4548013649596974 0.0
      vertex 3.4544379778848584 0.0 0.0
    endloop
  endfacet
  facet normal 0.0 0.0 -1.0
    outer loop
      vertex 0.0 3.4548013649596974 0.0
      vertex 0.8184336848982645 3.4548013649596974 0.0
      vertex 0.0 0.0 0.0
    endloop
  endfacet
  facet normal 0.0 0.0 -1.0
    outer loop
      vertex 0.8184336848982645 3.4548013649596974 0.0
      vertex 2.636367680061433 3.4548013649596974 0.0
      vertex 3.4544379778848584 0.0 0.0
    endloop
  endfacet
  facet normal -0.0 -0.0 -1.0
    outer loop
      vertex 3.4544379778848584 3.4548013649596974 0.0
      vertex 3.4544379778848584 0.0 0.0
      vertex 2.636367680061433 3.4548013649596974 0.0
    endloop
  endfacet
  facet normal 0.0 0.0 1.0
    outer loop
      vertex 2.636367680061433 3.4548013649596974 0.9093305580281189
      vertex 0.8184336848982645 3.4548013649596974 0.9093305580281189
      vertex 3.4544379778848584 0.0 0.9093305580281189
    endloop
  endfacet
  facet normal 0.0 0.0 1.0
    outer loop
      vertex 3.4544379778848584 3.4548013649596974 0.9093305580281189
      vertex 2.636367680061433 3.4548013649596974 0.9093305580281189
      vertex 3.4544379778848584 0.0 0.9093305580281189
    endloop
  endfacet
  facet normal 0.0 0.0 1.0
    outer loop
      vertex 0.0 0.0 0.9093305580281189
      vertex 3.4544379778848584 0.0 0.9093305580281189
      vertex 0.8184336848982645 3.4548013649596974 0.9093305580281189
    endloop
  endfacet
  facet normal -0.0 0.0 1.0
    outer loop
      vertex 0.0 3.4548013649596974 0.9093305580281189
      vertex 0.0 0.0 0.9093305580281189
      vertex 0.8184336848982645 3.4548013649596974 0.9093305580281189
    endloop
  endfacet
  facet normal 0.0 -1.0 0.0
    outer loop
      vertex 0.0 0.0 0.9093305580281189
      vertex 0.0 0.0 0.0
      vertex 3.4544379778848584 0.0 0.0
    endloop
  endfacet
  facet normal 0.0 -1.0 0.0
    outer loop
      vertex 0.0 0.0 0.9093305580281189
      vertex 3.4544379778848584 0.0 0.0
      vertex 3.4544379778848584 0.0 0.9093305580281189
    endloop
  endfacet
  facet normal 0.0 0.0 1.0
    outer loop
      vertex 0.8184336848982645 8.0 0.9093305580281189
      vertex 0.8184336848982645 3.4548013649596974 0.9093305580281189
      vertex 2.636367680061433 3.4548013649596974 0.9093305580281189
    endloop
  endfacet
  facet normal -0.0 0.0 1.0
    outer loop
      vertex 0.8184336848982645 8.0 0.9093305580281189
      vertex 2.636367680061433 3.4548013649596974 0.9093305580281189
      vertex 2.636367680061433 8.0 0.9093305580281189
    endloop
  endfacet
  facet normal 0.0 -0.0 -1.0
    outer loop
      vertex 2.636367680061433 8.0 0.0
      vertex 2.636367680061433 3.4548013649596974 0.0
      vertex 0.8184336848982645 3.4548013649596974 0.0
    endloop
  endfacet
  facet normal -0.0 0.0 -1.0
    outer loop
      vertex 2.636367680061433 8.0 0.0
      vertex 0.8184336848982645 3.4548013649596974 0.0
      vertex 0.8184336848982645 8.0 0.0
    endloop
  endfacet
  facet normal 0.0 1.0 0.0
    outer loop
      vertex 2.636367680061433 8.0 0.9093305580281189
      vertex 2.636367680061433 8.0 0.0
      vertex 0.8184336848982645 8.0 0.0
    endloop
  endfacet
  facet normal 0.0 1.0 0.0
    outer loop
      vertex 2.636367680061433 8.0 0.9093305580281189
      vertex 0.8184336848982645 8.0 0.0
      vertex 0.8184336848982645 8.0 0.9093305580281189
    endloop
  endfacet
  facet normal 1.0 0.0 0.0
    outer loop
      vertex 3.4544379778848584 3.4548013649596974 0.9093305580281189
      vertex 3.4544379778848584 0.0 0.9093305580281189
      vertex 3.4544379778848584 0.0 0.0
    endloop
  endfacet
  facet normal 1.0 0.0 0.0
    outer loop
      vertex 3.4544379778848584 3.4548013649596974 0.9093305580281189
      vertex 3.4544379778848584 0.0 0.0
      vertex 3.4544379778848584 3.4548013649596974 0.0
    endloop
  endfacet
endsolid thingi10k_311329
