solid thingi10k_311327
  facet normal 0.0 0.0 -1.0
    outer loop
      vertex 3.343355204912505 3.610012979392516 0.0
      vertex 8.0 5.333155489600227 0.0
      vertex 3.6324121983720117 3.177227372757148 0.0
    endloop
  endfacet
  facet normal 0.0 -0.0 -1.0
    outer loop
      vertex 3.734008821638301 2.6665777448001133 0.0
      vertex 8.0 0.0 0.0
      vertex 3.6324121983720117 2.1561947552904033 0.0
    endloop
  endfacet
  facet normal 0.0 -0.0 -1.0
    outer loop
      vertex 3.343355204912505 1.7234092122312028 0.0
      vertex 8.0 0.0 0.0
      vertex 2.910569598277137 1.434085453172036 0.0
    endloop
  endfacet
  facet normal 0.9807771122234227 -0.19513138173723873 0.0
    outer loop
      vertex 1.1674278058443601 3.177227372757148 0.0
      vertex 1.1674278058443601 3.177227372757148 0.2669244322671569
      vertex 1.0658310554257349 2.6665777448001133 0.2669244322671569
    endloop
  endfacet
  facet normal 0.9807771122234227 -0.19513138173723873 0.0
    outer loop
      vertex 1.1674278058443601 3.177227372757148 0.0
      vertex 1.0658310554257349 2.6665777448001133 0.2669244322671569
      vertex 1.0658310554257349 2.6665777448001133 0.0
    endloop
  endfacet
  facet normal 0.0 0.0 -1.0
    outer loop
      vertex 2.910569598277137 3.8990700364281903 0.0
      vertex 8.0 5.333155489600227 0.0
      vertex 3.343355204912505 3.610012979392516 0.0
    endloop
  endfacet
  facet normal 0.0 0.0 -1.0
    outer loop
      vertex 2.910569598277137 3.8990700364281903 0.0
      vertex 2.3999199703201017 4.000666532542145 0.0
      vertex 8.0 5.333155489600227 0.0
    endloop
  endfacet
  facet normal 0.0 0.0 -1.0
    outer loop
      vertex 0.0 5.333155489600227 0.0
      vertex 8.0 5.333155489600227 0.0
      vertex 2.3999199703201017 4.000666532542145 0.0
    endloop
  endfacet
  facet normal -0.0 0.0 -1.0
    outer loop
      vertex 2.3999199703201017 4.000666532542145 0.0
      vertex 1.8895369808103921 3.8990700364281903 0.0
      vertex 0.0 5.333155489600227 0.0
    endloop
  endfacet
  facet normal 0.8315771442451092 -0.5554092663695384 0.0
    outer loop
      vertex 1.4564847357276987 3.610012979392516 0.0
      vertex 1.4564847357276987 3.610012979392516 0.2669244322671569
      vertex 1.1674278058443601 3.177227372757148 0.2669244322671569
    endloop
  endfacet
  facet normal 0.8315771442451092 -0.5554092663695384 0.0
    outer loop
      vertex 1.4564847357276987 3.610012979392516 0.0
      vertex 1.1674278058443601 3.177227372757148 0.2669244322671569
      vertex 1.1674278058443601 3.177227372757148 0.0
    endloop
  endfacet
  facet normal 0.0 0.0 -1.0
    outer loop
      vertex 3.343355204912505 1.7234092122312028 0.0
      vertex 3.6324121983720117 2.1561947552904033 0.0
      vertex 8.0 0.0 0.0
    endloop
  endfacet
  facet normal 0.0 0.0 -1.0
    outer loop
      vertex 3.6324121983720117 3.177227372757148 0.0
      vertex 8.0 5.333155489600227 0.0
      vertex 3.734008821638301 2.6665777448001133 0.0
    endloop
  endfacet
  facet normal 0.0 0.0 -1.0
    outer loop
      vertex 8.0 0.0 0.0
      vertex 3.734008821638301 2.6665777448001133 0.0
      vertex 8.0 5.333155489600227 0.0
    endloop
  endfacet
  facet normal 0.5551728845149756 -0.8317349747962518 0.0
    outer loop
      vertex 1.8895369808103921 3.8990700364281903 0.0
      vertex 1.8895369808103921 3.8990700364281903 0.2669244322671569
      vertex 1.4564847357276987 3.610012979392516 0.2669244322671569
    endloop
  endfacet
  facet normal 0.5551728845149756 -0.8317349747962518 0.0
    outer loop
      vertex 1.8895369808103921 3.8990700364281903 0.0
      vertex 1.4564847357276987 3.610012979392516 0.2669244322671569
      vertex 1.4564847357276987 3.610012979392516 0.0
    endloop
  endfacet
  facet normal 0.0 -0.0 -1.0
    outer loop
      vertex 2.910569598277137 1.434085453172036 0.0
      vertex 8.0 0.0 0.0
      vertex 2.3999199703201017 1.3324889570580816 0.0
    endloop
  endfacet
  facet normal 0.0 0.0 -1.0
    outer loop
      vertex 0.0 0.0 0.0
      vertex 2.3999199703201017 1.3324889570580816 0.0
      vertex 8.0 0.0 0.0
    endloop
  endfacet
  facet normal 0.19522896931631584 -0.9807576915526531 0.0
    outer loop
      vertex 2.3999199703201017 4.000666532542145 0.0
      vertex 2.3999199703201017 4.000666532542145 0.2669244322671569
      vertex 1.8895369808103921 3.8990700364281903 0.2669244322671569
    endloop
  endfacet
  facet normal 0.19522896931631584 -0.9807576915526531 0.0
    outer loop
      vertex 2.3999199703201017 4.000666532542145 0.0
      vertex 1.8895369808103921 3.8990700364281903 0.2669244322671569
      vertex 1.8895369808103921 3.8990700364281903 0.0
    endloop
  endfacet
  facet normal 0.0 -0.0 -1.0
    outer loop
      vertex 1.0658310554257349 2.6665777448001133 0.0
      vertex 1.1674278058443601 2.1561947552904033 0.0
      vertex 0.0 0.0 0.0
    endloop
  endfacet
  facet normal -0.19513091190550635 -0.9807772056990952 -0.0
    outer loop
      vertex 2.3999199703201017 4.000666532542145 0.2669244322671569
      vertex 2.3999199703201017 4.000666532542145 0.0
      vertex 2.910569598277137 3.8990700364281903 0.2669244322671569
    endloop
  endfacet
  facet normal -0.19513091190550635 -0.9807772056990952 0.0
    outer loop
      vertex 2.910569598277137 3.8990700364281903 0.0
      vertex 2.910569598277137 3.8990700364281903 0.2669244322671569
      vertex 2.3999199703201017 4.000666532542145 0.0
    endloop
  endfacet
  facet normal -0.5554094353198812 -0.8315770314033755 0.0
    outer loop
      vertex 3.343355204912505 3.610012979392516 0.0
      vertex 3.343355204912505 3.610012979392516 0.2669244322671569
      vertex 2.910569598277137 3.8990700364281903 0.2669244322671569
    endloop
  endfacet
  facet normal -0.5554094353198812 -0.8315770314033755 0.0
    outer loop
      vertex 3.343355204912505 3.610012979392516 0.0
      vertex 2.910569598277137 3.8990700364281903 0.2669244322671569
      vertex 2.910569598277137 3.8990700364281903 0.0
    endloop
  endfacet
  facet normal -0.8315770878242426 -0.5554093508447189 0.0
    outer loop
      vertex 3.6324121983720117 3.177227372757148 0.0
      vertex 3.6324121983720117 3.177227372757148 0.2669244322671569
      vertex 3.343355204912505 3.610012979392516 0.2669244322671569
    endloop
  endfacet
  facet normal -0.8315770878242426 -0.5554093508447189 0.0
    outer loop
      vertex 3.6324121983720117 3.177227372757148 0.0
      vertex 3.343355204912505 3.610012979392516 0.2669244322671569
      vertex 3.343355204912505 3.610012979392516 0.0
    endloop
  endfacet
  facet normal -0.9807771589612851 -0.1951311468213882 0.0
    outer loop
      vertex 3.734008821638301 2.6665777448001133 0.0
      vertex 3.734008821638301 2.6665777448001133 0.2669244322671569
      vertex 3.6324121983720117 3.177227372757148 0.2669244322671569
    endloop
  endfacet
  facet normal -0.9807771589612851 -0.1951311468213882 0.0
    outer loop
      vertex 3.734008821638301 2.6665777448001133 0.0
      vertex 3.6324121983720117 3.177227372757148 0.2669244322671569
      vertex 3.6324121983720117 3.177227372757148 0.0
    endloop
  endfacet
  facet normal -0.9807576447687885 0.19522920434089483 0.0
    outer loop
      vertex 3.6324121983720117 2.1561947552904033 0.0
      vertex 3.6324121983720117 2.1561947552904033 0.2669244322671569
      vertex 3.734008821638301 2.6665777448001133 0.2669244322671569
    endloop
  endfacet
  facet normal -0.9807576447687885 0.19522920434089483 0.0
    outer loop
      vertex 3.6324121983720117 2.1561947552904033 0.0
      vertex 3.734008821638301 2.6665777448001133 0.2669244322671569
      vertex 3.734008821638301 2.6665777448001133 0.0
    endloop
  endfacet
  facet normal 0.0 0.0 1.0
    outer loop
      vertex 1.0658310554257349 2.6665777448001133 0.2669244322671569
      vertex 0.0 0.0 0.2669244322671569
      vertex 1.1674278058443601 2.1561947552904033 0.2669244322671569
    endloop
  endfacet
  facet normal -0.831577050140807 0.5554094072655901 0.0
    outer loop
      vertex 3.343355204912505 1.7234092122312028 0.0
      vertex 3.343355204912505 1.7234092122312028 0.2669244322671569
      vertex 3.6324121983720117 2.1561947552904033 0.2669244322671569
    endloop
  endfacet
  facet normal -0.831577050140807 0.5554094072655901 0.0
    outer loop
      vertex 3.343355204912505 1.7234092122312028 0.0
      vertex 3.6324121983720117 2.1561947552904033 0.2669244322671569
      vertex 3.6324121983720117 2.1561947552904033 0.0
    endloop
  endfacet
  facet normal -0.5557636573228601 0.8313403377673421 0.0
    outer loop
      vertex 2.910569598277137 1.434085453172036 0.0
      vertex 2.910569598277137 1.434085453172036 0.2669244322671569
      vertex 3.343355204912505 1.7234092122312028 0.2669244322671569
    endloop
  endfacet
  facet normal -0.5557636573228601 0.8313403377673421 0.0
    outer loop
      vertex 2.910569598277137 1.434085453172036 0.0
      vertex 3.343355204912505 1.7234092122312028 0.2669244322671569
      vertex 3.343355204912505 1.7234092122312028 0.0
    endloop
  endfacet
  facet normal 0.0 0.0 1.0
    outer loop
      vertex 1.8895369808103921 3.8990700364281903 0.2669244322671569
      vertex 0.0 5.333155489600227 0.2669244322671569
      vertex 1.4564847357276987 3.610012979392516 0.2669244322671569
    endloop
  endfacet
  facet normal -0.19513091190550516 0.9807772056990957 0.0
    outer loop
      vertex 2.910569598277137 1.434085453172036 0.2669244322671569
      vertex 2.910569598277137 1.434085453172036 0.0
      vertex 2.3999199703201017 1.3324889570580816 0.0
    endloop
  endfacet
  facet normal -0.19513091190550516 0.9807772056990957 0.0
    outer loop
      vertex 2.910569598277137 1.434085453172036 0.2669244322671569
      vertex 2.3999199703201017 1.3324889570580816 0.0
      vertex 2.3999199703201017 1.3324889570580816 0.2669244322671569
    endloop
  endfacet
  facet normal 0.0 0.0 1.0
    outer loop
      vertex 2.3999199703201017 4.000666532542145 0.2669244322671569
      vertex 0.0 5.333155489600227 0.2669244322671569
      vertex 1.8895369808103921 3.8990700364281903 0.2669244322671569
    endloop
  endfacet
  facet normal 0.0 -0.0 1.0
    outer loop
      vertex 3.734008821638301 2.6665777448001133 0.2669244322671569
      vertex 4.667701326411838 2.882284545374295 0.2669244322671569
      vertex 3.6324121983720117 3.177227372757148 0.2669244322671569
    endloop
  endfacet
  facet normal 0.0 -0.0 1.0
    outer loop
      vertex 4.667701326411838 2.882284545374295 0.2669244322671569
      vertex 4.667701326411838 3.99986661720017 0.2669244322671569
      vertex 3.6324121983720117 3.177227372757148 0.2669244322671569
    endloop
  endfacet
  facet normal 0.0 0.0 1.0
    outer loop
      vertex 8.0 5.333155489600227 0.2669244322671569
      vertex 2.910569598277137 3.8990700364281903 0.2669244322671569
      vertex 4.667701326411838 3.99986661720017 0.2669244322671569
    endloop
  endfacet
  facet normal 0.0 -0.0 1.0
    outer loop
      vertex 3.343355204912505 3.610012979392516 0.2669244322671569
      vertex 4.667701326411838 3.99986661720017 0.2669244322671569
      vertex 2.910569598277137 3.8990700364281903 0.2669244322671569
    endloop
  endfacet
  facet normal -0.0 0.0 1.0
    outer loop
      vertex 0.0 5.333155489600227 0.2669244322671569
      vertex 2.3999199703201017 4.000666532542145 0.2669244322671569
      vertex 8.0 5.333155489600227 0.2669244322671569
    endloop
  endfacet
  facet normal -0.0 0.0 1.0
    outer loop
      vertex 2.910569598277137 1.434085453172036 0.2669244322671569
      vertex 4.667701326411838 1.3330222339527316 0.2669244322671569
      vertex 3.343355204912505 1.7234092122312028 0.2669244322671569
    endloop
  endfacet
  facet normal 1.0 0.0 0.0
    outer loop
      vertex 8.0 0.0 0.0
      vertex 8.0 5.333155489600227 0.0
      vertex 8.0 5.333155489600227 0.2669244322671569
    endloop
  endfacet
  facet normal -0.0 0.0 1.0
    outer loop
      vertex 2.3999199703201017 1.3324889570580816 0.2669244322671569
      vertex 8.0 0.0 0.2669244322671569
      vertex 2.910569598277137 1.434085453172036 0.2669244322671569
    endloop
  endfacet
  facet normal 1.0 -0.0 0.0
    outer loop
      vertex 8.0 0.0 0.2669244322671569
      vertex 8.0 0.0 0.0
      vertex 8.0 5.333155489600227 0.2669244322671569
    endloop
  endfacet
  facet normal -1.0 -0.0 -0.0
    outer loop
      vertex 0.0 5.333155489600227 0.2669244322671569
      vertex 0.0 5.333155489600227 0.0
      vertex 0.0 0.0 0.2669244322671569
    endloop
  endfacet
  facet normal -1.0 0.0 0.0
    outer loop
      vertex 0.0 0.0 0.0
      vertex 0.0 0.0 0.2669244322671569
      vertex 0.0 5.333155489600227 0.0
    endloop
  endfacet
  facet normal 0.0 -0.0 1.0
    outer loop
      vertex 2.910569598277137 3.8990700364281903 0.2669244322671569
      vertex 8.0 5.333155489600227 0.2669244322671569
      vertex 2.3999199703201017 4.000666532542145 0.2669244322671569
    endloop
  endfacet
  facet normal 0.0 0.0 -1.0
    outer loop
      vertex 0.0 0.0 0.0
      vertex 1.8895369808103921 1.434085453172036 0.0
      vertex 2.3999199703201017 1.3324889570580816 0.0
    endloop
  endfacet
  facet normal -0.0 0.0 1.0
    outer loop
      vertex 3.343355204912505 3.610012979392516 0.2669244322671569
      vertex 3.6324121983720117 3.177227372757148 0.2669244322671569
      vertex 4.667701326411838 3.99986661720017 0.2669244322671569
    endloop
  endfacet
  facet normal 0.0 -0.0 1.0
    outer loop
      vertex 7.118795915701689 3.99986661720017 0.2669244322671569
      vertex 8.0 5.333155489600227 0.2669244322671569
      vertex 4.667701326411838 3.99986661720017 0.2669244322671569
    endloop
  endfacet
  facet normal -0.0 0.0 1.0
    outer loop
      vertex 4.667701326411838 1.3330222339527316 0.2669244322671569
      vertex 8.0 0.0 0.2669244322671569
      vertex 7.118795915701689 1.3330222339527316 0.2669244322671569
    endloop
  endfacet
  facet normal 0.0 -0.0 1.0
    outer loop
      vertex 4.667701326411838 2.4508277919021064 0.2669244322671569
      vertex 4.6677122615126825 2.6665777448001133 0.2669244322671569
      vertex 3.734008821638301 2.6665777448001133 0.2669244322671569
    endloop
  endfacet
  facet normal 0.0 0.0 1.0
    outer loop
      vertex 3.734008821638301 2.6665777448001133 0.2669244322671569
      vertex 3.6324121983720117 2.1561947552904033 0.2669244322671569
      vertex 4.667701326411838 2.4508277919021064 0.2669244322671569
    endloop
  endfacet
  facet normal 0.0 -0.0 1.0
    outer loop
      vertex 4.667701326411838 1.3330222339527316 0.2669244322671569
      vertex 4.667701326411838 2.4508277919021064 0.2669244322671569
      vertex 3.6324121983720117 2.1561947552904033 0.2669244322671569
    endloop
  endfacet
  facet normal 0.0 0.0 1.0
    outer loop
      vertex 3.6324121983720117 2.1561947552904033 0.2669244322671569
      vertex 3.343355204912505 1.7234092122312028 0.2669244322671569
      vertex 4.667701326411838 1.3330222339527316 0.2669244322671569
    endloop
  endfacet
  facet normal 0.0 0.0 -1.0
    outer loop
      vertex 0.0 0.0 0.0
      vertex 1.4564847357276987 1.7234092122312028 0.0
      vertex 1.8895369808103921 1.434085453172036 0.0
    endloop
  endfacet
  facet normal 0.0 -0.0 -1.0
    outer loop
      vertex 1.1674278058443601 2.1561947552904033 0.0
      vertex 1.4564847357276987 1.7234092122312028 0.0
      vertex 0.0 0.0 0.0
    endloop
  endfacet
  facet normal 0.0 0.0 -1.0
    outer loop
      vertex 0.0 0.0 0.0
      vertex 0.0 5.333155489600227 0.0
      vertex 1.0658310554257349 2.6665777448001133 0.0
    endloop
  endfacet
  facet normal 0.0 0.0 -1.0
    outer loop
      vertex 0.0 5.333155489600227 0.0
      vertex 1.4564847357276987 3.610012979392516 0.0
      vertex 1.1674278058443601 3.177227372757148 0.0
    endloop
  endfacet
  facet normal -0.0 0.0 -1.0
    outer loop
      vertex 1.1674278058443601 3.177227372757148 0.0
      vertex 1.0658310554257349 2.6665777448001133 0.0
      vertex 0.0 5.333155489600227 0.0
    endloop
  endfacet
  facet normal -0.0 0.0 -1.0
    outer loop
      vertex 1.8895369808103921 3.8990700364281903 0.0
      vertex 1.4564847357276987 3.610012979392516 0.0
      vertex 0.0 5.333155489600227 0.0
    endloop
  endfacet
  facet normal 0.0 0.0 1.0
    outer loop
      vertex 4.667701326411838 2.882284545374295 0.2669244322671569
      vertex 3.734008821638301 2.6665777448001133 0.2669244322671569
      vertex 4.6677122615126825 2.6665777448001133 0.2669244322671569
    endloop
  endfacet
  facet normal -0.0 0.0 1.0
    outer loop
      vertex 7.118795915701689 1.3330222339527316 0.2669244322671569
      vertex 8.0 0.0 0.2669244322671569
      vertex 7.118795915701689 3.99986661720017 0.2669244322671569
    endloop
  endfacet
  facet normal 0.0 1.0 0.0
    outer loop
      vertex 0.0 5.333155489600227 0.0
      vertex 0.0 5.333155489600227 0.2669244322671569
      vertex 8.0 5.333155489600227 0.2669244322671569
    endloop
  endfacet
  facet normal 0.0 0.0 1.0
    outer loop
      vertex 4.667701326411838 1.3330222339527316 0.2669244322671569
      vertex 2.910569598277137 1.434085453172036 0.2669244322671569
      vertex 8.0 0.0 0.2669244322671569
    endloop
  endfacet
  facet normal 0.0 0.0 1.0
    outer loop
      vertex 8.0 5.333155489600227 0.2669244322671569
      vertex 7.118795915701689 3.99986661720017 0.2669244322671569
      vertex 8.0 0.0 0.2669244322671569
    endloop
  endfacet
  facet normal 0.0 1.0 0.0
    outer loop
      vertex 0.0 5.333155489600227 0.0
      vertex 8.0 5.333155489600227 0.2669244322671569
      vertex 8.0 5.333155489600227 0.0
    endloop
  endfacet
  facet normal 0.0 0.0 1.0
    outer loop
      vertex 8.0 0.0 0.2669244322671569
      vertex 2.3999199703201017 1.3324889570580816 0.2669244322671569
      vertex 0.0 0.0 0.2669244322671569
    endloop
  endfacet
  facet normal 0.0 0.0 1.0
    outer loop
      vertex 5.259757312602332 1.3330222339527316 1.4394186229153634
      vertex 6.526516268553235 1.3330222339527316 1.4394186229153634
      vertex 5.259757312602332 1.3995652470924314 1.4394186229153634
    endloop
  endfacet
  facet normal 0.0 1.0 0.0
    outer loop
      vertex 4.667701326411838 3.99986661720017 0.2669244322671569
      vertex 5.226492354377755 3.99986661720017 1.373554221789671
      vertex 6.559781353930147 3.99986661720017 1.373554221789671
    endloop
  endfacet
  facet normal 0.0 1.0 0.0
    outer loop
      vertex 7.118795915701689 3.99986661720017 0.2669244322671569
      vertex 4.667701326411838 3.99986661720017 0.2669244322671569
      vertex 6.559781353930147 3.99986661720017 1.373554221789671
    endloop
  endfacet
  facet normal 0.0 1.0 0.0
    outer loop
      vertex 6.526516268553235 3.99986661720017 1.4394186229153634
      vertex 6.559781353930147 3.99986661720017 1.373554221789671
      vertex 5.226492354377755 3.99986661720017 1.373554221789671
    endloop
  endfacet
  facet normal -0.0 1.0 0.0
    outer loop
      vertex 5.259757312602332 3.99986661720017 1.4394186229153634
      vertex 6.526516268553235 3.99986661720017 1.4394186229153634
      vertex 5.226492354377755 3.99986661720017 1.373554221789671
    endloop
  endfacet
  facet normal -0.892634950958035 -4.506840483914507e-05 0.45078025943577604
    outer loop
      vertex 5.259757312602332 3.9333368279033514 1.4394186229153634
      vertex 4.667701326411838 2.882284545374295 0.2669244322671569
      vertex 5.259821270227036 2.6665777448001133 1.4394186229153634
    endloop
  endfacet
  facet normal -0.8926346805257945 -4.5818038473241703e-05 0.45078079486965733
    outer loop
      vertex 5.226492354377755 3.99986661720017 1.373554221789671
      vertex 4.667701326411838 2.882284545374295 0.2669244322671569
      vertex 5.259757312602332 3.9333368279033514 1.4394186229153634
    endloop
  endfacet
  facet normal -0.8926349645036381 -4.525148640693097e-05 0.450780232594434
    outer loop
      vertex 4.6677122615126825 2.6665777448001133 0.2669244322671569
      vertex 5.259821270227036 2.6665777448001133 1.4394186229153634
      vertex 4.667701326411838 2.882284545374295 0.2669244322671569
    endloop
  endfacet
  facet normal 0.0 0.0 1.0
    outer loop
      vertex 1.1674278058443601 3.177227372757148 0.2669244322671569
      vertex 0.0 5.333155489600227 0.2669244322671569
      vertex 1.0658310554257349 2.6665777448001133 0.2669244322671569
    endloop
  endfacet
  facet normal 0.0 -0.0 1.0
    outer loop
      vertex 1.1674278058443601 3.177227372757148 0.2669244322671569
      vertex 1.4564847357276987 3.610012979392516 0.2669244322671569
      vertex 0.0 5.333155489600227 0.2669244322671569
    endloop
  endfacet
  facet normal 0.0 0.0 1.0
    outer loop
      vertex 0.0 5.333155489600227 0.2669244322671569
      vertex 0.0 0.0 0.2669244322671569
      vertex 1.0658310554257349 2.6665777448001133 0.2669244322671569
    endloop
  endfacet
  facet normal -0.8926160584578245 0.0 0.4508176706643359
    outer loop
      vertex 5.259757312602332 3.9333368279033514 1.4394186229153634
      vertex 5.259757312602332 3.99986661720017 1.4394186229153634
      vertex 5.226492354377755 3.99986661720017 1.373554221789671
    endloop
  endfacet
  facet normal 0.0 -1.0 0.0
    outer loop
      vertex 7.118795915701689 1.3330222339527316 0.2669244322671569
      vertex 6.559781353930147 1.3330222339527316 1.373554221789671
      vertex 4.667701326411838 1.3330222339527316 0.2669244322671569
    endloop
  endfacet
  facet normal 0.0 -1.0 -0.0
    outer loop
      vertex 8.0 0.0 0.2669244322671569
      vertex 0.0 0.0 0.0
      vertex 8.0 0.0 0.0
    endloop
  endfacet
  facet normal 0.0 -1.0 0.0
    outer loop
      vertex 0.0 0.0 0.2669244322671569
      vertex 0.0 0.0 0.0
      vertex 8.0 0.0 0.2669244322671569
    endloop
  endfacet
  facet normal 0.8925807444453948 0.0 0.45088758537500784
    outer loop
      vertex 6.559781353930147 1.3330222339527316 1.373554221789671
      vertex 7.118795915701689 1.3330222339527316 0.2669244322671569
      vertex 7.118795915701689 3.99986661720017 0.2669244322671569
    endloop
  endfacet
  facet normal 0.8925807444453948 -0.0 0.45088758537500784
    outer loop
      vertex 6.559781353930147 1.3330222339527316 1.373554221789671
      vertex 7.118795915701689 3.99986661720017 0.2669244322671569
      vertex 6.559781353930147 3.99986661720017 1.373554221789671
    endloop
  endfacet
  facet normal 0.0 -1.0 -0.0
    outer loop
      vertex 5.259757312602332 1.3330222339527316 1.4394186229153634
      vertex 5.226492354377755 1.3330222339527316 1.373554221789671
      vertex 6.526516268553235 1.3330222339527316 1.4394186229153634
    endloop
  endfacet
  facet normal 0.0 -1.0 0.0
    outer loop
      vertex 6.559781353930147 1.3330222339527316 1.373554221789671
      vertex 6.526516268553235 1.3330222339527316 1.4394186229153634
      vertex 5.226492354377755 1.3330222339527316 1.373554221789671
    endloop
  endfacet
  facet normal 0.0 -1.0 -0.0
    outer loop
      vertex 5.226492354377755 1.3330222339527316 1.373554221789671
      vertex 4.667701326411838 1.3330222339527316 0.2669244322671569
      vertex 6.559781353930147 1.3330222339527316 1.373554221789671
    endloop
  endfacet
  facet normal 0.8926153650252515 0.0 0.4508190436537004
    outer loop
      vertex 6.526516268553235 3.99986661720017 1.4394186229153634
      vertex 6.526516268553235 1.3330222339527316 1.4394186229153634
      vertex 6.559781353930147 1.3330222339527316 1.373554221789671
    endloop
  endfacet
  facet normal 0.8926153650252515 0.0 0.4508190436537004
    outer loop
      vertex 6.526516268553235 3.99986661720017 1.4394186229153634
      vertex 6.559781353930147 1.3330222339527316 1.373554221789671
      vertex 6.559781353930147 3.99986661720017 1.373554221789671
    endloop
  endfacet
  facet normal -0.8926532999341316 0.0 0.4507439252133139
    outer loop
      vertex 5.226492354377755 1.3330222339527316 1.373554221789671
      vertex 4.667701326411838 2.4508277919021064 0.2669244322671569
      vertex 4.667701326411838 1.3330222339527316 0.2669244322671569
    endloop
  endfacet
  facet normal 0.1952289693163146 0.9807576915526534 0.0
    outer loop
      vertex 2.3999199703201017 1.3324889570580816 0.2669244322671569
      vertex 2.3999199703201017 1.3324889570580816 0.0
      vertex 1.8895369808103921 1.434085453172036 0.2669244322671569
    endloop
  endfacet
  facet normal 0.1952289693163146 0.9807576915526534 -0.0
    outer loop
      vertex 1.8895369808103921 1.434085453172036 0.0
      vertex 1.8895369808103921 1.434085453172036 0.2669244322671569
      vertex 2.3999199703201017 1.3324889570580816 0.0
    endloop
  endfacet
  facet normal -0.0 0.0 1.0
    outer loop
      vertex 5.259757312602332 3.9333368279033514 1.4394186229153634
      vertex 5.259821270227036 2.6665777448001133 1.4394186229153634
      vertex 6.526516268553235 3.99986661720017 1.4394186229153634
    endloop
  endfacet
  facet normal -0.0 0.0 1.0
    outer loop
      vertex 5.259757312602332 3.99986661720017 1.4394186229153634
      vertex 5.259757312602332 3.9333368279033514 1.4394186229153634
      vertex 6.526516268553235 3.99986661720017 1.4394186229153634
    endloop
  endfacet
  facet normal 0.0 -0.0 1.0
    outer loop
      vertex 6.526516268553235 1.3330222339527316 1.4394186229153634
      vertex 6.526516268553235 3.99986661720017 1.4394186229153634
      vertex 5.259821270227036 2.6665777448001133 1.4394186229153634
    endloop
  endfacet
  facet normal 0.0 0.0 1.0
    outer loop
      vertex 5.259821270227036 2.6665777448001133 1.4394186229153634
      vertex 5.259757312602332 1.3995652470924314 1.4394186229153634
      vertex 6.526516268553235 1.3330222339527316 1.4394186229153634
    endloop
  endfacet
  facet normal -0.8926532999341315 0.0 0.4507439252133138
    outer loop
      vertex 4.667701326411838 3.99986661720017 0.2669244322671569
      vertex 4.667701326411838 2.882284545374295 0.2669244322671569
      vertex 5.226492354377755 3.99986661720017 1.373554221789671
    endloop
  endfacet
  facet normal -0.8926346805149312 4.5808905585202054e-05 0.45078079489209716
    outer loop
      vertex 5.226492354377755 1.3330222339527316 1.373554221789671
      vertex 5.259757312602332 1.3995652470924314 1.4394186229153634
      vertex 4.667701326411838 2.4508277919021064 0.2669244322671569
    endloop
  endfacet
  facet normal -0.8926349509584017 4.505939072761701e-05 0.45078025943595074
    outer loop
      vertex 5.259757312602332 1.3995652470924314 1.4394186229153634
      vertex 5.259821270227036 2.6665777448001133 1.4394186229153634
      vertex 4.667701326411838 2.4508277919021064 0.2669244322671569
    endloop
  endfacet
  facet normal -0.8926349645040036 4.524243562029216e-05 0.4507802325946186
    outer loop
      vertex 4.6677122615126825 2.6665777448001133 0.2669244322671569
      vertex 4.667701326411838 2.4508277919021064 0.2669244322671569
      vertex 5.259821270227036 2.6665777448001133 1.4394186229153634
    endloop
  endfacet
  facet normal 0.555527090294243 0.8314984377310712 -0.0
    outer loop
      vertex 1.4564847357276987 1.7234092122312028 0.0
      vertex 1.4564847357276987 1.7234092122312028 0.2669244322671569
      vertex 1.8895369808103921 1.434085453172036 0.2669244322671569
    endloop
  endfacet
  facet normal 0.555527090294243 0.8314984377310712 0.0
    outer loop
      vertex 1.4564847357276987 1.7234092122312028 0.0
      vertex 1.8895369808103921 1.434085453172036 0.2669244322671569
      vertex 1.8895369808103921 1.434085453172036 0.0
    endloop
  endfacet
  facet normal -0.8926160584578245 0.0 0.450817670664336
    outer loop
      vertex 5.226492354377755 1.3330222339527316 1.373554221789671
      vertex 5.259757312602332 1.3330222339527316 1.4394186229153634
      vertex 5.259757312602332 1.3995652470924314 1.4394186229153634
    endloop
  endfacet
  facet normal 0.8315771065616824 0.5554093227904086 -0.0
    outer loop
      vertex 1.1674278058443601 2.1561947552904033 0.0
      vertex 1.1674278058443601 2.1561947552904033 0.2669244322671569
      vertex 1.4564847357276987 1.7234092122312028 0.2669244322671569
    endloop
  endfacet
  facet normal 0.8315771065616824 0.5554093227904086 0.0
    outer loop
      vertex 1.1674278058443601 2.1561947552904033 0.0
      vertex 1.4564847357276987 1.7234092122312028 0.2669244322671569
      vertex 1.4564847357276987 1.7234092122312028 0.0
    endloop
  endfacet
  facet normal 0.9807575979848716 0.19522943936544288 0.0
    outer loop
      vertex 1.1674278058443601 2.1561947552904033 0.2669244322671569
      vertex 1.1674278058443601 2.1561947552904033 0.0
      vertex 1.0658310554257349 2.6665777448001133 0.0
    endloop
  endfacet
  facet normal 0.9807575979848716 0.19522943936544288 0.0
    outer loop
      vertex 1.1674278058443601 2.1561947552904033 0.2669244322671569
      vertex 1.0658310554257349 2.6665777448001133 0.0
      vertex 1.0658310554257349 2.6665777448001133 0.2669244322671569
    endloop
  endfacet
  facet normal 0.0 0.0 1.0
    outer loop
      vertex 0.0 0.0 0.2669244322671569
      vertex 2.3999199703201017 1.3324889570580816 0.2669244322671569
      vertex 1.8895369808103921 1.434085453172036 0.2669244322671569
    endloop
  endfacet
  facet normal 0.0 0.0 1.0
    outer loop
      vertex 1.1674278058443601 2.1561947552904033 0.2669244322671569
      vertex 0.0 0.0 0.2669244322671569
      vertex 1.4564847357276987 1.7234092122312028 0.2669244322671569
    endloop
  endfacet
  facet normal 0.0 0.0 1.0
    outer loop
      vertex 1.8895369808103921 1.434085453172036 0.2669244322671569
      vertex 1.4564847357276987 1.7234092122312028 0.2669244322671569
      vertex 0.0 0.0 0.2669244322671569
    endloop
  endfacet
endsolid thingi10k_311327
