solid thingi10k_57420
  facet normal 0.0 -0.0 -1.0
    outer loop
      vertex 0.018941538461538482 1.7791384000000001 0.0
      vertex 0.07529846153846156 2.0138456000000002 0.0
      vertex 0.0 1.5384615384615385 0.0
    endloop
  endfacet
  facet normal 0.0 0.0 -1.0
    outer loop
      vertex 0.0 1.5384615384615385 0.0
      vertex 0.07529846153846156 2.0138456000000002 0.0
      vertex 0.1676799999999999 2.2369218461538463 0.0
    endloop
  endfacet
  facet normal 0.0 0.0 -1.0
    outer loop
      vertex 0.0 1.5384615384615385 0.0
      vertex 0.1676799999999999 2.2369218461538463 0.0
      vertex 0.29382153846153863 2.442769230769231 0.0
    endloop
  endfacet
  facet normal 0.0 0.0 -1.0
    outer loop
      vertex 0.0 1.5384615384615385 0.0
      vertex 0.29382153846153863 2.442769230769231 0.0
      vertex 0.4506030769230769 2.6263378461538465 0.0
    endloop
  endfacet
  facet normal 0.0 0.0 -1.0
    outer loop
      vertex 0.0 1.5384615384615385 0.0
      vertex 0.4506030769230769 2.6263378461538465 0.0
      vertex 0.6341784615384616 2.783076307692308 0.0
    endloop
  endfacet
  facet normal 0.0 0.0 -1.0
    outer loop
      vertex 0.0 1.5384615384615385 0.0
      vertex 0.6341784615384616 2.783076307692308 0.0
      vertex 0.8400123076923077 2.909230153846154 0.0
    endloop
  endfacet
  facet normal 0.0 0.0 -1.0
    outer loop
      vertex 0.0 1.5384615384615385 0.0
      vertex 0.8400123076923077 2.909230153846154 0.0
      vertex 1.063051076923077 3.0016000000000003 0.0
    endloop
  endfacet
  facet normal 0.0 0.0 -1.0
    outer loop
      vertex 0.0 1.5384615384615385 0.0
      vertex 1.063051076923077 3.0016000000000003 0.0
      vertex 1.2977932307692308 3.0579692307692308 0.0
    endloop
  endfacet
  facet normal 0.0 0.0 -1.0
    outer loop
      vertex 0.0 1.5384615384615385 0.0
      vertex 1.2977932307692308 3.0579692307692308 0.0
      vertex 1.5384615384615385 3.076923076923077 0.0
    endloop
  endfacet
  facet normal 0.0 0.0 -1.0
    outer loop
      vertex 0.0 1.5384615384615385 0.0
      vertex 1.5384615384615385 3.076923076923077 0.0
      vertex 1.7791298461538463 3.0579692307692308 0.0
    endloop
  endfacet
  facet normal 0.0 0.0 -1.0
    outer loop
      vertex 0.0 1.5384615384615385 0.0
      vertex 1.7791298461538463 3.0579692307692308 0.0
      vertex 2.013872 3.0016000000000003 0.0
    endloop
  endfacet
  facet normal 0.0 0.0 -1.0
    outer loop
      vertex 0.0 1.5384615384615385 0.0
      vertex 2.013872 3.0016000000000003 0.0
      vertex 2.2369107692307693 2.909230153846154 0.0
    endloop
  endfacet
  facet normal 0.0 0.0 -1.0
    outer loop
      vertex 0.0 1.5384615384615385 0.0
      vertex 2.2369107692307693 2.909230153846154 0.0
      vertex 2.4427446153846155 2.783076307692308 0.0
    endloop
  endfacet
  facet normal 0.0 0.0 -1.0
    outer loop
      vertex 0.0 1.5384615384615385 0.0
      vertex 2.4427446153846155 2.783076307692308 0.0
      vertex 2.6263200000000007 2.6263378461538465 0.0
    endloop
  endfacet
  facet normal 0.0 0.0 -1.0
    outer loop
      vertex 0.0 1.5384615384615385 0.0
      vertex 2.6263200000000007 2.6263378461538465 0.0
      vertex 2.7831015384615383 2.442769230769231 0.0
    endloop
  endfacet
  facet normal 0.0 0.0 -1.0
    outer loop
      vertex 0.0 1.5384615384615385 0.0
      vertex 2.7831015384615383 2.442769230769231 0.0
      vertex 2.9092430769230773 2.2369218461538463 0.0
    endloop
  endfacet
  facet normal 0.0 0.0 -1.0
    outer loop
      vertex 0.0 1.5384615384615385 0.0
      vertex 2.9092430769230773 2.2369218461538463 0.0
      vertex 3.0016246153846153 2.0138456000000002 0.0
    endloop
  endfacet
  facet normal 0.0 0.0 -1.0
    outer loop
      vertex 0.0 1.5384615384615385 0.0
      vertex 3.0016246153846153 2.0138456000000002 0.0
      vertex 3.0579815384615388 1.7791384000000001 0.0
    endloop
  endfacet
  facet normal 0.0 0.0 -1.0
    outer loop
      vertex 0.0 1.5384615384615385 0.0
      vertex 3.0579815384615388 1.7791384000000001 0.0
      vertex 3.076923076923077 1.5384615384615385 0.0
    endloop
  endfacet
  facet normal 0.0 0.0 -1.0
    outer loop
      vertex 0.0 1.5384615384615385 0.0
      vertex 3.076923076923077 1.5384615384615385 0.0
      vertex 3.0579815384615388 1.297784676923077 0.0
    endloop
  endfacet
  facet normal 0.0 0.0 -1.0
    outer loop
      vertex 0.0 1.5384615384615385 0.0
      vertex 3.0579815384615388 1.297784676923077 0.0
      vertex 3.0016246153846153 1.0630763076923078 0.0
    endloop
  endfacet
  facet normal 0.0 0.0 -1.0
    outer loop
      vertex 0.0 1.5384615384615385 0.0
      vertex 3.0016246153846153 1.0630763076923078 0.0
      vertex 2.9092430769230773 0.8400000000000001 0.0
    endloop
  endfacet
  facet normal 0.0 0.0 -1.0
    outer loop
      vertex 0.0 1.5384615384615385 0.0
      vertex 2.9092430769230773 0.8400000000000001 0.0
      vertex 2.7831015384615383 0.6341532307692308 0.0
    endloop
  endfacet
  facet normal 0.0 0.0 -1.0
    outer loop
      vertex 0.0 1.5384615384615385 0.0
      vertex 2.7831015384615383 0.6341532307692308 0.0
      vertex 2.6263200000000007 0.45058400000000004 0.0
    endloop
  endfacet
  facet normal 0.0 0.0 -1.0
    outer loop
      vertex 0.0 1.5384615384615385 0.0
      vertex 2.6263200000000007 0.45058400000000004 0.0
      vertex 2.4427446153846155 0.29384553846153844 0.0
    endloop
  endfacet
  facet normal 0.0 0.0 -1.0
    outer loop
      vertex 0.0 1.5384615384615385 0.0
      vertex 2.4427446153846155 0.29384553846153844 0.0
      vertex 2.2369107692307693 0.1676916923076922 0.0
    endloop
  endfacet
  facet normal 0.0 0.0 -1.0
    outer loop
      vertex 0.0 1.5384615384615385 0.0
      vertex 2.2369107692307693 0.1676916923076922 0.0
      vertex 2.013872 0.07532184615384616 0.0
    endloop
  endfacet
  facet normal 0.0 0.0 -1.0
    outer loop
      vertex 0.0 1.5384615384615385 0.0
      vertex 2.013872 0.07532184615384616 0.0
      vertex 1.7791298461538463 0.018953846153846255 0.0
    endloop
  endfacet
  facet normal 0.0 0.0 -1.0
    outer loop
      vertex 0.0 1.5384615384615385 0.0
      vertex 1.7791298461538463 0.018953846153846255 0.0
      vertex 1.5384615384615385 0.0 0.0
    endloop
  endfacet
  facet normal 0.0 0.0 -1.0
    outer loop
      vertex 0.0 1.5384615384615385 0.0
      vertex 1.5384615384615385 0.0 0.0
      vertex 1.2977932307692308 0.018953846153846255 0.0
    endloop
  endfacet
  facet normal 0.0 0.0 -1.0
    outer loop
      vertex 0.0 1.5384615384615385 0.0
      vertex 1.2977932307692308 0.018953846153846255 0.0
      vertex 1.063051076923077 0.07532184615384616 0.0
    endloop
  endfacet
  facet normal 0.0 0.0 -1.0
    outer loop
      vertex 0.0 1.5384615384615385 0.0
      vertex 1.063051076923077 0.07532184615384616 0.0
      vertex 0.8400123076923077 0.1676916923076922 0.0
    endloop
  endfacet
  facet normal 0.0 0.0 -1.0
    outer loop
      vertex 0.0 1.5384615384615385 0.0
      vertex 0.8400123076923077 0.1676916923076922 0.0
      vertex 0.6341784615384616 0.29384553846153844 0.0
    endloop
  endfacet
  facet normal 0.0 0.0 -1.0
    outer loop
      vertex 0.0 1.5384615384615385 0.0
      vertex 0.6341784615384616 0.29384553846153844 0.0
      vertex 0.4506030769230769 0.45058400000000004 0.0
    endloop
  endfacet
  facet normal 0.0 0.0 -1.0
    outer loop
      vertex 0.0 1.5384615384615385 0.0
      vertex 0.4506030769230769 0.45058400000000004 0.0
      vertex 0.29382153846153863 0.6341532307692308 0.0
    endloop
  endfacet
  facet normal 0.0 0.0 -1.0
    outer loop
      vertex 0.0 1.5384615384615385 0.0
      vertex 0.29382153846153863 0.6341532307692308 0.0
      vertex 0.1676799999999999 0.8400000000000001 0.0
    endloop
  endfacet
  facet normal 0.0 0.0 -1.0
    outer loop
      vertex 0.0 1.5384615384615385 0.0
      vertex 0.1676799999999999 0.8400000000000001 0.0
      vertex 0.07529846153846156 1.0630763076923078 0.0
    endloop
  endfacet
  facet normal 0.0 0.0 -1.0
    outer loop
      vertex 0.0 1.5384615384615385 0.0
      vertex 0.07529846153846156 1.0630763076923078 0.0
      vertex 0.018941538461538482 1.297784676923077 0.0
    endloop
  endfacet
  facet normal 0.9969173795235409 0.07845851390331318 -0.0
    outer loop
      vertex 3.0579815384615388 1.7791384000000001 0.0
      vertex 3.0579815384615388 1.7791384000000001 8.0
      vertex 3.076923076923077 1.5384615384615385 8.0
    endloop
  endfacet
  facet normal 0.9969173795235409 0.07845851390331318 -0.0
    outer loop
      vertex 3.076923076923077 1.5384615384615385 0.0
      vertex 3.0579815384615388 1.7791384000000001 0.0
      vertex 3.076923076923077 1.5384615384615385 8.0
    endloop
  endfacet
  facet normal 0.9723617290412325 0.2334794806743081 -0.0
    outer loop
      vertex 3.0016246153846153 2.0138456000000002 0.0
      vertex 3.0016246153846153 2.0138456000000002 8.0
      vertex 3.0579815384615388 1.7791384000000001 8.0
    endloop
  endfacet
  facet normal 0.9723617290412325 0.2334794806743081 -0.0
    outer loop
      vertex 3.0579815384615388 1.7791384000000001 0.0
      vertex 3.0016246153846153 2.0138456000000002 0.0
      vertex 3.0579815384615388 1.7791384000000001 8.0
    endloop
  endfacet
  facet normal -0.9969173795235408 0.07845851390331374 0.0
    outer loop
      vertex 0.0 1.5384615384615385 8.0
      vertex 0.018941538461538482 1.7791384000000001 8.0
      vertex 0.0 1.5384615384615385 0.0
    endloop
  endfacet
  facet normal -0.9969173795235408 0.07845851390331374 0.0
    outer loop
      vertex 0.0 1.5384615384615385 0.0
      vertex 0.018941538461538482 1.7791384000000001 8.0
      vertex 0.018941538461538482 1.7791384000000001 0.0
    endloop
  endfacet
  facet normal -0.9969173795235408 -0.07845851390331374 0.0
    outer loop
      vertex 0.018941538461538482 1.297784676923077 0.0
      vertex 0.018941538461538482 1.297784676923077 8.0
      vertex 0.0 1.5384615384615385 0.0
    endloop
  endfacet
  facet normal -0.9969173795235408 -0.07845851390331374 0.0
    outer loop
      vertex 0.0 1.5384615384615385 0.0
      vertex 0.018941538461538482 1.297784676923077 8.0
      vertex 0.0 1.5384615384615385 8.0
    endloop
  endfacet
  facet normal -0.9723619930972385 -0.23347838096912965 0.0
    outer loop
      vertex 0.07529846153846156 1.0630763076923078 0.0
      vertex 0.07529846153846156 1.0630763076923078 8.0
      vertex 0.018941538461538482 1.297784676923077 0.0
    endloop
  endfacet
  facet normal -0.9723619930972385 -0.23347838096912965 0.0
    outer loop
      vertex 0.018941538461538482 1.297784676923077 0.0
      vertex 0.07529846153846156 1.0630763076923078 8.0
      vertex 0.018941538461538482 1.297784676923077 8.0
    endloop
  endfacet
  facet normal -0.9239083672950653 -0.3826138116197149 0.0
    outer loop
      vertex 0.1676799999999999 0.8400000000000001 0.0
      vertex 0.1676799999999999 0.8400000000000001 8.0
      vertex 0.07529846153846156 1.0630763076923078 0.0
    endloop
  endfacet
  facet normal -0.9239083672950653 -0.3826138116197149 0.0
    outer loop
      vertex 0.07529846153846156 1.0630763076923078 0.0
      vertex 0.1676799999999999 0.8400000000000001 8.0
      vertex 0.07529846153846156 1.0630763076923078 8.0
    endloop
  endfacet
  facet normal -0.8526429765493189 -0.5224939756027028 0.0
    outer loop
      vertex 0.29382153846153863 0.6341532307692308 0.0
      vertex 0.29382153846153863 0.6341532307692308 8.0
      vertex 0.1676799999999999 0.8400000000000001 0.0
    endloop
  endfacet
  facet normal -0.8526429765493189 -0.5224939756027028 0.0
    outer loop
      vertex 0.1676799999999999 0.8400000000000001 0.0
      vertex 0.29382153846153863 0.6341532307692308 8.0
      vertex 0.1676799999999999 0.8400000000000001 8.0
    endloop
  endfacet
  facet normal -0.7604088213255669 -0.649444704690293 0.0
    outer loop
      vertex 0.4506030769230769 0.45058400000000004 0.0
      vertex 0.4506030769230769 0.45058400000000004 8.0
      vertex 0.29382153846153863 0.6341532307692308 0.0
    endloop
  endfacet
  facet normal -0.7604088213255669 -0.649444704690293 0.0
    outer loop
      vertex 0.29382153846153863 0.6341532307692308 0.0
      vertex 0.4506030769230769 0.45058400000000004 8.0
      vertex 0.29382153846153863 0.6341532307692308 8.0
    endloop
  endfacet
  facet normal -0.6493289194321967 -0.7605076951543723 0.0
    outer loop
      vertex 0.4506030769230769 0.45058400000000004 0.0
      vertex 0.6341784615384616 0.29384553846153844 0.0
      vertex 0.6341784615384616 0.29384553846153844 8.0
    endloop
  endfacet
  facet normal -0.6493289194321967 -0.7605076951543723 -0.0
    outer loop
      vertex 0.4506030769230769 0.45058400000000004 8.0
      vertex 0.4506030769230769 0.45058400000000004 0.0
      vertex 0.6341784615384616 0.29384553846153844 8.0
    endloop
  endfacet
  facet normal -0.5225548850973472 -0.8526056486212711 0.0
    outer loop
      vertex 0.6341784615384616 0.29384553846153844 0.0
      vertex 0.8400123076923077 0.1676916923076922 0.0
      vertex 0.8400123076923077 0.1676916923076922 8.0
    endloop
  endfacet
  facet normal -0.5225548850973472 -0.8526056486212711 -0.0
    outer loop
      vertex 0.6341784615384616 0.29384553846153844 8.0
      vertex 0.6341784615384616 0.29384553846153844 0.0
      vertex 0.8400123076923077 0.1676916923076922 8.0
    endloop
  endfacet
  facet normal -0.3826274366425225 -0.9239027247109797 0.0
    outer loop
      vertex 0.8400123076923077 0.1676916923076922 0.0
      vertex 1.063051076923077 0.07532184615384616 0.0
      vertex 1.063051076923077 0.07532184615384616 8.0
    endloop
  endfacet
  facet normal -0.3826274366425225 -0.9239027247109797 -0.0
    outer loop
      vertex 0.8400123076923077 0.1676916923076922 8.0
      vertex 0.8400123076923077 0.1676916923076922 0.0
      vertex 1.063051076923077 0.07532184615384616 8.0
    endloop
  endfacet
  facet normal -0.23348999218679897 -0.9723592050001936 0.0
    outer loop
      vertex 1.063051076923077 0.07532184615384616 0.0
      vertex 1.2977932307692308 0.018953846153846255 0.0
      vertex 1.2977932307692308 0.018953846153846255 8.0
    endloop
  endfacet
  facet normal -0.23348999218679897 -0.9723592050001936 -0.0
    outer loop
      vertex 1.063051076923077 0.07532184615384616 8.0
      vertex 1.063051076923077 0.07532184615384616 0.0
      vertex 1.2977932307692308 0.018953846153846255 8.0
    endloop
  endfacet
  facet normal -0.07851195314714658 -0.9969131723540522 0.0
    outer loop
      vertex 1.2977932307692308 0.018953846153846255 0.0
      vertex 1.5384615384615385 0.0 0.0
      vertex 1.5384615384615385 0.0 8.0
    endloop
  endfacet
  facet normal -0.07851195314714658 -0.9969131723540522 -0.0
    outer loop
      vertex 1.2977932307692308 0.018953846153846255 8.0
      vertex 1.2977932307692308 0.018953846153846255 0.0
      vertex 1.5384615384615385 0.0 8.0
    endloop
  endfacet
  facet normal 0.07851195314714658 -0.9969131723540522 0.0
    outer loop
      vertex 1.5384615384615385 0.0 0.0
      vertex 1.7791298461538463 0.018953846153846255 0.0
      vertex 1.7791298461538463 0.018953846153846255 8.0
    endloop
  endfacet
  facet normal 0.07851195314714658 -0.9969131723540522 0.0
    outer loop
      vertex 1.5384615384615385 0.0 8.0
      vertex 1.5384615384615385 0.0 0.0
      vertex 1.7791298461538463 0.018953846153846255 8.0
    endloop
  endfacet
  facet normal 0.23348999218679897 -0.9723592050001936 0.0
    outer loop
      vertex 1.7791298461538463 0.018953846153846255 0.0
      vertex 2.013872 0.07532184615384616 0.0
      vertex 2.013872 0.07532184615384616 8.0
    endloop
  endfacet
  facet normal 0.23348999218679897 -0.9723592050001936 0.0
    outer loop
      vertex 1.7791298461538463 0.018953846153846255 8.0
      vertex 1.7791298461538463 0.018953846153846255 0.0
      vertex 2.013872 0.07532184615384616 8.0
    endloop
  endfacet
  facet normal 0.38262743664252274 -0.9239027247109798 0.0
    outer loop
      vertex 2.013872 0.07532184615384616 0.0
      vertex 2.2369107692307693 0.1676916923076922 0.0
      vertex 2.2369107692307693 0.1676916923076922 8.0
    endloop
  endfacet
  facet normal 0.38262743664252274 -0.9239027247109798 0.0
    outer loop
      vertex 2.013872 0.07532184615384616 8.0
      vertex 2.013872 0.07532184615384616 0.0
      vertex 2.2369107692307693 0.1676916923076922 8.0
    endloop
  endfacet
  facet normal 0.5225548850973469 -0.8526056486212711 0.0
    outer loop
      vertex 2.2369107692307693 0.1676916923076922 0.0
      vertex 2.4427446153846155 0.29384553846153844 0.0
      vertex 2.4427446153846155 0.29384553846153844 8.0
    endloop
  endfacet
  facet normal 0.5225548850973469 -0.8526056486212711 0.0
    outer loop
      vertex 2.2369107692307693 0.1676916923076922 8.0
      vertex 2.2369107692307693 0.1676916923076922 0.0
      vertex 2.4427446153846155 0.29384553846153844 8.0
    endloop
  endfacet
  facet normal 0.6493289194321958 -0.7605076951543731 0.0
    outer loop
      vertex 2.4427446153846155 0.29384553846153844 0.0
      vertex 2.6263200000000007 0.45058400000000004 0.0
      vertex 2.6263200000000007 0.45058400000000004 8.0
    endloop
  endfacet
  facet normal 0.6493289194321958 -0.7605076951543731 0.0
    outer loop
      vertex 2.4427446153846155 0.29384553846153844 8.0
      vertex 2.4427446153846155 0.29384553846153844 0.0
      vertex 2.6263200000000007 0.45058400000000004 8.0
    endloop
  endfacet
  facet normal 0.7604088213255681 -0.6494447046902916 0.0
    outer loop
      vertex 2.6263200000000007 0.45058400000000004 0.0
      vertex 2.7831015384615383 0.6341532307692308 0.0
      vertex 2.7831015384615383 0.6341532307692308 8.0
    endloop
  endfacet
  facet normal 0.7604088213255681 -0.6494447046902916 0.0
    outer loop
      vertex 2.6263200000000007 0.45058400000000004 8.0
      vertex 2.6263200000000007 0.45058400000000004 0.0
      vertex 2.7831015384615383 0.6341532307692308 8.0
    endloop
  endfacet
  facet normal 0.8526429765493183 -0.5224939756027035 0.0
    outer loop
      vertex 2.7831015384615383 0.6341532307692308 0.0
      vertex 2.9092430769230773 0.8400000000000001 0.0
      vertex 2.9092430769230773 0.8400000000000001 8.0
    endloop
  endfacet
  facet normal 0.8526429765493183 -0.5224939756027035 0.0
    outer loop
      vertex 2.7831015384615383 0.6341532307692308 8.0
      vertex 2.7831015384615383 0.6341532307692308 0.0
      vertex 2.9092430769230773 0.8400000000000001 8.0
    endloop
  endfacet
  facet normal 0.9239083672950658 -0.3826138116197139 0.0
    outer loop
      vertex 2.9092430769230773 0.8400000000000001 0.0
      vertex 3.0016246153846153 1.0630763076923078 0.0
      vertex 3.0016246153846153 1.0630763076923078 8.0
    endloop
  endfacet
  facet normal 0.9239083672950658 -0.3826138116197139 0.0
    outer loop
      vertex 2.9092430769230773 0.8400000000000001 8.0
      vertex 2.9092430769230773 0.8400000000000001 0.0
      vertex 3.0016246153846153 1.0630763076923078 8.0
    endloop
  endfacet
  facet normal 0.972361993097238 -0.23347838096913093 0.0
    outer loop
      vertex 3.0016246153846153 1.0630763076923078 0.0
      vertex 3.0579815384615388 1.297784676923077 0.0
      vertex 3.0579815384615388 1.297784676923077 8.0
    endloop
  endfacet
  facet normal 0.972361993097238 -0.23347838096913093 0.0
    outer loop
      vertex 3.0016246153846153 1.0630763076923078 8.0
      vertex 3.0016246153846153 1.0630763076923078 0.0
      vertex 3.0579815384615388 1.297784676923077 8.0
    endloop
  endfacet
  facet normal 0.9969173795235409 -0.07845851390331318 0.0
    outer loop
      vertex 3.0579815384615388 1.297784676923077 0.0
      vertex 3.076923076923077 1.5384615384615385 0.0
      vertex 3.076923076923077 1.5384615384615385 8.0
    endloop
  endfacet
  facet normal 0.9969173795235409 -0.07845851390331318 0.0
    outer loop
      vertex 3.0579815384615388 1.297784676923077 8.0
      vertex 3.0579815384615388 1.297784676923077 0.0
      vertex 3.076923076923077 1.5384615384615385 8.0
    endloop
  endfacet
  facet normal 0.9239083299834954 0.3826139017170033 -0.0
    outer loop
      vertex 2.9092430769230773 2.2369218461538463 0.0
      vertex 2.9092430769230773 2.2369218461538463 8.0
      vertex 3.0016246153846153 2.0138456000000002 8.0
    endloop
  endfacet
  facet normal 0.9239083299834954 0.3826139017170033 -0.0
    outer loop
      vertex 3.0016246153846153 2.0138456000000002 0.0
      vertex 2.9092430769230773 2.2369218461538463 0.0
      vertex 3.0016246153846153 2.0138456000000002 8.0
    endloop
  endfacet
  facet normal 0.8526436724238748 0.5224928400232179 -0.0
    outer loop
      vertex 2.7831015384615383 2.442769230769231 0.0
      vertex 2.7831015384615383 2.442769230769231 8.0
      vertex 2.9092430769230773 2.2369218461538463 8.0
    endloop
  endfacet
  facet normal 0.8526436724238748 0.5224928400232179 -0.0
    outer loop
      vertex 2.9092430769230773 2.2369218461538463 0.0
      vertex 2.7831015384615383 2.442769230769231 0.0
      vertex 2.9092430769230773 2.2369218461538463 8.0
    endloop
  endfacet
  facet normal 0.7604077461496811 0.6494459635686113 -0.0
    outer loop
      vertex 2.6263200000000007 2.6263378461538465 0.0
      vertex 2.6263200000000007 2.6263378461538465 8.0
      vertex 2.7831015384615383 2.442769230769231 8.0
    endloop
  endfacet
  facet normal 0.7604077461496811 0.6494459635686113 -0.0
    outer loop
      vertex 2.7831015384615383 2.442769230769231 0.0
      vertex 2.6263200000000007 2.6263378461538465 0.0
      vertex 2.7831015384615383 2.442769230769231 8.0
    endloop
  endfacet
  facet normal 0.6493289194321956 0.7605076951543733 0.0
    outer loop
      vertex 2.4427446153846155 2.783076307692308 8.0
      vertex 2.6263200000000007 2.6263378461538465 8.0
      vertex 2.4427446153846155 2.783076307692308 0.0
    endloop
  endfacet
  facet normal 0.6493289194321956 0.7605076951543733 0.0
    outer loop
      vertex 2.4427446153846155 2.783076307692308 0.0
      vertex 2.6263200000000007 2.6263378461538465 8.0
      vertex 2.6263200000000007 2.6263378461538465 0.0
    endloop
  endfacet
  facet normal 0.5225548850973464 0.8526056486212714 0.0
    outer loop
      vertex 2.2369107692307693 2.909230153846154 8.0
      vertex 2.4427446153846155 2.783076307692308 8.0
      vertex 2.2369107692307693 2.909230153846154 0.0
    endloop
  endfacet
  facet normal 0.5225548850973464 0.8526056486212714 0.0
    outer loop
      vertex 2.2369107692307693 2.909230153846154 0.0
      vertex 2.4427446153846155 2.783076307692308 8.0
      vertex 2.4427446153846155 2.783076307692308 0.0
    endloop
  endfacet
  facet normal 0.38262743664252347 0.9239027247109795 0.0
    outer loop
      vertex 2.013872 3.0016000000000003 8.0
      vertex 2.2369107692307693 2.909230153846154 8.0
      vertex 2.013872 3.0016000000000003 0.0
    endloop
  endfacet
  facet normal 0.38262743664252347 0.9239027247109795 0.0
    outer loop
      vertex 2.013872 3.0016000000000003 0.0
      vertex 2.2369107692307693 2.909230153846154 8.0
      vertex 2.2369107692307693 2.909230153846154 0.0
    endloop
  endfacet
  facet normal 0.2334948123857002 0.9723580475262015 0.0
    outer loop
      vertex 1.7791298461538463 3.0579692307692308 8.0
      vertex 2.013872 3.0016000000000003 8.0
      vertex 1.7791298461538463 3.0579692307692308 0.0
    endloop
  endfacet
  facet normal 0.2334948123857002 0.9723580475262015 0.0
    outer loop
      vertex 1.7791298461538463 3.0579692307692308 0.0
      vertex 2.013872 3.0016000000000003 8.0
      vertex 2.013872 3.0016000000000003 0.0
    endloop
  endfacet
  facet normal 0.07851195314714685 0.9969131723540522 0.0
    outer loop
      vertex 1.5384615384615385 3.076923076923077 8.0
      vertex 1.7791298461538463 3.0579692307692308 8.0
      vertex 1.5384615384615385 3.076923076923077 0.0
    endloop
  endfacet
  facet normal 0.07851195314714685 0.9969131723540522 0.0
    outer loop
      vertex 1.5384615384615385 3.076923076923077 0.0
      vertex 1.7791298461538463 3.0579692307692308 8.0
      vertex 1.7791298461538463 3.0579692307692308 0.0
    endloop
  endfacet
  facet normal -0.07851195314714685 0.9969131723540522 0.0
    outer loop
      vertex 1.2977932307692308 3.0579692307692308 8.0
      vertex 1.5384615384615385 3.076923076923077 8.0
      vertex 1.2977932307692308 3.0579692307692308 0.0
    endloop
  endfacet
  facet normal -0.07851195314714685 0.9969131723540522 0.0
    outer loop
      vertex 1.2977932307692308 3.0579692307692308 0.0
      vertex 1.5384615384615385 3.076923076923077 8.0
      vertex 1.5384615384615385 3.076923076923077 0.0
    endloop
  endfacet
  facet normal -0.2334948123857002 0.9723580475262015 0.0
    outer loop
      vertex 1.063051076923077 3.0016000000000003 8.0
      vertex 1.2977932307692308 3.0579692307692308 8.0
      vertex 1.063051076923077 3.0016000000000003 0.0
    endloop
  endfacet
  facet normal -0.2334948123857002 0.9723580475262015 0.0
    outer loop
      vertex 1.063051076923077 3.0016000000000003 0.0
      vertex 1.2977932307692308 3.0579692307692308 8.0
      vertex 1.2977932307692308 3.0579692307692308 0.0
    endloop
  endfacet
  facet normal -0.38262743664252324 0.9239027247109795 0.0
    outer loop
      vertex 0.8400123076923077 2.909230153846154 8.0
      vertex 1.063051076923077 3.0016000000000003 8.0
      vertex 0.8400123076923077 2.909230153846154 0.0
    endloop
  endfacet
  facet normal -0.38262743664252324 0.9239027247109795 0.0
    outer loop
      vertex 0.8400123076923077 2.909230153846154 0.0
      vertex 1.063051076923077 3.0016000000000003 8.0
      vertex 1.063051076923077 3.0016000000000003 0.0
    endloop
  endfacet
  facet normal -0.5225548850973466 0.8526056486212714 0.0
    outer loop
      vertex 0.6341784615384616 2.783076307692308 8.0
      vertex 0.8400123076923077 2.909230153846154 8.0
      vertex 0.6341784615384616 2.783076307692308 0.0
    endloop
  endfacet
  facet normal -0.5225548850973466 0.8526056486212714 0.0
    outer loop
      vertex 0.6341784615384616 2.783076307692308 0.0
      vertex 0.8400123076923077 2.909230153846154 8.0
      vertex 0.8400123076923077 2.909230153846154 0.0
    endloop
  endfacet
  facet normal -0.6493289194321965 0.7605076951543726 0.0
    outer loop
      vertex 0.4506030769230769 2.6263378461538465 8.0
      vertex 0.6341784615384616 2.783076307692308 8.0
      vertex 0.4506030769230769 2.6263378461538465 0.0
    endloop
  endfacet
  facet normal -0.6493289194321965 0.7605076951543726 0.0
    outer loop
      vertex 0.4506030769230769 2.6263378461538465 0.0
      vertex 0.6341784615384616 2.783076307692308 8.0
      vertex 0.6341784615384616 2.783076307692308 0.0
    endloop
  endfacet
  facet normal -0.7604077461496799 0.6494459635686128 0.0
    outer loop
      vertex 0.29382153846153863 2.442769230769231 8.0
      vertex 0.4506030769230769 2.6263378461538465 8.0
      vertex 0.29382153846153863 2.442769230769231 0.0
    endloop
  endfacet
  facet normal -0.7604077461496799 0.6494459635686128 0.0
    outer loop
      vertex 0.29382153846153863 2.442769230769231 0.0
      vertex 0.4506030769230769 2.6263378461538465 8.0
      vertex 0.4506030769230769 2.6263378461538465 0.0
    endloop
  endfacet
  facet normal -0.8526436724238753 0.5224928400232172 0.0
    outer loop
      vertex 0.1676799999999999 2.2369218461538463 8.0
      vertex 0.29382153846153863 2.442769230769231 8.0
      vertex 0.1676799999999999 2.2369218461538463 0.0
    endloop
  endfacet
  facet normal -0.8526436724238753 0.5224928400232172 0.0
    outer loop
      vertex 0.1676799999999999 2.2369218461538463 0.0
      vertex 0.29382153846153863 2.442769230769231 8.0
      vertex 0.29382153846153863 2.442769230769231 0.0
    endloop
  endfacet
  facet normal -0.923908329983495 0.3826139017170043 0.0
    outer loop
      vertex 0.07529846153846156 2.0138456000000002 8.0
      vertex 0.1676799999999999 2.2369218461538463 8.0
      vertex 0.07529846153846156 2.0138456000000002 0.0
    endloop
  endfacet
  facet normal -0.923908329983495 0.3826139017170043 0.0
    outer loop
      vertex 0.07529846153846156 2.0138456000000002 0.0
      vertex 0.1676799999999999 2.2369218461538463 8.0
      vertex 0.1676799999999999 2.2369218461538463 0.0
    endloop
  endfacet
  facet normal -0.9723617290412329 0.2334794806743068 0.0
    outer loop
      vertex 0.018941538461538482 1.7791384000000001 8.0
      vertex 0.07529846153846156 2.0138456000000002 8.0
      vertex 0.018941538461538482 1.7791384000000001 0.0
    endloop
  endfacet
  facet normal -0.9723617290412329 0.2334794806743068 0.0
    outer loop
      vertex 0.018941538461538482 1.7791384000000001 0.0
      vertex 0.07529846153846156 2.0138456000000002 8.0
      vertex 0.07529846153846156 2.0138456000000002 0.0
    endloop
  endfacet
  facet normal 0.0 0.0 1.0
    outer loop
      vertex 0.0 1.5384615384615385 8.0
      vertex 0.018941538461538482 1.297784676923077 8.0
      vertex 0.07529846153846156 1.0630763076923078 8.0
    endloop
  endfacet
  facet normal 0.0 0.0 1.0
    outer loop
      vertex 0.29382153846153863 0.6341532307692308 8.0
      vertex 0.0 1.5384615384615385 8.0
      vertex 0.1676799999999999 0.8400000000000001 8.0
    endloop
  endfacet
  facet normal 0.0 0.0 1.0
    outer loop
      vertex 0.1676799999999999 0.8400000000000001 8.0
      vertex 0.0 1.5384615384615385 8.0
      vertex 0.07529846153846156 1.0630763076923078 8.0
    endloop
  endfacet
  facet normal 0.0 0.0 1.0
    outer loop
      vertex 0.4506030769230769 0.45058400000000004 8.0
      vertex 0.0 1.5384615384615385 8.0
      vertex 0.29382153846153863 0.6341532307692308 8.0
    endloop
  endfacet
  facet normal 0.0 0.0 1.0
    outer loop
      vertex 0.6341784615384616 0.29384553846153844 8.0
      vertex 0.0 1.5384615384615385 8.0
      vertex 0.4506030769230769 0.45058400000000004 8.0
    endloop
  endfacet
  facet normal 0.0 0.0 1.0
    outer loop
      vertex 0.8400123076923077 0.1676916923076922 8.0
      vertex 0.0 1.5384615384615385 8.0
      vertex 0.6341784615384616 0.29384553846153844 8.0
    endloop
  endfacet
  facet normal 0.0 0.0 1.0
    outer loop
      vertex 1.063051076923077 0.07532184615384616 8.0
      vertex 0.0 1.5384615384615385 8.0
      vertex 0.8400123076923077 0.1676916923076922 8.0
    endloop
  endfacet
  facet normal 0.0 0.0 1.0
    outer loop
      vertex 1.2977932307692308 0.018953846153846255 8.0
      vertex 0.0 1.5384615384615385 8.0
      vertex 1.063051076923077 0.07532184615384616 8.0
    endloop
  endfacet
  facet normal 0.0 0.0 1.0
    outer loop
      vertex 1.5384615384615385 0.0 8.0
      vertex 0.0 1.5384615384615385 8.0
      vertex 1.2977932307692308 0.018953846153846255 8.0
    endloop
  endfacet
  facet normal 0.0 0.0 1.0
    outer loop
      vertex 1.7791298461538463 0.018953846153846255 8.0
      vertex 0.0 1.5384615384615385 8.0
      vertex 1.5384615384615385 0.0 8.0
    endloop
  endfacet
  facet normal 0.0 0.0 1.0
    outer loop
      vertex 2.013872 0.07532184615384616 8.0
      vertex 0.0 1.5384615384615385 8.0
      vertex 1.7791298461538463 0.018953846153846255 8.0
    endloop
  endfacet
  facet normal 0.0 0.0 1.0
    outer loop
      vertex 2.2369107692307693 0.1676916923076922 8.0
      vertex 0.0 1.5384615384615385 8.0
      vertex 2.013872 0.07532184615384616 8.0
    endloop
  endfacet
  facet normal 0.0 0.0 1.0
    outer loop
      vertex 2.4427446153846155 0.29384553846153844 8.0
      vertex 0.0 1.5384615384615385 8.0
      vertex 2.2369107692307693 0.1676916923076922 8.0
    endloop
  endfacet
  facet normal 0.0 0.0 1.0
    outer loop
      vertex 2.6263200000000007 0.45058400000000004 8.0
      vertex 0.0 1.5384615384615385 8.0
      vertex 2.4427446153846155 0.29384553846153844 8.0
    endloop
  endfacet
  facet normal 0.0 0.0 1.0
    outer loop
      vertex 2.7831015384615383 0.6341532307692308 8.0
      vertex 0.0 1.5384615384615385 8.0
      vertex 2.6263200000000007 0.45058400000000004 8.0
    endloop
  endfacet
  facet normal 0.0 0.0 1.0
    outer loop
      vertex 2.9092430769230773 0.8400000000000001 8.0
      vertex 0.0 1.5384615384615385 8.0
      vertex 2.7831015384615383 0.6341532307692308 8.0
    endloop
  endfacet
  facet normal 0.0 0.0 1.0
    outer loop
      vertex 3.0016246153846153 1.0630763076923078 8.0
      vertex 0.0 1.5384615384615385 8.0
      vertex 2.9092430769230773 0.8400000000000001 8.0
    endloop
  endfacet
  facet normal 0.0 0.0 1.0
    outer loop
      vertex 3.0579815384615388 1.297784676923077 8.0
      vertex 0.0 1.5384615384615385 8.0
      vertex 3.0016246153846153 1.0630763076923078 8.0
    endloop
  endfacet
  facet normal 0.0 0.0 1.0
    outer loop
      vertex 3.076923076923077 1.5384615384615385 8.0
      vertex 0.0 1.5384615384615385 8.0
      vertex 3.0579815384615388 1.297784676923077 8.0
    endloop
  endfacet
  facet normal 0.0 0.0 1.0
    outer loop
      vertex 3.0579815384615388 1.7791384000000001 8.0
      vertex 0.0 1.5384615384615385 8.0
      vertex 3.076923076923077 1.5384615384615385 8.0
    endloop
  endfacet
  facet normal 0.0 0.0 1.0
    outer loop
      vertex 3.0016246153846153 2.0138456000000002 8.0
      vertex 0.0 1.5384615384615385 8.0
      vertex 3.0579815384615388 1.7791384000000001 8.0
    endloop
  endfacet
  facet normal 0.0 0.0 1.0
    outer loop
      vertex 2.9092430769230773 2.2369218461538463 8.0
      vertex 0.0 1.5384615384615385 8.0
      vertex 3.0016246153846153 2.0138456000000002 8.0
    endloop
  endfacet
  facet normal 0.0 0.0 1.0
    outer loop
      vertex 2.7831015384615383 2.442769230769231 8.0
      vertex 0.0 1.5384615384615385 8.0
      vertex 2.9092430769230773 2.2369218461538463 8.0
    endloop
  endfacet
  facet normal 0.0 0.0 1.0
    outer loop
      vertex 2.6263200000000007 2.6263378461538465 8.0
      vertex 0.0 1.5384615384615385 8.0
      vertex 2.7831015384615383 2.442769230769231 8.0
    endloop
  endfacet
  facet normal 0.0 0.0 1.0
    outer loop
      vertex 2.4427446153846155 2.783076307692308 8.0
      vertex 0.0 1.5384615384615385 8.0
      vertex 2.6263200000000007 2.6263378461538465 8.0
    endloop
  endfacet
  facet normal 0.0 0.0 1.0
    outer loop
      vertex 2.2369107692307693 2.909230153846154 8.0
      vertex 0.0 1.5384615384615385 8.0
      vertex 2.4427446153846155 2.783076307692308 8.0
    endloop
  endfacet
  facet normal 0.0 0.0 1.0
    outer loop
      vertex 2.013872 3.0016000000000003 8.0
      vertex 0.0 1.5384615384615385 8.0
      vertex 2.2369107692307693 2.909230153846154 8.0
    endloop
  endfacet
  facet normal 0.0 0.0 1.0
    outer loop
      vertex 1.7791298461538463 3.0579692307692308 8.0
      vertex 0.0 1.5384615384615385 8.0
      vertex 2.013872 3.0016000000000003 8.0
    endloop
  endfacet
  facet normal 0.0 0.0 1.0
    outer loop
      vertex 1.5384615384615385 3.076923076923077 8.0
      vertex 0.0 1.5384615384615385 8.0
      vertex 1.7791298461538463 3.0579692307692308 8.0
    endloop
  endfacet
  facet normal -0.0 0.0 1.0
    outer loop
      vertex 1.2977932307692308 3.0579692307692308 8.0
      vertex 0.0 1.5384615384615385 8.0
      vertex 1.5384615384615385 3.076923076923077 8.0
    endloop
  endfacet
  facet normal -0.0 0.0 1.0
    outer loop
      vertex 1.063051076923077 3.0016000000000003 8.0
      vertex 0.0 1.5384615384615385 8.0
      vertex 1.2977932307692308 3.0579692307692308 8.0
    endloop
  endfacet
  facet normal -0.0 0.0 1.0
    outer loop
      vertex 0.8400123076923077 2.909230153846154 8.0
      vertex 0.0 1.5384615384615385 8.0
      vertex 1.063051076923077 3.0016000000000003 8.0
    endloop
  endfacet
  facet normal -0.0 0.0 1.0
    outer loop
      vertex 0.6341784615384616 2.783076307692308 8.0
      vertex 0.0 1.5384615384615385 8.0
      vertex 0.8400123076923077 2.909230153846154 8.0
    endloop
  endfacet
  facet normal -0.0 0.0 1.0
    outer loop
      vertex 0.4506030769230769 2.6263378461538465 8.0
      vertex 0.0 1.5384615384615385 8.0
      vertex 0.6341784615384616 2.783076307692308 8.0
    endloop
  endfacet
  facet normal -0.0 0.0 1.0
    outer loop
      vertex 0.29382153846153863 2.442769230769231 8.0
      vertex 0.0 1.5384615384615385 8.0
      vertex 0.4506030769230769 2.6263378461538465 8.0
    endloop
  endfacet
  facet normal -0.0 0.0 1.0
    outer loop
      vertex 0.1676799999999999 2.2369218461538463 8.0
      vertex 0.0 1.5384615384615385 8.0
      vertex 0.29382153846153863 2.442769230769231 8.0
    endloop
  endfacet
  facet normal -0.0 0.0 1.0
    outer loop
      vertex 0.07529846153846156 2.0138456000000002 8.0
      vertex 0.0 1.5384615384615385 8.0
      vertex 0.1676799999999999 2.2369218461538463 8.0
    endloop
  endfacet
  facet normal -0.0 0.0 1.0
    outer loop
      vertex 0.018941538461538482 1.7791384000000001 8.0
      vertex 0.0 1.5384615384615385 8.0
      vertex 0.07529846153846156 2.0138456000000002 8.0
    endloop
  endfacet
endsolid thingi10k_57420
