solid thingi10k_60276
  facet normal -0.6087607286011928 -0.7933538777323426 -0.0
    outer loop
      vertex 1.804738 1.804738 3.333333333333333
      vertex 1.6666666666666665 1.9106836666666667 1.8799776666666665e-15
      vertex 1.804738 1.804738 1.8799776666666665e-15
    endloop
  endfacet
  facet normal -0.6087607286011928 -0.7933538777323426 0.0
    outer loop
      vertex 1.6666666666666665 1.9106836666666667 1.8799776666666665e-15
      vertex 1.804738 1.804738 3.333333333333333
      vertex 1.6666666666666665 1.9106836666666667 3.333333333333333
    endloop
  endfacet
  facet normal -0.3826853949281293 -0.9238787195886167 -0.0
    outer loop
      vertex 1.6666666666666665 7.244016666666667 3.333333333333333
      vertex 1.5058794 7.310617333333333 0.0
      vertex 1.6666666666666665 7.244016666666667 0.0
    endloop
  endfacet
  facet normal -0.3826853949281293 -0.9238787195886167 0.0
    outer loop
      vertex 1.5058794 7.310617333333333 0.0
      vertex 1.6666666666666665 7.244016666666667 3.333333333333333
      vertex 1.5058794 7.310617333333333 3.333333333333333
    endloop
  endfacet
  facet normal -0.3826853949281293 0.9238787195886167 0.0
    outer loop
      vertex 1.5058794 6.022716 3.333333333333333
      vertex 1.6666666666666665 6.089316666666666 0.0
      vertex 1.5058794 6.022716 0.0
    endloop
  endfacet
  facet normal -0.3826853949281293 0.9238787195886167 0.0
    outer loop
      vertex 1.6666666666666665 6.089316666666666 0.0
      vertex 1.5058794 6.022716 3.333333333333333
      vertex 1.6666666666666665 6.089316666666666 3.333333333333333
    endloop
  endfacet
  facet normal -0.13052551091753475 0.9914449510687502 0.0
    outer loop
      vertex 1.3333333333333333 6.0 3.333333333333333
      vertex 1.5058794 6.022716 0.0
      vertex 1.3333333333333333 6.0 0.0
    endloop
  endfacet
  facet normal -0.13052551091753475 0.9914449510687502 0.0
    outer loop
      vertex 1.5058794 6.022716 0.0
      vertex 1.3333333333333333 6.0 3.333333333333333
      vertex 1.5058794 6.022716 3.333333333333333
    endloop
  endfacet
  facet normal 0.13052551091753475 0.9914449510687502 0.0
    outer loop
      vertex 1.1607872666666665 6.022716 3.333333333333333
      vertex 1.3333333333333333 6.0 0.0
      vertex 1.1607872666666665 6.022716 0.0
    endloop
  endfacet
  facet normal 0.13052551091753475 0.9914449510687502 -0.0
    outer loop
      vertex 1.3333333333333333 6.0 0.0
      vertex 1.1607872666666665 6.022716 3.333333333333333
      vertex 1.3333333333333333 6.0 3.333333333333333
    endloop
  endfacet
  facet normal -0.9914449119111723 -0.13052580835010297 0.0
    outer loop
      vertex 1.977284 6.839212333333333 3.333333333333333
      vertex 2.0 6.666666666666666 0.0
      vertex 2.0 6.666666666666666 3.333333333333333
    endloop
  endfacet
  facet normal -0.9914449119111723 -0.13052580835010297 0.0
    outer loop
      vertex 2.0 6.666666666666666 0.0
      vertex 1.977284 6.839212333333333 3.333333333333333
      vertex 1.977284 6.839212333333333 0.0
    endloop
  endfacet
  facet normal -0.923879733350382 -0.38268294749626247 0.0
    outer loop
      vertex 1.9106836666666667 7.0 3.333333333333333
      vertex 1.977284 6.839212333333333 0.0
      vertex 1.977284 6.839212333333333 3.333333333333333
    endloop
  endfacet
  facet normal -0.923879733350382 -0.38268294749626247 0.0
    outer loop
      vertex 1.977284 6.839212333333333 0.0
      vertex 1.9106836666666667 7.0 3.333333333333333
      vertex 1.9106836666666667 7.0 0.0
    endloop
  endfacet
  facet normal -0.9914449119111722 0.13052580835010366 0.0
    outer loop
      vertex 2.0 6.666666666666666 3.333333333333333
      vertex 1.977284 6.494121 0.0
      vertex 1.977284 6.494121 3.333333333333333
    endloop
  endfacet
  facet normal -0.9914449119111722 0.13052580835010366 0.0
    outer loop
      vertex 1.977284 6.494121 0.0
      vertex 2.0 6.666666666666666 3.333333333333333
      vertex 2.0 6.666666666666666 0.0
    endloop
  endfacet
  facet normal -0.7933531679316456 -0.6087616536320455 0.0
    outer loop
      vertex 1.804738 7.138071 3.333333333333333
      vertex 1.9106836666666667 7.0 0.0
      vertex 1.9106836666666667 7.0 3.333333333333333
    endloop
  endfacet
  facet normal -0.7933531679316456 -0.6087616536320455 0.0
    outer loop
      vertex 1.9106836666666667 7.0 0.0
      vertex 1.804738 7.138071 3.333333333333333
      vertex 1.804738 7.138071 0.0
    endloop
  endfacet
  facet normal 0.38268376009864774 -0.923879396759534 0.0
    outer loop
      vertex 1.1607872666666665 1.977284 3.333333333333333
      vertex 1.0 1.9106836666666667 1.8799776666666665e-15
      vertex 1.1607872666666665 1.977284 1.8799776666666665e-15
    endloop
  endfacet
  facet normal 0.38268376009864774 -0.923879396759534 0.0
    outer loop
      vertex 1.0 1.9106836666666667 1.8799776666666665e-15
      vertex 1.1607872666666665 1.977284 3.333333333333333
      vertex 1.0 1.9106836666666667 3.333333333333333
    endloop
  endfacet
  facet normal 0.6087607286011928 -0.7933538777323426 0.0
    outer loop
      vertex 1.0 1.9106836666666667 3.333333333333333
      vertex 0.8619286666666666 1.804738 1.8799776666666665e-15
      vertex 1.0 1.9106836666666667 1.8799776666666665e-15
    endloop
  endfacet
  facet normal 0.6087607286011928 -0.7933538777323426 0.0
    outer loop
      vertex 0.8619286666666666 1.804738 1.8799776666666665e-15
      vertex 1.0 1.9106836666666667 3.333333333333333
      vertex 0.8619286666666666 1.804738 3.333333333333333
    endloop
  endfacet
  facet normal -1.0 -0.0 0.0
    outer loop
      vertex 0.0 8.0 3.333333333333333
      vertex 0.0 0.0 1.8799776666666665e-15
      vertex 0.0 0.0 3.333333333333333
    endloop
  endfacet
  facet normal -1.0 0.0 0.0
    outer loop
      vertex 0.0 0.0 1.8799776666666665e-15
      vertex 0.0 8.0 3.333333333333333
      vertex 0.0 8.0 0.0
    endloop
  endfacet
  facet normal 0.7933538777323426 -0.6087607286011928 0.0
    outer loop
      vertex 0.8619286666666666 1.804738 1.8799776666666665e-15
      vertex 0.7559829999999998 1.6666666666666665 3.333333333333333
      vertex 0.7559829999999998 1.6666666666666665 1.8799776666666665e-15
    endloop
  endfacet
  facet normal 0.7933538777323426 -0.6087607286011928 0.0
    outer loop
      vertex 0.7559829999999998 1.6666666666666665 3.333333333333333
      vertex 0.8619286666666666 1.804738 1.8799776666666665e-15
      vertex 0.8619286666666666 1.804738 3.333333333333333
    endloop
  endfacet
  facet normal 0.923879452858158 -0.38268362466469696 0.0
    outer loop
      vertex 0.7559829999999998 1.6666666666666665 1.8799776666666665e-15
      vertex 0.6893826666666666 1.5058793333333331 3.333333333333333
      vertex 0.6893826666666666 1.5058793333333331 1.8799776666666665e-15
    endloop
  endfacet
  facet normal 0.923879452858158 -0.38268362466469696 0.0
    outer loop
      vertex 0.6893826666666666 1.5058793333333331 3.333333333333333
      vertex 0.7559829999999998 1.6666666666666665 1.8799776666666665e-15
      vertex 0.7559829999999998 1.6666666666666665 3.333333333333333
    endloop
  endfacet
  facet normal 0.9914449445425058 -0.13052556048953634 0.0
    outer loop
      vertex 0.6893826666666666 1.5058793333333331 1.8799776666666665e-15
      vertex 0.6666666666666666 1.3333333333333333 3.333333333333333
      vertex 0.6666666666666666 1.3333333333333333 1.8799776666666665e-15
    endloop
  endfacet
  facet normal 0.9914449445425058 -0.13052556048953634 0.0
    outer loop
      vertex 0.6666666666666666 1.3333333333333333 3.333333333333333
      vertex 0.6893826666666666 1.5058793333333331 1.8799776666666665e-15
      vertex 0.6893826666666666 1.5058793333333331 3.333333333333333
    endloop
  endfacet
  facet normal 0.9914449445425058 0.13052556048953634 0.0
    outer loop
      vertex 0.6666666666666666 1.3333333333333333 1.8799776666666665e-15
      vertex 0.6893826666666666 1.1607873333333334 3.333333333333333
      vertex 0.6893826666666666 1.1607873333333334 1.8799776666666665e-15
    endloop
  endfacet
  facet normal 0.9914449445425058 0.13052556048953634 0.0
    outer loop
      vertex 0.6893826666666666 1.1607873333333334 3.333333333333333
      vertex 0.6666666666666666 1.3333333333333333 1.8799776666666665e-15
      vertex 0.6666666666666666 1.3333333333333333 3.333333333333333
    endloop
  endfacet
  facet normal 0.923879452858158 0.38268362466469696 0.0
    outer loop
      vertex 0.6893826666666666 1.1607873333333334 1.8799776666666665e-15
      vertex 0.7559829999999998 1.0 3.333333333333333
      vertex 0.7559829999999998 1.0 1.8799776666666665e-15
    endloop
  endfacet
  facet normal 0.923879452858158 0.38268362466469696 0.0
    outer loop
      vertex 0.7559829999999998 1.0 3.333333333333333
      vertex 0.6893826666666666 1.1607873333333334 1.8799776666666665e-15
      vertex 0.6893826666666666 1.1607873333333334 3.333333333333333
    endloop
  endfacet
  facet normal 0.7933538777323421 0.6087607286011935 0.0
    outer loop
      vertex 0.7559829999999998 1.0 1.8799776666666665e-15
      vertex 0.8619286666666666 0.8619286666666668 3.333333333333333
      vertex 0.8619286666666666 0.8619286666666668 1.8799776666666665e-15
    endloop
  endfacet
  facet normal 0.7933538777323421 0.6087607286011935 0.0
    outer loop
      vertex 0.8619286666666666 0.8619286666666668 3.333333333333333
      vertex 0.7559829999999998 1.0 1.8799776666666665e-15
      vertex 0.7559829999999998 1.0 3.333333333333333
    endloop
  endfacet
  facet normal 1.0 0.0 0.0
    outer loop
      vertex 2.6666666666666665 8.0 1.8799776666666665e-15
      vertex 2.6666666666666665 0.0 3.333333333333333
      vertex 2.6666666666666665 0.0 1.8799776666666665e-15
    endloop
  endfacet
  facet normal 1.0 -0.0 0.0
    outer loop
      vertex 2.6666666666666665 0.0 3.333333333333333
      vertex 2.6666666666666665 8.0 1.8799776666666665e-15
      vertex 2.6666666666666665 8.0 3.333333333333333
    endloop
  endfacet
  facet normal 0.0 -1.0 -0.0
    outer loop
      vertex 2.6666666666666665 0.0 3.333333333333333
      vertex 0.0 0.0 1.8799776666666665e-15
      vertex 2.6666666666666665 0.0 1.8799776666666665e-15
    endloop
  endfacet
  facet normal 0.0 -1.0 0.0
    outer loop
      vertex 0.0 0.0 1.8799776666666665e-15
      vertex 2.6666666666666665 0.0 3.333333333333333
      vertex 0.0 0.0 3.333333333333333
    endloop
  endfacet
  facet normal 0.6087607286011937 0.793353877732342 0.0
    outer loop
      vertex 0.8619286666666666 0.8619286666666668 3.333333333333333
      vertex 1.0 0.7559829999999998 1.8799776666666665e-15
      vertex 0.8619286666666666 0.8619286666666668 1.8799776666666665e-15
    endloop
  endfacet
  facet normal 0.6087607286011937 0.793353877732342 -0.0
    outer loop
      vertex 1.0 0.7559829999999998 1.8799776666666665e-15
      vertex 0.8619286666666666 0.8619286666666668 3.333333333333333
      vertex 1.0 0.7559829999999998 3.333333333333333
    endloop
  endfacet
  facet normal 0.0 0.0 1.0
    outer loop
      vertex 0.0 0.0 3.333333333333333
      vertex 0.6666666666666666 1.3333333333333333 3.333333333333333
      vertex 0.0 8.0 3.333333333333333
    endloop
  endfacet
  facet normal 0.0 0.0 1.0
    outer loop
      vertex 0.6666666666666666 1.3333333333333333 3.333333333333333
      vertex 0.0 0.0 3.333333333333333
      vertex 0.6893826666666666 1.1607873333333334 3.333333333333333
    endloop
  endfacet
  facet normal 0.0 0.0 1.0
    outer loop
      vertex 0.6893826666666666 1.1607873333333334 3.333333333333333
      vertex 0.0 0.0 3.333333333333333
      vertex 0.7559829999999998 1.0 3.333333333333333
    endloop
  endfacet
  facet normal 0.0 0.0 1.0
    outer loop
      vertex 0.7559829999999998 1.0 3.333333333333333
      vertex 0.0 0.0 3.333333333333333
      vertex 0.8619286666666666 0.8619286666666668 3.333333333333333
    endloop
  endfacet
  facet normal 0.0 0.0 1.0
    outer loop
      vertex 0.8619286666666666 0.8619286666666668 3.333333333333333
      vertex 0.0 0.0 3.333333333333333
      vertex 1.0 0.7559829999999998 3.333333333333333
    endloop
  endfacet
  facet normal 0.0 0.0 1.0
    outer loop
      vertex 1.0 0.7559829999999998 3.333333333333333
      vertex 0.0 0.0 3.333333333333333
      vertex 2.6666666666666665 0.0 3.333333333333333
    endloop
  endfacet
  facet normal 0.0 0.0 1.0
    outer loop
      vertex 1.0 0.7559829999999998 3.333333333333333
      vertex 2.6666666666666665 0.0 3.333333333333333
      vertex 1.1607872666666665 0.6893826666666669 3.333333333333333
    endloop
  endfacet
  facet normal 0.0 0.0 1.0
    outer loop
      vertex 1.1607872666666665 0.6893826666666669 3.333333333333333
      vertex 2.6666666666666665 0.0 3.333333333333333
      vertex 1.3333333333333333 0.6666666666666666 3.333333333333333
    endloop
  endfacet
  facet normal -0.0 0.0 1.0
    outer loop
      vertex 1.3333333333333333 0.6666666666666666 3.333333333333333
      vertex 2.6666666666666665 0.0 3.333333333333333
      vertex 1.5058794 0.6893826666666669 3.333333333333333
    endloop
  endfacet
  facet normal -0.0 0.0 1.0
    outer loop
      vertex 1.5058794 0.6893826666666669 3.333333333333333
      vertex 2.6666666666666665 0.0 3.333333333333333
      vertex 1.6666666666666665 0.7559829999999998 3.333333333333333
    endloop
  endfacet
  facet normal -0.0 0.0 1.0
    outer loop
      vertex 1.6666666666666665 0.7559829999999998 3.333333333333333
      vertex 2.6666666666666665 0.0 3.333333333333333
      vertex 1.804738 0.8619286666666668 3.333333333333333
    endloop
  endfacet
  facet normal -0.0 0.0 1.0
    outer loop
      vertex 1.804738 0.8619286666666668 3.333333333333333
      vertex 2.6666666666666665 0.0 3.333333333333333
      vertex 1.9106836666666667 1.0 3.333333333333333
    endloop
  endfacet
  facet normal -0.0 0.0 1.0
    outer loop
      vertex 1.9106836666666667 1.0 3.333333333333333
      vertex 2.6666666666666665 0.0 3.333333333333333
      vertex 1.977284 1.1607873333333334 3.333333333333333
    endloop
  endfacet
  facet normal -0.0 0.0 1.0
    outer loop
      vertex 1.977284 1.1607873333333334 3.333333333333333
      vertex 2.6666666666666665 0.0 3.333333333333333
      vertex 2.0 1.3333333333333333 3.333333333333333
    endloop
  endfacet
  facet normal -0.0 0.0 1.0
    outer loop
      vertex 2.0 1.3333333333333333 3.333333333333333
      vertex 2.6666666666666665 0.0 3.333333333333333
      vertex 2.0 6.666666666666666 3.333333333333333
    endloop
  endfacet
  facet normal -0.0 0.0 1.0
    outer loop
      vertex 0.0 8.0 3.333333333333333
      vertex 1.0 7.244016666666667 3.333333333333333
      vertex 2.6666666666666665 8.0 3.333333333333333
    endloop
  endfacet
  facet normal 0.0 0.0 1.0
    outer loop
      vertex 1.0 7.244016666666667 3.333333333333333
      vertex 0.0 8.0 3.333333333333333
      vertex 0.8619286666666666 7.138071 3.333333333333333
    endloop
  endfacet
  facet normal 0.0 0.0 1.0
    outer loop
      vertex 0.8619286666666666 7.138071 3.333333333333333
      vertex 0.0 8.0 3.333333333333333
      vertex 0.7559829999999998 7.0 3.333333333333333
    endloop
  endfacet
  facet normal 0.0 0.0 1.0
    outer loop
      vertex 0.7559829999999998 7.0 3.333333333333333
      vertex 0.0 8.0 3.333333333333333
      vertex 0.6893826666666666 6.839212333333333 3.333333333333333
    endloop
  endfacet
  facet normal 0.0 0.0 1.0
    outer loop
      vertex 0.6893826666666666 6.839212333333333 3.333333333333333
      vertex 0.0 8.0 3.333333333333333
      vertex 0.6666666666666666 6.666666666666666 3.333333333333333
    endloop
  endfacet
  facet normal 0.0 0.0 1.0
    outer loop
      vertex 0.6666666666666666 6.666666666666666 3.333333333333333
      vertex 0.0 8.0 3.333333333333333
      vertex 0.6666666666666666 1.3333333333333333 3.333333333333333
    endloop
  endfacet
  facet normal 0.0 0.0 1.0
    outer loop
      vertex 2.6666666666666665 8.0 3.333333333333333
      vertex 1.0 7.244016666666667 3.333333333333333
      vertex 1.1607872666666665 7.310617333333333 3.333333333333333
    endloop
  endfacet
  facet normal 0.0 0.0 1.0
    outer loop
      vertex 2.6666666666666665 8.0 3.333333333333333
      vertex 1.1607872666666665 7.310617333333333 3.333333333333333
      vertex 1.3333333333333333 7.333333333333333 3.333333333333333
    endloop
  endfacet
  facet normal 0.0 0.0 1.0
    outer loop
      vertex 2.6666666666666665 8.0 3.333333333333333
      vertex 1.3333333333333333 7.333333333333333 3.333333333333333
      vertex 1.5058794 7.310617333333333 3.333333333333333
    endloop
  endfacet
  facet normal 0.0 0.0 1.0
    outer loop
      vertex 2.6666666666666665 8.0 3.333333333333333
      vertex 1.5058794 7.310617333333333 3.333333333333333
      vertex 1.6666666666666665 7.244016666666667 3.333333333333333
    endloop
  endfacet
  facet normal 0.0 0.0 1.0
    outer loop
      vertex 2.6666666666666665 8.0 3.333333333333333
      vertex 1.6666666666666665 7.244016666666667 3.333333333333333
      vertex 1.804738 7.138071 3.333333333333333
    endloop
  endfacet
  facet normal 0.0 0.0 1.0
    outer loop
      vertex 2.6666666666666665 8.0 3.333333333333333
      vertex 1.804738 7.138071 3.333333333333333
      vertex 1.9106836666666667 7.0 3.333333333333333
    endloop
  endfacet
  facet normal 0.0 0.0 1.0
    outer loop
      vertex 2.6666666666666665 8.0 3.333333333333333
      vertex 1.9106836666666667 7.0 3.333333333333333
      vertex 1.977284 6.839212333333333 3.333333333333333
    endloop
  endfacet
  facet normal 0.0 0.0 1.0
    outer loop
      vertex 2.6666666666666665 8.0 3.333333333333333
      vertex 1.977284 6.839212333333333 3.333333333333333
      vertex 2.0 6.666666666666666 3.333333333333333
    endloop
  endfacet
  facet normal 0.0 0.0 1.0
    outer loop
      vertex 2.6666666666666665 8.0 3.333333333333333
      vertex 2.0 6.666666666666666 3.333333333333333
      vertex 2.6666666666666665 0.0 3.333333333333333
    endloop
  endfacet
  facet normal 0.0 0.0 1.0
    outer loop
      vertex 0.6893826666666666 1.5058793333333331 3.333333333333333
      vertex 0.6666666666666666 6.666666666666666 3.333333333333333
      vertex 0.6666666666666666 1.3333333333333333 3.333333333333333
    endloop
  endfacet
  facet normal 0.0 0.0 1.0
    outer loop
      vertex 0.6666666666666666 6.666666666666666 3.333333333333333
      vertex 0.6893826666666666 1.5058793333333331 3.333333333333333
      vertex 0.6893826666666666 6.494121 3.333333333333333
    endloop
  endfacet
  facet normal 0.0 0.0 1.0
    outer loop
      vertex 0.6893826666666666 6.494121 3.333333333333333
      vertex 0.6893826666666666 1.5058793333333331 3.333333333333333
      vertex 0.7559829999999998 1.6666666666666665 3.333333333333333
    endloop
  endfacet
  facet normal 0.0 0.0 1.0
    outer loop
      vertex 0.6893826666666666 6.494121 3.333333333333333
      vertex 0.7559829999999998 1.6666666666666665 3.333333333333333
      vertex 0.7559829999999998 6.333333333333333 3.333333333333333
    endloop
  endfacet
  facet normal 0.0 0.0 1.0
    outer loop
      vertex 0.7559829999999998 6.333333333333333 3.333333333333333
      vertex 0.7559829999999998 1.6666666666666665 3.333333333333333
      vertex 0.8619286666666666 1.804738 3.333333333333333
    endloop
  endfacet
  facet normal 0.0 0.0 1.0
    outer loop
      vertex 0.7559829999999998 6.333333333333333 3.333333333333333
      vertex 0.8619286666666666 1.804738 3.333333333333333
      vertex 0.8619286666666666 6.195262333333333 3.333333333333333
    endloop
  endfacet
  facet normal 0.0 0.0 1.0
    outer loop
      vertex 0.8619286666666666 6.195262333333333 3.333333333333333
      vertex 0.8619286666666666 1.804738 3.333333333333333
      vertex 1.0 1.9106836666666667 3.333333333333333
    endloop
  endfacet
  facet normal 0.0 0.0 1.0
    outer loop
      vertex 0.8619286666666666 6.195262333333333 3.333333333333333
      vertex 1.0 1.9106836666666667 3.333333333333333
      vertex 1.0 6.089316666666666 3.333333333333333
    endloop
  endfacet
  facet normal 0.0 0.0 1.0
    outer loop
      vertex 1.0 6.089316666666666 3.333333333333333
      vertex 1.0 1.9106836666666667 3.333333333333333
      vertex 1.1607872666666665 1.977284 3.333333333333333
    endloop
  endfacet
  facet normal 0.0 0.0 1.0
    outer loop
      vertex 1.0 6.089316666666666 3.333333333333333
      vertex 1.1607872666666665 1.977284 3.333333333333333
      vertex 1.1607872666666665 6.022716 3.333333333333333
    endloop
  endfacet
  facet normal 0.0 0.0 1.0
    outer loop
      vertex 1.1607872666666665 6.022716 3.333333333333333
      vertex 1.1607872666666665 1.977284 3.333333333333333
      vertex 1.3333333333333333 6.0 3.333333333333333
    endloop
  endfacet
  facet normal 0.0 0.0 1.0
    outer loop
      vertex 1.3333333333333333 6.0 3.333333333333333
      vertex 1.1607872666666665 1.977284 3.333333333333333
      vertex 1.3333333333333333 2.0 3.333333333333333
    endloop
  endfacet
  facet normal 0.0 0.0 1.0
    outer loop
      vertex 1.3333333333333333 6.0 3.333333333333333
      vertex 1.3333333333333333 2.0 3.333333333333333
      vertex 1.5058794 1.977284 3.333333333333333
    endloop
  endfacet
  facet normal -0.0 0.0 1.0
    outer loop
      vertex 1.3333333333333333 6.0 3.333333333333333
      vertex 1.5058794 1.977284 3.333333333333333
      vertex 1.5058794 6.022716 3.333333333333333
    endloop
  endfacet
  facet normal 0.0 0.0 1.0
    outer loop
      vertex 1.5058794 6.022716 3.333333333333333
      vertex 1.5058794 1.977284 3.333333333333333
      vertex 1.6666666666666665 1.9106836666666667 3.333333333333333
    endloop
  endfacet
  facet normal -0.0 0.0 1.0
    outer loop
      vertex 1.5058794 6.022716 3.333333333333333
      vertex 1.6666666666666665 1.9106836666666667 3.333333333333333
      vertex 1.6666666666666665 6.089316666666666 3.333333333333333
    endloop
  endfacet
  facet normal 0.0 0.0 1.0
    outer loop
      vertex 1.6666666666666665 6.089316666666666 3.333333333333333
      vertex 1.6666666666666665 1.9106836666666667 3.333333333333333
      vertex 1.804738 1.804738 3.333333333333333
    endloop
  endfacet
  facet normal -0.0 0.0 1.0
    outer loop
      vertex 1.6666666666666665 6.089316666666666 3.333333333333333
      vertex 1.804738 1.804738 3.333333333333333
      vertex 1.804738 6.195262333333333 3.333333333333333
    endloop
  endfacet
  facet normal -0.0 0.0 1.0
    outer loop
      vertex 1.804738 6.195262333333333 3.333333333333333
      vertex 1.804738 1.804738 3.333333333333333
      vertex 1.9106836666666667 6.333333333333333 3.333333333333333
    endloop
  endfacet
  facet normal 0.0 0.0 1.0
    outer loop
      vertex 1.9106836666666667 6.333333333333333 3.333333333333333
      vertex 1.804738 1.804738 3.333333333333333
      vertex 1.9106836666666667 1.6666666666666665 3.333333333333333
    endloop
  endfacet
  facet normal 0.0 0.0 1.0
    outer loop
      vertex 1.9106836666666667 6.333333333333333 3.333333333333333
      vertex 1.9106836666666667 1.6666666666666665 3.333333333333333
      vertex 1.977284 1.5058793333333331 3.333333333333333
    endloop
  endfacet
  facet normal -0.0 0.0 1.0
    outer loop
      vertex 1.9106836666666667 6.333333333333333 3.333333333333333
      vertex 1.977284 1.5058793333333331 3.333333333333333
      vertex 1.977284 6.494121 3.333333333333333
    endloop
  endfacet
  facet normal 0.0 0.0 1.0
    outer loop
      vertex 1.977284 6.494121 3.333333333333333
      vertex 1.977284 1.5058793333333331 3.333333333333333
      vertex 2.0 1.3333333333333333 3.333333333333333
    endloop
  endfacet
  facet normal -0.0 0.0 1.0
    outer loop
      vertex 1.977284 6.494121 3.333333333333333
      vertex 2.0 1.3333333333333333 3.333333333333333
      vertex 2.0 6.666666666666666 3.333333333333333
    endloop
  endfacet
  facet normal -0.7933538777323426 -0.6087607286011928 0.0
    outer loop
      vertex 1.804738 1.804738 3.333333333333333
      vertex 1.9106836666666667 1.6666666666666665 1.8799776666666665e-15
      vertex 1.9106836666666667 1.6666666666666665 3.333333333333333
    endloop
  endfacet
  facet normal -0.7933538777323426 -0.6087607286011928 0.0
    outer loop
      vertex 1.9106836666666667 1.6666666666666665 1.8799776666666665e-15
      vertex 1.804738 1.804738 3.333333333333333
      vertex 1.804738 1.804738 1.8799776666666665e-15
    endloop
  endfacet
  facet normal -0.38268376009864774 -0.923879396759534 -0.0
    outer loop
      vertex 1.6666666666666665 1.9106836666666667 3.333333333333333
      vertex 1.5058794 1.977284 1.8799776666666665e-15
      vertex 1.6666666666666665 1.9106836666666667 1.8799776666666665e-15
    endloop
  endfacet
  facet normal -0.38268376009864774 -0.923879396759534 0.0
    outer loop
      vertex 1.5058794 1.977284 1.8799776666666665e-15
      vertex 1.6666666666666665 1.9106836666666667 3.333333333333333
      vertex 1.5058794 1.977284 3.333333333333333
    endloop
  endfacet
  facet normal -0.9238794528581578 -0.3826836246646975 0.0
    outer loop
      vertex 1.9106836666666667 1.6666666666666665 3.333333333333333
      vertex 1.977284 1.5058793333333331 1.8799776666666665e-15
      vertex 1.977284 1.5058793333333331 3.333333333333333
    endloop
  endfacet
  facet normal -0.9238794528581578 -0.3826836246646975 0.0
    outer loop
      vertex 1.977284 1.5058793333333331 1.8799776666666665e-15
      vertex 1.9106836666666667 1.6666666666666665 3.333333333333333
      vertex 1.9106836666666667 1.6666666666666665 1.8799776666666665e-15
    endloop
  endfacet
  facet normal -0.13052551091753478 -0.9914449510687502 -0.0
    outer loop
      vertex 1.5058794 1.977284 3.333333333333333
      vertex 1.3333333333333333 2.0 1.8799776666666665e-15
      vertex 1.5058794 1.977284 1.8799776666666665e-15
    endloop
  endfacet
  facet normal -0.13052551091753478 -0.9914449510687502 0.0
    outer loop
      vertex 1.3333333333333333 2.0 1.8799776666666665e-15
      vertex 1.5058794 1.977284 3.333333333333333
      vertex 1.3333333333333333 2.0 3.333333333333333
    endloop
  endfacet
  facet normal -0.7933531679316456 0.6087616536320455 0.0
    outer loop
      vertex 1.9106836666666667 6.333333333333333 3.333333333333333
      vertex 1.804738 6.195262333333333 0.0
      vertex 1.804738 6.195262333333333 3.333333333333333
    endloop
  endfacet
  facet normal -0.7933531679316456 0.6087616536320455 0.0
    outer loop
      vertex 1.804738 6.195262333333333 0.0
      vertex 1.9106836666666667 6.333333333333333 3.333333333333333
      vertex 1.9106836666666667 6.333333333333333 0.0
    endloop
  endfacet
  facet normal -0.6087607286011937 0.793353877732342 0.0
    outer loop
      vertex 1.6666666666666665 6.089316666666666 3.333333333333333
      vertex 1.804738 6.195262333333333 0.0
      vertex 1.6666666666666665 6.089316666666666 0.0
    endloop
  endfacet
  facet normal -0.6087607286011937 0.793353877732342 0.0
    outer loop
      vertex 1.804738 6.195262333333333 0.0
      vertex 1.6666666666666665 6.089316666666666 3.333333333333333
      vertex 1.804738 6.195262333333333 3.333333333333333
    endloop
  endfacet
  facet normal -0.9914449445425058 -0.13052556048953634 0.0
    outer loop
      vertex 1.977284 1.5058793333333331 3.333333333333333
      vertex 2.0 1.3333333333333333 1.8799776666666665e-15
      vertex 2.0 1.3333333333333333 3.333333333333333
    endloop
  endfacet
  facet normal -0.9914449445425058 -0.13052556048953634 0.0
    outer loop
      vertex 2.0 1.3333333333333333 1.8799776666666665e-15
      vertex 1.977284 1.5058793333333331 3.333333333333333
      vertex 1.977284 1.5058793333333331 1.8799776666666665e-15
    endloop
  endfacet
  facet normal -4.699944166666668e-16 -2.349972083333333e-16 -1.0
    outer loop
      vertex 0.0 8.0 0.0
      vertex 0.6666666666666666 6.666666666666666 0.0
      vertex 0.0 0.0 1.8799776666666665e-15
    endloop
  endfacet
  facet normal 0.0 0.0 -1.0
    outer loop
      vertex 0.6666666666666666 6.666666666666666 0.0
      vertex 0.0 8.0 0.0
      vertex 0.6893826666666666 6.839212333333333 0.0
    endloop
  endfacet
  facet normal 0.0 0.0 -1.0
    outer loop
      vertex 0.6893826666666666 6.839212333333333 0.0
      vertex 0.0 8.0 0.0
      vertex 0.7559829999999998 7.0 0.0
    endloop
  endfacet
  facet normal 0.0 0.0 -1.0
    outer loop
      vertex 0.7559829999999998 7.0 0.0
      vertex 0.0 8.0 0.0
      vertex 0.8619286666666666 7.138071 0.0
    endloop
  endfacet
  facet normal 0.0 0.0 -1.0
    outer loop
      vertex 0.8619286666666666 7.138071 0.0
      vertex 0.0 8.0 0.0
      vertex 1.0 7.244016666666667 0.0
    endloop
  endfacet
  facet normal 7.04991625e-16 9.32549163341344e-16 -1.0
    outer loop
      vertex 1.0 7.244016666666667 0.0
      vertex 0.0 8.0 0.0
      vertex 2.6666666666666665 8.0 1.8799776666666665e-15
    endloop
  endfacet
  facet normal -1.1866479443044794e-14 2.864804348209793e-14 -1.0
    outer loop
      vertex 1.0 7.244016666666667 0.0
      vertex 2.6666666666666665 8.0 1.8799776666666665e-15
      vertex 1.1607872666666665 7.310617333333333 0.0
    endloop
  endfacet
  facet normal -5.039439040368449e-16 3.827854308073688e-15 -1.0
    outer loop
      vertex 1.1607872666666665 7.310617333333333 0.0
      vertex 2.6666666666666665 8.0 1.8799776666666665e-15
      vertex 1.3333333333333333 7.333333333333333 0.0
    endloop
  endfacet
  facet normal 2.9387525081575423e-16 2.2322159983684902e-15 -1.0
    outer loop
      vertex 1.3333333333333333 7.333333333333333 0.0
      vertex 2.6666666666666665 8.0 1.8799776666666665e-15
      vertex 1.5058794 7.310617333333333 0.0
    endloop
  endfacet
  facet normal 6.654566184259889e-16 1.6065447407226942e-15 -1.0
    outer loop
      vertex 1.5058794 7.310617333333333 0.0
      vertex 2.6666666666666665 8.0 1.8799776666666665e-15
      vertex 1.6666666666666665 7.244016666666667 0.0
    endloop
  endfacet
  facet normal 9.469878012293792e-16 1.2341407863100438e-15 -1.0
    outer loop
      vertex 1.6666666666666665 7.244016666666667 0.0
      vertex 2.6666666666666665 8.0 1.8799776666666665e-15
      vertex 1.804738 7.138071 0.0
    endloop
  endfacet
  facet normal 1.2341395555342364e-15 9.46989143055228e-16 -1.0
    outer loop
      vertex 1.804738 7.138071 0.0
      vertex 2.6666666666666665 8.0 1.8799776666666665e-15
      vertex 1.9106836666666667 7.0 0.0
    endloop
  endfacet
  facet normal 1.6065494592304786e-15 6.654535868292319e-16 -1.0
    outer loop
      vertex 1.9106836666666667 7.0 0.0
      vertex 2.6666666666666665 8.0 1.8799776666666665e-15
      vertex 1.977284 6.839212333333333 0.0
    endloop
  endfacet
  facet normal 2.2322149198167113e-15 2.938757900916444e-16 -1.0
    outer loop
      vertex 1.977284 6.839212333333333 0.0
      vertex 2.6666666666666665 8.0 1.8799776666666665e-15
      vertex 2.0 6.666666666666666 0.0
    endloop
  endfacet
  facet normal 3.5249581250000007e-15 -3.5249581249999997e-16 -1.0
    outer loop
      vertex 2.0 6.666666666666666 0.0
      vertex 2.6666666666666665 8.0 1.8799776666666665e-15
      vertex 2.0 1.3333333333333333 1.8799776666666665e-15
    endloop
  endfacet
  facet normal 0.0 0.0 -1.0
    outer loop
      vertex 0.0 0.0 1.8799776666666665e-15
      vertex 1.0 0.7559829999999998 1.8799776666666665e-15
      vertex 2.6666666666666665 0.0 1.8799776666666665e-15
    endloop
  endfacet
  facet normal -0.0 0.0 -1.0
    outer loop
      vertex 1.0 0.7559829999999998 1.8799776666666665e-15
      vertex 0.0 0.0 1.8799776666666665e-15
      vertex 0.8619286666666666 0.8619286666666668 1.8799776666666665e-15
    endloop
  endfacet
  facet normal -0.0 0.0 -1.0
    outer loop
      vertex 0.8619286666666666 0.8619286666666668 1.8799776666666665e-15
      vertex 0.0 0.0 1.8799776666666665e-15
      vertex 0.7559829999999998 1.0 1.8799776666666665e-15
    endloop
  endfacet
  facet normal -0.0 0.0 -1.0
    outer loop
      vertex 0.7559829999999998 1.0 1.8799776666666665e-15
      vertex 0.0 0.0 1.8799776666666665e-15
      vertex 0.6893826666666666 1.1607873333333334 1.8799776666666665e-15
    endloop
  endfacet
  facet normal -0.0 0.0 -1.0
    outer loop
      vertex 0.6893826666666666 1.1607873333333334 1.8799776666666665e-15
      vertex 0.0 0.0 1.8799776666666665e-15
      vertex 0.6666666666666666 1.3333333333333333 1.8799776666666665e-15
    endloop
  endfacet
  facet normal 7.049916249999999e-16 -3.5249581249999997e-16 -1.0
    outer loop
      vertex 0.6666666666666666 1.3333333333333333 1.8799776666666665e-15
      vertex 0.0 0.0 1.8799776666666665e-15
      vertex 0.6666666666666666 6.666666666666666 0.0
    endloop
  endfacet
  facet normal 0.0 0.0 -1.0
    outer loop
      vertex 2.6666666666666665 0.0 1.8799776666666665e-15
      vertex 1.0 0.7559829999999998 1.8799776666666665e-15
      vertex 1.1607872666666665 0.6893826666666669 1.8799776666666665e-15
    endloop
  endfacet
  facet normal 0.0 0.0 -1.0
    outer loop
      vertex 2.6666666666666665 0.0 1.8799776666666665e-15
      vertex 1.1607872666666665 0.6893826666666669 1.8799776666666665e-15
      vertex 1.3333333333333333 0.6666666666666666 1.8799776666666665e-15
    endloop
  endfacet
  facet normal 0.0 0.0 -1.0
    outer loop
      vertex 2.6666666666666665 0.0 1.8799776666666665e-15
      vertex 1.3333333333333333 0.6666666666666666 1.8799776666666665e-15
      vertex 1.5058794 0.6893826666666669 1.8799776666666665e-15
    endloop
  endfacet
  facet normal 0.0 0.0 -1.0
    outer loop
      vertex 2.6666666666666665 0.0 1.8799776666666665e-15
      vertex 1.5058794 0.6893826666666669 1.8799776666666665e-15
      vertex 1.6666666666666665 0.7559829999999998 1.8799776666666665e-15
    endloop
  endfacet
  facet normal 0.0 0.0 -1.0
    outer loop
      vertex 2.6666666666666665 0.0 1.8799776666666665e-15
      vertex 1.6666666666666665 0.7559829999999998 1.8799776666666665e-15
      vertex 1.804738 0.8619286666666668 1.8799776666666665e-15
    endloop
  endfacet
  facet normal 0.0 0.0 -1.0
    outer loop
      vertex 2.6666666666666665 0.0 1.8799776666666665e-15
      vertex 1.804738 0.8619286666666668 1.8799776666666665e-15
      vertex 1.9106836666666667 1.0 1.8799776666666665e-15
    endloop
  endfacet
  facet normal 0.0 0.0 -1.0
    outer loop
      vertex 2.6666666666666665 0.0 1.8799776666666665e-15
      vertex 1.9106836666666667 1.0 1.8799776666666665e-15
      vertex 1.977284 1.1607873333333334 1.8799776666666665e-15
    endloop
  endfacet
  facet normal 0.0 0.0 -1.0
    outer loop
      vertex 2.6666666666666665 0.0 1.8799776666666665e-15
      vertex 1.977284 1.1607873333333334 1.8799776666666665e-15
      vertex 2.0 1.3333333333333333 1.8799776666666665e-15
    endloop
  endfacet
  facet normal 0.0 0.0 -1.0
    outer loop
      vertex 2.6666666666666665 0.0 1.8799776666666665e-15
      vertex 2.0 1.3333333333333333 1.8799776666666665e-15
      vertex 2.6666666666666665 8.0 1.8799776666666665e-15
    endloop
  endfacet
  facet normal -2.6774795283069558e-15 -3.524958125e-16 -1.0
    outer loop
      vertex 0.6893826666666666 6.494121 0.0
      vertex 0.6666666666666666 1.3333333333333333 1.8799776666666665e-15
      vertex 0.6666666666666666 6.666666666666666 0.0
    endloop
  endfacet
  facet normal 2.862715834268767e-15 -3.7688183377910383e-16 -1.0
    outer loop
      vertex 0.6666666666666666 1.3333333333333333 1.8799776666666665e-15
      vertex 0.6893826666666666 6.494121 0.0
      vertex 0.6893826666666666 1.5058793333333331 1.8799776666666665e-15
    endloop
  endfacet
  facet normal -9.098745851481746e-16 -3.768818337791038e-16 -1.0
    outer loop
      vertex 0.6893826666666666 1.5058793333333331 1.8799776666666665e-15
      vertex 0.6893826666666666 6.494121 0.0
      vertex 0.7559829999999998 6.333333333333333 0.0
    endloop
  endfacet
  facet normal 9.725710516771346e-16 -4.028523571428572e-16 -1.0
    outer loop
      vertex 0.6893826666666666 1.5058793333333331 1.8799776666666665e-15
      vertex 0.7559829999999998 6.333333333333333 0.0
      vertex 0.7559829999999998 1.6666666666666665 1.8799776666666665e-15
    endloop
  endfacet
  facet normal -5.250071055579265e-16 -4.0285235714285713e-16 -1.0
    outer loop
      vertex 0.7559829999999998 1.6666666666666665 1.8799776666666665e-15
      vertex 0.7559829999999998 6.333333333333333 0.0
      vertex 0.8619286666666666 6.195262333333333 0.0
    endloop
  endfacet
  facet normal 5.580288111788085e-16 -4.2818978416624956e-16 -1.0
    outer loop
      vertex 0.7559829999999998 1.6666666666666665 1.8799776666666665e-15
      vertex 0.8619286666666666 6.195262333333333 0.0
      vertex 0.8619286666666666 1.804738 1.8799776666666665e-15
    endloop
  endfacet
  facet normal -3.2856097676575093e-16 -4.281897841662495e-16 -1.0
    outer loop
      vertex 0.8619286666666666 1.804738 1.8799776666666665e-15
      vertex 0.8619286666666666 6.195262333333333 0.0
      vertex 1.0 6.089316666666666 0.0
    endloop
  endfacet
  facet normal 3.452217420084012e-16 -4.49902555851798e-16 -1.0
    outer loop
      vertex 0.8619286666666666 1.804738 1.8799776666666665e-15
      vertex 1.0 6.089316666666666 0.0
      vertex 1.0 1.9106836666666667 1.8799776666666665e-15
    endloop
  endfacet
  facet normal -1.8635686006707012e-16 -4.499025558517982e-16 -1.0
    outer loop
      vertex 1.0 1.9106836666666667 1.8799776666666665e-15
      vertex 1.0 6.089316666666666 0.0
      vertex 1.1607872666666665 6.022716 0.0
    endloop
  endfacet
  facet normal 1.924919335708906e-16 -4.647161704032267e-16 -1.0
    outer loop
      vertex 1.0 1.9106836666666667 1.8799776666666665e-15
      vertex 1.1607872666666665 6.022716 0.0
      vertex 1.1607872666666665 1.977284 1.8799776666666665e-15
    endloop
  endfacet
  facet normal -6.118071962355036e-17 -4.647161704032268e-16 -1.0
    outer loop
      vertex 1.1607872666666665 1.977284 1.8799776666666665e-15
      vertex 1.1607872666666665 6.022716 0.0
      vertex 1.3333333333333333 6.0 0.0
    endloop
  endfacet
  facet normal 6.187561023703415e-17 -4.699944166666666e-16 -1.0
    outer loop
      vertex 1.1607872666666665 1.977284 1.8799776666666665e-15
      vertex 1.3333333333333333 6.0 0.0
      vertex 1.3333333333333333 2.0 1.8799776666666665e-15
    endloop
  endfacet
  facet normal 6.187561023703464e-17 -4.699944166666666e-16 -1.0
    outer loop
      vertex 1.3333333333333333 2.0 1.8799776666666665e-15
      vertex 1.3333333333333333 6.0 0.0
      vertex 1.5058794 6.022716 0.0
    endloop
  endfacet
  facet normal -6.118071962354987e-17 -4.647161704032268e-16 -1.0
    outer loop
      vertex 1.3333333333333333 2.0 1.8799776666666665e-15
      vertex 1.5058794 6.022716 0.0
      vertex 1.5058794 1.977284 1.8799776666666665e-15
    endloop
  endfacet
  facet normal 1.9249289698915749e-16 -4.647161704032268e-16 -1.0
    outer loop
      vertex 1.5058794 1.977284 1.8799776666666665e-15
      vertex 1.5058794 6.022716 0.0
      vertex 1.6666666666666665 6.089316666666666 0.0
    endloop
  endfacet
  facet normal -1.863559273593913e-16 -4.499025558517982e-16 -1.0
    outer loop
      vertex 1.5058794 1.977284 1.8799776666666665e-15
      vertex 1.6666666666666665 6.089316666666666 0.0
      vertex 1.6666666666666665 1.9106836666666667 1.8799776666666665e-15
    endloop
  endfacet
  facet normal 3.452217420084027e-16 -4.499025558517981e-16 -1.0
    outer loop
      vertex 1.6666666666666665 1.9106836666666667 1.8799776666666665e-15
      vertex 1.6666666666666665 6.089316666666666 0.0
      vertex 1.804738 6.195262333333333 0.0
    endloop
  endfacet
  facet normal -3.2856097676574965e-16 -4.2818978416624956e-16 -1.0
    outer loop
      vertex 1.6666666666666665 1.9106836666666667 1.8799776666666665e-15
      vertex 1.804738 6.195262333333333 0.0
      vertex 1.804738 1.804738 1.8799776666666665e-15
    endloop
  endfacet
  facet normal 5.580274639795054e-16 -4.2818978416624946e-16 -1.0
    outer loop
      vertex 1.804738 1.804738 1.8799776666666665e-15
      vertex 1.804738 6.195262333333333 0.0
      vertex 1.9106836666666667 6.333333333333333 0.0
    endloop
  endfacet
  facet normal -5.250083730389207e-16 -4.028523571428571e-16 -1.0
    outer loop
      vertex 1.804738 1.804738 1.8799776666666665e-15
      vertex 1.9106836666666667 6.333333333333333 0.0
      vertex 1.9106836666666667 1.6666666666666665 1.8799776666666665e-15
    endloop
  endfacet
  facet normal 9.72573067945107e-16 -4.0285235714285713e-16 -1.0
    outer loop
      vertex 1.9106836666666667 1.6666666666666665 1.8799776666666665e-15
      vertex 1.9106836666666667 6.333333333333333 0.0
      vertex 1.977284 6.494121 0.0
    endloop
  endfacet
  facet normal -9.09872698862148e-16 -3.768818337791038e-16 -1.0
    outer loop
      vertex 1.9106836666666667 1.6666666666666665 1.8799776666666665e-15
      vertex 1.977284 6.494121 0.0
      vertex 1.977284 1.5058793333333331 1.8799776666666665e-15
    endloop
  endfacet
  facet normal 2.862710303925489e-15 -3.768818337791038e-16 -1.0
    outer loop
      vertex 1.977284 1.5058793333333331 1.8799776666666665e-15
      vertex 1.977284 6.494121 0.0
      vertex 2.0 6.666666666666666 0.0
    endloop
  endfacet
  facet normal -2.677484700811105e-15 -3.5249581249999997e-16 -1.0
    outer loop
      vertex 1.977284 1.5058793333333331 1.8799776666666665e-15
      vertex 2.0 6.666666666666666 0.0
      vertex 2.0 1.3333333333333333 1.8799776666666665e-15
    endloop
  endfacet
  facet normal -0.13052551091753475 -0.9914449510687502 -0.0
    outer loop
      vertex 1.5058794 7.310617333333333 3.333333333333333
      vertex 1.3333333333333333 7.333333333333333 0.0
      vertex 1.5058794 7.310617333333333 0.0
    endloop
  endfacet
  facet normal -0.13052551091753475 -0.9914449510687502 0.0
    outer loop
      vertex 1.3333333333333333 7.333333333333333 0.0
      vertex 1.5058794 7.310617333333333 3.333333333333333
      vertex 1.3333333333333333 7.333333333333333 3.333333333333333
    endloop
  endfacet
  facet normal 0.13052551091753475 -0.9914449510687502 0.0
    outer loop
      vertex 1.3333333333333333 7.333333333333333 3.333333333333333
      vertex 1.1607872666666665 7.310617333333333 0.0
      vertex 1.3333333333333333 7.333333333333333 0.0
    endloop
  endfacet
  facet normal 0.13052551091753475 -0.9914449510687502 0.0
    outer loop
      vertex 1.1607872666666665 7.310617333333333 0.0
      vertex 1.3333333333333333 7.333333333333333 3.333333333333333
      vertex 1.1607872666666665 7.310617333333333 3.333333333333333
    endloop
  endfacet
  facet normal 0.3826853949281293 -0.9238787195886167 0.0
    outer loop
      vertex 1.1607872666666665 7.310617333333333 3.333333333333333
      vertex 1.0 7.244016666666667 0.0
      vertex 1.1607872666666665 7.310617333333333 0.0
    endloop
  endfacet
  facet normal 0.3826853949281293 -0.9238787195886167 0.0
    outer loop
      vertex 1.0 7.244016666666667 0.0
      vertex 1.1607872666666665 7.310617333333333 3.333333333333333
      vertex 1.0 7.244016666666667 3.333333333333333
    endloop
  endfacet
  facet normal 0.6087607286011937 -0.793353877732342 0.0
    outer loop
      vertex 1.0 7.244016666666667 3.333333333333333
      vertex 0.8619286666666666 7.138071 0.0
      vertex 1.0 7.244016666666667 0.0
    endloop
  endfacet
  facet normal 0.6087607286011937 -0.793353877732342 0.0
    outer loop
      vertex 0.8619286666666666 7.138071 0.0
      vertex 1.0 7.244016666666667 3.333333333333333
      vertex 0.8619286666666666 7.138071 3.333333333333333
    endloop
  endfacet
  facet normal 0.7933531679316456 -0.6087616536320455 0.0
    outer loop
      vertex 0.8619286666666666 7.138071 0.0
      vertex 0.7559829999999998 7.0 3.333333333333333
      vertex 0.7559829999999998 7.0 0.0
    endloop
  endfacet
  facet normal 0.7933531679316456 -0.6087616536320455 0.0
    outer loop
      vertex 0.7559829999999998 7.0 3.333333333333333
      vertex 0.8619286666666666 7.138071 0.0
      vertex 0.8619286666666666 7.138071 3.333333333333333
    endloop
  endfacet
  facet normal -0.923879733350382 0.38268294749626247 0.0
    outer loop
      vertex 1.977284 6.494121 3.333333333333333
      vertex 1.9106836666666667 6.333333333333333 0.0
      vertex 1.9106836666666667 6.333333333333333 3.333333333333333
    endloop
  endfacet
  facet normal -0.923879733350382 0.38268294749626247 0.0
    outer loop
      vertex 1.9106836666666667 6.333333333333333 0.0
      vertex 1.977284 6.494121 3.333333333333333
      vertex 1.977284 6.494121 0.0
    endloop
  endfacet
  facet normal 0.9238797333503822 -0.3826829474962619 0.0
    outer loop
      vertex 0.7559829999999998 7.0 0.0
      vertex 0.6893826666666666 6.839212333333333 3.333333333333333
      vertex 0.6893826666666666 6.839212333333333 0.0
    endloop
  endfacet
  facet normal 0.9238797333503822 -0.3826829474962619 0.0
    outer loop
      vertex 0.6893826666666666 6.839212333333333 3.333333333333333
      vertex 0.7559829999999998 7.0 0.0
      vertex 0.7559829999999998 7.0 3.333333333333333
    endloop
  endfacet
  facet normal 0.13052551091753478 -0.9914449510687502 0.0
    outer loop
      vertex 1.3333333333333333 2.0 3.333333333333333
      vertex 1.1607872666666665 1.977284 1.8799776666666665e-15
      vertex 1.3333333333333333 2.0 1.8799776666666665e-15
    endloop
  endfacet
  facet normal 0.13052551091753478 -0.9914449510687502 0.0
    outer loop
      vertex 1.1607872666666665 1.977284 1.8799776666666665e-15
      vertex 1.3333333333333333 2.0 3.333333333333333
      vertex 1.1607872666666665 1.977284 3.333333333333333
    endloop
  endfacet
  facet normal 0.0 1.0 0.0
    outer loop
      vertex 0.0 8.0 3.333333333333333
      vertex 2.6666666666666665 8.0 1.8799776666666665e-15
      vertex 0.0 8.0 0.0
    endloop
  endfacet
  facet normal 0.0 1.0 -0.0
    outer loop
      vertex 2.6666666666666665 8.0 1.8799776666666665e-15
      vertex 0.0 8.0 3.333333333333333
      vertex 2.6666666666666665 8.0 3.333333333333333
    endloop
  endfacet
  facet normal 0.9914449119111723 -0.13052580835010297 0.0
    outer loop
      vertex 0.6893826666666666 6.839212333333333 0.0
      vertex 0.6666666666666666 6.666666666666666 3.333333333333333
      vertex 0.6666666666666666 6.666666666666666 0.0
    endloop
  endfacet
  facet normal 0.9914449119111723 -0.13052580835010297 0.0
    outer loop
      vertex 0.6666666666666666 6.666666666666666 3.333333333333333
      vertex 0.6893826666666666 6.839212333333333 0.0
      vertex 0.6893826666666666 6.839212333333333 3.333333333333333
    endloop
  endfacet
  facet normal 0.9914449119111722 0.13052580835010366 0.0
    outer loop
      vertex 0.6666666666666666 6.666666666666666 0.0
      vertex 0.6893826666666666 6.494121 3.333333333333333
      vertex 0.6893826666666666 6.494121 0.0
    endloop
  endfacet
  facet normal 0.9914449119111722 0.13052580835010366 0.0
    outer loop
      vertex 0.6893826666666666 6.494121 3.333333333333333
      vertex 0.6666666666666666 6.666666666666666 0.0
      vertex 0.6666666666666666 6.666666666666666 3.333333333333333
    endloop
  endfacet
  facet normal 0.9238797333503822 0.3826829474962619 0.0
    outer loop
      vertex 0.6893826666666666 6.494121 0.0
      vertex 0.7559829999999998 6.333333333333333 3.333333333333333
      vertex 0.7559829999999998 6.333333333333333 0.0
    endloop
  endfacet
  facet normal 0.9238797333503822 0.3826829474962619 0.0
    outer loop
      vertex 0.7559829999999998 6.333333333333333 3.333333333333333
      vertex 0.6893826666666666 6.494121 0.0
      vertex 0.6893826666666666 6.494121 3.333333333333333
    endloop
  endfacet
  facet normal 0.7933531679316456 0.6087616536320455 0.0
    outer loop
      vertex 0.7559829999999998 6.333333333333333 0.0
      vertex 0.8619286666666666 6.195262333333333 3.333333333333333
      vertex 0.8619286666666666 6.195262333333333 0.0
    endloop
  endfacet
  facet normal 0.7933531679316456 0.6087616536320455 0.0
    outer loop
      vertex 0.8619286666666666 6.195262333333333 3.333333333333333
      vertex 0.7559829999999998 6.333333333333333 0.0
      vertex 0.7559829999999998 6.333333333333333 3.333333333333333
    endloop
  endfacet
  facet normal 0.6087607286011937 0.793353877732342 0.0
    outer loop
      vertex 0.8619286666666666 6.195262333333333 3.333333333333333
      vertex 1.0 6.089316666666666 0.0
      vertex 0.8619286666666666 6.195262333333333 0.0
    endloop
  endfacet
  facet normal 0.6087607286011937 0.793353877732342 -0.0
    outer loop
      vertex 1.0 6.089316666666666 0.0
      vertex 0.8619286666666666 6.195262333333333 3.333333333333333
      vertex 1.0 6.089316666666666 3.333333333333333
    endloop
  endfacet
  facet normal 0.3826853949281293 0.9238787195886167 0.0
    outer loop
      vertex 1.0 6.089316666666666 3.333333333333333
      vertex 1.1607872666666665 6.022716 0.0
      vertex 1.0 6.089316666666666 0.0
    endloop
  endfacet
  facet normal 0.3826853949281293 0.9238787195886167 -0.0
    outer loop
      vertex 1.1607872666666665 6.022716 0.0
      vertex 1.0 6.089316666666666 3.333333333333333
      vertex 1.1607872666666665 6.022716 3.333333333333333
    endloop
  endfacet
  facet normal -0.6087607286011937 -0.793353877732342 -0.0
    outer loop
      vertex 1.804738 7.138071 3.333333333333333
      vertex 1.6666666666666665 7.244016666666667 0.0
      vertex 1.804738 7.138071 0.0
    endloop
  endfacet
  facet normal -0.6087607286011937 -0.793353877732342 0.0
    outer loop
      vertex 1.6666666666666665 7.244016666666667 0.0
      vertex 1.804738 7.138071 3.333333333333333
      vertex 1.6666666666666665 7.244016666666667 3.333333333333333
    endloop
  endfacet
  facet normal 0.3826837600986456 0.9238793967595349 0.0
    outer loop
      vertex 1.0 0.7559829999999998 3.333333333333333
      vertex 1.1607872666666665 0.6893826666666669 1.8799776666666665e-15
      vertex 1.0 0.7559829999999998 1.8799776666666665e-15
    endloop
  endfacet
  facet normal 0.3826837600986456 0.9238793967595349 -0.0
    outer loop
      vertex 1.1607872666666665 0.6893826666666669 1.8799776666666665e-15
      vertex 1.0 0.7559829999999998 3.333333333333333
      vertex 1.1607872666666665 0.6893826666666669 3.333333333333333
    endloop
  endfacet
  facet normal 0.13052551091753667 0.99144495106875 0.0
    outer loop
      vertex 1.1607872666666665 0.6893826666666669 3.333333333333333
      vertex 1.3333333333333333 0.6666666666666666 1.8799776666666665e-15
      vertex 1.1607872666666665 0.6893826666666669 1.8799776666666665e-15
    endloop
  endfacet
  facet normal 0.13052551091753667 0.99144495106875 -0.0
    outer loop
      vertex 1.3333333333333333 0.6666666666666666 1.8799776666666665e-15
      vertex 1.1607872666666665 0.6893826666666669 3.333333333333333
      vertex 1.3333333333333333 0.6666666666666666 3.333333333333333
    endloop
  endfacet
  facet normal -0.13052551091753667 0.99144495106875 0.0
    outer loop
      vertex 1.3333333333333333 0.6666666666666666 3.333333333333333
      vertex 1.5058794 0.6893826666666669 1.8799776666666665e-15
      vertex 1.3333333333333333 0.6666666666666666 1.8799776666666665e-15
    endloop
  endfacet
  facet normal -0.13052551091753667 0.99144495106875 0.0
    outer loop
      vertex 1.5058794 0.6893826666666669 1.8799776666666665e-15
      vertex 1.3333333333333333 0.6666666666666666 3.333333333333333
      vertex 1.5058794 0.6893826666666669 3.333333333333333
    endloop
  endfacet
  facet normal -0.3826837600986456 0.9238793967595349 0.0
    outer loop
      vertex 1.5058794 0.6893826666666669 3.333333333333333
      vertex 1.6666666666666665 0.7559829999999998 1.8799776666666665e-15
      vertex 1.5058794 0.6893826666666669 1.8799776666666665e-15
    endloop
  endfacet
  facet normal -0.3826837600986456 0.9238793967595349 0.0
    outer loop
      vertex 1.6666666666666665 0.7559829999999998 1.8799776666666665e-15
      vertex 1.5058794 0.6893826666666669 3.333333333333333
      vertex 1.6666666666666665 0.7559829999999998 3.333333333333333
    endloop
  endfacet
  facet normal -0.6087607286011937 0.793353877732342 0.0
    outer loop
      vertex 1.6666666666666665 0.7559829999999998 3.333333333333333
      vertex 1.804738 0.8619286666666668 1.8799776666666665e-15
      vertex 1.6666666666666665 0.7559829999999998 1.8799776666666665e-15
    endloop
  endfacet
  facet normal -0.6087607286011937 0.793353877732342 0.0
    outer loop
      vertex 1.804738 0.8619286666666668 1.8799776666666665e-15
      vertex 1.6666666666666665 0.7559829999999998 3.333333333333333
      vertex 1.804738 0.8619286666666668 3.333333333333333
    endloop
  endfacet
  facet normal -0.7933538777323421 0.6087607286011935 0.0
    outer loop
      vertex 1.9106836666666667 1.0 3.333333333333333
      vertex 1.804738 0.8619286666666668 1.8799776666666665e-15
      vertex 1.804738 0.8619286666666668 3.333333333333333
    endloop
  endfacet
  facet normal -0.7933538777323421 0.6087607286011935 0.0
    outer loop
      vertex 1.804738 0.8619286666666668 1.8799776666666665e-15
      vertex 1.9106836666666667 1.0 3.333333333333333
      vertex 1.9106836666666667 1.0 1.8799776666666665e-15
    endloop
  endfacet
  facet normal -0.9238794528581578 0.3826836246646975 0.0
    outer loop
      vertex 1.977284 1.1607873333333334 3.333333333333333
      vertex 1.9106836666666667 1.0 1.8799776666666665e-15
      vertex 1.9106836666666667 1.0 3.333333333333333
    endloop
  endfacet
  facet normal -0.9238794528581578 0.3826836246646975 0.0
    outer loop
      vertex 1.9106836666666667 1.0 1.8799776666666665e-15
      vertex 1.977284 1.1607873333333334 3.333333333333333
      vertex 1.977284 1.1607873333333334 1.8799776666666665e-15
    endloop
  endfacet
  facet normal -0.9914449445425058 0.13052556048953634 0.0
    outer loop
      vertex 2.0 1.3333333333333333 3.333333333333333
      vertex 1.977284 1.1607873333333334 1.8799776666666665e-15
      vertex 1.977284 1.1607873333333334 3.333333333333333
    endloop
  endfacet
  facet normal -0.9914449445425058 0.13052556048953634 0.0
    outer loop
      vertex 1.977284 1.1607873333333334 1.8799776666666665e-15
      vertex 2.0 1.3333333333333333 3.333333333333333
      vertex 2.0 1.3333333333333333 1.8799776666666665e-15
    endloop
  endfacet
endsolid thingi10k_60276
