solid thingi10k_65588
  facet normal -1.0 0.0 0.0
    outer loop
      vertex 0.0 0.0 0.0
      vertex 0.0 0.0 2.388059701492537
      vertex 0.0 8.0 0.0
    endloop
  endfacet
  facet normal -1.0 0.0 0.0
    outer loop
      vertex 0.0 8.0 0.0
      vertex 0.0 0.0 2.388059701492537
      vertex 0.0 8.0 2.388059701492537
    endloop
  endfacet
  facet normal 0.0 -1.0 0.0
    outer loop
      vertex 0.0 0.0 2.388059701492537
      vertex 0.0 0.0 0.0
      vertex 5.3731343283582085 0.0 0.0
    endloop
  endfacet
  facet normal -0.0 -1.0 -0.0
    outer loop
      vertex 5.3731343283582085 0.0 2.388059701492537
      vertex 0.0 0.0 2.388059701492537
      vertex 5.3731343283582085 0.0 0.0
    endloop
  endfacet
  facet normal 0.0 0.0 -1.0
    outer loop
      vertex 0.0 0.0 0.0
      vertex 0.0 8.0 0.0
      vertex 5.3731343283582085 0.0 0.0
    endloop
  endfacet
  facet normal 0.0 0.0 -1.0
    outer loop
      vertex 5.3731343283582085 0.0 0.0
      vertex 0.0 8.0 0.0
      vertex 5.3731343283582085 8.0 0.0
    endloop
  endfacet
  facet normal 0.0 1.0 0.0
    outer loop
      vertex 0.0 8.0 0.0
      vertex 0.0 8.0 2.388059701492537
      vertex 5.3731343283582085 8.0 0.0
    endloop
  endfacet
  facet normal 0.0 1.0 -0.0
    outer loop
      vertex 5.3731343283582085 8.0 0.0
      vertex 0.0 8.0 2.388059701492537
      vertex 5.3731343283582085 8.0 2.388059701492537
    endloop
  endfacet
  facet normal 0.0 0.0 1.0
    outer loop
      vertex 0.23880597014925373 0.23880597014925373 2.388059701492537
      vertex 0.0 0.0 2.388059701492537
      vertex 5.3731343283582085 0.0 2.388059701492537
    endloop
  endfacet
  facet normal 0.0 0.0 1.0
    outer loop
      vertex 5.134328358208955 0.23880597014925373 2.388059701492537
      vertex 0.23880597014925373 0.23880597014925373 2.388059701492537
      vertex 5.3731343283582085 0.0 2.388059701492537
    endloop
  endfacet
  facet normal 0.0 0.0 1.0
    outer loop
      vertex 0.0 8.0 2.388059701492537
      vertex 0.0 0.0 2.388059701492537
      vertex 0.23880597014925373 0.23880597014925373 2.388059701492537
    endloop
  endfacet
  facet normal 0.0 0.0 1.0
    outer loop
      vertex 5.3731343283582085 8.0 2.388059701492537
      vertex 0.0 8.0 2.388059701492537
      vertex 0.23880597014925373 7.7611940298507465 2.388059701492537
    endloop
  endfacet
  facet normal 0.0 0.0 1.0
    outer loop
      vertex 5.3731343283582085 8.0 2.388059701492537
      vertex 5.134328358208955 7.7611940298507465 2.388059701492537
      vertex 5.3731343283582085 0.0 2.388059701492537
    endloop
  endfacet
  facet normal 0.0 0.0 1.0
    outer loop
      vertex 5.3731343283582085 8.0 2.388059701492537
      vertex 0.23880597014925373 7.7611940298507465 2.388059701492537
      vertex 5.134328358208955 7.7611940298507465 2.388059701492537
    endloop
  endfacet
  facet normal 0.0 0.0 1.0
    outer loop
      vertex 5.134328358208955 7.7611940298507465 2.388059701492537
      vertex 5.134328358208955 0.23880597014925373 2.388059701492537
      vertex 5.3731343283582085 0.0 2.388059701492537
    endloop
  endfacet
  facet normal 0.0 -0.0 1.0
    outer loop
      vertex 0.23880597014925373 0.23880597014925373 2.388059701492537
      vertex 0.23880597014925373 7.7611940298507465 2.388059701492537
      vertex 0.0 8.0 2.388059701492537
    endloop
  endfacet
  facet normal 1.0 0.0 0.0
    outer loop
      vertex 5.3731343283582085 0.0 2.388059701492537
      vertex 5.3731343283582085 0.0 0.0
      vertex 5.3731343283582085 8.0 0.0
    endloop
  endfacet
  facet normal 1.0 0.0 0.0
    outer loop
      vertex 5.3731343283582085 8.0 2.388059701492537
      vertex 5.3731343283582085 0.0 2.388059701492537
      vertex 5.3731343283582085 8.0 0.0
    endloop
  endfacet
  facet normal 1.0 0.0 -0.0
    outer loop
      vertex 0.23880597014925373 7.7611940298507465 0.3582089552238806
      vertex 0.23880597014925373 7.7611940298507465 2.388059701492537
      vertex 0.23880597014925373 0.23880597014925373 2.388059701492537
    endloop
  endfacet
  facet normal 1.0 0.0 0.0
    outer loop
      vertex 0.23880597014925373 0.23880597014925373 0.3582089552238806
      vertex 0.23880597014925373 7.7611940298507465 0.3582089552238806
      vertex 0.23880597014925373 0.23880597014925373 2.388059701492537
    endloop
  endfacet
  facet normal 0.0 1.0 0.0
    outer loop
      vertex 5.134328358208955 0.23880597014925373 2.388059701492537
      vertex 5.134328358208955 0.23880597014925373 0.3582089552238806
      vertex 0.23880597014925373 0.23880597014925373 2.388059701492537
    endloop
  endfacet
  facet normal 0.0 1.0 0.0
    outer loop
      vertex 0.23880597014925373 0.23880597014925373 2.388059701492537
      vertex 5.134328358208955 0.23880597014925373 0.3582089552238806
      vertex 0.23880597014925373 0.23880597014925373 0.3582089552238806
    endloop
  endfacet
  facet normal -1.0 -0.0 -0.0
    outer loop
      vertex 5.134328358208955 7.7611940298507465 2.388059701492537
      vertex 5.134328358208955 7.7611940298507465 0.3582089552238806
      vertex 5.134328358208955 0.23880597014925373 2.388059701492537
    endloop
  endfacet
  facet normal -1.0 0.0 0.0
    outer loop
      vertex 5.134328358208955 0.23880597014925373 2.388059701492537
      vertex 5.134328358208955 7.7611940298507465 0.3582089552238806
      vertex 5.134328358208955 0.23880597014925373 0.3582089552238806
    endloop
  endfacet
  facet normal 0.0 -1.0 0.0
    outer loop
      vertex 5.134328358208955 7.7611940298507465 0.3582089552238806
      vertex 5.134328358208955 7.7611940298507465 2.388059701492537
      vertex 0.23880597014925373 7.7611940298507465 2.388059701492537
    endloop
  endfacet
  facet normal 0.0 -1.0 0.0
    outer loop
      vertex 0.23880597014925373 7.7611940298507465 0.3582089552238806
      vertex 5.134328358208955 7.7611940298507465 0.3582089552238806
      vertex 0.23880597014925373 7.7611940298507465 2.388059701492537
    endloop
  endfacet
  facet normal 0.0 -0.0 1.0
    outer loop
      vertex 5.134328358208955 0.23880597014925373 0.3582089552238806
      vertex 5.134328358208955 7.7611940298507465 0.3582089552238806
      vertex 0.23880597014925373 7.7611940298507465 0.3582089552238806
    endloop
  endfacet
  facet normal 0.0 0.0 1.0
    outer loop
      vertex 0.23880597014925373 0.23880597014925373 0.3582089552238806
      vertex 5.134328358208955 0.23880597014925373 0.3582089552238806
      vertex 0.23880597014925373 7.7611940298507465 0.3582089552238806
    endloop
  endfacet
endsolid thingi10k_65588
