solid thingi10k_65585
  facet normal 0.0 -0.7071091382130796 0.7071044241521586
    outer loop
      vertex 0.1935483870967742 5.262838709677419 8.0
      vertex 0.0 5.262838709677419 8.0
      vertex 0.0 4.488650322580645 7.225806451612903
    endloop
  endfacet
  facet normal 0.0 -0.7071091382130796 0.7071044241521586
    outer loop
      vertex 0.1935483870967742 4.488650322580645 7.225806451612903
      vertex 0.1935483870967742 5.262838709677419 8.0
      vertex 0.0 4.488650322580645 7.225806451612903
    endloop
  endfacet
  facet normal -1.0 0.0 0.0
    outer loop
      vertex 0.0 4.488650322580645 7.225806451612903
      vertex 0.0 5.262838709677419 8.0
      vertex 0.0 5.262838709677419 7.225806451612903
    endloop
  endfacet
  facet normal -0.0 1.0 0.0
    outer loop
      vertex 0.0 5.262838709677419 8.0
      vertex 0.1935483870967742 5.262838709677419 8.0
      vertex 0.0 5.262838709677419 7.225806451612903
    endloop
  endfacet
  facet normal 0.0 1.0 0.0
    outer loop
      vertex 0.0 5.262838709677419 7.225806451612903
      vertex 0.1935483870967742 5.262838709677419 8.0
      vertex 0.1935483870967742 5.262838709677419 7.225806451612903
    endloop
  endfacet
  facet normal 1.0 0.0 -0.0
    outer loop
      vertex 0.1935483870967742 5.262838709677419 7.225806451612903
      vertex 0.1935483870967742 5.262838709677419 8.0
      vertex 0.1935483870967742 4.488650322580645 7.225806451612903
    endloop
  endfacet
  facet normal 0.0 0.0 -1.0
    outer loop
      vertex 0.0 4.488650322580645 7.225806451612903
      vertex 0.0 5.262838709677419 7.225806451612903
      vertex 0.1935483870967742 4.488650322580645 7.225806451612903
    endloop
  endfacet
  facet normal 0.0 0.0 -1.0
    outer loop
      vertex 0.1935483870967742 4.488650322580645 7.225806451612903
      vertex 0.0 5.262838709677419 7.225806451612903
      vertex 0.1935483870967742 5.262838709677419 7.225806451612903
    endloop
  endfacet
  facet normal 0.0 0.0 1.0
    outer loop
      vertex 0.0 6.166064516129032 7.096774193548387
      vertex 0.0 5.391870967741935 7.096774193548387
      vertex 0.1935483870967742 5.391870967741935 7.096774193548387
    endloop
  endfacet
  facet normal 0.0 0.0 1.0
    outer loop
      vertex 0.1935483870967742 6.166064516129032 7.096774193548387
      vertex 0.0 6.166064516129032 7.096774193548387
      vertex 0.1935483870967742 5.391870967741935 7.096774193548387
    endloop
  endfacet
  facet normal -0.0 -1.0 0.0
    outer loop
      vertex 0.1935483870967742 5.391870967741935 7.096774193548387
      vertex 0.0 5.391870967741935 7.096774193548387
      vertex 0.0 5.391870967741935 6.32258064516129
    endloop
  endfacet
  facet normal 0.0 -1.0 0.0
    outer loop
      vertex 0.1935483870967742 5.391870967741935 6.32258064516129
      vertex 0.1935483870967742 5.391870967741935 7.096774193548387
      vertex 0.0 5.391870967741935 6.32258064516129
    endloop
  endfacet
  facet normal -1.0 0.0 0.0
    outer loop
      vertex 0.0 5.391870967741935 6.32258064516129
      vertex 0.0 5.391870967741935 7.096774193548387
      vertex 0.0 6.166064516129032 7.096774193548387
    endloop
  endfacet
  facet normal 0.0 0.7071067811865475 -0.7071067811865475
    outer loop
      vertex 0.0 6.166064516129032 7.096774193548387
      vertex 0.1935483870967742 6.166064516129032 7.096774193548387
      vertex 0.0 5.391870967741935 6.32258064516129
    endloop
  endfacet
  facet normal 0.0 0.7071067811865475 -0.7071067811865475
    outer loop
      vertex 0.0 5.391870967741935 6.32258064516129
      vertex 0.1935483870967742 6.166064516129032 7.096774193548387
      vertex 0.1935483870967742 5.391870967741935 6.32258064516129
    endloop
  endfacet
  facet normal 1.0 0.0 0.0
    outer loop
      vertex 0.1935483870967742 6.166064516129032 7.096774193548387
      vertex 0.1935483870967742 5.391870967741935 7.096774193548387
      vertex 0.1935483870967742 5.391870967741935 6.32258064516129
    endloop
  endfacet
  facet normal 0.0 -0.7071067811865476 0.7071067811865475
    outer loop
      vertex 0.1935483870967742 4.230585806451613 8.0
      vertex 0.0 4.230585806451613 8.0
      vertex 0.0 2.424134193548387 6.193548387096774
    endloop
  endfacet
  facet normal 0.0 -0.7071067811865476 0.7071067811865475
    outer loop
      vertex 0.1935483870967742 2.424134193548387 6.193548387096774
      vertex 0.1935483870967742 4.230585806451613 8.0
      vertex 0.0 2.424134193548387 6.193548387096774
    endloop
  endfacet
  facet normal -1.0 0.0 0.0
    outer loop
      vertex 0.0 2.424134193548387 6.193548387096774
      vertex 0.0 4.230585806451613 8.0
      vertex 0.0 4.230585806451613 6.193548387096774
    endloop
  endfacet
  facet normal -0.0 1.0 0.0
    outer loop
      vertex 0.0 4.230585806451613 8.0
      vertex 0.1935483870967742 4.230585806451613 8.0
      vertex 0.0 4.230585806451613 6.193548387096774
    endloop
  endfacet
  facet normal 0.0 1.0 0.0
    outer loop
      vertex 0.0 4.230585806451613 6.193548387096774
      vertex 0.1935483870967742 4.230585806451613 8.0
      vertex 0.1935483870967742 4.230585806451613 6.193548387096774
    endloop
  endfacet
  facet normal 1.0 0.0 -0.0
    outer loop
      vertex 0.1935483870967742 4.230585806451613 6.193548387096774
      vertex 0.1935483870967742 4.230585806451613 8.0
      vertex 0.1935483870967742 2.424134193548387 6.193548387096774
    endloop
  endfacet
  facet normal 0.0 0.0 -1.0
    outer loop
      vertex 0.0 2.424134193548387 6.193548387096774
      vertex 0.0 4.230585806451613 6.193548387096774
      vertex 0.1935483870967742 2.424134193548387 6.193548387096774
    endloop
  endfacet
  facet normal 0.0 0.0 -1.0
    outer loop
      vertex 0.1935483870967742 2.424134193548387 6.193548387096774
      vertex 0.0 4.230585806451613 6.193548387096774
      vertex 0.1935483870967742 4.230585806451613 6.193548387096774
    endloop
  endfacet
  facet normal -0.0 -1.0 0.0
    outer loop
      vertex 0.1935483870967742 4.359618064516129 6.064516129032258
      vertex 0.0 4.359618064516129 6.064516129032258
      vertex 0.0 4.359618064516129 4.258063225806452
    endloop
  endfacet
  facet normal 0.0 -1.0 0.0
    outer loop
      vertex 0.1935483870967742 4.359618064516129 4.258063225806452
      vertex 0.1935483870967742 4.359618064516129 6.064516129032258
      vertex 0.0 4.359618064516129 4.258063225806452
    endloop
  endfacet
  facet normal -1.0 0.0 0.0
    outer loop
      vertex 0.0 4.359618064516129 4.258063225806452
      vertex 0.0 4.359618064516129 6.064516129032258
      vertex 0.0 6.166064516129032 6.064516129032258
    endloop
  endfacet
  facet normal 0.0 0.0 1.0
    outer loop
      vertex 0.0 6.166064516129032 6.064516129032258
      vertex 0.0 4.359618064516129 6.064516129032258
      vertex 0.1935483870967742 4.359618064516129 6.064516129032258
    endloop
  endfacet
  facet normal 0.0 0.0 1.0
    outer loop
      vertex 0.1935483870967742 6.166064516129032 6.064516129032258
      vertex 0.0 6.166064516129032 6.064516129032258
      vertex 0.1935483870967742 4.359618064516129 6.064516129032258
    endloop
  endfacet
  facet normal 1.0 0.0 0.0
    outer loop
      vertex 0.1935483870967742 6.166064516129032 6.064516129032258
      vertex 0.1935483870967742 4.359618064516129 6.064516129032258
      vertex 0.1935483870967742 4.359618064516129 4.258063225806452
    endloop
  endfacet
  facet normal 0.0 0.7071080438774535 -0.7071055184933867
    outer loop
      vertex 0.0 6.166064516129032 6.064516129032258
      vertex 0.1935483870967742 6.166064516129032 6.064516129032258
      vertex 0.0 4.359618064516129 4.258063225806452
    endloop
  endfacet
  facet normal 0.0 0.7071080438774535 -0.7071055184933867
    outer loop
      vertex 0.0 4.359618064516129 4.258063225806452
      vertex 0.1935483870967742 6.166064516129032 6.064516129032258
      vertex 0.1935483870967742 4.359618064516129 4.258063225806452
    endloop
  endfacet
  facet normal 0.0 -0.7071067811865475 0.7071067811865475
    outer loop
      vertex 0.1935483870967742 3.198327741935484 8.0
      vertex 0.0 3.198327741935484 8.0
      vertex 0.0 2.424134193548387 7.225806451612903
    endloop
  endfacet
  facet normal 0.0 -0.7071067811865475 0.7071067811865475
    outer loop
      vertex 0.1935483870967742 2.424134193548387 7.225806451612903
      vertex 0.1935483870967742 3.198327741935484 8.0
      vertex 0.0 2.424134193548387 7.225806451612903
    endloop
  endfacet
  facet normal -1.0 0.0 0.0
    outer loop
      vertex 0.0 2.424134193548387 7.225806451612903
      vertex 0.0 3.198327741935484 8.0
      vertex 0.0 3.198327741935484 7.225806451612903
    endloop
  endfacet
  facet normal -0.0 1.0 0.0
    outer loop
      vertex 0.0 3.198327741935484 8.0
      vertex 0.1935483870967742 3.198327741935484 8.0
      vertex 0.0 3.198327741935484 7.225806451612903
    endloop
  endfacet
  facet normal 0.0 1.0 0.0
    outer loop
      vertex 0.0 3.198327741935484 7.225806451612903
      vertex 0.1935483870967742 3.198327741935484 8.0
      vertex 0.1935483870967742 3.198327741935484 7.225806451612903
    endloop
  endfacet
  facet normal 1.0 0.0 -0.0
    outer loop
      vertex 0.1935483870967742 3.198327741935484 7.225806451612903
      vertex 0.1935483870967742 3.198327741935484 8.0
      vertex 0.1935483870967742 2.424134193548387 7.225806451612903
    endloop
  endfacet
  facet normal 0.0 0.0 -1.0
    outer loop
      vertex 0.0 2.424134193548387 7.225806451612903
      vertex 0.0 3.198327741935484 7.225806451612903
      vertex 0.1935483870967742 2.424134193548387 7.225806451612903
    endloop
  endfacet
  facet normal 0.0 0.0 -1.0
    outer loop
      vertex 0.1935483870967742 2.424134193548387 7.225806451612903
      vertex 0.0 3.198327741935484 7.225806451612903
      vertex 0.1935483870967742 3.198327741935484 7.225806451612903
    endloop
  endfacet
  facet normal 0.0 -0.7071073704414618 0.7071061919311422
    outer loop
      vertex 0.1935483870967742 3.198327741935484 5.935483870967742
      vertex 0.0 3.198327741935484 5.935483870967742
      vertex 0.0 2.424134193548387 5.161289032258065
    endloop
  endfacet
  facet normal 0.0 -0.7071073704414618 0.7071061919311422
    outer loop
      vertex 0.1935483870967742 2.424134193548387 5.161289032258065
      vertex 0.1935483870967742 3.198327741935484 5.935483870967742
      vertex 0.0 2.424134193548387 5.161289032258065
    endloop
  endfacet
  facet normal -1.0 0.0 0.0
    outer loop
      vertex 0.0 2.424134193548387 5.161289032258065
      vertex 0.0 3.198327741935484 5.935483870967742
      vertex 0.0 3.198327741935484 5.161289032258065
    endloop
  endfacet
  facet normal -0.0 1.0 0.0
    outer loop
      vertex 0.0 3.198327741935484 5.935483870967742
      vertex 0.1935483870967742 3.198327741935484 5.935483870967742
      vertex 0.0 3.198327741935484 5.161289032258065
    endloop
  endfacet
  facet normal 0.0 1.0 0.0
    outer loop
      vertex 0.0 3.198327741935484 5.161289032258065
      vertex 0.1935483870967742 3.198327741935484 5.935483870967742
      vertex 0.1935483870967742 3.198327741935484 5.161289032258065
    endloop
  endfacet
  facet normal 1.0 0.0 -0.0
    outer loop
      vertex 0.1935483870967742 3.198327741935484 5.161289032258065
      vertex 0.1935483870967742 3.198327741935484 5.935483870967742
      vertex 0.1935483870967742 2.424134193548387 5.161289032258065
    endloop
  endfacet
  facet normal 0.0 0.0 -1.0
    outer loop
      vertex 0.0 2.424134193548387 5.161289032258065
      vertex 0.0 3.198327741935484 5.161289032258065
      vertex 0.1935483870967742 2.424134193548387 5.161289032258065
    endloop
  endfacet
  facet normal 0.0 0.0 -1.0
    outer loop
      vertex 0.1935483870967742 2.424134193548387 5.161289032258065
      vertex 0.0 3.198327741935484 5.161289032258065
      vertex 0.1935483870967742 3.198327741935484 5.161289032258065
    endloop
  endfacet
  facet normal -0.0 -1.0 0.0
    outer loop
      vertex 0.1935483870967742 3.32736 5.032256774193549
      vertex 0.0 3.32736 5.032256774193549
      vertex 0.0 3.32736 4.258063225806452
    endloop
  endfacet
  facet normal 0.0 -1.0 0.0
    outer loop
      vertex 0.1935483870967742 3.32736 4.258063225806452
      vertex 0.1935483870967742 3.32736 5.032256774193549
      vertex 0.0 3.32736 4.258063225806452
    endloop
  endfacet
  facet normal -1.0 0.0 0.0
    outer loop
      vertex 0.0 3.32736 4.258063225806452
      vertex 0.0 3.32736 5.032256774193549
      vertex 0.0 4.101553548387097 5.032256774193549
    endloop
  endfacet
  facet normal 0.0 0.0 1.0
    outer loop
      vertex 0.0 4.101553548387097 5.032256774193549
      vertex 0.0 3.32736 5.032256774193549
      vertex 0.1935483870967742 3.32736 5.032256774193549
    endloop
  endfacet
  facet normal 0.0 0.0 1.0
    outer loop
      vertex 0.1935483870967742 4.101553548387097 5.032256774193549
      vertex 0.0 4.101553548387097 5.032256774193549
      vertex 0.1935483870967742 3.32736 5.032256774193549
    endloop
  endfacet
  facet normal 1.0 0.0 0.0
    outer loop
      vertex 0.1935483870967742 4.101553548387097 5.032256774193549
      vertex 0.1935483870967742 3.32736 5.032256774193549
      vertex 0.1935483870967742 3.32736 4.258063225806452
    endloop
  endfacet
  facet normal 0.0 0.7071067811865477 -0.7071067811865474
    outer loop
      vertex 0.0 4.101553548387097 5.032256774193549
      vertex 0.1935483870967742 4.101553548387097 5.032256774193549
      vertex 0.0 3.32736 4.258063225806452
    endloop
  endfacet
  facet normal 0.0 0.7071067811865477 -0.7071067811865474
    outer loop
      vertex 0.0 3.32736 4.258063225806452
      vertex 0.1935483870967742 4.101553548387097 5.032256774193549
      vertex 0.1935483870967742 3.32736 4.258063225806452
    endloop
  endfacet
  facet normal -0.0 -1.0 0.0
    outer loop
      vertex 0.1935483870967742 5.391870967741935 5.032256774193549
      vertex 0.0 5.391870967741935 5.032256774193549
      vertex 0.0 5.391870967741935 4.258063225806452
    endloop
  endfacet
  facet normal 0.0 -1.0 0.0
    outer loop
      vertex 0.1935483870967742 5.391870967741935 4.258063225806452
      vertex 0.1935483870967742 5.391870967741935 5.032256774193549
      vertex 0.0 5.391870967741935 4.258063225806452
    endloop
  endfacet
  facet normal -1.0 0.0 0.0
    outer loop
      vertex 0.0 5.391870967741935 4.258063225806452
      vertex 0.0 5.391870967741935 5.032256774193549
      vertex 0.0 6.166064516129032 5.032256774193549
    endloop
  endfacet
  facet normal 0.0 0.0 1.0
    outer loop
      vertex 0.0 6.166064516129032 5.032256774193549
      vertex 0.0 5.391870967741935 5.032256774193549
      vertex 0.1935483870967742 5.391870967741935 5.032256774193549
    endloop
  endfacet
  facet normal 0.0 0.0 1.0
    outer loop
      vertex 0.1935483870967742 6.166064516129032 5.032256774193549
      vertex 0.0 6.166064516129032 5.032256774193549
      vertex 0.1935483870967742 5.391870967741935 5.032256774193549
    endloop
  endfacet
  facet normal 1.0 0.0 0.0
    outer loop
      vertex 0.1935483870967742 6.166064516129032 5.032256774193549
      vertex 0.1935483870967742 5.391870967741935 5.032256774193549
      vertex 0.1935483870967742 5.391870967741935 4.258063225806452
    endloop
  endfacet
  facet normal 0.0 0.7071067811865475 -0.7071067811865475
    outer loop
      vertex 0.0 6.166064516129032 5.032256774193549
      vertex 0.1935483870967742 6.166064516129032 5.032256774193549
      vertex 0.0 5.391870967741935 4.258063225806452
    endloop
  endfacet
  facet normal 0.0 0.7071067811865475 -0.7071067811865475
    outer loop
      vertex 0.0 5.391870967741935 4.258063225806452
      vertex 0.1935483870967742 6.166064516129032 5.032256774193549
      vertex 0.1935483870967742 5.391870967741935 4.258063225806452
    endloop
  endfacet
  facet normal 0.0 -0.707108124892712 0.7071054374778295
    outer loop
      vertex 0.1935483870967742 2.0370374193548386 8.0
      vertex 0.0 2.0370374193548386 8.0
      vertex 0.0 0.0 5.962954838709678
    endloop
  endfacet
  facet normal 0.0 -0.707108124892712 0.7071054374778295
    outer loop
      vertex 0.1935483870967742 0.0 5.962954838709678
      vertex 0.1935483870967742 2.0370374193548386 8.0
      vertex 0.0 0.0 5.962954838709678
    endloop
  endfacet
  facet normal -1.0 0.0 -0.0
    outer loop
      vertex 0.0 2.0370374193548386 8.0
      vertex 0.0 2.0370374193548386 4.129030967741936
      vertex 0.0 0.0 5.962954838709678
    endloop
  endfacet
  facet normal -1.0 0.0 0.0
    outer loop
      vertex 0.0 0.0 5.962954838709678
      vertex 0.0 2.0370374193548386 4.129030967741936
      vertex 0.0 0.0 4.129030967741936
    endloop
  endfacet
  facet normal -0.0 1.0 0.0
    outer loop
      vertex 0.0 2.0370374193548386 8.0
      vertex 0.1935483870967742 2.0370374193548386 8.0
      vertex 0.0 2.0370374193548386 4.129030967741936
    endloop
  endfacet
  facet normal 0.0 1.0 0.0
    outer loop
      vertex 0.0 2.0370374193548386 4.129030967741936
      vertex 0.1935483870967742 2.0370374193548386 8.0
      vertex 0.1935483870967742 2.0370374193548386 4.129030967741936
    endloop
  endfacet
  facet normal 1.0 0.0 -0.0
    outer loop
      vertex 0.1935483870967742 2.0370374193548386 4.129030967741936
      vertex 0.1935483870967742 2.0370374193548386 8.0
      vertex 0.1935483870967742 0.0 5.962954838709678
    endloop
  endfacet
  facet normal 1.0 0.0 0.0
    outer loop
      vertex 0.1935483870967742 0.0 4.129030967741936
      vertex 0.1935483870967742 2.0370374193548386 4.129030967741936
      vertex 0.1935483870967742 0.0 5.962954838709678
    endloop
  endfacet
  facet normal -0.0 -1.0 0.0
    outer loop
      vertex 0.1935483870967742 0.0 5.962954838709678
      vertex 0.0 0.0 5.962954838709678
      vertex 0.0 0.0 4.129030967741936
    endloop
  endfacet
  facet normal 0.0 -1.0 0.0
    outer loop
      vertex 0.1935483870967742 0.0 4.129030967741936
      vertex 0.1935483870967742 0.0 5.962954838709678
      vertex 0.0 0.0 4.129030967741936
    endloop
  endfacet
  facet normal 0.0 0.0 -1.0
    outer loop
      vertex 0.0 0.0 4.129030967741936
      vertex 0.0 2.0370374193548386 4.129030967741936
      vertex 0.1935483870967742 0.0 4.129030967741936
    endloop
  endfacet
  facet normal 0.0 0.0 -1.0
    outer loop
      vertex 0.1935483870967742 0.0 4.129030967741936
      vertex 0.0 2.0370374193548386 4.129030967741936
      vertex 0.1935483870967742 2.0370374193548386 4.129030967741936
    endloop
  endfacet
  facet normal 0.0 -0.7071067811865476 0.7071067811865475
    outer loop
      vertex 0.1935483870967742 1.004774193548387 8.0
      vertex 0.0 1.004774193548387 8.0
      vertex 0.0 0.2305806451612902 7.225806451612903
    endloop
  endfacet
  facet normal 0.0 -0.7071067811865476 0.7071067811865475
    outer loop
      vertex 0.1935483870967742 0.2305806451612902 7.225806451612903
      vertex 0.1935483870967742 1.004774193548387 8.0
      vertex 0.0 0.2305806451612902 7.225806451612903
    endloop
  endfacet
  facet normal -1.0 0.0 0.0
    outer loop
      vertex 0.0 0.2305806451612902 7.225806451612903
      vertex 0.0 1.004774193548387 8.0
      vertex 0.0 1.004774193548387 7.225806451612903
    endloop
  endfacet
  facet normal -0.0 1.0 0.0
    outer loop
      vertex 0.0 1.004774193548387 8.0
      vertex 0.1935483870967742 1.004774193548387 8.0
      vertex 0.0 1.004774193548387 7.225806451612903
    endloop
  endfacet
  facet normal 0.0 1.0 0.0
    outer loop
      vertex 0.0 1.004774193548387 7.225806451612903
      vertex 0.1935483870967742 1.004774193548387 8.0
      vertex 0.1935483870967742 1.004774193548387 7.225806451612903
    endloop
  endfacet
  facet normal 1.0 0.0 -0.0
    outer loop
      vertex 0.1935483870967742 1.004774193548387 7.225806451612903
      vertex 0.1935483870967742 1.004774193548387 8.0
      vertex 0.1935483870967742 0.2305806451612902 7.225806451612903
    endloop
  endfacet
  facet normal 0.0 0.0 -1.0
    outer loop
      vertex 0.0 0.2305806451612902 7.225806451612903
      vertex 0.0 1.004774193548387 7.225806451612903
      vertex 0.1935483870967742 0.2305806451612902 7.225806451612903
    endloop
  endfacet
  facet normal 0.0 0.0 -1.0
    outer loop
      vertex 0.1935483870967742 0.2305806451612902 7.225806451612903
      vertex 0.0 1.004774193548387 7.225806451612903
      vertex 0.1935483870967742 1.004774193548387 7.225806451612903
    endloop
  endfacet
  facet normal -0.0 -1.0 0.0
    outer loop
      vertex 0.1935483870967742 2.295101935483871 3.8709664516129036
      vertex 0.0 2.295101935483871 3.8709664516129036
      vertex 0.0 2.295101935483871 0.0
    endloop
  endfacet
  facet normal 0.0 -1.0 0.0
    outer loop
      vertex 0.1935483870967742 2.295101935483871 0.0
      vertex 0.1935483870967742 2.295101935483871 3.8709664516129036
      vertex 0.0 2.295101935483871 0.0
    endloop
  endfacet
  facet normal -1.0 0.0 0.0
    outer loop
      vertex 0.0 2.295101935483871 0.0
      vertex 0.0 2.295101935483871 3.8709664516129036
      vertex 0.0 6.166064516129032 3.8709664516129036
    endloop
  endfacet
  facet normal 0.0 0.0 1.0
    outer loop
      vertex 0.0 6.166064516129032 3.8709664516129036
      vertex 0.0 2.295101935483871 3.8709664516129036
      vertex 0.1935483870967742 2.295101935483871 3.8709664516129036
    endloop
  endfacet
  facet normal 0.0 0.0 1.0
    outer loop
      vertex 0.1935483870967742 6.166064516129032 3.8709664516129036
      vertex 0.0 6.166064516129032 3.8709664516129036
      vertex 0.1935483870967742 2.295101935483871 3.8709664516129036
    endloop
  endfacet
  facet normal 1.0 0.0 0.0
    outer loop
      vertex 0.1935483870967742 6.166064516129032 3.8709664516129036
      vertex 0.1935483870967742 2.295101935483871 3.8709664516129036
      vertex 0.1935483870967742 2.295101935483871 0.0
    endloop
  endfacet
  facet normal 0.0 0.7071071347401444 -0.7071064276327739
    outer loop
      vertex 0.0 6.166064516129032 3.8709664516129036
      vertex 0.1935483870967742 6.166064516129032 3.8709664516129036
      vertex 0.0 2.295101935483871 0.0
    endloop
  endfacet
  facet normal 0.0 0.7071071347401444 -0.7071064276327739
    outer loop
      vertex 0.0 2.295101935483871 0.0
      vertex 0.1935483870967742 6.166064516129032 3.8709664516129036
      vertex 0.1935483870967742 2.295101935483871 0.0
    endloop
  endfacet
  facet normal -0.0 -1.0 0.0
    outer loop
      vertex 0.1935483870967742 5.391870967741935 2.838709677419355
      vertex 0.0 5.391870967741935 2.838709677419355
      vertex 0.0 5.391870967741935 2.0645161290322585
    endloop
  endfacet
  facet normal 0.0 -1.0 0.0
    outer loop
      vertex 0.1935483870967742 5.391870967741935 2.0645161290322585
      vertex 0.1935483870967742 5.391870967741935 2.838709677419355
      vertex 0.0 5.391870967741935 2.0645161290322585
    endloop
  endfacet
  facet normal -1.0 0.0 0.0
    outer loop
      vertex 0.0 5.391870967741935 2.0645161290322585
      vertex 0.0 5.391870967741935 2.838709677419355
      vertex 0.0 6.166064516129032 2.838709677419355
    endloop
  endfacet
  facet normal 0.0 0.0 1.0
    outer loop
      vertex 0.0 6.166064516129032 2.838709677419355
      vertex 0.0 5.391870967741935 2.838709677419355
      vertex 0.1935483870967742 5.391870967741935 2.838709677419355
    endloop
  endfacet
  facet normal 0.0 0.0 1.0
    outer loop
      vertex 0.1935483870967742 6.166064516129032 2.838709677419355
      vertex 0.0 6.166064516129032 2.838709677419355
      vertex 0.1935483870967742 5.391870967741935 2.838709677419355
    endloop
  endfacet
  facet normal 1.0 0.0 0.0
    outer loop
      vertex 0.1935483870967742 6.166064516129032 2.838709677419355
      vertex 0.1935483870967742 5.391870967741935 2.838709677419355
      vertex 0.1935483870967742 5.391870967741935 2.0645161290322585
    endloop
  endfacet
  facet normal 0.0 0.7071067811865474 -0.7071067811865477
    outer loop
      vertex 0.0 6.166064516129032 2.838709677419355
      vertex 0.1935483870967742 6.166064516129032 2.838709677419355
      vertex 0.0 5.391870967741935 2.0645161290322585
    endloop
  endfacet
  facet normal 0.0 0.7071067811865474 -0.7071067811865477
    outer loop
      vertex 0.0 5.391870967741935 2.0645161290322585
      vertex 0.1935483870967742 6.166064516129032 2.838709677419355
      vertex 0.1935483870967742 5.391870967741935 2.0645161290322585
    endloop
  endfacet
  facet normal -0.0 -1.0 0.0
    outer loop
      vertex 0.1935483870967742 4.359618064516129 1.8064516129032262
      vertex 0.0 4.359618064516129 1.8064516129032262
      vertex 0.0 4.359618064516129 0.0
    endloop
  endfacet
  facet normal 0.0 -1.0 0.0
    outer loop
      vertex 0.1935483870967742 4.359618064516129 0.0
      vertex 0.1935483870967742 4.359618064516129 1.8064516129032262
      vertex 0.0 4.359618064516129 0.0
    endloop
  endfacet
  facet normal -1.0 0.0 0.0
    outer loop
      vertex 0.0 4.359618064516129 0.0
      vertex 0.0 4.359618064516129 1.8064516129032262
      vertex 0.0 6.166064516129032 1.8064516129032262
    endloop
  endfacet
  facet normal 0.0 0.0 1.0
    outer loop
      vertex 0.0 6.166064516129032 1.8064516129032262
      vertex 0.0 4.359618064516129 1.8064516129032262
      vertex 0.1935483870967742 4.359618064516129 1.8064516129032262
    endloop
  endfacet
  facet normal 0.0 0.0 1.0
    outer loop
      vertex 0.1935483870967742 6.166064516129032 1.8064516129032262
      vertex 0.0 6.166064516129032 1.8064516129032262
      vertex 0.1935483870967742 4.359618064516129 1.8064516129032262
    endloop
  endfacet
  facet normal 1.0 0.0 0.0
    outer loop
      vertex 0.1935483870967742 6.166064516129032 1.8064516129032262
      vertex 0.1935483870967742 4.359618064516129 1.8064516129032262
      vertex 0.1935483870967742 4.359618064516129 0.0
    endloop
  endfacet
  facet normal 0.0 0.7071077913398136 -0.7071057710318384
    outer loop
      vertex 0.0 6.166064516129032 1.8064516129032262
      vertex 0.1935483870967742 6.166064516129032 1.8064516129032262
      vertex 0.0 4.359618064516129 0.0
    endloop
  endfacet
  facet normal 0.0 0.7071077913398136 -0.7071057710318384
    outer loop
      vertex 0.0 4.359618064516129 0.0
      vertex 0.1935483870967742 6.166064516129032 1.8064516129032262
      vertex 0.1935483870967742 4.359618064516129 0.0
    endloop
  endfacet
  facet normal 0.0 -0.7682212795973759 0.6401843996644798
    outer loop
      vertex 0.1935483870967742 1.004774193548387 3.7419341935483876
      vertex 0.0 1.004774193548387 3.7419341935483876
      vertex 0.0 0.3596129032258063 2.9677406451612907
    endloop
  endfacet
  facet normal 0.0 -0.7682212795973759 0.6401843996644798
    outer loop
      vertex 0.1935483870967742 0.3596129032258063 2.9677406451612907
      vertex 0.1935483870967742 1.004774193548387 3.7419341935483876
      vertex 0.0 0.3596129032258063 2.9677406451612907
    endloop
  endfacet
  facet normal -1.0 0.0 0.0
    outer loop
      vertex 0.0 0.3596129032258063 2.9677406451612907
      vertex 0.0 1.004774193548387 3.7419341935483876
      vertex 0.0 1.004774193548387 2.9677406451612907
    endloop
  endfacet
  facet normal -0.0 1.0 0.0
    outer loop
      vertex 0.0 1.004774193548387 3.7419341935483876
      vertex 0.1935483870967742 1.004774193548387 3.7419341935483876
      vertex 0.0 1.004774193548387 2.9677406451612907
    endloop
  endfacet
  facet normal 0.0 1.0 0.0
    outer loop
      vertex 0.0 1.004774193548387 2.9677406451612907
      vertex 0.1935483870967742 1.004774193548387 3.7419341935483876
      vertex 0.1935483870967742 1.004774193548387 2.9677406451612907
    endloop
  endfacet
  facet normal 1.0 0.0 -0.0
    outer loop
      vertex 0.1935483870967742 1.004774193548387 2.9677406451612907
      vertex 0.1935483870967742 1.004774193548387 3.7419341935483876
      vertex 0.1935483870967742 0.3596129032258063 2.9677406451612907
    endloop
  endfacet
  facet normal 0.0 0.0 -1.0
    outer loop
      vertex 0.0 0.3596129032258063 2.9677406451612907
      vertex 0.0 1.004774193548387 2.9677406451612907
      vertex 0.1935483870967742 0.3596129032258063 2.9677406451612907
    endloop
  endfacet
  facet normal 0.0 0.0 -1.0
    outer loop
      vertex 0.1935483870967742 0.3596129032258063 2.9677406451612907
      vertex 0.0 1.004774193548387 2.9677406451612907
      vertex 0.1935483870967742 1.004774193548387 2.9677406451612907
    endloop
  endfacet
  facet normal 0.0 0.0 1.0
    outer loop
      vertex 0.0 1.9080000000000001 2.838709677419355
      vertex 0.0 1.1338064516129032 2.838709677419355
      vertex 0.1935483870967742 1.1338064516129032 2.838709677419355
    endloop
  endfacet
  facet normal 0.0 0.0 1.0
    outer loop
      vertex 0.1935483870967742 1.9080000000000001 2.838709677419355
      vertex 0.0 1.9080000000000001 2.838709677419355
      vertex 0.1935483870967742 1.1338064516129032 2.838709677419355
    endloop
  endfacet
  facet normal -0.0 -1.0 0.0
    outer loop
      vertex 0.1935483870967742 1.1338064516129032 2.838709677419355
      vertex 0.0 1.1338064516129032 2.838709677419355
      vertex 0.0 1.1338064516129032 2.0645161290322585
    endloop
  endfacet
  facet normal 0.0 -1.0 0.0
    outer loop
      vertex 0.1935483870967742 1.1338064516129032 2.0645161290322585
      vertex 0.1935483870967742 1.1338064516129032 2.838709677419355
      vertex 0.0 1.1338064516129032 2.0645161290322585
    endloop
  endfacet
  facet normal -1.0 0.0 0.0
    outer loop
      vertex 0.0 1.1338064516129032 2.0645161290322585
      vertex 0.0 1.1338064516129032 2.838709677419355
      vertex 0.0 1.9080000000000001 2.838709677419355
    endloop
  endfacet
  facet normal 0.0 0.7071067811865474 -0.7071067811865477
    outer loop
      vertex 0.0 1.9080000000000001 2.838709677419355
      vertex 0.1935483870967742 1.9080000000000001 2.838709677419355
      vertex 0.0 1.1338064516129032 2.0645161290322585
    endloop
  endfacet
  facet normal 0.0 0.7071067811865474 -0.7071067811865477
    outer loop
      vertex 0.0 1.1338064516129032 2.0645161290322585
      vertex 0.1935483870967742 1.9080000000000001 2.838709677419355
      vertex 0.1935483870967742 1.1338064516129032 2.0645161290322585
    endloop
  endfacet
  facet normal 1.0 0.0 0.0
    outer loop
      vertex 0.1935483870967742 1.9080000000000001 2.838709677419355
      vertex 0.1935483870967742 1.1338064516129032 2.838709677419355
      vertex 0.1935483870967742 1.1338064516129032 2.0645161290322585
    endloop
  endfacet
  facet normal -0.0 -1.0 0.0
    outer loop
      vertex 0.1935483870967742 0.10154838709677406 1.8064516129032262
      vertex 0.0 0.10154838709677406 1.8064516129032262
      vertex 0.0 0.10154838709677406 0.0
    endloop
  endfacet
  facet normal 0.0 -1.0 0.0
    outer loop
      vertex 0.1935483870967742 0.10154838709677406 0.0
      vertex 0.1935483870967742 0.10154838709677406 1.8064516129032262
      vertex 0.0 0.10154838709677406 0.0
    endloop
  endfacet
  facet normal -1.0 0.0 0.0
    outer loop
      vertex 0.0 0.10154838709677406 0.0
      vertex 0.0 0.10154838709677406 1.8064516129032262
      vertex 0.0 1.9080000000000001 1.8064516129032262
    endloop
  endfacet
  facet normal 0.0 0.0 1.0
    outer loop
      vertex 0.0 1.9080000000000001 1.8064516129032262
      vertex 0.0 0.10154838709677406 1.8064516129032262
      vertex 0.1935483870967742 0.10154838709677406 1.8064516129032262
    endloop
  endfacet
  facet normal 0.0 0.0 1.0
    outer loop
      vertex 0.1935483870967742 1.9080000000000001 1.8064516129032262
      vertex 0.0 1.9080000000000001 1.8064516129032262
      vertex 0.1935483870967742 0.10154838709677406 1.8064516129032262
    endloop
  endfacet
  facet normal 1.0 0.0 0.0
    outer loop
      vertex 0.1935483870967742 1.9080000000000001 1.8064516129032262
      vertex 0.1935483870967742 0.10154838709677406 1.8064516129032262
      vertex 0.1935483870967742 0.10154838709677406 0.0
    endloop
  endfacet
  facet normal 0.0 0.7071067811865476 -0.7071067811865475
    outer loop
      vertex 0.0 1.9080000000000001 1.8064516129032262
      vertex 0.1935483870967742 1.9080000000000001 1.8064516129032262
      vertex 0.0 0.10154838709677406 0.0
    endloop
  endfacet
  facet normal 0.0 0.7071067811865476 -0.7071067811865475
    outer loop
      vertex 0.0 0.10154838709677406 0.0
      vertex 0.1935483870967742 1.9080000000000001 1.8064516129032262
      vertex 0.1935483870967742 0.10154838709677406 0.0
    endloop
  endfacet
endsolid thingi10k_65585
