solid thingi10k_65609
  facet normal 0.0 -0.0 1.0
    outer loop
      vertex 1.3694826795965607 3.659034976246162 0.0921492224105254
      vertex 1.3694826795965607 4.340965023753838 0.0921492224105254
      vertex 0.23639918715952132 3.506312291512116 0.0921492224105254
    endloop
  endfacet
  facet normal 0.0 0.0 1.0
    outer loop
      vertex 0.23639918715952132 3.506312291512116 0.0921492224105254
      vertex 1.3694826795965607 4.340965023753838 0.0921492224105254
      vertex 0.23639918715952132 4.493687708487884 0.0921492224105254
    endloop
  endfacet
  facet normal 0.0 -0.0 1.0
    outer loop
      vertex 0.23639918715952132 3.506312291512116 0.0921492224105254
      vertex 0.23639918715952132 4.493687708487884 0.0921492224105254
      vertex 0.0 3.506312291512116 0.0921492224105254
    endloop
  endfacet
  facet normal 0.0 0.0 1.0
    outer loop
      vertex 0.0 3.506312291512116 0.0921492224105254
      vertex 0.23639918715952132 4.493687708487884 0.0921492224105254
      vertex 0.0 4.493687708487884 0.0921492224105254
    endloop
  endfacet
  facet normal 1.0 0.0 0.0
    outer loop
      vertex 2.2209050911150023 4.184822035926628 0.2027282936971732
      vertex 2.2209050911150023 3.815177964073372 0.2027282936971732
      vertex 2.2209050911150023 4.184822035926628 0.0
    endloop
  endfacet
  facet normal 1.0 0.0 0.0
    outer loop
      vertex 2.2209050911150023 4.184822035926628 0.0
      vertex 2.2209050911150023 3.815177964073372 0.2027282936971732
      vertex 2.2209050911150023 3.815177964073372 0.0
    endloop
  endfacet
  facet normal -0.09214817178636883 -0.995745306007731 -0.0
    outer loop
      vertex 2.2209050911150023 4.184822035926628 0.2027282936971732
      vertex 2.2209050911150023 4.184822035926628 0.0
      vertex 2.425249746058753 4.165911591404546 0.0
    endloop
  endfacet
  facet normal -0.09214817178636883 -0.995745306007731 0.0
    outer loop
      vertex 2.2209050911150023 4.184822035926628 0.2027282936971732
      vertex 2.425249746058753 4.165911591404546 0.0
      vertex 2.425249746058753 4.165911591404546 0.2027282936971732
    endloop
  endfacet
  facet normal 0.014415953501659466 -0.9998960847431286 0.0
    outer loop
      vertex 2.425249746058753 4.165911591404546 0.2027282936971732
      vertex 2.425249746058753 4.165911591404546 0.0
      vertex 2.630445785801234 4.168869995395509 0.0
    endloop
  endfacet
  facet normal 0.014415953501659466 -0.9998960847431286 0.0
    outer loop
      vertex 2.425249746058753 4.165911591404546 0.2027282936971732
      vertex 2.630445785801234 4.168869995395509 0.0
      vertex 2.630445785801234 4.168869995395509 0.2027282936971732
    endloop
  endfacet
  facet normal 0.12081568953092083 -0.99267495645008 0.0
    outer loop
      vertex 2.630445785801234 4.168869995395509 0.2027282936971732
      vertex 2.630445785801234 4.168869995395509 0.0
      vertex 2.834160162898526 4.193663501846388 0.0
    endloop
  endfacet
  facet normal 0.12081568953092083 -0.99267495645008 0.0
    outer loop
      vertex 2.630445785801234 4.168869995395509 0.2027282936971732
      vertex 2.834160162898526 4.193663501846388 0.0
      vertex 2.834160162898526 4.193663501846388 0.2027282936971732
    endloop
  endfacet
  facet normal 0.3538083991564584 -0.9353179227868693 0.0
    outer loop
      vertex 2.834160162898526 4.193663501846388 0.2027282936971732
      vertex 2.834160162898526 4.193663501846388 0.0
      vertex 3.0012386295464184 4.2568652895787045 0.0
    endloop
  endfacet
  facet normal 0.3538083991564584 -0.9353179227868693 0.0
    outer loop
      vertex 2.834160162898526 4.193663501846388 0.2027282936971732
      vertex 3.0012386295464184 4.2568652895787045 0.0
      vertex 3.0012386295464184 4.2568652895787045 0.2027282936971732
    endloop
  endfacet
  facet normal 0.4949892531565523 -0.8688990961322945 0.0
    outer loop
      vertex 3.0012386295464184 4.2568652895787045 0.2027282936971732
      vertex 3.0012386295464184 4.2568652895787045 0.0
      vertex 3.1564525463484245 4.345286627682652 0.0
    endloop
  endfacet
  facet normal 0.4949892531565523 -0.8688990961322945 0.0
    outer loop
      vertex 3.0012386295464184 4.2568652895787045 0.2027282936971732
      vertex 3.1564525463484245 4.345286627682652 0.0
      vertex 3.1564525463484245 4.345286627682652 0.2027282936971732
    endloop
  endfacet
  facet normal 0.6241196434630527 -0.7813287852393205 0.0
    outer loop
      vertex 3.1564525463484245 4.345286627682652 0.2027282936971732
      vertex 3.1564525463484245 4.345286627682652 0.0
      vertex 3.2960234099182726 4.456774799185719 0.0
    endloop
  endfacet
  facet normal 0.6241196434630527 -0.7813287852393205 0.0
    outer loop
      vertex 3.1564525463484245 4.345286627682652 0.2027282936971732
      vertex 3.2960234099182726 4.456774799185719 0.0
      vertex 3.2960234099182726 4.456774799185719 0.2027282936971732
    endloop
  endfacet
  facet normal 0.7380600866553021 -0.6747349913013019 0.0
    outer loop
      vertex 3.2960234099182726 4.456774799185719 0.2027282936971732
      vertex 3.2960234099182726 4.456774799185719 0.0
      vertex 3.4165534145315513 4.588616762024898 0.0
    endloop
  endfacet
  facet normal 0.7380600866553021 -0.6747349913013019 0.0
    outer loop
      vertex 3.2960234099182726 4.456774799185719 0.2027282936971732
      vertex 3.4165534145315513 4.588616762024898 0.0
      vertex 3.4165534145315513 4.588616762024898 0.2027282936971732
    endloop
  endfacet
  facet normal 0.8340306674417338 -0.5517180854083867 0.0
    outer loop
      vertex 3.4165534145315513 4.588616762024898 0.2027282936971732
      vertex 3.4165534145315513 4.588616762024898 0.0
      vertex 3.5151084111729842 4.737602071374924 0.0
    endloop
  endfacet
  facet normal 0.8340306674417338 -0.5517180854083867 0.0
    outer loop
      vertex 3.4165534145315513 4.588616762024898 0.2027282936971732
      vertex 3.5151084111729842 4.737602071374924 0.0
      vertex 3.5151084111729842 4.737602071374924 0.2027282936971732
    endloop
  endfacet
  facet normal 0.909697167163518 -0.4152722770119267 0.0
    outer loop
      vertex 3.5151084111729842 4.737602071374924 0.2027282936971732
      vertex 3.5151084111729842 4.737602071374924 0.0
      vertex 3.5892896178993285 4.900103729567215 0.0
    endloop
  endfacet
  facet normal 0.909697167163518 -0.4152722770119267 0.0
    outer loop
      vertex 3.5151084111729842 4.737602071374924 0.2027282936971732
      vertex 3.5892896178993285 4.900103729567215 0.0
      vertex 3.5892896178993285 4.900103729567215 0.2027282936971732
    endloop
  endfacet
  facet normal 0.963221297600098 -0.26870938176696285 0.0
    outer loop
      vertex 3.5892896178993285 4.900103729567215 0.2027282936971732
      vertex 3.5892896178993285 4.900103729567215 0.0
      vertex 3.6372898632612563 5.072166417957962 0.0
    endloop
  endfacet
  facet normal 0.963221297600098 -0.26870938176696285 0.0
    outer loop
      vertex 3.5892896178993285 4.900103729567215 0.2027282936971732
      vertex 3.6372898632612563 5.072166417957962 0.0
      vertex 3.6372898632612563 5.072166417957962 0.2027282936971732
    endloop
  endfacet
  facet normal 0.9932941638731954 -0.1156144628299143 0.0
    outer loop
      vertex 3.6372898632612563 5.072166417957962 0.2027282936971732
      vertex 3.6372898632612563 5.072166417957962 0.0
      vertex 3.6579424477761155 5.249601759223932 0.0
    endloop
  endfacet
  facet normal 0.9932941638731954 -0.1156144628299143 0.0
    outer loop
      vertex 3.6372898632612563 5.072166417957962 0.2027282936971732
      vertex 3.6579424477761155 5.249601759223932 0.0
      vertex 3.6579424477761155 5.249601759223932 0.2027282936971732
    endloop
  endfacet
  facet normal 0.9991876411560271 0.04029960001109869 0.0
    outer loop
      vertex 3.6579424477761155 5.249601759223932 0.2027282936971732
      vertex 3.6579424477761155 5.249601759223932 0.0
      vertex 3.6507436412966796 5.4280888524790845 0.0
    endloop
  endfacet
  facet normal 0.9991876411560271 0.04029960001109869 0.0
    outer loop
      vertex 3.6579424477761155 5.249601759223932 0.2027282936971732
      vertex 3.6507436412966796 5.4280888524790845 0.0
      vertex 3.6507436412966796 5.4280888524790845 0.2027282936971732
    endloop
  endfacet
  facet normal 0.9999991850093471 -0.001276706952110086 0.0
    outer loop
      vertex 3.6507436412966796 5.4280888524790845 0.2027282936971732
      vertex 3.6507436412966796 5.4280888524790845 0.0
      vertex 3.6510839139990625 5.694612367919683 0.0
    endloop
  endfacet
  facet normal 0.9999991850093471 -0.001276706952110086 0.0
    outer loop
      vertex 3.6507436412966796 5.4280888524790845 0.2027282936971732
      vertex 3.6510839139990625 5.694612367919683 0.0
      vertex 3.6510839139990625 5.694612367919683 0.2027282936971732
    endloop
  endfacet
  facet normal 0.9941987139837459 0.1075589006687301 0.0
    outer loop
      vertex 3.6510839139990625 5.694612367919683 0.2027282936971732
      vertex 3.6510839139990625 5.694612367919683 0.0
      vertex 3.6224169933874872 5.959589189258543 0.0
    endloop
  endfacet
  facet normal 0.9941987139837459 0.1075589006687301 0.0
    outer loop
      vertex 3.6510839139990625 5.694612367919683 0.2027282936971732
      vertex 3.6224169933874872 5.959589189258543 0.0
      vertex 3.6224169933874872 5.959589189258543 0.2027282936971732
    endloop
  endfacet
  facet normal 0.9765885270651858 0.2151158962156234 0.0
    outer loop
      vertex 3.6224169933874872 5.959589189258543 0.2027282936971732
      vertex 3.6224169933874872 5.959589189258543 0.0
      vertex 3.565083503685724 6.219873200084172 0.0
    endloop
  endfacet
  facet normal 0.9765885270651858 0.2151158962156234 0.0
    outer loop
      vertex 3.6224169933874872 5.959589189258543 0.2027282936971732
      vertex 3.565083503685724 6.219873200084172 0.0
      vertex 3.565083503685724 6.219873200084172 0.2027282936971732
    endloop
  endfacet
  facet normal 0.9473772283992232 0.3201193326098973 0.0
    outer loop
      vertex 3.565083503685724 6.219873200084172 0.2027282936971732
      vertex 3.565083503685724 6.219873200084172 0.0
      vertex 3.479764341819924 6.472371012193091 0.0
    endloop
  endfacet
  facet normal 0.9473772283992232 0.3201193326098973 0.0
    outer loop
      vertex 3.565083503685724 6.219873200084172 0.2027282936971732
      vertex 3.479764341819924 6.472371012193091 0.0
      vertex 3.479764341819924 6.472371012193091 0.2027282936971732
    endloop
  endfacet
  facet normal 0.9069137696993778 0.42131628775738544 0.0
    outer loop
      vertex 3.479764341819924 6.472371012193091 0.2027282936971732
      vertex 3.479764341819924 6.472371012193091 0.0
      vertex 3.367473646990887 6.714084851199019 0.0
    endloop
  endfacet
  facet normal 0.9069137696993778 0.42131628775738544 0.0
    outer loop
      vertex 3.479764341819924 6.472371012193091 0.2027282936971732
      vertex 3.367473646990887 6.714084851199019 0.0
      vertex 3.367473646990887 6.714084851199019 0.2027282936971732
    endloop
  endfacet
  facet normal 0.8806281109409405 0.47380811540178414 0.0
    outer loop
      vertex 2.952696338206108 7.48499726494391 0.2027282936971732
      vertex 3.367473646990887 6.714084851199019 0.2027282936971732
      vertex 2.952696338206108 7.48499726494391 0.0
    endloop
  endfacet
  facet normal 0.8806281109409405 0.47380811540178414 0.0
    outer loop
      vertex 2.952696338206108 7.48499726494391 0.0
      vertex 3.367473646990887 6.714084851199019 0.2027282936971732
      vertex 3.367473646990887 6.714084851199019 0.0
    endloop
  endfacet
  facet normal 0.86730710179483 0.49777343357822185 0.0
    outer loop
      vertex 2.952696338206108 7.48499726494391 0.2027282936971732
      vertex 2.952696338206108 7.48499726494391 0.0
      vertex 2.8759673044685354 7.618687878756056 0.0
    endloop
  endfacet
  facet normal 0.86730710179483 0.49777343357822185 0.0
    outer loop
      vertex 2.952696338206108 7.48499726494391 0.2027282936971732
      vertex 2.8759673044685354 7.618687878756056 0.0
      vertex 2.8759673044685354 7.618687878756056 0.2027282936971732
    endloop
  endfacet
  facet normal 0.7695259030140504 0.6386156000211788 0.0
    outer loop
      vertex 2.8759673044685354 7.618687878756056 0.2027282936971732
      vertex 2.8759673044685354 7.618687878756056 0.0
      vertex 2.777528309884733 7.737305958546752 0.0
    endloop
  endfacet
  facet normal 0.7695259030140504 0.6386156000211788 0.0
    outer loop
      vertex 2.8759673044685354 7.618687878756056 0.2027282936971732
      vertex 2.777528309884733 7.737305958546752 0.0
      vertex 2.777528309884733 7.737305958546752 0.2027282936971732
    endloop
  endfacet
  facet normal 0.6491239859994766 0.7606826215973066 0.0
    outer loop
      vertex 2.777528309884733 7.737305958546752 0.2027282936971732
      vertex 2.777528309884733 7.737305958546752 0.0
      vertex 2.6602737815532738 7.837364412159353 0.0
    endloop
  endfacet
  facet normal 0.6491239859994766 0.7606826215973066 0.0
    outer loop
      vertex 2.777528309884733 7.737305958546752 0.2027282936971732
      vertex 2.6602737815532738 7.837364412159353 0.0
      vertex 2.6602737815532738 7.837364412159353 0.2027282936971732
    endloop
  endfacet
  facet normal 0.5096388542153136 0.8603884229079923 0.0
    outer loop
      vertex 2.6602737815532738 7.837364412159353 0.2027282936971732
      vertex 2.6602737815532738 7.837364412159353 0.0
      vertex 2.527649683628555 7.915922411672232 0.0
    endloop
  endfacet
  facet normal 0.5096388542153136 0.8603884229079923 0.0
    outer loop
      vertex 2.6602737815532738 7.837364412159353 0.2027282936971732
      vertex 2.527649683628555 7.915922411672232 0.0
      vertex 2.527649683628555 7.915922411672232 0.2027282936971732
    endloop
  endfacet
  facet normal 0.3551777465597506 0.9347987849525359 0.0
    outer loop
      vertex 2.527649683628555 7.915922411672232 0.2027282936971732
      vertex 2.527649683628555 7.915922411672232 0.0
      vertex 2.383555442853893 7.9706711646171575 0.0
    endloop
  endfacet
  facet normal 0.3551777465597506 0.9347987849525359 0.0
    outer loop
      vertex 2.527649683628555 7.915922411672232 0.2027282936971732
      vertex 2.383555442853893 7.9706711646171575 0.0
      vertex 2.383555442853893 7.9706711646171575 0.2027282936971732
    endloop
  endfacet
  facet normal 0.19026894182494278 0.9817320050690089 0.0
    outer loop
      vertex 2.383555442853893 7.9706711646171575 0.2027282936971732
      vertex 2.383555442853893 7.9706711646171575 0.0
      vertex 2.23222724346112 8.0 0.0
    endloop
  endfacet
  facet normal 0.19026894182494278 0.9817320050690089 0.0
    outer loop
      vertex 2.383555442853893 7.9706711646171575 0.2027282936971732
      vertex 2.23222724346112 8.0 0.0
      vertex 2.23222724346112 8.0 0.2027282936971732
    endloop
  endfacet
  facet normal -0.0 1.0 0.0
    outer loop
      vertex 2.2204228037723692 8.0 0.2027282936971732
      vertex 2.23222724346112 8.0 0.2027282936971732
      vertex 2.2204228037723692 8.0 0.0
    endloop
  endfacet
  facet normal 0.0 1.0 0.0
    outer loop
      vertex 2.2204228037723692 8.0 0.0
      vertex 2.23222724346112 8.0 0.2027282936971732
      vertex 2.23222724346112 8.0 0.0
    endloop
  endfacet
  facet normal -0.05362898421652685 0.9985609305655332 0.0
    outer loop
      vertex 2.2204228037723692 8.0 0.2027282936971732
      vertex 2.2204228037723692 8.0 0.0
      vertex 2.097712311997025 7.993409677041044 0.0
    endloop
  endfacet
  facet normal -0.05362898421652685 0.9985609305655332 0.0
    outer loop
      vertex 2.2204228037723692 8.0 0.2027282936971732
      vertex 2.097712311997025 7.993409677041044 0.0
      vertex 2.097712311997025 7.993409677041044 0.2027282936971732
    endloop
  endfacet
  facet normal -0.20640316659363675 0.9784670320558171 0.0
    outer loop
      vertex 2.097712311997025 7.993409677041044 0.2027282936971732
      vertex 2.097712311997025 7.993409677041044 0.0
      vertex 1.9774709064422753 7.968045299858069 0.0
    endloop
  endfacet
  facet normal -0.20640316659363675 0.9784670320558171 0.0
    outer loop
      vertex 2.097712311997025 7.993409677041044 0.2027282936971732
      vertex 1.9774709064422753 7.968045299858069 0.0
      vertex 1.9774709064422753 7.968045299858069 0.2027282936971732
    endloop
  endfacet
  facet normal -0.3542744406453678 0.9351414976918797 0.0
    outer loop
      vertex 1.9774709064422753 7.968045299858069 0.2027282936971732
      vertex 1.9774709064422753 7.968045299858069 0.0
      vertex 1.862553643811376 7.924509376107979 0.0
    endloop
  endfacet
  facet normal -0.3542744406453678 0.9351414976918797 0.0
    outer loop
      vertex 1.9774709064422753 7.968045299858069 0.2027282936971732
      vertex 1.862553643811376 7.924509376107979 0.0
      vertex 1.862553643811376 7.924509376107979 0.2027282936971732
    endloop
  endfacet
  facet normal -0.49372988973751347 0.8696153149409126 0.0
    outer loop
      vertex 1.862553643811376 7.924509376107979 0.2027282936971732
      vertex 1.862553643811376 7.924509376107979 0.0
      vertex 1.7556886815869626 7.863836081710619 0.0
    endloop
  endfacet
  facet normal -0.49372988973751347 0.8696153149409126 0.0
    outer loop
      vertex 1.862553643811376 7.924509376107979 0.2027282936971732
      vertex 1.7556886815869626 7.863836081710619 0.0
      vertex 1.7556886815869626 7.863836081710619 0.2027282936971732
    endloop
  endfacet
  facet normal -0.6214643120087635 0.783442473254721 0.0
    outer loop
      vertex 1.7556886815869626 7.863836081710619 0.2027282936971732
      vertex 1.7556886815869626 7.863836081710619 0.0
      vertex 1.6594134768993547 7.787465951308927 0.0
    endloop
  endfacet
  facet normal -0.6214643120087635 0.783442473254721 0.0
    outer loop
      vertex 1.7556886815869626 7.863836081710619 0.2027282936971732
      vertex 1.6594134768993547 7.787465951308927 0.0
      vertex 1.6594134768993547 7.787465951308927 0.2027282936971732
    endloop
  endfacet
  facet normal -0.7344471962217107 0.6786658352695146 0.0
    outer loop
      vertex 1.6594134768993547 7.787465951308927 0.2027282936971732
      vertex 1.6594134768993547 7.787465951308927 0.0
      vertex 1.5760137975659516 7.6972114291730325 0.0
    endloop
  endfacet
  facet normal -0.7344471962217107 0.6786658352695146 0.0
    outer loop
      vertex 1.6594134768993547 7.787465951308927 0.2027282936971732
      vertex 1.5760137975659516 7.6972114291730325 0.0
      vertex 1.5760137975659516 7.6972114291730325 0.2027282936971732
    endloop
  endfacet
  facet normal -0.829990297474147 0.557777828618866 0.0
    outer loop
      vertex 1.5760137975659516 7.6972114291730325 0.2027282936971732
      vertex 1.5760137975659516 7.6972114291730325 0.0
      vertex 1.50746993931906 7.59521609271939 0.0
    endloop
  endfacet
  facet normal -0.829990297474147 0.557777828618866 0.0
    outer loop
      vertex 1.5760137975659516 7.6972114291730325 0.2027282936971732
      vertex 1.50746993931906 7.59521609271939 0.0
      vertex 1.50746993931906 7.59521609271939 0.2027282936971732
    endloop
  endfacet
  facet normal -0.9058276206722004 0.42364645829670305 0.0
    outer loop
      vertex 1.50746993931906 7.59521609271939 0.2027282936971732
      vertex 1.50746993931906 7.59521609271939 0.0
      vertex 1.4554090946579865 7.483901221259996 0.0
    endloop
  endfacet
  facet normal -0.9058276206722004 0.42364645829670305 0.0
    outer loop
      vertex 1.50746993931906 7.59521609271939 0.2027282936971732
      vertex 1.4554090946579865 7.483901221259996 0.0
      vertex 1.4554090946579865 7.483901221259996 0.2027282936971732
    endloop
  endfacet
  facet normal -0.9496956801159276 0.3131742568748999 0.0
    outer loop
      vertex 0.5423017101910927 4.714918396287372 0.2027282936971732
      vertex 1.4554090946579865 7.483901221259996 0.2027282936971732
      vertex 0.5423017101910927 4.714918396287372 0.0
    endloop
  endfacet
  facet normal -0.9496956801159276 0.3131742568748999 0.0
    outer loop
      vertex 0.5423017101910927 4.714918396287372 0.0
      vertex 1.4554090946579865 7.483901221259996 0.2027282936971732
      vertex 1.4554090946579865 7.483901221259996 0.0
    endloop
  endfacet
  facet normal -0.922303457647159 0.3864664694538132 0.0
    outer loop
      vertex 0.5423017101910927 4.714918396287372 0.2027282936971732
      vertex 0.5423017101910927 4.714918396287372 0.0
      vertex 0.5228358618779319 4.668463087420249 0.0
    endloop
  endfacet
  facet normal -0.07818539706338183 0.9969388364819786 0.0
    outer loop
      vertex 0.2866136657366436 4.497625802583744 0.0
      vertex 0.23639918715952132 4.493687708487884 0.0
      vertex 0.23639918715952132 4.493687708487884 0.0921492224105254
    endloop
  endfacet
  facet normal -0.922303457647159 0.3864664694538132 0.0
    outer loop
      vertex 0.5423017101910927 4.714918396287372 0.2027282936971732
      vertex 0.5228358618779319 4.668463087420249 0.0
      vertex 0.5228358618779319 4.668463087420249 0.2027282936971732
    endloop
  endfacet
  facet normal -0.8507781283228183 0.5255250482779316 0.0
    outer loop
      vertex 0.5228358618779319 4.668463087420249 0.2027282936971732
      vertex 0.5228358618779319 4.668463087420249 0.0
      vertex 0.4963658620532531 4.625610521246019 0.0
    endloop
  endfacet
  facet normal -0.8507781283228183 0.5255250482779316 0.0
    outer loop
      vertex 0.5228358618779319 4.668463087420249 0.2027282936971732
      vertex 0.4963658620532531 4.625610521246019 0.0
      vertex 0.4963658620532531 4.625610521246019 0.2027282936971732
    endloop
  endfacet
  facet normal -0.7584506919568313 0.6517304257668226 0.0
    outer loop
      vertex 0.4963658620532531 4.625610521246019 0.2027282936971732
      vertex 0.4963658620532531 4.625610521246019 0.0
      vertex 0.46353894947042645 4.587408231497221 0.0
    endloop
  endfacet
  facet normal -0.7584506919568313 0.6517304257668226 0.0
    outer loop
      vertex 0.4963658620532531 4.625610521246019 0.2027282936971732
      vertex 0.46353894947042645 4.587408231497221 0.0
      vertex 0.46353894947042645 4.587408231497221 0.2027282936971732
    endloop
  endfacet
  facet normal -0.6475727521781126 0.7620036290179101 0.0
    outer loop
      vertex 0.46353894947042645 4.587408231497221 0.2027282936971732
      vertex 0.46353894947042645 4.587408231497221 0.0
      vertex 0.42515791109646245 4.554790913541249 0.0
    endloop
  endfacet
  facet normal -0.6475727521781126 0.7620036290179101 0.0
    outer loop
      vertex 0.46353894947042645 4.587408231497221 0.2027282936971732
      vertex 0.42515791109646245 4.554790913541249 0.0
      vertex 0.42515791109646245 4.554790913541249 0.2027282936971732
    endloop
  endfacet
  facet normal -0.520867231506593 0.8536377025077192 0.0
    outer loop
      vertex 0.42515791109646245 4.554790913541249 0.2027282936971732
      vertex 0.42515791109646245 4.554790913541249 0.0
      vertex 0.3821612211536607 4.528555466361886 0.0
    endloop
  endfacet
  facet normal -0.520867231506593 0.8536377025077192 0.0
    outer loop
      vertex 0.42515791109646245 4.554790913541249 0.2027282936971732
      vertex 0.3821612211536607 4.528555466361886 0.0
      vertex 0.3821612211536607 4.528555466361886 0.2027282936971732
    endloop
  endfacet
  facet normal -0.3814210167092284 0.9244014322860488 0.0
    outer loop
      vertex 0.3821612211536607 4.528555466361886 0.2027282936971732
      vertex 0.3821612211536607 4.528555466361886 0.0
      vertex 0.335600280109817 4.509343768011352 0.0
    endloop
  endfacet
  facet normal -0.3814210167092284 0.9244014322860488 0.0
    outer loop
      vertex 0.3821612211536607 4.528555466361886 0.2027282936971732
      vertex 0.335600280109817 4.509343768011352 0.0
      vertex 0.335600280109817 4.509343768011352 0.2027282936971732
    endloop
  endfacet
  facet normal -0.2326441067526697 0.9725619361219379 0.0
    outer loop
      vertex 0.335600280109817 4.509343768011352 0.2027282936971732
      vertex 0.335600280109817 4.509343768011352 0.0
      vertex 0.2866136657366436 4.497625802583744 0.0
    endloop
  endfacet
  facet normal -0.2326441067526697 0.9725619361219379 0.0
    outer loop
      vertex 0.335600280109817 4.509343768011352 0.2027282936971732
      vertex 0.2866136657366436 4.497625802583744 0.0
      vertex 0.2866136657366436 4.497625802583744 0.2027282936971732
    endloop
  endfacet
  facet normal -0.07818539706338185 0.9969388364819787 0.0
    outer loop
      vertex 0.2866136657366436 4.497625802583744 0.2027282936971732
      vertex 0.2866136657366436 4.497625802583744 0.0
      vertex 0.23639918715952132 4.493687708487884 0.0921492224105254
    endloop
  endfacet
  facet normal -0.07818539706338185 0.9969388364819787 0.0
    outer loop
      vertex 0.2866136657366436 4.497625802583744 0.2027282936971732
      vertex 0.23639918715952132 4.493687708487884 0.0921492224105254
      vertex 0.23639918715952132 4.493687708487884 0.2027282936971732
    endloop
  endfacet
  facet normal -0.0 1.0 0.0
    outer loop
      vertex 0.0 4.493687708487884 0.0921492224105254
      vertex 0.23639918715952132 4.493687708487884 0.0921492224105254
      vertex 0.0 4.493687708487884 0.0
    endloop
  endfacet
  facet normal 0.0 1.0 0.0
    outer loop
      vertex 0.0 4.493687708487884 0.0
      vertex 0.23639918715952132 4.493687708487884 0.0921492224105254
      vertex 0.23639918715952132 4.493687708487884 0.0
    endloop
  endfacet
  facet normal -1.0 0.0 0.0
    outer loop
      vertex 0.0 3.506312291512116 0.0921492224105254
      vertex 0.0 4.493687708487884 0.0921492224105254
      vertex 0.0 3.506312291512116 0.0
    endloop
  endfacet
  facet normal -1.0 0.0 0.0
    outer loop
      vertex 0.0 3.506312291512116 0.0
      vertex 0.0 4.493687708487884 0.0921492224105254
      vertex 0.0 4.493687708487884 0.0
    endloop
  endfacet
  facet normal 0.0 0.0 -1.0
    outer loop
      vertex 3.6372898632612563 2.927833230520651 0.0
      vertex 3.6579424477761155 2.7503985922974548 0.0
      vertex 3.6507436412966796 2.5719107959995284 0.0
    endloop
  endfacet
  facet normal 0.0 0.0 -1.0
    outer loop
      vertex 3.4165534145315513 4.588616762024898 0.0
      vertex 3.2960234099182726 4.456774799185719 0.0
      vertex 3.1564525463484245 4.345286627682652 0.0
    endloop
  endfacet
  facet normal 0.0 0.0 -1.0
    outer loop
      vertex 0.5228358618779319 3.331536561058364 0.0
      vertex 0.4963658620532531 3.3743894787539817 0.0
      vertex 2.2209050911150023 4.184822035926628 0.0
    endloop
  endfacet
  facet normal 0.0 -0.0 -1.0
    outer loop
      vertex 0.335600280109817 4.509343768011352 0.0
      vertex 0.3821612211536607 4.528555466361886 0.0
      vertex 0.2866136657366436 3.5023741974162563 0.0
    endloop
  endfacet
  facet normal 0.0 0.0 -1.0
    outer loop
      vertex 2.383555442853893 0.029328659622148784 0.0
      vertex 2.23222724346112 0.0 0.0
      vertex 2.2204228037723692 0.0 0.0
    endloop
  endfacet
  facet normal 0.0 0.0 -1.0
    outer loop
      vertex 3.367473646990887 1.2859151488009803 0.0
      vertex 2.2209050911150023 3.815177964073372 0.0
      vertex 3.479764341819924 1.5276286362855227 0.0
    endloop
  endfacet
  facet normal 0.0 0.0 -1.0
    outer loop
      vertex 3.479764341819924 1.5276286362855227 0.0
      vertex 2.2209050911150023 3.815177964073372 0.0
      vertex 3.6507436412966796 2.5719107959995284 0.0
    endloop
  endfacet
  facet normal 0.0 0.0 -1.0
    outer loop
      vertex 3.479764341819924 1.5276286362855227 0.0
      vertex 3.6507436412966796 2.5719107959995284 0.0
      vertex 3.565083503685724 1.7801267999158281 0.0
    endloop
  endfacet
  facet normal 0.0 0.0 -1.0
    outer loop
      vertex 3.565083503685724 1.7801267999158281 0.0
      vertex 3.6507436412966796 2.5719107959995284 0.0
      vertex 3.6510839139990625 2.305387632080316 0.0
    endloop
  endfacet
  facet normal 0.0 0.0 -1.0
    outer loop
      vertex 3.565083503685724 1.7801267999158281 0.0
      vertex 3.6510839139990625 2.305387632080316 0.0
      vertex 3.6224169933874872 2.04041045922007 0.0
    endloop
  endfacet
  facet normal 0.0 0.0 -1.0
    outer loop
      vertex 2.097712311997025 7.993409677041044 0.0
      vertex 1.4554090946579865 7.483901221259996 0.0
      vertex 1.9774709064422753 7.968045299858069 0.0
    endloop
  endfacet
  facet normal 0.0 0.0 -1.0
    outer loop
      vertex 1.9774709064422753 7.968045299858069 0.0
      vertex 1.4554090946579865 7.483901221259996 0.0
      vertex 1.50746993931906 7.59521609271939 0.0
    endloop
  endfacet
  facet normal 0.0 0.0 -1.0
    outer loop
      vertex 1.9774709064422753 7.968045299858069 0.0
      vertex 1.50746993931906 7.59521609271939 0.0
      vertex 1.862553643811376 7.924509376107979 0.0
    endloop
  endfacet
  facet normal 0.0 0.0 -1.0
    outer loop
      vertex 1.862553643811376 7.924509376107979 0.0
      vertex 1.50746993931906 7.59521609271939 0.0
      vertex 1.5760137975659516 7.6972114291730325 0.0
    endloop
  endfacet
  facet normal 0.0 0.0 -1.0
    outer loop
      vertex 1.862553643811376 7.924509376107979 0.0
      vertex 1.5760137975659516 7.6972114291730325 0.0
      vertex 1.7556886815869626 7.863836081710619 0.0
    endloop
  endfacet
  facet normal 0.0 0.0 -1.0
    outer loop
      vertex 1.7556886815869626 7.863836081710619 0.0
      vertex 1.5760137975659516 7.6972114291730325 0.0
      vertex 1.6594134768993547 7.787465951308927 0.0
    endloop
  endfacet
  facet normal 0.0 0.0 -1.0
    outer loop
      vertex 0.2866136657366436 3.5023741974162563 0.0
      vertex 0.3821612211536607 4.528555466361886 0.0
      vertex 0.335600280109817 3.4906562319886483 0.0
    endloop
  endfacet
  facet normal 0.0 -0.0 -1.0
    outer loop
      vertex 0.46353894947042645 4.587408231497221 0.0
      vertex 0.4963658620532531 4.625610521246019 0.0
      vertex 0.3821612211536607 3.4714441821167275 0.0
    endloop
  endfacet
  facet normal 0.0 0.0 -1.0
    outer loop
      vertex 0.3821612211536607 3.4714441821167275 0.0
      vertex 0.4963658620532531 4.625610521246019 0.0
      vertex 0.5228358618779319 4.668463087420249 0.0
    endloop
  endfacet
  facet normal -0.0 0.0 -1.0
    outer loop
      vertex 2.383555442853893 0.029328659622148784 0.0
      vertex 2.2204228037723692 0.0 0.0
      vertex 2.952696338206108 0.5150029108167832 0.0
    endloop
  endfacet
  facet normal 0.0 0.0 -1.0
    outer loop
      vertex 2.952696338206108 0.5150029108167832 0.0
      vertex 2.2204228037723692 0.0 0.0
      vertex 2.097712311997025 0.006590674480342638 0.0
    endloop
  endfacet
  facet normal 0.0 0.0 -1.0
    outer loop
      vertex 2.952696338206108 0.5150029108167832 0.0
      vertex 2.097712311997025 0.006590674480342638 0.0
      vertex 1.9774709064422753 0.031954788022277844 0.0
    endloop
  endfacet
  facet normal 0.0 0.0 -1.0
    outer loop
      vertex 1.4554090946579865 0.5160986029793108 0.0
      vertex 2.952696338206108 0.5150029108167832 0.0
      vertex 1.50746993931906 0.40478373151991653 0.0
    endloop
  endfacet
  facet normal 0.0 0.0 -1.0
    outer loop
      vertex 1.50746993931906 0.40478373151991653 0.0
      vertex 2.952696338206108 0.5150029108167832 0.0
      vertex 1.9774709064422753 0.031954788022277844 0.0
    endloop
  endfacet
  facet normal 0.0 0.0 -1.0
    outer loop
      vertex 1.50746993931906 0.40478373151991653 0.0
      vertex 1.9774709064422753 0.031954788022277844 0.0
      vertex 1.5760137975659516 0.30278830718592764 0.0
    endloop
  endfacet
  facet normal 0.0 0.0 -1.0
    outer loop
      vertex 1.5760137975659516 0.30278830718592764 0.0
      vertex 1.9774709064422753 0.031954788022277844 0.0
      vertex 1.862553643811376 0.07549062389202106 0.0
    endloop
  endfacet
  facet normal 0.0 0.0 -1.0
    outer loop
      vertex 1.5760137975659516 0.30278830718592764 0.0
      vertex 1.862553643811376 0.07549062389202106 0.0
      vertex 1.6594134768993547 0.21253413657141945 0.0
    endloop
  endfacet
  facet normal 0.0 0.0 -1.0
    outer loop
      vertex 1.6594134768993547 0.21253413657141945 0.0
      vertex 1.862553643811376 0.07549062389202106 0.0
      vertex 1.7556886815869626 0.13616374252868754 0.0
    endloop
  endfacet
  facet normal 0.0 0.0 -1.0
    outer loop
      vertex 2.2204228037723692 8.0 0.0
      vertex 2.23222724346112 8.0 0.0
      vertex 2.383555442853893 7.9706711646171575 0.0
    endloop
  endfacet
  facet normal 0.0 0.0 -1.0
    outer loop
      vertex 2.2204228037723692 8.0 0.0
      vertex 2.383555442853893 7.9706711646171575 0.0
      vertex 2.952696338206108 7.48499726494391 0.0
    endloop
  endfacet
  facet normal 0.0 0.0 -1.0
    outer loop
      vertex 2.952696338206108 7.48499726494391 0.0
      vertex 2.383555442853893 7.9706711646171575 0.0
      vertex 2.527649683628555 7.915922411672232 0.0
    endloop
  endfacet
  facet normal 0.0 0.0 -1.0
    outer loop
      vertex 2.952696338206108 7.48499726494391 0.0
      vertex 2.527649683628555 7.915922411672232 0.0
      vertex 2.8759673044685354 7.618687878756056 0.0
    endloop
  endfacet
  facet normal 0.0 0.0 -1.0
    outer loop
      vertex 2.8759673044685354 7.618687878756056 0.0
      vertex 2.527649683628555 7.915922411672232 0.0
      vertex 2.6602737815532738 7.837364412159353 0.0
    endloop
  endfacet
  facet normal 0.0 0.0 -1.0
    outer loop
      vertex 2.8759673044685354 7.618687878756056 0.0
      vertex 2.6602737815532738 7.837364412159353 0.0
      vertex 2.777528309884733 7.737305958546752 0.0
    endloop
  endfacet
  facet normal 0.0 -0.0 -1.0
    outer loop
      vertex 2.952696338206108 7.48499726494391 0.0
      vertex 3.367473646990887 6.714084851199019 0.0
      vertex 2.2209050911150023 4.184822035926628 0.0
    endloop
  endfacet
  facet normal 0.0 0.0 -1.0
    outer loop
      vertex 2.2209050911150023 4.184822035926628 0.0
      vertex 3.367473646990887 6.714084851199019 0.0
      vertex 3.479764341819924 6.472371012193091 0.0
    endloop
  endfacet
  facet normal 0.0 0.0 -1.0
    outer loop
      vertex 2.2209050911150023 4.184822035926628 0.0
      vertex 3.479764341819924 6.472371012193091 0.0
      vertex 3.565083503685724 6.219873200084172 0.0
    endloop
  endfacet
  facet normal -0.0 0.0 -1.0
    outer loop
      vertex 3.4165534145315513 4.588616762024898 0.0
      vertex 3.1564525463484245 4.345286627682652 0.0
      vertex 3.5151084111729842 4.737602071374924 0.0
    endloop
  endfacet
  facet normal 0.0 0.0 -1.0
    outer loop
      vertex 3.5151084111729842 4.737602071374924 0.0
      vertex 3.1564525463484245 4.345286627682652 0.0
      vertex 3.0012386295464184 4.2568652895787045 0.0
    endloop
  endfacet
  facet normal -0.0 0.0 -1.0
    outer loop
      vertex 3.5151084111729842 4.737602071374924 0.0
      vertex 3.0012386295464184 4.2568652895787045 0.0
      vertex 3.5892896178993285 4.900103729567215 0.0
    endloop
  endfacet
  facet normal 0.0 0.0 -1.0
    outer loop
      vertex 3.5892896178993285 4.900103729567215 0.0
      vertex 3.0012386295464184 4.2568652895787045 0.0
      vertex 2.834160162898526 4.193663501846388 0.0
    endloop
  endfacet
  facet normal -0.0 0.0 -1.0
    outer loop
      vertex 3.5892896178993285 4.900103729567215 0.0
      vertex 2.834160162898526 4.193663501846388 0.0
      vertex 3.6372898632612563 5.072166417957962 0.0
    endloop
  endfacet
  facet normal 0.0 0.0 -1.0
    outer loop
      vertex 3.6372898632612563 5.072166417957962 0.0
      vertex 2.834160162898526 4.193663501846388 0.0
      vertex 2.630445785801234 4.168869995395509 0.0
    endloop
  endfacet
  facet normal -0.0 0.0 -1.0
    outer loop
      vertex 3.6372898632612563 5.072166417957962 0.0
      vertex 2.630445785801234 4.168869995395509 0.0
      vertex 3.6579424477761155 5.249601759223932 0.0
    endloop
  endfacet
  facet normal 0.0 0.0 -1.0
    outer loop
      vertex 3.6579424477761155 5.249601759223932 0.0
      vertex 2.630445785801234 4.168869995395509 0.0
      vertex 2.425249746058753 4.165911591404546 0.0
    endloop
  endfacet
  facet normal -0.0 0.0 -1.0
    outer loop
      vertex 3.6579424477761155 5.249601759223932 0.0
      vertex 2.425249746058753 4.165911591404546 0.0
      vertex 3.6507436412966796 5.4280888524790845 0.0
    endloop
  endfacet
  facet normal 0.0 0.0 -1.0
    outer loop
      vertex 3.6507436412966796 5.4280888524790845 0.0
      vertex 2.425249746058753 4.165911591404546 0.0
      vertex 2.2209050911150023 4.184822035926628 0.0
    endloop
  endfacet
  facet normal -0.0 0.0 -1.0
    outer loop
      vertex 3.6507436412966796 5.4280888524790845 0.0
      vertex 2.2209050911150023 4.184822035926628 0.0
      vertex 3.6510839139990625 5.694612367919683 0.0
    endloop
  endfacet
  facet normal -0.0 0.0 -1.0
    outer loop
      vertex 3.6510839139990625 5.694612367919683 0.0
      vertex 2.2209050911150023 4.184822035926628 0.0
      vertex 3.565083503685724 6.219873200084172 0.0
    endloop
  endfacet
  facet normal 0.0 0.0 -1.0
    outer loop
      vertex 3.6510839139990625 5.694612367919683 0.0
      vertex 3.565083503685724 6.219873200084172 0.0
      vertex 3.6224169933874872 5.959589189258543 0.0
    endloop
  endfacet
  facet normal 0.0 0.0 -1.0
    outer loop
      vertex 0.5228358618779319 3.331536561058364 0.0
      vertex 2.2209050911150023 4.184822035926628 0.0
      vertex 0.5423017101910927 3.2850816037126283 0.0
    endloop
  endfacet
  facet normal 0.0 0.0 -1.0
    outer loop
      vertex 0.5423017101910927 3.2850816037126283 0.0
      vertex 2.2209050911150023 4.184822035926628 0.0
      vertex 2.2209050911150023 3.815177964073372 0.0
    endloop
  endfacet
  facet normal 0.0 0.0 -1.0
    outer loop
      vertex 0.5423017101910927 3.2850816037126283 0.0
      vertex 2.2209050911150023 3.815177964073372 0.0
      vertex 1.4554090946579865 0.5160986029793108 0.0
    endloop
  endfacet
  facet normal 0.0 0.0 -1.0
    outer loop
      vertex 1.4554090946579865 0.5160986029793108 0.0
      vertex 2.2209050911150023 3.815177964073372 0.0
      vertex 3.367473646990887 1.2859151488009803 0.0
    endloop
  endfacet
  facet normal 0.0 0.0 -1.0
    outer loop
      vertex 1.4554090946579865 0.5160986029793108 0.0
      vertex 3.367473646990887 1.2859151488009803 0.0
      vertex 2.952696338206108 0.5150029108167832 0.0
    endloop
  endfacet
  facet normal 0.0 0.0 -1.0
    outer loop
      vertex 0.4963658620532531 3.3743894787539817 0.0
      vertex 0.46353894947042645 3.4125917685027787 0.0
      vertex 2.2209050911150023 4.184822035926628 0.0
    endloop
  endfacet
  facet normal -0.0 0.0 -1.0
    outer loop
      vertex 2.2209050911150023 4.184822035926628 0.0
      vertex 0.46353894947042645 3.4125917685027787 0.0
      vertex 1.4554090946579865 7.483901221259996 0.0
    endloop
  endfacet
  facet normal 0.0 0.0 -1.0
    outer loop
      vertex 2.2209050911150023 4.184822035926628 0.0
      vertex 1.4554090946579865 7.483901221259996 0.0
      vertex 2.952696338206108 7.48499726494391 0.0
    endloop
  endfacet
  facet normal -0.0 0.0 -1.0
    outer loop
      vertex 2.952696338206108 7.48499726494391 0.0
      vertex 1.4554090946579865 7.483901221259996 0.0
      vertex 2.097712311997025 7.993409677041044 0.0
    endloop
  endfacet
  facet normal 0.0 0.0 -1.0
    outer loop
      vertex 2.952696338206108 7.48499726494391 0.0
      vertex 2.097712311997025 7.993409677041044 0.0
      vertex 2.2204228037723692 8.0 0.0
    endloop
  endfacet
  facet normal 0.0 0.0 -1.0
    outer loop
      vertex 0.335600280109817 3.4906562319886483 0.0
      vertex 0.3821612211536607 4.528555466361886 0.0
      vertex 0.3821612211536607 3.4714441821167275 0.0
    endloop
  endfacet
  facet normal 0.0 0.0 -1.0
    outer loop
      vertex 0.3821612211536607 3.4714441821167275 0.0
      vertex 0.3821612211536607 4.528555466361886 0.0
      vertex 0.42515791109646245 4.554790913541249 0.0
    endloop
  endfacet
  facet normal 0.0 0.0 -1.0
    outer loop
      vertex 0.3821612211536607 3.4714441821167275 0.0
      vertex 0.42515791109646245 4.554790913541249 0.0
      vertex 0.46353894947042645 4.587408231497221 0.0
    endloop
  endfacet
  facet normal 0.0 0.0 -1.0
    outer loop
      vertex 0.46353894947042645 3.4125917685027787 0.0
      vertex 0.42515791109646245 3.44520908645875 0.0
      vertex 1.4554090946579865 7.483901221259996 0.0
    endloop
  endfacet
  facet normal 0.0 0.0 -1.0
    outer loop
      vertex 1.4554090946579865 7.483901221259996 0.0
      vertex 0.42515791109646245 3.44520908645875 0.0
      vertex 0.3821612211536607 3.4714441821167275 0.0
    endloop
  endfacet
  facet normal 0.0 0.0 -1.0
    outer loop
      vertex 1.4554090946579865 7.483901221259996 0.0
      vertex 0.3821612211536607 3.4714441821167275 0.0
      vertex 0.5423017101910927 4.714918396287372 0.0
    endloop
  endfacet
  facet normal 0.0 0.0 -1.0
    outer loop
      vertex 0.5423017101910927 4.714918396287372 0.0
      vertex 0.3821612211536607 3.4714441821167275 0.0
      vertex 0.5228358618779319 4.668463087420249 0.0
    endloop
  endfacet
  facet normal 0.0 0.0 -1.0
    outer loop
      vertex 2.2209050911150023 3.815177964073372 0.0
      vertex 2.425249746058753 3.834088408595454 0.0
      vertex 3.6507436412966796 2.5719107959995284 0.0
    endloop
  endfacet
  facet normal 0.0 0.0 -1.0
    outer loop
      vertex 3.6507436412966796 2.5719107959995284 0.0
      vertex 2.425249746058753 3.834088408595454 0.0
      vertex 2.630445785801234 3.831130004604491 0.0
    endloop
  endfacet
  facet normal 0.0 0.0 -1.0
    outer loop
      vertex 3.6507436412966796 2.5719107959995284 0.0
      vertex 2.630445785801234 3.831130004604491 0.0
      vertex 3.6372898632612563 2.927833230520651 0.0
    endloop
  endfacet
  facet normal 0.0 0.0 -1.0
    outer loop
      vertex 3.6372898632612563 2.927833230520651 0.0
      vertex 2.630445785801234 3.831130004604491 0.0
      vertex 3.5151084111729842 3.2623979286250764 0.0
    endloop
  endfacet
  facet normal 0.0 0.0 -1.0
    outer loop
      vertex 3.6372898632612563 2.927833230520651 0.0
      vertex 3.5151084111729842 3.2623979286250764 0.0
      vertex 3.5892896178993285 3.099896270432785 0.0
    endloop
  endfacet
  facet normal -0.0 0.0 -1.0
    outer loop
      vertex 2.527649683628555 0.08407714892603406 0.0
      vertex 2.383555442853893 0.029328659622148784 0.0
      vertex 2.6602737815532738 0.16263523631926 0.0
    endloop
  endfacet
  facet normal -0.0 0.0 -1.0
    outer loop
      vertex 2.6602737815532738 0.16263523631926 0.0
      vertex 2.383555442853893 0.029328659622148784 0.0
      vertex 2.952696338206108 0.5150029108167832 0.0
    endloop
  endfacet
  facet normal 0.0 0.0 -1.0
    outer loop
      vertex 2.6602737815532738 0.16263523631926 0.0
      vertex 2.952696338206108 0.5150029108167832 0.0
      vertex 2.777528309884733 0.2626942172139408 0.0
    endloop
  endfacet
  facet normal 0.0 0.0 -1.0
    outer loop
      vertex 2.777528309884733 0.2626942172139408 0.0
      vertex 2.952696338206108 0.5150029108167832 0.0
      vertex 2.8759673044685354 0.3813124727653313 0.0
    endloop
  endfacet
  facet normal 0.0 0.0 -1.0
    outer loop
      vertex 2.630445785801234 3.831130004604491 0.0
      vertex 2.834160162898526 3.806336498153612 0.0
      vertex 3.5151084111729842 3.2623979286250764 0.0
    endloop
  endfacet
  facet normal 0.0 0.0 -1.0
    outer loop
      vertex 3.5151084111729842 3.2623979286250764 0.0
      vertex 2.834160162898526 3.806336498153612 0.0
      vertex 3.0012386295464184 3.7431347104212955 0.0
    endloop
  endfacet
  facet normal 0.0 0.0 -1.0
    outer loop
      vertex 3.5151084111729842 3.2623979286250764 0.0
      vertex 3.0012386295464184 3.7431347104212955 0.0
      vertex 3.4165534145315513 3.4113832379751017 0.0
    endloop
  endfacet
  facet normal 0.0 0.0 -1.0
    outer loop
      vertex 3.4165534145315513 3.4113832379751017 0.0
      vertex 3.0012386295464184 3.7431347104212955 0.0
      vertex 3.1564525463484245 3.654713372317348 0.0
    endloop
  endfacet
  facet normal 0.0 0.0 -1.0
    outer loop
      vertex 3.4165534145315513 3.4113832379751017 0.0
      vertex 3.1564525463484245 3.654713372317348 0.0
      vertex 3.2960234099182726 3.5432252008142817 0.0
    endloop
  endfacet
  facet normal 0.0 0.0 -1.0
    outer loop
      vertex 0.0 3.506312291512116 0.0
      vertex 0.0 4.493687708487884 0.0
      vertex 0.23639918715952132 3.506312291512116 0.0
    endloop
  endfacet
  facet normal 0.0 0.0 -1.0
    outer loop
      vertex 0.23639918715952132 3.506312291512116 0.0
      vertex 0.0 4.493687708487884 0.0
      vertex 0.23639918715952132 4.493687708487884 0.0
    endloop
  endfacet
  facet normal 0.0 0.0 -1.0
    outer loop
      vertex 0.23639918715952132 3.506312291512116 0.0
      vertex 0.23639918715952132 4.493687708487884 0.0
      vertex 0.2866136657366436 3.5023741974162563 0.0
    endloop
  endfacet
  facet normal 0.0 0.0 -1.0
    outer loop
      vertex 0.2866136657366436 3.5023741974162563 0.0
      vertex 0.23639918715952132 4.493687708487884 0.0
      vertex 0.2866136657366436 4.497625802583744 0.0
    endloop
  endfacet
  facet normal 0.0 0.0 -1.0
    outer loop
      vertex 0.2866136657366436 3.5023741974162563 0.0
      vertex 0.2866136657366436 4.497625802583744 0.0
      vertex 0.335600280109817 4.509343768011352 0.0
    endloop
  endfacet
  facet normal -0.0 -1.0 -0.0
    outer loop
      vertex 0.23639918715952132 3.506312291512116 0.0921492224105254
      vertex 0.0 3.506312291512116 0.0921492224105254
      vertex 0.23639918715952132 3.506312291512116 0.0
    endloop
  endfacet
  facet normal 0.0 -1.0 0.0
    outer loop
      vertex 0.23639918715952132 3.506312291512116 0.0
      vertex 0.0 3.506312291512116 0.0921492224105254
      vertex 0.0 3.506312291512116 0.0
    endloop
  endfacet
  facet normal -0.07818539706338183 -0.9969388364819786 -0.0
    outer loop
      vertex 0.23639918715952132 3.506312291512116 0.0921492224105254
      vertex 0.23639918715952132 3.506312291512116 0.0
      vertex 0.2866136657366436 3.5023741974162563 0.0
    endloop
  endfacet
  facet normal -0.07818539706338185 -0.9969388364819787 0.0
    outer loop
      vertex 0.2866136657366436 3.5023741974162563 0.2027282936971732
      vertex 0.23639918715952132 3.506312291512116 0.2027282936971732
      vertex 0.23639918715952132 3.506312291512116 0.0921492224105254
    endloop
  endfacet
  facet normal -0.07818539706338185 -0.9969388364819787 0.0
    outer loop
      vertex 0.23639918715952132 3.506312291512116 0.0921492224105254
      vertex 0.2866136657366436 3.5023741974162563 0.0
      vertex 0.2866136657366436 3.5023741974162563 0.2027282936971732
    endloop
  endfacet
  facet normal -0.2326441067526697 -0.9725619361219379 -0.0
    outer loop
      vertex 0.2866136657366436 3.5023741974162563 0.2027282936971732
      vertex 0.2866136657366436 3.5023741974162563 0.0
      vertex 0.335600280109817 3.4906562319886483 0.0
    endloop
  endfacet
  facet normal -0.2326441067526697 -0.9725619361219379 0.0
    outer loop
      vertex 0.2866136657366436 3.5023741974162563 0.2027282936971732
      vertex 0.335600280109817 3.4906562319886483 0.0
      vertex 0.335600280109817 3.4906562319886483 0.2027282936971732
    endloop
  endfacet
  facet normal -0.3814269803310958 -0.9243989715893791 -0.0
    outer loop
      vertex 0.335600280109817 3.4906562319886483 0.2027282936971732
      vertex 0.335600280109817 3.4906562319886483 0.0
      vertex 0.3821612211536607 3.4714441821167275 0.0
    endloop
  endfacet
  facet normal -0.3814269803310958 -0.9243989715893791 0.0
    outer loop
      vertex 0.335600280109817 3.4906562319886483 0.2027282936971732
      vertex 0.3821612211536607 3.4714441821167275 0.0
      vertex 0.3821612211536607 3.4714441821167275 0.2027282936971732
    endloop
  endfacet
  facet normal -0.5208621459339531 -0.8536408055693432 -0.0
    outer loop
      vertex 0.3821612211536607 3.4714441821167275 0.2027282936971732
      vertex 0.3821612211536607 3.4714441821167275 0.0
      vertex 0.42515791109646245 3.44520908645875 0.0
    endloop
  endfacet
  facet normal -0.5208621459339531 -0.8536408055693432 0.0
    outer loop
      vertex 0.3821612211536607 3.4714441821167275 0.2027282936971732
      vertex 0.42515791109646245 3.44520908645875 0.0
      vertex 0.42515791109646245 3.44520908645875 0.2027282936971732
    endloop
  endfacet
  facet normal -0.6475727521781075 -0.7620036290179145 -0.0
    outer loop
      vertex 0.42515791109646245 3.44520908645875 0.2027282936971732
      vertex 0.42515791109646245 3.44520908645875 0.0
      vertex 0.46353894947042645 3.4125917685027787 0.0
    endloop
  endfacet
  facet normal -0.6475727521781075 -0.7620036290179145 0.0
    outer loop
      vertex 0.42515791109646245 3.44520908645875 0.2027282936971732
      vertex 0.46353894947042645 3.4125917685027787 0.0
      vertex 0.46353894947042645 3.4125917685027787 0.2027282936971732
    endloop
  endfacet
  facet normal -0.7584506919568276 -0.6517304257668269 -0.0
    outer loop
      vertex 0.46353894947042645 3.4125917685027787 0.2027282936971732
      vertex 0.46353894947042645 3.4125917685027787 0.0
      vertex 0.4963658620532531 3.3743894787539817 0.0
    endloop
  endfacet
  facet normal -0.7584506919568276 -0.6517304257668269 0.0
    outer loop
      vertex 0.46353894947042645 3.4125917685027787 0.2027282936971732
      vertex 0.4963658620532531 3.3743894787539817 0.0
      vertex 0.4963658620532531 3.3743894787539817 0.2027282936971732
    endloop
  endfacet
  facet normal -0.8507800557332705 -0.5255219279597122 -0.0
    outer loop
      vertex 0.4963658620532531 3.3743894787539817 0.2027282936971732
      vertex 0.4963658620532531 3.3743894787539817 0.0
      vertex 0.5228358618779319 3.331536561058364 0.0
    endloop
  endfacet
  facet normal -0.8507800557332705 -0.5255219279597122 0.0
    outer loop
      vertex 0.4963658620532531 3.3743894787539817 0.2027282936971732
      vertex 0.5228358618779319 3.331536561058364 0.0
      vertex 0.5228358618779319 3.331536561058364 0.2027282936971732
    endloop
  endfacet
  facet normal -0.9223024152863585 -0.38646895704176476 -0.0
    outer loop
      vertex 0.5228358618779319 3.331536561058364 0.2027282936971732
      vertex 0.5228358618779319 3.331536561058364 0.0
      vertex 0.5423017101910927 3.2850816037126283 0.0
    endloop
  endfacet
  facet normal -0.9223024152863585 -0.38646895704176476 0.0
    outer loop
      vertex 0.5228358618779319 3.331536561058364 0.2027282936971732
      vertex 0.5423017101910927 3.2850816037126283 0.0
      vertex 0.5423017101910927 3.2850816037126283 0.2027282936971732
    endloop
  endfacet
  facet normal -0.9496956860282489 -0.3131742389458839 -0.0
    outer loop
      vertex 1.4554090946579865 0.5160986029793108 0.2027282936971732
      vertex 0.5423017101910927 3.2850816037126283 0.2027282936971732
      vertex 1.4554090946579865 0.5160986029793108 0.0
    endloop
  endfacet
  facet normal -0.9496956860282489 -0.3131742389458839 0.0
    outer loop
      vertex 1.4554090946579865 0.5160986029793108 0.0
      vertex 0.5423017101910927 3.2850816037126283 0.2027282936971732
      vertex 0.5423017101910927 3.2850816037126283 0.0
    endloop
  endfacet
  facet normal -0.9058276206722 -0.4236464582967041 -0.0
    outer loop
      vertex 1.4554090946579865 0.5160986029793108 0.2027282936971732
      vertex 1.4554090946579865 0.5160986029793108 0.0
      vertex 1.50746993931906 0.40478373151991653 0.0
    endloop
  endfacet
  facet normal -0.9058276206722 -0.4236464582967041 0.0
    outer loop
      vertex 1.4554090946579865 0.5160986029793108 0.2027282936971732
      vertex 1.50746993931906 0.40478373151991653 0.0
      vertex 1.50746993931906 0.40478373151991653 0.2027282936971732
    endloop
  endfacet
  facet normal -0.8299905199621352 -0.5577774975498601 -0.0
    outer loop
      vertex 1.50746993931906 0.40478373151991653 0.2027282936971732
      vertex 1.50746993931906 0.40478373151991653 0.0
      vertex 1.5760137975659516 0.30278830718592764 0.0
    endloop
  endfacet
  facet normal -0.8299905199621352 -0.5577774975498601 0.0
    outer loop
      vertex 1.50746993931906 0.40478373151991653 0.2027282936971732
      vertex 1.5760137975659516 0.30278830718592764 0.0
      vertex 1.5760137975659516 0.30278830718592764 0.2027282936971732
    endloop
  endfacet
  facet normal -0.7344458787032756 -0.6786672610755387 -0.0
    outer loop
      vertex 1.5760137975659516 0.30278830718592764 0.2027282936971732
      vertex 1.5760137975659516 0.30278830718592764 0.0
      vertex 1.6594134768993547 0.21253413657141945 0.0
    endloop
  endfacet
  facet normal -0.7344458787032756 -0.6786672610755387 0.0
    outer loop
      vertex 1.5760137975659516 0.30278830718592764 0.2027282936971732
      vertex 1.6594134768993547 0.21253413657141945 0.0
      vertex 1.6594134768993547 0.21253413657141945 0.2027282936971732
    endloop
  endfacet
  facet normal -0.6214656288063882 -0.7834414287056055 -0.0
    outer loop
      vertex 1.6594134768993547 0.21253413657141945 0.2027282936971732
      vertex 1.6594134768993547 0.21253413657141945 0.0
      vertex 1.7556886815869626 0.13616374252868754 0.0
    endloop
  endfacet
  facet normal -0.6214656288063882 -0.7834414287056055 0.0
    outer loop
      vertex 1.6594134768993547 0.21253413657141945 0.2027282936971732
      vertex 1.7556886815869626 0.13616374252868754 0.0
      vertex 1.7556886815869626 0.13616374252868754 0.2027282936971732
    endloop
  endfacet
  facet normal -0.4937288081331757 -0.8696159290280933 -0.0
    outer loop
      vertex 1.7556886815869626 0.13616374252868754 0.2027282936971732
      vertex 1.7556886815869626 0.13616374252868754 0.0
      vertex 1.862553643811376 0.07549062389202106 0.0
    endloop
  endfacet
  facet normal -0.4937288081331757 -0.8696159290280933 0.0
    outer loop
      vertex 1.7556886815869626 0.13616374252868754 0.2027282936971732
      vertex 1.862553643811376 0.07549062389202106 0.0
      vertex 1.862553643811376 0.07549062389202106 0.2027282936971732
    endloop
  endfacet
  facet normal -0.35427381527306345 -0.9351417346113193 -0.0
    outer loop
      vertex 1.862553643811376 0.07549062389202106 0.2027282936971732
      vertex 1.862553643811376 0.07549062389202106 0.0
      vertex 1.9774709064422753 0.031954788022277844 0.0
    endloop
  endfacet
  facet normal -0.35427381527306345 -0.9351417346113193 0.0
    outer loop
      vertex 1.862553643811376 0.07549062389202106 0.2027282936971732
      vertex 1.9774709064422753 0.031954788022277844 0.0
      vertex 1.9774709064422753 0.031954788022277844 0.2027282936971732
    endloop
  endfacet
  facet normal -0.20640111260587093 -0.978467465332935 -0.0
    outer loop
      vertex 1.9774709064422753 0.031954788022277844 0.2027282936971732
      vertex 1.9774709064422753 0.031954788022277844 0.0
      vertex 2.097712311997025 0.006590674480342638 0.0
    endloop
  endfacet
  facet normal -0.20640111260587093 -0.978467465332935 0.0
    outer loop
      vertex 1.9774709064422753 0.031954788022277844 0.2027282936971732
      vertex 2.097712311997025 0.006590674480342638 0.0
      vertex 2.097712311997025 0.006590674480342638 0.2027282936971732
    endloop
  endfacet
  facet normal -0.05363183650644256 -0.9985607773755918 -0.0
    outer loop
      vertex 2.097712311997025 0.006590674480342638 0.2027282936971732
      vertex 2.097712311997025 0.006590674480342638 0.0
      vertex 2.2204228037723692 0.0 0.0
    endloop
  endfacet
  facet normal -0.05363183650644256 -0.9985607773755918 0.0
    outer loop
      vertex 2.097712311997025 0.006590674480342638 0.2027282936971732
      vertex 2.2204228037723692 0.0 0.0
      vertex 2.2204228037723692 0.0 0.2027282936971732
    endloop
  endfacet
  facet normal -0.0 -1.0 -0.0
    outer loop
      vertex 2.23222724346112 0.0 0.2027282936971732
      vertex 2.2204228037723692 0.0 0.2027282936971732
      vertex 2.23222724346112 0.0 0.0
    endloop
  endfacet
  facet normal 0.0 -1.0 0.0
    outer loop
      vertex 2.23222724346112 0.0 0.0
      vertex 2.2204228037723692 0.0 0.2027282936971732
      vertex 2.2204228037723692 0.0 0.0
    endloop
  endfacet
  facet normal 0.19026784286747828 -0.9817322180567146 0.0
    outer loop
      vertex 2.23222724346112 0.0 0.2027282936971732
      vertex 2.23222724346112 0.0 0.0
      vertex 2.383555442853893 0.029328659622148784 0.0
    endloop
  endfacet
  facet normal 0.19026784286747828 -0.9817322180567146 0.0
    outer loop
      vertex 2.23222724346112 0.0 0.2027282936971732
      vertex 2.383555442853893 0.029328659622148784 0.0
      vertex 2.383555442853893 0.029328659622148784 0.2027282936971732
    endloop
  endfacet
  facet normal 0.35517625197273067 -0.9347993528210229 0.0
    outer loop
      vertex 2.383555442853893 0.029328659622148784 0.2027282936971732
      vertex 2.383555442853893 0.029328659622148784 0.0
      vertex 2.527649683628555 0.08407714892603406 0.0
    endloop
  endfacet
  facet normal 0.35517625197273067 -0.9347993528210229 0.0
    outer loop
      vertex 2.383555442853893 0.029328659622148784 0.2027282936971732
      vertex 2.527649683628555 0.08407714892603406 0.0
      vertex 2.527649683628555 0.08407714892603406 0.2027282936971732
    endloop
  endfacet
  facet normal 0.5096392762545241 -0.8603881729189243 0.0
    outer loop
      vertex 2.527649683628555 0.08407714892603406 0.2027282936971732
      vertex 2.527649683628555 0.08407714892603406 0.0
      vertex 2.6602737815532738 0.16263523631926 0.0
    endloop
  endfacet
  facet normal 0.5096392762545241 -0.8603881729189243 0.0
    outer loop
      vertex 2.527649683628555 0.08407714892603406 0.2027282936971732
      vertex 2.6602737815532738 0.16263523631926 0.0
      vertex 2.6602737815532738 0.16263523631926 0.2027282936971732
    endloop
  endfacet
  facet normal 0.6491259653487007 -0.760680932526981 0.0
    outer loop
      vertex 2.6602737815532738 0.16263523631926 0.2027282936971732
      vertex 2.6602737815532738 0.16263523631926 0.0
      vertex 2.777528309884733 0.2626942172139408 0.0
    endloop
  endfacet
  facet normal 0.6491259653487007 -0.760680932526981 0.0
    outer loop
      vertex 2.6602737815532738 0.16263523631926 0.2027282936971732
      vertex 2.777528309884733 0.2626942172139408 0.0
      vertex 2.777528309884733 0.2626942172139408 0.2027282936971732
    endloop
  endfacet
  facet normal 0.769526368035074 -0.6386150396747228 0.0
    outer loop
      vertex 2.777528309884733 0.2626942172139408 0.2027282936971732
      vertex 2.777528309884733 0.2626942172139408 0.0
      vertex 2.8759673044685354 0.3813124727653313 0.0
    endloop
  endfacet
  facet normal 0.769526368035074 -0.6386150396747228 0.0
    outer loop
      vertex 2.777528309884733 0.2626942172139408 0.2027282936971732
      vertex 2.8759673044685354 0.3813124727653313 0.0
      vertex 2.8759673044685354 0.3813124727653313 0.2027282936971732
    endloop
  endfacet
  facet normal 0.8673068192692232 -0.4977739258429505 0.0
    outer loop
      vertex 2.8759673044685354 0.3813124727653313 0.2027282936971732
      vertex 2.8759673044685354 0.3813124727653313 0.0
      vertex 2.952696338206108 0.5150029108167832 0.0
    endloop
  endfacet
  facet normal 0.8673068192692232 -0.4977739258429505 0.0
    outer loop
      vertex 2.8759673044685354 0.3813124727653313 0.2027282936971732
      vertex 2.952696338206108 0.5150029108167832 0.0
      vertex 2.952696338206108 0.5150029108167832 0.2027282936971732
    endloop
  endfacet
  facet normal 0.8806280658681582 -0.4738081991748421 0.0
    outer loop
      vertex 3.367473646990887 1.2859151488009803 0.2027282936971732
      vertex 2.952696338206108 0.5150029108167832 0.2027282936971732
      vertex 3.367473646990887 1.2859151488009803 0.0
    endloop
  endfacet
  facet normal 0.8806280658681582 -0.4738081991748421 0.0
    outer loop
      vertex 3.367473646990887 1.2859151488009803 0.0
      vertex 2.952696338206108 0.5150029108167832 0.2027282936971732
      vertex 2.952696338206108 0.5150029108167832 0.0
    endloop
  endfacet
  facet normal 0.9069135355820764 -0.421316791711436 0.0
    outer loop
      vertex 3.367473646990887 1.2859151488009803 0.2027282936971732
      vertex 3.367473646990887 1.2859151488009803 0.0
      vertex 3.479764341819924 1.5276286362855227 0.0
    endloop
  endfacet
  facet normal 0.9069135355820764 -0.421316791711436 0.0
    outer loop
      vertex 3.367473646990887 1.2859151488009803 0.2027282936971732
      vertex 3.479764341819924 1.5276286362855227 0.0
      vertex 3.479764341819924 1.5276286362855227 0.2027282936971732
    endloop
  endfacet
  facet normal 0.9473773635566973 -0.32011893261780294 0.0
    outer loop
      vertex 3.479764341819924 1.5276286362855227 0.2027282936971732
      vertex 3.479764341819924 1.5276286362855227 0.0
      vertex 3.565083503685724 1.7801267999158281 0.0
    endloop
  endfacet
  facet normal 0.9473773635566973 -0.32011893261780294 0.0
    outer loop
      vertex 3.479764341819924 1.5276286362855227 0.2027282936971732
      vertex 3.565083503685724 1.7801267999158281 0.0
      vertex 3.565083503685724 1.7801267999158281 0.2027282936971732
    endloop
  endfacet
  facet normal 0.976588466032606 -0.2151161732926692 0.0
    outer loop
      vertex 3.565083503685724 1.7801267999158281 0.2027282936971732
      vertex 3.565083503685724 1.7801267999158281 0.0
      vertex 3.6224169933874872 2.04041045922007 0.0
    endloop
  endfacet
  facet normal 0.976588466032606 -0.2151161732926692 0.0
    outer loop
      vertex 3.565083503685724 1.7801267999158281 0.2027282936971732
      vertex 3.6224169933874872 2.04041045922007 0.0
      vertex 3.6224169933874872 2.04041045922007 0.2027282936971732
    endloop
  endfacet
  facet normal 0.9941987292421431 -0.10755875963075993 0.0
    outer loop
      vertex 3.6224169933874872 2.04041045922007 0.2027282936971732
      vertex 3.6224169933874872 2.04041045922007 0.0
      vertex 3.6510839139990625 2.305387632080316 0.0
    endloop
  endfacet
  facet normal 0.9941987292421431 -0.10755875963075993 0.0
    outer loop
      vertex 3.6224169933874872 2.04041045922007 0.2027282936971732
      vertex 3.6510839139990625 2.305387632080316 0.0
      vertex 3.6510839139990625 2.305387632080316 0.2027282936971732
    endloop
  endfacet
  facet normal 0.9999991850071973 0.001276708635975233 0.0
    outer loop
      vertex 3.6510839139990625 2.305387632080316 0.2027282936971732
      vertex 3.6510839139990625 2.305387632080316 0.0
      vertex 3.6507436412966796 2.5719107959995284 0.0
    endloop
  endfacet
  facet normal 0.9999991850071973 0.001276708635975233 0.0
    outer loop
      vertex 3.6510839139990625 2.305387632080316 0.2027282936971732
      vertex 3.6507436412966796 2.5719107959995284 0.0
      vertex 3.6507436412966796 2.5719107959995284 0.2027282936971732
    endloop
  endfacet
  facet normal 0.9991876475477933 -0.040299441533432026 0.0
    outer loop
      vertex 3.6507436412966796 2.5719107959995284 0.2027282936971732
      vertex 3.6507436412966796 2.5719107959995284 0.0
      vertex 3.6579424477761155 2.7503985922974548 0.0
    endloop
  endfacet
  facet normal 0.9991876475477933 -0.040299441533432026 0.0
    outer loop
      vertex 3.6507436412966796 2.5719107959995284 0.2027282936971732
      vertex 3.6579424477761155 2.7503985922974548 0.0
      vertex 3.6579424477761155 2.7503985922974548 0.2027282936971732
    endloop
  endfacet
  facet normal 0.9932941112658504 0.11561491480161387 0.0
    outer loop
      vertex 3.6579424477761155 2.7503985922974548 0.2027282936971732
      vertex 3.6579424477761155 2.7503985922974548 0.0
      vertex 3.6372898632612563 2.927833230520651 0.0
    endloop
  endfacet
  facet normal 0.9932941112658504 0.11561491480161387 0.0
    outer loop
      vertex 3.6579424477761155 2.7503985922974548 0.2027282936971732
      vertex 3.6372898632612563 2.927833230520651 0.0
      vertex 3.6372898632612563 2.927833230520651 0.2027282936971732
    endloop
  endfacet
  facet normal 0.9632214396874925 0.2687088724369821 0.0
    outer loop
      vertex 3.6372898632612563 2.927833230520651 0.2027282936971732
      vertex 3.6372898632612563 2.927833230520651 0.0
      vertex 3.5892896178993285 3.099896270432785 0.0
    endloop
  endfacet
  facet normal 0.9632214396874925 0.2687088724369821 0.0
    outer loop
      vertex 3.6372898632612563 2.927833230520651 0.2027282936971732
      vertex 3.5892896178993285 3.099896270432785 0.0
      vertex 3.5892896178993285 3.099896270432785 0.2027282936971732
    endloop
  endfacet
  facet normal 0.909697167163518 0.4152722770119267 0.0
    outer loop
      vertex 3.5892896178993285 3.099896270432785 0.2027282936971732
      vertex 3.5892896178993285 3.099896270432785 0.0
      vertex 3.5151084111729842 3.2623979286250764 0.0
    endloop
  endfacet
  facet normal 0.909697167163518 0.4152722770119267 0.0
    outer loop
      vertex 3.5892896178993285 3.099896270432785 0.2027282936971732
      vertex 3.5151084111729842 3.2623979286250764 0.0
      vertex 3.5151084111729842 3.2623979286250764 0.2027282936971732
    endloop
  endfacet
  facet normal 0.8340306674417338 0.5517180854083867 0.0
    outer loop
      vertex 3.5151084111729842 3.2623979286250764 0.2027282936971732
      vertex 3.5151084111729842 3.2623979286250764 0.0
      vertex 3.4165534145315513 3.4113832379751017 0.0
    endloop
  endfacet
  facet normal 0.8340306674417338 0.5517180854083867 0.0
    outer loop
      vertex 3.5151084111729842 3.2623979286250764 0.2027282936971732
      vertex 3.4165534145315513 3.4113832379751017 0.0
      vertex 3.4165534145315513 3.4113832379751017 0.2027282936971732
    endloop
  endfacet
  facet normal 0.7380600866553031 0.6747349913013007 0.0
    outer loop
      vertex 3.4165534145315513 3.4113832379751017 0.2027282936971732
      vertex 3.4165534145315513 3.4113832379751017 0.0
      vertex 3.2960234099182726 3.5432252008142817 0.0
    endloop
  endfacet
  facet normal 0.7380600866553031 0.6747349913013007 0.0
    outer loop
      vertex 3.4165534145315513 3.4113832379751017 0.2027282936971732
      vertex 3.2960234099182726 3.5432252008142817 0.0
      vertex 3.2960234099182726 3.5432252008142817 0.2027282936971732
    endloop
  endfacet
  facet normal 0.6241196434630527 0.7813287852393205 0.0
    outer loop
      vertex 3.2960234099182726 3.5432252008142817 0.2027282936971732
      vertex 3.2960234099182726 3.5432252008142817 0.0
      vertex 3.1564525463484245 3.654713372317348 0.0
    endloop
  endfacet
  facet normal 0.6241196434630527 0.7813287852393205 0.0
    outer loop
      vertex 3.2960234099182726 3.5432252008142817 0.2027282936971732
      vertex 3.1564525463484245 3.654713372317348 0.0
      vertex 3.1564525463484245 3.654713372317348 0.2027282936971732
    endloop
  endfacet
  facet normal 0.4949892531565505 0.8688990961322958 0.0
    outer loop
      vertex 3.1564525463484245 3.654713372317348 0.2027282936971732
      vertex 3.1564525463484245 3.654713372317348 0.0
      vertex 3.0012386295464184 3.7431347104212955 0.0
    endloop
  endfacet
  facet normal 0.4949892531565505 0.8688990961322958 0.0
    outer loop
      vertex 3.1564525463484245 3.654713372317348 0.2027282936971732
      vertex 3.0012386295464184 3.7431347104212955 0.0
      vertex 3.0012386295464184 3.7431347104212955 0.2027282936971732
    endloop
  endfacet
  facet normal 0.3538083991564606 0.9353179227868686 0.0
    outer loop
      vertex 3.0012386295464184 3.7431347104212955 0.2027282936971732
      vertex 3.0012386295464184 3.7431347104212955 0.0
      vertex 2.834160162898526 3.806336498153612 0.0
    endloop
  endfacet
  facet normal 0.3538083991564606 0.9353179227868686 0.0
    outer loop
      vertex 3.0012386295464184 3.7431347104212955 0.2027282936971732
      vertex 2.834160162898526 3.806336498153612 0.0
      vertex 2.834160162898526 3.806336498153612 0.2027282936971732
    endloop
  endfacet
  facet normal 0.12081568953091869 0.9926749564500802 0.0
    outer loop
      vertex 2.834160162898526 3.806336498153612 0.2027282936971732
      vertex 2.834160162898526 3.806336498153612 0.0
      vertex 2.630445785801234 3.831130004604491 0.0
    endloop
  endfacet
  facet normal 0.12081568953091869 0.9926749564500802 0.0
    outer loop
      vertex 2.834160162898526 3.806336498153612 0.2027282936971732
      vertex 2.630445785801234 3.831130004604491 0.0
      vertex 2.630445785801234 3.831130004604491 0.2027282936971732
    endloop
  endfacet
  facet normal 0.014415953501659466 0.9998960847431286 0.0
    outer loop
      vertex 2.630445785801234 3.831130004604491 0.2027282936971732
      vertex 2.630445785801234 3.831130004604491 0.0
      vertex 2.425249746058753 3.834088408595454 0.0
    endloop
  endfacet
  facet normal 0.014415953501659466 0.9998960847431286 0.0
    outer loop
      vertex 2.630445785801234 3.831130004604491 0.2027282936971732
      vertex 2.425249746058753 3.834088408595454 0.0
      vertex 2.425249746058753 3.834088408595454 0.2027282936971732
    endloop
  endfacet
  facet normal -0.09214817178636668 0.9957453060077311 0.0
    outer loop
      vertex 2.425249746058753 3.834088408595454 0.2027282936971732
      vertex 2.425249746058753 3.834088408595454 0.0
      vertex 2.2209050911150023 3.815177964073372 0.0
    endloop
  endfacet
  facet normal -0.09214817178636668 0.9957453060077311 0.0
    outer loop
      vertex 2.425249746058753 3.834088408595454 0.2027282936971732
      vertex 2.2209050911150023 3.815177964073372 0.0
      vertex 2.2209050911150023 3.815177964073372 0.2027282936971732
    endloop
  endfacet
  facet normal -0.13357713627529422 -0.9910384193685385 -0.0
    outer loop
      vertex 1.3694826795965607 4.340965023753838 0.2027282936971732
      vertex 0.23639918715952132 4.493687708487884 0.2027282936971732
      vertex 1.3694826795965607 4.340965023753838 0.0921492224105254
    endloop
  endfacet
  facet normal -0.13357713627529422 -0.9910384193685385 0.0
    outer loop
      vertex 1.3694826795965607 4.340965023753838 0.0921492224105254
      vertex 0.23639918715952132 4.493687708487884 0.2027282936971732
      vertex 0.23639918715952132 4.493687708487884 0.0921492224105254
    endloop
  endfacet
  facet normal -1.0 0.0 0.0
    outer loop
      vertex 1.3694826795965607 3.659034976246162 0.2027282936971732
      vertex 1.3694826795965607 4.340965023753838 0.2027282936971732
      vertex 1.3694826795965607 3.659034976246162 0.0921492224105254
    endloop
  endfacet
  facet normal -1.0 0.0 0.0
    outer loop
      vertex 1.3694826795965607 3.659034976246162 0.0921492224105254
      vertex 1.3694826795965607 4.340965023753838 0.2027282936971732
      vertex 1.3694826795965607 4.340965023753838 0.0921492224105254
    endloop
  endfacet
  facet normal -0.13357713627529386 0.9910384193685388 0.0
    outer loop
      vertex 0.23639918715952132 3.506312291512116 0.2027282936971732
      vertex 1.3694826795965607 3.659034976246162 0.2027282936971732
      vertex 0.23639918715952132 3.506312291512116 0.0921492224105254
    endloop
  endfacet
  facet normal -0.13357713627529386 0.9910384193685388 0.0
    outer loop
      vertex 0.23639918715952132 3.506312291512116 0.0921492224105254
      vertex 1.3694826795965607 3.659034976246162 0.2027282936971732
      vertex 1.3694826795965607 3.659034976246162 0.0921492224105254
    endloop
  endfacet
  facet normal 0.0 0.0 1.0
    outer loop
      vertex 3.0012386295464184 3.7431347104212955 0.2027282936971732
      vertex 2.834160162898526 3.806336498153612 0.2027282936971732
      vertex 2.630445785801234 3.831130004604491 0.2027282936971732
    endloop
  endfacet
  facet normal 0.0 0.0 1.0
    outer loop
      vertex 0.2866136657366436 4.497625802583744 0.2027282936971732
      vertex 0.23639918715952132 4.493687708487884 0.2027282936971732
      vertex 1.3694826795965607 4.340965023753838 0.2027282936971732
    endloop
  endfacet
  facet normal 0.0 0.0 1.0
    outer loop
      vertex 3.0012386295464184 4.2568652895787045 0.2027282936971732
      vertex 3.1564525463484245 4.345286627682652 0.2027282936971732
      vertex 3.6507436412966796 5.4280888524790845 0.2027282936971732
    endloop
  endfacet
  facet normal 0.0 0.0 1.0
    outer loop
      vertex 2.425249746058753 3.834088408595454 0.2027282936971732
      vertex 2.2209050911150023 3.815177964073372 0.2027282936971732
      vertex 2.630445785801234 3.831130004604491 0.2027282936971732
    endloop
  endfacet
  facet normal 0.0 0.0 1.0
    outer loop
      vertex 2.630445785801234 3.831130004604491 0.2027282936971732
      vertex 2.2209050911150023 3.815177964073372 0.2027282936971732
      vertex 3.6507436412966796 2.5719107959995284 0.2027282936971732
    endloop
  endfacet
  facet normal 0.0 0.0 1.0
    outer loop
      vertex 1.3694826795965607 3.659034976246162 0.2027282936971732
      vertex 2.2209050911150023 3.815177964073372 0.2027282936971732
      vertex 2.2209050911150023 4.184822035926628 0.2027282936971732
    endloop
  endfacet
  facet normal 0.0 0.0 1.0
    outer loop
      vertex 1.3694826795965607 3.659034976246162 0.2027282936971732
      vertex 0.23639918715952132 3.506312291512116 0.2027282936971732
      vertex 0.2866136657366436 3.5023741974162563 0.2027282936971732
    endloop
  endfacet
  facet normal 0.0 -0.0 1.0
    outer loop
      vertex 2.834160162898526 4.193663501846388 0.2027282936971732
      vertex 3.0012386295464184 4.2568652895787045 0.2027282936971732
      vertex 2.630445785801234 4.168869995395509 0.2027282936971732
    endloop
  endfacet
  facet normal 0.0 0.0 1.0
    outer loop
      vertex 2.630445785801234 4.168869995395509 0.2027282936971732
      vertex 3.0012386295464184 4.2568652895787045 0.2027282936971732
      vertex 3.6507436412966796 5.4280888524790845 0.2027282936971732
    endloop
  endfacet
  facet normal 0.0 -0.0 1.0
    outer loop
      vertex 2.630445785801234 4.168869995395509 0.2027282936971732
      vertex 3.6507436412966796 5.4280888524790845 0.2027282936971732
      vertex 2.425249746058753 4.165911591404546 0.2027282936971732
    endloop
  endfacet
  facet normal 0.0 -0.0 1.0
    outer loop
      vertex 2.425249746058753 4.165911591404546 0.2027282936971732
      vertex 3.6507436412966796 5.4280888524790845 0.2027282936971732
      vertex 2.2209050911150023 4.184822035926628 0.2027282936971732
    endloop
  endfacet
  facet normal 0.0 0.0 1.0
    outer loop
      vertex 2.952696338206108 7.48499726494391 0.2027282936971732
      vertex 1.4554090946579865 7.483901221259996 0.2027282936971732
      vertex 3.367473646990887 6.714084851199019 0.2027282936971732
    endloop
  endfacet
  facet normal 0.0 0.0 1.0
    outer loop
      vertex 3.367473646990887 6.714084851199019 0.2027282936971732
      vertex 1.4554090946579865 7.483901221259996 0.2027282936971732
      vertex 2.2209050911150023 4.184822035926628 0.2027282936971732
    endloop
  endfacet
  facet normal 0.0 0.0 1.0
    outer loop
      vertex 2.8759673044685354 7.618687878756056 0.2027282936971732
      vertex 2.777528309884733 7.737305958546752 0.2027282936971732
      vertex 2.6602737815532738 7.837364412159353 0.2027282936971732
    endloop
  endfacet
  facet normal 0.0 0.0 1.0
    outer loop
      vertex 1.50746993931906 7.59521609271939 0.2027282936971732
      vertex 2.2204228037723692 8.0 0.2027282936971732
      vertex 1.5760137975659516 7.6972114291730325 0.2027282936971732
    endloop
  endfacet
  facet normal 0.0 0.0 1.0
    outer loop
      vertex 1.5760137975659516 7.6972114291730325 0.2027282936971732
      vertex 2.2204228037723692 8.0 0.2027282936971732
      vertex 2.097712311997025 7.993409677041044 0.2027282936971732
    endloop
  endfacet
  facet normal 0.0 0.0 1.0
    outer loop
      vertex 1.5760137975659516 7.6972114291730325 0.2027282936971732
      vertex 2.097712311997025 7.993409677041044 0.2027282936971732
      vertex 1.6594134768993547 7.787465951308927 0.2027282936971732
    endloop
  endfacet
  facet normal 0.0 0.0 1.0
    outer loop
      vertex 1.6594134768993547 7.787465951308927 0.2027282936971732
      vertex 2.097712311997025 7.993409677041044 0.2027282936971732
      vertex 1.9774709064422753 7.968045299858069 0.2027282936971732
    endloop
  endfacet
  facet normal 0.0 0.0 1.0
    outer loop
      vertex 1.6594134768993547 7.787465951308927 0.2027282936971732
      vertex 1.9774709064422753 7.968045299858069 0.2027282936971732
      vertex 1.7556886815869626 7.863836081710619 0.2027282936971732
    endloop
  endfacet
  facet normal 0.0 0.0 1.0
    outer loop
      vertex 1.7556886815869626 7.863836081710619 0.2027282936971732
      vertex 1.9774709064422753 7.968045299858069 0.2027282936971732
      vertex 1.862553643811376 7.924509376107979 0.2027282936971732
    endloop
  endfacet
  facet normal 0.0 -0.0 1.0
    outer loop
      vertex 3.6507436412966796 2.5719107959995284 0.2027282936971732
      vertex 3.6579424477761155 2.7503985922974548 0.2027282936971732
      vertex 3.6372898632612563 2.927833230520651 0.2027282936971732
    endloop
  endfacet
  facet normal 0.0 0.0 1.0
    outer loop
      vertex 3.6507436412966796 2.5719107959995284 0.2027282936971732
      vertex 3.6372898632612563 2.927833230520651 0.2027282936971732
      vertex 2.630445785801234 3.831130004604491 0.2027282936971732
    endloop
  endfacet
  facet normal 0.0 0.0 1.0
    outer loop
      vertex 2.630445785801234 3.831130004604491 0.2027282936971732
      vertex 3.6372898632612563 2.927833230520651 0.2027282936971732
      vertex 3.5892896178993285 3.099896270432785 0.2027282936971732
    endloop
  endfacet
  facet normal 0.0 0.0 1.0
    outer loop
      vertex 2.630445785801234 3.831130004604491 0.2027282936971732
      vertex 3.5892896178993285 3.099896270432785 0.2027282936971732
      vertex 3.5151084111729842 3.2623979286250764 0.2027282936971732
    endloop
  endfacet
  facet normal 0.0 0.0 1.0
    outer loop
      vertex 1.3694826795965607 3.659034976246162 0.2027282936971732
      vertex 2.2209050911150023 4.184822035926628 0.2027282936971732
      vertex 1.3694826795965607 4.340965023753838 0.2027282936971732
    endloop
  endfacet
  facet normal -0.0 0.0 1.0
    outer loop
      vertex 1.3694826795965607 4.340965023753838 0.2027282936971732
      vertex 2.2209050911150023 4.184822035926628 0.2027282936971732
      vertex 1.4554090946579865 7.483901221259996 0.2027282936971732
    endloop
  endfacet
  facet normal 0.0 -0.0 1.0
    outer loop
      vertex 1.3694826795965607 4.340965023753838 0.2027282936971732
      vertex 1.4554090946579865 7.483901221259996 0.2027282936971732
      vertex 0.5423017101910927 4.714918396287372 0.2027282936971732
    endloop
  endfacet
  facet normal -0.0 0.0 1.0
    outer loop
      vertex 0.2866136657366436 3.5023741974162563 0.2027282936971732
      vertex 0.335600280109817 3.4906562319886483 0.2027282936971732
      vertex 1.3694826795965607 3.659034976246162 0.2027282936971732
    endloop
  endfacet
  facet normal 0.0 0.0 1.0
    outer loop
      vertex 1.3694826795965607 3.659034976246162 0.2027282936971732
      vertex 0.335600280109817 3.4906562319886483 0.2027282936971732
      vertex 0.3821612211536607 3.4714441821167275 0.2027282936971732
    endloop
  endfacet
  facet normal 0.0 0.0 1.0
    outer loop
      vertex 1.3694826795965607 3.659034976246162 0.2027282936971732
      vertex 0.3821612211536607 3.4714441821167275 0.2027282936971732
      vertex 0.42515791109646245 3.44520908645875 0.2027282936971732
    endloop
  endfacet
  facet normal 0.0 0.0 1.0
    outer loop
      vertex 3.1564525463484245 4.345286627682652 0.2027282936971732
      vertex 3.2960234099182726 4.456774799185719 0.2027282936971732
      vertex 3.4165534145315513 4.588616762024898 0.2027282936971732
    endloop
  endfacet
  facet normal 0.0 0.0 1.0
    outer loop
      vertex 3.479764341819924 6.472371012193091 0.2027282936971732
      vertex 3.367473646990887 6.714084851199019 0.2027282936971732
      vertex 3.565083503685724 6.219873200084172 0.2027282936971732
    endloop
  endfacet
  facet normal 0.0 0.0 1.0
    outer loop
      vertex 3.565083503685724 6.219873200084172 0.2027282936971732
      vertex 3.367473646990887 6.714084851199019 0.2027282936971732
      vertex 2.2209050911150023 4.184822035926628 0.2027282936971732
    endloop
  endfacet
  facet normal 0.0 0.0 1.0
    outer loop
      vertex 3.565083503685724 6.219873200084172 0.2027282936971732
      vertex 2.2209050911150023 4.184822035926628 0.2027282936971732
      vertex 3.6224169933874872 5.959589189258543 0.2027282936971732
    endloop
  endfacet
  facet normal 0.0 0.0 1.0
    outer loop
      vertex 3.6224169933874872 5.959589189258543 0.2027282936971732
      vertex 2.2209050911150023 4.184822035926628 0.2027282936971732
      vertex 3.6507436412966796 5.4280888524790845 0.2027282936971732
    endloop
  endfacet
  facet normal 0.0 0.0 1.0
    outer loop
      vertex 3.6224169933874872 5.959589189258543 0.2027282936971732
      vertex 3.6507436412966796 5.4280888524790845 0.2027282936971732
      vertex 3.6510839139990625 5.694612367919683 0.2027282936971732
    endloop
  endfacet
  facet normal 0.0 0.0 1.0
    outer loop
      vertex 2.8759673044685354 7.618687878756056 0.2027282936971732
      vertex 2.2204228037723692 8.0 0.2027282936971732
      vertex 2.952696338206108 7.48499726494391 0.2027282936971732
    endloop
  endfacet
  facet normal 0.0 0.0 1.0
    outer loop
      vertex 2.952696338206108 7.48499726494391 0.2027282936971732
      vertex 2.2204228037723692 8.0 0.2027282936971732
      vertex 1.50746993931906 7.59521609271939 0.2027282936971732
    endloop
  endfacet
  facet normal 0.0 0.0 1.0
    outer loop
      vertex 2.952696338206108 7.48499726494391 0.2027282936971732
      vertex 1.50746993931906 7.59521609271939 0.2027282936971732
      vertex 1.4554090946579865 7.483901221259996 0.2027282936971732
    endloop
  endfacet
  facet normal 0.0 0.0 1.0
    outer loop
      vertex 2.6602737815532738 7.837364412159353 0.2027282936971732
      vertex 2.527649683628555 7.915922411672232 0.2027282936971732
      vertex 2.383555442853893 7.9706711646171575 0.2027282936971732
    endloop
  endfacet
  facet normal -0.0 -0.0 1.0
    outer loop
      vertex 2.097712311997025 0.006590674480342638 0.2027282936971732
      vertex 2.2204228037723692 0.0 0.2027282936971732
      vertex 1.9774709064422753 0.031954788022277844 0.2027282936971732
    endloop
  endfacet
  facet normal -0.0 0.0 1.0
    outer loop
      vertex 1.9774709064422753 0.031954788022277844 0.2027282936971732
      vertex 2.2204228037723692 0.0 0.2027282936971732
      vertex 2.952696338206108 0.5150029108167832 0.2027282936971732
    endloop
  endfacet
  facet normal 0.0 -0.0 1.0
    outer loop
      vertex 1.9774709064422753 0.031954788022277844 0.2027282936971732
      vertex 2.952696338206108 0.5150029108167832 0.2027282936971732
      vertex 1.862553643811376 0.07549062389202106 0.2027282936971732
    endloop
  endfacet
  facet normal 0.0 0.0 1.0
    outer loop
      vertex 2.2204228037723692 0.0 0.2027282936971732
      vertex 2.23222724346112 0.0 0.2027282936971732
      vertex 2.383555442853893 0.029328659622148784 0.2027282936971732
    endloop
  endfacet
  facet normal 0.0 0.0 1.0
    outer loop
      vertex 3.6510839139990625 2.305387632080316 0.2027282936971732
      vertex 3.6507436412966796 2.5719107959995284 0.2027282936971732
      vertex 3.6224169933874872 2.04041045922007 0.2027282936971732
    endloop
  endfacet
  facet normal 0.0 -0.0 1.0
    outer loop
      vertex 3.6224169933874872 2.04041045922007 0.2027282936971732
      vertex 3.6507436412966796 2.5719107959995284 0.2027282936971732
      vertex 2.2209050911150023 3.815177964073372 0.2027282936971732
    endloop
  endfacet
  facet normal 0.0 0.0 1.0
    outer loop
      vertex 3.6224169933874872 2.04041045922007 0.2027282936971732
      vertex 2.2209050911150023 3.815177964073372 0.2027282936971732
      vertex 3.565083503685724 1.7801267999158281 0.2027282936971732
    endloop
  endfacet
  facet normal 0.0 0.0 1.0
    outer loop
      vertex 3.565083503685724 1.7801267999158281 0.2027282936971732
      vertex 2.2209050911150023 3.815177964073372 0.2027282936971732
      vertex 3.367473646990887 1.2859151488009803 0.2027282936971732
    endloop
  endfacet
  facet normal 0.0 0.0 1.0
    outer loop
      vertex 3.565083503685724 1.7801267999158281 0.2027282936971732
      vertex 3.367473646990887 1.2859151488009803 0.2027282936971732
      vertex 3.479764341819924 1.5276286362855227 0.2027282936971732
    endloop
  endfacet
  facet normal -0.0 0.0 1.0
    outer loop
      vertex 0.2866136657366436 4.497625802583744 0.2027282936971732
      vertex 1.3694826795965607 4.340965023753838 0.2027282936971732
      vertex 0.335600280109817 4.509343768011352 0.2027282936971732
    endloop
  endfacet
  facet normal -0.0 0.0 1.0
    outer loop
      vertex 0.42515791109646245 3.44520908645875 0.2027282936971732
      vertex 0.46353894947042645 3.4125917685027787 0.2027282936971732
      vertex 1.3694826795965607 3.659034976246162 0.2027282936971732
    endloop
  endfacet
  facet normal 0.0 0.0 1.0
    outer loop
      vertex 1.3694826795965607 3.659034976246162 0.2027282936971732
      vertex 0.46353894947042645 3.4125917685027787 0.2027282936971732
      vertex 0.4963658620532531 3.3743894787539817 0.2027282936971732
    endloop
  endfacet
  facet normal 0.0 0.0 1.0
    outer loop
      vertex 1.3694826795965607 3.659034976246162 0.2027282936971732
      vertex 0.4963658620532531 3.3743894787539817 0.2027282936971732
      vertex 0.5228358618779319 3.331536561058364 0.2027282936971732
    endloop
  endfacet
  facet normal 0.0 0.0 1.0
    outer loop
      vertex 3.6579424477761155 5.249601759223932 0.2027282936971732
      vertex 3.6507436412966796 5.4280888524790845 0.2027282936971732
      vertex 3.6372898632612563 5.072166417957962 0.2027282936971732
    endloop
  endfacet
  facet normal 0.0 -0.0 1.0
    outer loop
      vertex 3.6372898632612563 5.072166417957962 0.2027282936971732
      vertex 3.6507436412966796 5.4280888524790845 0.2027282936971732
      vertex 3.1564525463484245 4.345286627682652 0.2027282936971732
    endloop
  endfacet
  facet normal 0.0 0.0 1.0
    outer loop
      vertex 3.6372898632612563 5.072166417957962 0.2027282936971732
      vertex 3.1564525463484245 4.345286627682652 0.2027282936971732
      vertex 3.5892896178993285 4.900103729567215 0.2027282936971732
    endloop
  endfacet
  facet normal 0.0 0.0 1.0
    outer loop
      vertex 3.5892896178993285 4.900103729567215 0.2027282936971732
      vertex 3.1564525463484245 4.345286627682652 0.2027282936971732
      vertex 3.4165534145315513 4.588616762024898 0.2027282936971732
    endloop
  endfacet
  facet normal 0.0 0.0 1.0
    outer loop
      vertex 3.5892896178993285 4.900103729567215 0.2027282936971732
      vertex 3.4165534145315513 4.588616762024898 0.2027282936971732
      vertex 3.5151084111729842 4.737602071374924 0.2027282936971732
    endloop
  endfacet
  facet normal 0.0 0.0 1.0
    outer loop
      vertex 2.8759673044685354 7.618687878756056 0.2027282936971732
      vertex 2.6602737815532738 7.837364412159353 0.2027282936971732
      vertex 2.2204228037723692 8.0 0.2027282936971732
    endloop
  endfacet
  facet normal 0.0 0.0 1.0
    outer loop
      vertex 2.2204228037723692 8.0 0.2027282936971732
      vertex 2.6602737815532738 7.837364412159353 0.2027282936971732
      vertex 2.383555442853893 7.9706711646171575 0.2027282936971732
    endloop
  endfacet
  facet normal -0.0 0.0 1.0
    outer loop
      vertex 2.2204228037723692 8.0 0.2027282936971732
      vertex 2.383555442853893 7.9706711646171575 0.2027282936971732
      vertex 2.23222724346112 8.0 0.2027282936971732
    endloop
  endfacet
  facet normal -0.0 -0.0 1.0
    outer loop
      vertex 1.7556886815869626 0.13616374252868754 0.2027282936971732
      vertex 1.862553643811376 0.07549062389202106 0.2027282936971732
      vertex 1.6594134768993547 0.21253413657141945 0.2027282936971732
    endloop
  endfacet
  facet normal -0.0 0.0 1.0
    outer loop
      vertex 1.6594134768993547 0.21253413657141945 0.2027282936971732
      vertex 1.862553643811376 0.07549062389202106 0.2027282936971732
      vertex 2.952696338206108 0.5150029108167832 0.2027282936971732
    endloop
  endfacet
  facet normal 0.0 -0.0 1.0
    outer loop
      vertex 1.6594134768993547 0.21253413657141945 0.2027282936971732
      vertex 2.952696338206108 0.5150029108167832 0.2027282936971732
      vertex 1.5760137975659516 0.30278830718592764 0.2027282936971732
    endloop
  endfacet
  facet normal 0.0 -0.0 1.0
    outer loop
      vertex 1.5760137975659516 0.30278830718592764 0.2027282936971732
      vertex 2.952696338206108 0.5150029108167832 0.2027282936971732
      vertex 1.4554090946579865 0.5160986029793108 0.2027282936971732
    endloop
  endfacet
  facet normal 0.0 0.0 1.0
    outer loop
      vertex 1.5760137975659516 0.30278830718592764 0.2027282936971732
      vertex 1.4554090946579865 0.5160986029793108 0.2027282936971732
      vertex 1.50746993931906 0.40478373151991653 0.2027282936971732
    endloop
  endfacet
  facet normal 0.0 -0.0 1.0
    outer loop
      vertex 2.8759673044685354 0.3813124727653313 0.2027282936971732
      vertex 2.952696338206108 0.5150029108167832 0.2027282936971732
      vertex 2.777528309884733 0.2626942172139408 0.2027282936971732
    endloop
  endfacet
  facet normal 0.0 -0.0 1.0
    outer loop
      vertex 2.777528309884733 0.2626942172139408 0.2027282936971732
      vertex 2.952696338206108 0.5150029108167832 0.2027282936971732
      vertex 2.2204228037723692 0.0 0.2027282936971732
    endloop
  endfacet
  facet normal 0.0 0.0 1.0
    outer loop
      vertex 2.777528309884733 0.2626942172139408 0.2027282936971732
      vertex 2.2204228037723692 0.0 0.2027282936971732
      vertex 2.6602737815532738 0.16263523631926 0.2027282936971732
    endloop
  endfacet
  facet normal 0.0 0.0 1.0
    outer loop
      vertex 2.6602737815532738 0.16263523631926 0.2027282936971732
      vertex 2.2204228037723692 0.0 0.2027282936971732
      vertex 2.383555442853893 0.029328659622148784 0.2027282936971732
    endloop
  endfacet
  facet normal 0.0 0.0 1.0
    outer loop
      vertex 2.6602737815532738 0.16263523631926 0.2027282936971732
      vertex 2.383555442853893 0.029328659622148784 0.2027282936971732
      vertex 2.527649683628555 0.08407714892603406 0.2027282936971732
    endloop
  endfacet
  facet normal 0.0 0.0 1.0
    outer loop
      vertex 3.1564525463484245 3.654713372317348 0.2027282936971732
      vertex 3.0012386295464184 3.7431347104212955 0.2027282936971732
      vertex 3.2960234099182726 3.5432252008142817 0.2027282936971732
    endloop
  endfacet
  facet normal 0.0 0.0 1.0
    outer loop
      vertex 3.2960234099182726 3.5432252008142817 0.2027282936971732
      vertex 3.0012386295464184 3.7431347104212955 0.2027282936971732
      vertex 2.630445785801234 3.831130004604491 0.2027282936971732
    endloop
  endfacet
  facet normal 0.0 0.0 1.0
    outer loop
      vertex 3.2960234099182726 3.5432252008142817 0.2027282936971732
      vertex 2.630445785801234 3.831130004604491 0.2027282936971732
      vertex 3.4165534145315513 3.4113832379751017 0.2027282936971732
    endloop
  endfacet
  facet normal 0.0 0.0 1.0
    outer loop
      vertex 3.4165534145315513 3.4113832379751017 0.2027282936971732
      vertex 2.630445785801234 3.831130004604491 0.2027282936971732
      vertex 3.5151084111729842 3.2623979286250764 0.2027282936971732
    endloop
  endfacet
  facet normal 0.0 0.0 1.0
    outer loop
      vertex 0.5423017101910927 4.714918396287372 0.2027282936971732
      vertex 0.5228358618779319 4.668463087420249 0.2027282936971732
      vertex 1.3694826795965607 4.340965023753838 0.2027282936971732
    endloop
  endfacet
  facet normal 0.0 0.0 1.0
    outer loop
      vertex 1.3694826795965607 4.340965023753838 0.2027282936971732
      vertex 0.5228358618779319 4.668463087420249 0.2027282936971732
      vertex 0.4963658620532531 4.625610521246019 0.2027282936971732
    endloop
  endfacet
  facet normal 0.0 0.0 1.0
    outer loop
      vertex 1.3694826795965607 4.340965023753838 0.2027282936971732
      vertex 0.4963658620532531 4.625610521246019 0.2027282936971732
      vertex 0.46353894947042645 4.587408231497221 0.2027282936971732
    endloop
  endfacet
  facet normal 0.0 0.0 1.0
    outer loop
      vertex 0.46353894947042645 4.587408231497221 0.2027282936971732
      vertex 0.42515791109646245 4.554790913541249 0.2027282936971732
      vertex 1.3694826795965607 4.340965023753838 0.2027282936971732
    endloop
  endfacet
  facet normal 0.0 0.0 1.0
    outer loop
      vertex 1.3694826795965607 4.340965023753838 0.2027282936971732
      vertex 0.42515791109646245 4.554790913541249 0.2027282936971732
      vertex 0.3821612211536607 4.528555466361886 0.2027282936971732
    endloop
  endfacet
  facet normal 0.0 0.0 1.0
    outer loop
      vertex 1.3694826795965607 4.340965023753838 0.2027282936971732
      vertex 0.3821612211536607 4.528555466361886 0.2027282936971732
      vertex 0.335600280109817 4.509343768011352 0.2027282936971732
    endloop
  endfacet
  facet normal -0.0 0.0 1.0
    outer loop
      vertex 0.5228358618779319 3.331536561058364 0.2027282936971732
      vertex 0.5423017101910927 3.2850816037126283 0.2027282936971732
      vertex 1.3694826795965607 3.659034976246162 0.2027282936971732
    endloop
  endfacet
  facet normal 0.0 0.0 1.0
    outer loop
      vertex 1.3694826795965607 3.659034976246162 0.2027282936971732
      vertex 0.5423017101910927 3.2850816037126283 0.2027282936971732
      vertex 1.4554090946579865 0.5160986029793108 0.2027282936971732
    endloop
  endfacet
  facet normal -0.0 0.0 1.0
    outer loop
      vertex 1.3694826795965607 3.659034976246162 0.2027282936971732
      vertex 1.4554090946579865 0.5160986029793108 0.2027282936971732
      vertex 2.2209050911150023 3.815177964073372 0.2027282936971732
    endloop
  endfacet
  facet normal 0.0 0.0 1.0
    outer loop
      vertex 2.2209050911150023 3.815177964073372 0.2027282936971732
      vertex 1.4554090946579865 0.5160986029793108 0.2027282936971732
      vertex 2.952696338206108 0.5150029108167832 0.2027282936971732
    endloop
  endfacet
  facet normal 0.0 0.0 1.0
    outer loop
      vertex 2.2209050911150023 3.815177964073372 0.2027282936971732
      vertex 2.952696338206108 0.5150029108167832 0.2027282936971732
      vertex 3.367473646990887 1.2859151488009803 0.2027282936971732
    endloop
  endfacet
endsolid thingi10k_65609
