solid thingi10k_65610
  facet normal -0.024326399165260984 -0.9997040693643556 -0.0
    outer loop
      vertex 1.291085568615977 0.054148868328805784 0.5085069117496106
      vertex 1.291085568615977 0.054148868328805784 0.0
      vertex 3.51635712039934 0.0 0.5085069117496106
    endloop
  endfacet
  facet normal -0.024326399165260984 -0.9997040693643556 -0.0
    outer loop
      vertex 3.51635712039934 0.0 0.5085069117496106
      vertex 1.291085568615977 0.054148868328805784 0.0
      vertex 3.51635712039934 0.0 0.0
    endloop
  endfacet
  facet normal 0.15760728471390353 -0.9875018702792975 0.0
    outer loop
      vertex 3.51635712039934 0.0 0.5085069117496106
      vertex 3.51635712039934 0.0 0.0
      vertex 3.747368863463141 0.036869938839724836 0.0
    endloop
  endfacet
  facet normal 0.15760728471390353 -0.9875018702792975 0.0
    outer loop
      vertex 3.51635712039934 0.0 0.5085069117496106
      vertex 3.747368863463141 0.036869938839724836 0.0
      vertex 3.747368863463141 0.036869938839724836 0.5085069117496106
    endloop
  endfacet
  facet normal 0.20844506545221944 -0.978034076445509 0.0
    outer loop
      vertex 3.747368863463141 0.036869938839724836 0.5085069117496106
      vertex 3.747368863463141 0.036869938839724836 0.0
      vertex 3.967274928651734 0.08373776814703036 0.0
    endloop
  endfacet
  facet normal 0.20844506545221944 -0.978034076445509 0.0
    outer loop
      vertex 3.747368863463141 0.036869938839724836 0.5085069117496106
      vertex 3.967274928651734 0.08373776814703036 0.0
      vertex 3.967274928651734 0.08373776814703036 0.5085069117496106
    endloop
  endfacet
  facet normal 0.2991264233089775 -0.9542134891513421 0.0
    outer loop
      vertex 3.967274928651734 0.08373776814703036 0.5085069117496106
      vertex 3.967274928651734 0.08373776814703036 0.0
      vertex 4.17677202743847 0.1494108261850359 0.0
    endloop
  endfacet
  facet normal 0.2991264233089775 -0.9542134891513421 0.0
    outer loop
      vertex 3.967274928651734 0.08373776814703036 0.5085069117496106
      vertex 4.17677202743847 0.1494108261850359 0.0
      vertex 4.17677202743847 0.1494108261850359 0.5085069117496106
    endloop
  endfacet
  facet normal 0.396349765245037 -0.9180995935029076 0.0
    outer loop
      vertex 4.17677202743847 0.1494108261850359 0.5085069117496106
      vertex 4.17677202743847 0.1494108261850359 0.0
      vertex 4.391150956038476 0.24195965054504334 0.0
    endloop
  endfacet
  facet normal 0.396349765245037 -0.9180995935029076 0.0
    outer loop
      vertex 4.17677202743847 0.1494108261850359 0.5085069117496106
      vertex 4.391150956038476 0.24195965054504334 0.0
      vertex 4.391150956038476 0.24195965054504334 0.5085069117496106
    endloop
  endfacet
  facet normal 0.4877895129989826 -0.8729612769236762 0.0
    outer loop
      vertex 4.391150956038476 0.24195965054504334 0.5085069117496106
      vertex 4.391150956038476 0.24195965054504334 0.0
      vertex 4.600117842845492 0.35872526047875875 0.0
    endloop
  endfacet
  facet normal 0.4877895129989826 -0.8729612769236762 0.0
    outer loop
      vertex 4.391150956038476 0.24195965054504334 0.5085069117496106
      vertex 4.600117842845492 0.35872526047875875 0.0
      vertex 4.600117842845492 0.35872526047875875 0.5085069117496106
    endloop
  endfacet
  facet normal 0.5727766065077319 -0.8197115096407314 0.0
    outer loop
      vertex 4.600117842845492 0.35872526047875875 0.5085069117496106
      vertex 4.600117842845492 0.35872526047875875 0.0
      vertex 4.8010080493614415 0.49909807385949867 0.0
    endloop
  endfacet
  facet normal 0.5727766065077319 -0.8197115096407314 0.0
    outer loop
      vertex 4.600117842845492 0.35872526047875875 0.5085069117496106
      vertex 4.8010080493614415 0.49909807385949867 0.0
      vertex 4.8010080493614415 0.49909807385949867 0.5085069117496106
    endloop
  endfacet
  facet normal 0.6521336637850392 -0.7581040064254385 0.0
    outer loop
      vertex 4.8010080493614415 0.49909807385949867 0.5085069117496106
      vertex 4.8010080493614415 0.49909807385949867 0.0
      vertex 4.988913235174069 0.6607372371268007 0.0
    endloop
  endfacet
  facet normal 0.6521336637850392 -0.7581040064254385 0.0
    outer loop
      vertex 4.8010080493614415 0.49909807385949867 0.5085069117496106
      vertex 4.988913235174069 0.6607372371268007 0.0
      vertex 4.988913235174069 0.6607372371268007 0.5085069117496106
    endloop
  endfacet
  facet normal 0.7260384849841961 -0.6876540687888447 0.0
    outer loop
      vertex 4.988913235174069 0.6607372371268007 0.5085069117496106
      vertex 4.988913235174069 0.6607372371268007 0.0
      vertex 5.158847467874084 0.8401570914639912 0.0
    endloop
  endfacet
  facet normal 0.7260384849841961 -0.6876540687888447 0.0
    outer loop
      vertex 4.988913235174069 0.6607372371268007 0.5085069117496106
      vertex 5.158847467874084 0.8401570914639912 0.0
      vertex 5.158847467874084 0.8401570914639912 0.5085069117496106
    endloop
  endfacet
  facet normal 0.7942021714716915 -0.607653610891641 0.0
    outer loop
      vertex 5.158847467874084 0.8401570914639912 0.5085069117496106
      vertex 5.158847467874084 0.8401570914639912 0.0
      vertex 5.30628260783469 1.0328545529933133 0.0
    endloop
  endfacet
  facet normal 0.7942021714716915 -0.607653610891641 0.0
    outer loop
      vertex 5.158847467874084 0.8401570914639912 0.5085069117496106
      vertex 5.30628260783469 1.0328545529933133 0.0
      vertex 5.30628260783469 1.0328545529933133 0.5085069117496106
    endloop
  endfacet
  facet normal 0.8543723624642457 -0.5196612995569937 0.0
    outer loop
      vertex 5.30628260783469 1.0328545529933133 0.5085069117496106
      vertex 5.30628260783469 1.0328545529933133 0.0
      vertex 5.428921285343761 1.2344841465809813 0.0
    endloop
  endfacet
  facet normal 0.8543723624642457 -0.5196612995569937 0.0
    outer loop
      vertex 5.30628260783469 1.0328545529933133 0.5085069117496106
      vertex 5.428921285343761 1.2344841465809813 0.0
      vertex 5.428921285343761 1.2344841465809813 0.5085069117496106
    endloop
  endfacet
  facet normal 0.8981284383165473 -0.4397332239973231 0.0
    outer loop
      vertex 5.428921285343761 1.2344841465809813 0.5085069117496106
      vertex 5.428921285343761 1.2344841465809813 0.0
      vertex 5.532966980564013 1.4469911682525878 0.0
    endloop
  endfacet
  facet normal 0.8981284383165473 -0.4397332239973231 0.0
    outer loop
      vertex 5.428921285343761 1.2344841465809813 0.5085069117496106
      vertex 5.532966980564013 1.4469911682525878 0.0
      vertex 5.532966980564013 1.4469911682525878 0.5085069117496106
    endloop
  endfacet
  facet normal 0.9289815538433687 -0.37012602261764865 0.0
    outer loop
      vertex 5.532966980564013 1.4469911682525878 0.5085069117496106
      vertex 5.532966980564013 1.4469911682525878 0.0
      vertex 5.651241754840003 1.7438497430977473 0.0
    endloop
  endfacet
  facet normal 0.9289815538433687 -0.37012602261764865 0.0
    outer loop
      vertex 5.532966980564013 1.4469911682525878 0.5085069117496106
      vertex 5.651241754840003 1.7438497430977473 0.0
      vertex 5.651241754840003 1.7438497430977473 0.5085069117496106
    endloop
  endfacet
  facet normal 0.9499387429995988 -0.31243620876643324 0.0
    outer loop
      vertex 5.651241754840003 1.7438497430977473 0.5085069117496106
      vertex 5.651241754840003 1.7438497430977473 0.0
      vertex 5.777203956221949 2.1268283220488167 0.0
    endloop
  endfacet
  facet normal 0.9499387429995988 -0.31243620876643324 0.0
    outer loop
      vertex 5.651241754840003 1.7438497430977473 0.5085069117496106
      vertex 5.777203956221949 2.1268283220488167 0.0
      vertex 5.777203956221949 2.1268283220488167 0.5085069117496106
    endloop
  endfacet
  facet normal 0.9675256222998171 -0.25277296175293645 0.0
    outer loop
      vertex 5.777203956221949 2.1268283220488167 0.5085069117496106
      vertex 5.777203956221949 2.1268283220488167 0.0
      vertex 5.866597049402663 2.468993510560998 0.0
    endloop
  endfacet
  facet normal 0.9675256222998171 -0.25277296175293645 0.0
    outer loop
      vertex 5.777203956221949 2.1268283220488167 0.5085069117496106
      vertex 5.866597049402663 2.468993510560998 0.0
      vertex 5.866597049402663 2.468993510560998 0.5085069117496106
    endloop
  endfacet
  facet normal 0.9817152257561196 -0.19035549773676416 0.0
    outer loop
      vertex 5.866597049402663 2.468993510560998 0.5085069117496106
      vertex 5.866597049402663 2.468993510560998 0.0
      vertex 5.9302321859686185 2.797177267807969 0.0
    endloop
  endfacet
  facet normal 0.9817152257561196 -0.19035549773676416 0.0
    outer loop
      vertex 5.866597049402663 2.468993510560998 0.5085069117496106
      vertex 5.9302321859686185 2.797177267807969 0.0
      vertex 5.9302321859686185 2.797177267807969 0.5085069117496106
    endloop
  endfacet
  facet normal 0.9923549956916404 -0.1234162166242524 0.0
    outer loop
      vertex 5.9302321859686185 2.797177267807969 0.5085069117496106
      vertex 5.9302321859686185 2.797177267807969 0.0
      vertex 5.969423903669536 3.112306818154264 0.0
    endloop
  endfacet
  facet normal 0.9923549956916404 -0.1234162166242524 0.0
    outer loop
      vertex 5.9302321859686185 2.797177267807969 0.5085069117496106
      vertex 5.969423903669536 3.112306818154264 0.0
      vertex 5.969423903669536 3.112306818154264 0.5085069117496106
    endloop
  endfacet
  facet normal 0.9985312082486187 -0.05417957321309982 0.0
    outer loop
      vertex 5.969423903669536 3.112306818154264 0.5085069117496106
      vertex 5.969423903669536 3.112306818154264 0.0
      vertex 5.985120118069156 3.4015885344892385 0.0
    endloop
  endfacet
  facet normal 0.9985312082486187 -0.05417957321309982 0.0
    outer loop
      vertex 5.969423903669536 3.112306818154264 0.5085069117496106
      vertex 5.985120118069156 3.4015885344892385 0.0
      vertex 5.985120118069156 3.4015885344892385 0.5085069117496106
    endloop
  endfacet
  facet normal 0.9999802027707902 0.006292381622977951 0.0
    outer loop
      vertex 5.985120118069156 3.4015885344892385 0.5085069117496106
      vertex 5.985120118069156 3.4015885344892385 0.0
      vertex 5.9824955687695445 3.8186797883354977 0.0
    endloop
  endfacet
  facet normal 0.9999802027707902 0.006292381622977951 0.0
    outer loop
      vertex 5.985120118069156 3.4015885344892385 0.5085069117496106
      vertex 5.9824955687695445 3.8186797883354977 0.0
      vertex 5.9824955687695445 3.8186797883354977 0.5085069117496106
    endloop
  endfacet
  facet normal 0.9996216202679435 0.027506659064507187 0.0
    outer loop
      vertex 5.9824955687695445 3.8186797883354977 0.5085069117496106
      vertex 5.9824955687695445 3.8186797883354977 0.0
      vertex 5.962650768928608 4.539861191150309 0.0
    endloop
  endfacet
  facet normal 0.9996216202679435 0.027506659064507187 0.0
    outer loop
      vertex 5.9824955687695445 3.8186797883354977 0.5085069117496106
      vertex 5.962650768928608 4.539861191150309 0.0
      vertex 5.962650768928608 4.539861191150309 0.5085069117496106
    endloop
  endfacet
  facet normal 0.9987904455058628 0.04916956341274632 0.0
    outer loop
      vertex 5.962650768928608 4.539861191150309 0.5085069117496106
      vertex 5.962650768928608 4.539861191150309 0.0
      vertex 5.932687326074709 5.148514153669334 0.0
    endloop
  endfacet
  facet normal 0.9987904455058628 0.04916956341274632 0.0
    outer loop
      vertex 5.962650768928608 4.539861191150309 0.5085069117496106
      vertex 5.932687326074709 5.148514153669334 0.0
      vertex 5.932687326074709 5.148514153669334 0.5085069117496106
    endloop
  endfacet
  facet normal 0.9995431419058695 0.03022428607830008 0.0
    outer loop
      vertex 5.932687326074709 5.148514153669334 0.5085069117496106
      vertex 5.932687326074709 5.148514153669334 0.0
      vertex 5.916189327705758 5.694117152600018 0.0
    endloop
  endfacet
  facet normal 0.9995431419058695 0.03022428607830008 0.0
    outer loop
      vertex 5.932687326074709 5.148514153669334 0.5085069117496106
      vertex 5.916189327705758 5.694117152600018 0.0
      vertex 5.916189327705758 5.694117152600018 0.5085069117496106
    endloop
  endfacet
  facet normal 0.996771309911587 0.08029293703146541 0.0
    outer loop
      vertex 5.916189327705758 5.694117152600018 0.5085069117496106
      vertex 5.916189327705758 5.694117152600018 0.0
      vertex 5.893441940575846 5.976507406398591 0.0
    endloop
  endfacet
  facet normal 0.996771309911587 0.08029293703146541 0.0
    outer loop
      vertex 5.916189327705758 5.694117152600018 0.5085069117496106
      vertex 5.893441940575846 5.976507406398591 0.0
      vertex 5.893441940575846 5.976507406398591 0.5085069117496106
    endloop
  endfacet
  facet normal 0.9880535219726622 0.15411112132944166 0.0
    outer loop
      vertex 5.893441940575846 5.976507406398591 0.5085069117496106
      vertex 5.893441940575846 5.976507406398591 0.0
      vertex 5.85598117100872 6.2166798546119955 0.0
    endloop
  endfacet
  facet normal 0.9880535219726622 0.15411112132944166 0.0
    outer loop
      vertex 5.893441940575846 5.976507406398591 0.5085069117496106
      vertex 5.85598117100872 6.2166798546119955 0.0
      vertex 5.85598117100872 6.2166798546119955 0.5085069117496106
    endloop
  endfacet
  facet normal 0.9702081137717842 0.24227301948709987 0.0
    outer loop
      vertex 5.85598117100872 6.2166798546119955 0.5085069117496106
      vertex 5.85598117100872 6.2166798546119955 0.0
      vertex 5.80222090926505 6.431968549377203 0.0
    endloop
  endfacet
  facet normal 0.9702081137717842 0.24227301948709987 0.0
    outer loop
      vertex 5.85598117100872 6.2166798546119955 0.5085069117496106
      vertex 5.80222090926505 6.431968549377203 0.0
      vertex 5.80222090926505 6.431968549377203 0.5085069117496106
    endloop
  endfacet
  facet normal 0.9390580089542835 0.34375871744410635 0.0
    outer loop
      vertex 5.80222090926505 6.431968549377203 0.5085069117496106
      vertex 5.80222090926505 6.431968549377203 0.0
      vertex 5.718732567058479 6.660036646053598 0.0
    endloop
  endfacet
  facet normal 0.9390580089542835 0.34375871744410635 0.0
    outer loop
      vertex 5.80222090926505 6.431968549377203 0.5085069117496106
      vertex 5.718732567058479 6.660036646053598 0.0
      vertex 5.718732567058479 6.660036646053598 0.5085069117496106
    endloop
  endfacet
  facet normal 0.8970693527748433 0.44188977846531335 0.0
    outer loop
      vertex 5.718732567058479 6.660036646053598 0.5085069117496106
      vertex 5.718732567058479 6.660036646053598 0.0
      vertex 5.613341297289695 6.873988818669927 0.0
    endloop
  endfacet
  facet normal 0.8970693527748433 0.44188977846531335 0.0
    outer loop
      vertex 5.718732567058479 6.660036646053598 0.5085069117496106
      vertex 5.613341297289695 6.873988818669927 0.0
      vertex 5.613341297289695 6.873988818669927 0.5085069117496106
    endloop
  endfacet
  facet normal 0.8487362970097379 0.5288163179575663 0.0
    outer loop
      vertex 5.613341297289695 6.873988818669927 0.5085069117496106
      vertex 5.613341297289695 6.873988818669927 0.0
      vertex 5.482532182493144 7.083934011239524 0.0
    endloop
  endfacet
  facet normal 0.8487362970097379 0.5288163179575663 0.0
    outer loop
      vertex 5.613341297289695 6.873988818669927 0.5085069117496106
      vertex 5.482532182493144 7.083934011239524 0.0
      vertex 5.482532182493144 7.083934011239524 0.5085069117496106
    endloop
  endfacet
  facet normal 0.7924835268330267 0.6098933182928696 0.0
    outer loop
      vertex 5.482532182493144 7.083934011239524 0.5085069117496106
      vertex 5.482532182493144 7.083934011239524 0.0
      vertex 5.328249548794455 7.284405867571476 0.0
    endloop
  endfacet
  facet normal 0.7924835268330267 0.6098933182928696 0.0
    outer loop
      vertex 5.482532182493144 7.083934011239524 0.5085069117496106
      vertex 5.328249548794455 7.284405867571476 0.0
      vertex 5.328249548794455 7.284405867571476 0.5085069117496106
    endloop
  endfacet
  facet normal 0.7273417686563228 0.6862754196151077 0.0
    outer loop
      vertex 5.328249548794455 7.284405867571476 0.5085069117496106
      vertex 5.328249548794455 7.284405867571476 0.0
      vertex 5.154982093221935 7.46804155374741 0.0
    endloop
  endfacet
  facet normal 0.7273417686563228 0.6862754196151077 0.0
    outer loop
      vertex 5.328249548794455 7.284405867571476 0.5085069117496106
      vertex 5.154982093221935 7.46804155374741 0.0
      vertex 5.154982093221935 7.46804155374741 0.5085069117496106
    endloop
  endfacet
  facet normal 0.6519999389471872 0.7582190182347474 0.0
    outer loop
      vertex 5.154982093221935 7.46804155374741 0.5085069117496106
      vertex 5.154982093221935 7.46804155374741 0.0
      vertex 4.968096595570305 7.628746218400456 0.0
    endloop
  endfacet
  facet normal 0.6519999389471872 0.7582190182347474 0.0
    outer loop
      vertex 5.154982093221935 7.46804155374741 0.5085069117496106
      vertex 4.968096595570305 7.628746218400456 0.0
      vertex 4.968096595570305 7.628746218400456 0.5085069117496106
    endloop
  endfacet
  facet normal 0.566219939030536 0.8242541966191353 0.0
    outer loop
      vertex 4.968096595570305 7.628746218400456 0.5085069117496106
      vertex 4.968096595570305 7.628746218400456 0.0
      vertex 4.778849714808998 7.75874902302785 0.0
    endloop
  endfacet
  facet normal 0.566219939030536 0.8242541966191353 0.0
    outer loop
      vertex 4.968096595570305 7.628746218400456 0.5085069117496106
      vertex 4.778849714808998 7.75874902302785 0.0
      vertex 4.778849714808998 7.75874902302785 0.5085069117496106
    endloop
  endfacet
  facet normal 0.46765628279349586 0.8839104033575856 0.0
    outer loop
      vertex 4.778849714808998 7.75874902302785 0.5085069117496106
      vertex 4.778849714808998 7.75874902302785 0.0
      vertex 4.580955205978463 7.863450370623023 0.0
    endloop
  endfacet
  facet normal 0.46765628279349586 0.8839104033575856 0.0
    outer loop
      vertex 4.778849714808998 7.75874902302785 0.5085069117496106
      vertex 4.580955205978463 7.863450370623023 0.0
      vertex 4.580955205978463 7.863450370623023 0.5085069117496106
    endloop
  endfacet
  facet normal 0.3538157193613702 0.9353151536956922 0.0
    outer loop
      vertex 4.580955205978463 7.863450370623023 0.5085069117496106
      vertex 4.580955205978463 7.863450370623023 0.0
      vertex 4.383827564718596 7.938020805970703 0.0
    endloop
  endfacet
  facet normal 0.3538157193613702 0.9353151536956922 0.0
    outer loop
      vertex 4.580955205978463 7.863450370623023 0.5085069117496106
      vertex 4.383827564718596 7.938020805970703 0.0
      vertex 4.383827564718596 7.938020805970703 0.5085069117496106
    endloop
  endfacet
  facet normal 0.22660735314854635 0.9739861947168501 0.0
    outer loop
      vertex 4.383827564718596 7.938020805970703 0.5085069117496106
      vertex 4.383827564718596 7.938020805970703 0.0
      vertex 4.190344807519311 7.983036449648855 0.0
    endloop
  endfacet
  facet normal 0.22660735314854635 0.9739861947168501 0.0
    outer loop
      vertex 4.383827564718596 7.938020805970703 0.5085069117496106
      vertex 4.190344807519311 7.983036449648855 0.0
      vertex 4.190344807519311 7.983036449648855 0.5085069117496106
    endloop
  endfacet
  facet normal 0.08969202835786866 0.9959695477518634 0.0
    outer loop
      vertex 4.190344807519311 7.983036449648855 0.5085069117496106
      vertex 4.190344807519311 7.983036449648855 0.0
      vertex 4.001976009524418 8.0 0.0
    endloop
  endfacet
  facet normal 0.08969202835786866 0.9959695477518634 0.0
    outer loop
      vertex 4.190344807519311 7.983036449648855 0.5085069117496106
      vertex 4.001976009524418 8.0 0.0
      vertex 4.001976009524418 8.0 0.5085069117496106
    endloop
  endfacet
  facet normal -0.030488758512544248 0.9995351097407054 0.0
    outer loop
      vertex 4.001976009524418 8.0 0.5085069117496106
      vertex 4.001976009524418 8.0 0.0
      vertex 3.81310221694884 7.994238794220366 0.0
    endloop
  endfacet
  facet normal -0.030488758512544248 0.9995351097407054 0.0
    outer loop
      vertex 4.001976009524418 8.0 0.5085069117496106
      vertex 3.81310221694884 7.994238794220366 0.0
      vertex 3.81310221694884 7.994238794220366 0.5085069117496106
    endloop
  endfacet
  facet normal -0.13632078320032395 0.990664748574234 0.0
    outer loop
      vertex 3.81310221694884 7.994238794220366 0.5085069117496106
      vertex 3.81310221694884 7.994238794220366 0.0
      vertex 3.597852964782124 7.96461934255331 0.0
    endloop
  endfacet
  facet normal -0.13632078320032395 0.990664748574234 0.0
    outer loop
      vertex 3.81310221694884 7.994238794220366 0.5085069117496106
      vertex 3.597852964782124 7.96461934255331 0.0
      vertex 3.597852964782124 7.96461934255331 0.5085069117496106
    endloop
  endfacet
  facet normal -0.2430047833528704 0.9700250900196472 0.0
    outer loop
      vertex 3.597852964782124 7.96461934255331 0.5085069117496106
      vertex 3.597852964782124 7.96461934255331 0.0
      vertex 3.3759408231702634 7.9090272630797065 0.0
    endloop
  endfacet
  facet normal -0.2430047833528704 0.9700250900196472 0.0
    outer loop
      vertex 3.597852964782124 7.96461934255331 0.5085069117496106
      vertex 3.3759408231702634 7.9090272630797065 0.0
      vertex 3.3759408231702634 7.9090272630797065 0.5085069117496106
    endloop
  endfacet
  facet normal -0.34163598182984506 0.9398323552204179 0.0
    outer loop
      vertex 3.3759408231702634 7.9090272630797065 0.5085069117496106
      vertex 3.3759408231702634 7.9090272630797065 0.0
      vertex 3.182279604377805 7.838629983972403 0.0
    endloop
  endfacet
  facet normal -0.34163598182984506 0.9398323552204179 0.0
    outer loop
      vertex 3.3759408231702634 7.9090272630797065 0.5085069117496106
      vertex 3.182279604377805 7.838629983972403 0.0
      vertex 3.182279604377805 7.838629983972403 0.5085069117496106
    endloop
  endfacet
  facet normal -0.43845920810204086 0.8987510905865601 0.0
    outer loop
      vertex 3.182279604377805 7.838629983972403 0.5085069117496106
      vertex 3.182279604377805 7.838629983972403 0.0
      vertex 2.975022004605408 7.7375185594399145 0.0
    endloop
  endfacet
  facet normal -0.43845920810204086 0.8987510905865601 0.0
    outer loop
      vertex 3.182279604377805 7.838629983972403 0.5085069117496106
      vertex 2.975022004605408 7.7375185594399145 0.0
      vertex 2.975022004605408 7.7375185594399145 0.5085069117496106
    endloop
  endfacet
  facet normal -0.5391732008592396 0.8421949058710829 0.0
    outer loop
      vertex 2.975022004605408 7.7375185594399145 0.5085069117496106
      vertex 2.975022004605408 7.7375185594399145 0.0
      vertex 2.78546378595601 7.6161633828817505 0.0
    endloop
  endfacet
  facet normal -0.5391732008592396 0.8421949058710829 0.0
    outer loop
      vertex 2.975022004605408 7.7375185594399145 0.5085069117496106
      vertex 2.78546378595601 7.6161633828817505 0.0
      vertex 2.78546378595601 7.6161633828817505 0.5085069117496106
    endloop
  endfacet
  facet normal -0.6370585956453579 0.7708153771911691 0.0
    outer loop
      vertex 2.78546378595601 7.6161633828817505 0.5085069117496106
      vertex 2.78546378595601 7.6161633828817505 0.0
      vertex 2.6185042364422126 7.478175715159779 0.0
    endloop
  endfacet
  facet normal -0.6370585956453579 0.7708153771911691 0.0
    outer loop
      vertex 2.78546378595601 7.6161633828817505 0.5085069117496106
      vertex 2.6185042364422126 7.478175715159779 0.0
      vertex 2.6185042364422126 7.478175715159779 0.5085069117496106
    endloop
  endfacet
  facet normal -0.7298883673550314 0.6835663619574962 0.0
    outer loop
      vertex 2.6185042364422126 7.478175715159779 0.5085069117496106
      vertex 2.6185042364422126 7.478175715159779 0.0
      vertex 2.4768852632591387 7.3269599051437835 0.0
    endloop
  endfacet
  facet normal -0.7298883673550314 0.6835663619574962 0.0
    outer loop
      vertex 2.6185042364422126 7.478175715159779 0.5085069117496106
      vertex 2.4768852632591387 7.3269599051437835 0.0
      vertex 2.4768852632591387 7.3269599051437835 0.5085069117496106
    endloop
  endfacet
  facet normal -0.8143339212060553 0.5803966443503703 0.0
    outer loop
      vertex 2.4768852632591387 7.3269599051437835 0.5085069117496106
      vertex 2.4768852632591387 7.3269599051437835 0.0
      vertex 2.361680545665719 7.1653202569265 0.0
    endloop
  endfacet
  facet normal -0.8143339212060553 0.5803966443503703 0.0
    outer loop
      vertex 2.4768852632591387 7.3269599051437835 0.5085069117496106
      vertex 2.361680545665719 7.1653202569265 0.0
      vertex 2.361680545665719 7.1653202569265 0.5085069117496106
    endloop
  endfacet
  facet normal -0.8864521868175116 0.4628201815894068 0.0
    outer loop
      vertex 2.361680545665719 7.1653202569265 0.5085069117496106
      vertex 2.361680545665719 7.1653202569265 0.0
      vertex 2.2728836176622016 6.995245065431876 0.0
    endloop
  endfacet
  facet normal -0.8864521868175116 0.4628201815894068 0.0
    outer loop
      vertex 2.361680545665719 7.1653202569265 0.5085069117496106
      vertex 2.2728836176622016 6.995245065431876 0.0
      vertex 2.2728836176622016 6.995245065431876 0.5085069117496106
    endloop
  endfacet
  facet normal -0.9404519207366898 0.33992673443357047 0.0
    outer loop
      vertex 2.2728836176622016 6.995245065431876 0.5085069117496106
      vertex 2.2728836176622016 6.995245065431876 0.0
      vertex 2.2144878806958386 6.833685595611525 0.0
    endloop
  endfacet
  facet normal -0.9404519207366898 0.33992673443357047 0.0
    outer loop
      vertex 2.2728836176622016 6.995245065431876 0.5085069117496106
      vertex 2.2144878806958386 6.833685595611525 0.0
      vertex 2.2144878806958386 6.833685595611525 0.5085069117496106
    endloop
  endfacet
  facet normal -0.9658725540547873 0.25901777800699705 0.0
    outer loop
      vertex 2.2144878806958386 6.833685595611525 0.5085069117496106
      vertex 2.2144878806958386 6.833685595611525 0.0
      vertex 2.200213539641832 6.780456839047526 0.0
    endloop
  endfacet
  facet normal -0.9658725540547873 0.25901777800699705 0.0
    outer loop
      vertex 2.2144878806958386 6.833685595611525 0.5085069117496106
      vertex 2.200213539641832 6.780456839047526 0.0
      vertex 2.200213539641832 6.780456839047526 0.5085069117496106
    endloop
  endfacet
  facet normal -0.9721680678916265 0.23428454445793462 0.0
    outer loop
      vertex 1.367502693493022 3.3251077195146297 0.5085069117496106
      vertex 2.200213539641832 6.780456839047526 0.5085069117496106
      vertex 1.367502693493022 3.3251077195146297 0.0
    endloop
  endfacet
  facet normal -0.9721680678916265 0.23428454445793462 0.0
    outer loop
      vertex 1.367502693493022 3.3251077195146297 0.0
      vertex 2.200213539641832 6.780456839047526 0.5085069117496106
      vertex 2.200213539641832 6.780456839047526 0.0
    endloop
  endfacet
  facet normal -0.7642879272853526 0.6448751539684713 0.0
    outer loop
      vertex 1.367502693493022 3.3251077195146297 0.5085069117496106
      vertex 1.367502693493022 3.3251077195146297 0.0
      vertex 1.2203177877228446 3.150668301486937 0.0
    endloop
  endfacet
  facet normal -0.0991396988826826 0.9950735249746376 0.0
    outer loop
      vertex 0.22711355346290657 2.627748676288613 0.0
      vertex 0.0 2.6051212334541125 0.0
      vertex 0.0 2.6051212334541125 0.16950230391653687
    endloop
  endfacet
  facet normal -0.7642879272853526 0.6448751539684713 0.0
    outer loop
      vertex 1.367502693493022 3.3251077195146297 0.5085069117496106
      vertex 1.2203177877228446 3.150668301486937 0.0
      vertex 1.2203177877228446 3.150668301486937 0.5085069117496106
    endloop
  endfacet
  facet normal -0.6753927456355457 0.7374582287444348 0.0
    outer loop
      vertex 1.2203177877228446 3.150668301486937 0.5085069117496106
      vertex 1.2203177877228446 3.150668301486937 0.0
      vertex 1.052001671460936 2.9965178974831903 0.0
    endloop
  endfacet
  facet normal -0.6753927456355457 0.7374582287444348 0.0
    outer loop
      vertex 1.2203177877228446 3.150668301486937 0.5085069117496106
      vertex 1.052001671460936 2.9965178974831903 0.0
      vertex 1.052001671460936 2.9965178974831903 0.5085069117496106
    endloop
  endfacet
  facet normal -0.5753728735691181 0.8178912252621467 0.0
    outer loop
      vertex 1.052001671460936 2.9965178974831903 0.5085069117496106
      vertex 1.052001671460936 2.9965178974831903 0.0
      vertex 0.8653279353012064 2.8651960289062517 0.0
    endloop
  endfacet
  facet normal -0.5753728735691181 0.8178912252621467 0.0
    outer loop
      vertex 1.052001671460936 2.9965178974831903 0.5085069117496106
      vertex 0.8653279353012064 2.8651960289062517 0.0
      vertex 0.8653279353012064 2.8651960289062517 0.5085069117496106
    endloop
  endfacet
  facet normal -0.4658720052147278 0.8848521202761559 0.0
    outer loop
      vertex 0.8653279353012064 2.8651960289062517 0.5085069117496106
      vertex 0.8653279353012064 2.8651960289062517 0.0
      vertex 0.6633708388260654 2.758866219273367 0.0
    endloop
  endfacet
  facet normal -0.4658720052147278 0.8848521202761559 0.0
    outer loop
      vertex 0.8653279353012064 2.8651960289062517 0.5085069117496106
      vertex 0.6633708388260654 2.758866219273367 0.0
      vertex 0.6633708388260654 2.758866219273367 0.5085069117496106
    endloop
  endfacet
  facet normal -0.3486982944276407 0.9372350289352476 0.0
    outer loop
      vertex 0.6633708388260654 2.758866219273367 0.5085069117496106
      vertex 0.6633708388260654 2.758866219273367 0.0
      vertex 0.44945843210821496 2.6792801079175357 0.0
    endloop
  endfacet
  facet normal -0.3486982944276407 0.9372350289352476 0.0
    outer loop
      vertex 0.6633708388260654 2.758866219273367 0.5085069117496106
      vertex 0.44945843210821496 2.6792801079175357 0.0
      vertex 0.44945843210821496 2.6792801079175357 0.5085069117496106
    endloop
  endfacet
  facet normal -0.22577904643443972 0.974178537123024 0.0
    outer loop
      vertex 0.44945843210821496 2.6792801079175357 0.5085069117496106
      vertex 0.44945843210821496 2.6792801079175357 0.0
      vertex 0.22711355346290657 2.627748676288613 0.0
    endloop
  endfacet
  facet normal -0.22577904643443972 0.974178537123024 0.0
    outer loop
      vertex 0.44945843210821496 2.6792801079175357 0.5085069117496106
      vertex 0.22711355346290657 2.627748676288613 0.0
      vertex 0.22711355346290657 2.627748676288613 0.5085069117496106
    endloop
  endfacet
  facet normal -0.09913969888268262 0.9950735249746377 0.0
    outer loop
      vertex 0.22711355346290657 2.627748676288613 0.5085069117496106
      vertex 0.22711355346290657 2.627748676288613 0.0
      vertex 0.0 2.6051212334541125 0.16950230391653687
    endloop
  endfacet
  facet normal -0.0991396988826826 0.9950735249746376 0.0
    outer loop
      vertex 0.22711355346290657 2.627748676288613 0.5085069117496106
      vertex 0.0 2.6051212334541125 0.16950230391653687
      vertex 0.0 2.6051212334541125 0.5085069117496106
    endloop
  endfacet
  facet normal 0.0 0.0 -1.0
    outer loop
      vertex 2.85553776507568 2.1607554227511048 0.0
      vertex 5.932687326074709 5.148514153669334 0.0
      vertex 5.962650768928608 4.539861191150309 0.0
    endloop
  endfacet
  facet normal -0.0 0.0 -1.0
    outer loop
      vertex 2.85553776507568 2.1607554227511048 0.0
      vertex 1.2894040853802937 2.15950457509895 0.0
      vertex 1.289208812187763 2.4039497559489216 0.0
    endloop
  endfacet
  facet normal 0.0 0.0 -1.0
    outer loop
      vertex 1.291085568615977 0.054148868328805784 0.0
      vertex 1.2897018446689044 1.7865997004625613 0.0
      vertex 3.51635712039934 0.0 0.0
    endloop
  endfacet
  facet normal 0.0 0.0 -1.0
    outer loop
      vertex 3.51635712039934 0.0 0.0
      vertex 1.2897018446689044 1.7865997004625613 0.0
      vertex 2.8558358476642787 1.7878502248147288 0.0
    endloop
  endfacet
  facet normal 0.0 0.0 -1.0
    outer loop
      vertex 3.51635712039934 0.0 0.0
      vertex 2.8558358476642787 1.7878502248147288 0.0
      vertex 3.747368863463141 0.036869938839724836 0.0
    endloop
  endfacet
  facet normal 0.0 0.0 -1.0
    outer loop
      vertex 3.747368863463141 0.036869938839724836 0.0
      vertex 2.8558358476642787 1.7878502248147288 0.0
      vertex 3.967274928651734 0.08373776814703036 0.0
    endloop
  endfacet
  facet normal -0.0 0.0 -1.0
    outer loop
      vertex 5.932687326074709 5.148514153669334 0.0
      vertex 2.85553776507568 2.1607554227511048 0.0
      vertex 5.916189327705758 5.694117152600018 0.0
    endloop
  endfacet
  facet normal 0.0 0.0 -1.0
    outer loop
      vertex 5.916189327705758 5.694117152600018 0.0
      vertex 2.85553776507568 2.1607554227511048 0.0
      vertex 1.289208812187763 2.4039497559489216 0.0
    endloop
  endfacet
  facet normal -0.0 0.0 -1.0
    outer loop
      vertex 5.916189327705758 5.694117152600018 0.0
      vertex 1.289208812187763 2.4039497559489216 0.0
      vertex 5.893441940575846 5.976507406398591 0.0
    endloop
  endfacet
  facet normal -0.0 0.0 -1.0
    outer loop
      vertex 5.893441940575846 5.976507406398591 0.0
      vertex 1.289208812187763 2.4039497559489216 0.0
      vertex 5.80222090926505 6.431968549377203 0.0
    endloop
  endfacet
  facet normal 0.0 0.0 -1.0
    outer loop
      vertex 5.893441940575846 5.976507406398591 0.0
      vertex 5.80222090926505 6.431968549377203 0.0
      vertex 5.85598117100872 6.2166798546119955 0.0
    endloop
  endfacet
  facet normal 0.0 0.0 -1.0
    outer loop
      vertex 0.6435444670844241 2.497653731164745 0.0
      vertex 0.0 2.6051212334541125 0.0
      vertex 0.22711355346290657 2.627748676288613 0.0
    endloop
  endfacet
  facet normal 0.0 -0.0 -1.0
    outer loop
      vertex 5.962650768928608 4.539861191150309 0.0
      vertex 5.9824955687695445 3.8186797883354977 0.0
      vertex 2.85553776507568 2.1607554227511048 0.0
    endloop
  endfacet
  facet normal 0.0 0.0 -1.0
    outer loop
      vertex 2.85553776507568 2.1607554227511048 0.0
      vertex 5.9824955687695445 3.8186797883354977 0.0
      vertex 5.985120118069156 3.4015885344892385 0.0
    endloop
  endfacet
  facet normal 0.0 0.0 -1.0
    outer loop
      vertex 2.85553776507568 2.1607554227511048 0.0
      vertex 5.985120118069156 3.4015885344892385 0.0
      vertex 5.777203956221949 2.1268283220488167 0.0
    endloop
  endfacet
  facet normal 0.0 0.0 -1.0
    outer loop
      vertex 5.777203956221949 2.1268283220488167 0.0
      vertex 5.985120118069156 3.4015885344892385 0.0
      vertex 5.866597049402663 2.468993510560998 0.0
    endloop
  endfacet
  facet normal 0.0 0.0 -1.0
    outer loop
      vertex 5.866597049402663 2.468993510560998 0.0
      vertex 5.985120118069156 3.4015885344892385 0.0
      vertex 5.969423903669536 3.112306818154264 0.0
    endloop
  endfacet
  facet normal 0.0 0.0 -1.0
    outer loop
      vertex 5.866597049402663 2.468993510560998 0.0
      vertex 5.969423903669536 3.112306818154264 0.0
      vertex 5.9302321859686185 2.797177267807969 0.0
    endloop
  endfacet
  facet normal 0.0 0.0 -1.0
    outer loop
      vertex 5.80222090926505 6.431968549377203 0.0
      vertex 2.200213539641832 6.780456839047526 0.0
      vertex 2.2144878806958386 6.833685595611525 0.0
    endloop
  endfacet
  facet normal -0.0 0.0 -1.0
    outer loop
      vertex 5.777203956221949 2.1268283220488167 0.0
      vertex 5.651241754840003 1.7438497430977473 0.0
      vertex 2.85553776507568 2.1607554227511048 0.0
    endloop
  endfacet
  facet normal 0.0 0.0 -1.0
    outer loop
      vertex 2.85553776507568 2.1607554227511048 0.0
      vertex 5.651241754840003 1.7438497430977473 0.0
      vertex 5.532966980564013 1.4469911682525878 0.0
    endloop
  endfacet
  facet normal 0.0 0.0 -1.0
    outer loop
      vertex 2.85553776507568 2.1607554227511048 0.0
      vertex 5.532966980564013 1.4469911682525878 0.0
      vertex 5.428921285343761 1.2344841465809813 0.0
    endloop
  endfacet
  facet normal 0.0 -0.0 -1.0
    outer loop
      vertex 3.597852964782124 7.96461934255331 0.0
      vertex 3.81310221694884 7.994238794220366 0.0
      vertex 3.3759408231702634 7.9090272630797065 0.0
    endloop
  endfacet
  facet normal 0.0 0.0 -1.0
    outer loop
      vertex 3.3759408231702634 7.9090272630797065 0.0
      vertex 3.81310221694884 7.994238794220366 0.0
      vertex 4.001976009524418 8.0 0.0
    endloop
  endfacet
  facet normal 0.0 -0.0 -1.0
    outer loop
      vertex 3.3759408231702634 7.9090272630797065 0.0
      vertex 4.001976009524418 8.0 0.0
      vertex 3.182279604377805 7.838629983972403 0.0
    endloop
  endfacet
  facet normal 0.0 0.0 -1.0
    outer loop
      vertex 3.182279604377805 7.838629983972403 0.0
      vertex 4.001976009524418 8.0 0.0
      vertex 4.190344807519311 7.983036449648855 0.0
    endloop
  endfacet
  facet normal 0.0 -0.0 -1.0
    outer loop
      vertex 3.182279604377805 7.838629983972403 0.0
      vertex 4.190344807519311 7.983036449648855 0.0
      vertex 2.975022004605408 7.7375185594399145 0.0
    endloop
  endfacet
  facet normal 0.0 0.0 -1.0
    outer loop
      vertex 2.975022004605408 7.7375185594399145 0.0
      vertex 4.190344807519311 7.983036449648855 0.0
      vertex 4.383827564718596 7.938020805970703 0.0
    endloop
  endfacet
  facet normal 0.0 -0.0 -1.0
    outer loop
      vertex 2.975022004605408 7.7375185594399145 0.0
      vertex 4.383827564718596 7.938020805970703 0.0
      vertex 2.78546378595601 7.6161633828817505 0.0
    endloop
  endfacet
  facet normal 0.0 0.0 -1.0
    outer loop
      vertex 2.78546378595601 7.6161633828817505 0.0
      vertex 4.383827564718596 7.938020805970703 0.0
      vertex 4.580955205978463 7.863450370623023 0.0
    endloop
  endfacet
  facet normal 0.0 -0.0 -1.0
    outer loop
      vertex 2.78546378595601 7.6161633828817505 0.0
      vertex 4.580955205978463 7.863450370623023 0.0
      vertex 2.6185042364422126 7.478175715159779 0.0
    endloop
  endfacet
  facet normal 0.0 0.0 -1.0
    outer loop
      vertex 2.6185042364422126 7.478175715159779 0.0
      vertex 4.580955205978463 7.863450370623023 0.0
      vertex 4.778849714808998 7.75874902302785 0.0
    endloop
  endfacet
  facet normal 0.0 -0.0 -1.0
    outer loop
      vertex 2.6185042364422126 7.478175715159779 0.0
      vertex 4.778849714808998 7.75874902302785 0.0
      vertex 2.4768852632591387 7.3269599051437835 0.0
    endloop
  endfacet
  facet normal 0.0 0.0 -1.0
    outer loop
      vertex 2.4768852632591387 7.3269599051437835 0.0
      vertex 4.778849714808998 7.75874902302785 0.0
      vertex 4.968096595570305 7.628746218400456 0.0
    endloop
  endfacet
  facet normal 0.0 -0.0 -1.0
    outer loop
      vertex 2.4768852632591387 7.3269599051437835 0.0
      vertex 4.968096595570305 7.628746218400456 0.0
      vertex 2.361680545665719 7.1653202569265 0.0
    endloop
  endfacet
  facet normal 0.0 0.0 -1.0
    outer loop
      vertex 2.361680545665719 7.1653202569265 0.0
      vertex 4.968096595570305 7.628746218400456 0.0
      vertex 5.154982093221935 7.46804155374741 0.0
    endloop
  endfacet
  facet normal 0.0 -0.0 -1.0
    outer loop
      vertex 2.361680545665719 7.1653202569265 0.0
      vertex 5.154982093221935 7.46804155374741 0.0
      vertex 2.2728836176622016 6.995245065431876 0.0
    endloop
  endfacet
  facet normal 0.0 0.0 -1.0
    outer loop
      vertex 2.2728836176622016 6.995245065431876 0.0
      vertex 5.154982093221935 7.46804155374741 0.0
      vertex 5.328249548794455 7.284405867571476 0.0
    endloop
  endfacet
  facet normal 0.0 -0.0 -1.0
    outer loop
      vertex 2.2728836176622016 6.995245065431876 0.0
      vertex 5.328249548794455 7.284405867571476 0.0
      vertex 2.2144878806958386 6.833685595611525 0.0
    endloop
  endfacet
  facet normal -0.0 0.0 -1.0
    outer loop
      vertex 4.17677202743847 0.1494108261850359 0.0
      vertex 3.967274928651734 0.08373776814703036 0.0
      vertex 4.391150956038476 0.24195965054504334 0.0
    endloop
  endfacet
  facet normal -0.0 0.0 -1.0
    outer loop
      vertex 4.391150956038476 0.24195965054504334 0.0
      vertex 3.967274928651734 0.08373776814703036 0.0
      vertex 2.8558358476642787 1.7878502248147288 0.0
    endloop
  endfacet
  facet normal 0.0 0.0 -1.0
    outer loop
      vertex 4.391150956038476 0.24195965054504334 0.0
      vertex 2.8558358476642787 1.7878502248147288 0.0
      vertex 4.600117842845492 0.35872526047875875 0.0
    endloop
  endfacet
  facet normal 0.0 0.0 -1.0
    outer loop
      vertex 4.600117842845492 0.35872526047875875 0.0
      vertex 2.8558358476642787 1.7878502248147288 0.0
      vertex 2.85553776507568 2.1607554227511048 0.0
    endloop
  endfacet
  facet normal 0.0 0.0 -1.0
    outer loop
      vertex 4.600117842845492 0.35872526047875875 0.0
      vertex 2.85553776507568 2.1607554227511048 0.0
      vertex 4.8010080493614415 0.49909807385949867 0.0
    endloop
  endfacet
  facet normal 0.0 0.0 -1.0
    outer loop
      vertex 4.8010080493614415 0.49909807385949867 0.0
      vertex 2.85553776507568 2.1607554227511048 0.0
      vertex 5.428921285343761 1.2344841465809813 0.0
    endloop
  endfacet
  facet normal 0.0 0.0 -1.0
    outer loop
      vertex 4.8010080493614415 0.49909807385949867 0.0
      vertex 5.428921285343761 1.2344841465809813 0.0
      vertex 4.988913235174069 0.6607372371268007 0.0
    endloop
  endfacet
  facet normal 0.0 0.0 -1.0
    outer loop
      vertex 4.988913235174069 0.6607372371268007 0.0
      vertex 5.428921285343761 1.2344841465809813 0.0
      vertex 5.30628260783469 1.0328545529933133 0.0
    endloop
  endfacet
  facet normal 0.0 0.0 -1.0
    outer loop
      vertex 4.988913235174069 0.6607372371268007 0.0
      vertex 5.30628260783469 1.0328545529933133 0.0
      vertex 5.158847467874084 0.8401570914639912 0.0
    endloop
  endfacet
  facet normal 0.0 0.0 -1.0
    outer loop
      vertex 0.22711355346290657 2.627748676288613 0.0
      vertex 0.44945843210821496 2.6792801079175357 0.0
      vertex 0.6435444670844241 2.497653731164745 0.0
    endloop
  endfacet
  facet normal 0.0 0.0 -1.0
    outer loop
      vertex 0.6435444670844241 2.497653731164745 0.0
      vertex 0.44945843210821496 2.6792801079175357 0.0
      vertex 0.6633708388260654 2.758866219273367 0.0
    endloop
  endfacet
  facet normal 0.0 0.0 -1.0
    outer loop
      vertex 0.6435444670844241 2.497653731164745 0.0
      vertex 0.6633708388260654 2.758866219273367 0.0
      vertex 1.289208812187763 2.4039497559489216 0.0
    endloop
  endfacet
  facet normal 0.0 0.0 -1.0
    outer loop
      vertex 1.289208812187763 2.4039497559489216 0.0
      vertex 0.6633708388260654 2.758866219273367 0.0
      vertex 0.8653279353012064 2.8651960289062517 0.0
    endloop
  endfacet
  facet normal 0.0 0.0 -1.0
    outer loop
      vertex 0.8653279353012064 2.8651960289062517 0.0
      vertex 1.052001671460936 2.9965178974831903 0.0
      vertex 1.289208812187763 2.4039497559489216 0.0
    endloop
  endfacet
  facet normal 0.0 0.0 -1.0
    outer loop
      vertex 1.289208812187763 2.4039497559489216 0.0
      vertex 1.052001671460936 2.9965178974831903 0.0
      vertex 1.2203177877228446 3.150668301486937 0.0
    endloop
  endfacet
  facet normal 0.0 0.0 -1.0
    outer loop
      vertex 1.289208812187763 2.4039497559489216 0.0
      vertex 1.2203177877228446 3.150668301486937 0.0
      vertex 5.80222090926505 6.431968549377203 0.0
    endloop
  endfacet
  facet normal 0.0 0.0 -1.0
    outer loop
      vertex 5.80222090926505 6.431968549377203 0.0
      vertex 1.2203177877228446 3.150668301486937 0.0
      vertex 1.367502693493022 3.3251077195146297 0.0
    endloop
  endfacet
  facet normal -0.0 0.0 -1.0
    outer loop
      vertex 5.80222090926505 6.431968549377203 0.0
      vertex 1.367502693493022 3.3251077195146297 0.0
      vertex 2.200213539641832 6.780456839047526 0.0
    endloop
  endfacet
  facet normal -0.0 -0.0 -1.0
    outer loop
      vertex 5.718732567058479 6.660036646053598 0.0
      vertex 5.80222090926505 6.431968549377203 0.0
      vertex 5.613341297289695 6.873988818669927 0.0
    endloop
  endfacet
  facet normal 0.0 -0.0 -1.0
    outer loop
      vertex 5.613341297289695 6.873988818669927 0.0
      vertex 5.80222090926505 6.431968549377203 0.0
      vertex 2.2144878806958386 6.833685595611525 0.0
    endloop
  endfacet
  facet normal -0.0 0.0 -1.0
    outer loop
      vertex 5.613341297289695 6.873988818669927 0.0
      vertex 2.2144878806958386 6.833685595611525 0.0
      vertex 5.482532182493144 7.083934011239524 0.0
    endloop
  endfacet
  facet normal -0.0 0.0 -1.0
    outer loop
      vertex 5.482532182493144 7.083934011239524 0.0
      vertex 2.2144878806958386 6.833685595611525 0.0
      vertex 5.328249548794455 7.284405867571476 0.0
    endloop
  endfacet
  facet normal -0.0007984782599246105 0.9999996812161834 0.0
    outer loop
      vertex 1.2897018446689044 1.7865997004625613 0.0
      vertex 1.2897018446689044 1.7865997004625613 0.5085069117496106
      vertex 2.8558358476642787 1.7878502248147288 0.0
    endloop
  endfacet
  facet normal -0.0007984782599246105 0.9999996812161834 0.0
    outer loop
      vertex 2.8558358476642787 1.7878502248147288 0.0
      vertex 1.2897018446689044 1.7865997004625613 0.5085069117496106
      vertex 2.8558358476642787 1.7878502248147288 0.5085069117496106
    endloop
  endfacet
  facet normal -0.9999996810321767 -0.000798708673310504 0.0
    outer loop
      vertex 1.291085568615977 0.054148868328805784 0.0
      vertex 1.291085568615977 0.054148868328805784 0.5085069117496106
      vertex 1.2897018446689044 1.7865997004625613 0.0
    endloop
  endfacet
  facet normal -0.9999996810321767 -0.000798708673310504 0.0
    outer loop
      vertex 1.2897018446689044 1.7865997004625613 0.0
      vertex 1.291085568615977 0.054148868328805784 0.5085069117496106
      vertex 1.2897018446689044 1.7865997004625613 0.5085069117496106
    endloop
  endfacet
  facet normal -0.14362337404282344 -0.9896324198552487 0.0
    outer loop
      vertex 1.289208812187763 2.4039497559489216 0.0
      vertex 1.289208812187763 2.4039497559489216 0.16950230391653687
      vertex 0.6435444670844241 2.497653731164745 0.16950230391653687
    endloop
  endfacet
  facet normal -0.14362337404282344 -0.9896324198552487 0.0
    outer loop
      vertex 1.289208812187763 2.4039497559489216 0.0
      vertex 0.6435444670844241 2.497653731164745 0.16950230391653687
      vertex 0.6435444670844241 2.497653731164745 0.0
    endloop
  endfacet
  facet normal -0.16471227675465844 -0.9863416577871468 0.0
    outer loop
      vertex 0.6435444670844241 2.497653731164745 0.0
      vertex 0.6435444670844241 2.497653731164745 0.16950230391653687
      vertex 0.0 2.6051212334541125 0.16950230391653687
    endloop
  endfacet
  facet normal -0.16471227675465844 -0.9863416577871468 0.0
    outer loop
      vertex 0.6435444670844241 2.497653731164745 0.0
      vertex 0.0 2.6051212334541125 0.16950230391653687
      vertex 0.0 2.6051212334541125 0.0
    endloop
  endfacet
  facet normal -0.9999996809255052 -0.0007988422170773684 0.0
    outer loop
      vertex 1.289208812187763 2.4039497559489216 0.0
      vertex 1.2894040853802937 2.15950457509895 0.0
      vertex 1.289208812187763 2.4039497559489216 0.16950230391653687
    endloop
  endfacet
  facet normal -0.9999996809255053 -0.0007988422170773685 0.0
    outer loop
      vertex 1.289208812187763 2.4039497559489216 0.16950230391653687
      vertex 1.2894040853802937 2.15950457509895 0.0
      vertex 1.2894040853802937 2.15950457509895 0.5085069117496106
    endloop
  endfacet
  facet normal -0.9999996809255052 -0.0007988422170773684 0.0
    outer loop
      vertex 1.289208812187763 2.4039497559489216 0.16950230391653687
      vertex 1.2894040853802937 2.15950457509895 0.5085069117496106
      vertex 1.289208812187763 2.4039497559489216 0.5085069117496106
    endloop
  endfacet
  facet normal 0.0007986848564816105 -0.9999996810511991 0.0
    outer loop
      vertex 2.85553776507568 2.1607554227511048 0.0
      vertex 2.85553776507568 2.1607554227511048 0.5085069117496106
      vertex 1.2894040853802937 2.15950457509895 0.0
    endloop
  endfacet
  facet normal 0.0007986848564816105 -0.9999996810511991 0.0
    outer loop
      vertex 1.2894040853802937 2.15950457509895 0.0
      vertex 2.85553776507568 2.1607554227511048 0.5085069117496106
      vertex 1.2894040853802937 2.15950457509895 0.5085069117496106
    endloop
  endfacet
  facet normal -0.9999996805181871 -0.0007993519398928525 0.0
    outer loop
      vertex 2.8558358476642787 1.7878502248147288 0.0
      vertex 2.8558358476642787 1.7878502248147288 0.5085069117496106
      vertex 2.85553776507568 2.1607554227511048 0.0
    endloop
  endfacet
  facet normal -0.9999996805181871 -0.0007993519398928525 0.0
    outer loop
      vertex 2.85553776507568 2.1607554227511048 0.0
      vertex 2.8558358476642787 1.7878502248147288 0.5085069117496106
      vertex 2.85553776507568 2.1607554227511048 0.5085069117496106
    endloop
  endfacet
  facet normal -0.16471227675465844 -0.9863416577871468 -0.0
    outer loop
      vertex 0.0 2.6051212334541125 0.5085069117496106
      vertex 0.0 2.6051212334541125 0.16950230391653687
      vertex 0.6435444670844241 2.497653731164745 0.16950230391653687
    endloop
  endfacet
  facet normal -0.16471227675465844 -0.9863416577871468 0.0
    outer loop
      vertex 0.0 2.6051212334541125 0.5085069117496106
      vertex 0.6435444670844241 2.497653731164745 0.16950230391653687
      vertex 0.6435444670844241 2.497653731164745 0.5085069117496106
    endloop
  endfacet
  facet normal -0.14362337404282344 -0.9896324198552487 -0.0
    outer loop
      vertex 0.6435444670844241 2.497653731164745 0.5085069117496106
      vertex 0.6435444670844241 2.497653731164745 0.16950230391653687
      vertex 1.289208812187763 2.4039497559489216 0.16950230391653687
    endloop
  endfacet
  facet normal -0.14362337404282344 -0.9896324198552487 0.0
    outer loop
      vertex 0.6435444670844241 2.497653731164745 0.5085069117496106
      vertex 1.289208812187763 2.4039497559489216 0.16950230391653687
      vertex 1.289208812187763 2.4039497559489216 0.5085069117496106
    endloop
  endfacet
  facet normal 0.0 0.0 1.0
    outer loop
      vertex 0.22711355346290657 2.627748676288613 0.5085069117496106
      vertex 0.0 2.6051212334541125 0.5085069117496106
      vertex 0.6435444670844241 2.497653731164745 0.5085069117496106
    endloop
  endfacet
  facet normal 0.0 0.0 1.0
    outer loop
      vertex 1.289208812187763 2.4039497559489216 0.5085069117496106
      vertex 1.2894040853802937 2.15950457509895 0.5085069117496106
      vertex 2.85553776507568 2.1607554227511048 0.5085069117496106
    endloop
  endfacet
  facet normal 0.0 0.0 1.0
    outer loop
      vertex 5.9824955687695445 3.8186797883354977 0.5085069117496106
      vertex 2.85553776507568 2.1607554227511048 0.5085069117496106
      vertex 5.985120118069156 3.4015885344892385 0.5085069117496106
    endloop
  endfacet
  facet normal 0.0 0.0 1.0
    outer loop
      vertex 5.985120118069156 3.4015885344892385 0.5085069117496106
      vertex 2.85553776507568 2.1607554227511048 0.5085069117496106
      vertex 2.8558358476642787 1.7878502248147288 0.5085069117496106
    endloop
  endfacet
  facet normal 0.0 0.0 1.0
    outer loop
      vertex 5.985120118069156 3.4015885344892385 0.5085069117496106
      vertex 2.8558358476642787 1.7878502248147288 0.5085069117496106
      vertex 5.969423903669536 3.112306818154264 0.5085069117496106
    endloop
  endfacet
  facet normal 0.0 0.0 1.0
    outer loop
      vertex 5.969423903669536 3.112306818154264 0.5085069117496106
      vertex 2.8558358476642787 1.7878502248147288 0.5085069117496106
      vertex 4.391150956038476 0.24195965054504334 0.5085069117496106
    endloop
  endfacet
  facet normal 0.0 0.0 1.0
    outer loop
      vertex 5.969423903669536 3.112306818154264 0.5085069117496106
      vertex 4.391150956038476 0.24195965054504334 0.5085069117496106
      vertex 5.9302321859686185 2.797177267807969 0.5085069117496106
    endloop
  endfacet
  facet normal 0.0 0.0 1.0
    outer loop
      vertex 5.9302321859686185 2.797177267807969 0.5085069117496106
      vertex 4.391150956038476 0.24195965054504334 0.5085069117496106
      vertex 4.600117842845492 0.35872526047875875 0.5085069117496106
    endloop
  endfacet
  facet normal 0.0 0.0 1.0
    outer loop
      vertex 5.9302321859686185 2.797177267807969 0.5085069117496106
      vertex 4.600117842845492 0.35872526047875875 0.5085069117496106
      vertex 5.866597049402663 2.468993510560998 0.5085069117496106
    endloop
  endfacet
  facet normal 0.0 0.0 1.0
    outer loop
      vertex 5.866597049402663 2.468993510560998 0.5085069117496106
      vertex 4.600117842845492 0.35872526047875875 0.5085069117496106
      vertex 4.8010080493614415 0.49909807385949867 0.5085069117496106
    endloop
  endfacet
  facet normal 0.0 0.0 1.0
    outer loop
      vertex 5.866597049402663 2.468993510560998 0.5085069117496106
      vertex 4.8010080493614415 0.49909807385949867 0.5085069117496106
      vertex 5.777203956221949 2.1268283220488167 0.5085069117496106
    endloop
  endfacet
  facet normal 0.0 0.0 1.0
    outer loop
      vertex 5.777203956221949 2.1268283220488167 0.5085069117496106
      vertex 4.8010080493614415 0.49909807385949867 0.5085069117496106
      vertex 4.988913235174069 0.6607372371268007 0.5085069117496106
    endloop
  endfacet
  facet normal 0.0 0.0 1.0
    outer loop
      vertex 5.777203956221949 2.1268283220488167 0.5085069117496106
      vertex 4.988913235174069 0.6607372371268007 0.5085069117496106
      vertex 5.651241754840003 1.7438497430977473 0.5085069117496106
    endloop
  endfacet
  facet normal 0.0 0.0 1.0
    outer loop
      vertex 5.651241754840003 1.7438497430977473 0.5085069117496106
      vertex 4.988913235174069 0.6607372371268007 0.5085069117496106
      vertex 5.158847467874084 0.8401570914639912 0.5085069117496106
    endloop
  endfacet
  facet normal 0.0 0.0 1.0
    outer loop
      vertex 5.651241754840003 1.7438497430977473 0.5085069117496106
      vertex 5.158847467874084 0.8401570914639912 0.5085069117496106
      vertex 5.532966980564013 1.4469911682525878 0.5085069117496106
    endloop
  endfacet
  facet normal 0.0 0.0 1.0
    outer loop
      vertex 5.532966980564013 1.4469911682525878 0.5085069117496106
      vertex 5.158847467874084 0.8401570914639912 0.5085069117496106
      vertex 5.30628260783469 1.0328545529933133 0.5085069117496106
    endloop
  endfacet
  facet normal 0.0 0.0 1.0
    outer loop
      vertex 5.532966980564013 1.4469911682525878 0.5085069117496106
      vertex 5.30628260783469 1.0328545529933133 0.5085069117496106
      vertex 5.428921285343761 1.2344841465809813 0.5085069117496106
    endloop
  endfacet
  facet normal -0.0 -0.0 1.0
    outer loop
      vertex 1.291085568615977 0.054148868328805784 0.5085069117496106
      vertex 3.51635712039934 0.0 0.5085069117496106
      vertex 1.2897018446689044 1.7865997004625613 0.5085069117496106
    endloop
  endfacet
  facet normal -0.0 0.0 1.0
    outer loop
      vertex 1.2897018446689044 1.7865997004625613 0.5085069117496106
      vertex 3.51635712039934 0.0 0.5085069117496106
      vertex 2.8558358476642787 1.7878502248147288 0.5085069117496106
    endloop
  endfacet
  facet normal 0.0 0.0 1.0
    outer loop
      vertex 5.85598117100872 6.2166798546119955 0.5085069117496106
      vertex 5.80222090926505 6.431968549377203 0.5085069117496106
      vertex 5.893441940575846 5.976507406398591 0.5085069117496106
    endloop
  endfacet
  facet normal 0.0 0.0 1.0
    outer loop
      vertex 5.893441940575846 5.976507406398591 0.5085069117496106
      vertex 5.80222090926505 6.431968549377203 0.5085069117496106
      vertex 1.289208812187763 2.4039497559489216 0.5085069117496106
    endloop
  endfacet
  facet normal 0.0 0.0 1.0
    outer loop
      vertex 5.893441940575846 5.976507406398591 0.5085069117496106
      vertex 1.289208812187763 2.4039497559489216 0.5085069117496106
      vertex 5.916189327705758 5.694117152600018 0.5085069117496106
    endloop
  endfacet
  facet normal 0.0 0.0 1.0
    outer loop
      vertex 5.916189327705758 5.694117152600018 0.5085069117496106
      vertex 1.289208812187763 2.4039497559489216 0.5085069117496106
      vertex 2.85553776507568 2.1607554227511048 0.5085069117496106
    endloop
  endfacet
  facet normal 0.0 0.0 1.0
    outer loop
      vertex 5.916189327705758 5.694117152600018 0.5085069117496106
      vertex 2.85553776507568 2.1607554227511048 0.5085069117496106
      vertex 5.932687326074709 5.148514153669334 0.5085069117496106
    endloop
  endfacet
  facet normal 0.0 0.0 1.0
    outer loop
      vertex 5.932687326074709 5.148514153669334 0.5085069117496106
      vertex 2.85553776507568 2.1607554227511048 0.5085069117496106
      vertex 5.9824955687695445 3.8186797883354977 0.5085069117496106
    endloop
  endfacet
  facet normal 0.0 0.0 1.0
    outer loop
      vertex 5.932687326074709 5.148514153669334 0.5085069117496106
      vertex 5.9824955687695445 3.8186797883354977 0.5085069117496106
      vertex 5.962650768928608 4.539861191150309 0.5085069117496106
    endloop
  endfacet
  facet normal 0.0 -0.0 1.0
    outer loop
      vertex 4.17677202743847 0.1494108261850359 0.5085069117496106
      vertex 4.391150956038476 0.24195965054504334 0.5085069117496106
      vertex 3.967274928651734 0.08373776814703036 0.5085069117496106
    endloop
  endfacet
  facet normal 0.0 -0.0 1.0
    outer loop
      vertex 3.967274928651734 0.08373776814703036 0.5085069117496106
      vertex 4.391150956038476 0.24195965054504334 0.5085069117496106
      vertex 2.8558358476642787 1.7878502248147288 0.5085069117496106
    endloop
  endfacet
  facet normal 0.0 0.0 1.0
    outer loop
      vertex 3.967274928651734 0.08373776814703036 0.5085069117496106
      vertex 2.8558358476642787 1.7878502248147288 0.5085069117496106
      vertex 3.747368863463141 0.036869938839724836 0.5085069117496106
    endloop
  endfacet
  facet normal 0.0 0.0 1.0
    outer loop
      vertex 3.747368863463141 0.036869938839724836 0.5085069117496106
      vertex 2.8558358476642787 1.7878502248147288 0.5085069117496106
      vertex 3.51635712039934 0.0 0.5085069117496106
    endloop
  endfacet
  facet normal -0.0 0.0 1.0
    outer loop
      vertex 0.22711355346290657 2.627748676288613 0.5085069117496106
      vertex 0.6435444670844241 2.497653731164745 0.5085069117496106
      vertex 0.44945843210821496 2.6792801079175357 0.5085069117496106
    endloop
  endfacet
  facet normal -0.0 0.0 1.0
    outer loop
      vertex 1.2203177877228446 3.150668301486937 0.5085069117496106
      vertex 1.289208812187763 2.4039497559489216 0.5085069117496106
      vertex 1.367502693493022 3.3251077195146297 0.5085069117496106
    endloop
  endfacet
  facet normal -0.0 0.0 1.0
    outer loop
      vertex 1.367502693493022 3.3251077195146297 0.5085069117496106
      vertex 1.289208812187763 2.4039497559489216 0.5085069117496106
      vertex 5.80222090926505 6.431968549377203 0.5085069117496106
    endloop
  endfacet
  facet normal 0.0 0.0 1.0
    outer loop
      vertex 1.367502693493022 3.3251077195146297 0.5085069117496106
      vertex 5.80222090926505 6.431968549377203 0.5085069117496106
      vertex 2.200213539641832 6.780456839047526 0.5085069117496106
    endloop
  endfacet
  facet normal 0.0 0.0 1.0
    outer loop
      vertex 2.200213539641832 6.780456839047526 0.5085069117496106
      vertex 5.80222090926505 6.431968549377203 0.5085069117496106
      vertex 5.718732567058479 6.660036646053598 0.5085069117496106
    endloop
  endfacet
  facet normal -0.0 0.0 1.0
    outer loop
      vertex 2.200213539641832 6.780456839047526 0.5085069117496106
      vertex 5.718732567058479 6.660036646053598 0.5085069117496106
      vertex 2.2144878806958386 6.833685595611525 0.5085069117496106
    endloop
  endfacet
  facet normal -0.0 0.0 1.0
    outer loop
      vertex 2.2144878806958386 6.833685595611525 0.5085069117496106
      vertex 5.718732567058479 6.660036646053598 0.5085069117496106
      vertex 5.613341297289695 6.873988818669927 0.5085069117496106
    endloop
  endfacet
  facet normal 0.0 0.0 1.0
    outer loop
      vertex 2.2144878806958386 6.833685595611525 0.5085069117496106
      vertex 5.613341297289695 6.873988818669927 0.5085069117496106
      vertex 2.2728836176622016 6.995245065431876 0.5085069117496106
    endloop
  endfacet
  facet normal -0.0 0.0 1.0
    outer loop
      vertex 2.2728836176622016 6.995245065431876 0.5085069117496106
      vertex 5.613341297289695 6.873988818669927 0.5085069117496106
      vertex 5.482532182493144 7.083934011239524 0.5085069117496106
    endloop
  endfacet
  facet normal 0.0 0.0 1.0
    outer loop
      vertex 2.2728836176622016 6.995245065431876 0.5085069117496106
      vertex 5.482532182493144 7.083934011239524 0.5085069117496106
      vertex 2.361680545665719 7.1653202569265 0.5085069117496106
    endloop
  endfacet
  facet normal -0.0 0.0 1.0
    outer loop
      vertex 2.361680545665719 7.1653202569265 0.5085069117496106
      vertex 5.482532182493144 7.083934011239524 0.5085069117496106
      vertex 5.328249548794455 7.284405867571476 0.5085069117496106
    endloop
  endfacet
  facet normal 0.0 0.0 1.0
    outer loop
      vertex 2.361680545665719 7.1653202569265 0.5085069117496106
      vertex 5.328249548794455 7.284405867571476 0.5085069117496106
      vertex 2.4768852632591387 7.3269599051437835 0.5085069117496106
    endloop
  endfacet
  facet normal -0.0 0.0 1.0
    outer loop
      vertex 2.4768852632591387 7.3269599051437835 0.5085069117496106
      vertex 5.328249548794455 7.284405867571476 0.5085069117496106
      vertex 5.154982093221935 7.46804155374741 0.5085069117496106
    endloop
  endfacet
  facet normal 0.0 0.0 1.0
    outer loop
      vertex 2.4768852632591387 7.3269599051437835 0.5085069117496106
      vertex 5.154982093221935 7.46804155374741 0.5085069117496106
      vertex 2.6185042364422126 7.478175715159779 0.5085069117496106
    endloop
  endfacet
  facet normal -0.0 0.0 1.0
    outer loop
      vertex 2.6185042364422126 7.478175715159779 0.5085069117496106
      vertex 5.154982093221935 7.46804155374741 0.5085069117496106
      vertex 4.968096595570305 7.628746218400456 0.5085069117496106
    endloop
  endfacet
  facet normal 0.0 0.0 1.0
    outer loop
      vertex 2.6185042364422126 7.478175715159779 0.5085069117496106
      vertex 4.968096595570305 7.628746218400456 0.5085069117496106
      vertex 2.78546378595601 7.6161633828817505 0.5085069117496106
    endloop
  endfacet
  facet normal 0.0 0.0 1.0
    outer loop
      vertex 2.78546378595601 7.6161633828817505 0.5085069117496106
      vertex 4.968096595570305 7.628746218400456 0.5085069117496106
      vertex 4.778849714808998 7.75874902302785 0.5085069117496106
    endloop
  endfacet
  facet normal 0.0 0.0 1.0
    outer loop
      vertex 2.78546378595601 7.6161633828817505 0.5085069117496106
      vertex 4.778849714808998 7.75874902302785 0.5085069117496106
      vertex 2.975022004605408 7.7375185594399145 0.5085069117496106
    endloop
  endfacet
  facet normal 0.0 0.0 1.0
    outer loop
      vertex 2.975022004605408 7.7375185594399145 0.5085069117496106
      vertex 4.778849714808998 7.75874902302785 0.5085069117496106
      vertex 4.580955205978463 7.863450370623023 0.5085069117496106
    endloop
  endfacet
  facet normal 0.0 0.0 1.0
    outer loop
      vertex 2.975022004605408 7.7375185594399145 0.5085069117496106
      vertex 4.580955205978463 7.863450370623023 0.5085069117496106
      vertex 3.182279604377805 7.838629983972403 0.5085069117496106
    endloop
  endfacet
  facet normal 0.0 0.0 1.0
    outer loop
      vertex 3.182279604377805 7.838629983972403 0.5085069117496106
      vertex 4.580955205978463 7.863450370623023 0.5085069117496106
      vertex 4.383827564718596 7.938020805970703 0.5085069117496106
    endloop
  endfacet
  facet normal 0.0 0.0 1.0
    outer loop
      vertex 3.182279604377805 7.838629983972403 0.5085069117496106
      vertex 4.383827564718596 7.938020805970703 0.5085069117496106
      vertex 3.3759408231702634 7.9090272630797065 0.5085069117496106
    endloop
  endfacet
  facet normal 0.0 0.0 1.0
    outer loop
      vertex 3.3759408231702634 7.9090272630797065 0.5085069117496106
      vertex 4.383827564718596 7.938020805970703 0.5085069117496106
      vertex 4.190344807519311 7.983036449648855 0.5085069117496106
    endloop
  endfacet
  facet normal 0.0 0.0 1.0
    outer loop
      vertex 3.3759408231702634 7.9090272630797065 0.5085069117496106
      vertex 4.190344807519311 7.983036449648855 0.5085069117496106
      vertex 3.597852964782124 7.96461934255331 0.5085069117496106
    endloop
  endfacet
  facet normal 0.0 0.0 1.0
    outer loop
      vertex 3.597852964782124 7.96461934255331 0.5085069117496106
      vertex 4.190344807519311 7.983036449648855 0.5085069117496106
      vertex 4.001976009524418 8.0 0.5085069117496106
    endloop
  endfacet
  facet normal 0.0 0.0 1.0
    outer loop
      vertex 3.597852964782124 7.96461934255331 0.5085069117496106
      vertex 4.001976009524418 8.0 0.5085069117496106
      vertex 3.81310221694884 7.994238794220366 0.5085069117496106
    endloop
  endfacet
  facet normal 0.0 0.0 1.0
    outer loop
      vertex 1.2203177877228446 3.150668301486937 0.5085069117496106
      vertex 1.052001671460936 2.9965178974831903 0.5085069117496106
      vertex 1.289208812187763 2.4039497559489216 0.5085069117496106
    endloop
  endfacet
  facet normal 0.0 0.0 1.0
    outer loop
      vertex 1.289208812187763 2.4039497559489216 0.5085069117496106
      vertex 1.052001671460936 2.9965178974831903 0.5085069117496106
      vertex 0.8653279353012064 2.8651960289062517 0.5085069117496106
    endloop
  endfacet
  facet normal 0.0 0.0 1.0
    outer loop
      vertex 1.289208812187763 2.4039497559489216 0.5085069117496106
      vertex 0.8653279353012064 2.8651960289062517 0.5085069117496106
      vertex 0.6435444670844241 2.497653731164745 0.5085069117496106
    endloop
  endfacet
  facet normal 0.0 0.0 1.0
    outer loop
      vertex 0.6435444670844241 2.497653731164745 0.5085069117496106
      vertex 0.8653279353012064 2.8651960289062517 0.5085069117496106
      vertex 0.6633708388260654 2.758866219273367 0.5085069117496106
    endloop
  endfacet
  facet normal 0.0 -0.0 1.0
    outer loop
      vertex 0.6435444670844241 2.497653731164745 0.5085069117496106
      vertex 0.6633708388260654 2.758866219273367 0.5085069117496106
      vertex 0.44945843210821496 2.6792801079175357 0.5085069117496106
    endloop
  endfacet
endsolid thingi10k_65610
