solid thingi10k_82059
  facet normal 0.0 -0.0 -1.0
    outer loop
      vertex 0.1362966948437281 5.035276180410086 0.0
      vertex 0.1362966948437281 2.9647238195899184 0.0
      vertex 0.0 4.000000000000001 0.0
    endloop
  endfacet
  facet normal 0.0 0.0 -1.0
    outer loop
      vertex 0.1362966948437281 2.9647238195899184 0.0
      vertex 0.1362966948437281 5.035276180410086 0.0
      vertex 0.5358983848622398 2.0 0.0
    endloop
  endfacet
  facet normal 0.0 0.0 -1.0
    outer loop
      vertex 0.5358983848622398 2.0 0.0
      vertex 0.1362966948437281 5.035276180410086 0.0
      vertex 0.5358983848622398 6.0 0.0
    endloop
  endfacet
  facet normal 0.0 0.0 -1.0
    outer loop
      vertex 0.5358983848622398 2.0 0.0
      vertex 0.5358983848622398 6.0 0.0
      vertex 1.1715728752538082 1.1715728752538082 0.0
    endloop
  endfacet
  facet normal 0.0 0.0 -1.0
    outer loop
      vertex 1.1715728752538082 1.1715728752538082 0.0
      vertex 0.5358983848622398 6.0 0.0
      vertex 1.1715728752538082 6.8284271247461925 0.0
    endloop
  endfacet
  facet normal 0.0 0.0 -1.0
    outer loop
      vertex 1.1715728752538082 1.1715728752538082 0.0
      vertex 1.1715728752538082 6.8284271247461925 0.0
      vertex 2.0 0.5358983848622398 0.0
    endloop
  endfacet
  facet normal 0.0 0.0 -1.0
    outer loop
      vertex 2.0 0.5358983848622398 0.0
      vertex 1.1715728752538082 6.8284271247461925 0.0
      vertex 2.0 7.464101615137761 0.0
    endloop
  endfacet
  facet normal 0.0 0.0 -1.0
    outer loop
      vertex 2.0 0.5358983848622398 0.0
      vertex 2.0 7.464101615137761 0.0
      vertex 2.964723819589914 0.1362966948437281 0.0
    endloop
  endfacet
  facet normal 0.0 0.0 -1.0
    outer loop
      vertex 2.964723819589914 0.1362966948437281 0.0
      vertex 2.0 7.464101615137761 0.0
      vertex 2.9647238195899166 7.863703305156272 0.0
    endloop
  endfacet
  facet normal 0.0 0.0 -1.0
    outer loop
      vertex 2.964723819589914 0.1362966948437281 0.0
      vertex 2.9647238195899166 7.863703305156272 0.0
      vertex 3.9999999999999996 0.0 0.0
    endloop
  endfacet
  facet normal 0.0 0.0 -1.0
    outer loop
      vertex 3.9999999999999996 0.0 0.0
      vertex 2.9647238195899166 7.863703305156272 0.0
      vertex 4.0 8.0 0.0
    endloop
  endfacet
  facet normal 0.0 0.0 -1.0
    outer loop
      vertex 3.9999999999999996 0.0 0.0
      vertex 4.0 8.0 0.0
      vertex 5.035276180410082 0.1362966948437281 0.0
    endloop
  endfacet
  facet normal 0.0 0.0 -1.0
    outer loop
      vertex 5.035276180410082 0.1362966948437281 0.0
      vertex 4.0 8.0 0.0
      vertex 5.035276180410084 7.863703305156272 0.0
    endloop
  endfacet
  facet normal 0.0 0.0 -1.0
    outer loop
      vertex 5.035276180410082 0.1362966948437281 0.0
      vertex 5.035276180410084 7.863703305156272 0.0
      vertex 6.0 0.5358983848622398 0.0
    endloop
  endfacet
  facet normal 0.0 0.0 -1.0
    outer loop
      vertex 6.0 0.5358983848622398 0.0
      vertex 5.035276180410084 7.863703305156272 0.0
      vertex 6.0 7.464101615137761 0.0
    endloop
  endfacet
  facet normal 0.0 0.0 -1.0
    outer loop
      vertex 6.0 0.5358983848622398 0.0
      vertex 6.0 7.464101615137761 0.0
      vertex 6.8284271247461925 1.1715728752538082 0.0
    endloop
  endfacet
  facet normal 0.0 0.0 -1.0
    outer loop
      vertex 6.8284271247461925 1.1715728752538082 0.0
      vertex 6.0 7.464101615137761 0.0
      vertex 6.8284271247461925 6.8284271247461925 0.0
    endloop
  endfacet
  facet normal 0.0 0.0 -1.0
    outer loop
      vertex 6.8284271247461925 1.1715728752538082 0.0
      vertex 6.8284271247461925 6.8284271247461925 0.0
      vertex 7.464101615137761 2.0 0.0
    endloop
  endfacet
  facet normal 0.0 0.0 -1.0
    outer loop
      vertex 7.464101615137761 2.0 0.0
      vertex 6.8284271247461925 6.8284271247461925 0.0
      vertex 7.464101615137761 6.0 0.0
    endloop
  endfacet
  facet normal 0.0 0.0 -1.0
    outer loop
      vertex 7.464101615137761 2.0 0.0
      vertex 7.464101615137761 6.0 0.0
      vertex 7.863703305156272 2.964723819589914 0.0
    endloop
  endfacet
  facet normal 0.0 0.0 -1.0
    outer loop
      vertex 7.863703305156272 2.964723819589914 0.0
      vertex 7.464101615137761 6.0 0.0
      vertex 7.863703305156272 5.035276180410084 0.0
    endloop
  endfacet
  facet normal 0.0 0.0 -1.0
    outer loop
      vertex 7.863703305156272 2.964723819589914 0.0
      vertex 7.863703305156272 5.035276180410084 0.0
      vertex 8.0 4.0 0.0
    endloop
  endfacet
  facet normal 0.0 -0.0 1.0
    outer loop
      vertex 0.1362966948437281 2.9647238195899184 0.16
      vertex 0.1362966948437281 5.035276180410086 0.16
      vertex 0.0 4.000000000000001 0.16
    endloop
  endfacet
  facet normal 0.0 0.0 1.0
    outer loop
      vertex 0.1362966948437281 5.035276180410086 0.16
      vertex 0.1362966948437281 2.9647238195899184 0.16
      vertex 0.5358983848622398 2.0 0.16
    endloop
  endfacet
  facet normal -0.0 0.0 1.0
    outer loop
      vertex 0.1362966948437281 5.035276180410086 0.16
      vertex 0.5358983848622398 2.0 0.16
      vertex 0.5358983848622398 6.0 0.16
    endloop
  endfacet
  facet normal 0.0 0.0 1.0
    outer loop
      vertex 0.5358983848622398 6.0 0.16
      vertex 0.5358983848622398 2.0 0.16
      vertex 1.1715728752538082 1.1715728752538082 0.16
    endloop
  endfacet
  facet normal -0.0 0.0 1.0
    outer loop
      vertex 0.5358983848622398 6.0 0.16
      vertex 1.1715728752538082 1.1715728752538082 0.16
      vertex 1.1715728752538082 6.8284271247461925 0.16
    endloop
  endfacet
  facet normal 0.0 0.0 1.0
    outer loop
      vertex 1.1715728752538082 6.8284271247461925 0.16
      vertex 1.1715728752538082 1.1715728752538082 0.16
      vertex 2.0 0.5358983848622398 0.16
    endloop
  endfacet
  facet normal -0.0 0.0 1.0
    outer loop
      vertex 1.1715728752538082 6.8284271247461925 0.16
      vertex 2.0 0.5358983848622398 0.16
      vertex 2.0 7.464101615137761 0.16
    endloop
  endfacet
  facet normal 0.0 0.0 1.0
    outer loop
      vertex 2.0 7.464101615137761 0.16
      vertex 2.0 0.5358983848622398 0.16
      vertex 2.964723819589914 0.1362966948437281 0.16
    endloop
  endfacet
  facet normal -0.0 0.0 1.0
    outer loop
      vertex 2.0 7.464101615137761 0.16
      vertex 2.964723819589914 0.1362966948437281 0.16
      vertex 2.9647238195899166 7.863703305156272 0.16
    endloop
  endfacet
  facet normal 0.0 0.0 1.0
    outer loop
      vertex 2.9647238195899166 7.863703305156272 0.16
      vertex 2.964723819589914 0.1362966948437281 0.16
      vertex 3.9999999999999996 0.0 0.16
    endloop
  endfacet
  facet normal 0.0 0.0 1.0
    outer loop
      vertex 2.9647238195899166 7.863703305156272 0.16
      vertex 3.9999999999999996 0.0 0.16
      vertex 3.68 4.0 0.16
    endloop
  endfacet
  facet normal 0.0 0.0 1.0
    outer loop
      vertex 3.68 4.0 0.16
      vertex 3.9999999999999996 0.0 0.16
      vertex 3.6909037355874976 3.9171779055671934 0.16
    endloop
  endfacet
  facet normal 0.0 0.0 1.0
    outer loop
      vertex 3.6909037355874976 3.9171779055671934 0.16
      vertex 3.9999999999999996 0.0 0.16
      vertex 3.7228718707889796 3.84 0.16
    endloop
  endfacet
  facet normal 0.0 0.0 1.0
    outer loop
      vertex 3.7228718707889796 3.84 0.16
      vertex 3.9999999999999996 0.0 0.16
      vertex 3.773725830020306 3.773725830020306 0.16
    endloop
  endfacet
  facet normal 0.0 0.0 1.0
    outer loop
      vertex 3.773725830020306 3.773725830020306 0.16
      vertex 3.9999999999999996 0.0 0.16
      vertex 3.84 3.7228718707889796 0.16
    endloop
  endfacet
  facet normal 0.0 0.0 1.0
    outer loop
      vertex 3.84 3.7228718707889796 0.16
      vertex 3.9999999999999996 0.0 0.16
      vertex 3.917177905567194 3.6909037355874976 0.16
    endloop
  endfacet
  facet normal 0.0 0.0 1.0
    outer loop
      vertex 3.917177905567194 3.6909037355874976 0.16
      vertex 3.9999999999999996 0.0 0.16
      vertex 4.0 3.68 0.16
    endloop
  endfacet
  facet normal 0.0 0.0 1.0
    outer loop
      vertex 4.0 3.68 0.16
      vertex 3.9999999999999996 0.0 0.16
      vertex 5.035276180410082 0.1362966948437281 0.16
    endloop
  endfacet
  facet normal -0.0 0.0 1.0
    outer loop
      vertex 4.0 3.68 0.16
      vertex 5.035276180410082 0.1362966948437281 0.16
      vertex 4.082822094432807 3.6909037355874976 0.16
    endloop
  endfacet
  facet normal -0.0 0.0 1.0
    outer loop
      vertex 4.082822094432807 3.6909037355874976 0.16
      vertex 5.035276180410082 0.1362966948437281 0.16
      vertex 4.16 3.7228718707889796 0.16
    endloop
  endfacet
  facet normal -0.0 0.0 1.0
    outer loop
      vertex 4.16 3.7228718707889796 0.16
      vertex 5.035276180410082 0.1362966948437281 0.16
      vertex 4.226274169979694 3.773725830020306 0.16
    endloop
  endfacet
  facet normal -0.0 0.0 1.0
    outer loop
      vertex 4.226274169979694 3.773725830020306 0.16
      vertex 5.035276180410082 0.1362966948437281 0.16
      vertex 4.277128129211021 3.84 0.16
    endloop
  endfacet
  facet normal -0.0 0.0 1.0
    outer loop
      vertex 4.277128129211021 3.84 0.16
      vertex 5.035276180410082 0.1362966948437281 0.16
      vertex 4.309096264412502 3.917177905567194 0.16
    endloop
  endfacet
  facet normal -0.0 0.0 1.0
    outer loop
      vertex 4.309096264412502 3.917177905567194 0.16
      vertex 5.035276180410082 0.1362966948437281 0.16
      vertex 4.32 4.0 0.16
    endloop
  endfacet
  facet normal 0.0 -0.0 1.0
    outer loop
      vertex 3.68 4.0 0.16
      vertex 4.0 8.0 0.16
      vertex 2.9647238195899166 7.863703305156272 0.16
    endloop
  endfacet
  facet normal 0.0 0.0 1.0
    outer loop
      vertex 4.0 8.0 0.16
      vertex 3.68 4.0 0.16
      vertex 3.6909037355874976 4.082822094432807 0.16
    endloop
  endfacet
  facet normal 0.0 0.0 1.0
    outer loop
      vertex 4.0 8.0 0.16
      vertex 3.6909037355874976 4.082822094432807 0.16
      vertex 3.7228718707889796 4.16 0.16
    endloop
  endfacet
  facet normal 0.0 0.0 1.0
    outer loop
      vertex 4.0 8.0 0.16
      vertex 3.7228718707889796 4.16 0.16
      vertex 3.7737258300203043 4.226274169979694 0.16
    endloop
  endfacet
  facet normal 0.0 0.0 1.0
    outer loop
      vertex 4.0 8.0 0.16
      vertex 3.7737258300203043 4.226274169979694 0.16
      vertex 3.84 4.277128129211021 0.16
    endloop
  endfacet
  facet normal 0.0 0.0 1.0
    outer loop
      vertex 4.0 8.0 0.16
      vertex 3.84 4.277128129211021 0.16
      vertex 3.9171779055671934 4.309096264412502 0.16
    endloop
  endfacet
  facet normal 0.0 0.0 1.0
    outer loop
      vertex 4.0 8.0 0.16
      vertex 3.9171779055671934 4.309096264412502 0.16
      vertex 4.0 4.32 0.16
    endloop
  endfacet
  facet normal 0.0 0.0 1.0
    outer loop
      vertex 4.0 8.0 0.16
      vertex 4.0 4.32 0.16
      vertex 4.082822094432807 4.309096264412502 0.16
    endloop
  endfacet
  facet normal 0.0 0.0 1.0
    outer loop
      vertex 4.0 8.0 0.16
      vertex 4.082822094432807 4.309096264412502 0.16
      vertex 5.035276180410084 7.863703305156272 0.16
    endloop
  endfacet
  facet normal 0.0 0.0 1.0
    outer loop
      vertex 5.035276180410084 7.863703305156272 0.16
      vertex 4.082822094432807 4.309096264412502 0.16
      vertex 4.159999999999999 4.277128129211021 0.16
    endloop
  endfacet
  facet normal 0.0 0.0 1.0
    outer loop
      vertex 5.035276180410084 7.863703305156272 0.16
      vertex 4.159999999999999 4.277128129211021 0.16
      vertex 4.226274169979694 4.226274169979696 0.16
    endloop
  endfacet
  facet normal 0.0 0.0 1.0
    outer loop
      vertex 5.035276180410084 7.863703305156272 0.16
      vertex 4.226274169979694 4.226274169979696 0.16
      vertex 4.277128129211021 4.16 0.16
    endloop
  endfacet
  facet normal 0.0 0.0 1.0
    outer loop
      vertex 5.035276180410084 7.863703305156272 0.16
      vertex 4.277128129211021 4.16 0.16
      vertex 4.309096264412502 4.082822094432807 0.16
    endloop
  endfacet
  facet normal 0.0 0.0 1.0
    outer loop
      vertex 5.035276180410084 7.863703305156272 0.16
      vertex 4.309096264412502 4.082822094432807 0.16
      vertex 4.32 4.0 0.16
    endloop
  endfacet
  facet normal 0.0 0.0 1.0
    outer loop
      vertex 5.035276180410084 7.863703305156272 0.16
      vertex 4.32 4.0 0.16
      vertex 5.035276180410082 0.1362966948437281 0.16
    endloop
  endfacet
  facet normal 0.0 0.0 1.0
    outer loop
      vertex 5.035276180410084 7.863703305156272 0.16
      vertex 5.035276180410082 0.1362966948437281 0.16
      vertex 6.0 0.5358983848622398 0.16
    endloop
  endfacet
  facet normal 0.0 0.0 1.0
    outer loop
      vertex 5.035276180410084 7.863703305156272 0.16
      vertex 6.0 0.5358983848622398 0.16
      vertex 6.0 7.464101615137761 0.16
    endloop
  endfacet
  facet normal 0.0 0.0 1.0
    outer loop
      vertex 6.0 7.464101615137761 0.16
      vertex 6.0 0.5358983848622398 0.16
      vertex 6.8284271247461925 1.1715728752538082 0.16
    endloop
  endfacet
  facet normal 0.0 0.0 1.0
    outer loop
      vertex 6.0 7.464101615137761 0.16
      vertex 6.8284271247461925 1.1715728752538082 0.16
      vertex 6.8284271247461925 6.8284271247461925 0.16
    endloop
  endfacet
  facet normal 0.0 0.0 1.0
    outer loop
      vertex 6.8284271247461925 6.8284271247461925 0.16
      vertex 6.8284271247461925 1.1715728752538082 0.16
      vertex 7.464101615137761 2.0 0.16
    endloop
  endfacet
  facet normal 0.0 0.0 1.0
    outer loop
      vertex 6.8284271247461925 6.8284271247461925 0.16
      vertex 7.464101615137761 2.0 0.16
      vertex 7.464101615137761 6.0 0.16
    endloop
  endfacet
  facet normal 0.0 0.0 1.0
    outer loop
      vertex 7.464101615137761 6.0 0.16
      vertex 7.464101615137761 2.0 0.16
      vertex 7.863703305156272 2.964723819589914 0.16
    endloop
  endfacet
  facet normal 0.0 0.0 1.0
    outer loop
      vertex 7.464101615137761 6.0 0.16
      vertex 7.863703305156272 2.964723819589914 0.16
      vertex 7.863703305156272 5.035276180410084 0.16
    endloop
  endfacet
  facet normal 0.0 0.0 1.0
    outer loop
      vertex 7.863703305156272 5.035276180410084 0.16
      vertex 7.863703305156272 2.964723819589914 0.16
      vertex 8.0 4.0 0.16
    endloop
  endfacet
  facet normal 0.9914448613738102 0.13052619222005266 0.0
    outer loop
      vertex 7.863703305156272 5.035276180410084 0.0
      vertex 8.0 4.0 0.16
      vertex 8.0 4.0 0.0
    endloop
  endfacet
  facet normal 0.9914448613738102 0.13052619222005266 0.0
    outer loop
      vertex 8.0 4.0 0.16
      vertex 7.863703305156272 5.035276180410084 0.0
      vertex 7.863703305156272 5.035276180410084 0.16
    endloop
  endfacet
  facet normal 0.9914448613738104 -0.1305261922200524 0.0
    outer loop
      vertex 8.0 4.0 0.0
      vertex 7.863703305156272 2.964723819589914 0.16
      vertex 7.863703305156272 2.964723819589914 0.0
    endloop
  endfacet
  facet normal 0.9914448613738104 -0.1305261922200524 0.0
    outer loop
      vertex 7.863703305156272 2.964723819589914 0.16
      vertex 8.0 4.0 0.0
      vertex 8.0 4.0 0.16
    endloop
  endfacet
  facet normal 0.9238795325112888 -0.38268343236508484 0.0
    outer loop
      vertex 7.863703305156272 2.964723819589914 0.0
      vertex 7.464101615137761 2.0 0.16
      vertex 7.464101615137761 2.0 0.0
    endloop
  endfacet
  facet normal 0.9238795325112888 -0.38268343236508484 0.0
    outer loop
      vertex 7.464101615137761 2.0 0.16
      vertex 7.863703305156272 2.964723819589914 0.0
      vertex 7.863703305156272 2.964723819589914 0.16
    endloop
  endfacet
  facet normal 0.793353340291234 -0.608761429008722 0.0
    outer loop
      vertex 7.464101615137761 2.0 0.0
      vertex 6.8284271247461925 1.1715728752538082 0.16
      vertex 6.8284271247461925 1.1715728752538082 0.0
    endloop
  endfacet
  facet normal 0.793353340291234 -0.608761429008722 0.0
    outer loop
      vertex 6.8284271247461925 1.1715728752538082 0.16
      vertex 7.464101615137761 2.0 0.0
      vertex 7.464101615137761 2.0 0.16
    endloop
  endfacet
  facet normal 0.6087614290087219 -0.7933533402912344 0.0
    outer loop
      vertex 6.8284271247461925 1.1715728752538082 0.16
      vertex 6.0 0.5358983848622398 0.0
      vertex 6.8284271247461925 1.1715728752538082 0.0
    endloop
  endfacet
  facet normal 0.6087614290087219 -0.7933533402912344 0.0
    outer loop
      vertex 6.0 0.5358983848622398 0.0
      vertex 6.8284271247461925 1.1715728752538082 0.16
      vertex 6.0 0.5358983848622398 0.16
    endloop
  endfacet
  facet normal 0.3826834323650839 -0.9238795325112893 0.0
    outer loop
      vertex 6.0 0.5358983848622398 0.16
      vertex 5.035276180410082 0.1362966948437281 0.0
      vertex 6.0 0.5358983848622398 0.0
    endloop
  endfacet
  facet normal 0.3826834323650839 -0.9238795325112893 0.0
    outer loop
      vertex 5.035276180410082 0.1362966948437281 0.0
      vertex 6.0 0.5358983848622398 0.16
      vertex 5.035276180410082 0.1362966948437281 0.16
    endloop
  endfacet
  facet normal 0.13052619222005282 -0.9914448613738102 0.0
    outer loop
      vertex 5.035276180410082 0.1362966948437281 0.16
      vertex 3.9999999999999996 0.0 0.0
      vertex 5.035276180410082 0.1362966948437281 0.0
    endloop
  endfacet
  facet normal 0.13052619222005282 -0.9914448613738102 0.0
    outer loop
      vertex 3.9999999999999996 0.0 0.0
      vertex 5.035276180410082 0.1362966948437281 0.16
      vertex 3.9999999999999996 0.0 0.16
    endloop
  endfacet
  facet normal -0.13052619222005246 -0.9914448613738102 -0.0
    outer loop
      vertex 3.9999999999999996 0.0 0.16
      vertex 2.964723819589914 0.1362966948437281 0.0
      vertex 3.9999999999999996 0.0 0.0
    endloop
  endfacet
  facet normal -0.13052619222005246 -0.9914448613738102 0.0
    outer loop
      vertex 2.964723819589914 0.1362966948437281 0.0
      vertex 3.9999999999999996 0.0 0.16
      vertex 2.964723819589914 0.1362966948437281 0.16
    endloop
  endfacet
  facet normal -0.38268343236508523 -0.9238795325112887 -0.0
    outer loop
      vertex 2.964723819589914 0.1362966948437281 0.16
      vertex 2.0 0.5358983848622398 0.0
      vertex 2.964723819589914 0.1362966948437281 0.0
    endloop
  endfacet
  facet normal -0.38268343236508523 -0.9238795325112887 0.0
    outer loop
      vertex 2.0 0.5358983848622398 0.0
      vertex 2.964723819589914 0.1362966948437281 0.16
      vertex 2.0 0.5358983848622398 0.16
    endloop
  endfacet
  facet normal -0.6087614290087222 -0.793353340291234 -0.0
    outer loop
      vertex 2.0 0.5358983848622398 0.16
      vertex 1.1715728752538082 1.1715728752538082 0.0
      vertex 2.0 0.5358983848622398 0.0
    endloop
  endfacet
  facet normal -0.6087614290087222 -0.793353340291234 0.0
    outer loop
      vertex 1.1715728752538082 1.1715728752538082 0.0
      vertex 2.0 0.5358983848622398 0.16
      vertex 1.1715728752538082 1.1715728752538082 0.16
    endloop
  endfacet
  facet normal -0.793353340291234 -0.6087614290087222 0.0
    outer loop
      vertex 0.5358983848622398 2.0 0.16
      vertex 1.1715728752538082 1.1715728752538082 0.0
      vertex 1.1715728752538082 1.1715728752538082 0.16
    endloop
  endfacet
  facet normal -0.793353340291234 -0.6087614290087222 0.0
    outer loop
      vertex 1.1715728752538082 1.1715728752538082 0.0
      vertex 0.5358983848622398 2.0 0.16
      vertex 0.5358983848622398 2.0 0.0
    endloop
  endfacet
  facet normal -0.9238795325112893 -0.3826834323650837 0.0
    outer loop
      vertex 0.1362966948437281 2.9647238195899184 0.16
      vertex 0.5358983848622398 2.0 0.0
      vertex 0.5358983848622398 2.0 0.16
    endloop
  endfacet
  facet normal -0.9238795325112893 -0.3826834323650837 0.0
    outer loop
      vertex 0.5358983848622398 2.0 0.0
      vertex 0.1362966948437281 2.9647238195899184 0.16
      vertex 0.1362966948437281 2.9647238195899184 0.0
    endloop
  endfacet
  facet normal -0.9914448613738102 -0.13052619222005282 0.0
    outer loop
      vertex 0.0 4.000000000000001 0.16
      vertex 0.1362966948437281 2.9647238195899184 0.0
      vertex 0.1362966948437281 2.9647238195899184 0.16
    endloop
  endfacet
  facet normal -0.9914448613738102 -0.13052619222005282 0.0
    outer loop
      vertex 0.1362966948437281 2.9647238195899184 0.0
      vertex 0.0 4.000000000000001 0.16
      vertex 0.0 4.000000000000001 0.0
    endloop
  endfacet
  facet normal -0.9914448613738102 0.13052619222005257 0.0
    outer loop
      vertex 0.1362966948437281 5.035276180410086 0.16
      vertex 0.0 4.000000000000001 0.0
      vertex 0.0 4.000000000000001 0.16
    endloop
  endfacet
  facet normal -0.9914448613738102 0.13052619222005257 0.0
    outer loop
      vertex 0.0 4.000000000000001 0.0
      vertex 0.1362966948437281 5.035276180410086 0.16
      vertex 0.1362966948437281 5.035276180410086 0.0
    endloop
  endfacet
  facet normal -0.9238795325112887 0.382683432365085 0.0
    outer loop
      vertex 0.5358983848622398 6.0 0.16
      vertex 0.1362966948437281 5.035276180410086 0.0
      vertex 0.1362966948437281 5.035276180410086 0.16
    endloop
  endfacet
  facet normal -0.9238795325112887 0.382683432365085 0.0
    outer loop
      vertex 0.1362966948437281 5.035276180410086 0.0
      vertex 0.5358983848622398 6.0 0.16
      vertex 0.5358983848622398 6.0 0.0
    endloop
  endfacet
  facet normal -0.7933533402912344 0.6087614290087219 0.0
    outer loop
      vertex 1.1715728752538082 6.8284271247461925 0.16
      vertex 0.5358983848622398 6.0 0.0
      vertex 0.5358983848622398 6.0 0.16
    endloop
  endfacet
  facet normal -0.7933533402912344 0.6087614290087219 0.0
    outer loop
      vertex 0.5358983848622398 6.0 0.0
      vertex 1.1715728752538082 6.8284271247461925 0.16
      vertex 1.1715728752538082 6.8284271247461925 0.0
    endloop
  endfacet
  facet normal -0.608761429008722 0.793353340291234 0.0
    outer loop
      vertex 1.1715728752538082 6.8284271247461925 0.16
      vertex 2.0 7.464101615137761 0.0
      vertex 1.1715728752538082 6.8284271247461925 0.0
    endloop
  endfacet
  facet normal -0.608761429008722 0.793353340291234 0.0
    outer loop
      vertex 2.0 7.464101615137761 0.0
      vertex 1.1715728752538082 6.8284271247461925 0.16
      vertex 2.0 7.464101615137761 0.16
    endloop
  endfacet
  facet normal -0.38268343236508395 0.9238795325112892 0.0
    outer loop
      vertex 2.0 7.464101615137761 0.16
      vertex 2.9647238195899166 7.863703305156272 0.0
      vertex 2.0 7.464101615137761 0.0
    endloop
  endfacet
  facet normal -0.38268343236508395 0.9238795325112892 0.0
    outer loop
      vertex 2.9647238195899166 7.863703305156272 0.0
      vertex 2.0 7.464101615137761 0.16
      vertex 2.9647238195899166 7.863703305156272 0.16
    endloop
  endfacet
  facet normal -0.13052619222005268 0.9914448613738102 0.0
    outer loop
      vertex 2.9647238195899166 7.863703305156272 0.16
      vertex 4.0 8.0 0.0
      vertex 2.9647238195899166 7.863703305156272 0.0
    endloop
  endfacet
  facet normal -0.13052619222005268 0.9914448613738102 0.0
    outer loop
      vertex 4.0 8.0 0.0
      vertex 2.9647238195899166 7.863703305156272 0.16
      vertex 4.0 8.0 0.16
    endloop
  endfacet
  facet normal 0.13052619222005266 0.9914448613738102 0.0
    outer loop
      vertex 4.0 8.0 0.16
      vertex 5.035276180410084 7.863703305156272 0.0
      vertex 4.0 8.0 0.0
    endloop
  endfacet
  facet normal 0.13052619222005266 0.9914448613738102 -0.0
    outer loop
      vertex 5.035276180410084 7.863703305156272 0.0
      vertex 4.0 8.0 0.16
      vertex 5.035276180410084 7.863703305156272 0.16
    endloop
  endfacet
  facet normal 0.3826834323650841 0.9238795325112892 0.0
    outer loop
      vertex 5.035276180410084 7.863703305156272 0.16
      vertex 6.0 7.464101615137761 0.0
      vertex 5.035276180410084 7.863703305156272 0.0
    endloop
  endfacet
  facet normal 0.3826834323650841 0.9238795325112892 -0.0
    outer loop
      vertex 6.0 7.464101615137761 0.0
      vertex 5.035276180410084 7.863703305156272 0.16
      vertex 6.0 7.464101615137761 0.16
    endloop
  endfacet
  facet normal 0.6087614290087217 0.7933533402912344 0.0
    outer loop
      vertex 6.0 7.464101615137761 0.16
      vertex 6.8284271247461925 6.8284271247461925 0.0
      vertex 6.0 7.464101615137761 0.0
    endloop
  endfacet
  facet normal 0.6087614290087217 0.7933533402912344 -0.0
    outer loop
      vertex 6.8284271247461925 6.8284271247461925 0.0
      vertex 6.0 7.464101615137761 0.16
      vertex 6.8284271247461925 6.8284271247461925 0.16
    endloop
  endfacet
  facet normal 0.7933533402912344 0.6087614290087217 0.0
    outer loop
      vertex 6.8284271247461925 6.8284271247461925 0.0
      vertex 7.464101615137761 6.0 0.16
      vertex 7.464101615137761 6.0 0.0
    endloop
  endfacet
  facet normal 0.7933533402912344 0.6087614290087217 0.0
    outer loop
      vertex 7.464101615137761 6.0 0.16
      vertex 6.8284271247461925 6.8284271247461925 0.0
      vertex 6.8284271247461925 6.8284271247461925 0.16
    endloop
  endfacet
  facet normal 0.9238795325112892 0.3826834323650841 0.0
    outer loop
      vertex 7.464101615137761 6.0 0.0
      vertex 7.863703305156272 5.035276180410084 0.16
      vertex 7.863703305156272 5.035276180410084 0.0
    endloop
  endfacet
  facet normal 0.9238795325112892 0.3826834323650841 0.0
    outer loop
      vertex 7.863703305156272 5.035276180410084 0.16
      vertex 7.464101615137761 6.0 0.0
      vertex 7.464101615137761 6.0 0.16
    endloop
  endfacet
  facet normal 0.0 -0.0 1.0
    outer loop
      vertex 3.6909037355874976 3.9171779055671934 0.96
      vertex 3.6909037355874976 4.082822094432807 0.96
      vertex 3.68 4.0 0.96
    endloop
  endfacet
  facet normal -0.0 0.0 1.0
    outer loop
      vertex 3.6909037355874976 4.082822094432807 0.96
      vertex 3.6909037355874976 3.9171779055671934 0.96
      vertex 3.7228718707889796 4.16 0.96
    endloop
  endfacet
  facet normal 0.0 0.0 1.0
    outer loop
      vertex 3.7228718707889796 4.16 0.96
      vertex 3.6909037355874976 3.9171779055671934 0.96
      vertex 3.7228718707889796 3.84 0.96
    endloop
  endfacet
  facet normal -0.0 0.0 1.0
    outer loop
      vertex 3.7228718707889796 4.16 0.96
      vertex 3.7228718707889796 3.84 0.96
      vertex 3.7737258300203043 4.226274169979694 0.96
    endloop
  endfacet
  facet normal 0.0 0.0 1.0
    outer loop
      vertex 3.7737258300203043 4.226274169979694 0.96
      vertex 3.7228718707889796 3.84 0.96
      vertex 3.773725830020306 3.773725830020306 0.96
    endloop
  endfacet
  facet normal -0.0 0.0 1.0
    outer loop
      vertex 3.7737258300203043 4.226274169979694 0.96
      vertex 3.773725830020306 3.773725830020306 0.96
      vertex 3.84 4.277128129211021 0.96
    endloop
  endfacet
  facet normal 0.0 0.0 1.0
    outer loop
      vertex 3.84 4.277128129211021 0.96
      vertex 3.773725830020306 3.773725830020306 0.96
      vertex 3.84 3.7228718707889796 0.96
    endloop
  endfacet
  facet normal -0.0 0.0 1.0
    outer loop
      vertex 3.84 4.277128129211021 0.96
      vertex 3.84 3.7228718707889796 0.96
      vertex 3.9171779055671934 4.309096264412502 0.96
    endloop
  endfacet
  facet normal 0.0 0.0 1.0
    outer loop
      vertex 3.9171779055671934 4.309096264412502 0.96
      vertex 3.84 3.7228718707889796 0.96
      vertex 3.917177905567194 3.6909037355874976 0.96
    endloop
  endfacet
  facet normal -0.0 0.0 1.0
    outer loop
      vertex 3.9171779055671934 4.309096264412502 0.96
      vertex 3.917177905567194 3.6909037355874976 0.96
      vertex 4.0 4.32 0.96
    endloop
  endfacet
  facet normal 0.0 0.0 1.0
    outer loop
      vertex 4.0 4.32 0.96
      vertex 3.917177905567194 3.6909037355874976 0.96
      vertex 4.0 3.68 0.96
    endloop
  endfacet
  facet normal 0.0 0.0 1.0
    outer loop
      vertex 4.0 4.32 0.96
      vertex 4.0 3.68 0.96
      vertex 4.082822094432807 4.309096264412502 0.96
    endloop
  endfacet
  facet normal 0.0 0.0 1.0
    outer loop
      vertex 4.082822094432807 4.309096264412502 0.96
      vertex 4.0 3.68 0.96
      vertex 4.082822094432807 3.6909037355874976 0.96
    endloop
  endfacet
  facet normal 0.0 0.0 1.0
    outer loop
      vertex 4.082822094432807 4.309096264412502 0.96
      vertex 4.082822094432807 3.6909037355874976 0.96
      vertex 4.159999999999999 4.277128129211021 0.96
    endloop
  endfacet
  facet normal 0.0 0.0 1.0
    outer loop
      vertex 4.159999999999999 4.277128129211021 0.96
      vertex 4.082822094432807 3.6909037355874976 0.96
      vertex 4.16 3.7228718707889796 0.96
    endloop
  endfacet
  facet normal 0.0 0.0 1.0
    outer loop
      vertex 4.159999999999999 4.277128129211021 0.96
      vertex 4.16 3.7228718707889796 0.96
      vertex 4.226274169979694 4.226274169979696 0.96
    endloop
  endfacet
  facet normal 0.0 0.0 1.0
    outer loop
      vertex 4.226274169979694 4.226274169979696 0.96
      vertex 4.16 3.7228718707889796 0.96
      vertex 4.226274169979694 3.773725830020306 0.96
    endloop
  endfacet
  facet normal 0.0 0.0 1.0
    outer loop
      vertex 4.226274169979694 4.226274169979696 0.96
      vertex 4.226274169979694 3.773725830020306 0.96
      vertex 4.277128129211021 4.16 0.96
    endloop
  endfacet
  facet normal 0.0 0.0 1.0
    outer loop
      vertex 4.277128129211021 4.16 0.96
      vertex 4.226274169979694 3.773725830020306 0.96
      vertex 4.277128129211021 3.84 0.96
    endloop
  endfacet
  facet normal 0.0 0.0 1.0
    outer loop
      vertex 4.277128129211021 4.16 0.96
      vertex 4.277128129211021 3.84 0.96
      vertex 4.309096264412502 4.082822094432807 0.96
    endloop
  endfacet
  facet normal 0.0 0.0 1.0
    outer loop
      vertex 4.309096264412502 4.082822094432807 0.96
      vertex 4.277128129211021 3.84 0.96
      vertex 4.309096264412502 3.917177905567194 0.96
    endloop
  endfacet
  facet normal 0.0 0.0 1.0
    outer loop
      vertex 4.309096264412502 4.082822094432807 0.96
      vertex 4.309096264412502 3.917177905567194 0.96
      vertex 4.32 4.0 0.96
    endloop
  endfacet
  facet normal 0.9914448613738099 0.130526192220054 0.0
    outer loop
      vertex 4.309096264412502 4.082822094432807 0.16
      vertex 4.32 4.0 0.96
      vertex 4.32 4.0 0.16
    endloop
  endfacet
  facet normal 0.9914448613738099 0.130526192220054 0.0
    outer loop
      vertex 4.32 4.0 0.96
      vertex 4.309096264412502 4.082822094432807 0.16
      vertex 4.309096264412502 4.082822094432807 0.96
    endloop
  endfacet
  facet normal 0.9238795325112886 0.3826834323650854 0.0
    outer loop
      vertex 4.277128129211021 4.16 0.16
      vertex 4.309096264412502 4.082822094432807 0.96
      vertex 4.309096264412502 4.082822094432807 0.16
    endloop
  endfacet
  facet normal 0.9238795325112886 0.3826834323650854 0.0
    outer loop
      vertex 4.309096264412502 4.082822094432807 0.96
      vertex 4.277128129211021 4.16 0.16
      vertex 4.277128129211021 4.16 0.96
    endloop
  endfacet
  facet normal 0.7933533402912315 0.6087614290087251 0.0
    outer loop
      vertex 4.226274169979694 4.226274169979696 0.16
      vertex 4.277128129211021 4.16 0.96
      vertex 4.277128129211021 4.16 0.16
    endloop
  endfacet
  facet normal 0.7933533402912315 0.6087614290087251 0.0
    outer loop
      vertex 4.277128129211021 4.16 0.96
      vertex 4.226274169979694 4.226274169979696 0.16
      vertex 4.226274169979694 4.226274169979696 0.96
    endloop
  endfacet
  facet normal 0.6087614290087169 0.7933533402912379 0.0
    outer loop
      vertex 4.159999999999999 4.277128129211021 0.96
      vertex 4.226274169979694 4.226274169979696 0.16
      vertex 4.159999999999999 4.277128129211021 0.16
    endloop
  endfacet
  facet normal 0.6087614290087169 0.7933533402912379 -0.0
    outer loop
      vertex 4.226274169979694 4.226274169979696 0.16
      vertex 4.159999999999999 4.277128129211021 0.96
      vertex 4.226274169979694 4.226274169979696 0.96
    endloop
  endfacet
  facet normal 0.3826834323650891 0.9238795325112871 0.0
    outer loop
      vertex 4.082822094432807 4.309096264412502 0.96
      vertex 4.159999999999999 4.277128129211021 0.16
      vertex 4.082822094432807 4.309096264412502 0.16
    endloop
  endfacet
  facet normal 0.3826834323650891 0.9238795325112871 -0.0
    outer loop
      vertex 4.159999999999999 4.277128129211021 0.16
      vertex 4.082822094432807 4.309096264412502 0.96
      vertex 4.159999999999999 4.277128129211021 0.96
    endloop
  endfacet
  facet normal 0.130526192220054 0.9914448613738099 0.0
    outer loop
      vertex 4.0 4.32 0.96
      vertex 4.082822094432807 4.309096264412502 0.16
      vertex 4.0 4.32 0.16
    endloop
  endfacet
  facet normal 0.130526192220054 0.9914448613738099 -0.0
    outer loop
      vertex 4.082822094432807 4.309096264412502 0.16
      vertex 4.0 4.32 0.96
      vertex 4.082822094432807 4.309096264412502 0.96
    endloop
  endfacet
  facet normal -0.130526192220054 0.9914448613738099 0.0
    outer loop
      vertex 3.9171779055671934 4.309096264412502 0.96
      vertex 4.0 4.32 0.16
      vertex 3.9171779055671934 4.309096264412502 0.16
    endloop
  endfacet
  facet normal -0.130526192220054 0.9914448613738099 0.0
    outer loop
      vertex 4.0 4.32 0.16
      vertex 3.9171779055671934 4.309096264412502 0.96
      vertex 4.0 4.32 0.96
    endloop
  endfacet
  facet normal -0.3826834323650854 0.9238795325112886 0.0
    outer loop
      vertex 3.84 4.277128129211021 0.96
      vertex 3.9171779055671934 4.309096264412502 0.16
      vertex 3.84 4.277128129211021 0.16
    endloop
  endfacet
  facet normal -0.3826834323650854 0.9238795325112886 0.0
    outer loop
      vertex 3.9171779055671934 4.309096264412502 0.16
      vertex 3.84 4.277128129211021 0.96
      vertex 3.9171779055671934 4.309096264412502 0.96
    endloop
  endfacet
  facet normal -0.6087614290087278 0.7933533402912297 0.0
    outer loop
      vertex 3.7737258300203043 4.226274169979694 0.96
      vertex 3.84 4.277128129211021 0.16
      vertex 3.7737258300203043 4.226274169979694 0.16
    endloop
  endfacet
  facet normal -0.6087614290087278 0.7933533402912297 0.0
    outer loop
      vertex 3.84 4.277128129211021 0.16
      vertex 3.7737258300203043 4.226274169979694 0.96
      vertex 3.84 4.277128129211021 0.96
    endloop
  endfacet
  facet normal -0.7933533402912339 0.6087614290087221 0.0
    outer loop
      vertex 3.7737258300203043 4.226274169979694 0.96
      vertex 3.7228718707889796 4.16 0.16
      vertex 3.7228718707889796 4.16 0.96
    endloop
  endfacet
  facet normal -0.7933533402912339 0.6087614290087221 0.0
    outer loop
      vertex 3.7228718707889796 4.16 0.16
      vertex 3.7737258300203043 4.226274169979694 0.96
      vertex 3.7737258300203043 4.226274169979694 0.16
    endloop
  endfacet
  facet normal -0.9238795325112849 0.38268343236509444 0.0
    outer loop
      vertex 3.7228718707889796 4.16 0.96
      vertex 3.6909037355874976 4.082822094432807 0.16
      vertex 3.6909037355874976 4.082822094432807 0.96
    endloop
  endfacet
  facet normal -0.9238795325112849 0.38268343236509444 0.0
    outer loop
      vertex 3.6909037355874976 4.082822094432807 0.16
      vertex 3.7228718707889796 4.16 0.96
      vertex 3.7228718707889796 4.16 0.16
    endloop
  endfacet
  facet normal -0.9914448613738114 0.13052619222004358 0.0
    outer loop
      vertex 3.6909037355874976 4.082822094432807 0.96
      vertex 3.68 4.0 0.16
      vertex 3.68 4.0 0.96
    endloop
  endfacet
  facet normal -0.9914448613738114 0.13052619222004358 0.0
    outer loop
      vertex 3.68 4.0 0.16
      vertex 3.6909037355874976 4.082822094432807 0.96
      vertex 3.6909037355874976 4.082822094432807 0.16
    endloop
  endfacet
  facet normal -0.9914448613738114 -0.13052619222004358 0.0
    outer loop
      vertex 3.68 4.0 0.96
      vertex 3.6909037355874976 3.9171779055671934 0.16
      vertex 3.6909037355874976 3.9171779055671934 0.96
    endloop
  endfacet
  facet normal -0.9914448613738114 -0.13052619222004358 0.0
    outer loop
      vertex 3.6909037355874976 3.9171779055671934 0.16
      vertex 3.68 4.0 0.96
      vertex 3.68 4.0 0.16
    endloop
  endfacet
  facet normal -0.9238795325112849 -0.38268343236509444 0.0
    outer loop
      vertex 3.6909037355874976 3.9171779055671934 0.96
      vertex 3.7228718707889796 3.84 0.16
      vertex 3.7228718707889796 3.84 0.96
    endloop
  endfacet
  facet normal -0.9238795325112849 -0.38268343236509444 0.0
    outer loop
      vertex 3.7228718707889796 3.84 0.16
      vertex 3.6909037355874976 3.9171779055671934 0.96
      vertex 3.6909037355874976 3.9171779055671934 0.16
    endloop
  endfacet
  facet normal -0.7933533402912217 -0.6087614290087381 0.0
    outer loop
      vertex 3.7228718707889796 3.84 0.96
      vertex 3.773725830020306 3.773725830020306 0.16
      vertex 3.773725830020306 3.773725830020306 0.96
    endloop
  endfacet
  facet normal -0.7933533402912217 -0.6087614290087381 0.0
    outer loop
      vertex 3.773725830020306 3.773725830020306 0.16
      vertex 3.7228718707889796 3.84 0.96
      vertex 3.7228718707889796 3.84 0.16
    endloop
  endfacet
  facet normal -0.6087614290087381 -0.7933533402912217 -0.0
    outer loop
      vertex 3.84 3.7228718707889796 0.96
      vertex 3.773725830020306 3.773725830020306 0.16
      vertex 3.84 3.7228718707889796 0.16
    endloop
  endfacet
  facet normal -0.6087614290087381 -0.7933533402912217 0.0
    outer loop
      vertex 3.773725830020306 3.773725830020306 0.16
      vertex 3.84 3.7228718707889796 0.96
      vertex 3.773725830020306 3.773725830020306 0.96
    endloop
  endfacet
  facet normal -0.3826834323650926 -0.9238795325112857 -0.0
    outer loop
      vertex 3.917177905567194 3.6909037355874976 0.96
      vertex 3.84 3.7228718707889796 0.16
      vertex 3.917177905567194 3.6909037355874976 0.16
    endloop
  endfacet
  facet normal -0.3826834323650926 -0.9238795325112857 0.0
    outer loop
      vertex 3.84 3.7228718707889796 0.16
      vertex 3.917177905567194 3.6909037355874976 0.96
      vertex 3.84 3.7228718707889796 0.96
    endloop
  endfacet
  facet normal -0.13052619222004425 -0.9914448613738114 -0.0
    outer loop
      vertex 4.0 3.68 0.96
      vertex 3.917177905567194 3.6909037355874976 0.16
      vertex 4.0 3.68 0.16
    endloop
  endfacet
  facet normal -0.13052619222004425 -0.9914448613738114 0.0
    outer loop
      vertex 3.917177905567194 3.6909037355874976 0.16
      vertex 4.0 3.68 0.96
      vertex 3.917177905567194 3.6909037355874976 0.96
    endloop
  endfacet
  facet normal 0.13052619222004358 -0.9914448613738114 0.0
    outer loop
      vertex 4.082822094432807 3.6909037355874976 0.96
      vertex 4.0 3.68 0.16
      vertex 4.082822094432807 3.6909037355874976 0.16
    endloop
  endfacet
  facet normal 0.13052619222004358 -0.9914448613738114 0.0
    outer loop
      vertex 4.0 3.68 0.16
      vertex 4.082822094432807 3.6909037355874976 0.96
      vertex 4.0 3.68 0.96
    endloop
  endfacet
  facet normal 0.38268343236509444 -0.9238795325112849 0.0
    outer loop
      vertex 4.16 3.7228718707889796 0.96
      vertex 4.082822094432807 3.6909037355874976 0.16
      vertex 4.16 3.7228718707889796 0.16
    endloop
  endfacet
  facet normal 0.38268343236509444 -0.9238795325112849 0.0
    outer loop
      vertex 4.082822094432807 3.6909037355874976 0.16
      vertex 4.16 3.7228718707889796 0.96
      vertex 4.082822094432807 3.6909037355874976 0.96
    endloop
  endfacet
  facet normal 0.6087614290087355 -0.7933533402912237 0.0
    outer loop
      vertex 4.226274169979694 3.773725830020306 0.96
      vertex 4.16 3.7228718707889796 0.16
      vertex 4.226274169979694 3.773725830020306 0.16
    endloop
  endfacet
  facet normal 0.6087614290087355 -0.7933533402912237 0.0
    outer loop
      vertex 4.16 3.7228718707889796 0.16
      vertex 4.226274169979694 3.773725830020306 0.96
      vertex 4.16 3.7228718707889796 0.96
    endloop
  endfacet
  facet normal 0.7933533402912217 -0.6087614290087381 0.0
    outer loop
      vertex 4.277128129211021 3.84 0.16
      vertex 4.226274169979694 3.773725830020306 0.96
      vertex 4.226274169979694 3.773725830020306 0.16
    endloop
  endfacet
  facet normal 0.7933533402912217 -0.6087614290087381 0.0
    outer loop
      vertex 4.226274169979694 3.773725830020306 0.96
      vertex 4.277128129211021 3.84 0.16
      vertex 4.277128129211021 3.84 0.96
    endloop
  endfacet
  facet normal 0.9238795325112893 -0.3826834323650835 0.0
    outer loop
      vertex 4.309096264412502 3.917177905567194 0.16
      vertex 4.277128129211021 3.84 0.96
      vertex 4.277128129211021 3.84 0.16
    endloop
  endfacet
  facet normal 0.9238795325112893 -0.3826834323650835 0.0
    outer loop
      vertex 4.277128129211021 3.84 0.96
      vertex 4.309096264412502 3.917177905567194 0.16
      vertex 4.309096264412502 3.917177905567194 0.96
    endloop
  endfacet
  facet normal 0.9914448613738099 -0.13052619222005468 0.0
    outer loop
      vertex 4.32 4.0 0.16
      vertex 4.309096264412502 3.917177905567194 0.96
      vertex 4.309096264412502 3.917177905567194 0.16
    endloop
  endfacet
  facet normal 0.9914448613738099 -0.13052619222005468 0.0
    outer loop
      vertex 4.309096264412502 3.917177905567194 0.96
      vertex 4.32 4.0 0.16
      vertex 4.32 4.0 0.96
    endloop
  endfacet
endsolid thingi10k_82059
