solid thingi10k_90223
  facet normal -0.7071067811879497 0.7071067811851455 1.9829327672311737e-12
    outer loop
      vertex 1.999860024573464 5.999860024573463 5.656842465433845
      vertex 2.0001399754265363 6.000139975426537 5.656842465433845
      vertex 0.0 3.9999999999999996 2.8286156430315565
    endloop
  endfacet
  facet normal -0.7071067811865476 0.7071067811865475 -1.1103016534933662e-16
    outer loop
      vertex 0.0 3.9999999999999996 2.8286156430315565
      vertex 2.0001399754265363 6.000139975426537 5.656842465433845
      vertex 3.9999999999999996 8.0 2.8286156430315565
    endloop
  endfacet
  facet normal -0.7071067811865475 0.7071067811865475 0.0
    outer loop
      vertex 0.0 3.9999999999999996 2.8286156430315565
      vertex 3.9999999999999996 8.0 2.8286156430315565
      vertex 3.9999999999999996 8.0 2.8282268224022893
    endloop
  endfacet
  facet normal -0.7071067811865476 0.7071067811865475 1.1102253427284768e-16
    outer loop
      vertex 0.0 3.9999999999999996 2.8286156430315565
      vertex 3.9999999999999996 8.0 2.8282268224022893
      vertex 2.0001399754265363 6.000139975426537 0.0
    endloop
  endfacet
  facet normal -0.7071067811881337 0.7071067811849614 -1.982757008214257e-12
    outer loop
      vertex 0.0 3.9999999999999996 2.8286156430315565
      vertex 2.0001399754265363 6.000139975426537 0.0
      vertex 1.999860024573464 5.999860024573463 0.0
    endloop
  endfacet
  facet normal -0.7071067811865475 0.7071067811865476 0.0
    outer loop
      vertex 0.0 3.9999999999999996 2.8286156430315565
      vertex 1.999860024573464 5.999860024573463 0.0
      vertex 0.0 3.9999999999999996 2.8282268224022893
    endloop
  endfacet
  facet normal -0.7071067811865476 -0.7071067811865476 -9.682761693613483e-17
    outer loop
      vertex 1.999860024573464 2.0001399754265363 0.0
      vertex 2.0001399754265363 1.999860024573464 0.0
      vertex 4.0 0.0 2.8282268224022893
    endloop
  endfacet
  facet normal -0.7071067811865476 -0.7071067811865475 6.776277726614238e-21
    outer loop
      vertex 2.0001399754265363 1.999860024573464 5.656842465433845
      vertex 1.999860024573464 2.0001399754265363 0.0
      vertex 4.0 0.0 2.8286156430315565
    endloop
  endfacet
  facet normal -0.7071067811865477 -0.7071067811865475 -0.0
    outer loop
      vertex 4.0 0.0 2.8286156430315565
      vertex 1.999860024573464 2.0001399754265363 0.0
      vertex 4.0 0.0 2.8282268224022893
    endloop
  endfacet
  facet normal -0.7071067811865475 -0.7071067811865475 -0.0
    outer loop
      vertex 1.999860024573464 2.0001399754265363 5.656842465433845
      vertex 1.999860024573464 2.0001399754265363 0.0
      vertex 2.0001399754265363 1.999860024573464 5.656842465433845
    endloop
  endfacet
  facet normal -0.7071067811865475 -0.7071067811865477 0.0
    outer loop
      vertex 0.0 3.9999999999999996 2.8286156430315565
      vertex 1.999860024573464 2.0001399754265363 0.0
      vertex 1.999860024573464 2.0001399754265363 5.656842465433845
    endloop
  endfacet
  facet normal -0.7071067811865475 -0.7071067811865476 0.0
    outer loop
      vertex 0.0 3.9999999999999996 2.8282268224022893
      vertex 1.999860024573464 2.0001399754265363 0.0
      vertex 0.0 3.9999999999999996 2.8286156430315565
    endloop
  endfacet
  facet normal -0.8164963550525651 -0.0 -0.5773505886252092
    outer loop
      vertex 1.999860024573464 5.999860024573463 0.0
      vertex 1.999860024573464 2.0001399754265363 0.0
      vertex 0.0 3.9999999999999996 2.8282268224022893
    endloop
  endfacet
  facet normal -0.816496355052565 0.0 0.5773505886252092
    outer loop
      vertex 1.999860024573464 2.0001399754265363 5.656842465433845
      vertex 1.999860024573464 5.999860024573463 5.656842465433845
      vertex 0.0 3.9999999999999996 2.8286156430315565
    endloop
  endfacet
  facet normal -0.0 -0.0 -1.0
    outer loop
      vertex 5.999860024573463 6.000139975426537 0.0
      vertex 6.000139975426537 5.999860024573463 0.0
      vertex 2.0001399754265363 6.000139975426537 0.0
    endloop
  endfacet
  facet normal 0.0 0.0 -1.0
    outer loop
      vertex 2.0001399754265363 6.000139975426537 0.0
      vertex 6.000139975426537 5.999860024573463 0.0
      vertex 6.000139975426537 2.0001399754265363 0.0
    endloop
  endfacet
  facet normal 0.0 0.0 -1.0
    outer loop
      vertex 2.0001399754265363 6.000139975426537 0.0
      vertex 6.000139975426537 2.0001399754265363 0.0
      vertex 5.999860024573463 1.999860024573464 0.0
    endloop
  endfacet
  facet normal 0.0 0.0 -1.0
    outer loop
      vertex 2.0001399754265363 6.000139975426537 0.0
      vertex 5.999860024573463 1.999860024573464 0.0
      vertex 2.0001399754265363 1.999860024573464 0.0
    endloop
  endfacet
  facet normal 0.0 -0.0 -1.0
    outer loop
      vertex 2.0001399754265363 6.000139975426537 0.0
      vertex 2.0001399754265363 1.999860024573464 0.0
      vertex 1.999860024573464 2.0001399754265363 0.0
    endloop
  endfacet
  facet normal 0.0 0.0 -1.0
    outer loop
      vertex 2.0001399754265363 6.000139975426537 0.0
      vertex 1.999860024573464 2.0001399754265363 0.0
      vertex 1.999860024573464 5.999860024573463 0.0
    endloop
  endfacet
  facet normal 0.0 0.8164963550525652 -0.577350588625209
    outer loop
      vertex 3.9999999999999996 8.0 2.8282268224022893
      vertex 5.999860024573463 6.000139975426537 0.0
      vertex 2.0001399754265363 6.000139975426537 0.0
    endloop
  endfacet
  facet normal 0.7071067811865475 0.7071067811865475 2.9048285080725253e-16
    outer loop
      vertex 6.000139975426537 5.999860024573463 5.656842465433845
      vertex 8.0 4.000000000000001 2.8286156430315565
      vertex 5.999860024573463 6.000139975426537 5.656842465433845
    endloop
  endfacet
  facet normal 0.7071067811861437 0.7071067811869512 0.0
    outer loop
      vertex 5.999860024573463 6.000139975426537 5.656842465433845
      vertex 8.0 4.000000000000001 2.8286156430315565
      vertex 8.0 4.000000000000001 2.8282268224022893
    endloop
  endfacet
  facet normal 0.7071067811865475 0.7071067811865477 -1.355255545322848e-20
    outer loop
      vertex 5.999860024573463 6.000139975426537 5.656842465433845
      vertex 8.0 4.000000000000001 2.8282268224022893
      vertex 6.000139975426537 5.999860024573463 0.0
    endloop
  endfacet
  facet normal 0.7071067811865475 0.7071067811865475 0.0
    outer loop
      vertex 5.999860024573463 6.000139975426537 5.656842465433845
      vertex 6.000139975426537 5.999860024573463 0.0
      vertex 5.999860024573463 6.000139975426537 0.0
    endloop
  endfacet
  facet normal 0.7071067811865475 0.7071067811865476 0.0
    outer loop
      vertex 5.999860024573463 6.000139975426537 5.656842465433845
      vertex 5.999860024573463 6.000139975426537 0.0
      vertex 3.9999999999999996 8.0 2.8282268224022893
    endloop
  endfacet
  facet normal 0.7071067811865475 0.7071067811865475 0.0
    outer loop
      vertex 5.999860024573463 6.000139975426537 5.656842465433845
      vertex 3.9999999999999996 8.0 2.8282268224022893
      vertex 3.9999999999999996 8.0 2.8286156430315565
    endloop
  endfacet
  facet normal 0.0 0.8164963550525652 0.5773505886252092
    outer loop
      vertex 5.999860024573463 6.000139975426537 5.656842465433845
      vertex 3.9999999999999996 8.0 2.8286156430315565
      vertex 2.0001399754265363 6.000139975426537 5.656842465433845
    endloop
  endfacet
  facet normal 0.0 0.0 1.0
    outer loop
      vertex 2.0001399754265363 1.999860024573464 5.656842465433845
      vertex 5.999860024573463 1.999860024573464 5.656842465433845
      vertex 6.000139975426537 2.0001399754265363 5.656842465433845
    endloop
  endfacet
  facet normal 0.0 0.0 1.0
    outer loop
      vertex 5.999860024573463 6.000139975426537 5.656842465433845
      vertex 2.0001399754265363 1.999860024573464 5.656842465433845
      vertex 6.000139975426537 5.999860024573463 5.656842465433845
    endloop
  endfacet
  facet normal 0.0 0.0 1.0
    outer loop
      vertex 6.000139975426537 5.999860024573463 5.656842465433845
      vertex 2.0001399754265363 1.999860024573464 5.656842465433845
      vertex 6.000139975426537 2.0001399754265363 5.656842465433845
    endloop
  endfacet
  facet normal -0.0 0.0 1.0
    outer loop
      vertex 2.0001399754265363 6.000139975426537 5.656842465433845
      vertex 2.0001399754265363 1.999860024573464 5.656842465433845
      vertex 5.999860024573463 6.000139975426537 5.656842465433845
    endloop
  endfacet
  facet normal -0.0 0.0 1.0
    outer loop
      vertex 1.999860024573464 5.999860024573463 5.656842465433845
      vertex 2.0001399754265363 1.999860024573464 5.656842465433845
      vertex 2.0001399754265363 6.000139975426537 5.656842465433845
    endloop
  endfacet
  facet normal -0.0 0.0 1.0
    outer loop
      vertex 1.999860024573464 2.0001399754265363 5.656842465433845
      vertex 2.0001399754265363 1.999860024573464 5.656842465433845
      vertex 1.999860024573464 5.999860024573463 5.656842465433845
    endloop
  endfacet
  facet normal 0.0 -0.816496355052565 0.5773505886252092
    outer loop
      vertex 4.0 0.0 2.8286156430315565
      vertex 5.999860024573463 1.999860024573464 5.656842465433845
      vertex 2.0001399754265363 1.999860024573464 5.656842465433845
    endloop
  endfacet
  facet normal 0.7071067811853577 -0.7071067811877374 -1.983029594849359e-12
    outer loop
      vertex 4.0 0.0 2.8282268224022893
      vertex 5.999860024573463 1.999860024573464 0.0
      vertex 6.000139975426537 2.0001399754265363 0.0
    endloop
  endfacet
  facet normal 0.7071067811865476 -0.7071067811865474 0.0
    outer loop
      vertex 8.0 4.000000000000001 2.8286156430315565
      vertex 4.0 0.0 2.8282268224022893
      vertex 8.0 4.000000000000001 2.8282268224022893
    endloop
  endfacet
  facet normal 0.7071067811865476 -0.7071067811865475 2.2206033069867314e-16
    outer loop
      vertex 8.0 4.000000000000001 2.8282268224022893
      vertex 4.0 0.0 2.8282268224022893
      vertex 6.000139975426537 2.0001399754265363 0.0
    endloop
  endfacet
  facet normal 0.7071067811865476 -0.7071067811865474 -2.2204506854569536e-16
    outer loop
      vertex 6.000139975426537 2.0001399754265363 5.656842465433845
      vertex 4.0 0.0 2.8282268224022893
      vertex 8.0 4.000000000000001 2.8286156430315565
    endloop
  endfacet
  facet normal 0.7071067811851455 -0.7071067811879497 1.9827570082148484e-12
    outer loop
      vertex 5.999860024573463 1.999860024573464 5.656842465433845
      vertex 4.0 0.0 2.8282268224022893
      vertex 6.000139975426537 2.0001399754265363 5.656842465433845
    endloop
  endfacet
  facet normal 0.7071067811865476 -0.7071067811865475 0.0
    outer loop
      vertex 4.0 0.0 2.8286156430315565
      vertex 4.0 0.0 2.8282268224022893
      vertex 5.999860024573463 1.999860024573464 5.656842465433845
    endloop
  endfacet
  facet normal -0.0 -0.8164963550525651 -0.5773505886252092
    outer loop
      vertex 5.999860024573463 1.999860024573464 0.0
      vertex 4.0 0.0 2.8282268224022893
      vertex 2.0001399754265363 1.999860024573464 0.0
    endloop
  endfacet
  facet normal 0.8164963550525652 0.0 -0.577350588625209
    outer loop
      vertex 8.0 4.000000000000001 2.8282268224022893
      vertex 6.000139975426537 2.0001399754265363 0.0
      vertex 6.000139975426537 5.999860024573463 0.0
    endloop
  endfacet
  facet normal 0.8164963550525652 -0.0 0.5773505886252092
    outer loop
      vertex 6.000139975426537 2.0001399754265363 5.656842465433845
      vertex 8.0 4.000000000000001 2.8286156430315565
      vertex 6.000139975426537 5.999860024573463 5.656842465433845
    endloop
  endfacet
endsolid thingi10k_90223
