solid thingi10k_90279
  facet normal 0.0 0.0 1.0
    outer loop
      vertex 3.4782608695652173 4.521739130434782 2.7826087785803755
      vertex 0.0 4.521739130434782 2.7826087785803755
      vertex 3.4782608695652173 3.8260869565217392 2.7826087785803755
    endloop
  endfacet
  facet normal 0.0 0.0 1.0
    outer loop
      vertex 3.4782608695652173 3.8260869565217392 2.7826087785803755
      vertex 0.0 4.521739130434782 2.7826087785803755
      vertex 0.0 3.8260869565217392 2.7826087785803755
    endloop
  endfacet
  facet normal 0.0 -1.0 0.0
    outer loop
      vertex 2.260869565217391 3.8260869565217392 0.0
      vertex 3.4782608695652173 3.8260869565217392 0.0
      vertex 2.782608695652174 3.8260869565217392 0.9036786452583645
    endloop
  endfacet
  facet normal 0.0 -1.0 0.0
    outer loop
      vertex 2.782608695652174 3.8260869565217392 0.9036786452583645
      vertex 3.4782608695652173 3.8260869565217392 0.0
      vertex 3.4782608695652173 3.8260869565217392 2.7826087785803755
    endloop
  endfacet
  facet normal 0.0 -1.0 0.0
    outer loop
      vertex 2.260869565217391 3.8260869565217392 1.807357290516729
      vertex 3.4782608695652173 3.8260869565217392 2.7826087785803755
      vertex 0.0 3.8260869565217392 2.7826087785803755
    endloop
  endfacet
  facet normal -0.0 -1.0 0.0
    outer loop
      vertex 1.2173913043478262 3.8260869565217392 1.807357290516729
      vertex 0.0 3.8260869565217392 2.7826087785803755
      vertex 0.6956521739130435 3.8260869565217392 0.9036786452583649
    endloop
  endfacet
  facet normal 0.0 -1.0 0.0
    outer loop
      vertex 1.2173913043478262 3.8260869565217392 1.807357290516729
      vertex 2.260869565217391 3.8260869565217392 1.807357290516729
      vertex 0.0 3.8260869565217392 2.7826087785803755
    endloop
  endfacet
  facet normal 0.0 -1.0 0.0
    outer loop
      vertex 0.0 3.8260869565217392 2.7826087785803755
      vertex 0.0 3.8260869565217392 0.0
      vertex 0.6956521739130435 3.8260869565217392 0.9036786452583649
    endloop
  endfacet
  facet normal 0.0 -1.0 -0.0
    outer loop
      vertex 0.6956521739130435 3.8260869565217392 0.9036786452583649
      vertex 0.0 3.8260869565217392 0.0
      vertex 1.2173913043478262 3.8260869565217392 0.0
    endloop
  endfacet
  facet normal 0.0 -1.0 0.0
    outer loop
      vertex 2.260869565217391 3.8260869565217392 1.807357290516729
      vertex 2.782608695652174 3.8260869565217392 0.9036786452583645
      vertex 3.4782608695652173 3.8260869565217392 2.7826087785803755
    endloop
  endfacet
  facet normal -1.0 -0.0 -0.0
    outer loop
      vertex 0.0 4.521739130434782 2.7826087785803755
      vertex 0.0 4.521739130434782 0.0
      vertex 0.0 3.8260869565217392 2.7826087785803755
    endloop
  endfacet
  facet normal -1.0 0.0 0.0
    outer loop
      vertex 0.0 3.8260869565217392 2.7826087785803755
      vertex 0.0 4.521739130434782 0.0
      vertex 0.0 3.8260869565217392 0.0
    endloop
  endfacet
  facet normal 1.0 -0.0 0.0
    outer loop
      vertex 3.4782608695652173 3.8260869565217392 2.7826087785803755
      vertex 3.4782608695652173 3.8260869565217392 0.0
      vertex 3.4782608695652173 4.521739130434782 2.7826087785803755
    endloop
  endfacet
  facet normal 1.0 0.0 0.0
    outer loop
      vertex 3.4782608695652173 4.521739130434782 2.7826087785803755
      vertex 3.4782608695652173 3.8260869565217392 0.0
      vertex 3.4782608695652173 4.521739130434782 0.0
    endloop
  endfacet
  facet normal 0.8660253949314783 0.0 0.5000000153337767
    outer loop
      vertex 2.782608695652174 3.8260869565217392 0.9036786452583645
      vertex 2.260869565217391 3.8260869565217392 1.807357290516729
      vertex 2.782608695652174 0.0 0.9036786452583645
    endloop
  endfacet
  facet normal 0.8660253949314783 0.0 0.5000000153337767
    outer loop
      vertex 2.782608695652174 0.0 0.9036786452583645
      vertex 2.260869565217391 3.8260869565217392 1.807357290516729
      vertex 2.260869565217391 0.0 1.807357290516729
    endloop
  endfacet
  facet normal 0.8660253949314785 -0.0 0.5000000153337767
    outer loop
      vertex 2.260869565217391 4.521739130434782 1.807357290516729
      vertex 2.782608695652174 4.521739130434782 0.9036786452583645
      vertex 2.260869565217391 8.0 1.807357290516729
    endloop
  endfacet
  facet normal 0.8660253949314785 0.0 0.5000000153337767
    outer loop
      vertex 2.260869565217391 8.0 1.807357290516729
      vertex 2.782608695652174 4.521739130434782 0.9036786452583645
      vertex 2.782608695652174 8.0 0.9036786452583645
    endloop
  endfacet
  facet normal 0.0 0.0 1.0
    outer loop
      vertex 2.260869565217391 3.8260869565217392 1.807357290516729
      vertex 1.2173913043478262 3.8260869565217392 1.807357290516729
      vertex 2.260869565217391 0.0 1.807357290516729
    endloop
  endfacet
  facet normal 0.0 0.0 1.0
    outer loop
      vertex 2.260869565217391 0.0 1.807357290516729
      vertex 1.2173913043478262 3.8260869565217392 1.807357290516729
      vertex 1.2173913043478262 0.0 1.807357290516729
    endloop
  endfacet
  facet normal 0.0 0.0 1.0
    outer loop
      vertex 1.2173913043478262 4.521739130434782 1.807357290516729
      vertex 1.391304347826087 4.521739130434782 1.807357290516729
      vertex 1.2173913043478262 8.0 1.807357290516729
    endloop
  endfacet
  facet normal -0.0 0.0 1.0
    outer loop
      vertex 1.2173913043478262 8.0 1.807357290516729
      vertex 1.391304347826087 4.521739130434782 1.807357290516729
      vertex 1.391304347826087 8.0 1.807357290516729
    endloop
  endfacet
  facet normal 0.8660253949314783 0.0 -0.5000000153337767
    outer loop
      vertex 2.260869565217391 3.8260869565217392 0.0
      vertex 2.782608695652174 3.8260869565217392 0.9036786452583645
      vertex 2.260869565217391 0.0 0.0
    endloop
  endfacet
  facet normal 0.8660253949314783 0.0 -0.5000000153337767
    outer loop
      vertex 2.260869565217391 0.0 0.0
      vertex 2.782608695652174 3.8260869565217392 0.9036786452583645
      vertex 2.782608695652174 0.0 0.9036786452583645
    endloop
  endfacet
  facet normal 0.8660253949314785 0.0 -0.5000000153337767
    outer loop
      vertex 2.782608695652174 4.521739130434782 0.9036786452583645
      vertex 2.260869565217391 4.521739130434782 0.0
      vertex 2.782608695652174 8.0 0.9036786452583645
    endloop
  endfacet
  facet normal 0.8660253949314785 0.0 -0.5000000153337767
    outer loop
      vertex 2.782608695652174 8.0 0.9036786452583645
      vertex 2.260869565217391 4.521739130434782 0.0
      vertex 2.260869565217391 8.0 0.0
    endloop
  endfacet
  facet normal -0.8660253949314782 0.0 0.5000000153337769
    outer loop
      vertex 1.2173913043478262 3.8260869565217392 1.807357290516729
      vertex 0.6956521739130435 3.8260869565217392 0.9036786452583649
      vertex 1.2173913043478262 0.0 1.807357290516729
    endloop
  endfacet
  facet normal -0.8660253949314782 0.0 0.5000000153337769
    outer loop
      vertex 1.2173913043478262 0.0 1.807357290516729
      vertex 0.6956521739130435 3.8260869565217392 0.9036786452583649
      vertex 0.6956521739130435 0.0 0.9036786452583649
    endloop
  endfacet
  facet normal -0.8660253949314785 -0.0 -0.5000000153337765
    outer loop
      vertex 0.6956521739130435 3.8260869565217392 0.9036786452583649
      vertex 1.2173913043478262 3.8260869565217392 0.0
      vertex 0.6956521739130435 0.0 0.9036786452583649
    endloop
  endfacet
  facet normal -0.8660253949314785 0.0 -0.5000000153337765
    outer loop
      vertex 0.6956521739130435 0.0 0.9036786452583649
      vertex 1.2173913043478262 3.8260869565217392 0.0
      vertex 1.2173913043478262 0.0 0.0
    endloop
  endfacet
  facet normal 0.0 0.0 -1.0
    outer loop
      vertex 2.0869565217391304 8.0 0.0
      vertex 2.260869565217391 8.0 0.0
      vertex 2.0869565217391304 4.521739130434782 0.0
    endloop
  endfacet
  facet normal 0.0 0.0 -1.0
    outer loop
      vertex 2.0869565217391304 4.521739130434782 0.0
      vertex 2.260869565217391 8.0 0.0
      vertex 2.260869565217391 4.521739130434782 0.0
    endloop
  endfacet
  facet normal 0.0 0.0 -1.0
    outer loop
      vertex 2.260869565217391 3.8260869565217392 0.0
      vertex 2.260869565217391 4.521739130434782 0.0
      vertex 3.4782608695652173 4.521739130434782 0.0
    endloop
  endfacet
  facet normal 0.0 0.0 -1.0
    outer loop
      vertex 3.4782608695652173 3.8260869565217392 0.0
      vertex 2.260869565217391 3.8260869565217392 0.0
      vertex 3.4782608695652173 4.521739130434782 0.0
    endloop
  endfacet
  facet normal 0.0 0.0 -1.0
    outer loop
      vertex 2.260869565217391 0.0 0.0
      vertex 1.2173913043478262 0.0 0.0
      vertex 2.260869565217391 3.8260869565217392 0.0
    endloop
  endfacet
  facet normal -0.0 0.0 -1.0
    outer loop
      vertex 2.260869565217391 3.8260869565217392 0.0
      vertex 1.2173913043478262 0.0 0.0
      vertex 1.2173913043478262 3.8260869565217392 0.0
    endloop
  endfacet
  facet normal -0.0 0.0 -1.0
    outer loop
      vertex 2.0869565217391304 4.521739130434782 0.0
      vertex 1.2173913043478262 3.8260869565217392 0.0
      vertex 1.391304347826087 4.521739130434782 0.0
    endloop
  endfacet
  facet normal 0.0 -0.0 -1.0
    outer loop
      vertex 2.0869565217391304 4.521739130434782 0.0
      vertex 2.260869565217391 3.8260869565217392 0.0
      vertex 1.2173913043478262 3.8260869565217392 0.0
    endloop
  endfacet
  facet normal 0.0 0.0 -1.0
    outer loop
      vertex 2.0869565217391304 4.521739130434782 0.0
      vertex 2.260869565217391 4.521739130434782 0.0
      vertex 2.260869565217391 3.8260869565217392 0.0
    endloop
  endfacet
  facet normal -0.0 0.0 -1.0
    outer loop
      vertex 1.391304347826087 4.521739130434782 0.0
      vertex 1.2173913043478262 3.8260869565217392 0.0
      vertex 1.2173913043478262 4.521739130434782 0.0
    endloop
  endfacet
  facet normal -0.0 0.0 -1.0
    outer loop
      vertex 1.391304347826087 8.0 0.0
      vertex 1.2173913043478262 4.521739130434782 0.0
      vertex 1.2173913043478262 8.0 0.0
    endloop
  endfacet
  facet normal 0.0 -0.0 -1.0
    outer loop
      vertex 1.391304347826087 8.0 0.0
      vertex 1.391304347826087 4.521739130434782 0.0
      vertex 1.2173913043478262 4.521739130434782 0.0
    endloop
  endfacet
  facet normal 0.0 0.0 -1.0
    outer loop
      vertex 0.0 4.521739130434782 0.0
      vertex 1.2173913043478262 4.521739130434782 0.0
      vertex 0.0 3.8260869565217392 0.0
    endloop
  endfacet
  facet normal 0.0 0.0 -1.0
    outer loop
      vertex 0.0 3.8260869565217392 0.0
      vertex 1.2173913043478262 4.521739130434782 0.0
      vertex 1.2173913043478262 3.8260869565217392 0.0
    endloop
  endfacet
  facet normal -1.0 0.0 0.0
    outer loop
      vertex 2.0869565217391304 4.521739130434782 0.0
      vertex 2.0869565217391304 4.521739130434782 1.807357290516729
      vertex 2.0869565217391304 8.0 0.0
    endloop
  endfacet
  facet normal -1.0 0.0 0.0
    outer loop
      vertex 2.0869565217391304 8.0 0.0
      vertex 2.0869565217391304 4.521739130434782 1.807357290516729
      vertex 2.0869565217391304 8.0 1.807357290516729
    endloop
  endfacet
  facet normal 0.0 1.0 0.0
    outer loop
      vertex 1.391304347826087 4.521739130434782 0.0
      vertex 1.391304347826087 4.521739130434782 1.807357290516729
      vertex 2.0869565217391304 4.521739130434782 0.0
    endloop
  endfacet
  facet normal 0.0 1.0 -0.0
    outer loop
      vertex 2.0869565217391304 4.521739130434782 0.0
      vertex 1.391304347826087 4.521739130434782 1.807357290516729
      vertex 2.0869565217391304 4.521739130434782 1.807357290516729
    endloop
  endfacet
  facet normal 0.0 1.0 0.0
    outer loop
      vertex 2.0869565217391304 4.521739130434782 1.807357290516729
      vertex 1.391304347826087 4.521739130434782 1.807357290516729
      vertex 0.0 4.521739130434782 2.7826087785803755
    endloop
  endfacet
  facet normal 0.0 1.0 0.0
    outer loop
      vertex 3.4782608695652173 4.521739130434782 2.7826087785803755
      vertex 2.0869565217391304 4.521739130434782 1.807357290516729
      vertex 0.0 4.521739130434782 2.7826087785803755
    endloop
  endfacet
  facet normal 0.0 1.0 0.0
    outer loop
      vertex 3.4782608695652173 4.521739130434782 2.7826087785803755
      vertex 2.260869565217391 4.521739130434782 1.807357290516729
      vertex 2.0869565217391304 4.521739130434782 1.807357290516729
    endloop
  endfacet
  facet normal 0.0 1.0 0.0
    outer loop
      vertex 3.4782608695652173 4.521739130434782 2.7826087785803755
      vertex 2.782608695652174 4.521739130434782 0.9036786452583645
      vertex 2.260869565217391 4.521739130434782 1.807357290516729
    endloop
  endfacet
  facet normal 0.0 1.0 0.0
    outer loop
      vertex 3.4782608695652173 4.521739130434782 2.7826087785803755
      vertex 3.4782608695652173 4.521739130434782 0.0
      vertex 2.782608695652174 4.521739130434782 0.9036786452583645
    endloop
  endfacet
  facet normal 0.0 1.0 0.0
    outer loop
      vertex 2.782608695652174 4.521739130434782 0.9036786452583645
      vertex 3.4782608695652173 4.521739130434782 0.0
      vertex 2.260869565217391 4.521739130434782 0.0
    endloop
  endfacet
  facet normal 0.0 1.0 0.0
    outer loop
      vertex 1.391304347826087 4.521739130434782 1.807357290516729
      vertex 1.2173913043478262 4.521739130434782 1.807357290516729
      vertex 0.0 4.521739130434782 2.7826087785803755
    endloop
  endfacet
  facet normal 0.0 1.0 0.0
    outer loop
      vertex 0.0 4.521739130434782 2.7826087785803755
      vertex 1.2173913043478262 4.521739130434782 1.807357290516729
      vertex 0.6956521739130435 4.521739130434782 0.9036786452583649
    endloop
  endfacet
  facet normal 0.0 1.0 0.0
    outer loop
      vertex 0.0 4.521739130434782 0.0
      vertex 0.6956521739130435 4.521739130434782 0.9036786452583649
      vertex 1.2173913043478262 4.521739130434782 0.0
    endloop
  endfacet
  facet normal 0.0 1.0 0.0
    outer loop
      vertex 0.0 4.521739130434782 0.0
      vertex 0.0 4.521739130434782 2.7826087785803755
      vertex 0.6956521739130435 4.521739130434782 0.9036786452583649
    endloop
  endfacet
  facet normal 1.0 0.0 -0.0
    outer loop
      vertex 1.391304347826087 8.0 0.0
      vertex 1.391304347826087 8.0 1.807357290516729
      vertex 1.391304347826087 4.521739130434782 0.0
    endloop
  endfacet
  facet normal 1.0 0.0 0.0
    outer loop
      vertex 1.391304347826087 4.521739130434782 0.0
      vertex 1.391304347826087 8.0 1.807357290516729
      vertex 1.391304347826087 4.521739130434782 1.807357290516729
    endloop
  endfacet
  facet normal 0.0 1.0 0.0
    outer loop
      vertex 2.0869565217391304 8.0 0.0
      vertex 2.0869565217391304 8.0 1.807357290516729
      vertex 2.260869565217391 8.0 0.0
    endloop
  endfacet
  facet normal 0.0 1.0 -0.0
    outer loop
      vertex 2.260869565217391 8.0 0.0
      vertex 2.0869565217391304 8.0 1.807357290516729
      vertex 2.260869565217391 8.0 1.807357290516729
    endloop
  endfacet
  facet normal 0.0 1.0 0.0
    outer loop
      vertex 2.782608695652174 8.0 0.9036786452583645
      vertex 2.260869565217391 8.0 0.0
      vertex 2.260869565217391 8.0 1.807357290516729
    endloop
  endfacet
  facet normal -0.8660253949314785 0.0 -0.5000000153337765
    outer loop
      vertex 1.2173913043478262 4.521739130434782 0.0
      vertex 0.6956521739130435 4.521739130434782 0.9036786452583649
      vertex 1.2173913043478262 8.0 0.0
    endloop
  endfacet
  facet normal -0.8660253949314785 0.0 -0.5000000153337765
    outer loop
      vertex 1.2173913043478262 8.0 0.0
      vertex 0.6956521739130435 4.521739130434782 0.9036786452583649
      vertex 0.6956521739130435 8.0 0.9036786452583649
    endloop
  endfacet
  facet normal -0.8660253949314782 0.0 0.5000000153337769
    outer loop
      vertex 0.6956521739130435 4.521739130434782 0.9036786452583649
      vertex 1.2173913043478262 4.521739130434782 1.807357290516729
      vertex 0.6956521739130435 8.0 0.9036786452583649
    endloop
  endfacet
  facet normal -0.8660253949314782 0.0 0.5000000153337769
    outer loop
      vertex 0.6956521739130435 8.0 0.9036786452583649
      vertex 1.2173913043478262 4.521739130434782 1.807357290516729
      vertex 1.2173913043478262 8.0 1.807357290516729
    endloop
  endfacet
  facet normal 0.0 0.0 1.0
    outer loop
      vertex 2.0869565217391304 4.521739130434782 1.807357290516729
      vertex 2.260869565217391 4.521739130434782 1.807357290516729
      vertex 2.0869565217391304 8.0 1.807357290516729
    endloop
  endfacet
  facet normal -0.0 0.0 1.0
    outer loop
      vertex 2.0869565217391304 8.0 1.807357290516729
      vertex 2.260869565217391 4.521739130434782 1.807357290516729
      vertex 2.260869565217391 8.0 1.807357290516729
    endloop
  endfacet
  facet normal 0.0 -1.0 0.0
    outer loop
      vertex 2.260869565217391 0.0 0.0
      vertex 2.782608695652174 0.0 0.9036786452583645
      vertex 1.2173913043478262 0.0 0.0
    endloop
  endfacet
  facet normal 0.0 -1.0 0.0
    outer loop
      vertex 1.2173913043478262 0.0 0.0
      vertex 2.782608695652174 0.0 0.9036786452583645
      vertex 0.6956521739130435 0.0 0.9036786452583649
    endloop
  endfacet
  facet normal 0.0 -1.0 0.0
    outer loop
      vertex 0.6956521739130435 0.0 0.9036786452583649
      vertex 2.782608695652174 0.0 0.9036786452583645
      vertex 2.260869565217391 0.0 1.807357290516729
    endloop
  endfacet
  facet normal 0.0 -1.0 -0.0
    outer loop
      vertex 1.2173913043478262 0.0 1.807357290516729
      vertex 0.6956521739130435 0.0 0.9036786452583649
      vertex 2.260869565217391 0.0 1.807357290516729
    endloop
  endfacet
  facet normal 0.0 1.0 0.0
    outer loop
      vertex 1.391304347826087 8.0 1.807357290516729
      vertex 1.391304347826087 8.0 0.0
      vertex 1.2173913043478262 8.0 1.807357290516729
    endloop
  endfacet
  facet normal 0.0 1.0 0.0
    outer loop
      vertex 1.2173913043478262 8.0 1.807357290516729
      vertex 1.391304347826087 8.0 0.0
      vertex 1.2173913043478262 8.0 0.0
    endloop
  endfacet
  facet normal -0.0 1.0 0.0
    outer loop
      vertex 0.6956521739130435 8.0 0.9036786452583649
      vertex 1.2173913043478262 8.0 1.807357290516729
      vertex 1.2173913043478262 8.0 0.0
    endloop
  endfacet
endsolid thingi10k_90279
