solid thingi10k_90280
  facet normal 0.0 0.0 1.0
    outer loop
      vertex 2.4242424242424243 5.575757575757576 1.9393939971923828
      vertex 0.0 5.575757575757576 1.9393939971923828
      vertex 2.4242424242424243 5.090909090909091 1.9393939971923828
    endloop
  endfacet
  facet normal 0.0 0.0 1.0
    outer loop
      vertex 2.4242424242424243 5.090909090909091 1.9393939971923828
      vertex 0.0 5.575757575757576 1.9393939971923828
      vertex 0.0 5.090909090909091 1.9393939971923828
    endloop
  endfacet
  facet normal 0.0 -1.0 0.0
    outer loop
      vertex 1.5757575757575757 5.090909090909091 0.0
      vertex 2.4242424242424243 5.090909090909091 0.0
      vertex 1.9393939393939394 5.090909090909091 0.6298366315437086
    endloop
  endfacet
  facet normal 0.0 -1.0 0.0
    outer loop
      vertex 1.9393939393939394 5.090909090909091 0.6298366315437086
      vertex 2.4242424242424243 5.090909090909091 0.0
      vertex 2.4242424242424243 5.090909090909091 1.9393939971923828
    endloop
  endfacet
  facet normal 0.0 -1.0 0.0
    outer loop
      vertex 1.5757575757575757 5.090909090909091 1.2596732630874172
      vertex 2.4242424242424243 5.090909090909091 1.9393939971923828
      vertex 0.0 5.090909090909091 1.9393939971923828
    endloop
  endfacet
  facet normal -0.0 -1.0 0.0
    outer loop
      vertex 0.8484848484848485 5.090909090909091 1.2596732630874172
      vertex 0.0 5.090909090909091 1.9393939971923828
      vertex 0.48484848484848486 5.090909090909091 0.629836631543709
    endloop
  endfacet
  facet normal 0.0 -1.0 0.0
    outer loop
      vertex 0.8484848484848485 5.090909090909091 1.2596732630874172
      vertex 1.5757575757575757 5.090909090909091 1.2596732630874172
      vertex 0.0 5.090909090909091 1.9393939971923828
    endloop
  endfacet
  facet normal 0.0 -1.0 0.0
    outer loop
      vertex 0.0 5.090909090909091 1.9393939971923828
      vertex 0.0 5.090909090909091 0.0
      vertex 0.48484848484848486 5.090909090909091 0.629836631543709
    endloop
  endfacet
  facet normal 0.0 -1.0 -0.0
    outer loop
      vertex 0.48484848484848486 5.090909090909091 0.629836631543709
      vertex 0.0 5.090909090909091 0.0
      vertex 0.8484848484848485 5.090909090909091 0.0
    endloop
  endfacet
  facet normal 0.0 -1.0 0.0
    outer loop
      vertex 1.5757575757575757 5.090909090909091 1.2596732630874172
      vertex 1.9393939393939394 5.090909090909091 0.6298366315437086
      vertex 2.4242424242424243 5.090909090909091 1.9393939971923828
    endloop
  endfacet
  facet normal -1.0 -0.0 -0.0
    outer loop
      vertex 0.0 5.575757575757576 1.9393939971923828
      vertex 0.0 5.575757575757576 0.0
      vertex 0.0 5.090909090909091 1.9393939971923828
    endloop
  endfacet
  facet normal -1.0 0.0 0.0
    outer loop
      vertex 0.0 5.090909090909091 1.9393939971923828
      vertex 0.0 5.575757575757576 0.0
      vertex 0.0 5.090909090909091 0.0
    endloop
  endfacet
  facet normal 1.0 -0.0 0.0
    outer loop
      vertex 2.4242424242424243 5.090909090909091 1.9393939971923828
      vertex 2.4242424242424243 5.090909090909091 0.0
      vertex 2.4242424242424243 5.575757575757576 1.9393939971923828
    endloop
  endfacet
  facet normal 1.0 0.0 0.0
    outer loop
      vertex 2.4242424242424243 5.575757575757576 1.9393939971923828
      vertex 2.4242424242424243 5.090909090909091 0.0
      vertex 2.4242424242424243 5.575757575757576 0.0
    endloop
  endfacet
  facet normal 0.8660253949314783 0.0 0.5000000153337767
    outer loop
      vertex 1.9393939393939394 5.090909090909091 0.6298366315437086
      vertex 1.5757575757575757 5.090909090909091 1.2596732630874172
      vertex 1.9393939393939394 0.0 0.6298366315437086
    endloop
  endfacet
  facet normal 0.8660253949314783 0.0 0.5000000153337767
    outer loop
      vertex 1.9393939393939394 0.0 0.6298366315437086
      vertex 1.5757575757575757 5.090909090909091 1.2596732630874172
      vertex 1.5757575757575757 0.0 1.2596732630874172
    endloop
  endfacet
  facet normal 0.8660253949314783 -0.0 0.5000000153337767
    outer loop
      vertex 1.5757575757575757 5.575757575757576 1.2596732630874172
      vertex 1.9393939393939394 5.575757575757576 0.6298366315437086
      vertex 1.5757575757575757 8.0 1.2596732630874172
    endloop
  endfacet
  facet normal 0.8660253949314783 0.0 0.5000000153337767
    outer loop
      vertex 1.5757575757575757 8.0 1.2596732630874172
      vertex 1.9393939393939394 5.575757575757576 0.6298366315437086
      vertex 1.9393939393939394 8.0 0.6298366315437086
    endloop
  endfacet
  facet normal 0.0 0.0 1.0
    outer loop
      vertex 1.5757575757575757 5.090909090909091 1.2596732630874172
      vertex 0.8484848484848485 5.090909090909091 1.2596732630874172
      vertex 1.5757575757575757 0.0 1.2596732630874172
    endloop
  endfacet
  facet normal 0.0 0.0 1.0
    outer loop
      vertex 1.5757575757575757 0.0 1.2596732630874172
      vertex 0.8484848484848485 5.090909090909091 1.2596732630874172
      vertex 0.8484848484848485 0.0 1.2596732630874172
    endloop
  endfacet
  facet normal 0.0 0.0 1.0
    outer loop
      vertex 0.8484848484848485 5.575757575757576 1.2596732630874172
      vertex 0.9696969696969697 5.575757575757576 1.2596732630874172
      vertex 0.8484848484848485 8.0 1.2596732630874172
    endloop
  endfacet
  facet normal -0.0 0.0 1.0
    outer loop
      vertex 0.8484848484848485 8.0 1.2596732630874172
      vertex 0.9696969696969697 5.575757575757576 1.2596732630874172
      vertex 0.9696969696969697 8.0 1.2596732630874172
    endloop
  endfacet
  facet normal 0.8660253949314783 0.0 -0.5000000153337767
    outer loop
      vertex 1.5757575757575757 5.090909090909091 0.0
      vertex 1.9393939393939394 5.090909090909091 0.6298366315437086
      vertex 1.5757575757575757 0.0 0.0
    endloop
  endfacet
  facet normal 0.8660253949314783 0.0 -0.5000000153337767
    outer loop
      vertex 1.5757575757575757 0.0 0.0
      vertex 1.9393939393939394 5.090909090909091 0.6298366315437086
      vertex 1.9393939393939394 0.0 0.6298366315437086
    endloop
  endfacet
  facet normal 0.8660253949314783 0.0 -0.5000000153337767
    outer loop
      vertex 1.9393939393939394 5.575757575757576 0.6298366315437086
      vertex 1.5757575757575757 5.575757575757576 0.0
      vertex 1.9393939393939394 8.0 0.6298366315437086
    endloop
  endfacet
  facet normal 0.8660253949314783 0.0 -0.5000000153337767
    outer loop
      vertex 1.9393939393939394 8.0 0.6298366315437086
      vertex 1.5757575757575757 5.575757575757576 0.0
      vertex 1.5757575757575757 8.0 0.0
    endloop
  endfacet
  facet normal -0.8660253949314782 0.0 0.5000000153337768
    outer loop
      vertex 0.8484848484848485 5.090909090909091 1.2596732630874172
      vertex 0.48484848484848486 5.090909090909091 0.629836631543709
      vertex 0.8484848484848485 0.0 1.2596732630874172
    endloop
  endfacet
  facet normal -0.8660253949314782 0.0 0.5000000153337768
    outer loop
      vertex 0.8484848484848485 0.0 1.2596732630874172
      vertex 0.48484848484848486 5.090909090909091 0.629836631543709
      vertex 0.48484848484848486 0.0 0.629836631543709
    endloop
  endfacet
  facet normal -0.8660253949314785 -0.0 -0.5000000153337764
    outer loop
      vertex 0.48484848484848486 5.090909090909091 0.629836631543709
      vertex 0.8484848484848485 5.090909090909091 0.0
      vertex 0.48484848484848486 0.0 0.629836631543709
    endloop
  endfacet
  facet normal -0.8660253949314785 0.0 -0.5000000153337764
    outer loop
      vertex 0.48484848484848486 0.0 0.629836631543709
      vertex 0.8484848484848485 5.090909090909091 0.0
      vertex 0.8484848484848485 0.0 0.0
    endloop
  endfacet
  facet normal 0.0 0.0 -1.0
    outer loop
      vertex 1.4545454545454546 8.0 0.0
      vertex 1.5757575757575757 8.0 0.0
      vertex 1.4545454545454546 5.575757575757576 0.0
    endloop
  endfacet
  facet normal 0.0 0.0 -1.0
    outer loop
      vertex 1.4545454545454546 5.575757575757576 0.0
      vertex 1.5757575757575757 8.0 0.0
      vertex 1.5757575757575757 5.575757575757576 0.0
    endloop
  endfacet
  facet normal 0.0 0.0 -1.0
    outer loop
      vertex 1.5757575757575757 5.090909090909091 0.0
      vertex 1.5757575757575757 5.575757575757576 0.0
      vertex 2.4242424242424243 5.575757575757576 0.0
    endloop
  endfacet
  facet normal 0.0 0.0 -1.0
    outer loop
      vertex 2.4242424242424243 5.090909090909091 0.0
      vertex 1.5757575757575757 5.090909090909091 0.0
      vertex 2.4242424242424243 5.575757575757576 0.0
    endloop
  endfacet
  facet normal 0.0 0.0 -1.0
    outer loop
      vertex 1.5757575757575757 0.0 0.0
      vertex 0.8484848484848485 0.0 0.0
      vertex 1.5757575757575757 5.090909090909091 0.0
    endloop
  endfacet
  facet normal -0.0 0.0 -1.0
    outer loop
      vertex 1.5757575757575757 5.090909090909091 0.0
      vertex 0.8484848484848485 0.0 0.0
      vertex 0.8484848484848485 5.090909090909091 0.0
    endloop
  endfacet
  facet normal -0.0 0.0 -1.0
    outer loop
      vertex 1.4545454545454546 5.575757575757576 0.0
      vertex 0.8484848484848485 5.090909090909091 0.0
      vertex 0.9696969696969697 5.575757575757576 0.0
    endloop
  endfacet
  facet normal 0.0 -0.0 -1.0
    outer loop
      vertex 1.4545454545454546 5.575757575757576 0.0
      vertex 1.5757575757575757 5.090909090909091 0.0
      vertex 0.8484848484848485 5.090909090909091 0.0
    endloop
  endfacet
  facet normal 0.0 0.0 -1.0
    outer loop
      vertex 1.4545454545454546 5.575757575757576 0.0
      vertex 1.5757575757575757 5.575757575757576 0.0
      vertex 1.5757575757575757 5.090909090909091 0.0
    endloop
  endfacet
  facet normal -0.0 0.0 -1.0
    outer loop
      vertex 0.9696969696969697 5.575757575757576 0.0
      vertex 0.8484848484848485 5.090909090909091 0.0
      vertex 0.8484848484848485 5.575757575757576 0.0
    endloop
  endfacet
  facet normal -0.0 0.0 -1.0
    outer loop
      vertex 0.9696969696969697 8.0 0.0
      vertex 0.8484848484848485 5.575757575757576 0.0
      vertex 0.8484848484848485 8.0 0.0
    endloop
  endfacet
  facet normal 0.0 -0.0 -1.0
    outer loop
      vertex 0.9696969696969697 8.0 0.0
      vertex 0.9696969696969697 5.575757575757576 0.0
      vertex 0.8484848484848485 5.575757575757576 0.0
    endloop
  endfacet
  facet normal 0.0 0.0 -1.0
    outer loop
      vertex 0.0 5.575757575757576 0.0
      vertex 0.8484848484848485 5.575757575757576 0.0
      vertex 0.0 5.090909090909091 0.0
    endloop
  endfacet
  facet normal 0.0 0.0 -1.0
    outer loop
      vertex 0.0 5.090909090909091 0.0
      vertex 0.8484848484848485 5.575757575757576 0.0
      vertex 0.8484848484848485 5.090909090909091 0.0
    endloop
  endfacet
  facet normal -1.0 0.0 0.0
    outer loop
      vertex 1.4545454545454546 5.575757575757576 0.0
      vertex 1.4545454545454546 5.575757575757576 1.2596732630874172
      vertex 1.4545454545454546 8.0 0.0
    endloop
  endfacet
  facet normal -1.0 0.0 0.0
    outer loop
      vertex 1.4545454545454546 8.0 0.0
      vertex 1.4545454545454546 5.575757575757576 1.2596732630874172
      vertex 1.4545454545454546 8.0 1.2596732630874172
    endloop
  endfacet
  facet normal 0.0 1.0 0.0
    outer loop
      vertex 0.9696969696969697 5.575757575757576 0.0
      vertex 0.9696969696969697 5.575757575757576 1.2596732630874172
      vertex 1.4545454545454546 5.575757575757576 0.0
    endloop
  endfacet
  facet normal 0.0 1.0 -0.0
    outer loop
      vertex 1.4545454545454546 5.575757575757576 0.0
      vertex 0.9696969696969697 5.575757575757576 1.2596732630874172
      vertex 1.4545454545454546 5.575757575757576 1.2596732630874172
    endloop
  endfacet
  facet normal 0.0 1.0 0.0
    outer loop
      vertex 1.4545454545454546 5.575757575757576 1.2596732630874172
      vertex 0.9696969696969697 5.575757575757576 1.2596732630874172
      vertex 0.0 5.575757575757576 1.9393939971923828
    endloop
  endfacet
  facet normal 0.0 1.0 0.0
    outer loop
      vertex 2.4242424242424243 5.575757575757576 1.9393939971923828
      vertex 1.4545454545454546 5.575757575757576 1.2596732630874172
      vertex 0.0 5.575757575757576 1.9393939971923828
    endloop
  endfacet
  facet normal 0.0 1.0 0.0
    outer loop
      vertex 2.4242424242424243 5.575757575757576 1.9393939971923828
      vertex 1.5757575757575757 5.575757575757576 1.2596732630874172
      vertex 1.4545454545454546 5.575757575757576 1.2596732630874172
    endloop
  endfacet
  facet normal 0.0 1.0 0.0
    outer loop
      vertex 2.4242424242424243 5.575757575757576 1.9393939971923828
      vertex 1.9393939393939394 5.575757575757576 0.6298366315437086
      vertex 1.5757575757575757 5.575757575757576 1.2596732630874172
    endloop
  endfacet
  facet normal 0.0 1.0 0.0
    outer loop
      vertex 2.4242424242424243 5.575757575757576 1.9393939971923828
      vertex 2.4242424242424243 5.575757575757576 0.0
      vertex 1.9393939393939394 5.575757575757576 0.6298366315437086
    endloop
  endfacet
  facet normal 0.0 1.0 0.0
    outer loop
      vertex 1.9393939393939394 5.575757575757576 0.6298366315437086
      vertex 2.4242424242424243 5.575757575757576 0.0
      vertex 1.5757575757575757 5.575757575757576 0.0
    endloop
  endfacet
  facet normal 0.0 1.0 0.0
    outer loop
      vertex 0.9696969696969697 5.575757575757576 1.2596732630874172
      vertex 0.8484848484848485 5.575757575757576 1.2596732630874172
      vertex 0.0 5.575757575757576 1.9393939971923828
    endloop
  endfacet
  facet normal 0.0 1.0 0.0
    outer loop
      vertex 0.0 5.575757575757576 1.9393939971923828
      vertex 0.8484848484848485 5.575757575757576 1.2596732630874172
      vertex 0.48484848484848486 5.575757575757576 0.629836631543709
    endloop
  endfacet
  facet normal 0.0 1.0 0.0
    outer loop
      vertex 0.0 5.575757575757576 0.0
      vertex 0.48484848484848486 5.575757575757576 0.629836631543709
      vertex 0.8484848484848485 5.575757575757576 0.0
    endloop
  endfacet
  facet normal 0.0 1.0 0.0
    outer loop
      vertex 0.0 5.575757575757576 0.0
      vertex 0.0 5.575757575757576 1.9393939971923828
      vertex 0.48484848484848486 5.575757575757576 0.629836631543709
    endloop
  endfacet
  facet normal 1.0 0.0 -0.0
    outer loop
      vertex 0.9696969696969697 8.0 0.0
      vertex 0.9696969696969697 8.0 1.2596732630874172
      vertex 0.9696969696969697 5.575757575757576 0.0
    endloop
  endfacet
  facet normal 1.0 0.0 0.0
    outer loop
      vertex 0.9696969696969697 5.575757575757576 0.0
      vertex 0.9696969696969697 8.0 1.2596732630874172
      vertex 0.9696969696969697 5.575757575757576 1.2596732630874172
    endloop
  endfacet
  facet normal 0.0 1.0 0.0
    outer loop
      vertex 1.4545454545454546 8.0 0.0
      vertex 1.4545454545454546 8.0 1.2596732630874172
      vertex 1.5757575757575757 8.0 0.0
    endloop
  endfacet
  facet normal 0.0 1.0 -0.0
    outer loop
      vertex 1.5757575757575757 8.0 0.0
      vertex 1.4545454545454546 8.0 1.2596732630874172
      vertex 1.5757575757575757 8.0 1.2596732630874172
    endloop
  endfacet
  facet normal 0.0 1.0 0.0
    outer loop
      vertex 1.9393939393939394 8.0 0.6298366315437086
      vertex 1.5757575757575757 8.0 0.0
      vertex 1.5757575757575757 8.0 1.2596732630874172
    endloop
  endfacet
  facet normal -0.8660253949314785 0.0 -0.5000000153337764
    outer loop
      vertex 0.8484848484848485 5.575757575757576 0.0
      vertex 0.48484848484848486 5.575757575757576 0.629836631543709
      vertex 0.8484848484848485 8.0 0.0
    endloop
  endfacet
  facet normal -0.8660253949314785 0.0 -0.5000000153337764
    outer loop
      vertex 0.8484848484848485 8.0 0.0
      vertex 0.48484848484848486 5.575757575757576 0.629836631543709
      vertex 0.48484848484848486 8.0 0.629836631543709
    endloop
  endfacet
  facet normal -0.8660253949314782 0.0 0.5000000153337768
    outer loop
      vertex 0.48484848484848486 5.575757575757576 0.629836631543709
      vertex 0.8484848484848485 5.575757575757576 1.2596732630874172
      vertex 0.48484848484848486 8.0 0.629836631543709
    endloop
  endfacet
  facet normal -0.8660253949314782 0.0 0.5000000153337768
    outer loop
      vertex 0.48484848484848486 8.0 0.629836631543709
      vertex 0.8484848484848485 5.575757575757576 1.2596732630874172
      vertex 0.8484848484848485 8.0 1.2596732630874172
    endloop
  endfacet
  facet normal 0.0 0.0 1.0
    outer loop
      vertex 1.4545454545454546 5.575757575757576 1.2596732630874172
      vertex 1.5757575757575757 5.575757575757576 1.2596732630874172
      vertex 1.4545454545454546 8.0 1.2596732630874172
    endloop
  endfacet
  facet normal -0.0 0.0 1.0
    outer loop
      vertex 1.4545454545454546 8.0 1.2596732630874172
      vertex 1.5757575757575757 5.575757575757576 1.2596732630874172
      vertex 1.5757575757575757 8.0 1.2596732630874172
    endloop
  endfacet
  facet normal 0.0 -1.0 0.0
    outer loop
      vertex 1.5757575757575757 0.0 0.0
      vertex 1.9393939393939394 0.0 0.6298366315437086
      vertex 0.8484848484848485 0.0 0.0
    endloop
  endfacet
  facet normal 0.0 -1.0 0.0
    outer loop
      vertex 0.8484848484848485 0.0 0.0
      vertex 1.9393939393939394 0.0 0.6298366315437086
      vertex 0.48484848484848486 0.0 0.629836631543709
    endloop
  endfacet
  facet normal 0.0 -1.0 0.0
    outer loop
      vertex 0.48484848484848486 0.0 0.629836631543709
      vertex 1.9393939393939394 0.0 0.6298366315437086
      vertex 1.5757575757575757 0.0 1.2596732630874172
    endloop
  endfacet
  facet normal 0.0 -1.0 -0.0
    outer loop
      vertex 0.8484848484848485 0.0 1.2596732630874172
      vertex 0.48484848484848486 0.0 0.629836631543709
      vertex 1.5757575757575757 0.0 1.2596732630874172
    endloop
  endfacet
  facet normal 0.0 1.0 0.0
    outer loop
      vertex 0.9696969696969697 8.0 1.2596732630874172
      vertex 0.9696969696969697 8.0 0.0
      vertex 0.8484848484848485 8.0 1.2596732630874172
    endloop
  endfacet
  facet normal 0.0 1.0 0.0
    outer loop
      vertex 0.8484848484848485 8.0 1.2596732630874172
      vertex 0.9696969696969697 8.0 0.0
      vertex 0.8484848484848485 8.0 0.0
    endloop
  endfacet
  facet normal -0.0 1.0 0.0
    outer loop
      vertex 0.48484848484848486 8.0 0.629836631543709
      vertex 0.8484848484848485 8.0 1.2596732630874172
      vertex 0.8484848484848485 8.0 0.0
    endloop
  endfacet
endsolid thingi10k_90280
