solid thingi10k_98413
  facet normal -1.0 0.0 0.0
    outer loop
      vertex 0.0 0.0 0.0
      vertex 0.0 0.0 0.23931623931623935
      vertex 0.0 2.0512820512820515 0.0
    endloop
  endfacet
  facet normal -1.0 0.0 0.0
    outer loop
      vertex 0.0 2.0512820512820515 0.0
      vertex 0.0 0.0 0.23931623931623935
      vertex 0.0 2.0512820512820515 0.23931623931623935
    endloop
  endfacet
  facet normal 0.0 -1.0 0.0
    outer loop
      vertex 0.0 0.0 0.23931623931623935
      vertex 0.0 0.0 0.0
      vertex 3.555555555555556 0.0 0.0
    endloop
  endfacet
  facet normal -0.0 -1.0 -0.0
    outer loop
      vertex 3.555555555555556 0.0 0.23931623931623935
      vertex 0.0 0.0 0.23931623931623935
      vertex 3.555555555555556 0.0 0.0
    endloop
  endfacet
  facet normal 0.0 0.0 -1.0
    outer loop
      vertex 0.0 0.0 0.0
      vertex 0.0 2.0512820512820515 0.0
      vertex 3.555555555555556 0.0 0.0
    endloop
  endfacet
  facet normal 0.0 0.0 -1.0
    outer loop
      vertex 3.555555555555556 0.0 0.0
      vertex 0.0 2.0512820512820515 0.0
      vertex 3.555555555555556 2.0512820512820515 0.0
    endloop
  endfacet
  facet normal 0.0 1.0 0.0
    outer loop
      vertex 0.0 2.0512820512820515 0.0
      vertex 0.0 2.0512820512820515 0.23931623931623935
      vertex 3.555555555555556 2.0512820512820515 0.0
    endloop
  endfacet
  facet normal 0.0 1.0 -0.0
    outer loop
      vertex 3.555555555555556 2.0512820512820515 0.0
      vertex 0.0 2.0512820512820515 0.23931623931623935
      vertex 3.555555555555556 2.0512820512820515 0.23931623931623935
    endloop
  endfacet
  facet normal 0.0 0.0 1.0
    outer loop
      vertex 0.7521367521367522 0.5128205128205129 0.23931623931623935
      vertex 0.0 0.0 0.23931623931623935
      vertex 3.555555555555556 0.0 0.23931623931623935
    endloop
  endfacet
  facet normal 0.0 0.0 1.0
    outer loop
      vertex 0.0 2.0512820512820515 0.23931623931623935
      vertex 0.0 0.0 0.23931623931623935
      vertex 0.7521367521367522 0.5128205128205129 0.23931623931623935
    endloop
  endfacet
  facet normal 0.0 -0.0 1.0
    outer loop
      vertex 0.7521367521367522 1.5384615384615385 0.23931623931623935
      vertex 2.8034188034188037 1.5384615384615385 0.23931623931623935
      vertex 0.0 2.0512820512820515 0.23931623931623935
    endloop
  endfacet
  facet normal 0.0 0.0 1.0
    outer loop
      vertex 0.0 2.0512820512820515 0.23931623931623935
      vertex 0.7521367521367522 0.5128205128205129 0.23931623931623935
      vertex 0.7521367521367522 1.5384615384615385 0.23931623931623935
    endloop
  endfacet
  facet normal 0.0 0.0 1.0
    outer loop
      vertex 3.555555555555556 2.0512820512820515 0.23931623931623935
      vertex 2.8034188034188037 1.5384615384615385 0.23931623931623935
      vertex 3.555555555555556 0.0 0.23931623931623935
    endloop
  endfacet
  facet normal 0.0 0.0 1.0
    outer loop
      vertex 3.555555555555556 2.0512820512820515 0.23931623931623935
      vertex 0.0 2.0512820512820515 0.23931623931623935
      vertex 2.8034188034188037 1.5384615384615385 0.23931623931623935
    endloop
  endfacet
  facet normal 0.0 0.0 1.0
    outer loop
      vertex 2.8034188034188037 1.5384615384615385 0.23931623931623935
      vertex 2.8034188034188037 0.5128205128205129 0.23931623931623935
      vertex 3.555555555555556 0.0 0.23931623931623935
    endloop
  endfacet
  facet normal 0.0 0.0 1.0
    outer loop
      vertex 2.8034188034188037 0.5128205128205129 0.23931623931623935
      vertex 0.7521367521367522 0.5128205128205129 0.23931623931623935
      vertex 3.555555555555556 0.0 0.23931623931623935
    endloop
  endfacet
  facet normal 1.0 0.0 0.0
    outer loop
      vertex 3.555555555555556 0.0 0.23931623931623935
      vertex 3.555555555555556 0.0 0.0
      vertex 3.555555555555556 2.0512820512820515 0.0
    endloop
  endfacet
  facet normal 1.0 0.0 0.0
    outer loop
      vertex 3.555555555555556 2.0512820512820515 0.23931623931623935
      vertex 3.555555555555556 0.0 0.23931623931623935
      vertex 3.555555555555556 2.0512820512820515 0.0
    endloop
  endfacet
  facet normal -1.0 0.0 0.0
    outer loop
      vertex 0.7521367521367522 0.5128205128205129 0.23931623931623935
      vertex 0.7521367521367522 0.5128205128205129 6.8150700854700865
      vertex 0.7521367521367522 1.5384615384615385 0.23931623931623935
    endloop
  endfacet
  facet normal -1.0 0.0 0.0
    outer loop
      vertex 0.7521367521367522 1.5384615384615385 0.23931623931623935
      vertex 0.7521367521367522 0.5128205128205129 6.8150700854700865
      vertex 0.7521367521367522 1.5384615384615385 6.8150700854700865
    endloop
  endfacet
  facet normal 0.0 -1.0 0.0
    outer loop
      vertex 0.7521367521367522 0.5128205128205129 6.8150700854700865
      vertex 0.7521367521367522 0.5128205128205129 0.23931623931623935
      vertex 2.8034188034188037 0.5128205128205129 0.23931623931623935
    endloop
  endfacet
  facet normal -0.0 -1.0 -0.0
    outer loop
      vertex 2.8034188034188037 0.5128205128205129 6.8150700854700865
      vertex 0.7521367521367522 0.5128205128205129 6.8150700854700865
      vertex 2.8034188034188037 0.5128205128205129 0.23931623931623935
    endloop
  endfacet
  facet normal 1.0 0.0 0.0
    outer loop
      vertex 2.8034188034188037 0.5128205128205129 6.8150700854700865
      vertex 2.8034188034188037 0.5128205128205129 0.23931623931623935
      vertex 2.8034188034188037 1.5384615384615385 0.23931623931623935
    endloop
  endfacet
  facet normal 1.0 0.0 0.0
    outer loop
      vertex 2.8034188034188037 1.5384615384615385 6.8150700854700865
      vertex 2.8034188034188037 0.5128205128205129 6.8150700854700865
      vertex 2.8034188034188037 1.5384615384615385 0.23931623931623935
    endloop
  endfacet
  facet normal 0.0 1.0 0.0
    outer loop
      vertex 0.7521367521367522 1.5384615384615385 0.23931623931623935
      vertex 0.7521367521367522 1.5384615384615385 6.8150700854700865
      vertex 2.8034188034188037 1.5384615384615385 0.23931623931623935
    endloop
  endfacet
  facet normal 0.0 1.0 -0.0
    outer loop
      vertex 2.8034188034188037 1.5384615384615385 0.23931623931623935
      vertex 0.7521367521367522 1.5384615384615385 6.8150700854700865
      vertex 2.8034188034188037 1.5384615384615385 6.8150700854700865
    endloop
  endfacet
  facet normal -0.6449587291338857 0.0 -0.7642174021271715
    outer loop
      vertex 0.23931623931623935 0.13675213675213677 7.247863247863249
      vertex 0.23931623931623935 1.9145299145299148 7.247863247863249
      vertex 0.7521367521367522 0.5128205128205129 6.8150700854700865
    endloop
  endfacet
  facet normal -0.6449587291338856 0.0 -0.7642174021271715
    outer loop
      vertex 0.7521367521367522 0.5128205128205129 6.8150700854700865
      vertex 0.23931623931623935 1.9145299145299148 7.247863247863249
      vertex 0.7521367521367522 1.5384615384615385 6.8150700854700865
    endloop
  endfacet
  facet normal 0.0 0.7548416742642492 -0.6559070412748631
    outer loop
      vertex 0.23931623931623935 1.9145299145299148 7.247863247863249
      vertex 3.3162393162393164 1.9145299145299148 7.247863247863249
      vertex 0.7521367521367522 1.5384615384615385 6.8150700854700865
    endloop
  endfacet
  facet normal 0.0 0.7548416742642492 -0.6559070412748632
    outer loop
      vertex 0.7521367521367522 1.5384615384615385 6.8150700854700865
      vertex 3.3162393162393164 1.9145299145299148 7.247863247863249
      vertex 2.8034188034188037 1.5384615384615385 6.8150700854700865
    endloop
  endfacet
  facet normal -0.0 -0.7548416742642493 -0.6559070412748631
    outer loop
      vertex 3.3162393162393164 0.13675213675213677 7.247863247863249
      vertex 0.23931623931623935 0.13675213675213677 7.247863247863249
      vertex 0.7521367521367522 0.5128205128205129 6.8150700854700865
    endloop
  endfacet
  facet normal -0.0 -0.7548416742642493 -0.6559070412748631
    outer loop
      vertex 2.8034188034188037 0.5128205128205129 6.8150700854700865
      vertex 3.3162393162393164 0.13675213675213677 7.247863247863249
      vertex 0.7521367521367522 0.5128205128205129 6.8150700854700865
    endloop
  endfacet
  facet normal 0.6449587291338857 0.0 -0.7642174021271715
    outer loop
      vertex 2.8034188034188037 0.5128205128205129 6.8150700854700865
      vertex 2.8034188034188037 1.5384615384615385 6.8150700854700865
      vertex 3.3162393162393164 0.13675213675213677 7.247863247863249
    endloop
  endfacet
  facet normal 0.6449587291338857 0.0 -0.7642174021271715
    outer loop
      vertex 3.3162393162393164 0.13675213675213677 7.247863247863249
      vertex 2.8034188034188037 1.5384615384615385 6.8150700854700865
      vertex 3.3162393162393164 1.9145299145299148 7.247863247863249
    endloop
  endfacet
  facet normal -1.0 0.0 0.0
    outer loop
      vertex 0.23931623931623935 0.13675213675213677 7.247863247863249
      vertex 0.23931623931623935 0.13675213675213677 8.0
      vertex 0.23931623931623935 1.9145299145299148 7.247863247863249
    endloop
  endfacet
  facet normal -1.0 0.0 0.0
    outer loop
      vertex 0.23931623931623935 1.9145299145299148 7.247863247863249
      vertex 0.23931623931623935 0.13675213675213677 8.0
      vertex 0.23931623931623935 1.9145299145299148 8.0
    endloop
  endfacet
  facet normal 0.0 1.0 0.0
    outer loop
      vertex 3.1794871794871797 1.9145299145299148 7.384615384615385
      vertex 3.3162393162393164 1.9145299145299148 7.247863247863249
      vertex 0.3760683760683761 1.9145299145299148 7.384615384615385
    endloop
  endfacet
  facet normal 0.0 1.0 0.0
    outer loop
      vertex 0.23931623931623935 1.9145299145299148 7.247863247863249
      vertex 0.23931623931623935 1.9145299145299148 8.0
      vertex 0.3760683760683761 1.9145299145299148 7.384615384615385
    endloop
  endfacet
  facet normal 0.0 1.0 0.0
    outer loop
      vertex 0.23931623931623935 1.9145299145299148 7.247863247863249
      vertex 0.3760683760683761 1.9145299145299148 7.384615384615385
      vertex 3.3162393162393164 1.9145299145299148 7.247863247863249
    endloop
  endfacet
  facet normal 0.0 1.0 0.0
    outer loop
      vertex 3.3162393162393164 1.9145299145299148 7.247863247863249
      vertex 3.1794871794871797 1.9145299145299148 7.384615384615385
      vertex 3.1794871794871797 1.9145299145299148 8.0
    endloop
  endfacet
  facet normal 0.0 1.0 -0.0
    outer loop
      vertex 3.3162393162393164 1.9145299145299148 7.247863247863249
      vertex 3.1794871794871797 1.9145299145299148 8.0
      vertex 3.3162393162393164 1.9145299145299148 8.0
    endloop
  endfacet
  facet normal 0.0 1.0 -0.0
    outer loop
      vertex 0.3760683760683761 1.9145299145299148 7.384615384615385
      vertex 0.23931623931623935 1.9145299145299148 8.0
      vertex 0.3760683760683761 1.9145299145299148 8.0
    endloop
  endfacet
  facet normal 0.0 -1.0 -0.0
    outer loop
      vertex 0.3760683760683761 0.13675213675213677 7.384615384615385
      vertex 0.23931623931623935 0.13675213675213677 7.247863247863249
      vertex 3.3162393162393164 0.13675213675213677 7.247863247863249
    endloop
  endfacet
  facet normal 0.0 -1.0 0.0
    outer loop
      vertex 0.3760683760683761 0.13675213675213677 7.384615384615385
      vertex 0.3760683760683761 0.13675213675213677 8.0
      vertex 0.23931623931623935 0.13675213675213677 8.0
    endloop
  endfacet
  facet normal -0.0 -1.0 -0.0
    outer loop
      vertex 3.3162393162393164 0.13675213675213677 8.0
      vertex 3.1794871794871797 0.13675213675213677 8.0
      vertex 3.3162393162393164 0.13675213675213677 7.247863247863249
    endloop
  endfacet
  facet normal 0.0 -1.0 0.0
    outer loop
      vertex 3.1794871794871797 0.13675213675213677 8.0
      vertex 3.1794871794871797 0.13675213675213677 7.384615384615385
      vertex 3.3162393162393164 0.13675213675213677 7.247863247863249
    endloop
  endfacet
  facet normal 0.0 -1.0 0.0
    outer loop
      vertex 0.23931623931623935 0.13675213675213677 8.0
      vertex 0.23931623931623935 0.13675213675213677 7.247863247863249
      vertex 0.3760683760683761 0.13675213675213677 7.384615384615385
    endloop
  endfacet
  facet normal -0.0 -1.0 -0.0
    outer loop
      vertex 3.1794871794871797 0.13675213675213677 7.384615384615385
      vertex 0.3760683760683761 0.13675213675213677 7.384615384615385
      vertex 3.3162393162393164 0.13675213675213677 7.247863247863249
    endloop
  endfacet
  facet normal 1.0 0.0 0.0
    outer loop
      vertex 3.3162393162393164 0.13675213675213677 8.0
      vertex 3.3162393162393164 0.13675213675213677 7.247863247863249
      vertex 3.3162393162393164 1.9145299145299148 7.247863247863249
    endloop
  endfacet
  facet normal 1.0 0.0 0.0
    outer loop
      vertex 3.3162393162393164 1.9145299145299148 8.0
      vertex 3.3162393162393164 0.13675213675213677 8.0
      vertex 3.3162393162393164 1.9145299145299148 7.247863247863249
    endloop
  endfacet
  facet normal 0.0 -0.0 1.0
    outer loop
      vertex 0.3760683760683761 0.13675213675213677 8.0
      vertex 0.3760683760683761 1.9145299145299148 8.0
      vertex 0.23931623931623935 1.9145299145299148 8.0
    endloop
  endfacet
  facet normal 0.0 0.0 1.0
    outer loop
      vertex 0.23931623931623935 0.13675213675213677 8.0
      vertex 0.3760683760683761 0.13675213675213677 8.0
      vertex 0.23931623931623935 1.9145299145299148 8.0
    endloop
  endfacet
  facet normal 0.0 0.0 1.0
    outer loop
      vertex 3.1794871794871797 1.9145299145299148 8.0
      vertex 3.1794871794871797 0.13675213675213677 8.0
      vertex 3.3162393162393164 0.13675213675213677 8.0
    endloop
  endfacet
  facet normal 0.0 0.0 1.0
    outer loop
      vertex 3.3162393162393164 1.9145299145299148 8.0
      vertex 3.1794871794871797 1.9145299145299148 8.0
      vertex 3.3162393162393164 0.13675213675213677 8.0
    endloop
  endfacet
  facet normal -1.0 0.0 0.0
    outer loop
      vertex 3.1794871794871797 0.13675213675213677 7.384615384615385
      vertex 3.1794871794871797 0.13675213675213677 8.0
      vertex 3.1794871794871797 1.9145299145299148 7.384615384615385
    endloop
  endfacet
  facet normal -1.0 0.0 0.0
    outer loop
      vertex 3.1794871794871797 1.9145299145299148 7.384615384615385
      vertex 3.1794871794871797 0.13675213675213677 8.0
      vertex 3.1794871794871797 1.9145299145299148 8.0
    endloop
  endfacet
  facet normal 0.0 0.0 1.0
    outer loop
      vertex 0.3760683760683761 1.9145299145299148 7.384615384615385
      vertex 0.3760683760683761 0.13675213675213677 7.384615384615385
      vertex 3.1794871794871797 0.13675213675213677 7.384615384615385
    endloop
  endfacet
  facet normal 0.0 0.0 1.0
    outer loop
      vertex 3.1794871794871797 1.9145299145299148 7.384615384615385
      vertex 0.3760683760683761 1.9145299145299148 7.384615384615385
      vertex 3.1794871794871797 0.13675213675213677 7.384615384615385
    endloop
  endfacet
  facet normal 1.0 0.0 -0.0
    outer loop
      vertex 0.3760683760683761 1.9145299145299148 7.384615384615385
      vertex 0.3760683760683761 1.9145299145299148 8.0
      vertex 0.3760683760683761 0.13675213675213677 8.0
    endloop
  endfacet
  facet normal 1.0 0.0 0.0
    outer loop
      vertex 0.3760683760683761 0.13675213675213677 7.384615384615385
      vertex 0.3760683760683761 1.9145299145299148 7.384615384615385
      vertex 0.3760683760683761 0.13675213675213677 8.0
    endloop
  endfacet
endsolid thingi10k_98413
