solid thingi10k_98412
  facet normal -1.0 0.0 0.0
    outer loop
      vertex 0.0 0.0 0.0
      vertex 0.0 0.0 0.3943661971830986
      vertex 0.0 3.380281690140845 0.0
    endloop
  endfacet
  facet normal -1.0 0.0 0.0
    outer loop
      vertex 0.0 3.380281690140845 0.0
      vertex 0.0 0.0 0.3943661971830986
      vertex 0.0 3.380281690140845 0.3943661971830986
    endloop
  endfacet
  facet normal 0.0 -1.0 0.0
    outer loop
      vertex 0.0 0.0 0.3943661971830986
      vertex 0.0 0.0 0.0
      vertex 5.859154929577465 0.0 0.0
    endloop
  endfacet
  facet normal -0.0 -1.0 -0.0
    outer loop
      vertex 5.859154929577465 0.0 0.3943661971830986
      vertex 0.0 0.0 0.3943661971830986
      vertex 5.859154929577465 0.0 0.0
    endloop
  endfacet
  facet normal 0.0 0.0 -1.0
    outer loop
      vertex 0.0 0.0 0.0
      vertex 0.0 3.380281690140845 0.0
      vertex 5.859154929577465 0.0 0.0
    endloop
  endfacet
  facet normal 0.0 0.0 -1.0
    outer loop
      vertex 5.859154929577465 0.0 0.0
      vertex 0.0 3.380281690140845 0.0
      vertex 5.859154929577465 3.380281690140845 0.0
    endloop
  endfacet
  facet normal 0.0 1.0 0.0
    outer loop
      vertex 0.0 3.380281690140845 0.0
      vertex 0.0 3.380281690140845 0.3943661971830986
      vertex 5.859154929577465 3.380281690140845 0.0
    endloop
  endfacet
  facet normal 0.0 1.0 -0.0
    outer loop
      vertex 5.859154929577465 3.380281690140845 0.0
      vertex 0.0 3.380281690140845 0.3943661971830986
      vertex 5.859154929577465 3.380281690140845 0.3943661971830986
    endloop
  endfacet
  facet normal 0.0 0.0 1.0
    outer loop
      vertex 1.23943661971831 0.8450704225352113 0.3943661971830986
      vertex 0.0 0.0 0.3943661971830986
      vertex 5.859154929577465 0.0 0.3943661971830986
    endloop
  endfacet
  facet normal 0.0 0.0 1.0
    outer loop
      vertex 0.0 3.380281690140845 0.3943661971830986
      vertex 0.0 0.0 0.3943661971830986
      vertex 1.23943661971831 0.8450704225352113 0.3943661971830986
    endloop
  endfacet
  facet normal 0.0 -0.0 1.0
    outer loop
      vertex 1.23943661971831 2.535211267605634 0.3943661971830986
      vertex 4.619718309859155 2.535211267605634 0.3943661971830986
      vertex 0.0 3.380281690140845 0.3943661971830986
    endloop
  endfacet
  facet normal 0.0 0.0 1.0
    outer loop
      vertex 0.0 3.380281690140845 0.3943661971830986
      vertex 1.23943661971831 0.8450704225352113 0.3943661971830986
      vertex 1.23943661971831 2.535211267605634 0.3943661971830986
    endloop
  endfacet
  facet normal 0.0 0.0 1.0
    outer loop
      vertex 5.859154929577465 3.380281690140845 0.3943661971830986
      vertex 4.619718309859155 2.535211267605634 0.3943661971830986
      vertex 5.859154929577465 0.0 0.3943661971830986
    endloop
  endfacet
  facet normal 0.0 0.0 1.0
    outer loop
      vertex 5.859154929577465 3.380281690140845 0.3943661971830986
      vertex 0.0 3.380281690140845 0.3943661971830986
      vertex 4.619718309859155 2.535211267605634 0.3943661971830986
    endloop
  endfacet
  facet normal 0.0 0.0 1.0
    outer loop
      vertex 4.619718309859155 2.535211267605634 0.3943661971830986
      vertex 4.619718309859155 0.8450704225352113 0.3943661971830986
      vertex 5.859154929577465 0.0 0.3943661971830986
    endloop
  endfacet
  facet normal 0.0 0.0 1.0
    outer loop
      vertex 4.619718309859155 0.8450704225352113 0.3943661971830986
      vertex 1.23943661971831 0.8450704225352113 0.3943661971830986
      vertex 5.859154929577465 0.0 0.3943661971830986
    endloop
  endfacet
  facet normal 1.0 0.0 0.0
    outer loop
      vertex 5.859154929577465 0.0 0.3943661971830986
      vertex 5.859154929577465 0.0 0.0
      vertex 5.859154929577465 3.380281690140845 0.0
    endloop
  endfacet
  facet normal 1.0 0.0 0.0
    outer loop
      vertex 5.859154929577465 3.380281690140845 0.3943661971830986
      vertex 5.859154929577465 0.0 0.3943661971830986
      vertex 5.859154929577465 3.380281690140845 0.0
    endloop
  endfacet
  facet normal -1.0 0.0 0.0
    outer loop
      vertex 1.23943661971831 0.8450704225352113 0.3943661971830986
      vertex 1.23943661971831 0.8450704225352113 6.0473690140845076
      vertex 1.23943661971831 2.535211267605634 0.3943661971830986
    endloop
  endfacet
  facet normal -1.0 0.0 0.0
    outer loop
      vertex 1.23943661971831 2.535211267605634 0.3943661971830986
      vertex 1.23943661971831 0.8450704225352113 6.0473690140845076
      vertex 1.23943661971831 2.535211267605634 6.0473690140845076
    endloop
  endfacet
  facet normal 0.0 -1.0 0.0
    outer loop
      vertex 1.23943661971831 0.8450704225352113 6.0473690140845076
      vertex 1.23943661971831 0.8450704225352113 0.3943661971830986
      vertex 4.619718309859155 0.8450704225352113 0.3943661971830986
    endloop
  endfacet
  facet normal -0.0 -1.0 -0.0
    outer loop
      vertex 4.619718309859155 0.8450704225352113 6.0473690140845076
      vertex 1.23943661971831 0.8450704225352113 6.0473690140845076
      vertex 4.619718309859155 0.8450704225352113 0.3943661971830986
    endloop
  endfacet
  facet normal 1.0 0.0 0.0
    outer loop
      vertex 4.619718309859155 0.8450704225352113 6.0473690140845076
      vertex 4.619718309859155 0.8450704225352113 0.3943661971830986
      vertex 4.619718309859155 2.535211267605634 0.3943661971830986
    endloop
  endfacet
  facet normal 1.0 0.0 0.0
    outer loop
      vertex 4.619718309859155 2.535211267605634 6.0473690140845076
      vertex 4.619718309859155 0.8450704225352113 6.0473690140845076
      vertex 4.619718309859155 2.535211267605634 0.3943661971830986
    endloop
  endfacet
  facet normal 0.0 1.0 0.0
    outer loop
      vertex 1.23943661971831 2.535211267605634 0.3943661971830986
      vertex 1.23943661971831 2.535211267605634 6.0473690140845076
      vertex 4.619718309859155 2.535211267605634 0.3943661971830986
    endloop
  endfacet
  facet normal 0.0 1.0 -0.0
    outer loop
      vertex 4.619718309859155 2.535211267605634 0.3943661971830986
      vertex 1.23943661971831 2.535211267605634 6.0473690140845076
      vertex 4.619718309859155 2.535211267605634 6.0473690140845076
    endloop
  endfacet
  facet normal -0.6449587291338854 0.0 -0.7642174021271717
    outer loop
      vertex 0.3943661971830986 0.22535211267605634 6.76056338028169
      vertex 0.3943661971830986 3.154929577464789 6.76056338028169
      vertex 1.23943661971831 0.8450704225352113 6.0473690140845076
    endloop
  endfacet
  facet normal -0.6449587291338856 0.0 -0.7642174021271717
    outer loop
      vertex 1.23943661971831 0.8450704225352113 6.0473690140845076
      vertex 0.3943661971830986 3.154929577464789 6.76056338028169
      vertex 1.23943661971831 2.535211267605634 6.0473690140845076
    endloop
  endfacet
  facet normal 0.0 0.7548416742642492 -0.6559070412748633
    outer loop
      vertex 0.3943661971830986 3.154929577464789 6.76056338028169
      vertex 5.464788732394366 3.154929577464789 6.76056338028169
      vertex 1.23943661971831 2.535211267605634 6.0473690140845076
    endloop
  endfacet
  facet normal 0.0 0.7548416742642491 -0.6559070412748632
    outer loop
      vertex 1.23943661971831 2.535211267605634 6.0473690140845076
      vertex 5.464788732394366 3.154929577464789 6.76056338028169
      vertex 4.619718309859155 2.535211267605634 6.0473690140845076
    endloop
  endfacet
  facet normal -0.0 -0.7548416742642492 -0.6559070412748631
    outer loop
      vertex 5.464788732394366 0.22535211267605634 6.76056338028169
      vertex 0.3943661971830986 0.22535211267605634 6.76056338028169
      vertex 1.23943661971831 0.8450704225352113 6.0473690140845076
    endloop
  endfacet
  facet normal -0.0 -0.7548416742642492 -0.6559070412748631
    outer loop
      vertex 4.619718309859155 0.8450704225352113 6.0473690140845076
      vertex 5.464788732394366 0.22535211267605634 6.76056338028169
      vertex 1.23943661971831 0.8450704225352113 6.0473690140845076
    endloop
  endfacet
  facet normal 0.6449587291338857 0.0 -0.7642174021271716
    outer loop
      vertex 4.619718309859155 0.8450704225352113 6.0473690140845076
      vertex 4.619718309859155 2.535211267605634 6.0473690140845076
      vertex 5.464788732394366 0.22535211267605634 6.76056338028169
    endloop
  endfacet
  facet normal 0.6449587291338857 0.0 -0.7642174021271716
    outer loop
      vertex 5.464788732394366 0.22535211267605634 6.76056338028169
      vertex 4.619718309859155 2.535211267605634 6.0473690140845076
      vertex 5.464788732394366 3.154929577464789 6.76056338028169
    endloop
  endfacet
  facet normal -1.0 0.0 0.0
    outer loop
      vertex 0.3943661971830986 0.22535211267605634 6.76056338028169
      vertex 0.3943661971830986 0.22535211267605634 8.0
      vertex 0.3943661971830986 3.154929577464789 6.76056338028169
    endloop
  endfacet
  facet normal -1.0 0.0 0.0
    outer loop
      vertex 0.3943661971830986 3.154929577464789 6.76056338028169
      vertex 0.3943661971830986 0.22535211267605634 8.0
      vertex 0.3943661971830986 3.154929577464789 8.0
    endloop
  endfacet
  facet normal 0.0 1.0 0.0
    outer loop
      vertex 5.23943661971831 3.154929577464789 6.985915492957747
      vertex 5.464788732394366 3.154929577464789 6.76056338028169
      vertex 0.619718309859155 3.154929577464789 6.985915492957747
    endloop
  endfacet
  facet normal 0.0 1.0 0.0
    outer loop
      vertex 0.3943661971830986 3.154929577464789 6.76056338028169
      vertex 0.3943661971830986 3.154929577464789 8.0
      vertex 0.619718309859155 3.154929577464789 6.985915492957747
    endloop
  endfacet
  facet normal 0.0 1.0 0.0
    outer loop
      vertex 0.3943661971830986 3.154929577464789 6.76056338028169
      vertex 0.619718309859155 3.154929577464789 6.985915492957747
      vertex 5.464788732394366 3.154929577464789 6.76056338028169
    endloop
  endfacet
  facet normal 0.0 1.0 0.0
    outer loop
      vertex 5.464788732394366 3.154929577464789 6.76056338028169
      vertex 5.23943661971831 3.154929577464789 6.985915492957747
      vertex 5.23943661971831 3.154929577464789 8.0
    endloop
  endfacet
  facet normal 0.0 1.0 -0.0
    outer loop
      vertex 5.464788732394366 3.154929577464789 6.76056338028169
      vertex 5.23943661971831 3.154929577464789 8.0
      vertex 5.464788732394366 3.154929577464789 8.0
    endloop
  endfacet
  facet normal 0.0 1.0 -0.0
    outer loop
      vertex 0.619718309859155 3.154929577464789 6.985915492957747
      vertex 0.3943661971830986 3.154929577464789 8.0
      vertex 0.619718309859155 3.154929577464789 8.0
    endloop
  endfacet
  facet normal 0.0 -1.0 -0.0
    outer loop
      vertex 0.619718309859155 0.22535211267605634 6.985915492957747
      vertex 0.3943661971830986 0.22535211267605634 6.76056338028169
      vertex 5.464788732394366 0.22535211267605634 6.76056338028169
    endloop
  endfacet
  facet normal 0.0 -1.0 0.0
    outer loop
      vertex 0.619718309859155 0.22535211267605634 6.985915492957747
      vertex 0.619718309859155 0.22535211267605634 8.0
      vertex 0.3943661971830986 0.22535211267605634 8.0
    endloop
  endfacet
  facet normal -0.0 -1.0 -0.0
    outer loop
      vertex 5.464788732394366 0.22535211267605634 8.0
      vertex 5.23943661971831 0.22535211267605634 8.0
      vertex 5.464788732394366 0.22535211267605634 6.76056338028169
    endloop
  endfacet
  facet normal 0.0 -1.0 0.0
    outer loop
      vertex 5.23943661971831 0.22535211267605634 8.0
      vertex 5.23943661971831 0.22535211267605634 6.985915492957747
      vertex 5.464788732394366 0.22535211267605634 6.76056338028169
    endloop
  endfacet
  facet normal 0.0 -1.0 0.0
    outer loop
      vertex 0.3943661971830986 0.22535211267605634 8.0
      vertex 0.3943661971830986 0.22535211267605634 6.76056338028169
      vertex 0.619718309859155 0.22535211267605634 6.985915492957747
    endloop
  endfacet
  facet normal -0.0 -1.0 -0.0
    outer loop
      vertex 5.23943661971831 0.22535211267605634 6.985915492957747
      vertex 0.619718309859155 0.22535211267605634 6.985915492957747
      vertex 5.464788732394366 0.22535211267605634 6.76056338028169
    endloop
  endfacet
  facet normal 1.0 0.0 0.0
    outer loop
      vertex 5.464788732394366 0.22535211267605634 8.0
      vertex 5.464788732394366 0.22535211267605634 6.76056338028169
      vertex 5.464788732394366 3.154929577464789 6.76056338028169
    endloop
  endfacet
  facet normal 1.0 0.0 0.0
    outer loop
      vertex 5.464788732394366 3.154929577464789 8.0
      vertex 5.464788732394366 0.22535211267605634 8.0
      vertex 5.464788732394366 3.154929577464789 6.76056338028169
    endloop
  endfacet
  facet normal 0.0 -0.0 1.0
    outer loop
      vertex 0.619718309859155 0.22535211267605634 8.0
      vertex 0.619718309859155 3.154929577464789 8.0
      vertex 0.3943661971830986 3.154929577464789 8.0
    endloop
  endfacet
  facet normal 0.0 0.0 1.0
    outer loop
      vertex 0.3943661971830986 0.22535211267605634 8.0
      vertex 0.619718309859155 0.22535211267605634 8.0
      vertex 0.3943661971830986 3.154929577464789 8.0
    endloop
  endfacet
  facet normal 0.0 0.0 1.0
    outer loop
      vertex 5.23943661971831 3.154929577464789 8.0
      vertex 5.23943661971831 0.22535211267605634 8.0
      vertex 5.464788732394366 0.22535211267605634 8.0
    endloop
  endfacet
  facet normal 0.0 0.0 1.0
    outer loop
      vertex 5.464788732394366 3.154929577464789 8.0
      vertex 5.23943661971831 3.154929577464789 8.0
      vertex 5.464788732394366 0.22535211267605634 8.0
    endloop
  endfacet
  facet normal -1.0 0.0 0.0
    outer loop
      vertex 5.23943661971831 0.22535211267605634 6.985915492957747
      vertex 5.23943661971831 0.22535211267605634 8.0
      vertex 5.23943661971831 3.154929577464789 6.985915492957747
    endloop
  endfacet
  facet normal -1.0 0.0 0.0
    outer loop
      vertex 5.23943661971831 3.154929577464789 6.985915492957747
      vertex 5.23943661971831 0.22535211267605634 8.0
      vertex 5.23943661971831 3.154929577464789 8.0
    endloop
  endfacet
  facet normal 0.0 0.0 1.0
    outer loop
      vertex 0.619718309859155 3.154929577464789 6.985915492957747
      vertex 0.619718309859155 0.22535211267605634 6.985915492957747
      vertex 5.23943661971831 0.22535211267605634 6.985915492957747
    endloop
  endfacet
  facet normal 0.0 0.0 1.0
    outer loop
      vertex 5.23943661971831 3.154929577464789 6.985915492957747
      vertex 0.619718309859155 3.154929577464789 6.985915492957747
      vertex 5.23943661971831 0.22535211267605634 6.985915492957747
    endloop
  endfacet
  facet normal 1.0 0.0 -0.0
    outer loop
      vertex 0.619718309859155 3.154929577464789 6.985915492957747
      vertex 0.619718309859155 3.154929577464789 8.0
      vertex 0.619718309859155 0.22535211267605634 8.0
    endloop
  endfacet
  facet normal 1.0 0.0 0.0
    outer loop
      vertex 0.619718309859155 0.22535211267605634 6.985915492957747
      vertex 0.619718309859155 3.154929577464789 6.985915492957747
      vertex 0.619718309859155 0.22535211267605634 8.0
    endloop
  endfacet
endsolid thingi10k_98412
