solid thingi10k_65584
  facet normal 0.0 0.0 1.0
    outer loop
      vertex 3.942857142857143 0.34285714285714286 12.0
      vertex 0.0 0.0 12.0
      vertex 4.285714285714286 0.0 12.0
    endloop
  endfacet
  facet normal 0.0 -0.0 1.0
    outer loop
      vertex 0.34285714285714286 0.34285714285714286 12.0
      vertex 0.34285714285714286 8.228571428571428 12.0
      vertex 0.0 8.571428571428571 12.0
    endloop
  endfacet
  facet normal -0.0 0.0 1.0
    outer loop
      vertex 0.34285714285714286 0.34285714285714286 12.0
      vertex 0.0 0.0 12.0
      vertex 3.942857142857143 0.34285714285714286 12.0
    endloop
  endfacet
  facet normal 0.0 0.0 1.0
    outer loop
      vertex 0.0 8.571428571428571 12.0
      vertex 0.0 0.0 12.0
      vertex 0.34285714285714286 0.34285714285714286 12.0
    endloop
  endfacet
  facet normal 0.0 0.0 1.0
    outer loop
      vertex 4.285714285714286 8.571428571428571 12.0
      vertex 0.0 8.571428571428571 12.0
      vertex 0.34285714285714286 8.228571428571428 12.0
    endloop
  endfacet
  facet normal 0.0 0.0 1.0
    outer loop
      vertex 4.285714285714286 8.571428571428571 12.0
      vertex 3.942857142857143 8.228571428571428 12.0
      vertex 4.285714285714286 0.0 12.0
    endloop
  endfacet
  facet normal 0.0 0.0 1.0
    outer loop
      vertex 4.285714285714286 8.571428571428571 12.0
      vertex 0.34285714285714286 8.228571428571428 12.0
      vertex 3.942857142857143 8.228571428571428 12.0
    endloop
  endfacet
  facet normal 0.0 0.0 1.0
    outer loop
      vertex 3.942857142857143 8.228571428571428 12.0
      vertex 3.942857142857143 0.34285714285714286 12.0
      vertex 4.285714285714286 0.0 12.0
    endloop
  endfacet
  facet normal -0.0 -1.0 0.0
    outer loop
      vertex 4.285714285714286 0.0 12.0
      vertex 0.0 0.0 12.0
      vertex 0.0 0.0 0.0
    endloop
  endfacet
  facet normal -0.0 -1.0 0.0
    outer loop
      vertex 4.1571428571428575 0.0 8.366657142857143
      vertex 4.285714285714286 0.0 12.0
      vertex 0.0 0.0 0.0
    endloop
  endfacet
  facet normal 0.0 -1.0 0.0
    outer loop
      vertex 4.285714285714286 0.0 0.0
      vertex 4.285714285714286 0.0 5.930158285714286
      vertex 0.0 0.0 0.0
    endloop
  endfacet
  facet normal -0.0 -1.0 0.0
    outer loop
      vertex 4.285714285714286 0.0 5.930158285714286
      vertex 4.1571428571428575 0.0 5.930158285714286
      vertex 0.0 0.0 0.0
    endloop
  endfacet
  facet normal -0.0 -1.0 0.0
    outer loop
      vertex 4.1571428571428575 0.0 5.930158285714286
      vertex 4.1571428571428575 0.0 8.366657142857143
      vertex 0.0 0.0 0.0
    endloop
  endfacet
  facet normal 0.0 -1.0 0.0
    outer loop
      vertex 4.1571428571428575 0.0 8.366657142857143
      vertex 4.285714285714286 0.0 8.366657142857143
      vertex 4.285714285714286 0.0 12.0
    endloop
  endfacet
  facet normal -1.0 0.0 0.0
    outer loop
      vertex 0.0 0.0 12.0
      vertex 0.0 8.571428571428571 12.0
      vertex 0.0 0.0 0.0
    endloop
  endfacet
  facet normal -1.0 0.0 0.0
    outer loop
      vertex 0.0 0.0 0.0
      vertex 0.0 8.571428571428571 12.0
      vertex 0.0 8.571428571428571 0.0
    endloop
  endfacet
  facet normal -0.0 1.0 0.0
    outer loop
      vertex 0.0 8.571428571428571 12.0
      vertex 4.285714285714286 8.571428571428571 12.0
      vertex 0.0 8.571428571428571 0.0
    endloop
  endfacet
  facet normal 0.0 1.0 0.0
    outer loop
      vertex 0.0 8.571428571428571 0.0
      vertex 4.285714285714286 8.571428571428571 12.0
      vertex 4.285714285714286 8.571428571428571 0.0
    endloop
  endfacet
  facet normal 1.0 0.0 0.0
    outer loop
      vertex 4.285714285714286 0.306342857142857 10.044445714285715
      vertex 4.285714285714286 0.0 12.0
      vertex 4.285714285714286 0.0 8.366657142857143
    endloop
  endfacet
  facet normal 1.0 0.0 0.0
    outer loop
      vertex 4.285714285714286 8.571428571428571 12.0
      vertex 4.285714285714286 0.0 12.0
      vertex 4.285714285714286 2.706349714285714 11.073017142857143
    endloop
  endfacet
  facet normal 1.0 -0.0 0.0
    outer loop
      vertex 4.285714285714286 4.249206857142857 11.073017142857143
      vertex 4.285714285714286 4.249206857142857 10.044445714285715
      vertex 4.285714285714286 5.620635428571428 11.073017142857143
    endloop
  endfacet
  facet normal 1.0 0.0 0.0
    outer loop
      vertex 4.285714285714286 8.192057142857143 9.873017142857144
      vertex 4.285714285714286 7.163485714285714 8.844445714285715
      vertex 4.285714285714286 8.192057142857143 8.501588571428572
    endloop
  endfacet
  facet normal 1.0 0.0 -0.0
    outer loop
      vertex 4.285714285714286 1.3349142857142855 5.415872571428571
      vertex 4.285714285714286 2.706349714285714 5.930158285714286
      vertex 4.285714285714286 0.0 5.930158285714286
    endloop
  endfacet
  facet normal 1.0 0.0 0.0
    outer loop
      vertex 4.285714285714286 3.0492068571428574 5.587301142857143
      vertex 4.285714285714286 5.792064 6.101586857142857
      vertex 4.285714285714286 4.420635428571429 6.101586857142857
    endloop
  endfacet
  facet normal 1.0 0.0 0.0
    outer loop
      vertex 4.285714285714286 1.3349142857142855 10.044445714285715
      vertex 4.285714285714286 0.306342857142857 10.044445714285715
      vertex 4.285714285714286 0.0 8.366657142857143
    endloop
  endfacet
  facet normal 1.0 0.0 0.0
    outer loop
      vertex 4.285714285714286 1.3349142857142855 11.073017142857143
      vertex 4.285714285714286 0.0 12.0
      vertex 4.285714285714286 0.306342857142857 10.044445714285715
    endloop
  endfacet
  facet normal 1.0 0.0 0.0
    outer loop
      vertex 4.285714285714286 2.706349714285714 11.073017142857143
      vertex 4.285714285714286 0.0 12.0
      vertex 4.285714285714286 1.3349142857142855 11.073017142857143
    endloop
  endfacet
  facet normal 1.0 0.0 0.0
    outer loop
      vertex 4.285714285714286 2.706349714285714 11.073017142857143
      vertex 4.285714285714286 1.3349142857142855 10.044445714285715
      vertex 4.285714285714286 0.0 8.366657142857143
    endloop
  endfacet
  facet normal 1.0 -0.0 0.0
    outer loop
      vertex 4.285714285714286 4.249206857142857 8.33016
      vertex 4.285714285714286 4.249206857142857 7.3015868571428575
      vertex 4.285714285714286 5.620635428571428 8.673017142857143
    endloop
  endfacet
  facet normal 1.0 0.0 0.0
    outer loop
      vertex 4.285714285714286 4.249206857142857 11.073017142857143
      vertex 4.285714285714286 2.706349714285714 11.073017142857143
      vertex 4.285714285714286 3.2206354285714287 10.044445714285715
    endloop
  endfacet
  facet normal 1.0 0.0 0.0
    outer loop
      vertex 4.285714285714286 8.571428571428571 12.0
      vertex 4.285714285714286 2.706349714285714 11.073017142857143
      vertex 4.285714285714286 4.249206857142857 11.073017142857143
    endloop
  endfacet
  facet normal 1.0 -0.0 0.0
    outer loop
      vertex 4.285714285714286 1.3349142857142855 11.073017142857143
      vertex 4.285714285714286 1.3349142857142855 10.044445714285715
      vertex 4.285714285714286 2.706349714285714 11.073017142857143
    endloop
  endfacet
  facet normal 1.0 0.0 0.0
    outer loop
      vertex 4.285714285714286 5.620635428571428 11.073017142857143
      vertex 4.285714285714286 5.620635428571428 8.673017142857143
      vertex 4.285714285714286 5.963492571428571 10.044445714285715
    endloop
  endfacet
  facet normal 1.0 0.0 0.0
    outer loop
      vertex 4.285714285714286 5.620635428571428 11.073017142857143
      vertex 4.285714285714286 6.992057142857143 11.073017142857143
      vertex 4.285714285714286 8.571428571428571 12.0
    endloop
  endfacet
  facet normal 1.0 0.0 0.0
    outer loop
      vertex 4.285714285714286 8.571428571428571 12.0
      vertex 4.285714285714286 4.249206857142857 11.073017142857143
      vertex 4.285714285714286 5.620635428571428 11.073017142857143
    endloop
  endfacet
  facet normal 1.0 0.0 0.0
    outer loop
      vertex 4.285714285714286 7.163485714285714 4.2158742857142855
      vertex 4.285714285714286 5.792064 2.8444457142857145
      vertex 4.285714285714286 7.163485714285714 3.1873028571428574
    endloop
  endfacet
  facet normal 1.0 -0.0 0.0
    outer loop
      vertex 4.285714285714286 6.992057142857143 11.073017142857143
      vertex 4.285714285714286 6.992057142857143 10.044445714285715
      vertex 4.285714285714286 8.571428571428571 12.0
    endloop
  endfacet
  facet normal 1.0 0.0 0.0
    outer loop
      vertex 4.285714285714286 3.2206354285714287 8.673017142857143
      vertex 4.285714285714286 5.620635428571428 11.073017142857143
      vertex 4.285714285714286 4.249206857142857 10.044445714285715
    endloop
  endfacet
  facet normal 1.0 0.0 0.0
    outer loop
      vertex 4.285714285714286 1.506342857142857 4.2158742857142855
      vertex 4.285714285714286 3.0492068571428574 5.587301142857143
      vertex 4.285714285714286 2.706349714285714 5.930158285714286
    endloop
  endfacet
  facet normal 1.0 0.0 0.0
    outer loop
      vertex 4.285714285714286 8.192057142857143 7.130158285714286
      vertex 4.285714285714286 7.163485714285714 6.101586857142857
      vertex 4.285714285714286 8.192057142857143 5.587301142857143
    endloop
  endfacet
  facet normal 1.0 0.0 -0.0
    outer loop
      vertex 4.285714285714286 5.792064 8.501588571428572
      vertex 4.285714285714286 6.992057142857143 10.044445714285715
      vertex 4.285714285714286 5.620635428571428 8.673017142857143
    endloop
  endfacet
  facet normal 1.0 0.0 0.0
    outer loop
      vertex 4.285714285714286 4.420635428571429 6.101586857142857
      vertex 4.285714285714286 5.792064 6.101586857142857
      vertex 4.285714285714286 5.449206857142857 7.130158285714286
    endloop
  endfacet
  facet normal 1.0 0.0 0.0
    outer loop
      vertex 4.285714285714286 8.192057142857143 8.501588571428572
      vertex 4.285714285714286 5.792064 6.101586857142857
      vertex 4.285714285714286 7.163485714285714 7.130158285714286
    endloop
  endfacet
  facet normal 1.0 0.0 -0.0
    outer loop
      vertex 4.285714285714286 8.192057142857143 9.873017142857144
      vertex 4.285714285714286 8.571428571428571 12.0
      vertex 4.285714285714286 7.163485714285714 9.873017142857144
    endloop
  endfacet
  facet normal 1.0 0.0 0.0
    outer loop
      vertex 4.285714285714286 8.192057142857143 5.587301142857143
      vertex 4.285714285714286 5.792064 2.8444457142857145
      vertex 4.285714285714286 7.163485714285714 4.2158742857142855
    endloop
  endfacet
  facet normal 1.0 0.0 -0.0
    outer loop
      vertex 4.285714285714286 8.571428571428571 0.0
      vertex 4.285714285714286 8.571428571428571 12.0
      vertex 4.285714285714286 8.192057142857143 9.873017142857144
    endloop
  endfacet
  facet normal 1.0 0.0 0.0
    outer loop
      vertex 4.285714285714286 5.792064 8.501588571428572
      vertex 4.285714285714286 8.571428571428571 12.0
      vertex 4.285714285714286 6.992057142857143 10.044445714285715
    endloop
  endfacet
  facet normal 1.0 0.0 0.0
    outer loop
      vertex 4.285714285714286 4.420635428571429 7.130158285714286
      vertex 4.285714285714286 5.449206857142857 7.130158285714286
      vertex 4.285714285714286 5.792064 8.501588571428572
    endloop
  endfacet
  facet normal 1.0 0.0 0.0
    outer loop
      vertex 4.285714285714286 3.0492068571428574 5.587301142857143
      vertex 4.285714285714286 4.420635428571429 6.101586857142857
      vertex 4.285714285714286 4.420635428571429 7.130158285714286
    endloop
  endfacet
  facet normal 1.0 0.0 0.0
    outer loop
      vertex 4.285714285714286 8.571428571428571 0.0
      vertex 4.285714285714286 8.192057142857143 9.873017142857144
      vertex 4.285714285714286 8.192057142857143 8.501588571428572
    endloop
  endfacet
  facet normal 1.0 0.0 0.0
    outer loop
      vertex 4.285714285714286 3.0492068571428574 5.587301142857143
      vertex 4.285714285714286 8.192057142857143 5.587301142857143
      vertex 4.285714285714286 7.163485714285714 6.101586857142857
    endloop
  endfacet
  facet normal 1.0 0.0 0.0
    outer loop
      vertex 4.285714285714286 2.706349714285714 5.930158285714286
      vertex 4.285714285714286 3.2206354285714287 7.3015868571428575
      vertex 4.285714285714286 3.2206354285714287 8.673017142857143
    endloop
  endfacet
  facet normal 1.0 -0.0 0.0
    outer loop
      vertex 4.285714285714286 5.620635428571428 11.073017142857143
      vertex 4.285714285714286 5.963492571428571 10.044445714285715
      vertex 4.285714285714286 6.992057142857143 11.073017142857143
    endloop
  endfacet
  facet normal 1.0 0.0 0.0
    outer loop
      vertex 4.285714285714286 6.992057142857143 10.044445714285715
      vertex 4.285714285714286 5.963492571428571 10.044445714285715
      vertex 4.285714285714286 5.620635428571428 8.673017142857143
    endloop
  endfacet
  facet normal 1.0 0.0 0.0
    outer loop
      vertex 4.285714285714286 4.420635428571429 7.130158285714286
      vertex 4.285714285714286 5.792064 8.501588571428572
      vertex 4.285714285714286 5.620635428571428 8.673017142857143
    endloop
  endfacet
  facet normal 1.0 0.0 -0.0
    outer loop
      vertex 4.285714285714286 3.0492068571428574 5.587301142857143
      vertex 4.285714285714286 4.249206857142857 7.3015868571428575
      vertex 4.285714285714286 2.706349714285714 5.930158285714286
    endloop
  endfacet
  facet normal 1.0 0.0 -0.0
    outer loop
      vertex 4.285714285714286 4.420635428571429 7.130158285714286
      vertex 4.285714285714286 5.620635428571428 8.673017142857143
      vertex 4.285714285714286 4.249206857142857 7.3015868571428575
    endloop
  endfacet
  facet normal 1.0 0.0 0.0
    outer loop
      vertex 4.285714285714286 8.192057142857143 5.587301142857143
      vertex 4.285714285714286 7.163485714285714 4.2158742857142855
      vertex 4.285714285714286 8.192057142857143 4.2158742857142855
    endloop
  endfacet
  facet normal 1.0 0.0 0.0
    outer loop
      vertex 4.285714285714286 5.792064 8.501588571428572
      vertex 4.285714285714286 8.192057142857143 8.501588571428572
      vertex 4.285714285714286 7.163485714285714 8.844445714285715
    endloop
  endfacet
  facet normal 1.0 0.0 0.0
    outer loop
      vertex 4.285714285714286 8.192057142857143 8.501588571428572
      vertex 4.285714285714286 7.163485714285714 7.130158285714286
      vertex 4.285714285714286 8.192057142857143 7.130158285714286
    endloop
  endfacet
  facet normal 1.0 0.0 -0.0
    outer loop
      vertex 4.285714285714286 7.163485714285714 6.101586857142857
      vertex 4.285714285714286 7.163485714285714 7.130158285714286
      vertex 4.285714285714286 5.792064 6.101586857142857
    endloop
  endfacet
  facet normal 1.0 0.0 0.0
    outer loop
      vertex 4.285714285714286 3.0492068571428574 0.44444571428571383
      vertex 4.285714285714286 2.5349142857142857 2.8444457142857145
      vertex 4.285714285714286 0.0 0.0
    endloop
  endfacet
  facet normal 1.0 0.0 0.0
    outer loop
      vertex 4.285714285714286 8.192057142857143 5.587301142857143
      vertex 4.285714285714286 3.0492068571428574 0.44444571428571383
      vertex 4.285714285714286 5.792064 2.8444457142857145
    endloop
  endfacet
  facet normal 1.0 0.0 0.0
    outer loop
      vertex 4.285714285714286 8.571428571428571 0.0
      vertex 4.285714285714286 8.192057142857143 8.501588571428572
      vertex 4.285714285714286 8.192057142857143 7.130158285714286
    endloop
  endfacet
  facet normal 1.0 0.0 0.0
    outer loop
      vertex 4.285714285714286 0.13491428571428554 2.8444457142857145
      vertex 4.285714285714286 1.506342857142857 3.1873028571428574
      vertex 4.285714285714286 1.506342857142857 4.2158742857142855
    endloop
  endfacet
  facet normal 1.0 0.0 0.0
    outer loop
      vertex 4.285714285714286 3.0492068571428574 5.587301142857143
      vertex 4.285714285714286 4.420635428571429 7.130158285714286
      vertex 4.285714285714286 4.249206857142857 7.3015868571428575
    endloop
  endfacet
  facet normal 1.0 0.0 0.0
    outer loop
      vertex 4.285714285714286 8.192057142857143 4.2158742857142855
      vertex 4.285714285714286 7.163485714285714 3.1873028571428574
      vertex 4.285714285714286 8.192057142857143 2.8444457142857145
    endloop
  endfacet
  facet normal 1.0 0.0 -0.0
    outer loop
      vertex 4.285714285714286 0.13491428571428554 0.44444571428571383
      vertex 4.285714285714286 0.13491428571428554 2.8444457142857145
      vertex 4.285714285714286 0.0 0.0
    endloop
  endfacet
  facet normal 1.0 0.0 0.0
    outer loop
      vertex 4.285714285714286 3.0492068571428574 0.44444571428571383
      vertex 4.285714285714286 2.5349142857142857 4.2158742857142855
      vertex 4.285714285714286 2.5349142857142857 2.8444457142857145
    endloop
  endfacet
  facet normal 1.0 0.0 0.0
    outer loop
      vertex 4.285714285714286 8.571428571428571 0.0
      vertex 4.285714285714286 8.192057142857143 7.130158285714286
      vertex 4.285714285714286 8.192057142857143 5.587301142857143
    endloop
  endfacet
  facet normal 1.0 0.0 0.0
    outer loop
      vertex 4.285714285714286 8.571428571428571 0.0
      vertex 4.285714285714286 3.0492068571428574 0.44444571428571383
      vertex 4.285714285714286 0.0 0.0
    endloop
  endfacet
  facet normal 1.0 0.0 -0.0
    outer loop
      vertex 4.285714285714286 0.13491428571428554 2.8444457142857145
      vertex 4.285714285714286 0.4777714285714284 4.387301142857143
      vertex 4.285714285714286 0.0 5.930158285714286
    endloop
  endfacet
  facet normal 1.0 0.0 0.0
    outer loop
      vertex 4.285714285714286 0.13491428571428554 2.8444457142857145
      vertex 4.285714285714286 1.506342857142857 4.2158742857142855
      vertex 4.285714285714286 1.3349142857142855 4.387301142857143
    endloop
  endfacet
  facet normal 1.0 0.0 -0.0
    outer loop
      vertex 4.285714285714286 0.4777714285714284 4.387301142857143
      vertex 4.285714285714286 1.3349142857142855 5.415872571428571
      vertex 4.285714285714286 0.0 5.930158285714286
    endloop
  endfacet
  facet normal 1.0 0.0 -0.0
    outer loop
      vertex 4.285714285714286 1.506342857142857 4.2158742857142855
      vertex 4.285714285714286 2.706349714285714 5.930158285714286
      vertex 4.285714285714286 1.3349142857142855 4.387301142857143
    endloop
  endfacet
  facet normal 1.0 0.0 0.0
    outer loop
      vertex 4.285714285714286 5.792064 2.8444457142857145
      vertex 4.285714285714286 8.192057142857143 2.8444457142857145
      vertex 4.285714285714286 7.163485714285714 3.1873028571428574
    endloop
  endfacet
  facet normal 1.0 0.0 0.0
    outer loop
      vertex 4.285714285714286 0.13491428571428554 2.8444457142857145
      vertex 4.285714285714286 1.3349142857142855 4.387301142857143
      vertex 4.285714285714286 0.4777714285714284 4.387301142857143
    endloop
  endfacet
  facet normal 1.0 0.0 0.0
    outer loop
      vertex 4.285714285714286 8.192057142857143 2.8444457142857145
      vertex 4.285714285714286 5.792064 0.44444571428571383
      vertex 4.285714285714286 8.571428571428571 0.0
    endloop
  endfacet
  facet normal 1.0 -0.0 0.0
    outer loop
      vertex 4.285714285714286 1.506342857142857 3.1873028571428574
      vertex 4.285714285714286 2.5349142857142857 2.8444457142857145
      vertex 4.285714285714286 2.5349142857142857 4.2158742857142855
    endloop
  endfacet
  facet normal 1.0 0.0 0.0
    outer loop
      vertex 4.285714285714286 1.506342857142857 4.2158742857142855
      vertex 4.285714285714286 2.5349142857142857 4.2158742857142855
      vertex 4.285714285714286 3.0492068571428574 5.587301142857143
    endloop
  endfacet
  facet normal 1.0 0.0 0.0
    outer loop
      vertex 4.285714285714286 5.792064 8.501588571428572
      vertex 4.285714285714286 7.163485714285714 8.844445714285715
      vertex 4.285714285714286 7.163485714285714 9.873017142857144
    endloop
  endfacet
  facet normal 1.0 0.0 0.0
    outer loop
      vertex 4.285714285714286 8.571428571428571 0.0
      vertex 4.285714285714286 8.192057142857143 5.587301142857143
      vertex 4.285714285714286 8.192057142857143 4.2158742857142855
    endloop
  endfacet
  facet normal 1.0 0.0 0.0
    outer loop
      vertex 4.285714285714286 0.13491428571428554 2.8444457142857145
      vertex 4.285714285714286 2.5349142857142857 2.8444457142857145
      vertex 4.285714285714286 1.506342857142857 3.1873028571428574
    endloop
  endfacet
  facet normal 1.0 0.0 0.0
    outer loop
      vertex 4.285714285714286 0.0 0.0
      vertex 4.285714285714286 0.13491428571428554 2.8444457142857145
      vertex 4.285714285714286 0.0 5.930158285714286
    endloop
  endfacet
  facet normal 1.0 0.0 0.0
    outer loop
      vertex 4.285714285714286 2.5349142857142857 2.8444457142857145
      vertex 4.285714285714286 0.13491428571428554 0.44444571428571383
      vertex 4.285714285714286 0.0 0.0
    endloop
  endfacet
  facet normal 1.0 0.0 0.0
    outer loop
      vertex 4.285714285714286 3.0492068571428574 5.587301142857143
      vertex 4.285714285714286 7.163485714285714 6.101586857142857
      vertex 4.285714285714286 5.792064 6.101586857142857
    endloop
  endfacet
  facet normal 1.0 0.0 -0.0
    outer loop
      vertex 4.285714285714286 3.0492068571428574 0.44444571428571383
      vertex 4.285714285714286 3.0492068571428574 5.587301142857143
      vertex 4.285714285714286 2.5349142857142857 4.2158742857142855
    endloop
  endfacet
  facet normal 1.0 0.0 -0.0
    outer loop
      vertex 4.285714285714286 5.792064 0.44444571428571383
      vertex 4.285714285714286 5.792064 2.8444457142857145
      vertex 4.285714285714286 3.0492068571428574 0.44444571428571383
    endloop
  endfacet
  facet normal 1.0 0.0 0.0
    outer loop
      vertex 4.285714285714286 5.792064 8.501588571428572
      vertex 4.285714285714286 7.163485714285714 9.873017142857144
      vertex 4.285714285714286 8.571428571428571 12.0
    endloop
  endfacet
  facet normal 1.0 0.0 0.0
    outer loop
      vertex 4.285714285714286 8.571428571428571 0.0
      vertex 4.285714285714286 8.192057142857143 4.2158742857142855
      vertex 4.285714285714286 8.192057142857143 2.8444457142857145
    endloop
  endfacet
  facet normal 1.0 0.0 0.0
    outer loop
      vertex 4.285714285714286 8.571428571428571 0.0
      vertex 4.285714285714286 5.792064 0.44444571428571383
      vertex 4.285714285714286 3.0492068571428574 0.44444571428571383
    endloop
  endfacet
  facet normal 1.0 0.0 0.0
    outer loop
      vertex 4.285714285714286 4.249206857142857 7.3015868571428575
      vertex 4.285714285714286 3.2206354285714287 7.3015868571428575
      vertex 4.285714285714286 2.706349714285714 5.930158285714286
    endloop
  endfacet
  facet normal 1.0 -0.0 0.0
    outer loop
      vertex 4.285714285714286 3.2206354285714287 10.044445714285715
      vertex 4.285714285714286 3.2206354285714287 8.673017142857143
      vertex 4.285714285714286 4.249206857142857 10.044445714285715
    endloop
  endfacet
  facet normal 1.0 0.0 0.0
    outer loop
      vertex 4.285714285714286 2.706349714285714 11.073017142857143
      vertex 4.285714285714286 3.2206354285714287 8.673017142857143
      vertex 4.285714285714286 3.2206354285714287 10.044445714285715
    endloop
  endfacet
  facet normal 1.0 0.0 0.0
    outer loop
      vertex 4.285714285714286 2.706349714285714 11.073017142857143
      vertex 4.285714285714286 2.706349714285714 5.930158285714286
      vertex 4.285714285714286 3.2206354285714287 8.673017142857143
    endloop
  endfacet
  facet normal 1.0 0.0 0.0
    outer loop
      vertex 4.285714285714286 4.249206857142857 8.33016
      vertex 4.285714285714286 3.2206354285714287 8.673017142857143
      vertex 4.285714285714286 3.2206354285714287 7.3015868571428575
    endloop
  endfacet
  facet normal 1.0 0.0 0.0
    outer loop
      vertex 4.285714285714286 5.620635428571428 8.673017142857143
      vertex 4.285714285714286 3.2206354285714287 8.673017142857143
      vertex 4.285714285714286 4.249206857142857 8.33016
    endloop
  endfacet
  facet normal 1.0 -0.0 0.0
    outer loop
      vertex 4.285714285714286 1.3349142857142855 5.415872571428571
      vertex 4.285714285714286 1.3349142857142855 4.387301142857143
      vertex 4.285714285714286 2.706349714285714 5.930158285714286
    endloop
  endfacet
  facet normal 1.0 0.0 -0.0
    outer loop
      vertex 4.285714285714286 5.792064 6.101586857142857
      vertex 4.285714285714286 5.792064 8.501588571428572
      vertex 4.285714285714286 5.449206857142857 7.130158285714286
    endloop
  endfacet
  facet normal 0.0 1.0 -0.0
    outer loop
      vertex 3.942857142857143 0.34285714285714286 0.34285714285714286
      vertex 0.34285714285714286 0.34285714285714286 0.34285714285714286
      vertex 3.942857142857143 0.34285714285714286 12.0
    endloop
  endfacet
  facet normal 0.0 1.0 0.0
    outer loop
      vertex 3.942857142857143 0.34285714285714286 12.0
      vertex 0.34285714285714286 0.34285714285714286 0.34285714285714286
      vertex 0.34285714285714286 0.34285714285714286 12.0
    endloop
  endfacet
  facet normal -1.0 0.0 0.0
    outer loop
      vertex 3.942857142857143 8.228571428571428 0.34285714285714286
      vertex 3.942857142857143 6.428571428571429 0.34285714285714286
      vertex 3.942857142857143 8.228571428571428 12.0
    endloop
  endfacet
  facet normal -1.0 0.0 0.0
    outer loop
      vertex 3.942857142857143 2.142857142857143 0.0
      vertex 3.942857142857143 6.428571428571429 0.34285714285714286
      vertex 3.942857142857143 6.428571428571429 0.0
    endloop
  endfacet
  facet normal -1.0 0.0 0.0
    outer loop
      vertex 3.942857142857143 8.228571428571428 12.0
      vertex 3.942857142857143 6.428571428571429 0.34285714285714286
      vertex 3.942857142857143 2.142857142857143 0.0
    endloop
  endfacet
  facet normal -1.0 0.0 0.0
    outer loop
      vertex 3.942857142857143 8.228571428571428 12.0
      vertex 3.942857142857143 2.142857142857143 0.0
      vertex 3.942857142857143 2.142857142857143 0.34285714285714286
    endloop
  endfacet
  facet normal -1.0 0.0 0.0
    outer loop
      vertex 3.942857142857143 8.228571428571428 12.0
      vertex 3.942857142857143 2.142857142857143 0.34285714285714286
      vertex 3.942857142857143 0.34285714285714286 0.34285714285714286
    endloop
  endfacet
  facet normal -1.0 -0.0 0.0
    outer loop
      vertex 3.942857142857143 8.228571428571428 12.0
      vertex 3.942857142857143 0.34285714285714286 0.34285714285714286
      vertex 3.942857142857143 0.34285714285714286 12.0
    endloop
  endfacet
  facet normal 0.0 -1.0 0.0
    outer loop
      vertex 0.34285714285714286 8.228571428571428 0.34285714285714286
      vertex 3.942857142857143 8.228571428571428 0.34285714285714286
      vertex 3.942857142857143 8.228571428571428 12.0
    endloop
  endfacet
  facet normal 0.0 -1.0 0.0
    outer loop
      vertex 0.34285714285714286 8.228571428571428 12.0
      vertex 0.34285714285714286 8.228571428571428 0.34285714285714286
      vertex 3.942857142857143 8.228571428571428 12.0
    endloop
  endfacet
  facet normal 1.0 0.0 0.0
    outer loop
      vertex 0.34285714285714286 6.428571428571429 0.0
      vertex 0.34285714285714286 2.142857142857143 0.34285714285714286
      vertex 0.34285714285714286 2.142857142857143 0.0
    endloop
  endfacet
  facet normal 1.0 0.0 0.0
    outer loop
      vertex 0.34285714285714286 6.428571428571429 0.34285714285714286
      vertex 0.34285714285714286 2.142857142857143 0.34285714285714286
      vertex 0.34285714285714286 6.428571428571429 0.0
    endloop
  endfacet
  facet normal 1.0 0.0 0.0
    outer loop
      vertex 0.34285714285714286 0.34285714285714286 0.34285714285714286
      vertex 0.34285714285714286 2.142857142857143 0.34285714285714286
      vertex 0.34285714285714286 8.228571428571428 12.0
    endloop
  endfacet
  facet normal 1.0 0.0 0.0
    outer loop
      vertex 0.34285714285714286 8.228571428571428 12.0
      vertex 0.34285714285714286 2.142857142857143 0.34285714285714286
      vertex 0.34285714285714286 6.428571428571429 0.34285714285714286
    endloop
  endfacet
  facet normal 1.0 0.0 0.0
    outer loop
      vertex 0.34285714285714286 8.228571428571428 12.0
      vertex 0.34285714285714286 6.428571428571429 0.34285714285714286
      vertex 0.34285714285714286 8.228571428571428 0.34285714285714286
    endloop
  endfacet
  facet normal 1.0 -0.0 0.0
    outer loop
      vertex 0.34285714285714286 0.34285714285714286 12.0
      vertex 0.34285714285714286 0.34285714285714286 0.34285714285714286
      vertex 0.34285714285714286 8.228571428571428 12.0
    endloop
  endfacet
  facet normal 0.0 0.7071081248927122 -0.7071054374778295
    outer loop
      vertex 4.285714285714286 0.0 8.366657142857143
      vertex 4.1571428571428575 0.0 8.366657142857143
      vertex 4.285714285714286 2.706349714285714 11.073017142857143
    endloop
  endfacet
  facet normal 0.0 0.7071081248927122 -0.7071054374778295
    outer loop
      vertex 4.285714285714286 2.706349714285714 11.073017142857143
      vertex 4.1571428571428575 0.0 8.366657142857143
      vertex 4.1571428571428575 2.706349714285714 11.073017142857143
    endloop
  endfacet
  facet normal 1.0 0.0 0.0
    outer loop
      vertex 4.1571428571428575 0.0 8.366657142857143
      vertex 4.1571428571428575 0.0 5.930158285714286
      vertex 4.1571428571428575 2.706349714285714 5.930158285714286
    endloop
  endfacet
  facet normal 1.0 0.0 0.0
    outer loop
      vertex 4.1571428571428575 2.706349714285714 11.073017142857143
      vertex 4.1571428571428575 0.0 8.366657142857143
      vertex 4.1571428571428575 2.706349714285714 5.930158285714286
    endloop
  endfacet
  facet normal 0.0 -0.0 1.0
    outer loop
      vertex 4.285714285714286 0.0 5.930158285714286
      vertex 4.285714285714286 2.706349714285714 5.930158285714286
      vertex 4.1571428571428575 2.706349714285714 5.930158285714286
    endloop
  endfacet
  facet normal 0.0 0.0 1.0
    outer loop
      vertex 4.1571428571428575 0.0 5.930158285714286
      vertex 4.285714285714286 0.0 5.930158285714286
      vertex 4.1571428571428575 2.706349714285714 5.930158285714286
    endloop
  endfacet
  facet normal 0.0 0.0 -1.0
    outer loop
      vertex 3.942857142857143 6.428571428571429 0.0
      vertex 0.0 8.571428571428571 0.0
      vertex 4.285714285714286 8.571428571428571 0.0
    endloop
  endfacet
  facet normal 0.0 0.0 -1.0
    outer loop
      vertex 0.0 0.0 0.0
      vertex 0.0 8.571428571428571 0.0
      vertex 0.34285714285714286 2.142857142857143 0.0
    endloop
  endfacet
  facet normal 0.0 0.0 -1.0
    outer loop
      vertex 0.0 0.0 0.0
      vertex 0.34285714285714286 2.142857142857143 0.0
      vertex 4.285714285714286 0.0 0.0
    endloop
  endfacet
  facet normal 0.0 0.0 -1.0
    outer loop
      vertex 0.34285714285714286 6.428571428571429 0.0
      vertex 0.0 8.571428571428571 0.0
      vertex 3.942857142857143 6.428571428571429 0.0
    endloop
  endfacet
  facet normal 0.0 0.0 -1.0
    outer loop
      vertex 4.285714285714286 0.0 0.0
      vertex 3.942857142857143 2.142857142857143 0.0
      vertex 4.285714285714286 8.571428571428571 0.0
    endloop
  endfacet
  facet normal 0.0 0.0 -1.0
    outer loop
      vertex 3.942857142857143 2.142857142857143 0.0
      vertex 3.942857142857143 6.428571428571429 0.0
      vertex 4.285714285714286 8.571428571428571 0.0
    endloop
  endfacet
  facet normal 0.0 0.0 -1.0
    outer loop
      vertex 0.34285714285714286 2.142857142857143 0.0
      vertex 0.0 8.571428571428571 0.0
      vertex 0.34285714285714286 6.428571428571429 0.0
    endloop
  endfacet
  facet normal -0.0 -0.0 -1.0
    outer loop
      vertex 3.942857142857143 2.142857142857143 0.0
      vertex 4.285714285714286 0.0 0.0
      vertex 0.34285714285714286 2.142857142857143 0.0
    endloop
  endfacet
  facet normal 0.0 -1.0 0.0
    outer loop
      vertex 4.1571428571428575 2.706349714285714 5.930158285714286
      vertex 4.285714285714286 2.706349714285714 5.930158285714286
      vertex 4.285714285714286 2.706349714285714 11.073017142857143
    endloop
  endfacet
  facet normal 0.0 -1.0 0.0
    outer loop
      vertex 4.1571428571428575 2.706349714285714 11.073017142857143
      vertex 4.1571428571428575 2.706349714285714 5.930158285714286
      vertex 4.285714285714286 2.706349714285714 11.073017142857143
    endloop
  endfacet
  facet normal 0.0 -0.0 1.0
    outer loop
      vertex 4.285714285714286 0.306342857142857 10.044445714285715
      vertex 4.285714285714286 1.3349142857142855 10.044445714285715
      vertex 4.1571428571428575 1.3349142857142855 10.044445714285715
    endloop
  endfacet
  facet normal 0.0 0.0 1.0
    outer loop
      vertex 4.1571428571428575 0.306342857142857 10.044445714285715
      vertex 4.285714285714286 0.306342857142857 10.044445714285715
      vertex 4.1571428571428575 1.3349142857142855 10.044445714285715
    endloop
  endfacet
  facet normal 0.0 0.7071067811865476 -0.7071067811865476
    outer loop
      vertex 4.285714285714286 0.306342857142857 10.044445714285715
      vertex 4.1571428571428575 0.306342857142857 10.044445714285715
      vertex 4.285714285714286 1.3349142857142855 11.073017142857143
    endloop
  endfacet
  facet normal 0.0 0.7071067811865476 -0.7071067811865476
    outer loop
      vertex 4.285714285714286 1.3349142857142855 11.073017142857143
      vertex 4.1571428571428575 0.306342857142857 10.044445714285715
      vertex 4.1571428571428575 1.3349142857142855 11.073017142857143
    endloop
  endfacet
  facet normal 0.0 -1.0 0.0
    outer loop
      vertex 4.1571428571428575 1.3349142857142855 10.044445714285715
      vertex 4.285714285714286 1.3349142857142855 10.044445714285715
      vertex 4.285714285714286 1.3349142857142855 11.073017142857143
    endloop
  endfacet
  facet normal 0.0 -1.0 0.0
    outer loop
      vertex 4.1571428571428575 1.3349142857142855 11.073017142857143
      vertex 4.1571428571428575 1.3349142857142855 10.044445714285715
      vertex 4.285714285714286 1.3349142857142855 11.073017142857143
    endloop
  endfacet
  facet normal 0.0 -0.0 1.0
    outer loop
      vertex 4.285714285714286 3.2206354285714287 10.044445714285715
      vertex 4.285714285714286 4.249206857142857 10.044445714285715
      vertex 4.1571428571428575 4.249206857142857 10.044445714285715
    endloop
  endfacet
  facet normal 0.0 0.0 1.0
    outer loop
      vertex 4.1571428571428575 3.2206354285714287 10.044445714285715
      vertex 4.285714285714286 3.2206354285714287 10.044445714285715
      vertex 4.1571428571428575 4.249206857142857 10.044445714285715
    endloop
  endfacet
  facet normal 0.0 0.7071067811865476 -0.7071067811865476
    outer loop
      vertex 4.285714285714286 3.2206354285714287 10.044445714285715
      vertex 4.1571428571428575 3.2206354285714287 10.044445714285715
      vertex 4.285714285714286 4.249206857142857 11.073017142857143
    endloop
  endfacet
  facet normal 0.0 0.7071067811865476 -0.7071067811865476
    outer loop
      vertex 4.285714285714286 4.249206857142857 11.073017142857143
      vertex 4.1571428571428575 3.2206354285714287 10.044445714285715
      vertex 4.1571428571428575 4.249206857142857 11.073017142857143
    endloop
  endfacet
  facet normal 0.0 -1.0 0.0
    outer loop
      vertex 4.1571428571428575 4.249206857142857 10.044445714285715
      vertex 4.285714285714286 4.249206857142857 10.044445714285715
      vertex 4.285714285714286 4.249206857142857 11.073017142857143
    endloop
  endfacet
  facet normal 0.0 -1.0 0.0
    outer loop
      vertex 4.1571428571428575 4.249206857142857 11.073017142857143
      vertex 4.1571428571428575 4.249206857142857 10.044445714285715
      vertex 4.285714285714286 4.249206857142857 11.073017142857143
    endloop
  endfacet
  facet normal 0.0 -0.0 1.0
    outer loop
      vertex 4.285714285714286 3.2206354285714287 8.673017142857143
      vertex 4.285714285714286 5.620635428571428 8.673017142857143
      vertex 4.1571428571428575 5.620635428571428 8.673017142857143
    endloop
  endfacet
  facet normal 0.0 0.0 1.0
    outer loop
      vertex 4.1571428571428575 3.2206354285714287 8.673017142857143
      vertex 4.285714285714286 3.2206354285714287 8.673017142857143
      vertex 4.1571428571428575 5.620635428571428 8.673017142857143
    endloop
  endfacet
  facet normal 0.0 0.7071067811865476 -0.7071067811865474
    outer loop
      vertex 4.285714285714286 3.2206354285714287 8.673017142857143
      vertex 4.1571428571428575 3.2206354285714287 8.673017142857143
      vertex 4.285714285714286 5.620635428571428 11.073017142857143
    endloop
  endfacet
  facet normal 0.0 0.7071067811865476 -0.7071067811865474
    outer loop
      vertex 4.285714285714286 5.620635428571428 11.073017142857143
      vertex 4.1571428571428575 3.2206354285714287 8.673017142857143
      vertex 4.1571428571428575 5.620635428571428 11.073017142857143
    endloop
  endfacet
  facet normal 0.0 -1.0 0.0
    outer loop
      vertex 4.1571428571428575 5.620635428571428 8.673017142857143
      vertex 4.285714285714286 5.620635428571428 8.673017142857143
      vertex 4.285714285714286 5.620635428571428 11.073017142857143
    endloop
  endfacet
  facet normal 0.0 -1.0 0.0
    outer loop
      vertex 4.1571428571428575 5.620635428571428 11.073017142857143
      vertex 4.1571428571428575 5.620635428571428 8.673017142857143
      vertex 4.285714285714286 5.620635428571428 11.073017142857143
    endloop
  endfacet
  facet normal 0.0 -0.0 1.0
    outer loop
      vertex 4.285714285714286 5.963492571428571 10.044445714285715
      vertex 4.285714285714286 6.992057142857143 10.044445714285715
      vertex 4.1571428571428575 6.992057142857143 10.044445714285715
    endloop
  endfacet
  facet normal 0.0 0.0 1.0
    outer loop
      vertex 4.1571428571428575 5.963492571428571 10.044445714285715
      vertex 4.285714285714286 5.963492571428571 10.044445714285715
      vertex 4.1571428571428575 6.992057142857143 10.044445714285715
    endloop
  endfacet
  facet normal 0.0 0.7071091382130795 -0.7071044241521588
    outer loop
      vertex 4.285714285714286 5.963492571428571 10.044445714285715
      vertex 4.1571428571428575 5.963492571428571 10.044445714285715
      vertex 4.285714285714286 6.992057142857143 11.073017142857143
    endloop
  endfacet
  facet normal 0.0 0.7071091382130795 -0.7071044241521588
    outer loop
      vertex 4.285714285714286 6.992057142857143 11.073017142857143
      vertex 4.1571428571428575 5.963492571428571 10.044445714285715
      vertex 4.1571428571428575 6.992057142857143 11.073017142857143
    endloop
  endfacet
  facet normal 0.0 -1.0 0.0
    outer loop
      vertex 4.1571428571428575 6.992057142857143 10.044445714285715
      vertex 4.285714285714286 6.992057142857143 10.044445714285715
      vertex 4.285714285714286 6.992057142857143 11.073017142857143
    endloop
  endfacet
  facet normal 0.0 -1.0 0.0
    outer loop
      vertex 4.1571428571428575 6.992057142857143 11.073017142857143
      vertex 4.1571428571428575 6.992057142857143 10.044445714285715
      vertex 4.285714285714286 6.992057142857143 11.073017142857143
    endloop
  endfacet
  facet normal -0.0 -0.0 -1.0
    outer loop
      vertex 4.285714285714286 8.192057142857143 9.873017142857144
      vertex 4.285714285714286 7.163485714285714 9.873017142857144
      vertex 4.1571428571428575 8.192057142857143 9.873017142857144
    endloop
  endfacet
  facet normal 0.0 0.0 -1.0
    outer loop
      vertex 4.1571428571428575 8.192057142857143 9.873017142857144
      vertex 4.285714285714286 7.163485714285714 9.873017142857144
      vertex 4.1571428571428575 7.163485714285714 9.873017142857144
    endloop
  endfacet
  facet normal 0.0 1.0 -0.0
    outer loop
      vertex 4.285714285714286 7.163485714285714 8.844445714285715
      vertex 4.1571428571428575 7.163485714285714 8.844445714285715
      vertex 4.285714285714286 7.163485714285714 9.873017142857144
    endloop
  endfacet
  facet normal 0.0 1.0 0.0
    outer loop
      vertex 4.285714285714286 7.163485714285714 9.873017142857144
      vertex 4.1571428571428575 7.163485714285714 8.844445714285715
      vertex 4.1571428571428575 7.163485714285714 9.873017142857144
    endloop
  endfacet
  facet normal 0.0 -0.7071067811865472 0.7071067811865479
    outer loop
      vertex 4.1571428571428575 7.163485714285714 8.844445714285715
      vertex 4.285714285714286 7.163485714285714 8.844445714285715
      vertex 4.285714285714286 8.192057142857143 9.873017142857144
    endloop
  endfacet
  facet normal 0.0 -0.7071067811865472 0.7071067811865479
    outer loop
      vertex 4.1571428571428575 8.192057142857143 9.873017142857144
      vertex 4.1571428571428575 7.163485714285714 8.844445714285715
      vertex 4.285714285714286 8.192057142857143 9.873017142857144
    endloop
  endfacet
  facet normal -0.0 -0.0 -1.0
    outer loop
      vertex 4.285714285714286 8.192057142857143 8.501588571428572
      vertex 4.285714285714286 5.792064 8.501588571428572
      vertex 4.1571428571428575 8.192057142857143 8.501588571428572
    endloop
  endfacet
  facet normal 0.0 0.0 -1.0
    outer loop
      vertex 4.1571428571428575 8.192057142857143 8.501588571428572
      vertex 4.285714285714286 5.792064 8.501588571428572
      vertex 4.1571428571428575 5.792064 8.501588571428572
    endloop
  endfacet
  facet normal 0.0 1.0 -0.0
    outer loop
      vertex 4.285714285714286 5.792064 6.101586857142857
      vertex 4.1571428571428575 5.792064 6.101586857142857
      vertex 4.285714285714286 5.792064 8.501588571428572
    endloop
  endfacet
  facet normal 0.0 1.0 0.0
    outer loop
      vertex 4.285714285714286 5.792064 8.501588571428572
      vertex 4.1571428571428575 5.792064 6.101586857142857
      vertex 4.1571428571428575 5.792064 8.501588571428572
    endloop
  endfacet
  facet normal 0.0 -0.7071080438774536 0.7071055184933865
    outer loop
      vertex 4.1571428571428575 5.792064 6.101586857142857
      vertex 4.285714285714286 5.792064 6.101586857142857
      vertex 4.285714285714286 8.192057142857143 8.501588571428572
    endloop
  endfacet
  facet normal 0.0 -0.7071080438774536 0.7071055184933865
    outer loop
      vertex 4.1571428571428575 8.192057142857143 8.501588571428572
      vertex 4.1571428571428575 5.792064 6.101586857142857
      vertex 4.285714285714286 8.192057142857143 8.501588571428572
    endloop
  endfacet
  facet normal 0.0 -0.0 1.0
    outer loop
      vertex 4.285714285714286 3.2206354285714287 7.3015868571428575
      vertex 4.285714285714286 4.249206857142857 7.3015868571428575
      vertex 4.1571428571428575 4.249206857142857 7.3015868571428575
    endloop
  endfacet
  facet normal 0.0 0.0 1.0
    outer loop
      vertex 4.1571428571428575 3.2206354285714287 7.3015868571428575
      vertex 4.285714285714286 3.2206354285714287 7.3015868571428575
      vertex 4.1571428571428575 4.249206857142857 7.3015868571428575
    endloop
  endfacet
  facet normal 0.0 0.7071073704414618 -0.7071061919311424
    outer loop
      vertex 4.285714285714286 3.2206354285714287 7.3015868571428575
      vertex 4.1571428571428575 3.2206354285714287 7.3015868571428575
      vertex 4.285714285714286 4.249206857142857 8.33016
    endloop
  endfacet
  facet normal 0.0 0.7071073704414618 -0.7071061919311424
    outer loop
      vertex 4.285714285714286 4.249206857142857 8.33016
      vertex 4.1571428571428575 3.2206354285714287 7.3015868571428575
      vertex 4.1571428571428575 4.249206857142857 8.33016
    endloop
  endfacet
  facet normal 0.0 -1.0 0.0
    outer loop
      vertex 4.1571428571428575 4.249206857142857 7.3015868571428575
      vertex 4.285714285714286 4.249206857142857 7.3015868571428575
      vertex 4.285714285714286 4.249206857142857 8.33016
    endloop
  endfacet
  facet normal 0.0 -1.0 0.0
    outer loop
      vertex 4.1571428571428575 4.249206857142857 8.33016
      vertex 4.1571428571428575 4.249206857142857 7.3015868571428575
      vertex 4.285714285714286 4.249206857142857 8.33016
    endloop
  endfacet
  facet normal -0.0 -0.0 -1.0
    outer loop
      vertex 4.285714285714286 5.449206857142857 7.130158285714286
      vertex 4.285714285714286 4.420635428571429 7.130158285714286
      vertex 4.1571428571428575 5.449206857142857 7.130158285714286
    endloop
  endfacet
  facet normal 0.0 0.0 -1.0
    outer loop
      vertex 4.1571428571428575 5.449206857142857 7.130158285714286
      vertex 4.285714285714286 4.420635428571429 7.130158285714286
      vertex 4.1571428571428575 4.420635428571429 7.130158285714286
    endloop
  endfacet
  facet normal 0.0 1.0 -0.0
    outer loop
      vertex 4.285714285714286 4.420635428571429 6.101586857142857
      vertex 4.1571428571428575 4.420635428571429 6.101586857142857
      vertex 4.285714285714286 4.420635428571429 7.130158285714286
    endloop
  endfacet
  facet normal 0.0 1.0 0.0
    outer loop
      vertex 4.285714285714286 4.420635428571429 7.130158285714286
      vertex 4.1571428571428575 4.420635428571429 6.101586857142857
      vertex 4.1571428571428575 4.420635428571429 7.130158285714286
    endloop
  endfacet
  facet normal 0.0 -0.7071067811865476 0.7071067811865476
    outer loop
      vertex 4.1571428571428575 4.420635428571429 6.101586857142857
      vertex 4.285714285714286 4.420635428571429 6.101586857142857
      vertex 4.285714285714286 5.449206857142857 7.130158285714286
    endloop
  endfacet
  facet normal 0.0 -0.7071067811865476 0.7071067811865476
    outer loop
      vertex 4.1571428571428575 5.449206857142857 7.130158285714286
      vertex 4.1571428571428575 4.420635428571429 6.101586857142857
      vertex 4.285714285714286 5.449206857142857 7.130158285714286
    endloop
  endfacet
  facet normal -0.0 -0.0 -1.0
    outer loop
      vertex 4.285714285714286 8.192057142857143 7.130158285714286
      vertex 4.285714285714286 7.163485714285714 7.130158285714286
      vertex 4.1571428571428575 8.192057142857143 7.130158285714286
    endloop
  endfacet
  facet normal 0.0 0.0 -1.0
    outer loop
      vertex 4.1571428571428575 8.192057142857143 7.130158285714286
      vertex 4.285714285714286 7.163485714285714 7.130158285714286
      vertex 4.1571428571428575 7.163485714285714 7.130158285714286
    endloop
  endfacet
  facet normal 0.0 1.0 -0.0
    outer loop
      vertex 4.285714285714286 7.163485714285714 6.101586857142857
      vertex 4.1571428571428575 7.163485714285714 6.101586857142857
      vertex 4.285714285714286 7.163485714285714 7.130158285714286
    endloop
  endfacet
  facet normal 0.0 1.0 0.0
    outer loop
      vertex 4.285714285714286 7.163485714285714 7.130158285714286
      vertex 4.1571428571428575 7.163485714285714 6.101586857142857
      vertex 4.1571428571428575 7.163485714285714 7.130158285714286
    endloop
  endfacet
  facet normal 0.0 -0.7071067811865472 0.7071067811865479
    outer loop
      vertex 4.1571428571428575 7.163485714285714 6.101586857142857
      vertex 4.285714285714286 7.163485714285714 6.101586857142857
      vertex 4.285714285714286 8.192057142857143 7.130158285714286
    endloop
  endfacet
  facet normal 0.0 -0.7071067811865472 0.7071067811865479
    outer loop
      vertex 4.1571428571428575 8.192057142857143 7.130158285714286
      vertex 4.1571428571428575 7.163485714285714 6.101586857142857
      vertex 4.285714285714286 8.192057142857143 7.130158285714286
    endloop
  endfacet
  facet normal -0.0 -0.0 -1.0
    outer loop
      vertex 4.285714285714286 8.192057142857143 5.587301142857143
      vertex 4.285714285714286 3.0492068571428574 5.587301142857143
      vertex 4.1571428571428575 8.192057142857143 5.587301142857143
    endloop
  endfacet
  facet normal 0.0 0.0 -1.0
    outer loop
      vertex 4.1571428571428575 8.192057142857143 5.587301142857143
      vertex 4.285714285714286 3.0492068571428574 5.587301142857143
      vertex 4.1571428571428575 3.0492068571428574 5.587301142857143
    endloop
  endfacet
  facet normal 0.0 1.0 -0.0
    outer loop
      vertex 4.285714285714286 3.0492068571428574 0.44444571428571383
      vertex 4.1571428571428575 3.0492068571428574 0.44444571428571383
      vertex 4.285714285714286 3.0492068571428574 5.587301142857143
    endloop
  endfacet
  facet normal 0.0 1.0 0.0
    outer loop
      vertex 4.285714285714286 3.0492068571428574 5.587301142857143
      vertex 4.1571428571428575 3.0492068571428574 0.44444571428571383
      vertex 4.1571428571428575 3.0492068571428574 5.587301142857143
    endloop
  endfacet
  facet normal 0.0 -0.7071071347401444 0.7071064276327738
    outer loop
      vertex 4.1571428571428575 3.0492068571428574 0.44444571428571383
      vertex 4.285714285714286 3.0492068571428574 0.44444571428571383
      vertex 4.285714285714286 8.192057142857143 5.587301142857143
    endloop
  endfacet
  facet normal 0.0 -0.7071071347401444 0.7071064276327738
    outer loop
      vertex 4.1571428571428575 8.192057142857143 5.587301142857143
      vertex 4.1571428571428575 3.0492068571428574 0.44444571428571383
      vertex 4.285714285714286 8.192057142857143 5.587301142857143
    endloop
  endfacet
  facet normal 0.0 -0.0 1.0
    outer loop
      vertex 4.285714285714286 0.4777714285714284 4.387301142857143
      vertex 4.285714285714286 1.3349142857142855 4.387301142857143
      vertex 4.1571428571428575 1.3349142857142855 4.387301142857143
    endloop
  endfacet
  facet normal 0.0 0.0 1.0
    outer loop
      vertex 4.1571428571428575 0.4777714285714284 4.387301142857143
      vertex 4.285714285714286 0.4777714285714284 4.387301142857143
      vertex 4.1571428571428575 1.3349142857142855 4.387301142857143
    endloop
  endfacet
  facet normal 0.0 0.7682212795973759 -0.6401843996644799
    outer loop
      vertex 4.285714285714286 0.4777714285714284 4.387301142857143
      vertex 4.1571428571428575 0.4777714285714284 4.387301142857143
      vertex 4.285714285714286 1.3349142857142855 5.415872571428571
    endloop
  endfacet
  facet normal 0.0 0.7682212795973759 -0.6401843996644799
    outer loop
      vertex 4.285714285714286 1.3349142857142855 5.415872571428571
      vertex 4.1571428571428575 0.4777714285714284 4.387301142857143
      vertex 4.1571428571428575 1.3349142857142855 5.415872571428571
    endloop
  endfacet
  facet normal 0.0 -1.0 0.0
    outer loop
      vertex 4.1571428571428575 1.3349142857142855 4.387301142857143
      vertex 4.285714285714286 1.3349142857142855 4.387301142857143
      vertex 4.285714285714286 1.3349142857142855 5.415872571428571
    endloop
  endfacet
  facet normal 0.0 -1.0 0.0
    outer loop
      vertex 4.1571428571428575 1.3349142857142855 5.415872571428571
      vertex 4.1571428571428575 1.3349142857142855 4.387301142857143
      vertex 4.285714285714286 1.3349142857142855 5.415872571428571
    endloop
  endfacet
  facet normal -0.0 -0.0 -1.0
    outer loop
      vertex 4.285714285714286 2.5349142857142857 4.2158742857142855
      vertex 4.285714285714286 1.506342857142857 4.2158742857142855
      vertex 4.1571428571428575 2.5349142857142857 4.2158742857142855
    endloop
  endfacet
  facet normal 0.0 0.0 -1.0
    outer loop
      vertex 4.1571428571428575 2.5349142857142857 4.2158742857142855
      vertex 4.285714285714286 1.506342857142857 4.2158742857142855
      vertex 4.1571428571428575 1.506342857142857 4.2158742857142855
    endloop
  endfacet
  facet normal 0.0 1.0 -0.0
    outer loop
      vertex 4.285714285714286 1.506342857142857 3.1873028571428574
      vertex 4.1571428571428575 1.506342857142857 3.1873028571428574
      vertex 4.285714285714286 1.506342857142857 4.2158742857142855
    endloop
  endfacet
  facet normal 0.0 1.0 0.0
    outer loop
      vertex 4.285714285714286 1.506342857142857 4.2158742857142855
      vertex 4.1571428571428575 1.506342857142857 3.1873028571428574
      vertex 4.1571428571428575 1.506342857142857 4.2158742857142855
    endloop
  endfacet
  facet normal 0.0 -0.7071067811865472 0.7071067811865478
    outer loop
      vertex 4.1571428571428575 1.506342857142857 3.1873028571428574
      vertex 4.285714285714286 1.506342857142857 3.1873028571428574
      vertex 4.285714285714286 2.5349142857142857 4.2158742857142855
    endloop
  endfacet
  facet normal 0.0 -0.7071067811865472 0.7071067811865478
    outer loop
      vertex 4.1571428571428575 2.5349142857142857 4.2158742857142855
      vertex 4.1571428571428575 1.506342857142857 3.1873028571428574
      vertex 4.285714285714286 2.5349142857142857 4.2158742857142855
    endloop
  endfacet
  facet normal -0.0 -0.0 -1.0
    outer loop
      vertex 4.285714285714286 8.192057142857143 4.2158742857142855
      vertex 4.285714285714286 7.163485714285714 4.2158742857142855
      vertex 4.1571428571428575 8.192057142857143 4.2158742857142855
    endloop
  endfacet
  facet normal 0.0 0.0 -1.0
    outer loop
      vertex 4.1571428571428575 8.192057142857143 4.2158742857142855
      vertex 4.285714285714286 7.163485714285714 4.2158742857142855
      vertex 4.1571428571428575 7.163485714285714 4.2158742857142855
    endloop
  endfacet
  facet normal 0.0 1.0 -0.0
    outer loop
      vertex 4.285714285714286 7.163485714285714 3.1873028571428574
      vertex 4.1571428571428575 7.163485714285714 3.1873028571428574
      vertex 4.285714285714286 7.163485714285714 4.2158742857142855
    endloop
  endfacet
  facet normal 0.0 1.0 0.0
    outer loop
      vertex 4.285714285714286 7.163485714285714 4.2158742857142855
      vertex 4.1571428571428575 7.163485714285714 3.1873028571428574
      vertex 4.1571428571428575 7.163485714285714 4.2158742857142855
    endloop
  endfacet
  facet normal 0.0 -0.707106781186547 0.707106781186548
    outer loop
      vertex 4.1571428571428575 7.163485714285714 3.1873028571428574
      vertex 4.285714285714286 7.163485714285714 3.1873028571428574
      vertex 4.285714285714286 8.192057142857143 4.2158742857142855
    endloop
  endfacet
  facet normal 0.0 -0.707106781186547 0.707106781186548
    outer loop
      vertex 4.1571428571428575 8.192057142857143 4.2158742857142855
      vertex 4.1571428571428575 7.163485714285714 3.1873028571428574
      vertex 4.285714285714286 8.192057142857143 4.2158742857142855
    endloop
  endfacet
  facet normal -0.0 -0.0 -1.0
    outer loop
      vertex 4.285714285714286 2.5349142857142857 2.8444457142857145
      vertex 4.285714285714286 0.13491428571428554 2.8444457142857145
      vertex 4.1571428571428575 2.5349142857142857 2.8444457142857145
    endloop
  endfacet
  facet normal 0.0 0.0 -1.0
    outer loop
      vertex 4.1571428571428575 2.5349142857142857 2.8444457142857145
      vertex 4.285714285714286 0.13491428571428554 2.8444457142857145
      vertex 4.1571428571428575 0.13491428571428554 2.8444457142857145
    endloop
  endfacet
  facet normal 0.0 1.0 -0.0
    outer loop
      vertex 4.285714285714286 0.13491428571428554 0.44444571428571383
      vertex 4.1571428571428575 0.13491428571428554 0.44444571428571383
      vertex 4.285714285714286 0.13491428571428554 2.8444457142857145
    endloop
  endfacet
  facet normal 0.0 1.0 0.0
    outer loop
      vertex 4.285714285714286 0.13491428571428554 2.8444457142857145
      vertex 4.1571428571428575 0.13491428571428554 0.44444571428571383
      vertex 4.1571428571428575 0.13491428571428554 2.8444457142857145
    endloop
  endfacet
  facet normal 0.0 -0.7071067811865476 0.7071067811865475
    outer loop
      vertex 4.1571428571428575 0.13491428571428554 0.44444571428571383
      vertex 4.285714285714286 0.13491428571428554 0.44444571428571383
      vertex 4.285714285714286 2.5349142857142857 2.8444457142857145
    endloop
  endfacet
  facet normal 0.0 -0.7071067811865476 0.7071067811865475
    outer loop
      vertex 4.1571428571428575 2.5349142857142857 2.8444457142857145
      vertex 4.1571428571428575 0.13491428571428554 0.44444571428571383
      vertex 4.285714285714286 2.5349142857142857 2.8444457142857145
    endloop
  endfacet
  facet normal -0.0 -0.0 -1.0
    outer loop
      vertex 4.285714285714286 8.192057142857143 2.8444457142857145
      vertex 4.285714285714286 5.792064 2.8444457142857145
      vertex 4.1571428571428575 8.192057142857143 2.8444457142857145
    endloop
  endfacet
  facet normal 0.0 0.0 -1.0
    outer loop
      vertex 4.1571428571428575 8.192057142857143 2.8444457142857145
      vertex 4.285714285714286 5.792064 2.8444457142857145
      vertex 4.1571428571428575 5.792064 2.8444457142857145
    endloop
  endfacet
  facet normal 0.0 1.0 -0.0
    outer loop
      vertex 4.285714285714286 5.792064 0.44444571428571383
      vertex 4.1571428571428575 5.792064 0.44444571428571383
      vertex 4.285714285714286 5.792064 2.8444457142857145
    endloop
  endfacet
  facet normal 0.0 1.0 0.0
    outer loop
      vertex 4.285714285714286 5.792064 2.8444457142857145
      vertex 4.1571428571428575 5.792064 0.44444571428571383
      vertex 4.1571428571428575 5.792064 2.8444457142857145
    endloop
  endfacet
  facet normal 0.0 -0.7071077913398136 0.7071057710318382
    outer loop
      vertex 4.1571428571428575 5.792064 0.44444571428571383
      vertex 4.285714285714286 5.792064 0.44444571428571383
      vertex 4.285714285714286 8.192057142857143 2.8444457142857145
    endloop
  endfacet
  facet normal 0.0 -0.7071077913398136 0.7071057710318382
    outer loop
      vertex 4.1571428571428575 8.192057142857143 2.8444457142857145
      vertex 4.1571428571428575 5.792064 0.44444571428571383
      vertex 4.285714285714286 8.192057142857143 2.8444457142857145
    endloop
  endfacet
  facet normal 0.0 -0.0 1.0
    outer loop
      vertex 3.942857142857143 0.34285714285714286 0.34285714285714286
      vertex 3.942857142857143 2.142857142857143 0.34285714285714286
      vertex 0.34285714285714286 2.142857142857143 0.34285714285714286
    endloop
  endfacet
  facet normal 0.0 0.0 1.0
    outer loop
      vertex 0.34285714285714286 0.34285714285714286 0.34285714285714286
      vertex 3.942857142857143 0.34285714285714286 0.34285714285714286
      vertex 0.34285714285714286 2.142857142857143 0.34285714285714286
    endloop
  endfacet
  facet normal 0.0 1.0 -0.0
    outer loop
      vertex 3.942857142857143 2.142857142857143 0.0
      vertex 0.34285714285714286 2.142857142857143 0.0
      vertex 3.942857142857143 2.142857142857143 0.34285714285714286
    endloop
  endfacet
  facet normal 0.0 1.0 0.0
    outer loop
      vertex 3.942857142857143 2.142857142857143 0.34285714285714286
      vertex 0.34285714285714286 2.142857142857143 0.0
      vertex 0.34285714285714286 2.142857142857143 0.34285714285714286
    endloop
  endfacet
  facet normal 0.0 -1.0 0.0
    outer loop
      vertex 0.34285714285714286 6.428571428571429 0.0
      vertex 3.942857142857143 6.428571428571429 0.0
      vertex 3.942857142857143 6.428571428571429 0.34285714285714286
    endloop
  endfacet
  facet normal 0.0 -1.0 0.0
    outer loop
      vertex 0.34285714285714286 6.428571428571429 0.34285714285714286
      vertex 0.34285714285714286 6.428571428571429 0.0
      vertex 3.942857142857143 6.428571428571429 0.34285714285714286
    endloop
  endfacet
  facet normal 0.0 -0.0 1.0
    outer loop
      vertex 3.942857142857143 6.428571428571429 0.34285714285714286
      vertex 3.942857142857143 8.228571428571428 0.34285714285714286
      vertex 0.34285714285714286 8.228571428571428 0.34285714285714286
    endloop
  endfacet
  facet normal 0.0 0.0 1.0
    outer loop
      vertex 0.34285714285714286 6.428571428571429 0.34285714285714286
      vertex 3.942857142857143 6.428571428571429 0.34285714285714286
      vertex 0.34285714285714286 8.228571428571428 0.34285714285714286
    endloop
  endfacet
  facet normal 1.0 0.0 0.0
    outer loop
      vertex 4.1571428571428575 0.306342857142857 10.044445714285715
      vertex 4.1571428571428575 1.3349142857142855 10.044445714285715
      vertex 4.1571428571428575 1.3349142857142855 11.073017142857143
    endloop
  endfacet
  facet normal 1.0 0.0 0.0
    outer loop
      vertex 4.1571428571428575 3.2206354285714287 10.044445714285715
      vertex 4.1571428571428575 4.249206857142857 10.044445714285715
      vertex 4.1571428571428575 4.249206857142857 11.073017142857143
    endloop
  endfacet
  facet normal 1.0 0.0 0.0
    outer loop
      vertex 4.1571428571428575 3.2206354285714287 8.673017142857143
      vertex 4.1571428571428575 5.620635428571428 8.673017142857143
      vertex 4.1571428571428575 5.620635428571428 11.073017142857143
    endloop
  endfacet
  facet normal 1.0 0.0 0.0
    outer loop
      vertex 4.1571428571428575 5.963492571428571 10.044445714285715
      vertex 4.1571428571428575 6.992057142857143 10.044445714285715
      vertex 4.1571428571428575 6.992057142857143 11.073017142857143
    endloop
  endfacet
  facet normal 1.0 0.0 0.0
    outer loop
      vertex 4.1571428571428575 7.163485714285714 8.844445714285715
      vertex 4.1571428571428575 8.192057142857143 9.873017142857144
      vertex 4.1571428571428575 7.163485714285714 9.873017142857144
    endloop
  endfacet
  facet normal 1.0 0.0 0.0
    outer loop
      vertex 4.1571428571428575 5.792064 6.101586857142857
      vertex 4.1571428571428575 8.192057142857143 8.501588571428572
      vertex 4.1571428571428575 5.792064 8.501588571428572
    endloop
  endfacet
  facet normal 1.0 0.0 0.0
    outer loop
      vertex 4.1571428571428575 3.2206354285714287 7.3015868571428575
      vertex 4.1571428571428575 4.249206857142857 7.3015868571428575
      vertex 4.1571428571428575 4.249206857142857 8.33016
    endloop
  endfacet
  facet normal 1.0 0.0 0.0
    outer loop
      vertex 4.1571428571428575 4.420635428571429 6.101586857142857
      vertex 4.1571428571428575 5.449206857142857 7.130158285714286
      vertex 4.1571428571428575 4.420635428571429 7.130158285714286
    endloop
  endfacet
  facet normal 1.0 0.0 0.0
    outer loop
      vertex 4.1571428571428575 7.163485714285714 6.101586857142857
      vertex 4.1571428571428575 8.192057142857143 7.130158285714286
      vertex 4.1571428571428575 7.163485714285714 7.130158285714286
    endloop
  endfacet
  facet normal 1.0 0.0 0.0
    outer loop
      vertex 4.1571428571428575 3.0492068571428574 0.44444571428571383
      vertex 4.1571428571428575 8.192057142857143 5.587301142857143
      vertex 4.1571428571428575 3.0492068571428574 5.587301142857143
    endloop
  endfacet
  facet normal 1.0 0.0 0.0
    outer loop
      vertex 4.1571428571428575 0.4777714285714284 4.387301142857143
      vertex 4.1571428571428575 1.3349142857142855 4.387301142857143
      vertex 4.1571428571428575 1.3349142857142855 5.415872571428571
    endloop
  endfacet
  facet normal 1.0 0.0 0.0
    outer loop
      vertex 4.1571428571428575 1.506342857142857 3.1873028571428574
      vertex 4.1571428571428575 2.5349142857142857 4.2158742857142855
      vertex 4.1571428571428575 1.506342857142857 4.2158742857142855
    endloop
  endfacet
  facet normal 1.0 0.0 0.0
    outer loop
      vertex 4.1571428571428575 7.163485714285714 3.1873028571428574
      vertex 4.1571428571428575 8.192057142857143 4.2158742857142855
      vertex 4.1571428571428575 7.163485714285714 4.2158742857142855
    endloop
  endfacet
  facet normal 1.0 0.0 0.0
    outer loop
      vertex 4.1571428571428575 0.13491428571428554 0.44444571428571383
      vertex 4.1571428571428575 2.5349142857142857 2.8444457142857145
      vertex 4.1571428571428575 0.13491428571428554 2.8444457142857145
    endloop
  endfacet
  facet normal 1.0 0.0 0.0
    outer loop
      vertex 4.1571428571428575 5.792064 0.44444571428571383
      vertex 4.1571428571428575 8.192057142857143 2.8444457142857145
      vertex 4.1571428571428575 5.792064 2.8444457142857145
    endloop
  endfacet
endsolid thingi10k_65584
