solid thingi10k_311327
  facet normal 0.0 0.0 -1.0
    outer loop
      vertex 4.597113406754694 4.96376784666471 0.0
      vertex 11.0 7.333088798200311 0.0
      vertex 4.994566772761516 4.368687637541078 0.0
    endloop
  endfacet
  facet normal 0.0 -0.0 -1.0
    outer loop
      vertex 5.134262129752664 3.6665443991001556 0.0
      vertex 11.0 0.0 0.0
      vertex 4.994566772761516 2.9647677885243047 0.0
    endloop
  endfacet
  facet normal 0.0 -0.0 -1.0
    outer loop
      vertex 4.597113406754694 2.369687666817904 0.0
      vertex 11.0 0.0 0.0
      vertex 4.002033197631063 1.9718674981115494 0.0
    endloop
  endfacet
  facet normal 0.9807771122234226 -0.19513138173723873 0.0
    outer loop
      vertex 1.605213233035995 4.368687637541078 0.0
      vertex 1.605213233035995 4.368687637541078 0.3670210943673407
      vertex 1.4655177012103853 3.6665443991001556 0.3670210943673407
    endloop
  endfacet
  facet normal 0.9807771122234226 -0.19513138173723873 0.0
    outer loop
      vertex 1.605213233035995 4.368687637541078 0.0
      vertex 1.4655177012103853 3.6665443991001556 0.3670210943673407
      vertex 1.4655177012103853 3.6665443991001556 0.0
    endloop
  endfacet
  facet normal 0.0 0.0 -1.0
    outer loop
      vertex 4.002033197631063 5.361221300088761 0.0
      vertex 11.0 7.333088798200311 0.0
      vertex 4.597113406754694 4.96376784666471 0.0
    endloop
  endfacet
  facet normal 0.0 0.0 -1.0
    outer loop
      vertex 4.002033197631063 5.361221300088761 0.0
      vertex 3.29988995919014 5.500916482245449 0.0
      vertex 11.0 7.333088798200311 0.0
    endloop
  endfacet
  facet normal 0.0 0.0 -1.0
    outer loop
      vertex 0.0 7.333088798200311 0.0
      vertex 11.0 7.333088798200311 0.0
      vertex 3.29988995919014 5.500916482245449 0.0
    endloop
  endfacet
  facet normal -0.0 0.0 -1.0
    outer loop
      vertex 3.29988995919014 5.500916482245449 0.0
      vertex 2.598113348614289 5.361221300088761 0.0
      vertex 0.0 7.333088798200311 0.0
    endloop
  endfacet
  facet normal 0.8315771442451094 -0.5554092663695381 0.0
    outer loop
      vertex 2.0026665116255855 4.96376784666471 0.0
      vertex 2.0026665116255855 4.96376784666471 0.3670210943673407
      vertex 1.605213233035995 4.368687637541078 0.3670210943673407
    endloop
  endfacet
  facet normal 0.8315771442451094 -0.5554092663695381 0.0
    outer loop
      vertex 2.0026665116255855 4.96376784666471 0.0
      vertex 1.605213233035995 4.368687637541078 0.3670210943673407
      vertex 1.605213233035995 4.368687637541078 0.0
    endloop
  endfacet
  facet normal 0.0 0.0 -1.0
    outer loop
      vertex 4.597113406754694 2.369687666817904 0.0
      vertex 4.994566772761516 2.9647677885243047 0.0
      vertex 11.0 0.0 0.0
    endloop
  endfacet
  facet normal 0.0 0.0 -1.0
    outer loop
      vertex 4.994566772761516 4.368687637541078 0.0
      vertex 11.0 7.333088798200311 0.0
      vertex 5.134262129752664 3.6665443991001556 0.0
    endloop
  endfacet
  facet normal 0.0 0.0 -1.0
    outer loop
      vertex 11.0 0.0 0.0
      vertex 5.134262129752664 3.6665443991001556 0.0
      vertex 11.0 7.333088798200311 0.0
    endloop
  endfacet
  facet normal 0.5551728845149754 -0.8317349747962519 0.0
    outer loop
      vertex 2.598113348614289 5.361221300088761 0.0
      vertex 2.598113348614289 5.361221300088761 0.3670210943673407
      vertex 2.0026665116255855 4.96376784666471 0.3670210943673407
    endloop
  endfacet
  facet normal 0.5551728845149754 -0.8317349747962519 0.0
    outer loop
      vertex 2.598113348614289 5.361221300088761 0.0
      vertex 2.0026665116255855 4.96376784666471 0.3670210943673407
      vertex 2.0026665116255855 4.96376784666471 0.0
    endloop
  endfacet
  facet normal 0.0 -0.0 -1.0
    outer loop
      vertex 4.002033197631063 1.9718674981115494 0.0
      vertex 11.0 0.0 0.0
      vertex 3.29988995919014 1.832172315954862 0.0
    endloop
  endfacet
  facet normal 0.0 0.0 -1.0
    outer loop
      vertex 0.0 0.0 0.0
      vertex 3.29988995919014 1.832172315954862 0.0
      vertex 11.0 0.0 0.0
    endloop
  endfacet
  facet normal 0.19522896931631503 -0.9807576915526534 0.0
    outer loop
      vertex 3.29988995919014 5.500916482245449 0.0
      vertex 3.29988995919014 5.500916482245449 0.3670210943673407
      vertex 2.598113348614289 5.361221300088761 0.3670210943673407
    endloop
  endfacet
  facet normal 0.19522896931631503 -0.9807576915526534 0.0
    outer loop
      vertex 3.29988995919014 5.500916482245449 0.0
      vertex 2.598113348614289 5.361221300088761 0.3670210943673407
      vertex 2.598113348614289 5.361221300088761 0.0
    endloop
  endfacet
  facet normal 0.0 -0.0 -1.0
    outer loop
      vertex 1.4655177012103853 3.6665443991001556 0.0
      vertex 1.605213233035995 2.9647677885243047 0.0
      vertex 0.0 0.0 0.0
    endloop
  endfacet
  facet normal -0.19513091190550588 -0.9807772056990955 -0.0
    outer loop
      vertex 3.29988995919014 5.500916482245449 0.3670210943673407
      vertex 3.29988995919014 5.500916482245449 0.0
      vertex 4.002033197631063 5.361221300088761 0.3670210943673407
    endloop
  endfacet
  facet normal -0.19513091190550588 -0.9807772056990955 0.0
    outer loop
      vertex 4.002033197631063 5.361221300088761 0.0
      vertex 4.002033197631063 5.361221300088761 0.3670210943673407
      vertex 3.29988995919014 5.500916482245449 0.0
    endloop
  endfacet
  facet normal -0.5554094353198809 -0.8315770314033759 0.0
    outer loop
      vertex 4.597113406754694 4.96376784666471 0.0
      vertex 4.597113406754694 4.96376784666471 0.3670210943673407
      vertex 4.002033197631063 5.361221300088761 0.3670210943673407
    endloop
  endfacet
  facet normal -0.5554094353198809 -0.8315770314033759 0.0
    outer loop
      vertex 4.597113406754694 4.96376784666471 0.0
      vertex 4.002033197631063 5.361221300088761 0.3670210943673407
      vertex 4.002033197631063 5.361221300088761 0.0
    endloop
  endfacet
  facet normal -0.8315770878242427 -0.5554093508447189 0.0
    outer loop
      vertex 4.994566772761516 4.368687637541078 0.0
      vertex 4.994566772761516 4.368687637541078 0.3670210943673407
      vertex 4.597113406754694 4.96376784666471 0.3670210943673407
    endloop
  endfacet
  facet normal -0.8315770878242427 -0.5554093508447189 0.0
    outer loop
      vertex 4.994566772761516 4.368687637541078 0.0
      vertex 4.597113406754694 4.96376784666471 0.3670210943673407
      vertex 4.597113406754694 4.96376784666471 0.0
    endloop
  endfacet
  facet normal -0.9807771589612849 -0.19513114682138863 0.0
    outer loop
      vertex 5.134262129752664 3.6665443991001556 0.0
      vertex 5.134262129752664 3.6665443991001556 0.3670210943673407
      vertex 4.994566772761516 4.368687637541078 0.3670210943673407
    endloop
  endfacet
  facet normal -0.9807771589612849 -0.19513114682138863 0.0
    outer loop
      vertex 5.134262129752664 3.6665443991001556 0.0
      vertex 4.994566772761516 4.368687637541078 0.3670210943673407
      vertex 4.994566772761516 4.368687637541078 0.0
    endloop
  endfacet
  facet normal -0.9807576447687884 0.19522920434089527 0.0
    outer loop
      vertex 4.994566772761516 2.9647677885243047 0.0
      vertex 4.994566772761516 2.9647677885243047 0.3670210943673407
      vertex 5.134262129752664 3.6665443991001556 0.3670210943673407
    endloop
  endfacet
  facet normal -0.9807576447687884 0.19522920434089527 0.0
    outer loop
      vertex 4.994566772761516 2.9647677885243047 0.0
      vertex 5.134262129752664 3.6665443991001556 0.3670210943673407
      vertex 5.134262129752664 3.6665443991001556 0.0
    endloop
  endfacet
  facet normal 0.0 0.0 1.0
    outer loop
      vertex 1.4655177012103853 3.6665443991001556 0.3670210943673407
      vertex 0.0 0.0 0.3670210943673407
      vertex 1.605213233035995 2.9647677885243047 0.3670210943673407
    endloop
  endfacet
  facet normal -0.8315770501408069 0.5554094072655902 0.0
    outer loop
      vertex 4.597113406754694 2.369687666817904 0.0
      vertex 4.597113406754694 2.369687666817904 0.3670210943673407
      vertex 4.994566772761516 2.9647677885243047 0.3670210943673407
    endloop
  endfacet
  facet normal -0.8315770501408069 0.5554094072655902 0.0
    outer loop
      vertex 4.597113406754694 2.369687666817904 0.0
      vertex 4.994566772761516 2.9647677885243047 0.3670210943673407
      vertex 4.994566772761516 2.9647677885243047 0.0
    endloop
  endfacet
  facet normal -0.5557636573228599 0.8313403377673422 0.0
    outer loop
      vertex 4.002033197631063 1.9718674981115494 0.0
      vertex 4.002033197631063 1.9718674981115494 0.3670210943673407
      vertex 4.597113406754694 2.369687666817904 0.3670210943673407
    endloop
  endfacet
  facet normal -0.5557636573228599 0.8313403377673422 0.0
    outer loop
      vertex 4.002033197631063 1.9718674981115494 0.0
      vertex 4.597113406754694 2.369687666817904 0.3670210943673407
      vertex 4.597113406754694 2.369687666817904 0.0
    endloop
  endfacet
  facet normal 0.0 0.0 1.0
    outer loop
      vertex 2.598113348614289 5.361221300088761 0.3670210943673407
      vertex 0.0 7.333088798200311 0.3670210943673407
      vertex 2.0026665116255855 4.96376784666471 0.3670210943673407
    endloop
  endfacet
  facet normal -0.19513091190550558 0.9807772056990955 0.0
    outer loop
      vertex 4.002033197631063 1.9718674981115494 0.3670210943673407
      vertex 4.002033197631063 1.9718674981115494 0.0
      vertex 3.29988995919014 1.832172315954862 0.0
    endloop
  endfacet
  facet normal -0.19513091190550558 0.9807772056990955 0.0
    outer loop
      vertex 4.002033197631063 1.9718674981115494 0.3670210943673407
      vertex 3.29988995919014 1.832172315954862 0.0
      vertex 3.29988995919014 1.832172315954862 0.3670210943673407
    endloop
  endfacet
  facet normal 0.0 0.0 1.0
    outer loop
      vertex 3.29988995919014 5.500916482245449 0.3670210943673407
      vertex 0.0 7.333088798200311 0.3670210943673407
      vertex 2.598113348614289 5.361221300088761 0.3670210943673407
    endloop
  endfacet
  facet normal 0.0 -0.0 1.0
    outer loop
      vertex 5.134262129752664 3.6665443991001556 0.3670210943673407
      vertex 6.418089323816278 3.9631412498896554 0.3670210943673407
      vertex 4.994566772761516 4.368687637541078 0.3670210943673407
    endloop
  endfacet
  facet normal 0.0 -0.0 1.0
    outer loop
      vertex 6.418089323816278 3.9631412498896554 0.3670210943673407
      vertex 6.418089323816278 5.499816598650233 0.3670210943673407
      vertex 4.994566772761516 4.368687637541078 0.3670210943673407
    endloop
  endfacet
  facet normal 0.0 0.0 1.0
    outer loop
      vertex 11.0 7.333088798200311 0.3670210943673407
      vertex 4.002033197631063 5.361221300088761 0.3670210943673407
      vertex 6.418089323816278 5.499816598650233 0.3670210943673407
    endloop
  endfacet
  facet normal 0.0 -0.0 1.0
    outer loop
      vertex 4.597113406754694 4.96376784666471 0.3670210943673407
      vertex 6.418089323816278 5.499816598650233 0.3670210943673407
      vertex 4.002033197631063 5.361221300088761 0.3670210943673407
    endloop
  endfacet
  facet normal -0.0 0.0 1.0
    outer loop
      vertex 0.0 7.333088798200311 0.3670210943673407
      vertex 3.29988995919014 5.500916482245449 0.3670210943673407
      vertex 11.0 7.333088798200311 0.3670210943673407
    endloop
  endfacet
  facet normal -0.0 0.0 1.0
    outer loop
      vertex 4.002033197631063 1.9718674981115494 0.3670210943673407
      vertex 6.418089323816278 1.8329055716850058 0.3670210943673407
      vertex 4.597113406754694 2.369687666817904 0.3670210943673407
    endloop
  endfacet
  facet normal 1.0 0.0 0.0
    outer loop
      vertex 11.0 0.0 0.0
      vertex 11.0 7.333088798200311 0.0
      vertex 11.0 7.333088798200311 0.3670210943673407
    endloop
  endfacet
  facet normal -0.0 0.0 1.0
    outer loop
      vertex 3.29988995919014 1.832172315954862 0.3670210943673407
      vertex 11.0 0.0 0.3670210943673407
      vertex 4.002033197631063 1.9718674981115494 0.3670210943673407
    endloop
  endfacet
  facet normal 1.0 -0.0 0.0
    outer loop
      vertex 11.0 0.0 0.3670210943673407
      vertex 11.0 0.0 0.0
      vertex 11.0 7.333088798200311 0.3670210943673407
    endloop
  endfacet
  facet normal -1.0 -0.0 -0.0
    outer loop
      vertex 0.0 7.333088798200311 0.3670210943673407
      vertex 0.0 7.333088798200311 0.0
      vertex 0.0 0.0 0.3670210943673407
    endloop
  endfacet
  facet normal -1.0 0.0 0.0
    outer loop
      vertex 0.0 0.0 0.0
      vertex 0.0 0.0 0.3670210943673407
      vertex 0.0 7.333088798200311 0.0
    endloop
  endfacet
  facet normal 0.0 -0.0 1.0
    outer loop
      vertex 4.002033197631063 5.361221300088761 0.3670210943673407
      vertex 11.0 7.333088798200311 0.3670210943673407
      vertex 3.29988995919014 5.500916482245449 0.3670210943673407
    endloop
  endfacet
  facet normal 0.0 0.0 -1.0
    outer loop
      vertex 0.0 0.0 0.0
      vertex 2.598113348614289 1.9718674981115494 0.0
      vertex 3.29988995919014 1.832172315954862 0.0
    endloop
  endfacet
  facet normal -0.0 0.0 1.0
    outer loop
      vertex 4.597113406754694 4.96376784666471 0.3670210943673407
      vertex 4.994566772761516 4.368687637541078 0.3670210943673407
      vertex 6.418089323816278 5.499816598650233 0.3670210943673407
    endloop
  endfacet
  facet normal 0.0 -0.0 1.0
    outer loop
      vertex 9.788344384089822 5.499816598650233 0.3670210943673407
      vertex 11.0 7.333088798200311 0.3670210943673407
      vertex 6.418089323816278 5.499816598650233 0.3670210943673407
    endloop
  endfacet
  facet normal -0.0 0.0 1.0
    outer loop
      vertex 6.418089323816278 1.8329055716850058 0.3670210943673407
      vertex 11.0 0.0 0.3670210943673407
      vertex 9.788344384089822 1.8329055716850058 0.3670210943673407
    endloop
  endfacet
  facet normal 0.0 -0.0 1.0
    outer loop
      vertex 6.418089323816278 3.3698882138653965 0.3670210943673407
      vertex 6.418104359579938 3.6665443991001556 0.3670210943673407
      vertex 5.134262129752664 3.6665443991001556 0.3670210943673407
    endloop
  endfacet
  facet normal 0.0 0.0 1.0
    outer loop
      vertex 5.134262129752664 3.6665443991001556 0.3670210943673407
      vertex 4.994566772761516 2.9647677885243047 0.3670210943673407
      vertex 6.418089323816278 3.3698882138653965 0.3670210943673407
    endloop
  endfacet
  facet normal 0.0 -0.0 1.0
    outer loop
      vertex 6.418089323816278 1.8329055716850058 0.3670210943673407
      vertex 6.418089323816278 3.3698882138653965 0.3670210943673407
      vertex 4.994566772761516 2.9647677885243047 0.3670210943673407
    endloop
  endfacet
  facet normal 0.0 0.0 1.0
    outer loop
      vertex 4.994566772761516 2.9647677885243047 0.3670210943673407
      vertex 4.597113406754694 2.369687666817904 0.3670210943673407
      vertex 6.418089323816278 1.8329055716850058 0.3670210943673407
    endloop
  endfacet
  facet normal 0.0 0.0 -1.0
    outer loop
      vertex 0.0 0.0 0.0
      vertex 2.0026665116255855 2.369687666817904 0.0
      vertex 2.598113348614289 1.9718674981115494 0.0
    endloop
  endfacet
  facet normal 0.0 -0.0 -1.0
    outer loop
      vertex 1.605213233035995 2.9647677885243047 0.0
      vertex 2.0026665116255855 2.369687666817904 0.0
      vertex 0.0 0.0 0.0
    endloop
  endfacet
  facet normal 0.0 0.0 -1.0
    outer loop
      vertex 0.0 0.0 0.0
      vertex 0.0 7.333088798200311 0.0
      vertex 1.4655177012103853 3.6665443991001556 0.0
    endloop
  endfacet
  facet normal 0.0 0.0 -1.0
    outer loop
      vertex 0.0 7.333088798200311 0.0
      vertex 2.0026665116255855 4.96376784666471 0.0
      vertex 1.605213233035995 4.368687637541078 0.0
    endloop
  endfacet
  facet normal -0.0 0.0 -1.0
    outer loop
      vertex 1.605213233035995 4.368687637541078 0.0
      vertex 1.4655177012103853 3.6665443991001556 0.0
      vertex 0.0 7.333088798200311 0.0
    endloop
  endfacet
  facet normal -0.0 0.0 -1.0
    outer loop
      vertex 2.598113348614289 5.361221300088761 0.0
      vertex 2.0026665116255855 4.96376784666471 0.0
      vertex 0.0 7.333088798200311 0.0
    endloop
  endfacet
  facet normal 0.0 0.0 1.0
    outer loop
      vertex 6.418089323816278 3.9631412498896554 0.3670210943673407
      vertex 5.134262129752664 3.6665443991001556 0.3670210943673407
      vertex 6.418104359579938 3.6665443991001556 0.3670210943673407
    endloop
  endfacet
  facet normal -0.0 0.0 1.0
    outer loop
      vertex 9.788344384089822 1.8329055716850058 0.3670210943673407
      vertex 11.0 0.0 0.3670210943673407
      vertex 9.788344384089822 5.499816598650233 0.3670210943673407
    endloop
  endfacet
  facet normal 0.0 1.0 0.0
    outer loop
      vertex 0.0 7.333088798200311 0.0
      vertex 0.0 7.333088798200311 0.3670210943673407
      vertex 11.0 7.333088798200311 0.3670210943673407
    endloop
  endfacet
  facet normal 0.0 0.0 1.0
    outer loop
      vertex 6.418089323816278 1.8329055716850058 0.3670210943673407
      vertex 4.002033197631063 1.9718674981115494 0.3670210943673407
      vertex 11.0 0.0 0.3670210943673407
    endloop
  endfacet
  facet normal 0.0 0.0 1.0
    outer loop
      vertex 11.0 7.333088798200311 0.3670210943673407
      vertex 9.788344384089822 5.499816598650233 0.3670210943673407
      vertex 11.0 0.0 0.3670210943673407
    endloop
  endfacet
  facet normal 0.0 1.0 0.0
    outer loop
      vertex 0.0 7.333088798200311 0.0
      vertex 11.0 7.333088798200311 0.3670210943673407
      vertex 11.0 7.333088798200311 0.0
    endloop
  endfacet
  facet normal 0.0 0.0 1.0
    outer loop
      vertex 11.0 0.0 0.3670210943673407
      vertex 3.29988995919014 1.832172315954862 0.3670210943673407
      vertex 0.0 0.0 0.3670210943673407
    endloop
  endfacet
  facet normal 0.0 0.0 1.0
    outer loop
      vertex 7.2321663048282065 1.8329055716850058 1.9792006065086245
      vertex 8.973959869260698 1.8329055716850058 1.9792006065086245
      vertex 7.2321663048282065 1.9244022147520932 1.9792006065086245
    endloop
  endfacet
  facet normal 0.0 1.0 0.0
    outer loop
      vertex 6.418089323816278 5.499816598650233 0.3670210943673407
      vertex 7.186426987269413 5.499816598650233 1.8886370549607976
      vertex 9.019699361653952 5.499816598650233 1.8886370549607976
    endloop
  endfacet
  facet normal 0.0 1.0 0.0
    outer loop
      vertex 9.788344384089822 5.499816598650233 0.3670210943673407
      vertex 6.418089323816278 5.499816598650233 0.3670210943673407
      vertex 9.019699361653952 5.499816598650233 1.8886370549607976
    endloop
  endfacet
  facet normal 0.0 1.0 0.0
    outer loop
      vertex 8.973959869260698 5.499816598650233 1.9792006065086245
      vertex 9.019699361653952 5.499816598650233 1.8886370549607976
      vertex 7.186426987269413 5.499816598650233 1.8886370549607976
    endloop
  endfacet
  facet normal -0.0 1.0 0.0
    outer loop
      vertex 7.2321663048282065 5.499816598650233 1.9792006065086245
      vertex 8.973959869260698 5.499816598650233 1.9792006065086245
      vertex 7.186426987269413 5.499816598650233 1.8886370549607976
    endloop
  endfacet
  facet normal -0.8926349509580351 -4.5068404839145086e-05 0.45078025943577577
    outer loop
      vertex 7.2321663048282065 5.408338138367108 1.9792006065086245
      vertex 6.418089323816278 3.9631412498896554 0.3670210943673407
      vertex 7.232254246562174 3.6665443991001556 1.9792006065086245
    endloop
  endfacet
  facet normal -0.8926346805257939 -4.5818038475353783e-05 0.4507807948696586
    outer loop
      vertex 7.186426987269413 5.499816598650233 1.8886370549607976
      vertex 6.418089323816278 3.9631412498896554 0.3670210943673407
      vertex 7.2321663048282065 5.408338138367108 1.9792006065086245
    endloop
  endfacet
  facet normal -0.8926349645036378 -4.525148640358962e-05 0.4507802325944343
    outer loop
      vertex 6.418104359579938 3.6665443991001556 0.3670210943673407
      vertex 7.232254246562174 3.6665443991001556 1.9792006065086245
      vertex 6.418089323816278 3.9631412498896554 0.3670210943673407
    endloop
  endfacet
  facet normal 0.0 0.0 1.0
    outer loop
      vertex 1.605213233035995 4.368687637541078 0.3670210943673407
      vertex 0.0 7.333088798200311 0.3670210943673407
      vertex 1.4655177012103853 3.6665443991001556 0.3670210943673407
    endloop
  endfacet
  facet normal 0.0 -0.0 1.0
    outer loop
      vertex 1.605213233035995 4.368687637541078 0.3670210943673407
      vertex 2.0026665116255855 4.96376784666471 0.3670210943673407
      vertex 0.0 7.333088798200311 0.3670210943673407
    endloop
  endfacet
  facet normal 0.0 0.0 1.0
    outer loop
      vertex 0.0 7.333088798200311 0.3670210943673407
      vertex 0.0 0.0 0.3670210943673407
      vertex 1.4655177012103853 3.6665443991001556 0.3670210943673407
    endloop
  endfacet
  facet normal -0.892616058457823 0.0 0.4508176706643389
    outer loop
      vertex 7.2321663048282065 5.408338138367108 1.9792006065086245
      vertex 7.2321663048282065 5.499816598650233 1.9792006065086245
      vertex 7.186426987269413 5.499816598650233 1.8886370549607976
    endloop
  endfacet
  facet normal 0.0 -1.0 0.0
    outer loop
      vertex 9.788344384089822 1.8329055716850058 0.3670210943673407
      vertex 9.019699361653952 1.8329055716850058 1.8886370549607976
      vertex 6.418089323816278 1.8329055716850058 0.3670210943673407
    endloop
  endfacet
  facet normal 0.0 -1.0 -0.0
    outer loop
      vertex 11.0 0.0 0.3670210943673407
      vertex 0.0 0.0 0.0
      vertex 11.0 0.0 0.0
    endloop
  endfacet
  facet normal 0.0 -1.0 0.0
    outer loop
      vertex 0.0 0.0 0.3670210943673407
      vertex 0.0 0.0 0.0
      vertex 11.0 0.0 0.3670210943673407
    endloop
  endfacet
  facet normal 0.8925807444453951 0.0 0.45088758537500706
    outer loop
      vertex 9.019699361653952 1.8329055716850058 1.8886370549607976
      vertex 9.788344384089822 1.8329055716850058 0.3670210943673407
      vertex 9.788344384089822 5.499816598650233 0.3670210943673407
    endloop
  endfacet
  facet normal 0.8925807444453951 -0.0 0.45088758537500706
    outer loop
      vertex 9.019699361653952 1.8329055716850058 1.8886370549607976
      vertex 9.788344384089822 5.499816598650233 0.3670210943673407
      vertex 9.019699361653952 5.499816598650233 1.8886370549607976
    endloop
  endfacet
  facet normal 0.0 -1.0 -0.0
    outer loop
      vertex 7.2321663048282065 1.8329055716850058 1.9792006065086245
      vertex 7.186426987269413 1.8329055716850058 1.8886370549607976
      vertex 8.973959869260698 1.8329055716850058 1.9792006065086245
    endloop
  endfacet
  facet normal 0.0 -1.0 0.0
    outer loop
      vertex 9.019699361653952 1.8329055716850058 1.8886370549607976
      vertex 8.973959869260698 1.8329055716850058 1.9792006065086245
      vertex 7.186426987269413 1.8329055716850058 1.8886370549607976
    endloop
  endfacet
  facet normal 0.0 -1.0 -0.0
    outer loop
      vertex 7.186426987269413 1.8329055716850058 1.8886370549607976
      vertex 6.418089323816278 1.8329055716850058 0.3670210943673407
      vertex 9.019699361653952 1.8329055716850058 1.8886370549607976
    endloop
  endfacet
  facet normal 0.8926153650252492 0.0 0.45081904365370506
    outer loop
      vertex 8.973959869260698 5.499816598650233 1.9792006065086245
      vertex 8.973959869260698 1.8329055716850058 1.9792006065086245
      vertex 9.019699361653952 1.8329055716850058 1.8886370549607976
    endloop
  endfacet
  facet normal 0.8926153650252492 0.0 0.45081904365370506
    outer loop
      vertex 8.973959869260698 5.499816598650233 1.9792006065086245
      vertex 9.019699361653952 1.8329055716850058 1.8886370549607976
      vertex 9.019699361653952 5.499816598650233 1.8886370549607976
    endloop
  endfacet
  facet normal -0.8926532999341317 0.0 0.45074392521331336
    outer loop
      vertex 7.186426987269413 1.8329055716850058 1.8886370549607976
      vertex 6.418089323816278 3.3698882138653965 0.3670210943673407
      vertex 6.418089323816278 1.8329055716850058 0.3670210943673407
    endloop
  endfacet
  facet normal 0.1952289693163147 0.9807576915526534 0.0
    outer loop
      vertex 3.29988995919014 1.832172315954862 0.3670210943673407
      vertex 3.29988995919014 1.832172315954862 0.0
      vertex 2.598113348614289 1.9718674981115494 0.3670210943673407
    endloop
  endfacet
  facet normal 0.1952289693163147 0.9807576915526534 -0.0
    outer loop
      vertex 2.598113348614289 1.9718674981115494 0.0
      vertex 2.598113348614289 1.9718674981115494 0.3670210943673407
      vertex 3.29988995919014 1.832172315954862 0.0
    endloop
  endfacet
  facet normal -0.0 0.0 1.0
    outer loop
      vertex 7.2321663048282065 5.408338138367108 1.9792006065086245
      vertex 7.232254246562174 3.6665443991001556 1.9792006065086245
      vertex 8.973959869260698 5.499816598650233 1.9792006065086245
    endloop
  endfacet
  facet normal -0.0 0.0 1.0
    outer loop
      vertex 7.2321663048282065 5.499816598650233 1.9792006065086245
      vertex 7.2321663048282065 5.408338138367108 1.9792006065086245
      vertex 8.973959869260698 5.499816598650233 1.9792006065086245
    endloop
  endfacet
  facet normal 0.0 -0.0 1.0
    outer loop
      vertex 8.973959869260698 1.8329055716850058 1.9792006065086245
      vertex 8.973959869260698 5.499816598650233 1.9792006065086245
      vertex 7.232254246562174 3.6665443991001556 1.9792006065086245
    endloop
  endfacet
  facet normal 0.0 0.0 1.0
    outer loop
      vertex 7.232254246562174 3.6665443991001556 1.9792006065086245
      vertex 7.2321663048282065 1.9244022147520932 1.9792006065086245
      vertex 8.973959869260698 1.8329055716850058 1.9792006065086245
    endloop
  endfacet
  facet normal -0.8926532999341317 0.0 0.4507439252133134
    outer loop
      vertex 6.418089323816278 5.499816598650233 0.3670210943673407
      vertex 6.418089323816278 3.9631412498896554 0.3670210943673407
      vertex 7.186426987269413 5.499816598650233 1.8886370549607976
    endloop
  endfacet
  facet normal -0.8926346805149304 4.58089055873137e-05 0.4507807948920983
    outer loop
      vertex 7.186426987269413 1.8329055716850058 1.8886370549607976
      vertex 7.2321663048282065 1.9244022147520932 1.9792006065086245
      vertex 6.418089323816278 3.3698882138653965 0.3670210943673407
    endloop
  endfacet
  facet normal -0.892634950958402 4.505939072761703e-05 0.4507802594359505
    outer loop
      vertex 7.2321663048282065 1.9244022147520932 1.9792006065086245
      vertex 7.232254246562174 3.6665443991001556 1.9792006065086245
      vertex 6.418089323816278 3.3698882138653965 0.3670210943673407
    endloop
  endfacet
  facet normal -0.8926349645040033 4.524243561695156e-05 0.4507802325946188
    outer loop
      vertex 6.418104359579938 3.6665443991001556 0.3670210943673407
      vertex 6.418089323816278 3.3698882138653965 0.3670210943673407
      vertex 7.232254246562174 3.6665443991001556 1.9792006065086245
    endloop
  endfacet
  facet normal 0.5555270902942431 0.8314984377310711 -0.0
    outer loop
      vertex 2.0026665116255855 2.369687666817904 0.0
      vertex 2.0026665116255855 2.369687666817904 0.3670210943673407
      vertex 2.598113348614289 1.9718674981115494 0.3670210943673407
    endloop
  endfacet
  facet normal 0.5555270902942431 0.8314984377310711 0.0
    outer loop
      vertex 2.0026665116255855 2.369687666817904 0.0
      vertex 2.598113348614289 1.9718674981115494 0.3670210943673407
      vertex 2.598113348614289 1.9718674981115494 0.0
    endloop
  endfacet
  facet normal -0.8926160584578229 0.0 0.45081767066433887
    outer loop
      vertex 7.186426987269413 1.8329055716850058 1.8886370549607976
      vertex 7.2321663048282065 1.8329055716850058 1.9792006065086245
      vertex 7.2321663048282065 1.9244022147520932 1.9792006065086245
    endloop
  endfacet
  facet normal 0.8315771065616825 0.5554093227904086 -0.0
    outer loop
      vertex 1.605213233035995 2.9647677885243047 0.0
      vertex 1.605213233035995 2.9647677885243047 0.3670210943673407
      vertex 2.0026665116255855 2.369687666817904 0.3670210943673407
    endloop
  endfacet
  facet normal 0.8315771065616825 0.5554093227904086 0.0
    outer loop
      vertex 1.605213233035995 2.9647677885243047 0.0
      vertex 2.0026665116255855 2.369687666817904 0.3670210943673407
      vertex 2.0026665116255855 2.369687666817904 0.0
    endloop
  endfacet
  facet normal 0.9807575979848716 0.19522943936544288 0.0
    outer loop
      vertex 1.605213233035995 2.9647677885243047 0.3670210943673407
      vertex 1.605213233035995 2.9647677885243047 0.0
      vertex 1.4655177012103853 3.6665443991001556 0.0
    endloop
  endfacet
  facet normal 0.9807575979848716 0.19522943936544288 0.0
    outer loop
      vertex 1.605213233035995 2.9647677885243047 0.3670210943673407
      vertex 1.4655177012103853 3.6665443991001556 0.0
      vertex 1.4655177012103853 3.6665443991001556 0.3670210943673407
    endloop
  endfacet
  facet normal 0.0 0.0 1.0
    outer loop
      vertex 0.0 0.0 0.3670210943673407
      vertex 3.29988995919014 1.832172315954862 0.3670210943673407
      vertex 2.598113348614289 1.9718674981115494 0.3670210943673407
    endloop
  endfacet
  facet normal 0.0 0.0 1.0
    outer loop
      vertex 1.605213233035995 2.9647677885243047 0.3670210943673407
      vertex 0.0 0.0 0.3670210943673407
      vertex 2.0026665116255855 2.369687666817904 0.3670210943673407
    endloop
  endfacet
  facet normal 0.0 0.0 1.0
    outer loop
      vertex 2.598113348614289 1.9718674981115494 0.3670210943673407
      vertex 2.0026665116255855 2.369687666817904 0.3670210943673407
      vertex 0.0 0.0 0.3670210943673407
    endloop
  endfacet
endsolid thingi10k_311327
