solid thingi10k_65585
  facet normal 0.0 -0.7071091382130797 0.7071044241521586
    outer loop
      vertex 0.2661290322580645 7.236403225806452 11.0
      vertex 0.0 7.236403225806452 11.0
      vertex 0.0 6.171894193548387 9.935483870967742
    endloop
  endfacet
  facet normal 0.0 -0.7071091382130797 0.7071044241521586
    outer loop
      vertex 0.2661290322580645 6.171894193548387 9.935483870967742
      vertex 0.2661290322580645 7.236403225806452 11.0
      vertex 0.0 6.171894193548387 9.935483870967742
    endloop
  endfacet
  facet normal -1.0 0.0 0.0
    outer loop
      vertex 0.0 6.171894193548387 9.935483870967742
      vertex 0.0 7.236403225806452 11.0
      vertex 0.0 7.236403225806452 9.935483870967742
    endloop
  endfacet
  facet normal -0.0 1.0 0.0
    outer loop
      vertex 0.0 7.236403225806452 11.0
      vertex 0.2661290322580645 7.236403225806452 11.0
      vertex 0.0 7.236403225806452 9.935483870967742
    endloop
  endfacet
  facet normal 0.0 1.0 0.0
    outer loop
      vertex 0.0 7.236403225806452 9.935483870967742
      vertex 0.2661290322580645 7.236403225806452 11.0
      vertex 0.2661290322580645 7.236403225806452 9.935483870967742
    endloop
  endfacet
  facet normal 1.0 0.0 -0.0
    outer loop
      vertex 0.2661290322580645 7.236403225806452 9.935483870967742
      vertex 0.2661290322580645 7.236403225806452 11.0
      vertex 0.2661290322580645 6.171894193548387 9.935483870967742
    endloop
  endfacet
  facet normal 0.0 0.0 -1.0
    outer loop
      vertex 0.0 6.171894193548387 9.935483870967742
      vertex 0.0 7.236403225806452 9.935483870967742
      vertex 0.2661290322580645 6.171894193548387 9.935483870967742
    endloop
  endfacet
  facet normal 0.0 0.0 -1.0
    outer loop
      vertex 0.2661290322580645 6.171894193548387 9.935483870967742
      vertex 0.0 7.236403225806452 9.935483870967742
      vertex 0.2661290322580645 7.236403225806452 9.935483870967742
    endloop
  endfacet
  facet normal 0.0 0.0 1.0
    outer loop
      vertex 0.0 8.47833870967742 9.758064516129032
      vertex 0.0 7.413822580645162 9.758064516129032
      vertex 0.2661290322580645 7.413822580645162 9.758064516129032
    endloop
  endfacet
  facet normal 0.0 0.0 1.0
    outer loop
      vertex 0.2661290322580645 8.47833870967742 9.758064516129032
      vertex 0.0 8.47833870967742 9.758064516129032
      vertex 0.2661290322580645 7.413822580645162 9.758064516129032
    endloop
  endfacet
  facet normal -0.0 -1.0 0.0
    outer loop
      vertex 0.2661290322580645 7.413822580645162 9.758064516129032
      vertex 0.0 7.413822580645162 9.758064516129032
      vertex 0.0 7.413822580645162 8.693548387096774
    endloop
  endfacet
  facet normal 0.0 -1.0 0.0
    outer loop
      vertex 0.2661290322580645 7.413822580645162 8.693548387096774
      vertex 0.2661290322580645 7.413822580645162 9.758064516129032
      vertex 0.0 7.413822580645162 8.693548387096774
    endloop
  endfacet
  facet normal -1.0 0.0 0.0
    outer loop
      vertex 0.0 7.413822580645162 8.693548387096774
      vertex 0.0 7.413822580645162 9.758064516129032
      vertex 0.0 8.47833870967742 9.758064516129032
    endloop
  endfacet
  facet normal 0.0 0.7071067811865476 -0.7071067811865476
    outer loop
      vertex 0.0 8.47833870967742 9.758064516129032
      vertex 0.2661290322580645 8.47833870967742 9.758064516129032
      vertex 0.0 7.413822580645162 8.693548387096774
    endloop
  endfacet
  facet normal 0.0 0.7071067811865476 -0.7071067811865476
    outer loop
      vertex 0.0 7.413822580645162 8.693548387096774
      vertex 0.2661290322580645 8.47833870967742 9.758064516129032
      vertex 0.2661290322580645 7.413822580645162 8.693548387096774
    endloop
  endfacet
  facet normal 1.0 0.0 0.0
    outer loop
      vertex 0.2661290322580645 8.47833870967742 9.758064516129032
      vertex 0.2661290322580645 7.413822580645162 9.758064516129032
      vertex 0.2661290322580645 7.413822580645162 8.693548387096774
    endloop
  endfacet
  facet normal 0.0 -0.7071067811865478 0.7071067811865474
    outer loop
      vertex 0.2661290322580645 5.817055483870967 11.0
      vertex 0.0 5.817055483870967 11.0
      vertex 0.0 3.3331845161290325 8.516129032258064
    endloop
  endfacet
  facet normal 0.0 -0.7071067811865478 0.7071067811865474
    outer loop
      vertex 0.2661290322580645 3.3331845161290325 8.516129032258064
      vertex 0.2661290322580645 5.817055483870967 11.0
      vertex 0.0 3.3331845161290325 8.516129032258064
    endloop
  endfacet
  facet normal -1.0 0.0 0.0
    outer loop
      vertex 0.0 3.3331845161290325 8.516129032258064
      vertex 0.0 5.817055483870967 11.0
      vertex 0.0 5.817055483870967 8.516129032258064
    endloop
  endfacet
  facet normal -0.0 1.0 0.0
    outer loop
      vertex 0.0 5.817055483870967 11.0
      vertex 0.2661290322580645 5.817055483870967 11.0
      vertex 0.0 5.817055483870967 8.516129032258064
    endloop
  endfacet
  facet normal 0.0 1.0 0.0
    outer loop
      vertex 0.0 5.817055483870967 8.516129032258064
      vertex 0.2661290322580645 5.817055483870967 11.0
      vertex 0.2661290322580645 5.817055483870967 8.516129032258064
    endloop
  endfacet
  facet normal 1.0 0.0 -0.0
    outer loop
      vertex 0.2661290322580645 5.817055483870967 8.516129032258064
      vertex 0.2661290322580645 5.817055483870967 11.0
      vertex 0.2661290322580645 3.3331845161290325 8.516129032258064
    endloop
  endfacet
  facet normal 0.0 0.0 -1.0
    outer loop
      vertex 0.0 3.3331845161290325 8.516129032258064
      vertex 0.0 5.817055483870967 8.516129032258064
      vertex 0.2661290322580645 3.3331845161290325 8.516129032258064
    endloop
  endfacet
  facet normal 0.0 0.0 -1.0
    outer loop
      vertex 0.2661290322580645 3.3331845161290325 8.516129032258064
      vertex 0.0 5.817055483870967 8.516129032258064
      vertex 0.2661290322580645 5.817055483870967 8.516129032258064
    endloop
  endfacet
  facet normal -0.0 -1.0 0.0
    outer loop
      vertex 0.2661290322580645 5.994474838709677 8.338709677419356
      vertex 0.0 5.994474838709677 8.338709677419356
      vertex 0.0 5.994474838709677 5.854836935483872
    endloop
  endfacet
  facet normal 0.0 -1.0 0.0
    outer loop
      vertex 0.2661290322580645 5.994474838709677 5.854836935483872
      vertex 0.2661290322580645 5.994474838709677 8.338709677419356
      vertex 0.0 5.994474838709677 5.854836935483872
    endloop
  endfacet
  facet normal -1.0 0.0 0.0
    outer loop
      vertex 0.0 5.994474838709677 5.854836935483872
      vertex 0.0 5.994474838709677 8.338709677419356
      vertex 0.0 8.47833870967742 8.338709677419356
    endloop
  endfacet
  facet normal 0.0 0.0 1.0
    outer loop
      vertex 0.0 8.47833870967742 8.338709677419356
      vertex 0.0 5.994474838709677 8.338709677419356
      vertex 0.2661290322580645 5.994474838709677 8.338709677419356
    endloop
  endfacet
  facet normal 0.0 0.0 1.0
    outer loop
      vertex 0.2661290322580645 8.47833870967742 8.338709677419356
      vertex 0.0 8.47833870967742 8.338709677419356
      vertex 0.2661290322580645 5.994474838709677 8.338709677419356
    endloop
  endfacet
  facet normal 1.0 0.0 0.0
    outer loop
      vertex 0.2661290322580645 8.47833870967742 8.338709677419356
      vertex 0.2661290322580645 5.994474838709677 8.338709677419356
      vertex 0.2661290322580645 5.994474838709677 5.854836935483872
    endloop
  endfacet
  facet normal 0.0 0.7071080438774535 -0.7071055184933867
    outer loop
      vertex 0.0 8.47833870967742 8.338709677419356
      vertex 0.2661290322580645 8.47833870967742 8.338709677419356
      vertex 0.0 5.994474838709677 5.854836935483872
    endloop
  endfacet
  facet normal 0.0 0.7071080438774535 -0.7071055184933867
    outer loop
      vertex 0.0 5.994474838709677 5.854836935483872
      vertex 0.2661290322580645 8.47833870967742 8.338709677419356
      vertex 0.2661290322580645 5.994474838709677 5.854836935483872
    endloop
  endfacet
  facet normal 0.0 -0.7071067811865475 0.7071067811865477
    outer loop
      vertex 0.2661290322580645 4.397700645161291 11.0
      vertex 0.0 4.397700645161291 11.0
      vertex 0.0 3.3331845161290325 9.935483870967742
    endloop
  endfacet
  facet normal 0.0 -0.7071067811865475 0.7071067811865477
    outer loop
      vertex 0.2661290322580645 3.3331845161290325 9.935483870967742
      vertex 0.2661290322580645 4.397700645161291 11.0
      vertex 0.0 3.3331845161290325 9.935483870967742
    endloop
  endfacet
  facet normal -1.0 0.0 0.0
    outer loop
      vertex 0.0 3.3331845161290325 9.935483870967742
      vertex 0.0 4.397700645161291 11.0
      vertex 0.0 4.397700645161291 9.935483870967742
    endloop
  endfacet
  facet normal -0.0 1.0 0.0
    outer loop
      vertex 0.0 4.397700645161291 11.0
      vertex 0.2661290322580645 4.397700645161291 11.0
      vertex 0.0 4.397700645161291 9.935483870967742
    endloop
  endfacet
  facet normal 0.0 1.0 0.0
    outer loop
      vertex 0.0 4.397700645161291 9.935483870967742
      vertex 0.2661290322580645 4.397700645161291 11.0
      vertex 0.2661290322580645 4.397700645161291 9.935483870967742
    endloop
  endfacet
  facet normal 1.0 0.0 -0.0
    outer loop
      vertex 0.2661290322580645 4.397700645161291 9.935483870967742
      vertex 0.2661290322580645 4.397700645161291 11.0
      vertex 0.2661290322580645 3.3331845161290325 9.935483870967742
    endloop
  endfacet
  facet normal 0.0 0.0 -1.0
    outer loop
      vertex 0.0 3.3331845161290325 9.935483870967742
      vertex 0.0 4.397700645161291 9.935483870967742
      vertex 0.2661290322580645 3.3331845161290325 9.935483870967742
    endloop
  endfacet
  facet normal 0.0 0.0 -1.0
    outer loop
      vertex 0.2661290322580645 3.3331845161290325 9.935483870967742
      vertex 0.0 4.397700645161291 9.935483870967742
      vertex 0.2661290322580645 4.397700645161291 9.935483870967742
    endloop
  endfacet
  facet normal 0.0 -0.7071073704414619 0.7071061919311421
    outer loop
      vertex 0.2661290322580645 4.397700645161291 8.161290322580646
      vertex 0.0 4.397700645161291 8.161290322580646
      vertex 0.0 3.3331845161290325 7.096772419354839
    endloop
  endfacet
  facet normal 0.0 -0.7071073704414619 0.7071061919311421
    outer loop
      vertex 0.2661290322580645 3.3331845161290325 7.096772419354839
      vertex 0.2661290322580645 4.397700645161291 8.161290322580646
      vertex 0.0 3.3331845161290325 7.096772419354839
    endloop
  endfacet
  facet normal -1.0 0.0 0.0
    outer loop
      vertex 0.0 3.3331845161290325 7.096772419354839
      vertex 0.0 4.397700645161291 8.161290322580646
      vertex 0.0 4.397700645161291 7.096772419354839
    endloop
  endfacet
  facet normal -0.0 1.0 0.0
    outer loop
      vertex 0.0 4.397700645161291 8.161290322580646
      vertex 0.2661290322580645 4.397700645161291 8.161290322580646
      vertex 0.0 4.397700645161291 7.096772419354839
    endloop
  endfacet
  facet normal 0.0 1.0 0.0
    outer loop
      vertex 0.0 4.397700645161291 7.096772419354839
      vertex 0.2661290322580645 4.397700645161291 8.161290322580646
      vertex 0.2661290322580645 4.397700645161291 7.096772419354839
    endloop
  endfacet
  facet normal 1.0 0.0 -0.0
    outer loop
      vertex 0.2661290322580645 4.397700645161291 7.096772419354839
      vertex 0.2661290322580645 4.397700645161291 8.161290322580646
      vertex 0.2661290322580645 3.3331845161290325 7.096772419354839
    endloop
  endfacet
  facet normal 0.0 0.0 -1.0
    outer loop
      vertex 0.0 3.3331845161290325 7.096772419354839
      vertex 0.0 4.397700645161291 7.096772419354839
      vertex 0.2661290322580645 3.3331845161290325 7.096772419354839
    endloop
  endfacet
  facet normal 0.0 0.0 -1.0
    outer loop
      vertex 0.2661290322580645 3.3331845161290325 7.096772419354839
      vertex 0.0 4.397700645161291 7.096772419354839
      vertex 0.2661290322580645 4.397700645161291 7.096772419354839
    endloop
  endfacet
  facet normal -0.0 -1.0 0.0
    outer loop
      vertex 0.2661290322580645 4.57512 6.91935306451613
      vertex 0.0 4.57512 6.91935306451613
      vertex 0.0 4.57512 5.854836935483872
    endloop
  endfacet
  facet normal 0.0 -1.0 0.0
    outer loop
      vertex 0.2661290322580645 4.57512 5.854836935483872
      vertex 0.2661290322580645 4.57512 6.91935306451613
      vertex 0.0 4.57512 5.854836935483872
    endloop
  endfacet
  facet normal -1.0 0.0 0.0
    outer loop
      vertex 0.0 4.57512 5.854836935483872
      vertex 0.0 4.57512 6.91935306451613
      vertex 0.0 5.639636129032259 6.91935306451613
    endloop
  endfacet
  facet normal 0.0 0.0 1.0
    outer loop
      vertex 0.0 5.639636129032259 6.91935306451613
      vertex 0.0 4.57512 6.91935306451613
      vertex 0.2661290322580645 4.57512 6.91935306451613
    endloop
  endfacet
  facet normal 0.0 0.0 1.0
    outer loop
      vertex 0.2661290322580645 5.639636129032259 6.91935306451613
      vertex 0.0 5.639636129032259 6.91935306451613
      vertex 0.2661290322580645 4.57512 6.91935306451613
    endloop
  endfacet
  facet normal 1.0 0.0 0.0
    outer loop
      vertex 0.2661290322580645 5.639636129032259 6.91935306451613
      vertex 0.2661290322580645 4.57512 6.91935306451613
      vertex 0.2661290322580645 4.57512 5.854836935483872
    endloop
  endfacet
  facet normal 0.0 0.7071067811865474 -0.7071067811865479
    outer loop
      vertex 0.0 5.639636129032259 6.91935306451613
      vertex 0.2661290322580645 5.639636129032259 6.91935306451613
      vertex 0.0 4.57512 5.854836935483872
    endloop
  endfacet
  facet normal 0.0 0.7071067811865474 -0.7071067811865479
    outer loop
      vertex 0.0 4.57512 5.854836935483872
      vertex 0.2661290322580645 5.639636129032259 6.91935306451613
      vertex 0.2661290322580645 4.57512 5.854836935483872
    endloop
  endfacet
  facet normal -0.0 -1.0 0.0
    outer loop
      vertex 0.2661290322580645 7.413822580645162 6.91935306451613
      vertex 0.0 7.413822580645162 6.91935306451613
      vertex 0.0 7.413822580645162 5.854836935483872
    endloop
  endfacet
  facet normal 0.0 -1.0 0.0
    outer loop
      vertex 0.2661290322580645 7.413822580645162 5.854836935483872
      vertex 0.2661290322580645 7.413822580645162 6.91935306451613
      vertex 0.0 7.413822580645162 5.854836935483872
    endloop
  endfacet
  facet normal -1.0 0.0 0.0
    outer loop
      vertex 0.0 7.413822580645162 5.854836935483872
      vertex 0.0 7.413822580645162 6.91935306451613
      vertex 0.0 8.47833870967742 6.91935306451613
    endloop
  endfacet
  facet normal 0.0 0.0 1.0
    outer loop
      vertex 0.0 8.47833870967742 6.91935306451613
      vertex 0.0 7.413822580645162 6.91935306451613
      vertex 0.2661290322580645 7.413822580645162 6.91935306451613
    endloop
  endfacet
  facet normal 0.0 0.0 1.0
    outer loop
      vertex 0.2661290322580645 8.47833870967742 6.91935306451613
      vertex 0.0 8.47833870967742 6.91935306451613
      vertex 0.2661290322580645 7.413822580645162 6.91935306451613
    endloop
  endfacet
  facet normal 1.0 0.0 0.0
    outer loop
      vertex 0.2661290322580645 8.47833870967742 6.91935306451613
      vertex 0.2661290322580645 7.413822580645162 6.91935306451613
      vertex 0.2661290322580645 7.413822580645162 5.854836935483872
    endloop
  endfacet
  facet normal 0.0 0.7071067811865476 -0.7071067811865476
    outer loop
      vertex 0.0 8.47833870967742 6.91935306451613
      vertex 0.2661290322580645 8.47833870967742 6.91935306451613
      vertex 0.0 7.413822580645162 5.854836935483872
    endloop
  endfacet
  facet normal 0.0 0.7071067811865476 -0.7071067811865476
    outer loop
      vertex 0.0 7.413822580645162 5.854836935483872
      vertex 0.2661290322580645 8.47833870967742 6.91935306451613
      vertex 0.2661290322580645 7.413822580645162 5.854836935483872
    endloop
  endfacet
  facet normal 0.0 -0.7071081248927118 0.7071054374778296
    outer loop
      vertex 0.2661290322580645 2.800926451612903 11.0
      vertex 0.0 2.800926451612903 11.0
      vertex 0.0 0.0 8.199062903225808
    endloop
  endfacet
  facet normal 0.0 -0.7071081248927118 0.7071054374778296
    outer loop
      vertex 0.2661290322580645 0.0 8.199062903225808
      vertex 0.2661290322580645 2.800926451612903 11.0
      vertex 0.0 0.0 8.199062903225808
    endloop
  endfacet
  facet normal -1.0 0.0 -0.0
    outer loop
      vertex 0.0 2.800926451612903 11.0
      vertex 0.0 2.800926451612903 5.677417580645162
      vertex 0.0 0.0 8.199062903225808
    endloop
  endfacet
  facet normal -1.0 0.0 0.0
    outer loop
      vertex 0.0 0.0 8.199062903225808
      vertex 0.0 2.800926451612903 5.677417580645162
      vertex 0.0 0.0 5.677417580645162
    endloop
  endfacet
  facet normal -0.0 1.0 0.0
    outer loop
      vertex 0.0 2.800926451612903 11.0
      vertex 0.2661290322580645 2.800926451612903 11.0
      vertex 0.0 2.800926451612903 5.677417580645162
    endloop
  endfacet
  facet normal 0.0 1.0 0.0
    outer loop
      vertex 0.0 2.800926451612903 5.677417580645162
      vertex 0.2661290322580645 2.800926451612903 11.0
      vertex 0.2661290322580645 2.800926451612903 5.677417580645162
    endloop
  endfacet
  facet normal 1.0 0.0 -0.0
    outer loop
      vertex 0.2661290322580645 2.800926451612903 5.677417580645162
      vertex 0.2661290322580645 2.800926451612903 11.0
      vertex 0.2661290322580645 0.0 8.199062903225808
    endloop
  endfacet
  facet normal 1.0 0.0 0.0
    outer loop
      vertex 0.2661290322580645 0.0 5.677417580645162
      vertex 0.2661290322580645 2.800926451612903 5.677417580645162
      vertex 0.2661290322580645 0.0 8.199062903225808
    endloop
  endfacet
  facet normal -0.0 -1.0 0.0
    outer loop
      vertex 0.2661290322580645 0.0 8.199062903225808
      vertex 0.0 0.0 8.199062903225808
      vertex 0.0 0.0 5.677417580645162
    endloop
  endfacet
  facet normal 0.0 -1.0 0.0
    outer loop
      vertex 0.2661290322580645 0.0 5.677417580645162
      vertex 0.2661290322580645 0.0 8.199062903225808
      vertex 0.0 0.0 5.677417580645162
    endloop
  endfacet
  facet normal 0.0 0.0 -1.0
    outer loop
      vertex 0.0 0.0 5.677417580645162
      vertex 0.0 2.800926451612903 5.677417580645162
      vertex 0.2661290322580645 0.0 5.677417580645162
    endloop
  endfacet
  facet normal 0.0 0.0 -1.0
    outer loop
      vertex 0.2661290322580645 0.0 5.677417580645162
      vertex 0.0 2.800926451612903 5.677417580645162
      vertex 0.2661290322580645 2.800926451612903 5.677417580645162
    endloop
  endfacet
  facet normal 0.0 -0.7071067811865475 0.7071067811865476
    outer loop
      vertex 0.2661290322580645 1.3815645161290322 11.0
      vertex 0.0 1.3815645161290322 11.0
      vertex 0.0 0.317048387096774 9.935483870967742
    endloop
  endfacet
  facet normal 0.0 -0.7071067811865475 0.7071067811865476
    outer loop
      vertex 0.2661290322580645 0.317048387096774 9.935483870967742
      vertex 0.2661290322580645 1.3815645161290322 11.0
      vertex 0.0 0.317048387096774 9.935483870967742
    endloop
  endfacet
  facet normal -1.0 0.0 0.0
    outer loop
      vertex 0.0 0.317048387096774 9.935483870967742
      vertex 0.0 1.3815645161290322 11.0
      vertex 0.0 1.3815645161290322 9.935483870967742
    endloop
  endfacet
  facet normal -0.0 1.0 0.0
    outer loop
      vertex 0.0 1.3815645161290322 11.0
      vertex 0.2661290322580645 1.3815645161290322 11.0
      vertex 0.0 1.3815645161290322 9.935483870967742
    endloop
  endfacet
  facet normal 0.0 1.0 0.0
    outer loop
      vertex 0.0 1.3815645161290322 9.935483870967742
      vertex 0.2661290322580645 1.3815645161290322 11.0
      vertex 0.2661290322580645 1.3815645161290322 9.935483870967742
    endloop
  endfacet
  facet normal 1.0 0.0 -0.0
    outer loop
      vertex 0.2661290322580645 1.3815645161290322 9.935483870967742
      vertex 0.2661290322580645 1.3815645161290322 11.0
      vertex 0.2661290322580645 0.317048387096774 9.935483870967742
    endloop
  endfacet
  facet normal 0.0 0.0 -1.0
    outer loop
      vertex 0.0 0.317048387096774 9.935483870967742
      vertex 0.0 1.3815645161290322 9.935483870967742
      vertex 0.2661290322580645 0.317048387096774 9.935483870967742
    endloop
  endfacet
  facet normal 0.0 0.0 -1.0
    outer loop
      vertex 0.2661290322580645 0.317048387096774 9.935483870967742
      vertex 0.0 1.3815645161290322 9.935483870967742
      vertex 0.2661290322580645 1.3815645161290322 9.935483870967742
    endloop
  endfacet
  facet normal -0.0 -1.0 0.0
    outer loop
      vertex 0.2661290322580645 3.155765161290323 5.322578870967743
      vertex 0.0 3.155765161290323 5.322578870967743
      vertex 0.0 3.155765161290323 0.0
    endloop
  endfacet
  facet normal 0.0 -1.0 0.0
    outer loop
      vertex 0.2661290322580645 3.155765161290323 0.0
      vertex 0.2661290322580645 3.155765161290323 5.322578870967743
      vertex 0.0 3.155765161290323 0.0
    endloop
  endfacet
  facet normal -1.0 0.0 0.0
    outer loop
      vertex 0.0 3.155765161290323 0.0
      vertex 0.0 3.155765161290323 5.322578870967743
      vertex 0.0 8.47833870967742 5.322578870967743
    endloop
  endfacet
  facet normal 0.0 0.0 1.0
    outer loop
      vertex 0.0 8.47833870967742 5.322578870967743
      vertex 0.0 3.155765161290323 5.322578870967743
      vertex 0.2661290322580645 3.155765161290323 5.322578870967743
    endloop
  endfacet
  facet normal 0.0 0.0 1.0
    outer loop
      vertex 0.2661290322580645 8.47833870967742 5.322578870967743
      vertex 0.0 8.47833870967742 5.322578870967743
      vertex 0.2661290322580645 3.155765161290323 5.322578870967743
    endloop
  endfacet
  facet normal 1.0 0.0 0.0
    outer loop
      vertex 0.2661290322580645 8.47833870967742 5.322578870967743
      vertex 0.2661290322580645 3.155765161290323 5.322578870967743
      vertex 0.2661290322580645 3.155765161290323 0.0
    endloop
  endfacet
  facet normal 0.0 0.7071071347401444 -0.7071064276327738
    outer loop
      vertex 0.0 8.47833870967742 5.322578870967743
      vertex 0.2661290322580645 8.47833870967742 5.322578870967743
      vertex 0.0 3.155765161290323 0.0
    endloop
  endfacet
  facet normal 0.0 0.7071071347401444 -0.7071064276327738
    outer loop
      vertex 0.0 3.155765161290323 0.0
      vertex 0.2661290322580645 8.47833870967742 5.322578870967743
      vertex 0.2661290322580645 3.155765161290323 0.0
    endloop
  endfacet
  facet normal -0.0 -1.0 0.0
    outer loop
      vertex 0.2661290322580645 7.413822580645162 3.903225806451613
      vertex 0.0 7.413822580645162 3.903225806451613
      vertex 0.0 7.413822580645162 2.8387096774193554
    endloop
  endfacet
  facet normal 0.0 -1.0 0.0
    outer loop
      vertex 0.2661290322580645 7.413822580645162 2.8387096774193554
      vertex 0.2661290322580645 7.413822580645162 3.903225806451613
      vertex 0.0 7.413822580645162 2.8387096774193554
    endloop
  endfacet
  facet normal -1.0 0.0 0.0
    outer loop
      vertex 0.0 7.413822580645162 2.8387096774193554
      vertex 0.0 7.413822580645162 3.903225806451613
      vertex 0.0 8.47833870967742 3.903225806451613
    endloop
  endfacet
  facet normal 0.0 0.0 1.0
    outer loop
      vertex 0.0 8.47833870967742 3.903225806451613
      vertex 0.0 7.413822580645162 3.903225806451613
      vertex 0.2661290322580645 7.413822580645162 3.903225806451613
    endloop
  endfacet
  facet normal 0.0 0.0 1.0
    outer loop
      vertex 0.2661290322580645 8.47833870967742 3.903225806451613
      vertex 0.0 8.47833870967742 3.903225806451613
      vertex 0.2661290322580645 7.413822580645162 3.903225806451613
    endloop
  endfacet
  facet normal 1.0 0.0 0.0
    outer loop
      vertex 0.2661290322580645 8.47833870967742 3.903225806451613
      vertex 0.2661290322580645 7.413822580645162 3.903225806451613
      vertex 0.2661290322580645 7.413822580645162 2.8387096774193554
    endloop
  endfacet
  facet normal 0.0 0.7071067811865474 -0.7071067811865477
    outer loop
      vertex 0.0 8.47833870967742 3.903225806451613
      vertex 0.2661290322580645 8.47833870967742 3.903225806451613
      vertex 0.0 7.413822580645162 2.8387096774193554
    endloop
  endfacet
  facet normal 0.0 0.7071067811865474 -0.7071067811865477
    outer loop
      vertex 0.0 7.413822580645162 2.8387096774193554
      vertex 0.2661290322580645 8.47833870967742 3.903225806451613
      vertex 0.2661290322580645 7.413822580645162 2.8387096774193554
    endloop
  endfacet
  facet normal -0.0 -1.0 0.0
    outer loop
      vertex 0.2661290322580645 5.994474838709677 2.4838709677419364
      vertex 0.0 5.994474838709677 2.4838709677419364
      vertex 0.0 5.994474838709677 0.0
    endloop
  endfacet
  facet normal 0.0 -1.0 0.0
    outer loop
      vertex 0.2661290322580645 5.994474838709677 0.0
      vertex 0.2661290322580645 5.994474838709677 2.4838709677419364
      vertex 0.0 5.994474838709677 0.0
    endloop
  endfacet
  facet normal -1.0 0.0 0.0
    outer loop
      vertex 0.0 5.994474838709677 0.0
      vertex 0.0 5.994474838709677 2.4838709677419364
      vertex 0.0 8.47833870967742 2.4838709677419364
    endloop
  endfacet
  facet normal 0.0 0.0 1.0
    outer loop
      vertex 0.0 8.47833870967742 2.4838709677419364
      vertex 0.0 5.994474838709677 2.4838709677419364
      vertex 0.2661290322580645 5.994474838709677 2.4838709677419364
    endloop
  endfacet
  facet normal 0.0 0.0 1.0
    outer loop
      vertex 0.2661290322580645 8.47833870967742 2.4838709677419364
      vertex 0.0 8.47833870967742 2.4838709677419364
      vertex 0.2661290322580645 5.994474838709677 2.4838709677419364
    endloop
  endfacet
  facet normal 1.0 0.0 0.0
    outer loop
      vertex 0.2661290322580645 8.47833870967742 2.4838709677419364
      vertex 0.2661290322580645 5.994474838709677 2.4838709677419364
      vertex 0.2661290322580645 5.994474838709677 0.0
    endloop
  endfacet
  facet normal 0.0 0.7071077913398136 -0.7071057710318384
    outer loop
      vertex 0.0 8.47833870967742 2.4838709677419364
      vertex 0.2661290322580645 8.47833870967742 2.4838709677419364
      vertex 0.0 5.994474838709677 0.0
    endloop
  endfacet
  facet normal 0.0 0.7071077913398136 -0.7071057710318384
    outer loop
      vertex 0.0 5.994474838709677 0.0
      vertex 0.2661290322580645 8.47833870967742 2.4838709677419364
      vertex 0.2661290322580645 5.994474838709677 0.0
    endloop
  endfacet
  facet normal 0.0 -0.7682212795973759 0.64018439966448
    outer loop
      vertex 0.2661290322580645 1.3815645161290322 5.145159516129033
      vertex 0.0 1.3815645161290322 5.145159516129033
      vertex 0.0 0.4944677419354837 4.080643387096775
    endloop
  endfacet
  facet normal 0.0 -0.7682212795973759 0.64018439966448
    outer loop
      vertex 0.2661290322580645 0.4944677419354837 4.080643387096775
      vertex 0.2661290322580645 1.3815645161290322 5.145159516129033
      vertex 0.0 0.4944677419354837 4.080643387096775
    endloop
  endfacet
  facet normal -1.0 0.0 0.0
    outer loop
      vertex 0.0 0.4944677419354837 4.080643387096775
      vertex 0.0 1.3815645161290322 5.145159516129033
      vertex 0.0 1.3815645161290322 4.080643387096775
    endloop
  endfacet
  facet normal -0.0 1.0 0.0
    outer loop
      vertex 0.0 1.3815645161290322 5.145159516129033
      vertex 0.2661290322580645 1.3815645161290322 5.145159516129033
      vertex 0.0 1.3815645161290322 4.080643387096775
    endloop
  endfacet
  facet normal 0.0 1.0 0.0
    outer loop
      vertex 0.0 1.3815645161290322 4.080643387096775
      vertex 0.2661290322580645 1.3815645161290322 5.145159516129033
      vertex 0.2661290322580645 1.3815645161290322 4.080643387096775
    endloop
  endfacet
  facet normal 1.0 0.0 -0.0
    outer loop
      vertex 0.2661290322580645 1.3815645161290322 4.080643387096775
      vertex 0.2661290322580645 1.3815645161290322 5.145159516129033
      vertex 0.2661290322580645 0.4944677419354837 4.080643387096775
    endloop
  endfacet
  facet normal 0.0 0.0 -1.0
    outer loop
      vertex 0.0 0.4944677419354837 4.080643387096775
      vertex 0.0 1.3815645161290322 4.080643387096775
      vertex 0.2661290322580645 0.4944677419354837 4.080643387096775
    endloop
  endfacet
  facet normal 0.0 0.0 -1.0
    outer loop
      vertex 0.2661290322580645 0.4944677419354837 4.080643387096775
      vertex 0.0 1.3815645161290322 4.080643387096775
      vertex 0.2661290322580645 1.3815645161290322 4.080643387096775
    endloop
  endfacet
  facet normal 0.0 0.0 1.0
    outer loop
      vertex 0.0 2.6235000000000004 3.903225806451613
      vertex 0.0 1.558983870967742 3.903225806451613
      vertex 0.2661290322580645 1.558983870967742 3.903225806451613
    endloop
  endfacet
  facet normal 0.0 0.0 1.0
    outer loop
      vertex 0.2661290322580645 2.6235000000000004 3.903225806451613
      vertex 0.0 2.6235000000000004 3.903225806451613
      vertex 0.2661290322580645 1.558983870967742 3.903225806451613
    endloop
  endfacet
  facet normal -0.0 -1.0 0.0
    outer loop
      vertex 0.2661290322580645 1.558983870967742 3.903225806451613
      vertex 0.0 1.558983870967742 3.903225806451613
      vertex 0.0 1.558983870967742 2.8387096774193554
    endloop
  endfacet
  facet normal 0.0 -1.0 0.0
    outer loop
      vertex 0.2661290322580645 1.558983870967742 2.8387096774193554
      vertex 0.2661290322580645 1.558983870967742 3.903225806451613
      vertex 0.0 1.558983870967742 2.8387096774193554
    endloop
  endfacet
  facet normal -1.0 0.0 0.0
    outer loop
      vertex 0.0 1.558983870967742 2.8387096774193554
      vertex 0.0 1.558983870967742 3.903225806451613
      vertex 0.0 2.6235000000000004 3.903225806451613
    endloop
  endfacet
  facet normal 0.0 0.7071067811865472 -0.7071067811865478
    outer loop
      vertex 0.0 2.6235000000000004 3.903225806451613
      vertex 0.2661290322580645 2.6235000000000004 3.903225806451613
      vertex 0.0 1.558983870967742 2.8387096774193554
    endloop
  endfacet
  facet normal 0.0 0.7071067811865472 -0.7071067811865478
    outer loop
      vertex 0.0 1.558983870967742 2.8387096774193554
      vertex 0.2661290322580645 2.6235000000000004 3.903225806451613
      vertex 0.2661290322580645 1.558983870967742 2.8387096774193554
    endloop
  endfacet
  facet normal 1.0 0.0 0.0
    outer loop
      vertex 0.2661290322580645 2.6235000000000004 3.903225806451613
      vertex 0.2661290322580645 1.558983870967742 3.903225806451613
      vertex 0.2661290322580645 1.558983870967742 2.8387096774193554
    endloop
  endfacet
  facet normal -0.0 -1.0 0.0
    outer loop
      vertex 0.2661290322580645 0.13962903225806436 2.4838709677419364
      vertex 0.0 0.13962903225806436 2.4838709677419364
      vertex 0.0 0.13962903225806436 0.0
    endloop
  endfacet
  facet normal 0.0 -1.0 0.0
    outer loop
      vertex 0.2661290322580645 0.13962903225806436 0.0
      vertex 0.2661290322580645 0.13962903225806436 2.4838709677419364
      vertex 0.0 0.13962903225806436 0.0
    endloop
  endfacet
  facet normal -1.0 0.0 0.0
    outer loop
      vertex 0.0 0.13962903225806436 0.0
      vertex 0.0 0.13962903225806436 2.4838709677419364
      vertex 0.0 2.6235000000000004 2.4838709677419364
    endloop
  endfacet
  facet normal 0.0 0.0 1.0
    outer loop
      vertex 0.0 2.6235000000000004 2.4838709677419364
      vertex 0.0 0.13962903225806436 2.4838709677419364
      vertex 0.2661290322580645 0.13962903225806436 2.4838709677419364
    endloop
  endfacet
  facet normal 0.0 0.0 1.0
    outer loop
      vertex 0.2661290322580645 2.6235000000000004 2.4838709677419364
      vertex 0.0 2.6235000000000004 2.4838709677419364
      vertex 0.2661290322580645 0.13962903225806436 2.4838709677419364
    endloop
  endfacet
  facet normal 1.0 0.0 0.0
    outer loop
      vertex 0.2661290322580645 2.6235000000000004 2.4838709677419364
      vertex 0.2661290322580645 0.13962903225806436 2.4838709677419364
      vertex 0.2661290322580645 0.13962903225806436 0.0
    endloop
  endfacet
  facet normal 0.0 0.7071067811865476 -0.7071067811865475
    outer loop
      vertex 0.0 2.6235000000000004 2.4838709677419364
      vertex 0.2661290322580645 2.6235000000000004 2.4838709677419364
      vertex 0.0 0.13962903225806436 0.0
    endloop
  endfacet
  facet normal 0.0 0.7071067811865476 -0.7071067811865475
    outer loop
      vertex 0.0 0.13962903225806436 0.0
      vertex 0.2661290322580645 2.6235000000000004 2.4838709677419364
      vertex 0.2661290322580645 0.13962903225806436 0.0
    endloop
  endfacet
endsolid thingi10k_65585
