solid thingi10k_65609
  facet normal 0.0 -0.0 1.0
    outer loop
      vertex 1.8830386844452707 5.031173092338473 0.1267051808144724
      vertex 1.8830386844452707 5.968826907661527 0.1267051808144724
      vertex 0.3250488823443418 4.821179400829159 0.1267051808144724
    endloop
  endfacet
  facet normal 0.0 0.0 1.0
    outer loop
      vertex 0.3250488823443418 4.821179400829159 0.1267051808144724
      vertex 1.8830386844452707 5.968826907661527 0.1267051808144724
      vertex 0.3250488823443418 6.17882059917084 0.1267051808144724
    endloop
  endfacet
  facet normal 0.0 -0.0 1.0
    outer loop
      vertex 0.3250488823443418 4.821179400829159 0.1267051808144724
      vertex 0.3250488823443418 6.17882059917084 0.1267051808144724
      vertex 0.0 4.821179400829159 0.1267051808144724
    endloop
  endfacet
  facet normal 0.0 0.0 1.0
    outer loop
      vertex 0.0 4.821179400829159 0.1267051808144724
      vertex 0.3250488823443418 6.17882059917084 0.1267051808144724
      vertex 0.0 6.17882059917084 0.1267051808144724
    endloop
  endfacet
  facet normal 1.0 0.0 0.0
    outer loop
      vertex 3.0537445002831283 5.7541302993991135 0.27875140383361313
      vertex 3.0537445002831283 5.245869700600886 0.27875140383361313
      vertex 3.0537445002831283 5.7541302993991135 0.0
    endloop
  endfacet
  facet normal 1.0 0.0 0.0
    outer loop
      vertex 3.0537445002831283 5.7541302993991135 0.0
      vertex 3.0537445002831283 5.245869700600886 0.27875140383361313
      vertex 3.0537445002831283 5.245869700600886 0.0
    endloop
  endfacet
  facet normal -0.09214817178636606 -0.9957453060077313 -0.0
    outer loop
      vertex 3.0537445002831283 5.7541302993991135 0.27875140383361313
      vertex 3.0537445002831283 5.7541302993991135 0.0
      vertex 3.3347184008307855 5.728128438181251 0.0
    endloop
  endfacet
  facet normal -0.09214817178636606 -0.9957453060077313 0.0
    outer loop
      vertex 3.0537445002831283 5.7541302993991135 0.27875140383361313
      vertex 3.3347184008307855 5.728128438181251 0.0
      vertex 3.3347184008307855 5.728128438181251 0.27875140383361313
    endloop
  endfacet
  facet normal 0.014415953501657914 -0.9998960847431286 0.0
    outer loop
      vertex 3.3347184008307855 5.728128438181251 0.27875140383361313
      vertex 3.3347184008307855 5.728128438181251 0.0
      vertex 3.6168629554766962 5.732196243668825 0.0
    endloop
  endfacet
  facet normal 0.014415953501657914 -0.9998960847431286 0.0
    outer loop
      vertex 3.3347184008307855 5.728128438181251 0.27875140383361313
      vertex 3.6168629554766962 5.732196243668825 0.0
      vertex 3.6168629554766962 5.732196243668825 0.27875140383361313
    endloop
  endfacet
  facet normal 0.12081568953091737 -0.9926749564500803 0.0
    outer loop
      vertex 3.6168629554766962 5.732196243668825 0.27875140383361313
      vertex 3.6168629554766962 5.732196243668825 0.0
      vertex 3.896970223985473 5.766287315038783 0.0
    endloop
  endfacet
  facet normal 0.12081568953091737 -0.9926749564500803 0.0
    outer loop
      vertex 3.6168629554766962 5.732196243668825 0.27875140383361313
      vertex 3.896970223985473 5.766287315038783 0.0
      vertex 3.896970223985473 5.766287315038783 0.27875140383361313
    endloop
  endfacet
  facet normal 0.35380839915646134 -0.9353179227868682 0.0
    outer loop
      vertex 3.896970223985473 5.766287315038783 0.27875140383361313
      vertex 3.896970223985473 5.766287315038783 0.0
      vertex 4.1267031156263245 5.853189773170718 0.0
    endloop
  endfacet
  facet normal 0.35380839915646134 -0.9353179227868682 0.0
    outer loop
      vertex 3.896970223985473 5.766287315038783 0.27875140383361313
      vertex 4.1267031156263245 5.853189773170718 0.0
      vertex 4.1267031156263245 5.853189773170718 0.27875140383361313
    endloop
  endfacet
  facet normal 0.49498925315655073 -0.8688990961322955 0.0
    outer loop
      vertex 4.1267031156263245 5.853189773170718 0.27875140383361313
      vertex 4.1267031156263245 5.853189773170718 0.0
      vertex 4.340122251229083 5.974769113063646 0.0
    endloop
  endfacet
  facet normal 0.49498925315655073 -0.8688990961322955 0.0
    outer loop
      vertex 4.1267031156263245 5.853189773170718 0.27875140383361313
      vertex 4.340122251229083 5.974769113063646 0.0
      vertex 4.340122251229083 5.974769113063646 0.27875140383361313
    endloop
  endfacet
  facet normal 0.6241196434630515 -0.7813287852393213 0.0
    outer loop
      vertex 4.340122251229083 5.974769113063646 0.27875140383361313
      vertex 4.340122251229083 5.974769113063646 0.0
      vertex 4.532032188637625 6.128065348880362 0.0
    endloop
  endfacet
  facet normal 0.6241196434630515 -0.7813287852393213 0.0
    outer loop
      vertex 4.340122251229083 5.974769113063646 0.27875140383361313
      vertex 4.532032188637625 6.128065348880362 0.0
      vertex 4.532032188637625 6.128065348880362 0.27875140383361313
    endloop
  endfacet
  facet normal 0.7380600866553044 -0.6747349913012993 0.0
    outer loop
      vertex 4.532032188637625 6.128065348880362 0.27875140383361313
      vertex 4.532032188637625 6.128065348880362 0.0
      vertex 4.697760944980883 6.309348047784235 0.0
    endloop
  endfacet
  facet normal 0.7380600866553044 -0.6747349913012993 0.0
    outer loop
      vertex 4.532032188637625 6.128065348880362 0.27875140383361313
      vertex 4.697760944980883 6.309348047784235 0.0
      vertex 4.697760944980883 6.309348047784235 0.27875140383361313
    endloop
  endfacet
  facet normal 0.8340306674417329 -0.5517180854083882 0.0
    outer loop
      vertex 4.697760944980883 6.309348047784235 0.27875140383361313
      vertex 4.697760944980883 6.309348047784235 0.0
      vertex 4.833274065362853 6.51420284814052 0.0
    endloop
  endfacet
  facet normal 0.8340306674417329 -0.5517180854083882 0.0
    outer loop
      vertex 4.697760944980883 6.309348047784235 0.27875140383361313
      vertex 4.833274065362853 6.51420284814052 0.0
      vertex 4.833274065362853 6.51420284814052 0.27875140383361313
    endloop
  endfacet
  facet normal 0.9096971671635188 -0.41527227701192515 0.0
    outer loop
      vertex 4.833274065362853 6.51420284814052 0.27875140383361313
      vertex 4.833274065362853 6.51420284814052 0.0
      vertex 4.935273224611576 6.73764262815492 0.0
    endloop
  endfacet
  facet normal 0.9096971671635188 -0.41527227701192515 0.0
    outer loop
      vertex 4.833274065362853 6.51420284814052 0.27875140383361313
      vertex 4.935273224611576 6.73764262815492 0.0
      vertex 4.935273224611576 6.73764262815492 0.27875140383361313
    endloop
  endfacet
  facet normal 0.9632212976000972 -0.2687093817669654 0.0
    outer loop
      vertex 4.935273224611576 6.73764262815492 0.27875140383361313
      vertex 4.935273224611576 6.73764262815492 0.0
      vertex 5.0012735619842275 6.974228824692197 0.0
    endloop
  endfacet
  facet normal 0.9632212976000972 -0.2687093817669654 0.0
    outer loop
      vertex 4.935273224611576 6.73764262815492 0.27875140383361313
      vertex 5.0012735619842275 6.974228824692197 0.0
      vertex 5.0012735619842275 6.974228824692197 0.27875140383361313
    endloop
  endfacet
  facet normal 0.9932941638731957 -0.11561446282991156 0.0
    outer loop
      vertex 5.0012735619842275 6.974228824692197 0.27875140383361313
      vertex 5.0012735619842275 6.974228824692197 0.0
      vertex 5.029670865692158 7.218202418932906 0.0
    endloop
  endfacet
  facet normal 0.9932941638731957 -0.11561446282991156 0.0
    outer loop
      vertex 5.0012735619842275 6.974228824692197 0.27875140383361313
      vertex 5.029670865692158 7.218202418932906 0.0
      vertex 5.029670865692158 7.218202418932906 0.27875140383361313
    endloop
  endfacet
  facet normal 0.9991876411560272 0.04029960001109631 0.0
    outer loop
      vertex 5.029670865692158 7.218202418932906 0.27875140383361313
      vertex 5.029670865692158 7.218202418932906 0.0
      vertex 5.019772506782934 7.4636221721587415 0.0
    endloop
  endfacet
  facet normal 0.9991876411560272 0.04029960001109631 0.0
    outer loop
      vertex 5.029670865692158 7.218202418932906 0.27875140383361313
      vertex 5.019772506782934 7.4636221721587415 0.0
      vertex 5.019772506782934 7.4636221721587415 0.27875140383361313
    endloop
  endfacet
  facet normal 0.9999991850093471 -0.0012767069521082688 0.0
    outer loop
      vertex 5.019772506782934 7.4636221721587415 0.27875140383361313
      vertex 5.019772506782934 7.4636221721587415 0.0
      vertex 5.02024038174871 7.830092005889565 0.0
    endloop
  endfacet
  facet normal 0.9999991850093471 -0.0012767069521082688 0.0
    outer loop
      vertex 5.019772506782934 7.4636221721587415 0.27875140383361313
      vertex 5.02024038174871 7.830092005889565 0.0
      vertex 5.02024038174871 7.830092005889565 0.27875140383361313
    endloop
  endfacet
  facet normal 0.9941987139837462 0.10755890066872875 0.0
    outer loop
      vertex 5.02024038174871 7.830092005889565 0.27875140383361313
      vertex 5.02024038174871 7.830092005889565 0.0
      vertex 4.980823365907795 8.194435135230497 0.0
    endloop
  endfacet
  facet normal 0.9941987139837462 0.10755890066872875 0.0
    outer loop
      vertex 5.02024038174871 7.830092005889565 0.27875140383361313
      vertex 4.980823365907795 8.194435135230497 0.0
      vertex 4.980823365907795 8.194435135230497 0.27875140383361313
    endloop
  endfacet
  facet normal 0.9765885270651855 0.21511589621562502 0.0
    outer loop
      vertex 4.980823365907795 8.194435135230497 0.27875140383361313
      vertex 4.980823365907795 8.194435135230497 0.0
      vertex 4.90198981756787 8.552325650115735 0.0
    endloop
  endfacet
  facet normal 0.9765885270651855 0.21511589621562502 0.0
    outer loop
      vertex 4.980823365907795 8.194435135230497 0.27875140383361313
      vertex 4.90198981756787 8.552325650115735 0.0
      vertex 4.90198981756787 8.552325650115735 0.27875140383361313
    endloop
  endfacet
  facet normal 0.9473772283992231 0.3201193326098972 0.0
    outer loop
      vertex 4.90198981756787 8.552325650115735 0.27875140383361313
      vertex 4.90198981756787 8.552325650115735 0.0
      vertex 4.784675970002395 8.899510141765498 0.0
    endloop
  endfacet
  facet normal 0.9473772283992231 0.3201193326098972 0.0
    outer loop
      vertex 4.90198981756787 8.552325650115735 0.27875140383361313
      vertex 4.784675970002395 8.899510141765498 0.0
      vertex 4.784675970002395 8.899510141765498 0.27875140383361313
    endloop
  endfacet
  facet normal 0.9069137696993778 0.4213162877573855 0.0
    outer loop
      vertex 4.784675970002395 8.899510141765498 0.27875140383361313
      vertex 4.784675970002395 8.899510141765498 0.0
      vertex 4.630276264612469 9.23186667039865 0.0
    endloop
  endfacet
  facet normal 0.9069137696993778 0.4213162877573855 0.0
    outer loop
      vertex 4.784675970002395 8.899510141765498 0.27875140383361313
      vertex 4.630276264612469 9.23186667039865 0.0
      vertex 4.630276264612469 9.23186667039865 0.27875140383361313
    endloop
  endfacet
  facet normal 0.880628110940941 0.4738081154017837 0.0
    outer loop
      vertex 4.059957465033398 10.291871239297876 0.27875140383361313
      vertex 4.630276264612469 9.23186667039865 0.27875140383361313
      vertex 4.059957465033398 10.291871239297876 0.0
    endloop
  endfacet
  facet normal 0.880628110940941 0.4738081154017837 0.0
    outer loop
      vertex 4.059957465033398 10.291871239297876 0.0
      vertex 4.630276264612469 9.23186667039865 0.27875140383361313
      vertex 4.630276264612469 9.23186667039865 0.0
    endloop
  endfacet
  facet normal 0.8673071017948295 0.49777343357822257 0.0
    outer loop
      vertex 4.059957465033398 10.291871239297876 0.27875140383361313
      vertex 4.059957465033398 10.291871239297876 0.0
      vertex 3.954455043644236 10.475695833289576 0.0
    endloop
  endfacet
  facet normal 0.8673071017948295 0.49777343357822257 0.0
    outer loop
      vertex 4.059957465033398 10.291871239297876 0.27875140383361313
      vertex 3.954455043644236 10.475695833289576 0.0
      vertex 3.954455043644236 10.475695833289576 0.27875140383361313
    endloop
  endfacet
  facet normal 0.7695259030140508 0.6386156000211786 0.0
    outer loop
      vertex 3.954455043644236 10.475695833289576 0.27875140383361313
      vertex 3.954455043644236 10.475695833289576 0.0
      vertex 3.8191014260915077 10.638795693001784 0.0
    endloop
  endfacet
  facet normal 0.7695259030140508 0.6386156000211786 0.0
    outer loop
      vertex 3.954455043644236 10.475695833289576 0.27875140383361313
      vertex 3.8191014260915077 10.638795693001784 0.0
      vertex 3.8191014260915077 10.638795693001784 0.27875140383361313
    endloop
  endfacet
  facet normal 0.6491239859994758 0.7606826215973074 0.0
    outer loop
      vertex 3.8191014260915077 10.638795693001784 0.27875140383361313
      vertex 3.8191014260915077 10.638795693001784 0.0
      vertex 3.657876449635751 10.77637606671911 0.0
    endloop
  endfacet
  facet normal 0.6491239859994758 0.7606826215973074 0.0
    outer loop
      vertex 3.8191014260915077 10.638795693001784 0.27875140383361313
      vertex 3.657876449635751 10.77637606671911 0.0
      vertex 3.657876449635751 10.77637606671911 0.27875140383361313
    endloop
  endfacet
  facet normal 0.509638854215316 0.860388422907991 0.0
    outer loop
      vertex 3.657876449635751 10.77637606671911 0.27875140383361313
      vertex 3.657876449635751 10.77637606671911 0.0
      vertex 3.475518314989263 10.88439331604932 0.0
    endloop
  endfacet
  facet normal 0.509638854215316 0.860388422907991 0.0
    outer loop
      vertex 3.657876449635751 10.77637606671911 0.27875140383361313
      vertex 3.475518314989263 10.88439331604932 0.0
      vertex 3.475518314989263 10.88439331604932 0.27875140383361313
    endloop
  endfacet
  facet normal 0.3551777465597498 0.9347987849525363 0.0
    outer loop
      vertex 3.475518314989263 10.88439331604932 0.27875140383361313
      vertex 3.475518314989263 10.88439331604932 0.0
      vertex 3.277388733924103 10.959672851348591 0.0
    endloop
  endfacet
  facet normal 0.3551777465597498 0.9347987849525363 0.0
    outer loop
      vertex 3.475518314989263 10.88439331604932 0.27875140383361313
      vertex 3.277388733924103 10.959672851348591 0.0
      vertex 3.277388733924103 10.959672851348591 0.27875140383361313
    endloop
  endfacet
  facet normal 0.19026894182494478 0.9817320050690085 0.0
    outer loop
      vertex 3.277388733924103 10.959672851348591 0.27875140383361313
      vertex 3.277388733924103 10.959672851348591 0.0
      vertex 3.0693124597590398 11.0 0.0
    endloop
  endfacet
  facet normal 0.19026894182494478 0.9817320050690085 0.0
    outer loop
      vertex 3.277388733924103 10.959672851348591 0.27875140383361313
      vertex 3.0693124597590398 11.0 0.0
      vertex 3.0693124597590398 11.0 0.27875140383361313
    endloop
  endfacet
  facet normal -0.0 1.0 0.0
    outer loop
      vertex 3.0530813551870075 11.0 0.27875140383361313
      vertex 3.0693124597590398 11.0 0.27875140383361313
      vertex 3.0530813551870075 11.0 0.0
    endloop
  endfacet
  facet normal 0.0 1.0 0.0
    outer loop
      vertex 3.0530813551870075 11.0 0.0
      vertex 3.0693124597590398 11.0 0.27875140383361313
      vertex 3.0693124597590398 11.0 0.0
    endloop
  endfacet
  facet normal -0.05362898421653396 0.9985609305655327 0.0
    outer loop
      vertex 3.0530813551870075 11.0 0.27875140383361313
      vertex 3.0530813551870075 11.0 0.0
      vertex 2.884354428995909 10.990938305931435 0.0
    endloop
  endfacet
  facet normal -0.05362898421653396 0.9985609305655327 0.0
    outer loop
      vertex 3.0530813551870075 11.0 0.27875140383361313
      vertex 2.884354428995909 10.990938305931435 0.0
      vertex 2.884354428995909 10.990938305931435 0.27875140383361313
    endloop
  endfacet
  facet normal -0.206403166593635 0.9784670320558174 0.0
    outer loop
      vertex 2.884354428995909 10.990938305931435 0.27875140383361313
      vertex 2.884354428995909 10.990938305931435 0.0
      vertex 2.719022496358128 10.956062287304844 0.0
    endloop
  endfacet
  facet normal -0.206403166593635 0.9784670320558174 0.0
    outer loop
      vertex 2.884354428995909 10.990938305931435 0.27875140383361313
      vertex 2.719022496358128 10.956062287304844 0.0
      vertex 2.719022496358128 10.956062287304844 0.27875140383361313
    endloop
  endfacet
  facet normal -0.3542744406453668 0.9351414976918799 0.0
    outer loop
      vertex 2.719022496358128 10.956062287304844 0.27875140383361313
      vertex 2.719022496358128 10.956062287304844 0.0
      vertex 2.5610112602406416 10.89620039214847 0.0
    endloop
  endfacet
  facet normal -0.3542744406453668 0.9351414976918799 0.0
    outer loop
      vertex 2.719022496358128 10.956062287304844 0.27875140383361313
      vertex 2.5610112602406416 10.89620039214847 0.0
      vertex 2.5610112602406416 10.89620039214847 0.27875140383361313
    endloop
  endfacet
  facet normal -0.49372988973751175 0.8696153149409138 0.0
    outer loop
      vertex 2.5610112602406416 10.89620039214847 0.27875140383361313
      vertex 2.5610112602406416 10.89620039214847 0.0
      vertex 2.4140719371820736 10.8127746123521 0.0
    endloop
  endfacet
  facet normal -0.49372988973751175 0.8696153149409138 0.0
    outer loop
      vertex 2.5610112602406416 10.89620039214847 0.27875140383361313
      vertex 2.4140719371820736 10.8127746123521 0.0
      vertex 2.4140719371820736 10.8127746123521 0.27875140383361313
    endloop
  endfacet
  facet normal -0.6214643120087663 0.7834424732547188 0.0
    outer loop
      vertex 2.4140719371820736 10.8127746123521 0.27875140383361313
      vertex 2.4140719371820736 10.8127746123521 0.0
      vertex 2.2816935307366126 10.707765683049773 0.0
    endloop
  endfacet
  facet normal -0.6214643120087663 0.7834424732547188 0.0
    outer loop
      vertex 2.4140719371820736 10.8127746123521 0.27875140383361313
      vertex 2.2816935307366126 10.707765683049773 0.0
      vertex 2.2816935307366126 10.707765683049773 0.27875140383361313
    endloop
  endfacet
  facet normal -0.7344471962217122 0.6786658352695132 0.0
    outer loop
      vertex 2.2816935307366126 10.707765683049773 0.27875140383361313
      vertex 2.2816935307366126 10.707765683049773 0.0
      vertex 2.1670189716531834 10.583665715112918 0.0
    endloop
  endfacet
  facet normal -0.7344471962217122 0.6786658352695132 0.0
    outer loop
      vertex 2.2816935307366126 10.707765683049773 0.27875140383361313
      vertex 2.1670189716531834 10.583665715112918 0.0
      vertex 2.1670189716531834 10.583665715112918 0.27875140383361313
    endloop
  endfacet
  facet normal -0.829990297474145 0.5577778286188688 0.0
    outer loop
      vertex 2.1670189716531834 10.583665715112918 0.27875140383361313
      vertex 2.1670189716531834 10.583665715112918 0.0
      vertex 2.072771166563707 10.44342212748916 0.0
    endloop
  endfacet
  facet normal -0.829990297474145 0.5577778286188688 0.0
    outer loop
      vertex 2.1670189716531834 10.583665715112918 0.27875140383361313
      vertex 2.072771166563707 10.44342212748916 0.0
      vertex 2.072771166563707 10.44342212748916 0.27875140383361313
    endloop
  endfacet
  facet normal -0.9058276206722006 0.4236464582967026 0.0
    outer loop
      vertex 2.072771166563707 10.44342212748916 0.27875140383361313
      vertex 2.072771166563707 10.44342212748916 0.0
      vertex 2.0011875051547316 10.290364179232494 0.0
    endloop
  endfacet
  facet normal -0.9058276206722006 0.4236464582967026 0.0
    outer loop
      vertex 2.072771166563707 10.44342212748916 0.27875140383361313
      vertex 2.0011875051547316 10.290364179232494 0.0
      vertex 2.0011875051547316 10.290364179232494 0.27875140383361313
    endloop
  endfacet
  facet normal -0.9496956801159274 0.3131742568748999 0.0
    outer loop
      vertex 0.7456648515127524 6.483012794895136 0.27875140383361313
      vertex 2.0011875051547316 10.290364179232494 0.27875140383361313
      vertex 0.7456648515127524 6.483012794895136 0.0
    endloop
  endfacet
  facet normal -0.9496956801159274 0.3131742568748999 0.0
    outer loop
      vertex 0.7456648515127524 6.483012794895136 0.0
      vertex 2.0011875051547316 10.290364179232494 0.27875140383361313
      vertex 2.0011875051547316 10.290364179232494 0.0
    endloop
  endfacet
  facet normal -0.922303457647158 0.3864664694538153 0.0
    outer loop
      vertex 0.7456648515127524 6.483012794895136 0.27875140383361313
      vertex 0.7456648515127524 6.483012794895136 0.0
      vertex 0.7188993100821562 6.4191367452028425 0.0
    endloop
  endfacet
  facet normal -0.07818539706338502 0.9969388364819783 0.0
    outer loop
      vertex 0.39409379038788495 6.184235478552647 0.0
      vertex 0.3250488823443418 6.17882059917084 0.0
      vertex 0.3250488823443418 6.17882059917084 0.1267051808144724
    endloop
  endfacet
  facet normal -0.922303457647158 0.3864664694538153 0.0
    outer loop
      vertex 0.7456648515127524 6.483012794895136 0.27875140383361313
      vertex 0.7188993100821562 6.4191367452028425 0.0
      vertex 0.7188993100821562 6.4191367452028425 0.27875140383361313
    endloop
  endfacet
  facet normal -0.850778128322822 0.5255250482779255 0.0
    outer loop
      vertex 0.7188993100821562 6.4191367452028425 0.27875140383361313
      vertex 0.7188993100821562 6.4191367452028425 0.0
      vertex 0.6825030603232229 6.360214466713275 0.0
    endloop
  endfacet
  facet normal -0.850778128322822 0.5255250482779255 0.0
    outer loop
      vertex 0.7188993100821562 6.4191367452028425 0.27875140383361313
      vertex 0.6825030603232229 6.360214466713275 0.0
      vertex 0.6825030603232229 6.360214466713275 0.27875140383361313
    endloop
  endfacet
  facet normal -0.7584506919568277 0.6517304257668269 0.0
    outer loop
      vertex 0.6825030603232229 6.360214466713275 0.27875140383361313
      vertex 0.6825030603232229 6.360214466713275 0.0
      vertex 0.6373660555218363 6.307686318308679 0.0
    endloop
  endfacet
  facet normal -0.7584506919568277 0.6517304257668269 0.0
    outer loop
      vertex 0.6825030603232229 6.360214466713275 0.27875140383361313
      vertex 0.6373660555218363 6.307686318308679 0.0
      vertex 0.6373660555218363 6.307686318308679 0.27875140383361313
    endloop
  endfacet
  facet normal -0.6475727521781134 0.7620036290179094 0.0
    outer loop
      vertex 0.6373660555218363 6.307686318308679 0.27875140383361313
      vertex 0.6373660555218363 6.307686318308679 0.0
      vertex 0.5845921277576358 6.262837506119218 0.0
    endloop
  endfacet
  facet normal -0.6475727521781134 0.7620036290179094 0.0
    outer loop
      vertex 0.6373660555218363 6.307686318308679 0.27875140383361313
      vertex 0.5845921277576358 6.262837506119218 0.0
      vertex 0.5845921277576358 6.262837506119218 0.27875140383361313
    endloop
  endfacet
  facet normal -0.5208672315065972 0.8536377025077165 0.0
    outer loop
      vertex 0.5845921277576358 6.262837506119218 0.27875140383361313
      vertex 0.5845921277576358 6.262837506119218 0.0
      vertex 0.5254716790862833 6.2267637662475925 0.0
    endloop
  endfacet
  facet normal -0.5208672315065972 0.8536377025077165 0.0
    outer loop
      vertex 0.5845921277576358 6.262837506119218 0.27875140383361313
      vertex 0.5254716790862833 6.2267637662475925 0.0
      vertex 0.5254716790862833 6.2267637662475925 0.27875140383361313
    endloop
  endfacet
  facet normal -0.3814210167092276 0.9244014322860491 0.0
    outer loop
      vertex 0.5254716790862833 6.2267637662475925 0.27875140383361313
      vertex 0.5254716790862833 6.2267637662475925 0.0
      vertex 0.4614503851509984 6.200347681015608 0.0
    endloop
  endfacet
  facet normal -0.3814210167092276 0.9244014322860491 0.0
    outer loop
      vertex 0.5254716790862833 6.2267637662475925 0.27875140383361313
      vertex 0.4614503851509984 6.200347681015608 0.0
      vertex 0.4614503851509984 6.200347681015608 0.27875140383361313
    endloop
  endfacet
  facet normal -0.2326441067526652 0.9725619361219391 0.0
    outer loop
      vertex 0.4614503851509984 6.200347681015608 0.27875140383361313
      vertex 0.4614503851509984 6.200347681015608 0.0
      vertex 0.39409379038788495 6.184235478552647 0.0
    endloop
  endfacet
  facet normal -0.2326441067526652 0.9725619361219391 0.0
    outer loop
      vertex 0.4614503851509984 6.200347681015608 0.27875140383361313
      vertex 0.39409379038788495 6.184235478552647 0.0
      vertex 0.39409379038788495 6.184235478552647 0.27875140383361313
    endloop
  endfacet
  facet normal -0.07818539706338502 0.9969388364819782 0.0
    outer loop
      vertex 0.39409379038788495 6.184235478552647 0.27875140383361313
      vertex 0.39409379038788495 6.184235478552647 0.0
      vertex 0.3250488823443418 6.17882059917084 0.1267051808144724
    endloop
  endfacet
  facet normal -0.07818539706338502 0.9969388364819785 0.0
    outer loop
      vertex 0.39409379038788495 6.184235478552647 0.27875140383361313
      vertex 0.3250488823443418 6.17882059917084 0.1267051808144724
      vertex 0.3250488823443418 6.17882059917084 0.27875140383361313
    endloop
  endfacet
  facet normal -0.0 1.0 0.0
    outer loop
      vertex 0.0 6.17882059917084 0.1267051808144724
      vertex 0.3250488823443418 6.17882059917084 0.1267051808144724
      vertex 0.0 6.17882059917084 0.0
    endloop
  endfacet
  facet normal 0.0 1.0 0.0
    outer loop
      vertex 0.0 6.17882059917084 0.0
      vertex 0.3250488823443418 6.17882059917084 0.1267051808144724
      vertex 0.3250488823443418 6.17882059917084 0.0
    endloop
  endfacet
  facet normal -1.0 0.0 0.0
    outer loop
      vertex 0.0 4.821179400829159 0.1267051808144724
      vertex 0.0 6.17882059917084 0.1267051808144724
      vertex 0.0 4.821179400829159 0.0
    endloop
  endfacet
  facet normal -1.0 0.0 0.0
    outer loop
      vertex 0.0 4.821179400829159 0.0
      vertex 0.0 6.17882059917084 0.1267051808144724
      vertex 0.0 6.17882059917084 0.0
    endloop
  endfacet
  facet normal 0.0 0.0 -1.0
    outer loop
      vertex 5.0012735619842275 4.025770691965895 0.0
      vertex 5.029670865692158 3.7817980644089997 0.0
      vertex 5.019772506782934 3.536377344499351 0.0
    endloop
  endfacet
  facet normal 0.0 0.0 -1.0
    outer loop
      vertex 4.697760944980883 6.309348047784235 0.0
      vertex 4.532032188637625 6.128065348880362 0.0
      vertex 4.340122251229083 5.974769113063646 0.0
    endloop
  endfacet
  facet normal 0.0 0.0 -1.0
    outer loop
      vertex 0.7188993100821562 4.580862771455251 0.0
      vertex 0.6825030603232229 4.639785533286724 0.0
      vertex 3.0537445002831283 5.7541302993991135 0.0
    endloop
  endfacet
  facet normal 0.0 -0.0 -1.0
    outer loop
      vertex 0.4614503851509984 6.200347681015608 0.0
      vertex 0.5254716790862833 6.2267637662475925 0.0
      vertex 0.39409379038788495 4.815764521447352 0.0
    endloop
  endfacet
  facet normal 0.0 0.0 -1.0
    outer loop
      vertex 3.277388733924103 0.040326906980454574 0.0
      vertex 3.0693124597590398 0.0 0.0
      vertex 3.0530813551870075 0.0 0.0
    endloop
  endfacet
  facet normal 0.0 0.0 -1.0
    outer loop
      vertex 4.630276264612469 1.7681333296013477 0.0
      vertex 3.0537445002831283 5.245869700600886 0.0
      vertex 4.784675970002395 2.1004893748925935 0.0
    endloop
  endfacet
  facet normal 0.0 0.0 -1.0
    outer loop
      vertex 4.784675970002395 2.1004893748925935 0.0
      vertex 3.0537445002831283 5.245869700600886 0.0
      vertex 5.019772506782934 3.536377344499351 0.0
    endloop
  endfacet
  facet normal 0.0 0.0 -1.0
    outer loop
      vertex 4.784675970002395 2.1004893748925935 0.0
      vertex 5.019772506782934 3.536377344499351 0.0
      vertex 4.90198981756787 2.4476743498842635 0.0
    endloop
  endfacet
  facet normal 0.0 0.0 -1.0
    outer loop
      vertex 4.90198981756787 2.4476743498842635 0.0
      vertex 5.019772506782934 3.536377344499351 0.0
      vertex 5.02024038174871 3.1699079941104347 0.0
    endloop
  endfacet
  facet normal 0.0 0.0 -1.0
    outer loop
      vertex 4.90198981756787 2.4476743498842635 0.0
      vertex 5.02024038174871 3.1699079941104347 0.0
      vertex 4.980823365907795 2.8055643814275957 0.0
    endloop
  endfacet
  facet normal 0.0 0.0 -1.0
    outer loop
      vertex 2.884354428995909 10.990938305931435 0.0
      vertex 2.0011875051547316 10.290364179232494 0.0
      vertex 2.719022496358128 10.956062287304844 0.0
    endloop
  endfacet
  facet normal 0.0 0.0 -1.0
    outer loop
      vertex 2.719022496358128 10.956062287304844 0.0
      vertex 2.0011875051547316 10.290364179232494 0.0
      vertex 2.072771166563707 10.44342212748916 0.0
    endloop
  endfacet
  facet normal 0.0 0.0 -1.0
    outer loop
      vertex 2.719022496358128 10.956062287304844 0.0
      vertex 2.072771166563707 10.44342212748916 0.0
      vertex 2.5610112602406416 10.89620039214847 0.0
    endloop
  endfacet
  facet normal 0.0 0.0 -1.0
    outer loop
      vertex 2.5610112602406416 10.89620039214847 0.0
      vertex 2.072771166563707 10.44342212748916 0.0
      vertex 2.1670189716531834 10.583665715112918 0.0
    endloop
  endfacet
  facet normal 0.0 0.0 -1.0
    outer loop
      vertex 2.5610112602406416 10.89620039214847 0.0
      vertex 2.1670189716531834 10.583665715112918 0.0
      vertex 2.4140719371820736 10.8127746123521 0.0
    endloop
  endfacet
  facet normal 0.0 0.0 -1.0
    outer loop
      vertex 2.4140719371820736 10.8127746123521 0.0
      vertex 2.1670189716531834 10.583665715112918 0.0
      vertex 2.2816935307366126 10.707765683049773 0.0
    endloop
  endfacet
  facet normal 0.0 0.0 -1.0
    outer loop
      vertex 0.39409379038788495 4.815764521447352 0.0
      vertex 0.5254716790862833 6.2267637662475925 0.0
      vertex 0.4614503851509984 4.799652318984391 0.0
    endloop
  endfacet
  facet normal 0.0 -0.0 -1.0
    outer loop
      vertex 0.6373660555218363 6.307686318308679 0.0
      vertex 0.6825030603232229 6.360214466713275 0.0
      vertex 0.5254716790862833 4.7732357504105 0.0
    endloop
  endfacet
  facet normal 0.0 0.0 -1.0
    outer loop
      vertex 0.5254716790862833 4.7732357504105 0.0
      vertex 0.6825030603232229 6.360214466713275 0.0
      vertex 0.7188993100821562 6.4191367452028425 0.0
    endloop
  endfacet
  facet normal -0.0 0.0 -1.0
    outer loop
      vertex 3.277388733924103 0.040326906980454574 0.0
      vertex 3.0530813551870075 0.0 0.0
      vertex 4.059957465033398 0.7081290023730769 0.0
    endloop
  endfacet
  facet normal 0.0 0.0 -1.0
    outer loop
      vertex 4.059957465033398 0.7081290023730769 0.0
      vertex 3.0530813551870075 0.0 0.0
      vertex 2.884354428995909 0.009062177410471127 0.0
    endloop
  endfacet
  facet normal 0.0 0.0 -1.0
    outer loop
      vertex 4.059957465033398 0.7081290023730769 0.0
      vertex 2.884354428995909 0.009062177410471127 0.0
      vertex 2.719022496358128 0.043937833530632034 0.0
    endloop
  endfacet
  facet normal 0.0 0.0 -1.0
    outer loop
      vertex 2.0011875051547316 0.7096355790965522 0.0
      vertex 4.059957465033398 0.7081290023730769 0.0
      vertex 2.072771166563707 0.5565776308398852 0.0
    endloop
  endfacet
  facet normal 0.0 0.0 -1.0
    outer loop
      vertex 2.072771166563707 0.5565776308398852 0.0
      vertex 4.059957465033398 0.7081290023730769 0.0
      vertex 2.719022496358128 0.043937833530632034 0.0
    endloop
  endfacet
  facet normal 0.0 0.0 -1.0
    outer loop
      vertex 2.072771166563707 0.5565776308398852 0.0
      vertex 2.719022496358128 0.043937833530632034 0.0
      vertex 2.1670189716531834 0.4163339223806504 0.0
    endloop
  endfacet
  facet normal 0.0 0.0 -1.0
    outer loop
      vertex 2.1670189716531834 0.4163339223806504 0.0
      vertex 2.719022496358128 0.043937833530632034 0.0
      vertex 2.5610112602406416 0.10379960785152896 0.0
    endloop
  endfacet
  facet normal 0.0 0.0 -1.0
    outer loop
      vertex 2.1670189716531834 0.4163339223806504 0.0
      vertex 2.5610112602406416 0.10379960785152896 0.0
      vertex 2.2816935307366126 0.29223443778570174 0.0
    endloop
  endfacet
  facet normal 0.0 0.0 -1.0
    outer loop
      vertex 2.2816935307366126 0.29223443778570174 0.0
      vertex 2.5610112602406416 0.10379960785152896 0.0
      vertex 2.4140719371820736 0.18722514597694537 0.0
    endloop
  endfacet
  facet normal 0.0 0.0 -1.0
    outer loop
      vertex 3.0530813551870075 11.0 0.0
      vertex 3.0693124597590398 11.0 0.0
      vertex 3.277388733924103 10.959672851348591 0.0
    endloop
  endfacet
  facet normal 0.0 0.0 -1.0
    outer loop
      vertex 3.0530813551870075 11.0 0.0
      vertex 3.277388733924103 10.959672851348591 0.0
      vertex 4.059957465033398 10.291871239297876 0.0
    endloop
  endfacet
  facet normal 0.0 0.0 -1.0
    outer loop
      vertex 4.059957465033398 10.291871239297876 0.0
      vertex 3.277388733924103 10.959672851348591 0.0
      vertex 3.475518314989263 10.88439331604932 0.0
    endloop
  endfacet
  facet normal 0.0 0.0 -1.0
    outer loop
      vertex 4.059957465033398 10.291871239297876 0.0
      vertex 3.475518314989263 10.88439331604932 0.0
      vertex 3.954455043644236 10.475695833289576 0.0
    endloop
  endfacet
  facet normal 0.0 0.0 -1.0
    outer loop
      vertex 3.954455043644236 10.475695833289576 0.0
      vertex 3.475518314989263 10.88439331604932 0.0
      vertex 3.657876449635751 10.77637606671911 0.0
    endloop
  endfacet
  facet normal 0.0 0.0 -1.0
    outer loop
      vertex 3.954455043644236 10.475695833289576 0.0
      vertex 3.657876449635751 10.77637606671911 0.0
      vertex 3.8191014260915077 10.638795693001784 0.0
    endloop
  endfacet
  facet normal 0.0 -0.0 -1.0
    outer loop
      vertex 4.059957465033398 10.291871239297876 0.0
      vertex 4.630276264612469 9.23186667039865 0.0
      vertex 3.0537445002831283 5.7541302993991135 0.0
    endloop
  endfacet
  facet normal 0.0 0.0 -1.0
    outer loop
      vertex 3.0537445002831283 5.7541302993991135 0.0
      vertex 4.630276264612469 9.23186667039865 0.0
      vertex 4.784675970002395 8.899510141765498 0.0
    endloop
  endfacet
  facet normal 0.0 0.0 -1.0
    outer loop
      vertex 3.0537445002831283 5.7541302993991135 0.0
      vertex 4.784675970002395 8.899510141765498 0.0
      vertex 4.90198981756787 8.552325650115735 0.0
    endloop
  endfacet
  facet normal -0.0 0.0 -1.0
    outer loop
      vertex 4.697760944980883 6.309348047784235 0.0
      vertex 4.340122251229083 5.974769113063646 0.0
      vertex 4.833274065362853 6.51420284814052 0.0
    endloop
  endfacet
  facet normal 0.0 0.0 -1.0
    outer loop
      vertex 4.833274065362853 6.51420284814052 0.0
      vertex 4.340122251229083 5.974769113063646 0.0
      vertex 4.1267031156263245 5.853189773170718 0.0
    endloop
  endfacet
  facet normal -0.0 0.0 -1.0
    outer loop
      vertex 4.833274065362853 6.51420284814052 0.0
      vertex 4.1267031156263245 5.853189773170718 0.0
      vertex 4.935273224611576 6.73764262815492 0.0
    endloop
  endfacet
  facet normal 0.0 0.0 -1.0
    outer loop
      vertex 4.935273224611576 6.73764262815492 0.0
      vertex 4.1267031156263245 5.853189773170718 0.0
      vertex 3.896970223985473 5.766287315038783 0.0
    endloop
  endfacet
  facet normal -0.0 0.0 -1.0
    outer loop
      vertex 4.935273224611576 6.73764262815492 0.0
      vertex 3.896970223985473 5.766287315038783 0.0
      vertex 5.0012735619842275 6.974228824692197 0.0
    endloop
  endfacet
  facet normal 0.0 0.0 -1.0
    outer loop
      vertex 5.0012735619842275 6.974228824692197 0.0
      vertex 3.896970223985473 5.766287315038783 0.0
      vertex 3.6168629554766962 5.732196243668825 0.0
    endloop
  endfacet
  facet normal -0.0 0.0 -1.0
    outer loop
      vertex 5.0012735619842275 6.974228824692197 0.0
      vertex 3.6168629554766962 5.732196243668825 0.0
      vertex 5.029670865692158 7.218202418932906 0.0
    endloop
  endfacet
  facet normal 0.0 0.0 -1.0
    outer loop
      vertex 5.029670865692158 7.218202418932906 0.0
      vertex 3.6168629554766962 5.732196243668825 0.0
      vertex 3.3347184008307855 5.728128438181251 0.0
    endloop
  endfacet
  facet normal -0.0 0.0 -1.0
    outer loop
      vertex 5.029670865692158 7.218202418932906 0.0
      vertex 3.3347184008307855 5.728128438181251 0.0
      vertex 5.019772506782934 7.4636221721587415 0.0
    endloop
  endfacet
  facet normal 0.0 0.0 -1.0
    outer loop
      vertex 5.019772506782934 7.4636221721587415 0.0
      vertex 3.3347184008307855 5.728128438181251 0.0
      vertex 3.0537445002831283 5.7541302993991135 0.0
    endloop
  endfacet
  facet normal -0.0 0.0 -1.0
    outer loop
      vertex 5.019772506782934 7.4636221721587415 0.0
      vertex 3.0537445002831283 5.7541302993991135 0.0
      vertex 5.02024038174871 7.830092005889565 0.0
    endloop
  endfacet
  facet normal -0.0 0.0 -1.0
    outer loop
      vertex 5.02024038174871 7.830092005889565 0.0
      vertex 3.0537445002831283 5.7541302993991135 0.0
      vertex 4.90198981756787 8.552325650115735 0.0
    endloop
  endfacet
  facet normal 0.0 0.0 -1.0
    outer loop
      vertex 5.02024038174871 7.830092005889565 0.0
      vertex 4.90198981756787 8.552325650115735 0.0
      vertex 4.980823365907795 8.194435135230497 0.0
    endloop
  endfacet
  facet normal 0.0 0.0 -1.0
    outer loop
      vertex 0.7188993100821562 4.580862771455251 0.0
      vertex 3.0537445002831283 5.7541302993991135 0.0
      vertex 0.7456648515127524 4.516987205104863 0.0
    endloop
  endfacet
  facet normal 0.0 0.0 -1.0
    outer loop
      vertex 0.7456648515127524 4.516987205104863 0.0
      vertex 3.0537445002831283 5.7541302993991135 0.0
      vertex 3.0537445002831283 5.245869700600886 0.0
    endloop
  endfacet
  facet normal 0.0 0.0 -1.0
    outer loop
      vertex 0.7456648515127524 4.516987205104863 0.0
      vertex 3.0537445002831283 5.245869700600886 0.0
      vertex 2.0011875051547316 0.7096355790965522 0.0
    endloop
  endfacet
  facet normal 0.0 0.0 -1.0
    outer loop
      vertex 2.0011875051547316 0.7096355790965522 0.0
      vertex 3.0537445002831283 5.245869700600886 0.0
      vertex 4.630276264612469 1.7681333296013477 0.0
    endloop
  endfacet
  facet normal 0.0 0.0 -1.0
    outer loop
      vertex 2.0011875051547316 0.7096355790965522 0.0
      vertex 4.630276264612469 1.7681333296013477 0.0
      vertex 4.059957465033398 0.7081290023730769 0.0
    endloop
  endfacet
  facet normal 0.0 0.0 -1.0
    outer loop
      vertex 0.6825030603232229 4.639785533286724 0.0
      vertex 0.6373660555218363 4.69231368169132 0.0
      vertex 3.0537445002831283 5.7541302993991135 0.0
    endloop
  endfacet
  facet normal -0.0 0.0 -1.0
    outer loop
      vertex 3.0537445002831283 5.7541302993991135 0.0
      vertex 0.6373660555218363 4.69231368169132 0.0
      vertex 2.0011875051547316 10.290364179232494 0.0
    endloop
  endfacet
  facet normal 0.0 0.0 -1.0
    outer loop
      vertex 3.0537445002831283 5.7541302993991135 0.0
      vertex 2.0011875051547316 10.290364179232494 0.0
      vertex 4.059957465033398 10.291871239297876 0.0
    endloop
  endfacet
  facet normal -0.0 0.0 -1.0
    outer loop
      vertex 4.059957465033398 10.291871239297876 0.0
      vertex 2.0011875051547316 10.290364179232494 0.0
      vertex 2.884354428995909 10.990938305931435 0.0
    endloop
  endfacet
  facet normal 0.0 0.0 -1.0
    outer loop
      vertex 4.059957465033398 10.291871239297876 0.0
      vertex 2.884354428995909 10.990938305931435 0.0
      vertex 3.0530813551870075 11.0 0.0
    endloop
  endfacet
  facet normal 0.0 0.0 -1.0
    outer loop
      vertex 0.4614503851509984 4.799652318984391 0.0
      vertex 0.5254716790862833 6.2267637662475925 0.0
      vertex 0.5254716790862833 4.7732357504105 0.0
    endloop
  endfacet
  facet normal 0.0 0.0 -1.0
    outer loop
      vertex 0.5254716790862833 4.7732357504105 0.0
      vertex 0.5254716790862833 6.2267637662475925 0.0
      vertex 0.5845921277576358 6.262837506119218 0.0
    endloop
  endfacet
  facet normal 0.0 0.0 -1.0
    outer loop
      vertex 0.5254716790862833 4.7732357504105 0.0
      vertex 0.5845921277576358 6.262837506119218 0.0
      vertex 0.6373660555218363 6.307686318308679 0.0
    endloop
  endfacet
  facet normal 0.0 0.0 -1.0
    outer loop
      vertex 0.6373660555218363 4.69231368169132 0.0
      vertex 0.5845921277576358 4.737162493880781 0.0
      vertex 2.0011875051547316 10.290364179232494 0.0
    endloop
  endfacet
  facet normal 0.0 0.0 -1.0
    outer loop
      vertex 2.0011875051547316 10.290364179232494 0.0
      vertex 0.5845921277576358 4.737162493880781 0.0
      vertex 0.5254716790862833 4.7732357504105 0.0
    endloop
  endfacet
  facet normal 0.0 0.0 -1.0
    outer loop
      vertex 2.0011875051547316 10.290364179232494 0.0
      vertex 0.5254716790862833 4.7732357504105 0.0
      vertex 0.7456648515127524 6.483012794895136 0.0
    endloop
  endfacet
  facet normal 0.0 0.0 -1.0
    outer loop
      vertex 0.7456648515127524 6.483012794895136 0.0
      vertex 0.5254716790862833 4.7732357504105 0.0
      vertex 0.7188993100821562 6.4191367452028425 0.0
    endloop
  endfacet
  facet normal 0.0 0.0 -1.0
    outer loop
      vertex 3.0537445002831283 5.245869700600886 0.0
      vertex 3.3347184008307855 5.271871561818749 0.0
      vertex 5.019772506782934 3.536377344499351 0.0
    endloop
  endfacet
  facet normal 0.0 0.0 -1.0
    outer loop
      vertex 5.019772506782934 3.536377344499351 0.0
      vertex 3.3347184008307855 5.271871561818749 0.0
      vertex 3.6168629554766962 5.267803756331174 0.0
    endloop
  endfacet
  facet normal 0.0 0.0 -1.0
    outer loop
      vertex 5.019772506782934 3.536377344499351 0.0
      vertex 3.6168629554766962 5.267803756331174 0.0
      vertex 5.0012735619842275 4.025770691965895 0.0
    endloop
  endfacet
  facet normal 0.0 0.0 -1.0
    outer loop
      vertex 5.0012735619842275 4.025770691965895 0.0
      vertex 3.6168629554766962 5.267803756331174 0.0
      vertex 4.833274065362853 4.4857971518594795 0.0
    endloop
  endfacet
  facet normal 0.0 0.0 -1.0
    outer loop
      vertex 5.0012735619842275 4.025770691965895 0.0
      vertex 4.833274065362853 4.4857971518594795 0.0
      vertex 4.935273224611576 4.262357371845079 0.0
    endloop
  endfacet
  facet normal -0.0 0.0 -1.0
    outer loop
      vertex 3.475518314989263 0.11560607977329682 0.0
      vertex 3.277388733924103 0.040326906980454574 0.0
      vertex 3.657876449635751 0.22362344993898245 0.0
    endloop
  endfacet
  facet normal -0.0 0.0 -1.0
    outer loop
      vertex 3.657876449635751 0.22362344993898245 0.0
      vertex 3.277388733924103 0.040326906980454574 0.0
      vertex 4.059957465033398 0.7081290023730769 0.0
    endloop
  endfacet
  facet normal 0.0 0.0 -1.0
    outer loop
      vertex 3.657876449635751 0.22362344993898245 0.0
      vertex 4.059957465033398 0.7081290023730769 0.0
      vertex 3.8191014260915077 0.36120454866916857 0.0
    endloop
  endfacet
  facet normal 0.0 0.0 -1.0
    outer loop
      vertex 3.8191014260915077 0.36120454866916857 0.0
      vertex 4.059957465033398 0.7081290023730769 0.0
      vertex 3.954455043644236 0.5243046500523305 0.0
    endloop
  endfacet
  facet normal 0.0 0.0 -1.0
    outer loop
      vertex 3.6168629554766962 5.267803756331174 0.0
      vertex 3.896970223985473 5.233712684961216 0.0
      vertex 4.833274065362853 4.4857971518594795 0.0
    endloop
  endfacet
  facet normal 0.0 0.0 -1.0
    outer loop
      vertex 4.833274065362853 4.4857971518594795 0.0
      vertex 3.896970223985473 5.233712684961216 0.0
      vertex 4.1267031156263245 5.146810226829281 0.0
    endloop
  endfacet
  facet normal 0.0 0.0 -1.0
    outer loop
      vertex 4.833274065362853 4.4857971518594795 0.0
      vertex 4.1267031156263245 5.146810226829281 0.0
      vertex 4.697760944980883 4.690651952215764 0.0
    endloop
  endfacet
  facet normal 0.0 0.0 -1.0
    outer loop
      vertex 4.697760944980883 4.690651952215764 0.0
      vertex 4.1267031156263245 5.146810226829281 0.0
      vertex 4.340122251229083 5.025230886936353 0.0
    endloop
  endfacet
  facet normal 0.0 0.0 -1.0
    outer loop
      vertex 4.697760944980883 4.690651952215764 0.0
      vertex 4.340122251229083 5.025230886936353 0.0
      vertex 4.532032188637625 4.871934651119637 0.0
    endloop
  endfacet
  facet normal 0.0 0.0 -1.0
    outer loop
      vertex 0.0 4.821179400829159 0.0
      vertex 0.0 6.17882059917084 0.0
      vertex 0.3250488823443418 4.821179400829159 0.0
    endloop
  endfacet
  facet normal 0.0 0.0 -1.0
    outer loop
      vertex 0.3250488823443418 4.821179400829159 0.0
      vertex 0.0 6.17882059917084 0.0
      vertex 0.3250488823443418 6.17882059917084 0.0
    endloop
  endfacet
  facet normal 0.0 0.0 -1.0
    outer loop
      vertex 0.3250488823443418 4.821179400829159 0.0
      vertex 0.3250488823443418 6.17882059917084 0.0
      vertex 0.39409379038788495 4.815764521447352 0.0
    endloop
  endfacet
  facet normal 0.0 0.0 -1.0
    outer loop
      vertex 0.39409379038788495 4.815764521447352 0.0
      vertex 0.3250488823443418 6.17882059917084 0.0
      vertex 0.39409379038788495 6.184235478552647 0.0
    endloop
  endfacet
  facet normal 0.0 0.0 -1.0
    outer loop
      vertex 0.39409379038788495 4.815764521447352 0.0
      vertex 0.39409379038788495 6.184235478552647 0.0
      vertex 0.4614503851509984 6.200347681015608 0.0
    endloop
  endfacet
  facet normal -0.0 -1.0 -0.0
    outer loop
      vertex 0.3250488823443418 4.821179400829159 0.1267051808144724
      vertex 0.0 4.821179400829159 0.1267051808144724
      vertex 0.3250488823443418 4.821179400829159 0.0
    endloop
  endfacet
  facet normal 0.0 -1.0 0.0
    outer loop
      vertex 0.3250488823443418 4.821179400829159 0.0
      vertex 0.0 4.821179400829159 0.1267051808144724
      vertex 0.0 4.821179400829159 0.0
    endloop
  endfacet
  facet normal -0.07818539706338502 -0.9969388364819783 -0.0
    outer loop
      vertex 0.3250488823443418 4.821179400829159 0.1267051808144724
      vertex 0.3250488823443418 4.821179400829159 0.0
      vertex 0.39409379038788495 4.815764521447352 0.0
    endloop
  endfacet
  facet normal -0.07818539706338502 -0.9969388364819785 0.0
    outer loop
      vertex 0.39409379038788495 4.815764521447352 0.27875140383361313
      vertex 0.3250488823443418 4.821179400829159 0.27875140383361313
      vertex 0.3250488823443418 4.821179400829159 0.1267051808144724
    endloop
  endfacet
  facet normal -0.07818539706338502 -0.9969388364819785 0.0
    outer loop
      vertex 0.3250488823443418 4.821179400829159 0.1267051808144724
      vertex 0.39409379038788495 4.815764521447352 0.0
      vertex 0.39409379038788495 4.815764521447352 0.27875140383361313
    endloop
  endfacet
  facet normal -0.2326441067526652 -0.9725619361219391 -0.0
    outer loop
      vertex 0.39409379038788495 4.815764521447352 0.27875140383361313
      vertex 0.39409379038788495 4.815764521447352 0.0
      vertex 0.4614503851509984 4.799652318984391 0.0
    endloop
  endfacet
  facet normal -0.2326441067526652 -0.9725619361219391 0.0
    outer loop
      vertex 0.39409379038788495 4.815764521447352 0.27875140383361313
      vertex 0.4614503851509984 4.799652318984391 0.0
      vertex 0.4614503851509984 4.799652318984391 0.27875140383361313
    endloop
  endfacet
  facet normal -0.3814269803310985 -0.9243989715893782 -0.0
    outer loop
      vertex 0.4614503851509984 4.799652318984391 0.27875140383361313
      vertex 0.4614503851509984 4.799652318984391 0.0
      vertex 0.5254716790862833 4.7732357504105 0.0
    endloop
  endfacet
  facet normal -0.3814269803310985 -0.9243989715893782 0.0
    outer loop
      vertex 0.4614503851509984 4.799652318984391 0.27875140383361313
      vertex 0.5254716790862833 4.7732357504105 0.0
      vertex 0.5254716790862833 4.7732357504105 0.27875140383361313
    endloop
  endfacet
  facet normal -0.5208621459339481 -0.8536408055693464 -0.0
    outer loop
      vertex 0.5254716790862833 4.7732357504105 0.27875140383361313
      vertex 0.5254716790862833 4.7732357504105 0.0
      vertex 0.5845921277576358 4.737162493880781 0.0
    endloop
  endfacet
  facet normal -0.5208621459339481 -0.8536408055693464 0.0
    outer loop
      vertex 0.5254716790862833 4.7732357504105 0.27875140383361313
      vertex 0.5845921277576358 4.737162493880781 0.0
      vertex 0.5845921277576358 4.737162493880781 0.27875140383361313
    endloop
  endfacet
  facet normal -0.6475727521781134 -0.7620036290179094 -0.0
    outer loop
      vertex 0.5845921277576358 4.737162493880781 0.27875140383361313
      vertex 0.5845921277576358 4.737162493880781 0.0
      vertex 0.6373660555218363 4.69231368169132 0.0
    endloop
  endfacet
  facet normal -0.6475727521781134 -0.7620036290179094 0.0
    outer loop
      vertex 0.5845921277576358 4.737162493880781 0.27875140383361313
      vertex 0.6373660555218363 4.69231368169132 0.0
      vertex 0.6373660555218363 4.69231368169132 0.27875140383361313
    endloop
  endfacet
  facet normal -0.7584506919568277 -0.6517304257668269 -0.0
    outer loop
      vertex 0.6373660555218363 4.69231368169132 0.27875140383361313
      vertex 0.6373660555218363 4.69231368169132 0.0
      vertex 0.6825030603232229 4.639785533286724 0.0
    endloop
  endfacet
  facet normal -0.7584506919568277 -0.6517304257668269 0.0
    outer loop
      vertex 0.6373660555218363 4.69231368169132 0.27875140383361313
      vertex 0.6825030603232229 4.639785533286724 0.0
      vertex 0.6825030603232229 4.639785533286724 0.27875140383361313
    endloop
  endfacet
  facet normal -0.850780055733267 -0.5255219279597181 -0.0
    outer loop
      vertex 0.6825030603232229 4.639785533286724 0.27875140383361313
      vertex 0.6825030603232229 4.639785533286724 0.0
      vertex 0.7188993100821562 4.580862771455251 0.0
    endloop
  endfacet
  facet normal -0.850780055733267 -0.5255219279597181 0.0
    outer loop
      vertex 0.6825030603232229 4.639785533286724 0.27875140383361313
      vertex 0.7188993100821562 4.580862771455251 0.0
      vertex 0.7188993100821562 4.580862771455251 0.27875140383361313
    endloop
  endfacet
  facet normal -0.9223024152863603 -0.38646895704176065 -0.0
    outer loop
      vertex 0.7188993100821562 4.580862771455251 0.27875140383361313
      vertex 0.7188993100821562 4.580862771455251 0.0
      vertex 0.7456648515127524 4.516987205104863 0.0
    endloop
  endfacet
  facet normal -0.9223024152863603 -0.38646895704176065 0.0
    outer loop
      vertex 0.7188993100821562 4.580862771455251 0.27875140383361313
      vertex 0.7456648515127524 4.516987205104863 0.0
      vertex 0.7456648515127524 4.516987205104863 0.27875140383361313
    endloop
  endfacet
  facet normal -0.9496956860282488 -0.31317423894588403 -0.0
    outer loop
      vertex 2.0011875051547316 0.7096355790965522 0.27875140383361313
      vertex 0.7456648515127524 4.516987205104863 0.27875140383361313
      vertex 2.0011875051547316 0.7096355790965522 0.0
    endloop
  endfacet
  facet normal -0.9496956860282488 -0.31317423894588403 0.0
    outer loop
      vertex 2.0011875051547316 0.7096355790965522 0.0
      vertex 0.7456648515127524 4.516987205104863 0.27875140383361313
      vertex 0.7456648515127524 4.516987205104863 0.0
    endloop
  endfacet
  facet normal -0.9058276206722011 -0.42364645829670167 -0.0
    outer loop
      vertex 2.0011875051547316 0.7096355790965522 0.27875140383361313
      vertex 2.0011875051547316 0.7096355790965522 0.0
      vertex 2.072771166563707 0.5565776308398852 0.0
    endloop
  endfacet
  facet normal -0.9058276206722011 -0.42364645829670167 0.0
    outer loop
      vertex 2.0011875051547316 0.7096355790965522 0.27875140383361313
      vertex 2.072771166563707 0.5565776308398852 0.0
      vertex 2.072771166563707 0.5565776308398852 0.27875140383361313
    endloop
  endfacet
  facet normal -0.8299905199621347 -0.557777497549861 -0.0
    outer loop
      vertex 2.072771166563707 0.5565776308398852 0.27875140383361313
      vertex 2.072771166563707 0.5565776308398852 0.0
      vertex 2.1670189716531834 0.4163339223806504 0.0
    endloop
  endfacet
  facet normal -0.8299905199621347 -0.557777497549861 0.0
    outer loop
      vertex 2.072771166563707 0.5565776308398852 0.27875140383361313
      vertex 2.1670189716531834 0.4163339223806504 0.0
      vertex 2.1670189716531834 0.4163339223806504 0.27875140383361313
    endloop
  endfacet
  facet normal -0.7344458787032753 -0.678667261075539 -0.0
    outer loop
      vertex 2.1670189716531834 0.4163339223806504 0.27875140383361313
      vertex 2.1670189716531834 0.4163339223806504 0.0
      vertex 2.2816935307366126 0.29223443778570174 0.0
    endloop
  endfacet
  facet normal -0.7344458787032753 -0.678667261075539 0.0
    outer loop
      vertex 2.1670189716531834 0.4163339223806504 0.27875140383361313
      vertex 2.2816935307366126 0.29223443778570174 0.0
      vertex 2.2816935307366126 0.29223443778570174 0.27875140383361313
    endloop
  endfacet
  facet normal -0.6214656288063879 -0.783441428705606 -0.0
    outer loop
      vertex 2.2816935307366126 0.29223443778570174 0.27875140383361313
      vertex 2.2816935307366126 0.29223443778570174 0.0
      vertex 2.4140719371820736 0.18722514597694537 0.0
    endloop
  endfacet
  facet normal -0.6214656288063879 -0.783441428705606 0.0
    outer loop
      vertex 2.2816935307366126 0.29223443778570174 0.27875140383361313
      vertex 2.4140719371820736 0.18722514597694537 0.0
      vertex 2.4140719371820736 0.18722514597694537 0.27875140383361313
    endloop
  endfacet
  facet normal -0.4937288081331764 -0.8696159290280928 -0.0
    outer loop
      vertex 2.4140719371820736 0.18722514597694537 0.27875140383361313
      vertex 2.4140719371820736 0.18722514597694537 0.0
      vertex 2.5610112602406416 0.10379960785152896 0.0
    endloop
  endfacet
  facet normal -0.4937288081331764 -0.8696159290280928 0.0
    outer loop
      vertex 2.4140719371820736 0.18722514597694537 0.27875140383361313
      vertex 2.5610112602406416 0.10379960785152896 0.0
      vertex 2.5610112602406416 0.10379960785152896 0.27875140383361313
    endloop
  endfacet
  facet normal -0.3542738152730636 -0.9351417346113193 -0.0
    outer loop
      vertex 2.5610112602406416 0.10379960785152896 0.27875140383361313
      vertex 2.5610112602406416 0.10379960785152896 0.0
      vertex 2.719022496358128 0.043937833530632034 0.0
    endloop
  endfacet
  facet normal -0.3542738152730636 -0.9351417346113193 0.0
    outer loop
      vertex 2.5610112602406416 0.10379960785152896 0.27875140383361313
      vertex 2.719022496358128 0.043937833530632034 0.0
      vertex 2.719022496358128 0.043937833530632034 0.27875140383361313
    endloop
  endfacet
  facet normal -0.2064011126058711 -0.9784674653329352 -0.0
    outer loop
      vertex 2.719022496358128 0.043937833530632034 0.27875140383361313
      vertex 2.719022496358128 0.043937833530632034 0.0
      vertex 2.884354428995909 0.009062177410471127 0.0
    endloop
  endfacet
  facet normal -0.2064011126058711 -0.9784674653329352 0.0
    outer loop
      vertex 2.719022496358128 0.043937833530632034 0.27875140383361313
      vertex 2.884354428995909 0.009062177410471127 0.0
      vertex 2.884354428995909 0.009062177410471127 0.27875140383361313
    endloop
  endfacet
  facet normal -0.05363183650644247 -0.9985607773755918 -0.0
    outer loop
      vertex 2.884354428995909 0.009062177410471127 0.27875140383361313
      vertex 2.884354428995909 0.009062177410471127 0.0
      vertex 3.0530813551870075 0.0 0.0
    endloop
  endfacet
  facet normal -0.05363183650644247 -0.9985607773755918 0.0
    outer loop
      vertex 2.884354428995909 0.009062177410471127 0.27875140383361313
      vertex 3.0530813551870075 0.0 0.0
      vertex 3.0530813551870075 0.0 0.27875140383361313
    endloop
  endfacet
  facet normal -0.0 -1.0 -0.0
    outer loop
      vertex 3.0693124597590398 0.0 0.27875140383361313
      vertex 3.0530813551870075 0.0 0.27875140383361313
      vertex 3.0693124597590398 0.0 0.0
    endloop
  endfacet
  facet normal 0.0 -1.0 0.0
    outer loop
      vertex 3.0693124597590398 0.0 0.0
      vertex 3.0530813551870075 0.0 0.27875140383361313
      vertex 3.0530813551870075 0.0 0.0
    endloop
  endfacet
  facet normal 0.19026784286747775 -0.9817322180567146 0.0
    outer loop
      vertex 3.0693124597590398 0.0 0.27875140383361313
      vertex 3.0693124597590398 0.0 0.0
      vertex 3.277388733924103 0.040326906980454574 0.0
    endloop
  endfacet
  facet normal 0.19026784286747775 -0.9817322180567146 0.0
    outer loop
      vertex 3.0693124597590398 0.0 0.27875140383361313
      vertex 3.277388733924103 0.040326906980454574 0.0
      vertex 3.277388733924103 0.040326906980454574 0.27875140383361313
    endloop
  endfacet
  facet normal 0.3551762519727313 -0.9347993528210227 0.0
    outer loop
      vertex 3.277388733924103 0.040326906980454574 0.27875140383361313
      vertex 3.277388733924103 0.040326906980454574 0.0
      vertex 3.475518314989263 0.11560607977329682 0.0
    endloop
  endfacet
  facet normal 0.3551762519727313 -0.9347993528210227 0.0
    outer loop
      vertex 3.277388733924103 0.040326906980454574 0.27875140383361313
      vertex 3.475518314989263 0.11560607977329682 0.0
      vertex 3.475518314989263 0.11560607977329682 0.27875140383361313
    endloop
  endfacet
  facet normal 0.509639276254524 -0.8603881729189243 0.0
    outer loop
      vertex 3.475518314989263 0.11560607977329682 0.27875140383361313
      vertex 3.475518314989263 0.11560607977329682 0.0
      vertex 3.657876449635751 0.22362344993898245 0.0
    endloop
  endfacet
  facet normal 0.509639276254524 -0.8603881729189243 0.0
    outer loop
      vertex 3.475518314989263 0.11560607977329682 0.27875140383361313
      vertex 3.657876449635751 0.22362344993898245 0.0
      vertex 3.657876449635751 0.22362344993898245 0.27875140383361313
    endloop
  endfacet
  facet normal 0.6491259653487012 -0.7606809325269807 0.0
    outer loop
      vertex 3.657876449635751 0.22362344993898245 0.27875140383361313
      vertex 3.657876449635751 0.22362344993898245 0.0
      vertex 3.8191014260915077 0.36120454866916857 0.0
    endloop
  endfacet
  facet normal 0.6491259653487012 -0.7606809325269807 0.0
    outer loop
      vertex 3.657876449635751 0.22362344993898245 0.27875140383361313
      vertex 3.8191014260915077 0.36120454866916857 0.0
      vertex 3.8191014260915077 0.36120454866916857 0.27875140383361313
    endloop
  endfacet
  facet normal 0.7695263680350733 -0.6386150396747236 0.0
    outer loop
      vertex 3.8191014260915077 0.36120454866916857 0.27875140383361313
      vertex 3.8191014260915077 0.36120454866916857 0.0
      vertex 3.954455043644236 0.5243046500523305 0.0
    endloop
  endfacet
  facet normal 0.7695263680350733 -0.6386150396747236 0.0
    outer loop
      vertex 3.8191014260915077 0.36120454866916857 0.27875140383361313
      vertex 3.954455043644236 0.5243046500523305 0.0
      vertex 3.954455043644236 0.5243046500523305 0.27875140383361313
    endloop
  endfacet
  facet normal 0.8673068192692233 -0.49777392584295027 0.0
    outer loop
      vertex 3.954455043644236 0.5243046500523305 0.27875140383361313
      vertex 3.954455043644236 0.5243046500523305 0.0
      vertex 4.059957465033398 0.7081290023730769 0.0
    endloop
  endfacet
  facet normal 0.8673068192692233 -0.49777392584295027 0.0
    outer loop
      vertex 3.954455043644236 0.5243046500523305 0.27875140383361313
      vertex 4.059957465033398 0.7081290023730769 0.0
      vertex 4.059957465033398 0.7081290023730769 0.27875140383361313
    endloop
  endfacet
  facet normal 0.8806280658681582 -0.47380819917484196 0.0
    outer loop
      vertex 4.630276264612469 1.7681333296013477 0.27875140383361313
      vertex 4.059957465033398 0.7081290023730769 0.27875140383361313
      vertex 4.630276264612469 1.7681333296013477 0.0
    endloop
  endfacet
  facet normal 0.8806280658681582 -0.47380819917484196 0.0
    outer loop
      vertex 4.630276264612469 1.7681333296013477 0.0
      vertex 4.059957465033398 0.7081290023730769 0.27875140383361313
      vertex 4.059957465033398 0.7081290023730769 0.0
    endloop
  endfacet
  facet normal 0.9069135355820763 -0.42131679171143654 0.0
    outer loop
      vertex 4.630276264612469 1.7681333296013477 0.27875140383361313
      vertex 4.630276264612469 1.7681333296013477 0.0
      vertex 4.784675970002395 2.1004893748925935 0.0
    endloop
  endfacet
  facet normal 0.9069135355820763 -0.42131679171143654 0.0
    outer loop
      vertex 4.630276264612469 1.7681333296013477 0.27875140383361313
      vertex 4.784675970002395 2.1004893748925935 0.0
      vertex 4.784675970002395 2.1004893748925935 0.27875140383361313
    endloop
  endfacet
  facet normal 0.9473773635566973 -0.32011893261780267 0.0
    outer loop
      vertex 4.784675970002395 2.1004893748925935 0.27875140383361313
      vertex 4.784675970002395 2.1004893748925935 0.0
      vertex 4.90198981756787 2.4476743498842635 0.0
    endloop
  endfacet
  facet normal 0.9473773635566973 -0.32011893261780267 0.0
    outer loop
      vertex 4.784675970002395 2.1004893748925935 0.27875140383361313
      vertex 4.90198981756787 2.4476743498842635 0.0
      vertex 4.90198981756787 2.4476743498842635 0.27875140383361313
    endloop
  endfacet
  facet normal 0.9765884660326057 -0.21511617329267002 0.0
    outer loop
      vertex 4.90198981756787 2.4476743498842635 0.27875140383361313
      vertex 4.90198981756787 2.4476743498842635 0.0
      vertex 4.980823365907795 2.8055643814275957 0.0
    endloop
  endfacet
  facet normal 0.9765884660326057 -0.21511617329267002 0.0
    outer loop
      vertex 4.90198981756787 2.4476743498842635 0.27875140383361313
      vertex 4.980823365907795 2.8055643814275957 0.0
      vertex 4.980823365907795 2.8055643814275957 0.27875140383361313
    endloop
  endfacet
  facet normal 0.9941987292421434 -0.10755875963075844 0.0
    outer loop
      vertex 4.980823365907795 2.8055643814275957 0.27875140383361313
      vertex 4.980823365907795 2.8055643814275957 0.0
      vertex 5.02024038174871 3.1699079941104347 0.0
    endloop
  endfacet
  facet normal 0.9941987292421434 -0.10755875963075844 0.0
    outer loop
      vertex 4.980823365907795 2.8055643814275957 0.27875140383361313
      vertex 5.02024038174871 3.1699079941104347 0.0
      vertex 5.02024038174871 3.1699079941104347 0.27875140383361313
    endloop
  endfacet
  facet normal 0.9999991850071972 0.0012767086359734168 0.0
    outer loop
      vertex 5.02024038174871 3.1699079941104347 0.27875140383361313
      vertex 5.02024038174871 3.1699079941104347 0.0
      vertex 5.019772506782934 3.536377344499351 0.0
    endloop
  endfacet
  facet normal 0.9999991850071972 0.0012767086359734168 0.0
    outer loop
      vertex 5.02024038174871 3.1699079941104347 0.27875140383361313
      vertex 5.019772506782934 3.536377344499351 0.0
      vertex 5.019772506782934 3.536377344499351 0.27875140383361313
    endloop
  endfacet
  facet normal 0.9991876475477935 -0.0402994415334298 0.0
    outer loop
      vertex 5.019772506782934 3.536377344499351 0.27875140383361313
      vertex 5.019772506782934 3.536377344499351 0.0
      vertex 5.029670865692158 3.7817980644089997 0.0
    endloop
  endfacet
  facet normal 0.9991876475477935 -0.0402994415334298 0.0
    outer loop
      vertex 5.019772506782934 3.536377344499351 0.27875140383361313
      vertex 5.029670865692158 3.7817980644089997 0.0
      vertex 5.029670865692158 3.7817980644089997 0.27875140383361313
    endloop
  endfacet
  facet normal 0.9932941112658507 0.11561491480161089 0.0
    outer loop
      vertex 5.029670865692158 3.7817980644089997 0.27875140383361313
      vertex 5.029670865692158 3.7817980644089997 0.0
      vertex 5.0012735619842275 4.025770691965895 0.0
    endloop
  endfacet
  facet normal 0.9932941112658507 0.11561491480161089 0.0
    outer loop
      vertex 5.029670865692158 3.7817980644089997 0.27875140383361313
      vertex 5.0012735619842275 4.025770691965895 0.0
      vertex 5.0012735619842275 4.025770691965895 0.27875140383361313
    endloop
  endfacet
  facet normal 0.9632214396874916 0.268708872436985 0.0
    outer loop
      vertex 5.0012735619842275 4.025770691965895 0.27875140383361313
      vertex 5.0012735619842275 4.025770691965895 0.0
      vertex 4.935273224611576 4.262357371845079 0.0
    endloop
  endfacet
  facet normal 0.9632214396874916 0.268708872436985 0.0
    outer loop
      vertex 5.0012735619842275 4.025770691965895 0.27875140383361313
      vertex 4.935273224611576 4.262357371845079 0.0
      vertex 4.935273224611576 4.262357371845079 0.27875140383361313
    endloop
  endfacet
  facet normal 0.9096971671635188 0.41527227701192515 0.0
    outer loop
      vertex 4.935273224611576 4.262357371845079 0.27875140383361313
      vertex 4.935273224611576 4.262357371845079 0.0
      vertex 4.833274065362853 4.4857971518594795 0.0
    endloop
  endfacet
  facet normal 0.9096971671635188 0.41527227701192515 0.0
    outer loop
      vertex 4.935273224611576 4.262357371845079 0.27875140383361313
      vertex 4.833274065362853 4.4857971518594795 0.0
      vertex 4.833274065362853 4.4857971518594795 0.27875140383361313
    endloop
  endfacet
  facet normal 0.8340306674417329 0.5517180854083882 0.0
    outer loop
      vertex 4.833274065362853 4.4857971518594795 0.27875140383361313
      vertex 4.833274065362853 4.4857971518594795 0.0
      vertex 4.697760944980883 4.690651952215764 0.0
    endloop
  endfacet
  facet normal 0.8340306674417329 0.5517180854083882 0.0
    outer loop
      vertex 4.833274065362853 4.4857971518594795 0.27875140383361313
      vertex 4.697760944980883 4.690651952215764 0.0
      vertex 4.697760944980883 4.690651952215764 0.27875140383361313
    endloop
  endfacet
  facet normal 0.7380600866553044 0.6747349913012993 0.0
    outer loop
      vertex 4.697760944980883 4.690651952215764 0.27875140383361313
      vertex 4.697760944980883 4.690651952215764 0.0
      vertex 4.532032188637625 4.871934651119637 0.0
    endloop
  endfacet
  facet normal 0.7380600866553044 0.6747349913012993 0.0
    outer loop
      vertex 4.697760944980883 4.690651952215764 0.27875140383361313
      vertex 4.532032188637625 4.871934651119637 0.0
      vertex 4.532032188637625 4.871934651119637 0.27875140383361313
    endloop
  endfacet
  facet normal 0.6241196434630515 0.7813287852393213 0.0
    outer loop
      vertex 4.532032188637625 4.871934651119637 0.27875140383361313
      vertex 4.532032188637625 4.871934651119637 0.0
      vertex 4.340122251229083 5.025230886936353 0.0
    endloop
  endfacet
  facet normal 0.6241196434630515 0.7813287852393213 0.0
    outer loop
      vertex 4.532032188637625 4.871934651119637 0.27875140383361313
      vertex 4.340122251229083 5.025230886936353 0.0
      vertex 4.340122251229083 5.025230886936353 0.27875140383361313
    endloop
  endfacet
  facet normal 0.49498925315655073 0.8688990961322955 0.0
    outer loop
      vertex 4.340122251229083 5.025230886936353 0.27875140383361313
      vertex 4.340122251229083 5.025230886936353 0.0
      vertex 4.1267031156263245 5.146810226829281 0.0
    endloop
  endfacet
  facet normal 0.49498925315655073 0.8688990961322955 0.0
    outer loop
      vertex 4.340122251229083 5.025230886936353 0.27875140383361313
      vertex 4.1267031156263245 5.146810226829281 0.0
      vertex 4.1267031156263245 5.146810226829281 0.27875140383361313
    endloop
  endfacet
  facet normal 0.35380839915646134 0.9353179227868682 0.0
    outer loop
      vertex 4.1267031156263245 5.146810226829281 0.27875140383361313
      vertex 4.1267031156263245 5.146810226829281 0.0
      vertex 3.896970223985473 5.233712684961216 0.0
    endloop
  endfacet
  facet normal 0.35380839915646134 0.9353179227868682 0.0
    outer loop
      vertex 4.1267031156263245 5.146810226829281 0.27875140383361313
      vertex 3.896970223985473 5.233712684961216 0.0
      vertex 3.896970223985473 5.233712684961216 0.27875140383361313
    endloop
  endfacet
  facet normal 0.12081568953091737 0.9926749564500803 0.0
    outer loop
      vertex 3.896970223985473 5.233712684961216 0.27875140383361313
      vertex 3.896970223985473 5.233712684961216 0.0
      vertex 3.6168629554766962 5.267803756331174 0.0
    endloop
  endfacet
  facet normal 0.12081568953091737 0.9926749564500803 0.0
    outer loop
      vertex 3.896970223985473 5.233712684961216 0.27875140383361313
      vertex 3.6168629554766962 5.267803756331174 0.0
      vertex 3.6168629554766962 5.267803756331174 0.27875140383361313
    endloop
  endfacet
  facet normal 0.01441595350166106 0.9998960847431286 0.0
    outer loop
      vertex 3.6168629554766962 5.267803756331174 0.27875140383361313
      vertex 3.6168629554766962 5.267803756331174 0.0
      vertex 3.3347184008307855 5.271871561818749 0.0
    endloop
  endfacet
  facet normal 0.01441595350166106 0.9998960847431286 0.0
    outer loop
      vertex 3.6168629554766962 5.267803756331174 0.27875140383361313
      vertex 3.3347184008307855 5.271871561818749 0.0
      vertex 3.3347184008307855 5.271871561818749 0.27875140383361313
    endloop
  endfacet
  facet normal -0.09214817178636919 0.995745306007731 0.0
    outer loop
      vertex 3.3347184008307855 5.271871561818749 0.27875140383361313
      vertex 3.3347184008307855 5.271871561818749 0.0
      vertex 3.0537445002831283 5.245869700600886 0.0
    endloop
  endfacet
  facet normal -0.09214817178636919 0.995745306007731 0.0
    outer loop
      vertex 3.3347184008307855 5.271871561818749 0.27875140383361313
      vertex 3.0537445002831283 5.245869700600886 0.0
      vertex 3.0537445002831283 5.245869700600886 0.27875140383361313
    endloop
  endfacet
  facet normal -0.13357713627529386 -0.9910384193685386 -0.0
    outer loop
      vertex 1.8830386844452707 5.968826907661527 0.27875140383361313
      vertex 0.3250488823443418 6.17882059917084 0.27875140383361313
      vertex 1.8830386844452707 5.968826907661527 0.1267051808144724
    endloop
  endfacet
  facet normal -0.13357713627529386 -0.9910384193685386 0.0
    outer loop
      vertex 1.8830386844452707 5.968826907661527 0.1267051808144724
      vertex 0.3250488823443418 6.17882059917084 0.27875140383361313
      vertex 0.3250488823443418 6.17882059917084 0.1267051808144724
    endloop
  endfacet
  facet normal -1.0 0.0 0.0
    outer loop
      vertex 1.8830386844452707 5.031173092338473 0.27875140383361313
      vertex 1.8830386844452707 5.968826907661527 0.27875140383361313
      vertex 1.8830386844452707 5.031173092338473 0.1267051808144724
    endloop
  endfacet
  facet normal -1.0 0.0 0.0
    outer loop
      vertex 1.8830386844452707 5.031173092338473 0.1267051808144724
      vertex 1.8830386844452707 5.968826907661527 0.27875140383361313
      vertex 1.8830386844452707 5.968826907661527 0.1267051808144724
    endloop
  endfacet
  facet normal -0.1335771362752944 0.9910384193685386 0.0
    outer loop
      vertex 0.3250488823443418 4.821179400829159 0.27875140383361313
      vertex 1.8830386844452707 5.031173092338473 0.27875140383361313
      vertex 0.3250488823443418 4.821179400829159 0.1267051808144724
    endloop
  endfacet
  facet normal -0.1335771362752944 0.9910384193685386 0.0
    outer loop
      vertex 0.3250488823443418 4.821179400829159 0.1267051808144724
      vertex 1.8830386844452707 5.031173092338473 0.27875140383361313
      vertex 1.8830386844452707 5.031173092338473 0.1267051808144724
    endloop
  endfacet
  facet normal 0.0 0.0 1.0
    outer loop
      vertex 4.1267031156263245 5.146810226829281 0.27875140383361313
      vertex 3.896970223985473 5.233712684961216 0.27875140383361313
      vertex 3.6168629554766962 5.267803756331174 0.27875140383361313
    endloop
  endfacet
  facet normal 0.0 0.0 1.0
    outer loop
      vertex 0.39409379038788495 6.184235478552647 0.27875140383361313
      vertex 0.3250488823443418 6.17882059917084 0.27875140383361313
      vertex 1.8830386844452707 5.968826907661527 0.27875140383361313
    endloop
  endfacet
  facet normal 0.0 0.0 1.0
    outer loop
      vertex 4.1267031156263245 5.853189773170718 0.27875140383361313
      vertex 4.340122251229083 5.974769113063646 0.27875140383361313
      vertex 5.019772506782934 7.4636221721587415 0.27875140383361313
    endloop
  endfacet
  facet normal 0.0 0.0 1.0
    outer loop
      vertex 3.3347184008307855 5.271871561818749 0.27875140383361313
      vertex 3.0537445002831283 5.245869700600886 0.27875140383361313
      vertex 3.6168629554766962 5.267803756331174 0.27875140383361313
    endloop
  endfacet
  facet normal 0.0 0.0 1.0
    outer loop
      vertex 3.6168629554766962 5.267803756331174 0.27875140383361313
      vertex 3.0537445002831283 5.245869700600886 0.27875140383361313
      vertex 5.019772506782934 3.536377344499351 0.27875140383361313
    endloop
  endfacet
  facet normal 0.0 0.0 1.0
    outer loop
      vertex 1.8830386844452707 5.031173092338473 0.27875140383361313
      vertex 3.0537445002831283 5.245869700600886 0.27875140383361313
      vertex 3.0537445002831283 5.7541302993991135 0.27875140383361313
    endloop
  endfacet
  facet normal 0.0 0.0 1.0
    outer loop
      vertex 1.8830386844452707 5.031173092338473 0.27875140383361313
      vertex 0.3250488823443418 4.821179400829159 0.27875140383361313
      vertex 0.39409379038788495 4.815764521447352 0.27875140383361313
    endloop
  endfacet
  facet normal 0.0 -0.0 1.0
    outer loop
      vertex 3.896970223985473 5.766287315038783 0.27875140383361313
      vertex 4.1267031156263245 5.853189773170718 0.27875140383361313
      vertex 3.6168629554766962 5.732196243668825 0.27875140383361313
    endloop
  endfacet
  facet normal 0.0 0.0 1.0
    outer loop
      vertex 3.6168629554766962 5.732196243668825 0.27875140383361313
      vertex 4.1267031156263245 5.853189773170718 0.27875140383361313
      vertex 5.019772506782934 7.4636221721587415 0.27875140383361313
    endloop
  endfacet
  facet normal 0.0 -0.0 1.0
    outer loop
      vertex 3.6168629554766962 5.732196243668825 0.27875140383361313
      vertex 5.019772506782934 7.4636221721587415 0.27875140383361313
      vertex 3.3347184008307855 5.728128438181251 0.27875140383361313
    endloop
  endfacet
  facet normal 0.0 -0.0 1.0
    outer loop
      vertex 3.3347184008307855 5.728128438181251 0.27875140383361313
      vertex 5.019772506782934 7.4636221721587415 0.27875140383361313
      vertex 3.0537445002831283 5.7541302993991135 0.27875140383361313
    endloop
  endfacet
  facet normal 0.0 0.0 1.0
    outer loop
      vertex 4.059957465033398 10.291871239297876 0.27875140383361313
      vertex 2.0011875051547316 10.290364179232494 0.27875140383361313
      vertex 4.630276264612469 9.23186667039865 0.27875140383361313
    endloop
  endfacet
  facet normal 0.0 0.0 1.0
    outer loop
      vertex 4.630276264612469 9.23186667039865 0.27875140383361313
      vertex 2.0011875051547316 10.290364179232494 0.27875140383361313
      vertex 3.0537445002831283 5.7541302993991135 0.27875140383361313
    endloop
  endfacet
  facet normal 0.0 0.0 1.0
    outer loop
      vertex 3.954455043644236 10.475695833289576 0.27875140383361313
      vertex 3.8191014260915077 10.638795693001784 0.27875140383361313
      vertex 3.657876449635751 10.77637606671911 0.27875140383361313
    endloop
  endfacet
  facet normal 0.0 0.0 1.0
    outer loop
      vertex 2.072771166563707 10.44342212748916 0.27875140383361313
      vertex 3.0530813551870075 11.0 0.27875140383361313
      vertex 2.1670189716531834 10.583665715112918 0.27875140383361313
    endloop
  endfacet
  facet normal 0.0 0.0 1.0
    outer loop
      vertex 2.1670189716531834 10.583665715112918 0.27875140383361313
      vertex 3.0530813551870075 11.0 0.27875140383361313
      vertex 2.884354428995909 10.990938305931435 0.27875140383361313
    endloop
  endfacet
  facet normal 0.0 0.0 1.0
    outer loop
      vertex 2.1670189716531834 10.583665715112918 0.27875140383361313
      vertex 2.884354428995909 10.990938305931435 0.27875140383361313
      vertex 2.2816935307366126 10.707765683049773 0.27875140383361313
    endloop
  endfacet
  facet normal 0.0 0.0 1.0
    outer loop
      vertex 2.2816935307366126 10.707765683049773 0.27875140383361313
      vertex 2.884354428995909 10.990938305931435 0.27875140383361313
      vertex 2.719022496358128 10.956062287304844 0.27875140383361313
    endloop
  endfacet
  facet normal 0.0 0.0 1.0
    outer loop
      vertex 2.2816935307366126 10.707765683049773 0.27875140383361313
      vertex 2.719022496358128 10.956062287304844 0.27875140383361313
      vertex 2.4140719371820736 10.8127746123521 0.27875140383361313
    endloop
  endfacet
  facet normal 0.0 0.0 1.0
    outer loop
      vertex 2.4140719371820736 10.8127746123521 0.27875140383361313
      vertex 2.719022496358128 10.956062287304844 0.27875140383361313
      vertex 2.5610112602406416 10.89620039214847 0.27875140383361313
    endloop
  endfacet
  facet normal 0.0 -0.0 1.0
    outer loop
      vertex 5.019772506782934 3.536377344499351 0.27875140383361313
      vertex 5.029670865692158 3.7817980644089997 0.27875140383361313
      vertex 5.0012735619842275 4.025770691965895 0.27875140383361313
    endloop
  endfacet
  facet normal 0.0 0.0 1.0
    outer loop
      vertex 5.019772506782934 3.536377344499351 0.27875140383361313
      vertex 5.0012735619842275 4.025770691965895 0.27875140383361313
      vertex 3.6168629554766962 5.267803756331174 0.27875140383361313
    endloop
  endfacet
  facet normal 0.0 0.0 1.0
    outer loop
      vertex 3.6168629554766962 5.267803756331174 0.27875140383361313
      vertex 5.0012735619842275 4.025770691965895 0.27875140383361313
      vertex 4.935273224611576 4.262357371845079 0.27875140383361313
    endloop
  endfacet
  facet normal 0.0 0.0 1.0
    outer loop
      vertex 3.6168629554766962 5.267803756331174 0.27875140383361313
      vertex 4.935273224611576 4.262357371845079 0.27875140383361313
      vertex 4.833274065362853 4.4857971518594795 0.27875140383361313
    endloop
  endfacet
  facet normal 0.0 0.0 1.0
    outer loop
      vertex 1.8830386844452707 5.031173092338473 0.27875140383361313
      vertex 3.0537445002831283 5.7541302993991135 0.27875140383361313
      vertex 1.8830386844452707 5.968826907661527 0.27875140383361313
    endloop
  endfacet
  facet normal -0.0 0.0 1.0
    outer loop
      vertex 1.8830386844452707 5.968826907661527 0.27875140383361313
      vertex 3.0537445002831283 5.7541302993991135 0.27875140383361313
      vertex 2.0011875051547316 10.290364179232494 0.27875140383361313
    endloop
  endfacet
  facet normal 0.0 -0.0 1.0
    outer loop
      vertex 1.8830386844452707 5.968826907661527 0.27875140383361313
      vertex 2.0011875051547316 10.290364179232494 0.27875140383361313
      vertex 0.7456648515127524 6.483012794895136 0.27875140383361313
    endloop
  endfacet
  facet normal -0.0 0.0 1.0
    outer loop
      vertex 0.39409379038788495 4.815764521447352 0.27875140383361313
      vertex 0.4614503851509984 4.799652318984391 0.27875140383361313
      vertex 1.8830386844452707 5.031173092338473 0.27875140383361313
    endloop
  endfacet
  facet normal 0.0 0.0 1.0
    outer loop
      vertex 1.8830386844452707 5.031173092338473 0.27875140383361313
      vertex 0.4614503851509984 4.799652318984391 0.27875140383361313
      vertex 0.5254716790862833 4.7732357504105 0.27875140383361313
    endloop
  endfacet
  facet normal 0.0 0.0 1.0
    outer loop
      vertex 1.8830386844452707 5.031173092338473 0.27875140383361313
      vertex 0.5254716790862833 4.7732357504105 0.27875140383361313
      vertex 0.5845921277576358 4.737162493880781 0.27875140383361313
    endloop
  endfacet
  facet normal 0.0 0.0 1.0
    outer loop
      vertex 4.340122251229083 5.974769113063646 0.27875140383361313
      vertex 4.532032188637625 6.128065348880362 0.27875140383361313
      vertex 4.697760944980883 6.309348047784235 0.27875140383361313
    endloop
  endfacet
  facet normal 0.0 0.0 1.0
    outer loop
      vertex 4.784675970002395 8.899510141765498 0.27875140383361313
      vertex 4.630276264612469 9.23186667039865 0.27875140383361313
      vertex 4.90198981756787 8.552325650115735 0.27875140383361313
    endloop
  endfacet
  facet normal 0.0 0.0 1.0
    outer loop
      vertex 4.90198981756787 8.552325650115735 0.27875140383361313
      vertex 4.630276264612469 9.23186667039865 0.27875140383361313
      vertex 3.0537445002831283 5.7541302993991135 0.27875140383361313
    endloop
  endfacet
  facet normal 0.0 0.0 1.0
    outer loop
      vertex 4.90198981756787 8.552325650115735 0.27875140383361313
      vertex 3.0537445002831283 5.7541302993991135 0.27875140383361313
      vertex 4.980823365907795 8.194435135230497 0.27875140383361313
    endloop
  endfacet
  facet normal 0.0 0.0 1.0
    outer loop
      vertex 4.980823365907795 8.194435135230497 0.27875140383361313
      vertex 3.0537445002831283 5.7541302993991135 0.27875140383361313
      vertex 5.019772506782934 7.4636221721587415 0.27875140383361313
    endloop
  endfacet
  facet normal 0.0 0.0 1.0
    outer loop
      vertex 4.980823365907795 8.194435135230497 0.27875140383361313
      vertex 5.019772506782934 7.4636221721587415 0.27875140383361313
      vertex 5.02024038174871 7.830092005889565 0.27875140383361313
    endloop
  endfacet
  facet normal 0.0 0.0 1.0
    outer loop
      vertex 3.954455043644236 10.475695833289576 0.27875140383361313
      vertex 3.0530813551870075 11.0 0.27875140383361313
      vertex 4.059957465033398 10.291871239297876 0.27875140383361313
    endloop
  endfacet
  facet normal 0.0 0.0 1.0
    outer loop
      vertex 4.059957465033398 10.291871239297876 0.27875140383361313
      vertex 3.0530813551870075 11.0 0.27875140383361313
      vertex 2.072771166563707 10.44342212748916 0.27875140383361313
    endloop
  endfacet
  facet normal 0.0 0.0 1.0
    outer loop
      vertex 4.059957465033398 10.291871239297876 0.27875140383361313
      vertex 2.072771166563707 10.44342212748916 0.27875140383361313
      vertex 2.0011875051547316 10.290364179232494 0.27875140383361313
    endloop
  endfacet
  facet normal 0.0 0.0 1.0
    outer loop
      vertex 3.657876449635751 10.77637606671911 0.27875140383361313
      vertex 3.475518314989263 10.88439331604932 0.27875140383361313
      vertex 3.277388733924103 10.959672851348591 0.27875140383361313
    endloop
  endfacet
  facet normal -0.0 -0.0 1.0
    outer loop
      vertex 2.884354428995909 0.009062177410471127 0.27875140383361313
      vertex 3.0530813551870075 0.0 0.27875140383361313
      vertex 2.719022496358128 0.043937833530632034 0.27875140383361313
    endloop
  endfacet
  facet normal -0.0 0.0 1.0
    outer loop
      vertex 2.719022496358128 0.043937833530632034 0.27875140383361313
      vertex 3.0530813551870075 0.0 0.27875140383361313
      vertex 4.059957465033398 0.7081290023730769 0.27875140383361313
    endloop
  endfacet
  facet normal 0.0 -0.0 1.0
    outer loop
      vertex 2.719022496358128 0.043937833530632034 0.27875140383361313
      vertex 4.059957465033398 0.7081290023730769 0.27875140383361313
      vertex 2.5610112602406416 0.10379960785152896 0.27875140383361313
    endloop
  endfacet
  facet normal 0.0 0.0 1.0
    outer loop
      vertex 3.0530813551870075 0.0 0.27875140383361313
      vertex 3.0693124597590398 0.0 0.27875140383361313
      vertex 3.277388733924103 0.040326906980454574 0.27875140383361313
    endloop
  endfacet
  facet normal 0.0 0.0 1.0
    outer loop
      vertex 5.02024038174871 3.1699079941104347 0.27875140383361313
      vertex 5.019772506782934 3.536377344499351 0.27875140383361313
      vertex 4.980823365907795 2.8055643814275957 0.27875140383361313
    endloop
  endfacet
  facet normal 0.0 -0.0 1.0
    outer loop
      vertex 4.980823365907795 2.8055643814275957 0.27875140383361313
      vertex 5.019772506782934 3.536377344499351 0.27875140383361313
      vertex 3.0537445002831283 5.245869700600886 0.27875140383361313
    endloop
  endfacet
  facet normal 0.0 0.0 1.0
    outer loop
      vertex 4.980823365907795 2.8055643814275957 0.27875140383361313
      vertex 3.0537445002831283 5.245869700600886 0.27875140383361313
      vertex 4.90198981756787 2.4476743498842635 0.27875140383361313
    endloop
  endfacet
  facet normal 0.0 0.0 1.0
    outer loop
      vertex 4.90198981756787 2.4476743498842635 0.27875140383361313
      vertex 3.0537445002831283 5.245869700600886 0.27875140383361313
      vertex 4.630276264612469 1.7681333296013477 0.27875140383361313
    endloop
  endfacet
  facet normal 0.0 0.0 1.0
    outer loop
      vertex 4.90198981756787 2.4476743498842635 0.27875140383361313
      vertex 4.630276264612469 1.7681333296013477 0.27875140383361313
      vertex 4.784675970002395 2.1004893748925935 0.27875140383361313
    endloop
  endfacet
  facet normal -0.0 0.0 1.0
    outer loop
      vertex 0.39409379038788495 6.184235478552647 0.27875140383361313
      vertex 1.8830386844452707 5.968826907661527 0.27875140383361313
      vertex 0.4614503851509984 6.200347681015608 0.27875140383361313
    endloop
  endfacet
  facet normal -0.0 0.0 1.0
    outer loop
      vertex 0.5845921277576358 4.737162493880781 0.27875140383361313
      vertex 0.6373660555218363 4.69231368169132 0.27875140383361313
      vertex 1.8830386844452707 5.031173092338473 0.27875140383361313
    endloop
  endfacet
  facet normal 0.0 0.0 1.0
    outer loop
      vertex 1.8830386844452707 5.031173092338473 0.27875140383361313
      vertex 0.6373660555218363 4.69231368169132 0.27875140383361313
      vertex 0.6825030603232229 4.639785533286724 0.27875140383361313
    endloop
  endfacet
  facet normal 0.0 0.0 1.0
    outer loop
      vertex 1.8830386844452707 5.031173092338473 0.27875140383361313
      vertex 0.6825030603232229 4.639785533286724 0.27875140383361313
      vertex 0.7188993100821562 4.580862771455251 0.27875140383361313
    endloop
  endfacet
  facet normal 0.0 0.0 1.0
    outer loop
      vertex 5.029670865692158 7.218202418932906 0.27875140383361313
      vertex 5.019772506782934 7.4636221721587415 0.27875140383361313
      vertex 5.0012735619842275 6.974228824692197 0.27875140383361313
    endloop
  endfacet
  facet normal 0.0 -0.0 1.0
    outer loop
      vertex 5.0012735619842275 6.974228824692197 0.27875140383361313
      vertex 5.019772506782934 7.4636221721587415 0.27875140383361313
      vertex 4.340122251229083 5.974769113063646 0.27875140383361313
    endloop
  endfacet
  facet normal 0.0 0.0 1.0
    outer loop
      vertex 5.0012735619842275 6.974228824692197 0.27875140383361313
      vertex 4.340122251229083 5.974769113063646 0.27875140383361313
      vertex 4.935273224611576 6.73764262815492 0.27875140383361313
    endloop
  endfacet
  facet normal 0.0 0.0 1.0
    outer loop
      vertex 4.935273224611576 6.73764262815492 0.27875140383361313
      vertex 4.340122251229083 5.974769113063646 0.27875140383361313
      vertex 4.697760944980883 6.309348047784235 0.27875140383361313
    endloop
  endfacet
  facet normal 0.0 0.0 1.0
    outer loop
      vertex 4.935273224611576 6.73764262815492 0.27875140383361313
      vertex 4.697760944980883 6.309348047784235 0.27875140383361313
      vertex 4.833274065362853 6.51420284814052 0.27875140383361313
    endloop
  endfacet
  facet normal 0.0 0.0 1.0
    outer loop
      vertex 3.954455043644236 10.475695833289576 0.27875140383361313
      vertex 3.657876449635751 10.77637606671911 0.27875140383361313
      vertex 3.0530813551870075 11.0 0.27875140383361313
    endloop
  endfacet
  facet normal 0.0 0.0 1.0
    outer loop
      vertex 3.0530813551870075 11.0 0.27875140383361313
      vertex 3.657876449635751 10.77637606671911 0.27875140383361313
      vertex 3.277388733924103 10.959672851348591 0.27875140383361313
    endloop
  endfacet
  facet normal -0.0 0.0 1.0
    outer loop
      vertex 3.0530813551870075 11.0 0.27875140383361313
      vertex 3.277388733924103 10.959672851348591 0.27875140383361313
      vertex 3.0693124597590398 11.0 0.27875140383361313
    endloop
  endfacet
  facet normal -0.0 -0.0 1.0
    outer loop
      vertex 2.4140719371820736 0.18722514597694537 0.27875140383361313
      vertex 2.5610112602406416 0.10379960785152896 0.27875140383361313
      vertex 2.2816935307366126 0.29223443778570174 0.27875140383361313
    endloop
  endfacet
  facet normal -0.0 0.0 1.0
    outer loop
      vertex 2.2816935307366126 0.29223443778570174 0.27875140383361313
      vertex 2.5610112602406416 0.10379960785152896 0.27875140383361313
      vertex 4.059957465033398 0.7081290023730769 0.27875140383361313
    endloop
  endfacet
  facet normal 0.0 -0.0 1.0
    outer loop
      vertex 2.2816935307366126 0.29223443778570174 0.27875140383361313
      vertex 4.059957465033398 0.7081290023730769 0.27875140383361313
      vertex 2.1670189716531834 0.4163339223806504 0.27875140383361313
    endloop
  endfacet
  facet normal 0.0 -0.0 1.0
    outer loop
      vertex 2.1670189716531834 0.4163339223806504 0.27875140383361313
      vertex 4.059957465033398 0.7081290023730769 0.27875140383361313
      vertex 2.0011875051547316 0.7096355790965522 0.27875140383361313
    endloop
  endfacet
  facet normal 0.0 0.0 1.0
    outer loop
      vertex 2.1670189716531834 0.4163339223806504 0.27875140383361313
      vertex 2.0011875051547316 0.7096355790965522 0.27875140383361313
      vertex 2.072771166563707 0.5565776308398852 0.27875140383361313
    endloop
  endfacet
  facet normal 0.0 -0.0 1.0
    outer loop
      vertex 3.954455043644236 0.5243046500523305 0.27875140383361313
      vertex 4.059957465033398 0.7081290023730769 0.27875140383361313
      vertex 3.8191014260915077 0.36120454866916857 0.27875140383361313
    endloop
  endfacet
  facet normal 0.0 -0.0 1.0
    outer loop
      vertex 3.8191014260915077 0.36120454866916857 0.27875140383361313
      vertex 4.059957465033398 0.7081290023730769 0.27875140383361313
      vertex 3.0530813551870075 0.0 0.27875140383361313
    endloop
  endfacet
  facet normal 0.0 0.0 1.0
    outer loop
      vertex 3.8191014260915077 0.36120454866916857 0.27875140383361313
      vertex 3.0530813551870075 0.0 0.27875140383361313
      vertex 3.657876449635751 0.22362344993898245 0.27875140383361313
    endloop
  endfacet
  facet normal 0.0 0.0 1.0
    outer loop
      vertex 3.657876449635751 0.22362344993898245 0.27875140383361313
      vertex 3.0530813551870075 0.0 0.27875140383361313
      vertex 3.277388733924103 0.040326906980454574 0.27875140383361313
    endloop
  endfacet
  facet normal 0.0 0.0 1.0
    outer loop
      vertex 3.657876449635751 0.22362344993898245 0.27875140383361313
      vertex 3.277388733924103 0.040326906980454574 0.27875140383361313
      vertex 3.475518314989263 0.11560607977329682 0.27875140383361313
    endloop
  endfacet
  facet normal 0.0 0.0 1.0
    outer loop
      vertex 4.340122251229083 5.025230886936353 0.27875140383361313
      vertex 4.1267031156263245 5.146810226829281 0.27875140383361313
      vertex 4.532032188637625 4.871934651119637 0.27875140383361313
    endloop
  endfacet
  facet normal 0.0 0.0 1.0
    outer loop
      vertex 4.532032188637625 4.871934651119637 0.27875140383361313
      vertex 4.1267031156263245 5.146810226829281 0.27875140383361313
      vertex 3.6168629554766962 5.267803756331174 0.27875140383361313
    endloop
  endfacet
  facet normal 0.0 0.0 1.0
    outer loop
      vertex 4.532032188637625 4.871934651119637 0.27875140383361313
      vertex 3.6168629554766962 5.267803756331174 0.27875140383361313
      vertex 4.697760944980883 4.690651952215764 0.27875140383361313
    endloop
  endfacet
  facet normal 0.0 0.0 1.0
    outer loop
      vertex 4.697760944980883 4.690651952215764 0.27875140383361313
      vertex 3.6168629554766962 5.267803756331174 0.27875140383361313
      vertex 4.833274065362853 4.4857971518594795 0.27875140383361313
    endloop
  endfacet
  facet normal 0.0 0.0 1.0
    outer loop
      vertex 0.7456648515127524 6.483012794895136 0.27875140383361313
      vertex 0.7188993100821562 6.4191367452028425 0.27875140383361313
      vertex 1.8830386844452707 5.968826907661527 0.27875140383361313
    endloop
  endfacet
  facet normal 0.0 0.0 1.0
    outer loop
      vertex 1.8830386844452707 5.968826907661527 0.27875140383361313
      vertex 0.7188993100821562 6.4191367452028425 0.27875140383361313
      vertex 0.6825030603232229 6.360214466713275 0.27875140383361313
    endloop
  endfacet
  facet normal 0.0 0.0 1.0
    outer loop
      vertex 1.8830386844452707 5.968826907661527 0.27875140383361313
      vertex 0.6825030603232229 6.360214466713275 0.27875140383361313
      vertex 0.6373660555218363 6.307686318308679 0.27875140383361313
    endloop
  endfacet
  facet normal 0.0 0.0 1.0
    outer loop
      vertex 0.6373660555218363 6.307686318308679 0.27875140383361313
      vertex 0.5845921277576358 6.262837506119218 0.27875140383361313
      vertex 1.8830386844452707 5.968826907661527 0.27875140383361313
    endloop
  endfacet
  facet normal 0.0 0.0 1.0
    outer loop
      vertex 1.8830386844452707 5.968826907661527 0.27875140383361313
      vertex 0.5845921277576358 6.262837506119218 0.27875140383361313
      vertex 0.5254716790862833 6.2267637662475925 0.27875140383361313
    endloop
  endfacet
  facet normal 0.0 0.0 1.0
    outer loop
      vertex 1.8830386844452707 5.968826907661527 0.27875140383361313
      vertex 0.5254716790862833 6.2267637662475925 0.27875140383361313
      vertex 0.4614503851509984 6.200347681015608 0.27875140383361313
    endloop
  endfacet
  facet normal -0.0 0.0 1.0
    outer loop
      vertex 0.7188993100821562 4.580862771455251 0.27875140383361313
      vertex 0.7456648515127524 4.516987205104863 0.27875140383361313
      vertex 1.8830386844452707 5.031173092338473 0.27875140383361313
    endloop
  endfacet
  facet normal 0.0 0.0 1.0
    outer loop
      vertex 1.8830386844452707 5.031173092338473 0.27875140383361313
      vertex 0.7456648515127524 4.516987205104863 0.27875140383361313
      vertex 2.0011875051547316 0.7096355790965522 0.27875140383361313
    endloop
  endfacet
  facet normal -0.0 0.0 1.0
    outer loop
      vertex 1.8830386844452707 5.031173092338473 0.27875140383361313
      vertex 2.0011875051547316 0.7096355790965522 0.27875140383361313
      vertex 3.0537445002831283 5.245869700600886 0.27875140383361313
    endloop
  endfacet
  facet normal 0.0 0.0 1.0
    outer loop
      vertex 3.0537445002831283 5.245869700600886 0.27875140383361313
      vertex 2.0011875051547316 0.7096355790965522 0.27875140383361313
      vertex 4.059957465033398 0.7081290023730769 0.27875140383361313
    endloop
  endfacet
  facet normal 0.0 0.0 1.0
    outer loop
      vertex 3.0537445002831283 5.245869700600886 0.27875140383361313
      vertex 4.059957465033398 0.7081290023730769 0.27875140383361313
      vertex 4.630276264612469 1.7681333296013477 0.27875140383361313
    endloop
  endfacet
endsolid thingi10k_65609
