solid thingi10k_65610
  facet normal -0.024326399165260984 -0.9997040693643556 -0.0
    outer loop
      vertex 1.7752426568469684 0.07445469395210795 0.6991970036557146
      vertex 1.7752426568469684 0.07445469395210795 0.0
      vertex 4.834991040549093 0.0 0.6991970036557146
    endloop
  endfacet
  facet normal -0.024326399165260984 -0.9997040693643556 -0.0
    outer loop
      vertex 4.834991040549093 0.0 0.6991970036557146
      vertex 1.7752426568469684 0.07445469395210795 0.0
      vertex 4.834991040549093 0.0 0.0
    endloop
  endfacet
  facet normal 0.1576072847139038 -0.9875018702792975 0.0
    outer loop
      vertex 4.834991040549093 0.0 0.6991970036557146
      vertex 4.834991040549093 0.0 0.0
      vertex 5.152632187261818 0.05069616590462165 0.0
    endloop
  endfacet
  facet normal 0.1576072847139038 -0.9875018702792975 0.0
    outer loop
      vertex 4.834991040549093 0.0 0.6991970036557146
      vertex 5.152632187261818 0.05069616590462165 0.0
      vertex 5.152632187261818 0.05069616590462165 0.6991970036557146
    endloop
  endfacet
  facet normal 0.20844506545221939 -0.9780340764455092 0.0
    outer loop
      vertex 5.152632187261818 0.05069616590462165 0.6991970036557146
      vertex 5.152632187261818 0.05069616590462165 0.0
      vertex 5.455003026896134 0.11513943120216676 0.0
    endloop
  endfacet
  facet normal 0.20844506545221939 -0.9780340764455092 0.0
    outer loop
      vertex 5.152632187261818 0.05069616590462165 0.6991970036557146
      vertex 5.455003026896134 0.11513943120216676 0.0
      vertex 5.455003026896134 0.11513943120216676 0.6991970036557146
    endloop
  endfacet
  facet normal 0.2991264233089772 -0.9542134891513421 0.0
    outer loop
      vertex 5.455003026896134 0.11513943120216676 0.6991970036557146
      vertex 5.455003026896134 0.11513943120216676 0.0
      vertex 5.743061537727896 0.20543988600442434 0.0
    endloop
  endfacet
  facet normal 0.2991264233089772 -0.9542134891513421 0.0
    outer loop
      vertex 5.455003026896134 0.11513943120216676 0.6991970036557146
      vertex 5.743061537727896 0.20543988600442434 0.0
      vertex 5.743061537727896 0.20543988600442434 0.6991970036557146
    endloop
  endfacet
  facet normal 0.3963497652450372 -0.9180995935029075 0.0
    outer loop
      vertex 5.743061537727896 0.20543988600442434 0.6991970036557146
      vertex 5.743061537727896 0.20543988600442434 0.0
      vertex 6.037832564552904 0.3326945194994346 0.0
    endloop
  endfacet
  facet normal 0.3963497652450372 -0.9180995935029075 0.0
    outer loop
      vertex 5.743061537727896 0.20543988600442434 0.6991970036557146
      vertex 6.037832564552904 0.3326945194994346 0.0
      vertex 6.037832564552904 0.3326945194994346 0.6991970036557146
    endloop
  endfacet
  facet normal 0.4877895129989825 -0.8729612769236763 0.0
    outer loop
      vertex 6.037832564552904 0.3326945194994346 0.6991970036557146
      vertex 6.037832564552904 0.3326945194994346 0.0
      vertex 6.325162033912552 0.49324723315829333 0.0
    endloop
  endfacet
  facet normal 0.4877895129989825 -0.8729612769236763 0.0
    outer loop
      vertex 6.037832564552904 0.3326945194994346 0.6991970036557146
      vertex 6.325162033912552 0.49324723315829333 0.0
      vertex 6.325162033912552 0.49324723315829333 0.6991970036557146
    endloop
  endfacet
  facet normal 0.5727766065077314 -0.8197115096407318 0.0
    outer loop
      vertex 6.325162033912552 0.49324723315829333 0.6991970036557146
      vertex 6.325162033912552 0.49324723315829333 0.0
      vertex 6.6013860678719825 0.6862598515568107 0.0
    endloop
  endfacet
  facet normal 0.5727766065077314 -0.8197115096407318 0.0
    outer loop
      vertex 6.325162033912552 0.49324723315829333 0.6991970036557146
      vertex 6.6013860678719825 0.6862598515568107 0.0
      vertex 6.6013860678719825 0.6862598515568107 0.6991970036557146
    endloop
  endfacet
  facet normal 0.6521336637850408 -0.7581040064254373 0.0
    outer loop
      vertex 6.6013860678719825 0.6862598515568107 0.6991970036557146
      vertex 6.6013860678719825 0.6862598515568107 0.0
      vertex 6.859755698364344 0.9085137010493509 0.0
    endloop
  endfacet
  facet normal 0.6521336637850408 -0.7581040064254373 0.0
    outer loop
      vertex 6.6013860678719825 0.6862598515568107 0.6991970036557146
      vertex 6.859755698364344 0.9085137010493509 0.0
      vertex 6.859755698364344 0.9085137010493509 0.6991970036557146
    endloop
  endfacet
  facet normal 0.7260384849841948 -0.6876540687888462 0.0
    outer loop
      vertex 6.859755698364344 0.9085137010493509 0.6991970036557146
      vertex 6.859755698364344 0.9085137010493509 0.0
      vertex 7.093415268326866 1.155216000762988 0.0
    endloop
  endfacet
  facet normal 0.7260384849841948 -0.6876540687888462 0.0
    outer loop
      vertex 6.859755698364344 0.9085137010493509 0.6991970036557146
      vertex 7.093415268326866 1.155216000762988 0.0
      vertex 7.093415268326866 1.155216000762988 0.6991970036557146
    endloop
  endfacet
  facet normal 0.7942021714716909 -0.6076536108916418 0.0
    outer loop
      vertex 7.093415268326866 1.155216000762988 0.6991970036557146
      vertex 7.093415268326866 1.155216000762988 0.0
      vertex 7.296138585772699 1.4201750103658057 0.0
    endloop
  endfacet
  facet normal 0.7942021714716909 -0.6076536108916418 0.0
    outer loop
      vertex 7.093415268326866 1.155216000762988 0.6991970036557146
      vertex 7.296138585772699 1.4201750103658057 0.0
      vertex 7.296138585772699 1.4201750103658057 0.6991970036557146
    endloop
  endfacet
  facet normal 0.8543723624642474 -0.5196612995569909 0.0
    outer loop
      vertex 7.296138585772699 1.4201750103658057 0.6991970036557146
      vertex 7.296138585772699 1.4201750103658057 0.0
      vertex 7.464766767347671 1.6974157015488494 0.0
    endloop
  endfacet
  facet normal 0.8543723624642474 -0.5196612995569909 0.0
    outer loop
      vertex 7.296138585772699 1.4201750103658057 0.6991970036557146
      vertex 7.464766767347671 1.6974157015488494 0.0
      vertex 7.464766767347671 1.6974157015488494 0.6991970036557146
    endloop
  endfacet
  facet normal 0.8981284383165469 -0.4397332239973239 0.0
    outer loop
      vertex 7.464766767347671 1.6974157015488494 0.6991970036557146
      vertex 7.464766767347671 1.6974157015488494 0.0
      vertex 7.607829598275518 1.9896128563473081 0.0
    endloop
  endfacet
  facet normal 0.8981284383165469 -0.4397332239973239 0.0
    outer loop
      vertex 7.464766767347671 1.6974157015488494 0.6991970036557146
      vertex 7.607829598275518 1.9896128563473081 0.0
      vertex 7.607829598275518 1.9896128563473081 0.6991970036557146
    endloop
  endfacet
  facet normal 0.9289815538433683 -0.3701260226176499 0.0
    outer loop
      vertex 7.607829598275518 1.9896128563473081 0.6991970036557146
      vertex 7.607829598275518 1.9896128563473081 0.0
      vertex 7.770457412905004 2.3977933967594023 0.0
    endloop
  endfacet
  facet normal 0.9289815538433683 -0.3701260226176499 0.0
    outer loop
      vertex 7.607829598275518 1.9896128563473081 0.6991970036557146
      vertex 7.770457412905004 2.3977933967594023 0.0
      vertex 7.770457412905004 2.3977933967594023 0.6991970036557146
    endloop
  endfacet
  facet normal 0.9499387429995994 -0.31243620876643124 0.0
    outer loop
      vertex 7.770457412905004 2.3977933967594023 0.6991970036557146
      vertex 7.770457412905004 2.3977933967594023 0.0
      vertex 7.943655439805179 2.9243889428171226 0.0
    endloop
  endfacet
  facet normal 0.9499387429995994 -0.31243620876643124 0.0
    outer loop
      vertex 7.770457412905004 2.3977933967594023 0.6991970036557146
      vertex 7.943655439805179 2.9243889428171226 0.0
      vertex 7.943655439805179 2.9243889428171226 0.6991970036557146
    endloop
  endfacet
  facet normal 0.9675256222998165 -0.25277296175293895 0.0
    outer loop
      vertex 7.943655439805179 2.9243889428171226 0.6991970036557146
      vertex 7.943655439805179 2.9243889428171226 0.0
      vertex 8.066570942928662 3.3948660770213723 0.0
    endloop
  endfacet
  facet normal 0.9675256222998165 -0.25277296175293895 0.0
    outer loop
      vertex 7.943655439805179 2.9243889428171226 0.6991970036557146
      vertex 8.066570942928662 3.3948660770213723 0.0
      vertex 8.066570942928662 3.3948660770213723 0.6991970036557146
    endloop
  endfacet
  facet normal 0.9817152257561195 -0.1903554977367647 0.0
    outer loop
      vertex 8.066570942928662 3.3948660770213723 0.6991970036557146
      vertex 8.066570942928662 3.3948660770213723 0.0
      vertex 8.154069255706851 3.846118743235958 0.0
    endloop
  endfacet
  facet normal 0.9817152257561195 -0.1903554977367647 0.0
    outer loop
      vertex 8.066570942928662 3.3948660770213723 0.6991970036557146
      vertex 8.154069255706851 3.846118743235958 0.0
      vertex 8.154069255706851 3.846118743235958 0.6991970036557146
    endloop
  endfacet
  facet normal 0.9923549956916407 -0.12341621662424984 0.0
    outer loop
      vertex 8.154069255706851 3.846118743235958 0.6991970036557146
      vertex 8.154069255706851 3.846118743235958 0.0
      vertex 8.20795786754561 4.279421874962113 0.0
    endloop
  endfacet
  facet normal 0.9923549956916407 -0.12341621662424984 0.0
    outer loop
      vertex 8.154069255706851 3.846118743235958 0.6991970036557146
      vertex 8.20795786754561 4.279421874962113 0.0
      vertex 8.20795786754561 4.279421874962113 0.6991970036557146
    endloop
  endfacet
  facet normal 0.9985312082486187 -0.05417957321310028 0.0
    outer loop
      vertex 8.20795786754561 4.279421874962113 0.6991970036557146
      vertex 8.20795786754561 4.279421874962113 0.0
      vertex 8.229540162345089 4.677184234922703 0.0
    endloop
  endfacet
  facet normal 0.9985312082486187 -0.05417957321310028 0.0
    outer loop
      vertex 8.20795786754561 4.279421874962113 0.6991970036557146
      vertex 8.229540162345089 4.677184234922703 0.0
      vertex 8.229540162345089 4.677184234922703 0.6991970036557146
    endloop
  endfacet
  facet normal 0.9999802027707902 0.0062923816229779475 0.0
    outer loop
      vertex 8.229540162345089 4.677184234922703 0.6991970036557146
      vertex 8.229540162345089 4.677184234922703 0.0
      vertex 8.225931407058123 5.25068470896131 0.0
    endloop
  endfacet
  facet normal 0.9999802027707902 0.0062923816229779475 0.0
    outer loop
      vertex 8.229540162345089 4.677184234922703 0.6991970036557146
      vertex 8.225931407058123 5.25068470896131 0.0
      vertex 8.225931407058123 5.25068470896131 0.6991970036557146
    endloop
  endfacet
  facet normal 0.9996216202679437 0.0275066590645073 0.0
    outer loop
      vertex 8.225931407058123 5.25068470896131 0.6991970036557146
      vertex 8.225931407058123 5.25068470896131 0.0
      vertex 8.198644807276835 6.2423091378316755 0.0
    endloop
  endfacet
  facet normal 0.9996216202679437 0.0275066590645073 0.0
    outer loop
      vertex 8.225931407058123 5.25068470896131 0.6991970036557146
      vertex 8.198644807276835 6.2423091378316755 0.0
      vertex 8.198644807276835 6.2423091378316755 0.6991970036557146
    endloop
  endfacet
  facet normal 0.9987904455058629 0.049169563412744935 0.0
    outer loop
      vertex 8.198644807276835 6.2423091378316755 0.6991970036557146
      vertex 8.198644807276835 6.2423091378316755 0.0
      vertex 8.157445073352726 7.079206961295333 0.0
    endloop
  endfacet
  facet normal 0.9987904455058629 0.049169563412744935 0.0
    outer loop
      vertex 8.198644807276835 6.2423091378316755 0.6991970036557146
      vertex 8.157445073352726 7.079206961295333 0.0
      vertex 8.157445073352726 7.079206961295333 0.6991970036557146
    endloop
  endfacet
  facet normal 0.9995431419058696 0.030224286078300633 0.0
    outer loop
      vertex 8.157445073352726 7.079206961295333 0.6991970036557146
      vertex 8.157445073352726 7.079206961295333 0.0
      vertex 8.134760325595417 7.829411084825026 0.0
    endloop
  endfacet
  facet normal 0.9995431419058696 0.030224286078300633 0.0
    outer loop
      vertex 8.157445073352726 7.079206961295333 0.6991970036557146
      vertex 8.134760325595417 7.829411084825026 0.0
      vertex 8.134760325595417 7.829411084825026 0.6991970036557146
    endloop
  endfacet
  facet normal 0.996771309911587 0.08029293703146688 0.0
    outer loop
      vertex 8.134760325595417 7.829411084825026 0.6991970036557146
      vertex 8.134760325595417 7.829411084825026 0.0
      vertex 8.103482668291788 8.217697683798063 0.0
    endloop
  endfacet
  facet normal 0.996771309911587 0.08029293703146688 0.0
    outer loop
      vertex 8.134760325595417 7.829411084825026 0.6991970036557146
      vertex 8.103482668291788 8.217697683798063 0.0
      vertex 8.103482668291788 8.217697683798063 0.6991970036557146
    endloop
  endfacet
  facet normal 0.9880535219726626 0.1541111213294394 0.0
    outer loop
      vertex 8.103482668291788 8.217697683798063 0.6991970036557146
      vertex 8.103482668291788 8.217697683798063 0.0
      vertex 8.05197411013699 8.547934800091493 0.0
    endloop
  endfacet
  facet normal 0.9880535219726626 0.1541111213294394 0.0
    outer loop
      vertex 8.103482668291788 8.217697683798063 0.6991970036557146
      vertex 8.05197411013699 8.547934800091493 0.0
      vertex 8.05197411013699 8.547934800091493 0.6991970036557146
    endloop
  endfacet
  facet normal 0.9702081137717838 0.24227301948710117 0.0
    outer loop
      vertex 8.05197411013699 8.547934800091493 0.6991970036557146
      vertex 8.05197411013699 8.547934800091493 0.0
      vertex 7.978053750239444 8.843956755393654 0.0
    endloop
  endfacet
  facet normal 0.9702081137717838 0.24227301948710117 0.0
    outer loop
      vertex 8.05197411013699 8.547934800091493 0.6991970036557146
      vertex 7.978053750239444 8.843956755393654 0.0
      vertex 7.978053750239444 8.843956755393654 0.6991970036557146
    endloop
  endfacet
  facet normal 0.9390580089542832 0.34375871744410724 0.0
    outer loop
      vertex 7.978053750239444 8.843956755393654 0.6991970036557146
      vertex 7.978053750239444 8.843956755393654 0.0
      vertex 7.863257279705409 9.157550388323697 0.0
    endloop
  endfacet
  facet normal 0.9390580089542832 0.34375871744410724 0.0
    outer loop
      vertex 7.978053750239444 8.843956755393654 0.6991970036557146
      vertex 7.863257279705409 9.157550388323697 0.0
      vertex 7.863257279705409 9.157550388323697 0.6991970036557146
    endloop
  endfacet
  facet normal 0.8970693527748442 0.4418897784653114 0.0
    outer loop
      vertex 7.863257279705409 9.157550388323697 0.6991970036557146
      vertex 7.863257279705409 9.157550388323697 0.0
      vertex 7.718344283773331 9.45173462567115 0.0
    endloop
  endfacet
  facet normal 0.8970693527748442 0.4418897784653114 0.0
    outer loop
      vertex 7.863257279705409 9.157550388323697 0.6991970036557146
      vertex 7.718344283773331 9.45173462567115 0.0
      vertex 7.718344283773331 9.45173462567115 0.6991970036557146
    endloop
  endfacet
  facet normal 0.8487362970097352 0.5288163179575706 0.0
    outer loop
      vertex 7.718344283773331 9.45173462567115 0.6991970036557146
      vertex 7.718344283773331 9.45173462567115 0.0
      vertex 7.538481750928073 9.740409265454344 0.0
    endloop
  endfacet
  facet normal 0.8487362970097352 0.5288163179575706 0.0
    outer loop
      vertex 7.718344283773331 9.45173462567115 0.6991970036557146
      vertex 7.538481750928073 9.740409265454344 0.0
      vertex 7.538481750928073 9.740409265454344 0.6991970036557146
    endloop
  endfacet
  facet normal 0.7924835268330275 0.6098933182928686 0.0
    outer loop
      vertex 7.538481750928073 9.740409265454344 0.6991970036557146
      vertex 7.538481750928073 9.740409265454344 0.0
      vertex 7.326343129592375 10.016058067910778 0.0
    endloop
  endfacet
  facet normal 0.7924835268330275 0.6098933182928686 0.0
    outer loop
      vertex 7.538481750928073 9.740409265454344 0.6991970036557146
      vertex 7.326343129592375 10.016058067910778 0.0
      vertex 7.326343129592375 10.016058067910778 0.6991970036557146
    endloop
  endfacet
  facet normal 0.7273417686563252 0.6862754196151053 0.0
    outer loop
      vertex 7.326343129592375 10.016058067910778 0.6991970036557146
      vertex 7.326343129592375 10.016058067910778 0.0
      vertex 7.08810037818016 10.26855713640269 0.0
    endloop
  endfacet
  facet normal 0.7273417686563252 0.6862754196151053 0.0
    outer loop
      vertex 7.326343129592375 10.016058067910778 0.6991970036557146
      vertex 7.08810037818016 10.26855713640269 0.0
      vertex 7.08810037818016 10.26855713640269 0.6991970036557146
    endloop
  endfacet
  facet normal 0.6519999389471852 0.758219018234749 0.0
    outer loop
      vertex 7.08810037818016 10.26855713640269 0.6991970036557146
      vertex 7.08810037818016 10.26855713640269 0.0
      vertex 6.831132818909169 10.489526050300627 0.0
    endloop
  endfacet
  facet normal 0.6519999389471852 0.758219018234749 0.0
    outer loop
      vertex 7.08810037818016 10.26855713640269 0.6991970036557146
      vertex 6.831132818909169 10.489526050300627 0.0
      vertex 6.831132818909169 10.489526050300627 0.6991970036557146
    endloop
  endfacet
  facet normal 0.5662199390305386 0.8242541966191336 0.0
    outer loop
      vertex 6.831132818909169 10.489526050300627 0.6991970036557146
      vertex 6.831132818909169 10.489526050300627 0.0
      vertex 6.570918357862372 10.668279906663294 0.0
    endloop
  endfacet
  facet normal 0.5662199390305386 0.8242541966191336 0.0
    outer loop
      vertex 6.831132818909169 10.489526050300627 0.6991970036557146
      vertex 6.570918357862372 10.668279906663294 0.0
      vertex 6.570918357862372 10.668279906663294 0.6991970036557146
    endloop
  endfacet
  facet normal 0.4676562827934925 0.8839104033575874 0.0
    outer loop
      vertex 6.570918357862372 10.668279906663294 0.6991970036557146
      vertex 6.570918357862372 10.668279906663294 0.0
      vertex 6.298813408220387 10.812244259606656 0.0
    endloop
  endfacet
  facet normal 0.4676562827934925 0.8839104033575874 0.0
    outer loop
      vertex 6.570918357862372 10.668279906663294 0.6991970036557146
      vertex 6.298813408220387 10.812244259606656 0.0
      vertex 6.298813408220387 10.812244259606656 0.6991970036557146
    endloop
  endfacet
  facet normal 0.3538157193613735 0.9353151536956907 0.0
    outer loop
      vertex 6.298813408220387 10.812244259606656 0.6991970036557146
      vertex 6.298813408220387 10.812244259606656 0.0
      vertex 6.027762901488069 10.914778608209717 0.0
    endloop
  endfacet
  facet normal 0.3538157193613735 0.9353151536956907 0.0
    outer loop
      vertex 6.298813408220387 10.812244259606656 0.6991970036557146
      vertex 6.027762901488069 10.914778608209717 0.0
      vertex 6.027762901488069 10.914778608209717 0.6991970036557146
    endloop
  endfacet
  facet normal 0.22660735314854508 0.9739861947168504 0.0
    outer loop
      vertex 6.027762901488069 10.914778608209717 0.6991970036557146
      vertex 6.027762901488069 10.914778608209717 0.0
      vertex 5.761724110339053 10.976675118267176 0.0
    endloop
  endfacet
  facet normal 0.22660735314854508 0.9739861947168504 0.0
    outer loop
      vertex 6.027762901488069 10.914778608209717 0.6991970036557146
      vertex 5.761724110339053 10.976675118267176 0.0
      vertex 5.761724110339053 10.976675118267176 0.6991970036557146
    endloop
  endfacet
  facet normal 0.08969202835786924 0.9959695477518633 0.0
    outer loop
      vertex 5.761724110339053 10.976675118267176 0.6991970036557146
      vertex 5.761724110339053 10.976675118267176 0.0
      vertex 5.502717013096074 11.0 0.0
    endloop
  endfacet
  facet normal 0.08969202835786924 0.9959695477518633 0.0
    outer loop
      vertex 5.761724110339053 10.976675118267176 0.6991970036557146
      vertex 5.502717013096074 11.0 0.0
      vertex 5.502717013096074 11.0 0.6991970036557146
    endloop
  endfacet
  facet normal -0.030488758512548945 0.9995351097407051 0.0
    outer loop
      vertex 5.502717013096074 11.0 0.6991970036557146
      vertex 5.502717013096074 11.0 0.0
      vertex 5.243015548304655 10.992078342053002 0.0
    endloop
  endfacet
  facet normal -0.030488758512548945 0.9995351097407051 0.0
    outer loop
      vertex 5.502717013096074 11.0 0.6991970036557146
      vertex 5.243015548304655 10.992078342053002 0.0
      vertex 5.243015548304655 10.992078342053002 0.6991970036557146
    endloop
  endfacet
  facet normal -0.1363207832003224 0.9906647485742341 0.0
    outer loop
      vertex 5.243015548304655 10.992078342053002 0.6991970036557146
      vertex 5.243015548304655 10.992078342053002 0.0
      vertex 4.94704782657542 10.9513515960108 0.0
    endloop
  endfacet
  facet normal -0.1363207832003224 0.9906647485742341 0.0
    outer loop
      vertex 5.243015548304655 10.992078342053002 0.6991970036557146
      vertex 4.94704782657542 10.9513515960108 0.0
      vertex 4.94704782657542 10.9513515960108 0.6991970036557146
    endloop
  endfacet
  facet normal -0.24300478335286468 0.9700250900196485 0.0
    outer loop
      vertex 4.94704782657542 10.9513515960108 0.6991970036557146
      vertex 4.94704782657542 10.9513515960108 0.0
      vertex 4.641918631859112 10.874912486734598 0.0
    endloop
  endfacet
  facet normal -0.24300478335286468 0.9700250900196485 0.0
    outer loop
      vertex 4.94704782657542 10.9513515960108 0.6991970036557146
      vertex 4.641918631859112 10.874912486734598 0.0
      vertex 4.641918631859112 10.874912486734598 0.6991970036557146
    endloop
  endfacet
  facet normal -0.34163598182985144 0.9398323552204156 0.0
    outer loop
      vertex 4.641918631859112 10.874912486734598 0.6991970036557146
      vertex 4.641918631859112 10.874912486734598 0.0
      vertex 4.3756344560194815 10.778116227962053 0.0
    endloop
  endfacet
  facet normal -0.34163598182985144 0.9398323552204156 0.0
    outer loop
      vertex 4.641918631859112 10.874912486734598 0.6991970036557146
      vertex 4.3756344560194815 10.778116227962053 0.0
      vertex 4.3756344560194815 10.778116227962053 0.6991970036557146
    endloop
  endfacet
  facet normal -0.43845920810203837 0.8987510905865613 0.0
    outer loop
      vertex 4.3756344560194815 10.778116227962053 0.6991970036557146
      vertex 4.3756344560194815 10.778116227962053 0.0
      vertex 4.090655256332436 10.639088019229883 0.0
    endloop
  endfacet
  facet normal -0.43845920810203837 0.8987510905865613 0.0
    outer loop
      vertex 4.3756344560194815 10.778116227962053 0.6991970036557146
      vertex 4.090655256332436 10.639088019229883 0.0
      vertex 4.090655256332436 10.639088019229883 0.6991970036557146
    endloop
  endfacet
  facet normal -0.5391732008592415 0.8421949058710816 0.0
    outer loop
      vertex 4.090655256332436 10.639088019229883 0.6991970036557146
      vertex 4.090655256332436 10.639088019229883 0.0
      vertex 3.830012705689514 10.472224651462406 0.0
    endloop
  endfacet
  facet normal -0.5391732008592415 0.8421949058710816 0.0
    outer loop
      vertex 4.090655256332436 10.639088019229883 0.6991970036557146
      vertex 3.830012705689514 10.472224651462406 0.0
      vertex 3.830012705689514 10.472224651462406 0.6991970036557146
    endloop
  endfacet
  facet normal -0.637058595645357 0.7708153771911699 0.0
    outer loop
      vertex 3.830012705689514 10.472224651462406 0.6991970036557146
      vertex 3.830012705689514 10.472224651462406 0.0
      vertex 3.6004433251080425 10.282491608344696 0.0
    endloop
  endfacet
  facet normal -0.637058595645357 0.7708153771911699 0.0
    outer loop
      vertex 3.830012705689514 10.472224651462406 0.6991970036557146
      vertex 3.6004433251080425 10.282491608344696 0.0
      vertex 3.6004433251080425 10.282491608344696 0.6991970036557146
    endloop
  endfacet
  facet normal -0.729888367355031 0.6835663619574968 0.0
    outer loop
      vertex 3.6004433251080425 10.282491608344696 0.6991970036557146
      vertex 3.6004433251080425 10.282491608344696 0.0
      vertex 3.4057172369813156 10.074569869572702 0.0
    endloop
  endfacet
  facet normal -0.729888367355031 0.6835663619574968 0.0
    outer loop
      vertex 3.6004433251080425 10.282491608344696 0.6991970036557146
      vertex 3.4057172369813156 10.074569869572702 0.0
      vertex 3.4057172369813156 10.074569869572702 0.6991970036557146
    endloop
  endfacet
  facet normal -0.8143339212060559 0.5803966443503693 0.0
    outer loop
      vertex 3.4057172369813156 10.074569869572702 0.6991970036557146
      vertex 3.4057172369813156 10.074569869572702 0.0
      vertex 3.2473107502903638 9.852315353273937 0.0
    endloop
  endfacet
  facet normal -0.8143339212060559 0.5803966443503693 0.0
    outer loop
      vertex 3.4057172369813156 10.074569869572702 0.6991970036557146
      vertex 3.2473107502903638 9.852315353273937 0.0
      vertex 3.2473107502903638 9.852315353273937 0.6991970036557146
    endloop
  endfacet
  facet normal -0.8864521868175103 0.4628201815894097 0.0
    outer loop
      vertex 3.2473107502903638 9.852315353273937 0.6991970036557146
      vertex 3.2473107502903638 9.852315353273937 0.0
      vertex 3.125214974285527 9.61846196496883 0.0
    endloop
  endfacet
  facet normal -0.8864521868175103 0.4628201815894097 0.0
    outer loop
      vertex 3.2473107502903638 9.852315353273937 0.6991970036557146
      vertex 3.125214974285527 9.61846196496883 0.0
      vertex 3.125214974285527 9.61846196496883 0.6991970036557146
    endloop
  endfacet
  facet normal -0.9404519207366898 0.33992673443357 0.0
    outer loop
      vertex 3.125214974285527 9.61846196496883 0.6991970036557146
      vertex 3.125214974285527 9.61846196496883 0.0
      vertex 3.044920835956778 9.396317693965848 0.0
    endloop
  endfacet
  facet normal -0.9404519207366898 0.33992673443357 0.0
    outer loop
      vertex 3.125214974285527 9.61846196496883 0.6991970036557146
      vertex 3.044920835956778 9.396317693965848 0.0
      vertex 3.044920835956778 9.396317693965848 0.6991970036557146
    endloop
  endfacet
  facet normal -0.9658725540547884 0.2590177780069928 0.0
    outer loop
      vertex 3.044920835956778 9.396317693965848 0.6991970036557146
      vertex 3.044920835956778 9.396317693965848 0.0
      vertex 3.025293617007519 9.323128153690348 0.0
    endloop
  endfacet
  facet normal -0.9658725540547884 0.2590177780069928 0.0
    outer loop
      vertex 3.044920835956778 9.396317693965848 0.6991970036557146
      vertex 3.025293617007519 9.323128153690348 0.0
      vertex 3.025293617007519 9.323128153690348 0.6991970036557146
    endloop
  endfacet
  facet normal -0.9721680678916265 0.23428454445793462 0.0
    outer loop
      vertex 1.880316203552905 4.572023114332616 0.6991970036557146
      vertex 3.025293617007519 9.323128153690348 0.6991970036557146
      vertex 1.880316203552905 4.572023114332616 0.0
    endloop
  endfacet
  facet normal -0.9721680678916265 0.23428454445793462 0.0
    outer loop
      vertex 1.880316203552905 4.572023114332616 0.0
      vertex 3.025293617007519 9.323128153690348 0.6991970036557146
      vertex 3.025293617007519 9.323128153690348 0.0
    endloop
  endfacet
  facet normal -0.7642879272853522 0.644875153968472 0.0
    outer loop
      vertex 1.880316203552905 4.572023114332616 0.6991970036557146
      vertex 1.880316203552905 4.572023114332616 0.0
      vertex 1.6779369581189112 4.332168914544539 0.0
    endloop
  endfacet
  facet normal -0.09913969888268087 0.9950735249746379 0.0
    outer loop
      vertex 0.31228113601149654 3.6131544298968428 0.0
      vertex 0.0 3.582041695999405 0.0
      vertex 0.0 3.582041695999405 0.2330656678852382
    endloop
  endfacet
  facet normal -0.7642879272853522 0.644875153968472 0.0
    outer loop
      vertex 1.880316203552905 4.572023114332616 0.6991970036557146
      vertex 1.6779369581189112 4.332168914544539 0.0
      vertex 1.6779369581189112 4.332168914544539 0.6991970036557146
    endloop
  endfacet
  facet normal -0.6753927456355462 0.7374582287444341 0.0
    outer loop
      vertex 1.6779369581189112 4.332168914544539 0.6991970036557146
      vertex 1.6779369581189112 4.332168914544539 0.0
      vertex 1.446502298258787 4.120212109039387 0.0
    endloop
  endfacet
  facet normal -0.6753927456355462 0.7374582287444341 0.0
    outer loop
      vertex 1.6779369581189112 4.332168914544539 0.6991970036557146
      vertex 1.446502298258787 4.120212109039387 0.0
      vertex 1.446502298258787 4.120212109039387 0.6991970036557146
    endloop
  endfacet
  facet normal -0.5753728735691181 0.8178912252621467 0.0
    outer loop
      vertex 1.446502298258787 4.120212109039387 0.6991970036557146
      vertex 1.446502298258787 4.120212109039387 0.0
      vertex 1.189825911039159 3.939644539746096 0.0
    endloop
  endfacet
  facet normal -0.5753728735691181 0.8178912252621467 0.0
    outer loop
      vertex 1.446502298258787 4.120212109039387 0.6991970036557146
      vertex 1.189825911039159 3.939644539746096 0.0
      vertex 1.189825911039159 3.939644539746096 0.6991970036557146
    endloop
  endfacet
  facet normal -0.46587200521472744 0.8848521202761561 0.0
    outer loop
      vertex 1.189825911039159 3.939644539746096 0.6991970036557146
      vertex 1.189825911039159 3.939644539746096 0.0
      vertex 0.9121349033858399 3.7934410515008796 0.0
    endloop
  endfacet
  facet normal -0.46587200521472744 0.8848521202761561 0.0
    outer loop
      vertex 1.189825911039159 3.939644539746096 0.6991970036557146
      vertex 0.9121349033858399 3.7934410515008796 0.0
      vertex 0.9121349033858399 3.7934410515008796 0.6991970036557146
    endloop
  endfacet
  facet normal -0.3486982944276411 0.9372350289352475 0.0
    outer loop
      vertex 0.9121349033858399 3.7934410515008796 0.6991970036557146
      vertex 0.9121349033858399 3.7934410515008796 0.0
      vertex 0.6180053441487956 3.6840101483866117 0.0
    endloop
  endfacet
  facet normal -0.3486982944276411 0.9372350289352475 0.0
    outer loop
      vertex 0.9121349033858399 3.7934410515008796 0.6991970036557146
      vertex 0.6180053441487956 3.6840101483866117 0.0
      vertex 0.6180053441487956 3.6840101483866117 0.6991970036557146
    endloop
  endfacet
  facet normal -0.2257790464344407 0.9741785371230238 0.0
    outer loop
      vertex 0.6180053441487956 3.6840101483866117 0.6991970036557146
      vertex 0.6180053441487956 3.6840101483866117 0.0
      vertex 0.31228113601149654 3.6131544298968428 0.0
    endloop
  endfacet
  facet normal -0.2257790464344407 0.9741785371230238 0.0
    outer loop
      vertex 0.6180053441487956 3.6840101483866117 0.6991970036557146
      vertex 0.31228113601149654 3.6131544298968428 0.0
      vertex 0.31228113601149654 3.6131544298968428 0.6991970036557146
    endloop
  endfacet
  facet normal -0.09913969888268087 0.9950735249746379 0.0
    outer loop
      vertex 0.31228113601149654 3.6131544298968428 0.6991970036557146
      vertex 0.31228113601149654 3.6131544298968428 0.0
      vertex 0.0 3.582041695999405 0.2330656678852382
    endloop
  endfacet
  facet normal -0.09913969888268087 0.9950735249746379 0.0
    outer loop
      vertex 0.31228113601149654 3.6131544298968428 0.6991970036557146
      vertex 0.0 3.582041695999405 0.2330656678852382
      vertex 0.0 3.582041695999405 0.6991970036557146
    endloop
  endfacet
  facet normal 0.0 0.0 -1.0
    outer loop
      vertex 3.9263644269790605 2.9710387062827692 0.0
      vertex 8.157445073352726 7.079206961295333 0.0
      vertex 8.198644807276835 6.2423091378316755 0.0
    endloop
  endfacet
  facet normal -0.0 0.0 -1.0
    outer loop
      vertex 3.9263644269790605 2.9710387062827692 0.0
      vertex 1.7729306173979038 2.969318790761056 0.0
      vertex 1.772662116758174 3.3054309144297673 0.0
    endloop
  endfacet
  facet normal 0.0 0.0 -1.0
    outer loop
      vertex 1.7752426568469684 0.07445469395210795 0.0
      vertex 1.7733400364197436 2.456574588136022 0.0
      vertex 4.834991040549093 0.0 0.0
    endloop
  endfacet
  facet normal 0.0 0.0 -1.0
    outer loop
      vertex 4.834991040549093 0.0 0.0
      vertex 1.7733400364197436 2.456574588136022 0.0
      vertex 3.926774290538383 2.4582940591202522 0.0
    endloop
  endfacet
  facet normal 0.0 0.0 -1.0
    outer loop
      vertex 4.834991040549093 0.0 0.0
      vertex 3.926774290538383 2.4582940591202522 0.0
      vertex 5.152632187261818 0.05069616590462165 0.0
    endloop
  endfacet
  facet normal 0.0 0.0 -1.0
    outer loop
      vertex 5.152632187261818 0.05069616590462165 0.0
      vertex 3.926774290538383 2.4582940591202522 0.0
      vertex 5.455003026896134 0.11513943120216676 0.0
    endloop
  endfacet
  facet normal -0.0 0.0 -1.0
    outer loop
      vertex 8.157445073352726 7.079206961295333 0.0
      vertex 3.9263644269790605 2.9710387062827692 0.0
      vertex 8.134760325595417 7.829411084825026 0.0
    endloop
  endfacet
  facet normal 0.0 0.0 -1.0
    outer loop
      vertex 8.134760325595417 7.829411084825026 0.0
      vertex 3.9263644269790605 2.9710387062827692 0.0
      vertex 1.772662116758174 3.3054309144297673 0.0
    endloop
  endfacet
  facet normal -0.0 0.0 -1.0
    outer loop
      vertex 8.134760325595417 7.829411084825026 0.0
      vertex 1.772662116758174 3.3054309144297673 0.0
      vertex 8.103482668291788 8.217697683798063 0.0
    endloop
  endfacet
  facet normal -0.0 0.0 -1.0
    outer loop
      vertex 8.103482668291788 8.217697683798063 0.0
      vertex 1.772662116758174 3.3054309144297673 0.0
      vertex 7.978053750239444 8.843956755393654 0.0
    endloop
  endfacet
  facet normal 0.0 0.0 -1.0
    outer loop
      vertex 8.103482668291788 8.217697683798063 0.0
      vertex 7.978053750239444 8.843956755393654 0.0
      vertex 8.05197411013699 8.547934800091493 0.0
    endloop
  endfacet
  facet normal 0.0 0.0 -1.0
    outer loop
      vertex 0.8848736422410831 3.434273880351524 0.0
      vertex 0.0 3.582041695999405 0.0
      vertex 0.31228113601149654 3.6131544298968428 0.0
    endloop
  endfacet
  facet normal 0.0 -0.0 -1.0
    outer loop
      vertex 8.198644807276835 6.2423091378316755 0.0
      vertex 8.225931407058123 5.25068470896131 0.0
      vertex 3.9263644269790605 2.9710387062827692 0.0
    endloop
  endfacet
  facet normal 0.0 0.0 -1.0
    outer loop
      vertex 3.9263644269790605 2.9710387062827692 0.0
      vertex 8.225931407058123 5.25068470896131 0.0
      vertex 8.229540162345089 4.677184234922703 0.0
    endloop
  endfacet
  facet normal 0.0 0.0 -1.0
    outer loop
      vertex 3.9263644269790605 2.9710387062827692 0.0
      vertex 8.229540162345089 4.677184234922703 0.0
      vertex 7.943655439805179 2.9243889428171226 0.0
    endloop
  endfacet
  facet normal 0.0 0.0 -1.0
    outer loop
      vertex 7.943655439805179 2.9243889428171226 0.0
      vertex 8.229540162345089 4.677184234922703 0.0
      vertex 8.066570942928662 3.3948660770213723 0.0
    endloop
  endfacet
  facet normal 0.0 0.0 -1.0
    outer loop
      vertex 8.066570942928662 3.3948660770213723 0.0
      vertex 8.229540162345089 4.677184234922703 0.0
      vertex 8.20795786754561 4.279421874962113 0.0
    endloop
  endfacet
  facet normal 0.0 0.0 -1.0
    outer loop
      vertex 8.066570942928662 3.3948660770213723 0.0
      vertex 8.20795786754561 4.279421874962113 0.0
      vertex 8.154069255706851 3.846118743235958 0.0
    endloop
  endfacet
  facet normal 0.0 0.0 -1.0
    outer loop
      vertex 7.978053750239444 8.843956755393654 0.0
      vertex 3.025293617007519 9.323128153690348 0.0
      vertex 3.044920835956778 9.396317693965848 0.0
    endloop
  endfacet
  facet normal -0.0 0.0 -1.0
    outer loop
      vertex 7.943655439805179 2.9243889428171226 0.0
      vertex 7.770457412905004 2.3977933967594023 0.0
      vertex 3.9263644269790605 2.9710387062827692 0.0
    endloop
  endfacet
  facet normal 0.0 0.0 -1.0
    outer loop
      vertex 3.9263644269790605 2.9710387062827692 0.0
      vertex 7.770457412905004 2.3977933967594023 0.0
      vertex 7.607829598275518 1.9896128563473081 0.0
    endloop
  endfacet
  facet normal 0.0 0.0 -1.0
    outer loop
      vertex 3.9263644269790605 2.9710387062827692 0.0
      vertex 7.607829598275518 1.9896128563473081 0.0
      vertex 7.464766767347671 1.6974157015488494 0.0
    endloop
  endfacet
  facet normal 0.0 -0.0 -1.0
    outer loop
      vertex 4.94704782657542 10.9513515960108 0.0
      vertex 5.243015548304655 10.992078342053002 0.0
      vertex 4.641918631859112 10.874912486734598 0.0
    endloop
  endfacet
  facet normal 0.0 0.0 -1.0
    outer loop
      vertex 4.641918631859112 10.874912486734598 0.0
      vertex 5.243015548304655 10.992078342053002 0.0
      vertex 5.502717013096074 11.0 0.0
    endloop
  endfacet
  facet normal 0.0 -0.0 -1.0
    outer loop
      vertex 4.641918631859112 10.874912486734598 0.0
      vertex 5.502717013096074 11.0 0.0
      vertex 4.3756344560194815 10.778116227962053 0.0
    endloop
  endfacet
  facet normal 0.0 0.0 -1.0
    outer loop
      vertex 4.3756344560194815 10.778116227962053 0.0
      vertex 5.502717013096074 11.0 0.0
      vertex 5.761724110339053 10.976675118267176 0.0
    endloop
  endfacet
  facet normal 0.0 -0.0 -1.0
    outer loop
      vertex 4.3756344560194815 10.778116227962053 0.0
      vertex 5.761724110339053 10.976675118267176 0.0
      vertex 4.090655256332436 10.639088019229883 0.0
    endloop
  endfacet
  facet normal 0.0 0.0 -1.0
    outer loop
      vertex 4.090655256332436 10.639088019229883 0.0
      vertex 5.761724110339053 10.976675118267176 0.0
      vertex 6.027762901488069 10.914778608209717 0.0
    endloop
  endfacet
  facet normal 0.0 -0.0 -1.0
    outer loop
      vertex 4.090655256332436 10.639088019229883 0.0
      vertex 6.027762901488069 10.914778608209717 0.0
      vertex 3.830012705689514 10.472224651462406 0.0
    endloop
  endfacet
  facet normal 0.0 0.0 -1.0
    outer loop
      vertex 3.830012705689514 10.472224651462406 0.0
      vertex 6.027762901488069 10.914778608209717 0.0
      vertex 6.298813408220387 10.812244259606656 0.0
    endloop
  endfacet
  facet normal 0.0 -0.0 -1.0
    outer loop
      vertex 3.830012705689514 10.472224651462406 0.0
      vertex 6.298813408220387 10.812244259606656 0.0
      vertex 3.6004433251080425 10.282491608344696 0.0
    endloop
  endfacet
  facet normal 0.0 0.0 -1.0
    outer loop
      vertex 3.6004433251080425 10.282491608344696 0.0
      vertex 6.298813408220387 10.812244259606656 0.0
      vertex 6.570918357862372 10.668279906663294 0.0
    endloop
  endfacet
  facet normal 0.0 -0.0 -1.0
    outer loop
      vertex 3.6004433251080425 10.282491608344696 0.0
      vertex 6.570918357862372 10.668279906663294 0.0
      vertex 3.4057172369813156 10.074569869572702 0.0
    endloop
  endfacet
  facet normal 0.0 0.0 -1.0
    outer loop
      vertex 3.4057172369813156 10.074569869572702 0.0
      vertex 6.570918357862372 10.668279906663294 0.0
      vertex 6.831132818909169 10.489526050300627 0.0
    endloop
  endfacet
  facet normal 0.0 -0.0 -1.0
    outer loop
      vertex 3.4057172369813156 10.074569869572702 0.0
      vertex 6.831132818909169 10.489526050300627 0.0
      vertex 3.2473107502903638 9.852315353273937 0.0
    endloop
  endfacet
  facet normal 0.0 0.0 -1.0
    outer loop
      vertex 3.2473107502903638 9.852315353273937 0.0
      vertex 6.831132818909169 10.489526050300627 0.0
      vertex 7.08810037818016 10.26855713640269 0.0
    endloop
  endfacet
  facet normal 0.0 -0.0 -1.0
    outer loop
      vertex 3.2473107502903638 9.852315353273937 0.0
      vertex 7.08810037818016 10.26855713640269 0.0
      vertex 3.125214974285527 9.61846196496883 0.0
    endloop
  endfacet
  facet normal 0.0 0.0 -1.0
    outer loop
      vertex 3.125214974285527 9.61846196496883 0.0
      vertex 7.08810037818016 10.26855713640269 0.0
      vertex 7.326343129592375 10.016058067910778 0.0
    endloop
  endfacet
  facet normal 0.0 -0.0 -1.0
    outer loop
      vertex 3.125214974285527 9.61846196496883 0.0
      vertex 7.326343129592375 10.016058067910778 0.0
      vertex 3.044920835956778 9.396317693965848 0.0
    endloop
  endfacet
  facet normal -0.0 0.0 -1.0
    outer loop
      vertex 5.743061537727896 0.20543988600442434 0.0
      vertex 5.455003026896134 0.11513943120216676 0.0
      vertex 6.037832564552904 0.3326945194994346 0.0
    endloop
  endfacet
  facet normal -0.0 0.0 -1.0
    outer loop
      vertex 6.037832564552904 0.3326945194994346 0.0
      vertex 5.455003026896134 0.11513943120216676 0.0
      vertex 3.926774290538383 2.4582940591202522 0.0
    endloop
  endfacet
  facet normal 0.0 0.0 -1.0
    outer loop
      vertex 6.037832564552904 0.3326945194994346 0.0
      vertex 3.926774290538383 2.4582940591202522 0.0
      vertex 6.325162033912552 0.49324723315829333 0.0
    endloop
  endfacet
  facet normal 0.0 0.0 -1.0
    outer loop
      vertex 6.325162033912552 0.49324723315829333 0.0
      vertex 3.926774290538383 2.4582940591202522 0.0
      vertex 3.9263644269790605 2.9710387062827692 0.0
    endloop
  endfacet
  facet normal 0.0 0.0 -1.0
    outer loop
      vertex 6.325162033912552 0.49324723315829333 0.0
      vertex 3.9263644269790605 2.9710387062827692 0.0
      vertex 6.6013860678719825 0.6862598515568107 0.0
    endloop
  endfacet
  facet normal 0.0 0.0 -1.0
    outer loop
      vertex 6.6013860678719825 0.6862598515568107 0.0
      vertex 3.9263644269790605 2.9710387062827692 0.0
      vertex 7.464766767347671 1.6974157015488494 0.0
    endloop
  endfacet
  facet normal 0.0 0.0 -1.0
    outer loop
      vertex 6.6013860678719825 0.6862598515568107 0.0
      vertex 7.464766767347671 1.6974157015488494 0.0
      vertex 6.859755698364344 0.9085137010493509 0.0
    endloop
  endfacet
  facet normal 0.0 0.0 -1.0
    outer loop
      vertex 6.859755698364344 0.9085137010493509 0.0
      vertex 7.464766767347671 1.6974157015488494 0.0
      vertex 7.296138585772699 1.4201750103658057 0.0
    endloop
  endfacet
  facet normal 0.0 0.0 -1.0
    outer loop
      vertex 6.859755698364344 0.9085137010493509 0.0
      vertex 7.296138585772699 1.4201750103658057 0.0
      vertex 7.093415268326866 1.155216000762988 0.0
    endloop
  endfacet
  facet normal 0.0 0.0 -1.0
    outer loop
      vertex 0.31228113601149654 3.6131544298968428 0.0
      vertex 0.6180053441487956 3.6840101483866117 0.0
      vertex 0.8848736422410831 3.434273880351524 0.0
    endloop
  endfacet
  facet normal 0.0 0.0 -1.0
    outer loop
      vertex 0.8848736422410831 3.434273880351524 0.0
      vertex 0.6180053441487956 3.6840101483866117 0.0
      vertex 0.9121349033858399 3.7934410515008796 0.0
    endloop
  endfacet
  facet normal 0.0 0.0 -1.0
    outer loop
      vertex 0.8848736422410831 3.434273880351524 0.0
      vertex 0.9121349033858399 3.7934410515008796 0.0
      vertex 1.772662116758174 3.3054309144297673 0.0
    endloop
  endfacet
  facet normal 0.0 0.0 -1.0
    outer loop
      vertex 1.772662116758174 3.3054309144297673 0.0
      vertex 0.9121349033858399 3.7934410515008796 0.0
      vertex 1.189825911039159 3.939644539746096 0.0
    endloop
  endfacet
  facet normal 0.0 0.0 -1.0
    outer loop
      vertex 1.189825911039159 3.939644539746096 0.0
      vertex 1.446502298258787 4.120212109039387 0.0
      vertex 1.772662116758174 3.3054309144297673 0.0
    endloop
  endfacet
  facet normal 0.0 0.0 -1.0
    outer loop
      vertex 1.772662116758174 3.3054309144297673 0.0
      vertex 1.446502298258787 4.120212109039387 0.0
      vertex 1.6779369581189112 4.332168914544539 0.0
    endloop
  endfacet
  facet normal 0.0 0.0 -1.0
    outer loop
      vertex 1.772662116758174 3.3054309144297673 0.0
      vertex 1.6779369581189112 4.332168914544539 0.0
      vertex 7.978053750239444 8.843956755393654 0.0
    endloop
  endfacet
  facet normal 0.0 0.0 -1.0
    outer loop
      vertex 7.978053750239444 8.843956755393654 0.0
      vertex 1.6779369581189112 4.332168914544539 0.0
      vertex 1.880316203552905 4.572023114332616 0.0
    endloop
  endfacet
  facet normal -0.0 0.0 -1.0
    outer loop
      vertex 7.978053750239444 8.843956755393654 0.0
      vertex 1.880316203552905 4.572023114332616 0.0
      vertex 3.025293617007519 9.323128153690348 0.0
    endloop
  endfacet
  facet normal -0.0 -0.0 -1.0
    outer loop
      vertex 7.863257279705409 9.157550388323697 0.0
      vertex 7.978053750239444 8.843956755393654 0.0
      vertex 7.718344283773331 9.45173462567115 0.0
    endloop
  endfacet
  facet normal 0.0 -0.0 -1.0
    outer loop
      vertex 7.718344283773331 9.45173462567115 0.0
      vertex 7.978053750239444 8.843956755393654 0.0
      vertex 3.044920835956778 9.396317693965848 0.0
    endloop
  endfacet
  facet normal -0.0 0.0 -1.0
    outer loop
      vertex 7.718344283773331 9.45173462567115 0.0
      vertex 3.044920835956778 9.396317693965848 0.0
      vertex 7.538481750928073 9.740409265454344 0.0
    endloop
  endfacet
  facet normal -0.0 0.0 -1.0
    outer loop
      vertex 7.538481750928073 9.740409265454344 0.0
      vertex 3.044920835956778 9.396317693965848 0.0
      vertex 7.326343129592375 10.016058067910778 0.0
    endloop
  endfacet
  facet normal -0.0007984782599246491 0.9999996812161833 0.0
    outer loop
      vertex 1.7733400364197436 2.456574588136022 0.0
      vertex 1.7733400364197436 2.456574588136022 0.6991970036557146
      vertex 3.926774290538383 2.4582940591202522 0.0
    endloop
  endfacet
  facet normal -0.0007984782599246491 0.9999996812161833 0.0
    outer loop
      vertex 3.926774290538383 2.4582940591202522 0.0
      vertex 1.7733400364197436 2.456574588136022 0.6991970036557146
      vertex 3.926774290538383 2.4582940591202522 0.6991970036557146
    endloop
  endfacet
  facet normal -0.9999996810321767 -0.0007987086733104574 0.0
    outer loop
      vertex 1.7752426568469684 0.07445469395210795 0.0
      vertex 1.7752426568469684 0.07445469395210795 0.6991970036557146
      vertex 1.7733400364197436 2.456574588136022 0.0
    endloop
  endfacet
  facet normal -0.9999996810321767 -0.0007987086733104574 0.0
    outer loop
      vertex 1.7733400364197436 2.456574588136022 0.0
      vertex 1.7752426568469684 0.07445469395210795 0.6991970036557146
      vertex 1.7733400364197436 2.456574588136022 0.6991970036557146
    endloop
  endfacet
  facet normal -0.14362337404282283 -0.9896324198552489 0.0
    outer loop
      vertex 1.772662116758174 3.3054309144297673 0.0
      vertex 1.772662116758174 3.3054309144297673 0.2330656678852382
      vertex 0.8848736422410831 3.434273880351524 0.2330656678852382
    endloop
  endfacet
  facet normal -0.14362337404282283 -0.9896324198552489 0.0
    outer loop
      vertex 1.772662116758174 3.3054309144297673 0.0
      vertex 0.8848736422410831 3.434273880351524 0.2330656678852382
      vertex 0.8848736422410831 3.434273880351524 0.0
    endloop
  endfacet
  facet normal -0.16471227675465924 -0.9863416577871464 0.0
    outer loop
      vertex 0.8848736422410831 3.434273880351524 0.0
      vertex 0.8848736422410831 3.434273880351524 0.2330656678852382
      vertex 0.0 3.582041695999405 0.2330656678852382
    endloop
  endfacet
  facet normal -0.16471227675465924 -0.9863416577871464 0.0
    outer loop
      vertex 0.8848736422410831 3.434273880351524 0.0
      vertex 0.0 3.582041695999405 0.2330656678852382
      vertex 0.0 3.582041695999405 0.0
    endloop
  endfacet
  facet normal -0.9999996809255052 -0.0007988422170774507 0.0
    outer loop
      vertex 1.772662116758174 3.3054309144297673 0.0
      vertex 1.7729306173979038 2.969318790761056 0.0
      vertex 1.772662116758174 3.3054309144297673 0.2330656678852382
    endloop
  endfacet
  facet normal -0.9999996809255053 -0.0007988422170774507 0.0
    outer loop
      vertex 1.772662116758174 3.3054309144297673 0.2330656678852382
      vertex 1.7729306173979038 2.969318790761056 0.0
      vertex 1.7729306173979038 2.969318790761056 0.6991970036557146
    endloop
  endfacet
  facet normal -0.9999996809255052 -0.0007988422170774507 0.0
    outer loop
      vertex 1.772662116758174 3.3054309144297673 0.2330656678852382
      vertex 1.7729306173979038 2.969318790761056 0.6991970036557146
      vertex 1.772662116758174 3.3054309144297673 0.6991970036557146
    endloop
  endfacet
  facet normal 0.0007986848564816878 -0.9999996810511992 0.0
    outer loop
      vertex 3.9263644269790605 2.9710387062827692 0.0
      vertex 3.9263644269790605 2.9710387062827692 0.6991970036557146
      vertex 1.7729306173979038 2.969318790761056 0.0
    endloop
  endfacet
  facet normal 0.0007986848564816878 -0.9999996810511992 0.0
    outer loop
      vertex 1.7729306173979038 2.969318790761056 0.0
      vertex 3.9263644269790605 2.9710387062827692 0.6991970036557146
      vertex 1.7729306173979038 2.969318790761056 0.6991970036557146
    endloop
  endfacet
  facet normal -0.999999680518187 -0.0007993519398920947 0.0
    outer loop
      vertex 3.926774290538383 2.4582940591202522 0.0
      vertex 3.926774290538383 2.4582940591202522 0.6991970036557146
      vertex 3.9263644269790605 2.9710387062827692 0.0
    endloop
  endfacet
  facet normal -0.999999680518187 -0.0007993519398920947 0.0
    outer loop
      vertex 3.9263644269790605 2.9710387062827692 0.0
      vertex 3.926774290538383 2.4582940591202522 0.6991970036557146
      vertex 3.9263644269790605 2.9710387062827692 0.6991970036557146
    endloop
  endfacet
  facet normal -0.16471227675465924 -0.9863416577871464 -0.0
    outer loop
      vertex 0.0 3.582041695999405 0.6991970036557146
      vertex 0.0 3.582041695999405 0.2330656678852382
      vertex 0.8848736422410831 3.434273880351524 0.2330656678852382
    endloop
  endfacet
  facet normal -0.16471227675465924 -0.9863416577871464 0.0
    outer loop
      vertex 0.0 3.582041695999405 0.6991970036557146
      vertex 0.8848736422410831 3.434273880351524 0.2330656678852382
      vertex 0.8848736422410831 3.434273880351524 0.6991970036557146
    endloop
  endfacet
  facet normal -0.14362337404282283 -0.9896324198552489 -0.0
    outer loop
      vertex 0.8848736422410831 3.434273880351524 0.6991970036557146
      vertex 0.8848736422410831 3.434273880351524 0.2330656678852382
      vertex 1.772662116758174 3.3054309144297673 0.2330656678852382
    endloop
  endfacet
  facet normal -0.14362337404282283 -0.9896324198552489 0.0
    outer loop
      vertex 0.8848736422410831 3.434273880351524 0.6991970036557146
      vertex 1.772662116758174 3.3054309144297673 0.2330656678852382
      vertex 1.772662116758174 3.3054309144297673 0.6991970036557146
    endloop
  endfacet
  facet normal 0.0 0.0 1.0
    outer loop
      vertex 0.31228113601149654 3.6131544298968428 0.6991970036557146
      vertex 0.0 3.582041695999405 0.6991970036557146
      vertex 0.8848736422410831 3.434273880351524 0.6991970036557146
    endloop
  endfacet
  facet normal 0.0 0.0 1.0
    outer loop
      vertex 1.772662116758174 3.3054309144297673 0.6991970036557146
      vertex 1.7729306173979038 2.969318790761056 0.6991970036557146
      vertex 3.9263644269790605 2.9710387062827692 0.6991970036557146
    endloop
  endfacet
  facet normal 0.0 0.0 1.0
    outer loop
      vertex 8.225931407058123 5.25068470896131 0.6991970036557146
      vertex 3.9263644269790605 2.9710387062827692 0.6991970036557146
      vertex 8.229540162345089 4.677184234922703 0.6991970036557146
    endloop
  endfacet
  facet normal 0.0 0.0 1.0
    outer loop
      vertex 8.229540162345089 4.677184234922703 0.6991970036557146
      vertex 3.9263644269790605 2.9710387062827692 0.6991970036557146
      vertex 3.926774290538383 2.4582940591202522 0.6991970036557146
    endloop
  endfacet
  facet normal 0.0 0.0 1.0
    outer loop
      vertex 8.229540162345089 4.677184234922703 0.6991970036557146
      vertex 3.926774290538383 2.4582940591202522 0.6991970036557146
      vertex 8.20795786754561 4.279421874962113 0.6991970036557146
    endloop
  endfacet
  facet normal 0.0 0.0 1.0
    outer loop
      vertex 8.20795786754561 4.279421874962113 0.6991970036557146
      vertex 3.926774290538383 2.4582940591202522 0.6991970036557146
      vertex 6.037832564552904 0.3326945194994346 0.6991970036557146
    endloop
  endfacet
  facet normal 0.0 0.0 1.0
    outer loop
      vertex 8.20795786754561 4.279421874962113 0.6991970036557146
      vertex 6.037832564552904 0.3326945194994346 0.6991970036557146
      vertex 8.154069255706851 3.846118743235958 0.6991970036557146
    endloop
  endfacet
  facet normal 0.0 0.0 1.0
    outer loop
      vertex 8.154069255706851 3.846118743235958 0.6991970036557146
      vertex 6.037832564552904 0.3326945194994346 0.6991970036557146
      vertex 6.325162033912552 0.49324723315829333 0.6991970036557146
    endloop
  endfacet
  facet normal 0.0 0.0 1.0
    outer loop
      vertex 8.154069255706851 3.846118743235958 0.6991970036557146
      vertex 6.325162033912552 0.49324723315829333 0.6991970036557146
      vertex 8.066570942928662 3.3948660770213723 0.6991970036557146
    endloop
  endfacet
  facet normal 0.0 0.0 1.0
    outer loop
      vertex 8.066570942928662 3.3948660770213723 0.6991970036557146
      vertex 6.325162033912552 0.49324723315829333 0.6991970036557146
      vertex 6.6013860678719825 0.6862598515568107 0.6991970036557146
    endloop
  endfacet
  facet normal 0.0 0.0 1.0
    outer loop
      vertex 8.066570942928662 3.3948660770213723 0.6991970036557146
      vertex 6.6013860678719825 0.6862598515568107 0.6991970036557146
      vertex 7.943655439805179 2.9243889428171226 0.6991970036557146
    endloop
  endfacet
  facet normal 0.0 0.0 1.0
    outer loop
      vertex 7.943655439805179 2.9243889428171226 0.6991970036557146
      vertex 6.6013860678719825 0.6862598515568107 0.6991970036557146
      vertex 6.859755698364344 0.9085137010493509 0.6991970036557146
    endloop
  endfacet
  facet normal 0.0 0.0 1.0
    outer loop
      vertex 7.943655439805179 2.9243889428171226 0.6991970036557146
      vertex 6.859755698364344 0.9085137010493509 0.6991970036557146
      vertex 7.770457412905004 2.3977933967594023 0.6991970036557146
    endloop
  endfacet
  facet normal 0.0 0.0 1.0
    outer loop
      vertex 7.770457412905004 2.3977933967594023 0.6991970036557146
      vertex 6.859755698364344 0.9085137010493509 0.6991970036557146
      vertex 7.093415268326866 1.155216000762988 0.6991970036557146
    endloop
  endfacet
  facet normal 0.0 0.0 1.0
    outer loop
      vertex 7.770457412905004 2.3977933967594023 0.6991970036557146
      vertex 7.093415268326866 1.155216000762988 0.6991970036557146
      vertex 7.607829598275518 1.9896128563473081 0.6991970036557146
    endloop
  endfacet
  facet normal 0.0 0.0 1.0
    outer loop
      vertex 7.607829598275518 1.9896128563473081 0.6991970036557146
      vertex 7.093415268326866 1.155216000762988 0.6991970036557146
      vertex 7.296138585772699 1.4201750103658057 0.6991970036557146
    endloop
  endfacet
  facet normal 0.0 0.0 1.0
    outer loop
      vertex 7.607829598275518 1.9896128563473081 0.6991970036557146
      vertex 7.296138585772699 1.4201750103658057 0.6991970036557146
      vertex 7.464766767347671 1.6974157015488494 0.6991970036557146
    endloop
  endfacet
  facet normal -0.0 -0.0 1.0
    outer loop
      vertex 1.7752426568469684 0.07445469395210795 0.6991970036557146
      vertex 4.834991040549093 0.0 0.6991970036557146
      vertex 1.7733400364197436 2.456574588136022 0.6991970036557146
    endloop
  endfacet
  facet normal -0.0 0.0 1.0
    outer loop
      vertex 1.7733400364197436 2.456574588136022 0.6991970036557146
      vertex 4.834991040549093 0.0 0.6991970036557146
      vertex 3.926774290538383 2.4582940591202522 0.6991970036557146
    endloop
  endfacet
  facet normal 0.0 0.0 1.0
    outer loop
      vertex 8.05197411013699 8.547934800091493 0.6991970036557146
      vertex 7.978053750239444 8.843956755393654 0.6991970036557146
      vertex 8.103482668291788 8.217697683798063 0.6991970036557146
    endloop
  endfacet
  facet normal 0.0 0.0 1.0
    outer loop
      vertex 8.103482668291788 8.217697683798063 0.6991970036557146
      vertex 7.978053750239444 8.843956755393654 0.6991970036557146
      vertex 1.772662116758174 3.3054309144297673 0.6991970036557146
    endloop
  endfacet
  facet normal 0.0 0.0 1.0
    outer loop
      vertex 8.103482668291788 8.217697683798063 0.6991970036557146
      vertex 1.772662116758174 3.3054309144297673 0.6991970036557146
      vertex 8.134760325595417 7.829411084825026 0.6991970036557146
    endloop
  endfacet
  facet normal 0.0 0.0 1.0
    outer loop
      vertex 8.134760325595417 7.829411084825026 0.6991970036557146
      vertex 1.772662116758174 3.3054309144297673 0.6991970036557146
      vertex 3.9263644269790605 2.9710387062827692 0.6991970036557146
    endloop
  endfacet
  facet normal 0.0 0.0 1.0
    outer loop
      vertex 8.134760325595417 7.829411084825026 0.6991970036557146
      vertex 3.9263644269790605 2.9710387062827692 0.6991970036557146
      vertex 8.157445073352726 7.079206961295333 0.6991970036557146
    endloop
  endfacet
  facet normal 0.0 0.0 1.0
    outer loop
      vertex 8.157445073352726 7.079206961295333 0.6991970036557146
      vertex 3.9263644269790605 2.9710387062827692 0.6991970036557146
      vertex 8.225931407058123 5.25068470896131 0.6991970036557146
    endloop
  endfacet
  facet normal 0.0 0.0 1.0
    outer loop
      vertex 8.157445073352726 7.079206961295333 0.6991970036557146
      vertex 8.225931407058123 5.25068470896131 0.6991970036557146
      vertex 8.198644807276835 6.2423091378316755 0.6991970036557146
    endloop
  endfacet
  facet normal 0.0 -0.0 1.0
    outer loop
      vertex 5.743061537727896 0.20543988600442434 0.6991970036557146
      vertex 6.037832564552904 0.3326945194994346 0.6991970036557146
      vertex 5.455003026896134 0.11513943120216676 0.6991970036557146
    endloop
  endfacet
  facet normal 0.0 -0.0 1.0
    outer loop
      vertex 5.455003026896134 0.11513943120216676 0.6991970036557146
      vertex 6.037832564552904 0.3326945194994346 0.6991970036557146
      vertex 3.926774290538383 2.4582940591202522 0.6991970036557146
    endloop
  endfacet
  facet normal 0.0 0.0 1.0
    outer loop
      vertex 5.455003026896134 0.11513943120216676 0.6991970036557146
      vertex 3.926774290538383 2.4582940591202522 0.6991970036557146
      vertex 5.152632187261818 0.05069616590462165 0.6991970036557146
    endloop
  endfacet
  facet normal 0.0 0.0 1.0
    outer loop
      vertex 5.152632187261818 0.05069616590462165 0.6991970036557146
      vertex 3.926774290538383 2.4582940591202522 0.6991970036557146
      vertex 4.834991040549093 0.0 0.6991970036557146
    endloop
  endfacet
  facet normal -0.0 0.0 1.0
    outer loop
      vertex 0.31228113601149654 3.6131544298968428 0.6991970036557146
      vertex 0.8848736422410831 3.434273880351524 0.6991970036557146
      vertex 0.6180053441487956 3.6840101483866117 0.6991970036557146
    endloop
  endfacet
  facet normal -0.0 0.0 1.0
    outer loop
      vertex 1.6779369581189112 4.332168914544539 0.6991970036557146
      vertex 1.772662116758174 3.3054309144297673 0.6991970036557146
      vertex 1.880316203552905 4.572023114332616 0.6991970036557146
    endloop
  endfacet
  facet normal -0.0 0.0 1.0
    outer loop
      vertex 1.880316203552905 4.572023114332616 0.6991970036557146
      vertex 1.772662116758174 3.3054309144297673 0.6991970036557146
      vertex 7.978053750239444 8.843956755393654 0.6991970036557146
    endloop
  endfacet
  facet normal 0.0 0.0 1.0
    outer loop
      vertex 1.880316203552905 4.572023114332616 0.6991970036557146
      vertex 7.978053750239444 8.843956755393654 0.6991970036557146
      vertex 3.025293617007519 9.323128153690348 0.6991970036557146
    endloop
  endfacet
  facet normal 0.0 0.0 1.0
    outer loop
      vertex 3.025293617007519 9.323128153690348 0.6991970036557146
      vertex 7.978053750239444 8.843956755393654 0.6991970036557146
      vertex 7.863257279705409 9.157550388323697 0.6991970036557146
    endloop
  endfacet
  facet normal -0.0 0.0 1.0
    outer loop
      vertex 3.025293617007519 9.323128153690348 0.6991970036557146
      vertex 7.863257279705409 9.157550388323697 0.6991970036557146
      vertex 3.044920835956778 9.396317693965848 0.6991970036557146
    endloop
  endfacet
  facet normal -0.0 0.0 1.0
    outer loop
      vertex 3.044920835956778 9.396317693965848 0.6991970036557146
      vertex 7.863257279705409 9.157550388323697 0.6991970036557146
      vertex 7.718344283773331 9.45173462567115 0.6991970036557146
    endloop
  endfacet
  facet normal 0.0 0.0 1.0
    outer loop
      vertex 3.044920835956778 9.396317693965848 0.6991970036557146
      vertex 7.718344283773331 9.45173462567115 0.6991970036557146
      vertex 3.125214974285527 9.61846196496883 0.6991970036557146
    endloop
  endfacet
  facet normal -0.0 0.0 1.0
    outer loop
      vertex 3.125214974285527 9.61846196496883 0.6991970036557146
      vertex 7.718344283773331 9.45173462567115 0.6991970036557146
      vertex 7.538481750928073 9.740409265454344 0.6991970036557146
    endloop
  endfacet
  facet normal 0.0 0.0 1.0
    outer loop
      vertex 3.125214974285527 9.61846196496883 0.6991970036557146
      vertex 7.538481750928073 9.740409265454344 0.6991970036557146
      vertex 3.2473107502903638 9.852315353273937 0.6991970036557146
    endloop
  endfacet
  facet normal -0.0 0.0 1.0
    outer loop
      vertex 3.2473107502903638 9.852315353273937 0.6991970036557146
      vertex 7.538481750928073 9.740409265454344 0.6991970036557146
      vertex 7.326343129592375 10.016058067910778 0.6991970036557146
    endloop
  endfacet
  facet normal 0.0 0.0 1.0
    outer loop
      vertex 3.2473107502903638 9.852315353273937 0.6991970036557146
      vertex 7.326343129592375 10.016058067910778 0.6991970036557146
      vertex 3.4057172369813156 10.074569869572702 0.6991970036557146
    endloop
  endfacet
  facet normal -0.0 0.0 1.0
    outer loop
      vertex 3.4057172369813156 10.074569869572702 0.6991970036557146
      vertex 7.326343129592375 10.016058067910778 0.6991970036557146
      vertex 7.08810037818016 10.26855713640269 0.6991970036557146
    endloop
  endfacet
  facet normal 0.0 0.0 1.0
    outer loop
      vertex 3.4057172369813156 10.074569869572702 0.6991970036557146
      vertex 7.08810037818016 10.26855713640269 0.6991970036557146
      vertex 3.6004433251080425 10.282491608344696 0.6991970036557146
    endloop
  endfacet
  facet normal -0.0 0.0 1.0
    outer loop
      vertex 3.6004433251080425 10.282491608344696 0.6991970036557146
      vertex 7.08810037818016 10.26855713640269 0.6991970036557146
      vertex 6.831132818909169 10.489526050300627 0.6991970036557146
    endloop
  endfacet
  facet normal 0.0 0.0 1.0
    outer loop
      vertex 3.6004433251080425 10.282491608344696 0.6991970036557146
      vertex 6.831132818909169 10.489526050300627 0.6991970036557146
      vertex 3.830012705689514 10.472224651462406 0.6991970036557146
    endloop
  endfacet
  facet normal 0.0 0.0 1.0
    outer loop
      vertex 3.830012705689514 10.472224651462406 0.6991970036557146
      vertex 6.831132818909169 10.489526050300627 0.6991970036557146
      vertex 6.570918357862372 10.668279906663294 0.6991970036557146
    endloop
  endfacet
  facet normal 0.0 0.0 1.0
    outer loop
      vertex 3.830012705689514 10.472224651462406 0.6991970036557146
      vertex 6.570918357862372 10.668279906663294 0.6991970036557146
      vertex 4.090655256332436 10.639088019229883 0.6991970036557146
    endloop
  endfacet
  facet normal 0.0 0.0 1.0
    outer loop
      vertex 4.090655256332436 10.639088019229883 0.6991970036557146
      vertex 6.570918357862372 10.668279906663294 0.6991970036557146
      vertex 6.298813408220387 10.812244259606656 0.6991970036557146
    endloop
  endfacet
  facet normal 0.0 0.0 1.0
    outer loop
      vertex 4.090655256332436 10.639088019229883 0.6991970036557146
      vertex 6.298813408220387 10.812244259606656 0.6991970036557146
      vertex 4.3756344560194815 10.778116227962053 0.6991970036557146
    endloop
  endfacet
  facet normal 0.0 0.0 1.0
    outer loop
      vertex 4.3756344560194815 10.778116227962053 0.6991970036557146
      vertex 6.298813408220387 10.812244259606656 0.6991970036557146
      vertex 6.027762901488069 10.914778608209717 0.6991970036557146
    endloop
  endfacet
  facet normal 0.0 0.0 1.0
    outer loop
      vertex 4.3756344560194815 10.778116227962053 0.6991970036557146
      vertex 6.027762901488069 10.914778608209717 0.6991970036557146
      vertex 4.641918631859112 10.874912486734598 0.6991970036557146
    endloop
  endfacet
  facet normal 0.0 0.0 1.0
    outer loop
      vertex 4.641918631859112 10.874912486734598 0.6991970036557146
      vertex 6.027762901488069 10.914778608209717 0.6991970036557146
      vertex 5.761724110339053 10.976675118267176 0.6991970036557146
    endloop
  endfacet
  facet normal 0.0 0.0 1.0
    outer loop
      vertex 4.641918631859112 10.874912486734598 0.6991970036557146
      vertex 5.761724110339053 10.976675118267176 0.6991970036557146
      vertex 4.94704782657542 10.9513515960108 0.6991970036557146
    endloop
  endfacet
  facet normal 0.0 0.0 1.0
    outer loop
      vertex 4.94704782657542 10.9513515960108 0.6991970036557146
      vertex 5.761724110339053 10.976675118267176 0.6991970036557146
      vertex 5.502717013096074 11.0 0.6991970036557146
    endloop
  endfacet
  facet normal 0.0 0.0 1.0
    outer loop
      vertex 4.94704782657542 10.9513515960108 0.6991970036557146
      vertex 5.502717013096074 11.0 0.6991970036557146
      vertex 5.243015548304655 10.992078342053002 0.6991970036557146
    endloop
  endfacet
  facet normal 0.0 0.0 1.0
    outer loop
      vertex 1.6779369581189112 4.332168914544539 0.6991970036557146
      vertex 1.446502298258787 4.120212109039387 0.6991970036557146
      vertex 1.772662116758174 3.3054309144297673 0.6991970036557146
    endloop
  endfacet
  facet normal 0.0 0.0 1.0
    outer loop
      vertex 1.772662116758174 3.3054309144297673 0.6991970036557146
      vertex 1.446502298258787 4.120212109039387 0.6991970036557146
      vertex 1.189825911039159 3.939644539746096 0.6991970036557146
    endloop
  endfacet
  facet normal 0.0 0.0 1.0
    outer loop
      vertex 1.772662116758174 3.3054309144297673 0.6991970036557146
      vertex 1.189825911039159 3.939644539746096 0.6991970036557146
      vertex 0.8848736422410831 3.434273880351524 0.6991970036557146
    endloop
  endfacet
  facet normal 0.0 0.0 1.0
    outer loop
      vertex 0.8848736422410831 3.434273880351524 0.6991970036557146
      vertex 1.189825911039159 3.939644539746096 0.6991970036557146
      vertex 0.9121349033858399 3.7934410515008796 0.6991970036557146
    endloop
  endfacet
  facet normal 0.0 -0.0 1.0
    outer loop
      vertex 0.8848736422410831 3.434273880351524 0.6991970036557146
      vertex 0.9121349033858399 3.7934410515008796 0.6991970036557146
      vertex 0.6180053441487956 3.6840101483866117 0.6991970036557146
    endloop
  endfacet
endsolid thingi10k_65610
