solid spectral_packing
  facet normal -1 0 0
    outer loop
      vertex 0 0 0
      vertex 0 14 5
      vertex 0 14 0
    endloop
  endfacet
  facet normal -1 0 0
    outer loop
      vertex 0 0 0
      vertex 0 0 5
      vertex 0 14 5
    endloop
  endfacet
  facet normal 1 0 0
    outer loop
      vertex 5 0 0
      vertex 5 14 0
      vertex 5 14 5
    endloop
  endfacet
  facet normal 1 0 0
    outer loop
      vertex 5 0 0
      vertex 5 14 5
      vertex 5 0 5
    endloop
  endfacet
  facet normal 0 0 -1
    outer loop
      vertex 0 0 0
      vertex 0 14 0
      vertex 5 14 0
    endloop
  endfacet
  facet normal 0 0 -1
    outer loop
      vertex 0 0 0
      vertex 5 14 0
      vertex 5 0 0
    endloop
  endfacet
  facet normal 0 1 0
    outer loop
      vertex 0 14 0
      vertex 0 14 5
      vertex 5 14 5
    endloop
  endfacet
  facet normal 0 1 0
    outer loop
      vertex 0 14 0
      vertex 5 14 5
      vertex 5 14 0
    endloop
  endfacet
  facet normal 0 0 1
    outer loop
      vertex 0 14 5
      vertex 0 0 5
      vertex 5 0 5
    endloop
  endfacet
  facet normal -0 0 1
    outer loop
      vertex 0 14 5
      vertex 5 0 5
      vertex 5 14 5
    endloop
  endfacet
  facet normal 0 -1 0
    outer loop
      vertex 0 0 5
      vertex 0 0 0
      vertex 5 0 0
    endloop
  endfacet
  facet normal 0 -1 0
    outer loop
      vertex 0 0 5
      vertex 5 0 0
      vertex 5 0 5
    endloop
  endfacet
  facet normal -1 0 0
    outer loop
      vertex 0 0 5
      vertex 0 5 14
      vertex 0 5 5
    endloop
  endfacet
  facet normal -1 0 0
    outer loop
      vertex 0 0 5
      vertex 0 0 14
      vertex 0 5 14
    endloop
  endfacet
  facet normal 1 0 0
    outer loop
      vertex 5 0 5
      vertex 5 5 5
      vertex 5 5 14
    endloop
  endfacet
  facet normal 1 0 0
    outer loop
      vertex 5 0 5
      vertex 5 5 14
      vertex 5 0 14
    endloop
  endfacet
  facet normal 0 0 -1
    outer loop
      vertex 0 0 5
      vertex 0 5 5
      vertex 5 5 5
    endloop
  endfacet
  facet normal 0 0 -1
    outer loop
      vertex 0 0 5
      vertex 5 5 5
      vertex 5 0 5
    endloop
  endfacet
  facet normal 0 1 0
    outer loop
      vertex 0 5 5
      vertex 0 5 14
      vertex 5 5 14
    endloop
  endfacet
  facet normal 0 1 0
    outer loop
      vertex 0 5 5
      vertex 5 5 14
      vertex 5 5 5
    endloop
  endfacet
  facet normal 0 0 1
    outer loop
      vertex 0 5 14
      vertex 0 0 14
      vertex 5 0 14
    endloop
  endfacet
  facet normal -0 0 1
    outer loop
      vertex 0 5 14
      vertex 5 0 14
      vertex 5 5 14
    endloop
  endfacet
  facet normal 0 -1 0
    outer loop
      vertex 0 0 14
      vertex 0 0 5
      vertex 5 0 5
    endloop
  endfacet
  facet normal 0 -1 0
    outer loop
      vertex 0 0 14
      vertex 5 0 5
      vertex 5 0 14
    endloop
  endfacet
  facet normal -1 0 0
    outer loop
      vertex 5 0 0
      vertex 5 5 5
      vertex 5 5 0
    endloop
  endfacet
  facet normal -1 0 0
    outer loop
      vertex 5 0 0
      vertex 5 0 5
      vertex 5 5 5
    endloop
  endfacet
  facet normal 1 0 0
    outer loop
      vertex 12 0 0
      vertex 12 5 0
      vertex 12 5 5
    endloop
  endfacet
  facet normal 1 0 0
    outer loop
      vertex 12 0 0
      vertex 12 5 5
      vertex 12 0 5
    endloop
  endfacet
  facet normal 0 0 -1
    outer loop
      vertex 5 0 0
      vertex 5 5 0
      vertex 12 5 0
    endloop
  endfacet
  facet normal 0 0 -1
    outer loop
      vertex 5 0 0
      vertex 12 5 0
      vertex 12 0 0
    endloop
  endfacet
  facet normal 0 1 0
    outer loop
      vertex 5 5 0
      vertex 5 5 5
      vertex 12 5 5
    endloop
  endfacet
  facet normal 0 1 0
    outer loop
      vertex 5 5 0
      vertex 12 5 5
      vertex 12 5 0
    endloop
  endfacet
  facet normal 0 0 1
    outer loop
      vertex 5 5 5
      vertex 5 0 5
      vertex 12 0 5
    endloop
  endfacet
  facet normal -0 0 1
    outer loop
      vertex 5 5 5
      vertex 12 0 5
      vertex 12 5 5
    endloop
  endfacet
  facet normal 0 -1 0
    outer loop
      vertex 5 0 5
      vertex 5 0 0
      vertex 12 0 0
    endloop
  endfacet
  facet normal 0 -1 0
    outer loop
      vertex 5 0 5
      vertex 12 0 0
      vertex 12 0 5
    endloop
  endfacet
  facet normal 0 0 1
    outer loop
      vertex 14 30 5
      vertex 0 26 5
      vertex 14 26 5
    endloop
  endfacet
  facet normal 0 0 1
    outer loop
      vertex 14 30 5
      vertex 0 30 5
      vertex 0 26 5
    endloop
  endfacet
  facet normal 0 -0 -1
    outer loop
      vertex 14 30 0
      vertex 14 26 0
      vertex 0 26 0
    endloop
  endfacet
  facet normal -0 0 -1
    outer loop
      vertex 14 30 0
      vertex 0 26 0
      vertex 0 30 0
    endloop
  endfacet
  facet normal 1 0 0
    outer loop
      vertex 14 30 5
      vertex 14 26 5
      vertex 14 26 0
    endloop
  endfacet
  facet normal 1 0 0
    outer loop
      vertex 14 30 5
      vertex 14 26 0
      vertex 14 30 0
    endloop
  endfacet
  facet normal -0 -1 0
    outer loop
      vertex 14 26 5
      vertex 0 26 5
      vertex 0 26 0
    endloop
  endfacet
  facet normal 0 -1 -0
    outer loop
      vertex 14 26 5
      vertex 0 26 0
      vertex 14 26 0
    endloop
  endfacet
  facet normal -1 0 0
    outer loop
      vertex 0 26 5
      vertex 0 30 5
      vertex 0 30 0
    endloop
  endfacet
  facet normal -1 0 0
    outer loop
      vertex 0 26 5
      vertex 0 30 0
      vertex 0 26 0
    endloop
  endfacet
  facet normal -0 1 0
    outer loop
      vertex 0 30 5
      vertex 14 30 5
      vertex 14 30 0
    endloop
  endfacet
  facet normal 0 1 0
    outer loop
      vertex 0 30 5
      vertex 14 30 0
      vertex 0 30 0
    endloop
  endfacet
  facet normal 0 0 1
    outer loop
      vertex 14 18 5
      vertex 0 14 5
      vertex 14 14 5
    endloop
  endfacet
  facet normal 0 0 1
    outer loop
      vertex 14 18 5
      vertex 0 18 5
      vertex 0 14 5
    endloop
  endfacet
  facet normal 0 -0 -1
    outer loop
      vertex 14 18 0
      vertex 14 14 0
      vertex 0 14 0
    endloop
  endfacet
  facet normal -0 0 -1
    outer loop
      vertex 14 18 0
      vertex 0 14 0
      vertex 0 18 0
    endloop
  endfacet
  facet normal 1 0 0
    outer loop
      vertex 14 18 5
      vertex 14 14 5
      vertex 14 14 0
    endloop
  endfacet
  facet normal 1 0 0
    outer loop
      vertex 14 18 5
      vertex 14 14 0
      vertex 14 18 0
    endloop
  endfacet
  facet normal -0 -1 0
    outer loop
      vertex 14 14 5
      vertex 0 14 5
      vertex 0 14 0
    endloop
  endfacet
  facet normal 0 -1 -0
    outer loop
      vertex 14 14 5
      vertex 0 14 0
      vertex 14 14 0
    endloop
  endfacet
  facet normal -1 0 0
    outer loop
      vertex 0 14 5
      vertex 0 18 5
      vertex 0 18 0
    endloop
  endfacet
  facet normal -1 0 0
    outer loop
      vertex 0 14 5
      vertex 0 18 0
      vertex 0 14 0
    endloop
  endfacet
  facet normal -0 1 0
    outer loop
      vertex 0 18 5
      vertex 14 18 5
      vertex 14 18 0
    endloop
  endfacet
  facet normal 0 1 0
    outer loop
      vertex 0 18 5
      vertex 14 18 0
      vertex 0 18 0
    endloop
  endfacet
  facet normal 0 0 1
    outer loop
      vertex 4 30 5
      vertex 0 14 5
      vertex 4 14 5
    endloop
  endfacet
  facet normal 0 0 1
    outer loop
      vertex 4 30 5
      vertex 0 30 5
      vertex 0 14 5
    endloop
  endfacet
  facet normal 0 -0 -1
    outer loop
      vertex 4 30 0
      vertex 4 14 0
      vertex 0 14 0
    endloop
  endfacet
  facet normal -0 0 -1
    outer loop
      vertex 4 30 0
      vertex 0 14 0
      vertex 0 30 0
    endloop
  endfacet
  facet normal 1 0 0
    outer loop
      vertex 4 30 5
      vertex 4 14 5
      vertex 4 14 0
    endloop
  endfacet
  facet normal 1 0 0
    outer loop
      vertex 4 30 5
      vertex 4 14 0
      vertex 4 30 0
    endloop
  endfacet
  facet normal -0 -1 0
    outer loop
      vertex 4 14 5
      vertex 0 14 5
      vertex 0 14 0
    endloop
  endfacet
  facet normal 0 -1 -0
    outer loop
      vertex 4 14 5
      vertex 0 14 0
      vertex 4 14 0
    endloop
  endfacet
  facet normal -1 0 0
    outer loop
      vertex 0 14 5
      vertex 0 30 5
      vertex 0 30 0
    endloop
  endfacet
  facet normal -1 0 0
    outer loop
      vertex 0 14 5
      vertex 0 30 0
      vertex 0 14 0
    endloop
  endfacet
  facet normal -0 1 0
    outer loop
      vertex 0 30 5
      vertex 4 30 5
      vertex 4 30 0
    endloop
  endfacet
  facet normal 0 1 0
    outer loop
      vertex 0 30 5
      vertex 4 30 0
      vertex 0 30 0
    endloop
  endfacet
  facet normal 0 0 -1
    outer loop
      vertex 16.752495 6.4721355 0
      vertex 14.283796 9.870007 0
      vertex 16.752495 14.472136 0
    endloop
  endfacet
  facet normal 0 -0 1
    outer loop
      vertex 16.752495 6.4721355 5
      vertex 16.752495 14.472136 5
      vertex 14.283796 9.870007 5
    endloop
  endfacet
  facet normal -0.88121897 0.47270817 0
    outer loop
      vertex 16.752495 14.472136 0
      vertex 14.283796 9.870007 0
      vertex 14.283796 9.870007 5
    endloop
  endfacet
  facet normal -0.88121897 0.47270817 0
    outer loop
      vertex 16.752495 14.472136 0
      vertex 14.283796 9.870007 5
      vertex 16.752495 14.472136 5
    endloop
  endfacet
  facet normal 0 0 -0.99999994
    outer loop
      vertex 16.752495 6.4721355 0
      vertex 9.144043 8.944271 0
      vertex 14.283796 9.870007 0
    endloop
  endfacet
  facet normal 0 0 0.99999994
    outer loop
      vertex 16.752495 6.4721355 5
      vertex 14.283796 9.870007 5
      vertex 9.144043 8.944271 5
    endloop
  endfacet
  facet normal -0.17726053 0.9841639 0
    outer loop
      vertex 14.283796 9.870007 0
      vertex 9.144043 8.944271 0
      vertex 9.144043 8.944271 5
    endloop
  endfacet
  facet normal -0.17726053 0.9841639 0
    outer loop
      vertex 14.283796 9.870007 0
      vertex 9.144043 8.944271 5
      vertex 14.283796 9.870007 5
    endloop
  endfacet
  facet normal -0 0 -1
    outer loop
      vertex 16.752495 6.4721355 0
      vertex 12.758058 5.174264 0
      vertex 9.144043 8.944271 0
    endloop
  endfacet
  facet normal 0 0 1
    outer loop
      vertex 16.752495 6.4721355 5
      vertex 9.144043 8.944271 5
      vertex 12.758058 5.174264 5
    endloop
  endfacet
  facet normal -0.7218839 -0.6920142 0
    outer loop
      vertex 9.144043 8.944271 0
      vertex 12.758058 5.174264 0
      vertex 12.758058 5.174264 5
    endloop
  endfacet
  facet normal -0.7218839 -0.6920142 0
    outer loop
      vertex 9.144043 8.944271 0
      vertex 12.758058 5.174264 5
      vertex 9.144043 8.944271 5
    endloop
  endfacet
  facet normal 0 0 -0.99999994
    outer loop
      vertex 16.752495 6.4721355 0
      vertex 12.050213 0 0
      vertex 12.758058 5.174264 0
    endloop
  endfacet
  facet normal 0 0 0.99999994
    outer loop
      vertex 16.752495 6.4721355 5
      vertex 12.758058 5.174264 5
      vertex 12.050213 0 5
    endloop
  endfacet
  facet normal -0.99077207 0.13553867 0
    outer loop
      vertex 12.758058 5.174264 0
      vertex 12.050213 0 0
      vertex 12.050213 0 5
    endloop
  endfacet
  facet normal -0.99077207 0.13553867 0
    outer loop
      vertex 12.758058 5.174264 0
      vertex 12.050213 0 5
      vertex 12.758058 5.174264 5
    endloop
  endfacet
  facet normal 0 -0 -1
    outer loop
      vertex 16.752495 6.4721355 0
      vertex 16.752495 2.2721357 0
      vertex 12.050213 0 0
    endloop
  endfacet
  facet normal 0 0 1
    outer loop
      vertex 16.752495 6.4721355 5
      vertex 12.050213 0 5
      vertex 16.752495 2.2721357 5
    endloop
  endfacet
  facet normal 0.43507028 -0.9003965 0
    outer loop
      vertex 12.050213 0 0
      vertex 16.752495 2.2721357 0
      vertex 16.752495 2.2721357 5
    endloop
  endfacet
  facet normal 0.43507028 -0.9003965 0
    outer loop
      vertex 12.050213 0 0
      vertex 16.752495 2.2721357 5
      vertex 12.050213 0 5
    endloop
  endfacet
  facet normal 0 0 -1
    outer loop
      vertex 16.752495 6.4721355 0
      vertex 21.454777 0 0
      vertex 16.752495 2.2721357 0
    endloop
  endfacet
  facet normal 0 0 1
    outer loop
      vertex 16.752495 6.4721355 5
      vertex 16.752495 2.2721357 5
      vertex 21.454777 0 5
    endloop
  endfacet
  facet normal -0.43507028 -0.9003965 0
    outer loop
      vertex 16.752495 2.2721357 0
      vertex 21.454777 0 0
      vertex 21.454777 0 5
    endloop
  endfacet
  facet normal -0.43507028 -0.9003965 0
    outer loop
      vertex 16.752495 2.2721357 0
      vertex 21.454777 0 5
      vertex 16.752495 2.2721357 5
    endloop
  endfacet
  facet normal 0 0 -1
    outer loop
      vertex 16.752495 6.4721355 0
      vertex 20.746933 5.174265 0
      vertex 21.454777 0 0
    endloop
  endfacet
  facet normal 0 0 1
    outer loop
      vertex 16.752495 6.4721355 5
      vertex 21.454777 0 5
      vertex 20.746933 5.174265 5
    endloop
  endfacet
  facet normal 0.99077207 0.13553846 0
    outer loop
      vertex 21.454777 0 0
      vertex 20.746933 5.174265 0
      vertex 20.746933 5.174265 5
    endloop
  endfacet
  facet normal 0.99077207 0.13553846 -0
    outer loop
      vertex 21.454777 0 0
      vertex 20.746933 5.174265 5
      vertex 21.454777 0 5
    endloop
  endfacet
  facet normal 0 0 -0.99999994
    outer loop
      vertex 16.752495 6.4721355 0
      vertex 24.360947 8.944271 0
      vertex 20.746933 5.174265 0
    endloop
  endfacet
  facet normal -0 0 0.99999994
    outer loop
      vertex 16.752495 6.4721355 5
      vertex 20.746933 5.174265 5
      vertex 24.360947 8.944271 5
    endloop
  endfacet
  facet normal 0.7218838 -0.6920142 0
    outer loop
      vertex 20.746933 5.174265 0
      vertex 24.360947 8.944271 0
      vertex 24.360947 8.944271 5
    endloop
  endfacet
  facet normal 0.7218838 -0.6920142 0
    outer loop
      vertex 20.746933 5.174265 0
      vertex 24.360947 8.944271 5
      vertex 20.746933 5.174265 5
    endloop
  endfacet
  facet normal 0 0 -0.99999994
    outer loop
      vertex 16.752495 6.4721355 0
      vertex 19.221193 9.870007 0
      vertex 24.360947 8.944271 0
    endloop
  endfacet
  facet normal 0 0 0.99999994
    outer loop
      vertex 16.752495 6.4721355 5
      vertex 24.360947 8.944271 5
      vertex 19.221193 9.870007 5
    endloop
  endfacet
  facet normal 0.17726053 0.9841639 0
    outer loop
      vertex 24.360947 8.944271 0
      vertex 19.221193 9.870007 0
      vertex 19.221193 9.870007 5
    endloop
  endfacet
  facet normal 0.17726053 0.9841639 -0
    outer loop
      vertex 24.360947 8.944271 0
      vertex 19.221193 9.870007 5
      vertex 24.360947 8.944271 5
    endloop
  endfacet
  facet normal 0 0 -1
    outer loop
      vertex 16.752495 6.4721355 0
      vertex 16.752495 14.472136 0
      vertex 19.221193 9.870007 0
    endloop
  endfacet
  facet normal 0 0 1
    outer loop
      vertex 16.752495 6.4721355 5
      vertex 19.221193 9.870007 5
      vertex 16.752495 14.472136 5
    endloop
  endfacet
  facet normal 0.88121897 0.47270817 0
    outer loop
      vertex 19.221193 9.870007 0
      vertex 16.752495 14.472136 0
      vertex 16.752495 14.472136 5
    endloop
  endfacet
  facet normal 0.88121897 0.47270817 -0
    outer loop
      vertex 19.221193 9.870007 0
      vertex 16.752495 14.472136 5
      vertex 19.221193 9.870007 5
    endloop
  endfacet
  facet normal 0 -1 0
    outer loop
      vertex 0 37 0
      vertex 14 37 0
      vertex 0 37 9
    endloop
  endfacet
  facet normal 0 1 0
    outer loop
      vertex 0 30 0
      vertex 0 30 9
      vertex 14 30 0
    endloop
  endfacet
  facet normal 0 0 1
    outer loop
      vertex 0 37 0
      vertex 0 30 0
      vertex 14 30 0
    endloop
  endfacet
  facet normal -0 0 1
    outer loop
      vertex 0 37 0
      vertex 14 30 0
      vertex 14 37 0
    endloop
  endfacet
  facet normal -0.5407576 -0 -0.8411784
    outer loop
      vertex 14 37 0
      vertex 14 30 0
      vertex 0 30 9
    endloop
  endfacet
  facet normal -0.5407576 0 -0.8411784
    outer loop
      vertex 14 37 0
      vertex 0 30 9
      vertex 0 37 9
    endloop
  endfacet
  facet normal 1 0 0
    outer loop
      vertex 0 37 9
      vertex 0 30 9
      vertex 0 30 0
    endloop
  endfacet
  facet normal 1 0 0
    outer loop
      vertex 0 37 9
      vertex 0 30 0
      vertex 0 37 0
    endloop
  endfacet
  facet normal 1 0 0
    outer loop
      vertex 37.411133 4 4
      vertex 37.411133 0.13629675 5.0352764
      vertex 37.411133 0 4
    endloop
  endfacet
  facet normal -1 0 0
    outer loop
      vertex 24.411133 4 4
      vertex 24.411133 0 4
      vertex 24.411133 0.13629675 5.0352764
    endloop
  endfacet
  facet normal 0 -0.9914448 0.13052621
    outer loop
      vertex 37.411133 0 4
      vertex 37.411133 0.13629675 5.0352764
      vertex 24.411133 0.13629675 5.0352764
    endloop
  endfacet
  facet normal 0 -0.9914448 0.13052621
    outer loop
      vertex 37.411133 0 4
      vertex 24.411133 0.13629675 5.0352764
      vertex 24.411133 0 4
    endloop
  endfacet
  facet normal 1 0 0
    outer loop
      vertex 37.411133 4 4
      vertex 37.411133 0.5358982 6
      vertex 37.411133 0.13629675 5.0352764
    endloop
  endfacet
  facet normal -1 0 0
    outer loop
      vertex 24.411133 4 4
      vertex 24.411133 0.13629675 5.0352764
      vertex 24.411133 0.5358982 6
    endloop
  endfacet
  facet normal 0 -0.92387956 0.3826833
    outer loop
      vertex 37.411133 0.13629675 5.0352764
      vertex 37.411133 0.5358982 6
      vertex 24.411133 0.5358982 6
    endloop
  endfacet
  facet normal 0 -0.92387956 0.3826833
    outer loop
      vertex 37.411133 0.13629675 5.0352764
      vertex 24.411133 0.5358982 6
      vertex 24.411133 0.13629675 5.0352764
    endloop
  endfacet
  facet normal 1 0 0
    outer loop
      vertex 37.411133 4 4
      vertex 37.411133 1.1715727 6.8284273
      vertex 37.411133 0.5358982 6
    endloop
  endfacet
  facet normal -1 0 0
    outer loop
      vertex 24.411133 4 4
      vertex 24.411133 0.5358982 6
      vertex 24.411133 1.1715727 6.8284273
    endloop
  endfacet
  facet normal 0 -0.7933534 0.6087613
    outer loop
      vertex 37.411133 0.5358982 6
      vertex 37.411133 1.1715727 6.8284273
      vertex 24.411133 1.1715727 6.8284273
    endloop
  endfacet
  facet normal 0 -0.7933534 0.6087613
    outer loop
      vertex 37.411133 0.5358982 6
      vertex 24.411133 1.1715727 6.8284273
      vertex 24.411133 0.5358982 6
    endloop
  endfacet
  facet normal 1 0 0
    outer loop
      vertex 37.411133 4 4
      vertex 37.411133 2 7.464102
      vertex 37.411133 1.1715727 6.8284273
    endloop
  endfacet
  facet normal -1 0 0
    outer loop
      vertex 24.411133 4 4
      vertex 24.411133 1.1715727 6.8284273
      vertex 24.411133 2 7.464102
    endloop
  endfacet
  facet normal 0 -0.6087613 0.7933534
    outer loop
      vertex 37.411133 1.1715727 6.8284273
      vertex 37.411133 2 7.464102
      vertex 24.411133 2 7.464102
    endloop
  endfacet
  facet normal 0 -0.6087613 0.7933534
    outer loop
      vertex 37.411133 1.1715727 6.8284273
      vertex 24.411133 2 7.464102
      vertex 24.411133 1.1715727 6.8284273
    endloop
  endfacet
  facet normal 1 0 0
    outer loop
      vertex 37.411133 4 4
      vertex 37.411133 2.964724 7.8637037
      vertex 37.411133 2 7.464102
    endloop
  endfacet
  facet normal -1 0 0
    outer loop
      vertex 24.411133 4 4
      vertex 24.411133 2 7.464102
      vertex 24.411133 2.964724 7.8637037
    endloop
  endfacet
  facet normal 0 -0.38268358 0.9238795
    outer loop
      vertex 37.411133 2 7.464102
      vertex 37.411133 2.964724 7.8637037
      vertex 24.411133 2.964724 7.8637037
    endloop
  endfacet
  facet normal 0 -0.38268358 0.9238795
    outer loop
      vertex 37.411133 2 7.464102
      vertex 24.411133 2.964724 7.8637037
      vertex 24.411133 2 7.464102
    endloop
  endfacet
  facet normal 1 0 -0
    outer loop
      vertex 37.411133 4 4
      vertex 37.411133 4 8
      vertex 37.411133 2.964724 7.8637037
    endloop
  endfacet
  facet normal -1 0 0
    outer loop
      vertex 24.411133 4 4
      vertex 24.411133 2.964724 7.8637037
      vertex 24.411133 4 8
    endloop
  endfacet
  facet normal 0 -0.13052583 0.9914449
    outer loop
      vertex 37.411133 2.964724 7.8637037
      vertex 37.411133 4 8
      vertex 24.411133 4 8
    endloop
  endfacet
  facet normal 0 -0.13052583 0.9914449
    outer loop
      vertex 37.411133 2.964724 7.8637037
      vertex 24.411133 4 8
      vertex 24.411133 2.964724 7.8637037
    endloop
  endfacet
  facet normal 1 0 0
    outer loop
      vertex 37.411133 4 4
      vertex 37.411133 5.0352764 7.8637033
      vertex 37.411133 4 8
    endloop
  endfacet
  facet normal -1 0 0
    outer loop
      vertex 24.411133 4 4
      vertex 24.411133 4 8
      vertex 24.411133 5.0352764 7.8637033
    endloop
  endfacet
  facet normal 0 0.13052621 0.9914448
    outer loop
      vertex 37.411133 4 8
      vertex 37.411133 5.0352764 7.8637033
      vertex 24.411133 5.0352764 7.8637033
    endloop
  endfacet
  facet normal 0 0.13052621 0.9914448
    outer loop
      vertex 37.411133 4 8
      vertex 24.411133 5.0352764 7.8637033
      vertex 24.411133 4 8
    endloop
  endfacet
  facet normal 1 0 0
    outer loop
      vertex 37.411133 4 4
      vertex 37.411133 6 7.464102
      vertex 37.411133 5.0352764 7.8637033
    endloop
  endfacet
  facet normal -1 0 0
    outer loop
      vertex 24.411133 4 4
      vertex 24.411133 5.0352764 7.8637033
      vertex 24.411133 6 7.464102
    endloop
  endfacet
  facet normal 0 0.3826833 0.92387956
    outer loop
      vertex 37.411133 5.0352764 7.8637033
      vertex 37.411133 6 7.464102
      vertex 24.411133 6 7.464102
    endloop
  endfacet
  facet normal 0 0.3826833 0.92387956
    outer loop
      vertex 37.411133 5.0352764 7.8637033
      vertex 24.411133 6 7.464102
      vertex 24.411133 5.0352764 7.8637033
    endloop
  endfacet
  facet normal 1 0 0
    outer loop
      vertex 37.411133 4 4
      vertex 37.411133 6.8284273 6.8284273
      vertex 37.411133 6 7.464102
    endloop
  endfacet
  facet normal -1 0 0
    outer loop
      vertex 24.411133 4 4
      vertex 24.411133 6 7.464102
      vertex 24.411133 6.8284273 6.8284273
    endloop
  endfacet
  facet normal 0 0.6087613 0.7933534
    outer loop
      vertex 37.411133 6 7.464102
      vertex 37.411133 6.8284273 6.8284273
      vertex 24.411133 6.8284273 6.8284273
    endloop
  endfacet
  facet normal 0 0.6087613 0.7933534
    outer loop
      vertex 37.411133 6 7.464102
      vertex 24.411133 6.8284273 6.8284273
      vertex 24.411133 6 7.464102
    endloop
  endfacet
  facet normal 1 0 0
    outer loop
      vertex 37.411133 4 4
      vertex 37.411133 7.464102 5.999999
      vertex 37.411133 6.8284273 6.8284273
    endloop
  endfacet
  facet normal -1 0 0
    outer loop
      vertex 24.411133 4 4
      vertex 24.411133 6.8284273 6.8284273
      vertex 24.411133 7.464102 5.999999
    endloop
  endfacet
  facet normal 0 0.79335374 0.6087609
    outer loop
      vertex 37.411133 6.8284273 6.8284273
      vertex 37.411133 7.464102 5.999999
      vertex 24.411133 7.464102 5.999999
    endloop
  endfacet
  facet normal 0 0.79335374 0.6087609
    outer loop
      vertex 37.411133 6.8284273 6.8284273
      vertex 24.411133 7.464102 5.999999
      vertex 24.411133 6.8284273 6.8284273
    endloop
  endfacet
  facet normal 1 0 0
    outer loop
      vertex 37.411133 4 4
      vertex 37.411133 7.8637037 5.0352755
      vertex 37.411133 7.464102 5.999999
    endloop
  endfacet
  facet normal -1 0 0
    outer loop
      vertex 24.411133 4 4
      vertex 24.411133 7.464102 5.999999
      vertex 24.411133 7.8637037 5.0352755
    endloop
  endfacet
  facet normal 0 0.92387944 0.38268372
    outer loop
      vertex 37.411133 7.464102 5.999999
      vertex 37.411133 7.8637037 5.0352755
      vertex 24.411133 7.8637037 5.0352755
    endloop
  endfacet
  facet normal 0 0.92387944 0.38268372
    outer loop
      vertex 37.411133 7.464102 5.999999
      vertex 24.411133 7.8637037 5.0352755
      vertex 24.411133 7.464102 5.999999
    endloop
  endfacet
  facet normal 1 -0 0
    outer loop
      vertex 37.411133 4 4
      vertex 37.411133 8 3.9999998
      vertex 37.411133 7.8637037 5.0352755
    endloop
  endfacet
  facet normal -1 0 0
    outer loop
      vertex 24.411133 4 4
      vertex 24.411133 7.8637037 5.0352755
      vertex 24.411133 8 3.9999998
    endloop
  endfacet
  facet normal 0 0.9914448 0.13052584
    outer loop
      vertex 37.411133 7.8637037 5.0352755
      vertex 37.411133 8 3.9999998
      vertex 24.411133 8 3.9999998
    endloop
  endfacet
  facet normal 0 0.9914448 0.13052584
    outer loop
      vertex 37.411133 7.8637037 5.0352755
      vertex 24.411133 8 3.9999998
      vertex 24.411133 7.8637037 5.0352755
    endloop
  endfacet
  facet normal 1 0 0
    outer loop
      vertex 37.411133 4 4
      vertex 37.411133 7.8637033 2.9647236
      vertex 37.411133 8 3.9999998
    endloop
  endfacet
  facet normal -1 0 0
    outer loop
      vertex 24.411133 4 4
      vertex 24.411133 8 3.9999998
      vertex 24.411133 7.8637033 2.9647236
    endloop
  endfacet
  facet normal 0 0.9914448 -0.13052624
    outer loop
      vertex 37.411133 8 3.9999998
      vertex 37.411133 7.8637033 2.9647236
      vertex 24.411133 7.8637033 2.9647236
    endloop
  endfacet
  facet normal 0 0.9914448 -0.13052624
    outer loop
      vertex 37.411133 8 3.9999998
      vertex 24.411133 7.8637033 2.9647236
      vertex 24.411133 8 3.9999998
    endloop
  endfacet
  facet normal 1 0 0
    outer loop
      vertex 37.411133 4 4
      vertex 37.411133 7.464101 1.9999993
      vertex 37.411133 7.8637033 2.9647236
    endloop
  endfacet
  facet normal -1 0 0
    outer loop
      vertex 24.411133 4 4
      vertex 24.411133 7.8637033 2.9647236
      vertex 24.411133 7.464101 1.9999993
    endloop
  endfacet
  facet normal 0 0.9238793 -0.38268384
    outer loop
      vertex 37.411133 7.8637033 2.9647236
      vertex 37.411133 7.464101 1.9999993
      vertex 24.411133 7.464101 1.9999993
    endloop
  endfacet
  facet normal 0 0.9238793 -0.38268384
    outer loop
      vertex 37.411133 7.8637033 2.9647236
      vertex 24.411133 7.464101 1.9999993
      vertex 24.411133 7.8637033 2.9647236
    endloop
  endfacet
  facet normal 1 0 0
    outer loop
      vertex 37.411133 4 4
      vertex 37.411133 6.8284273 1.1715732
      vertex 37.411133 7.464101 1.9999993
    endloop
  endfacet
  facet normal -1 0 0
    outer loop
      vertex 24.411133 4 4
      vertex 24.411133 7.464101 1.9999993
      vertex 24.411133 6.8284273 1.1715732
    endloop
  endfacet
  facet normal 0 0.7933535 -0.6087613
    outer loop
      vertex 37.411133 7.464101 1.9999993
      vertex 37.411133 6.8284273 1.1715732
      vertex 24.411133 6.8284273 1.1715732
    endloop
  endfacet
  facet normal 0 0.7933535 -0.6087613
    outer loop
      vertex 37.411133 7.464101 1.9999993
      vertex 24.411133 6.8284273 1.1715732
      vertex 24.411133 7.464101 1.9999993
    endloop
  endfacet
  facet normal 1 0 0
    outer loop
      vertex 37.411133 4 4
      vertex 37.411133 5.9999995 0.5358982
      vertex 37.411133 6.8284273 1.1715732
    endloop
  endfacet
  facet normal -1 0 0
    outer loop
      vertex 24.411133 4 4
      vertex 24.411133 6.8284273 1.1715732
      vertex 24.411133 5.9999995 0.5358982
    endloop
  endfacet
  facet normal 0 0.60876137 -0.7933533
    outer loop
      vertex 37.411133 6.8284273 1.1715732
      vertex 37.411133 5.9999995 0.5358982
      vertex 24.411133 5.9999995 0.5358982
    endloop
  endfacet
  facet normal 0 0.60876137 -0.7933533
    outer loop
      vertex 37.411133 6.8284273 1.1715732
      vertex 24.411133 5.9999995 0.5358982
      vertex 24.411133 6.8284273 1.1715732
    endloop
  endfacet
  facet normal 1 0 0
    outer loop
      vertex 37.411133 4 4
      vertex 37.411133 5.035276 0.13629651
      vertex 37.411133 5.9999995 0.5358982
    endloop
  endfacet
  facet normal -1 0 0
    outer loop
      vertex 24.411133 4 4
      vertex 24.411133 5.9999995 0.5358982
      vertex 24.411133 5.035276 0.13629651
    endloop
  endfacet
  facet normal 0 0.38268352 -0.92387944
    outer loop
      vertex 37.411133 5.9999995 0.5358982
      vertex 37.411133 5.035276 0.13629651
      vertex 24.411133 5.035276 0.13629651
    endloop
  endfacet
  facet normal 0 0.38268352 -0.92387944
    outer loop
      vertex 37.411133 5.9999995 0.5358982
      vertex 24.411133 5.035276 0.13629651
      vertex 24.411133 5.9999995 0.5358982
    endloop
  endfacet
  facet normal 1 0 0
    outer loop
      vertex 37.411133 4 4
      vertex 37.411133 4 0
      vertex 37.411133 5.035276 0.13629651
    endloop
  endfacet
  facet normal -1 0 0
    outer loop
      vertex 24.411133 4 4
      vertex 24.411133 5.035276 0.13629651
      vertex 24.411133 4 0
    endloop
  endfacet
  facet normal 0 0.13052605 -0.9914449
    outer loop
      vertex 37.411133 5.035276 0.13629651
      vertex 37.411133 4 0
      vertex 24.411133 4 0
    endloop
  endfacet
  facet normal 0 0.13052605 -0.9914449
    outer loop
      vertex 37.411133 5.035276 0.13629651
      vertex 24.411133 4 0
      vertex 24.411133 5.035276 0.13629651
    endloop
  endfacet
  facet normal 1 0 0
    outer loop
      vertex 37.411133 4 4
      vertex 37.411133 2.964724 0.13629675
      vertex 37.411133 4 0
    endloop
  endfacet
  facet normal -1 0 -0
    outer loop
      vertex 24.411133 4 4
      vertex 24.411133 4 0
      vertex 24.411133 2.964724 0.13629675
    endloop
  endfacet
  facet normal 0 -0.13052626 -0.9914448
    outer loop
      vertex 37.411133 4 0
      vertex 37.411133 2.964724 0.13629675
      vertex 24.411133 2.964724 0.13629675
    endloop
  endfacet
  facet normal -0 -0.13052626 -0.9914448
    outer loop
      vertex 37.411133 4 0
      vertex 24.411133 2.964724 0.13629675
      vertex 24.411133 4 0
    endloop
  endfacet
  facet normal 1 0 0
    outer loop
      vertex 37.411133 4 4
      vertex 37.411133 1.9999986 0.53589916
      vertex 37.411133 2.964724 0.13629675
    endloop
  endfacet
  facet normal -1 0 0
    outer loop
      vertex 24.411133 4 4
      vertex 24.411133 2.964724 0.13629675
      vertex 24.411133 1.9999986 0.53589916
    endloop
  endfacet
  facet normal 0 -0.38268346 -0.9238795
    outer loop
      vertex 37.411133 2.964724 0.13629675
      vertex 37.411133 1.9999986 0.53589916
      vertex 24.411133 1.9999986 0.53589916
    endloop
  endfacet
  facet normal -0 -0.38268346 -0.9238795
    outer loop
      vertex 37.411133 2.964724 0.13629675
      vertex 24.411133 1.9999986 0.53589916
      vertex 24.411133 2.964724 0.13629675
    endloop
  endfacet
  facet normal 1 0 0
    outer loop
      vertex 37.411133 4 4
      vertex 37.411133 1.1715717 1.1715739
      vertex 37.411133 1.9999986 0.53589916
    endloop
  endfacet
  facet normal -1 0 0
    outer loop
      vertex 24.411133 4 4
      vertex 24.411133 1.9999986 0.53589916
      vertex 24.411133 1.1715717 1.1715739
    endloop
  endfacet
  facet normal 0 -0.6087617 -0.79335314
    outer loop
      vertex 37.411133 1.9999986 0.53589916
      vertex 37.411133 1.1715717 1.1715739
      vertex 24.411133 1.1715717 1.1715739
    endloop
  endfacet
  facet normal -0 -0.6087617 -0.79335314
    outer loop
      vertex 37.411133 1.9999986 0.53589916
      vertex 24.411133 1.1715717 1.1715739
      vertex 24.411133 1.9999986 0.53589916
    endloop
  endfacet
  facet normal 1 0 0
    outer loop
      vertex 37.411133 4 4
      vertex 37.411133 0.53589773 2.000001
      vertex 37.411133 1.1715717 1.1715739
    endloop
  endfacet
  facet normal -1 0 0
    outer loop
      vertex 24.411133 4 4
      vertex 24.411133 1.1715717 1.1715739
      vertex 24.411133 0.53589773 2.000001
    endloop
  endfacet
  facet normal 0 -0.7933536 -0.60876113
    outer loop
      vertex 37.411133 1.1715717 1.1715739
      vertex 37.411133 0.53589773 2.000001
      vertex 24.411133 0.53589773 2.000001
    endloop
  endfacet
  facet normal -0 -0.7933536 -0.60876113
    outer loop
      vertex 37.411133 1.1715717 1.1715739
      vertex 24.411133 0.53589773 2.000001
      vertex 24.411133 1.1715717 1.1715739
    endloop
  endfacet
  facet normal 1 0 0
    outer loop
      vertex 37.411133 4 4
      vertex 37.411133 0.13629723 2.9647229
      vertex 37.411133 0.53589773 2.000001
    endloop
  endfacet
  facet normal -1 0 0
    outer loop
      vertex 24.411133 4 4
      vertex 24.411133 0.53589773 2.000001
      vertex 24.411133 0.13629723 2.9647229
    endloop
  endfacet
  facet normal 0 -0.9238797 -0.38268313
    outer loop
      vertex 37.411133 0.53589773 2.000001
      vertex 37.411133 0.13629723 2.9647229
      vertex 24.411133 0.13629723 2.9647229
    endloop
  endfacet
  facet normal -0 -0.9238797 -0.38268313
    outer loop
      vertex 37.411133 0.53589773 2.000001
      vertex 24.411133 0.13629723 2.9647229
      vertex 24.411133 0.53589773 2.000001
    endloop
  endfacet
  facet normal 1 0 0
    outer loop
      vertex 37.411133 4 4
      vertex 37.411133 0 4.0000005
      vertex 37.411133 0.13629723 2.9647229
    endloop
  endfacet
  facet normal -1 -0 0
    outer loop
      vertex 24.411133 4 4
      vertex 24.411133 0.13629723 2.9647229
      vertex 24.411133 0 4.0000005
    endloop
  endfacet
  facet normal 0 -0.9914449 -0.13052653
    outer loop
      vertex 37.411133 0.13629723 2.9647229
      vertex 37.411133 0 4.0000005
      vertex 24.411133 0 4.0000005
    endloop
  endfacet
  facet normal -0 -0.9914449 -0.13052653
    outer loop
      vertex 37.411133 0.13629723 2.9647229
      vertex 24.411133 0 4.0000005
      vertex 24.411133 0.13629723 2.9647229
    endloop
  endfacet
  facet normal 1 0 0
    outer loop
      vertex 6 10.050293 10.050293
      vertex 6 5.220664 11.344388
      vertex 6 5.050293 10.050293
    endloop
  endfacet
  facet normal -1 0 0
    outer loop
      vertex 0 10.050293 10.050293
      vertex 0 5.050293 10.050293
      vertex 0 5.220664 11.344388
    endloop
  endfacet
  facet normal 0 -0.9914448 0.13052635
    outer loop
      vertex 6 5.050293 10.050293
      vertex 6 5.220664 11.344388
      vertex 0 5.220664 11.344388
    endloop
  endfacet
  facet normal 0 -0.9914448 0.13052635
    outer loop
      vertex 6 5.050293 10.050293
      vertex 0 5.220664 11.344388
      vertex 0 5.050293 10.050293
    endloop
  endfacet
  facet normal 1 0 0
    outer loop
      vertex 6 10.050293 10.050293
      vertex 6 5.720166 12.550293
      vertex 6 5.220664 11.344388
    endloop
  endfacet
  facet normal -1 0 0
    outer loop
      vertex 0 10.050293 10.050293
      vertex 0 5.220664 11.344388
      vertex 0 5.720166 12.550293
    endloop
  endfacet
  facet normal 0 -0.92387956 0.38268343
    outer loop
      vertex 6 5.220664 11.344388
      vertex 6 5.720166 12.550293
      vertex 0 5.720166 12.550293
    endloop
  endfacet
  facet normal 0 -0.92387956 0.38268343
    outer loop
      vertex 6 5.220664 11.344388
      vertex 0 5.720166 12.550293
      vertex 0 5.220664 11.344388
    endloop
  endfacet
  facet normal 1 0 0
    outer loop
      vertex 6 10.050293 10.050293
      vertex 6 6.514759 13.585827
      vertex 6 5.720166 12.550293
    endloop
  endfacet
  facet normal -1 0 0
    outer loop
      vertex 0 10.050293 10.050293
      vertex 0 5.720166 12.550293
      vertex 0 6.514759 13.585827
    endloop
  endfacet
  facet normal 0 -0.7933534 0.6087613
    outer loop
      vertex 6 5.720166 12.550293
      vertex 6 6.514759 13.585827
      vertex 0 6.514759 13.585827
    endloop
  endfacet
  facet normal 0 -0.7933534 0.6087613
    outer loop
      vertex 6 5.720166 12.550293
      vertex 0 6.514759 13.585827
      vertex 0 5.720166 12.550293
    endloop
  endfacet
  facet normal 1 0 0
    outer loop
      vertex 6 10.050293 10.050293
      vertex 6 7.550293 14.380421
      vertex 6 6.514759 13.585827
    endloop
  endfacet
  facet normal -1 0 0
    outer loop
      vertex 0 10.050293 10.050293
      vertex 0 6.514759 13.585827
      vertex 0 7.550293 14.380421
    endloop
  endfacet
  facet normal 0 -0.6087618 0.79335314
    outer loop
      vertex 6 6.514759 13.585827
      vertex 6 7.550293 14.380421
      vertex 0 7.550293 14.380421
    endloop
  endfacet
  facet normal 0 -0.6087618 0.79335314
    outer loop
      vertex 6 6.514759 13.585827
      vertex 0 7.550293 14.380421
      vertex 0 6.514759 13.585827
    endloop
  endfacet
  facet normal 0.99999994 0 0
    outer loop
      vertex 6 10.050293 10.050293
      vertex 6 8.756198 14.879923
      vertex 6 7.550293 14.380421
    endloop
  endfacet
  facet normal -0.99999994 0 0
    outer loop
      vertex 0 10.050293 10.050293
      vertex 0 7.550293 14.380421
      vertex 0 8.756198 14.879923
    endloop
  endfacet
  facet normal 0 -0.38268343 0.92387956
    outer loop
      vertex 6 7.550293 14.380421
      vertex 6 8.756198 14.879923
      vertex 0 8.756198 14.879923
    endloop
  endfacet
  facet normal 0 -0.38268343 0.92387956
    outer loop
      vertex 6 7.550293 14.380421
      vertex 0 8.756198 14.879923
      vertex 0 7.550293 14.380421
    endloop
  endfacet
  facet normal 1 0 -0
    outer loop
      vertex 6 10.050293 10.050293
      vertex 6 10.050293 15.050293
      vertex 6 8.756198 14.879923
    endloop
  endfacet
  facet normal -1 0 0
    outer loop
      vertex 0 10.050293 10.050293
      vertex 0 8.756198 14.879923
      vertex 0 10.050293 15.050293
    endloop
  endfacet
  facet normal 0 -0.13052563 0.99144495
    outer loop
      vertex 6 8.756198 14.879923
      vertex 6 10.050293 15.050293
      vertex 0 10.050293 15.050293
    endloop
  endfacet
  facet normal 0 -0.13052563 0.99144495
    outer loop
      vertex 6 8.756198 14.879923
      vertex 0 10.050293 15.050293
      vertex 0 8.756198 14.879923
    endloop
  endfacet
  facet normal 0.99999994 0 0
    outer loop
      vertex 6 10.050293 10.050293
      vertex 6 11.344389 14.879922
      vertex 6 10.050293 15.050293
    endloop
  endfacet
  facet normal -0.99999994 0 0
    outer loop
      vertex 0 10.050293 10.050293
      vertex 0 10.050293 15.050293
      vertex 0 11.344389 14.879922
    endloop
  endfacet
  facet normal 0 0.13052626 0.9914448
    outer loop
      vertex 6 10.050293 15.050293
      vertex 6 11.344389 14.879922
      vertex 0 11.344389 14.879922
    endloop
  endfacet
  facet normal 0 0.13052626 0.9914448
    outer loop
      vertex 6 10.050293 15.050293
      vertex 0 11.344389 14.879922
      vertex 0 10.050293 15.050293
    endloop
  endfacet
  facet normal 1 0 0
    outer loop
      vertex 6 10.050293 10.050293
      vertex 6 12.550293 14.38042
      vertex 6 11.344389 14.879922
    endloop
  endfacet
  facet normal -1 0 0
    outer loop
      vertex 0 10.050293 10.050293
      vertex 0 11.344389 14.879922
      vertex 0 12.550293 14.38042
    endloop
  endfacet
  facet normal 0 0.3826837 0.92387944
    outer loop
      vertex 6 11.344389 14.879922
      vertex 6 12.550293 14.38042
      vertex 0 12.550293 14.38042
    endloop
  endfacet
  facet normal 0 0.3826837 0.92387944
    outer loop
      vertex 6 11.344389 14.879922
      vertex 0 12.550293 14.38042
      vertex 0 11.344389 14.879922
    endloop
  endfacet
  facet normal 1 0 0
    outer loop
      vertex 6 10.050293 10.050293
      vertex 6 13.585827 13.585827
      vertex 6 12.550293 14.38042
    endloop
  endfacet
  facet normal -1 0 0
    outer loop
      vertex 0 10.050293 10.050293
      vertex 0 12.550293 14.38042
      vertex 0 13.585827 13.585827
    endloop
  endfacet
  facet normal 0 0.6087613 0.7933534
    outer loop
      vertex 6 12.550293 14.38042
      vertex 6 13.585827 13.585827
      vertex 0 13.585827 13.585827
    endloop
  endfacet
  facet normal 0 0.6087613 0.7933534
    outer loop
      vertex 6 12.550293 14.38042
      vertex 0 13.585827 13.585827
      vertex 0 12.550293 14.38042
    endloop
  endfacet
  facet normal 1 0 0
    outer loop
      vertex 6 10.050293 10.050293
      vertex 6 14.380421 12.550292
      vertex 6 13.585827 13.585827
    endloop
  endfacet
  facet normal -1 0 0
    outer loop
      vertex 0 10.050293 10.050293
      vertex 0 13.585827 13.585827
      vertex 0 14.380421 12.550292
    endloop
  endfacet
  facet normal 0 0.7933533 0.60876137
    outer loop
      vertex 6 13.585827 13.585827
      vertex 6 14.380421 12.550292
      vertex 0 14.380421 12.550292
    endloop
  endfacet
  facet normal 0 0.7933533 0.60876137
    outer loop
      vertex 6 13.585827 13.585827
      vertex 0 14.380421 12.550292
      vertex 0 13.585827 13.585827
    endloop
  endfacet
  facet normal 1 0 0
    outer loop
      vertex 6 10.050293 10.050293
      vertex 6 14.879923 11.344387
      vertex 6 14.380421 12.550292
    endloop
  endfacet
  facet normal -1 0 0
    outer loop
      vertex 0 10.050293 10.050293
      vertex 0 14.380421 12.550292
      vertex 0 14.879923 11.344387
    endloop
  endfacet
  facet normal 0 0.92387956 0.38268343
    outer loop
      vertex 6 14.380421 12.550292
      vertex 6 14.879923 11.344387
      vertex 0 14.879923 11.344387
    endloop
  endfacet
  facet normal 0 0.92387956 0.38268343
    outer loop
      vertex 6 14.380421 12.550292
      vertex 0 14.879923 11.344387
      vertex 0 14.380421 12.550292
    endloop
  endfacet
  facet normal 1 0 0
    outer loop
      vertex 6 10.050293 10.050293
      vertex 6 15.050293 10.050293
      vertex 6 14.879923 11.344387
    endloop
  endfacet
  facet normal -1 0 0
    outer loop
      vertex 0 10.050293 10.050293
      vertex 0 14.879923 11.344387
      vertex 0 15.050293 10.050293
    endloop
  endfacet
  facet normal 0 0.991445 0.13052574
    outer loop
      vertex 6 14.879923 11.344387
      vertex 6 15.050293 10.050293
      vertex 0 15.050293 10.050293
    endloop
  endfacet
  facet normal 0 0.991445 0.13052574
    outer loop
      vertex 6 14.879923 11.344387
      vertex 0 15.050293 10.050293
      vertex 0 14.879923 11.344387
    endloop
  endfacet
  facet normal 0.99999994 -0 0
    outer loop
      vertex 6 10.050293 10.050293
      vertex 6 14.879922 8.756197
      vertex 6 15.050293 10.050293
    endloop
  endfacet
  facet normal -0.99999994 0 0
    outer loop
      vertex 0 10.050293 10.050293
      vertex 0 15.050293 10.050293
      vertex 0 14.879922 8.756197
    endloop
  endfacet
  facet normal 0 0.9914448 -0.13052626
    outer loop
      vertex 6 15.050293 10.050293
      vertex 6 14.879922 8.756197
      vertex 0 14.879922 8.756197
    endloop
  endfacet
  facet normal 0 0.9914448 -0.13052626
    outer loop
      vertex 6 15.050293 10.050293
      vertex 0 14.879922 8.756197
      vertex 0 15.050293 10.050293
    endloop
  endfacet
  facet normal 0.99999994 0 0
    outer loop
      vertex 6 10.050293 10.050293
      vertex 6 14.380419 7.550292
      vertex 6 14.879922 8.756197
    endloop
  endfacet
  facet normal -0.99999994 0 0
    outer loop
      vertex 0 10.050293 10.050293
      vertex 0 14.879922 8.756197
      vertex 0 14.380419 7.550292
    endloop
  endfacet
  facet normal 0 0.9238793 -0.38268408
    outer loop
      vertex 6 14.879922 8.756197
      vertex 6 14.380419 7.550292
      vertex 0 14.380419 7.550292
    endloop
  endfacet
  facet normal 0 0.9238793 -0.38268408
    outer loop
      vertex 6 14.879922 8.756197
      vertex 0 14.380419 7.550292
      vertex 0 14.879922 8.756197
    endloop
  endfacet
  facet normal 0.99999994 0 0
    outer loop
      vertex 6 10.050293 10.050293
      vertex 6 13.585827 6.5147595
      vertex 6 14.380419 7.550292
    endloop
  endfacet
  facet normal -0.99999994 0 0
    outer loop
      vertex 0 10.050293 10.050293
      vertex 0 14.380419 7.550292
      vertex 0 13.585827 6.5147595
    endloop
  endfacet
  facet normal 0 0.79335344 -0.6087614
    outer loop
      vertex 6 14.380419 7.550292
      vertex 6 13.585827 6.5147595
      vertex 0 13.585827 6.5147595
    endloop
  endfacet
  facet normal 0 0.79335344 -0.6087614
    outer loop
      vertex 6 14.380419 7.550292
      vertex 0 13.585827 6.5147595
      vertex 0 14.380419 7.550292
    endloop
  endfacet
  facet normal 0.99999994 0 0
    outer loop
      vertex 6 10.050293 10.050293
      vertex 6 12.550293 5.7201657
      vertex 6 13.585827 6.5147595
    endloop
  endfacet
  facet normal -0.99999994 0 0
    outer loop
      vertex 0 10.050293 10.050293
      vertex 0 13.585827 6.5147595
      vertex 0 12.550293 5.7201657
    endloop
  endfacet
  facet normal 0 0.6087618 -0.79335314
    outer loop
      vertex 6 13.585827 6.5147595
      vertex 6 12.550293 5.7201657
      vertex 0 12.550293 5.7201657
    endloop
  endfacet
  facet normal 0 0.6087618 -0.79335314
    outer loop
      vertex 6 13.585827 6.5147595
      vertex 0 12.550293 5.7201657
      vertex 0 13.585827 6.5147595
    endloop
  endfacet
  facet normal 1 0 0
    outer loop
      vertex 6 10.050293 10.050293
      vertex 6 11.344388 5.2206635
      vertex 6 12.550293 5.7201657
    endloop
  endfacet
  facet normal -1 0 0
    outer loop
      vertex 0 10.050293 10.050293
      vertex 0 12.550293 5.7201657
      vertex 0 11.344388 5.2206635
    endloop
  endfacet
  facet normal 0 0.38268343 -0.92387956
    outer loop
      vertex 6 12.550293 5.7201657
      vertex 6 11.344388 5.2206635
      vertex 0 11.344388 5.2206635
    endloop
  endfacet
  facet normal 0 0.38268343 -0.92387956
    outer loop
      vertex 6 12.550293 5.7201657
      vertex 0 11.344388 5.2206635
      vertex 0 12.550293 5.7201657
    endloop
  endfacet
  facet normal 1 0 0
    outer loop
      vertex 6 10.050293 10.050293
      vertex 6 10.050293 5.050293
      vertex 6 11.344388 5.2206635
    endloop
  endfacet
  facet normal -1 0 0
    outer loop
      vertex 0 10.050293 10.050293
      vertex 0 11.344388 5.2206635
      vertex 0 10.050293 5.050293
    endloop
  endfacet
  facet normal 0 0.13052599 -0.99144495
    outer loop
      vertex 6 11.344388 5.2206635
      vertex 6 10.050293 5.050293
      vertex 0 10.050293 5.050293
    endloop
  endfacet
  facet normal 0 0.13052599 -0.99144495
    outer loop
      vertex 6 11.344388 5.2206635
      vertex 0 10.050293 5.050293
      vertex 0 11.344388 5.2206635
    endloop
  endfacet
  facet normal 1 0 0
    outer loop
      vertex 6 10.050293 10.050293
      vertex 6 8.756198 5.220664
      vertex 6 10.050293 5.050293
    endloop
  endfacet
  facet normal -1 0 -0
    outer loop
      vertex 0 10.050293 10.050293
      vertex 0 10.050293 5.050293
      vertex 0 8.756198 5.220664
    endloop
  endfacet
  facet normal 0 -0.13052635 -0.9914448
    outer loop
      vertex 6 10.050293 5.050293
      vertex 6 8.756198 5.220664
      vertex 0 8.756198 5.220664
    endloop
  endfacet
  facet normal -0 -0.13052635 -0.9914448
    outer loop
      vertex 6 10.050293 5.050293
      vertex 0 8.756198 5.220664
      vertex 0 10.050293 5.050293
    endloop
  endfacet
  facet normal 1 0 0
    outer loop
      vertex 6 10.050293 10.050293
      vertex 6 7.550291 5.720167
      vertex 6 8.756198 5.220664
    endloop
  endfacet
  facet normal -1 0 0
    outer loop
      vertex 0 10.050293 10.050293
      vertex 0 8.756198 5.220664
      vertex 0 7.550291 5.720167
    endloop
  endfacet
  facet normal 0 -0.38268355 -0.9238795
    outer loop
      vertex 6 8.756198 5.220664
      vertex 6 7.550291 5.720167
      vertex 0 7.550291 5.720167
    endloop
  endfacet
  facet normal -0 -0.38268355 -0.9238795
    outer loop
      vertex 6 8.756198 5.220664
      vertex 0 7.550291 5.720167
      vertex 0 8.756198 5.220664
    endloop
  endfacet
  facet normal 1 0 0
    outer loop
      vertex 6 10.050293 10.050293
      vertex 6 6.514758 6.51476
      vertex 6 7.550291 5.720167
    endloop
  endfacet
  facet normal -1 0 0
    outer loop
      vertex 0 10.050293 10.050293
      vertex 0 7.550291 5.720167
      vertex 0 6.514758 6.51476
    endloop
  endfacet
  facet normal 0 -0.60876167 -0.79335314
    outer loop
      vertex 6 7.550291 5.720167
      vertex 6 6.514758 6.51476
      vertex 0 6.514758 6.51476
    endloop
  endfacet
  facet normal -0 -0.60876167 -0.79335314
    outer loop
      vertex 6 7.550291 5.720167
      vertex 0 6.514758 6.51476
      vertex 0 7.550291 5.720167
    endloop
  endfacet
  facet normal 1 0 0
    outer loop
      vertex 6 10.050293 10.050293
      vertex 6 5.7201653 7.550294
      vertex 6 6.514758 6.51476
    endloop
  endfacet
  facet normal -1 0 0
    outer loop
      vertex 0 10.050293 10.050293
      vertex 0 6.514758 6.51476
      vertex 0 5.7201653 7.550294
    endloop
  endfacet
  facet normal 0 -0.7933534 -0.6087613
    outer loop
      vertex 6 6.514758 6.51476
      vertex 6 5.7201653 7.550294
      vertex 0 5.7201653 7.550294
    endloop
  endfacet
  facet normal -0 -0.7933534 -0.6087613
    outer loop
      vertex 6 6.514758 6.51476
      vertex 0 5.7201653 7.550294
      vertex 0 6.514758 6.51476
    endloop
  endfacet
  facet normal 1 0 0
    outer loop
      vertex 6 10.050293 10.050293
      vertex 6 5.220664 8.756197
      vertex 6 5.7201653 7.550294
    endloop
  endfacet
  facet normal -1 0 0
    outer loop
      vertex 0 10.050293 10.050293
      vertex 0 5.7201653 7.550294
      vertex 0 5.220664 8.756197
    endloop
  endfacet
  facet normal 0 -0.92387956 -0.38268334
    outer loop
      vertex 6 5.7201653 7.550294
      vertex 6 5.220664 8.756197
      vertex 0 5.220664 8.756197
    endloop
  endfacet
  facet normal -0 -0.92387956 -0.38268334
    outer loop
      vertex 6 5.7201653 7.550294
      vertex 0 5.220664 8.756197
      vertex 0 5.7201653 7.550294
    endloop
  endfacet
  facet normal 1 0 0
    outer loop
      vertex 6 10.050293 10.050293
      vertex 6 5.050293 10.050294
      vertex 6 5.220664 8.756197
    endloop
  endfacet
  facet normal -1 -0 0
    outer loop
      vertex 0 10.050293 10.050293
      vertex 0 5.220664 8.756197
      vertex 0 5.050293 10.050294
    endloop
  endfacet
  facet normal 0 -0.9914449 -0.13052617
    outer loop
      vertex 6 5.220664 8.756197
      vertex 6 5.050293 10.050294
      vertex 0 5.050293 10.050294
    endloop
  endfacet
  facet normal -0 -0.9914449 -0.13052617
    outer loop
      vertex 6 5.220664 8.756197
      vertex 0 5.050293 10.050294
      vertex 0 5.220664 8.756197
    endloop
  endfacet
  facet normal 0 0 -1
    outer loop
      vertex 4 18 0
      vertex 16 26 0
      vertex 16 18 0
    endloop
  endfacet
  facet normal 0 0 -1
    outer loop
      vertex 4 18 0
      vertex 4 26 0
      vertex 16 26 0
    endloop
  endfacet
  facet normal 0 0 1
    outer loop
      vertex 4 18 6
      vertex 16 18 6
      vertex 16 26 6
    endloop
  endfacet
  facet normal 0 0 1
    outer loop
      vertex 4 18 6
      vertex 16 26 6
      vertex 4 26 6
    endloop
  endfacet
  facet normal 0 -1 0
    outer loop
      vertex 4 18 0
      vertex 16 18 0
      vertex 16 18 6
    endloop
  endfacet
  facet normal 0 -1 0
    outer loop
      vertex 4 18 0
      vertex 16 18 6
      vertex 4 18 6
    endloop
  endfacet
  facet normal 1 0 0
    outer loop
      vertex 16 18 0
      vertex 16 26 0
      vertex 16 26 6
    endloop
  endfacet
  facet normal 1 0 0
    outer loop
      vertex 16 18 0
      vertex 16 26 6
      vertex 16 18 6
    endloop
  endfacet
  facet normal 0 1 0
    outer loop
      vertex 16 26 0
      vertex 4 26 0
      vertex 4 26 6
    endloop
  endfacet
  facet normal 0 1 -0
    outer loop
      vertex 16 26 0
      vertex 4 26 6
      vertex 16 26 6
    endloop
  endfacet
  facet normal -1 0 0
    outer loop
      vertex 4 26 0
      vertex 4 18 0
      vertex 4 18 6
    endloop
  endfacet
  facet normal -1 0 0
    outer loop
      vertex 4 26 0
      vertex 4 18 6
      vertex 4 26 6
    endloop
  endfacet
  facet normal 0 0 -1
    outer loop
      vertex 19.271484 9.92041 0
      vertex 29.271484 19.92041 0
      vertex 29.271484 9.92041 0
    endloop
  endfacet
  facet normal 0 0 -1
    outer loop
      vertex 19.271484 9.92041 0
      vertex 19.271484 19.92041 0
      vertex 29.271484 19.92041 0
    endloop
  endfacet
  facet normal 0 0 1
    outer loop
      vertex 19.271484 9.92041 4
      vertex 29.271484 9.92041 4
      vertex 29.271484 19.92041 4
    endloop
  endfacet
  facet normal 0 0 1
    outer loop
      vertex 19.271484 9.92041 4
      vertex 29.271484 19.92041 4
      vertex 19.271484 19.92041 4
    endloop
  endfacet
  facet normal 0 -1 0
    outer loop
      vertex 19.271484 9.92041 0
      vertex 29.271484 9.92041 0
      vertex 29.271484 9.92041 4
    endloop
  endfacet
  facet normal 0 -1 0
    outer loop
      vertex 19.271484 9.92041 0
      vertex 29.271484 9.92041 4
      vertex 19.271484 9.92041 4
    endloop
  endfacet
  facet normal 1 0 0
    outer loop
      vertex 29.271484 9.92041 0
      vertex 29.271484 19.92041 0
      vertex 29.271484 19.92041 4
    endloop
  endfacet
  facet normal 1 0 0
    outer loop
      vertex 29.271484 9.92041 0
      vertex 29.271484 19.92041 4
      vertex 29.271484 9.92041 4
    endloop
  endfacet
  facet normal 0 1 0
    outer loop
      vertex 29.271484 19.92041 0
      vertex 19.271484 19.92041 0
      vertex 19.271484 19.92041 4
    endloop
  endfacet
  facet normal 0 1 -0
    outer loop
      vertex 29.271484 19.92041 0
      vertex 19.271484 19.92041 4
      vertex 29.271484 19.92041 4
    endloop
  endfacet
  facet normal -1 0 0
    outer loop
      vertex 19.271484 19.92041 0
      vertex 19.271484 9.92041 0
      vertex 19.271484 9.92041 4
    endloop
  endfacet
  facet normal -1 0 0
    outer loop
      vertex 19.271484 19.92041 0
      vertex 19.271484 9.92041 4
      vertex 19.271484 19.92041 4
    endloop
  endfacet
endsolid spectral_packing
