solid thingi10k_311322
  facet normal 0.5551433021928907 -0.8317547198726154 0.0
    outer loop
      vertex 5.6702358710822445 8.502374490830034 0.0
      vertex 5.6702358710822445 8.502374490830034 0.9754603196341541
      vertex 4.966669447322667 8.0327887121551 0.9754603196341541
    endloop
  endfacet
  facet normal 0.5551433021928907 -0.8317547198726154 0.0
    outer loop
      vertex 5.6702358710822445 8.502374490830034 0.0
      vertex 4.966669447322667 8.0327887121551 0.9754603196341541
      vertex 4.966669447322667 8.0327887121551 0.0
    endloop
  endfacet
  facet normal 0.19525418232226094 -0.9807526723316462 0.0
    outer loop
      vertex 6.5 8.667568959407932 0.9754603196341541
      vertex 5.6702358710822445 8.502374490830034 0.9754603196341541
      vertex 5.6702358710822445 8.502374490830034 0.0
    endloop
  endfacet
  facet normal 0.19525418232226094 -0.9807526723316462 0.0
    outer loop
      vertex 6.5 8.667568959407932 0.9754603196341541
      vertex 5.6702358710822445 8.502374490830034 0.0
      vertex 6.5 8.667568959407932 0.0
    endloop
  endfacet
  facet normal 0.19525418232226197 0.9807526723316459 -0.0
    outer loop
      vertex 5.6702358710822445 4.4965418281255 0.0
      vertex 5.6702358710822445 4.4965418281255 0.9754603196341541
      vertex 6.5 4.3313473595476015 0.9754603196341541
    endloop
  endfacet
  facet normal 0.19525418232226197 0.9807526723316459 0.0
    outer loop
      vertex 5.6702358710822445 4.4965418281255 0.0
      vertex 6.5 4.3313473595476015 0.9754603196341541
      vertex 6.5 4.3313473595476015 0.0
    endloop
  endfacet
  facet normal 0.5551433021928899 0.8317547198726158 -0.0
    outer loop
      vertex 4.966669447322667 4.966127606800434 0.0
      vertex 4.966669447322667 4.966127606800434 0.9754603196341541
      vertex 5.6702358710822445 4.4965418281255 0.9754603196341541
    endloop
  endfacet
  facet normal 0.5551433021928899 0.8317547198726158 0.0
    outer loop
      vertex 4.966669447322667 4.966127606800434 0.0
      vertex 5.6702358710822445 4.4965418281255 0.9754603196341541
      vertex 5.6702358710822445 4.4965418281255 0.0
    endloop
  endfacet
  facet normal 0.8317547198726163 0.5551433021928894 -0.0
    outer loop
      vertex 4.497083668647734 5.669694030560012 0.0
      vertex 4.497083668647734 5.669694030560012 0.9754603196341541
      vertex 4.966669447322667 4.966127606800434 0.9754603196341541
    endloop
  endfacet
  facet normal 0.8317547198726163 0.5551433021928894 0.0
    outer loop
      vertex 4.497083668647734 5.669694030560012 0.0
      vertex 4.966669447322667 4.966127606800434 0.9754603196341541
      vertex 4.966669447322667 4.966127606800434 0.0
    endloop
  endfacet
  facet normal 0.9807526723316459 0.1952541823222622 0.0
    outer loop
      vertex 4.497083668647734 5.669694030560012 0.9754603196341541
      vertex 4.497083668647734 5.669694030560012 0.0
      vertex 4.331889200069835 6.499458159477767 0.0
    endloop
  endfacet
  facet normal 0.9807526723316459 0.1952541823222622 0.0
    outer loop
      vertex 4.497083668647734 5.669694030560012 0.9754603196341541
      vertex 4.331889200069835 6.499458159477767 0.0
      vertex 4.331889200069835 6.499458159477767 0.9754603196341541
    endloop
  endfacet
  facet normal -0.9569205888322301 -0.29034976609079277 -0.0
    outer loop
      vertex 0.12511454064423752 5.231522153477748 0.9754603196341541
      vertex 0.12511454064423752 5.231522153477748 0.0
      vertex 0.49504234000725206 4.012332166318697 0.0
    endloop
  endfacet
  facet normal -0.9569205888322301 -0.29034976609079277 0.0
    outer loop
      vertex 0.12511454064423752 5.231522153477748 0.9754603196341541
      vertex 0.49504234000725206 4.012332166318697 0.0
      vertex 0.49504234000725206 4.012332166318697 0.9754603196341541
    endloop
  endfacet
  facet normal -0.9951668145442768 -0.098198835175357 -0.0
    outer loop
      vertex 0.0 6.499458159477767 0.9754603196341541
      vertex 0.0 6.499458159477767 0.0
      vertex 0.12511454064423752 5.231522153477748 0.0
    endloop
  endfacet
  facet normal -0.9951668145442768 -0.098198835175357 0.0
    outer loop
      vertex 0.0 6.499458159477767 0.9754603196341541
      vertex 0.12511454064423752 5.231522153477748 0.0
      vertex 0.12511454064423752 5.231522153477748 0.9754603196341541
    endloop
  endfacet
  facet normal -0.9951668145442768 0.098198835175357 0.0
    outer loop
      vertex 0.12511454064423752 7.767394165477786 0.9754603196341541
      vertex 0.12511454064423752 7.767394165477786 0.0
      vertex 0.0 6.499458159477767 0.0
    endloop
  endfacet
  facet normal -0.9951668145442768 0.098198835175357 0.0
    outer loop
      vertex 0.12511454064423752 7.767394165477786 0.9754603196341541
      vertex 0.0 6.499458159477767 0.0
      vertex 0.0 6.499458159477767 0.9754603196341541
    endloop
  endfacet
  facet normal -0.9569205888322302 0.29034976609079255 0.0
    outer loop
      vertex 0.49504234000725206 8.986584152636837 0.9754603196341541
      vertex 0.49504234000725206 8.986584152636837 0.0
      vertex 0.12511454064423752 7.767394165477786 0.0
    endloop
  endfacet
  facet normal -0.9569205888322302 0.29034976609079255 0.0
    outer loop
      vertex 0.49504234000725206 8.986584152636837 0.9754603196341541
      vertex 0.12511454064423752 7.767394165477786 0.0
      vertex 0.12511454064423752 7.767394165477786 0.9754603196341541
    endloop
  endfacet
  facet normal -0.8819407535083992 0.4713602733589638 0.0
    outer loop
      vertex 1.0957007098162495 10.110448689407095 0.9754603196341541
      vertex 1.0957007098162495 10.110448689407095 0.0
      vertex 0.49504234000725206 8.986584152636837 0.0
    endloop
  endfacet
  facet normal -0.8819407535083992 0.4713602733589638 0.0
    outer loop
      vertex 1.0957007098162495 10.110448689407095 0.9754603196341541
      vertex 0.49504234000725206 8.986584152636837 0.0
      vertex 0.49504234000725206 8.986584152636837 0.9754603196341541
    endloop
  endfacet
  facet normal -0.7731803699387526 0.6341861836569556 0.0
    outer loop
      vertex 1.9037998051646854 11.09565835431308 0.9754603196341541
      vertex 1.9037998051646854 11.09565835431308 0.0
      vertex 1.0957007098162495 10.110448689407095 0.0
    endloop
  endfacet
  facet normal -0.7731803699387526 0.6341861836569556 0.0
    outer loop
      vertex 1.9037998051646854 11.09565835431308 0.9754603196341541
      vertex 1.0957007098162495 10.110448689407095 0.0
      vertex 1.0957007098162495 10.110448689407095 0.9754603196341541
    endloop
  endfacet
  facet normal -0.6341861836569559 0.7731803699387523 0.0
    outer loop
      vertex 2.8890094700706714 11.903757449661517 0.9754603196341541
      vertex 2.8890094700706714 11.903757449661517 0.0
      vertex 1.9037998051646854 11.09565835431308 0.0
    endloop
  endfacet
  facet normal -0.6341861836569559 0.7731803699387523 0.0
    outer loop
      vertex 2.8890094700706714 11.903757449661517 0.9754603196341541
      vertex 1.9037998051646854 11.09565835431308 0.0
      vertex 1.9037998051646854 11.09565835431308 0.9754603196341541
    endloop
  endfacet
  facet normal -0.4713602733589631 0.8819407535083996 0.0
    outer loop
      vertex 4.0128740068409305 12.504415819470514 0.9754603196341541
      vertex 4.0128740068409305 12.504415819470514 0.0
      vertex 2.8890094700706714 11.903757449661517 0.0
    endloop
  endfacet
  facet normal -0.4713602733589631 0.8819407535083996 0.0
    outer loop
      vertex 4.0128740068409305 12.504415819470514 0.9754603196341541
      vertex 2.8890094700706714 11.903757449661517 0.0
      vertex 2.8890094700706714 11.903757449661517 0.9754603196341541
    endloop
  endfacet
  facet normal -0.2903497660907921 0.9569205888322303 0.0
    outer loop
      vertex 5.232063993999981 12.874343618833528 0.9754603196341541
      vertex 5.232063993999981 12.874343618833528 0.0
      vertex 4.0128740068409305 12.504415819470514 0.9754603196341541
    endloop
  endfacet
  facet normal -0.2903497660907921 0.9569205888322303 0.0
    outer loop
      vertex 4.0128740068409305 12.504415819470514 0.9754603196341541
      vertex 5.232063993999981 12.874343618833528 0.0
      vertex 4.0128740068409305 12.504415819470514 0.0
    endloop
  endfacet
  facet normal -0.0981988351753579 0.9951668145442768 0.0
    outer loop
      vertex 6.5 12.999458159477767 0.0
      vertex 5.232063993999981 12.874343618833528 0.0
      vertex 5.232063993999981 12.874343618833528 0.9754603196341541
    endloop
  endfacet
  facet normal -0.0981988351753579 0.9951668145442768 0.0
    outer loop
      vertex 6.5 12.999458159477767 0.0
      vertex 5.232063993999981 12.874343618833528 0.9754603196341541
      vertex 6.5 12.999458159477767 0.9754603196341541
    endloop
  endfacet
  facet normal 0.9807526723316459 -0.1952541823222622 0.0
    outer loop
      vertex 4.497083668647734 7.329222288395521 0.0
      vertex 4.497083668647734 7.329222288395521 0.9754603196341541
      vertex 4.331889200069835 6.499458159477767 0.9754603196341541
    endloop
  endfacet
  facet normal 0.9807526723316459 -0.1952541823222622 0.0
    outer loop
      vertex 4.497083668647734 7.329222288395521 0.0
      vertex 4.331889200069835 6.499458159477767 0.9754603196341541
      vertex 4.331889200069835 6.499458159477767 0.0
    endloop
  endfacet
  facet normal 0.8317547198726163 -0.5551433021928894 0.0
    outer loop
      vertex 4.966669447322667 8.0327887121551 0.0
      vertex 4.966669447322667 8.0327887121551 0.9754603196341541
      vertex 4.497083668647734 7.329222288395521 0.9754603196341541
    endloop
  endfacet
  facet normal 0.8317547198726163 -0.5551433021928894 0.0
    outer loop
      vertex 4.966669447322667 8.0327887121551 0.0
      vertex 4.497083668647734 7.329222288395521 0.9754603196341541
      vertex 4.497083668647734 7.329222288395521 0.0
    endloop
  endfacet
  facet normal 0.0 0.0 1.0
    outer loop
      vertex 7.329764128917755 4.4965418281255 0.9754603196341541
      vertex 6.5 4.3313473595476015 0.9754603196341541
      vertex 7.767936006000018 0.12457270012200451 0.9754603196341541
    endloop
  endfacet
  facet normal 0.0 -0.0 1.0
    outer loop
      vertex 7.767936006000018 0.12457270012200451 0.9754603196341541
      vertex 8.987125993159069 0.49450049948501906 0.9754603196341541
      vertex 7.329764128917755 4.4965418281255 0.9754603196341541
    endloop
  endfacet
  facet normal 0.0 0.0 1.0
    outer loop
      vertex 6.5 0.0 0.9754603196341541
      vertex 7.767936006000018 0.12457270012200451 0.9754603196341541
      vertex 6.5 4.3313473595476015 0.9754603196341541
    endloop
  endfacet
  facet normal -0.0 0.0 1.0
    outer loop
      vertex 6.5 8.667568959407932 0.9754603196341541
      vertex 7.329764128917755 8.502374490830034 0.9754603196341541
      vertex 7.767936006000018 12.874343618833528 0.9754603196341541
    endloop
  endfacet
  facet normal 0.0 0.0 1.0
    outer loop
      vertex 6.5 8.667568959407932 0.9754603196341541
      vertex 7.767936006000018 12.874343618833528 0.9754603196341541
      vertex 6.5 12.999458159477767 0.9754603196341541
    endloop
  endfacet
  facet normal 0.0 0.0 1.0
    outer loop
      vertex 11.90429929018375 10.110448689407095 0.9754603196341541
      vertex 8.502916331352266 7.329222288395521 0.9754603196341541
      vertex 12.504957659992748 8.986584152636837 0.9754603196341541
    endloop
  endfacet
  facet normal 0.0 0.0 1.0
    outer loop
      vertex 12.874885459355761 7.767394165477786 0.9754603196341541
      vertex 12.504957659992748 8.986584152636837 0.9754603196341541
      vertex 8.502916331352266 7.329222288395521 0.9754603196341541
    endloop
  endfacet
  facet normal 0.0 0.0 1.0
    outer loop
      vertex 11.096200194835314 11.09565835431308 0.9754603196341541
      vertex 8.033330552677333 8.0327887121551 0.9754603196341541
      vertex 11.90429929018375 10.110448689407095 0.9754603196341541
    endloop
  endfacet
  facet normal 0.0 0.0 1.0
    outer loop
      vertex 10.110990529929328 11.903757449661517 0.9754603196341541
      vertex 8.033330552677333 8.0327887121551 0.9754603196341541
      vertex 11.096200194835314 11.09565835431308 0.9754603196341541
    endloop
  endfacet
  facet normal 0.0 0.0 1.0
    outer loop
      vertex 8.987125993159069 12.504415819470514 0.9754603196341541
      vertex 7.329764128917755 8.502374490830034 0.9754603196341541
      vertex 10.110990529929328 11.903757449661517 0.9754603196341541
    endloop
  endfacet
  facet normal -0.0 0.0 1.0
    outer loop
      vertex 8.502916331352266 7.329222288395521 0.9754603196341541
      vertex 8.668110799930165 6.499458159477767 0.9754603196341541
      vertex 12.874885459355761 7.767394165477786 0.9754603196341541
    endloop
  endfacet
  facet normal 0.0 0.0 1.0
    outer loop
      vertex 13.0 6.499458159477767 0.9754603196341541
      vertex 12.874885459355761 7.767394165477786 0.9754603196341541
      vertex 8.668110799930165 6.499458159477767 0.9754603196341541
    endloop
  endfacet
  facet normal 0.0 -0.0 1.0
    outer loop
      vertex 12.504957659992748 4.012332166318697 0.9754603196341541
      vertex 12.874885459355761 5.231522153477748 0.9754603196341541
      vertex 8.502916331352266 5.669694030560012 0.9754603196341541
    endloop
  endfacet
  facet normal -0.0 0.0 1.0
    outer loop
      vertex 8.033330552677333 4.966127606800434 0.9754603196341541
      vertex 11.90429929018375 2.8884676295484386 0.9754603196341541
      vertex 8.502916331352266 5.669694030560012 0.9754603196341541
    endloop
  endfacet
  facet normal 0.0 0.0 1.0
    outer loop
      vertex 8.668110799930165 6.499458159477767 0.9754603196341541
      vertex 8.502916331352266 5.669694030560012 0.9754603196341541
      vertex 12.874885459355761 5.231522153477748 0.9754603196341541
    endloop
  endfacet
  facet normal 0.0 0.0 1.0
    outer loop
      vertex 13.0 6.499458159477767 0.9754603196341541
      vertex 8.668110799930165 6.499458159477767 0.9754603196341541
      vertex 12.874885459355761 5.231522153477748 0.9754603196341541
    endloop
  endfacet
  facet normal 0.0 -0.0 1.0
    outer loop
      vertex 8.987125993159069 0.49450049948501906 0.9754603196341541
      vertex 10.110990529929328 1.0951588692940164 0.9754603196341541
      vertex 7.329764128917755 4.4965418281255 0.9754603196341541
    endloop
  endfacet
  facet normal 0.0 0.0 1.0
    outer loop
      vertex 8.033330552677333 4.966127606800434 0.9754603196341541
      vertex 7.329764128917755 4.4965418281255 0.9754603196341541
      vertex 10.110990529929328 1.0951588692940164 0.9754603196341541
    endloop
  endfacet
  facet normal 0.0 -0.0 1.0
    outer loop
      vertex 10.110990529929328 1.0951588692940164 0.9754603196341541
      vertex 11.096200194835314 1.9032579646424523 0.9754603196341541
      vertex 8.033330552677333 4.966127606800434 0.9754603196341541
    endloop
  endfacet
  facet normal 0.0 0.0 1.0
    outer loop
      vertex 11.90429929018375 2.8884676295484386 0.9754603196341541
      vertex 8.033330552677333 4.966127606800434 0.9754603196341541
      vertex 11.096200194835314 1.9032579646424523 0.9754603196341541
    endloop
  endfacet
  facet normal 0.0 0.0 1.0
    outer loop
      vertex 12.504957659992748 4.012332166318697 0.9754603196341541
      vertex 8.502916331352266 5.669694030560012 0.9754603196341541
      vertex 11.90429929018375 2.8884676295484386 0.9754603196341541
    endloop
  endfacet
  facet normal 0.0 0.0 1.0
    outer loop
      vertex 6.5 12.999458159477767 0.9754603196341541
      vertex 5.232063993999981 12.874343618833528 0.9754603196341541
      vertex 6.5 8.667568959407932 0.9754603196341541
    endloop
  endfacet
  facet normal 0.0 0.0 1.0
    outer loop
      vertex 4.0128740068409305 12.504415819470514 0.9754603196341541
      vertex 2.8890094700706714 11.903757449661517 0.9754603196341541
      vertex 5.6702358710822445 8.502374490830034 0.9754603196341541
    endloop
  endfacet
  facet normal -0.0 0.0 1.0
    outer loop
      vertex 4.0128740068409305 12.504415819470514 0.9754603196341541
      vertex 5.6702358710822445 8.502374490830034 0.9754603196341541
      vertex 5.232063993999981 12.874343618833528 0.9754603196341541
    endloop
  endfacet
  facet normal 0.0 -0.0 1.0
    outer loop
      vertex 5.6702358710822445 8.502374490830034 0.9754603196341541
      vertex 6.5 8.667568959407932 0.9754603196341541
      vertex 5.232063993999981 12.874343618833528 0.9754603196341541
    endloop
  endfacet
  facet normal 0.0 -0.0 1.0
    outer loop
      vertex 5.232063993999981 0.12457270012200451 0.9754603196341541
      vertex 5.6702358710822445 4.4965418281255 0.9754603196341541
      vertex 4.0128740068409305 0.49450049948501906 0.9754603196341541
    endloop
  endfacet
  facet normal 0.0 0.0 1.0
    outer loop
      vertex 4.497083668647734 5.669694030560012 0.9754603196341541
      vertex 4.331889200069835 6.499458159477767 0.9754603196341541
      vertex 0.12511454064423752 5.231522153477748 0.9754603196341541
    endloop
  endfacet
  facet normal 0.0 0.0 1.0
    outer loop
      vertex 4.966669447322667 4.966127606800434 0.9754603196341541
      vertex 2.8890094700706714 1.0951588692940164 0.9754603196341541
      vertex 5.6702358710822445 4.4965418281255 0.9754603196341541
    endloop
  endfacet
  facet normal 0.0 0.0 1.0
    outer loop
      vertex 6.5 4.3313473595476015 0.9754603196341541
      vertex 5.6702358710822445 4.4965418281255 0.9754603196341541
      vertex 5.232063993999981 0.12457270012200451 0.9754603196341541
    endloop
  endfacet
  facet normal 0.0 0.0 1.0
    outer loop
      vertex 6.5 4.3313473595476015 0.9754603196341541
      vertex 5.232063993999981 0.12457270012200451 0.9754603196341541
      vertex 6.5 0.0 0.9754603196341541
    endloop
  endfacet
  facet normal 0.0 0.0 1.0
    outer loop
      vertex 0.49504234000725206 8.986584152636837 0.9754603196341541
      vertex 0.12511454064423752 7.767394165477786 0.9754603196341541
      vertex 4.497083668647734 7.329222288395521 0.9754603196341541
    endloop
  endfacet
  facet normal 0.0 0.0 1.0
    outer loop
      vertex 2.8890094700706714 11.903757449661517 0.9754603196341541
      vertex 1.9037998051646854 11.09565835431308 0.9754603196341541
      vertex 4.966669447322667 8.0327887121551 0.9754603196341541
    endloop
  endfacet
  facet normal 0.0 -0.0 1.0
    outer loop
      vertex 4.966669447322667 8.0327887121551 0.9754603196341541
      vertex 5.6702358710822445 8.502374490830034 0.9754603196341541
      vertex 2.8890094700706714 11.903757449661517 0.9754603196341541
    endloop
  endfacet
  facet normal 0.0 0.0 1.0
    outer loop
      vertex 1.9037998051646854 11.09565835431308 0.9754603196341541
      vertex 1.0957007098162495 10.110448689407095 0.9754603196341541
      vertex 4.966669447322667 8.0327887121551 0.9754603196341541
    endloop
  endfacet
  facet normal 0.0 -0.0 1.0
    outer loop
      vertex 4.497083668647734 7.329222288395521 0.9754603196341541
      vertex 4.966669447322667 8.0327887121551 0.9754603196341541
      vertex 1.0957007098162495 10.110448689407095 0.9754603196341541
    endloop
  endfacet
  facet normal 0.0 0.0 1.0
    outer loop
      vertex 1.0957007098162495 10.110448689407095 0.9754603196341541
      vertex 0.49504234000725206 8.986584152636837 0.9754603196341541
      vertex 4.497083668647734 7.329222288395521 0.9754603196341541
    endloop
  endfacet
  facet normal 0.0 -0.0 1.0
    outer loop
      vertex 4.331889200069835 6.499458159477767 0.9754603196341541
      vertex 4.497083668647734 7.329222288395521 0.9754603196341541
      vertex 0.12511454064423752 7.767394165477786 0.9754603196341541
    endloop
  endfacet
  facet normal 0.0 0.0 1.0
    outer loop
      vertex 0.12511454064423752 7.767394165477786 0.9754603196341541
      vertex 0.0 6.499458159477767 0.9754603196341541
      vertex 4.331889200069835 6.499458159477767 0.9754603196341541
    endloop
  endfacet
  facet normal -0.0 0.0 1.0
    outer loop
      vertex 0.0 6.499458159477767 0.9754603196341541
      vertex 0.12511454064423752 5.231522153477748 0.9754603196341541
      vertex 4.331889200069835 6.499458159477767 0.9754603196341541
    endloop
  endfacet
  facet normal -0.0 0.0 1.0
    outer loop
      vertex 0.12511454064423752 5.231522153477748 0.9754603196341541
      vertex 0.49504234000725206 4.012332166318697 0.9754603196341541
      vertex 4.497083668647734 5.669694030560012 0.9754603196341541
    endloop
  endfacet
  facet normal -0.0 0.0 1.0
    outer loop
      vertex 0.49504234000725206 4.012332166318697 0.9754603196341541
      vertex 1.0957007098162495 2.8884676295484386 0.9754603196341541
      vertex 4.497083668647734 5.669694030560012 0.9754603196341541
    endloop
  endfacet
  facet normal 0.0 0.0 1.0
    outer loop
      vertex 4.966669447322667 4.966127606800434 0.9754603196341541
      vertex 4.497083668647734 5.669694030560012 0.9754603196341541
      vertex 1.0957007098162495 2.8884676295484386 0.9754603196341541
    endloop
  endfacet
  facet normal -0.0 0.0 1.0
    outer loop
      vertex 1.0957007098162495 2.8884676295484386 0.9754603196341541
      vertex 1.9037998051646854 1.9032579646424523 0.9754603196341541
      vertex 4.966669447322667 4.966127606800434 0.9754603196341541
    endloop
  endfacet
  facet normal 0.0 -0.0 1.0
    outer loop
      vertex 2.8890094700706714 1.0951588692940164 0.9754603196341541
      vertex 4.966669447322667 4.966127606800434 0.9754603196341541
      vertex 1.9037998051646854 1.9032579646424523 0.9754603196341541
    endloop
  endfacet
  facet normal 0.0 -0.0 1.0
    outer loop
      vertex 4.0128740068409305 0.49450049948501906 0.9754603196341541
      vertex 5.6702358710822445 4.4965418281255 0.9754603196341541
      vertex 2.8890094700706714 1.0951588692940164 0.9754603196341541
    endloop
  endfacet
  facet normal 0.9951668145442768 -0.0981988351753579 0.0
    outer loop
      vertex 12.874885459355761 5.231522153477748 0.9754603196341541
      vertex 12.874885459355761 5.231522153477748 0.0
      vertex 13.0 6.499458159477767 0.0
    endloop
  endfacet
  facet normal 0.9951668145442768 -0.0981988351753579 0.0
    outer loop
      vertex 12.874885459355761 5.231522153477748 0.9754603196341541
      vertex 13.0 6.499458159477767 0.0
      vertex 13.0 6.499458159477767 0.9754603196341541
    endloop
  endfacet
  facet normal 0.9569205888322303 -0.2903497660907921 0.0
    outer loop
      vertex 12.874885459355761 5.231522153477748 0.9754603196341541
      vertex 12.504957659992748 4.012332166318697 0.9754603196341541
      vertex 12.874885459355761 5.231522153477748 0.0
    endloop
  endfacet
  facet normal 0.9569205888322303 -0.2903497660907921 0.0
    outer loop
      vertex 12.874885459355761 5.231522153477748 0.0
      vertex 12.504957659992748 4.012332166318697 0.9754603196341541
      vertex 12.504957659992748 4.012332166318697 0.0
    endloop
  endfacet
  facet normal 0.8819407535083995 -0.4713602733589632 0.0
    outer loop
      vertex 12.504957659992748 4.012332166318697 0.9754603196341541
      vertex 11.90429929018375 2.8884676295484386 0.9754603196341541
      vertex 11.90429929018375 2.8884676295484386 0.0
    endloop
  endfacet
  facet normal 0.8819407535083995 -0.4713602733589632 0.0
    outer loop
      vertex 12.504957659992748 4.012332166318697 0.9754603196341541
      vertex 11.90429929018375 2.8884676295484386 0.0
      vertex 12.504957659992748 4.012332166318697 0.0
    endloop
  endfacet
  facet normal 0.7731803699387524 -0.6341861836569558 0.0
    outer loop
      vertex 11.90429929018375 2.8884676295484386 0.9754603196341541
      vertex 11.096200194835314 1.9032579646424523 0.9754603196341541
      vertex 11.096200194835314 1.9032579646424523 0.0
    endloop
  endfacet
  facet normal 0.7731803699387524 -0.6341861836569558 0.0
    outer loop
      vertex 11.90429929018375 2.8884676295484386 0.9754603196341541
      vertex 11.096200194835314 1.9032579646424523 0.0
      vertex 11.90429929018375 2.8884676295484386 0.0
    endloop
  endfacet
  facet normal 0.6341861836569556 -0.7731803699387526 0.0
    outer loop
      vertex 11.096200194835314 1.9032579646424523 0.9754603196341541
      vertex 10.110990529929328 1.0951588692940164 0.9754603196341541
      vertex 10.110990529929328 1.0951588692940164 0.0
    endloop
  endfacet
  facet normal 0.6341861836569556 -0.7731803699387526 0.0
    outer loop
      vertex 11.096200194835314 1.9032579646424523 0.9754603196341541
      vertex 10.110990529929328 1.0951588692940164 0.0
      vertex 11.096200194835314 1.9032579646424523 0.0
    endloop
  endfacet
  facet normal 0.4713602733589632 -0.8819407535083995 0.0
    outer loop
      vertex 10.110990529929328 1.0951588692940164 0.9754603196341541
      vertex 8.987125993159069 0.49450049948501906 0.9754603196341541
      vertex 8.987125993159069 0.49450049948501906 0.0
    endloop
  endfacet
  facet normal 0.4713602733589632 -0.8819407535083995 0.0
    outer loop
      vertex 10.110990529929328 1.0951588692940164 0.9754603196341541
      vertex 8.987125993159069 0.49450049948501906 0.0
      vertex 10.110990529929328 1.0951588692940164 0.0
    endloop
  endfacet
  facet normal 0.29034976609079277 -0.9569205888322301 0.0
    outer loop
      vertex 8.987125993159069 0.49450049948501906 0.9754603196341541
      vertex 7.767936006000018 0.12457270012200451 0.9754603196341541
      vertex 7.767936006000018 0.12457270012200451 0.0
    endloop
  endfacet
  facet normal 0.29034976609079277 -0.9569205888322301 0.0
    outer loop
      vertex 8.987125993159069 0.49450049948501906 0.9754603196341541
      vertex 7.767936006000018 0.12457270012200451 0.0
      vertex 8.987125993159069 0.49450049948501906 0.0
    endloop
  endfacet
  facet normal 0.09777763458684699 -0.9952082868297475 0.0
    outer loop
      vertex 7.767936006000018 0.12457270012200451 0.9754603196341541
      vertex 6.5 0.0 0.9754603196341541
      vertex 6.5 0.0 0.0
    endloop
  endfacet
  facet normal 0.09777763458684699 -0.9952082868297475 0.0
    outer loop
      vertex 7.767936006000018 0.12457270012200451 0.9754603196341541
      vertex 6.5 0.0 0.0
      vertex 7.767936006000018 0.12457270012200451 0.0
    endloop
  endfacet
  facet normal 0.09819883517535795 0.9951668145442768 0.0
    outer loop
      vertex 7.767936006000018 12.874343618833528 0.9754603196341541
      vertex 7.767936006000018 12.874343618833528 0.0
      vertex 6.5 12.999458159477767 0.0
    endloop
  endfacet
  facet normal 0.09819883517535795 0.9951668145442768 0.0
    outer loop
      vertex 7.767936006000018 12.874343618833528 0.9754603196341541
      vertex 6.5 12.999458159477767 0.0
      vertex 6.5 12.999458159477767 0.9754603196341541
    endloop
  endfacet
  facet normal 0.2903497660907921 0.9569205888322303 0.0
    outer loop
      vertex 8.987125993159069 12.504415819470514 0.9754603196341541
      vertex 7.767936006000018 12.874343618833528 0.0
      vertex 7.767936006000018 12.874343618833528 0.9754603196341541
    endloop
  endfacet
  facet normal 0.2903497660907921 0.9569205888322303 0.0
    outer loop
      vertex 7.767936006000018 12.874343618833528 0.0
      vertex 8.987125993159069 12.504415819470514 0.9754603196341541
      vertex 8.987125993159069 12.504415819470514 0.0
    endloop
  endfacet
  facet normal 0.47136027335896286 0.8819407535083995 0.0
    outer loop
      vertex 10.110990529929328 11.903757449661517 0.9754603196341541
      vertex 10.110990529929328 11.903757449661517 0.0
      vertex 8.987125993159069 12.504415819470514 0.0
    endloop
  endfacet
  facet normal 0.47136027335896286 0.8819407535083995 0.0
    outer loop
      vertex 10.110990529929328 11.903757449661517 0.9754603196341541
      vertex 8.987125993159069 12.504415819470514 0.0
      vertex 8.987125993159069 12.504415819470514 0.9754603196341541
    endloop
  endfacet
  facet normal 0.6341861836569561 0.7731803699387522 0.0
    outer loop
      vertex 11.096200194835314 11.09565835431308 0.9754603196341541
      vertex 11.096200194835314 11.09565835431308 0.0
      vertex 10.110990529929328 11.903757449661517 0.0
    endloop
  endfacet
  facet normal 0.6341861836569561 0.7731803699387522 0.0
    outer loop
      vertex 11.096200194835314 11.09565835431308 0.9754603196341541
      vertex 10.110990529929328 11.903757449661517 0.0
      vertex 10.110990529929328 11.903757449661517 0.9754603196341541
    endloop
  endfacet
  facet normal 0.7731803699387522 0.6341861836569561 0.0
    outer loop
      vertex 11.096200194835314 11.09565835431308 0.9754603196341541
      vertex 11.90429929018375 10.110448689407095 0.9754603196341541
      vertex 11.90429929018375 10.110448689407095 0.0
    endloop
  endfacet
  facet normal 0.7731803699387522 0.6341861836569561 0.0
    outer loop
      vertex 11.096200194835314 11.09565835431308 0.9754603196341541
      vertex 11.90429929018375 10.110448689407095 0.0
      vertex 11.096200194835314 11.09565835431308 0.0
    endloop
  endfacet
  facet normal 0.8819407535083994 0.4713602733589635 0.0
    outer loop
      vertex 11.90429929018375 10.110448689407095 0.9754603196341541
      vertex 12.504957659992748 8.986584152636837 0.9754603196341541
      vertex 12.504957659992748 8.986584152636837 0.0
    endloop
  endfacet
  facet normal 0.8819407535083994 0.4713602733589635 0.0
    outer loop
      vertex 11.90429929018375 10.110448689407095 0.9754603196341541
      vertex 12.504957659992748 8.986584152636837 0.0
      vertex 11.90429929018375 10.110448689407095 0.0
    endloop
  endfacet
  facet normal 0.9569205888322303 0.2903497660907919 0.0
    outer loop
      vertex 12.504957659992748 8.986584152636837 0.9754603196341541
      vertex 12.874885459355761 7.767394165477786 0.9754603196341541
      vertex 12.874885459355761 7.767394165477786 0.0
    endloop
  endfacet
  facet normal 0.9569205888322303 0.2903497660907919 0.0
    outer loop
      vertex 12.504957659992748 8.986584152636837 0.9754603196341541
      vertex 12.874885459355761 7.767394165477786 0.0
      vertex 12.504957659992748 8.986584152636837 0.0
    endloop
  endfacet
  facet normal 0.9951668145442768 0.0981988351753579 0.0
    outer loop
      vertex 12.874885459355761 7.767394165477786 0.9754603196341541
      vertex 13.0 6.499458159477767 0.9754603196341541
      vertex 13.0 6.499458159477767 0.0
    endloop
  endfacet
  facet normal 0.9951668145442768 0.0981988351753579 0.0
    outer loop
      vertex 12.874885459355761 7.767394165477786 0.9754603196341541
      vertex 13.0 6.499458159477767 0.0
      vertex 12.874885459355761 7.767394165477786 0.0
    endloop
  endfacet
  facet normal -0.19525418232226116 -0.9807526723316462 0.0
    outer loop
      vertex 7.329764128917755 8.502374490830034 0.0
      vertex 7.329764128917755 8.502374490830034 0.9754603196341541
      vertex 6.5 8.667568959407932 0.9754603196341541
    endloop
  endfacet
  facet normal -0.19525418232226116 -0.9807526723316462 0.0
    outer loop
      vertex 7.329764128917755 8.502374490830034 0.0
      vertex 6.5 8.667568959407932 0.9754603196341541
      vertex 6.5 8.667568959407932 0.0
    endloop
  endfacet
  facet normal -0.5551433021928901 -0.8317547198726157 0.0
    outer loop
      vertex 8.033330552677333 8.0327887121551 0.0
      vertex 8.033330552677333 8.0327887121551 0.9754603196341541
      vertex 7.329764128917755 8.502374490830034 0.9754603196341541
    endloop
  endfacet
  facet normal -0.5551433021928901 -0.8317547198726157 0.0
    outer loop
      vertex 8.033330552677333 8.0327887121551 0.0
      vertex 7.329764128917755 8.502374490830034 0.9754603196341541
      vertex 7.329764128917755 8.502374490830034 0.0
    endloop
  endfacet
  facet normal -0.0 0.0 -1.0
    outer loop
      vertex 4.497083668647734 7.329222288395521 0.0
      vertex 4.331889200069835 6.499458159477767 0.0
      vertex 0.12511454064423752 7.767394165477786 0.0
    endloop
  endfacet
  facet normal 0.0 0.0 -1.0
    outer loop
      vertex 4.966669447322667 8.0327887121551 0.0
      vertex 2.8890094700706714 11.903757449661517 0.0
      vertex 5.6702358710822445 8.502374490830034 0.0
    endloop
  endfacet
  facet normal -0.0 0.0 -1.0
    outer loop
      vertex 6.5 4.3313473595476015 0.0
      vertex 5.232063993999981 0.12457270012200451 0.0
      vertex 5.6702358710822445 4.4965418281255 0.0
    endloop
  endfacet
  facet normal 0.0 0.0 -1.0
    outer loop
      vertex 1.9037998051646854 1.9032579646424523 0.0
      vertex 1.0957007098162495 2.8884676295484386 0.0
      vertex 4.966669447322667 4.966127606800434 0.0
    endloop
  endfacet
  facet normal -0.0 0.0 -1.0
    outer loop
      vertex 6.5 8.667568959407932 0.0
      vertex 5.6702358710822445 8.502374490830034 0.0
      vertex 5.232063993999981 12.874343618833528 0.0
    endloop
  endfacet
  facet normal 0.0 0.0 -1.0
    outer loop
      vertex 6.5 8.667568959407932 0.0
      vertex 5.232063993999981 12.874343618833528 0.0
      vertex 6.5 12.999458159477767 0.0
    endloop
  endfacet
  facet normal 0.0 0.0 -1.0
    outer loop
      vertex 4.0128740068409305 0.49450049948501906 0.0
      vertex 2.8890094700706714 1.0951588692940164 0.0
      vertex 5.6702358710822445 4.4965418281255 0.0
    endloop
  endfacet
  facet normal 0.0 0.0 -1.0
    outer loop
      vertex 6.5 0.0 0.0
      vertex 5.232063993999981 0.12457270012200451 0.0
      vertex 6.5 4.3313473595476015 0.0
    endloop
  endfacet
  facet normal 0.0 0.0 -1.0
    outer loop
      vertex 4.0128740068409305 0.49450049948501906 0.0
      vertex 5.6702358710822445 4.4965418281255 0.0
      vertex 5.232063993999981 0.12457270012200451 0.0
    endloop
  endfacet
  facet normal 0.0 -0.0 -1.0
    outer loop
      vertex 1.0957007098162495 10.110448689407095 0.0
      vertex 4.497083668647734 7.329222288395521 0.0
      vertex 0.49504234000725206 8.986584152636837 0.0
    endloop
  endfacet
  facet normal 0.0 0.0 -1.0
    outer loop
      vertex 0.12511454064423752 7.767394165477786 0.0
      vertex 0.49504234000725206 8.986584152636837 0.0
      vertex 4.497083668647734 7.329222288395521 0.0
    endloop
  endfacet
  facet normal 0.0 -0.0 -1.0
    outer loop
      vertex 1.9037998051646854 11.09565835431308 0.0
      vertex 4.966669447322667 8.0327887121551 0.0
      vertex 1.0957007098162495 10.110448689407095 0.0
    endloop
  endfacet
  facet normal 0.0 -0.0 -1.0
    outer loop
      vertex 2.8890094700706714 11.903757449661517 0.0
      vertex 4.966669447322667 8.0327887121551 0.0
      vertex 1.9037998051646854 11.09565835431308 0.0
    endloop
  endfacet
  facet normal 0.0 -0.0 -1.0
    outer loop
      vertex 5.232063993999981 12.874343618833528 0.0
      vertex 5.6702358710822445 8.502374490830034 0.0
      vertex 4.0128740068409305 12.504415819470514 0.0
    endloop
  endfacet
  facet normal 0.0 -0.0 -1.0
    outer loop
      vertex 4.0128740068409305 12.504415819470514 0.0
      vertex 5.6702358710822445 8.502374490830034 0.0
      vertex 2.8890094700706714 11.903757449661517 0.0
    endloop
  endfacet
  facet normal 0.0 0.0 -1.0
    outer loop
      vertex 4.497083668647734 7.329222288395521 0.0
      vertex 1.0957007098162495 10.110448689407095 0.0
      vertex 4.966669447322667 8.0327887121551 0.0
    endloop
  endfacet
  facet normal -0.0 0.0 -1.0
    outer loop
      vertex 4.497083668647734 5.669694030560012 0.0
      vertex 0.12511454064423752 5.231522153477748 0.0
      vertex 4.331889200069835 6.499458159477767 0.0
    endloop
  endfacet
  facet normal 0.0 -0.0 -1.0
    outer loop
      vertex 4.966669447322667 4.966127606800434 0.0
      vertex 5.6702358710822445 4.4965418281255 0.0
      vertex 2.8890094700706714 1.0951588692940164 0.0
    endloop
  endfacet
  facet normal 0.0 0.0 -1.0
    outer loop
      vertex 2.8890094700706714 1.0951588692940164 0.0
      vertex 1.9037998051646854 1.9032579646424523 0.0
      vertex 4.966669447322667 4.966127606800434 0.0
    endloop
  endfacet
  facet normal 0.0 -0.0 -1.0
    outer loop
      vertex 4.497083668647734 5.669694030560012 0.0
      vertex 4.966669447322667 4.966127606800434 0.0
      vertex 1.0957007098162495 2.8884676295484386 0.0
    endloop
  endfacet
  facet normal 0.0 0.0 -1.0
    outer loop
      vertex 1.0957007098162495 2.8884676295484386 0.0
      vertex 0.49504234000725206 4.012332166318697 0.0
      vertex 4.497083668647734 5.669694030560012 0.0
    endloop
  endfacet
  facet normal 0.0 0.0 -1.0
    outer loop
      vertex 0.12511454064423752 5.231522153477748 0.0
      vertex 4.497083668647734 5.669694030560012 0.0
      vertex 0.49504234000725206 4.012332166318697 0.0
    endloop
  endfacet
  facet normal 0.0 0.0 -1.0
    outer loop
      vertex 0.0 6.499458159477767 0.0
      vertex 4.331889200069835 6.499458159477767 0.0
      vertex 0.12511454064423752 5.231522153477748 0.0
    endloop
  endfacet
  facet normal 0.0 0.0 1.0
    outer loop
      vertex 8.987125993159069 12.504415819470514 0.9754603196341541
      vertex 7.767936006000018 12.874343618833528 0.9754603196341541
      vertex 7.329764128917755 8.502374490830034 0.9754603196341541
    endloop
  endfacet
  facet normal 0.0 -0.0 1.0
    outer loop
      vertex 8.502916331352266 7.329222288395521 0.9754603196341541
      vertex 11.90429929018375 10.110448689407095 0.9754603196341541
      vertex 8.033330552677333 8.0327887121551 0.9754603196341541
    endloop
  endfacet
  facet normal 0.0 -0.0 1.0
    outer loop
      vertex 8.033330552677333 8.0327887121551 0.9754603196341541
      vertex 10.110990529929328 11.903757449661517 0.9754603196341541
      vertex 7.329764128917755 8.502374490830034 0.9754603196341541
    endloop
  endfacet
  facet normal 0.0 -0.0 -1.0
    outer loop
      vertex 8.987125993159069 12.504415819470514 0.0
      vertex 10.110990529929328 11.903757449661517 0.0
      vertex 7.329764128917755 8.502374490830034 0.0
    endloop
  endfacet
  facet normal 0.0 0.0 -1.0
    outer loop
      vertex 8.033330552677333 8.0327887121551 0.0
      vertex 7.329764128917755 8.502374490830034 0.0
      vertex 10.110990529929328 11.903757449661517 0.0
    endloop
  endfacet
  facet normal 0.0 -0.0 -1.0
    outer loop
      vertex 7.767936006000018 12.874343618833528 0.0
      vertex 8.987125993159069 12.504415819470514 0.0
      vertex 7.329764128917755 8.502374490830034 0.0
    endloop
  endfacet
  facet normal 0.0 0.0 -1.0
    outer loop
      vertex 7.767936006000018 12.874343618833528 0.0
      vertex 7.329764128917755 8.502374490830034 0.0
      vertex 6.5 8.667568959407932 0.0
    endloop
  endfacet
  facet normal -0.0 0.0 -1.0
    outer loop
      vertex 7.767936006000018 12.874343618833528 0.0
      vertex 6.5 8.667568959407932 0.0
      vertex 6.5 12.999458159477767 0.0
    endloop
  endfacet
  facet normal -0.8317547198726167 -0.5551433021928887 0.0
    outer loop
      vertex 8.502916331352266 7.329222288395521 0.0
      vertex 8.502916331352266 7.329222288395521 0.9754603196341541
      vertex 8.033330552677333 8.0327887121551 0.9754603196341541
    endloop
  endfacet
  facet normal -0.8317547198726167 -0.5551433021928887 0.0
    outer loop
      vertex 8.502916331352266 7.329222288395521 0.0
      vertex 8.033330552677333 8.0327887121551 0.9754603196341541
      vertex 8.033330552677333 8.0327887121551 0.0
    endloop
  endfacet
  facet normal -0.9807526723316458 -0.1952541823222632 0.0
    outer loop
      vertex 8.668110799930165 6.499458159477767 0.0
      vertex 8.668110799930165 6.499458159477767 0.9754603196341541
      vertex 8.502916331352266 7.329222288395521 0.9754603196341541
    endloop
  endfacet
  facet normal -0.9807526723316458 -0.1952541823222632 0.0
    outer loop
      vertex 8.668110799930165 6.499458159477767 0.0
      vertex 8.502916331352266 7.329222288395521 0.9754603196341541
      vertex 8.502916331352266 7.329222288395521 0.0
    endloop
  endfacet
  facet normal -0.9807526723316458 0.1952541823222632 0.0
    outer loop
      vertex 8.502916331352266 5.669694030560012 0.0
      vertex 8.502916331352266 5.669694030560012 0.9754603196341541
      vertex 8.668110799930165 6.499458159477767 0.9754603196341541
    endloop
  endfacet
  facet normal -0.9807526723316458 0.1952541823222632 0.0
    outer loop
      vertex 8.502916331352266 5.669694030560012 0.0
      vertex 8.668110799930165 6.499458159477767 0.9754603196341541
      vertex 8.668110799930165 6.499458159477767 0.0
    endloop
  endfacet
  facet normal -0.0 0.0 -1.0
    outer loop
      vertex 12.504957659992748 4.012332166318697 0.0
      vertex 11.90429929018375 2.8884676295484386 0.0
      vertex 8.502916331352266 5.669694030560012 0.0
    endloop
  endfacet
  facet normal -0.0 0.0 -1.0
    outer loop
      vertex 12.874885459355761 5.231522153477748 0.0
      vertex 12.504957659992748 4.012332166318697 0.0
      vertex 8.502916331352266 5.669694030560012 0.0
    endloop
  endfacet
  facet normal 0.0 0.0 -1.0
    outer loop
      vertex 12.874885459355761 5.231522153477748 0.0
      vertex 8.502916331352266 5.669694030560012 0.0
      vertex 8.668110799930165 6.499458159477767 0.0
    endloop
  endfacet
  facet normal 0.0 -0.0 -1.0
    outer loop
      vertex 11.90429929018375 10.110448689407095 0.0
      vertex 12.504957659992748 8.986584152636837 0.0
      vertex 8.502916331352266 7.329222288395521 0.0
    endloop
  endfacet
  facet normal 0.0 -0.0 -1.0
    outer loop
      vertex 10.110990529929328 11.903757449661517 0.0
      vertex 11.096200194835314 11.09565835431308 0.0
      vertex 8.033330552677333 8.0327887121551 0.0
    endloop
  endfacet
  facet normal 0.0 -0.0 -1.0
    outer loop
      vertex 11.096200194835314 11.09565835431308 0.0
      vertex 11.90429929018375 10.110448689407095 0.0
      vertex 8.033330552677333 8.0327887121551 0.0
    endloop
  endfacet
  facet normal 0.0 0.0 -1.0
    outer loop
      vertex 8.502916331352266 7.329222288395521 0.0
      vertex 8.033330552677333 8.0327887121551 0.0
      vertex 11.90429929018375 10.110448689407095 0.0
    endloop
  endfacet
  facet normal 0.0 -0.0 -1.0
    outer loop
      vertex 12.504957659992748 8.986584152636837 0.0
      vertex 12.874885459355761 7.767394165477786 0.0
      vertex 8.502916331352266 7.329222288395521 0.0
    endloop
  endfacet
  facet normal 0.0 0.0 -1.0
    outer loop
      vertex 8.668110799930165 6.499458159477767 0.0
      vertex 8.502916331352266 7.329222288395521 0.0
      vertex 12.874885459355761 7.767394165477786 0.0
    endloop
  endfacet
  facet normal 0.0 -0.0 -1.0
    outer loop
      vertex 12.874885459355761 7.767394165477786 0.0
      vertex 13.0 6.499458159477767 0.0
      vertex 8.668110799930165 6.499458159477767 0.0
    endloop
  endfacet
  facet normal 0.0 0.0 -1.0
    outer loop
      vertex 12.874885459355761 5.231522153477748 0.0
      vertex 8.668110799930165 6.499458159477767 0.0
      vertex 13.0 6.499458159477767 0.0
    endloop
  endfacet
  facet normal -0.8317547198726167 0.5551433021928887 0.0
    outer loop
      vertex 8.033330552677333 4.966127606800434 0.0
      vertex 8.033330552677333 4.966127606800434 0.9754603196341541
      vertex 8.502916331352266 5.669694030560012 0.9754603196341541
    endloop
  endfacet
  facet normal -0.8317547198726167 0.5551433021928887 0.0
    outer loop
      vertex 8.033330552677333 4.966127606800434 0.0
      vertex 8.502916331352266 5.669694030560012 0.9754603196341541
      vertex 8.502916331352266 5.669694030560012 0.0
    endloop
  endfacet
  facet normal -0.5551433021928894 0.8317547198726163 0.0
    outer loop
      vertex 7.329764128917755 4.4965418281255 0.0
      vertex 7.329764128917755 4.4965418281255 0.9754603196341541
      vertex 8.033330552677333 4.966127606800434 0.9754603196341541
    endloop
  endfacet
  facet normal -0.5551433021928894 0.8317547198726163 0.0
    outer loop
      vertex 7.329764128917755 4.4965418281255 0.0
      vertex 8.033330552677333 4.966127606800434 0.9754603196341541
      vertex 8.033330552677333 4.966127606800434 0.0
    endloop
  endfacet
  facet normal -0.0 0.0 -1.0
    outer loop
      vertex 7.767936006000018 0.12457270012200451 0.0
      vertex 6.5 0.0 0.0
      vertex 6.5 4.3313473595476015 0.0
    endloop
  endfacet
  facet normal 0.0 0.0 -1.0
    outer loop
      vertex 6.5 4.3313473595476015 0.0
      vertex 7.329764128917755 4.4965418281255 0.0
      vertex 7.767936006000018 0.12457270012200451 0.0
    endloop
  endfacet
  facet normal 0.0 0.0 -1.0
    outer loop
      vertex 8.033330552677333 4.966127606800434 0.0
      vertex 8.502916331352266 5.669694030560012 0.0
      vertex 11.90429929018375 2.8884676295484386 0.0
    endloop
  endfacet
  facet normal -0.0 0.0 -1.0
    outer loop
      vertex 11.90429929018375 2.8884676295484386 0.0
      vertex 11.096200194835314 1.9032579646424523 0.0
      vertex 8.033330552677333 4.966127606800434 0.0
    endloop
  endfacet
  facet normal -0.0 0.0 -1.0
    outer loop
      vertex 11.096200194835314 1.9032579646424523 0.0
      vertex 10.110990529929328 1.0951588692940164 0.0
      vertex 8.033330552677333 4.966127606800434 0.0
    endloop
  endfacet
  facet normal 0.0 0.0 -1.0
    outer loop
      vertex 7.329764128917755 4.4965418281255 0.0
      vertex 8.033330552677333 4.966127606800434 0.0
      vertex 10.110990529929328 1.0951588692940164 0.0
    endloop
  endfacet
  facet normal -0.0 0.0 -1.0
    outer loop
      vertex 10.110990529929328 1.0951588692940164 0.0
      vertex 8.987125993159069 0.49450049948501906 0.0
      vertex 7.329764128917755 4.4965418281255 0.0
    endloop
  endfacet
  facet normal 0.0 0.0 -1.0
    outer loop
      vertex 7.767936006000018 0.12457270012200451 0.0
      vertex 7.329764128917755 4.4965418281255 0.0
      vertex 8.987125993159069 0.49450049948501906 0.0
    endloop
  endfacet
  facet normal 0.0 0.0 -1.0
    outer loop
      vertex 0.0 6.499458159477767 0.0
      vertex 0.12511454064423752 7.767394165477786 0.0
      vertex 4.331889200069835 6.499458159477767 0.0
    endloop
  endfacet
  facet normal -0.1952541823222622 0.9807526723316459 0.0
    outer loop
      vertex 7.329764128917755 4.4965418281255 0.9754603196341541
      vertex 7.329764128917755 4.4965418281255 0.0
      vertex 6.5 4.3313473595476015 0.0
    endloop
  endfacet
  facet normal -0.1952541823222622 0.9807526723316459 0.0
    outer loop
      vertex 7.329764128917755 4.4965418281255 0.9754603196341541
      vertex 6.5 4.3313473595476015 0.0
      vertex 6.5 4.3313473595476015 0.9754603196341541
    endloop
  endfacet
  facet normal -0.09777763458684693 -0.9952082868297475 -0.0
    outer loop
      vertex 5.232063993999981 0.12457270012200451 0.9754603196341541
      vertex 5.232063993999981 0.12457270012200451 0.0
      vertex 6.5 0.0 0.0
    endloop
  endfacet
  facet normal -0.09777763458684693 -0.9952082868297475 0.0
    outer loop
      vertex 5.232063993999981 0.12457270012200451 0.9754603196341541
      vertex 6.5 0.0 0.0
      vertex 6.5 0.0 0.9754603196341541
    endloop
  endfacet
  facet normal -0.29034976609079277 -0.9569205888322301 0.0
    outer loop
      vertex 5.232063993999981 0.12457270012200451 0.0
      vertex 5.232063993999981 0.12457270012200451 0.9754603196341541
      vertex 4.0128740068409305 0.49450049948501906 0.0
    endloop
  endfacet
  facet normal -0.29034976609079277 -0.9569205888322301 -0.0
    outer loop
      vertex 4.0128740068409305 0.49450049948501906 0.9754603196341541
      vertex 4.0128740068409305 0.49450049948501906 0.0
      vertex 5.232063993999981 0.12457270012200451 0.9754603196341541
    endloop
  endfacet
  facet normal -0.47136027335896336 -0.8819407535083995 -0.0
    outer loop
      vertex 2.8890094700706714 1.0951588692940164 0.9754603196341541
      vertex 2.8890094700706714 1.0951588692940164 0.0
      vertex 4.0128740068409305 0.49450049948501906 0.0
    endloop
  endfacet
  facet normal -0.47136027335896336 -0.8819407535083995 0.0
    outer loop
      vertex 2.8890094700706714 1.0951588692940164 0.9754603196341541
      vertex 4.0128740068409305 0.49450049948501906 0.0
      vertex 4.0128740068409305 0.49450049948501906 0.9754603196341541
    endloop
  endfacet
  facet normal -0.6341861836569553 -0.7731803699387527 -0.0
    outer loop
      vertex 1.9037998051646854 1.9032579646424523 0.9754603196341541
      vertex 1.9037998051646854 1.9032579646424523 0.0
      vertex 2.8890094700706714 1.0951588692940164 0.0
    endloop
  endfacet
  facet normal -0.6341861836569553 -0.7731803699387527 0.0
    outer loop
      vertex 1.9037998051646854 1.9032579646424523 0.9754603196341541
      vertex 2.8890094700706714 1.0951588692940164 0.0
      vertex 2.8890094700706714 1.0951588692940164 0.9754603196341541
    endloop
  endfacet
  facet normal -0.7731803699387527 -0.6341861836569552 -0.0
    outer loop
      vertex 1.0957007098162495 2.8884676295484386 0.9754603196341541
      vertex 1.0957007098162495 2.8884676295484386 0.0
      vertex 1.9037998051646854 1.9032579646424523 0.0
    endloop
  endfacet
  facet normal -0.7731803699387527 -0.6341861836569552 0.0
    outer loop
      vertex 1.0957007098162495 2.8884676295484386 0.9754603196341541
      vertex 1.9037998051646854 1.9032579646424523 0.0
      vertex 1.9037998051646854 1.9032579646424523 0.9754603196341541
    endloop
  endfacet
  facet normal -0.8819407535083993 -0.47136027335896347 -0.0
    outer loop
      vertex 0.49504234000725206 4.012332166318697 0.9754603196341541
      vertex 0.49504234000725206 4.012332166318697 0.0
      vertex 1.0957007098162495 2.8884676295484386 0.0
    endloop
  endfacet
  facet normal -0.8819407535083993 -0.47136027335896347 0.0
    outer loop
      vertex 0.49504234000725206 4.012332166318697 0.9754603196341541
      vertex 1.0957007098162495 2.8884676295484386 0.0
      vertex 1.0957007098162495 2.8884676295484386 0.9754603196341541
    endloop
  endfacet
endsolid thingi10k_311322
