solid thingi10k_188497
  facet normal 0.0 0.0 1.0
    outer loop
      vertex 0.26879044300647087 0.6697361871577898 0.3449477516133449
      vertex 0.26879044300647087 0.5711796913887506 0.3449477516133449
      vertex 0.35838725734196114 0.5711796913887506 0.3449477516133449
    endloop
  endfacet
  facet normal 0.0 0.0 1.0
    outer loop
      vertex 7.6112493777999 0.6697361871577898 0.3449477516133449
      vertex 7.6112493777999 0.5711796913887506 0.3449477516133449
      vertex 7.700846192135391 0.5711796913887506 0.3449477516133449
    endloop
  endfacet
  facet normal 0.0 0.0 1.0
    outer loop
      vertex 7.700846192135391 0.6697361871577898 0.3449477516133449
      vertex 7.768043802887008 0.6697361871577898 0.3449477516133449
      vertex 9.0 0.7794922847187654 0.3449477516133449
    endloop
  endfacet
  facet normal 0.0 0.0 1.0
    outer loop
      vertex 0.0 0.44574415131906414 0.3449477516133449
      vertex 0.04479840716774514 0.44574415131906414 0.3449477516133449
      vertex 0.0 0.7794922847187654 0.3449477516133449
    endloop
  endfacet
  facet normal 0.0 0.0 1.0
    outer loop
      vertex 0.0 0.7794922847187654 0.3449477516133449
      vertex 0.04479840716774514 0.44574415131906414 0.3449477516133449
      vertex 0.04479840716774514 0.6697361871577898 0.3449477516133449
    endloop
  endfacet
  facet normal 0.0 0.0 1.0
    outer loop
      vertex 0.0 0.7794922847187654 0.3449477516133449
      vertex 0.04479840716774514 0.6697361871577898 0.3449477516133449
      vertex 0.11199601791936285 0.6697361871577898 0.3449477516133449
    endloop
  endfacet
  facet normal 0.0 0.0 1.0
    outer loop
      vertex 3.9422598307615724 0.5689397710303633 0.3449477516133449
      vertex 4.166251418616226 0.5689397710303633 0.3449477516133449
      vertex 3.9422598307615724 0.6697361871577898 0.3449477516133449
    endloop
  endfacet
  facet normal -0.0 0.0 1.0
    outer loop
      vertex 3.9422598307615724 0.6697361871577898 0.3449477516133449
      vertex 4.166251418616226 0.5689397710303633 0.3449477516133449
      vertex 4.166251418616226 0.6697361871577898 0.3449477516133449
    endloop
  endfacet
  facet normal 0.0 0.0 1.0
    outer loop
      vertex 8.865604778496763 0.5711796913887506 0.3449477516133449
      vertex 9.0 0.5711796913887506 0.3449477516133449
      vertex 8.865604778496763 0.6697361871577898 0.3449477516133449
    endloop
  endfacet
  facet normal -0.0 0.0 1.0
    outer loop
      vertex 8.865604778496763 0.6697361871577898 0.3449477516133449
      vertex 9.0 0.5711796913887506 0.3449477516133449
      vertex 9.0 0.7794922847187654 0.3449477516133449
    endloop
  endfacet
  facet normal 0.0 -0.0 1.0
    outer loop
      vertex 8.865604778496763 0.6697361871577898 0.3449477516133449
      vertex 9.0 0.7794922847187654 0.3449477516133449
      vertex 8.798407167745147 0.6697361871577898 0.3449477516133449
    endloop
  endfacet
  facet normal 0.0 -0.0 1.0
    outer loop
      vertex 8.798407167745147 0.6697361871577898 0.3449477516133449
      vertex 9.0 0.7794922847187654 0.3449477516133449
      vertex 7.768043802887008 0.6697361871577898 0.3449477516133449
    endloop
  endfacet
  facet normal 0.0 0.0 1.0
    outer loop
      vertex 8.798407167745147 0.6697361871577898 0.3449477516133449
      vertex 7.768043802887008 0.6697361871577898 0.3449477516133449
      vertex 8.798407167745147 0.5711796913887506 0.3449477516133449
    endloop
  endfacet
  facet normal 0.0 0.0 1.0
    outer loop
      vertex 8.798407167745147 0.5711796913887506 0.3449477516133449
      vertex 7.768043802887008 0.6697361871577898 0.3449477516133449
      vertex 7.768043802887008 0.5711796913887506 0.3449477516133449
    endloop
  endfacet
  facet normal 0.0 -0.0 1.0
    outer loop
      vertex 0.35838725734196114 0.5711796913887506 0.3449477516133449
      vertex 0.35838725734196114 0.6697361871577898 0.3449477516133449
      vertex 0.26879044300647087 0.6697361871577898 0.3449477516133449
    endloop
  endfacet
  facet normal 0.0 -0.0 1.0
    outer loop
      vertex 0.26879044300647087 0.6697361871577898 0.3449477516133449
      vertex 0.35838725734196114 0.6697361871577898 0.3449477516133449
      vertex 0.0 0.7794922847187654 0.3449477516133449
    endloop
  endfacet
  facet normal 0.0 0.0 1.0
    outer loop
      vertex 0.26879044300647087 0.6697361871577898 0.3449477516133449
      vertex 0.0 0.7794922847187654 0.3449477516133449
      vertex 0.20159283225485314 0.6697361871577898 0.3449477516133449
    endloop
  endfacet
  facet normal 0.0 0.0 1.0
    outer loop
      vertex 0.20159283225485314 0.6697361871577898 0.3449477516133449
      vertex 0.0 0.7794922847187654 0.3449477516133449
      vertex 0.11199601791936285 0.6697361871577898 0.3449477516133449
    endloop
  endfacet
  facet normal 0.0 0.0 1.0
    outer loop
      vertex 0.20159283225485314 0.6697361871577898 0.3449477516133449
      vertex 0.11199601791936285 0.6697361871577898 0.3449477516133449
      vertex 0.20159283225485314 0.5711796913887506 0.3449477516133449
    endloop
  endfacet
  facet normal 0.0 0.0 1.0
    outer loop
      vertex 0.20159283225485314 0.5711796913887506 0.3449477516133449
      vertex 0.11199601791936285 0.6697361871577898 0.3449477516133449
      vertex 0.11199601791936285 0.5711796913887506 0.3449477516133449
    endloop
  endfacet
  facet normal 0.0 -0.0 1.0
    outer loop
      vertex 7.700846192135391 0.5711796913887506 0.3449477516133449
      vertex 7.700846192135391 0.6697361871577898 0.3449477516133449
      vertex 7.6112493777999 0.6697361871577898 0.3449477516133449
    endloop
  endfacet
  facet normal 0.0 0.0 1.0
    outer loop
      vertex 7.6112493777999 0.6697361871577898 0.3449477516133449
      vertex 7.700846192135391 0.6697361871577898 0.3449477516133449
      vertex 9.0 0.7794922847187654 0.3449477516133449
    endloop
  endfacet
  facet normal 0.0 -0.0 1.0
    outer loop
      vertex 7.6112493777999 0.6697361871577898 0.3449477516133449
      vertex 9.0 0.7794922847187654 0.3449477516133449
      vertex 4.166251418616226 0.6697361871577898 0.3449477516133449
    endloop
  endfacet
  facet normal 0.0 -0.0 1.0
    outer loop
      vertex 4.166251418616226 0.6697361871577898 0.3449477516133449
      vertex 9.0 0.7794922847187654 0.3449477516133449
      vertex 0.0 0.7794922847187654 0.3449477516133449
    endloop
  endfacet
  facet normal 0.0 0.0 1.0
    outer loop
      vertex 4.166251418616226 0.6697361871577898 0.3449477516133449
      vertex 0.0 0.7794922847187654 0.3449477516133449
      vertex 3.9422598307615724 0.6697361871577898 0.3449477516133449
    endloop
  endfacet
  facet normal 0.0 0.0 1.0
    outer loop
      vertex 3.9422598307615724 0.6697361871577898 0.3449477516133449
      vertex 0.0 0.7794922847187654 0.3449477516133449
      vertex 0.35838725734196114 0.6697361871577898 0.3449477516133449
    endloop
  endfacet
  facet normal 1.0 0.0 0.0
    outer loop
      vertex 4.166251418616226 0.6697361871577898 0.3449477516133449
      vertex 4.166251418616226 0.5689397710303633 0.3449477516133449
      vertex 4.166251418616226 0.5662173718267794 0.31383122597870083
    endloop
  endfacet
  facet normal 1.0 0.0 0.0
    outer loop
      vertex 4.166251418616226 0.6697361871577898 0.06495770681493777
      vertex 4.166251418616226 0.5449323046291686 0.25535093727785463
      vertex 4.166251418616226 0.5270165256346441 0.229764327023997
    endloop
  endfacet
  facet normal 1.0 0.0 0.0
    outer loop
      vertex 4.166251418616226 0.6697361871577898 0.3449477516133449
      vertex 4.166251418616226 0.5662173718267794 0.31383122597870083
      vertex 4.166251418616226 0.6697361871577898 0.06495770681493777
    endloop
  endfacet
  facet normal 1.0 0.0 0.0
    outer loop
      vertex 4.166251418616226 0.6697361871577898 0.06495770681493777
      vertex 4.166251418616226 0.5662173718267794 0.31383122597870083
      vertex 4.166251418616226 0.5581330512692881 0.28365994673529615
    endloop
  endfacet
  facet normal 1.0 0.0 0.0
    outer loop
      vertex 4.166251418616226 0.6697361871577898 0.06495770681493777
      vertex 4.166251418616226 0.5581330512692881 0.28365994673529615
      vertex 4.166251418616226 0.5449323046291686 0.25535093727785463
    endloop
  endfacet
  facet normal 1.0 0.0 0.0
    outer loop
      vertex 4.166251866600298 0.32845833748133396 0.1765608427034395
      vertex 4.166251866600298 0.30014932802389244 0.18976158934355897
      vertex 4.166251866600298 0.10975609756097557 0.06495770681493777
    endloop
  endfacet
  facet normal 1.0 0.0 0.0
    outer loop
      vertex 4.166251866600298 0.10975609756097557 0.06495770681493777
      vertex 4.166251866600298 0.30014932802389244 0.18976158934355897
      vertex 4.166251866600298 0.2745627177700348 0.2076773683380836
    endloop
  endfacet
  facet normal 1.0 0.0 0.0
    outer loop
      vertex 4.166251866600298 0.10975609756097557 0.06495770681493777
      vertex 4.166251866600298 0.2745627177700348 0.2076773683380836
      vertex 4.166251866600298 0.2524757590841214 0.229764327023997
    endloop
  endfacet
  facet normal 1.0 0.0 0.0
    outer loop
      vertex 4.166251866600298 0.2524757590841214 0.229764327023997
      vertex 4.166251866600298 0.23455998008959675 0.25535093727785463
      vertex 4.166251866600298 0.10975609756097557 0.06495770681493777
    endloop
  endfacet
  facet normal 1.0 0.0 0.0
    outer loop
      vertex 4.166251866600298 0.10975609756097557 0.06495770681493777
      vertex 4.166251866600298 0.23455998008959675 0.25535093727785463
      vertex 4.166251866600298 0.2213592334494773 0.28365994673529615
    endloop
  endfacet
  facet normal 1.0 0.0 0.0
    outer loop
      vertex 4.166251866600298 0.10975609756097557 0.06495770681493777
      vertex 4.166251866600298 0.2213592334494773 0.28365994673529615
      vertex 4.166251866600298 0.10975609756097557 0.3449477516133449
    endloop
  endfacet
  facet normal 1.0 0.0 0.0
    outer loop
      vertex 4.166251866600298 0.10975609756097557 0.3449477516133449
      vertex 4.166251866600298 0.2213592334494773 0.28365994673529615
      vertex 4.166251866600298 0.213274912891986 0.31383122597870083
    endloop
  endfacet
  facet normal 1.0 -0.0 0.0
    outer loop
      vertex 4.166251866600298 0.10975609756097557 0.3449477516133449
      vertex 4.166251866600298 0.213274912891986 0.31383122597870083
      vertex 4.166251866600298 0.21055251368840214 0.3449477516133449
    endloop
  endfacet
  facet normal 1.0 0.0 0.0
    outer loop
      vertex 4.166251418616226 0.5270165256346441 0.229764327023997
      vertex 4.166251418616226 0.5049295669487306 0.2076773683380836
      vertex 4.166251418616226 0.6697361871577898 0.06495770681493777
    endloop
  endfacet
  facet normal 1.0 0.0 0.0
    outer loop
      vertex 4.166251418616226 0.6697361871577898 0.06495770681493777
      vertex 4.166251418616226 0.5049295669487306 0.2076773683380836
      vertex 4.166251418616226 0.479342956694873 0.18976158934355897
    endloop
  endfacet
  facet normal 1.0 0.0 0.0
    outer loop
      vertex 4.166251418616226 0.6697361871577898 0.06495770681493777
      vertex 4.166251418616226 0.479342956694873 0.18976158934355897
      vertex 4.166251418616226 0.45103394723743145 0.1765608427034395
    endloop
  endfacet
  facet normal 0.9999999997706034 9.735922151576615e-06 1.9078926100851757e-05
    outer loop
      vertex 4.166251418616226 0.45103394723743145 0.1765608427034395
      vertex 4.166251866600298 0.4208628023892483 0.16847652214594822
      vertex 4.166251418616226 0.6697361871577898 0.06495770681493777
    endloop
  endfacet
  facet normal 0.999999999993559 3.128209120107727e-07 -3.575497571873062e-06
    outer loop
      vertex 4.166251418616226 0.6697361871577898 0.06495770681493777
      vertex 4.166251866600298 0.4208628023892483 0.16847652214594822
      vertex 4.166251866600298 0.38974617505281234 0.16575412294236436
    endloop
  endfacet
  facet normal 0.9999999999972108 8.000000006819728e-07 -2.22222248359748e-06
    outer loop
      vertex 4.166251418616226 0.6697361871577898 0.06495770681493777
      vertex 4.166251866600298 0.38974617505281234 0.16575412294236436
      vertex 4.166251866600298 0.10975609756097557 0.06495770681493777
    endloop
  endfacet
  facet normal 1.0 0.0 0.0
    outer loop
      vertex 4.166251866600298 0.10975609756097557 0.06495770681493777
      vertex 4.166251866600298 0.38974617505281234 0.16575412294236436
      vertex 4.166251866600298 0.3586295271279243 0.16847652214594822
    endloop
  endfacet
  facet normal 1.0 0.0 0.0
    outer loop
      vertex 4.166251866600298 0.10975609756097557 0.06495770681493777
      vertex 4.166251866600298 0.3586295271279243 0.16847652214594822
      vertex 4.166251866600298 0.32845833748133396 0.1765608427034395
    endloop
  endfacet
  facet normal -1.0 0.0 -0.0
    outer loop
      vertex 3.9422598307615724 0.23455998008959675 0.25535093727785463
      vertex 3.9422598307615724 0.2524757590841214 0.229764327023997
      vertex 3.9422598307615724 0.10975609756097557 0.06495770681493777
    endloop
  endfacet
  facet normal -1.0 0.0 0.0
    outer loop
      vertex 3.9422598307615724 0.10975609756097557 0.3449477516133449
      vertex 3.9422598307615724 0.21055251368840214 0.3449477516133449
      vertex 3.9422598307615724 0.213274912891986 0.31383122597870083
    endloop
  endfacet
  facet normal -1.0 0.0 0.0
    outer loop
      vertex 3.9422598307615724 0.5270165256346441 0.229764327023997
      vertex 3.9422598307615724 0.5449323046291686 0.25535093727785463
      vertex 3.9422598307615724 0.6697361871577898 0.06495770681493777
    endloop
  endfacet
  facet normal -1.0 0.0 0.0
    outer loop
      vertex 3.9422598307615724 0.6697361871577898 0.06495770681493777
      vertex 3.9422598307615724 0.5449323046291686 0.25535093727785463
      vertex 3.9422598307615724 0.5581330512692881 0.28365994673529615
    endloop
  endfacet
  facet normal -1.0 0.0 0.0
    outer loop
      vertex 3.9422598307615724 0.6697361871577898 0.06495770681493777
      vertex 3.9422598307615724 0.5581330512692881 0.28365994673529615
      vertex 3.9422598307615724 0.6697361871577898 0.3449477516133449
    endloop
  endfacet
  facet normal -1.0 0.0 0.0
    outer loop
      vertex 3.9422598307615724 0.6697361871577898 0.3449477516133449
      vertex 3.9422598307615724 0.5581330512692881 0.28365994673529615
      vertex 3.9422598307615724 0.5662173718267794 0.31383122597870083
    endloop
  endfacet
  facet normal -1.0 -0.0 0.0
    outer loop
      vertex 3.9422598307615724 0.6697361871577898 0.3449477516133449
      vertex 3.9422598307615724 0.5662173718267794 0.31383122597870083
      vertex 3.9422598307615724 0.5689397710303633 0.3449477516133449
    endloop
  endfacet
  facet normal -1.0 0.0 0.0
    outer loop
      vertex 3.9422598307615724 0.45103394723743145 0.1765608427034395
      vertex 3.9422598307615724 0.479342956694873 0.18976158934355897
      vertex 3.9422598307615724 0.6697361871577898 0.06495770681493777
    endloop
  endfacet
  facet normal -1.0 0.0 0.0
    outer loop
      vertex 3.9422598307615724 0.6697361871577898 0.06495770681493777
      vertex 3.9422598307615724 0.479342956694873 0.18976158934355897
      vertex 3.9422598307615724 0.5049295669487306 0.2076773683380836
    endloop
  endfacet
  facet normal -1.0 0.0 0.0
    outer loop
      vertex 3.9422598307615724 0.6697361871577898 0.06495770681493777
      vertex 3.9422598307615724 0.5049295669487306 0.2076773683380836
      vertex 3.9422598307615724 0.5270165256346441 0.229764327023997
    endloop
  endfacet
  facet normal -1.0 0.0 0.0
    outer loop
      vertex 3.9422598307615724 0.10975609756097557 0.3449477516133449
      vertex 3.9422598307615724 0.213274912891986 0.31383122597870083
      vertex 3.9422598307615724 0.10975609756097557 0.06495770681493777
    endloop
  endfacet
  facet normal -1.0 0.0 0.0
    outer loop
      vertex 3.9422598307615724 0.10975609756097557 0.06495770681493777
      vertex 3.9422598307615724 0.213274912891986 0.31383122597870083
      vertex 3.9422598307615724 0.2213592334494773 0.28365994673529615
    endloop
  endfacet
  facet normal -1.0 0.0 0.0
    outer loop
      vertex 3.9422598307615724 0.10975609756097557 0.06495770681493777
      vertex 3.9422598307615724 0.2213592334494773 0.28365994673529615
      vertex 3.9422598307615724 0.23455998008959675 0.25535093727785463
    endloop
  endfacet
  facet normal -1.0 0.0 -0.0
    outer loop
      vertex 3.9422598307615724 0.2524757590841214 0.229764327023997
      vertex 3.9422598307615724 0.2745627177700348 0.2076773683380836
      vertex 3.9422598307615724 0.10975609756097557 0.06495770681493777
    endloop
  endfacet
  facet normal -1.0 0.0 0.0
    outer loop
      vertex 3.9422598307615724 0.10975609756097557 0.06495770681493777
      vertex 3.9422598307615724 0.2745627177700348 0.2076773683380836
      vertex 3.9422598307615724 0.30014932802389244 0.18976158934355897
    endloop
  endfacet
  facet normal -1.0 0.0 0.0
    outer loop
      vertex 3.9422598307615724 0.10975609756097557 0.06495770681493777
      vertex 3.9422598307615724 0.30014932802389244 0.18976158934355897
      vertex 3.9422598307615724 0.32845833748133396 0.1765608427034395
    endloop
  endfacet
  facet normal -1.0 0.0 -0.0
    outer loop
      vertex 3.9422598307615724 0.32845833748133396 0.1765608427034395
      vertex 3.9422598307615724 0.3586295271279243 0.16847652214594822
      vertex 3.9422598307615724 0.10975609756097557 0.06495770681493777
    endloop
  endfacet
  facet normal -1.0 0.0 0.0
    outer loop
      vertex 3.9422598307615724 0.10975609756097557 0.06495770681493777
      vertex 3.9422598307615724 0.3586295271279243 0.16847652214594822
      vertex 3.9422598307615724 0.38974616936879036 0.16575412294236436
    endloop
  endfacet
  facet normal -1.0 0.0 0.0
    outer loop
      vertex 3.9422598307615724 0.10975609756097557 0.06495770681493777
      vertex 3.9422598307615724 0.38974616936879036 0.16575412294236436
      vertex 3.9422598307615724 0.6697361871577898 0.06495770681493777
    endloop
  endfacet
  facet normal -1.0 0.0 0.0
    outer loop
      vertex 3.9422598307615724 0.6697361871577898 0.06495770681493777
      vertex 3.9422598307615724 0.38974616936879036 0.16575412294236436
      vertex 3.9422598307615724 0.4208628023892483 0.16847652214594822
    endloop
  endfacet
  facet normal -1.0 0.0 0.0
    outer loop
      vertex 3.9422598307615724 0.6697361871577898 0.06495770681493777
      vertex 3.9422598307615724 0.4208628023892483 0.16847652214594822
      vertex 3.9422598307615724 0.45103394723743145 0.1765608427034395
    endloop
  endfacet
  facet normal -0.0 1.0 0.0
    outer loop
      vertex 0.35838725734196114 0.10975609756097557 0.3449477516133449
      vertex 3.9422598307615724 0.10975609756097557 0.3449477516133449
      vertex 0.35838725734196114 0.10975609756097557 0.06495770681493777
    endloop
  endfacet
  facet normal 0.0 1.0 0.0
    outer loop
      vertex 0.35838725734196114 0.10975609756097557 0.06495770681493777
      vertex 3.9422598307615724 0.10975609756097557 0.3449477516133449
      vertex 3.9422598307615724 0.10975609756097557 0.06495770681493777
    endloop
  endfacet
  facet normal 1.0 0.0 0.0
    outer loop
      vertex 0.35838725734196114 0.2083125933300149 0.3449477516133449
      vertex 0.35838725734196114 0.10975609756097557 0.3449477516133449
      vertex 0.35838725734196114 0.2083125933300149 0.06495770681493777
    endloop
  endfacet
  facet normal 1.0 0.0 0.0
    outer loop
      vertex 0.35838725734196114 0.2083125933300149 0.06495770681493777
      vertex 0.35838725734196114 0.10975609756097557 0.3449477516133449
      vertex 0.35838725734196114 0.10975609756097557 0.06495770681493777
    endloop
  endfacet
  facet normal -0.0 1.0 0.0
    outer loop
      vertex 0.26879044300647087 0.2083125933300149 0.3449477516133449
      vertex 0.35838725734196114 0.2083125933300149 0.3449477516133449
      vertex 0.26879044300647087 0.2083125933300149 0.06495770681493777
    endloop
  endfacet
  facet normal 0.0 1.0 0.0
    outer loop
      vertex 0.26879044300647087 0.2083125933300149 0.06495770681493777
      vertex 0.35838725734196114 0.2083125933300149 0.3449477516133449
      vertex 0.35838725734196114 0.2083125933300149 0.06495770681493777
    endloop
  endfacet
  facet normal -1.0 0.0 0.0
    outer loop
      vertex 0.26879044300647087 0.10975609756097557 0.3449477516133449
      vertex 0.26879044300647087 0.2083125933300149 0.3449477516133449
      vertex 0.26879044300647087 0.10975609756097557 0.06495770681493777
    endloop
  endfacet
  facet normal -1.0 0.0 0.0
    outer loop
      vertex 0.26879044300647087 0.10975609756097557 0.06495770681493777
      vertex 0.26879044300647087 0.2083125933300149 0.3449477516133449
      vertex 0.26879044300647087 0.2083125933300149 0.06495770681493777
    endloop
  endfacet
  facet normal -0.0 1.0 0.0
    outer loop
      vertex 0.20159283225485314 0.10975609756097557 0.3449477516133449
      vertex 0.26879044300647087 0.10975609756097557 0.3449477516133449
      vertex 0.20159283225485314 0.10975609756097557 0.06495770681493777
    endloop
  endfacet
  facet normal 0.0 1.0 0.0
    outer loop
      vertex 0.20159283225485314 0.10975609756097557 0.06495770681493777
      vertex 0.26879044300647087 0.10975609756097557 0.3449477516133449
      vertex 0.26879044300647087 0.10975609756097557 0.06495770681493777
    endloop
  endfacet
  facet normal 1.0 0.0 0.0
    outer loop
      vertex 0.20159283225485314 0.2083125933300149 0.3449477516133449
      vertex 0.20159283225485314 0.10975609756097557 0.3449477516133449
      vertex 0.20159283225485314 0.2083125933300149 0.06495770681493777
    endloop
  endfacet
  facet normal 1.0 0.0 0.0
    outer loop
      vertex 0.20159283225485314 0.2083125933300149 0.06495770681493777
      vertex 0.20159283225485314 0.10975609756097557 0.3449477516133449
      vertex 0.20159283225485314 0.10975609756097557 0.06495770681493777
    endloop
  endfacet
  facet normal -0.0 1.0 0.0
    outer loop
      vertex 0.11199601791936285 0.2083125933300149 0.3449477516133449
      vertex 0.20159283225485314 0.2083125933300149 0.3449477516133449
      vertex 0.11199601791936285 0.2083125933300149 0.06495770681493777
    endloop
  endfacet
  facet normal 0.0 1.0 0.0
    outer loop
      vertex 0.11199601791936285 0.2083125933300149 0.06495770681493777
      vertex 0.20159283225485314 0.2083125933300149 0.3449477516133449
      vertex 0.20159283225485314 0.2083125933300149 0.06495770681493777
    endloop
  endfacet
  facet normal -1.0 0.0 0.0
    outer loop
      vertex 0.11199601791936285 0.10975609756097557 0.3449477516133449
      vertex 0.11199601791936285 0.2083125933300149 0.3449477516133449
      vertex 0.11199601791936285 0.10975609756097557 0.06495770681493777
    endloop
  endfacet
  facet normal -1.0 0.0 0.0
    outer loop
      vertex 0.11199601791936285 0.10975609756097557 0.06495770681493777
      vertex 0.11199601791936285 0.2083125933300149 0.3449477516133449
      vertex 0.11199601791936285 0.2083125933300149 0.06495770681493777
    endloop
  endfacet
  facet normal -0.0 1.0 0.0
    outer loop
      vertex 0.04479840716774514 0.10975609756097557 0.3449477516133449
      vertex 0.11199601791936285 0.10975609756097557 0.3449477516133449
      vertex 0.04479840716774514 0.10975609756097557 0.06495770681493777
    endloop
  endfacet
  facet normal 0.0 1.0 0.0
    outer loop
      vertex 0.04479840716774514 0.10975609756097557 0.06495770681493777
      vertex 0.11199601791936285 0.10975609756097557 0.3449477516133449
      vertex 0.11199601791936285 0.10975609756097557 0.06495770681493777
    endloop
  endfacet
  facet normal 1.0 0.0 0.0
    outer loop
      vertex 0.04479840716774514 0.3337481333997013 0.3449477516133449
      vertex 0.04479840716774514 0.10975609756097557 0.3449477516133449
      vertex 0.04479840716774514 0.33451194624191133 0.335730927322653
    endloop
  endfacet
  facet normal 1.0 0.0 0.0
    outer loop
      vertex 0.04479840716774514 0.33451194624191133 0.335730927322653
      vertex 0.04479840716774514 0.10975609756097557 0.3449477516133449
      vertex 0.04479840716774514 0.3367823295171727 0.3267654220961722
    endloop
  endfacet
  facet normal 1.0 0.0 0.0
    outer loop
      vertex 0.04479840716774514 0.3759993927327028 0.29066328172782974
      vertex 0.04479840716774514 0.36725196615231454 0.29366611896028366
      vertex 0.04479840716774514 0.10975609756097557 0.06495770681493777
    endloop
  endfacet
  facet normal 1.0 0.0 0.0
    outer loop
      vertex 0.04479840716774514 0.3367823295171727 0.3267654220961722
      vertex 0.04479840716774514 0.10975609756097557 0.3449477516133449
      vertex 0.04479840716774514 0.3404974614235938 0.3182958352370383
    endloop
  endfacet
  facet normal 1.0 0.0 0.0
    outer loop
      vertex 0.04479840716774514 0.3404974614235938 0.3182958352370383
      vertex 0.04479840716774514 0.10975609756097557 0.3449477516133449
      vertex 0.04479840716774514 0.10975609756097557 0.06495770681493777
    endloop
  endfacet
  facet normal 1.0 0.0 0.0
    outer loop
      vertex 0.04479840716774514 0.3404974614235938 0.3182958352370383
      vertex 0.04479840716774514 0.10975609756097557 0.06495770681493777
      vertex 0.04479840716774514 0.3455557839721254 0.31055287854216523
    endloop
  endfacet
  facet normal 1.0 -0.0 0.0
    outer loop
      vertex 0.04479840716774514 0.44574415131906414 0.3449477516133449
      vertex 0.04479840716774514 0.4449803384768541 0.335730927322653
      vertex 0.04479840716774514 0.6697361871577898 0.3449477516133449
    endloop
  endfacet
  facet normal 1.0 0.0 0.0
    outer loop
      vertex 0.04479840716774514 0.6697361871577898 0.3449477516133449
      vertex 0.04479840716774514 0.4449803384768541 0.335730927322653
      vertex 0.04479840716774514 0.44270995520159273 0.3267654220961722
    endloop
  endfacet
  facet normal 1.0 0.0 0.0
    outer loop
      vertex 0.04479840716774514 0.6697361871577898 0.3449477516133449
      vertex 0.04479840716774514 0.44270995520159273 0.3267654220961722
      vertex 0.04479840716774514 0.6697361871577898 0.06495770681493777
    endloop
  endfacet
  facet normal 1.0 0.0 0.0
    outer loop
      vertex 0.04479840716774514 0.6697361871577898 0.06495770681493777
      vertex 0.04479840716774514 0.44270995520159273 0.3267654220961722
      vertex 0.04479840716774514 0.43899482329517164 0.3182958352370383
    endloop
  endfacet
  facet normal 1.0 0.0 0.0
    outer loop
      vertex 0.04479840716774514 0.6697361871577898 0.06495770681493777
      vertex 0.04479840716774514 0.43899482329517164 0.3182958352370383
      vertex 0.04479840716774514 0.4339363215530114 0.31055287854216523
    endloop
  endfacet
  facet normal 1.0 0.0 0.0
    outer loop
      vertex 0.04479840716774514 0.4339363215530114 0.31055287854216523
      vertex 0.04479840716774514 0.42767247386759577 0.3037484484774564
      vertex 0.04479840716774514 0.6697361871577898 0.06495770681493777
    endloop
  endfacet
  facet normal 1.0 0.0 0.0
    outer loop
      vertex 0.04479840716774514 0.6697361871577898 0.06495770681493777
      vertex 0.04479840716774514 0.42767247386759577 0.3037484484774564
      vertex 0.04479840716774514 0.4203740965654554 0.29806801044858633
    endloop
  endfacet
  facet normal 1.0 0.0 0.0
    outer loop
      vertex 0.04479840716774514 0.6697361871577898 0.06495770681493777
      vertex 0.04479840716774514 0.4203740965654554 0.29806801044858633
      vertex 0.04479840716774514 0.4122402289696365 0.29366611896028366
    endloop
  endfacet
  facet normal 1.0 0.0 0.0
    outer loop
      vertex 0.04479840716774514 0.4122402289696365 0.29366611896028366
      vertex 0.04479840716774514 0.4034927575908412 0.29066328172782974
      vertex 0.04479840716774514 0.6697361871577898 0.06495770681493777
    endloop
  endfacet
  facet normal 1.0 0.0 0.0
    outer loop
      vertex 0.04479840716774514 0.6697361871577898 0.06495770681493777
      vertex 0.04479840716774514 0.4034927575908412 0.29066328172782974
      vertex 0.04479840716774514 0.39437036834245887 0.28914103185226975
    endloop
  endfacet
  facet normal 1.0 0.0 0.0
    outer loop
      vertex 0.04479840716774514 0.6697361871577898 0.06495770681493777
      vertex 0.04479840716774514 0.39437036834245887 0.28914103185226975
      vertex 0.04479840716774514 0.10975609756097557 0.06495770681493777
    endloop
  endfacet
  facet normal 1.0 0.0 0.0
    outer loop
      vertex 0.04479840716774514 0.10975609756097557 0.06495770681493777
      vertex 0.04479840716774514 0.39437036834245887 0.28914103185226975
      vertex 0.04479840716774514 0.3851217819810851 0.28914103185226975
    endloop
  endfacet
  facet normal 1.0 0.0 0.0
    outer loop
      vertex 0.04479840716774514 0.10975609756097557 0.06495770681493777
      vertex 0.04479840716774514 0.3851217819810851 0.28914103185226975
      vertex 0.04479840716774514 0.3759993927327028 0.29066328172782974
    endloop
  endfacet
  facet normal 1.0 0.0 0.0
    outer loop
      vertex 0.04479840716774514 0.36725196615231454 0.29366611896028366
      vertex 0.04479840716774514 0.35911809855649574 0.29806801044858633
      vertex 0.04479840716774514 0.10975609756097557 0.06495770681493777
    endloop
  endfacet
  facet normal 1.0 0.0 0.0
    outer loop
      vertex 0.04479840716774514 0.10975609756097557 0.06495770681493777
      vertex 0.04479840716774514 0.35911809855649574 0.29806801044858633
      vertex 0.04479840716774514 0.351819631657541 0.3037484484774564
    endloop
  endfacet
  facet normal 1.0 0.0 0.0
    outer loop
      vertex 0.04479840716774514 0.10975609756097557 0.06495770681493777
      vertex 0.04479840716774514 0.351819631657541 0.3037484484774564
      vertex 0.04479840716774514 0.3455557839721254 0.31055287854216523
    endloop
  endfacet
  facet normal -1.0 0.0 0.0
    outer loop
      vertex 0.0 0.4449803384768541 0.335730927322653
      vertex 0.0 0.44574415131906414 0.3449477516133449
      vertex 0.0 0.7794922847187654 0.3449477516133449
    endloop
  endfacet
  facet normal -1.0 0.0 0.0
    outer loop
      vertex 0.0 0.4339363215530114 0.31055287854216523
      vertex 0.0 0.43899482329517164 0.3182958352370383
      vertex 0.0 0.7794922847187654 1.3938392732702836e-07
    endloop
  endfacet
  facet normal -1.0 -0.0 -0.0
    outer loop
      vertex 0.0 0.3337481333997013 0.3449477516133449
      vertex 0.0 0.33451194624191133 0.335730927322653
      vertex 0.0 0.0 0.3449477516133449
    endloop
  endfacet
  facet normal -1.0 0.0 0.0
    outer loop
      vertex 0.0 0.0 0.3449477516133449
      vertex 0.0 0.33451194624191133 0.335730927322653
      vertex 0.0 0.3367823295171727 0.3267654220961722
    endloop
  endfacet
  facet normal -1.0 0.0 0.0
    outer loop
      vertex 0.0 0.0 0.3449477516133449
      vertex 0.0 0.3367823295171727 0.3267654220961722
      vertex 0.0 0.0 0.0
    endloop
  endfacet
  facet normal -1.0 0.0 0.0
    outer loop
      vertex 0.0 0.0 0.0
      vertex 0.0 0.3367823295171727 0.3267654220961722
      vertex 0.0 0.3404974614235938 0.3182958352370383
    endloop
  endfacet
  facet normal -1.0 0.0 0.0
    outer loop
      vertex 0.0 0.0 0.0
      vertex 0.0 0.3404974614235938 0.3182958352370383
      vertex 0.0 0.3455557839721254 0.31055287854216523
    endloop
  endfacet
  facet normal -1.0 0.0 0.0
    outer loop
      vertex 0.0 0.7794922847187654 1.3938392732702836e-07
      vertex 0.0 0.43899482329517164 0.3182958352370383
      vertex 0.0 0.7794922847187654 0.3449477516133449
    endloop
  endfacet
  facet normal -1.0 0.0 0.0
    outer loop
      vertex 0.0 0.7794922847187654 0.3449477516133449
      vertex 0.0 0.43899482329517164 0.3182958352370383
      vertex 0.0 0.44270995520159273 0.3267654220961722
    endloop
  endfacet
  facet normal -1.0 0.0 0.0
    outer loop
      vertex 0.0 0.7794922847187654 0.3449477516133449
      vertex 0.0 0.44270995520159273 0.3267654220961722
      vertex 0.0 0.4449803384768541 0.335730927322653
    endloop
  endfacet
  facet normal -1.0 0.0 0.0
    outer loop
      vertex 0.0 0.7794922847187654 1.3938392732702836e-07
      vertex 0.0 0.4034927575908412 0.29066328172782974
      vertex 0.0 0.4122402289696365 0.29366611896028366
    endloop
  endfacet
  facet normal -1.0 0.0 -0.0
    outer loop
      vertex 0.0 0.3455557839721254 0.31055287854216523
      vertex 0.0 0.351819631657541 0.3037484484774564
      vertex 0.0 0.0 0.0
    endloop
  endfacet
  facet normal -1.0 0.0 0.0
    outer loop
      vertex 0.0 0.0 0.0
      vertex 0.0 0.351819631657541 0.3037484484774564
      vertex 0.0 0.35911809855649574 0.29806801044858633
    endloop
  endfacet
  facet normal -1.0 0.0 0.0
    outer loop
      vertex 0.0 0.0 0.0
      vertex 0.0 0.35911809855649574 0.29806801044858633
      vertex 0.0 0.36725196615231454 0.29366611896028366
    endloop
  endfacet
  facet normal -1.0 0.0 -0.0
    outer loop
      vertex 0.0 0.36725196615231454 0.29366611896028366
      vertex 0.0 0.3759993927327028 0.29066328172782974
      vertex 0.0 0.0 0.0
    endloop
  endfacet
  facet normal -1.0 0.0 0.0
    outer loop
      vertex 0.0 0.0 0.0
      vertex 0.0 0.3759993927327028 0.29066328172782974
      vertex 0.0 0.3851217819810851 0.28914103185226975
    endloop
  endfacet
  facet normal -1.0 0.0 0.0
    outer loop
      vertex 0.0 0.0 0.0
      vertex 0.0 0.3851217819810851 0.28914103185226975
      vertex 0.0 0.7794922847187654 1.3938392732702836e-07
    endloop
  endfacet
  facet normal -1.0 0.0 0.0
    outer loop
      vertex 0.0 0.7794922847187654 1.3938392732702836e-07
      vertex 0.0 0.3851217819810851 0.28914103185226975
      vertex 0.0 0.39437036834245887 0.28914103185226975
    endloop
  endfacet
  facet normal -1.0 0.0 0.0
    outer loop
      vertex 0.0 0.7794922847187654 1.3938392732702836e-07
      vertex 0.0 0.39437036834245887 0.28914103185226975
      vertex 0.0 0.4034927575908412 0.29066328172782974
    endloop
  endfacet
  facet normal -1.0 0.0 0.0
    outer loop
      vertex 0.0 0.4122402289696365 0.29366611896028366
      vertex 0.0 0.4203740965654554 0.29806801044858633
      vertex 0.0 0.7794922847187654 1.3938392732702836e-07
    endloop
  endfacet
  facet normal -1.0 0.0 0.0
    outer loop
      vertex 0.0 0.7794922847187654 1.3938392732702836e-07
      vertex 0.0 0.4203740965654554 0.29806801044858633
      vertex 0.0 0.42767247386759577 0.3037484484774564
    endloop
  endfacet
  facet normal -1.0 0.0 0.0
    outer loop
      vertex 0.0 0.7794922847187654 1.3938392732702836e-07
      vertex 0.0 0.42767247386759577 0.3037484484774564
      vertex 0.0 0.4339363215530114 0.31055287854216523
    endloop
  endfacet
  facet normal 4.977600796223483e-08 -0.9999999999991555 -1.2987012368245927e-06
    outer loop
      vertex 9.0 4.479840716604918e-07 0.0
      vertex 9.0 0.0 0.3449477516133449
      vertex 0.0 0.0 0.0
    endloop
  endfacet
  facet normal 0.0 -1.0 0.0
    outer loop
      vertex 0.0 0.0 0.0
      vertex 9.0 0.0 0.3449477516133449
      vertex 0.0 0.0 0.3449477516133449
    endloop
  endfacet
  facet normal 1.0 0.0 0.0
    outer loop
      vertex 9.0 0.20831304131408654 0.06495770681493777
      vertex 9.0 0.2083125933300149 0.3449477516133449
      vertex 9.0 0.0 0.3449477516133449
    endloop
  endfacet
  facet normal 1.0 0.0 -0.0
    outer loop
      vertex 9.0 0.7794922847187654 1.3938392732702836e-07
      vertex 9.0 0.7794922847187654 0.3449477516133449
      vertex 9.0 0.5711796913887506 0.3449477516133449
    endloop
  endfacet
  facet normal 1.0 0.0 0.0
    outer loop
      vertex 9.0 0.5711796913887506 0.3449477516133449
      vertex 9.0 0.5711796913887506 0.06495770681493777
      vertex 9.0 0.7794922847187654 1.3938392732702836e-07
    endloop
  endfacet
  facet normal 1.0 0.0 0.0
    outer loop
      vertex 9.0 0.7794922847187654 1.3938392732702836e-07
      vertex 9.0 0.5711796913887506 0.06495770681493777
      vertex 9.0 0.20831304131408654 0.06495770681493777
    endloop
  endfacet
  facet normal 1.0 0.0 0.0
    outer loop
      vertex 9.0 0.7794922847187654 1.3938392732702836e-07
      vertex 9.0 0.20831304131408654 0.06495770681493777
      vertex 9.0 4.479840716604918e-07 0.0
    endloop
  endfacet
  facet normal 1.0 0.0 -0.0
    outer loop
      vertex 9.0 4.479840716604918e-07 0.0
      vertex 9.0 0.20831304131408654 0.06495770681493777
      vertex 9.0 0.0 0.3449477516133449
    endloop
  endfacet
  facet normal -0.0 0.9999999999987199 1.5999999998794015e-06
    outer loop
      vertex 8.865604778496763 0.2083125933300149 0.3449477516133449
      vertex 9.0 0.2083125933300149 0.3449477516133449
      vertex 8.865604778496763 0.20831304131408654 0.06495770681493777
    endloop
  endfacet
  facet normal -0.0 0.9999999999987199 1.5999999998794015e-06
    outer loop
      vertex 8.865604778496763 0.20831304131408654 0.06495770681493777
      vertex 9.0 0.2083125933300149 0.3449477516133449
      vertex 9.0 0.20831304131408654 0.06495770681493777
    endloop
  endfacet
  facet normal -1.0 0.0 0.0
    outer loop
      vertex 8.865604778496763 0.10975609756097557 0.3449477516133449
      vertex 8.865604778496763 0.2083125933300149 0.3449477516133449
      vertex 8.865604778496763 0.10975654554504723 0.06495770681493777
    endloop
  endfacet
  facet normal -1.0 0.0 0.0
    outer loop
      vertex 8.865604778496763 0.10975654554504723 0.06495770681493777
      vertex 8.865604778496763 0.2083125933300149 0.3449477516133449
      vertex 8.865604778496763 0.20831304131408654 0.06495770681493777
    endloop
  endfacet
  facet normal -0.0 0.99999999999872 1.5999999999289671e-06
    outer loop
      vertex 8.798407167745147 0.10975609756097557 0.3449477516133449
      vertex 8.865604778496763 0.10975609756097557 0.3449477516133449
      vertex 8.798407167745147 0.10975654554504723 0.06495770681493777
    endloop
  endfacet
  facet normal -0.0 0.99999999999872 1.5999999999289671e-06
    outer loop
      vertex 8.798407167745147 0.10975654554504723 0.06495770681493777
      vertex 8.865604778496763 0.10975609756097557 0.3449477516133449
      vertex 8.865604778496763 0.10975654554504723 0.06495770681493777
    endloop
  endfacet
  facet normal 1.0 0.0 0.0
    outer loop
      vertex 8.798407167745147 0.2083125933300149 0.3449477516133449
      vertex 8.798407167745147 0.10975609756097557 0.3449477516133449
      vertex 8.798407167745147 0.20831304131408654 0.06495770681493777
    endloop
  endfacet
  facet normal 1.0 0.0 0.0
    outer loop
      vertex 8.798407167745147 0.20831304131408654 0.06495770681493777
      vertex 8.798407167745147 0.10975609756097557 0.3449477516133449
      vertex 8.798407167745147 0.10975654554504723 0.06495770681493777
    endloop
  endfacet
  facet normal -0.0 1.0 0.0
    outer loop
      vertex 7.768043802887008 0.2083125933300149 0.3449477516133449
      vertex 8.798407167745147 0.2083125933300149 0.3449477516133449
      vertex 7.768043802887008 0.2083125933300149 0.06495770681493777
    endloop
  endfacet
  facet normal -4.347826086628395e-07 0.9999999999986253 1.5999999998792503e-06
    outer loop
      vertex 7.768043802887008 0.2083125933300149 0.06495770681493777
      vertex 8.798407167745147 0.2083125933300149 0.3449477516133449
      vertex 8.798407167745147 0.20831304131408654 0.06495770681493777
    endloop
  endfacet
  facet normal -1.0 0.0 0.0
    outer loop
      vertex 7.768043802887008 0.10975609756097557 0.3449477516133449
      vertex 7.768043802887008 0.2083125933300149 0.3449477516133449
      vertex 7.768043802887008 0.10975609756097557 0.06495770681493777
    endloop
  endfacet
  facet normal -1.0 0.0 0.0
    outer loop
      vertex 7.768043802887008 0.10975609756097557 0.06495770681493777
      vertex 7.768043802887008 0.2083125933300149 0.3449477516133449
      vertex 7.768043802887008 0.2083125933300149 0.06495770681493777
    endloop
  endfacet
  facet normal -0.0 1.0 0.0
    outer loop
      vertex 7.700846192135391 0.10975609756097557 0.3449477516133449
      vertex 7.768043802887008 0.10975609756097557 0.3449477516133449
      vertex 7.700846192135391 0.10975609756097557 0.06495770681493777
    endloop
  endfacet
  facet normal 0.0 1.0 0.0
    outer loop
      vertex 7.700846192135391 0.10975609756097557 0.06495770681493777
      vertex 7.768043802887008 0.10975609756097557 0.3449477516133449
      vertex 7.768043802887008 0.10975609756097557 0.06495770681493777
    endloop
  endfacet
  facet normal 1.0 0.0 0.0
    outer loop
      vertex 7.700846192135391 0.2083125933300149 0.3449477516133449
      vertex 7.700846192135391 0.10975609756097557 0.3449477516133449
      vertex 7.700846192135391 0.2083125933300149 0.06495770681493777
    endloop
  endfacet
  facet normal 1.0 0.0 0.0
    outer loop
      vertex 7.700846192135391 0.2083125933300149 0.06495770681493777
      vertex 7.700846192135391 0.10975609756097557 0.3449477516133449
      vertex 7.700846192135391 0.10975609756097557 0.06495770681493777
    endloop
  endfacet
  facet normal -0.0 1.0 0.0
    outer loop
      vertex 7.6112493777999 0.2083125933300149 0.3449477516133449
      vertex 7.700846192135391 0.2083125933300149 0.3449477516133449
      vertex 7.6112493777999 0.2083125933300149 0.06495770681493777
    endloop
  endfacet
  facet normal 0.0 1.0 0.0
    outer loop
      vertex 7.6112493777999 0.2083125933300149 0.06495770681493777
      vertex 7.700846192135391 0.2083125933300149 0.3449477516133449
      vertex 7.700846192135391 0.2083125933300149 0.06495770681493777
    endloop
  endfacet
  facet normal -1.0 0.0 0.0
    outer loop
      vertex 7.6112493777999 0.10975609756097557 0.3449477516133449
      vertex 7.6112493777999 0.2083125933300149 0.3449477516133449
      vertex 7.6112493777999 0.10975609756097557 0.06495770681493777
    endloop
  endfacet
  facet normal -1.0 0.0 0.0
    outer loop
      vertex 7.6112493777999 0.10975609756097557 0.06495770681493777
      vertex 7.6112493777999 0.2083125933300149 0.3449477516133449
      vertex 7.6112493777999 0.2083125933300149 0.06495770681493777
    endloop
  endfacet
  facet normal -0.0 1.0 0.0
    outer loop
      vertex 4.166251866600298 0.10975609756097557 0.3449477516133449
      vertex 7.6112493777999 0.10975609756097557 0.3449477516133449
      vertex 4.166251866600298 0.10975609756097557 0.06495770681493777
    endloop
  endfacet
  facet normal 0.0 1.0 0.0
    outer loop
      vertex 4.166251866600298 0.10975609756097557 0.06495770681493777
      vertex 7.6112493777999 0.10975609756097557 0.3449477516133449
      vertex 7.6112493777999 0.10975609756097557 0.06495770681493777
    endloop
  endfacet
  facet normal 0.0 -0.0 1.0
    outer loop
      vertex 7.700846192135391 0.10975609756097557 0.3449477516133449
      vertex 7.700846192135391 0.2083125933300149 0.3449477516133449
      vertex 7.6112493777999 0.2083125933300149 0.3449477516133449
    endloop
  endfacet
  facet normal 0.0 -0.0 1.0
    outer loop
      vertex 0.35838725734196114 0.10975609756097557 0.3449477516133449
      vertex 0.35838725734196114 0.2083125933300149 0.3449477516133449
      vertex 0.26879044300647087 0.2083125933300149 0.3449477516133449
    endloop
  endfacet
  facet normal 0.0 0.0 1.0
    outer loop
      vertex 9.0 0.2083125933300149 0.3449477516133449
      vertex 8.865604778496763 0.2083125933300149 0.3449477516133449
      vertex 9.0 0.0 0.3449477516133449
    endloop
  endfacet
  facet normal 0.0 0.0 1.0
    outer loop
      vertex 9.0 0.0 0.3449477516133449
      vertex 8.865604778496763 0.2083125933300149 0.3449477516133449
      vertex 8.865604778496763 0.10975609756097557 0.3449477516133449
    endloop
  endfacet
  facet normal 0.0 0.0 1.0
    outer loop
      vertex 9.0 0.0 0.3449477516133449
      vertex 8.865604778496763 0.10975609756097557 0.3449477516133449
      vertex 8.798407167745147 0.10975609756097557 0.3449477516133449
    endloop
  endfacet
  facet normal 0.0 0.0 1.0
    outer loop
      vertex 9.0 0.0 0.3449477516133449
      vertex 7.6112493777999 0.10975609756097557 0.3449477516133449
      vertex 4.166251866600298 0.10975609756097557 0.3449477516133449
    endloop
  endfacet
  facet normal 0.0 0.0 1.0
    outer loop
      vertex 0.20159283225485314 0.2083125933300149 0.3449477516133449
      vertex 0.11199601791936285 0.2083125933300149 0.3449477516133449
      vertex 0.20159283225485314 0.10975609756097557 0.3449477516133449
    endloop
  endfacet
  facet normal 0.0 0.0 1.0
    outer loop
      vertex 0.20159283225485314 0.10975609756097557 0.3449477516133449
      vertex 0.11199601791936285 0.2083125933300149 0.3449477516133449
      vertex 0.11199601791936285 0.10975609756097557 0.3449477516133449
    endloop
  endfacet
  facet normal 0.0 0.0 1.0
    outer loop
      vertex 8.798407167745147 0.2083125933300149 0.3449477516133449
      vertex 7.768043802887008 0.2083125933300149 0.3449477516133449
      vertex 8.798407167745147 0.10975609756097557 0.3449477516133449
    endloop
  endfacet
  facet normal 0.0 0.0 1.0
    outer loop
      vertex 8.798407167745147 0.10975609756097557 0.3449477516133449
      vertex 7.768043802887008 0.2083125933300149 0.3449477516133449
      vertex 7.768043802887008 0.10975609756097557 0.3449477516133449
    endloop
  endfacet
  facet normal 0.0 0.0 1.0
    outer loop
      vertex 8.798407167745147 0.10975609756097557 0.3449477516133449
      vertex 7.768043802887008 0.10975609756097557 0.3449477516133449
      vertex 9.0 0.0 0.3449477516133449
    endloop
  endfacet
  facet normal 0.0 0.0 1.0
    outer loop
      vertex 9.0 0.0 0.3449477516133449
      vertex 7.768043802887008 0.10975609756097557 0.3449477516133449
      vertex 7.700846192135391 0.10975609756097557 0.3449477516133449
    endloop
  endfacet
  facet normal 0.0 0.0 1.0
    outer loop
      vertex 9.0 0.0 0.3449477516133449
      vertex 7.700846192135391 0.10975609756097557 0.3449477516133449
      vertex 7.6112493777999 0.10975609756097557 0.3449477516133449
    endloop
  endfacet
  facet normal 0.0 0.0 1.0
    outer loop
      vertex 7.6112493777999 0.10975609756097557 0.3449477516133449
      vertex 7.700846192135391 0.10975609756097557 0.3449477516133449
      vertex 7.6112493777999 0.2083125933300149 0.3449477516133449
    endloop
  endfacet
  facet normal 0.0 0.0 1.0
    outer loop
      vertex 0.26879044300647087 0.2083125933300149 0.3449477516133449
      vertex 0.26879044300647087 0.10975609756097557 0.3449477516133449
      vertex 0.35838725734196114 0.10975609756097557 0.3449477516133449
    endloop
  endfacet
  facet normal 0.0 0.0 1.0
    outer loop
      vertex 0.35838725734196114 0.10975609756097557 0.3449477516133449
      vertex 0.26879044300647087 0.10975609756097557 0.3449477516133449
      vertex 9.0 0.0 0.3449477516133449
    endloop
  endfacet
  facet normal -0.0 0.0 1.0
    outer loop
      vertex 0.35838725734196114 0.10975609756097557 0.3449477516133449
      vertex 9.0 0.0 0.3449477516133449
      vertex 3.9422598307615724 0.10975609756097557 0.3449477516133449
    endloop
  endfacet
  facet normal -0.0 0.0 1.0
    outer loop
      vertex 3.9422598307615724 0.10975609756097557 0.3449477516133449
      vertex 9.0 0.0 0.3449477516133449
      vertex 4.166251866600298 0.10975609756097557 0.3449477516133449
    endloop
  endfacet
  facet normal 0.0 0.0 1.0
    outer loop
      vertex 3.9422598307615724 0.10975609756097557 0.3449477516133449
      vertex 4.166251866600298 0.10975609756097557 0.3449477516133449
      vertex 3.9422598307615724 0.21055251368840214 0.3449477516133449
    endloop
  endfacet
  facet normal -0.0 0.0 1.0
    outer loop
      vertex 3.9422598307615724 0.21055251368840214 0.3449477516133449
      vertex 4.166251866600298 0.10975609756097557 0.3449477516133449
      vertex 4.166251866600298 0.21055251368840214 0.3449477516133449
    endloop
  endfacet
  facet normal 0.0 0.0 1.0
    outer loop
      vertex 0.04479840716774514 0.3337481333997013 0.3449477516133449
      vertex 0.0 0.3337481333997013 0.3449477516133449
      vertex 0.04479840716774514 0.10975609756097557 0.3449477516133449
    endloop
  endfacet
  facet normal 0.0 0.0 1.0
    outer loop
      vertex 0.04479840716774514 0.10975609756097557 0.3449477516133449
      vertex 0.0 0.3337481333997013 0.3449477516133449
      vertex 0.0 0.0 0.3449477516133449
    endloop
  endfacet
  facet normal -0.0 0.0 1.0
    outer loop
      vertex 0.04479840716774514 0.10975609756097557 0.3449477516133449
      vertex 0.0 0.0 0.3449477516133449
      vertex 0.11199601791936285 0.10975609756097557 0.3449477516133449
    endloop
  endfacet
  facet normal 0.0 0.0 1.0
    outer loop
      vertex 0.11199601791936285 0.10975609756097557 0.3449477516133449
      vertex 0.0 0.0 0.3449477516133449
      vertex 9.0 0.0 0.3449477516133449
    endloop
  endfacet
  facet normal -0.0 0.0 1.0
    outer loop
      vertex 0.11199601791936285 0.10975609756097557 0.3449477516133449
      vertex 9.0 0.0 0.3449477516133449
      vertex 0.20159283225485314 0.10975609756097557 0.3449477516133449
    endloop
  endfacet
  facet normal -0.0 0.0 1.0
    outer loop
      vertex 0.20159283225485314 0.10975609756097557 0.3449477516133449
      vertex 9.0 0.0 0.3449477516133449
      vertex 0.26879044300647087 0.10975609756097557 0.3449477516133449
    endloop
  endfacet
  facet normal -1.0 0.0 0.0
    outer loop
      vertex 7.6112493777999 0.5711796913887506 0.3449477516133449
      vertex 7.6112493777999 0.6697361871577898 0.3449477516133449
      vertex 7.6112493777999 0.5711796913887506 0.06495770681493777
    endloop
  endfacet
  facet normal -1.0 0.0 0.0
    outer loop
      vertex 7.6112493777999 0.5711796913887506 0.06495770681493777
      vertex 7.6112493777999 0.6697361871577898 0.3449477516133449
      vertex 7.6112493777999 0.6697361871577898 0.06495770681493777
    endloop
  endfacet
  facet normal -0.0 -1.0 -0.0
    outer loop
      vertex 7.700846192135391 0.5711796913887506 0.3449477516133449
      vertex 7.6112493777999 0.5711796913887506 0.3449477516133449
      vertex 7.700846192135391 0.5711796913887506 0.06495770681493777
    endloop
  endfacet
  facet normal 0.0 -1.0 0.0
    outer loop
      vertex 7.700846192135391 0.5711796913887506 0.06495770681493777
      vertex 7.6112493777999 0.5711796913887506 0.3449477516133449
      vertex 7.6112493777999 0.5711796913887506 0.06495770681493777
    endloop
  endfacet
  facet normal 1.0 0.0 0.0
    outer loop
      vertex 7.700846192135391 0.6697361871577898 0.3449477516133449
      vertex 7.700846192135391 0.5711796913887506 0.3449477516133449
      vertex 7.700846192135391 0.6697361871577898 0.06495770681493777
    endloop
  endfacet
  facet normal 1.0 0.0 0.0
    outer loop
      vertex 7.700846192135391 0.6697361871577898 0.06495770681493777
      vertex 7.700846192135391 0.5711796913887506 0.3449477516133449
      vertex 7.700846192135391 0.5711796913887506 0.06495770681493777
    endloop
  endfacet
  facet normal -0.0 -1.0 -0.0
    outer loop
      vertex 7.768043802887008 0.6697361871577898 0.3449477516133449
      vertex 7.700846192135391 0.6697361871577898 0.3449477516133449
      vertex 7.768043802887008 0.6697361871577898 0.06495770681493777
    endloop
  endfacet
  facet normal 0.0 -1.0 0.0
    outer loop
      vertex 7.768043802887008 0.6697361871577898 0.06495770681493777
      vertex 7.700846192135391 0.6697361871577898 0.3449477516133449
      vertex 7.700846192135391 0.6697361871577898 0.06495770681493777
    endloop
  endfacet
  facet normal -1.0 0.0 0.0
    outer loop
      vertex 7.768043802887008 0.5711796913887506 0.3449477516133449
      vertex 7.768043802887008 0.6697361871577898 0.3449477516133449
      vertex 7.768043802887008 0.5711796913887506 0.06495770681493777
    endloop
  endfacet
  facet normal -1.0 0.0 0.0
    outer loop
      vertex 7.768043802887008 0.5711796913887506 0.06495770681493777
      vertex 7.768043802887008 0.6697361871577898 0.3449477516133449
      vertex 7.768043802887008 0.6697361871577898 0.06495770681493777
    endloop
  endfacet
  facet normal -0.0 -1.0 -0.0
    outer loop
      vertex 8.798407167745147 0.5711796913887506 0.3449477516133449
      vertex 7.768043802887008 0.5711796913887506 0.3449477516133449
      vertex 8.798407167745147 0.5711796913887506 0.06495770681493777
    endloop
  endfacet
  facet normal 0.0 -1.0 0.0
    outer loop
      vertex 8.798407167745147 0.5711796913887506 0.06495770681493777
      vertex 7.768043802887008 0.5711796913887506 0.3449477516133449
      vertex 7.768043802887008 0.5711796913887506 0.06495770681493777
    endloop
  endfacet
  facet normal 1.0 0.0 0.0
    outer loop
      vertex 8.798407167745147 0.6697361871577898 0.3449477516133449
      vertex 8.798407167745147 0.5711796913887506 0.3449477516133449
      vertex 8.798407167745147 0.6697361871577898 0.06495770681493777
    endloop
  endfacet
  facet normal 1.0 0.0 0.0
    outer loop
      vertex 8.798407167745147 0.6697361871577898 0.06495770681493777
      vertex 8.798407167745147 0.5711796913887506 0.3449477516133449
      vertex 8.798407167745147 0.5711796913887506 0.06495770681493777
    endloop
  endfacet
  facet normal -0.0 -1.0 -0.0
    outer loop
      vertex 8.865604778496763 0.6697361871577898 0.3449477516133449
      vertex 8.798407167745147 0.6697361871577898 0.3449477516133449
      vertex 8.865604778496763 0.6697361871577898 0.06495770681493777
    endloop
  endfacet
  facet normal 0.0 -1.0 0.0
    outer loop
      vertex 8.865604778496763 0.6697361871577898 0.06495770681493777
      vertex 8.798407167745147 0.6697361871577898 0.3449477516133449
      vertex 8.798407167745147 0.6697361871577898 0.06495770681493777
    endloop
  endfacet
  facet normal -1.0 0.0 0.0
    outer loop
      vertex 8.865604778496763 0.5711796913887506 0.3449477516133449
      vertex 8.865604778496763 0.6697361871577898 0.3449477516133449
      vertex 8.865604778496763 0.5711796913887506 0.06495770681493777
    endloop
  endfacet
  facet normal -1.0 0.0 0.0
    outer loop
      vertex 8.865604778496763 0.5711796913887506 0.06495770681493777
      vertex 8.865604778496763 0.6697361871577898 0.3449477516133449
      vertex 8.865604778496763 0.6697361871577898 0.06495770681493777
    endloop
  endfacet
  facet normal -0.0 -1.0 -0.0
    outer loop
      vertex 9.0 0.5711796913887506 0.3449477516133449
      vertex 8.865604778496763 0.5711796913887506 0.3449477516133449
      vertex 9.0 0.5711796913887506 0.06495770681493777
    endloop
  endfacet
  facet normal 0.0 -1.0 0.0
    outer loop
      vertex 9.0 0.5711796913887506 0.06495770681493777
      vertex 8.865604778496763 0.5711796913887506 0.3449477516133449
      vertex 8.865604778496763 0.5711796913887506 0.06495770681493777
    endloop
  endfacet
  facet normal 0.0 1.0 0.0
    outer loop
      vertex 0.0 0.7794922847187654 1.3938392732702836e-07
      vertex 0.0 0.7794922847187654 0.3449477516133449
      vertex 9.0 0.7794922847187654 1.3938392732702836e-07
    endloop
  endfacet
  facet normal 0.0 1.0 -0.0
    outer loop
      vertex 9.0 0.7794922847187654 1.3938392732702836e-07
      vertex 0.0 0.7794922847187654 0.3449477516133449
      vertex 9.0 0.7794922847187654 0.3449477516133449
    endloop
  endfacet
  facet normal -0.0 -1.0 -0.0
    outer loop
      vertex 0.11199601791936285 0.6697361871577898 0.3449477516133449
      vertex 0.04479840716774514 0.6697361871577898 0.3449477516133449
      vertex 0.11199601791936285 0.6697361871577898 0.06495770681493777
    endloop
  endfacet
  facet normal 0.0 -1.0 0.0
    outer loop
      vertex 0.11199601791936285 0.6697361871577898 0.06495770681493777
      vertex 0.04479840716774514 0.6697361871577898 0.3449477516133449
      vertex 0.04479840716774514 0.6697361871577898 0.06495770681493777
    endloop
  endfacet
  facet normal -1.0 0.0 0.0
    outer loop
      vertex 0.11199601791936285 0.5711796913887506 0.3449477516133449
      vertex 0.11199601791936285 0.6697361871577898 0.3449477516133449
      vertex 0.11199601791936285 0.5711796913887506 0.06495770681493777
    endloop
  endfacet
  facet normal -1.0 0.0 0.0
    outer loop
      vertex 0.11199601791936285 0.5711796913887506 0.06495770681493777
      vertex 0.11199601791936285 0.6697361871577898 0.3449477516133449
      vertex 0.11199601791936285 0.6697361871577898 0.06495770681493777
    endloop
  endfacet
  facet normal -0.0 -1.0 -0.0
    outer loop
      vertex 0.20159283225485314 0.5711796913887506 0.3449477516133449
      vertex 0.11199601791936285 0.5711796913887506 0.3449477516133449
      vertex 0.20159283225485314 0.5711796913887506 0.06495770681493777
    endloop
  endfacet
  facet normal 0.0 -1.0 0.0
    outer loop
      vertex 0.20159283225485314 0.5711796913887506 0.06495770681493777
      vertex 0.11199601791936285 0.5711796913887506 0.3449477516133449
      vertex 0.11199601791936285 0.5711796913887506 0.06495770681493777
    endloop
  endfacet
  facet normal 1.0 0.0 0.0
    outer loop
      vertex 0.20159283225485314 0.6697361871577898 0.3449477516133449
      vertex 0.20159283225485314 0.5711796913887506 0.3449477516133449
      vertex 0.20159283225485314 0.6697361871577898 0.06495770681493777
    endloop
  endfacet
  facet normal 1.0 0.0 0.0
    outer loop
      vertex 0.20159283225485314 0.6697361871577898 0.06495770681493777
      vertex 0.20159283225485314 0.5711796913887506 0.3449477516133449
      vertex 0.20159283225485314 0.5711796913887506 0.06495770681493777
    endloop
  endfacet
  facet normal -0.0 -1.0 -0.0
    outer loop
      vertex 0.26879044300647087 0.6697361871577898 0.3449477516133449
      vertex 0.20159283225485314 0.6697361871577898 0.3449477516133449
      vertex 0.26879044300647087 0.6697361871577898 0.06495770681493777
    endloop
  endfacet
  facet normal 0.0 -1.0 0.0
    outer loop
      vertex 0.26879044300647087 0.6697361871577898 0.06495770681493777
      vertex 0.20159283225485314 0.6697361871577898 0.3449477516133449
      vertex 0.20159283225485314 0.6697361871577898 0.06495770681493777
    endloop
  endfacet
  facet normal -1.0 0.0 0.0
    outer loop
      vertex 0.26879044300647087 0.5711796913887506 0.3449477516133449
      vertex 0.26879044300647087 0.6697361871577898 0.3449477516133449
      vertex 0.26879044300647087 0.5711796913887506 0.06495770681493777
    endloop
  endfacet
  facet normal -1.0 0.0 0.0
    outer loop
      vertex 0.26879044300647087 0.5711796913887506 0.06495770681493777
      vertex 0.26879044300647087 0.6697361871577898 0.3449477516133449
      vertex 0.26879044300647087 0.6697361871577898 0.06495770681493777
    endloop
  endfacet
  facet normal -0.0 -1.0 -0.0
    outer loop
      vertex 0.35838725734196114 0.5711796913887506 0.3449477516133449
      vertex 0.26879044300647087 0.5711796913887506 0.3449477516133449
      vertex 0.35838725734196114 0.5711796913887506 0.06495770681493777
    endloop
  endfacet
  facet normal 0.0 -1.0 0.0
    outer loop
      vertex 0.35838725734196114 0.5711796913887506 0.06495770681493777
      vertex 0.26879044300647087 0.5711796913887506 0.3449477516133449
      vertex 0.26879044300647087 0.5711796913887506 0.06495770681493777
    endloop
  endfacet
  facet normal 1.0 0.0 0.0
    outer loop
      vertex 0.35838725734196114 0.6697361871577898 0.3449477516133449
      vertex 0.35838725734196114 0.5711796913887506 0.3449477516133449
      vertex 0.35838725734196114 0.6697361871577898 0.06495770681493777
    endloop
  endfacet
  facet normal 1.0 0.0 0.0
    outer loop
      vertex 0.35838725734196114 0.6697361871577898 0.06495770681493777
      vertex 0.35838725734196114 0.5711796913887506 0.3449477516133449
      vertex 0.35838725734196114 0.5711796913887506 0.06495770681493777
    endloop
  endfacet
  facet normal -0.0 -1.0 -0.0
    outer loop
      vertex 3.9422598307615724 0.6697361871577898 0.3449477516133449
      vertex 0.35838725734196114 0.6697361871577898 0.3449477516133449
      vertex 3.9422598307615724 0.6697361871577898 0.06495770681493777
    endloop
  endfacet
  facet normal 0.0 -1.0 0.0
    outer loop
      vertex 3.9422598307615724 0.6697361871577898 0.06495770681493777
      vertex 0.35838725734196114 0.6697361871577898 0.3449477516133449
      vertex 0.35838725734196114 0.6697361871577898 0.06495770681493777
    endloop
  endfacet
  facet normal -0.0 -1.0 -0.0
    outer loop
      vertex 7.6112493777999 0.6697361871577898 0.3449477516133449
      vertex 4.166251418616226 0.6697361871577898 0.3449477516133449
      vertex 7.6112493777999 0.6697361871577898 0.06495770681493777
    endloop
  endfacet
  facet normal 0.0 -1.0 0.0
    outer loop
      vertex 7.6112493777999 0.6697361871577898 0.06495770681493777
      vertex 4.166251418616226 0.6697361871577898 0.3449477516133449
      vertex 4.166251418616226 0.6697361871577898 0.06495770681493777
    endloop
  endfacet
  facet normal 0.0 1.7881373563218108e-07 -0.999999999999984
    outer loop
      vertex 0.0 0.7794922847187654 1.3938392732702836e-07
      vertex 9.0 0.7794922847187654 1.3938392732702836e-07
      vertex 0.0 0.0 0.0
    endloop
  endfacet
  facet normal -8.900639043901711e-15 1.7881383839875487e-07 -0.999999999999984
    outer loop
      vertex 0.0 0.0 0.0
      vertex 9.0 0.7794922847187654 1.3938392732702836e-07
      vertex 9.0 4.479840716604918e-07 0.0
    endloop
  endfacet
  facet normal 0.0 -0.0 1.0
    outer loop
      vertex 7.6112493777999 0.5711796913887506 0.06495770681493777
      vertex 7.6112493777999 0.6697361871577898 0.06495770681493777
      vertex 4.166251418616226 0.6697361871577898 0.06495770681493777
    endloop
  endfacet
  facet normal -0.0 0.0 1.0
    outer loop
      vertex 8.865604778496763 0.5711796913887506 0.06495770681493777
      vertex 7.768043802887008 0.2083125933300149 0.06495770681493777
      vertex 9.0 0.5711796913887506 0.06495770681493777
    endloop
  endfacet
  facet normal 0.0 0.0 1.0
    outer loop
      vertex 9.0 0.5711796913887506 0.06495770681493777
      vertex 7.768043802887008 0.2083125933300149 0.06495770681493777
      vertex 8.798407167745147 0.20831304131408654 0.06495770681493777
    endloop
  endfacet
  facet normal 0.0 -0.0 1.0
    outer loop
      vertex 9.0 0.20831304131408654 0.06495770681493777
      vertex 9.0 0.5711796913887506 0.06495770681493777
      vertex 8.865604778496763 0.20831304131408654 0.06495770681493777
    endloop
  endfacet
  facet normal 0.0 -0.0 1.0
    outer loop
      vertex 8.865604778496763 0.20831304131408654 0.06495770681493777
      vertex 9.0 0.5711796913887506 0.06495770681493777
      vertex 8.798407167745147 0.20831304131408654 0.06495770681493777
    endloop
  endfacet
  facet normal 0.0 0.0 1.0
    outer loop
      vertex 8.865604778496763 0.20831304131408654 0.06495770681493777
      vertex 8.798407167745147 0.20831304131408654 0.06495770681493777
      vertex 8.865604778496763 0.10975654554504723 0.06495770681493777
    endloop
  endfacet
  facet normal 0.0 0.0 1.0
    outer loop
      vertex 8.865604778496763 0.10975654554504723 0.06495770681493777
      vertex 8.798407167745147 0.20831304131408654 0.06495770681493777
      vertex 8.798407167745147 0.10975654554504723 0.06495770681493777
    endloop
  endfacet
  facet normal -0.0 0.0 1.0
    outer loop
      vertex 7.768043802887008 0.5711796913887506 0.06495770681493777
      vertex 7.6112493777999 0.2083125933300149 0.06495770681493777
      vertex 8.798407167745147 0.5711796913887506 0.06495770681493777
    endloop
  endfacet
  facet normal 0.0 0.0 1.0
    outer loop
      vertex 8.798407167745147 0.5711796913887506 0.06495770681493777
      vertex 7.6112493777999 0.2083125933300149 0.06495770681493777
      vertex 7.700846192135391 0.2083125933300149 0.06495770681493777
    endloop
  endfacet
  facet normal 0.0 0.0 1.0
    outer loop
      vertex 8.865604778496763 0.6697361871577898 0.06495770681493777
      vertex 8.798407167745147 0.6697361871577898 0.06495770681493777
      vertex 8.865604778496763 0.5711796913887506 0.06495770681493777
    endloop
  endfacet
  facet normal 0.0 0.0 1.0
    outer loop
      vertex 8.865604778496763 0.5711796913887506 0.06495770681493777
      vertex 8.798407167745147 0.6697361871577898 0.06495770681493777
      vertex 8.798407167745147 0.5711796913887506 0.06495770681493777
    endloop
  endfacet
  facet normal 0.0 0.0 1.0
    outer loop
      vertex 8.865604778496763 0.5711796913887506 0.06495770681493777
      vertex 8.798407167745147 0.5711796913887506 0.06495770681493777
      vertex 7.768043802887008 0.2083125933300149 0.06495770681493777
    endloop
  endfacet
  facet normal 0.0 -0.0 1.0
    outer loop
      vertex 7.768043802887008 0.2083125933300149 0.06495770681493777
      vertex 8.798407167745147 0.5711796913887506 0.06495770681493777
      vertex 7.700846192135391 0.2083125933300149 0.06495770681493777
    endloop
  endfacet
  facet normal 0.0 0.0 1.0
    outer loop
      vertex 7.768043802887008 0.2083125933300149 0.06495770681493777
      vertex 7.700846192135391 0.2083125933300149 0.06495770681493777
      vertex 7.768043802887008 0.10975609756097557 0.06495770681493777
    endloop
  endfacet
  facet normal 0.0 0.0 1.0
    outer loop
      vertex 7.768043802887008 0.10975609756097557 0.06495770681493777
      vertex 7.700846192135391 0.2083125933300149 0.06495770681493777
      vertex 7.700846192135391 0.10975609756097557 0.06495770681493777
    endloop
  endfacet
  facet normal 0.0 0.0 1.0
    outer loop
      vertex 4.166251866600298 0.10975609756097557 0.06495770681493777
      vertex 7.6112493777999 0.10975609756097557 0.06495770681493777
      vertex 7.6112493777999 0.2083125933300149 0.06495770681493777
    endloop
  endfacet
  facet normal 0.0 0.0 1.0
    outer loop
      vertex 7.768043802887008 0.6697361871577898 0.06495770681493777
      vertex 7.700846192135391 0.6697361871577898 0.06495770681493777
      vertex 7.768043802887008 0.5711796913887506 0.06495770681493777
    endloop
  endfacet
  facet normal 0.0 0.0 1.0
    outer loop
      vertex 7.768043802887008 0.5711796913887506 0.06495770681493777
      vertex 7.700846192135391 0.6697361871577898 0.06495770681493777
      vertex 7.700846192135391 0.5711796913887506 0.06495770681493777
    endloop
  endfacet
  facet normal 0.0 0.0 1.0
    outer loop
      vertex 7.768043802887008 0.5711796913887506 0.06495770681493777
      vertex 7.700846192135391 0.5711796913887506 0.06495770681493777
      vertex 7.6112493777999 0.2083125933300149 0.06495770681493777
    endloop
  endfacet
  facet normal 0.0 0.0 1.0
    outer loop
      vertex 7.6112493777999 0.2083125933300149 0.06495770681493777
      vertex 7.700846192135391 0.5711796913887506 0.06495770681493777
      vertex 7.6112493777999 0.5711796913887506 0.06495770681493777
    endloop
  endfacet
  facet normal 0.0 -0.0 1.0
    outer loop
      vertex 7.6112493777999 0.2083125933300149 0.06495770681493777
      vertex 7.6112493777999 0.5711796913887506 0.06495770681493777
      vertex 4.166251866600298 0.10975609756097557 0.06495770681493777
    endloop
  endfacet
  facet normal 0.0 -0.0 1.0
    outer loop
      vertex 4.166251866600298 0.10975609756097557 0.06495770681493777
      vertex 7.6112493777999 0.5711796913887506 0.06495770681493777
      vertex 4.166251418616226 0.6697361871577898 0.06495770681493777
    endloop
  endfacet
  facet normal 0.0 0.0 1.0
    outer loop
      vertex 3.9422598307615724 0.6697361871577898 0.06495770681493777
      vertex 0.35838725734196114 0.6697361871577898 0.06495770681493777
      vertex 3.9422598307615724 0.10975609756097557 0.06495770681493777
    endloop
  endfacet
  facet normal 0.0 0.0 1.0
    outer loop
      vertex 3.9422598307615724 0.10975609756097557 0.06495770681493777
      vertex 0.35838725734196114 0.6697361871577898 0.06495770681493777
      vertex 0.35838725734196114 0.5711796913887506 0.06495770681493777
    endloop
  endfacet
  facet normal 0.0 0.0 1.0
    outer loop
      vertex 0.04479840716774514 0.10975609756097557 0.06495770681493777
      vertex 0.11199601791936285 0.10975609756097557 0.06495770681493777
      vertex 0.11199601791936285 0.2083125933300149 0.06495770681493777
    endloop
  endfacet
  facet normal 0.0 -0.0 1.0
    outer loop
      vertex 0.20159283225485314 0.2083125933300149 0.06495770681493777
      vertex 0.35838725734196114 0.5711796913887506 0.06495770681493777
      vertex 0.11199601791936285 0.2083125933300149 0.06495770681493777
    endloop
  endfacet
  facet normal 0.0 0.0 1.0
    outer loop
      vertex 0.11199601791936285 0.2083125933300149 0.06495770681493777
      vertex 0.35838725734196114 0.5711796913887506 0.06495770681493777
      vertex 0.26879044300647087 0.5711796913887506 0.06495770681493777
    endloop
  endfacet
  facet normal 0.0 -0.0 1.0
    outer loop
      vertex 0.11199601791936285 0.2083125933300149 0.06495770681493777
      vertex 0.26879044300647087 0.5711796913887506 0.06495770681493777
      vertex 0.04479840716774514 0.10975609756097557 0.06495770681493777
    endloop
  endfacet
  facet normal 0.0 0.0 1.0
    outer loop
      vertex 0.11199601791936285 0.6697361871577898 0.06495770681493777
      vertex 0.04479840716774514 0.6697361871577898 0.06495770681493777
      vertex 0.11199601791936285 0.5711796913887506 0.06495770681493777
    endloop
  endfacet
  facet normal 0.0 0.0 1.0
    outer loop
      vertex 0.11199601791936285 0.5711796913887506 0.06495770681493777
      vertex 0.04479840716774514 0.6697361871577898 0.06495770681493777
      vertex 0.04479840716774514 0.10975609756097557 0.06495770681493777
    endloop
  endfacet
  facet normal -0.0 0.0 1.0
    outer loop
      vertex 0.11199601791936285 0.5711796913887506 0.06495770681493777
      vertex 0.04479840716774514 0.10975609756097557 0.06495770681493777
      vertex 0.20159283225485314 0.5711796913887506 0.06495770681493777
    endloop
  endfacet
  facet normal -0.0 0.0 1.0
    outer loop
      vertex 0.20159283225485314 0.5711796913887506 0.06495770681493777
      vertex 0.04479840716774514 0.10975609756097557 0.06495770681493777
      vertex 0.26879044300647087 0.5711796913887506 0.06495770681493777
    endloop
  endfacet
  facet normal 0.0 0.0 1.0
    outer loop
      vertex 0.20159283225485314 0.5711796913887506 0.06495770681493777
      vertex 0.26879044300647087 0.5711796913887506 0.06495770681493777
      vertex 0.20159283225485314 0.6697361871577898 0.06495770681493777
    endloop
  endfacet
  facet normal -0.0 0.0 1.0
    outer loop
      vertex 0.20159283225485314 0.6697361871577898 0.06495770681493777
      vertex 0.26879044300647087 0.5711796913887506 0.06495770681493777
      vertex 0.26879044300647087 0.6697361871577898 0.06495770681493777
    endloop
  endfacet
  facet normal 0.0 0.0 1.0
    outer loop
      vertex 0.35838725734196114 0.10975609756097557 0.06495770681493777
      vertex 3.9422598307615724 0.10975609756097557 0.06495770681493777
      vertex 0.35838725734196114 0.2083125933300149 0.06495770681493777
    endloop
  endfacet
  facet normal -0.0 0.0 1.0
    outer loop
      vertex 0.35838725734196114 0.2083125933300149 0.06495770681493777
      vertex 3.9422598307615724 0.10975609756097557 0.06495770681493777
      vertex 0.35838725734196114 0.5711796913887506 0.06495770681493777
    endloop
  endfacet
  facet normal 0.0 -0.0 1.0
    outer loop
      vertex 0.35838725734196114 0.2083125933300149 0.06495770681493777
      vertex 0.35838725734196114 0.5711796913887506 0.06495770681493777
      vertex 0.26879044300647087 0.2083125933300149 0.06495770681493777
    endloop
  endfacet
  facet normal 0.0 -0.0 1.0
    outer loop
      vertex 0.26879044300647087 0.2083125933300149 0.06495770681493777
      vertex 0.35838725734196114 0.5711796913887506 0.06495770681493777
      vertex 0.20159283225485314 0.2083125933300149 0.06495770681493777
    endloop
  endfacet
  facet normal 0.0 0.0 1.0
    outer loop
      vertex 0.26879044300647087 0.2083125933300149 0.06495770681493777
      vertex 0.20159283225485314 0.2083125933300149 0.06495770681493777
      vertex 0.26879044300647087 0.10975609756097557 0.06495770681493777
    endloop
  endfacet
  facet normal 0.0 0.0 1.0
    outer loop
      vertex 0.26879044300647087 0.10975609756097557 0.06495770681493777
      vertex 0.20159283225485314 0.2083125933300149 0.06495770681493777
      vertex 0.20159283225485314 0.10975609756097557 0.06495770681493777
    endloop
  endfacet
  facet normal 0.0 -0.9965837365262145 0.08258847432571194
    outer loop
      vertex 0.04479840716774514 0.44574415131906414 0.3449477516133449
      vertex 0.0 0.44574415131906414 0.3449477516133449
      vertex 0.0 0.4449803384768541 0.335730927322653
    endloop
  endfacet
  facet normal 0.0 -0.9965837365262145 0.08258847432571194
    outer loop
      vertex 0.04479840716774514 0.44574415131906414 0.3449477516133449
      vertex 0.0 0.4449803384768541 0.335730927322653
      vertex 0.04479840716774514 0.4449803384768541 0.335730927322653
    endloop
  endfacet
  facet normal 0.0 -0.9694000341410416 0.24548640248972556
    outer loop
      vertex 0.04479840716774514 0.4449803384768541 0.335730927322653
      vertex 0.0 0.4449803384768541 0.335730927322653
      vertex 0.0 0.44270995520159273 0.3267654220961722
    endloop
  endfacet
  facet normal 0.0 -0.9694000341410416 0.24548640248972556
    outer loop
      vertex 0.04479840716774514 0.4449803384768541 0.335730927322653
      vertex 0.0 0.44270995520159273 0.3267654220961722
      vertex 0.04479840716774514 0.44270995520159273 0.3267654220961722
    endloop
  endfacet
  facet normal 0.0 -0.9157722662342643 0.40169784216019844
    outer loop
      vertex 0.04479840716774514 0.44270995520159273 0.3267654220961722
      vertex 0.0 0.44270995520159273 0.3267654220961722
      vertex 0.0 0.43899482329517164 0.3182958352370383
    endloop
  endfacet
  facet normal 0.0 -0.9157722662342643 0.40169784216019844
    outer loop
      vertex 0.04479840716774514 0.44270995520159273 0.3267654220961722
      vertex 0.0 0.43899482329517164 0.3182958352370383
      vertex 0.04479840716774514 0.43899482329517164 0.3182958352370383
    endloop
  endfacet
  facet normal 0.0 -0.8371775847808685 0.5469311579536055
    outer loop
      vertex 0.04479840716774514 0.43899482329517164 0.3182958352370383
      vertex 0.0 0.43899482329517164 0.3182958352370383
      vertex 0.0 0.4339363215530114 0.31055287854216523
    endloop
  endfacet
  facet normal 0.0 -0.8371775847808685 0.5469311579536055
    outer loop
      vertex 0.04479840716774514 0.43899482329517164 0.3182958352370383
      vertex 0.0 0.4339363215530114 0.31055287854216523
      vertex 0.04479840716774514 0.4339363215530114 0.31055287854216523
    endloop
  endfacet
  facet normal 0.0 -0.7357277606514666 0.6772773894105564
    outer loop
      vertex 0.04479840716774514 0.4339363215530114 0.31055287854216523
      vertex 0.0 0.4339363215530114 0.31055287854216523
      vertex 0.0 0.42767247386759577 0.3037484484774564
    endloop
  endfacet
  facet normal 0.0 -0.7357277606514666 0.6772773894105564
    outer loop
      vertex 0.04479840716774514 0.4339363215530114 0.31055287854216523
      vertex 0.0 0.42767247386759577 0.3037484484774564
      vertex 0.04479840716774514 0.42767247386759577 0.3037484484774564
    endloop
  endfacet
  facet normal 0.0 -0.6142048317611936 0.7891466433060484
    outer loop
      vertex 0.04479840716774514 0.42767247386759577 0.3037484484774564
      vertex 0.0 0.42767247386759577 0.3037484484774564
      vertex 0.0 0.4203740965654554 0.29806801044858633
    endloop
  endfacet
  facet normal 0.0 -0.6142048317611936 0.7891466433060484
    outer loop
      vertex 0.04479840716774514 0.42767247386759577 0.3037484484774564
      vertex 0.0 0.4203740965654554 0.29806801044858633
      vertex 0.04479840716774514 0.4203740965654554 0.29806801044858633
    endloop
  endfacet
  facet normal 0.0 -0.4759526176207569 0.8794709237831285
    outer loop
      vertex 0.04479840716774514 0.4203740965654554 0.29806801044858633
      vertex 0.0 0.4203740965654554 0.29806801044858633
      vertex 0.0 0.4122402289696365 0.29366611896028366
    endloop
  endfacet
  facet normal 0.0 -0.4759526176207569 0.8794709237831285
    outer loop
      vertex 0.04479840716774514 0.4203740965654554 0.29806801044858633
      vertex 0.0 0.4122402289696365 0.29366611896028366
      vertex 0.04479840716774514 0.4122402289696365 0.29366611896028366
    endloop
  endfacet
  facet normal 0.0 -0.32468268869902855 0.9458230022891014
    outer loop
      vertex 0.04479840716774514 0.4122402289696365 0.29366611896028366
      vertex 0.0 0.4122402289696365 0.29366611896028366
      vertex 0.0 0.4034927575908412 0.29066328172782974
    endloop
  endfacet
  facet normal 0.0 -0.32468268869902855 0.9458230022891014
    outer loop
      vertex 0.04479840716774514 0.4122402289696365 0.29366611896028366
      vertex 0.0 0.4034927575908412 0.29066328172782974
      vertex 0.04479840716774514 0.4034927575908412 0.29066328172782974
    endloop
  endfacet
  facet normal 0.0 -0.16459378513685227 0.9863614377571357
    outer loop
      vertex 0.04479840716774514 0.4034927575908412 0.29066328172782974
      vertex 0.0 0.4034927575908412 0.29066328172782974
      vertex 0.0 0.39437036834245887 0.28914103185226975
    endloop
  endfacet
  facet normal 0.0 -0.16459378513685227 0.9863614377571357
    outer loop
      vertex 0.04479840716774514 0.4034927575908412 0.29066328172782974
      vertex 0.0 0.39437036834245887 0.28914103185226975
      vertex 0.04479840716774514 0.39437036834245887 0.28914103185226975
    endloop
  endfacet
  facet normal 0.0 0.0 1.0
    outer loop
      vertex 0.04479840716774514 0.39437036834245887 0.28914103185226975
      vertex 0.0 0.39437036834245887 0.28914103185226975
      vertex 0.0 0.3851217819810851 0.28914103185226975
    endloop
  endfacet
  facet normal 0.0 0.0 1.0
    outer loop
      vertex 0.04479840716774514 0.39437036834245887 0.28914103185226975
      vertex 0.0 0.3851217819810851 0.28914103185226975
      vertex 0.04479840716774514 0.3851217819810851 0.28914103185226975
    endloop
  endfacet
  facet normal 0.0 0.16459378513685227 0.9863614377571357
    outer loop
      vertex 0.04479840716774514 0.3851217819810851 0.28914103185226975
      vertex 0.0 0.3851217819810851 0.28914103185226975
      vertex 0.0 0.3759993927327028 0.29066328172782974
    endloop
  endfacet
  facet normal 0.0 0.16459378513685227 0.9863614377571357
    outer loop
      vertex 0.04479840716774514 0.3851217819810851 0.28914103185226975
      vertex 0.0 0.3759993927327028 0.29066328172782974
      vertex 0.04479840716774514 0.3759993927327028 0.29066328172782974
    endloop
  endfacet
  facet normal 0.0 0.32468417621210277 0.9458224916534118
    outer loop
      vertex 0.04479840716774514 0.3759993927327028 0.29066328172782974
      vertex 0.0 0.3759993927327028 0.29066328172782974
      vertex 0.0 0.36725196615231454 0.29366611896028366
    endloop
  endfacet
  facet normal 0.0 0.32468417621210277 0.9458224916534118
    outer loop
      vertex 0.04479840716774514 0.3759993927327028 0.29066328172782974
      vertex 0.0 0.36725196615231454 0.29366611896028366
      vertex 0.04479840716774514 0.36725196615231454 0.29366611896028366
    endloop
  endfacet
  facet normal 0.0 0.47595261762075947 0.8794709237831273
    outer loop
      vertex 0.04479840716774514 0.36725196615231454 0.29366611896028366
      vertex 0.0 0.36725196615231454 0.29366611896028366
      vertex 0.0 0.35911809855649574 0.29806801044858633
    endloop
  endfacet
  facet normal 0.0 0.47595261762075947 0.8794709237831273
    outer loop
      vertex 0.04479840716774514 0.36725196615231454 0.29366611896028366
      vertex 0.0 0.35911809855649574 0.29806801044858633
      vertex 0.04479840716774514 0.35911809855649574 0.29806801044858633
    endloop
  endfacet
  facet normal 0.0 0.6142001361449277 0.7891502979531543
    outer loop
      vertex 0.04479840716774514 0.35911809855649574 0.29806801044858633
      vertex 0.0 0.35911809855649574 0.29806801044858633
      vertex 0.0 0.351819631657541 0.3037484484774564
    endloop
  endfacet
  facet normal 0.0 0.6142001361449277 0.7891502979531543
    outer loop
      vertex 0.04479840716774514 0.35911809855649574 0.29806801044858633
      vertex 0.0 0.351819631657541 0.3037484484774564
      vertex 0.04479840716774514 0.351819631657541 0.3037484484774564
    endloop
  endfacet
  facet normal 0.0 0.7357277606514666 0.6772773894105564
    outer loop
      vertex 0.04479840716774514 0.351819631657541 0.3037484484774564
      vertex 0.0 0.351819631657541 0.3037484484774564
      vertex 0.0 0.3455557839721254 0.31055287854216523
    endloop
  endfacet
  facet normal 0.0 0.7357277606514666 0.6772773894105564
    outer loop
      vertex 0.04479840716774514 0.351819631657541 0.3037484484774564
      vertex 0.0 0.3455557839721254 0.31055287854216523
      vertex 0.04479840716774514 0.3455557839721254 0.31055287854216523
    endloop
  endfacet
  facet normal 0.0 0.8371864559894989 0.5469175787152418
    outer loop
      vertex 0.04479840716774514 0.3455557839721254 0.31055287854216523
      vertex 0.0 0.3455557839721254 0.31055287854216523
      vertex 0.0 0.3404974614235938 0.3182958352370383
    endloop
  endfacet
  facet normal 0.0 0.8371864559894989 0.5469175787152418
    outer loop
      vertex 0.04479840716774514 0.3455557839721254 0.31055287854216523
      vertex 0.0 0.3404974614235938 0.3182958352370383
      vertex 0.04479840716774514 0.3404974614235938 0.3182958352370383
    endloop
  endfacet
  facet normal 0.0 0.9157722662342643 0.40169784216019844
    outer loop
      vertex 0.04479840716774514 0.3404974614235938 0.3182958352370383
      vertex 0.0 0.3404974614235938 0.3182958352370383
      vertex 0.0 0.3367823295171727 0.3267654220961722
    endloop
  endfacet
  facet normal 0.0 0.9157722662342643 0.40169784216019844
    outer loop
      vertex 0.04479840716774514 0.3404974614235938 0.3182958352370383
      vertex 0.0 0.3367823295171727 0.3267654220961722
      vertex 0.04479840716774514 0.3367823295171727 0.3267654220961722
    endloop
  endfacet
  facet normal 0.0 0.9694000341410416 0.24548640248972556
    outer loop
      vertex 0.04479840716774514 0.3367823295171727 0.3267654220961722
      vertex 0.0 0.3367823295171727 0.3267654220961722
      vertex 0.0 0.33451194624191133 0.335730927322653
    endloop
  endfacet
  facet normal 0.0 0.9694000341410416 0.24548640248972556
    outer loop
      vertex 0.04479840716774514 0.3367823295171727 0.3267654220961722
      vertex 0.0 0.33451194624191133 0.335730927322653
      vertex 0.04479840716774514 0.33451194624191133 0.335730927322653
    endloop
  endfacet
  facet normal 0.0 0.9965837365262145 0.08258847432571194
    outer loop
      vertex 0.04479840716774514 0.33451194624191133 0.335730927322653
      vertex 0.0 0.33451194624191133 0.335730927322653
      vertex 0.0 0.3337481333997013 0.3449477516133449
    endloop
  endfacet
  facet normal 0.0 0.9965837365262145 0.08258847432571194
    outer loop
      vertex 0.04479840716774514 0.33451194624191133 0.335730927322653
      vertex 0.0 0.3337481333997013 0.3449477516133449
      vertex 0.04479840716774514 0.3337481333997013 0.3449477516133449
    endloop
  endfacet
  facet normal 0.0 -0.9961945425335835 0.08715752076730968
    outer loop
      vertex 4.166251418616226 0.5689397710303633 0.3449477516133449
      vertex 3.9422598307615724 0.5689397710303633 0.3449477516133449
      vertex 3.9422598307615724 0.5662173718267794 0.31383122597870083
    endloop
  endfacet
  facet normal 0.0 -0.9961945425335835 0.08715752076730968
    outer loop
      vertex 4.166251418616226 0.5689397710303633 0.3449477516133449
      vertex 3.9422598307615724 0.5662173718267794 0.31383122597870083
      vertex 4.166251418616226 0.5662173718267794 0.31383122597870083
    endloop
  endfacet
  facet normal 0.0 -0.965926221273172 0.25881757099727837
    outer loop
      vertex 4.166251418616226 0.5662173718267794 0.31383122597870083
      vertex 3.9422598307615724 0.5662173718267794 0.31383122597870083
      vertex 3.9422598307615724 0.5581330512692881 0.28365994673529615
    endloop
  endfacet
  facet normal 0.0 -0.965926221273172 0.25881757099727837
    outer loop
      vertex 4.166251418616226 0.5662173718267794 0.31383122597870083
      vertex 3.9422598307615724 0.5581330512692881 0.28365994673529615
      vertex 4.166251418616226 0.5581330512692881 0.28365994673529615
    endloop
  endfacet
  facet normal 0.0 -0.9063073120487023 0.4226192803541457
    outer loop
      vertex 4.166251418616226 0.5581330512692881 0.28365994673529615
      vertex 3.9422598307615724 0.5581330512692881 0.28365994673529615
      vertex 3.9422598307615724 0.5449323046291686 0.25535093727785463
    endloop
  endfacet
  facet normal 0.0 -0.9063073120487023 0.4226192803541457
    outer loop
      vertex 4.166251418616226 0.5581330512692881 0.28365994673529615
      vertex 3.9422598307615724 0.5449323046291686 0.25535093727785463
      vertex 4.166251418616226 0.5449323046291686 0.25535093727785463
    endloop
  endfacet
  facet normal 0.0 -0.8191544266888064 0.5735730339164601
    outer loop
      vertex 4.166251418616226 0.5449323046291686 0.25535093727785463
      vertex 3.9422598307615724 0.5449323046291686 0.25535093727785463
      vertex 3.9422598307615724 0.5270165256346441 0.229764327023997
    endloop
  endfacet
  facet normal 0.0 -0.8191544266888064 0.5735730339164601
    outer loop
      vertex 4.166251418616226 0.5449323046291686 0.25535093727785463
      vertex 3.9422598307615724 0.5270165256346441 0.229764327023997
      vertex 4.166251418616226 0.5270165256346441 0.229764327023997
    endloop
  endfacet
  facet normal 0.0 -0.7071067811865461 0.7071067811865489
    outer loop
      vertex 4.166251418616226 0.5270165256346441 0.229764327023997
      vertex 3.9422598307615724 0.5270165256346441 0.229764327023997
      vertex 3.9422598307615724 0.5049295669487306 0.2076773683380836
    endloop
  endfacet
  facet normal 0.0 -0.7071067811865461 0.7071067811865489
    outer loop
      vertex 4.166251418616226 0.5270165256346441 0.229764327023997
      vertex 3.9422598307615724 0.5049295669487306 0.2076773683380836
      vertex 4.166251418616226 0.5049295669487306 0.2076773683380836
    endloop
  endfacet
  facet normal 0.0 -0.5735730339164617 0.8191544266888053
    outer loop
      vertex 4.166251418616226 0.5049295669487306 0.2076773683380836
      vertex 3.9422598307615724 0.5049295669487306 0.2076773683380836
      vertex 3.9422598307615724 0.479342956694873 0.18976158934355897
    endloop
  endfacet
  facet normal 0.0 -0.5735730339164617 0.8191544266888053
    outer loop
      vertex 4.166251418616226 0.5049295669487306 0.2076773683380836
      vertex 3.9422598307615724 0.479342956694873 0.18976158934355897
      vertex 4.166251418616226 0.479342956694873 0.18976158934355897
    endloop
  endfacet
  facet normal 0.0 -0.422619280354145 0.9063073120487027
    outer loop
      vertex 4.166251418616226 0.479342956694873 0.18976158934355897
      vertex 3.9422598307615724 0.479342956694873 0.18976158934355897
      vertex 3.9422598307615724 0.45103394723743145 0.1765608427034395
    endloop
  endfacet
  facet normal 0.0 -0.422619280354145 0.9063073120487027
    outer loop
      vertex 4.166251418616226 0.479342956694873 0.18976158934355897
      vertex 3.9422598307615724 0.45103394723743145 0.1765608427034395
      vertex 4.166251418616226 0.45103394723743145 0.1765608427034395
    endloop
  endfacet
  facet normal 0.0 -0.258818646653544 0.9659259330530617
    outer loop
      vertex 4.166251418616226 0.45103394723743145 0.1765608427034395
      vertex 3.9422598307615724 0.45103394723743145 0.1765608427034395
      vertex 3.9422598307615724 0.4208628023892483 0.16847652214594822
    endloop
  endfacet
  facet normal 0.0 -0.258818646653544 0.9659259330530617
    outer loop
      vertex 4.166251418616226 0.45103394723743145 0.1765608427034395
      vertex 3.9422598307615724 0.4208628023892483 0.16847652214594822
      vertex 4.166251866600298 0.4208628023892483 0.16847652214594822
    endloop
  endfacet
  facet normal 0.0 -0.08715722226512329 0.9961945686496327
    outer loop
      vertex 4.166251866600298 0.4208628023892483 0.16847652214594822
      vertex 3.9422598307615724 0.4208628023892483 0.16847652214594822
      vertex 3.9422598307615724 0.38974616936879036 0.16575412294236436
    endloop
  endfacet
  facet normal 2.211702101862775e-09 -0.08715723806504551 0.9961945672672949
    outer loop
      vertex 4.166251866600298 0.4208628023892483 0.16847652214594822
      vertex 3.9422598307615724 0.38974616936879036 0.16575412294236436
      vertex 4.166251866600298 0.38974617505281234 0.16575412294236436
    endloop
  endfacet
  facet normal -2.2117010505566008e-09 0.08715719663509174 0.996194570892008
    outer loop
      vertex 4.166251866600298 0.38974617505281234 0.16575412294236436
      vertex 3.9422598307615724 0.38974616936879036 0.16575412294236436
      vertex 3.9422598307615724 0.3586295271279243 0.16847652214594822
    endloop
  endfacet
  facet normal 0.0 0.08715718083518449 0.9961945722743439
    outer loop
      vertex 4.166251866600298 0.38974617505281234 0.16575412294236436
      vertex 3.9422598307615724 0.3586295271279243 0.16847652214594822
      vertex 4.166251866600298 0.3586295271279243 0.16847652214594822
    endloop
  endfacet
  facet normal 0.0 0.25881828810049756 0.9659260291268311
    outer loop
      vertex 4.166251866600298 0.3586295271279243 0.16847652214594822
      vertex 3.9422598307615724 0.3586295271279243 0.16847652214594822
      vertex 3.9422598307615724 0.32845833748133396 0.1765608427034395
    endloop
  endfacet
  facet normal 0.0 0.25881828810049756 0.9659260291268311
    outer loop
      vertex 4.166251866600298 0.3586295271279243 0.16847652214594822
      vertex 3.9422598307615724 0.32845833748133396 0.1765608427034395
      vertex 4.166251866600298 0.32845833748133396 0.1765608427034395
    endloop
  endfacet
  facet normal 0.0 0.4226192803541449 0.9063073120487027
    outer loop
      vertex 4.166251866600298 0.32845833748133396 0.1765608427034395
      vertex 3.9422598307615724 0.32845833748133396 0.1765608427034395
      vertex 3.9422598307615724 0.30014932802389244 0.18976158934355897
    endloop
  endfacet
  facet normal 0.0 0.4226192803541449 0.9063073120487027
    outer loop
      vertex 4.166251866600298 0.32845833748133396 0.1765608427034395
      vertex 3.9422598307615724 0.30014932802389244 0.18976158934355897
      vertex 4.166251866600298 0.30014932802389244 0.18976158934355897
    endloop
  endfacet
  facet normal 0.0 0.5735730339164617 0.8191544266888053
    outer loop
      vertex 4.166251866600298 0.30014932802389244 0.18976158934355897
      vertex 3.9422598307615724 0.30014932802389244 0.18976158934355897
      vertex 3.9422598307615724 0.2745627177700348 0.2076773683380836
    endloop
  endfacet
  facet normal 0.0 0.5735730339164617 0.8191544266888053
    outer loop
      vertex 4.166251866600298 0.30014932802389244 0.18976158934355897
      vertex 3.9422598307615724 0.2745627177700348 0.2076773683380836
      vertex 4.166251866600298 0.2745627177700348 0.2076773683380836
    endloop
  endfacet
  facet normal 0.0 0.7071067811865471 0.707106781186548
    outer loop
      vertex 4.166251866600298 0.2745627177700348 0.2076773683380836
      vertex 3.9422598307615724 0.2745627177700348 0.2076773683380836
      vertex 3.9422598307615724 0.2524757590841214 0.229764327023997
    endloop
  endfacet
  facet normal 0.0 0.7071067811865471 0.707106781186548
    outer loop
      vertex 4.166251866600298 0.2745627177700348 0.2076773683380836
      vertex 3.9422598307615724 0.2524757590841214 0.229764327023997
      vertex 4.166251866600298 0.2524757590841214 0.229764327023997
    endloop
  endfacet
  facet normal 0.0 0.8191544266888052 0.573573033916462
    outer loop
      vertex 4.166251866600298 0.2524757590841214 0.229764327023997
      vertex 3.9422598307615724 0.2524757590841214 0.229764327023997
      vertex 3.9422598307615724 0.23455998008959675 0.25535093727785463
    endloop
  endfacet
  facet normal 0.0 0.8191544266888052 0.573573033916462
    outer loop
      vertex 4.166251866600298 0.2524757590841214 0.229764327023997
      vertex 3.9422598307615724 0.23455998008959675 0.25535093727785463
      vertex 4.166251866600298 0.23455998008959675 0.25535093727785463
    endloop
  endfacet
  facet normal 0.0 0.9063073120487031 0.4226192803541442
    outer loop
      vertex 4.166251866600298 0.23455998008959675 0.25535093727785463
      vertex 3.9422598307615724 0.23455998008959675 0.25535093727785463
      vertex 3.9422598307615724 0.2213592334494773 0.28365994673529615
    endloop
  endfacet
  facet normal 0.0 0.9063073120487031 0.4226192803541442
    outer loop
      vertex 4.166251866600298 0.23455998008959675 0.25535093727785463
      vertex 3.9422598307615724 0.2213592334494773 0.28365994673529615
      vertex 4.166251866600298 0.2213592334494773 0.28365994673529615
    endloop
  endfacet
  facet normal 0.0 0.965926221273172 0.25881757099727837
    outer loop
      vertex 4.166251866600298 0.2213592334494773 0.28365994673529615
      vertex 3.9422598307615724 0.2213592334494773 0.28365994673529615
      vertex 3.9422598307615724 0.213274912891986 0.31383122597870083
    endloop
  endfacet
  facet normal 0.0 0.965926221273172 0.25881757099727837
    outer loop
      vertex 4.166251866600298 0.2213592334494773 0.28365994673529615
      vertex 3.9422598307615724 0.213274912891986 0.31383122597870083
      vertex 4.166251866600298 0.213274912891986 0.31383122597870083
    endloop
  endfacet
  facet normal 0.0 0.9961945425335837 0.08715752076730969
    outer loop
      vertex 4.166251866600298 0.213274912891986 0.31383122597870083
      vertex 3.9422598307615724 0.213274912891986 0.31383122597870083
      vertex 3.9422598307615724 0.21055251368840214 0.3449477516133449
    endloop
  endfacet
  facet normal 0.0 0.9961945425335837 0.08715752076730969
    outer loop
      vertex 4.166251866600298 0.213274912891986 0.31383122597870083
      vertex 3.9422598307615724 0.21055251368840214 0.3449477516133449
      vertex 4.166251866600298 0.21055251368840214 0.3449477516133449
    endloop
  endfacet
endsolid thingi10k_188497
