solid thingi10k_188496
  facet normal 0.0 0.0 1.0
    outer loop
      vertex 0.22511255627813906 0.6933466733366682 0.34667330661256623
      vertex 0.22511255627813906 0.6393196598299149 0.34667330661256623
      vertex 0.31515757878939465 0.6393196598299149 0.34667330661256623
    endloop
  endfacet
  facet normal 0.0 0.0 1.0
    outer loop
      vertex 9.0 0.7833916958479239 0.34667330661256623
      vertex 0.0 0.7833916958479239 0.34667330661256623
      vertex 3.9169584792396197 0.6933466733366682 0.34667330661256623
    endloop
  endfacet
  facet normal 0.0 0.0 1.0
    outer loop
      vertex 3.9169584792396197 0.6933466733366682 0.34667330661256623
      vertex 0.0 0.7833916958479239 0.34667330661256623
      vertex 0.31515757878939465 0.6933466733366682 0.34667330661256623
    endloop
  endfacet
  facet normal 0.0 0.0 1.0
    outer loop
      vertex 0.0 0.4479739869934967 0.34667330661256623
      vertex 0.04502251125562781 0.4479739869934967 0.34667330661256623
      vertex 0.0 0.7833916958479239 0.34667330661256623
    endloop
  endfacet
  facet normal 0.0 0.0 1.0
    outer loop
      vertex 0.0 0.7833916958479239 0.34667330661256623
      vertex 0.04502251125562781 0.4479739869934967 0.34667330661256623
      vertex 0.04502251125562781 0.6933466733366682 0.34667330661256623
    endloop
  endfacet
  facet normal 0.0 0.0 1.0
    outer loop
      vertex 0.0 0.7833916958479239 0.34667330661256623
      vertex 0.04502251125562781 0.6933466733366682 0.34667330661256623
      vertex 0.09004502251125562 0.6933466733366682 0.34667330661256623
    endloop
  endfacet
  facet normal 0.0 0.0 1.0
    outer loop
      vertex 0.09004502251125562 0.6393196598299149 0.34667330661256623
      vertex 0.18009004502251125 0.6393196598299149 0.34667330661256623
      vertex 0.09004502251125562 0.6933466733366682 0.34667330661256623
    endloop
  endfacet
  facet normal -0.0 0.0 1.0
    outer loop
      vertex 0.09004502251125562 0.6933466733366682 0.34667330661256623
      vertex 0.18009004502251125 0.6393196598299149 0.34667330661256623
      vertex 0.18009004502251125 0.6933466733366682 0.34667330661256623
    endloop
  endfacet
  facet normal 0.0 -0.0 1.0
    outer loop
      vertex 0.09004502251125562 0.6933466733366682 0.34667330661256623
      vertex 0.18009004502251125 0.6933466733366682 0.34667330661256623
      vertex 0.0 0.7833916958479239 0.34667330661256623
    endloop
  endfacet
  facet normal 0.0 0.0 1.0
    outer loop
      vertex 0.0 0.7833916958479239 0.34667330661256623
      vertex 0.18009004502251125 0.6933466733366682 0.34667330661256623
      vertex 0.22511255627813906 0.6933466733366682 0.34667330661256623
    endloop
  endfacet
  facet normal 0.0 0.0 1.0
    outer loop
      vertex 0.0 0.7833916958479239 0.34667330661256623
      vertex 0.22511255627813906 0.6933466733366682 0.34667330661256623
      vertex 0.31515757878939465 0.6933466733366682 0.34667330661256623
    endloop
  endfacet
  facet normal 0.0 0.0 1.0
    outer loop
      vertex 0.31515757878939465 0.6933466733366682 0.34667330661256623
      vertex 0.22511255627813906 0.6933466733366682 0.34667330661256623
      vertex 0.31515757878939465 0.6393196598299149 0.34667330661256623
    endloop
  endfacet
  facet normal 0.0 0.0 1.0
    outer loop
      vertex 7.649324662331165 0.6933466733366682 0.34667330661256623
      vertex 7.649324662331165 0.6393196598299149 0.34667330661256623
      vertex 7.739369684842421 0.6393196598299149 0.34667330661256623
    endloop
  endfacet
  facet normal 0.0 0.0 1.0
    outer loop
      vertex 7.739369684842421 0.6933466733366682 0.34667330661256623
      vertex 7.784392196098049 0.6933466733366682 0.34667330661256623
      vertex 9.0 0.7833916958479239 0.34667330661256623
    endloop
  endfacet
  facet normal 0.0 -0.0 1.0
    outer loop
      vertex 7.739369684842421 0.6393196598299149 0.34667330661256623
      vertex 7.739369684842421 0.6933466733366682 0.34667330661256623
      vertex 7.649324662331165 0.6933466733366682 0.34667330661256623
    endloop
  endfacet
  facet normal 0.0 0.0 1.0
    outer loop
      vertex 7.649324662331165 0.6933466733366682 0.34667330661256623
      vertex 7.739369684842421 0.6933466733366682 0.34667330661256623
      vertex 9.0 0.7833916958479239 0.34667330661256623
    endloop
  endfacet
  facet normal 0.0 -0.0 1.0
    outer loop
      vertex 7.649324662331165 0.6933466733366682 0.34667330661256623
      vertex 9.0 0.7833916958479239 0.34667330661256623
      vertex 4.142071035517759 0.6933466733366682 0.34667330661256623
    endloop
  endfacet
  facet normal 0.0 -0.0 1.0
    outer loop
      vertex 4.142071035517759 0.6933466733366682 0.34667330661256623
      vertex 9.0 0.7833916958479239 0.34667330661256623
      vertex 3.9169584792396197 0.6933466733366682 0.34667330661256623
    endloop
  endfacet
  facet normal 0.0 0.0 1.0
    outer loop
      vertex 4.142071035517759 0.6933466733366682 0.34667330661256623
      vertex 3.9169584792396197 0.6933466733366682 0.34667330661256623
      vertex 4.142071035517759 0.5717858929464732 0.34667330661256623
    endloop
  endfacet
  facet normal 0.0 0.0 1.0
    outer loop
      vertex 4.142071035517759 0.5717858929464732 0.34667330661256623
      vertex 3.9169584792396197 0.6933466733366682 0.34667330661256623
      vertex 3.9169584792396197 0.5717858929464732 0.34667330661256623
    endloop
  endfacet
  facet normal 0.0 0.0 1.0
    outer loop
      vertex 8.864932466233116 0.6393196598299149 0.34667330661256623
      vertex 9.0 0.6393196598299149 0.34667330661256623
      vertex 8.864932466233116 0.6933466733366682 0.34667330661256623
    endloop
  endfacet
  facet normal -0.0 0.0 1.0
    outer loop
      vertex 8.864932466233116 0.6933466733366682 0.34667330661256623
      vertex 9.0 0.6393196598299149 0.34667330661256623
      vertex 9.0 0.7833916958479239 0.34667330661256623
    endloop
  endfacet
  facet normal 0.0 -0.0 1.0
    outer loop
      vertex 8.864932466233116 0.6933466733366682 0.34667330661256623
      vertex 9.0 0.7833916958479239 0.34667330661256623
      vertex 8.819909954977488 0.6933466733366682 0.34667330661256623
    endloop
  endfacet
  facet normal 0.0 -0.0 1.0
    outer loop
      vertex 8.819909954977488 0.6933466733366682 0.34667330661256623
      vertex 9.0 0.7833916958479239 0.34667330661256623
      vertex 7.784392196098049 0.6933466733366682 0.34667330661256623
    endloop
  endfacet
  facet normal 0.0 0.0 1.0
    outer loop
      vertex 8.819909954977488 0.6933466733366682 0.34667330661256623
      vertex 7.784392196098049 0.6933466733366682 0.34667330661256623
      vertex 8.819909954977488 0.6393196598299149 0.34667330661256623
    endloop
  endfacet
  facet normal 0.0 0.0 1.0
    outer loop
      vertex 8.819909954977488 0.6393196598299149 0.34667330661256623
      vertex 7.784392196098049 0.6933466733366682 0.34667330661256623
      vertex 7.784392196098049 0.6393196598299149 0.34667330661256623
    endloop
  endfacet
  facet normal 1.0 0.0 0.0
    outer loop
      vertex 4.142071035517759 0.6933466733366682 0.34667330661256623
      vertex 4.142071035517759 0.5717858929464732 0.34667330661256623
      vertex 4.142071035517759 0.5690498749374687 0.31540112051951974
    endloop
  endfacet
  facet normal 1.0 0.0 0.0
    outer loop
      vertex 4.142071035517759 0.48174087043521757 0.19071082537194595
      vertex 4.142071035517759 0.45329024512256116 0.17744404198025013
      vertex 4.142071035517759 0.6933466733366682 0.04502248119985993
    endloop
  endfacet
  facet normal 1.0 0.0 0.0
    outer loop
      vertex 4.142071035517759 0.3301014507253626 0.17744404198025013
      vertex 4.142071035517759 0.3016508254127063 0.19071082537194595
      vertex 4.142071035517759 0.09004502251125558 0.04502248119985993
    endloop
  endfacet
  facet normal 1.0 0.0 0.0
    outer loop
      vertex 4.142071035517759 0.09004502251125558 0.04502248119985993
      vertex 4.142071035517759 0.3016508254127063 0.19071082537194595
      vertex 4.142071035517759 0.2759362181090545 0.20871622807329662
    endloop
  endfacet
  facet normal 1.0 0.0 0.0
    outer loop
      vertex 4.142071035517759 0.09004502251125558 0.04502248119985993
      vertex 4.142071035517759 0.2759362181090545 0.20871622807329662
      vertex 4.142071035517759 0.2537387693846923 0.2309136767976588
    endloop
  endfacet
  facet normal 1.0 0.0 0.0
    outer loop
      vertex 4.142071035517759 0.6933466733366682 0.34667330661256623
      vertex 4.142071035517759 0.5690498749374687 0.31540112051951974
      vertex 4.142071035517759 0.6933466733366682 0.04502248119985993
    endloop
  endfacet
  facet normal 1.0 0.0 0.0
    outer loop
      vertex 4.142071035517759 0.6933466733366682 0.04502248119985993
      vertex 4.142071035517759 0.5690498749374687 0.31540112051951974
      vertex 4.142071035517759 0.5609251125562781 0.28507890941396696
    endloop
  endfacet
  facet normal 1.0 0.0 0.0
    outer loop
      vertex 4.142071035517759 0.6933466733366682 0.04502248119985993
      vertex 4.142071035517759 0.5609251125562781 0.28507890941396696
      vertex 4.142071035517759 0.5476583291645822 0.2566282841013106
    endloop
  endfacet
  facet normal 1.0 0.0 0.0
    outer loop
      vertex 4.142071035517759 0.5476583291645822 0.2566282841013106
      vertex 4.142071035517759 0.5296529264632316 0.2309136767976588
      vertex 4.142071035517759 0.6933466733366682 0.04502248119985993
    endloop
  endfacet
  facet normal 1.0 0.0 0.0
    outer loop
      vertex 4.142071035517759 0.6933466733366682 0.04502248119985993
      vertex 4.142071035517759 0.5296529264632316 0.2309136767976588
      vertex 4.142071035517759 0.5074554777388693 0.20871622807329662
    endloop
  endfacet
  facet normal 1.0 0.0 0.0
    outer loop
      vertex 4.142071035517759 0.6933466733366682 0.04502248119985993
      vertex 4.142071035517759 0.5074554777388693 0.20871622807329662
      vertex 4.142071035517759 0.48174087043521757 0.19071082537194595
    endloop
  endfacet
  facet normal 1.0 0.0 0.0
    outer loop
      vertex 4.142071035517759 0.45329024512256116 0.17744404198025013
      vertex 4.142071035517759 0.4229681690845422 0.1693192795990595
      vertex 4.142071035517759 0.6933466733366682 0.04502248119985993
    endloop
  endfacet
  facet normal 1.0 0.0 0.0
    outer loop
      vertex 4.142071035517759 0.6933466733366682 0.04502248119985993
      vertex 4.142071035517759 0.4229681690845422 0.1693192795990595
      vertex 4.142071035517759 0.3916958832612756 0.16658326159005504
    endloop
  endfacet
  facet normal 1.0 0.0 0.0
    outer loop
      vertex 4.142071035517759 0.6933466733366682 0.04502248119985993
      vertex 4.142071035517759 0.3916958832612756 0.16658326159005504
      vertex 4.142071035517759 0.09004502251125558 0.04502248119985993
    endloop
  endfacet
  facet normal 1.0 0.0 0.0
    outer loop
      vertex 4.142071035517759 0.09004502251125558 0.04502248119985993
      vertex 4.142071035517759 0.3916958832612756 0.16658326159005504
      vertex 4.142071035517759 0.3604235717858929 0.1693192795990595
    endloop
  endfacet
  facet normal 1.0 0.0 0.0
    outer loop
      vertex 4.142071035517759 0.09004502251125558 0.04502248119985993
      vertex 4.142071035517759 0.3604235717858929 0.1693192795990595
      vertex 4.142071035517759 0.3301014507253626 0.17744404198025013
    endloop
  endfacet
  facet normal 1.0 0.0 0.0
    outer loop
      vertex 4.142071035517759 0.2537387693846923 0.2309136767976588
      vertex 4.142071035517759 0.23573336668334163 0.2566282841013106
      vertex 4.142071035517759 0.09004502251125558 0.04502248119985993
    endloop
  endfacet
  facet normal 1.0 0.0 0.0
    outer loop
      vertex 4.142071035517759 0.09004502251125558 0.04502248119985993
      vertex 4.142071035517759 0.23573336668334163 0.2566282841013106
      vertex 4.142071035517759 0.2224665832916458 0.28507890941396696
    endloop
  endfacet
  facet normal 1.0 0.0 0.0
    outer loop
      vertex 4.142071035517759 0.09004502251125558 0.04502248119985993
      vertex 4.142071035517759 0.2224665832916458 0.28507890941396696
      vertex 4.142071035517759 0.09004502251125558 0.34667330661256623
    endloop
  endfacet
  facet normal 1.0 0.0 0.0
    outer loop
      vertex 4.142071035517759 0.09004502251125558 0.34667330661256623
      vertex 4.142071035517759 0.2224665832916458 0.28507890941396696
      vertex 4.142071035517759 0.21434182091045517 0.31540112051951974
    endloop
  endfacet
  facet normal 1.0 -0.0 0.0
    outer loop
      vertex 4.142071035517759 0.09004502251125558 0.34667330661256623
      vertex 4.142071035517759 0.21434182091045517 0.31540112051951974
      vertex 4.142071035517759 0.21160580290145067 0.34667330661256623
    endloop
  endfacet
  facet normal -1.0 0.0 -0.0
    outer loop
      vertex 3.9169584792396197 0.23573336668334163 0.2566282841013106
      vertex 3.9169584792396197 0.2537387693846923 0.2309136767976588
      vertex 3.9169584792396197 0.09004502251125558 0.04502248119985993
    endloop
  endfacet
  facet normal -1.0 0.0 0.0
    outer loop
      vertex 3.9169584792396197 0.09004502251125558 0.34667330661256623
      vertex 3.9169584792396197 0.21160580290145067 0.34667330661256623
      vertex 3.9169584792396197 0.21434182091045517 0.31540112051951974
    endloop
  endfacet
  facet normal -1.0 0.0 -0.0
    outer loop
      vertex 3.9169584792396197 0.2537387693846923 0.2309136767976588
      vertex 3.9169584792396197 0.2759362181090545 0.20871622807329662
      vertex 3.9169584792396197 0.09004502251125558 0.04502248119985993
    endloop
  endfacet
  facet normal -1.0 0.0 0.0
    outer loop
      vertex 3.9169584792396197 0.09004502251125558 0.04502248119985993
      vertex 3.9169584792396197 0.2759362181090545 0.20871622807329662
      vertex 3.9169584792396197 0.3016508254127063 0.19071082537194595
    endloop
  endfacet
  facet normal -1.0 0.0 0.0
    outer loop
      vertex 3.9169584792396197 0.09004502251125558 0.04502248119985993
      vertex 3.9169584792396197 0.3016508254127063 0.19071082537194595
      vertex 3.9169584792396197 0.3301014507253626 0.17744404198025013
    endloop
  endfacet
  facet normal -1.0 0.0 0.0
    outer loop
      vertex 3.9169584792396197 0.45329024512256116 0.17744404198025013
      vertex 3.9169584792396197 0.48174087043521757 0.19071082537194595
      vertex 3.9169584792396197 0.6933466733366682 0.04502248119985993
    endloop
  endfacet
  facet normal -1.0 0.0 0.0
    outer loop
      vertex 3.9169584792396197 0.6933466733366682 0.04502248119985993
      vertex 3.9169584792396197 0.48174087043521757 0.19071082537194595
      vertex 3.9169584792396197 0.5074554777388693 0.20871622807329662
    endloop
  endfacet
  facet normal -1.0 0.0 0.0
    outer loop
      vertex 3.9169584792396197 0.6933466733366682 0.04502248119985993
      vertex 3.9169584792396197 0.5074554777388693 0.20871622807329662
      vertex 3.9169584792396197 0.5296529264632316 0.2309136767976588
    endloop
  endfacet
  facet normal -1.0 0.0 0.0
    outer loop
      vertex 3.9169584792396197 0.09004502251125558 0.34667330661256623
      vertex 3.9169584792396197 0.21434182091045517 0.31540112051951974
      vertex 3.9169584792396197 0.09004502251125558 0.04502248119985993
    endloop
  endfacet
  facet normal -1.0 0.0 0.0
    outer loop
      vertex 3.9169584792396197 0.09004502251125558 0.04502248119985993
      vertex 3.9169584792396197 0.21434182091045517 0.31540112051951974
      vertex 3.9169584792396197 0.2224665832916458 0.28507890941396696
    endloop
  endfacet
  facet normal -1.0 0.0 0.0
    outer loop
      vertex 3.9169584792396197 0.09004502251125558 0.04502248119985993
      vertex 3.9169584792396197 0.2224665832916458 0.28507890941396696
      vertex 3.9169584792396197 0.23573336668334163 0.2566282841013106
    endloop
  endfacet
  facet normal -1.0 0.0 -0.0
    outer loop
      vertex 3.9169584792396197 0.3301014507253626 0.17744404198025013
      vertex 3.9169584792396197 0.3604235717858929 0.1693192795990595
      vertex 3.9169584792396197 0.09004502251125558 0.04502248119985993
    endloop
  endfacet
  facet normal -1.0 0.0 0.0
    outer loop
      vertex 3.9169584792396197 0.09004502251125558 0.04502248119985993
      vertex 3.9169584792396197 0.3604235717858929 0.1693192795990595
      vertex 3.9169584792396197 0.39169587754877433 0.16658326159005504
    endloop
  endfacet
  facet normal -1.0 0.0 0.0
    outer loop
      vertex 3.9169584792396197 0.09004502251125558 0.04502248119985993
      vertex 3.9169584792396197 0.39169587754877433 0.16658326159005504
      vertex 3.9169584792396197 0.6933466733366682 0.04502248119985993
    endloop
  endfacet
  facet normal -1.0 0.0 0.0
    outer loop
      vertex 3.9169584792396197 0.6933466733366682 0.04502248119985993
      vertex 3.9169584792396197 0.39169587754877433 0.16658326159005504
      vertex 3.9169584792396197 0.4229681690845422 0.1693192795990595
    endloop
  endfacet
  facet normal -1.0 0.0 0.0
    outer loop
      vertex 3.9169584792396197 0.6933466733366682 0.04502248119985993
      vertex 3.9169584792396197 0.4229681690845422 0.1693192795990595
      vertex 3.9169584792396197 0.45329024512256116 0.17744404198025013
    endloop
  endfacet
  facet normal -1.0 0.0 0.0
    outer loop
      vertex 3.9169584792396197 0.5296529264632316 0.2309136767976588
      vertex 3.9169584792396197 0.5476583291645822 0.2566282841013106
      vertex 3.9169584792396197 0.6933466733366682 0.04502248119985993
    endloop
  endfacet
  facet normal -1.0 0.0 0.0
    outer loop
      vertex 3.9169584792396197 0.6933466733366682 0.04502248119985993
      vertex 3.9169584792396197 0.5476583291645822 0.2566282841013106
      vertex 3.9169584792396197 0.5609251125562781 0.28507890941396696
    endloop
  endfacet
  facet normal -1.0 0.0 0.0
    outer loop
      vertex 3.9169584792396197 0.6933466733366682 0.04502248119985993
      vertex 3.9169584792396197 0.5609251125562781 0.28507890941396696
      vertex 3.9169584792396197 0.6933466733366682 0.34667330661256623
    endloop
  endfacet
  facet normal -1.0 0.0 0.0
    outer loop
      vertex 3.9169584792396197 0.6933466733366682 0.34667330661256623
      vertex 3.9169584792396197 0.5609251125562781 0.28507890941396696
      vertex 3.9169584792396197 0.5690498749374687 0.31540112051951974
    endloop
  endfacet
  facet normal -1.0 -0.0 0.0
    outer loop
      vertex 3.9169584792396197 0.6933466733366682 0.34667330661256623
      vertex 3.9169584792396197 0.5690498749374687 0.31540112051951974
      vertex 3.9169584792396197 0.5717858929464732 0.34667330661256623
    endloop
  endfacet
  facet normal -0.0 1.0 0.0
    outer loop
      vertex 0.31515757878939465 0.09004502251125558 0.34667330661256623
      vertex 3.9169584792396197 0.09004502251125558 0.34667330661256623
      vertex 0.31515757878939465 0.09004502251125558 0.04502248119985993
    endloop
  endfacet
  facet normal 0.0 1.0 0.0
    outer loop
      vertex 0.31515757878939465 0.09004502251125558 0.04502248119985993
      vertex 3.9169584792396197 0.09004502251125558 0.34667330661256623
      vertex 3.9169584792396197 0.09004502251125558 0.04502248119985993
    endloop
  endfacet
  facet normal 1.0 0.0 0.0
    outer loop
      vertex 0.31515757878939465 0.14407203601800897 0.34667330661256623
      vertex 0.31515757878939465 0.09004502251125558 0.34667330661256623
      vertex 0.31515757878939465 0.14407203601800897 0.04502248119985993
    endloop
  endfacet
  facet normal 1.0 0.0 0.0
    outer loop
      vertex 0.31515757878939465 0.14407203601800897 0.04502248119985993
      vertex 0.31515757878939465 0.09004502251125558 0.34667330661256623
      vertex 0.31515757878939465 0.09004502251125558 0.04502248119985993
    endloop
  endfacet
  facet normal -0.0 1.0 0.0
    outer loop
      vertex 0.22511255627813906 0.14407203601800897 0.34667330661256623
      vertex 0.31515757878939465 0.14407203601800897 0.34667330661256623
      vertex 0.22511255627813906 0.14407203601800897 0.04502248119985993
    endloop
  endfacet
  facet normal 0.0 1.0 0.0
    outer loop
      vertex 0.22511255627813906 0.14407203601800897 0.04502248119985993
      vertex 0.31515757878939465 0.14407203601800897 0.34667330661256623
      vertex 0.31515757878939465 0.14407203601800897 0.04502248119985993
    endloop
  endfacet
  facet normal -1.0 0.0 0.0
    outer loop
      vertex 0.22511255627813906 0.09004502251125558 0.34667330661256623
      vertex 0.22511255627813906 0.14407203601800897 0.34667330661256623
      vertex 0.22511255627813906 0.09004502251125558 0.04502248119985993
    endloop
  endfacet
  facet normal -1.0 0.0 0.0
    outer loop
      vertex 0.22511255627813906 0.09004502251125558 0.04502248119985993
      vertex 0.22511255627813906 0.14407203601800897 0.34667330661256623
      vertex 0.22511255627813906 0.14407203601800897 0.04502248119985993
    endloop
  endfacet
  facet normal -0.0 1.0 0.0
    outer loop
      vertex 0.18009004502251125 0.09004502251125558 0.34667330661256623
      vertex 0.22511255627813906 0.09004502251125558 0.34667330661256623
      vertex 0.18009004502251125 0.09004502251125558 0.04502248119985993
    endloop
  endfacet
  facet normal 0.0 1.0 0.0
    outer loop
      vertex 0.18009004502251125 0.09004502251125558 0.04502248119985993
      vertex 0.22511255627813906 0.09004502251125558 0.34667330661256623
      vertex 0.22511255627813906 0.09004502251125558 0.04502248119985993
    endloop
  endfacet
  facet normal 1.0 0.0 0.0
    outer loop
      vertex 0.18009004502251125 0.14407203601800897 0.34667330661256623
      vertex 0.18009004502251125 0.09004502251125558 0.34667330661256623
      vertex 0.18009004502251125 0.14407203601800897 0.04502248119985993
    endloop
  endfacet
  facet normal 1.0 0.0 0.0
    outer loop
      vertex 0.18009004502251125 0.14407203601800897 0.04502248119985993
      vertex 0.18009004502251125 0.09004502251125558 0.34667330661256623
      vertex 0.18009004502251125 0.09004502251125558 0.04502248119985993
    endloop
  endfacet
  facet normal -0.0 1.0 0.0
    outer loop
      vertex 0.09004502251125562 0.14407203601800897 0.34667330661256623
      vertex 0.18009004502251125 0.14407203601800897 0.34667330661256623
      vertex 0.09004502251125562 0.14407203601800897 0.04502248119985993
    endloop
  endfacet
  facet normal 0.0 1.0 0.0
    outer loop
      vertex 0.09004502251125562 0.14407203601800897 0.04502248119985993
      vertex 0.18009004502251125 0.14407203601800897 0.34667330661256623
      vertex 0.18009004502251125 0.14407203601800897 0.04502248119985993
    endloop
  endfacet
  facet normal -1.0 0.0 0.0
    outer loop
      vertex 0.09004502251125562 0.09004502251125558 0.34667330661256623
      vertex 0.09004502251125562 0.14407203601800897 0.34667330661256623
      vertex 0.09004502251125562 0.09004502251125558 0.04502248119985993
    endloop
  endfacet
  facet normal -1.0 0.0 0.0
    outer loop
      vertex 0.09004502251125562 0.09004502251125558 0.04502248119985993
      vertex 0.09004502251125562 0.14407203601800897 0.34667330661256623
      vertex 0.09004502251125562 0.14407203601800897 0.04502248119985993
    endloop
  endfacet
  facet normal -0.0 1.0 0.0
    outer loop
      vertex 0.04502251125562781 0.09004502251125558 0.34667330661256623
      vertex 0.09004502251125562 0.09004502251125558 0.34667330661256623
      vertex 0.04502251125562781 0.09004502251125558 0.04502248119985993
    endloop
  endfacet
  facet normal 0.0 1.0 0.0
    outer loop
      vertex 0.04502251125562781 0.09004502251125558 0.04502248119985993
      vertex 0.09004502251125562 0.09004502251125558 0.34667330661256623
      vertex 0.09004502251125562 0.09004502251125558 0.04502248119985993
    endloop
  endfacet
  facet normal 1.0 0.0 0.0
    outer loop
      vertex 0.04502251125562781 0.33618534267133565 0.33741037514683336
      vertex 0.04502251125562781 0.3354177088544272 0.34667330661256623
      vertex 0.04502251125562781 0.09004502251125558 0.34667330661256623
    endloop
  endfacet
  facet normal 1.0 0.0 0.0
    outer loop
      vertex 0.04502251125562781 0.3778803301650825 0.29211727859855924
      vertex 0.04502251125562781 0.3690891445722861 0.29513513752802395
      vertex 0.04502251125562781 0.09004502251125558 0.04502248119985993
    endloop
  endfacet
  facet normal 1.0 0.0 0.0
    outer loop
      vertex 0.04502251125562781 0.09004502251125558 0.04502248119985993
      vertex 0.04502251125562781 0.3690891445722861 0.29513513752802395
      vertex 0.04502251125562781 0.3609145872936468 0.29955904948400197
    endloop
  endfacet
  facet normal 1.0 0.0 0.0
    outer loop
      vertex 0.04502251125562781 0.09004502251125558 0.04502248119985993
      vertex 0.04502251125562781 0.3609145872936468 0.29955904948400197
      vertex 0.04502251125562781 0.35357965482741366 0.30526835413632813
    endloop
  endfacet
  facet normal 1.0 -0.0 0.0
    outer loop
      vertex 0.04502251125562781 0.4479739869934967 0.34667330661256623
      vertex 0.04502251125562781 0.44720635317658824 0.33741037514683336
      vertex 0.04502251125562781 0.6933466733366682 0.34667330661256623
    endloop
  endfacet
  facet normal 1.0 0.0 0.0
    outer loop
      vertex 0.04502251125562781 0.6933466733366682 0.34667330661256623
      vertex 0.04502251125562781 0.44720635317658824 0.33741037514683336
      vertex 0.04502251125562781 0.444924612306153 0.3284000199692446
    endloop
  endfacet
  facet normal 1.0 0.0 0.0
    outer loop
      vertex 0.04502251125562781 0.6933466733366682 0.34667330661256623
      vertex 0.04502251125562781 0.444924612306153 0.3284000199692446
      vertex 0.04502251125562781 0.6933466733366682 0.04502248119985993
    endloop
  endfacet
  facet normal 1.0 0.0 0.0
    outer loop
      vertex 0.04502251125562781 0.6933466733366682 0.04502248119985993
      vertex 0.04502251125562781 0.444924612306153 0.3284000199692446
      vertex 0.04502251125562781 0.4411908954477238 0.31988806399125563
    endloop
  endfacet
  facet normal 1.0 0.0 0.0
    outer loop
      vertex 0.04502251125562781 0.6933466733366682 0.04502248119985993
      vertex 0.04502251125562781 0.4411908954477238 0.31988806399125563
      vertex 0.04502251125562781 0.4361070885442721 0.3121063731458329
    endloop
  endfacet
  facet normal 1.0 0.0 0.0
    outer loop
      vertex 0.04502251125562781 0.4361070885442721 0.3121063731458329
      vertex 0.04502251125562781 0.42981190595297647 0.30526835413632813
      vertex 0.04502251125562781 0.6933466733366682 0.04502248119985993
    endloop
  endfacet
  facet normal 1.0 0.0 0.0
    outer loop
      vertex 0.04502251125562781 0.6933466733366682 0.04502248119985993
      vertex 0.04502251125562781 0.42981190595297647 0.30526835413632813
      vertex 0.04502251125562781 0.42247701850925456 0.29955904948400197
    endloop
  endfacet
  facet normal 1.0 0.0 0.0
    outer loop
      vertex 0.04502251125562781 0.6933466733366682 0.04502248119985993
      vertex 0.04502251125562781 0.42247701850925456 0.29955904948400197
      vertex 0.04502251125562781 0.4143024612306152 0.29513513752802395
    endloop
  endfacet
  facet normal 1.0 0.0 0.0
    outer loop
      vertex 0.04502251125562781 0.35357965482741366 0.30526835413632813
      vertex 0.04502251125562781 0.34728442721360675 0.3121063731458329
      vertex 0.04502251125562781 0.09004502251125558 0.04502248119985993
    endloop
  endfacet
  facet normal 1.0 0.0 0.0
    outer loop
      vertex 0.04502251125562781 0.09004502251125558 0.04502248119985993
      vertex 0.04502251125562781 0.34728442721360675 0.3121063731458329
      vertex 0.04502251125562781 0.34220080040020007 0.31988806399125563
    endloop
  endfacet
  facet normal 1.0 0.0 0.0
    outer loop
      vertex 0.04502251125562781 0.09004502251125558 0.04502248119985993
      vertex 0.04502251125562781 0.34220080040020007 0.31988806399125563
      vertex 0.04502251125562781 0.09004502251125558 0.34667330661256623
    endloop
  endfacet
  facet normal 1.0 0.0 0.0
    outer loop
      vertex 0.04502251125562781 0.09004502251125558 0.34667330661256623
      vertex 0.04502251125562781 0.34220080040020007 0.31988806399125563
      vertex 0.04502251125562781 0.33846708354177085 0.3284000199692446
    endloop
  endfacet
  facet normal 1.0 0.0 0.0
    outer loop
      vertex 0.04502251125562781 0.09004502251125558 0.34667330661256623
      vertex 0.04502251125562781 0.33846708354177085 0.3284000199692446
      vertex 0.04502251125562781 0.33618534267133565 0.33741037514683336
    endloop
  endfacet
  facet normal 1.0 0.0 0.0
    outer loop
      vertex 0.04502251125562781 0.4143024612306152 0.29513513752802395
      vertex 0.04502251125562781 0.40551123061530764 0.29211727859855924
      vertex 0.04502251125562781 0.6933466733366682 0.04502248119985993
    endloop
  endfacet
  facet normal 1.0 0.0 0.0
    outer loop
      vertex 0.04502251125562781 0.6933466733366682 0.04502248119985993
      vertex 0.04502251125562781 0.40551123061530764 0.29211727859855924
      vertex 0.04502251125562781 0.3963432066033016 0.29058741366609303
    endloop
  endfacet
  facet normal 1.0 0.0 0.0
    outer loop
      vertex 0.04502251125562781 0.6933466733366682 0.04502248119985993
      vertex 0.04502251125562781 0.3963432066033016 0.29058741366609303
      vertex 0.04502251125562781 0.09004502251125558 0.04502248119985993
    endloop
  endfacet
  facet normal 1.0 0.0 0.0
    outer loop
      vertex 0.04502251125562781 0.09004502251125558 0.04502248119985993
      vertex 0.04502251125562781 0.3963432066033016 0.29058741366609303
      vertex 0.04502251125562781 0.38704835417708855 0.29058741366609303
    endloop
  endfacet
  facet normal 1.0 0.0 0.0
    outer loop
      vertex 0.04502251125562781 0.09004502251125558 0.04502248119985993
      vertex 0.04502251125562781 0.38704835417708855 0.29058741366609303
      vertex 0.04502251125562781 0.3778803301650825 0.29211727859855924
    endloop
  endfacet
  facet normal -1.0 0.0 0.0
    outer loop
      vertex 0.0 0.44720635317658824 0.33741037514683336
      vertex 0.0 0.4479739869934967 0.34667330661256623
      vertex 0.0 0.7833916958479239 0.34667330661256623
    endloop
  endfacet
  facet normal -1.0 0.0 0.0
    outer loop
      vertex 0.0 0.4361070885442721 0.3121063731458329
      vertex 0.0 0.4411908954477238 0.31988806399125563
      vertex 0.0 0.7833916958479239 1.400811505752876e-07
    endloop
  endfacet
  facet normal -1.0 0.0 0.0
    outer loop
      vertex 0.0 0.7833916958479239 1.400811505752876e-07
      vertex 0.0 0.4411908954477238 0.31988806399125563
      vertex 0.0 0.7833916958479239 0.34667330661256623
    endloop
  endfacet
  facet normal -1.0 0.0 0.0
    outer loop
      vertex 0.0 0.7833916958479239 0.34667330661256623
      vertex 0.0 0.4411908954477238 0.31988806399125563
      vertex 0.0 0.444924612306153 0.3284000199692446
    endloop
  endfacet
  facet normal -1.0 0.0 0.0
    outer loop
      vertex 0.0 0.7833916958479239 0.34667330661256623
      vertex 0.0 0.444924612306153 0.3284000199692446
      vertex 0.0 0.44720635317658824 0.33741037514683336
    endloop
  endfacet
  facet normal -1.0 -0.0 -0.0
    outer loop
      vertex 0.0 0.3354177088544272 0.34667330661256623
      vertex 0.0 0.33618534267133565 0.33741037514683336
      vertex 0.0 0.0 0.34667330661256623
    endloop
  endfacet
  facet normal -1.0 0.0 0.0
    outer loop
      vertex 0.0 0.0 0.34667330661256623
      vertex 0.0 0.33618534267133565 0.33741037514683336
      vertex 0.0 0.33846708354177085 0.3284000199692446
    endloop
  endfacet
  facet normal -1.0 0.0 0.0
    outer loop
      vertex 0.0 0.0 0.34667330661256623
      vertex 0.0 0.33846708354177085 0.3284000199692446
      vertex 0.0 0.0 0.0
    endloop
  endfacet
  facet normal -1.0 0.0 0.0
    outer loop
      vertex 0.0 0.0 0.0
      vertex 0.0 0.33846708354177085 0.3284000199692446
      vertex 0.0 0.34220080040020007 0.31988806399125563
    endloop
  endfacet
  facet normal -1.0 0.0 0.0
    outer loop
      vertex 0.0 0.0 0.0
      vertex 0.0 0.34220080040020007 0.31988806399125563
      vertex 0.0 0.34728442721360675 0.3121063731458329
    endloop
  endfacet
  facet normal -1.0 0.0 -0.0
    outer loop
      vertex 0.0 0.34728442721360675 0.3121063731458329
      vertex 0.0 0.35357965482741366 0.30526835413632813
      vertex 0.0 0.0 0.0
    endloop
  endfacet
  facet normal -1.0 0.0 0.0
    outer loop
      vertex 0.0 0.0 0.0
      vertex 0.0 0.35357965482741366 0.30526835413632813
      vertex 0.0 0.3609145872936468 0.29955904948400197
    endloop
  endfacet
  facet normal -1.0 0.0 0.0
    outer loop
      vertex 0.0 0.0 0.0
      vertex 0.0 0.3609145872936468 0.29955904948400197
      vertex 0.0 0.3690891445722861 0.29513513752802395
    endloop
  endfacet
  facet normal -1.0 0.0 0.0
    outer loop
      vertex 0.0 0.40551123061530764 0.29211727859855924
      vertex 0.0 0.4143024612306152 0.29513513752802395
      vertex 0.0 0.7833916958479239 1.400811505752876e-07
    endloop
  endfacet
  facet normal -1.0 0.0 0.0
    outer loop
      vertex 0.0 0.4143024612306152 0.29513513752802395
      vertex 0.0 0.42247701850925456 0.29955904948400197
      vertex 0.0 0.7833916958479239 1.400811505752876e-07
    endloop
  endfacet
  facet normal -1.0 0.0 0.0
    outer loop
      vertex 0.0 0.7833916958479239 1.400811505752876e-07
      vertex 0.0 0.42247701850925456 0.29955904948400197
      vertex 0.0 0.42981190595297647 0.30526835413632813
    endloop
  endfacet
  facet normal -1.0 0.0 0.0
    outer loop
      vertex 0.0 0.7833916958479239 1.400811505752876e-07
      vertex 0.0 0.42981190595297647 0.30526835413632813
      vertex 0.0 0.4361070885442721 0.3121063731458329
    endloop
  endfacet
  facet normal -1.0 0.0 -0.0
    outer loop
      vertex 0.0 0.3690891445722861 0.29513513752802395
      vertex 0.0 0.3778803301650825 0.29211727859855924
      vertex 0.0 0.0 0.0
    endloop
  endfacet
  facet normal -1.0 0.0 0.0
    outer loop
      vertex 0.0 0.0 0.0
      vertex 0.0 0.3778803301650825 0.29211727859855924
      vertex 0.0 0.38704835417708855 0.29058741366609303
    endloop
  endfacet
  facet normal -1.0 0.0 0.0
    outer loop
      vertex 0.0 0.0 0.0
      vertex 0.0 0.38704835417708855 0.29058741366609303
      vertex 0.0 0.7833916958479239 1.400811505752876e-07
    endloop
  endfacet
  facet normal -1.0 0.0 0.0
    outer loop
      vertex 0.0 0.7833916958479239 1.400811505752876e-07
      vertex 0.0 0.38704835417708855 0.29058741366609303
      vertex 0.0 0.3963432066033016 0.29058741366609303
    endloop
  endfacet
  facet normal -1.0 0.0 0.0
    outer loop
      vertex 0.0 0.7833916958479239 1.400811505752876e-07
      vertex 0.0 0.3963432066033016 0.29058741366609303
      vertex 0.0 0.40551123061530764 0.29211727859855924
    endloop
  endfacet
  facet normal 5.002501250431704e-08 -0.9999999999991553 -1.2987014112454126e-06
    outer loop
      vertex 9.0 4.5022511253923365e-07 0.0
      vertex 9.0 0.0 0.34667330661256623
      vertex 0.0 0.0 0.0
    endloop
  endfacet
  facet normal 0.0 -1.0 0.0
    outer loop
      vertex 0.0 0.0 0.0
      vertex 9.0 0.0 0.34667330661256623
      vertex 0.0 0.0 0.34667330661256623
    endloop
  endfacet
  facet normal 1.0 0.0 0.0
    outer loop
      vertex 9.0 0.1440724862431215 0.04502248119985993
      vertex 9.0 0.14407203601800897 0.34667330661256623
      vertex 9.0 0.0 0.34667330661256623
    endloop
  endfacet
  facet normal 1.0 0.0 -0.0
    outer loop
      vertex 9.0 0.7833916958479239 1.400811505752876e-07
      vertex 9.0 0.7833916958479239 0.34667330661256623
      vertex 9.0 0.6393196598299149 0.34667330661256623
    endloop
  endfacet
  facet normal 1.0 0.0 0.0
    outer loop
      vertex 9.0 0.6393196598299149 0.34667330661256623
      vertex 9.0 0.6393196598299149 0.04502248119985993
      vertex 9.0 0.7833916958479239 1.400811505752876e-07
    endloop
  endfacet
  facet normal 1.0 0.0 0.0
    outer loop
      vertex 9.0 0.7833916958479239 1.400811505752876e-07
      vertex 9.0 0.6393196598299149 0.04502248119985993
      vertex 9.0 0.1440724862431215 0.04502248119985993
    endloop
  endfacet
  facet normal 1.0 0.0 0.0
    outer loop
      vertex 9.0 0.7833916958479239 1.400811505752876e-07
      vertex 9.0 0.1440724862431215 0.04502248119985993
      vertex 9.0 4.5022511253923365e-07 0.0
    endloop
  endfacet
  facet normal 1.0 0.0 -0.0
    outer loop
      vertex 9.0 4.5022511253923365e-07 0.0
      vertex 9.0 0.1440724862431215 0.04502248119985993
      vertex 9.0 0.0 0.34667330661256623
    endloop
  endfacet
  facet normal -0.0 0.9999999999988862 1.4925373133271674e-06
    outer loop
      vertex 8.864932466233116 0.14407203601800897 0.34667330661256623
      vertex 9.0 0.14407203601800897 0.34667330661256623
      vertex 8.864932466233116 0.1440724862431215 0.04502248119985993
    endloop
  endfacet
  facet normal -0.0 0.9999999999988862 1.4925373133271674e-06
    outer loop
      vertex 8.864932466233116 0.1440724862431215 0.04502248119985993
      vertex 9.0 0.14407203601800897 0.34667330661256623
      vertex 9.0 0.1440724862431215 0.04502248119985993
    endloop
  endfacet
  facet normal -1.0 0.0 0.0
    outer loop
      vertex 8.864932466233116 0.09004502251125558 0.34667330661256623
      vertex 8.864932466233116 0.14407203601800897 0.34667330661256623
      vertex 8.864932466233116 0.09004547273636816 0.04502248119985993
    endloop
  endfacet
  facet normal -1.0 0.0 0.0
    outer loop
      vertex 8.864932466233116 0.09004547273636816 0.04502248119985993
      vertex 8.864932466233116 0.14407203601800897 0.34667330661256623
      vertex 8.864932466233116 0.1440724862431215 0.04502248119985993
    endloop
  endfacet
  facet normal -0.0 0.9999999999988862 1.4925373135111918e-06
    outer loop
      vertex 8.819909954977488 0.09004502251125558 0.34667330661256623
      vertex 8.864932466233116 0.09004502251125558 0.34667330661256623
      vertex 8.819909954977488 0.09004547273636816 0.04502248119985993
    endloop
  endfacet
  facet normal -0.0 0.9999999999988862 1.4925373135111918e-06
    outer loop
      vertex 8.819909954977488 0.09004547273636816 0.04502248119985993
      vertex 8.864932466233116 0.09004502251125558 0.34667330661256623
      vertex 8.864932466233116 0.09004547273636816 0.04502248119985993
    endloop
  endfacet
  facet normal 1.0 0.0 0.0
    outer loop
      vertex 8.819909954977488 0.14407203601800897 0.34667330661256623
      vertex 8.819909954977488 0.09004502251125558 0.34667330661256623
      vertex 8.819909954977488 0.1440724862431215 0.04502248119985993
    endloop
  endfacet
  facet normal 1.0 0.0 0.0
    outer loop
      vertex 8.819909954977488 0.1440724862431215 0.04502248119985993
      vertex 8.819909954977488 0.09004502251125558 0.34667330661256623
      vertex 8.819909954977488 0.09004547273636816 0.04502248119985993
    endloop
  endfacet
  facet normal -0.0 1.0 0.0
    outer loop
      vertex 7.784392196098049 0.14407203601800897 0.34667330661256623
      vertex 8.819909954977488 0.14407203601800897 0.34667330661256623
      vertex 7.784392196098049 0.14407203601800897 0.04502248119985993
    endloop
  endfacet
  facet normal -4.347826086648297e-07 0.9999999999987917 1.4925373133270263e-06
    outer loop
      vertex 7.784392196098049 0.14407203601800897 0.04502248119985993
      vertex 8.819909954977488 0.14407203601800897 0.34667330661256623
      vertex 8.819909954977488 0.1440724862431215 0.04502248119985993
    endloop
  endfacet
  facet normal -1.0 0.0 0.0
    outer loop
      vertex 7.784392196098049 0.09004502251125558 0.34667330661256623
      vertex 7.784392196098049 0.14407203601800897 0.34667330661256623
      vertex 7.784392196098049 0.09004502251125558 0.04502248119985993
    endloop
  endfacet
  facet normal -1.0 0.0 0.0
    outer loop
      vertex 7.784392196098049 0.09004502251125558 0.04502248119985993
      vertex 7.784392196098049 0.14407203601800897 0.34667330661256623
      vertex 7.784392196098049 0.14407203601800897 0.04502248119985993
    endloop
  endfacet
  facet normal -0.0 1.0 0.0
    outer loop
      vertex 7.739369684842421 0.09004502251125558 0.34667330661256623
      vertex 7.784392196098049 0.09004502251125558 0.34667330661256623
      vertex 7.739369684842421 0.09004502251125558 0.04502248119985993
    endloop
  endfacet
  facet normal 0.0 1.0 0.0
    outer loop
      vertex 7.739369684842421 0.09004502251125558 0.04502248119985993
      vertex 7.784392196098049 0.09004502251125558 0.34667330661256623
      vertex 7.784392196098049 0.09004502251125558 0.04502248119985993
    endloop
  endfacet
  facet normal 1.0 0.0 0.0
    outer loop
      vertex 7.739369684842421 0.14407203601800897 0.34667330661256623
      vertex 7.739369684842421 0.09004502251125558 0.34667330661256623
      vertex 7.739369684842421 0.14407203601800897 0.04502248119985993
    endloop
  endfacet
  facet normal 1.0 0.0 0.0
    outer loop
      vertex 7.739369684842421 0.14407203601800897 0.04502248119985993
      vertex 7.739369684842421 0.09004502251125558 0.34667330661256623
      vertex 7.739369684842421 0.09004502251125558 0.04502248119985993
    endloop
  endfacet
  facet normal -0.0 1.0 0.0
    outer loop
      vertex 7.649324662331165 0.14407203601800897 0.34667330661256623
      vertex 7.739369684842421 0.14407203601800897 0.34667330661256623
      vertex 7.649324662331165 0.14407203601800897 0.04502248119985993
    endloop
  endfacet
  facet normal 0.0 1.0 0.0
    outer loop
      vertex 7.649324662331165 0.14407203601800897 0.04502248119985993
      vertex 7.739369684842421 0.14407203601800897 0.34667330661256623
      vertex 7.739369684842421 0.14407203601800897 0.04502248119985993
    endloop
  endfacet
  facet normal -1.0 0.0 0.0
    outer loop
      vertex 7.649324662331165 0.09004502251125558 0.34667330661256623
      vertex 7.649324662331165 0.14407203601800897 0.34667330661256623
      vertex 7.649324662331165 0.09004502251125558 0.04502248119985993
    endloop
  endfacet
  facet normal -1.0 0.0 0.0
    outer loop
      vertex 7.649324662331165 0.09004502251125558 0.04502248119985993
      vertex 7.649324662331165 0.14407203601800897 0.34667330661256623
      vertex 7.649324662331165 0.14407203601800897 0.04502248119985993
    endloop
  endfacet
  facet normal -0.0 1.0 0.0
    outer loop
      vertex 4.142071035517759 0.09004502251125558 0.34667330661256623
      vertex 7.649324662331165 0.09004502251125558 0.34667330661256623
      vertex 4.142071035517759 0.09004502251125558 0.04502248119985993
    endloop
  endfacet
  facet normal 0.0 1.0 0.0
    outer loop
      vertex 4.142071035517759 0.09004502251125558 0.04502248119985993
      vertex 7.649324662331165 0.09004502251125558 0.34667330661256623
      vertex 7.649324662331165 0.09004502251125558 0.04502248119985993
    endloop
  endfacet
  facet normal 0.0 -0.0 1.0
    outer loop
      vertex 0.31515757878939465 0.09004502251125558 0.34667330661256623
      vertex 0.31515757878939465 0.14407203601800897 0.34667330661256623
      vertex 0.22511255627813906 0.14407203601800897 0.34667330661256623
    endloop
  endfacet
  facet normal 0.0 0.0 1.0
    outer loop
      vertex 9.0 0.14407203601800897 0.34667330661256623
      vertex 8.864932466233116 0.14407203601800897 0.34667330661256623
      vertex 9.0 0.0 0.34667330661256623
    endloop
  endfacet
  facet normal 0.0 0.0 1.0
    outer loop
      vertex 9.0 0.0 0.34667330661256623
      vertex 8.864932466233116 0.14407203601800897 0.34667330661256623
      vertex 8.864932466233116 0.09004502251125558 0.34667330661256623
    endloop
  endfacet
  facet normal 0.0 0.0 1.0
    outer loop
      vertex 9.0 0.0 0.34667330661256623
      vertex 8.864932466233116 0.09004502251125558 0.34667330661256623
      vertex 8.819909954977488 0.09004502251125558 0.34667330661256623
    endloop
  endfacet
  facet normal 0.0 0.0 1.0
    outer loop
      vertex 0.18009004502251125 0.14407203601800897 0.34667330661256623
      vertex 0.09004502251125562 0.14407203601800897 0.34667330661256623
      vertex 0.18009004502251125 0.09004502251125558 0.34667330661256623
    endloop
  endfacet
  facet normal 0.0 0.0 1.0
    outer loop
      vertex 0.18009004502251125 0.09004502251125558 0.34667330661256623
      vertex 0.09004502251125562 0.14407203601800897 0.34667330661256623
      vertex 0.09004502251125562 0.09004502251125558 0.34667330661256623
    endloop
  endfacet
  facet normal 0.0 0.0 1.0
    outer loop
      vertex 8.819909954977488 0.14407203601800897 0.34667330661256623
      vertex 7.784392196098049 0.14407203601800897 0.34667330661256623
      vertex 8.819909954977488 0.09004502251125558 0.34667330661256623
    endloop
  endfacet
  facet normal 0.0 0.0 1.0
    outer loop
      vertex 8.819909954977488 0.09004502251125558 0.34667330661256623
      vertex 7.784392196098049 0.14407203601800897 0.34667330661256623
      vertex 7.784392196098049 0.09004502251125558 0.34667330661256623
    endloop
  endfacet
  facet normal 0.0 0.0 1.0
    outer loop
      vertex 8.819909954977488 0.09004502251125558 0.34667330661256623
      vertex 7.784392196098049 0.09004502251125558 0.34667330661256623
      vertex 9.0 0.0 0.34667330661256623
    endloop
  endfacet
  facet normal 0.0 0.0 1.0
    outer loop
      vertex 9.0 0.0 0.34667330661256623
      vertex 7.784392196098049 0.09004502251125558 0.34667330661256623
      vertex 7.739369684842421 0.09004502251125558 0.34667330661256623
    endloop
  endfacet
  facet normal 0.0 0.0 1.0
    outer loop
      vertex 7.739369684842421 0.14407203601800897 0.34667330661256623
      vertex 7.649324662331165 0.14407203601800897 0.34667330661256623
      vertex 7.739369684842421 0.09004502251125558 0.34667330661256623
    endloop
  endfacet
  facet normal 0.0 0.0 1.0
    outer loop
      vertex 7.739369684842421 0.09004502251125558 0.34667330661256623
      vertex 7.649324662331165 0.14407203601800897 0.34667330661256623
      vertex 7.649324662331165 0.09004502251125558 0.34667330661256623
    endloop
  endfacet
  facet normal 0.0 0.0 1.0
    outer loop
      vertex 7.739369684842421 0.09004502251125558 0.34667330661256623
      vertex 7.649324662331165 0.09004502251125558 0.34667330661256623
      vertex 9.0 0.0 0.34667330661256623
    endloop
  endfacet
  facet normal 0.0 0.0 1.0
    outer loop
      vertex 9.0 0.0 0.34667330661256623
      vertex 7.649324662331165 0.09004502251125558 0.34667330661256623
      vertex 4.142071035517759 0.09004502251125558 0.34667330661256623
    endloop
  endfacet
  facet normal 0.0 0.0 1.0
    outer loop
      vertex 0.22511255627813906 0.14407203601800897 0.34667330661256623
      vertex 0.22511255627813906 0.09004502251125558 0.34667330661256623
      vertex 0.31515757878939465 0.09004502251125558 0.34667330661256623
    endloop
  endfacet
  facet normal 0.0 0.0 1.0
    outer loop
      vertex 0.31515757878939465 0.09004502251125558 0.34667330661256623
      vertex 0.22511255627813906 0.09004502251125558 0.34667330661256623
      vertex 9.0 0.0 0.34667330661256623
    endloop
  endfacet
  facet normal -0.0 0.0 1.0
    outer loop
      vertex 0.31515757878939465 0.09004502251125558 0.34667330661256623
      vertex 9.0 0.0 0.34667330661256623
      vertex 3.9169584792396197 0.09004502251125558 0.34667330661256623
    endloop
  endfacet
  facet normal -0.0 0.0 1.0
    outer loop
      vertex 3.9169584792396197 0.09004502251125558 0.34667330661256623
      vertex 9.0 0.0 0.34667330661256623
      vertex 4.142071035517759 0.09004502251125558 0.34667330661256623
    endloop
  endfacet
  facet normal 0.0 0.0 1.0
    outer loop
      vertex 3.9169584792396197 0.09004502251125558 0.34667330661256623
      vertex 4.142071035517759 0.09004502251125558 0.34667330661256623
      vertex 3.9169584792396197 0.21160580290145067 0.34667330661256623
    endloop
  endfacet
  facet normal -0.0 0.0 1.0
    outer loop
      vertex 3.9169584792396197 0.21160580290145067 0.34667330661256623
      vertex 4.142071035517759 0.09004502251125558 0.34667330661256623
      vertex 4.142071035517759 0.21160580290145067 0.34667330661256623
    endloop
  endfacet
  facet normal 0.0 0.0 1.0
    outer loop
      vertex 0.04502251125562781 0.3354177088544272 0.34667330661256623
      vertex 0.0 0.3354177088544272 0.34667330661256623
      vertex 0.04502251125562781 0.09004502251125558 0.34667330661256623
    endloop
  endfacet
  facet normal 0.0 0.0 1.0
    outer loop
      vertex 0.04502251125562781 0.09004502251125558 0.34667330661256623
      vertex 0.0 0.3354177088544272 0.34667330661256623
      vertex 0.0 0.0 0.34667330661256623
    endloop
  endfacet
  facet normal -0.0 0.0 1.0
    outer loop
      vertex 0.04502251125562781 0.09004502251125558 0.34667330661256623
      vertex 0.0 0.0 0.34667330661256623
      vertex 0.09004502251125562 0.09004502251125558 0.34667330661256623
    endloop
  endfacet
  facet normal 0.0 0.0 1.0
    outer loop
      vertex 0.09004502251125562 0.09004502251125558 0.34667330661256623
      vertex 0.0 0.0 0.34667330661256623
      vertex 9.0 0.0 0.34667330661256623
    endloop
  endfacet
  facet normal -0.0 0.0 1.0
    outer loop
      vertex 0.09004502251125562 0.09004502251125558 0.34667330661256623
      vertex 9.0 0.0 0.34667330661256623
      vertex 0.18009004502251125 0.09004502251125558 0.34667330661256623
    endloop
  endfacet
  facet normal -0.0 0.0 1.0
    outer loop
      vertex 0.18009004502251125 0.09004502251125558 0.34667330661256623
      vertex 9.0 0.0 0.34667330661256623
      vertex 0.22511255627813906 0.09004502251125558 0.34667330661256623
    endloop
  endfacet
  facet normal -1.0 0.0 0.0
    outer loop
      vertex 7.649324662331165 0.6393196598299149 0.34667330661256623
      vertex 7.649324662331165 0.6933466733366682 0.34667330661256623
      vertex 7.649324662331165 0.6393196598299149 0.04502248119985993
    endloop
  endfacet
  facet normal -1.0 0.0 0.0
    outer loop
      vertex 7.649324662331165 0.6393196598299149 0.04502248119985993
      vertex 7.649324662331165 0.6933466733366682 0.34667330661256623
      vertex 7.649324662331165 0.6933466733366682 0.04502248119985993
    endloop
  endfacet
  facet normal -0.0 -1.0 -0.0
    outer loop
      vertex 7.739369684842421 0.6393196598299149 0.34667330661256623
      vertex 7.649324662331165 0.6393196598299149 0.34667330661256623
      vertex 7.739369684842421 0.6393196598299149 0.04502248119985993
    endloop
  endfacet
  facet normal 0.0 -1.0 0.0
    outer loop
      vertex 7.739369684842421 0.6393196598299149 0.04502248119985993
      vertex 7.649324662331165 0.6393196598299149 0.34667330661256623
      vertex 7.649324662331165 0.6393196598299149 0.04502248119985993
    endloop
  endfacet
  facet normal 1.0 0.0 0.0
    outer loop
      vertex 7.739369684842421 0.6933466733366682 0.34667330661256623
      vertex 7.739369684842421 0.6393196598299149 0.34667330661256623
      vertex 7.739369684842421 0.6933466733366682 0.04502248119985993
    endloop
  endfacet
  facet normal 1.0 0.0 0.0
    outer loop
      vertex 7.739369684842421 0.6933466733366682 0.04502248119985993
      vertex 7.739369684842421 0.6393196598299149 0.34667330661256623
      vertex 7.739369684842421 0.6393196598299149 0.04502248119985993
    endloop
  endfacet
  facet normal -0.0 -1.0 -0.0
    outer loop
      vertex 7.784392196098049 0.6933466733366682 0.34667330661256623
      vertex 7.739369684842421 0.6933466733366682 0.34667330661256623
      vertex 7.784392196098049 0.6933466733366682 0.04502248119985993
    endloop
  endfacet
  facet normal 0.0 -1.0 0.0
    outer loop
      vertex 7.784392196098049 0.6933466733366682 0.04502248119985993
      vertex 7.739369684842421 0.6933466733366682 0.34667330661256623
      vertex 7.739369684842421 0.6933466733366682 0.04502248119985993
    endloop
  endfacet
  facet normal -1.0 0.0 0.0
    outer loop
      vertex 7.784392196098049 0.6393196598299149 0.34667330661256623
      vertex 7.784392196098049 0.6933466733366682 0.34667330661256623
      vertex 7.784392196098049 0.6393196598299149 0.04502248119985993
    endloop
  endfacet
  facet normal -1.0 0.0 0.0
    outer loop
      vertex 7.784392196098049 0.6393196598299149 0.04502248119985993
      vertex 7.784392196098049 0.6933466733366682 0.34667330661256623
      vertex 7.784392196098049 0.6933466733366682 0.04502248119985993
    endloop
  endfacet
  facet normal -0.0 -1.0 -0.0
    outer loop
      vertex 8.819909954977488 0.6393196598299149 0.34667330661256623
      vertex 7.784392196098049 0.6393196598299149 0.34667330661256623
      vertex 8.819909954977488 0.6393196598299149 0.04502248119985993
    endloop
  endfacet
  facet normal 0.0 -1.0 0.0
    outer loop
      vertex 8.819909954977488 0.6393196598299149 0.04502248119985993
      vertex 7.784392196098049 0.6393196598299149 0.34667330661256623
      vertex 7.784392196098049 0.6393196598299149 0.04502248119985993
    endloop
  endfacet
  facet normal 1.0 0.0 0.0
    outer loop
      vertex 8.819909954977488 0.6933466733366682 0.34667330661256623
      vertex 8.819909954977488 0.6393196598299149 0.34667330661256623
      vertex 8.819909954977488 0.6933466733366682 0.04502248119985993
    endloop
  endfacet
  facet normal 1.0 0.0 0.0
    outer loop
      vertex 8.819909954977488 0.6933466733366682 0.04502248119985993
      vertex 8.819909954977488 0.6393196598299149 0.34667330661256623
      vertex 8.819909954977488 0.6393196598299149 0.04502248119985993
    endloop
  endfacet
  facet normal -0.0 -1.0 -0.0
    outer loop
      vertex 8.864932466233116 0.6933466733366682 0.34667330661256623
      vertex 8.819909954977488 0.6933466733366682 0.34667330661256623
      vertex 8.864932466233116 0.6933466733366682 0.04502248119985993
    endloop
  endfacet
  facet normal 0.0 -1.0 0.0
    outer loop
      vertex 8.864932466233116 0.6933466733366682 0.04502248119985993
      vertex 8.819909954977488 0.6933466733366682 0.34667330661256623
      vertex 8.819909954977488 0.6933466733366682 0.04502248119985993
    endloop
  endfacet
  facet normal -1.0 0.0 0.0
    outer loop
      vertex 8.864932466233116 0.6393196598299149 0.34667330661256623
      vertex 8.864932466233116 0.6933466733366682 0.34667330661256623
      vertex 8.864932466233116 0.6393196598299149 0.04502248119985993
    endloop
  endfacet
  facet normal -1.0 0.0 0.0
    outer loop
      vertex 8.864932466233116 0.6393196598299149 0.04502248119985993
      vertex 8.864932466233116 0.6933466733366682 0.34667330661256623
      vertex 8.864932466233116 0.6933466733366682 0.04502248119985993
    endloop
  endfacet
  facet normal -0.0 -1.0 -0.0
    outer loop
      vertex 9.0 0.6393196598299149 0.34667330661256623
      vertex 8.864932466233116 0.6393196598299149 0.34667330661256623
      vertex 9.0 0.6393196598299149 0.04502248119985993
    endloop
  endfacet
  facet normal 0.0 -1.0 0.0
    outer loop
      vertex 9.0 0.6393196598299149 0.04502248119985993
      vertex 8.864932466233116 0.6393196598299149 0.34667330661256623
      vertex 8.864932466233116 0.6393196598299149 0.04502248119985993
    endloop
  endfacet
  facet normal 0.0 1.0 0.0
    outer loop
      vertex 0.0 0.7833916958479239 1.400811505752876e-07
      vertex 0.0 0.7833916958479239 0.34667330661256623
      vertex 9.0 0.7833916958479239 1.400811505752876e-07
    endloop
  endfacet
  facet normal 0.0 1.0 -0.0
    outer loop
      vertex 9.0 0.7833916958479239 1.400811505752876e-07
      vertex 0.0 0.7833916958479239 0.34667330661256623
      vertex 9.0 0.7833916958479239 0.34667330661256623
    endloop
  endfacet
  facet normal -0.0 -1.0 -0.0
    outer loop
      vertex 0.09004502251125562 0.6933466733366682 0.34667330661256623
      vertex 0.04502251125562781 0.6933466733366682 0.34667330661256623
      vertex 0.09004502251125562 0.6933466733366682 0.04502248119985993
    endloop
  endfacet
  facet normal 0.0 -1.0 0.0
    outer loop
      vertex 0.09004502251125562 0.6933466733366682 0.04502248119985993
      vertex 0.04502251125562781 0.6933466733366682 0.34667330661256623
      vertex 0.04502251125562781 0.6933466733366682 0.04502248119985993
    endloop
  endfacet
  facet normal -1.0 0.0 0.0
    outer loop
      vertex 0.09004502251125562 0.6393196598299149 0.34667330661256623
      vertex 0.09004502251125562 0.6933466733366682 0.34667330661256623
      vertex 0.09004502251125562 0.6393196598299149 0.04502248119985993
    endloop
  endfacet
  facet normal -1.0 0.0 0.0
    outer loop
      vertex 0.09004502251125562 0.6393196598299149 0.04502248119985993
      vertex 0.09004502251125562 0.6933466733366682 0.34667330661256623
      vertex 0.09004502251125562 0.6933466733366682 0.04502248119985993
    endloop
  endfacet
  facet normal -0.0 -1.0 -0.0
    outer loop
      vertex 0.18009004502251125 0.6393196598299149 0.34667330661256623
      vertex 0.09004502251125562 0.6393196598299149 0.34667330661256623
      vertex 0.18009004502251125 0.6393196598299149 0.04502248119985993
    endloop
  endfacet
  facet normal 0.0 -1.0 0.0
    outer loop
      vertex 0.18009004502251125 0.6393196598299149 0.04502248119985993
      vertex 0.09004502251125562 0.6393196598299149 0.34667330661256623
      vertex 0.09004502251125562 0.6393196598299149 0.04502248119985993
    endloop
  endfacet
  facet normal 1.0 0.0 0.0
    outer loop
      vertex 0.18009004502251125 0.6933466733366682 0.34667330661256623
      vertex 0.18009004502251125 0.6393196598299149 0.34667330661256623
      vertex 0.18009004502251125 0.6933466733366682 0.04502248119985993
    endloop
  endfacet
  facet normal 1.0 0.0 0.0
    outer loop
      vertex 0.18009004502251125 0.6933466733366682 0.04502248119985993
      vertex 0.18009004502251125 0.6393196598299149 0.34667330661256623
      vertex 0.18009004502251125 0.6393196598299149 0.04502248119985993
    endloop
  endfacet
  facet normal -0.0 -1.0 -0.0
    outer loop
      vertex 0.22511255627813906 0.6933466733366682 0.34667330661256623
      vertex 0.18009004502251125 0.6933466733366682 0.34667330661256623
      vertex 0.22511255627813906 0.6933466733366682 0.04502248119985993
    endloop
  endfacet
  facet normal 0.0 -1.0 0.0
    outer loop
      vertex 0.22511255627813906 0.6933466733366682 0.04502248119985993
      vertex 0.18009004502251125 0.6933466733366682 0.34667330661256623
      vertex 0.18009004502251125 0.6933466733366682 0.04502248119985993
    endloop
  endfacet
  facet normal -1.0 0.0 0.0
    outer loop
      vertex 0.22511255627813906 0.6393196598299149 0.34667330661256623
      vertex 0.22511255627813906 0.6933466733366682 0.34667330661256623
      vertex 0.22511255627813906 0.6393196598299149 0.04502248119985993
    endloop
  endfacet
  facet normal -1.0 0.0 0.0
    outer loop
      vertex 0.22511255627813906 0.6393196598299149 0.04502248119985993
      vertex 0.22511255627813906 0.6933466733366682 0.34667330661256623
      vertex 0.22511255627813906 0.6933466733366682 0.04502248119985993
    endloop
  endfacet
  facet normal -0.0 -1.0 -0.0
    outer loop
      vertex 0.31515757878939465 0.6393196598299149 0.34667330661256623
      vertex 0.22511255627813906 0.6393196598299149 0.34667330661256623
      vertex 0.31515757878939465 0.6393196598299149 0.04502248119985993
    endloop
  endfacet
  facet normal 0.0 -1.0 0.0
    outer loop
      vertex 0.31515757878939465 0.6393196598299149 0.04502248119985993
      vertex 0.22511255627813906 0.6393196598299149 0.34667330661256623
      vertex 0.22511255627813906 0.6393196598299149 0.04502248119985993
    endloop
  endfacet
  facet normal 1.0 0.0 0.0
    outer loop
      vertex 0.31515757878939465 0.6933466733366682 0.34667330661256623
      vertex 0.31515757878939465 0.6393196598299149 0.34667330661256623
      vertex 0.31515757878939465 0.6933466733366682 0.04502248119985993
    endloop
  endfacet
  facet normal 1.0 0.0 0.0
    outer loop
      vertex 0.31515757878939465 0.6933466733366682 0.04502248119985993
      vertex 0.31515757878939465 0.6393196598299149 0.34667330661256623
      vertex 0.31515757878939465 0.6393196598299149 0.04502248119985993
    endloop
  endfacet
  facet normal -0.0 -1.0 -0.0
    outer loop
      vertex 3.9169584792396197 0.6933466733366682 0.34667330661256623
      vertex 0.31515757878939465 0.6933466733366682 0.34667330661256623
      vertex 3.9169584792396197 0.6933466733366682 0.04502248119985993
    endloop
  endfacet
  facet normal 0.0 -1.0 0.0
    outer loop
      vertex 3.9169584792396197 0.6933466733366682 0.04502248119985993
      vertex 0.31515757878939465 0.6933466733366682 0.34667330661256623
      vertex 0.31515757878939465 0.6933466733366682 0.04502248119985993
    endloop
  endfacet
  facet normal -0.0 -1.0 -0.0
    outer loop
      vertex 7.649324662331165 0.6933466733366682 0.34667330661256623
      vertex 4.142071035517759 0.6933466733366682 0.34667330661256623
      vertex 7.649324662331165 0.6933466733366682 0.04502248119985993
    endloop
  endfacet
  facet normal 0.0 -1.0 0.0
    outer loop
      vertex 7.649324662331165 0.6933466733366682 0.04502248119985993
      vertex 4.142071035517759 0.6933466733366682 0.34667330661256623
      vertex 4.142071035517759 0.6933466733366682 0.04502248119985993
    endloop
  endfacet
  facet normal 0.0 1.7881367816091664e-07 -0.999999999999984
    outer loop
      vertex 0.0 0.7833916958479239 1.400811505752876e-07
      vertex 9.0 0.7833916958479239 1.400811505752876e-07
      vertex 0.0 0.0 0.0
    endloop
  endfacet
  facet normal -8.94516162684782e-15 1.788137809274574e-07 -0.999999999999984
    outer loop
      vertex 0.0 0.0 0.0
      vertex 9.0 0.7833916958479239 1.400811505752876e-07
      vertex 9.0 4.5022511253923365e-07 0.0
    endloop
  endfacet
  facet normal 0.0 -0.0 1.0
    outer loop
      vertex 7.649324662331165 0.6393196598299149 0.04502248119985993
      vertex 7.649324662331165 0.6933466733366682 0.04502248119985993
      vertex 4.142071035517759 0.6933466733366682 0.04502248119985993
    endloop
  endfacet
  facet normal -0.0 0.0 1.0
    outer loop
      vertex 8.864932466233116 0.6393196598299149 0.04502248119985993
      vertex 7.784392196098049 0.14407203601800897 0.04502248119985993
      vertex 9.0 0.6393196598299149 0.04502248119985993
    endloop
  endfacet
  facet normal 0.0 0.0 1.0
    outer loop
      vertex 9.0 0.6393196598299149 0.04502248119985993
      vertex 7.784392196098049 0.14407203601800897 0.04502248119985993
      vertex 8.819909954977488 0.1440724862431215 0.04502248119985993
    endloop
  endfacet
  facet normal 0.0 -0.0 1.0
    outer loop
      vertex 9.0 0.1440724862431215 0.04502248119985993
      vertex 9.0 0.6393196598299149 0.04502248119985993
      vertex 8.864932466233116 0.1440724862431215 0.04502248119985993
    endloop
  endfacet
  facet normal 0.0 -0.0 1.0
    outer loop
      vertex 8.864932466233116 0.1440724862431215 0.04502248119985993
      vertex 9.0 0.6393196598299149 0.04502248119985993
      vertex 8.819909954977488 0.1440724862431215 0.04502248119985993
    endloop
  endfacet
  facet normal 0.0 0.0 1.0
    outer loop
      vertex 8.864932466233116 0.1440724862431215 0.04502248119985993
      vertex 8.819909954977488 0.1440724862431215 0.04502248119985993
      vertex 8.864932466233116 0.09004547273636816 0.04502248119985993
    endloop
  endfacet
  facet normal 0.0 0.0 1.0
    outer loop
      vertex 8.864932466233116 0.09004547273636816 0.04502248119985993
      vertex 8.819909954977488 0.1440724862431215 0.04502248119985993
      vertex 8.819909954977488 0.09004547273636816 0.04502248119985993
    endloop
  endfacet
  facet normal -0.0 0.0 1.0
    outer loop
      vertex 7.784392196098049 0.6393196598299149 0.04502248119985993
      vertex 7.649324662331165 0.14407203601800897 0.04502248119985993
      vertex 8.819909954977488 0.6393196598299149 0.04502248119985993
    endloop
  endfacet
  facet normal 0.0 0.0 1.0
    outer loop
      vertex 8.819909954977488 0.6393196598299149 0.04502248119985993
      vertex 7.649324662331165 0.14407203601800897 0.04502248119985993
      vertex 7.739369684842421 0.14407203601800897 0.04502248119985993
    endloop
  endfacet
  facet normal 0.0 0.0 1.0
    outer loop
      vertex 8.864932466233116 0.6933466733366682 0.04502248119985993
      vertex 8.819909954977488 0.6933466733366682 0.04502248119985993
      vertex 8.864932466233116 0.6393196598299149 0.04502248119985993
    endloop
  endfacet
  facet normal 0.0 0.0 1.0
    outer loop
      vertex 8.864932466233116 0.6393196598299149 0.04502248119985993
      vertex 8.819909954977488 0.6933466733366682 0.04502248119985993
      vertex 8.819909954977488 0.6393196598299149 0.04502248119985993
    endloop
  endfacet
  facet normal 0.0 0.0 1.0
    outer loop
      vertex 8.864932466233116 0.6393196598299149 0.04502248119985993
      vertex 8.819909954977488 0.6393196598299149 0.04502248119985993
      vertex 7.784392196098049 0.14407203601800897 0.04502248119985993
    endloop
  endfacet
  facet normal 0.0 -0.0 1.0
    outer loop
      vertex 7.784392196098049 0.14407203601800897 0.04502248119985993
      vertex 8.819909954977488 0.6393196598299149 0.04502248119985993
      vertex 7.739369684842421 0.14407203601800897 0.04502248119985993
    endloop
  endfacet
  facet normal 0.0 0.0 1.0
    outer loop
      vertex 7.784392196098049 0.14407203601800897 0.04502248119985993
      vertex 7.739369684842421 0.14407203601800897 0.04502248119985993
      vertex 7.784392196098049 0.09004502251125558 0.04502248119985993
    endloop
  endfacet
  facet normal 0.0 0.0 1.0
    outer loop
      vertex 7.784392196098049 0.09004502251125558 0.04502248119985993
      vertex 7.739369684842421 0.14407203601800897 0.04502248119985993
      vertex 7.739369684842421 0.09004502251125558 0.04502248119985993
    endloop
  endfacet
  facet normal 0.0 0.0 1.0
    outer loop
      vertex 4.142071035517759 0.09004502251125558 0.04502248119985993
      vertex 7.649324662331165 0.09004502251125558 0.04502248119985993
      vertex 7.649324662331165 0.14407203601800897 0.04502248119985993
    endloop
  endfacet
  facet normal 0.0 0.0 1.0
    outer loop
      vertex 7.784392196098049 0.6933466733366682 0.04502248119985993
      vertex 7.739369684842421 0.6933466733366682 0.04502248119985993
      vertex 7.784392196098049 0.6393196598299149 0.04502248119985993
    endloop
  endfacet
  facet normal 0.0 0.0 1.0
    outer loop
      vertex 7.784392196098049 0.6393196598299149 0.04502248119985993
      vertex 7.739369684842421 0.6933466733366682 0.04502248119985993
      vertex 7.739369684842421 0.6393196598299149 0.04502248119985993
    endloop
  endfacet
  facet normal 0.0 0.0 1.0
    outer loop
      vertex 7.784392196098049 0.6393196598299149 0.04502248119985993
      vertex 7.739369684842421 0.6393196598299149 0.04502248119985993
      vertex 7.649324662331165 0.14407203601800897 0.04502248119985993
    endloop
  endfacet
  facet normal 0.0 0.0 1.0
    outer loop
      vertex 7.649324662331165 0.14407203601800897 0.04502248119985993
      vertex 7.739369684842421 0.6393196598299149 0.04502248119985993
      vertex 7.649324662331165 0.6393196598299149 0.04502248119985993
    endloop
  endfacet
  facet normal 0.0 -0.0 1.0
    outer loop
      vertex 7.649324662331165 0.14407203601800897 0.04502248119985993
      vertex 7.649324662331165 0.6393196598299149 0.04502248119985993
      vertex 4.142071035517759 0.09004502251125558 0.04502248119985993
    endloop
  endfacet
  facet normal 0.0 0.0 1.0
    outer loop
      vertex 4.142071035517759 0.09004502251125558 0.04502248119985993
      vertex 7.649324662331165 0.6393196598299149 0.04502248119985993
      vertex 4.142071035517759 0.6933466733366682 0.04502248119985993
    endloop
  endfacet
  facet normal 0.0 0.0 1.0
    outer loop
      vertex 3.9169584792396197 0.6933466733366682 0.04502248119985993
      vertex 0.31515757878939465 0.6933466733366682 0.04502248119985993
      vertex 3.9169584792396197 0.09004502251125558 0.04502248119985993
    endloop
  endfacet
  facet normal 0.0 0.0 1.0
    outer loop
      vertex 3.9169584792396197 0.09004502251125558 0.04502248119985993
      vertex 0.31515757878939465 0.6933466733366682 0.04502248119985993
      vertex 0.31515757878939465 0.6393196598299149 0.04502248119985993
    endloop
  endfacet
  facet normal 0.0 0.0 1.0
    outer loop
      vertex 0.22511255627813906 0.6393196598299149 0.04502248119985993
      vertex 0.04502251125562781 0.09004502251125558 0.04502248119985993
      vertex 0.09004502251125562 0.14407203601800897 0.04502248119985993
    endloop
  endfacet
  facet normal 0.0 0.0 1.0
    outer loop
      vertex 0.09004502251125562 0.14407203601800897 0.04502248119985993
      vertex 0.04502251125562781 0.09004502251125558 0.04502248119985993
      vertex 0.09004502251125562 0.09004502251125558 0.04502248119985993
    endloop
  endfacet
  facet normal 0.0 0.0 1.0
    outer loop
      vertex 0.18009004502251125 0.09004502251125558 0.04502248119985993
      vertex 0.22511255627813906 0.09004502251125558 0.04502248119985993
      vertex 0.18009004502251125 0.14407203601800897 0.04502248119985993
    endloop
  endfacet
  facet normal -0.0 0.0 1.0
    outer loop
      vertex 0.18009004502251125 0.14407203601800897 0.04502248119985993
      vertex 0.22511255627813906 0.09004502251125558 0.04502248119985993
      vertex 0.22511255627813906 0.14407203601800897 0.04502248119985993
    endloop
  endfacet
  facet normal 0.0 0.0 1.0
    outer loop
      vertex 0.09004502251125562 0.6933466733366682 0.04502248119985993
      vertex 0.04502251125562781 0.6933466733366682 0.04502248119985993
      vertex 0.09004502251125562 0.6393196598299149 0.04502248119985993
    endloop
  endfacet
  facet normal 0.0 0.0 1.0
    outer loop
      vertex 0.09004502251125562 0.6393196598299149 0.04502248119985993
      vertex 0.04502251125562781 0.6933466733366682 0.04502248119985993
      vertex 0.04502251125562781 0.09004502251125558 0.04502248119985993
    endloop
  endfacet
  facet normal -0.0 0.0 1.0
    outer loop
      vertex 0.09004502251125562 0.6393196598299149 0.04502248119985993
      vertex 0.04502251125562781 0.09004502251125558 0.04502248119985993
      vertex 0.18009004502251125 0.6393196598299149 0.04502248119985993
    endloop
  endfacet
  facet normal -0.0 0.0 1.0
    outer loop
      vertex 0.18009004502251125 0.6393196598299149 0.04502248119985993
      vertex 0.04502251125562781 0.09004502251125558 0.04502248119985993
      vertex 0.22511255627813906 0.6393196598299149 0.04502248119985993
    endloop
  endfacet
  facet normal 0.0 0.0 1.0
    outer loop
      vertex 0.18009004502251125 0.6393196598299149 0.04502248119985993
      vertex 0.22511255627813906 0.6393196598299149 0.04502248119985993
      vertex 0.18009004502251125 0.6933466733366682 0.04502248119985993
    endloop
  endfacet
  facet normal -0.0 0.0 1.0
    outer loop
      vertex 0.18009004502251125 0.6933466733366682 0.04502248119985993
      vertex 0.22511255627813906 0.6393196598299149 0.04502248119985993
      vertex 0.22511255627813906 0.6933466733366682 0.04502248119985993
    endloop
  endfacet
  facet normal 0.0 0.0 1.0
    outer loop
      vertex 0.31515757878939465 0.09004502251125558 0.04502248119985993
      vertex 3.9169584792396197 0.09004502251125558 0.04502248119985993
      vertex 0.31515757878939465 0.14407203601800897 0.04502248119985993
    endloop
  endfacet
  facet normal -0.0 0.0 1.0
    outer loop
      vertex 0.31515757878939465 0.14407203601800897 0.04502248119985993
      vertex 3.9169584792396197 0.09004502251125558 0.04502248119985993
      vertex 0.31515757878939465 0.6393196598299149 0.04502248119985993
    endloop
  endfacet
  facet normal 0.0 -0.0 1.0
    outer loop
      vertex 0.31515757878939465 0.14407203601800897 0.04502248119985993
      vertex 0.31515757878939465 0.6393196598299149 0.04502248119985993
      vertex 0.22511255627813906 0.14407203601800897 0.04502248119985993
    endloop
  endfacet
  facet normal 0.0 0.0 1.0
    outer loop
      vertex 0.22511255627813906 0.14407203601800897 0.04502248119985993
      vertex 0.31515757878939465 0.6393196598299149 0.04502248119985993
      vertex 0.22511255627813906 0.6393196598299149 0.04502248119985993
    endloop
  endfacet
  facet normal 0.0 -0.0 1.0
    outer loop
      vertex 0.22511255627813906 0.14407203601800897 0.04502248119985993
      vertex 0.22511255627813906 0.6393196598299149 0.04502248119985993
      vertex 0.18009004502251125 0.14407203601800897 0.04502248119985993
    endloop
  endfacet
  facet normal 0.0 -0.0 1.0
    outer loop
      vertex 0.18009004502251125 0.14407203601800897 0.04502248119985993
      vertex 0.22511255627813906 0.6393196598299149 0.04502248119985993
      vertex 0.09004502251125562 0.14407203601800897 0.04502248119985993
    endloop
  endfacet
  facet normal 0.0 -0.9965837365262143 0.08258847432571405
    outer loop
      vertex 0.04502251125562781 0.4479739869934967 0.34667330661256623
      vertex 0.0 0.4479739869934967 0.34667330661256623
      vertex 0.0 0.44720635317658824 0.33741037514683336
    endloop
  endfacet
  facet normal 0.0 -0.9965837365262143 0.08258847432571405
    outer loop
      vertex 0.04502251125562781 0.4479739869934967 0.34667330661256623
      vertex 0.0 0.44720635317658824 0.33741037514683336
      vertex 0.04502251125562781 0.44720635317658824 0.33741037514683336
    endloop
  endfacet
  facet normal 0.0 -0.9694000341410411 0.24548640248972695
    outer loop
      vertex 0.04502251125562781 0.44720635317658824 0.33741037514683336
      vertex 0.0 0.44720635317658824 0.33741037514683336
      vertex 0.0 0.444924612306153 0.3284000199692446
    endloop
  endfacet
  facet normal 0.0 -0.9694000341410411 0.24548640248972695
    outer loop
      vertex 0.04502251125562781 0.44720635317658824 0.33741037514683336
      vertex 0.0 0.444924612306153 0.3284000199692446
      vertex 0.04502251125562781 0.444924612306153 0.3284000199692446
    endloop
  endfacet
  facet normal 0.0 -0.9157722662342633 0.4016978421602008
    outer loop
      vertex 0.04502251125562781 0.444924612306153 0.3284000199692446
      vertex 0.0 0.444924612306153 0.3284000199692446
      vertex 0.0 0.4411908954477238 0.31988806399125563
    endloop
  endfacet
  facet normal 0.0 -0.9157722662342633 0.4016978421602008
    outer loop
      vertex 0.04502251125562781 0.444924612306153 0.3284000199692446
      vertex 0.0 0.4411908954477238 0.31988806399125563
      vertex 0.04502251125562781 0.4411908954477238 0.31988806399125563
    endloop
  endfacet
  facet normal 0.0 -0.8371775847808717 0.5469311579536006
    outer loop
      vertex 0.04502251125562781 0.4411908954477238 0.31988806399125563
      vertex 0.0 0.4411908954477238 0.31988806399125563
      vertex 0.0 0.4361070885442721 0.3121063731458329
    endloop
  endfacet
  facet normal 0.0 -0.8371775847808717 0.5469311579536006
    outer loop
      vertex 0.04502251125562781 0.4411908954477238 0.31988806399125563
      vertex 0.0 0.4361070885442721 0.3121063731458329
      vertex 0.04502251125562781 0.4361070885442721 0.3121063731458329
    endloop
  endfacet
  facet normal 0.0 -0.7357055406373092 0.6773015262610624
    outer loop
      vertex 0.04502251125562781 0.4361070885442721 0.3121063731458329
      vertex 0.0 0.4361070885442721 0.3121063731458329
      vertex 0.0 0.42981190595297647 0.30526835413632813
    endloop
  endfacet
  facet normal 0.0 -0.7357055406373092 0.6773015262610624
    outer loop
      vertex 0.04502251125562781 0.4361070885442721 0.3121063731458329
      vertex 0.0 0.42981190595297647 0.30526835413632813
      vertex 0.04502251125562781 0.42981190595297647 0.30526835413632813
    endloop
  endfacet
  facet normal 0.0 -0.6142349958368122 0.7891231652215968
    outer loop
      vertex 0.04502251125562781 0.42981190595297647 0.30526835413632813
      vertex 0.0 0.42981190595297647 0.30526835413632813
      vertex 0.0 0.42247701850925456 0.29955904948400197
    endloop
  endfacet
  facet normal 0.0 -0.6142349958368122 0.7891231652215968
    outer loop
      vertex 0.04502251125562781 0.42981190595297647 0.30526835413632813
      vertex 0.0 0.42247701850925456 0.29955904948400197
      vertex 0.04502251125562781 0.42247701850925456 0.29955904948400197
    endloop
  endfacet
  facet normal 0.0 -0.47595261762075713 0.8794709237831283
    outer loop
      vertex 0.04502251125562781 0.42247701850925456 0.29955904948400197
      vertex 0.0 0.42247701850925456 0.29955904948400197
      vertex 0.0 0.4143024612306152 0.29513513752802395
    endloop
  endfacet
  facet normal 0.0 -0.47595261762075713 0.8794709237831283
    outer loop
      vertex 0.04502251125562781 0.42247701850925456 0.29955904948400197
      vertex 0.0 0.4143024612306152 0.29513513752802395
      vertex 0.04502251125562781 0.4143024612306152 0.29513513752802395
    endloop
  endfacet
  facet normal 0.0 -0.32468268869902983 0.9458230022891011
    outer loop
      vertex 0.04502251125562781 0.4143024612306152 0.29513513752802395
      vertex 0.0 0.4143024612306152 0.29513513752802395
      vertex 0.0 0.40551123061530764 0.29211727859855924
    endloop
  endfacet
  facet normal 0.0 -0.32468268869902983 0.9458230022891011
    outer loop
      vertex 0.04502251125562781 0.4143024612306152 0.29513513752802395
      vertex 0.0 0.40551123061530764 0.29211727859855924
      vertex 0.04502251125562781 0.40551123061530764 0.29211727859855924
    endloop
  endfacet
  facet normal 0.0 -0.16459378513684841 0.9863614377571361
    outer loop
      vertex 0.04502251125562781 0.40551123061530764 0.29211727859855924
      vertex 0.0 0.40551123061530764 0.29211727859855924
      vertex 0.0 0.3963432066033016 0.29058741366609303
    endloop
  endfacet
  facet normal 0.0 -0.16459378513684841 0.9863614377571361
    outer loop
      vertex 0.04502251125562781 0.40551123061530764 0.29211727859855924
      vertex 0.0 0.3963432066033016 0.29058741366609303
      vertex 0.04502251125562781 0.3963432066033016 0.29058741366609303
    endloop
  endfacet
  facet normal 0.0 0.0 1.0
    outer loop
      vertex 0.04502251125562781 0.3963432066033016 0.29058741366609303
      vertex 0.0 0.3963432066033016 0.29058741366609303
      vertex 0.0 0.38704835417708855 0.29058741366609303
    endloop
  endfacet
  facet normal 0.0 0.0 1.0
    outer loop
      vertex 0.04502251125562781 0.3963432066033016 0.29058741366609303
      vertex 0.0 0.38704835417708855 0.29058741366609303
      vertex 0.04502251125562781 0.38704835417708855 0.29058741366609303
    endloop
  endfacet
  facet normal 0.0 0.16459378513684841 0.9863614377571361
    outer loop
      vertex 0.04502251125562781 0.38704835417708855 0.29058741366609303
      vertex 0.0 0.38704835417708855 0.29058741366609303
      vertex 0.0 0.3778803301650825 0.29211727859855924
    endloop
  endfacet
  facet normal 0.0 0.16459378513684841 0.9863614377571361
    outer loop
      vertex 0.04502251125562781 0.38704835417708855 0.29058741366609303
      vertex 0.0 0.3778803301650825 0.29211727859855924
      vertex 0.04502251125562781 0.3778803301650825 0.29211727859855924
    endloop
  endfacet
  facet normal 0.0 0.3246841762121033 0.9458224916534115
    outer loop
      vertex 0.04502251125562781 0.3778803301650825 0.29211727859855924
      vertex 0.0 0.3778803301650825 0.29211727859855924
      vertex 0.0 0.3690891445722861 0.29513513752802395
    endloop
  endfacet
  facet normal 0.0 0.3246841762121033 0.9458224916534115
    outer loop
      vertex 0.04502251125562781 0.3778803301650825 0.29211727859855924
      vertex 0.0 0.3690891445722861 0.29513513752802395
      vertex 0.04502251125562781 0.3690891445722861 0.29513513752802395
    endloop
  endfacet
  facet normal 0.0 0.4759526176207597 0.8794709237831271
    outer loop
      vertex 0.04502251125562781 0.3690891445722861 0.29513513752802395
      vertex 0.0 0.3690891445722861 0.29513513752802395
      vertex 0.0 0.3609145872936468 0.29955904948400197
    endloop
  endfacet
  facet normal 0.0 0.4759526176207597 0.8794709237831271
    outer loop
      vertex 0.04502251125562781 0.3690891445722861 0.29513513752802395
      vertex 0.0 0.3609145872936468 0.29955904948400197
      vertex 0.04502251125562781 0.3609145872936468 0.29955904948400197
    endloop
  endfacet
  facet normal 0.0 0.6142326480468271 0.789124992680743
    outer loop
      vertex 0.04502251125562781 0.3609145872936468 0.29955904948400197
      vertex 0.0 0.3609145872936468 0.29955904948400197
      vertex 0.0 0.35357965482741366 0.30526835413632813
    endloop
  endfacet
  facet normal 0.0 0.6142326480468271 0.789124992680743
    outer loop
      vertex 0.04502251125562781 0.3609145872936468 0.29955904948400197
      vertex 0.0 0.35357965482741366 0.30526835413632813
      vertex 0.04502251125562781 0.35357965482741366 0.30526835413632813
    endloop
  endfacet
  facet normal 0.0 0.7357031269059368 0.6773041481201981
    outer loop
      vertex 0.04502251125562781 0.35357965482741366 0.30526835413632813
      vertex 0.0 0.35357965482741366 0.30526835413632813
      vertex 0.0 0.34728442721360675 0.3121063731458329
    endloop
  endfacet
  facet normal 0.0 0.7357031269059368 0.6773041481201981
    outer loop
      vertex 0.04502251125562781 0.35357965482741366 0.30526835413632813
      vertex 0.0 0.34728442721360675 0.3121063731458329
      vertex 0.04502251125562781 0.34728442721360675 0.3121063731458329
    endloop
  endfacet
  facet normal 0.0 0.8371864559895011 0.5469175787152385
    outer loop
      vertex 0.04502251125562781 0.34728442721360675 0.3121063731458329
      vertex 0.0 0.34728442721360675 0.3121063731458329
      vertex 0.0 0.34220080040020007 0.31988806399125563
    endloop
  endfacet
  facet normal 0.0 0.8371864559895011 0.5469175787152385
    outer loop
      vertex 0.04502251125562781 0.34728442721360675 0.3121063731458329
      vertex 0.0 0.34220080040020007 0.31988806399125563
      vertex 0.04502251125562781 0.34220080040020007 0.31988806399125563
    endloop
  endfacet
  facet normal 0.0 0.9157722662342633 0.4016978421602008
    outer loop
      vertex 0.04502251125562781 0.34220080040020007 0.31988806399125563
      vertex 0.0 0.34220080040020007 0.31988806399125563
      vertex 0.0 0.33846708354177085 0.3284000199692446
    endloop
  endfacet
  facet normal 0.0 0.9157722662342633 0.4016978421602008
    outer loop
      vertex 0.04502251125562781 0.34220080040020007 0.31988806399125563
      vertex 0.0 0.33846708354177085 0.3284000199692446
      vertex 0.04502251125562781 0.33846708354177085 0.3284000199692446
    endloop
  endfacet
  facet normal 0.0 0.9694000341410425 0.2454864024897213
    outer loop
      vertex 0.04502251125562781 0.33846708354177085 0.3284000199692446
      vertex 0.0 0.33846708354177085 0.3284000199692446
      vertex 0.0 0.33618534267133565 0.33741037514683336
    endloop
  endfacet
  facet normal 0.0 0.9694000341410425 0.2454864024897213
    outer loop
      vertex 0.04502251125562781 0.33846708354177085 0.3284000199692446
      vertex 0.0 0.33618534267133565 0.33741037514683336
      vertex 0.04502251125562781 0.33618534267133565 0.33741037514683336
    endloop
  endfacet
  facet normal 0.0 0.9965837365262143 0.08258847432571405
    outer loop
      vertex 0.04502251125562781 0.33618534267133565 0.33741037514683336
      vertex 0.0 0.33618534267133565 0.33741037514683336
      vertex 0.0 0.3354177088544272 0.34667330661256623
    endloop
  endfacet
  facet normal 0.0 0.9965837365262143 0.08258847432571405
    outer loop
      vertex 0.04502251125562781 0.33618534267133565 0.33741037514683336
      vertex 0.0 0.3354177088544272 0.34667330661256623
      vertex 0.04502251125562781 0.3354177088544272 0.34667330661256623
    endloop
  endfacet
  facet normal 0.0 -0.9961945425335836 0.08715752076730911
    outer loop
      vertex 4.142071035517759 0.5717858929464732 0.34667330661256623
      vertex 3.9169584792396197 0.5717858929464732 0.34667330661256623
      vertex 3.9169584792396197 0.5690498749374687 0.31540112051951974
    endloop
  endfacet
  facet normal 0.0 -0.9961945425335836 0.08715752076730911
    outer loop
      vertex 4.142071035517759 0.5717858929464732 0.34667330661256623
      vertex 3.9169584792396197 0.5690498749374687 0.31540112051951974
      vertex 4.142071035517759 0.5690498749374687 0.31540112051951974
    endloop
  endfacet
  facet normal 0.0 -0.9659262212731717 0.2588175709972792
    outer loop
      vertex 4.142071035517759 0.5690498749374687 0.31540112051951974
      vertex 3.9169584792396197 0.5690498749374687 0.31540112051951974
      vertex 3.9169584792396197 0.5609251125562781 0.28507890941396696
    endloop
  endfacet
  facet normal 0.0 -0.9659262212731717 0.2588175709972792
    outer loop
      vertex 4.142071035517759 0.5690498749374687 0.31540112051951974
      vertex 3.9169584792396197 0.5609251125562781 0.28507890941396696
      vertex 4.142071035517759 0.5609251125562781 0.28507890941396696
    endloop
  endfacet
  facet normal 0.0 -0.906307312048703 0.4226192803541446
    outer loop
      vertex 4.142071035517759 0.5609251125562781 0.28507890941396696
      vertex 3.9169584792396197 0.5609251125562781 0.28507890941396696
      vertex 3.9169584792396197 0.5476583291645822 0.2566282841013106
    endloop
  endfacet
  facet normal 0.0 -0.906307312048703 0.4226192803541446
    outer loop
      vertex 4.142071035517759 0.5609251125562781 0.28507890941396696
      vertex 3.9169584792396197 0.5476583291645822 0.2566282841013106
      vertex 4.142071035517759 0.5476583291645822 0.2566282841013106
    endloop
  endfacet
  facet normal 0.0 -0.8191544266888056 0.5735730339164614
    outer loop
      vertex 4.142071035517759 0.5476583291645822 0.2566282841013106
      vertex 3.9169584792396197 0.5476583291645822 0.2566282841013106
      vertex 3.9169584792396197 0.5296529264632316 0.2309136767976588
    endloop
  endfacet
  facet normal 0.0 -0.8191544266888056 0.5735730339164614
    outer loop
      vertex 4.142071035517759 0.5476583291645822 0.2566282841013106
      vertex 3.9169584792396197 0.5296529264632316 0.2309136767976588
      vertex 4.142071035517759 0.5296529264632316 0.2309136767976588
    endloop
  endfacet
  facet normal 0.0 -0.7071067811865467 0.7071067811865483
    outer loop
      vertex 4.142071035517759 0.5296529264632316 0.2309136767976588
      vertex 3.9169584792396197 0.5296529264632316 0.2309136767976588
      vertex 3.9169584792396197 0.5074554777388693 0.20871622807329662
    endloop
  endfacet
  facet normal 0.0 -0.7071067811865467 0.7071067811865483
    outer loop
      vertex 4.142071035517759 0.5296529264632316 0.2309136767976588
      vertex 3.9169584792396197 0.5074554777388693 0.20871622807329662
      vertex 4.142071035517759 0.5074554777388693 0.20871622807329662
    endloop
  endfacet
  facet normal 0.0 -0.5735730339164625 0.8191544266888049
    outer loop
      vertex 4.142071035517759 0.5074554777388693 0.20871622807329662
      vertex 3.9169584792396197 0.5074554777388693 0.20871622807329662
      vertex 3.9169584792396197 0.48174087043521757 0.19071082537194595
    endloop
  endfacet
  facet normal 0.0 -0.5735730339164625 0.8191544266888049
    outer loop
      vertex 4.142071035517759 0.5074554777388693 0.20871622807329662
      vertex 3.9169584792396197 0.48174087043521757 0.19071082537194595
      vertex 4.142071035517759 0.48174087043521757 0.19071082537194595
    endloop
  endfacet
  facet normal 0.0 -0.42261928035414315 0.9063073120487035
    outer loop
      vertex 4.142071035517759 0.48174087043521757 0.19071082537194595
      vertex 3.9169584792396197 0.48174087043521757 0.19071082537194595
      vertex 3.9169584792396197 0.45329024512256116 0.17744404198025013
    endloop
  endfacet
  facet normal 0.0 -0.42261928035414315 0.9063073120487035
    outer loop
      vertex 4.142071035517759 0.48174087043521757 0.19071082537194595
      vertex 3.9169584792396197 0.45329024512256116 0.17744404198025013
      vertex 4.142071035517759 0.45329024512256116 0.17744404198025013
    endloop
  endfacet
  facet normal 0.0 -0.2588186466535452 0.9659259330530615
    outer loop
      vertex 4.142071035517759 0.45329024512256116 0.17744404198025013
      vertex 3.9169584792396197 0.45329024512256116 0.17744404198025013
      vertex 3.9169584792396197 0.4229681690845422 0.1693192795990595
    endloop
  endfacet
  facet normal 0.0 -0.2588186466535452 0.9659259330530615
    outer loop
      vertex 4.142071035517759 0.45329024512256116 0.17744404198025013
      vertex 3.9169584792396197 0.4229681690845422 0.1693192795990595
      vertex 4.142071035517759 0.4229681690845422 0.1693192795990595
    endloop
  endfacet
  facet normal 0.0 -0.08715722912528674 0.996194568049436
    outer loop
      vertex 4.142071035517759 0.4229681690845422 0.1693192795990595
      vertex 3.9169584792396197 0.4229681690845422 0.1693192795990595
      vertex 3.9169584792396197 0.39169587754877433 0.16658326159005504
    endloop
  endfacet
  facet normal 2.211719679205154e-09 -0.08715724492533573 0.9961945666670868
    outer loop
      vertex 4.142071035517759 0.4229681690845422 0.1693192795990595
      vertex 3.9169584792396197 0.39169587754877433 0.16658326159005504
      vertex 4.142071035517759 0.3916958832612756 0.16658326159005504
    endloop
  endfacet
  facet normal -2.2117182788511546e-09 0.08715718977493221 0.9961945714922041
    outer loop
      vertex 4.142071035517759 0.3916958832612756 0.16658326159005504
      vertex 3.9169584792396197 0.39169587754877433 0.16658326159005504
      vertex 3.9169584792396197 0.3604235717858929 0.1693192795990595
    endloop
  endfacet
  facet normal 0.0 0.08715717397490312 0.9961945728745507
    outer loop
      vertex 4.142071035517759 0.3916958832612756 0.16658326159005504
      vertex 3.9169584792396197 0.3604235717858929 0.1693192795990595
      vertex 4.142071035517759 0.3604235717858929 0.1693192795990595
    endloop
  endfacet
  facet normal 0.0 0.25881828810049806 0.9659260291268311
    outer loop
      vertex 4.142071035517759 0.3604235717858929 0.1693192795990595
      vertex 3.9169584792396197 0.3604235717858929 0.1693192795990595
      vertex 3.9169584792396197 0.3301014507253626 0.17744404198025013
    endloop
  endfacet
  facet normal 0.0 0.25881828810049806 0.9659260291268311
    outer loop
      vertex 4.142071035517759 0.3604235717858929 0.1693192795990595
      vertex 3.9169584792396197 0.3301014507253626 0.17744404198025013
      vertex 4.142071035517759 0.3301014507253626 0.17744404198025013
    endloop
  endfacet
  facet normal 0.0 0.42261928035414453 0.906307312048703
    outer loop
      vertex 4.142071035517759 0.3301014507253626 0.17744404198025013
      vertex 3.9169584792396197 0.3301014507253626 0.17744404198025013
      vertex 3.9169584792396197 0.3016508254127063 0.19071082537194595
    endloop
  endfacet
  facet normal 0.0 0.42261928035414453 0.906307312048703
    outer loop
      vertex 4.142071035517759 0.3301014507253626 0.17744404198025013
      vertex 3.9169584792396197 0.3016508254127063 0.19071082537194595
      vertex 4.142071035517759 0.3016508254127063 0.19071082537194595
    endloop
  endfacet
  facet normal 0.0 0.5735730339164616 0.8191544266888054
    outer loop
      vertex 4.142071035517759 0.3016508254127063 0.19071082537194595
      vertex 3.9169584792396197 0.3016508254127063 0.19071082537194595
      vertex 3.9169584792396197 0.2759362181090545 0.20871622807329662
    endloop
  endfacet
  facet normal 0.0 0.5735730339164616 0.8191544266888054
    outer loop
      vertex 4.142071035517759 0.3016508254127063 0.19071082537194595
      vertex 3.9169584792396197 0.2759362181090545 0.20871622807329662
      vertex 4.142071035517759 0.2759362181090545 0.20871622807329662
    endloop
  endfacet
  facet normal 0.0 0.7071067811865475 0.7071067811865475
    outer loop
      vertex 4.142071035517759 0.2759362181090545 0.20871622807329662
      vertex 3.9169584792396197 0.2759362181090545 0.20871622807329662
      vertex 3.9169584792396197 0.2537387693846923 0.2309136767976588
    endloop
  endfacet
  facet normal 0.0 0.7071067811865475 0.7071067811865475
    outer loop
      vertex 4.142071035517759 0.2759362181090545 0.20871622807329662
      vertex 3.9169584792396197 0.2537387693846923 0.2309136767976588
      vertex 4.142071035517759 0.2537387693846923 0.2309136767976588
    endloop
  endfacet
  facet normal 0.0 0.8191544266888051 0.573573033916462
    outer loop
      vertex 4.142071035517759 0.2537387693846923 0.2309136767976588
      vertex 3.9169584792396197 0.2537387693846923 0.2309136767976588
      vertex 3.9169584792396197 0.23573336668334163 0.2566282841013106
    endloop
  endfacet
  facet normal 0.0 0.8191544266888051 0.573573033916462
    outer loop
      vertex 4.142071035517759 0.2537387693846923 0.2309136767976588
      vertex 3.9169584792396197 0.23573336668334163 0.2566282841013106
      vertex 4.142071035517759 0.23573336668334163 0.2566282841013106
    endloop
  endfacet
  facet normal 0.0 0.906307312048703 0.4226192803541446
    outer loop
      vertex 4.142071035517759 0.23573336668334163 0.2566282841013106
      vertex 3.9169584792396197 0.23573336668334163 0.2566282841013106
      vertex 3.9169584792396197 0.2224665832916458 0.28507890941396696
    endloop
  endfacet
  facet normal 0.0 0.906307312048703 0.4226192803541446
    outer loop
      vertex 4.142071035517759 0.23573336668334163 0.2566282841013106
      vertex 3.9169584792396197 0.2224665832916458 0.28507890941396696
      vertex 4.142071035517759 0.2224665832916458 0.28507890941396696
    endloop
  endfacet
  facet normal 0.0 0.965926221273172 0.25881757099727837
    outer loop
      vertex 4.142071035517759 0.2224665832916458 0.28507890941396696
      vertex 3.9169584792396197 0.2224665832916458 0.28507890941396696
      vertex 3.9169584792396197 0.21434182091045517 0.31540112051951974
    endloop
  endfacet
  facet normal 0.0 0.965926221273172 0.25881757099727837
    outer loop
      vertex 4.142071035517759 0.2224665832916458 0.28507890941396696
      vertex 3.9169584792396197 0.21434182091045517 0.31540112051951974
      vertex 4.142071035517759 0.21434182091045517 0.31540112051951974
    endloop
  endfacet
  facet normal 0.0 0.9961945425335836 0.08715752076730998
    outer loop
      vertex 4.142071035517759 0.21434182091045517 0.31540112051951974
      vertex 3.9169584792396197 0.21434182091045517 0.31540112051951974
      vertex 3.9169584792396197 0.21160580290145067 0.34667330661256623
    endloop
  endfacet
  facet normal 0.0 0.9961945425335836 0.08715752076730998
    outer loop
      vertex 4.142071035517759 0.21434182091045517 0.31540112051951974
      vertex 3.9169584792396197 0.21160580290145067 0.34667330661256623
      vertex 4.142071035517759 0.21160580290145067 0.34667330661256623
    endloop
  endfacet
endsolid thingi10k_188496
