solid thingi10k_188501
  facet normal 0.08715512957595781 -0.996194751737128 0.0
    outer loop
      vertex 1.1395812310030395 0.0 9.0
      vertex 1.1395812310030395 0.0 0.0
      vertex 1.198208434650456 0.0051291793313070645 0.0
    endloop
  endfacet
  facet normal 0.08715512957595781 -0.996194751737128 0.0
    outer loop
      vertex 1.1395812310030395 0.0 9.0
      vertex 1.198208434650456 0.0051291793313070645 0.0
      vertex 1.198208434650456 0.0051291793313070645 9.0
    endloop
  endfacet
  facet normal 0.2588247613595183 -0.9659242946044935 0.0
    outer loop
      vertex 1.198208434650456 0.0051291793313070645 9.0
      vertex 1.198208434650456 0.0051291793313070645 0.0
      vertex 1.2550547872340427 0.020361474164133836 0.0
    endloop
  endfacet
  facet normal 0.2588247613595183 -0.9659242946044935 0.0
    outer loop
      vertex 1.198208434650456 0.0051291793313070645 9.0
      vertex 1.2550547872340427 0.020361474164133836 0.0
      vertex 1.2550547872340427 0.020361474164133836 9.0
    endloop
  endfacet
  facet normal 0.42261062016391543 -0.9063113503232048 0.0
    outer loop
      vertex 1.2550547872340427 0.020361474164133836 9.0
      vertex 1.2550547872340427 0.020361474164133836 0.0
      vertex 1.3083920972644378 0.04523252279635262 0.0
    endloop
  endfacet
  facet normal 0.42261062016391543 -0.9063113503232048 0.0
    outer loop
      vertex 1.2550547872340427 0.020361474164133836 9.0
      vertex 1.3083920972644378 0.04523252279635262 0.0
      vertex 1.3083920972644378 0.04523252279635262 9.0
    endloop
  endfacet
  facet normal 0.573576204115187 -0.8191522069022418 0.0
    outer loop
      vertex 1.3083920972644378 0.04523252279635262 9.0
      vertex 1.3083920972644378 0.04523252279635262 0.0
      vertex 1.3566009118541036 0.07898867781155026 0.0
    endloop
  endfacet
  facet normal 0.573576204115187 -0.8191522069022418 0.0
    outer loop
      vertex 1.3083920972644378 0.04523252279635262 9.0
      vertex 1.3566009118541036 0.07898867781155026 0.0
      vertex 1.3566009118541036 0.07898867781155026 9.0
    endloop
  endfacet
  facet normal 0.7071067811865482 -0.7071067811865466 0.0
    outer loop
      vertex 1.3566009118541036 0.07898867781155026 9.0
      vertex 1.3566009118541036 0.07898867781155026 0.0
      vertex 1.3982149696048634 0.12060273556231013 0.0
    endloop
  endfacet
  facet normal 0.7071067811865482 -0.7071067811865466 0.0
    outer loop
      vertex 1.3566009118541036 0.07898867781155026 9.0
      vertex 1.3982149696048634 0.12060273556231013 0.0
      vertex 1.3982149696048634 0.12060273556231013 9.0
    endloop
  endfacet
  facet normal 0.8191522069022409 -0.5735762041151885 0.0
    outer loop
      vertex 1.3982149696048634 0.12060273556231013 9.0
      vertex 1.3982149696048634 0.12060273556231013 0.0
      vertex 1.431971124620061 0.16881155015197577 0.0
    endloop
  endfacet
  facet normal 0.8191522069022409 -0.5735762041151885 0.0
    outer loop
      vertex 1.3982149696048634 0.12060273556231013 9.0
      vertex 1.431971124620061 0.16881155015197577 0.0
      vertex 1.431971124620061 0.16881155015197577 9.0
    endloop
  endfacet
  facet normal 0.906297997277822 -0.4226392553114406 0.0
    outer loop
      vertex 1.431971124620061 0.16881155015197577 9.0
      vertex 1.431971124620061 0.16881155015197577 0.0
      vertex 1.4568442249240126 0.22214886018237093 0.0
    endloop
  endfacet
  facet normal 0.906297997277822 -0.4226392553114406 0.0
    outer loop
      vertex 1.431971124620061 0.16881155015197577 9.0
      vertex 1.4568442249240126 0.22214886018237093 0.0
      vertex 1.4568442249240126 0.22214886018237093 9.0
    endloop
  endfacet
  facet normal 0.9659330097351073 -0.25879223462862444 0.0
    outer loop
      vertex 1.4568442249240126 0.22214886018237093 9.0
      vertex 1.4568442249240126 0.22214886018237093 0.0
      vertex 1.4720744680851066 0.27899521276595757 0.0
    endloop
  endfacet
  facet normal 0.9659330097351073 -0.25879223462862444 0.0
    outer loop
      vertex 1.4568442249240126 0.22214886018237093 9.0
      vertex 1.4720744680851066 0.27899521276595757 0.0
      vertex 1.4720744680851066 0.27899521276595757 9.0
    endloop
  endfacet
  facet normal 0.996194751737128 -0.0871551295759581 0.0
    outer loop
      vertex 1.4720744680851066 0.27899521276595757 9.0
      vertex 1.4720744680851066 0.27899521276595757 0.0
      vertex 1.4772036474164136 0.337622416413374 0.0
    endloop
  endfacet
  facet normal 0.996194751737128 -0.0871551295759581 0.0
    outer loop
      vertex 1.4720744680851066 0.27899521276595757 9.0
      vertex 1.4772036474164136 0.337622416413374 0.0
      vertex 1.4772036474164136 0.337622416413374 9.0
    endloop
  endfacet
  facet normal 1.0 0.0 -0.0
    outer loop
      vertex 1.4772036474164136 1.0028031155015198 0.0
      vertex 1.4772036474164136 1.0028031155015198 9.0
      vertex 1.4772036474164136 0.337622416413374 0.0
    endloop
  endfacet
  facet normal 1.0 0.0 0.0
    outer loop
      vertex 1.4772036474164136 0.337622416413374 0.0
      vertex 1.4772036474164136 1.0028031155015198 9.0
      vertex 1.4772036474164136 0.337622416413374 9.0
    endloop
  endfacet
  facet normal 0.996194751737128 0.08715512957595803 0.0
    outer loop
      vertex 1.4772036474164136 1.0028031155015198 9.0
      vertex 1.4772036474164136 1.0028031155015198 0.0
      vertex 1.4720744680851066 1.0614303191489363 0.0
    endloop
  endfacet
  facet normal 0.996194751737128 0.08715512957595803 0.0
    outer loop
      vertex 1.4772036474164136 1.0028031155015198 9.0
      vertex 1.4720744680851066 1.0614303191489363 0.0
      vertex 1.4720744680851066 1.0614303191489363 9.0
    endloop
  endfacet
  facet normal 0.9659330097351073 0.2587922346286241 0.0
    outer loop
      vertex 1.4720744680851066 1.0614303191489363 9.0
      vertex 1.4720744680851066 1.0614303191489363 0.0
      vertex 1.4568442249240126 1.118276671732523 0.0
    endloop
  endfacet
  facet normal 0.9659330097351073 0.2587922346286241 0.0
    outer loop
      vertex 1.4720744680851066 1.0614303191489363 9.0
      vertex 1.4568442249240126 1.118276671732523 0.0
      vertex 1.4568442249240126 1.118276671732523 9.0
    endloop
  endfacet
  facet normal 0.9063000729527315 0.42263480425288397 0.0
    outer loop
      vertex 1.4568442249240126 1.118276671732523 9.0
      vertex 1.4568442249240126 1.118276671732523 0.0
      vertex 1.431971124620061 1.1716146656534958 0.0
    endloop
  endfacet
  facet normal 0.9063000729527315 0.42263480425288397 0.0
    outer loop
      vertex 1.4568442249240126 1.118276671732523 9.0
      vertex 1.431971124620061 1.1716146656534958 0.0
      vertex 1.431971124620061 1.1716146656534958 9.0
    endloop
  endfacet
  facet normal 0.8191483838236557 0.5735816640018168 0.0
    outer loop
      vertex 1.431971124620061 1.1716146656534958 9.0
      vertex 1.431971124620061 1.1716146656534958 0.0
      vertex 1.3982149696048634 1.2198227963525838 0.0
    endloop
  endfacet
  facet normal 0.8191483838236557 0.5735816640018168 0.0
    outer loop
      vertex 1.431971124620061 1.1716146656534958 9.0
      vertex 1.3982149696048634 1.2198227963525838 0.0
      vertex 1.3982149696048634 1.2198227963525838 9.0
    endloop
  endfacet
  facet normal 0.7071067811865475 0.7071067811865475 0.0
    outer loop
      vertex 1.3982149696048634 1.2198227963525838 9.0
      vertex 1.3982149696048634 1.2198227963525838 0.0
      vertex 1.3566009118541036 1.2614368541033436 0.0
    endloop
  endfacet
  facet normal 0.7071067811865475 0.7071067811865475 0.0
    outer loop
      vertex 1.3982149696048634 1.2198227963525838 9.0
      vertex 1.3566009118541036 1.2614368541033436 0.0
      vertex 1.3566009118541036 1.2614368541033436 9.0
    endloop
  endfacet
  facet normal 0.5735684065623485 0.8191576667489161 0.0
    outer loop
      vertex 1.3566009118541036 1.2614368541033436 9.0
      vertex 1.3566009118541036 1.2614368541033436 0.0
      vertex 1.3083920972644378 1.2951923252279638 0.0
    endloop
  endfacet
  facet normal 0.5735684065623485 0.8191576667489161 0.0
    outer loop
      vertex 1.3566009118541036 1.2614368541033436 9.0
      vertex 1.3083920972644378 1.2951923252279638 0.0
      vertex 1.3083920972644378 1.2951923252279638 9.0
    endloop
  endfacet
  facet normal 0.42262016535372154 0.9063068993648857 0.0
    outer loop
      vertex 1.3083920972644378 1.2951923252279638 9.0
      vertex 1.3083920972644378 1.2951923252279638 0.0
      vertex 1.2550547872340427 1.32006405775076 0.0
    endloop
  endfacet
  facet normal 0.42262016535372154 0.9063068993648857 0.0
    outer loop
      vertex 1.3083920972644378 1.2951923252279638 9.0
      vertex 1.2550547872340427 1.32006405775076 0.0
      vertex 1.2550547872340427 1.32006405775076 9.0
    endloop
  endfacet
  facet normal 0.25882476135951765 0.9659242946044937 0.0
    outer loop
      vertex 1.2550547872340427 1.32006405775076 9.0
      vertex 1.2550547872340427 1.32006405775076 0.0
      vertex 1.198208434650456 1.3352963525835868 0.0
    endloop
  endfacet
  facet normal 0.25882476135951765 0.9659242946044937 0.0
    outer loop
      vertex 1.2550547872340427 1.32006405775076 9.0
      vertex 1.198208434650456 1.3352963525835868 0.0
      vertex 1.198208434650456 1.3352963525835868 9.0
    endloop
  endfacet
  facet normal 0.08715512957595803 0.996194751737128 0.0
    outer loop
      vertex 1.198208434650456 1.3352963525835868 9.0
      vertex 1.198208434650456 1.3352963525835868 0.0
      vertex 1.1395812310030395 1.3404255319148939 0.0
    endloop
  endfacet
  facet normal 0.08715512957595803 0.996194751737128 0.0
    outer loop
      vertex 1.198208434650456 1.3352963525835868 9.0
      vertex 1.1395812310030395 1.3404255319148939 0.0
      vertex 1.1395812310030395 1.3404255319148939 9.0
    endloop
  endfacet
  facet normal 0.0 1.0 0.0
    outer loop
      vertex 0.337622416413374 1.3404255319148939 0.0
      vertex 0.337622416413374 1.3404255319148939 9.0
      vertex 1.1395812310030395 1.3404255319148939 0.0
    endloop
  endfacet
  facet normal 0.0 1.0 -0.0
    outer loop
      vertex 1.1395812310030395 1.3404255319148939 0.0
      vertex 0.337622416413374 1.3404255319148939 9.0
      vertex 1.1395812310030395 1.3404255319148939 9.0
    endloop
  endfacet
  facet normal -0.0871551295759581 0.996194751737128 0.0
    outer loop
      vertex 0.337622416413374 1.3404255319148939 9.0
      vertex 0.337622416413374 1.3404255319148939 0.0
      vertex 0.27899521276595757 1.3352963525835868 0.0
    endloop
  endfacet
  facet normal -0.0871551295759581 0.996194751737128 0.0
    outer loop
      vertex 0.337622416413374 1.3404255319148939 9.0
      vertex 0.27899521276595757 1.3352963525835868 0.0
      vertex 0.27899521276595757 1.3352963525835868 9.0
    endloop
  endfacet
  facet normal -0.25882476135951804 0.9659242946044936 0.0
    outer loop
      vertex 0.27899521276595757 1.3352963525835868 9.0
      vertex 0.27899521276595757 1.3352963525835868 0.0
      vertex 0.22214886018237093 1.32006405775076 0.0
    endloop
  endfacet
  facet normal -0.25882476135951804 0.9659242946044936 0.0
    outer loop
      vertex 0.27899521276595757 1.3352963525835868 9.0
      vertex 0.22214886018237093 1.32006405775076 0.0
      vertex 0.22214886018237093 1.32006405775076 9.0
    endloop
  endfacet
  facet normal -0.4226201653537212 0.906306899364886 0.0
    outer loop
      vertex 0.22214886018237093 1.32006405775076 9.0
      vertex 0.22214886018237093 1.32006405775076 0.0
      vertex 0.16881155015197577 1.2951923252279638 0.0
    endloop
  endfacet
  facet normal -0.4226201653537212 0.906306899364886 0.0
    outer loop
      vertex 0.22214886018237093 1.32006405775076 9.0
      vertex 0.16881155015197577 1.2951923252279638 0.0
      vertex 0.16881155015197577 1.2951923252279638 9.0
    endloop
  endfacet
  facet normal -0.5735684065623494 0.8191576667489157 0.0
    outer loop
      vertex 0.16881155015197577 1.2951923252279638 9.0
      vertex 0.16881155015197577 1.2951923252279638 0.0
      vertex 0.12060273556231013 1.2614368541033436 0.0
    endloop
  endfacet
  facet normal -0.5735684065623494 0.8191576667489157 0.0
    outer loop
      vertex 0.16881155015197577 1.2951923252279638 9.0
      vertex 0.12060273556231013 1.2614368541033436 0.0
      vertex 0.12060273556231013 1.2614368541033436 9.0
    endloop
  endfacet
  facet normal -0.7071067811865466 0.7071067811865482 0.0
    outer loop
      vertex 0.12060273556231013 1.2614368541033436 9.0
      vertex 0.12060273556231013 1.2614368541033436 0.0
      vertex 0.07898867781155026 1.2198227963525838 0.0
    endloop
  endfacet
  facet normal -0.7071067811865466 0.7071067811865482 0.0
    outer loop
      vertex 0.12060273556231013 1.2614368541033436 9.0
      vertex 0.07898867781155026 1.2198227963525838 0.0
      vertex 0.07898867781155026 1.2198227963525838 9.0
    endloop
  endfacet
  facet normal -0.8191483838236561 0.5735816640018163 0.0
    outer loop
      vertex 0.07898867781155026 1.2198227963525838 9.0
      vertex 0.07898867781155026 1.2198227963525838 0.0
      vertex 0.04523252279635262 1.1716146656534958 0.0
    endloop
  endfacet
  facet normal -0.8191483838236561 0.5735816640018163 0.0
    outer loop
      vertex 0.07898867781155026 1.2198227963525838 9.0
      vertex 0.04523252279635262 1.1716146656534958 0.0
      vertex 0.04523252279635262 1.1716146656534958 9.0
    endloop
  endfacet
  facet normal -0.9063000729527327 0.4226348042528817 0.0
    outer loop
      vertex 0.04523252279635262 1.1716146656534958 9.0
      vertex 0.04523252279635262 1.1716146656534958 0.0
      vertex 0.02035942249240127 1.118276671732523 0.0
    endloop
  endfacet
  facet normal -0.9063000729527327 0.4226348042528817 0.0
    outer loop
      vertex 0.04523252279635262 1.1716146656534958 9.0
      vertex 0.02035942249240127 1.118276671732523 0.0
      vertex 0.02035942249240127 1.118276671732523 9.0
    endloop
  endfacet
  facet normal -0.9659330097351065 0.2587922346286273 0.0
    outer loop
      vertex 0.02035942249240127 1.118276671732523 9.0
      vertex 0.02035942249240127 1.118276671732523 0.0
      vertex 0.0051291793313070645 1.0614303191489363 0.0
    endloop
  endfacet
  facet normal -0.9659330097351065 0.2587922346286273 0.0
    outer loop
      vertex 0.02035942249240127 1.118276671732523 9.0
      vertex 0.0051291793313070645 1.0614303191489363 0.0
      vertex 0.0051291793313070645 1.0614303191489363 9.0
    endloop
  endfacet
  facet normal -0.996194751737128 0.08715512957595781 0.0
    outer loop
      vertex 0.0051291793313070645 1.0614303191489363 9.0
      vertex 0.0051291793313070645 1.0614303191489363 0.0
      vertex 0.0 1.0028031155015198 0.0
    endloop
  endfacet
  facet normal -0.996194751737128 0.08715512957595781 0.0
    outer loop
      vertex 0.0051291793313070645 1.0614303191489363 9.0
      vertex 0.0 1.0028031155015198 0.0
      vertex 0.0 1.0028031155015198 9.0
    endloop
  endfacet
  facet normal -1.0 0.0 0.0
    outer loop
      vertex 0.0 0.337622416413374 0.0
      vertex 0.0 0.337622416413374 9.0
      vertex 0.0 1.0028031155015198 0.0
    endloop
  endfacet
  facet normal -1.0 0.0 0.0
    outer loop
      vertex 0.0 1.0028031155015198 0.0
      vertex 0.0 0.337622416413374 9.0
      vertex 0.0 1.0028031155015198 9.0
    endloop
  endfacet
  facet normal -0.996194751737128 -0.08715512957595789 -0.0
    outer loop
      vertex 0.0 0.337622416413374 9.0
      vertex 0.0 0.337622416413374 0.0
      vertex 0.0051291793313070645 0.27899521276595757 0.0
    endloop
  endfacet
  facet normal -0.996194751737128 -0.08715512957595789 0.0
    outer loop
      vertex 0.0 0.337622416413374 9.0
      vertex 0.0051291793313070645 0.27899521276595757 0.0
      vertex 0.0051291793313070645 0.27899521276595757 9.0
    endloop
  endfacet
  facet normal -0.9659330097351065 -0.2587922346286277 -0.0
    outer loop
      vertex 0.0051291793313070645 0.27899521276595757 9.0
      vertex 0.0051291793313070645 0.27899521276595757 0.0
      vertex 0.02035942249240127 0.22214886018237093 0.0
    endloop
  endfacet
  facet normal -0.9659330097351065 -0.2587922346286277 0.0
    outer loop
      vertex 0.0051291793313070645 0.27899521276595757 9.0
      vertex 0.02035942249240127 0.22214886018237093 0.0
      vertex 0.02035942249240127 0.22214886018237093 9.0
    endloop
  endfacet
  facet normal -0.9062979972778229 -0.42263925531143826 -0.0
    outer loop
      vertex 0.02035942249240127 0.22214886018237093 9.0
      vertex 0.02035942249240127 0.22214886018237093 0.0
      vertex 0.04523252279635262 0.16881155015197577 0.0
    endloop
  endfacet
  facet normal -0.9062979972778229 -0.42263925531143826 0.0
    outer loop
      vertex 0.02035942249240127 0.22214886018237093 9.0
      vertex 0.04523252279635262 0.16881155015197577 0.0
      vertex 0.04523252279635262 0.16881155015197577 9.0
    endloop
  endfacet
  facet normal -0.8191522069022412 -0.573576204115188 -0.0
    outer loop
      vertex 0.04523252279635262 0.16881155015197577 9.0
      vertex 0.04523252279635262 0.16881155015197577 0.0
      vertex 0.07898867781155026 0.12060273556231013 0.0
    endloop
  endfacet
  facet normal -0.8191522069022412 -0.573576204115188 0.0
    outer loop
      vertex 0.04523252279635262 0.16881155015197577 9.0
      vertex 0.07898867781155026 0.12060273556231013 0.0
      vertex 0.07898867781155026 0.12060273556231013 9.0
    endloop
  endfacet
  facet normal -0.7071067811865476 -0.7071067811865476 -0.0
    outer loop
      vertex 0.07898867781155026 0.12060273556231013 9.0
      vertex 0.07898867781155026 0.12060273556231013 0.0
      vertex 0.12060273556231013 0.07898867781155026 0.0
    endloop
  endfacet
  facet normal -0.7071067811865476 -0.7071067811865476 0.0
    outer loop
      vertex 0.07898867781155026 0.12060273556231013 9.0
      vertex 0.12060273556231013 0.07898867781155026 0.0
      vertex 0.12060273556231013 0.07898867781155026 9.0
    endloop
  endfacet
  facet normal -0.573576204115188 -0.8191522069022412 -0.0
    outer loop
      vertex 0.12060273556231013 0.07898867781155026 9.0
      vertex 0.12060273556231013 0.07898867781155026 0.0
      vertex 0.16881155015197577 0.04523252279635262 0.0
    endloop
  endfacet
  facet normal -0.573576204115188 -0.8191522069022412 0.0
    outer loop
      vertex 0.12060273556231013 0.07898867781155026 9.0
      vertex 0.16881155015197577 0.04523252279635262 0.0
      vertex 0.16881155015197577 0.04523252279635262 9.0
    endloop
  endfacet
  facet normal -0.42261062016391504 -0.9063113503232049 -0.0
    outer loop
      vertex 0.16881155015197577 0.04523252279635262 9.0
      vertex 0.16881155015197577 0.04523252279635262 0.0
      vertex 0.22214886018237093 0.020361474164133836 0.0
    endloop
  endfacet
  facet normal -0.42261062016391504 -0.9063113503232049 0.0
    outer loop
      vertex 0.16881155015197577 0.04523252279635262 9.0
      vertex 0.22214886018237093 0.020361474164133836 0.0
      vertex 0.22214886018237093 0.020361474164133836 9.0
    endloop
  endfacet
  facet normal -0.25882476135951865 -0.9659242946044934 -0.0
    outer loop
      vertex 0.22214886018237093 0.020361474164133836 9.0
      vertex 0.22214886018237093 0.020361474164133836 0.0
      vertex 0.27899521276595757 0.0051291793313070645 0.0
    endloop
  endfacet
  facet normal -0.25882476135951865 -0.9659242946044934 0.0
    outer loop
      vertex 0.22214886018237093 0.020361474164133836 9.0
      vertex 0.27899521276595757 0.0051291793313070645 0.0
      vertex 0.27899521276595757 0.0051291793313070645 9.0
    endloop
  endfacet
  facet normal -0.08715512957595789 -0.996194751737128 -0.0
    outer loop
      vertex 0.27899521276595757 0.0051291793313070645 9.0
      vertex 0.27899521276595757 0.0051291793313070645 0.0
      vertex 0.337622416413374 0.0 0.0
    endloop
  endfacet
  facet normal -0.08715512957595789 -0.996194751737128 0.0
    outer loop
      vertex 0.27899521276595757 0.0051291793313070645 9.0
      vertex 0.337622416413374 0.0 0.0
      vertex 0.337622416413374 0.0 9.0
    endloop
  endfacet
  facet normal 0.0 -1.0 0.0
    outer loop
      vertex 1.1395812310030395 0.0 0.0
      vertex 1.1395812310030395 0.0 9.0
      vertex 0.337622416413374 0.0 0.0
    endloop
  endfacet
  facet normal 0.0 -1.0 0.0
    outer loop
      vertex 0.337622416413374 0.0 0.0
      vertex 1.1395812310030395 0.0 9.0
      vertex 0.337622416413374 0.0 9.0
    endloop
  endfacet
  facet normal 0.0 0.0 1.0
    outer loop
      vertex 0.0 0.337622416413374 9.0
      vertex 1.4772036474164136 0.337622416413374 9.0
      vertex 0.0 1.0028031155015198 9.0
    endloop
  endfacet
  facet normal -0.0 0.0 1.0
    outer loop
      vertex 0.0 1.0028031155015198 9.0
      vertex 1.4772036474164136 0.337622416413374 9.0
      vertex 1.4772036474164136 1.0028031155015198 9.0
    endloop
  endfacet
  facet normal 0.0 0.0 1.0
    outer loop
      vertex 0.0 1.0028031155015198 9.0
      vertex 1.4772036474164136 1.0028031155015198 9.0
      vertex 1.1395812310030395 1.3404255319148939 9.0
    endloop
  endfacet
  facet normal 0.0 0.0 1.0
    outer loop
      vertex 1.4720744680851066 1.0614303191489363 9.0
      vertex 1.4568442249240126 1.118276671732523 9.0
      vertex 1.431971124620061 1.1716146656534958 9.0
    endloop
  endfacet
  facet normal 0.0 0.0 1.0
    outer loop
      vertex 1.4772036474164136 1.0028031155015198 9.0
      vertex 1.3566009118541036 1.2614368541033436 9.0
      vertex 1.3083920972644378 1.2951923252279638 9.0
    endloop
  endfacet
  facet normal 0.0 0.0 1.0
    outer loop
      vertex 1.4720744680851066 1.0614303191489363 9.0
      vertex 1.431971124620061 1.1716146656534958 9.0
      vertex 1.4772036474164136 1.0028031155015198 9.0
    endloop
  endfacet
  facet normal 0.0 0.0 1.0
    outer loop
      vertex 1.4772036474164136 1.0028031155015198 9.0
      vertex 1.431971124620061 1.1716146656534958 9.0
      vertex 1.3982149696048634 1.2198227963525838 9.0
    endloop
  endfacet
  facet normal 0.0 0.0 1.0
    outer loop
      vertex 1.4772036474164136 1.0028031155015198 9.0
      vertex 1.3982149696048634 1.2198227963525838 9.0
      vertex 1.3566009118541036 1.2614368541033436 9.0
    endloop
  endfacet
  facet normal 0.0 0.0 1.0
    outer loop
      vertex 1.3083920972644378 1.2951923252279638 9.0
      vertex 1.2550547872340427 1.32006405775076 9.0
      vertex 1.4772036474164136 1.0028031155015198 9.0
    endloop
  endfacet
  facet normal 0.0 0.0 1.0
    outer loop
      vertex 1.4772036474164136 1.0028031155015198 9.0
      vertex 1.2550547872340427 1.32006405775076 9.0
      vertex 1.198208434650456 1.3352963525835868 9.0
    endloop
  endfacet
  facet normal 0.0 0.0 1.0
    outer loop
      vertex 1.4772036474164136 1.0028031155015198 9.0
      vertex 1.198208434650456 1.3352963525835868 9.0
      vertex 1.1395812310030395 1.3404255319148939 9.0
    endloop
  endfacet
  facet normal 0.0 0.0 1.0
    outer loop
      vertex 1.1395812310030395 1.3404255319148939 9.0
      vertex 0.337622416413374 1.3404255319148939 9.0
      vertex 0.0 1.0028031155015198 9.0
    endloop
  endfacet
  facet normal 0.0 0.0 1.0
    outer loop
      vertex 0.0 1.0028031155015198 9.0
      vertex 0.337622416413374 1.3404255319148939 9.0
      vertex 0.27899521276595757 1.3352963525835868 9.0
    endloop
  endfacet
  facet normal 0.0 0.0 1.0
    outer loop
      vertex 0.0 1.0028031155015198 9.0
      vertex 0.27899521276595757 1.3352963525835868 9.0
      vertex 0.22214886018237093 1.32006405775076 9.0
    endloop
  endfacet
  facet normal 0.0 0.0 1.0
    outer loop
      vertex 0.02035942249240127 1.118276671732523 9.0
      vertex 0.12060273556231013 1.2614368541033436 9.0
      vertex 0.04523252279635262 1.1716146656534958 9.0
    endloop
  endfacet
  facet normal 0.0 0.0 1.0
    outer loop
      vertex 0.04523252279635262 1.1716146656534958 9.0
      vertex 0.12060273556231013 1.2614368541033436 9.0
      vertex 0.07898867781155026 1.2198227963525838 9.0
    endloop
  endfacet
  facet normal -0.0 -0.0 1.0
    outer loop
      vertex 0.0051291793313070645 0.27899521276595757 9.0
      vertex 0.27899521276595757 0.0051291793313070645 9.0
      vertex 0.0 0.337622416413374 9.0
    endloop
  endfacet
  facet normal 0.0 0.0 1.0
    outer loop
      vertex 0.0 0.337622416413374 9.0
      vertex 0.27899521276595757 0.0051291793313070645 9.0
      vertex 0.337622416413374 0.0 9.0
    endloop
  endfacet
  facet normal -0.0 0.0 1.0
    outer loop
      vertex 0.0 0.337622416413374 9.0
      vertex 0.337622416413374 0.0 9.0
      vertex 1.4772036474164136 0.337622416413374 9.0
    endloop
  endfacet
  facet normal 0.0 0.0 1.0
    outer loop
      vertex 0.337622416413374 0.0 9.0
      vertex 1.1395812310030395 0.0 9.0
      vertex 1.4772036474164136 0.337622416413374 9.0
    endloop
  endfacet
  facet normal 0.0 0.0 1.0
    outer loop
      vertex 1.4772036474164136 0.337622416413374 9.0
      vertex 1.1395812310030395 0.0 9.0
      vertex 1.198208434650456 0.0051291793313070645 9.0
    endloop
  endfacet
  facet normal 0.0 0.0 1.0
    outer loop
      vertex 1.4772036474164136 0.337622416413374 9.0
      vertex 1.198208434650456 0.0051291793313070645 9.0
      vertex 1.2550547872340427 0.020361474164133836 9.0
    endloop
  endfacet
  facet normal 0.0 0.0 1.0
    outer loop
      vertex 1.2550547872340427 0.020361474164133836 9.0
      vertex 1.3083920972644378 0.04523252279635262 9.0
      vertex 1.4772036474164136 0.337622416413374 9.0
    endloop
  endfacet
  facet normal 0.0 0.0 1.0
    outer loop
      vertex 1.4772036474164136 0.337622416413374 9.0
      vertex 1.3083920972644378 0.04523252279635262 9.0
      vertex 1.3566009118541036 0.07898867781155026 9.0
    endloop
  endfacet
  facet normal 0.0 0.0 1.0
    outer loop
      vertex 1.4772036474164136 0.337622416413374 9.0
      vertex 1.3566009118541036 0.07898867781155026 9.0
      vertex 1.3982149696048634 0.12060273556231013 9.0
    endloop
  endfacet
  facet normal -0.0 0.0 1.0
    outer loop
      vertex 0.02035942249240127 1.118276671732523 9.0
      vertex 0.0051291793313070645 1.0614303191489363 9.0
      vertex 0.12060273556231013 1.2614368541033436 9.0
    endloop
  endfacet
  facet normal 0.0 0.0 1.0
    outer loop
      vertex 0.12060273556231013 1.2614368541033436 9.0
      vertex 0.0051291793313070645 1.0614303191489363 9.0
      vertex 0.0 1.0028031155015198 9.0
    endloop
  endfacet
  facet normal -0.0 0.0 1.0
    outer loop
      vertex 0.12060273556231013 1.2614368541033436 9.0
      vertex 0.0 1.0028031155015198 9.0
      vertex 0.16881155015197577 1.2951923252279638 9.0
    endloop
  endfacet
  facet normal -0.0 0.0 1.0
    outer loop
      vertex 0.16881155015197577 1.2951923252279638 9.0
      vertex 0.0 1.0028031155015198 9.0
      vertex 0.22214886018237093 1.32006405775076 9.0
    endloop
  endfacet
  facet normal 0.0 -0.0 1.0
    outer loop
      vertex 1.431971124620061 0.16881155015197577 9.0
      vertex 1.4568442249240126 0.22214886018237093 9.0
      vertex 1.3982149696048634 0.12060273556231013 9.0
    endloop
  endfacet
  facet normal 0.0 0.0 1.0
    outer loop
      vertex 1.3982149696048634 0.12060273556231013 9.0
      vertex 1.4568442249240126 0.22214886018237093 9.0
      vertex 1.4720744680851066 0.27899521276595757 9.0
    endloop
  endfacet
  facet normal 0.0 0.0 1.0
    outer loop
      vertex 1.3982149696048634 0.12060273556231013 9.0
      vertex 1.4720744680851066 0.27899521276595757 9.0
      vertex 1.4772036474164136 0.337622416413374 9.0
    endloop
  endfacet
  facet normal 0.0 0.0 1.0
    outer loop
      vertex 0.0051291793313070645 0.27899521276595757 9.0
      vertex 0.02035942249240127 0.22214886018237093 9.0
      vertex 0.27899521276595757 0.0051291793313070645 9.0
    endloop
  endfacet
  facet normal 0.0 0.0 1.0
    outer loop
      vertex 0.27899521276595757 0.0051291793313070645 9.0
      vertex 0.02035942249240127 0.22214886018237093 9.0
      vertex 0.04523252279635262 0.16881155015197577 9.0
    endloop
  endfacet
  facet normal 0.0 0.0 1.0
    outer loop
      vertex 0.27899521276595757 0.0051291793313070645 9.0
      vertex 0.04523252279635262 0.16881155015197577 9.0
      vertex 0.07898867781155026 0.12060273556231013 9.0
    endloop
  endfacet
  facet normal 0.0 0.0 1.0
    outer loop
      vertex 0.07898867781155026 0.12060273556231013 9.0
      vertex 0.12060273556231013 0.07898867781155026 9.0
      vertex 0.27899521276595757 0.0051291793313070645 9.0
    endloop
  endfacet
  facet normal 0.0 0.0 1.0
    outer loop
      vertex 0.27899521276595757 0.0051291793313070645 9.0
      vertex 0.12060273556231013 0.07898867781155026 9.0
      vertex 0.16881155015197577 0.04523252279635262 9.0
    endloop
  endfacet
  facet normal 0.0 0.0 1.0
    outer loop
      vertex 0.27899521276595757 0.0051291793313070645 9.0
      vertex 0.16881155015197577 0.04523252279635262 9.0
      vertex 0.22214886018237093 0.020361474164133836 9.0
    endloop
  endfacet
  facet normal -0.0 0.0 -1.0
    outer loop
      vertex 1.3566009118541036 0.07898867781155026 0.0
      vertex 1.3083920972644378 0.04523252279635262 0.0
      vertex 1.4772036474164136 0.337622416413374 0.0
    endloop
  endfacet
  facet normal 0.0 -0.0 -1.0
    outer loop
      vertex 0.27899521276595757 1.3352963525835868 0.0
      vertex 0.337622416413374 1.3404255319148939 0.0
      vertex 0.0 1.0028031155015198 0.0
    endloop
  endfacet
  facet normal 0.0 0.0 -1.0
    outer loop
      vertex 0.0 1.0028031155015198 0.0
      vertex 0.337622416413374 1.3404255319148939 0.0
      vertex 1.4772036474164136 1.0028031155015198 0.0
    endloop
  endfacet
  facet normal 0.0 0.0 -1.0
    outer loop
      vertex 0.0 1.0028031155015198 0.0
      vertex 1.4772036474164136 1.0028031155015198 0.0
      vertex 0.0 0.337622416413374 0.0
    endloop
  endfacet
  facet normal 0.0 0.0 -1.0
    outer loop
      vertex 0.0 0.337622416413374 0.0
      vertex 1.4772036474164136 1.0028031155015198 0.0
      vertex 1.4772036474164136 0.337622416413374 0.0
    endloop
  endfacet
  facet normal 0.0 0.0 -1.0
    outer loop
      vertex 0.0 0.337622416413374 0.0
      vertex 1.4772036474164136 0.337622416413374 0.0
      vertex 1.1395812310030395 0.0 0.0
    endloop
  endfacet
  facet normal 0.0 0.0 -1.0
    outer loop
      vertex 1.4568442249240126 0.22214886018237093 0.0
      vertex 1.431971124620061 0.16881155015197577 0.0
      vertex 1.3982149696048634 0.12060273556231013 0.0
    endloop
  endfacet
  facet normal 0.0 0.0 -1.0
    outer loop
      vertex 0.0 1.0028031155015198 0.0
      vertex 0.0051291793313070645 1.0614303191489363 0.0
      vertex 0.02035942249240127 1.118276671732523 0.0
    endloop
  endfacet
  facet normal 0.0 -0.0 -1.0
    outer loop
      vertex 0.02035942249240127 1.118276671732523 0.0
      vertex 0.04523252279635262 1.1716146656534958 0.0
      vertex 0.0 1.0028031155015198 0.0
    endloop
  endfacet
  facet normal 0.0 0.0 -1.0
    outer loop
      vertex 0.0 1.0028031155015198 0.0
      vertex 0.04523252279635262 1.1716146656534958 0.0
      vertex 0.07898867781155026 1.2198227963525838 0.0
    endloop
  endfacet
  facet normal 0.0 0.0 -1.0
    outer loop
      vertex 0.0 1.0028031155015198 0.0
      vertex 0.07898867781155026 1.2198227963525838 0.0
      vertex 0.12060273556231013 1.2614368541033436 0.0
    endloop
  endfacet
  facet normal -0.0 0.0 -1.0
    outer loop
      vertex 1.3083920972644378 0.04523252279635262 0.0
      vertex 1.2550547872340427 0.020361474164133836 0.0
      vertex 1.4772036474164136 0.337622416413374 0.0
    endloop
  endfacet
  facet normal 0.0 0.0 -1.0
    outer loop
      vertex 1.4772036474164136 0.337622416413374 0.0
      vertex 1.2550547872340427 0.020361474164133836 0.0
      vertex 1.198208434650456 0.0051291793313070645 0.0
    endloop
  endfacet
  facet normal 0.0 0.0 -1.0
    outer loop
      vertex 1.4772036474164136 0.337622416413374 0.0
      vertex 1.198208434650456 0.0051291793313070645 0.0
      vertex 1.1395812310030395 0.0 0.0
    endloop
  endfacet
  facet normal 0.0 0.0 -1.0
    outer loop
      vertex 0.04523252279635262 0.16881155015197577 0.0
      vertex 0.02035942249240127 0.22214886018237093 0.0
      vertex 0.27899521276595757 0.0051291793313070645 0.0
    endloop
  endfacet
  facet normal 0.0 -0.0 -1.0
    outer loop
      vertex 0.12060273556231013 1.2614368541033436 0.0
      vertex 0.16881155015197577 1.2951923252279638 0.0
      vertex 0.0 1.0028031155015198 0.0
    endloop
  endfacet
  facet normal 0.0 0.0 -1.0
    outer loop
      vertex 0.0 1.0028031155015198 0.0
      vertex 0.16881155015197577 1.2951923252279638 0.0
      vertex 0.22214886018237093 1.32006405775076 0.0
    endloop
  endfacet
  facet normal 0.0 0.0 -1.0
    outer loop
      vertex 0.0 1.0028031155015198 0.0
      vertex 0.22214886018237093 1.32006405775076 0.0
      vertex 0.27899521276595757 1.3352963525835868 0.0
    endloop
  endfacet
  facet normal 0.0 0.0 -1.0
    outer loop
      vertex 1.3566009118541036 0.07898867781155026 0.0
      vertex 1.4772036474164136 0.337622416413374 0.0
      vertex 1.3982149696048634 0.12060273556231013 0.0
    endloop
  endfacet
  facet normal 0.0 0.0 -1.0
    outer loop
      vertex 1.3982149696048634 0.12060273556231013 0.0
      vertex 1.4772036474164136 0.337622416413374 0.0
      vertex 1.4720744680851066 0.27899521276595757 0.0
    endloop
  endfacet
  facet normal 0.0 0.0 -1.0
    outer loop
      vertex 1.3982149696048634 0.12060273556231013 0.0
      vertex 1.4720744680851066 0.27899521276595757 0.0
      vertex 1.4568442249240126 0.22214886018237093 0.0
    endloop
  endfacet
  facet normal 0.0 0.0 -1.0
    outer loop
      vertex 1.1395812310030395 0.0 0.0
      vertex 0.337622416413374 0.0 0.0
      vertex 0.0 0.337622416413374 0.0
    endloop
  endfacet
  facet normal 0.0 0.0 -1.0
    outer loop
      vertex 0.0 0.337622416413374 0.0
      vertex 0.337622416413374 0.0 0.0
      vertex 0.27899521276595757 0.0051291793313070645 0.0
    endloop
  endfacet
  facet normal 0.0 0.0 -1.0
    outer loop
      vertex 0.0 0.337622416413374 0.0
      vertex 0.27899521276595757 0.0051291793313070645 0.0
      vertex 0.0051291793313070645 0.27899521276595757 0.0
    endloop
  endfacet
  facet normal 0.0 0.0 -1.0
    outer loop
      vertex 0.0051291793313070645 0.27899521276595757 0.0
      vertex 0.27899521276595757 0.0051291793313070645 0.0
      vertex 0.02035942249240127 0.22214886018237093 0.0
    endloop
  endfacet
  facet normal 0.0 0.0 -1.0
    outer loop
      vertex 0.337622416413374 1.3404255319148939 0.0
      vertex 1.1395812310030395 1.3404255319148939 0.0
      vertex 1.4772036474164136 1.0028031155015198 0.0
    endloop
  endfacet
  facet normal 0.0 0.0 -1.0
    outer loop
      vertex 1.4772036474164136 1.0028031155015198 0.0
      vertex 1.1395812310030395 1.3404255319148939 0.0
      vertex 1.198208434650456 1.3352963525835868 0.0
    endloop
  endfacet
  facet normal 0.0 0.0 -1.0
    outer loop
      vertex 1.4772036474164136 1.0028031155015198 0.0
      vertex 1.198208434650456 1.3352963525835868 0.0
      vertex 1.2550547872340427 1.32006405775076 0.0
    endloop
  endfacet
  facet normal 0.0 0.0 -1.0
    outer loop
      vertex 1.2550547872340427 1.32006405775076 0.0
      vertex 1.3083920972644378 1.2951923252279638 0.0
      vertex 1.4772036474164136 1.0028031155015198 0.0
    endloop
  endfacet
  facet normal 0.0 0.0 -1.0
    outer loop
      vertex 1.4772036474164136 1.0028031155015198 0.0
      vertex 1.3083920972644378 1.2951923252279638 0.0
      vertex 1.3566009118541036 1.2614368541033436 0.0
    endloop
  endfacet
  facet normal 0.0 0.0 -1.0
    outer loop
      vertex 1.4772036474164136 1.0028031155015198 0.0
      vertex 1.3566009118541036 1.2614368541033436 0.0
      vertex 1.3982149696048634 1.2198227963525838 0.0
    endloop
  endfacet
  facet normal 0.0 0.0 -1.0
    outer loop
      vertex 1.3982149696048634 1.2198227963525838 0.0
      vertex 1.431971124620061 1.1716146656534958 0.0
      vertex 1.4772036474164136 1.0028031155015198 0.0
    endloop
  endfacet
  facet normal 0.0 0.0 -1.0
    outer loop
      vertex 1.4772036474164136 1.0028031155015198 0.0
      vertex 1.431971124620061 1.1716146656534958 0.0
      vertex 1.4568442249240126 1.118276671732523 0.0
    endloop
  endfacet
  facet normal 0.0 0.0 -1.0
    outer loop
      vertex 1.4772036474164136 1.0028031155015198 0.0
      vertex 1.4568442249240126 1.118276671732523 0.0
      vertex 1.4720744680851066 1.0614303191489363 0.0
    endloop
  endfacet
  facet normal 0.0 0.0 -1.0
    outer loop
      vertex 0.22214886018237093 0.020361474164133836 0.0
      vertex 0.16881155015197577 0.04523252279635262 0.0
      vertex 0.12060273556231013 0.07898867781155026 0.0
    endloop
  endfacet
  facet normal 0.0 0.0 -1.0
    outer loop
      vertex 0.22214886018237093 0.020361474164133836 0.0
      vertex 0.12060273556231013 0.07898867781155026 0.0
      vertex 0.27899521276595757 0.0051291793313070645 0.0
    endloop
  endfacet
  facet normal 0.0 0.0 -1.0
    outer loop
      vertex 0.27899521276595757 0.0051291793313070645 0.0
      vertex 0.12060273556231013 0.07898867781155026 0.0
      vertex 0.07898867781155026 0.12060273556231013 0.0
    endloop
  endfacet
  facet normal 0.0 0.0 -1.0
    outer loop
      vertex 0.27899521276595757 0.0051291793313070645 0.0
      vertex 0.07898867781155026 0.12060273556231013 0.0
      vertex 0.04523252279635262 0.16881155015197577 0.0
    endloop
  endfacet
endsolid thingi10k_188501
