solid thingi10k_65585
  facet normal 0.0 -0.7071091382130797 0.7071044241521584
    outer loop
      vertex 0.217741935483871 5.920693548387097 9.0
      vertex 0.0 5.920693548387097 9.0
      vertex 0.0 5.0497316129032255 8.129032258064516
    endloop
  endfacet
  facet normal 0.0 -0.7071091382130797 0.7071044241521584
    outer loop
      vertex 0.217741935483871 5.0497316129032255 8.129032258064516
      vertex 0.217741935483871 5.920693548387097 9.0
      vertex 0.0 5.0497316129032255 8.129032258064516
    endloop
  endfacet
  facet normal -1.0 0.0 0.0
    outer loop
      vertex 0.0 5.0497316129032255 8.129032258064516
      vertex 0.0 5.920693548387097 9.0
      vertex 0.0 5.920693548387097 8.129032258064516
    endloop
  endfacet
  facet normal -0.0 1.0 0.0
    outer loop
      vertex 0.0 5.920693548387097 9.0
      vertex 0.217741935483871 5.920693548387097 9.0
      vertex 0.0 5.920693548387097 8.129032258064516
    endloop
  endfacet
  facet normal 0.0 1.0 0.0
    outer loop
      vertex 0.0 5.920693548387097 8.129032258064516
      vertex 0.217741935483871 5.920693548387097 9.0
      vertex 0.217741935483871 5.920693548387097 8.129032258064516
    endloop
  endfacet
  facet normal 1.0 0.0 -0.0
    outer loop
      vertex 0.217741935483871 5.920693548387097 8.129032258064516
      vertex 0.217741935483871 5.920693548387097 9.0
      vertex 0.217741935483871 5.0497316129032255 8.129032258064516
    endloop
  endfacet
  facet normal 0.0 0.0 -1.0
    outer loop
      vertex 0.0 5.0497316129032255 8.129032258064516
      vertex 0.0 5.920693548387097 8.129032258064516
      vertex 0.217741935483871 5.0497316129032255 8.129032258064516
    endloop
  endfacet
  facet normal 0.0 0.0 -1.0
    outer loop
      vertex 0.217741935483871 5.0497316129032255 8.129032258064516
      vertex 0.0 5.920693548387097 8.129032258064516
      vertex 0.217741935483871 5.920693548387097 8.129032258064516
    endloop
  endfacet
  facet normal 0.0 0.0 1.0
    outer loop
      vertex 0.0 6.9368225806451616 7.983870967741936
      vertex 0.0 6.065854838709678 7.983870967741936
      vertex 0.217741935483871 6.065854838709678 7.983870967741936
    endloop
  endfacet
  facet normal 0.0 0.0 1.0
    outer loop
      vertex 0.217741935483871 6.9368225806451616 7.983870967741936
      vertex 0.0 6.9368225806451616 7.983870967741936
      vertex 0.217741935483871 6.065854838709678 7.983870967741936
    endloop
  endfacet
  facet normal -0.0 -1.0 0.0
    outer loop
      vertex 0.217741935483871 6.065854838709678 7.983870967741936
      vertex 0.0 6.065854838709678 7.983870967741936
      vertex 0.0 6.065854838709678 7.112903225806452
    endloop
  endfacet
  facet normal 0.0 -1.0 0.0
    outer loop
      vertex 0.217741935483871 6.065854838709678 7.112903225806452
      vertex 0.217741935483871 6.065854838709678 7.983870967741936
      vertex 0.0 6.065854838709678 7.112903225806452
    endloop
  endfacet
  facet normal -1.0 0.0 0.0
    outer loop
      vertex 0.0 6.065854838709678 7.112903225806452
      vertex 0.0 6.065854838709678 7.983870967741936
      vertex 0.0 6.9368225806451616 7.983870967741936
    endloop
  endfacet
  facet normal 0.0 0.7071067811865475 -0.7071067811865475
    outer loop
      vertex 0.0 6.9368225806451616 7.983870967741936
      vertex 0.217741935483871 6.9368225806451616 7.983870967741936
      vertex 0.0 6.065854838709678 7.112903225806452
    endloop
  endfacet
  facet normal 0.0 0.7071067811865475 -0.7071067811865475
    outer loop
      vertex 0.0 6.065854838709678 7.112903225806452
      vertex 0.217741935483871 6.9368225806451616 7.983870967741936
      vertex 0.217741935483871 6.065854838709678 7.112903225806452
    endloop
  endfacet
  facet normal 1.0 0.0 0.0
    outer loop
      vertex 0.217741935483871 6.9368225806451616 7.983870967741936
      vertex 0.217741935483871 6.065854838709678 7.983870967741936
      vertex 0.217741935483871 6.065854838709678 7.112903225806452
    endloop
  endfacet
  facet normal 0.0 -0.7071067811865475 0.7071067811865476
    outer loop
      vertex 0.217741935483871 4.759409032258064 9.0
      vertex 0.0 4.759409032258064 9.0
      vertex 0.0 2.727150967741936 6.967741935483872
    endloop
  endfacet
  facet normal 0.0 -0.7071067811865475 0.7071067811865476
    outer loop
      vertex 0.217741935483871 2.727150967741936 6.967741935483872
      vertex 0.217741935483871 4.759409032258064 9.0
      vertex 0.0 2.727150967741936 6.967741935483872
    endloop
  endfacet
  facet normal -1.0 0.0 0.0
    outer loop
      vertex 0.0 2.727150967741936 6.967741935483872
      vertex 0.0 4.759409032258064 9.0
      vertex 0.0 4.759409032258064 6.967741935483872
    endloop
  endfacet
  facet normal -0.0 1.0 0.0
    outer loop
      vertex 0.0 4.759409032258064 9.0
      vertex 0.217741935483871 4.759409032258064 9.0
      vertex 0.0 4.759409032258064 6.967741935483872
    endloop
  endfacet
  facet normal 0.0 1.0 0.0
    outer loop
      vertex 0.0 4.759409032258064 6.967741935483872
      vertex 0.217741935483871 4.759409032258064 9.0
      vertex 0.217741935483871 4.759409032258064 6.967741935483872
    endloop
  endfacet
  facet normal 1.0 0.0 -0.0
    outer loop
      vertex 0.217741935483871 4.759409032258064 6.967741935483872
      vertex 0.217741935483871 4.759409032258064 9.0
      vertex 0.217741935483871 2.727150967741936 6.967741935483872
    endloop
  endfacet
  facet normal 0.0 0.0 -1.0
    outer loop
      vertex 0.0 2.727150967741936 6.967741935483872
      vertex 0.0 4.759409032258064 6.967741935483872
      vertex 0.217741935483871 2.727150967741936 6.967741935483872
    endloop
  endfacet
  facet normal 0.0 0.0 -1.0
    outer loop
      vertex 0.217741935483871 2.727150967741936 6.967741935483872
      vertex 0.0 4.759409032258064 6.967741935483872
      vertex 0.217741935483871 4.759409032258064 6.967741935483872
    endloop
  endfacet
  facet normal -0.0 -1.0 0.0
    outer loop
      vertex 0.217741935483871 4.904570322580645 6.822580645161291
      vertex 0.0 4.904570322580645 6.822580645161291
      vertex 0.0 4.904570322580645 4.790321129032259
    endloop
  endfacet
  facet normal 0.0 -1.0 0.0
    outer loop
      vertex 0.217741935483871 4.904570322580645 4.790321129032259
      vertex 0.217741935483871 4.904570322580645 6.822580645161291
      vertex 0.0 4.904570322580645 4.790321129032259
    endloop
  endfacet
  facet normal -1.0 0.0 0.0
    outer loop
      vertex 0.0 4.904570322580645 4.790321129032259
      vertex 0.0 4.904570322580645 6.822580645161291
      vertex 0.0 6.9368225806451616 6.822580645161291
    endloop
  endfacet
  facet normal 0.0 0.0 1.0
    outer loop
      vertex 0.0 6.9368225806451616 6.822580645161291
      vertex 0.0 4.904570322580645 6.822580645161291
      vertex 0.217741935483871 4.904570322580645 6.822580645161291
    endloop
  endfacet
  facet normal 0.0 0.0 1.0
    outer loop
      vertex 0.217741935483871 6.9368225806451616 6.822580645161291
      vertex 0.0 6.9368225806451616 6.822580645161291
      vertex 0.217741935483871 4.904570322580645 6.822580645161291
    endloop
  endfacet
  facet normal 1.0 0.0 0.0
    outer loop
      vertex 0.217741935483871 6.9368225806451616 6.822580645161291
      vertex 0.217741935483871 4.904570322580645 6.822580645161291
      vertex 0.217741935483871 4.904570322580645 4.790321129032259
    endloop
  endfacet
  facet normal 0.0 0.7071080438774536 -0.7071055184933867
    outer loop
      vertex 0.0 6.9368225806451616 6.822580645161291
      vertex 0.217741935483871 6.9368225806451616 6.822580645161291
      vertex 0.0 4.904570322580645 4.790321129032259
    endloop
  endfacet
  facet normal 0.0 0.7071080438774536 -0.7071055184933867
    outer loop
      vertex 0.0 4.904570322580645 4.790321129032259
      vertex 0.217741935483871 6.9368225806451616 6.822580645161291
      vertex 0.217741935483871 4.904570322580645 4.790321129032259
    endloop
  endfacet
  facet normal 0.0 -0.7071067811865475 0.7071067811865475
    outer loop
      vertex 0.217741935483871 3.59811870967742 9.0
      vertex 0.0 3.59811870967742 9.0
      vertex 0.0 2.727150967741936 8.129032258064516
    endloop
  endfacet
  facet normal 0.0 -0.7071067811865475 0.7071067811865475
    outer loop
      vertex 0.217741935483871 2.727150967741936 8.129032258064516
      vertex 0.217741935483871 3.59811870967742 9.0
      vertex 0.0 2.727150967741936 8.129032258064516
    endloop
  endfacet
  facet normal -1.0 0.0 0.0
    outer loop
      vertex 0.0 2.727150967741936 8.129032258064516
      vertex 0.0 3.59811870967742 9.0
      vertex 0.0 3.59811870967742 8.129032258064516
    endloop
  endfacet
  facet normal -0.0 1.0 0.0
    outer loop
      vertex 0.0 3.59811870967742 9.0
      vertex 0.217741935483871 3.59811870967742 9.0
      vertex 0.0 3.59811870967742 8.129032258064516
    endloop
  endfacet
  facet normal 0.0 1.0 0.0
    outer loop
      vertex 0.0 3.59811870967742 8.129032258064516
      vertex 0.217741935483871 3.59811870967742 9.0
      vertex 0.217741935483871 3.59811870967742 8.129032258064516
    endloop
  endfacet
  facet normal 1.0 0.0 -0.0
    outer loop
      vertex 0.217741935483871 3.59811870967742 8.129032258064516
      vertex 0.217741935483871 3.59811870967742 9.0
      vertex 0.217741935483871 2.727150967741936 8.129032258064516
    endloop
  endfacet
  facet normal 0.0 0.0 -1.0
    outer loop
      vertex 0.0 2.727150967741936 8.129032258064516
      vertex 0.0 3.59811870967742 8.129032258064516
      vertex 0.217741935483871 2.727150967741936 8.129032258064516
    endloop
  endfacet
  facet normal 0.0 0.0 -1.0
    outer loop
      vertex 0.217741935483871 2.727150967741936 8.129032258064516
      vertex 0.0 3.59811870967742 8.129032258064516
      vertex 0.217741935483871 3.59811870967742 8.129032258064516
    endloop
  endfacet
  facet normal 0.0 -0.7071073704414618 0.7071061919311422
    outer loop
      vertex 0.217741935483871 3.59811870967742 6.67741935483871
      vertex 0.0 3.59811870967742 6.67741935483871
      vertex 0.0 2.727150967741936 5.806450161290323
    endloop
  endfacet
  facet normal 0.0 -0.7071073704414618 0.7071061919311422
    outer loop
      vertex 0.217741935483871 2.727150967741936 5.806450161290323
      vertex 0.217741935483871 3.59811870967742 6.67741935483871
      vertex 0.0 2.727150967741936 5.806450161290323
    endloop
  endfacet
  facet normal -1.0 0.0 0.0
    outer loop
      vertex 0.0 2.727150967741936 5.806450161290323
      vertex 0.0 3.59811870967742 6.67741935483871
      vertex 0.0 3.59811870967742 5.806450161290323
    endloop
  endfacet
  facet normal -0.0 1.0 0.0
    outer loop
      vertex 0.0 3.59811870967742 6.67741935483871
      vertex 0.217741935483871 3.59811870967742 6.67741935483871
      vertex 0.0 3.59811870967742 5.806450161290323
    endloop
  endfacet
  facet normal 0.0 1.0 0.0
    outer loop
      vertex 0.0 3.59811870967742 5.806450161290323
      vertex 0.217741935483871 3.59811870967742 6.67741935483871
      vertex 0.217741935483871 3.59811870967742 5.806450161290323
    endloop
  endfacet
  facet normal 1.0 0.0 -0.0
    outer loop
      vertex 0.217741935483871 3.59811870967742 5.806450161290323
      vertex 0.217741935483871 3.59811870967742 6.67741935483871
      vertex 0.217741935483871 2.727150967741936 5.806450161290323
    endloop
  endfacet
  facet normal 0.0 0.0 -1.0
    outer loop
      vertex 0.0 2.727150967741936 5.806450161290323
      vertex 0.0 3.59811870967742 5.806450161290323
      vertex 0.217741935483871 2.727150967741936 5.806450161290323
    endloop
  endfacet
  facet normal 0.0 0.0 -1.0
    outer loop
      vertex 0.217741935483871 2.727150967741936 5.806450161290323
      vertex 0.0 3.59811870967742 5.806450161290323
      vertex 0.217741935483871 3.59811870967742 5.806450161290323
    endloop
  endfacet
  facet normal -0.0 -1.0 0.0
    outer loop
      vertex 0.217741935483871 3.7432800000000004 5.661288870967743
      vertex 0.0 3.7432800000000004 5.661288870967743
      vertex 0.0 3.7432800000000004 4.790321129032259
    endloop
  endfacet
  facet normal 0.0 -1.0 0.0
    outer loop
      vertex 0.217741935483871 3.7432800000000004 4.790321129032259
      vertex 0.217741935483871 3.7432800000000004 5.661288870967743
      vertex 0.0 3.7432800000000004 4.790321129032259
    endloop
  endfacet
  facet normal -1.0 0.0 0.0
    outer loop
      vertex 0.0 3.7432800000000004 4.790321129032259
      vertex 0.0 3.7432800000000004 5.661288870967743
      vertex 0.0 4.614247741935484 5.661288870967743
    endloop
  endfacet
  facet normal 0.0 0.0 1.0
    outer loop
      vertex 0.0 4.614247741935484 5.661288870967743
      vertex 0.0 3.7432800000000004 5.661288870967743
      vertex 0.217741935483871 3.7432800000000004 5.661288870967743
    endloop
  endfacet
  facet normal 0.0 0.0 1.0
    outer loop
      vertex 0.217741935483871 4.614247741935484 5.661288870967743
      vertex 0.0 4.614247741935484 5.661288870967743
      vertex 0.217741935483871 3.7432800000000004 5.661288870967743
    endloop
  endfacet
  facet normal 1.0 0.0 0.0
    outer loop
      vertex 0.217741935483871 4.614247741935484 5.661288870967743
      vertex 0.217741935483871 3.7432800000000004 5.661288870967743
      vertex 0.217741935483871 3.7432800000000004 4.790321129032259
    endloop
  endfacet
  facet normal 0.0 0.7071067811865475 -0.7071067811865475
    outer loop
      vertex 0.0 4.614247741935484 5.661288870967743
      vertex 0.217741935483871 4.614247741935484 5.661288870967743
      vertex 0.0 3.7432800000000004 4.790321129032259
    endloop
  endfacet
  facet normal 0.0 0.7071067811865475 -0.7071067811865475
    outer loop
      vertex 0.0 3.7432800000000004 4.790321129032259
      vertex 0.217741935483871 4.614247741935484 5.661288870967743
      vertex 0.217741935483871 3.7432800000000004 4.790321129032259
    endloop
  endfacet
  facet normal -0.0 -1.0 0.0
    outer loop
      vertex 0.217741935483871 6.065854838709678 5.661288870967743
      vertex 0.0 6.065854838709678 5.661288870967743
      vertex 0.0 6.065854838709678 4.790321129032259
    endloop
  endfacet
  facet normal 0.0 -1.0 0.0
    outer loop
      vertex 0.217741935483871 6.065854838709678 4.790321129032259
      vertex 0.217741935483871 6.065854838709678 5.661288870967743
      vertex 0.0 6.065854838709678 4.790321129032259
    endloop
  endfacet
  facet normal -1.0 0.0 0.0
    outer loop
      vertex 0.0 6.065854838709678 4.790321129032259
      vertex 0.0 6.065854838709678 5.661288870967743
      vertex 0.0 6.9368225806451616 5.661288870967743
    endloop
  endfacet
  facet normal 0.0 0.0 1.0
    outer loop
      vertex 0.0 6.9368225806451616 5.661288870967743
      vertex 0.0 6.065854838709678 5.661288870967743
      vertex 0.217741935483871 6.065854838709678 5.661288870967743
    endloop
  endfacet
  facet normal 0.0 0.0 1.0
    outer loop
      vertex 0.217741935483871 6.9368225806451616 5.661288870967743
      vertex 0.0 6.9368225806451616 5.661288870967743
      vertex 0.217741935483871 6.065854838709678 5.661288870967743
    endloop
  endfacet
  facet normal 1.0 0.0 0.0
    outer loop
      vertex 0.217741935483871 6.9368225806451616 5.661288870967743
      vertex 0.217741935483871 6.065854838709678 5.661288870967743
      vertex 0.217741935483871 6.065854838709678 4.790321129032259
    endloop
  endfacet
  facet normal 0.0 0.7071067811865475 -0.7071067811865475
    outer loop
      vertex 0.0 6.9368225806451616 5.661288870967743
      vertex 0.217741935483871 6.9368225806451616 5.661288870967743
      vertex 0.0 6.065854838709678 4.790321129032259
    endloop
  endfacet
  facet normal 0.0 0.7071067811865475 -0.7071067811865475
    outer loop
      vertex 0.0 6.065854838709678 4.790321129032259
      vertex 0.217741935483871 6.9368225806451616 5.661288870967743
      vertex 0.217741935483871 6.065854838709678 4.790321129032259
    endloop
  endfacet
  facet normal 0.0 -0.707108124892712 0.7071054374778297
    outer loop
      vertex 0.217741935483871 2.2916670967741934 9.0
      vertex 0.0 2.2916670967741934 9.0
      vertex 0.0 0.0 6.708324193548388
    endloop
  endfacet
  facet normal 0.0 -0.707108124892712 0.7071054374778297
    outer loop
      vertex 0.217741935483871 0.0 6.708324193548388
      vertex 0.217741935483871 2.2916670967741934 9.0
      vertex 0.0 0.0 6.708324193548388
    endloop
  endfacet
  facet normal -1.0 0.0 -0.0
    outer loop
      vertex 0.0 2.2916670967741934 9.0
      vertex 0.0 2.2916670967741934 4.645159838709678
      vertex 0.0 0.0 6.708324193548388
    endloop
  endfacet
  facet normal -1.0 0.0 0.0
    outer loop
      vertex 0.0 0.0 6.708324193548388
      vertex 0.0 2.2916670967741934 4.645159838709678
      vertex 0.0 0.0 4.645159838709678
    endloop
  endfacet
  facet normal -0.0 1.0 0.0
    outer loop
      vertex 0.0 2.2916670967741934 9.0
      vertex 0.217741935483871 2.2916670967741934 9.0
      vertex 0.0 2.2916670967741934 4.645159838709678
    endloop
  endfacet
  facet normal 0.0 1.0 0.0
    outer loop
      vertex 0.0 2.2916670967741934 4.645159838709678
      vertex 0.217741935483871 2.2916670967741934 9.0
      vertex 0.217741935483871 2.2916670967741934 4.645159838709678
    endloop
  endfacet
  facet normal 1.0 0.0 -0.0
    outer loop
      vertex 0.217741935483871 2.2916670967741934 4.645159838709678
      vertex 0.217741935483871 2.2916670967741934 9.0
      vertex 0.217741935483871 0.0 6.708324193548388
    endloop
  endfacet
  facet normal 1.0 0.0 0.0
    outer loop
      vertex 0.217741935483871 0.0 4.645159838709678
      vertex 0.217741935483871 2.2916670967741934 4.645159838709678
      vertex 0.217741935483871 0.0 6.708324193548388
    endloop
  endfacet
  facet normal -0.0 -1.0 0.0
    outer loop
      vertex 0.217741935483871 0.0 6.708324193548388
      vertex 0.0 0.0 6.708324193548388
      vertex 0.0 0.0 4.645159838709678
    endloop
  endfacet
  facet normal 0.0 -1.0 0.0
    outer loop
      vertex 0.217741935483871 0.0 4.645159838709678
      vertex 0.217741935483871 0.0 6.708324193548388
      vertex 0.0 0.0 4.645159838709678
    endloop
  endfacet
  facet normal 0.0 0.0 -1.0
    outer loop
      vertex 0.0 0.0 4.645159838709678
      vertex 0.0 2.2916670967741934 4.645159838709678
      vertex 0.217741935483871 0.0 4.645159838709678
    endloop
  endfacet
  facet normal 0.0 0.0 -1.0
    outer loop
      vertex 0.217741935483871 0.0 4.645159838709678
      vertex 0.0 2.2916670967741934 4.645159838709678
      vertex 0.217741935483871 2.2916670967741934 4.645159838709678
    endloop
  endfacet
  facet normal 0.0 -0.7071067811865477 0.7071067811865476
    outer loop
      vertex 0.217741935483871 1.1303709677419354 9.0
      vertex 0.0 1.1303709677419354 9.0
      vertex 0.0 0.2594032258064515 8.129032258064516
    endloop
  endfacet
  facet normal 0.0 -0.7071067811865477 0.7071067811865476
    outer loop
      vertex 0.217741935483871 0.2594032258064515 8.129032258064516
      vertex 0.217741935483871 1.1303709677419354 9.0
      vertex 0.0 0.2594032258064515 8.129032258064516
    endloop
  endfacet
  facet normal -1.0 0.0 0.0
    outer loop
      vertex 0.0 0.2594032258064515 8.129032258064516
      vertex 0.0 1.1303709677419354 9.0
      vertex 0.0 1.1303709677419354 8.129032258064516
    endloop
  endfacet
  facet normal -0.0 1.0 0.0
    outer loop
      vertex 0.0 1.1303709677419354 9.0
      vertex 0.217741935483871 1.1303709677419354 9.0
      vertex 0.0 1.1303709677419354 8.129032258064516
    endloop
  endfacet
  facet normal 0.0 1.0 0.0
    outer loop
      vertex 0.0 1.1303709677419354 8.129032258064516
      vertex 0.217741935483871 1.1303709677419354 9.0
      vertex 0.217741935483871 1.1303709677419354 8.129032258064516
    endloop
  endfacet
  facet normal 1.0 0.0 -0.0
    outer loop
      vertex 0.217741935483871 1.1303709677419354 8.129032258064516
      vertex 0.217741935483871 1.1303709677419354 9.0
      vertex 0.217741935483871 0.2594032258064515 8.129032258064516
    endloop
  endfacet
  facet normal 0.0 0.0 -1.0
    outer loop
      vertex 0.0 0.2594032258064515 8.129032258064516
      vertex 0.0 1.1303709677419354 8.129032258064516
      vertex 0.217741935483871 0.2594032258064515 8.129032258064516
    endloop
  endfacet
  facet normal 0.0 0.0 -1.0
    outer loop
      vertex 0.217741935483871 0.2594032258064515 8.129032258064516
      vertex 0.0 1.1303709677419354 8.129032258064516
      vertex 0.217741935483871 1.1303709677419354 8.129032258064516
    endloop
  endfacet
  facet normal -0.0 -1.0 0.0
    outer loop
      vertex 0.217741935483871 2.5819896774193554 4.354837258064517
      vertex 0.0 2.5819896774193554 4.354837258064517
      vertex 0.0 2.5819896774193554 0.0
    endloop
  endfacet
  facet normal 0.0 -1.0 0.0
    outer loop
      vertex 0.217741935483871 2.5819896774193554 0.0
      vertex 0.217741935483871 2.5819896774193554 4.354837258064517
      vertex 0.0 2.5819896774193554 0.0
    endloop
  endfacet
  facet normal -1.0 0.0 0.0
    outer loop
      vertex 0.0 2.5819896774193554 0.0
      vertex 0.0 2.5819896774193554 4.354837258064517
      vertex 0.0 6.9368225806451616 4.354837258064517
    endloop
  endfacet
  facet normal 0.0 0.0 1.0
    outer loop
      vertex 0.0 6.9368225806451616 4.354837258064517
      vertex 0.0 2.5819896774193554 4.354837258064517
      vertex 0.217741935483871 2.5819896774193554 4.354837258064517
    endloop
  endfacet
  facet normal 0.0 0.0 1.0
    outer loop
      vertex 0.217741935483871 6.9368225806451616 4.354837258064517
      vertex 0.0 6.9368225806451616 4.354837258064517
      vertex 0.217741935483871 2.5819896774193554 4.354837258064517
    endloop
  endfacet
  facet normal 1.0 0.0 0.0
    outer loop
      vertex 0.217741935483871 6.9368225806451616 4.354837258064517
      vertex 0.217741935483871 2.5819896774193554 4.354837258064517
      vertex 0.217741935483871 2.5819896774193554 0.0
    endloop
  endfacet
  facet normal 0.0 0.7071071347401444 -0.7071064276327738
    outer loop
      vertex 0.0 6.9368225806451616 4.354837258064517
      vertex 0.217741935483871 6.9368225806451616 4.354837258064517
      vertex 0.0 2.5819896774193554 0.0
    endloop
  endfacet
  facet normal 0.0 0.7071071347401444 -0.7071064276327738
    outer loop
      vertex 0.0 2.5819896774193554 0.0
      vertex 0.217741935483871 6.9368225806451616 4.354837258064517
      vertex 0.217741935483871 2.5819896774193554 0.0
    endloop
  endfacet
  facet normal -0.0 -1.0 0.0
    outer loop
      vertex 0.217741935483871 6.065854838709678 3.1935483870967745
      vertex 0.0 6.065854838709678 3.1935483870967745
      vertex 0.0 6.065854838709678 2.322580645161291
    endloop
  endfacet
  facet normal 0.0 -1.0 0.0
    outer loop
      vertex 0.217741935483871 6.065854838709678 2.322580645161291
      vertex 0.217741935483871 6.065854838709678 3.1935483870967745
      vertex 0.0 6.065854838709678 2.322580645161291
    endloop
  endfacet
  facet normal -1.0 0.0 0.0
    outer loop
      vertex 0.0 6.065854838709678 2.322580645161291
      vertex 0.0 6.065854838709678 3.1935483870967745
      vertex 0.0 6.9368225806451616 3.1935483870967745
    endloop
  endfacet
  facet normal 0.0 0.0 1.0
    outer loop
      vertex 0.0 6.9368225806451616 3.1935483870967745
      vertex 0.0 6.065854838709678 3.1935483870967745
      vertex 0.217741935483871 6.065854838709678 3.1935483870967745
    endloop
  endfacet
  facet normal 0.0 0.0 1.0
    outer loop
      vertex 0.217741935483871 6.9368225806451616 3.1935483870967745
      vertex 0.0 6.9368225806451616 3.1935483870967745
      vertex 0.217741935483871 6.065854838709678 3.1935483870967745
    endloop
  endfacet
  facet normal 1.0 0.0 0.0
    outer loop
      vertex 0.217741935483871 6.9368225806451616 3.1935483870967745
      vertex 0.217741935483871 6.065854838709678 3.1935483870967745
      vertex 0.217741935483871 6.065854838709678 2.322580645161291
    endloop
  endfacet
  facet normal 0.0 0.7071067811865474 -0.7071067811865477
    outer loop
      vertex 0.0 6.9368225806451616 3.1935483870967745
      vertex 0.217741935483871 6.9368225806451616 3.1935483870967745
      vertex 0.0 6.065854838709678 2.322580645161291
    endloop
  endfacet
  facet normal 0.0 0.7071067811865474 -0.7071067811865477
    outer loop
      vertex 0.0 6.065854838709678 2.322580645161291
      vertex 0.217741935483871 6.9368225806451616 3.1935483870967745
      vertex 0.217741935483871 6.065854838709678 2.322580645161291
    endloop
  endfacet
  facet normal -0.0 -1.0 0.0
    outer loop
      vertex 0.217741935483871 4.904570322580645 2.03225806451613
      vertex 0.0 4.904570322580645 2.03225806451613
      vertex 0.0 4.904570322580645 0.0
    endloop
  endfacet
  facet normal 0.0 -1.0 0.0
    outer loop
      vertex 0.217741935483871 4.904570322580645 0.0
      vertex 0.217741935483871 4.904570322580645 2.03225806451613
      vertex 0.0 4.904570322580645 0.0
    endloop
  endfacet
  facet normal -1.0 0.0 0.0
    outer loop
      vertex 0.0 4.904570322580645 0.0
      vertex 0.0 4.904570322580645 2.03225806451613
      vertex 0.0 6.9368225806451616 2.03225806451613
    endloop
  endfacet
  facet normal 0.0 0.0 1.0
    outer loop
      vertex 0.0 6.9368225806451616 2.03225806451613
      vertex 0.0 4.904570322580645 2.03225806451613
      vertex 0.217741935483871 4.904570322580645 2.03225806451613
    endloop
  endfacet
  facet normal 0.0 0.0 1.0
    outer loop
      vertex 0.217741935483871 6.9368225806451616 2.03225806451613
      vertex 0.0 6.9368225806451616 2.03225806451613
      vertex 0.217741935483871 4.904570322580645 2.03225806451613
    endloop
  endfacet
  facet normal 1.0 0.0 0.0
    outer loop
      vertex 0.217741935483871 6.9368225806451616 2.03225806451613
      vertex 0.217741935483871 4.904570322580645 2.03225806451613
      vertex 0.217741935483871 4.904570322580645 0.0
    endloop
  endfacet
  facet normal 0.0 0.7071077913398137 -0.7071057710318381
    outer loop
      vertex 0.0 6.9368225806451616 2.03225806451613
      vertex 0.217741935483871 6.9368225806451616 2.03225806451613
      vertex 0.0 4.904570322580645 0.0
    endloop
  endfacet
  facet normal 0.0 0.7071077913398137 -0.7071057710318381
    outer loop
      vertex 0.0 4.904570322580645 0.0
      vertex 0.217741935483871 6.9368225806451616 2.03225806451613
      vertex 0.217741935483871 4.904570322580645 0.0
    endloop
  endfacet
  facet normal 0.0 -0.7682212795973759 0.6401843996644798
    outer loop
      vertex 0.217741935483871 1.1303709677419354 4.209675967741936
      vertex 0.0 1.1303709677419354 4.209675967741936
      vertex 0.0 0.40456451612903216 3.338708225806452
    endloop
  endfacet
  facet normal 0.0 -0.7682212795973759 0.6401843996644798
    outer loop
      vertex 0.217741935483871 0.40456451612903216 3.338708225806452
      vertex 0.217741935483871 1.1303709677419354 4.209675967741936
      vertex 0.0 0.40456451612903216 3.338708225806452
    endloop
  endfacet
  facet normal -1.0 0.0 0.0
    outer loop
      vertex 0.0 0.40456451612903216 3.338708225806452
      vertex 0.0 1.1303709677419354 4.209675967741936
      vertex 0.0 1.1303709677419354 3.338708225806452
    endloop
  endfacet
  facet normal -0.0 1.0 0.0
    outer loop
      vertex 0.0 1.1303709677419354 4.209675967741936
      vertex 0.217741935483871 1.1303709677419354 4.209675967741936
      vertex 0.0 1.1303709677419354 3.338708225806452
    endloop
  endfacet
  facet normal 0.0 1.0 0.0
    outer loop
      vertex 0.0 1.1303709677419354 3.338708225806452
      vertex 0.217741935483871 1.1303709677419354 4.209675967741936
      vertex 0.217741935483871 1.1303709677419354 3.338708225806452
    endloop
  endfacet
  facet normal 1.0 0.0 -0.0
    outer loop
      vertex 0.217741935483871 1.1303709677419354 3.338708225806452
      vertex 0.217741935483871 1.1303709677419354 4.209675967741936
      vertex 0.217741935483871 0.40456451612903216 3.338708225806452
    endloop
  endfacet
  facet normal 0.0 0.0 -1.0
    outer loop
      vertex 0.0 0.40456451612903216 3.338708225806452
      vertex 0.0 1.1303709677419354 3.338708225806452
      vertex 0.217741935483871 0.40456451612903216 3.338708225806452
    endloop
  endfacet
  facet normal 0.0 0.0 -1.0
    outer loop
      vertex 0.217741935483871 0.40456451612903216 3.338708225806452
      vertex 0.0 1.1303709677419354 3.338708225806452
      vertex 0.217741935483871 1.1303709677419354 3.338708225806452
    endloop
  endfacet
  facet normal 0.0 0.0 1.0
    outer loop
      vertex 0.0 2.1465 3.1935483870967745
      vertex 0.0 1.275532258064516 3.1935483870967745
      vertex 0.217741935483871 1.275532258064516 3.1935483870967745
    endloop
  endfacet
  facet normal 0.0 0.0 1.0
    outer loop
      vertex 0.217741935483871 2.1465 3.1935483870967745
      vertex 0.0 2.1465 3.1935483870967745
      vertex 0.217741935483871 1.275532258064516 3.1935483870967745
    endloop
  endfacet
  facet normal -0.0 -1.0 0.0
    outer loop
      vertex 0.217741935483871 1.275532258064516 3.1935483870967745
      vertex 0.0 1.275532258064516 3.1935483870967745
      vertex 0.0 1.275532258064516 2.322580645161291
    endloop
  endfacet
  facet normal 0.0 -1.0 0.0
    outer loop
      vertex 0.217741935483871 1.275532258064516 2.322580645161291
      vertex 0.217741935483871 1.275532258064516 3.1935483870967745
      vertex 0.0 1.275532258064516 2.322580645161291
    endloop
  endfacet
  facet normal -1.0 0.0 0.0
    outer loop
      vertex 0.0 1.275532258064516 2.322580645161291
      vertex 0.0 1.275532258064516 3.1935483870967745
      vertex 0.0 2.1465 3.1935483870967745
    endloop
  endfacet
  facet normal 0.0 0.7071067811865474 -0.7071067811865477
    outer loop
      vertex 0.0 2.1465 3.1935483870967745
      vertex 0.217741935483871 2.1465 3.1935483870967745
      vertex 0.0 1.275532258064516 2.322580645161291
    endloop
  endfacet
  facet normal 0.0 0.7071067811865474 -0.7071067811865477
    outer loop
      vertex 0.0 1.275532258064516 2.322580645161291
      vertex 0.217741935483871 2.1465 3.1935483870967745
      vertex 0.217741935483871 1.275532258064516 2.322580645161291
    endloop
  endfacet
  facet normal 1.0 0.0 0.0
    outer loop
      vertex 0.217741935483871 2.1465 3.1935483870967745
      vertex 0.217741935483871 1.275532258064516 3.1935483870967745
      vertex 0.217741935483871 1.275532258064516 2.322580645161291
    endloop
  endfacet
  facet normal -0.0 -1.0 0.0
    outer loop
      vertex 0.217741935483871 0.11424193548387084 2.03225806451613
      vertex 0.0 0.11424193548387084 2.03225806451613
      vertex 0.0 0.11424193548387084 0.0
    endloop
  endfacet
  facet normal 0.0 -1.0 0.0
    outer loop
      vertex 0.217741935483871 0.11424193548387084 0.0
      vertex 0.217741935483871 0.11424193548387084 2.03225806451613
      vertex 0.0 0.11424193548387084 0.0
    endloop
  endfacet
  facet normal -1.0 0.0 0.0
    outer loop
      vertex 0.0 0.11424193548387084 0.0
      vertex 0.0 0.11424193548387084 2.03225806451613
      vertex 0.0 2.1465 2.03225806451613
    endloop
  endfacet
  facet normal 0.0 0.0 1.0
    outer loop
      vertex 0.0 2.1465 2.03225806451613
      vertex 0.0 0.11424193548387084 2.03225806451613
      vertex 0.217741935483871 0.11424193548387084 2.03225806451613
    endloop
  endfacet
  facet normal 0.0 0.0 1.0
    outer loop
      vertex 0.217741935483871 2.1465 2.03225806451613
      vertex 0.0 2.1465 2.03225806451613
      vertex 0.217741935483871 0.11424193548387084 2.03225806451613
    endloop
  endfacet
  facet normal 1.0 0.0 0.0
    outer loop
      vertex 0.217741935483871 2.1465 2.03225806451613
      vertex 0.217741935483871 0.11424193548387084 2.03225806451613
      vertex 0.217741935483871 0.11424193548387084 0.0
    endloop
  endfacet
  facet normal 0.0 0.7071067811865476 -0.7071067811865475
    outer loop
      vertex 0.0 2.1465 2.03225806451613
      vertex 0.217741935483871 2.1465 2.03225806451613
      vertex 0.0 0.11424193548387084 0.0
    endloop
  endfacet
  facet normal 0.0 0.7071067811865476 -0.7071067811865475
    outer loop
      vertex 0.0 0.11424193548387084 0.0
      vertex 0.217741935483871 2.1465 2.03225806451613
      vertex 0.217741935483871 0.11424193548387084 0.0
    endloop
  endfacet
endsolid thingi10k_65585
