solid thingi10k_65584
  facet normal 0.0 0.0 1.0
    outer loop
      vertex 2.957142857142857 0.2571428571428571 9.0
      vertex 0.0 0.0 9.0
      vertex 3.214285714285714 0.0 9.0
    endloop
  endfacet
  facet normal 0.0 -0.0 1.0
    outer loop
      vertex 0.2571428571428571 0.2571428571428571 9.0
      vertex 0.2571428571428571 6.171428571428571 9.0
      vertex 0.0 6.428571428571428 9.0
    endloop
  endfacet
  facet normal -0.0 0.0 1.0
    outer loop
      vertex 0.2571428571428571 0.2571428571428571 9.0
      vertex 0.0 0.0 9.0
      vertex 2.957142857142857 0.2571428571428571 9.0
    endloop
  endfacet
  facet normal 0.0 0.0 1.0
    outer loop
      vertex 0.0 6.428571428571428 9.0
      vertex 0.0 0.0 9.0
      vertex 0.2571428571428571 0.2571428571428571 9.0
    endloop
  endfacet
  facet normal 0.0 0.0 1.0
    outer loop
      vertex 3.214285714285714 6.428571428571428 9.0
      vertex 0.0 6.428571428571428 9.0
      vertex 0.2571428571428571 6.171428571428571 9.0
    endloop
  endfacet
  facet normal 0.0 0.0 1.0
    outer loop
      vertex 3.214285714285714 6.428571428571428 9.0
      vertex 2.957142857142857 6.171428571428571 9.0
      vertex 3.214285714285714 0.0 9.0
    endloop
  endfacet
  facet normal 0.0 0.0 1.0
    outer loop
      vertex 3.214285714285714 6.428571428571428 9.0
      vertex 0.2571428571428571 6.171428571428571 9.0
      vertex 2.957142857142857 6.171428571428571 9.0
    endloop
  endfacet
  facet normal 0.0 0.0 1.0
    outer loop
      vertex 2.957142857142857 6.171428571428571 9.0
      vertex 2.957142857142857 0.2571428571428571 9.0
      vertex 3.214285714285714 0.0 9.0
    endloop
  endfacet
  facet normal -0.0 -1.0 0.0
    outer loop
      vertex 3.214285714285714 0.0 9.0
      vertex 0.0 0.0 9.0
      vertex 0.0 0.0 0.0
    endloop
  endfacet
  facet normal -0.0 -1.0 0.0
    outer loop
      vertex 3.1178571428571424 0.0 6.274992857142856
      vertex 3.214285714285714 0.0 9.0
      vertex 0.0 0.0 0.0
    endloop
  endfacet
  facet normal 0.0 -1.0 0.0
    outer loop
      vertex 3.214285714285714 0.0 0.0
      vertex 3.214285714285714 0.0 4.447618714285714
      vertex 0.0 0.0 0.0
    endloop
  endfacet
  facet normal -0.0 -1.0 0.0
    outer loop
      vertex 3.214285714285714 0.0 4.447618714285714
      vertex 3.1178571428571424 0.0 4.447618714285714
      vertex 0.0 0.0 0.0
    endloop
  endfacet
  facet normal -0.0 -1.0 0.0
    outer loop
      vertex 3.1178571428571424 0.0 4.447618714285714
      vertex 3.1178571428571424 0.0 6.274992857142856
      vertex 0.0 0.0 0.0
    endloop
  endfacet
  facet normal 0.0 -1.0 0.0
    outer loop
      vertex 3.1178571428571424 0.0 6.274992857142856
      vertex 3.214285714285714 0.0 6.274992857142856
      vertex 3.214285714285714 0.0 9.0
    endloop
  endfacet
  facet normal -1.0 0.0 0.0
    outer loop
      vertex 0.0 0.0 9.0
      vertex 0.0 6.428571428571428 9.0
      vertex 0.0 0.0 0.0
    endloop
  endfacet
  facet normal -1.0 0.0 0.0
    outer loop
      vertex 0.0 0.0 0.0
      vertex 0.0 6.428571428571428 9.0
      vertex 0.0 6.428571428571428 0.0
    endloop
  endfacet
  facet normal -0.0 1.0 0.0
    outer loop
      vertex 0.0 6.428571428571428 9.0
      vertex 3.214285714285714 6.428571428571428 9.0
      vertex 0.0 6.428571428571428 0.0
    endloop
  endfacet
  facet normal 0.0 1.0 0.0
    outer loop
      vertex 0.0 6.428571428571428 0.0
      vertex 3.214285714285714 6.428571428571428 9.0
      vertex 3.214285714285714 6.428571428571428 0.0
    endloop
  endfacet
  facet normal 1.0 0.0 0.0
    outer loop
      vertex 3.214285714285714 0.22975714285714272 7.533334285714286
      vertex 3.214285714285714 0.0 9.0
      vertex 3.214285714285714 0.0 6.274992857142856
    endloop
  endfacet
  facet normal 1.0 0.0 0.0
    outer loop
      vertex 3.214285714285714 6.428571428571428 9.0
      vertex 3.214285714285714 0.0 9.0
      vertex 3.214285714285714 2.0297622857142854 8.304762857142856
    endloop
  endfacet
  facet normal 1.0 -0.0 0.0
    outer loop
      vertex 3.214285714285714 3.186905142857143 8.304762857142856
      vertex 3.214285714285714 3.186905142857143 7.533334285714286
      vertex 3.214285714285714 4.215476571428571 8.304762857142856
    endloop
  endfacet
  facet normal 1.0 0.0 0.0
    outer loop
      vertex 3.214285714285714 6.144042857142856 7.404762857142857
      vertex 3.214285714285714 5.372614285714285 6.633334285714286
      vertex 3.214285714285714 6.144042857142856 6.376191428571428
    endloop
  endfacet
  facet normal 1.0 0.0 -0.0
    outer loop
      vertex 3.214285714285714 1.0011857142857141 4.061904428571428
      vertex 3.214285714285714 2.0297622857142854 4.447618714285714
      vertex 3.214285714285714 0.0 4.447618714285714
    endloop
  endfacet
  facet normal 1.0 0.0 0.0
    outer loop
      vertex 3.214285714285714 2.286905142857143 4.190475857142857
      vertex 3.214285714285714 4.344047999999999 4.5761901428571425
      vertex 3.214285714285714 3.3154765714285714 4.5761901428571425
    endloop
  endfacet
  facet normal 1.0 0.0 0.0
    outer loop
      vertex 3.214285714285714 1.0011857142857141 7.533334285714286
      vertex 3.214285714285714 0.22975714285714272 7.533334285714286
      vertex 3.214285714285714 0.0 6.274992857142856
    endloop
  endfacet
  facet normal 1.0 0.0 0.0
    outer loop
      vertex 3.214285714285714 1.0011857142857141 8.304762857142856
      vertex 3.214285714285714 0.0 9.0
      vertex 3.214285714285714 0.22975714285714272 7.533334285714286
    endloop
  endfacet
  facet normal 1.0 0.0 0.0
    outer loop
      vertex 3.214285714285714 2.0297622857142854 8.304762857142856
      vertex 3.214285714285714 0.0 9.0
      vertex 3.214285714285714 1.0011857142857141 8.304762857142856
    endloop
  endfacet
  facet normal 1.0 0.0 0.0
    outer loop
      vertex 3.214285714285714 2.0297622857142854 8.304762857142856
      vertex 3.214285714285714 1.0011857142857141 7.533334285714286
      vertex 3.214285714285714 0.0 6.274992857142856
    endloop
  endfacet
  facet normal 1.0 -0.0 0.0
    outer loop
      vertex 3.214285714285714 3.186905142857143 6.247619999999999
      vertex 3.214285714285714 3.186905142857143 5.476190142857143
      vertex 3.214285714285714 4.215476571428571 6.504762857142856
    endloop
  endfacet
  facet normal 1.0 0.0 0.0
    outer loop
      vertex 3.214285714285714 3.186905142857143 8.304762857142856
      vertex 3.214285714285714 2.0297622857142854 8.304762857142856
      vertex 3.214285714285714 2.4154765714285715 7.533334285714286
    endloop
  endfacet
  facet normal 1.0 0.0 0.0
    outer loop
      vertex 3.214285714285714 6.428571428571428 9.0
      vertex 3.214285714285714 2.0297622857142854 8.304762857142856
      vertex 3.214285714285714 3.186905142857143 8.304762857142856
    endloop
  endfacet
  facet normal 1.0 -0.0 0.0
    outer loop
      vertex 3.214285714285714 1.0011857142857141 8.304762857142856
      vertex 3.214285714285714 1.0011857142857141 7.533334285714286
      vertex 3.214285714285714 2.0297622857142854 8.304762857142856
    endloop
  endfacet
  facet normal 1.0 0.0 0.0
    outer loop
      vertex 3.214285714285714 4.215476571428571 8.304762857142856
      vertex 3.214285714285714 4.215476571428571 6.504762857142856
      vertex 3.214285714285714 4.472619428571428 7.533334285714286
    endloop
  endfacet
  facet normal 1.0 0.0 0.0
    outer loop
      vertex 3.214285714285714 4.215476571428571 8.304762857142856
      vertex 3.214285714285714 5.244042857142857 8.304762857142856
      vertex 3.214285714285714 6.428571428571428 9.0
    endloop
  endfacet
  facet normal 1.0 0.0 0.0
    outer loop
      vertex 3.214285714285714 6.428571428571428 9.0
      vertex 3.214285714285714 3.186905142857143 8.304762857142856
      vertex 3.214285714285714 4.215476571428571 8.304762857142856
    endloop
  endfacet
  facet normal 1.0 0.0 0.0
    outer loop
      vertex 3.214285714285714 5.372614285714285 3.1619057142857137
      vertex 3.214285714285714 4.344047999999999 2.1333342857142856
      vertex 3.214285714285714 5.372614285714285 2.3904771428571427
    endloop
  endfacet
  facet normal 1.0 -0.0 0.0
    outer loop
      vertex 3.214285714285714 5.244042857142857 8.304762857142856
      vertex 3.214285714285714 5.244042857142857 7.533334285714286
      vertex 3.214285714285714 6.428571428571428 9.0
    endloop
  endfacet
  facet normal 1.0 0.0 0.0
    outer loop
      vertex 3.214285714285714 2.4154765714285715 6.504762857142856
      vertex 3.214285714285714 4.215476571428571 8.304762857142856
      vertex 3.214285714285714 3.186905142857143 7.533334285714286
    endloop
  endfacet
  facet normal 1.0 0.0 0.0
    outer loop
      vertex 3.214285714285714 1.1297571428571427 3.1619057142857137
      vertex 3.214285714285714 2.286905142857143 4.190475857142857
      vertex 3.214285714285714 2.0297622857142854 4.447618714285714
    endloop
  endfacet
  facet normal 1.0 0.0 0.0
    outer loop
      vertex 3.214285714285714 6.144042857142856 5.347618714285714
      vertex 3.214285714285714 5.372614285714285 4.5761901428571425
      vertex 3.214285714285714 6.144042857142856 4.190475857142857
    endloop
  endfacet
  facet normal 1.0 0.0 -0.0
    outer loop
      vertex 3.214285714285714 4.344047999999999 6.376191428571428
      vertex 3.214285714285714 5.244042857142857 7.533334285714286
      vertex 3.214285714285714 4.215476571428571 6.504762857142856
    endloop
  endfacet
  facet normal 1.0 0.0 0.0
    outer loop
      vertex 3.214285714285714 3.3154765714285714 4.5761901428571425
      vertex 3.214285714285714 4.344047999999999 4.5761901428571425
      vertex 3.214285714285714 4.086905142857143 5.347618714285714
    endloop
  endfacet
  facet normal 1.0 0.0 0.0
    outer loop
      vertex 3.214285714285714 6.144042857142856 6.376191428571428
      vertex 3.214285714285714 4.344047999999999 4.5761901428571425
      vertex 3.214285714285714 5.372614285714285 5.347618714285714
    endloop
  endfacet
  facet normal 1.0 0.0 -0.0
    outer loop
      vertex 3.214285714285714 6.144042857142856 7.404762857142857
      vertex 3.214285714285714 6.428571428571428 9.0
      vertex 3.214285714285714 5.372614285714285 7.404762857142857
    endloop
  endfacet
  facet normal 1.0 0.0 0.0
    outer loop
      vertex 3.214285714285714 6.144042857142856 4.190475857142857
      vertex 3.214285714285714 4.344047999999999 2.1333342857142856
      vertex 3.214285714285714 5.372614285714285 3.1619057142857137
    endloop
  endfacet
  facet normal 1.0 0.0 -0.0
    outer loop
      vertex 3.214285714285714 6.428571428571428 0.0
      vertex 3.214285714285714 6.428571428571428 9.0
      vertex 3.214285714285714 6.144042857142856 7.404762857142857
    endloop
  endfacet
  facet normal 1.0 0.0 0.0
    outer loop
      vertex 3.214285714285714 4.344047999999999 6.376191428571428
      vertex 3.214285714285714 6.428571428571428 9.0
      vertex 3.214285714285714 5.244042857142857 7.533334285714286
    endloop
  endfacet
  facet normal 1.0 0.0 0.0
    outer loop
      vertex 3.214285714285714 3.3154765714285714 5.347618714285714
      vertex 3.214285714285714 4.086905142857143 5.347618714285714
      vertex 3.214285714285714 4.344047999999999 6.376191428571428
    endloop
  endfacet
  facet normal 1.0 0.0 0.0
    outer loop
      vertex 3.214285714285714 2.286905142857143 4.190475857142857
      vertex 3.214285714285714 3.3154765714285714 4.5761901428571425
      vertex 3.214285714285714 3.3154765714285714 5.347618714285714
    endloop
  endfacet
  facet normal 1.0 0.0 0.0
    outer loop
      vertex 3.214285714285714 6.428571428571428 0.0
      vertex 3.214285714285714 6.144042857142856 7.404762857142857
      vertex 3.214285714285714 6.144042857142856 6.376191428571428
    endloop
  endfacet
  facet normal 1.0 0.0 0.0
    outer loop
      vertex 3.214285714285714 2.286905142857143 4.190475857142857
      vertex 3.214285714285714 6.144042857142856 4.190475857142857
      vertex 3.214285714285714 5.372614285714285 4.5761901428571425
    endloop
  endfacet
  facet normal 1.0 0.0 0.0
    outer loop
      vertex 3.214285714285714 2.0297622857142854 4.447618714285714
      vertex 3.214285714285714 2.4154765714285715 5.476190142857143
      vertex 3.214285714285714 2.4154765714285715 6.504762857142856
    endloop
  endfacet
  facet normal 1.0 -0.0 0.0
    outer loop
      vertex 3.214285714285714 4.215476571428571 8.304762857142856
      vertex 3.214285714285714 4.472619428571428 7.533334285714286
      vertex 3.214285714285714 5.244042857142857 8.304762857142856
    endloop
  endfacet
  facet normal 1.0 0.0 0.0
    outer loop
      vertex 3.214285714285714 5.244042857142857 7.533334285714286
      vertex 3.214285714285714 4.472619428571428 7.533334285714286
      vertex 3.214285714285714 4.215476571428571 6.504762857142856
    endloop
  endfacet
  facet normal 1.0 0.0 0.0
    outer loop
      vertex 3.214285714285714 3.3154765714285714 5.347618714285714
      vertex 3.214285714285714 4.344047999999999 6.376191428571428
      vertex 3.214285714285714 4.215476571428571 6.504762857142856
    endloop
  endfacet
  facet normal 1.0 0.0 -0.0
    outer loop
      vertex 3.214285714285714 2.286905142857143 4.190475857142857
      vertex 3.214285714285714 3.186905142857143 5.476190142857143
      vertex 3.214285714285714 2.0297622857142854 4.447618714285714
    endloop
  endfacet
  facet normal 1.0 0.0 -0.0
    outer loop
      vertex 3.214285714285714 3.3154765714285714 5.347618714285714
      vertex 3.214285714285714 4.215476571428571 6.504762857142856
      vertex 3.214285714285714 3.186905142857143 5.476190142857143
    endloop
  endfacet
  facet normal 1.0 0.0 0.0
    outer loop
      vertex 3.214285714285714 6.144042857142856 4.190475857142857
      vertex 3.214285714285714 5.372614285714285 3.1619057142857137
      vertex 3.214285714285714 6.144042857142856 3.1619057142857137
    endloop
  endfacet
  facet normal 1.0 0.0 0.0
    outer loop
      vertex 3.214285714285714 4.344047999999999 6.376191428571428
      vertex 3.214285714285714 6.144042857142856 6.376191428571428
      vertex 3.214285714285714 5.372614285714285 6.633334285714286
    endloop
  endfacet
  facet normal 1.0 0.0 0.0
    outer loop
      vertex 3.214285714285714 6.144042857142856 6.376191428571428
      vertex 3.214285714285714 5.372614285714285 5.347618714285714
      vertex 3.214285714285714 6.144042857142856 5.347618714285714
    endloop
  endfacet
  facet normal 1.0 0.0 -0.0
    outer loop
      vertex 3.214285714285714 5.372614285714285 4.5761901428571425
      vertex 3.214285714285714 5.372614285714285 5.347618714285714
      vertex 3.214285714285714 4.344047999999999 4.5761901428571425
    endloop
  endfacet
  facet normal 1.0 0.0 0.0
    outer loop
      vertex 3.214285714285714 2.286905142857143 0.33333428571428536
      vertex 3.214285714285714 1.9011857142857143 2.1333342857142856
      vertex 3.214285714285714 0.0 0.0
    endloop
  endfacet
  facet normal 1.0 0.0 0.0
    outer loop
      vertex 3.214285714285714 6.144042857142856 4.190475857142857
      vertex 3.214285714285714 2.286905142857143 0.33333428571428536
      vertex 3.214285714285714 4.344047999999999 2.1333342857142856
    endloop
  endfacet
  facet normal 1.0 0.0 0.0
    outer loop
      vertex 3.214285714285714 6.428571428571428 0.0
      vertex 3.214285714285714 6.144042857142856 6.376191428571428
      vertex 3.214285714285714 6.144042857142856 5.347618714285714
    endloop
  endfacet
  facet normal 1.0 0.0 0.0
    outer loop
      vertex 3.214285714285714 0.10118571428571416 2.1333342857142856
      vertex 3.214285714285714 1.1297571428571427 2.3904771428571427
      vertex 3.214285714285714 1.1297571428571427 3.1619057142857137
    endloop
  endfacet
  facet normal 1.0 0.0 0.0
    outer loop
      vertex 3.214285714285714 2.286905142857143 4.190475857142857
      vertex 3.214285714285714 3.3154765714285714 5.347618714285714
      vertex 3.214285714285714 3.186905142857143 5.476190142857143
    endloop
  endfacet
  facet normal 1.0 0.0 0.0
    outer loop
      vertex 3.214285714285714 6.144042857142856 3.1619057142857137
      vertex 3.214285714285714 5.372614285714285 2.3904771428571427
      vertex 3.214285714285714 6.144042857142856 2.1333342857142856
    endloop
  endfacet
  facet normal 1.0 0.0 -0.0
    outer loop
      vertex 3.214285714285714 0.10118571428571416 0.33333428571428536
      vertex 3.214285714285714 0.10118571428571416 2.1333342857142856
      vertex 3.214285714285714 0.0 0.0
    endloop
  endfacet
  facet normal 1.0 0.0 0.0
    outer loop
      vertex 3.214285714285714 2.286905142857143 0.33333428571428536
      vertex 3.214285714285714 1.9011857142857143 3.1619057142857137
      vertex 3.214285714285714 1.9011857142857143 2.1333342857142856
    endloop
  endfacet
  facet normal 1.0 0.0 0.0
    outer loop
      vertex 3.214285714285714 6.428571428571428 0.0
      vertex 3.214285714285714 6.144042857142856 5.347618714285714
      vertex 3.214285714285714 6.144042857142856 4.190475857142857
    endloop
  endfacet
  facet normal 1.0 0.0 0.0
    outer loop
      vertex 3.214285714285714 6.428571428571428 0.0
      vertex 3.214285714285714 2.286905142857143 0.33333428571428536
      vertex 3.214285714285714 0.0 0.0
    endloop
  endfacet
  facet normal 1.0 0.0 -0.0
    outer loop
      vertex 3.214285714285714 0.10118571428571416 2.1333342857142856
      vertex 3.214285714285714 0.3583285714285713 3.290475857142857
      vertex 3.214285714285714 0.0 4.447618714285714
    endloop
  endfacet
  facet normal 1.0 0.0 0.0
    outer loop
      vertex 3.214285714285714 0.10118571428571416 2.1333342857142856
      vertex 3.214285714285714 1.1297571428571427 3.1619057142857137
      vertex 3.214285714285714 1.0011857142857141 3.290475857142857
    endloop
  endfacet
  facet normal 1.0 0.0 -0.0
    outer loop
      vertex 3.214285714285714 0.3583285714285713 3.290475857142857
      vertex 3.214285714285714 1.0011857142857141 4.061904428571428
      vertex 3.214285714285714 0.0 4.447618714285714
    endloop
  endfacet
  facet normal 1.0 0.0 -0.0
    outer loop
      vertex 3.214285714285714 1.1297571428571427 3.1619057142857137
      vertex 3.214285714285714 2.0297622857142854 4.447618714285714
      vertex 3.214285714285714 1.0011857142857141 3.290475857142857
    endloop
  endfacet
  facet normal 1.0 0.0 0.0
    outer loop
      vertex 3.214285714285714 4.344047999999999 2.1333342857142856
      vertex 3.214285714285714 6.144042857142856 2.1333342857142856
      vertex 3.214285714285714 5.372614285714285 2.3904771428571427
    endloop
  endfacet
  facet normal 1.0 0.0 0.0
    outer loop
      vertex 3.214285714285714 0.10118571428571416 2.1333342857142856
      vertex 3.214285714285714 1.0011857142857141 3.290475857142857
      vertex 3.214285714285714 0.3583285714285713 3.290475857142857
    endloop
  endfacet
  facet normal 1.0 0.0 0.0
    outer loop
      vertex 3.214285714285714 6.144042857142856 2.1333342857142856
      vertex 3.214285714285714 4.344047999999999 0.33333428571428536
      vertex 3.214285714285714 6.428571428571428 0.0
    endloop
  endfacet
  facet normal 1.0 -0.0 0.0
    outer loop
      vertex 3.214285714285714 1.1297571428571427 2.3904771428571427
      vertex 3.214285714285714 1.9011857142857143 2.1333342857142856
      vertex 3.214285714285714 1.9011857142857143 3.1619057142857137
    endloop
  endfacet
  facet normal 1.0 0.0 0.0
    outer loop
      vertex 3.214285714285714 1.1297571428571427 3.1619057142857137
      vertex 3.214285714285714 1.9011857142857143 3.1619057142857137
      vertex 3.214285714285714 2.286905142857143 4.190475857142857
    endloop
  endfacet
  facet normal 1.0 0.0 0.0
    outer loop
      vertex 3.214285714285714 4.344047999999999 6.376191428571428
      vertex 3.214285714285714 5.372614285714285 6.633334285714286
      vertex 3.214285714285714 5.372614285714285 7.404762857142857
    endloop
  endfacet
  facet normal 1.0 0.0 0.0
    outer loop
      vertex 3.214285714285714 6.428571428571428 0.0
      vertex 3.214285714285714 6.144042857142856 4.190475857142857
      vertex 3.214285714285714 6.144042857142856 3.1619057142857137
    endloop
  endfacet
  facet normal 1.0 0.0 0.0
    outer loop
      vertex 3.214285714285714 0.10118571428571416 2.1333342857142856
      vertex 3.214285714285714 1.9011857142857143 2.1333342857142856
      vertex 3.214285714285714 1.1297571428571427 2.3904771428571427
    endloop
  endfacet
  facet normal 1.0 0.0 0.0
    outer loop
      vertex 3.214285714285714 0.0 0.0
      vertex 3.214285714285714 0.10118571428571416 2.1333342857142856
      vertex 3.214285714285714 0.0 4.447618714285714
    endloop
  endfacet
  facet normal 1.0 0.0 0.0
    outer loop
      vertex 3.214285714285714 1.9011857142857143 2.1333342857142856
      vertex 3.214285714285714 0.10118571428571416 0.33333428571428536
      vertex 3.214285714285714 0.0 0.0
    endloop
  endfacet
  facet normal 1.0 0.0 0.0
    outer loop
      vertex 3.214285714285714 2.286905142857143 4.190475857142857
      vertex 3.214285714285714 5.372614285714285 4.5761901428571425
      vertex 3.214285714285714 4.344047999999999 4.5761901428571425
    endloop
  endfacet
  facet normal 1.0 0.0 -0.0
    outer loop
      vertex 3.214285714285714 2.286905142857143 0.33333428571428536
      vertex 3.214285714285714 2.286905142857143 4.190475857142857
      vertex 3.214285714285714 1.9011857142857143 3.1619057142857137
    endloop
  endfacet
  facet normal 1.0 0.0 -0.0
    outer loop
      vertex 3.214285714285714 4.344047999999999 0.33333428571428536
      vertex 3.214285714285714 4.344047999999999 2.1333342857142856
      vertex 3.214285714285714 2.286905142857143 0.33333428571428536
    endloop
  endfacet
  facet normal 1.0 0.0 0.0
    outer loop
      vertex 3.214285714285714 4.344047999999999 6.376191428571428
      vertex 3.214285714285714 5.372614285714285 7.404762857142857
      vertex 3.214285714285714 6.428571428571428 9.0
    endloop
  endfacet
  facet normal 1.0 0.0 0.0
    outer loop
      vertex 3.214285714285714 6.428571428571428 0.0
      vertex 3.214285714285714 6.144042857142856 3.1619057142857137
      vertex 3.214285714285714 6.144042857142856 2.1333342857142856
    endloop
  endfacet
  facet normal 1.0 0.0 0.0
    outer loop
      vertex 3.214285714285714 6.428571428571428 0.0
      vertex 3.214285714285714 4.344047999999999 0.33333428571428536
      vertex 3.214285714285714 2.286905142857143 0.33333428571428536
    endloop
  endfacet
  facet normal 1.0 0.0 0.0
    outer loop
      vertex 3.214285714285714 3.186905142857143 5.476190142857143
      vertex 3.214285714285714 2.4154765714285715 5.476190142857143
      vertex 3.214285714285714 2.0297622857142854 4.447618714285714
    endloop
  endfacet
  facet normal 1.0 -0.0 0.0
    outer loop
      vertex 3.214285714285714 2.4154765714285715 7.533334285714286
      vertex 3.214285714285714 2.4154765714285715 6.504762857142856
      vertex 3.214285714285714 3.186905142857143 7.533334285714286
    endloop
  endfacet
  facet normal 1.0 0.0 0.0
    outer loop
      vertex 3.214285714285714 2.0297622857142854 8.304762857142856
      vertex 3.214285714285714 2.4154765714285715 6.504762857142856
      vertex 3.214285714285714 2.4154765714285715 7.533334285714286
    endloop
  endfacet
  facet normal 1.0 0.0 0.0
    outer loop
      vertex 3.214285714285714 2.0297622857142854 8.304762857142856
      vertex 3.214285714285714 2.0297622857142854 4.447618714285714
      vertex 3.214285714285714 2.4154765714285715 6.504762857142856
    endloop
  endfacet
  facet normal 1.0 0.0 0.0
    outer loop
      vertex 3.214285714285714 3.186905142857143 6.247619999999999
      vertex 3.214285714285714 2.4154765714285715 6.504762857142856
      vertex 3.214285714285714 2.4154765714285715 5.476190142857143
    endloop
  endfacet
  facet normal 1.0 0.0 0.0
    outer loop
      vertex 3.214285714285714 4.215476571428571 6.504762857142856
      vertex 3.214285714285714 2.4154765714285715 6.504762857142856
      vertex 3.214285714285714 3.186905142857143 6.247619999999999
    endloop
  endfacet
  facet normal 1.0 -0.0 0.0
    outer loop
      vertex 3.214285714285714 1.0011857142857141 4.061904428571428
      vertex 3.214285714285714 1.0011857142857141 3.290475857142857
      vertex 3.214285714285714 2.0297622857142854 4.447618714285714
    endloop
  endfacet
  facet normal 1.0 0.0 -0.0
    outer loop
      vertex 3.214285714285714 4.344047999999999 4.5761901428571425
      vertex 3.214285714285714 4.344047999999999 6.376191428571428
      vertex 3.214285714285714 4.086905142857143 5.347618714285714
    endloop
  endfacet
  facet normal 0.0 1.0 -0.0
    outer loop
      vertex 2.957142857142857 0.2571428571428571 0.2571428571428571
      vertex 0.2571428571428571 0.2571428571428571 0.2571428571428571
      vertex 2.957142857142857 0.2571428571428571 9.0
    endloop
  endfacet
  facet normal 0.0 1.0 0.0
    outer loop
      vertex 2.957142857142857 0.2571428571428571 9.0
      vertex 0.2571428571428571 0.2571428571428571 0.2571428571428571
      vertex 0.2571428571428571 0.2571428571428571 9.0
    endloop
  endfacet
  facet normal -1.0 0.0 0.0
    outer loop
      vertex 2.957142857142857 6.171428571428571 0.2571428571428571
      vertex 2.957142857142857 4.821428571428571 0.2571428571428571
      vertex 2.957142857142857 6.171428571428571 9.0
    endloop
  endfacet
  facet normal -1.0 0.0 0.0
    outer loop
      vertex 2.957142857142857 1.607142857142857 0.0
      vertex 2.957142857142857 4.821428571428571 0.2571428571428571
      vertex 2.957142857142857 4.821428571428571 0.0
    endloop
  endfacet
  facet normal -1.0 0.0 0.0
    outer loop
      vertex 2.957142857142857 6.171428571428571 9.0
      vertex 2.957142857142857 4.821428571428571 0.2571428571428571
      vertex 2.957142857142857 1.607142857142857 0.0
    endloop
  endfacet
  facet normal -1.0 0.0 0.0
    outer loop
      vertex 2.957142857142857 6.171428571428571 9.0
      vertex 2.957142857142857 1.607142857142857 0.0
      vertex 2.957142857142857 1.607142857142857 0.2571428571428571
    endloop
  endfacet
  facet normal -1.0 0.0 0.0
    outer loop
      vertex 2.957142857142857 6.171428571428571 9.0
      vertex 2.957142857142857 1.607142857142857 0.2571428571428571
      vertex 2.957142857142857 0.2571428571428571 0.2571428571428571
    endloop
  endfacet
  facet normal -1.0 -0.0 0.0
    outer loop
      vertex 2.957142857142857 6.171428571428571 9.0
      vertex 2.957142857142857 0.2571428571428571 0.2571428571428571
      vertex 2.957142857142857 0.2571428571428571 9.0
    endloop
  endfacet
  facet normal 0.0 -1.0 0.0
    outer loop
      vertex 0.2571428571428571 6.171428571428571 0.2571428571428571
      vertex 2.957142857142857 6.171428571428571 0.2571428571428571
      vertex 2.957142857142857 6.171428571428571 9.0
    endloop
  endfacet
  facet normal 0.0 -1.0 0.0
    outer loop
      vertex 0.2571428571428571 6.171428571428571 9.0
      vertex 0.2571428571428571 6.171428571428571 0.2571428571428571
      vertex 2.957142857142857 6.171428571428571 9.0
    endloop
  endfacet
  facet normal 1.0 0.0 0.0
    outer loop
      vertex 0.2571428571428571 4.821428571428571 0.0
      vertex 0.2571428571428571 1.607142857142857 0.2571428571428571
      vertex 0.2571428571428571 1.607142857142857 0.0
    endloop
  endfacet
  facet normal 1.0 0.0 0.0
    outer loop
      vertex 0.2571428571428571 4.821428571428571 0.2571428571428571
      vertex 0.2571428571428571 1.607142857142857 0.2571428571428571
      vertex 0.2571428571428571 4.821428571428571 0.0
    endloop
  endfacet
  facet normal 1.0 0.0 0.0
    outer loop
      vertex 0.2571428571428571 0.2571428571428571 0.2571428571428571
      vertex 0.2571428571428571 1.607142857142857 0.2571428571428571
      vertex 0.2571428571428571 6.171428571428571 9.0
    endloop
  endfacet
  facet normal 1.0 0.0 0.0
    outer loop
      vertex 0.2571428571428571 6.171428571428571 9.0
      vertex 0.2571428571428571 1.607142857142857 0.2571428571428571
      vertex 0.2571428571428571 4.821428571428571 0.2571428571428571
    endloop
  endfacet
  facet normal 1.0 0.0 0.0
    outer loop
      vertex 0.2571428571428571 6.171428571428571 9.0
      vertex 0.2571428571428571 4.821428571428571 0.2571428571428571
      vertex 0.2571428571428571 6.171428571428571 0.2571428571428571
    endloop
  endfacet
  facet normal 1.0 -0.0 0.0
    outer loop
      vertex 0.2571428571428571 0.2571428571428571 9.0
      vertex 0.2571428571428571 0.2571428571428571 0.2571428571428571
      vertex 0.2571428571428571 6.171428571428571 9.0
    endloop
  endfacet
  facet normal 0.0 0.7071081248927121 -0.7071054374778294
    outer loop
      vertex 3.214285714285714 0.0 6.274992857142856
      vertex 3.1178571428571424 0.0 6.274992857142856
      vertex 3.214285714285714 2.0297622857142854 8.304762857142856
    endloop
  endfacet
  facet normal 0.0 0.7071081248927121 -0.7071054374778294
    outer loop
      vertex 3.214285714285714 2.0297622857142854 8.304762857142856
      vertex 3.1178571428571424 0.0 6.274992857142856
      vertex 3.1178571428571424 2.0297622857142854 8.304762857142856
    endloop
  endfacet
  facet normal 1.0 0.0 0.0
    outer loop
      vertex 3.1178571428571424 0.0 6.274992857142856
      vertex 3.1178571428571424 0.0 4.447618714285714
      vertex 3.1178571428571424 2.0297622857142854 4.447618714285714
    endloop
  endfacet
  facet normal 1.0 0.0 0.0
    outer loop
      vertex 3.1178571428571424 2.0297622857142854 8.304762857142856
      vertex 3.1178571428571424 0.0 6.274992857142856
      vertex 3.1178571428571424 2.0297622857142854 4.447618714285714
    endloop
  endfacet
  facet normal 0.0 -0.0 1.0
    outer loop
      vertex 3.214285714285714 0.0 4.447618714285714
      vertex 3.214285714285714 2.0297622857142854 4.447618714285714
      vertex 3.1178571428571424 2.0297622857142854 4.447618714285714
    endloop
  endfacet
  facet normal 0.0 0.0 1.0
    outer loop
      vertex 3.1178571428571424 0.0 4.447618714285714
      vertex 3.214285714285714 0.0 4.447618714285714
      vertex 3.1178571428571424 2.0297622857142854 4.447618714285714
    endloop
  endfacet
  facet normal 0.0 0.0 -1.0
    outer loop
      vertex 2.957142857142857 4.821428571428571 0.0
      vertex 0.0 6.428571428571428 0.0
      vertex 3.214285714285714 6.428571428571428 0.0
    endloop
  endfacet
  facet normal 0.0 0.0 -1.0
    outer loop
      vertex 0.0 0.0 0.0
      vertex 0.0 6.428571428571428 0.0
      vertex 0.2571428571428571 1.607142857142857 0.0
    endloop
  endfacet
  facet normal 0.0 0.0 -1.0
    outer loop
      vertex 0.0 0.0 0.0
      vertex 0.2571428571428571 1.607142857142857 0.0
      vertex 3.214285714285714 0.0 0.0
    endloop
  endfacet
  facet normal 0.0 0.0 -1.0
    outer loop
      vertex 0.2571428571428571 4.821428571428571 0.0
      vertex 0.0 6.428571428571428 0.0
      vertex 2.957142857142857 4.821428571428571 0.0
    endloop
  endfacet
  facet normal 0.0 0.0 -1.0
    outer loop
      vertex 3.214285714285714 0.0 0.0
      vertex 2.957142857142857 1.607142857142857 0.0
      vertex 3.214285714285714 6.428571428571428 0.0
    endloop
  endfacet
  facet normal 0.0 0.0 -1.0
    outer loop
      vertex 2.957142857142857 1.607142857142857 0.0
      vertex 2.957142857142857 4.821428571428571 0.0
      vertex 3.214285714285714 6.428571428571428 0.0
    endloop
  endfacet
  facet normal 0.0 0.0 -1.0
    outer loop
      vertex 0.2571428571428571 1.607142857142857 0.0
      vertex 0.0 6.428571428571428 0.0
      vertex 0.2571428571428571 4.821428571428571 0.0
    endloop
  endfacet
  facet normal -0.0 -0.0 -1.0
    outer loop
      vertex 2.957142857142857 1.607142857142857 0.0
      vertex 3.214285714285714 0.0 0.0
      vertex 0.2571428571428571 1.607142857142857 0.0
    endloop
  endfacet
  facet normal 0.0 -1.0 0.0
    outer loop
      vertex 3.1178571428571424 2.0297622857142854 4.447618714285714
      vertex 3.214285714285714 2.0297622857142854 4.447618714285714
      vertex 3.214285714285714 2.0297622857142854 8.304762857142856
    endloop
  endfacet
  facet normal 0.0 -1.0 0.0
    outer loop
      vertex 3.1178571428571424 2.0297622857142854 8.304762857142856
      vertex 3.1178571428571424 2.0297622857142854 4.447618714285714
      vertex 3.214285714285714 2.0297622857142854 8.304762857142856
    endloop
  endfacet
  facet normal 0.0 -0.0 1.0
    outer loop
      vertex 3.214285714285714 0.22975714285714272 7.533334285714286
      vertex 3.214285714285714 1.0011857142857141 7.533334285714286
      vertex 3.1178571428571424 1.0011857142857141 7.533334285714286
    endloop
  endfacet
  facet normal 0.0 0.0 1.0
    outer loop
      vertex 3.1178571428571424 0.22975714285714272 7.533334285714286
      vertex 3.214285714285714 0.22975714285714272 7.533334285714286
      vertex 3.1178571428571424 1.0011857142857141 7.533334285714286
    endloop
  endfacet
  facet normal 0.0 0.7071067811865471 -0.7071067811865479
    outer loop
      vertex 3.214285714285714 0.22975714285714272 7.533334285714286
      vertex 3.1178571428571424 0.22975714285714272 7.533334285714286
      vertex 3.214285714285714 1.0011857142857141 8.304762857142856
    endloop
  endfacet
  facet normal 0.0 0.7071067811865471 -0.7071067811865479
    outer loop
      vertex 3.214285714285714 1.0011857142857141 8.304762857142856
      vertex 3.1178571428571424 0.22975714285714272 7.533334285714286
      vertex 3.1178571428571424 1.0011857142857141 8.304762857142856
    endloop
  endfacet
  facet normal 0.0 -1.0 0.0
    outer loop
      vertex 3.1178571428571424 1.0011857142857141 7.533334285714286
      vertex 3.214285714285714 1.0011857142857141 7.533334285714286
      vertex 3.214285714285714 1.0011857142857141 8.304762857142856
    endloop
  endfacet
  facet normal 0.0 -1.0 0.0
    outer loop
      vertex 3.1178571428571424 1.0011857142857141 8.304762857142856
      vertex 3.1178571428571424 1.0011857142857141 7.533334285714286
      vertex 3.214285714285714 1.0011857142857141 8.304762857142856
    endloop
  endfacet
  facet normal 0.0 -0.0 1.0
    outer loop
      vertex 3.214285714285714 2.4154765714285715 7.533334285714286
      vertex 3.214285714285714 3.186905142857143 7.533334285714286
      vertex 3.1178571428571424 3.186905142857143 7.533334285714286
    endloop
  endfacet
  facet normal 0.0 0.0 1.0
    outer loop
      vertex 3.1178571428571424 2.4154765714285715 7.533334285714286
      vertex 3.214285714285714 2.4154765714285715 7.533334285714286
      vertex 3.1178571428571424 3.186905142857143 7.533334285714286
    endloop
  endfacet
  facet normal 0.0 0.7071067811865471 -0.7071067811865479
    outer loop
      vertex 3.214285714285714 2.4154765714285715 7.533334285714286
      vertex 3.1178571428571424 2.4154765714285715 7.533334285714286
      vertex 3.214285714285714 3.186905142857143 8.304762857142856
    endloop
  endfacet
  facet normal 0.0 0.7071067811865471 -0.7071067811865479
    outer loop
      vertex 3.214285714285714 3.186905142857143 8.304762857142856
      vertex 3.1178571428571424 2.4154765714285715 7.533334285714286
      vertex 3.1178571428571424 3.186905142857143 8.304762857142856
    endloop
  endfacet
  facet normal 0.0 -1.0 0.0
    outer loop
      vertex 3.1178571428571424 3.186905142857143 7.533334285714286
      vertex 3.214285714285714 3.186905142857143 7.533334285714286
      vertex 3.214285714285714 3.186905142857143 8.304762857142856
    endloop
  endfacet
  facet normal 0.0 -1.0 0.0
    outer loop
      vertex 3.1178571428571424 3.186905142857143 8.304762857142856
      vertex 3.1178571428571424 3.186905142857143 7.533334285714286
      vertex 3.214285714285714 3.186905142857143 8.304762857142856
    endloop
  endfacet
  facet normal 0.0 -0.0 1.0
    outer loop
      vertex 3.214285714285714 2.4154765714285715 6.504762857142856
      vertex 3.214285714285714 4.215476571428571 6.504762857142856
      vertex 3.1178571428571424 4.215476571428571 6.504762857142856
    endloop
  endfacet
  facet normal 0.0 0.0 1.0
    outer loop
      vertex 3.1178571428571424 2.4154765714285715 6.504762857142856
      vertex 3.214285714285714 2.4154765714285715 6.504762857142856
      vertex 3.1178571428571424 4.215476571428571 6.504762857142856
    endloop
  endfacet
  facet normal 0.0 0.7071067811865478 -0.7071067811865472
    outer loop
      vertex 3.214285714285714 2.4154765714285715 6.504762857142856
      vertex 3.1178571428571424 2.4154765714285715 6.504762857142856
      vertex 3.214285714285714 4.215476571428571 8.304762857142856
    endloop
  endfacet
  facet normal 0.0 0.7071067811865478 -0.7071067811865472
    outer loop
      vertex 3.214285714285714 4.215476571428571 8.304762857142856
      vertex 3.1178571428571424 2.4154765714285715 6.504762857142856
      vertex 3.1178571428571424 4.215476571428571 8.304762857142856
    endloop
  endfacet
  facet normal 0.0 -1.0 0.0
    outer loop
      vertex 3.1178571428571424 4.215476571428571 6.504762857142856
      vertex 3.214285714285714 4.215476571428571 6.504762857142856
      vertex 3.214285714285714 4.215476571428571 8.304762857142856
    endloop
  endfacet
  facet normal 0.0 -1.0 0.0
    outer loop
      vertex 3.1178571428571424 4.215476571428571 8.304762857142856
      vertex 3.1178571428571424 4.215476571428571 6.504762857142856
      vertex 3.214285714285714 4.215476571428571 8.304762857142856
    endloop
  endfacet
  facet normal 0.0 -0.0 1.0
    outer loop
      vertex 3.214285714285714 4.472619428571428 7.533334285714286
      vertex 3.214285714285714 5.244042857142857 7.533334285714286
      vertex 3.1178571428571424 5.244042857142857 7.533334285714286
    endloop
  endfacet
  facet normal 0.0 0.0 1.0
    outer loop
      vertex 3.1178571428571424 4.472619428571428 7.533334285714286
      vertex 3.214285714285714 4.472619428571428 7.533334285714286
      vertex 3.1178571428571424 5.244042857142857 7.533334285714286
    endloop
  endfacet
  facet normal 0.0 0.7071091382130794 -0.7071044241521588
    outer loop
      vertex 3.214285714285714 4.472619428571428 7.533334285714286
      vertex 3.1178571428571424 4.472619428571428 7.533334285714286
      vertex 3.214285714285714 5.244042857142857 8.304762857142856
    endloop
  endfacet
  facet normal 0.0 0.7071091382130794 -0.7071044241521588
    outer loop
      vertex 3.214285714285714 5.244042857142857 8.304762857142856
      vertex 3.1178571428571424 4.472619428571428 7.533334285714286
      vertex 3.1178571428571424 5.244042857142857 8.304762857142856
    endloop
  endfacet
  facet normal 0.0 -1.0 0.0
    outer loop
      vertex 3.1178571428571424 5.244042857142857 7.533334285714286
      vertex 3.214285714285714 5.244042857142857 7.533334285714286
      vertex 3.214285714285714 5.244042857142857 8.304762857142856
    endloop
  endfacet
  facet normal 0.0 -1.0 0.0
    outer loop
      vertex 3.1178571428571424 5.244042857142857 8.304762857142856
      vertex 3.1178571428571424 5.244042857142857 7.533334285714286
      vertex 3.214285714285714 5.244042857142857 8.304762857142856
    endloop
  endfacet
  facet normal -0.0 -0.0 -1.0
    outer loop
      vertex 3.214285714285714 6.144042857142856 7.404762857142857
      vertex 3.214285714285714 5.372614285714285 7.404762857142857
      vertex 3.1178571428571424 6.144042857142856 7.404762857142857
    endloop
  endfacet
  facet normal 0.0 0.0 -1.0
    outer loop
      vertex 3.1178571428571424 6.144042857142856 7.404762857142857
      vertex 3.214285714285714 5.372614285714285 7.404762857142857
      vertex 3.1178571428571424 5.372614285714285 7.404762857142857
    endloop
  endfacet
  facet normal 0.0 1.0 -0.0
    outer loop
      vertex 3.214285714285714 5.372614285714285 6.633334285714286
      vertex 3.1178571428571424 5.372614285714285 6.633334285714286
      vertex 3.214285714285714 5.372614285714285 7.404762857142857
    endloop
  endfacet
  facet normal 0.0 1.0 0.0
    outer loop
      vertex 3.214285714285714 5.372614285714285 7.404762857142857
      vertex 3.1178571428571424 5.372614285714285 6.633334285714286
      vertex 3.1178571428571424 5.372614285714285 7.404762857142857
    endloop
  endfacet
  facet normal 0.0 -0.7071067811865475 0.7071067811865475
    outer loop
      vertex 3.1178571428571424 5.372614285714285 6.633334285714286
      vertex 3.214285714285714 5.372614285714285 6.633334285714286
      vertex 3.214285714285714 6.144042857142856 7.404762857142857
    endloop
  endfacet
  facet normal 0.0 -0.7071067811865475 0.7071067811865475
    outer loop
      vertex 3.1178571428571424 6.144042857142856 7.404762857142857
      vertex 3.1178571428571424 5.372614285714285 6.633334285714286
      vertex 3.214285714285714 6.144042857142856 7.404762857142857
    endloop
  endfacet
  facet normal -0.0 -0.0 -1.0
    outer loop
      vertex 3.214285714285714 6.144042857142856 6.376191428571428
      vertex 3.214285714285714 4.344047999999999 6.376191428571428
      vertex 3.1178571428571424 6.144042857142856 6.376191428571428
    endloop
  endfacet
  facet normal 0.0 0.0 -1.0
    outer loop
      vertex 3.1178571428571424 6.144042857142856 6.376191428571428
      vertex 3.214285714285714 4.344047999999999 6.376191428571428
      vertex 3.1178571428571424 4.344047999999999 6.376191428571428
    endloop
  endfacet
  facet normal 0.0 1.0 -0.0
    outer loop
      vertex 3.214285714285714 4.344047999999999 4.5761901428571425
      vertex 3.1178571428571424 4.344047999999999 4.5761901428571425
      vertex 3.214285714285714 4.344047999999999 6.376191428571428
    endloop
  endfacet
  facet normal 0.0 1.0 0.0
    outer loop
      vertex 3.214285714285714 4.344047999999999 6.376191428571428
      vertex 3.1178571428571424 4.344047999999999 4.5761901428571425
      vertex 3.1178571428571424 4.344047999999999 6.376191428571428
    endloop
  endfacet
  facet normal 0.0 -0.7071080438774535 0.7071055184933867
    outer loop
      vertex 3.1178571428571424 4.344047999999999 4.5761901428571425
      vertex 3.214285714285714 4.344047999999999 4.5761901428571425
      vertex 3.214285714285714 6.144042857142856 6.376191428571428
    endloop
  endfacet
  facet normal 0.0 -0.7071080438774535 0.7071055184933867
    outer loop
      vertex 3.1178571428571424 6.144042857142856 6.376191428571428
      vertex 3.1178571428571424 4.344047999999999 4.5761901428571425
      vertex 3.214285714285714 6.144042857142856 6.376191428571428
    endloop
  endfacet
  facet normal 0.0 -0.0 1.0
    outer loop
      vertex 3.214285714285714 2.4154765714285715 5.476190142857143
      vertex 3.214285714285714 3.186905142857143 5.476190142857143
      vertex 3.1178571428571424 3.186905142857143 5.476190142857143
    endloop
  endfacet
  facet normal 0.0 0.0 1.0
    outer loop
      vertex 3.1178571428571424 2.4154765714285715 5.476190142857143
      vertex 3.214285714285714 2.4154765714285715 5.476190142857143
      vertex 3.1178571428571424 3.186905142857143 5.476190142857143
    endloop
  endfacet
  facet normal 0.0 0.7071073704414613 -0.7071061919311427
    outer loop
      vertex 3.214285714285714 2.4154765714285715 5.476190142857143
      vertex 3.1178571428571424 2.4154765714285715 5.476190142857143
      vertex 3.214285714285714 3.186905142857143 6.247619999999999
    endloop
  endfacet
  facet normal 0.0 0.7071073704414613 -0.7071061919311427
    outer loop
      vertex 3.214285714285714 3.186905142857143 6.247619999999999
      vertex 3.1178571428571424 2.4154765714285715 5.476190142857143
      vertex 3.1178571428571424 3.186905142857143 6.247619999999999
    endloop
  endfacet
  facet normal 0.0 -1.0 0.0
    outer loop
      vertex 3.1178571428571424 3.186905142857143 5.476190142857143
      vertex 3.214285714285714 3.186905142857143 5.476190142857143
      vertex 3.214285714285714 3.186905142857143 6.247619999999999
    endloop
  endfacet
  facet normal 0.0 -1.0 0.0
    outer loop
      vertex 3.1178571428571424 3.186905142857143 6.247619999999999
      vertex 3.1178571428571424 3.186905142857143 5.476190142857143
      vertex 3.214285714285714 3.186905142857143 6.247619999999999
    endloop
  endfacet
  facet normal -0.0 -0.0 -1.0
    outer loop
      vertex 3.214285714285714 4.086905142857143 5.347618714285714
      vertex 3.214285714285714 3.3154765714285714 5.347618714285714
      vertex 3.1178571428571424 4.086905142857143 5.347618714285714
    endloop
  endfacet
  facet normal 0.0 0.0 -1.0
    outer loop
      vertex 3.1178571428571424 4.086905142857143 5.347618714285714
      vertex 3.214285714285714 3.3154765714285714 5.347618714285714
      vertex 3.1178571428571424 3.3154765714285714 5.347618714285714
    endloop
  endfacet
  facet normal 0.0 1.0 -0.0
    outer loop
      vertex 3.214285714285714 3.3154765714285714 4.5761901428571425
      vertex 3.1178571428571424 3.3154765714285714 4.5761901428571425
      vertex 3.214285714285714 3.3154765714285714 5.347618714285714
    endloop
  endfacet
  facet normal 0.0 1.0 0.0
    outer loop
      vertex 3.214285714285714 3.3154765714285714 5.347618714285714
      vertex 3.1178571428571424 3.3154765714285714 4.5761901428571425
      vertex 3.1178571428571424 3.3154765714285714 5.347618714285714
    endloop
  endfacet
  facet normal 0.0 -0.7071067811865475 0.7071067811865475
    outer loop
      vertex 3.1178571428571424 3.3154765714285714 4.5761901428571425
      vertex 3.214285714285714 3.3154765714285714 4.5761901428571425
      vertex 3.214285714285714 4.086905142857143 5.347618714285714
    endloop
  endfacet
  facet normal 0.0 -0.7071067811865475 0.7071067811865475
    outer loop
      vertex 3.1178571428571424 4.086905142857143 5.347618714285714
      vertex 3.1178571428571424 3.3154765714285714 4.5761901428571425
      vertex 3.214285714285714 4.086905142857143 5.347618714285714
    endloop
  endfacet
  facet normal -0.0 -0.0 -1.0
    outer loop
      vertex 3.214285714285714 6.144042857142856 5.347618714285714
      vertex 3.214285714285714 5.372614285714285 5.347618714285714
      vertex 3.1178571428571424 6.144042857142856 5.347618714285714
    endloop
  endfacet
  facet normal 0.0 0.0 -1.0
    outer loop
      vertex 3.1178571428571424 6.144042857142856 5.347618714285714
      vertex 3.214285714285714 5.372614285714285 5.347618714285714
      vertex 3.1178571428571424 5.372614285714285 5.347618714285714
    endloop
  endfacet
  facet normal 0.0 1.0 -0.0
    outer loop
      vertex 3.214285714285714 5.372614285714285 4.5761901428571425
      vertex 3.1178571428571424 5.372614285714285 4.5761901428571425
      vertex 3.214285714285714 5.372614285714285 5.347618714285714
    endloop
  endfacet
  facet normal 0.0 1.0 0.0
    outer loop
      vertex 3.214285714285714 5.372614285714285 5.347618714285714
      vertex 3.1178571428571424 5.372614285714285 4.5761901428571425
      vertex 3.1178571428571424 5.372614285714285 5.347618714285714
    endloop
  endfacet
  facet normal 0.0 -0.7071067811865475 0.7071067811865475
    outer loop
      vertex 3.1178571428571424 5.372614285714285 4.5761901428571425
      vertex 3.214285714285714 5.372614285714285 4.5761901428571425
      vertex 3.214285714285714 6.144042857142856 5.347618714285714
    endloop
  endfacet
  facet normal 0.0 -0.7071067811865475 0.7071067811865475
    outer loop
      vertex 3.1178571428571424 6.144042857142856 5.347618714285714
      vertex 3.1178571428571424 5.372614285714285 4.5761901428571425
      vertex 3.214285714285714 6.144042857142856 5.347618714285714
    endloop
  endfacet
  facet normal -0.0 -0.0 -1.0
    outer loop
      vertex 3.214285714285714 6.144042857142856 4.190475857142857
      vertex 3.214285714285714 2.286905142857143 4.190475857142857
      vertex 3.1178571428571424 6.144042857142856 4.190475857142857
    endloop
  endfacet
  facet normal 0.0 0.0 -1.0
    outer loop
      vertex 3.1178571428571424 6.144042857142856 4.190475857142857
      vertex 3.214285714285714 2.286905142857143 4.190475857142857
      vertex 3.1178571428571424 2.286905142857143 4.190475857142857
    endloop
  endfacet
  facet normal 0.0 1.0 -0.0
    outer loop
      vertex 3.214285714285714 2.286905142857143 0.33333428571428536
      vertex 3.1178571428571424 2.286905142857143 0.33333428571428536
      vertex 3.214285714285714 2.286905142857143 4.190475857142857
    endloop
  endfacet
  facet normal 0.0 1.0 0.0
    outer loop
      vertex 3.214285714285714 2.286905142857143 4.190475857142857
      vertex 3.1178571428571424 2.286905142857143 0.33333428571428536
      vertex 3.1178571428571424 2.286905142857143 4.190475857142857
    endloop
  endfacet
  facet normal 0.0 -0.7071071347401445 0.7071064276327738
    outer loop
      vertex 3.1178571428571424 2.286905142857143 0.33333428571428536
      vertex 3.214285714285714 2.286905142857143 0.33333428571428536
      vertex 3.214285714285714 6.144042857142856 4.190475857142857
    endloop
  endfacet
  facet normal 0.0 -0.7071071347401445 0.7071064276327738
    outer loop
      vertex 3.1178571428571424 6.144042857142856 4.190475857142857
      vertex 3.1178571428571424 2.286905142857143 0.33333428571428536
      vertex 3.214285714285714 6.144042857142856 4.190475857142857
    endloop
  endfacet
  facet normal 0.0 -0.0 1.0
    outer loop
      vertex 3.214285714285714 0.3583285714285713 3.290475857142857
      vertex 3.214285714285714 1.0011857142857141 3.290475857142857
      vertex 3.1178571428571424 1.0011857142857141 3.290475857142857
    endloop
  endfacet
  facet normal 0.0 0.0 1.0
    outer loop
      vertex 3.1178571428571424 0.3583285714285713 3.290475857142857
      vertex 3.214285714285714 0.3583285714285713 3.290475857142857
      vertex 3.1178571428571424 1.0011857142857141 3.290475857142857
    endloop
  endfacet
  facet normal 0.0 0.7682212795973759 -0.6401843996644798
    outer loop
      vertex 3.214285714285714 0.3583285714285713 3.290475857142857
      vertex 3.1178571428571424 0.3583285714285713 3.290475857142857
      vertex 3.214285714285714 1.0011857142857141 4.061904428571428
    endloop
  endfacet
  facet normal 0.0 0.7682212795973759 -0.6401843996644798
    outer loop
      vertex 3.214285714285714 1.0011857142857141 4.061904428571428
      vertex 3.1178571428571424 0.3583285714285713 3.290475857142857
      vertex 3.1178571428571424 1.0011857142857141 4.061904428571428
    endloop
  endfacet
  facet normal 0.0 -1.0 0.0
    outer loop
      vertex 3.1178571428571424 1.0011857142857141 3.290475857142857
      vertex 3.214285714285714 1.0011857142857141 3.290475857142857
      vertex 3.214285714285714 1.0011857142857141 4.061904428571428
    endloop
  endfacet
  facet normal 0.0 -1.0 0.0
    outer loop
      vertex 3.1178571428571424 1.0011857142857141 4.061904428571428
      vertex 3.1178571428571424 1.0011857142857141 3.290475857142857
      vertex 3.214285714285714 1.0011857142857141 4.061904428571428
    endloop
  endfacet
  facet normal -0.0 -0.0 -1.0
    outer loop
      vertex 3.214285714285714 1.9011857142857143 3.1619057142857137
      vertex 3.214285714285714 1.1297571428571427 3.1619057142857137
      vertex 3.1178571428571424 1.9011857142857143 3.1619057142857137
    endloop
  endfacet
  facet normal 0.0 0.0 -1.0
    outer loop
      vertex 3.1178571428571424 1.9011857142857143 3.1619057142857137
      vertex 3.214285714285714 1.1297571428571427 3.1619057142857137
      vertex 3.1178571428571424 1.1297571428571427 3.1619057142857137
    endloop
  endfacet
  facet normal 0.0 1.0 -0.0
    outer loop
      vertex 3.214285714285714 1.1297571428571427 2.3904771428571427
      vertex 3.1178571428571424 1.1297571428571427 2.3904771428571427
      vertex 3.214285714285714 1.1297571428571427 3.1619057142857137
    endloop
  endfacet
  facet normal 0.0 1.0 0.0
    outer loop
      vertex 3.214285714285714 1.1297571428571427 3.1619057142857137
      vertex 3.1178571428571424 1.1297571428571427 2.3904771428571427
      vertex 3.1178571428571424 1.1297571428571427 3.1619057142857137
    endloop
  endfacet
  facet normal 0.0 -0.7071067811865472 0.7071067811865478
    outer loop
      vertex 3.1178571428571424 1.1297571428571427 2.3904771428571427
      vertex 3.214285714285714 1.1297571428571427 2.3904771428571427
      vertex 3.214285714285714 1.9011857142857143 3.1619057142857137
    endloop
  endfacet
  facet normal 0.0 -0.7071067811865472 0.7071067811865478
    outer loop
      vertex 3.1178571428571424 1.9011857142857143 3.1619057142857137
      vertex 3.1178571428571424 1.1297571428571427 2.3904771428571427
      vertex 3.214285714285714 1.9011857142857143 3.1619057142857137
    endloop
  endfacet
  facet normal -0.0 -0.0 -1.0
    outer loop
      vertex 3.214285714285714 6.144042857142856 3.1619057142857137
      vertex 3.214285714285714 5.372614285714285 3.1619057142857137
      vertex 3.1178571428571424 6.144042857142856 3.1619057142857137
    endloop
  endfacet
  facet normal 0.0 0.0 -1.0
    outer loop
      vertex 3.1178571428571424 6.144042857142856 3.1619057142857137
      vertex 3.214285714285714 5.372614285714285 3.1619057142857137
      vertex 3.1178571428571424 5.372614285714285 3.1619057142857137
    endloop
  endfacet
  facet normal 0.0 1.0 -0.0
    outer loop
      vertex 3.214285714285714 5.372614285714285 2.3904771428571427
      vertex 3.1178571428571424 5.372614285714285 2.3904771428571427
      vertex 3.214285714285714 5.372614285714285 3.1619057142857137
    endloop
  endfacet
  facet normal 0.0 1.0 0.0
    outer loop
      vertex 3.214285714285714 5.372614285714285 3.1619057142857137
      vertex 3.1178571428571424 5.372614285714285 2.3904771428571427
      vertex 3.1178571428571424 5.372614285714285 3.1619057142857137
    endloop
  endfacet
  facet normal 0.0 -0.7071067811865472 0.7071067811865477
    outer loop
      vertex 3.1178571428571424 5.372614285714285 2.3904771428571427
      vertex 3.214285714285714 5.372614285714285 2.3904771428571427
      vertex 3.214285714285714 6.144042857142856 3.1619057142857137
    endloop
  endfacet
  facet normal 0.0 -0.7071067811865472 0.7071067811865477
    outer loop
      vertex 3.1178571428571424 6.144042857142856 3.1619057142857137
      vertex 3.1178571428571424 5.372614285714285 2.3904771428571427
      vertex 3.214285714285714 6.144042857142856 3.1619057142857137
    endloop
  endfacet
  facet normal -0.0 -0.0 -1.0
    outer loop
      vertex 3.214285714285714 1.9011857142857143 2.1333342857142856
      vertex 3.214285714285714 0.10118571428571416 2.1333342857142856
      vertex 3.1178571428571424 1.9011857142857143 2.1333342857142856
    endloop
  endfacet
  facet normal 0.0 0.0 -1.0
    outer loop
      vertex 3.1178571428571424 1.9011857142857143 2.1333342857142856
      vertex 3.214285714285714 0.10118571428571416 2.1333342857142856
      vertex 3.1178571428571424 0.10118571428571416 2.1333342857142856
    endloop
  endfacet
  facet normal 0.0 1.0 -0.0
    outer loop
      vertex 3.214285714285714 0.10118571428571416 0.33333428571428536
      vertex 3.1178571428571424 0.10118571428571416 0.33333428571428536
      vertex 3.214285714285714 0.10118571428571416 2.1333342857142856
    endloop
  endfacet
  facet normal 0.0 1.0 0.0
    outer loop
      vertex 3.214285714285714 0.10118571428571416 2.1333342857142856
      vertex 3.1178571428571424 0.10118571428571416 0.33333428571428536
      vertex 3.1178571428571424 0.10118571428571416 2.1333342857142856
    endloop
  endfacet
  facet normal 0.0 -0.7071067811865476 0.7071067811865475
    outer loop
      vertex 3.1178571428571424 0.10118571428571416 0.33333428571428536
      vertex 3.214285714285714 0.10118571428571416 0.33333428571428536
      vertex 3.214285714285714 1.9011857142857143 2.1333342857142856
    endloop
  endfacet
  facet normal 0.0 -0.7071067811865476 0.7071067811865475
    outer loop
      vertex 3.1178571428571424 1.9011857142857143 2.1333342857142856
      vertex 3.1178571428571424 0.10118571428571416 0.33333428571428536
      vertex 3.214285714285714 1.9011857142857143 2.1333342857142856
    endloop
  endfacet
  facet normal -0.0 -0.0 -1.0
    outer loop
      vertex 3.214285714285714 6.144042857142856 2.1333342857142856
      vertex 3.214285714285714 4.344047999999999 2.1333342857142856
      vertex 3.1178571428571424 6.144042857142856 2.1333342857142856
    endloop
  endfacet
  facet normal 0.0 0.0 -1.0
    outer loop
      vertex 3.1178571428571424 6.144042857142856 2.1333342857142856
      vertex 3.214285714285714 4.344047999999999 2.1333342857142856
      vertex 3.1178571428571424 4.344047999999999 2.1333342857142856
    endloop
  endfacet
  facet normal 0.0 1.0 -0.0
    outer loop
      vertex 3.214285714285714 4.344047999999999 0.33333428571428536
      vertex 3.1178571428571424 4.344047999999999 0.33333428571428536
      vertex 3.214285714285714 4.344047999999999 2.1333342857142856
    endloop
  endfacet
  facet normal 0.0 1.0 0.0
    outer loop
      vertex 3.214285714285714 4.344047999999999 2.1333342857142856
      vertex 3.1178571428571424 4.344047999999999 0.33333428571428536
      vertex 3.1178571428571424 4.344047999999999 2.1333342857142856
    endloop
  endfacet
  facet normal 0.0 -0.7071077913398137 0.7071057710318382
    outer loop
      vertex 3.1178571428571424 4.344047999999999 0.33333428571428536
      vertex 3.214285714285714 4.344047999999999 0.33333428571428536
      vertex 3.214285714285714 6.144042857142856 2.1333342857142856
    endloop
  endfacet
  facet normal 0.0 -0.7071077913398137 0.7071057710318382
    outer loop
      vertex 3.1178571428571424 6.144042857142856 2.1333342857142856
      vertex 3.1178571428571424 4.344047999999999 0.33333428571428536
      vertex 3.214285714285714 6.144042857142856 2.1333342857142856
    endloop
  endfacet
  facet normal 0.0 -0.0 1.0
    outer loop
      vertex 2.957142857142857 0.2571428571428571 0.2571428571428571
      vertex 2.957142857142857 1.607142857142857 0.2571428571428571
      vertex 0.2571428571428571 1.607142857142857 0.2571428571428571
    endloop
  endfacet
  facet normal 0.0 0.0 1.0
    outer loop
      vertex 0.2571428571428571 0.2571428571428571 0.2571428571428571
      vertex 2.957142857142857 0.2571428571428571 0.2571428571428571
      vertex 0.2571428571428571 1.607142857142857 0.2571428571428571
    endloop
  endfacet
  facet normal 0.0 1.0 -0.0
    outer loop
      vertex 2.957142857142857 1.607142857142857 0.0
      vertex 0.2571428571428571 1.607142857142857 0.0
      vertex 2.957142857142857 1.607142857142857 0.2571428571428571
    endloop
  endfacet
  facet normal 0.0 1.0 0.0
    outer loop
      vertex 2.957142857142857 1.607142857142857 0.2571428571428571
      vertex 0.2571428571428571 1.607142857142857 0.0
      vertex 0.2571428571428571 1.607142857142857 0.2571428571428571
    endloop
  endfacet
  facet normal 0.0 -1.0 0.0
    outer loop
      vertex 0.2571428571428571 4.821428571428571 0.0
      vertex 2.957142857142857 4.821428571428571 0.0
      vertex 2.957142857142857 4.821428571428571 0.2571428571428571
    endloop
  endfacet
  facet normal 0.0 -1.0 0.0
    outer loop
      vertex 0.2571428571428571 4.821428571428571 0.2571428571428571
      vertex 0.2571428571428571 4.821428571428571 0.0
      vertex 2.957142857142857 4.821428571428571 0.2571428571428571
    endloop
  endfacet
  facet normal 0.0 -0.0 1.0
    outer loop
      vertex 2.957142857142857 4.821428571428571 0.2571428571428571
      vertex 2.957142857142857 6.171428571428571 0.2571428571428571
      vertex 0.2571428571428571 6.171428571428571 0.2571428571428571
    endloop
  endfacet
  facet normal 0.0 0.0 1.0
    outer loop
      vertex 0.2571428571428571 4.821428571428571 0.2571428571428571
      vertex 2.957142857142857 4.821428571428571 0.2571428571428571
      vertex 0.2571428571428571 6.171428571428571 0.2571428571428571
    endloop
  endfacet
  facet normal 1.0 0.0 0.0
    outer loop
      vertex 3.1178571428571424 0.22975714285714272 7.533334285714286
      vertex 3.1178571428571424 1.0011857142857141 7.533334285714286
      vertex 3.1178571428571424 1.0011857142857141 8.304762857142856
    endloop
  endfacet
  facet normal 1.0 0.0 0.0
    outer loop
      vertex 3.1178571428571424 2.4154765714285715 7.533334285714286
      vertex 3.1178571428571424 3.186905142857143 7.533334285714286
      vertex 3.1178571428571424 3.186905142857143 8.304762857142856
    endloop
  endfacet
  facet normal 1.0 0.0 0.0
    outer loop
      vertex 3.1178571428571424 2.4154765714285715 6.504762857142856
      vertex 3.1178571428571424 4.215476571428571 6.504762857142856
      vertex 3.1178571428571424 4.215476571428571 8.304762857142856
    endloop
  endfacet
  facet normal 1.0 0.0 0.0
    outer loop
      vertex 3.1178571428571424 4.472619428571428 7.533334285714286
      vertex 3.1178571428571424 5.244042857142857 7.533334285714286
      vertex 3.1178571428571424 5.244042857142857 8.304762857142856
    endloop
  endfacet
  facet normal 1.0 0.0 0.0
    outer loop
      vertex 3.1178571428571424 5.372614285714285 6.633334285714286
      vertex 3.1178571428571424 6.144042857142856 7.404762857142857
      vertex 3.1178571428571424 5.372614285714285 7.404762857142857
    endloop
  endfacet
  facet normal 1.0 0.0 0.0
    outer loop
      vertex 3.1178571428571424 4.344047999999999 4.5761901428571425
      vertex 3.1178571428571424 6.144042857142856 6.376191428571428
      vertex 3.1178571428571424 4.344047999999999 6.376191428571428
    endloop
  endfacet
  facet normal 1.0 0.0 0.0
    outer loop
      vertex 3.1178571428571424 2.4154765714285715 5.476190142857143
      vertex 3.1178571428571424 3.186905142857143 5.476190142857143
      vertex 3.1178571428571424 3.186905142857143 6.247619999999999
    endloop
  endfacet
  facet normal 1.0 0.0 0.0
    outer loop
      vertex 3.1178571428571424 3.3154765714285714 4.5761901428571425
      vertex 3.1178571428571424 4.086905142857143 5.347618714285714
      vertex 3.1178571428571424 3.3154765714285714 5.347618714285714
    endloop
  endfacet
  facet normal 1.0 0.0 0.0
    outer loop
      vertex 3.1178571428571424 5.372614285714285 4.5761901428571425
      vertex 3.1178571428571424 6.144042857142856 5.347618714285714
      vertex 3.1178571428571424 5.372614285714285 5.347618714285714
    endloop
  endfacet
  facet normal 1.0 0.0 0.0
    outer loop
      vertex 3.1178571428571424 2.286905142857143 0.33333428571428536
      vertex 3.1178571428571424 6.144042857142856 4.190475857142857
      vertex 3.1178571428571424 2.286905142857143 4.190475857142857
    endloop
  endfacet
  facet normal 1.0 0.0 0.0
    outer loop
      vertex 3.1178571428571424 0.3583285714285713 3.290475857142857
      vertex 3.1178571428571424 1.0011857142857141 3.290475857142857
      vertex 3.1178571428571424 1.0011857142857141 4.061904428571428
    endloop
  endfacet
  facet normal 1.0 0.0 0.0
    outer loop
      vertex 3.1178571428571424 1.1297571428571427 2.3904771428571427
      vertex 3.1178571428571424 1.9011857142857143 3.1619057142857137
      vertex 3.1178571428571424 1.1297571428571427 3.1619057142857137
    endloop
  endfacet
  facet normal 1.0 0.0 0.0
    outer loop
      vertex 3.1178571428571424 5.372614285714285 2.3904771428571427
      vertex 3.1178571428571424 6.144042857142856 3.1619057142857137
      vertex 3.1178571428571424 5.372614285714285 3.1619057142857137
    endloop
  endfacet
  facet normal 1.0 0.0 0.0
    outer loop
      vertex 3.1178571428571424 0.10118571428571416 0.33333428571428536
      vertex 3.1178571428571424 1.9011857142857143 2.1333342857142856
      vertex 3.1178571428571424 0.10118571428571416 2.1333342857142856
    endloop
  endfacet
  facet normal 1.0 0.0 0.0
    outer loop
      vertex 3.1178571428571424 4.344047999999999 0.33333428571428536
      vertex 3.1178571428571424 6.144042857142856 2.1333342857142856
      vertex 3.1178571428571424 4.344047999999999 2.1333342857142856
    endloop
  endfacet
endsolid thingi10k_65584
