solid thingi10k_65609
  facet normal 0.0 -0.0 1.0
    outer loop
      vertex 1.5406680145461307 4.116414348276932 0.10366787521184107
      vertex 1.5406680145461307 4.883585651723068 0.10366787521184107
      vertex 0.2659490855544615 3.9446013279511307 0.10366787521184107
    endloop
  endfacet
  facet normal 0.0 0.0 1.0
    outer loop
      vertex 0.2659490855544615 3.9446013279511307 0.10366787521184107
      vertex 1.5406680145461307 4.883585651723068 0.10366787521184107
      vertex 0.2659490855544615 5.055398672048869 0.10366787521184107
    endloop
  endfacet
  facet normal 0.0 -0.0 1.0
    outer loop
      vertex 0.2659490855544615 3.9446013279511307 0.10366787521184107
      vertex 0.2659490855544615 5.055398672048869 0.10366787521184107
      vertex 0.0 3.9446013279511307 0.10366787521184107
    endloop
  endfacet
  facet normal 0.0 0.0 1.0
    outer loop
      vertex 0.0 3.9446013279511307 0.10366787521184107
      vertex 0.2659490855544615 5.055398672048869 0.10366787521184107
      vertex 0.0 5.055398672048869 0.10366787521184107
    endloop
  endfacet
  facet normal 1.0 0.0 0.0
    outer loop
      vertex 2.498518227504378 4.707924790417456 0.22806933040931984
      vertex 2.498518227504378 4.292075209582543 0.22806933040931984
      vertex 2.498518227504378 4.707924790417456 0.0
    endloop
  endfacet
  facet normal 1.0 0.0 0.0
    outer loop
      vertex 2.498518227504378 4.707924790417456 0.0
      vertex 2.498518227504378 4.292075209582543 0.22806933040931984
      vertex 2.498518227504378 4.292075209582543 0.0
    endloop
  endfacet
  facet normal -0.0921481717863665 -0.9957453060077313 -0.0
    outer loop
      vertex 2.498518227504378 4.707924790417456 0.22806933040931984
      vertex 2.498518227504378 4.707924790417456 0.0
      vertex 2.728405964316097 4.686650540330114 0.0
    endloop
  endfacet
  facet normal -0.0921481717863665 -0.9957453060077313 0.0
    outer loop
      vertex 2.498518227504378 4.707924790417456 0.22806933040931984
      vertex 2.728405964316097 4.686650540330114 0.0
      vertex 2.728405964316097 4.686650540330114 0.22806933040931984
    endloop
  endfacet
  facet normal 0.014415953501661381 -0.9998960847431286 0.0
    outer loop
      vertex 2.728405964316097 4.686650540330114 0.22806933040931984
      vertex 2.728405964316097 4.686650540330114 0.0
      vertex 2.9592515090263882 4.689978744819948 0.0
    endloop
  endfacet
  facet normal 0.014415953501661381 -0.9998960847431286 0.0
    outer loop
      vertex 2.728405964316097 4.686650540330114 0.22806933040931984
      vertex 2.9592515090263882 4.689978744819948 0.0
      vertex 2.9592515090263882 4.689978744819948 0.22806933040931984
    endloop
  endfacet
  facet normal 0.12081568953091967 -0.9926749564500802 0.0
    outer loop
      vertex 2.9592515090263882 4.689978744819948 0.22806933040931984
      vertex 2.9592515090263882 4.689978744819948 0.0
      vertex 3.1884301832608415 4.717871439577187 0.0
    endloop
  endfacet
  facet normal 0.12081568953091967 -0.9926749564500802 0.0
    outer loop
      vertex 2.9592515090263882 4.689978744819948 0.22806933040931984
      vertex 3.1884301832608415 4.717871439577187 0.0
      vertex 3.1884301832608415 4.717871439577187 0.22806933040931984
    endloop
  endfacet
  facet normal 0.3538083991564591 -0.9353179227868691 0.0
    outer loop
      vertex 3.1884301832608415 4.717871439577187 0.22806933040931984
      vertex 3.1884301832608415 4.717871439577187 0.0
      vertex 3.3763934582397206 4.788973450776043 0.0
    endloop
  endfacet
  facet normal 0.3538083991564591 -0.9353179227868691 0.0
    outer loop
      vertex 3.1884301832608415 4.717871439577187 0.22806933040931984
      vertex 3.3763934582397206 4.788973450776043 0.0
      vertex 3.3763934582397206 4.788973450776043 0.22806933040931984
    endloop
  endfacet
  facet normal 0.49498925315654974 -0.868899096132296 0.0
    outer loop
      vertex 3.3763934582397206 4.788973450776043 0.22806933040931984
      vertex 3.3763934582397206 4.788973450776043 0.0
      vertex 3.5510091146419773 4.888447456142983 0.0
    endloop
  endfacet
  facet normal 0.49498925315654974 -0.868899096132296 0.0
    outer loop
      vertex 3.3763934582397206 4.788973450776043 0.22806933040931984
      vertex 3.5510091146419773 4.888447456142983 0.0
      vertex 3.5510091146419773 4.888447456142983 0.22806933040931984
    endloop
  endfacet
  facet normal 0.6241196434630527 -0.7813287852393204 0.0
    outer loop
      vertex 3.5510091146419773 4.888447456142983 0.22806933040931984
      vertex 3.5510091146419773 4.888447456142983 0.0
      vertex 3.7080263361580568 5.013871649083933 0.0
    endloop
  endfacet
  facet normal 0.6241196434630527 -0.7813287852393204 0.0
    outer loop
      vertex 3.5510091146419773 4.888447456142983 0.22806933040931984
      vertex 3.7080263361580568 5.013871649083933 0.0
      vertex 3.7080263361580568 5.013871649083933 0.22806933040931984
    endloop
  endfacet
  facet normal 0.7380600866553028 -0.6747349913013013 0.0
    outer loop
      vertex 3.7080263361580568 5.013871649083933 0.22806933040931984
      vertex 3.7080263361580568 5.013871649083933 0.0
      vertex 3.8436225913479953 5.162193857278011 0.0
    endloop
  endfacet
  facet normal 0.7380600866553028 -0.6747349913013013 0.0
    outer loop
      vertex 3.7080263361580568 5.013871649083933 0.22806933040931984
      vertex 3.8436225913479953 5.162193857278011 0.0
      vertex 3.8436225913479953 5.162193857278011 0.22806933040931984
    endloop
  endfacet
  facet normal 0.8340306674417337 -0.5517180854083867 0.0
    outer loop
      vertex 3.8436225913479953 5.162193857278011 0.22806933040931984
      vertex 3.8436225913479953 5.162193857278011 0.0
      vertex 3.9544969625696074 5.329802330296789 0.0
    endloop
  endfacet
  facet normal 0.8340306674417337 -0.5517180854083867 0.0
    outer loop
      vertex 3.8436225913479953 5.162193857278011 0.22806933040931984
      vertex 3.9544969625696074 5.329802330296789 0.0
      vertex 3.9544969625696074 5.329802330296789 0.22806933040931984
    endloop
  endfacet
  facet normal 0.909697167163518 -0.4152722770119267 0.0
    outer loop
      vertex 3.9544969625696074 5.329802330296789 0.22806933040931984
      vertex 3.9544969625696074 5.329802330296789 0.0
      vertex 4.037950820136745 5.512616695763117 0.0
    endloop
  endfacet
  facet normal 0.909697167163518 -0.4152722770119267 0.0
    outer loop
      vertex 3.9544969625696074 5.329802330296789 0.22806933040931984
      vertex 4.037950820136745 5.512616695763117 0.0
      vertex 4.037950820136745 5.512616695763117 0.22806933040931984
    endloop
  endfacet
  facet normal 0.9632212976000979 -0.26870938176696313 0.0
    outer loop
      vertex 4.037950820136745 5.512616695763117 0.22806933040931984
      vertex 4.037950820136745 5.512616695763117 0.0
      vertex 4.091951096168914 5.7061872202027075 0.0
    endloop
  endfacet
  facet normal 0.9632212976000979 -0.26870938176696313 0.0
    outer loop
      vertex 4.037950820136745 5.512616695763117 0.22806933040931984
      vertex 4.091951096168914 5.7061872202027075 0.0
      vertex 4.091951096168914 5.7061872202027075 0.22806933040931984
    endloop
  endfacet
  facet normal 0.9932941638731959 -0.11561446282991027 0.0
    outer loop
      vertex 4.091951096168914 5.7061872202027075 0.22806933040931984
      vertex 4.091951096168914 5.7061872202027075 0.0
      vertex 4.1151852537481295 5.905801979126924 0.0
    endloop
  endfacet
  facet normal 0.9932941638731959 -0.11561446282991027 0.0
    outer loop
      vertex 4.091951096168914 5.7061872202027075 0.22806933040931984
      vertex 4.1151852537481295 5.905801979126924 0.0
      vertex 4.1151852537481295 5.905801979126924 0.22806933040931984
    endloop
  endfacet
  facet normal 0.9991876411560272 0.040299600011094894 0.0
    outer loop
      vertex 4.1151852537481295 5.905801979126924 0.22806933040931984
      vertex 4.1151852537481295 5.905801979126924 0.0
      vertex 4.107086596458765 6.10659995903897 0.0
    endloop
  endfacet
  facet normal 0.9991876411560272 0.040299600011094894 0.0
    outer loop
      vertex 4.1151852537481295 5.905801979126924 0.22806933040931984
      vertex 4.107086596458765 6.10659995903897 0.0
      vertex 4.107086596458765 6.10659995903897 0.22806933040931984
    endloop
  endfacet
  facet normal 0.999999185009347 -0.0012767069521093467 0.0
    outer loop
      vertex 4.107086596458765 6.10659995903897 0.22806933040931984
      vertex 4.107086596458765 6.10659995903897 0.0
      vertex 4.107469403248945 6.406438913909644 0.0
    endloop
  endfacet
  facet normal 0.999999185009347 -0.0012767069521093467 0.0
    outer loop
      vertex 4.107086596458765 6.10659995903897 0.22806933040931984
      vertex 4.107469403248945 6.406438913909644 0.0
      vertex 4.107469403248945 6.406438913909644 0.22806933040931984
    endloop
  endfacet
  facet normal 0.9941987139837459 0.10755890066872943 0.0
    outer loop
      vertex 4.107469403248945 6.406438913909644 0.22806933040931984
      vertex 4.107469403248945 6.406438913909644 0.0
      vertex 4.075219117560923 6.704537837915861 0.0
    endloop
  endfacet
  facet normal 0.9941987139837459 0.10755890066872943 0.0
    outer loop
      vertex 4.107469403248945 6.406438913909644 0.22806933040931984
      vertex 4.075219117560923 6.704537837915861 0.0
      vertex 4.075219117560923 6.704537837915861 0.22806933040931984
    endloop
  endfacet
  facet normal 0.9765885270651852 0.2151158962156261 0.0
    outer loop
      vertex 4.075219117560923 6.704537837915861 0.22806933040931984
      vertex 4.075219117560923 6.704537837915861 0.0
      vertex 4.010718941646439 6.997357350094693 0.0
    endloop
  endfacet
  facet normal 0.9765885270651852 0.2151158962156261 0.0
    outer loop
      vertex 4.075219117560923 6.704537837915861 0.22806933040931984
      vertex 4.010718941646439 6.997357350094693 0.0
      vertex 4.010718941646439 6.997357350094693 0.22806933040931984
    endloop
  endfacet
  facet normal 0.9473772283992237 0.3201193326098961 0.0
    outer loop
      vertex 4.010718941646439 6.997357350094693 0.22806933040931984
      vertex 4.010718941646439 6.997357350094693 0.0
      vertex 3.914734884547414 7.281417388717227 0.0
    endloop
  endfacet
  facet normal 0.9473772283992237 0.3201193326098961 0.0
    outer loop
      vertex 4.010718941646439 6.997357350094693 0.22806933040931984
      vertex 3.914734884547414 7.281417388717227 0.0
      vertex 3.914734884547414 7.281417388717227 0.22806933040931984
    endloop
  endfacet
  facet normal 0.9069137696993778 0.4213162877573855 0.0
    outer loop
      vertex 3.914734884547414 7.281417388717227 0.22806933040931984
      vertex 3.914734884547414 7.281417388717227 0.0
      vertex 3.7884078528647476 7.553345457598897 0.0
    endloop
  endfacet
  facet normal 0.9069137696993778 0.4213162877573855 0.0
    outer loop
      vertex 3.914734884547414 7.281417388717227 0.22806933040931984
      vertex 3.7884078528647476 7.553345457598897 0.0
      vertex 3.7884078528647476 7.553345457598897 0.22806933040931984
    endloop
  endfacet
  facet normal 0.880628110940941 0.47380811540178336 0.0
    outer loop
      vertex 3.3217833804818717 8.4206219230619 0.22806933040931984
      vertex 3.7884078528647476 7.553345457598897 0.22806933040931984
      vertex 3.3217833804818717 8.4206219230619 0.0
    endloop
  endfacet
  facet normal 0.880628110940941 0.47380811540178336 0.0
    outer loop
      vertex 3.3217833804818717 8.4206219230619 0.0
      vertex 3.7884078528647476 7.553345457598897 0.22806933040931984
      vertex 3.7884078528647476 7.553345457598897 0.0
    endloop
  endfacet
  facet normal 0.8673071017948273 0.49777343357822634 0.0
    outer loop
      vertex 3.3217833804818717 8.4206219230619 0.22806933040931984
      vertex 3.3217833804818717 8.4206219230619 0.0
      vertex 3.2354632175271023 8.571023863600562 0.0
    endloop
  endfacet
  facet normal 0.8673071017948273 0.49777343357822634 0.0
    outer loop
      vertex 3.3217833804818717 8.4206219230619 0.22806933040931984
      vertex 3.2354632175271023 8.571023863600562 0.0
      vertex 3.2354632175271023 8.571023863600562 0.22806933040931984
    endloop
  endfacet
  facet normal 0.7695259030140525 0.6386156000211763 0.0
    outer loop
      vertex 3.2354632175271023 8.571023863600562 0.22806933040931984
      vertex 3.2354632175271023 8.571023863600562 0.0
      vertex 3.1247193486203244 8.704469203365097 0.0
    endloop
  endfacet
  facet normal 0.7695259030140525 0.6386156000211763 0.0
    outer loop
      vertex 3.2354632175271023 8.571023863600562 0.22806933040931984
      vertex 3.1247193486203244 8.704469203365097 0.0
      vertex 3.1247193486203244 8.704469203365097 0.22806933040931984
    endloop
  endfacet
  facet normal 0.6491239859994787 0.7606826215973049 0.0
    outer loop
      vertex 3.1247193486203244 8.704469203365097 0.22806933040931984
      vertex 3.1247193486203244 8.704469203365097 0.0
      vertex 2.9928080042474328 8.817034963679273 0.0
    endloop
  endfacet
  facet normal 0.6491239859994787 0.7606826215973049 0.0
    outer loop
      vertex 3.1247193486203244 8.704469203365097 0.22806933040931984
      vertex 2.9928080042474328 8.817034963679273 0.0
      vertex 2.9928080042474328 8.817034963679273 0.22806933040931984
    endloop
  endfacet
  facet normal 0.509638854215307 0.8603884229079962 0.0
    outer loop
      vertex 2.9928080042474328 8.817034963679273 0.22806933040931984
      vertex 2.9928080042474328 8.817034963679273 0.0
      vertex 2.843605894082124 8.90541271313126 0.0
    endloop
  endfacet
  facet normal 0.509638854215307 0.8603884229079962 0.0
    outer loop
      vertex 2.9928080042474328 8.817034963679273 0.22806933040931984
      vertex 2.843605894082124 8.90541271313126 0.0
      vertex 2.843605894082124 8.90541271313126 0.22806933040931984
    endloop
  endfacet
  facet normal 0.35517774655975054 0.934798784952536 0.0
    outer loop
      vertex 2.843605894082124 8.90541271313126 0.22806933040931984
      vertex 2.843605894082124 8.90541271313126 0.0
      vertex 2.6814998732106297 8.967005060194301 0.0
    endloop
  endfacet
  facet normal 0.35517774655975054 0.934798784952536 0.0
    outer loop
      vertex 2.843605894082124 8.90541271313126 0.22806933040931984
      vertex 2.6814998732106297 8.967005060194301 0.0
      vertex 2.6814998732106297 8.967005060194301 0.22806933040931984
    endloop
  endfacet
  facet normal 0.19026894182494672 0.9817320050690082 0.0
    outer loop
      vertex 2.6814998732106297 8.967005060194301 0.22806933040931984
      vertex 2.6814998732106297 8.967005060194301 0.0
      vertex 2.51125564889376 9.0 0.0
    endloop
  endfacet
  facet normal 0.19026894182494672 0.9817320050690082 0.0
    outer loop
      vertex 2.6814998732106297 8.967005060194301 0.22806933040931984
      vertex 2.51125564889376 9.0 0.0
      vertex 2.51125564889376 9.0 0.22806933040931984
    endloop
  endfacet
  facet normal -0.0 1.0 0.0
    outer loop
      vertex 2.4979756542439153 9.0 0.22806933040931984
      vertex 2.51125564889376 9.0 0.22806933040931984
      vertex 2.4979756542439153 9.0 0.0
    endloop
  endfacet
  facet normal 0.0 1.0 0.0
    outer loop
      vertex 2.4979756542439153 9.0 0.0
      vertex 2.51125564889376 9.0 0.22806933040931984
      vertex 2.51125564889376 9.0 0.0
    endloop
  endfacet
  facet normal -0.053628984216534066 0.9985609305655326 0.0
    outer loop
      vertex 2.4979756542439153 9.0 0.22806933040931984
      vertex 2.4979756542439153 9.0 0.0
      vertex 2.3599263509966533 8.992585886671174 0.0
    endloop
  endfacet
  facet normal -0.053628984216534066 0.9985609305655326 0.0
    outer loop
      vertex 2.4979756542439153 9.0 0.22806933040931984
      vertex 2.3599263509966533 8.992585886671174 0.0
      vertex 2.3599263509966533 8.992585886671174 0.22806933040931984
    endloop
  endfacet
  facet normal -0.20640316659363583 0.9784670320558173 0.0
    outer loop
      vertex 2.3599263509966533 8.992585886671174 0.22806933040931984
      vertex 2.3599263509966533 8.992585886671174 0.0
      vertex 2.2246547697475596 8.964050962340327 0.0
    endloop
  endfacet
  facet normal -0.20640316659363583 0.9784670320558173 0.0
    outer loop
      vertex 2.3599263509966533 8.992585886671174 0.22806933040931984
      vertex 2.2246547697475596 8.964050962340327 0.0
      vertex 2.2246547697475596 8.964050962340327 0.22806933040931984
    endloop
  endfacet
  facet normal -0.35427444064536334 0.9351414976918815 0.0
    outer loop
      vertex 2.2246547697475596 8.964050962340327 0.22806933040931984
      vertex 2.2246547697475596 8.964050962340327 0.0
      vertex 2.0953728492877977 8.915073048121476 0.0
    endloop
  endfacet
  facet normal -0.35427444064536334 0.9351414976918815 0.0
    outer loop
      vertex 2.2246547697475596 8.964050962340327 0.22806933040931984
      vertex 2.0953728492877977 8.915073048121476 0.0
      vertex 2.0953728492877977 8.915073048121476 0.22806933040931984
    endloop
  endfacet
  facet normal -0.4937298897375098 0.8696153149409148 0.0
    outer loop
      vertex 2.0953728492877977 8.915073048121476 0.22806933040931984
      vertex 2.0953728492877977 8.915073048121476 0.0
      vertex 1.9751497667853328 8.846815591924447 0.0
    endloop
  endfacet
  facet normal -0.4937298897375098 0.8696153149409148 0.0
    outer loop
      vertex 2.0953728492877977 8.915073048121476 0.22806933040931984
      vertex 1.9751497667853328 8.846815591924447 0.0
      vertex 1.9751497667853328 8.846815591924447 0.22806933040931984
    endloop
  endfacet
  facet normal -0.6214643120087675 0.7834424732547178 0.0
    outer loop
      vertex 1.9751497667853328 8.846815591924447 0.22806933040931984
      vertex 1.9751497667853328 8.846815591924447 0.0
      vertex 1.866840161511774 8.760899195222542 0.0
    endloop
  endfacet
  facet normal -0.6214643120087675 0.7834424732547178 0.0
    outer loop
      vertex 1.9751497667853328 8.846815591924447 0.22806933040931984
      vertex 1.866840161511774 8.760899195222542 0.0
      vertex 1.866840161511774 8.760899195222542 0.22806933040931984
    endloop
  endfacet
  facet normal -0.7344471962217138 0.6786658352695114 0.0
    outer loop
      vertex 1.866840161511774 8.760899195222542 0.22806933040931984
      vertex 1.866840161511774 8.760899195222542 0.0
      vertex 1.7730155222616957 8.65936285781966 0.0
    endloop
  endfacet
  facet normal -0.7344471962217138 0.6786658352695114 0.0
    outer loop
      vertex 1.866840161511774 8.760899195222542 0.22806933040931984
      vertex 1.7730155222616957 8.65936285781966 0.0
      vertex 1.7730155222616957 8.65936285781966 0.22806933040931984
    endloop
  endfacet
  facet normal -0.8299902974741462 0.5577778286188673 0.0
    outer loop
      vertex 1.7730155222616957 8.65936285781966 0.22806933040931984
      vertex 1.7730155222616957 8.65936285781966 0.0
      vertex 1.6959036817339426 8.544618104309313 0.0
    endloop
  endfacet
  facet normal -0.8299902974741462 0.5577778286188673 0.0
    outer loop
      vertex 1.7730155222616957 8.65936285781966 0.22806933040931984
      vertex 1.6959036817339426 8.544618104309313 0.0
      vertex 1.6959036817339426 8.544618104309313 0.22806933040931984
    endloop
  endfacet
  facet normal -0.9058276206722002 0.4236464582967033 0.0
    outer loop
      vertex 1.6959036817339426 8.544618104309313 0.22806933040931984
      vertex 1.6959036817339426 8.544618104309313 0.0
      vertex 1.637335231490235 8.419388873917494 0.0
    endloop
  endfacet
  facet normal -0.9058276206722002 0.4236464582967033 0.0
    outer loop
      vertex 1.6959036817339426 8.544618104309313 0.22806933040931984
      vertex 1.637335231490235 8.419388873917494 0.0
      vertex 1.637335231490235 8.419388873917494 0.22806933040931984
    endloop
  endfacet
  facet normal -0.9496956801159274 0.3131742568749 0.0
    outer loop
      vertex 0.6100894239649793 5.304283195823293 0.22806933040931984
      vertex 1.637335231490235 8.419388873917494 0.22806933040931984
      vertex 0.6100894239649793 5.304283195823293 0.0
    endloop
  endfacet
  facet normal -0.9496956801159274 0.3131742568749 0.0
    outer loop
      vertex 0.6100894239649793 5.304283195823293 0.0
      vertex 1.637335231490235 8.419388873917494 0.22806933040931984
      vertex 1.637335231490235 8.419388873917494 0.0
    endloop
  endfacet
  facet normal -0.9223034576471589 0.3864664694538133 0.0
    outer loop
      vertex 0.6100894239649793 5.304283195823293 0.22806933040931984
      vertex 0.6100894239649793 5.304283195823293 0.0
      vertex 0.5881903446126733 5.25202097334778 0.0
    endloop
  endfacet
  facet normal -0.07818539706337797 0.996938836481979 0.0
    outer loop
      vertex 0.32244037395372405 5.059829027906711 0.0
      vertex 0.2659490855544615 5.055398672048869 0.0
      vertex 0.2659490855544615 5.055398672048869 0.10366787521184107
    endloop
  endfacet
  facet normal -0.9223034576471589 0.3864664694538133 0.0
    outer loop
      vertex 0.6100894239649793 5.304283195823293 0.22806933040931984
      vertex 0.5881903446126733 5.25202097334778 0.0
      vertex 0.5881903446126733 5.25202097334778 0.22806933040931984
    endloop
  endfacet
  facet normal -0.8507781283228204 0.5255250482779281 0.0
    outer loop
      vertex 0.5881903446126733 5.25202097334778 0.22806933040931984
      vertex 0.5881903446126733 5.25202097334778 0.0
      vertex 0.5584115948099098 5.203811836401771 0.0
    endloop
  endfacet
  facet normal -0.8507781283228204 0.5255250482779281 0.0
    outer loop
      vertex 0.5881903446126733 5.25202097334778 0.22806933040931984
      vertex 0.5584115948099098 5.203811836401771 0.0
      vertex 0.5584115948099098 5.203811836401771 0.22806933040931984
    endloop
  endfacet
  facet normal -0.7584506919568291 0.6517304257668249 0.0
    outer loop
      vertex 0.5584115948099098 5.203811836401771 0.22806933040931984
      vertex 0.5584115948099098 5.203811836401771 0.0
      vertex 0.5214813181542297 5.160834260434374 0.0
    endloop
  endfacet
  facet normal -0.7584506919568291 0.6517304257668249 0.0
    outer loop
      vertex 0.5584115948099098 5.203811836401771 0.22806933040931984
      vertex 0.5214813181542297 5.160834260434374 0.0
      vertex 0.5214813181542297 5.160834260434374 0.22806933040931984
    endloop
  endfacet
  facet normal -0.6475727521781071 0.7620036290179146 0.0
    outer loop
      vertex 0.5214813181542297 5.160834260434374 0.22806933040931984
      vertex 0.5214813181542297 5.160834260434374 0.0
      vertex 0.47830264998352023 5.124139777733906 0.0
    endloop
  endfacet
  facet normal -0.6475727521781071 0.7620036290179146 0.0
    outer loop
      vertex 0.5214813181542297 5.160834260434374 0.22806933040931984
      vertex 0.47830264998352023 5.124139777733906 0.0
      vertex 0.47830264998352023 5.124139777733906 0.22806933040931984
    endloop
  endfacet
  facet normal -0.5208672315065984 0.853637702507716 0.0
    outer loop
      vertex 0.47830264998352023 5.124139777733906 0.22806933040931984
      vertex 0.47830264998352023 5.124139777733906 0.0
      vertex 0.4299313737978682 5.094624899657122 0.0
    endloop
  endfacet
  facet normal -0.5208672315065984 0.853637702507716 0.0
    outer loop
      vertex 0.47830264998352023 5.124139777733906 0.22806933040931984
      vertex 0.4299313737978682 5.094624899657122 0.0
      vertex 0.4299313737978682 5.094624899657122 0.22806933040931984
    endloop
  endfacet
  facet normal -0.3814210167092371 0.9244014322860452 0.0
    outer loop
      vertex 0.4299313737978682 5.094624899657122 0.22806933040931984
      vertex 0.4299313737978682 5.094624899657122 0.0
      vertex 0.37755031512354414 5.07301173901277 0.0
    endloop
  endfacet
  facet normal -0.3814210167092371 0.9244014322860452 0.0
    outer loop
      vertex 0.4299313737978682 5.094624899657122 0.22806933040931984
      vertex 0.37755031512354414 5.07301173901277 0.0
      vertex 0.37755031512354414 5.07301173901277 0.22806933040931984
    endloop
  endfacet
  facet normal -0.2326441067526679 0.9725619361219384 0.0
    outer loop
      vertex 0.37755031512354414 5.07301173901277 0.22806933040931984
      vertex 0.37755031512354414 5.07301173901277 0.0
      vertex 0.32244037395372405 5.059829027906711 0.0
    endloop
  endfacet
  facet normal -0.2326441067526679 0.9725619361219384 0.0
    outer loop
      vertex 0.37755031512354414 5.07301173901277 0.22806933040931984
      vertex 0.32244037395372405 5.059829027906711 0.0
      vertex 0.32244037395372405 5.059829027906711 0.22806933040931984
    endloop
  endfacet
  facet normal -0.07818539706337797 0.996938836481979 0.0
    outer loop
      vertex 0.32244037395372405 5.059829027906711 0.22806933040931984
      vertex 0.32244037395372405 5.059829027906711 0.0
      vertex 0.2659490855544615 5.055398672048869 0.10366787521184107
    endloop
  endfacet
  facet normal -0.07818539706337796 0.9969388364819789 0.0
    outer loop
      vertex 0.32244037395372405 5.059829027906711 0.22806933040931984
      vertex 0.2659490855544615 5.055398672048869 0.10366787521184107
      vertex 0.2659490855544615 5.055398672048869 0.22806933040931984
    endloop
  endfacet
  facet normal -0.0 1.0 0.0
    outer loop
      vertex 0.0 5.055398672048869 0.10366787521184107
      vertex 0.2659490855544615 5.055398672048869 0.10366787521184107
      vertex 0.0 5.055398672048869 0.0
    endloop
  endfacet
  facet normal 0.0 1.0 0.0
    outer loop
      vertex 0.0 5.055398672048869 0.0
      vertex 0.2659490855544615 5.055398672048869 0.10366787521184107
      vertex 0.2659490855544615 5.055398672048869 0.0
    endloop
  endfacet
  facet normal -1.0 0.0 0.0
    outer loop
      vertex 0.0 3.9446013279511307 0.10366787521184107
      vertex 0.0 5.055398672048869 0.10366787521184107
      vertex 0.0 3.9446013279511307 0.0
    endloop
  endfacet
  facet normal -1.0 0.0 0.0
    outer loop
      vertex 0.0 3.9446013279511307 0.0
      vertex 0.0 5.055398672048869 0.10366787521184107
      vertex 0.0 5.055398672048869 0.0
    endloop
  endfacet
  facet normal 0.0 0.0 -1.0
    outer loop
      vertex 4.091951096168914 3.2938123843357325 0.0
      vertex 4.1151852537481295 3.094198416334636 0.0
      vertex 4.107086596458765 2.8933996454994695 0.0
    endloop
  endfacet
  facet normal 0.0 0.0 -1.0
    outer loop
      vertex 3.8436225913479953 5.162193857278011 0.0
      vertex 3.7080263361580568 5.013871649083933 0.0
      vertex 3.5510091146419773 4.888447456142983 0.0
    endloop
  endfacet
  facet normal 0.0 0.0 -1.0
    outer loop
      vertex 0.5881903446126733 3.7479786311906595 0.0
      vertex 0.5584115948099098 3.796188163598229 0.0
      vertex 2.498518227504378 4.707924790417456 0.0
    endloop
  endfacet
  facet normal 0.0 -0.0 -1.0
    outer loop
      vertex 0.37755031512354414 5.07301173901277 0.0
      vertex 0.4299313737978682 5.094624899657122 0.0
      vertex 0.32244037395372405 3.9401709720932883 0.0
    endloop
  endfacet
  facet normal 0.0 0.0 -1.0
    outer loop
      vertex 2.6814998732106297 0.03299474207491738 0.0
      vertex 2.51125564889376 0.0 0.0
      vertex 2.4979756542439153 0.0 0.0
    endloop
  endfacet
  facet normal 0.0 0.0 -1.0
    outer loop
      vertex 3.7884078528647476 1.4466545424011028 0.0
      vertex 2.498518227504378 4.292075209582543 0.0
      vertex 3.914734884547414 1.718582215821213 0.0
    endloop
  endfacet
  facet normal 0.0 0.0 -1.0
    outer loop
      vertex 3.914734884547414 1.718582215821213 0.0
      vertex 2.498518227504378 4.292075209582543 0.0
      vertex 4.107086596458765 2.8933996454994695 0.0
    endloop
  endfacet
  facet normal 0.0 0.0 -1.0
    outer loop
      vertex 3.914734884547414 1.718582215821213 0.0
      vertex 4.107086596458765 2.8933996454994695 0.0
      vertex 4.010718941646439 2.0026426499053067 0.0
    endloop
  endfacet
  facet normal 0.0 0.0 -1.0
    outer loop
      vertex 4.010718941646439 2.0026426499053067 0.0
      vertex 4.107086596458765 2.8933996454994695 0.0
      vertex 4.107469403248945 2.593561086090356 0.0
    endloop
  endfacet
  facet normal 0.0 0.0 -1.0
    outer loop
      vertex 4.010718941646439 2.0026426499053067 0.0
      vertex 4.107469403248945 2.593561086090356 0.0
      vertex 4.075219117560923 2.2954617666225783 0.0
    endloop
  endfacet
  facet normal 0.0 0.0 -1.0
    outer loop
      vertex 2.3599263509966533 8.992585886671174 0.0
      vertex 1.637335231490235 8.419388873917494 0.0
      vertex 2.2246547697475596 8.964050962340327 0.0
    endloop
  endfacet
  facet normal 0.0 0.0 -1.0
    outer loop
      vertex 2.2246547697475596 8.964050962340327 0.0
      vertex 1.637335231490235 8.419388873917494 0.0
      vertex 1.6959036817339426 8.544618104309313 0.0
    endloop
  endfacet
  facet normal 0.0 0.0 -1.0
    outer loop
      vertex 2.2246547697475596 8.964050962340327 0.0
      vertex 1.6959036817339426 8.544618104309313 0.0
      vertex 2.0953728492877977 8.915073048121476 0.0
    endloop
  endfacet
  facet normal 0.0 0.0 -1.0
    outer loop
      vertex 2.0953728492877977 8.915073048121476 0.0
      vertex 1.6959036817339426 8.544618104309313 0.0
      vertex 1.7730155222616957 8.65936285781966 0.0
    endloop
  endfacet
  facet normal 0.0 0.0 -1.0
    outer loop
      vertex 2.0953728492877977 8.915073048121476 0.0
      vertex 1.7730155222616957 8.65936285781966 0.0
      vertex 1.9751497667853328 8.846815591924447 0.0
    endloop
  endfacet
  facet normal 0.0 0.0 -1.0
    outer loop
      vertex 1.9751497667853328 8.846815591924447 0.0
      vertex 1.7730155222616957 8.65936285781966 0.0
      vertex 1.866840161511774 8.760899195222542 0.0
    endloop
  endfacet
  facet normal 0.0 0.0 -1.0
    outer loop
      vertex 0.32244037395372405 3.9401709720932883 0.0
      vertex 0.4299313737978682 5.094624899657122 0.0
      vertex 0.37755031512354414 3.9269882609872293 0.0
    endloop
  endfacet
  facet normal 0.0 -0.0 -1.0
    outer loop
      vertex 0.5214813181542297 5.160834260434374 0.0
      vertex 0.5584115948099098 5.203811836401771 0.0
      vertex 0.4299313737978682 3.9053747048813183 0.0
    endloop
  endfacet
  facet normal 0.0 0.0 -1.0
    outer loop
      vertex 0.4299313737978682 3.9053747048813183 0.0
      vertex 0.5584115948099098 5.203811836401771 0.0
      vertex 0.5881903446126733 5.25202097334778 0.0
    endloop
  endfacet
  facet normal -0.0 0.0 -1.0
    outer loop
      vertex 2.6814998732106297 0.03299474207491738 0.0
      vertex 2.4979756542439153 0.0 0.0
      vertex 3.3217833804818717 0.5793782746688811 0.0
    endloop
  endfacet
  facet normal 0.0 0.0 -1.0
    outer loop
      vertex 3.3217833804818717 0.5793782746688811 0.0
      vertex 2.4979756542439153 0.0 0.0
      vertex 2.3599263509966533 0.007414508790385468 0.0
    endloop
  endfacet
  facet normal 0.0 0.0 -1.0
    outer loop
      vertex 3.3217833804818717 0.5793782746688811 0.0
      vertex 2.3599263509966533 0.007414508790385468 0.0
      vertex 2.2246547697475596 0.035949136525062576 0.0
    endloop
  endfacet
  facet normal 0.0 0.0 -1.0
    outer loop
      vertex 1.637335231490235 0.5806109283517246 0.0
      vertex 3.3217833804818717 0.5793782746688811 0.0
      vertex 1.6959036817339426 0.4553816979599061 0.0
    endloop
  endfacet
  facet normal 0.0 0.0 -1.0
    outer loop
      vertex 1.6959036817339426 0.4553816979599061 0.0
      vertex 3.3217833804818717 0.5793782746688811 0.0
      vertex 2.2246547697475596 0.035949136525062576 0.0
    endloop
  endfacet
  facet normal 0.0 0.0 -1.0
    outer loop
      vertex 1.6959036817339426 0.4553816979599061 0.0
      vertex 2.2246547697475596 0.035949136525062576 0.0
      vertex 1.7730155222616957 0.34063684558416857 0.0
    endloop
  endfacet
  facet normal 0.0 0.0 -1.0
    outer loop
      vertex 1.7730155222616957 0.34063684558416857 0.0
      vertex 2.2246547697475596 0.035949136525062576 0.0
      vertex 2.0953728492877977 0.0849269518785237 0.0
    endloop
  endfacet
  facet normal 0.0 0.0 -1.0
    outer loop
      vertex 1.7730155222616957 0.34063684558416857 0.0
      vertex 2.0953728492877977 0.0849269518785237 0.0
      vertex 1.866840161511774 0.2391009036428469 0.0
    endloop
  endfacet
  facet normal 0.0 0.0 -1.0
    outer loop
      vertex 1.866840161511774 0.2391009036428469 0.0
      vertex 2.0953728492877977 0.0849269518785237 0.0
      vertex 1.9751497667853328 0.1531842103447735 0.0
    endloop
  endfacet
  facet normal 0.0 0.0 -1.0
    outer loop
      vertex 2.4979756542439153 9.0 0.0
      vertex 2.51125564889376 9.0 0.0
      vertex 2.6814998732106297 8.967005060194301 0.0
    endloop
  endfacet
  facet normal 0.0 0.0 -1.0
    outer loop
      vertex 2.4979756542439153 9.0 0.0
      vertex 2.6814998732106297 8.967005060194301 0.0
      vertex 3.3217833804818717 8.4206219230619 0.0
    endloop
  endfacet
  facet normal 0.0 0.0 -1.0
    outer loop
      vertex 3.3217833804818717 8.4206219230619 0.0
      vertex 2.6814998732106297 8.967005060194301 0.0
      vertex 2.843605894082124 8.90541271313126 0.0
    endloop
  endfacet
  facet normal 0.0 0.0 -1.0
    outer loop
      vertex 3.3217833804818717 8.4206219230619 0.0
      vertex 2.843605894082124 8.90541271313126 0.0
      vertex 3.2354632175271023 8.571023863600562 0.0
    endloop
  endfacet
  facet normal 0.0 0.0 -1.0
    outer loop
      vertex 3.2354632175271023 8.571023863600562 0.0
      vertex 2.843605894082124 8.90541271313126 0.0
      vertex 2.9928080042474328 8.817034963679273 0.0
    endloop
  endfacet
  facet normal 0.0 0.0 -1.0
    outer loop
      vertex 3.2354632175271023 8.571023863600562 0.0
      vertex 2.9928080042474328 8.817034963679273 0.0
      vertex 3.1247193486203244 8.704469203365097 0.0
    endloop
  endfacet
  facet normal 0.0 -0.0 -1.0
    outer loop
      vertex 3.3217833804818717 8.4206219230619 0.0
      vertex 3.7884078528647476 7.553345457598897 0.0
      vertex 2.498518227504378 4.707924790417456 0.0
    endloop
  endfacet
  facet normal 0.0 0.0 -1.0
    outer loop
      vertex 2.498518227504378 4.707924790417456 0.0
      vertex 3.7884078528647476 7.553345457598897 0.0
      vertex 3.914734884547414 7.281417388717227 0.0
    endloop
  endfacet
  facet normal 0.0 0.0 -1.0
    outer loop
      vertex 2.498518227504378 4.707924790417456 0.0
      vertex 3.914734884547414 7.281417388717227 0.0
      vertex 4.010718941646439 6.997357350094693 0.0
    endloop
  endfacet
  facet normal -0.0 0.0 -1.0
    outer loop
      vertex 3.8436225913479953 5.162193857278011 0.0
      vertex 3.5510091146419773 4.888447456142983 0.0
      vertex 3.9544969625696074 5.329802330296789 0.0
    endloop
  endfacet
  facet normal 0.0 0.0 -1.0
    outer loop
      vertex 3.9544969625696074 5.329802330296789 0.0
      vertex 3.5510091146419773 4.888447456142983 0.0
      vertex 3.3763934582397206 4.788973450776043 0.0
    endloop
  endfacet
  facet normal -0.0 0.0 -1.0
    outer loop
      vertex 3.9544969625696074 5.329802330296789 0.0
      vertex 3.3763934582397206 4.788973450776043 0.0
      vertex 4.037950820136745 5.512616695763117 0.0
    endloop
  endfacet
  facet normal 0.0 0.0 -1.0
    outer loop
      vertex 4.037950820136745 5.512616695763117 0.0
      vertex 3.3763934582397206 4.788973450776043 0.0
      vertex 3.1884301832608415 4.717871439577187 0.0
    endloop
  endfacet
  facet normal -0.0 0.0 -1.0
    outer loop
      vertex 4.037950820136745 5.512616695763117 0.0
      vertex 3.1884301832608415 4.717871439577187 0.0
      vertex 4.091951096168914 5.7061872202027075 0.0
    endloop
  endfacet
  facet normal 0.0 0.0 -1.0
    outer loop
      vertex 4.091951096168914 5.7061872202027075 0.0
      vertex 3.1884301832608415 4.717871439577187 0.0
      vertex 2.9592515090263882 4.689978744819948 0.0
    endloop
  endfacet
  facet normal -0.0 0.0 -1.0
    outer loop
      vertex 4.091951096168914 5.7061872202027075 0.0
      vertex 2.9592515090263882 4.689978744819948 0.0
      vertex 4.1151852537481295 5.905801979126924 0.0
    endloop
  endfacet
  facet normal 0.0 0.0 -1.0
    outer loop
      vertex 4.1151852537481295 5.905801979126924 0.0
      vertex 2.9592515090263882 4.689978744819948 0.0
      vertex 2.728405964316097 4.686650540330114 0.0
    endloop
  endfacet
  facet normal -0.0 0.0 -1.0
    outer loop
      vertex 4.1151852537481295 5.905801979126924 0.0
      vertex 2.728405964316097 4.686650540330114 0.0
      vertex 4.107086596458765 6.10659995903897 0.0
    endloop
  endfacet
  facet normal 0.0 0.0 -1.0
    outer loop
      vertex 4.107086596458765 6.10659995903897 0.0
      vertex 2.728405964316097 4.686650540330114 0.0
      vertex 2.498518227504378 4.707924790417456 0.0
    endloop
  endfacet
  facet normal -0.0 0.0 -1.0
    outer loop
      vertex 4.107086596458765 6.10659995903897 0.0
      vertex 2.498518227504378 4.707924790417456 0.0
      vertex 4.107469403248945 6.406438913909644 0.0
    endloop
  endfacet
  facet normal -0.0 0.0 -1.0
    outer loop
      vertex 4.107469403248945 6.406438913909644 0.0
      vertex 2.498518227504378 4.707924790417456 0.0
      vertex 4.010718941646439 6.997357350094693 0.0
    endloop
  endfacet
  facet normal 0.0 0.0 -1.0
    outer loop
      vertex 4.107469403248945 6.406438913909644 0.0
      vertex 4.010718941646439 6.997357350094693 0.0
      vertex 4.075219117560923 6.704537837915861 0.0
    endloop
  endfacet
  facet normal 0.0 0.0 -1.0
    outer loop
      vertex 0.5881903446126733 3.7479786311906595 0.0
      vertex 2.498518227504378 4.707924790417456 0.0
      vertex 0.6100894239649793 3.6957168041767066 0.0
    endloop
  endfacet
  facet normal 0.0 0.0 -1.0
    outer loop
      vertex 0.6100894239649793 3.6957168041767066 0.0
      vertex 2.498518227504378 4.707924790417456 0.0
      vertex 2.498518227504378 4.292075209582543 0.0
    endloop
  endfacet
  facet normal 0.0 0.0 -1.0
    outer loop
      vertex 0.6100894239649793 3.6957168041767066 0.0
      vertex 2.498518227504378 4.292075209582543 0.0
      vertex 1.637335231490235 0.5806109283517246 0.0
    endloop
  endfacet
  facet normal 0.0 0.0 -1.0
    outer loop
      vertex 1.637335231490235 0.5806109283517246 0.0
      vertex 2.498518227504378 4.292075209582543 0.0
      vertex 3.7884078528647476 1.4466545424011028 0.0
    endloop
  endfacet
  facet normal 0.0 0.0 -1.0
    outer loop
      vertex 1.637335231490235 0.5806109283517246 0.0
      vertex 3.7884078528647476 1.4466545424011028 0.0
      vertex 3.3217833804818717 0.5793782746688811 0.0
    endloop
  endfacet
  facet normal 0.0 0.0 -1.0
    outer loop
      vertex 0.5584115948099098 3.796188163598229 0.0
      vertex 0.5214813181542297 3.8391657395656256 0.0
      vertex 2.498518227504378 4.707924790417456 0.0
    endloop
  endfacet
  facet normal -0.0 0.0 -1.0
    outer loop
      vertex 2.498518227504378 4.707924790417456 0.0
      vertex 0.5214813181542297 3.8391657395656256 0.0
      vertex 1.637335231490235 8.419388873917494 0.0
    endloop
  endfacet
  facet normal 0.0 0.0 -1.0
    outer loop
      vertex 2.498518227504378 4.707924790417456 0.0
      vertex 1.637335231490235 8.419388873917494 0.0
      vertex 3.3217833804818717 8.4206219230619 0.0
    endloop
  endfacet
  facet normal -0.0 0.0 -1.0
    outer loop
      vertex 3.3217833804818717 8.4206219230619 0.0
      vertex 1.637335231490235 8.419388873917494 0.0
      vertex 2.3599263509966533 8.992585886671174 0.0
    endloop
  endfacet
  facet normal 0.0 0.0 -1.0
    outer loop
      vertex 3.3217833804818717 8.4206219230619 0.0
      vertex 2.3599263509966533 8.992585886671174 0.0
      vertex 2.4979756542439153 9.0 0.0
    endloop
  endfacet
  facet normal 0.0 0.0 -1.0
    outer loop
      vertex 0.37755031512354414 3.9269882609872293 0.0
      vertex 0.4299313737978682 5.094624899657122 0.0
      vertex 0.4299313737978682 3.9053747048813183 0.0
    endloop
  endfacet
  facet normal 0.0 0.0 -1.0
    outer loop
      vertex 0.4299313737978682 3.9053747048813183 0.0
      vertex 0.4299313737978682 5.094624899657122 0.0
      vertex 0.47830264998352023 5.124139777733906 0.0
    endloop
  endfacet
  facet normal 0.0 0.0 -1.0
    outer loop
      vertex 0.4299313737978682 3.9053747048813183 0.0
      vertex 0.47830264998352023 5.124139777733906 0.0
      vertex 0.5214813181542297 5.160834260434374 0.0
    endloop
  endfacet
  facet normal 0.0 0.0 -1.0
    outer loop
      vertex 0.5214813181542297 3.8391657395656256 0.0
      vertex 0.47830264998352023 3.875860222266094 0.0
      vertex 1.637335231490235 8.419388873917494 0.0
    endloop
  endfacet
  facet normal 0.0 0.0 -1.0
    outer loop
      vertex 1.637335231490235 8.419388873917494 0.0
      vertex 0.47830264998352023 3.875860222266094 0.0
      vertex 0.4299313737978682 3.9053747048813183 0.0
    endloop
  endfacet
  facet normal 0.0 0.0 -1.0
    outer loop
      vertex 1.637335231490235 8.419388873917494 0.0
      vertex 0.4299313737978682 3.9053747048813183 0.0
      vertex 0.6100894239649793 5.304283195823293 0.0
    endloop
  endfacet
  facet normal 0.0 0.0 -1.0
    outer loop
      vertex 0.6100894239649793 5.304283195823293 0.0
      vertex 0.4299313737978682 3.9053747048813183 0.0
      vertex 0.5881903446126733 5.25202097334778 0.0
    endloop
  endfacet
  facet normal 0.0 0.0 -1.0
    outer loop
      vertex 2.498518227504378 4.292075209582543 0.0
      vertex 2.728405964316097 4.313349459669885 0.0
      vertex 4.107086596458765 2.8933996454994695 0.0
    endloop
  endfacet
  facet normal 0.0 0.0 -1.0
    outer loop
      vertex 4.107086596458765 2.8933996454994695 0.0
      vertex 2.728405964316097 4.313349459669885 0.0
      vertex 2.9592515090263882 4.310021255180052 0.0
    endloop
  endfacet
  facet normal 0.0 0.0 -1.0
    outer loop
      vertex 4.107086596458765 2.8933996454994695 0.0
      vertex 2.9592515090263882 4.310021255180052 0.0
      vertex 4.091951096168914 3.2938123843357325 0.0
    endloop
  endfacet
  facet normal 0.0 0.0 -1.0
    outer loop
      vertex 4.091951096168914 3.2938123843357325 0.0
      vertex 2.9592515090263882 4.310021255180052 0.0
      vertex 3.9544969625696074 3.670197669703211 0.0
    endloop
  endfacet
  facet normal 0.0 0.0 -1.0
    outer loop
      vertex 4.091951096168914 3.2938123843357325 0.0
      vertex 3.9544969625696074 3.670197669703211 0.0
      vertex 4.037950820136745 3.4873833042368827 0.0
    endloop
  endfacet
  facet normal -0.0 0.0 -1.0
    outer loop
      vertex 2.843605894082124 0.09458679254178831 0.0
      vertex 2.6814998732106297 0.03299474207491738 0.0
      vertex 2.9928080042474328 0.18296464085916747 0.0
    endloop
  endfacet
  facet normal -0.0 0.0 -1.0
    outer loop
      vertex 2.9928080042474328 0.18296464085916747 0.0
      vertex 2.6814998732106297 0.03299474207491738 0.0
      vertex 3.3217833804818717 0.5793782746688811 0.0
    endloop
  endfacet
  facet normal 0.0 0.0 -1.0
    outer loop
      vertex 2.9928080042474328 0.18296464085916747 0.0
      vertex 3.3217833804818717 0.5793782746688811 0.0
      vertex 3.1247193486203244 0.29553099436568336 0.0
    endloop
  endfacet
  facet normal 0.0 0.0 -1.0
    outer loop
      vertex 3.1247193486203244 0.29553099436568336 0.0
      vertex 3.3217833804818717 0.5793782746688811 0.0
      vertex 3.2354632175271023 0.4289765318609977 0.0
    endloop
  endfacet
  facet normal 0.0 0.0 -1.0
    outer loop
      vertex 2.9592515090263882 4.310021255180052 0.0
      vertex 3.1884301832608415 4.282128560422813 0.0
      vertex 3.9544969625696074 3.670197669703211 0.0
    endloop
  endfacet
  facet normal 0.0 0.0 -1.0
    outer loop
      vertex 3.9544969625696074 3.670197669703211 0.0
      vertex 3.1884301832608415 4.282128560422813 0.0
      vertex 3.3763934582397206 4.211026549223957 0.0
    endloop
  endfacet
  facet normal 0.0 0.0 -1.0
    outer loop
      vertex 3.9544969625696074 3.670197669703211 0.0
      vertex 3.3763934582397206 4.211026549223957 0.0
      vertex 3.8436225913479953 3.837806142721989 0.0
    endloop
  endfacet
  facet normal 0.0 0.0 -1.0
    outer loop
      vertex 3.8436225913479953 3.837806142721989 0.0
      vertex 3.3763934582397206 4.211026549223957 0.0
      vertex 3.5510091146419773 4.111552543857017 0.0
    endloop
  endfacet
  facet normal 0.0 0.0 -1.0
    outer loop
      vertex 3.8436225913479953 3.837806142721989 0.0
      vertex 3.5510091146419773 4.111552543857017 0.0
      vertex 3.7080263361580568 3.9861283509160668 0.0
    endloop
  endfacet
  facet normal 0.0 0.0 -1.0
    outer loop
      vertex 0.0 3.9446013279511307 0.0
      vertex 0.0 5.055398672048869 0.0
      vertex 0.2659490855544615 3.9446013279511307 0.0
    endloop
  endfacet
  facet normal 0.0 0.0 -1.0
    outer loop
      vertex 0.2659490855544615 3.9446013279511307 0.0
      vertex 0.0 5.055398672048869 0.0
      vertex 0.2659490855544615 5.055398672048869 0.0
    endloop
  endfacet
  facet normal 0.0 0.0 -1.0
    outer loop
      vertex 0.2659490855544615 3.9446013279511307 0.0
      vertex 0.2659490855544615 5.055398672048869 0.0
      vertex 0.32244037395372405 3.9401709720932883 0.0
    endloop
  endfacet
  facet normal 0.0 0.0 -1.0
    outer loop
      vertex 0.32244037395372405 3.9401709720932883 0.0
      vertex 0.2659490855544615 5.055398672048869 0.0
      vertex 0.32244037395372405 5.059829027906711 0.0
    endloop
  endfacet
  facet normal 0.0 0.0 -1.0
    outer loop
      vertex 0.32244037395372405 3.9401709720932883 0.0
      vertex 0.32244037395372405 5.059829027906711 0.0
      vertex 0.37755031512354414 5.07301173901277 0.0
    endloop
  endfacet
  facet normal -0.0 -1.0 -0.0
    outer loop
      vertex 0.2659490855544615 3.9446013279511307 0.10366787521184107
      vertex 0.0 3.9446013279511307 0.10366787521184107
      vertex 0.2659490855544615 3.9446013279511307 0.0
    endloop
  endfacet
  facet normal 0.0 -1.0 0.0
    outer loop
      vertex 0.2659490855544615 3.9446013279511307 0.0
      vertex 0.0 3.9446013279511307 0.10366787521184107
      vertex 0.0 3.9446013279511307 0.0
    endloop
  endfacet
  facet normal -0.07818539706338577 -0.9969388364819783 -0.0
    outer loop
      vertex 0.2659490855544615 3.9446013279511307 0.10366787521184107
      vertex 0.2659490855544615 3.9446013279511307 0.0
      vertex 0.32244037395372405 3.9401709720932883 0.0
    endloop
  endfacet
  facet normal -0.07818539706338576 -0.9969388364819782 0.0
    outer loop
      vertex 0.32244037395372405 3.9401709720932883 0.22806933040931984
      vertex 0.2659490855544615 3.9446013279511307 0.22806933040931984
      vertex 0.2659490855544615 3.9446013279511307 0.10366787521184107
    endloop
  endfacet
  facet normal -0.07818539706338576 -0.9969388364819783 0.0
    outer loop
      vertex 0.2659490855544615 3.9446013279511307 0.10366787521184107
      vertex 0.32244037395372405 3.9401709720932883 0.0
      vertex 0.32244037395372405 3.9401709720932883 0.22806933040931984
    endloop
  endfacet
  facet normal -0.2326441067526679 -0.9725619361219384 -0.0
    outer loop
      vertex 0.32244037395372405 3.9401709720932883 0.22806933040931984
      vertex 0.32244037395372405 3.9401709720932883 0.0
      vertex 0.37755031512354414 3.9269882609872293 0.0
    endloop
  endfacet
  facet normal -0.2326441067526679 -0.9725619361219384 0.0
    outer loop
      vertex 0.32244037395372405 3.9401709720932883 0.22806933040931984
      vertex 0.37755031512354414 3.9269882609872293 0.0
      vertex 0.37755031512354414 3.9269882609872293 0.22806933040931984
    endloop
  endfacet
  facet normal -0.381426980331097 -0.9243989715893787 -0.0
    outer loop
      vertex 0.37755031512354414 3.9269882609872293 0.22806933040931984
      vertex 0.37755031512354414 3.9269882609872293 0.0
      vertex 0.4299313737978682 3.9053747048813183 0.0
    endloop
  endfacet
  facet normal -0.381426980331097 -0.9243989715893787 0.0
    outer loop
      vertex 0.37755031512354414 3.9269882609872293 0.22806933040931984
      vertex 0.4299313737978682 3.9053747048813183 0.0
      vertex 0.4299313737978682 3.9053747048813183 0.22806933040931984
    endloop
  endfacet
  facet normal -0.5208621459339529 -0.8536408055693435 -0.0
    outer loop
      vertex 0.4299313737978682 3.9053747048813183 0.22806933040931984
      vertex 0.4299313737978682 3.9053747048813183 0.0
      vertex 0.47830264998352023 3.875860222266094 0.0
    endloop
  endfacet
  facet normal -0.5208621459339529 -0.8536408055693435 0.0
    outer loop
      vertex 0.4299313737978682 3.9053747048813183 0.22806933040931984
      vertex 0.47830264998352023 3.875860222266094 0.0
      vertex 0.47830264998352023 3.875860222266094 0.22806933040931984
    endloop
  endfacet
  facet normal -0.6475727521781118 -0.7620036290179109 -0.0
    outer loop
      vertex 0.47830264998352023 3.875860222266094 0.22806933040931984
      vertex 0.47830264998352023 3.875860222266094 0.0
      vertex 0.5214813181542297 3.8391657395656256 0.0
    endloop
  endfacet
  facet normal -0.6475727521781118 -0.7620036290179109 0.0
    outer loop
      vertex 0.47830264998352023 3.875860222266094 0.22806933040931984
      vertex 0.5214813181542297 3.8391657395656256 0.0
      vertex 0.5214813181542297 3.8391657395656256 0.22806933040931984
    endloop
  endfacet
  facet normal -0.7584506919568258 -0.6517304257668289 -0.0
    outer loop
      vertex 0.5214813181542297 3.8391657395656256 0.22806933040931984
      vertex 0.5214813181542297 3.8391657395656256 0.0
      vertex 0.5584115948099098 3.796188163598229 0.0
    endloop
  endfacet
  facet normal -0.7584506919568258 -0.6517304257668289 0.0
    outer loop
      vertex 0.5214813181542297 3.8391657395656256 0.22806933040931984
      vertex 0.5584115948099098 3.796188163598229 0.0
      vertex 0.5584115948099098 3.796188163598229 0.22806933040931984
    endloop
  endfacet
  facet normal -0.8507800557332696 -0.5255219279597136 -0.0
    outer loop
      vertex 0.5584115948099098 3.796188163598229 0.22806933040931984
      vertex 0.5584115948099098 3.796188163598229 0.0
      vertex 0.5881903446126733 3.7479786311906595 0.0
    endloop
  endfacet
  facet normal -0.8507800557332696 -0.5255219279597136 0.0
    outer loop
      vertex 0.5584115948099098 3.796188163598229 0.22806933040931984
      vertex 0.5881903446126733 3.7479786311906595 0.0
      vertex 0.5881903446126733 3.7479786311906595 0.22806933040931984
    endloop
  endfacet
  facet normal -0.9223024152863588 -0.3864689570417642 -0.0
    outer loop
      vertex 0.5881903446126733 3.7479786311906595 0.22806933040931984
      vertex 0.5881903446126733 3.7479786311906595 0.0
      vertex 0.6100894239649793 3.6957168041767066 0.0
    endloop
  endfacet
  facet normal -0.9223024152863588 -0.3864689570417642 0.0
    outer loop
      vertex 0.5881903446126733 3.7479786311906595 0.22806933040931984
      vertex 0.6100894239649793 3.6957168041767066 0.0
      vertex 0.6100894239649793 3.6957168041767066 0.22806933040931984
    endloop
  endfacet
  facet normal -0.9496956860282489 -0.3131742389458841 -0.0
    outer loop
      vertex 1.637335231490235 0.5806109283517246 0.22806933040931984
      vertex 0.6100894239649793 3.6957168041767066 0.22806933040931984
      vertex 1.637335231490235 0.5806109283517246 0.0
    endloop
  endfacet
  facet normal -0.9496956860282489 -0.3131742389458841 0.0
    outer loop
      vertex 1.637335231490235 0.5806109283517246 0.0
      vertex 0.6100894239649793 3.6957168041767066 0.22806933040931984
      vertex 0.6100894239649793 3.6957168041767066 0.0
    endloop
  endfacet
  facet normal -0.9058276206722001 -0.4236464582967035 -0.0
    outer loop
      vertex 1.637335231490235 0.5806109283517246 0.22806933040931984
      vertex 1.637335231490235 0.5806109283517246 0.0
      vertex 1.6959036817339426 0.4553816979599061 0.0
    endloop
  endfacet
  facet normal -0.9058276206722001 -0.4236464582967035 0.0
    outer loop
      vertex 1.637335231490235 0.5806109283517246 0.22806933040931984
      vertex 1.6959036817339426 0.4553816979599061 0.0
      vertex 1.6959036817339426 0.4553816979599061 0.22806933040931984
    endloop
  endfacet
  facet normal -0.829990519962135 -0.5577774975498606 -0.0
    outer loop
      vertex 1.6959036817339426 0.4553816979599061 0.22806933040931984
      vertex 1.6959036817339426 0.4553816979599061 0.0
      vertex 1.7730155222616957 0.34063684558416857 0.0
    endloop
  endfacet
  facet normal -0.829990519962135 -0.5577774975498606 0.0
    outer loop
      vertex 1.6959036817339426 0.4553816979599061 0.22806933040931984
      vertex 1.7730155222616957 0.34063684558416857 0.0
      vertex 1.7730155222616957 0.34063684558416857 0.22806933040931984
    endloop
  endfacet
  facet normal -0.7344458787032759 -0.6786672610755382 -0.0
    outer loop
      vertex 1.7730155222616957 0.34063684558416857 0.22806933040931984
      vertex 1.7730155222616957 0.34063684558416857 0.0
      vertex 1.866840161511774 0.2391009036428469 0.0
    endloop
  endfacet
  facet normal -0.7344458787032759 -0.6786672610755382 0.0
    outer loop
      vertex 1.7730155222616957 0.34063684558416857 0.22806933040931984
      vertex 1.866840161511774 0.2391009036428469 0.0
      vertex 1.866840161511774 0.2391009036428469 0.22806933040931984
    endloop
  endfacet
  facet normal -0.6214656288063883 -0.7834414287056056 -0.0
    outer loop
      vertex 1.866840161511774 0.2391009036428469 0.22806933040931984
      vertex 1.866840161511774 0.2391009036428469 0.0
      vertex 1.9751497667853328 0.1531842103447735 0.0
    endloop
  endfacet
  facet normal -0.6214656288063883 -0.7834414287056056 0.0
    outer loop
      vertex 1.866840161511774 0.2391009036428469 0.22806933040931984
      vertex 1.9751497667853328 0.1531842103447735 0.0
      vertex 1.9751497667853328 0.1531842103447735 0.22806933040931984
    endloop
  endfacet
  facet normal -0.4937288081331764 -0.8696159290280929 -0.0
    outer loop
      vertex 1.9751497667853328 0.1531842103447735 0.22806933040931984
      vertex 1.9751497667853328 0.1531842103447735 0.0
      vertex 2.0953728492877977 0.0849269518785237 0.0
    endloop
  endfacet
  facet normal -0.4937288081331764 -0.8696159290280929 0.0
    outer loop
      vertex 1.9751497667853328 0.1531842103447735 0.22806933040931984
      vertex 2.0953728492877977 0.0849269518785237 0.0
      vertex 2.0953728492877977 0.0849269518785237 0.22806933040931984
    endloop
  endfacet
  facet normal -0.3542738152730632 -0.9351417346113194 -0.0
    outer loop
      vertex 2.0953728492877977 0.0849269518785237 0.22806933040931984
      vertex 2.0953728492877977 0.0849269518785237 0.0
      vertex 2.2246547697475596 0.035949136525062576 0.0
    endloop
  endfacet
  facet normal -0.3542738152730632 -0.9351417346113194 0.0
    outer loop
      vertex 2.0953728492877977 0.0849269518785237 0.22806933040931984
      vertex 2.2246547697475596 0.035949136525062576 0.0
      vertex 2.2246547697475596 0.035949136525062576 0.22806933040931984
    endloop
  endfacet
  facet normal -0.20640111260587082 -0.9784674653329353 -0.0
    outer loop
      vertex 2.2246547697475596 0.035949136525062576 0.22806933040931984
      vertex 2.2246547697475596 0.035949136525062576 0.0
      vertex 2.3599263509966533 0.007414508790385468 0.0
    endloop
  endfacet
  facet normal -0.20640111260587082 -0.9784674653329353 0.0
    outer loop
      vertex 2.2246547697475596 0.035949136525062576 0.22806933040931984
      vertex 2.3599263509966533 0.007414508790385468 0.0
      vertex 2.3599263509966533 0.007414508790385468 0.22806933040931984
    endloop
  endfacet
  facet normal -0.05363183650644258 -0.9985607773755917 -0.0
    outer loop
      vertex 2.3599263509966533 0.007414508790385468 0.22806933040931984
      vertex 2.3599263509966533 0.007414508790385468 0.0
      vertex 2.4979756542439153 0.0 0.0
    endloop
  endfacet
  facet normal -0.05363183650644258 -0.9985607773755917 0.0
    outer loop
      vertex 2.3599263509966533 0.007414508790385468 0.22806933040931984
      vertex 2.4979756542439153 0.0 0.0
      vertex 2.4979756542439153 0.0 0.22806933040931984
    endloop
  endfacet
  facet normal -0.0 -1.0 -0.0
    outer loop
      vertex 2.51125564889376 0.0 0.22806933040931984
      vertex 2.4979756542439153 0.0 0.22806933040931984
      vertex 2.51125564889376 0.0 0.0
    endloop
  endfacet
  facet normal 0.0 -1.0 0.0
    outer loop
      vertex 2.51125564889376 0.0 0.0
      vertex 2.4979756542439153 0.0 0.22806933040931984
      vertex 2.4979756542439153 0.0 0.0
    endloop
  endfacet
  facet normal 0.19026784286747792 -0.9817322180567147 0.0
    outer loop
      vertex 2.51125564889376 0.0 0.22806933040931984
      vertex 2.51125564889376 0.0 0.0
      vertex 2.6814998732106297 0.03299474207491738 0.0
    endloop
  endfacet
  facet normal 0.19026784286747792 -0.9817322180567147 0.0
    outer loop
      vertex 2.51125564889376 0.0 0.22806933040931984
      vertex 2.6814998732106297 0.03299474207491738 0.0
      vertex 2.6814998732106297 0.03299474207491738 0.22806933040931984
    endloop
  endfacet
  facet normal 0.35517625197273117 -0.9347993528210227 0.0
    outer loop
      vertex 2.6814998732106297 0.03299474207491738 0.22806933040931984
      vertex 2.6814998732106297 0.03299474207491738 0.0
      vertex 2.843605894082124 0.09458679254178831 0.0
    endloop
  endfacet
  facet normal 0.35517625197273117 -0.9347993528210227 0.0
    outer loop
      vertex 2.6814998732106297 0.03299474207491738 0.22806933040931984
      vertex 2.843605894082124 0.09458679254178831 0.0
      vertex 2.843605894082124 0.09458679254178831 0.22806933040931984
    endloop
  endfacet
  facet normal 0.509639276254524 -0.8603881729189244 0.0
    outer loop
      vertex 2.843605894082124 0.09458679254178831 0.22806933040931984
      vertex 2.843605894082124 0.09458679254178831 0.0
      vertex 2.9928080042474328 0.18296464085916747 0.0
    endloop
  endfacet
  facet normal 0.509639276254524 -0.8603881729189244 0.0
    outer loop
      vertex 2.843605894082124 0.09458679254178831 0.22806933040931984
      vertex 2.9928080042474328 0.18296464085916747 0.0
      vertex 2.9928080042474328 0.18296464085916747 0.22806933040931984
    endloop
  endfacet
  facet normal 0.6491259653487013 -0.7606809325269805 0.0
    outer loop
      vertex 2.9928080042474328 0.18296464085916747 0.22806933040931984
      vertex 2.9928080042474328 0.18296464085916747 0.0
      vertex 3.1247193486203244 0.29553099436568336 0.0
    endloop
  endfacet
  facet normal 0.6491259653487013 -0.7606809325269805 0.0
    outer loop
      vertex 2.9928080042474328 0.18296464085916747 0.22806933040931984
      vertex 3.1247193486203244 0.29553099436568336 0.0
      vertex 3.1247193486203244 0.29553099436568336 0.22806933040931984
    endloop
  endfacet
  facet normal 0.769526368035073 -0.638615039674724 0.0
    outer loop
      vertex 3.1247193486203244 0.29553099436568336 0.22806933040931984
      vertex 3.1247193486203244 0.29553099436568336 0.0
      vertex 3.2354632175271023 0.4289765318609977 0.0
    endloop
  endfacet
  facet normal 0.769526368035073 -0.638615039674724 0.0
    outer loop
      vertex 3.1247193486203244 0.29553099436568336 0.22806933040931984
      vertex 3.2354632175271023 0.4289765318609977 0.0
      vertex 3.2354632175271023 0.4289765318609977 0.22806933040931984
    endloop
  endfacet
  facet normal 0.8673068192692226 -0.4977739258429515 0.0
    outer loop
      vertex 3.2354632175271023 0.4289765318609977 0.22806933040931984
      vertex 3.2354632175271023 0.4289765318609977 0.0
      vertex 3.3217833804818717 0.5793782746688811 0.0
    endloop
  endfacet
  facet normal 0.8673068192692226 -0.4977739258429515 0.0
    outer loop
      vertex 3.2354632175271023 0.4289765318609977 0.22806933040931984
      vertex 3.3217833804818717 0.5793782746688811 0.0
      vertex 3.3217833804818717 0.5793782746688811 0.22806933040931984
    endloop
  endfacet
  facet normal 0.8806280658681583 -0.47380819917484174 0.0
    outer loop
      vertex 3.7884078528647476 1.4466545424011028 0.22806933040931984
      vertex 3.3217833804818717 0.5793782746688811 0.22806933040931984
      vertex 3.7884078528647476 1.4466545424011028 0.0
    endloop
  endfacet
  facet normal 0.8806280658681583 -0.47380819917484174 0.0
    outer loop
      vertex 3.7884078528647476 1.4466545424011028 0.0
      vertex 3.3217833804818717 0.5793782746688811 0.22806933040931984
      vertex 3.3217833804818717 0.5793782746688811 0.0
    endloop
  endfacet
  facet normal 0.9069135355820763 -0.4213167917114366 0.0
    outer loop
      vertex 3.7884078528647476 1.4466545424011028 0.22806933040931984
      vertex 3.7884078528647476 1.4466545424011028 0.0
      vertex 3.914734884547414 1.718582215821213 0.0
    endloop
  endfacet
  facet normal 0.9069135355820763 -0.4213167917114366 0.0
    outer loop
      vertex 3.7884078528647476 1.4466545424011028 0.22806933040931984
      vertex 3.914734884547414 1.718582215821213 0.0
      vertex 3.914734884547414 1.718582215821213 0.22806933040931984
    endloop
  endfacet
  facet normal 0.9473773635566978 -0.32011893261780183 0.0
    outer loop
      vertex 3.914734884547414 1.718582215821213 0.22806933040931984
      vertex 3.914734884547414 1.718582215821213 0.0
      vertex 4.010718941646439 2.0026426499053067 0.0
    endloop
  endfacet
  facet normal 0.9473773635566978 -0.32011893261780183 0.0
    outer loop
      vertex 3.914734884547414 1.718582215821213 0.22806933040931984
      vertex 4.010718941646439 2.0026426499053067 0.0
      vertex 4.010718941646439 2.0026426499053067 0.22806933040931984
    endloop
  endfacet
  facet normal 0.9765884660326054 -0.21511617329267171 0.0
    outer loop
      vertex 4.010718941646439 2.0026426499053067 0.22806933040931984
      vertex 4.010718941646439 2.0026426499053067 0.0
      vertex 4.075219117560923 2.2954617666225783 0.0
    endloop
  endfacet
  facet normal 0.9765884660326054 -0.21511617329267171 0.0
    outer loop
      vertex 4.010718941646439 2.0026426499053067 0.22806933040931984
      vertex 4.075219117560923 2.2954617666225783 0.0
      vertex 4.075219117560923 2.2954617666225783 0.22806933040931984
    endloop
  endfacet
  facet normal 0.9941987292421433 -0.10755875963075912 0.0
    outer loop
      vertex 4.075219117560923 2.2954617666225783 0.22806933040931984
      vertex 4.075219117560923 2.2954617666225783 0.0
      vertex 4.107469403248945 2.593561086090356 0.0
    endloop
  endfacet
  facet normal 0.9941987292421433 -0.10755875963075912 0.0
    outer loop
      vertex 4.075219117560923 2.2954617666225783 0.22806933040931984
      vertex 4.107469403248945 2.593561086090356 0.0
      vertex 4.107469403248945 2.593561086090356 0.22806933040931984
    endloop
  endfacet
  facet normal 0.9999991850071974 0.001276708635974494 0.0
    outer loop
      vertex 4.107469403248945 2.593561086090356 0.22806933040931984
      vertex 4.107469403248945 2.593561086090356 0.0
      vertex 4.107086596458765 2.8933996454994695 0.0
    endloop
  endfacet
  facet normal 0.9999991850071974 0.001276708635974494 0.0
    outer loop
      vertex 4.107469403248945 2.593561086090356 0.22806933040931984
      vertex 4.107086596458765 2.8933996454994695 0.0
      vertex 4.107086596458765 2.8933996454994695 0.22806933040931984
    endloop
  endfacet
  facet normal 0.9991876475477935 -0.04029944153342826 0.0
    outer loop
      vertex 4.107086596458765 2.8933996454994695 0.22806933040931984
      vertex 4.107086596458765 2.8933996454994695 0.0
      vertex 4.1151852537481295 3.094198416334636 0.0
    endloop
  endfacet
  facet normal 0.9991876475477935 -0.04029944153342826 0.0
    outer loop
      vertex 4.107086596458765 2.8933996454994695 0.22806933040931984
      vertex 4.1151852537481295 3.094198416334636 0.0
      vertex 4.1151852537481295 3.094198416334636 0.22806933040931984
    endloop
  endfacet
  facet normal 0.9932941112658509 0.11561491480160947 0.0
    outer loop
      vertex 4.1151852537481295 3.094198416334636 0.22806933040931984
      vertex 4.1151852537481295 3.094198416334636 0.0
      vertex 4.091951096168914 3.2938123843357325 0.0
    endloop
  endfacet
  facet normal 0.9932941112658509 0.11561491480160947 0.0
    outer loop
      vertex 4.1151852537481295 3.094198416334636 0.22806933040931984
      vertex 4.091951096168914 3.2938123843357325 0.0
      vertex 4.091951096168914 3.2938123843357325 0.22806933040931984
    endloop
  endfacet
  facet normal 0.9632214396874921 0.26870887243698366 0.0
    outer loop
      vertex 4.091951096168914 3.2938123843357325 0.22806933040931984
      vertex 4.091951096168914 3.2938123843357325 0.0
      vertex 4.037950820136745 3.4873833042368827 0.0
    endloop
  endfacet
  facet normal 0.9632214396874921 0.26870887243698366 0.0
    outer loop
      vertex 4.091951096168914 3.2938123843357325 0.22806933040931984
      vertex 4.037950820136745 3.4873833042368827 0.0
      vertex 4.037950820136745 3.4873833042368827 0.22806933040931984
    endloop
  endfacet
  facet normal 0.9096971671635183 0.41527227701192587 0.0
    outer loop
      vertex 4.037950820136745 3.4873833042368827 0.22806933040931984
      vertex 4.037950820136745 3.4873833042368827 0.0
      vertex 3.9544969625696074 3.670197669703211 0.0
    endloop
  endfacet
  facet normal 0.9096971671635183 0.41527227701192587 0.0
    outer loop
      vertex 4.037950820136745 3.4873833042368827 0.22806933040931984
      vertex 3.9544969625696074 3.670197669703211 0.0
      vertex 3.9544969625696074 3.670197669703211 0.22806933040931984
    endloop
  endfacet
  facet normal 0.8340306674417332 0.5517180854083878 0.0
    outer loop
      vertex 3.9544969625696074 3.670197669703211 0.22806933040931984
      vertex 3.9544969625696074 3.670197669703211 0.0
      vertex 3.8436225913479953 3.837806142721989 0.0
    endloop
  endfacet
  facet normal 0.8340306674417332 0.5517180854083878 0.0
    outer loop
      vertex 3.9544969625696074 3.670197669703211 0.22806933040931984
      vertex 3.8436225913479953 3.837806142721989 0.0
      vertex 3.8436225913479953 3.837806142721989 0.22806933040931984
    endloop
  endfacet
  facet normal 0.7380600866553038 0.6747349913013003 0.0
    outer loop
      vertex 3.8436225913479953 3.837806142721989 0.22806933040931984
      vertex 3.8436225913479953 3.837806142721989 0.0
      vertex 3.7080263361580568 3.9861283509160668 0.0
    endloop
  endfacet
  facet normal 0.7380600866553038 0.6747349913013003 0.0
    outer loop
      vertex 3.8436225913479953 3.837806142721989 0.22806933040931984
      vertex 3.7080263361580568 3.9861283509160668 0.0
      vertex 3.7080263361580568 3.9861283509160668 0.22806933040931984
    endloop
  endfacet
  facet normal 0.6241196434630527 0.7813287852393204 0.0
    outer loop
      vertex 3.7080263361580568 3.9861283509160668 0.22806933040931984
      vertex 3.7080263361580568 3.9861283509160668 0.0
      vertex 3.5510091146419773 4.111552543857017 0.0
    endloop
  endfacet
  facet normal 0.6241196434630527 0.7813287852393204 0.0
    outer loop
      vertex 3.7080263361580568 3.9861283509160668 0.22806933040931984
      vertex 3.5510091146419773 4.111552543857017 0.0
      vertex 3.5510091146419773 4.111552543857017 0.22806933040931984
    endloop
  endfacet
  facet normal 0.49498925315654974 0.868899096132296 0.0
    outer loop
      vertex 3.5510091146419773 4.111552543857017 0.22806933040931984
      vertex 3.5510091146419773 4.111552543857017 0.0
      vertex 3.3763934582397206 4.211026549223957 0.0
    endloop
  endfacet
  facet normal 0.49498925315654974 0.868899096132296 0.0
    outer loop
      vertex 3.5510091146419773 4.111552543857017 0.22806933040931984
      vertex 3.3763934582397206 4.211026549223957 0.0
      vertex 3.3763934582397206 4.211026549223957 0.22806933040931984
    endloop
  endfacet
  facet normal 0.3538083991564591 0.9353179227868691 0.0
    outer loop
      vertex 3.3763934582397206 4.211026549223957 0.22806933040931984
      vertex 3.3763934582397206 4.211026549223957 0.0
      vertex 3.1884301832608415 4.282128560422813 0.0
    endloop
  endfacet
  facet normal 0.3538083991564591 0.9353179227868691 0.0
    outer loop
      vertex 3.3763934582397206 4.211026549223957 0.22806933040931984
      vertex 3.1884301832608415 4.282128560422813 0.0
      vertex 3.1884301832608415 4.282128560422813 0.22806933040931984
    endloop
  endfacet
  facet normal 0.12081568953091967 0.9926749564500802 0.0
    outer loop
      vertex 3.1884301832608415 4.282128560422813 0.22806933040931984
      vertex 3.1884301832608415 4.282128560422813 0.0
      vertex 2.9592515090263882 4.310021255180052 0.0
    endloop
  endfacet
  facet normal 0.12081568953091967 0.9926749564500802 0.0
    outer loop
      vertex 3.1884301832608415 4.282128560422813 0.22806933040931984
      vertex 2.9592515090263882 4.310021255180052 0.0
      vertex 2.9592515090263882 4.310021255180052 0.22806933040931984
    endloop
  endfacet
  facet normal 0.014415953501657534 0.9998960847431286 0.0
    outer loop
      vertex 2.9592515090263882 4.310021255180052 0.22806933040931984
      vertex 2.9592515090263882 4.310021255180052 0.0
      vertex 2.728405964316097 4.313349459669885 0.0
    endloop
  endfacet
  facet normal 0.014415953501657534 0.9998960847431286 0.0
    outer loop
      vertex 2.9592515090263882 4.310021255180052 0.22806933040931984
      vertex 2.728405964316097 4.313349459669885 0.0
      vertex 2.728405964316097 4.313349459669885 0.22806933040931984
    endloop
  endfacet
  facet normal -0.0921481717863665 0.9957453060077313 0.0
    outer loop
      vertex 2.728405964316097 4.313349459669885 0.22806933040931984
      vertex 2.728405964316097 4.313349459669885 0.0
      vertex 2.498518227504378 4.292075209582543 0.0
    endloop
  endfacet
  facet normal -0.0921481717863665 0.9957453060077313 0.0
    outer loop
      vertex 2.728405964316097 4.313349459669885 0.22806933040931984
      vertex 2.498518227504378 4.292075209582543 0.0
      vertex 2.498518227504378 4.292075209582543 0.22806933040931984
    endloop
  endfacet
  facet normal -0.1335771362752941 -0.9910384193685388 -0.0
    outer loop
      vertex 1.5406680145461307 4.883585651723068 0.22806933040931984
      vertex 0.2659490855544615 5.055398672048869 0.22806933040931984
      vertex 1.5406680145461307 4.883585651723068 0.10366787521184107
    endloop
  endfacet
  facet normal -0.1335771362752941 -0.9910384193685388 0.0
    outer loop
      vertex 1.5406680145461307 4.883585651723068 0.10366787521184107
      vertex 0.2659490855544615 5.055398672048869 0.22806933040931984
      vertex 0.2659490855544615 5.055398672048869 0.10366787521184107
    endloop
  endfacet
  facet normal -1.0 0.0 0.0
    outer loop
      vertex 1.5406680145461307 4.116414348276932 0.22806933040931984
      vertex 1.5406680145461307 4.883585651723068 0.22806933040931984
      vertex 1.5406680145461307 4.116414348276932 0.10366787521184107
    endloop
  endfacet
  facet normal -1.0 0.0 0.0
    outer loop
      vertex 1.5406680145461307 4.116414348276932 0.10366787521184107
      vertex 1.5406680145461307 4.883585651723068 0.22806933040931984
      vertex 1.5406680145461307 4.883585651723068 0.10366787521184107
    endloop
  endfacet
  facet normal -0.1335771362752941 0.9910384193685388 0.0
    outer loop
      vertex 0.2659490855544615 3.9446013279511307 0.22806933040931984
      vertex 1.5406680145461307 4.116414348276932 0.22806933040931984
      vertex 0.2659490855544615 3.9446013279511307 0.10366787521184107
    endloop
  endfacet
  facet normal -0.1335771362752941 0.9910384193685388 0.0
    outer loop
      vertex 0.2659490855544615 3.9446013279511307 0.10366787521184107
      vertex 1.5406680145461307 4.116414348276932 0.22806933040931984
      vertex 1.5406680145461307 4.116414348276932 0.10366787521184107
    endloop
  endfacet
  facet normal 0.0 0.0 1.0
    outer loop
      vertex 3.3763934582397206 4.211026549223957 0.22806933040931984
      vertex 3.1884301832608415 4.282128560422813 0.22806933040931984
      vertex 2.9592515090263882 4.310021255180052 0.22806933040931984
    endloop
  endfacet
  facet normal 0.0 0.0 1.0
    outer loop
      vertex 0.32244037395372405 5.059829027906711 0.22806933040931984
      vertex 0.2659490855544615 5.055398672048869 0.22806933040931984
      vertex 1.5406680145461307 4.883585651723068 0.22806933040931984
    endloop
  endfacet
  facet normal 0.0 0.0 1.0
    outer loop
      vertex 3.3763934582397206 4.788973450776043 0.22806933040931984
      vertex 3.5510091146419773 4.888447456142983 0.22806933040931984
      vertex 4.107086596458765 6.10659995903897 0.22806933040931984
    endloop
  endfacet
  facet normal 0.0 0.0 1.0
    outer loop
      vertex 2.728405964316097 4.313349459669885 0.22806933040931984
      vertex 2.498518227504378 4.292075209582543 0.22806933040931984
      vertex 2.9592515090263882 4.310021255180052 0.22806933040931984
    endloop
  endfacet
  facet normal 0.0 0.0 1.0
    outer loop
      vertex 2.9592515090263882 4.310021255180052 0.22806933040931984
      vertex 2.498518227504378 4.292075209582543 0.22806933040931984
      vertex 4.107086596458765 2.8933996454994695 0.22806933040931984
    endloop
  endfacet
  facet normal 0.0 0.0 1.0
    outer loop
      vertex 1.5406680145461307 4.116414348276932 0.22806933040931984
      vertex 2.498518227504378 4.292075209582543 0.22806933040931984
      vertex 2.498518227504378 4.707924790417456 0.22806933040931984
    endloop
  endfacet
  facet normal 0.0 0.0 1.0
    outer loop
      vertex 1.5406680145461307 4.116414348276932 0.22806933040931984
      vertex 0.2659490855544615 3.9446013279511307 0.22806933040931984
      vertex 0.32244037395372405 3.9401709720932883 0.22806933040931984
    endloop
  endfacet
  facet normal 0.0 -0.0 1.0
    outer loop
      vertex 3.1884301832608415 4.717871439577187 0.22806933040931984
      vertex 3.3763934582397206 4.788973450776043 0.22806933040931984
      vertex 2.9592515090263882 4.689978744819948 0.22806933040931984
    endloop
  endfacet
  facet normal 0.0 0.0 1.0
    outer loop
      vertex 2.9592515090263882 4.689978744819948 0.22806933040931984
      vertex 3.3763934582397206 4.788973450776043 0.22806933040931984
      vertex 4.107086596458765 6.10659995903897 0.22806933040931984
    endloop
  endfacet
  facet normal 0.0 -0.0 1.0
    outer loop
      vertex 2.9592515090263882 4.689978744819948 0.22806933040931984
      vertex 4.107086596458765 6.10659995903897 0.22806933040931984
      vertex 2.728405964316097 4.686650540330114 0.22806933040931984
    endloop
  endfacet
  facet normal 0.0 -0.0 1.0
    outer loop
      vertex 2.728405964316097 4.686650540330114 0.22806933040931984
      vertex 4.107086596458765 6.10659995903897 0.22806933040931984
      vertex 2.498518227504378 4.707924790417456 0.22806933040931984
    endloop
  endfacet
  facet normal 0.0 0.0 1.0
    outer loop
      vertex 3.3217833804818717 8.4206219230619 0.22806933040931984
      vertex 1.637335231490235 8.419388873917494 0.22806933040931984
      vertex 3.7884078528647476 7.553345457598897 0.22806933040931984
    endloop
  endfacet
  facet normal 0.0 0.0 1.0
    outer loop
      vertex 3.7884078528647476 7.553345457598897 0.22806933040931984
      vertex 1.637335231490235 8.419388873917494 0.22806933040931984
      vertex 2.498518227504378 4.707924790417456 0.22806933040931984
    endloop
  endfacet
  facet normal 0.0 0.0 1.0
    outer loop
      vertex 3.2354632175271023 8.571023863600562 0.22806933040931984
      vertex 3.1247193486203244 8.704469203365097 0.22806933040931984
      vertex 2.9928080042474328 8.817034963679273 0.22806933040931984
    endloop
  endfacet
  facet normal 0.0 0.0 1.0
    outer loop
      vertex 1.6959036817339426 8.544618104309313 0.22806933040931984
      vertex 2.4979756542439153 9.0 0.22806933040931984
      vertex 1.7730155222616957 8.65936285781966 0.22806933040931984
    endloop
  endfacet
  facet normal 0.0 0.0 1.0
    outer loop
      vertex 1.7730155222616957 8.65936285781966 0.22806933040931984
      vertex 2.4979756542439153 9.0 0.22806933040931984
      vertex 2.3599263509966533 8.992585886671174 0.22806933040931984
    endloop
  endfacet
  facet normal 0.0 0.0 1.0
    outer loop
      vertex 1.7730155222616957 8.65936285781966 0.22806933040931984
      vertex 2.3599263509966533 8.992585886671174 0.22806933040931984
      vertex 1.866840161511774 8.760899195222542 0.22806933040931984
    endloop
  endfacet
  facet normal 0.0 0.0 1.0
    outer loop
      vertex 1.866840161511774 8.760899195222542 0.22806933040931984
      vertex 2.3599263509966533 8.992585886671174 0.22806933040931984
      vertex 2.2246547697475596 8.964050962340327 0.22806933040931984
    endloop
  endfacet
  facet normal 0.0 0.0 1.0
    outer loop
      vertex 1.866840161511774 8.760899195222542 0.22806933040931984
      vertex 2.2246547697475596 8.964050962340327 0.22806933040931984
      vertex 1.9751497667853328 8.846815591924447 0.22806933040931984
    endloop
  endfacet
  facet normal 0.0 0.0 1.0
    outer loop
      vertex 1.9751497667853328 8.846815591924447 0.22806933040931984
      vertex 2.2246547697475596 8.964050962340327 0.22806933040931984
      vertex 2.0953728492877977 8.915073048121476 0.22806933040931984
    endloop
  endfacet
  facet normal 0.0 -0.0 1.0
    outer loop
      vertex 4.107086596458765 2.8933996454994695 0.22806933040931984
      vertex 4.1151852537481295 3.094198416334636 0.22806933040931984
      vertex 4.091951096168914 3.2938123843357325 0.22806933040931984
    endloop
  endfacet
  facet normal 0.0 0.0 1.0
    outer loop
      vertex 4.107086596458765 2.8933996454994695 0.22806933040931984
      vertex 4.091951096168914 3.2938123843357325 0.22806933040931984
      vertex 2.9592515090263882 4.310021255180052 0.22806933040931984
    endloop
  endfacet
  facet normal 0.0 0.0 1.0
    outer loop
      vertex 2.9592515090263882 4.310021255180052 0.22806933040931984
      vertex 4.091951096168914 3.2938123843357325 0.22806933040931984
      vertex 4.037950820136745 3.4873833042368827 0.22806933040931984
    endloop
  endfacet
  facet normal 0.0 0.0 1.0
    outer loop
      vertex 2.9592515090263882 4.310021255180052 0.22806933040931984
      vertex 4.037950820136745 3.4873833042368827 0.22806933040931984
      vertex 3.9544969625696074 3.670197669703211 0.22806933040931984
    endloop
  endfacet
  facet normal 0.0 0.0 1.0
    outer loop
      vertex 1.5406680145461307 4.116414348276932 0.22806933040931984
      vertex 2.498518227504378 4.707924790417456 0.22806933040931984
      vertex 1.5406680145461307 4.883585651723068 0.22806933040931984
    endloop
  endfacet
  facet normal -0.0 0.0 1.0
    outer loop
      vertex 1.5406680145461307 4.883585651723068 0.22806933040931984
      vertex 2.498518227504378 4.707924790417456 0.22806933040931984
      vertex 1.637335231490235 8.419388873917494 0.22806933040931984
    endloop
  endfacet
  facet normal 0.0 -0.0 1.0
    outer loop
      vertex 1.5406680145461307 4.883585651723068 0.22806933040931984
      vertex 1.637335231490235 8.419388873917494 0.22806933040931984
      vertex 0.6100894239649793 5.304283195823293 0.22806933040931984
    endloop
  endfacet
  facet normal -0.0 0.0 1.0
    outer loop
      vertex 0.32244037395372405 3.9401709720932883 0.22806933040931984
      vertex 0.37755031512354414 3.9269882609872293 0.22806933040931984
      vertex 1.5406680145461307 4.116414348276932 0.22806933040931984
    endloop
  endfacet
  facet normal 0.0 0.0 1.0
    outer loop
      vertex 1.5406680145461307 4.116414348276932 0.22806933040931984
      vertex 0.37755031512354414 3.9269882609872293 0.22806933040931984
      vertex 0.4299313737978682 3.9053747048813183 0.22806933040931984
    endloop
  endfacet
  facet normal 0.0 0.0 1.0
    outer loop
      vertex 1.5406680145461307 4.116414348276932 0.22806933040931984
      vertex 0.4299313737978682 3.9053747048813183 0.22806933040931984
      vertex 0.47830264998352023 3.875860222266094 0.22806933040931984
    endloop
  endfacet
  facet normal 0.0 0.0 1.0
    outer loop
      vertex 3.5510091146419773 4.888447456142983 0.22806933040931984
      vertex 3.7080263361580568 5.013871649083933 0.22806933040931984
      vertex 3.8436225913479953 5.162193857278011 0.22806933040931984
    endloop
  endfacet
  facet normal 0.0 0.0 1.0
    outer loop
      vertex 3.914734884547414 7.281417388717227 0.22806933040931984
      vertex 3.7884078528647476 7.553345457598897 0.22806933040931984
      vertex 4.010718941646439 6.997357350094693 0.22806933040931984
    endloop
  endfacet
  facet normal 0.0 0.0 1.0
    outer loop
      vertex 4.010718941646439 6.997357350094693 0.22806933040931984
      vertex 3.7884078528647476 7.553345457598897 0.22806933040931984
      vertex 2.498518227504378 4.707924790417456 0.22806933040931984
    endloop
  endfacet
  facet normal 0.0 0.0 1.0
    outer loop
      vertex 4.010718941646439 6.997357350094693 0.22806933040931984
      vertex 2.498518227504378 4.707924790417456 0.22806933040931984
      vertex 4.075219117560923 6.704537837915861 0.22806933040931984
    endloop
  endfacet
  facet normal 0.0 0.0 1.0
    outer loop
      vertex 4.075219117560923 6.704537837915861 0.22806933040931984
      vertex 2.498518227504378 4.707924790417456 0.22806933040931984
      vertex 4.107086596458765 6.10659995903897 0.22806933040931984
    endloop
  endfacet
  facet normal 0.0 0.0 1.0
    outer loop
      vertex 4.075219117560923 6.704537837915861 0.22806933040931984
      vertex 4.107086596458765 6.10659995903897 0.22806933040931984
      vertex 4.107469403248945 6.406438913909644 0.22806933040931984
    endloop
  endfacet
  facet normal 0.0 0.0 1.0
    outer loop
      vertex 3.2354632175271023 8.571023863600562 0.22806933040931984
      vertex 2.4979756542439153 9.0 0.22806933040931984
      vertex 3.3217833804818717 8.4206219230619 0.22806933040931984
    endloop
  endfacet
  facet normal 0.0 0.0 1.0
    outer loop
      vertex 3.3217833804818717 8.4206219230619 0.22806933040931984
      vertex 2.4979756542439153 9.0 0.22806933040931984
      vertex 1.6959036817339426 8.544618104309313 0.22806933040931984
    endloop
  endfacet
  facet normal 0.0 0.0 1.0
    outer loop
      vertex 3.3217833804818717 8.4206219230619 0.22806933040931984
      vertex 1.6959036817339426 8.544618104309313 0.22806933040931984
      vertex 1.637335231490235 8.419388873917494 0.22806933040931984
    endloop
  endfacet
  facet normal 0.0 0.0 1.0
    outer loop
      vertex 2.9928080042474328 8.817034963679273 0.22806933040931984
      vertex 2.843605894082124 8.90541271313126 0.22806933040931984
      vertex 2.6814998732106297 8.967005060194301 0.22806933040931984
    endloop
  endfacet
  facet normal -0.0 -0.0 1.0
    outer loop
      vertex 2.3599263509966533 0.007414508790385468 0.22806933040931984
      vertex 2.4979756542439153 0.0 0.22806933040931984
      vertex 2.2246547697475596 0.035949136525062576 0.22806933040931984
    endloop
  endfacet
  facet normal -0.0 0.0 1.0
    outer loop
      vertex 2.2246547697475596 0.035949136525062576 0.22806933040931984
      vertex 2.4979756542439153 0.0 0.22806933040931984
      vertex 3.3217833804818717 0.5793782746688811 0.22806933040931984
    endloop
  endfacet
  facet normal 0.0 -0.0 1.0
    outer loop
      vertex 2.2246547697475596 0.035949136525062576 0.22806933040931984
      vertex 3.3217833804818717 0.5793782746688811 0.22806933040931984
      vertex 2.0953728492877977 0.0849269518785237 0.22806933040931984
    endloop
  endfacet
  facet normal 0.0 0.0 1.0
    outer loop
      vertex 2.4979756542439153 0.0 0.22806933040931984
      vertex 2.51125564889376 0.0 0.22806933040931984
      vertex 2.6814998732106297 0.03299474207491738 0.22806933040931984
    endloop
  endfacet
  facet normal 0.0 0.0 1.0
    outer loop
      vertex 4.107469403248945 2.593561086090356 0.22806933040931984
      vertex 4.107086596458765 2.8933996454994695 0.22806933040931984
      vertex 4.075219117560923 2.2954617666225783 0.22806933040931984
    endloop
  endfacet
  facet normal 0.0 -0.0 1.0
    outer loop
      vertex 4.075219117560923 2.2954617666225783 0.22806933040931984
      vertex 4.107086596458765 2.8933996454994695 0.22806933040931984
      vertex 2.498518227504378 4.292075209582543 0.22806933040931984
    endloop
  endfacet
  facet normal 0.0 0.0 1.0
    outer loop
      vertex 4.075219117560923 2.2954617666225783 0.22806933040931984
      vertex 2.498518227504378 4.292075209582543 0.22806933040931984
      vertex 4.010718941646439 2.0026426499053067 0.22806933040931984
    endloop
  endfacet
  facet normal 0.0 0.0 1.0
    outer loop
      vertex 4.010718941646439 2.0026426499053067 0.22806933040931984
      vertex 2.498518227504378 4.292075209582543 0.22806933040931984
      vertex 3.7884078528647476 1.4466545424011028 0.22806933040931984
    endloop
  endfacet
  facet normal 0.0 0.0 1.0
    outer loop
      vertex 4.010718941646439 2.0026426499053067 0.22806933040931984
      vertex 3.7884078528647476 1.4466545424011028 0.22806933040931984
      vertex 3.914734884547414 1.718582215821213 0.22806933040931984
    endloop
  endfacet
  facet normal -0.0 0.0 1.0
    outer loop
      vertex 0.32244037395372405 5.059829027906711 0.22806933040931984
      vertex 1.5406680145461307 4.883585651723068 0.22806933040931984
      vertex 0.37755031512354414 5.07301173901277 0.22806933040931984
    endloop
  endfacet
  facet normal -0.0 0.0 1.0
    outer loop
      vertex 0.47830264998352023 3.875860222266094 0.22806933040931984
      vertex 0.5214813181542297 3.8391657395656256 0.22806933040931984
      vertex 1.5406680145461307 4.116414348276932 0.22806933040931984
    endloop
  endfacet
  facet normal 0.0 0.0 1.0
    outer loop
      vertex 1.5406680145461307 4.116414348276932 0.22806933040931984
      vertex 0.5214813181542297 3.8391657395656256 0.22806933040931984
      vertex 0.5584115948099098 3.796188163598229 0.22806933040931984
    endloop
  endfacet
  facet normal 0.0 0.0 1.0
    outer loop
      vertex 1.5406680145461307 4.116414348276932 0.22806933040931984
      vertex 0.5584115948099098 3.796188163598229 0.22806933040931984
      vertex 0.5881903446126733 3.7479786311906595 0.22806933040931984
    endloop
  endfacet
  facet normal 0.0 0.0 1.0
    outer loop
      vertex 4.1151852537481295 5.905801979126924 0.22806933040931984
      vertex 4.107086596458765 6.10659995903897 0.22806933040931984
      vertex 4.091951096168914 5.7061872202027075 0.22806933040931984
    endloop
  endfacet
  facet normal 0.0 -0.0 1.0
    outer loop
      vertex 4.091951096168914 5.7061872202027075 0.22806933040931984
      vertex 4.107086596458765 6.10659995903897 0.22806933040931984
      vertex 3.5510091146419773 4.888447456142983 0.22806933040931984
    endloop
  endfacet
  facet normal 0.0 0.0 1.0
    outer loop
      vertex 4.091951096168914 5.7061872202027075 0.22806933040931984
      vertex 3.5510091146419773 4.888447456142983 0.22806933040931984
      vertex 4.037950820136745 5.512616695763117 0.22806933040931984
    endloop
  endfacet
  facet normal 0.0 0.0 1.0
    outer loop
      vertex 4.037950820136745 5.512616695763117 0.22806933040931984
      vertex 3.5510091146419773 4.888447456142983 0.22806933040931984
      vertex 3.8436225913479953 5.162193857278011 0.22806933040931984
    endloop
  endfacet
  facet normal 0.0 0.0 1.0
    outer loop
      vertex 4.037950820136745 5.512616695763117 0.22806933040931984
      vertex 3.8436225913479953 5.162193857278011 0.22806933040931984
      vertex 3.9544969625696074 5.329802330296789 0.22806933040931984
    endloop
  endfacet
  facet normal 0.0 0.0 1.0
    outer loop
      vertex 3.2354632175271023 8.571023863600562 0.22806933040931984
      vertex 2.9928080042474328 8.817034963679273 0.22806933040931984
      vertex 2.4979756542439153 9.0 0.22806933040931984
    endloop
  endfacet
  facet normal 0.0 0.0 1.0
    outer loop
      vertex 2.4979756542439153 9.0 0.22806933040931984
      vertex 2.9928080042474328 8.817034963679273 0.22806933040931984
      vertex 2.6814998732106297 8.967005060194301 0.22806933040931984
    endloop
  endfacet
  facet normal -0.0 0.0 1.0
    outer loop
      vertex 2.4979756542439153 9.0 0.22806933040931984
      vertex 2.6814998732106297 8.967005060194301 0.22806933040931984
      vertex 2.51125564889376 9.0 0.22806933040931984
    endloop
  endfacet
  facet normal -0.0 -0.0 1.0
    outer loop
      vertex 1.9751497667853328 0.1531842103447735 0.22806933040931984
      vertex 2.0953728492877977 0.0849269518785237 0.22806933040931984
      vertex 1.866840161511774 0.2391009036428469 0.22806933040931984
    endloop
  endfacet
  facet normal -0.0 0.0 1.0
    outer loop
      vertex 1.866840161511774 0.2391009036428469 0.22806933040931984
      vertex 2.0953728492877977 0.0849269518785237 0.22806933040931984
      vertex 3.3217833804818717 0.5793782746688811 0.22806933040931984
    endloop
  endfacet
  facet normal 0.0 -0.0 1.0
    outer loop
      vertex 1.866840161511774 0.2391009036428469 0.22806933040931984
      vertex 3.3217833804818717 0.5793782746688811 0.22806933040931984
      vertex 1.7730155222616957 0.34063684558416857 0.22806933040931984
    endloop
  endfacet
  facet normal 0.0 -0.0 1.0
    outer loop
      vertex 1.7730155222616957 0.34063684558416857 0.22806933040931984
      vertex 3.3217833804818717 0.5793782746688811 0.22806933040931984
      vertex 1.637335231490235 0.5806109283517246 0.22806933040931984
    endloop
  endfacet
  facet normal 0.0 0.0 1.0
    outer loop
      vertex 1.7730155222616957 0.34063684558416857 0.22806933040931984
      vertex 1.637335231490235 0.5806109283517246 0.22806933040931984
      vertex 1.6959036817339426 0.4553816979599061 0.22806933040931984
    endloop
  endfacet
  facet normal 0.0 -0.0 1.0
    outer loop
      vertex 3.2354632175271023 0.4289765318609977 0.22806933040931984
      vertex 3.3217833804818717 0.5793782746688811 0.22806933040931984
      vertex 3.1247193486203244 0.29553099436568336 0.22806933040931984
    endloop
  endfacet
  facet normal 0.0 -0.0 1.0
    outer loop
      vertex 3.1247193486203244 0.29553099436568336 0.22806933040931984
      vertex 3.3217833804818717 0.5793782746688811 0.22806933040931984
      vertex 2.4979756542439153 0.0 0.22806933040931984
    endloop
  endfacet
  facet normal 0.0 0.0 1.0
    outer loop
      vertex 3.1247193486203244 0.29553099436568336 0.22806933040931984
      vertex 2.4979756542439153 0.0 0.22806933040931984
      vertex 2.9928080042474328 0.18296464085916747 0.22806933040931984
    endloop
  endfacet
  facet normal 0.0 0.0 1.0
    outer loop
      vertex 2.9928080042474328 0.18296464085916747 0.22806933040931984
      vertex 2.4979756542439153 0.0 0.22806933040931984
      vertex 2.6814998732106297 0.03299474207491738 0.22806933040931984
    endloop
  endfacet
  facet normal 0.0 0.0 1.0
    outer loop
      vertex 2.9928080042474328 0.18296464085916747 0.22806933040931984
      vertex 2.6814998732106297 0.03299474207491738 0.22806933040931984
      vertex 2.843605894082124 0.09458679254178831 0.22806933040931984
    endloop
  endfacet
  facet normal 0.0 0.0 1.0
    outer loop
      vertex 3.5510091146419773 4.111552543857017 0.22806933040931984
      vertex 3.3763934582397206 4.211026549223957 0.22806933040931984
      vertex 3.7080263361580568 3.9861283509160668 0.22806933040931984
    endloop
  endfacet
  facet normal 0.0 0.0 1.0
    outer loop
      vertex 3.7080263361580568 3.9861283509160668 0.22806933040931984
      vertex 3.3763934582397206 4.211026549223957 0.22806933040931984
      vertex 2.9592515090263882 4.310021255180052 0.22806933040931984
    endloop
  endfacet
  facet normal 0.0 0.0 1.0
    outer loop
      vertex 3.7080263361580568 3.9861283509160668 0.22806933040931984
      vertex 2.9592515090263882 4.310021255180052 0.22806933040931984
      vertex 3.8436225913479953 3.837806142721989 0.22806933040931984
    endloop
  endfacet
  facet normal 0.0 0.0 1.0
    outer loop
      vertex 3.8436225913479953 3.837806142721989 0.22806933040931984
      vertex 2.9592515090263882 4.310021255180052 0.22806933040931984
      vertex 3.9544969625696074 3.670197669703211 0.22806933040931984
    endloop
  endfacet
  facet normal 0.0 0.0 1.0
    outer loop
      vertex 0.6100894239649793 5.304283195823293 0.22806933040931984
      vertex 0.5881903446126733 5.25202097334778 0.22806933040931984
      vertex 1.5406680145461307 4.883585651723068 0.22806933040931984
    endloop
  endfacet
  facet normal 0.0 0.0 1.0
    outer loop
      vertex 1.5406680145461307 4.883585651723068 0.22806933040931984
      vertex 0.5881903446126733 5.25202097334778 0.22806933040931984
      vertex 0.5584115948099098 5.203811836401771 0.22806933040931984
    endloop
  endfacet
  facet normal 0.0 0.0 1.0
    outer loop
      vertex 1.5406680145461307 4.883585651723068 0.22806933040931984
      vertex 0.5584115948099098 5.203811836401771 0.22806933040931984
      vertex 0.5214813181542297 5.160834260434374 0.22806933040931984
    endloop
  endfacet
  facet normal 0.0 0.0 1.0
    outer loop
      vertex 0.5214813181542297 5.160834260434374 0.22806933040931984
      vertex 0.47830264998352023 5.124139777733906 0.22806933040931984
      vertex 1.5406680145461307 4.883585651723068 0.22806933040931984
    endloop
  endfacet
  facet normal 0.0 0.0 1.0
    outer loop
      vertex 1.5406680145461307 4.883585651723068 0.22806933040931984
      vertex 0.47830264998352023 5.124139777733906 0.22806933040931984
      vertex 0.4299313737978682 5.094624899657122 0.22806933040931984
    endloop
  endfacet
  facet normal 0.0 0.0 1.0
    outer loop
      vertex 1.5406680145461307 4.883585651723068 0.22806933040931984
      vertex 0.4299313737978682 5.094624899657122 0.22806933040931984
      vertex 0.37755031512354414 5.07301173901277 0.22806933040931984
    endloop
  endfacet
  facet normal -0.0 0.0 1.0
    outer loop
      vertex 0.5881903446126733 3.7479786311906595 0.22806933040931984
      vertex 0.6100894239649793 3.6957168041767066 0.22806933040931984
      vertex 1.5406680145461307 4.116414348276932 0.22806933040931984
    endloop
  endfacet
  facet normal 0.0 0.0 1.0
    outer loop
      vertex 1.5406680145461307 4.116414348276932 0.22806933040931984
      vertex 0.6100894239649793 3.6957168041767066 0.22806933040931984
      vertex 1.637335231490235 0.5806109283517246 0.22806933040931984
    endloop
  endfacet
  facet normal -0.0 0.0 1.0
    outer loop
      vertex 1.5406680145461307 4.116414348276932 0.22806933040931984
      vertex 1.637335231490235 0.5806109283517246 0.22806933040931984
      vertex 2.498518227504378 4.292075209582543 0.22806933040931984
    endloop
  endfacet
  facet normal 0.0 0.0 1.0
    outer loop
      vertex 2.498518227504378 4.292075209582543 0.22806933040931984
      vertex 1.637335231490235 0.5806109283517246 0.22806933040931984
      vertex 3.3217833804818717 0.5793782746688811 0.22806933040931984
    endloop
  endfacet
  facet normal 0.0 0.0 1.0
    outer loop
      vertex 2.498518227504378 4.292075209582543 0.22806933040931984
      vertex 3.3217833804818717 0.5793782746688811 0.22806933040931984
      vertex 3.7884078528647476 1.4466545424011028 0.22806933040931984
    endloop
  endfacet
endsolid thingi10k_65609
