solid thingi10k_65610
  facet normal -0.024326399165260977 -0.9997040693643556 -0.0
    outer loop
      vertex 1.452471264692974 0.060917476869906506 0.5720702757183119
      vertex 1.452471264692974 0.060917476869906506 0.0
      vertex 3.9559017604492577 0.0 0.5720702757183119
    endloop
  endfacet
  facet normal -0.024326399165260977 -0.9997040693643556 -0.0
    outer loop
      vertex 3.9559017604492577 0.0 0.5720702757183119
      vertex 1.452471264692974 0.060917476869906506 0.0
      vertex 3.9559017604492577 0.0 0.0
    endloop
  endfacet
  facet normal 0.15760728471390395 -0.9875018702792976 0.0
    outer loop
      vertex 3.9559017604492577 0.0 0.5720702757183119
      vertex 3.9559017604492577 0.0 0.0
      vertex 4.215789971396033 0.04147868119469044 0.0
    endloop
  endfacet
  facet normal 0.15760728471390395 -0.9875018702792976 0.0
    outer loop
      vertex 3.9559017604492577 0.0 0.5720702757183119
      vertex 4.215789971396033 0.04147868119469044 0.0
      vertex 4.215789971396033 0.04147868119469044 0.5720702757183119
    endloop
  endfacet
  facet normal 0.2084450654522192 -0.9780340764455091 0.0
    outer loop
      vertex 4.215789971396033 0.04147868119469044 0.5720702757183119
      vertex 4.215789971396033 0.04147868119469044 0.0
      vertex 4.4631842947332006 0.09420498916540916 0.0
    endloop
  endfacet
  facet normal 0.2084450654522192 -0.9780340764455091 0.0
    outer loop
      vertex 4.215789971396033 0.04147868119469044 0.5720702757183119
      vertex 4.4631842947332006 0.09420498916540916 0.0
      vertex 4.4631842947332006 0.09420498916540916 0.5720702757183119
    endloop
  endfacet
  facet normal 0.2991264233089777 -0.9542134891513421 0.0
    outer loop
      vertex 4.4631842947332006 0.09420498916540916 0.5720702757183119
      vertex 4.4631842947332006 0.09420498916540916 0.0
      vertex 4.698868530868278 0.16808717945816537 0.0
    endloop
  endfacet
  facet normal 0.2991264233089777 -0.9542134891513421 0.0
    outer loop
      vertex 4.4631842947332006 0.09420498916540916 0.5720702757183119
      vertex 4.698868530868278 0.16808717945816537 0.0
      vertex 4.698868530868278 0.16808717945816537 0.5720702757183119
    endloop
  endfacet
  facet normal 0.3963497652450359 -0.9180995935029082 0.0
    outer loop
      vertex 4.698868530868278 0.16808717945816537 0.5720702757183119
      vertex 4.698868530868278 0.16808717945816537 0.0
      vertex 4.940044825543286 0.27220460686317377 0.0
    endloop
  endfacet
  facet normal 0.3963497652450359 -0.9180995935029082 0.0
    outer loop
      vertex 4.698868530868278 0.16808717945816537 0.5720702757183119
      vertex 4.940044825543286 0.27220460686317377 0.0
      vertex 4.940044825543286 0.27220460686317377 0.5720702757183119
    endloop
  endfacet
  facet normal 0.4877895129989837 -0.8729612769236756 0.0
    outer loop
      vertex 4.940044825543286 0.27220460686317377 0.5720702757183119
      vertex 4.940044825543286 0.27220460686317377 0.0
      vertex 5.175132573201179 0.40356591803860364 0.0
    endloop
  endfacet
  facet normal 0.4877895129989837 -0.8729612769236756 0.0
    outer loop
      vertex 4.940044825543286 0.27220460686317377 0.5720702757183119
      vertex 5.175132573201179 0.40356591803860364 0.0
      vertex 5.175132573201179 0.40356591803860364 0.5720702757183119
    endloop
  endfacet
  facet normal 0.5727766065077314 -0.8197115096407317 0.0
    outer loop
      vertex 5.175132573201179 0.40356591803860364 0.5720702757183119
      vertex 5.175132573201179 0.40356591803860364 0.0
      vertex 5.401134055531622 0.5614853330919359 0.0
    endloop
  endfacet
  facet normal 0.5727766065077314 -0.8197115096407317 0.0
    outer loop
      vertex 5.175132573201179 0.40356591803860364 0.5720702757183119
      vertex 5.401134055531622 0.5614853330919359 0.0
      vertex 5.401134055531622 0.5614853330919359 0.5720702757183119
    endloop
  endfacet
  facet normal 0.6521336637850401 -0.7581040064254377 0.0
    outer loop
      vertex 5.401134055531622 0.5614853330919359 0.5720702757183119
      vertex 5.401134055531622 0.5614853330919359 0.0
      vertex 5.612527389570827 0.7433293917676508 0.0
    endloop
  endfacet
  facet normal 0.6521336637850401 -0.7581040064254377 0.0
    outer loop
      vertex 5.401134055531622 0.5614853330919359 0.5720702757183119
      vertex 5.612527389570827 0.7433293917676508 0.0
      vertex 5.612527389570827 0.7433293917676508 0.5720702757183119
    endloop
  endfacet
  facet normal 0.726038484984196 -0.6876540687888447 0.0
    outer loop
      vertex 5.612527389570827 0.7433293917676508 0.5720702757183119
      vertex 5.612527389570827 0.7433293917676508 0.0
      vertex 5.803703401358344 0.9451767278969901 0.0
    endloop
  endfacet
  facet normal 0.726038484984196 -0.6876540687888447 0.0
    outer loop
      vertex 5.612527389570827 0.7433293917676508 0.5720702757183119
      vertex 5.803703401358344 0.9451767278969901 0.0
      vertex 5.803703401358344 0.9451767278969901 0.5720702757183119
    endloop
  endfacet
  facet normal 0.7942021714716897 -0.6076536108916434 0.0
    outer loop
      vertex 5.803703401358344 0.9451767278969901 0.5720702757183119
      vertex 5.803703401358344 0.9451767278969901 0.0
      vertex 5.969567933814027 1.1619613721174775 0.0
    endloop
  endfacet
  facet normal 0.7942021714716897 -0.6076536108916434 0.0
    outer loop
      vertex 5.803703401358344 0.9451767278969901 0.5720702757183119
      vertex 5.969567933814027 1.1619613721174775 0.0
      vertex 5.969567933814027 1.1619613721174775 0.5720702757183119
    endloop
  endfacet
  facet normal 0.8543723624642484 -0.5196612995569894 0.0
    outer loop
      vertex 5.969567933814027 1.1619613721174775 0.5720702757183119
      vertex 5.969567933814027 1.1619613721174775 0.0
      vertex 6.10753644601173 1.388794664903604 0.0
    endloop
  endfacet
  facet normal 0.8543723624642484 -0.5196612995569894 0.0
    outer loop
      vertex 5.969567933814027 1.1619613721174775 0.5720702757183119
      vertex 6.10753644601173 1.388794664903604 0.0
      vertex 6.10753644601173 1.388794664903604 0.5720702757183119
    endloop
  endfacet
  facet normal 0.8981284383165462 -0.4397332239973254 0.0
    outer loop
      vertex 6.10753644601173 1.388794664903604 0.5720702757183119
      vertex 6.10753644601173 1.388794664903604 0.0
      vertex 6.224587853134515 1.6278650642841612 0.0
    endloop
  endfacet
  facet normal 0.8981284383165462 -0.4397332239973254 0.0
    outer loop
      vertex 6.10753644601173 1.388794664903604 0.5720702757183119
      vertex 6.224587853134515 1.6278650642841612 0.0
      vertex 6.224587853134515 1.6278650642841612 0.5720702757183119
    endloop
  endfacet
  facet normal 0.9289815538433689 -0.37012602261764854 0.0
    outer loop
      vertex 6.224587853134515 1.6278650642841612 0.5720702757183119
      vertex 6.224587853134515 1.6278650642841612 0.0
      vertex 6.357646974195003 1.9618309609849656 0.0
    endloop
  endfacet
  facet normal 0.9289815538433689 -0.37012602261764854 0.0
    outer loop
      vertex 6.224587853134515 1.6278650642841612 0.5720702757183119
      vertex 6.357646974195003 1.9618309609849656 0.0
      vertex 6.357646974195003 1.9618309609849656 0.5720702757183119
    endloop
  endfacet
  facet normal 0.9499387429995989 -0.31243620876643297 0.0
    outer loop
      vertex 6.357646974195003 1.9618309609849656 0.5720702757183119
      vertex 6.357646974195003 1.9618309609849656 0.0
      vertex 6.499354450749692 2.3926818623049186 0.0
    endloop
  endfacet
  facet normal 0.9499387429995989 -0.31243620876643297 0.0
    outer loop
      vertex 6.357646974195003 1.9618309609849656 0.5720702757183119
      vertex 6.499354450749692 2.3926818623049186 0.0
      vertex 6.499354450749692 2.3926818623049186 0.5720702757183119
    endloop
  endfacet
  facet normal 0.9675256222998174 -0.2527729617529353 0.0
    outer loop
      vertex 6.499354450749692 2.3926818623049186 0.5720702757183119
      vertex 6.499354450749692 2.3926818623049186 0.0
      vertex 6.599921680577995 2.777617699381123 0.0
    endloop
  endfacet
  facet normal 0.9675256222998174 -0.2527729617529353 0.0
    outer loop
      vertex 6.499354450749692 2.3926818623049186 0.5720702757183119
      vertex 6.599921680577995 2.777617699381123 0.0
      vertex 6.599921680577995 2.777617699381123 0.5720702757183119
    endloop
  endfacet
  facet normal 0.9817152257561191 -0.19035549773676666 0.0
    outer loop
      vertex 6.599921680577995 2.777617699381123 0.5720702757183119
      vertex 6.599921680577995 2.777617699381123 0.0
      vertex 6.671511209214696 3.1468244262839655 0.0
    endloop
  endfacet
  facet normal 0.9817152257561191 -0.19035549773676666 0.0
    outer loop
      vertex 6.599921680577995 2.777617699381123 0.5720702757183119
      vertex 6.671511209214696 3.1468244262839655 0.0
      vertex 6.671511209214696 3.1468244262839655 0.5720702757183119
    endloop
  endfacet
  facet normal 0.9923549956916404 -0.12341621662425223 0.0
    outer loop
      vertex 6.671511209214696 3.1468244262839655 0.5720702757183119
      vertex 6.671511209214696 3.1468244262839655 0.0
      vertex 6.715601891628228 3.501345170423547 0.0
    endloop
  endfacet
  facet normal 0.9923549956916404 -0.12341621662425223 0.0
    outer loop
      vertex 6.671511209214696 3.1468244262839655 0.5720702757183119
      vertex 6.715601891628228 3.501345170423547 0.0
      vertex 6.715601891628228 3.501345170423547 0.5720702757183119
    endloop
  endfacet
  facet normal 0.9985312082486187 -0.054179573213099096 0.0
    outer loop
      vertex 6.715601891628228 3.501345170423547 0.5720702757183119
      vertex 6.715601891628228 3.501345170423547 0.0
      vertex 6.7332601328278 3.8267871013003933 0.0
    endloop
  endfacet
  facet normal 0.9985312082486187 -0.054179573213099096 0.0
    outer loop
      vertex 6.715601891628228 3.501345170423547 0.5720702757183119
      vertex 6.7332601328278 3.8267871013003933 0.0
      vertex 6.7332601328278 3.8267871013003933 0.5720702757183119
    endloop
  endfacet
  facet normal 0.9999802027707902 0.006292381622977946 0.0
    outer loop
      vertex 6.7332601328278 3.8267871013003933 0.5720702757183119
      vertex 6.7332601328278 3.8267871013003933 0.0
      vertex 6.730307514865737 4.296014761877435 0.0
    endloop
  endfacet
  facet normal 0.9999802027707902 0.006292381622977946 0.0
    outer loop
      vertex 6.7332601328278 3.8267871013003933 0.5720702757183119
      vertex 6.730307514865737 4.296014761877435 0.0
      vertex 6.730307514865737 4.296014761877435 0.5720702757183119
    endloop
  endfacet
  facet normal 0.9996216202679438 0.027506659064507617 0.0
    outer loop
      vertex 6.730307514865737 4.296014761877435 0.5720702757183119
      vertex 6.730307514865737 4.296014761877435 0.0
      vertex 6.7079821150446834 5.107343840044098 0.0
    endloop
  endfacet
  facet normal 0.9996216202679438 0.027506659064507617 0.0
    outer loop
      vertex 6.730307514865737 4.296014761877435 0.5720702757183119
      vertex 6.7079821150446834 5.107343840044098 0.0
      vertex 6.7079821150446834 5.107343840044098 0.5720702757183119
    endloop
  endfacet
  facet normal 0.9987904455058629 0.04916956341274488 0.0
    outer loop
      vertex 6.7079821150446834 5.107343840044098 0.5720702757183119
      vertex 6.7079821150446834 5.107343840044098 0.0
      vertex 6.674273241834048 5.792078422878 0.0
    endloop
  endfacet
  facet normal 0.9987904455058629 0.04916956341274488 0.0
    outer loop
      vertex 6.7079821150446834 5.107343840044098 0.5720702757183119
      vertex 6.674273241834048 5.792078422878 0.0
      vertex 6.674273241834048 5.792078422878 0.5720702757183119
    endloop
  endfacet
  facet normal 0.9995431419058693 0.03022428607830077 0.0
    outer loop
      vertex 6.674273241834048 5.792078422878 0.5720702757183119
      vertex 6.674273241834048 5.792078422878 0.0
      vertex 6.655712993668978 6.405881796675021 0.0
    endloop
  endfacet
  facet normal 0.9995431419058693 0.03022428607830077 0.0
    outer loop
      vertex 6.674273241834048 5.792078422878 0.5720702757183119
      vertex 6.655712993668978 6.405881796675021 0.0
      vertex 6.655712993668978 6.405881796675021 0.5720702757183119
    endloop
  endfacet
  facet normal 0.9967713099115869 0.08029293703146778 0.0
    outer loop
      vertex 6.655712993668978 6.405881796675021 0.5720702757183119
      vertex 6.655712993668978 6.405881796675021 0.0
      vertex 6.630122183147826 6.723570832198416 0.0
    endloop
  endfacet
  facet normal 0.9967713099115869 0.08029293703146778 0.0
    outer loop
      vertex 6.655712993668978 6.405881796675021 0.5720702757183119
      vertex 6.630122183147826 6.723570832198416 0.0
      vertex 6.630122183147826 6.723570832198416 0.5720702757183119
    endloop
  endfacet
  facet normal 0.9880535219726627 0.15411112132943883 0.0
    outer loop
      vertex 6.630122183147826 6.723570832198416 0.5720702757183119
      vertex 6.630122183147826 6.723570832198416 0.0
      vertex 6.58797881738481 6.993764836438495 0.0
    endloop
  endfacet
  facet normal 0.9880535219726627 0.15411112132943883 0.0
    outer loop
      vertex 6.630122183147826 6.723570832198416 0.5720702757183119
      vertex 6.58797881738481 6.993764836438495 0.0
      vertex 6.58797881738481 6.993764836438495 0.5720702757183119
    endloop
  endfacet
  facet normal 0.9702081137717835 0.2422730194871029 0.0
    outer loop
      vertex 6.58797881738481 6.993764836438495 0.5720702757183119
      vertex 6.58797881738481 6.993764836438495 0.0
      vertex 6.527498522923181 7.235964618049353 0.0
    endloop
  endfacet
  facet normal 0.9702081137717835 0.2422730194871029 0.0
    outer loop
      vertex 6.58797881738481 6.993764836438495 0.5720702757183119
      vertex 6.527498522923181 7.235964618049353 0.0
      vertex 6.527498522923181 7.235964618049353 0.5720702757183119
    endloop
  endfacet
  facet normal 0.9390580089542833 0.3437587174441067 0.0
    outer loop
      vertex 6.527498522923181 7.235964618049353 0.5720702757183119
      vertex 6.527498522923181 7.235964618049353 0.0
      vertex 6.433574137940789 7.492541226810298 0.0
    endloop
  endfacet
  facet normal 0.9390580089542833 0.3437587174441067 0.0
    outer loop
      vertex 6.527498522923181 7.235964618049353 0.5720702757183119
      vertex 6.433574137940789 7.492541226810298 0.0
      vertex 6.433574137940789 7.492541226810298 0.5720702757183119
    endloop
  endfacet
  facet normal 0.8970693527748441 0.44188977846531163 0.0
    outer loop
      vertex 6.433574137940789 7.492541226810298 0.5720702757183119
      vertex 6.433574137940789 7.492541226810298 0.0
      vertex 6.315008959450907 7.733237421003668 0.0
    endloop
  endfacet
  facet normal 0.8970693527748441 0.44188977846531163 0.0
    outer loop
      vertex 6.433574137940789 7.492541226810298 0.5720702757183119
      vertex 6.315008959450907 7.733237421003668 0.0
      vertex 6.315008959450907 7.733237421003668 0.5720702757183119
    endloop
  endfacet
  facet normal 0.8487362970097363 0.5288163179575689 0.0
    outer loop
      vertex 6.315008959450907 7.733237421003668 0.5720702757183119
      vertex 6.315008959450907 7.733237421003668 0.0
      vertex 6.167848705304786 7.969425762644464 0.0
    endloop
  endfacet
  facet normal 0.8487362970097363 0.5288163179575689 0.0
    outer loop
      vertex 6.315008959450907 7.733237421003668 0.5720702757183119
      vertex 6.167848705304786 7.969425762644464 0.0
      vertex 6.167848705304786 7.969425762644464 0.5720702757183119
    endloop
  endfacet
  facet normal 0.7924835268330286 0.6098933182928669 0.0
    outer loop
      vertex 6.167848705304786 7.969425762644464 0.5720702757183119
      vertex 6.167848705304786 7.969425762644464 0.0
      vertex 5.994280742393761 8.19495660101791 0.0
    endloop
  endfacet
  facet normal 0.7924835268330286 0.6098933182928669 0.0
    outer loop
      vertex 6.167848705304786 7.969425762644464 0.5720702757183119
      vertex 5.994280742393761 8.19495660101791 0.0
      vertex 5.994280742393761 8.19495660101791 0.5720702757183119
    endloop
  endfacet
  facet normal 0.7273417686563238 0.6862754196151067 0.0
    outer loop
      vertex 5.994280742393761 8.19495660101791 0.5720702757183119
      vertex 5.994280742393761 8.19495660101791 0.0
      vertex 5.799354854874677 8.401546747965837 0.0
    endloop
  endfacet
  facet normal 0.7273417686563238 0.6862754196151067 0.0
    outer loop
      vertex 5.994280742393761 8.19495660101791 0.5720702757183119
      vertex 5.799354854874677 8.401546747965837 0.0
      vertex 5.799354854874677 8.401546747965837 0.5720702757183119
    endloop
  endfacet
  facet normal 0.6519999389471873 0.7582190182347472 0.0
    outer loop
      vertex 5.799354854874677 8.401546747965837 0.5720702757183119
      vertex 5.799354854874677 8.401546747965837 0.0
      vertex 5.589108670016593 8.582339495700515 0.0
    endloop
  endfacet
  facet normal 0.6519999389471873 0.7582190182347472 0.0
    outer loop
      vertex 5.799354854874677 8.401546747965837 0.5720702757183119
      vertex 5.589108670016593 8.582339495700515 0.0
      vertex 5.589108670016593 8.582339495700515 0.5720702757183119
    endloop
  endfacet
  facet normal 0.5662199390305329 0.8242541966191375 0.0
    outer loop
      vertex 5.589108670016593 8.582339495700515 0.5720702757183119
      vertex 5.589108670016593 8.582339495700515 0.0
      vertex 5.376205929160123 8.72859265090633 0.0
    endloop
  endfacet
  facet normal 0.5662199390305329 0.8242541966191375 0.0
    outer loop
      vertex 5.589108670016593 8.582339495700515 0.5720702757183119
      vertex 5.376205929160123 8.72859265090633 0.0
      vertex 5.376205929160123 8.72859265090633 0.5720702757183119
    endloop
  endfacet
  facet normal 0.4676562827934959 0.8839104033575857 0.0
    outer loop
      vertex 5.376205929160123 8.72859265090633 0.5720702757183119
      vertex 5.376205929160123 8.72859265090633 0.0
      vertex 5.153574606725771 8.8463816669509 0.0
    endloop
  endfacet
  facet normal 0.4676562827934959 0.8839104033575857 0.0
    outer loop
      vertex 5.376205929160123 8.72859265090633 0.5720702757183119
      vertex 5.153574606725771 8.8463816669509 0.0
      vertex 5.153574606725771 8.8463816669509 0.5720702757183119
    endloop
  endfacet
  facet normal 0.35381571936137374 0.9353151536956907 0.0
    outer loop
      vertex 5.153574606725771 8.8463816669509 0.5720702757183119
      vertex 5.153574606725771 8.8463816669509 0.0
      vertex 4.93180601030842 8.930273406717042 0.0
    endloop
  endfacet
  facet normal 0.35381571936137374 0.9353151536956907 0.0
    outer loop
      vertex 5.153574606725771 8.8463816669509 0.5720702757183119
      vertex 4.93180601030842 8.930273406717042 0.0
      vertex 4.93180601030842 8.930273406717042 0.5720702757183119
    endloop
  endfacet
  facet normal 0.2266073531485417 0.9739861947168513 0.0
    outer loop
      vertex 4.93180601030842 8.930273406717042 0.5720702757183119
      vertex 4.93180601030842 8.930273406717042 0.0
      vertex 4.714137908459225 8.980916005854962 0.0
    endloop
  endfacet
  facet normal 0.2266073531485417 0.9739861947168513 0.0
    outer loop
      vertex 4.93180601030842 8.930273406717042 0.5720702757183119
      vertex 4.714137908459225 8.980916005854962 0.0
      vertex 4.714137908459225 8.980916005854962 0.5720702757183119
    endloop
  endfacet
  facet normal 0.08969202835787114 0.9959695477518631 0.0
    outer loop
      vertex 4.714137908459225 8.980916005854962 0.5720702757183119
      vertex 4.714137908459225 8.980916005854962 0.0
      vertex 4.502223010714969 9.0 0.0
    endloop
  endfacet
  facet normal 0.08969202835787114 0.9959695477518631 0.0
    outer loop
      vertex 4.714137908459225 8.980916005854962 0.5720702757183119
      vertex 4.502223010714969 9.0 0.0
      vertex 4.502223010714969 9.0 0.5720702757183119
    endloop
  endfacet
  facet normal -0.03048875851254907 0.9995351097407051 0.0
    outer loop
      vertex 4.502223010714969 9.0 0.5720702757183119
      vertex 4.502223010714969 9.0 0.0
      vertex 4.289739994067445 8.99351864349791 0.0
    endloop
  endfacet
  facet normal -0.03048875851254907 0.9995351097407051 0.0
    outer loop
      vertex 4.502223010714969 9.0 0.5720702757183119
      vertex 4.289739994067445 8.99351864349791 0.0
      vertex 4.289739994067445 8.99351864349791 0.5720702757183119
    endloop
  endfacet
  facet normal -0.13632078320031824 0.9906647485742348 0.0
    outer loop
      vertex 4.289739994067445 8.99351864349791 0.5720702757183119
      vertex 4.289739994067445 8.99351864349791 0.0
      vertex 4.047584585379889 8.960196760372474 0.0
    endloop
  endfacet
  facet normal -0.13632078320031824 0.9906647485742348 0.0
    outer loop
      vertex 4.289739994067445 8.99351864349791 0.5720702757183119
      vertex 4.047584585379889 8.960196760372474 0.0
      vertex 4.047584585379889 8.960196760372474 0.5720702757183119
    endloop
  endfacet
  facet normal -0.24300478335286843 0.9700250900196477 0.0
    outer loop
      vertex 4.047584585379889 8.960196760372474 0.5720702757183119
      vertex 4.047584585379889 8.960196760372474 0.0
      vertex 3.7979334260665465 8.89765567096467 0.0
    endloop
  endfacet
  facet normal -0.24300478335286843 0.9700250900196477 0.0
    outer loop
      vertex 4.047584585379889 8.960196760372474 0.5720702757183119
      vertex 3.7979334260665465 8.89765567096467 0.0
      vertex 3.7979334260665465 8.89765567096467 0.5720702757183119
    endloop
  endfacet
  facet normal -0.341635981829852 0.9398323552204153 0.0
    outer loop
      vertex 3.7979334260665465 8.89765567096467 0.5720702757183119
      vertex 3.7979334260665465 8.89765567096467 0.0
      vertex 3.5800645549250305 8.818458731968953 0.0
    endloop
  endfacet
  facet normal -0.341635981829852 0.9398323552204153 0.0
    outer loop
      vertex 3.7979334260665465 8.89765567096467 0.5720702757183119
      vertex 3.5800645549250305 8.818458731968953 0.0
      vertex 3.5800645549250305 8.818458731968953 0.5720702757183119
    endloop
  endfacet
  facet normal -0.4384592081020366 0.8987510905865622 0.0
    outer loop
      vertex 3.5800645549250305 8.818458731968953 0.5720702757183119
      vertex 3.5800645549250305 8.818458731968953 0.0
      vertex 3.3468997551810844 8.704708379369904 0.0
    endloop
  endfacet
  facet normal -0.4384592081020366 0.8987510905865622 0.0
    outer loop
      vertex 3.5800645549250305 8.818458731968953 0.5720702757183119
      vertex 3.3468997551810844 8.704708379369904 0.0
      vertex 3.3468997551810844 8.704708379369904 0.5720702757183119
    endloop
  endfacet
  facet normal -0.5391732008592434 0.8421949058710804 0.0
    outer loop
      vertex 3.3468997551810844 8.704708379369904 0.5720702757183119
      vertex 3.3468997551810844 8.704708379369904 0.0
      vertex 3.1336467592005115 8.568183805741969 0.0
    endloop
  endfacet
  facet normal -0.5391732008592434 0.8421949058710804 0.0
    outer loop
      vertex 3.3468997551810844 8.704708379369904 0.5720702757183119
      vertex 3.1336467592005115 8.568183805741969 0.0
      vertex 3.1336467592005115 8.568183805741969 0.5720702757183119
    endloop
  endfacet
  facet normal -0.6370585956453558 0.7708153771911709 0.0
    outer loop
      vertex 3.1336467592005115 8.568183805741969 0.5720702757183119
      vertex 3.1336467592005115 8.568183805741969 0.0
      vertex 2.9458172659974893 8.412947679554751 0.0
    endloop
  endfacet
  facet normal -0.6370585956453558 0.7708153771911709 0.0
    outer loop
      vertex 3.1336467592005115 8.568183805741969 0.5720702757183119
      vertex 2.9458172659974893 8.412947679554751 0.0
      vertex 2.9458172659974893 8.412947679554751 0.5720702757183119
    endloop
  endfacet
  facet normal -0.7298883673550302 0.6835663619574978 0.0
    outer loop
      vertex 2.9458172659974893 8.412947679554751 0.5720702757183119
      vertex 2.9458172659974893 8.412947679554751 0.0
      vertex 2.786495921166531 8.242829893286757 0.0
    endloop
  endfacet
  facet normal -0.7298883673550302 0.6835663619574978 0.0
    outer loop
      vertex 2.9458172659974893 8.412947679554751 0.5720702757183119
      vertex 2.786495921166531 8.242829893286757 0.0
      vertex 2.786495921166531 8.242829893286757 0.5720702757183119
    endloop
  endfacet
  facet normal -0.8143339212060567 0.5803966443503682 0.0
    outer loop
      vertex 2.786495921166531 8.242829893286757 0.5720702757183119
      vertex 2.786495921166531 8.242829893286757 0.0
      vertex 2.656890613873934 8.060985289042312 0.0
    endloop
  endfacet
  facet normal -0.8143339212060567 0.5803966443503682 0.0
    outer loop
      vertex 2.786495921166531 8.242829893286757 0.5720702757183119
      vertex 2.656890613873934 8.060985289042312 0.0
      vertex 2.656890613873934 8.060985289042312 0.5720702757183119
    endloop
  endfacet
  facet normal -0.8864521868175107 0.4628201815894086 0.0
    outer loop
      vertex 2.656890613873934 8.060985289042312 0.5720702757183119
      vertex 2.656890613873934 8.060985289042312 0.0
      vertex 2.556994069869977 7.869650698610861 0.0
    endloop
  endfacet
  facet normal -0.8864521868175107 0.4628201815894086 0.0
    outer loop
      vertex 2.656890613873934 8.060985289042312 0.5720702757183119
      vertex 2.556994069869977 7.869650698610861 0.0
      vertex 2.556994069869977 7.869650698610861 0.5720702757183119
    endloop
  endfacet
  facet normal -0.9404519207366896 0.3399267344335704 0.0
    outer loop
      vertex 2.556994069869977 7.869650698610861 0.5720702757183119
      vertex 2.556994069869977 7.869650698610861 0.0
      vertex 2.4912988657828183 7.687896295062966 0.0
    endloop
  endfacet
  facet normal -0.9404519207366896 0.3399267344335704 0.0
    outer loop
      vertex 2.556994069869977 7.869650698610861 0.5720702757183119
      vertex 2.4912988657828183 7.687896295062966 0.0
      vertex 2.4912988657828183 7.687896295062966 0.5720702757183119
    endloop
  endfacet
  facet normal -0.9658725540547886 0.2590177780069919 0.0
    outer loop
      vertex 2.4912988657828183 7.687896295062966 0.5720702757183119
      vertex 2.4912988657828183 7.687896295062966 0.0
      vertex 2.475240232097061 7.628013943928466 0.0
    endloop
  endfacet
  facet normal -0.9658725540547886 0.2590177780069919 0.0
    outer loop
      vertex 2.4912988657828183 7.687896295062966 0.5720702757183119
      vertex 2.475240232097061 7.628013943928466 0.0
      vertex 2.475240232097061 7.628013943928466 0.5720702757183119
    endloop
  endfacet
  facet normal -0.9721680678916266 0.2342845444579347 0.0
    outer loop
      vertex 1.5384405301796495 3.7407461844539585 0.5720702757183119
      vertex 2.475240232097061 7.628013943928466 0.5720702757183119
      vertex 1.5384405301796495 3.7407461844539585 0.0
    endloop
  endfacet
  facet normal -0.9721680678916266 0.2342845444579347 0.0
    outer loop
      vertex 1.5384405301796495 3.7407461844539585 0.0
      vertex 2.475240232097061 7.628013943928466 0.5720702757183119
      vertex 2.475240232097061 7.628013943928466 0.0
    endloop
  endfacet
  facet normal -0.7642879272853527 0.6448751539684713 0.0
    outer loop
      vertex 1.5384405301796495 3.7407461844539585 0.5720702757183119
      vertex 1.5384405301796495 3.7407461844539585 0.0
      vertex 1.3728575111882002 3.5445018391728045 0.0
    endloop
  endfacet
  facet normal -0.09913969888268133 0.9950735249746379 0.0
    outer loop
      vertex 0.2555027476457699 2.9562172608246895 0.0
      vertex 0.0 2.9307613876358767 0.0
      vertex 0.0 2.9307613876358767 0.19069009190610398
    endloop
  endfacet
  facet normal -0.7642879272853527 0.6448751539684713 0.0
    outer loop
      vertex 1.5384405301796495 3.7407461844539585 0.5720702757183119
      vertex 1.3728575111882002 3.5445018391728045 0.0
      vertex 1.3728575111882002 3.5445018391728045 0.5720702757183119
    endloop
  endfacet
  facet normal -0.6753927456355462 0.7374582287444345 0.0
    outer loop
      vertex 1.3728575111882002 3.5445018391728045 0.5720702757183119
      vertex 1.3728575111882002 3.5445018391728045 0.0
      vertex 1.183501880393553 3.371082634668589 0.0
    endloop
  endfacet
  facet normal -0.6753927456355462 0.7374582287444345 0.0
    outer loop
      vertex 1.3728575111882002 3.5445018391728045 0.5720702757183119
      vertex 1.183501880393553 3.371082634668589 0.0
      vertex 1.183501880393553 3.371082634668589 0.5720702757183119
    endloop
  endfacet
  facet normal -0.575372873569118 0.8178912252621467 0.0
    outer loop
      vertex 1.183501880393553 3.371082634668589 0.5720702757183119
      vertex 1.183501880393553 3.371082634668589 0.0
      vertex 0.9734939272138572 3.223345532519533 0.0
    endloop
  endfacet
  facet normal -0.575372873569118 0.8178912252621467 0.0
    outer loop
      vertex 1.183501880393553 3.371082634668589 0.5720702757183119
      vertex 0.9734939272138572 3.223345532519533 0.0
      vertex 0.9734939272138572 3.223345532519533 0.5720702757183119
    endloop
  endfacet
  facet normal -0.46587200521472677 0.8848521202761565 0.0
    outer loop
      vertex 0.9734939272138572 3.223345532519533 0.5720702757183119
      vertex 0.9734939272138572 3.223345532519533 0.0
      vertex 0.7462921936793235 3.103724496682538 0.0
    endloop
  endfacet
  facet normal -0.46587200521472677 0.8848521202761565 0.0
    outer loop
      vertex 0.9734939272138572 3.223345532519533 0.5720702757183119
      vertex 0.7462921936793235 3.103724496682538 0.0
      vertex 0.7462921936793235 3.103724496682538 0.5720702757183119
    endloop
  endfacet
  facet normal -0.34869829442764194 0.937235028935247 0.0
    outer loop
      vertex 0.7462921936793235 3.103724496682538 0.5720702757183119
      vertex 0.7462921936793235 3.103724496682538 0.0
      vertex 0.5056407361217419 3.0141901214072275 0.0
    endloop
  endfacet
  facet normal -0.34869829442764194 0.937235028935247 0.0
    outer loop
      vertex 0.7462921936793235 3.103724496682538 0.5720702757183119
      vertex 0.5056407361217419 3.0141901214072275 0.0
      vertex 0.5056407361217419 3.0141901214072275 0.5720702757183119
    endloop
  endfacet
  facet normal -0.2257790464344401 0.9741785371230239 0.0
    outer loop
      vertex 0.5056407361217419 3.0141901214072275 0.5720702757183119
      vertex 0.5056407361217419 3.0141901214072275 0.0
      vertex 0.2555027476457699 2.9562172608246895 0.0
    endloop
  endfacet
  facet normal -0.2257790464344401 0.9741785371230239 0.0
    outer loop
      vertex 0.5056407361217419 3.0141901214072275 0.5720702757183119
      vertex 0.2555027476457699 2.9562172608246895 0.0
      vertex 0.2555027476457699 2.9562172608246895 0.5720702757183119
    endloop
  endfacet
  facet normal -0.09913969888268132 0.9950735249746377 0.0
    outer loop
      vertex 0.2555027476457699 2.9562172608246895 0.5720702757183119
      vertex 0.2555027476457699 2.9562172608246895 0.0
      vertex 0.0 2.9307613876358767 0.19069009190610398
    endloop
  endfacet
  facet normal -0.09913969888268133 0.9950735249746379 0.0
    outer loop
      vertex 0.2555027476457699 2.9562172608246895 0.5720702757183119
      vertex 0.0 2.9307613876358767 0.19069009190610398
      vertex 0.0 2.9307613876358767 0.5720702757183119
    endloop
  endfacet
  facet normal 0.0 0.0 -1.0
    outer loop
      vertex 3.2124799857101403 2.430849850594993 0.0
      vertex 6.674273241834048 5.792078422878 0.0
      vertex 6.7079821150446834 5.107343840044098 0.0
    endloop
  endfacet
  facet normal -0.0 0.0 -1.0
    outer loop
      vertex 3.2124799857101403 2.430849850594993 0.0
      vertex 1.4505795960528305 2.4294426469863186 0.0
      vertex 1.4503599137112333 2.704443475442537 0.0
    endloop
  endfacet
  facet normal 0.0 0.0 -1.0
    outer loop
      vertex 1.452471264692974 0.060917476869906506 0.0
      vertex 1.4509145752525174 2.0099246630203815 0.0
      vertex 3.9559017604492577 0.0 0.0
    endloop
  endfacet
  facet normal 0.0 0.0 -1.0
    outer loop
      vertex 3.9559017604492577 0.0 0.0
      vertex 1.4509145752525174 2.0099246630203815 0.0
      vertex 3.2128153286223133 2.01133150291657 0.0
    endloop
  endfacet
  facet normal 0.0 0.0 -1.0
    outer loop
      vertex 3.9559017604492577 0.0 0.0
      vertex 3.2128153286223133 2.01133150291657 0.0
      vertex 4.215789971396033 0.04147868119469044 0.0
    endloop
  endfacet
  facet normal 0.0 0.0 -1.0
    outer loop
      vertex 4.215789971396033 0.04147868119469044 0.0
      vertex 3.2128153286223133 2.01133150291657 0.0
      vertex 4.4631842947332006 0.09420498916540916 0.0
    endloop
  endfacet
  facet normal -0.0 0.0 -1.0
    outer loop
      vertex 6.674273241834048 5.792078422878 0.0
      vertex 3.2124799857101403 2.430849850594993 0.0
      vertex 6.655712993668978 6.405881796675021 0.0
    endloop
  endfacet
  facet normal 0.0 0.0 -1.0
    outer loop
      vertex 6.655712993668978 6.405881796675021 0.0
      vertex 3.2124799857101403 2.430849850594993 0.0
      vertex 1.4503599137112333 2.704443475442537 0.0
    endloop
  endfacet
  facet normal -0.0 0.0 -1.0
    outer loop
      vertex 6.655712993668978 6.405881796675021 0.0
      vertex 1.4503599137112333 2.704443475442537 0.0
      vertex 6.630122183147826 6.723570832198416 0.0
    endloop
  endfacet
  facet normal -0.0 0.0 -1.0
    outer loop
      vertex 6.630122183147826 6.723570832198416 0.0
      vertex 1.4503599137112333 2.704443475442537 0.0
      vertex 6.527498522923181 7.235964618049353 0.0
    endloop
  endfacet
  facet normal 0.0 0.0 -1.0
    outer loop
      vertex 6.630122183147826 6.723570832198416 0.0
      vertex 6.527498522923181 7.235964618049353 0.0
      vertex 6.58797881738481 6.993764836438495 0.0
    endloop
  endfacet
  facet normal 0.0 0.0 -1.0
    outer loop
      vertex 0.7239875254699771 2.8098604475603377 0.0
      vertex 0.0 2.9307613876358767 0.0
      vertex 0.2555027476457699 2.9562172608246895 0.0
    endloop
  endfacet
  facet normal 0.0 -0.0 -1.0
    outer loop
      vertex 6.7079821150446834 5.107343840044098 0.0
      vertex 6.730307514865737 4.296014761877435 0.0
      vertex 3.2124799857101403 2.430849850594993 0.0
    endloop
  endfacet
  facet normal 0.0 0.0 -1.0
    outer loop
      vertex 3.2124799857101403 2.430849850594993 0.0
      vertex 6.730307514865737 4.296014761877435 0.0
      vertex 6.7332601328278 3.8267871013003933 0.0
    endloop
  endfacet
  facet normal 0.0 0.0 -1.0
    outer loop
      vertex 3.2124799857101403 2.430849850594993 0.0
      vertex 6.7332601328278 3.8267871013003933 0.0
      vertex 6.499354450749692 2.3926818623049186 0.0
    endloop
  endfacet
  facet normal 0.0 0.0 -1.0
    outer loop
      vertex 6.499354450749692 2.3926818623049186 0.0
      vertex 6.7332601328278 3.8267871013003933 0.0
      vertex 6.599921680577995 2.777617699381123 0.0
    endloop
  endfacet
  facet normal 0.0 0.0 -1.0
    outer loop
      vertex 6.599921680577995 2.777617699381123 0.0
      vertex 6.7332601328278 3.8267871013003933 0.0
      vertex 6.715601891628228 3.501345170423547 0.0
    endloop
  endfacet
  facet normal 0.0 0.0 -1.0
    outer loop
      vertex 6.599921680577995 2.777617699381123 0.0
      vertex 6.715601891628228 3.501345170423547 0.0
      vertex 6.671511209214696 3.1468244262839655 0.0
    endloop
  endfacet
  facet normal 0.0 0.0 -1.0
    outer loop
      vertex 6.527498522923181 7.235964618049353 0.0
      vertex 2.475240232097061 7.628013943928466 0.0
      vertex 2.4912988657828183 7.687896295062966 0.0
    endloop
  endfacet
  facet normal -0.0 0.0 -1.0
    outer loop
      vertex 6.499354450749692 2.3926818623049186 0.0
      vertex 6.357646974195003 1.9618309609849656 0.0
      vertex 3.2124799857101403 2.430849850594993 0.0
    endloop
  endfacet
  facet normal 0.0 0.0 -1.0
    outer loop
      vertex 3.2124799857101403 2.430849850594993 0.0
      vertex 6.357646974195003 1.9618309609849656 0.0
      vertex 6.224587853134515 1.6278650642841612 0.0
    endloop
  endfacet
  facet normal 0.0 0.0 -1.0
    outer loop
      vertex 3.2124799857101403 2.430849850594993 0.0
      vertex 6.224587853134515 1.6278650642841612 0.0
      vertex 6.10753644601173 1.388794664903604 0.0
    endloop
  endfacet
  facet normal 0.0 -0.0 -1.0
    outer loop
      vertex 4.047584585379889 8.960196760372474 0.0
      vertex 4.289739994067445 8.99351864349791 0.0
      vertex 3.7979334260665465 8.89765567096467 0.0
    endloop
  endfacet
  facet normal 0.0 0.0 -1.0
    outer loop
      vertex 3.7979334260665465 8.89765567096467 0.0
      vertex 4.289739994067445 8.99351864349791 0.0
      vertex 4.502223010714969 9.0 0.0
    endloop
  endfacet
  facet normal 0.0 -0.0 -1.0
    outer loop
      vertex 3.7979334260665465 8.89765567096467 0.0
      vertex 4.502223010714969 9.0 0.0
      vertex 3.5800645549250305 8.818458731968953 0.0
    endloop
  endfacet
  facet normal 0.0 0.0 -1.0
    outer loop
      vertex 3.5800645549250305 8.818458731968953 0.0
      vertex 4.502223010714969 9.0 0.0
      vertex 4.714137908459225 8.980916005854962 0.0
    endloop
  endfacet
  facet normal 0.0 -0.0 -1.0
    outer loop
      vertex 3.5800645549250305 8.818458731968953 0.0
      vertex 4.714137908459225 8.980916005854962 0.0
      vertex 3.3468997551810844 8.704708379369904 0.0
    endloop
  endfacet
  facet normal 0.0 0.0 -1.0
    outer loop
      vertex 3.3468997551810844 8.704708379369904 0.0
      vertex 4.714137908459225 8.980916005854962 0.0
      vertex 4.93180601030842 8.930273406717042 0.0
    endloop
  endfacet
  facet normal 0.0 -0.0 -1.0
    outer loop
      vertex 3.3468997551810844 8.704708379369904 0.0
      vertex 4.93180601030842 8.930273406717042 0.0
      vertex 3.1336467592005115 8.568183805741969 0.0
    endloop
  endfacet
  facet normal 0.0 0.0 -1.0
    outer loop
      vertex 3.1336467592005115 8.568183805741969 0.0
      vertex 4.93180601030842 8.930273406717042 0.0
      vertex 5.153574606725771 8.8463816669509 0.0
    endloop
  endfacet
  facet normal 0.0 -0.0 -1.0
    outer loop
      vertex 3.1336467592005115 8.568183805741969 0.0
      vertex 5.153574606725771 8.8463816669509 0.0
      vertex 2.9458172659974893 8.412947679554751 0.0
    endloop
  endfacet
  facet normal 0.0 0.0 -1.0
    outer loop
      vertex 2.9458172659974893 8.412947679554751 0.0
      vertex 5.153574606725771 8.8463816669509 0.0
      vertex 5.376205929160123 8.72859265090633 0.0
    endloop
  endfacet
  facet normal 0.0 -0.0 -1.0
    outer loop
      vertex 2.9458172659974893 8.412947679554751 0.0
      vertex 5.376205929160123 8.72859265090633 0.0
      vertex 2.786495921166531 8.242829893286757 0.0
    endloop
  endfacet
  facet normal 0.0 0.0 -1.0
    outer loop
      vertex 2.786495921166531 8.242829893286757 0.0
      vertex 5.376205929160123 8.72859265090633 0.0
      vertex 5.589108670016593 8.582339495700515 0.0
    endloop
  endfacet
  facet normal 0.0 -0.0 -1.0
    outer loop
      vertex 2.786495921166531 8.242829893286757 0.0
      vertex 5.589108670016593 8.582339495700515 0.0
      vertex 2.656890613873934 8.060985289042312 0.0
    endloop
  endfacet
  facet normal 0.0 0.0 -1.0
    outer loop
      vertex 2.656890613873934 8.060985289042312 0.0
      vertex 5.589108670016593 8.582339495700515 0.0
      vertex 5.799354854874677 8.401546747965837 0.0
    endloop
  endfacet
  facet normal 0.0 -0.0 -1.0
    outer loop
      vertex 2.656890613873934 8.060985289042312 0.0
      vertex 5.799354854874677 8.401546747965837 0.0
      vertex 2.556994069869977 7.869650698610861 0.0
    endloop
  endfacet
  facet normal 0.0 0.0 -1.0
    outer loop
      vertex 2.556994069869977 7.869650698610861 0.0
      vertex 5.799354854874677 8.401546747965837 0.0
      vertex 5.994280742393761 8.19495660101791 0.0
    endloop
  endfacet
  facet normal 0.0 -0.0 -1.0
    outer loop
      vertex 2.556994069869977 7.869650698610861 0.0
      vertex 5.994280742393761 8.19495660101791 0.0
      vertex 2.4912988657828183 7.687896295062966 0.0
    endloop
  endfacet
  facet normal -0.0 0.0 -1.0
    outer loop
      vertex 4.698868530868278 0.16808717945816537 0.0
      vertex 4.4631842947332006 0.09420498916540916 0.0
      vertex 4.940044825543286 0.27220460686317377 0.0
    endloop
  endfacet
  facet normal -0.0 0.0 -1.0
    outer loop
      vertex 4.940044825543286 0.27220460686317377 0.0
      vertex 4.4631842947332006 0.09420498916540916 0.0
      vertex 3.2128153286223133 2.01133150291657 0.0
    endloop
  endfacet
  facet normal 0.0 0.0 -1.0
    outer loop
      vertex 4.940044825543286 0.27220460686317377 0.0
      vertex 3.2128153286223133 2.01133150291657 0.0
      vertex 5.175132573201179 0.40356591803860364 0.0
    endloop
  endfacet
  facet normal 0.0 0.0 -1.0
    outer loop
      vertex 5.175132573201179 0.40356591803860364 0.0
      vertex 3.2128153286223133 2.01133150291657 0.0
      vertex 3.2124799857101403 2.430849850594993 0.0
    endloop
  endfacet
  facet normal 0.0 0.0 -1.0
    outer loop
      vertex 5.175132573201179 0.40356591803860364 0.0
      vertex 3.2124799857101403 2.430849850594993 0.0
      vertex 5.401134055531622 0.5614853330919359 0.0
    endloop
  endfacet
  facet normal 0.0 0.0 -1.0
    outer loop
      vertex 5.401134055531622 0.5614853330919359 0.0
      vertex 3.2124799857101403 2.430849850594993 0.0
      vertex 6.10753644601173 1.388794664903604 0.0
    endloop
  endfacet
  facet normal 0.0 0.0 -1.0
    outer loop
      vertex 5.401134055531622 0.5614853330919359 0.0
      vertex 6.10753644601173 1.388794664903604 0.0
      vertex 5.612527389570827 0.7433293917676508 0.0
    endloop
  endfacet
  facet normal 0.0 0.0 -1.0
    outer loop
      vertex 5.612527389570827 0.7433293917676508 0.0
      vertex 6.10753644601173 1.388794664903604 0.0
      vertex 5.969567933814027 1.1619613721174775 0.0
    endloop
  endfacet
  facet normal 0.0 0.0 -1.0
    outer loop
      vertex 5.612527389570827 0.7433293917676508 0.0
      vertex 5.969567933814027 1.1619613721174775 0.0
      vertex 5.803703401358344 0.9451767278969901 0.0
    endloop
  endfacet
  facet normal 0.0 0.0 -1.0
    outer loop
      vertex 0.2555027476457699 2.9562172608246895 0.0
      vertex 0.5056407361217419 3.0141901214072275 0.0
      vertex 0.7239875254699771 2.8098604475603377 0.0
    endloop
  endfacet
  facet normal 0.0 0.0 -1.0
    outer loop
      vertex 0.7239875254699771 2.8098604475603377 0.0
      vertex 0.5056407361217419 3.0141901214072275 0.0
      vertex 0.7462921936793235 3.103724496682538 0.0
    endloop
  endfacet
  facet normal 0.0 0.0 -1.0
    outer loop
      vertex 0.7239875254699771 2.8098604475603377 0.0
      vertex 0.7462921936793235 3.103724496682538 0.0
      vertex 1.4503599137112333 2.704443475442537 0.0
    endloop
  endfacet
  facet normal 0.0 0.0 -1.0
    outer loop
      vertex 1.4503599137112333 2.704443475442537 0.0
      vertex 0.7462921936793235 3.103724496682538 0.0
      vertex 0.9734939272138572 3.223345532519533 0.0
    endloop
  endfacet
  facet normal 0.0 0.0 -1.0
    outer loop
      vertex 0.9734939272138572 3.223345532519533 0.0
      vertex 1.183501880393553 3.371082634668589 0.0
      vertex 1.4503599137112333 2.704443475442537 0.0
    endloop
  endfacet
  facet normal 0.0 0.0 -1.0
    outer loop
      vertex 1.4503599137112333 2.704443475442537 0.0
      vertex 1.183501880393553 3.371082634668589 0.0
      vertex 1.3728575111882002 3.5445018391728045 0.0
    endloop
  endfacet
  facet normal 0.0 0.0 -1.0
    outer loop
      vertex 1.4503599137112333 2.704443475442537 0.0
      vertex 1.3728575111882002 3.5445018391728045 0.0
      vertex 6.527498522923181 7.235964618049353 0.0
    endloop
  endfacet
  facet normal 0.0 0.0 -1.0
    outer loop
      vertex 6.527498522923181 7.235964618049353 0.0
      vertex 1.3728575111882002 3.5445018391728045 0.0
      vertex 1.5384405301796495 3.7407461844539585 0.0
    endloop
  endfacet
  facet normal -0.0 0.0 -1.0
    outer loop
      vertex 6.527498522923181 7.235964618049353 0.0
      vertex 1.5384405301796495 3.7407461844539585 0.0
      vertex 2.475240232097061 7.628013943928466 0.0
    endloop
  endfacet
  facet normal -0.0 -0.0 -1.0
    outer loop
      vertex 6.433574137940789 7.492541226810298 0.0
      vertex 6.527498522923181 7.235964618049353 0.0
      vertex 6.315008959450907 7.733237421003668 0.0
    endloop
  endfacet
  facet normal 0.0 -0.0 -1.0
    outer loop
      vertex 6.315008959450907 7.733237421003668 0.0
      vertex 6.527498522923181 7.235964618049353 0.0
      vertex 2.4912988657828183 7.687896295062966 0.0
    endloop
  endfacet
  facet normal -0.0 0.0 -1.0
    outer loop
      vertex 6.315008959450907 7.733237421003668 0.0
      vertex 2.4912988657828183 7.687896295062966 0.0
      vertex 6.167848705304786 7.969425762644464 0.0
    endloop
  endfacet
  facet normal -0.0 0.0 -1.0
    outer loop
      vertex 6.167848705304786 7.969425762644464 0.0
      vertex 2.4912988657828183 7.687896295062966 0.0
      vertex 5.994280742393761 8.19495660101791 0.0
    endloop
  endfacet
  facet normal -0.0007984782599246263 0.9999996812161834 0.0
    outer loop
      vertex 1.4509145752525174 2.0099246630203815 0.0
      vertex 1.4509145752525174 2.0099246630203815 0.5720702757183119
      vertex 3.2128153286223133 2.01133150291657 0.0
    endloop
  endfacet
  facet normal -0.0007984782599246263 0.9999996812161834 0.0
    outer loop
      vertex 3.2128153286223133 2.01133150291657 0.0
      vertex 1.4509145752525174 2.0099246630203815 0.5720702757183119
      vertex 3.2128153286223133 2.01133150291657 0.5720702757183119
    endloop
  endfacet
  facet normal -0.9999996810321768 -0.0007987086733104471 0.0
    outer loop
      vertex 1.452471264692974 0.060917476869906506 0.0
      vertex 1.452471264692974 0.060917476869906506 0.5720702757183119
      vertex 1.4509145752525174 2.0099246630203815 0.0
    endloop
  endfacet
  facet normal -0.9999996810321768 -0.0007987086733104471 0.0
    outer loop
      vertex 1.4509145752525174 2.0099246630203815 0.0
      vertex 1.452471264692974 0.060917476869906506 0.5720702757183119
      vertex 1.4509145752525174 2.0099246630203815 0.5720702757183119
    endloop
  endfacet
  facet normal -0.14362337404282297 -0.9896324198552486 0.0
    outer loop
      vertex 1.4503599137112333 2.704443475442537 0.0
      vertex 1.4503599137112333 2.704443475442537 0.19069009190610398
      vertex 0.7239875254699771 2.8098604475603377 0.19069009190610398
    endloop
  endfacet
  facet normal -0.14362337404282297 -0.9896324198552486 0.0
    outer loop
      vertex 1.4503599137112333 2.704443475442537 0.0
      vertex 0.7239875254699771 2.8098604475603377 0.19069009190610398
      vertex 0.7239875254699771 2.8098604475603377 0.0
    endloop
  endfacet
  facet normal -0.16471227675465897 -0.9863416577871467 0.0
    outer loop
      vertex 0.7239875254699771 2.8098604475603377 0.0
      vertex 0.7239875254699771 2.8098604475603377 0.19069009190610398
      vertex 0.0 2.9307613876358767 0.19069009190610398
    endloop
  endfacet
  facet normal -0.16471227675465897 -0.9863416577871467 0.0
    outer loop
      vertex 0.7239875254699771 2.8098604475603377 0.0
      vertex 0.0 2.9307613876358767 0.19069009190610398
      vertex 0.0 2.9307613876358767 0.0
    endloop
  endfacet
  facet normal -0.9999996809255052 -0.000798842217077671 0.0
    outer loop
      vertex 1.4503599137112333 2.704443475442537 0.0
      vertex 1.4505795960528305 2.4294426469863186 0.0
      vertex 1.4503599137112333 2.704443475442537 0.19069009190610398
    endloop
  endfacet
  facet normal -0.9999996809255052 -0.0007988422170776711 0.0
    outer loop
      vertex 1.4503599137112333 2.704443475442537 0.19069009190610398
      vertex 1.4505795960528305 2.4294426469863186 0.0
      vertex 1.4505795960528305 2.4294426469863186 0.5720702757183119
    endloop
  endfacet
  facet normal -0.9999996809255052 -0.000798842217077671 0.0
    outer loop
      vertex 1.4503599137112333 2.704443475442537 0.19069009190610398
      vertex 1.4505795960528305 2.4294426469863186 0.5720702757183119
      vertex 1.4503599137112333 2.704443475442537 0.5720702757183119
    endloop
  endfacet
  facet normal 0.0007986848564816421 -0.9999996810511991 0.0
    outer loop
      vertex 3.2124799857101403 2.430849850594993 0.0
      vertex 3.2124799857101403 2.430849850594993 0.5720702757183119
      vertex 1.4505795960528305 2.4294426469863186 0.0
    endloop
  endfacet
  facet normal 0.0007986848564816421 -0.9999996810511991 0.0
    outer loop
      vertex 1.4505795960528305 2.4294426469863186 0.0
      vertex 3.2124799857101403 2.430849850594993 0.5720702757183119
      vertex 1.4505795960528305 2.4294426469863186 0.5720702757183119
    endloop
  endfacet
  facet normal -0.9999996805181871 -0.0007993519398921909 0.0
    outer loop
      vertex 3.2128153286223133 2.01133150291657 0.0
      vertex 3.2128153286223133 2.01133150291657 0.5720702757183119
      vertex 3.2124799857101403 2.430849850594993 0.0
    endloop
  endfacet
  facet normal -0.9999996805181871 -0.0007993519398921909 0.0
    outer loop
      vertex 3.2124799857101403 2.430849850594993 0.0
      vertex 3.2128153286223133 2.01133150291657 0.5720702757183119
      vertex 3.2124799857101403 2.430849850594993 0.5720702757183119
    endloop
  endfacet
  facet normal -0.16471227675465897 -0.9863416577871467 -0.0
    outer loop
      vertex 0.0 2.9307613876358767 0.5720702757183119
      vertex 0.0 2.9307613876358767 0.19069009190610398
      vertex 0.7239875254699771 2.8098604475603377 0.19069009190610398
    endloop
  endfacet
  facet normal -0.16471227675465897 -0.9863416577871467 0.0
    outer loop
      vertex 0.0 2.9307613876358767 0.5720702757183119
      vertex 0.7239875254699771 2.8098604475603377 0.19069009190610398
      vertex 0.7239875254699771 2.8098604475603377 0.5720702757183119
    endloop
  endfacet
  facet normal -0.14362337404282297 -0.9896324198552486 -0.0
    outer loop
      vertex 0.7239875254699771 2.8098604475603377 0.5720702757183119
      vertex 0.7239875254699771 2.8098604475603377 0.19069009190610398
      vertex 1.4503599137112333 2.704443475442537 0.19069009190610398
    endloop
  endfacet
  facet normal -0.14362337404282297 -0.9896324198552486 0.0
    outer loop
      vertex 0.7239875254699771 2.8098604475603377 0.5720702757183119
      vertex 1.4503599137112333 2.704443475442537 0.19069009190610398
      vertex 1.4503599137112333 2.704443475442537 0.5720702757183119
    endloop
  endfacet
  facet normal 0.0 0.0 1.0
    outer loop
      vertex 0.2555027476457699 2.9562172608246895 0.5720702757183119
      vertex 0.0 2.9307613876358767 0.5720702757183119
      vertex 0.7239875254699771 2.8098604475603377 0.5720702757183119
    endloop
  endfacet
  facet normal 0.0 0.0 1.0
    outer loop
      vertex 1.4503599137112333 2.704443475442537 0.5720702757183119
      vertex 1.4505795960528305 2.4294426469863186 0.5720702757183119
      vertex 3.2124799857101403 2.430849850594993 0.5720702757183119
    endloop
  endfacet
  facet normal 0.0 0.0 1.0
    outer loop
      vertex 6.730307514865737 4.296014761877435 0.5720702757183119
      vertex 3.2124799857101403 2.430849850594993 0.5720702757183119
      vertex 6.7332601328278 3.8267871013003933 0.5720702757183119
    endloop
  endfacet
  facet normal 0.0 0.0 1.0
    outer loop
      vertex 6.7332601328278 3.8267871013003933 0.5720702757183119
      vertex 3.2124799857101403 2.430849850594993 0.5720702757183119
      vertex 3.2128153286223133 2.01133150291657 0.5720702757183119
    endloop
  endfacet
  facet normal 0.0 0.0 1.0
    outer loop
      vertex 6.7332601328278 3.8267871013003933 0.5720702757183119
      vertex 3.2128153286223133 2.01133150291657 0.5720702757183119
      vertex 6.715601891628228 3.501345170423547 0.5720702757183119
    endloop
  endfacet
  facet normal 0.0 0.0 1.0
    outer loop
      vertex 6.715601891628228 3.501345170423547 0.5720702757183119
      vertex 3.2128153286223133 2.01133150291657 0.5720702757183119
      vertex 4.940044825543286 0.27220460686317377 0.5720702757183119
    endloop
  endfacet
  facet normal 0.0 0.0 1.0
    outer loop
      vertex 6.715601891628228 3.501345170423547 0.5720702757183119
      vertex 4.940044825543286 0.27220460686317377 0.5720702757183119
      vertex 6.671511209214696 3.1468244262839655 0.5720702757183119
    endloop
  endfacet
  facet normal 0.0 0.0 1.0
    outer loop
      vertex 6.671511209214696 3.1468244262839655 0.5720702757183119
      vertex 4.940044825543286 0.27220460686317377 0.5720702757183119
      vertex 5.175132573201179 0.40356591803860364 0.5720702757183119
    endloop
  endfacet
  facet normal 0.0 0.0 1.0
    outer loop
      vertex 6.671511209214696 3.1468244262839655 0.5720702757183119
      vertex 5.175132573201179 0.40356591803860364 0.5720702757183119
      vertex 6.599921680577995 2.777617699381123 0.5720702757183119
    endloop
  endfacet
  facet normal 0.0 0.0 1.0
    outer loop
      vertex 6.599921680577995 2.777617699381123 0.5720702757183119
      vertex 5.175132573201179 0.40356591803860364 0.5720702757183119
      vertex 5.401134055531622 0.5614853330919359 0.5720702757183119
    endloop
  endfacet
  facet normal 0.0 0.0 1.0
    outer loop
      vertex 6.599921680577995 2.777617699381123 0.5720702757183119
      vertex 5.401134055531622 0.5614853330919359 0.5720702757183119
      vertex 6.499354450749692 2.3926818623049186 0.5720702757183119
    endloop
  endfacet
  facet normal 0.0 0.0 1.0
    outer loop
      vertex 6.499354450749692 2.3926818623049186 0.5720702757183119
      vertex 5.401134055531622 0.5614853330919359 0.5720702757183119
      vertex 5.612527389570827 0.7433293917676508 0.5720702757183119
    endloop
  endfacet
  facet normal 0.0 0.0 1.0
    outer loop
      vertex 6.499354450749692 2.3926818623049186 0.5720702757183119
      vertex 5.612527389570827 0.7433293917676508 0.5720702757183119
      vertex 6.357646974195003 1.9618309609849656 0.5720702757183119
    endloop
  endfacet
  facet normal 0.0 0.0 1.0
    outer loop
      vertex 6.357646974195003 1.9618309609849656 0.5720702757183119
      vertex 5.612527389570827 0.7433293917676508 0.5720702757183119
      vertex 5.803703401358344 0.9451767278969901 0.5720702757183119
    endloop
  endfacet
  facet normal 0.0 0.0 1.0
    outer loop
      vertex 6.357646974195003 1.9618309609849656 0.5720702757183119
      vertex 5.803703401358344 0.9451767278969901 0.5720702757183119
      vertex 6.224587853134515 1.6278650642841612 0.5720702757183119
    endloop
  endfacet
  facet normal 0.0 0.0 1.0
    outer loop
      vertex 6.224587853134515 1.6278650642841612 0.5720702757183119
      vertex 5.803703401358344 0.9451767278969901 0.5720702757183119
      vertex 5.969567933814027 1.1619613721174775 0.5720702757183119
    endloop
  endfacet
  facet normal 0.0 0.0 1.0
    outer loop
      vertex 6.224587853134515 1.6278650642841612 0.5720702757183119
      vertex 5.969567933814027 1.1619613721174775 0.5720702757183119
      vertex 6.10753644601173 1.388794664903604 0.5720702757183119
    endloop
  endfacet
  facet normal -0.0 -0.0 1.0
    outer loop
      vertex 1.452471264692974 0.060917476869906506 0.5720702757183119
      vertex 3.9559017604492577 0.0 0.5720702757183119
      vertex 1.4509145752525174 2.0099246630203815 0.5720702757183119
    endloop
  endfacet
  facet normal -0.0 0.0 1.0
    outer loop
      vertex 1.4509145752525174 2.0099246630203815 0.5720702757183119
      vertex 3.9559017604492577 0.0 0.5720702757183119
      vertex 3.2128153286223133 2.01133150291657 0.5720702757183119
    endloop
  endfacet
  facet normal 0.0 0.0 1.0
    outer loop
      vertex 6.58797881738481 6.993764836438495 0.5720702757183119
      vertex 6.527498522923181 7.235964618049353 0.5720702757183119
      vertex 6.630122183147826 6.723570832198416 0.5720702757183119
    endloop
  endfacet
  facet normal 0.0 0.0 1.0
    outer loop
      vertex 6.630122183147826 6.723570832198416 0.5720702757183119
      vertex 6.527498522923181 7.235964618049353 0.5720702757183119
      vertex 1.4503599137112333 2.704443475442537 0.5720702757183119
    endloop
  endfacet
  facet normal 0.0 0.0 1.0
    outer loop
      vertex 6.630122183147826 6.723570832198416 0.5720702757183119
      vertex 1.4503599137112333 2.704443475442537 0.5720702757183119
      vertex 6.655712993668978 6.405881796675021 0.5720702757183119
    endloop
  endfacet
  facet normal 0.0 0.0 1.0
    outer loop
      vertex 6.655712993668978 6.405881796675021 0.5720702757183119
      vertex 1.4503599137112333 2.704443475442537 0.5720702757183119
      vertex 3.2124799857101403 2.430849850594993 0.5720702757183119
    endloop
  endfacet
  facet normal 0.0 0.0 1.0
    outer loop
      vertex 6.655712993668978 6.405881796675021 0.5720702757183119
      vertex 3.2124799857101403 2.430849850594993 0.5720702757183119
      vertex 6.674273241834048 5.792078422878 0.5720702757183119
    endloop
  endfacet
  facet normal 0.0 0.0 1.0
    outer loop
      vertex 6.674273241834048 5.792078422878 0.5720702757183119
      vertex 3.2124799857101403 2.430849850594993 0.5720702757183119
      vertex 6.730307514865737 4.296014761877435 0.5720702757183119
    endloop
  endfacet
  facet normal 0.0 0.0 1.0
    outer loop
      vertex 6.674273241834048 5.792078422878 0.5720702757183119
      vertex 6.730307514865737 4.296014761877435 0.5720702757183119
      vertex 6.7079821150446834 5.107343840044098 0.5720702757183119
    endloop
  endfacet
  facet normal 0.0 -0.0 1.0
    outer loop
      vertex 4.698868530868278 0.16808717945816537 0.5720702757183119
      vertex 4.940044825543286 0.27220460686317377 0.5720702757183119
      vertex 4.4631842947332006 0.09420498916540916 0.5720702757183119
    endloop
  endfacet
  facet normal 0.0 -0.0 1.0
    outer loop
      vertex 4.4631842947332006 0.09420498916540916 0.5720702757183119
      vertex 4.940044825543286 0.27220460686317377 0.5720702757183119
      vertex 3.2128153286223133 2.01133150291657 0.5720702757183119
    endloop
  endfacet
  facet normal 0.0 0.0 1.0
    outer loop
      vertex 4.4631842947332006 0.09420498916540916 0.5720702757183119
      vertex 3.2128153286223133 2.01133150291657 0.5720702757183119
      vertex 4.215789971396033 0.04147868119469044 0.5720702757183119
    endloop
  endfacet
  facet normal 0.0 0.0 1.0
    outer loop
      vertex 4.215789971396033 0.04147868119469044 0.5720702757183119
      vertex 3.2128153286223133 2.01133150291657 0.5720702757183119
      vertex 3.9559017604492577 0.0 0.5720702757183119
    endloop
  endfacet
  facet normal -0.0 0.0 1.0
    outer loop
      vertex 0.2555027476457699 2.9562172608246895 0.5720702757183119
      vertex 0.7239875254699771 2.8098604475603377 0.5720702757183119
      vertex 0.5056407361217419 3.0141901214072275 0.5720702757183119
    endloop
  endfacet
  facet normal -0.0 0.0 1.0
    outer loop
      vertex 1.3728575111882002 3.5445018391728045 0.5720702757183119
      vertex 1.4503599137112333 2.704443475442537 0.5720702757183119
      vertex 1.5384405301796495 3.7407461844539585 0.5720702757183119
    endloop
  endfacet
  facet normal -0.0 0.0 1.0
    outer loop
      vertex 1.5384405301796495 3.7407461844539585 0.5720702757183119
      vertex 1.4503599137112333 2.704443475442537 0.5720702757183119
      vertex 6.527498522923181 7.235964618049353 0.5720702757183119
    endloop
  endfacet
  facet normal 0.0 0.0 1.0
    outer loop
      vertex 1.5384405301796495 3.7407461844539585 0.5720702757183119
      vertex 6.527498522923181 7.235964618049353 0.5720702757183119
      vertex 2.475240232097061 7.628013943928466 0.5720702757183119
    endloop
  endfacet
  facet normal 0.0 0.0 1.0
    outer loop
      vertex 2.475240232097061 7.628013943928466 0.5720702757183119
      vertex 6.527498522923181 7.235964618049353 0.5720702757183119
      vertex 6.433574137940789 7.492541226810298 0.5720702757183119
    endloop
  endfacet
  facet normal -0.0 0.0 1.0
    outer loop
      vertex 2.475240232097061 7.628013943928466 0.5720702757183119
      vertex 6.433574137940789 7.492541226810298 0.5720702757183119
      vertex 2.4912988657828183 7.687896295062966 0.5720702757183119
    endloop
  endfacet
  facet normal -0.0 0.0 1.0
    outer loop
      vertex 2.4912988657828183 7.687896295062966 0.5720702757183119
      vertex 6.433574137940789 7.492541226810298 0.5720702757183119
      vertex 6.315008959450907 7.733237421003668 0.5720702757183119
    endloop
  endfacet
  facet normal 0.0 0.0 1.0
    outer loop
      vertex 2.4912988657828183 7.687896295062966 0.5720702757183119
      vertex 6.315008959450907 7.733237421003668 0.5720702757183119
      vertex 2.556994069869977 7.869650698610861 0.5720702757183119
    endloop
  endfacet
  facet normal -0.0 0.0 1.0
    outer loop
      vertex 2.556994069869977 7.869650698610861 0.5720702757183119
      vertex 6.315008959450907 7.733237421003668 0.5720702757183119
      vertex 6.167848705304786 7.969425762644464 0.5720702757183119
    endloop
  endfacet
  facet normal 0.0 0.0 1.0
    outer loop
      vertex 2.556994069869977 7.869650698610861 0.5720702757183119
      vertex 6.167848705304786 7.969425762644464 0.5720702757183119
      vertex 2.656890613873934 8.060985289042312 0.5720702757183119
    endloop
  endfacet
  facet normal -0.0 0.0 1.0
    outer loop
      vertex 2.656890613873934 8.060985289042312 0.5720702757183119
      vertex 6.167848705304786 7.969425762644464 0.5720702757183119
      vertex 5.994280742393761 8.19495660101791 0.5720702757183119
    endloop
  endfacet
  facet normal 0.0 0.0 1.0
    outer loop
      vertex 2.656890613873934 8.060985289042312 0.5720702757183119
      vertex 5.994280742393761 8.19495660101791 0.5720702757183119
      vertex 2.786495921166531 8.242829893286757 0.5720702757183119
    endloop
  endfacet
  facet normal -0.0 0.0 1.0
    outer loop
      vertex 2.786495921166531 8.242829893286757 0.5720702757183119
      vertex 5.994280742393761 8.19495660101791 0.5720702757183119
      vertex 5.799354854874677 8.401546747965837 0.5720702757183119
    endloop
  endfacet
  facet normal 0.0 0.0 1.0
    outer loop
      vertex 2.786495921166531 8.242829893286757 0.5720702757183119
      vertex 5.799354854874677 8.401546747965837 0.5720702757183119
      vertex 2.9458172659974893 8.412947679554751 0.5720702757183119
    endloop
  endfacet
  facet normal -0.0 0.0 1.0
    outer loop
      vertex 2.9458172659974893 8.412947679554751 0.5720702757183119
      vertex 5.799354854874677 8.401546747965837 0.5720702757183119
      vertex 5.589108670016593 8.582339495700515 0.5720702757183119
    endloop
  endfacet
  facet normal 0.0 0.0 1.0
    outer loop
      vertex 2.9458172659974893 8.412947679554751 0.5720702757183119
      vertex 5.589108670016593 8.582339495700515 0.5720702757183119
      vertex 3.1336467592005115 8.568183805741969 0.5720702757183119
    endloop
  endfacet
  facet normal 0.0 0.0 1.0
    outer loop
      vertex 3.1336467592005115 8.568183805741969 0.5720702757183119
      vertex 5.589108670016593 8.582339495700515 0.5720702757183119
      vertex 5.376205929160123 8.72859265090633 0.5720702757183119
    endloop
  endfacet
  facet normal 0.0 0.0 1.0
    outer loop
      vertex 3.1336467592005115 8.568183805741969 0.5720702757183119
      vertex 5.376205929160123 8.72859265090633 0.5720702757183119
      vertex 3.3468997551810844 8.704708379369904 0.5720702757183119
    endloop
  endfacet
  facet normal 0.0 0.0 1.0
    outer loop
      vertex 3.3468997551810844 8.704708379369904 0.5720702757183119
      vertex 5.376205929160123 8.72859265090633 0.5720702757183119
      vertex 5.153574606725771 8.8463816669509 0.5720702757183119
    endloop
  endfacet
  facet normal 0.0 0.0 1.0
    outer loop
      vertex 3.3468997551810844 8.704708379369904 0.5720702757183119
      vertex 5.153574606725771 8.8463816669509 0.5720702757183119
      vertex 3.5800645549250305 8.818458731968953 0.5720702757183119
    endloop
  endfacet
  facet normal 0.0 0.0 1.0
    outer loop
      vertex 3.5800645549250305 8.818458731968953 0.5720702757183119
      vertex 5.153574606725771 8.8463816669509 0.5720702757183119
      vertex 4.93180601030842 8.930273406717042 0.5720702757183119
    endloop
  endfacet
  facet normal 0.0 0.0 1.0
    outer loop
      vertex 3.5800645549250305 8.818458731968953 0.5720702757183119
      vertex 4.93180601030842 8.930273406717042 0.5720702757183119
      vertex 3.7979334260665465 8.89765567096467 0.5720702757183119
    endloop
  endfacet
  facet normal 0.0 0.0 1.0
    outer loop
      vertex 3.7979334260665465 8.89765567096467 0.5720702757183119
      vertex 4.93180601030842 8.930273406717042 0.5720702757183119
      vertex 4.714137908459225 8.980916005854962 0.5720702757183119
    endloop
  endfacet
  facet normal 0.0 0.0 1.0
    outer loop
      vertex 3.7979334260665465 8.89765567096467 0.5720702757183119
      vertex 4.714137908459225 8.980916005854962 0.5720702757183119
      vertex 4.047584585379889 8.960196760372474 0.5720702757183119
    endloop
  endfacet
  facet normal 0.0 0.0 1.0
    outer loop
      vertex 4.047584585379889 8.960196760372474 0.5720702757183119
      vertex 4.714137908459225 8.980916005854962 0.5720702757183119
      vertex 4.502223010714969 9.0 0.5720702757183119
    endloop
  endfacet
  facet normal 0.0 0.0 1.0
    outer loop
      vertex 4.047584585379889 8.960196760372474 0.5720702757183119
      vertex 4.502223010714969 9.0 0.5720702757183119
      vertex 4.289739994067445 8.99351864349791 0.5720702757183119
    endloop
  endfacet
  facet normal 0.0 0.0 1.0
    outer loop
      vertex 1.3728575111882002 3.5445018391728045 0.5720702757183119
      vertex 1.183501880393553 3.371082634668589 0.5720702757183119
      vertex 1.4503599137112333 2.704443475442537 0.5720702757183119
    endloop
  endfacet
  facet normal 0.0 0.0 1.0
    outer loop
      vertex 1.4503599137112333 2.704443475442537 0.5720702757183119
      vertex 1.183501880393553 3.371082634668589 0.5720702757183119
      vertex 0.9734939272138572 3.223345532519533 0.5720702757183119
    endloop
  endfacet
  facet normal 0.0 0.0 1.0
    outer loop
      vertex 1.4503599137112333 2.704443475442537 0.5720702757183119
      vertex 0.9734939272138572 3.223345532519533 0.5720702757183119
      vertex 0.7239875254699771 2.8098604475603377 0.5720702757183119
    endloop
  endfacet
  facet normal 0.0 0.0 1.0
    outer loop
      vertex 0.7239875254699771 2.8098604475603377 0.5720702757183119
      vertex 0.9734939272138572 3.223345532519533 0.5720702757183119
      vertex 0.7462921936793235 3.103724496682538 0.5720702757183119
    endloop
  endfacet
  facet normal 0.0 -0.0 1.0
    outer loop
      vertex 0.7239875254699771 2.8098604475603377 0.5720702757183119
      vertex 0.7462921936793235 3.103724496682538 0.5720702757183119
      vertex 0.5056407361217419 3.0141901214072275 0.5720702757183119
    endloop
  endfacet
endsolid thingi10k_65610
