solid thingi10k_65643
  facet normal 0.0 0.0 -1.0
    outer loop
      vertex 0.0 4.227362892713431 0.0
      vertex 0.09288704588819831 5.11112538492056 0.0
      vertex 0.09288704588819831 3.3436021007688965 0.0
    endloop
  endfacet
  facet normal 0.0 0.0 -1.0
    outer loop
      vertex 0.09288704588819831 3.3436021007688965 0.0
      vertex 0.09288704588819831 5.11112538492056 0.0
      vertex 0.3674879564732776 5.956257910944023 0.0
    endloop
  endfacet
  facet normal 0.0 0.0 -1.0
    outer loop
      vertex 0.09288704588819831 3.3436021007688965 0.0
      vertex 0.3674879564732776 5.956257910944023 0.0
      vertex 0.811803978614475 6.725830767196268 0.0
    endloop
  endfacet
  facet normal 0.0 0.0 -1.0
    outer loop
      vertex 0.09288704588819831 3.3436021007688965 0.0
      vertex 0.811803978614475 6.725830767196268 0.0
      vertex 1.3024011486218428 7.27069691874634 0.0
    endloop
  endfacet
  facet normal 0.0 0.0 -1.0
    outer loop
      vertex 1.3024011486218428 7.27069691874634 0.0
      vertex 1.3024011486218428 9.0 0.0
      vertex 7.1989118319384895 9.0 0.0
    endloop
  endfacet
  facet normal 0.0 -0.0 -1.0
    outer loop
      vertex 1.3024011486218428 7.27069691874634 0.0
      vertex 7.1989118319384895 9.0 0.0
      vertex 0.09288704588819831 3.3436021007688965 0.0
    endloop
  endfacet
  facet normal 0.0 0.0 -1.0
    outer loop
      vertex 0.09288704588819831 3.3436021007688965 0.0
      vertex 7.1989118319384895 9.0 0.0
      vertex 7.1989118319384895 7.27069691874634 0.0
    endloop
  endfacet
  facet normal 0.0 0.0 -1.0
    outer loop
      vertex 0.09288704588819831 3.3436021007688965 0.0
      vertex 7.1989118319384895 7.27069691874634 0.0
      vertex 7.689505601420663 6.725830767196268 0.0
    endloop
  endfacet
  facet normal 0.0 0.0 -1.0
    outer loop
      vertex 4.165966410367823 4.816401866510494 0.0
      vertex 7.689505601420663 6.725830767196268 0.0
      vertex 8.13381822303667 5.956257910944023 0.0
    endloop
  endfacet
  facet normal 0.0 0.0 -1.0
    outer loop
      vertex 4.845748398919389 4.227362892713431 0.0
      vertex 8.408427634934728 5.11112538492056 0.0
      vertex 8.501312980560332 4.227362892713431 0.0
    endloop
  endfacet
  facet normal 0.0 0.0 -1.0
    outer loop
      vertex 4.165966410367823 3.6383273194415584 0.0
      vertex 8.501312980560332 4.227362892713431 0.0
      vertex 8.408427634934728 3.3436021007688965 0.0
    endloop
  endfacet
  facet normal 0.0 0.0 -1.0
    outer loop
      vertex 0.09288704588819831 3.3436021007688965 0.0
      vertex 8.408427634934728 3.3436021007688965 0.0
      vertex 8.13381822303667 2.4984644739576445 0.0
    endloop
  endfacet
  facet normal 0.0 0.0 -1.0
    outer loop
      vertex 0.09288704588819831 3.3436021007688965 0.0
      vertex 8.13381822303667 2.4984644739576445 0.0
      vertex 7.689505601420663 1.728889917442805 0.0
    endloop
  endfacet
  facet normal 0.0 0.0 -1.0
    outer loop
      vertex 0.09288704588819831 3.3436021007688965 0.0
      vertex 7.689505601420663 1.728889917442805 0.0
      vertex 7.094906768934314 1.068513025900667 0.0
    endloop
  endfacet
  facet normal 0.0 0.0 -1.0
    outer loop
      vertex 0.09288704588819831 3.3436021007688965 0.0
      vertex 7.094906768934314 1.068513025900667 0.0
      vertex 6.375984735420248 0.5461923563750399 0.0
    endloop
  endfacet
  facet normal 0.0 0.0 -1.0
    outer loop
      vertex 0.09288704588819831 3.3436021007688965 0.0
      vertex 6.375984735420248 0.5461923563750399 0.0
      vertex 5.564177356280581 0.18475053369353722 0.0
    endloop
  endfacet
  facet normal 0.0 0.0 -1.0
    outer loop
      vertex 0.09288704588819831 3.3436021007688965 0.0
      vertex 5.564177356280581 0.18475053369353722 0.0
      vertex 4.694969111896171 0.0 0.0
    endloop
  endfacet
  facet normal 0.0 0.0 -1.0
    outer loop
      vertex 0.09288704588819831 3.3436021007688965 0.0
      vertex 4.694969111896171 0.0 0.0
      vertex 3.8063438686641606 0.0 0.0
    endloop
  endfacet
  facet normal 0.0 0.0 -1.0
    outer loop
      vertex 0.09288704588819831 3.3436021007688965 0.0
      vertex 3.8063438686641606 0.0 0.0
      vertex 2.9371322237545576 0.18475053369353722 0.0
    endloop
  endfacet
  facet normal 0.0 0.0 -1.0
    outer loop
      vertex 0.09288704588819831 3.3436021007688965 0.0
      vertex 2.9371322237545576 0.18475053369353722 0.0
      vertex 2.125328245140083 0.5461923563750399 0.0
    endloop
  endfacet
  facet normal 0.0 0.0 -1.0
    outer loop
      vertex 0.09288704588819831 3.3436021007688965 0.0
      vertex 2.125328245140083 0.5461923563750399 0.0
      vertex 1.4064113124138062 1.068513025900667 0.0
    endloop
  endfacet
  facet normal 0.0 0.0 -1.0
    outer loop
      vertex 0.09288704588819831 3.3436021007688965 0.0
      vertex 1.4064113124138062 1.068513025900667 0.0
      vertex 0.811803978614475 1.728889917442805 0.0
    endloop
  endfacet
  facet normal 0.0 0.0 -1.0
    outer loop
      vertex 0.09288704588819831 3.3436021007688965 0.0
      vertex 0.811803978614475 1.728889917442805 0.0
      vertex 0.3674879564732776 2.4984644739576445 0.0
    endloop
  endfacet
  facet normal 0.0 0.0 -1.0
    outer loop
      vertex 4.165966410367823 4.816401866510494 0.0
      vertex 8.13381822303667 5.956257910944023 0.0
      vertex 4.49787467175486 4.768675495437629 0.0
    endloop
  endfacet
  facet normal -0.0 0.0 -1.0
    outer loop
      vertex 4.165966410367823 3.6383273194415584 0.0
      vertex 0.09288704588819831 3.3436021007688965 0.0
      vertex 3.86095630325128 3.7776230328906357 0.0
    endloop
  endfacet
  facet normal 0.0 0.0 -1.0
    outer loop
      vertex 0.09288704588819831 3.3436021007688965 0.0
      vertex 3.6796743052538115 4.059706799161203 0.0
      vertex 3.86095630325128 3.7776230328906357 0.0
    endloop
  endfacet
  facet normal 0.0 -0.0 -1.0
    outer loop
      vertex 4.49787467175486 3.686048589726636 0.0
      vertex 8.501312980560332 4.227362892713431 0.0
      vertex 4.165966410367823 3.6383273194415584 0.0
    endloop
  endfacet
  facet normal 0.0 0.0 -1.0
    outer loop
      vertex 0.09288704588819831 3.3436021007688965 0.0
      vertex 4.165966410367823 3.6383273194415584 0.0
      vertex 8.408427634934728 3.3436021007688965 0.0
    endloop
  endfacet
  facet normal 0.0 -0.0 -1.0
    outer loop
      vertex 4.751281809079403 3.9056324032267207 0.0
      vertex 8.501312980560332 4.227362892713431 0.0
      vertex 4.49787467175486 3.686048589726636 0.0
    endloop
  endfacet
  facet normal 0.0 -0.0 -1.0
    outer loop
      vertex 4.845748398919389 4.227362892713431 0.0
      vertex 8.501312980560332 4.227362892713431 0.0
      vertex 4.751281809079403 3.9056324032267207 0.0
    endloop
  endfacet
  facet normal 0.0 0.0 -1.0
    outer loop
      vertex 4.49787467175486 4.768675495437629 0.0
      vertex 8.408427634934728 5.11112538492056 0.0
      vertex 4.751281809079403 4.54909338220014 0.0
    endloop
  endfacet
  facet normal 0.0 0.0 -1.0
    outer loop
      vertex 4.751281809079403 4.54909338220014 0.0
      vertex 8.408427634934728 5.11112538492056 0.0
      vertex 4.845748398919389 4.227362892713431 0.0
    endloop
  endfacet
  facet normal 0.0 0.0 -1.0
    outer loop
      vertex 4.49787467175486 4.768675495437629 0.0
      vertex 8.13381822303667 5.956257910944023 0.0
      vertex 8.408427634934728 5.11112538492056 0.0
    endloop
  endfacet
  facet normal -0.0 0.0 -1.0
    outer loop
      vertex 3.6796743052538115 4.059706799161203 0.0
      vertex 0.09288704588819831 3.3436021007688965 0.0
      vertex 3.6796743052538115 4.395018986265657 0.0
    endloop
  endfacet
  facet normal 0.0 0.0 -1.0
    outer loop
      vertex 0.09288704588819831 3.3436021007688965 0.0
      vertex 7.689505601420663 6.725830767196268 0.0
      vertex 4.165966410367823 4.816401866510494 0.0
    endloop
  endfacet
  facet normal 0.0 0.0 -1.0
    outer loop
      vertex 0.09288704588819831 3.3436021007688965 0.0
      vertex 4.165966410367823 4.816401866510494 0.0
      vertex 3.86095630325128 4.677099352011033 0.0
    endloop
  endfacet
  facet normal -0.0 0.0 -1.0
    outer loop
      vertex 3.6796743052538115 4.395018986265657 0.0
      vertex 0.09288704588819831 3.3436021007688965 0.0
      vertex 3.86095630325128 4.677099352011033 0.0
    endloop
  endfacet
  facet normal -0.994521911162518 0.10452831299534335 0.0
    outer loop
      vertex 0.0 4.227362892713431 0.0
      vertex 0.0 4.227362892713431 2.762926718682108
      vertex 0.09288704588819831 5.11112538492056 0.0
    endloop
  endfacet
  facet normal -0.994521911162518 0.10452831299534335 0.0
    outer loop
      vertex 0.09288704588819831 5.11112538492056 0.0
      vertex 0.0 4.227362892713431 2.762926718682108
      vertex 0.09288704588819831 5.11112538492056 2.762926718682108
    endloop
  endfacet
  facet normal -0.9945218902568567 -0.10452851189952331 0.0
    outer loop
      vertex 0.0 4.227362892713431 0.0
      vertex 0.09288704588819831 3.3436021007688965 0.0
      vertex 0.0 4.227362892713431 2.762926718682108
    endloop
  endfacet
  facet normal -0.9945218902568567 -0.10452851189952331 0.0
    outer loop
      vertex 0.0 4.227362892713431 2.762926718682108
      vertex 0.09288704588819831 3.3436021007688965 0.0
      vertex 0.09288704588819831 3.3436021007688965 2.762926718682108
    endloop
  endfacet
  facet normal -0.9510568306140331 -0.30901602699923236 0.0
    outer loop
      vertex 0.09288704588819831 3.3436021007688965 0.0
      vertex 0.3674879564732776 2.4984644739576445 0.0
      vertex 0.09288704588819831 3.3436021007688965 2.762926718682108
    endloop
  endfacet
  facet normal -0.9510568306140331 -0.30901602699923236 0.0
    outer loop
      vertex 0.09288704588819831 3.3436021007688965 2.762926718682108
      vertex 0.3674879564732776 2.4984644739576445 0.0
      vertex 0.3674879564732776 2.4984644739576445 2.762926718682108
    endloop
  endfacet
  facet normal -0.8660244561292136 -0.5000016413834055 0.0
    outer loop
      vertex 0.3674879564732776 2.4984644739576445 0.0
      vertex 0.811803978614475 1.728889917442805 0.0
      vertex 0.3674879564732776 2.4984644739576445 2.762926718682108
    endloop
  endfacet
  facet normal -0.8660244561292136 -0.5000016413834055 0.0
    outer loop
      vertex 0.3674879564732776 2.4984644739576445 2.762926718682108
      vertex 0.811803978614475 1.728889917442805 0.0
      vertex 0.811803978614475 1.728889917442805 2.762926718682108
    endloop
  endfacet
  facet normal -0.7431440924808665 -0.6691314204330785 0.0
    outer loop
      vertex 0.811803978614475 1.728889917442805 0.0
      vertex 1.4064113124138062 1.068513025900667 0.0
      vertex 0.811803978614475 1.728889917442805 2.762926718682108
    endloop
  endfacet
  facet normal -0.7431440924808665 -0.6691314204330785 0.0
    outer loop
      vertex 0.811803978614475 1.728889917442805 2.762926718682108
      vertex 1.4064113124138062 1.068513025900667 0.0
      vertex 1.4064113124138062 1.068513025900667 2.762926718682108
    endloop
  endfacet
  facet normal -0.5877830012807256 -0.8090186298259285 -0.0
    outer loop
      vertex 1.4064113124138062 1.068513025900667 2.762926718682108
      vertex 1.4064113124138062 1.068513025900667 0.0
      vertex 2.125328245140083 0.5461923563750399 0.0
    endloop
  endfacet
  facet normal -0.5877830012807256 -0.8090186298259285 -0.0
    outer loop
      vertex 2.125328245140083 0.5461923563750399 2.762926718682108
      vertex 1.4064113124138062 1.068513025900667 2.762926718682108
      vertex 2.125328245140083 0.5461923563750399 0.0
    endloop
  endfacet
  facet normal -0.40673984048793266 -0.9135440340562961 -0.0
    outer loop
      vertex 2.125328245140083 0.5461923563750399 2.762926718682108
      vertex 2.125328245140083 0.5461923563750399 0.0
      vertex 2.9371322237545576 0.18475053369353722 0.0
    endloop
  endfacet
  facet normal -0.40673984048793266 -0.9135440340562961 -0.0
    outer loop
      vertex 2.9371322237545576 0.18475053369353722 2.762926718682108
      vertex 2.125328245140083 0.5461923563750399 2.762926718682108
      vertex 2.9371322237545576 0.18475053369353722 0.0
    endloop
  endfacet
  facet normal -0.2079051177518949 -0.9781489978590023 -0.0
    outer loop
      vertex 2.9371322237545576 0.18475053369353722 2.762926718682108
      vertex 2.9371322237545576 0.18475053369353722 0.0
      vertex 3.8063438686641606 0.0 0.0
    endloop
  endfacet
  facet normal -0.2079051177518949 -0.9781489978590023 -0.0
    outer loop
      vertex 3.8063438686641606 0.0 2.762926718682108
      vertex 2.9371322237545576 0.18475053369353722 2.762926718682108
      vertex 3.8063438686641606 0.0 0.0
    endloop
  endfacet
  facet normal 0.0 -1.0 0.0
    outer loop
      vertex 3.8063438686641606 0.0 2.762926718682108
      vertex 3.8063438686641606 0.0 0.0
      vertex 4.694969111896171 0.0 0.0
    endloop
  endfacet
  facet normal -0.0 -1.0 -0.0
    outer loop
      vertex 4.694969111896171 0.0 2.762926718682108
      vertex 3.8063438686641606 0.0 2.762926718682108
      vertex 4.694969111896171 0.0 0.0
    endloop
  endfacet
  facet normal 0.20790589596270306 -0.9781488324503309 0.0
    outer loop
      vertex 4.694969111896171 0.0 2.762926718682108
      vertex 4.694969111896171 0.0 0.0
      vertex 5.564177356280581 0.18475053369353722 0.0
    endloop
  endfacet
  facet normal 0.20790589596270306 -0.9781488324503309 0.0
    outer loop
      vertex 5.564177356280581 0.18475053369353722 2.762926718682108
      vertex 4.694969111896171 0.0 2.762926718682108
      vertex 5.564177356280581 0.18475053369353722 0.0
    endloop
  endfacet
  facet normal 0.40673841858765514 -0.9135446671317244 0.0
    outer loop
      vertex 5.564177356280581 0.18475053369353722 2.762926718682108
      vertex 5.564177356280581 0.18475053369353722 0.0
      vertex 6.375984735420248 0.5461923563750399 0.0
    endloop
  endfacet
  facet normal 0.40673841858765514 -0.9135446671317244 0.0
    outer loop
      vertex 6.375984735420248 0.5461923563750399 2.762926718682108
      vertex 5.564177356280581 0.18475053369353722 2.762926718682108
      vertex 6.375984735420248 0.5461923563750399 0.0
    endloop
  endfacet
  facet normal 0.5877802717302759 -0.8090206129417736 0.0
    outer loop
      vertex 6.375984735420248 0.5461923563750399 2.762926718682108
      vertex 6.375984735420248 0.5461923563750399 0.0
      vertex 7.094906768934314 1.068513025900667 0.0
    endloop
  endfacet
  facet normal 0.5877802717302759 -0.8090206129417736 0.0
    outer loop
      vertex 7.094906768934314 1.068513025900667 2.762926718682108
      vertex 6.375984735420248 0.5461923563750399 2.762926718682108
      vertex 7.094906768934314 1.068513025900667 0.0
    endloop
  endfacet
  facet normal 0.7431488496948451 -0.6691261369855677 0.0
    outer loop
      vertex 7.094906768934314 1.068513025900667 2.762926718682108
      vertex 7.094906768934314 1.068513025900667 0.0
      vertex 7.689505601420663 1.728889917442805 0.0
    endloop
  endfacet
  facet normal 0.7431488496948451 -0.6691261369855677 0.0
    outer loop
      vertex 7.689505601420663 1.728889917442805 2.762926718682108
      vertex 7.094906768934314 1.068513025900667 2.762926718682108
      vertex 7.689505601420663 1.728889917442805 0.0
    endloop
  endfacet
  facet normal 0.8660261131449131 -0.4999987713496048 0.0
    outer loop
      vertex 7.689505601420663 1.728889917442805 2.762926718682108
      vertex 7.689505601420663 1.728889917442805 0.0
      vertex 8.13381822303667 2.4984644739576445 0.0
    endloop
  endfacet
  facet normal 0.8660261131449131 -0.4999987713496048 0.0
    outer loop
      vertex 8.13381822303667 2.4984644739576445 2.762926718682108
      vertex 7.689505601420663 1.728889917442805 2.762926718682108
      vertex 8.13381822303667 2.4984644739576445 0.0
    endloop
  endfacet
  facet normal 0.9510540189896111 -0.3090246801854321 0.0
    outer loop
      vertex 8.13381822303667 2.4984644739576445 2.762926718682108
      vertex 8.13381822303667 2.4984644739576445 0.0
      vertex 8.408427634934728 3.3436021007688965 0.0
    endloop
  endfacet
  facet normal 0.9510540189896111 -0.3090246801854321 0.0
    outer loop
      vertex 8.408427634934728 3.3436021007688965 2.762926718682108
      vertex 8.13381822303667 2.4984644739576445 2.762926718682108
      vertex 8.408427634934728 3.3436021007688965 0.0
    endloop
  endfacet
  facet normal 0.994522089159652 -0.1045266194494056 0.0
    outer loop
      vertex 8.408427634934728 3.3436021007688965 2.762926718682108
      vertex 8.408427634934728 3.3436021007688965 0.0
      vertex 8.501312980560332 4.227362892713431 0.0
    endloop
  endfacet
  facet normal 0.994522089159652 -0.1045266194494056 0.0
    outer loop
      vertex 8.501312980560332 4.227362892713431 2.762926718682108
      vertex 8.408427634934728 3.3436021007688965 2.762926718682108
      vertex 8.501312980560332 4.227362892713431 0.0
    endloop
  endfacet
  facet normal 0.9945221100645608 0.10452642054874718 0.0
    outer loop
      vertex 8.501312980560332 4.227362892713431 0.0
      vertex 8.408427634934728 5.11112538492056 0.0
      vertex 8.408427634934728 5.11112538492056 2.762926718682108
    endloop
  endfacet
  facet normal 0.9945221100645608 0.10452642054874718 0.0
    outer loop
      vertex 8.501312980560332 4.227362892713431 2.762926718682108
      vertex 8.501312980560332 4.227362892713431 0.0
      vertex 8.408427634934728 5.11112538492056 2.762926718682108
    endloop
  endfacet
  facet normal 0.9510534708327039 0.309026367187441 0.0
    outer loop
      vertex 8.408427634934728 5.11112538492056 0.0
      vertex 8.13381822303667 5.956257910944023 0.0
      vertex 8.13381822303667 5.956257910944023 2.762926718682108
    endloop
  endfacet
  facet normal 0.9510534708327039 0.309026367187441 0.0
    outer loop
      vertex 8.408427634934728 5.11112538492056 2.762926718682108
      vertex 8.408427634934728 5.11112538492056 0.0
      vertex 8.13381822303667 5.956257910944023 2.762926718682108
    endloop
  endfacet
  facet normal 0.8660256348065188 0.4999995998578057 0.0
    outer loop
      vertex 8.13381822303667 5.956257910944023 0.0
      vertex 7.689505601420663 6.725830767196268 0.0
      vertex 7.689505601420663 6.725830767196268 2.762926718682108
    endloop
  endfacet
  facet normal 0.8660256348065188 0.4999995998578057 0.0
    outer loop
      vertex 8.13381822303667 5.956257910944023 2.762926718682108
      vertex 8.13381822303667 5.956257910944023 0.0
      vertex 7.689505601420663 6.725830767196268 2.762926718682108
    endloop
  endfacet
  facet normal 0.7431488384720326 0.6691261494499139 0.0
    outer loop
      vertex 7.689505601420663 6.725830767196268 0.0
      vertex 7.1989118319384895 7.27069691874634 0.0
      vertex 7.1989118319384895 7.27069691874634 2.762926718682108
    endloop
  endfacet
  facet normal 0.7431488384720326 0.6691261494499139 0.0
    outer loop
      vertex 7.689505601420663 6.725830767196268 2.762926718682108
      vertex 7.689505601420663 6.725830767196268 0.0
      vertex 7.1989118319384895 7.27069691874634 2.762926718682108
    endloop
  endfacet
  facet normal 1.0 0.0 0.0
    outer loop
      vertex 7.1989118319384895 7.27069691874634 2.762926718682108
      vertex 7.1989118319384895 7.27069691874634 0.0
      vertex 7.1989118319384895 9.0 0.0
    endloop
  endfacet
  facet normal 1.0 0.0 0.0
    outer loop
      vertex 7.1989118319384895 9.0 2.762926718682108
      vertex 7.1989118319384895 7.27069691874634 2.762926718682108
      vertex 7.1989118319384895 9.0 0.0
    endloop
  endfacet
  facet normal 0.0 1.0 0.0
    outer loop
      vertex 1.3024011486218428 9.0 0.0
      vertex 1.3024011486218428 9.0 2.762926718682108
      vertex 2.992462169157237 9.0 0.34005251922241325
    endloop
  endfacet
  facet normal 0.0 1.0 0.0
    outer loop
      vertex 1.3024011486218428 9.0 0.0
      vertex 2.992462169157237 9.0 0.34005251922241325
      vertex 7.1989118319384895 9.0 0.0
    endloop
  endfacet
  facet normal 0.0 1.0 0.0
    outer loop
      vertex 5.508850811403095 9.0 2.762926718682108
      vertex 7.1989118319384895 9.0 0.0
      vertex 5.508850811403095 9.0 0.34005251922241325
    endloop
  endfacet
  facet normal -0.0 1.0 0.0
    outer loop
      vertex 2.992462169157237 9.0 0.34005251922241325
      vertex 5.508850811403095 9.0 0.34005251922241325
      vertex 7.1989118319384895 9.0 0.0
    endloop
  endfacet
  facet normal 0.0 1.0 -0.0
    outer loop
      vertex 7.1989118319384895 9.0 0.0
      vertex 5.508850811403095 9.0 2.762926718682108
      vertex 7.1989118319384895 9.0 2.762926718682108
    endloop
  endfacet
  facet normal 0.0 1.0 -0.0
    outer loop
      vertex 2.992462169157237 9.0 0.34005251922241325
      vertex 1.3024011486218428 9.0 2.762926718682108
      vertex 2.992462169157237 9.0 2.762926718682108
    endloop
  endfacet
  facet normal -1.0 0.0 0.0
    outer loop
      vertex 1.3024011486218428 7.27069691874634 0.0
      vertex 1.3024011486218428 7.27069691874634 2.762926718682108
      vertex 1.3024011486218428 9.0 0.0
    endloop
  endfacet
  facet normal -1.0 0.0 0.0
    outer loop
      vertex 1.3024011486218428 9.0 0.0
      vertex 1.3024011486218428 7.27069691874634 2.762926718682108
      vertex 1.3024011486218428 9.0 2.762926718682108
    endloop
  endfacet
  facet normal -0.7431465321748945 0.6691287108743942 0.0
    outer loop
      vertex 0.811803978614475 6.725830767196268 0.0
      vertex 0.811803978614475 6.725830767196268 2.762926718682108
      vertex 1.3024011486218428 7.27069691874634 0.0
    endloop
  endfacet
  facet normal -0.7431465321748945 0.6691287108743942 0.0
    outer loop
      vertex 1.3024011486218428 7.27069691874634 0.0
      vertex 0.811803978614475 6.725830767196268 2.762926718682108
      vertex 1.3024011486218428 7.27069691874634 2.762926718682108
    endloop
  endfacet
  facet normal -0.8660239777862434 0.5000024698931916 0.0
    outer loop
      vertex 0.3674879564732776 5.956257910944023 0.0
      vertex 0.3674879564732776 5.956257910944023 2.762926718682108
      vertex 0.811803978614475 6.725830767196268 0.0
    endloop
  endfacet
  facet normal -0.8660239777862434 0.5000024698931916 0.0
    outer loop
      vertex 0.811803978614475 6.725830767196268 0.0
      vertex 0.3674879564732776 5.956257910944023 2.762926718682108
      vertex 0.811803978614475 6.725830767196268 2.762926718682108
    endloop
  endfacet
  facet normal -0.9510562824862038 0.309017713963977 0.0
    outer loop
      vertex 0.09288704588819831 5.11112538492056 0.0
      vertex 0.09288704588819831 5.11112538492056 2.762926718682108
      vertex 0.3674879564732776 5.956257910944023 0.0
    endloop
  endfacet
  facet normal -0.9510562824862038 0.309017713963977 0.0
    outer loop
      vertex 0.3674879564732776 5.956257910944023 0.0
      vertex 0.09288704588819831 5.11112538492056 2.762926718682108
      vertex 0.3674879564732776 5.956257910944023 2.762926718682108
    endloop
  endfacet
  facet normal 1.0 0.0 -0.0
    outer loop
      vertex 3.6796743052538115 4.395018986265657 0.0
      vertex 3.6796743052538115 4.395018986265657 0.34005251922241325
      vertex 3.6796743052538115 4.059706799161203 0.34005251922241325
    endloop
  endfacet
  facet normal 1.0 0.0 0.0
    outer loop
      vertex 3.6796743052538115 4.059706799161203 0.0
      vertex 3.6796743052538115 4.395018986265657 0.0
      vertex 3.6796743052538115 4.059706799161203 0.34005251922241325
    endloop
  endfacet
  facet normal 0.8412535945374295 -0.5406407214387888 0.0
    outer loop
      vertex 3.86095630325128 4.677099352011033 0.0
      vertex 3.86095630325128 4.677099352011033 0.34005251922241325
      vertex 3.6796743052538115 4.395018986265657 0.34005251922241325
    endloop
  endfacet
  facet normal 0.8412535945374295 -0.5406407214387888 0.0
    outer loop
      vertex 3.6796743052538115 4.395018986265657 0.0
      vertex 3.86095630325128 4.677099352011033 0.0
      vertex 3.6796743052538115 4.395018986265657 0.34005251922241325
    endloop
  endfacet
  facet normal 0.4154373839961482 -0.9096217785312953 0.0
    outer loop
      vertex 4.165966410367823 4.816401866510494 0.0
      vertex 4.165966410367823 4.816401866510494 0.34005251922241325
      vertex 3.86095630325128 4.677099352011033 0.34005251922241325
    endloop
  endfacet
  facet normal 0.4154373839961482 -0.9096217785312953 0.0
    outer loop
      vertex 3.86095630325128 4.677099352011033 0.0
      vertex 4.165966410367823 4.816401866510494 0.0
      vertex 3.86095630325128 4.677099352011033 0.34005251922241325
    endloop
  endfacet
  facet normal -0.14232993665987262 -0.9898192709431337 0.0
    outer loop
      vertex 4.49787467175486 4.768675495437629 0.0
      vertex 4.49787467175486 4.768675495437629 0.34005251922241325
      vertex 4.165966410367823 4.816401866510494 0.34005251922241325
    endloop
  endfacet
  facet normal -0.14232993665987262 -0.9898192709431337 0.0
    outer loop
      vertex 4.165966410367823 4.816401866510494 0.0
      vertex 4.49787467175486 4.768675495437629 0.0
      vertex 4.165966410367823 4.816401866510494 0.34005251922241325
    endloop
  endfacet
  facet normal -0.6548668299917776 -0.7557442920568572 0.0
    outer loop
      vertex 4.751281809079403 4.54909338220014 0.0
      vertex 4.751281809079403 4.54909338220014 0.34005251922241325
      vertex 4.49787467175486 4.768675495437629 0.34005251922241325
    endloop
  endfacet
  facet normal -0.6548668299917776 -0.7557442920568572 0.0
    outer loop
      vertex 4.49787467175486 4.768675495437629 0.0
      vertex 4.751281809079403 4.54909338220014 0.0
      vertex 4.49787467175486 4.768675495437629 0.34005251922241325
    endloop
  endfacet
  facet normal -0.9594945903492127 -0.28172705069019655 -0.0
    outer loop
      vertex 4.845748398919389 4.227362892713431 0.34005251922241325
      vertex 4.751281809079403 4.54909338220014 0.34005251922241325
      vertex 4.845748398919389 4.227362892713431 0.0
    endloop
  endfacet
  facet normal -0.9594945903492127 -0.28172705069019655 0.0
    outer loop
      vertex 4.845748398919389 4.227362892713431 0.0
      vertex 4.751281809079403 4.54909338220014 0.34005251922241325
      vertex 4.751281809079403 4.54909338220014 0.0
    endloop
  endfacet
  facet normal -0.9594945903492127 0.2817270506901962 0.0
    outer loop
      vertex 4.845748398919389 4.227362892713431 0.34005251922241325
      vertex 4.845748398919389 4.227362892713431 0.0
      vertex 4.751281809079403 3.9056324032267207 0.34005251922241325
    endloop
  endfacet
  facet normal -0.9594945903492127 0.2817270506901962 0.0
    outer loop
      vertex 4.751281809079403 3.9056324032267207 0.34005251922241325
      vertex 4.845748398919389 4.227362892713431 0.0
      vertex 4.751281809079403 3.9056324032267207 0.0
    endloop
  endfacet
  facet normal -0.6548697261322457 0.7557417824862388 0.0
    outer loop
      vertex 4.751281809079403 3.9056324032267207 0.34005251922241325
      vertex 4.751281809079403 3.9056324032267207 0.0
      vertex 4.49787467175486 3.686048589726636 0.34005251922241325
    endloop
  endfacet
  facet normal -0.6548697261322457 0.7557417824862388 0.0
    outer loop
      vertex 4.49787467175486 3.686048589726636 0.34005251922241325
      vertex 4.751281809079403 3.9056324032267207 0.0
      vertex 4.49787467175486 3.686048589726636 0.0
    endloop
  endfacet
  facet normal -0.1423150331582799 0.989821413860681 0.0
    outer loop
      vertex 4.49787467175486 3.686048589726636 0.34005251922241325
      vertex 4.49787467175486 3.686048589726636 0.0
      vertex 4.165966410367823 3.6383273194415584 0.34005251922241325
    endloop
  endfacet
  facet normal -0.1423150331582799 0.989821413860681 0.0
    outer loop
      vertex 4.165966410367823 3.6383273194415584 0.34005251922241325
      vertex 4.49787467175486 3.686048589726636 0.0
      vertex 4.165966410367823 3.6383273194415584 0.0
    endloop
  endfacet
  facet normal 0.4154206017610739 0.9096294430329678 0.0
    outer loop
      vertex 4.165966410367823 3.6383273194415584 0.34005251922241325
      vertex 4.165966410367823 3.6383273194415584 0.0
      vertex 3.86095630325128 3.7776230328906357 0.34005251922241325
    endloop
  endfacet
  facet normal 0.4154206017610739 0.9096294430329678 0.0
    outer loop
      vertex 3.86095630325128 3.7776230328906357 0.34005251922241325
      vertex 4.165966410367823 3.6383273194415584 0.0
      vertex 3.86095630325128 3.7776230328906357 0.0
    endloop
  endfacet
  facet normal 0.8412565587682704 0.5406361089766089 0.0
    outer loop
      vertex 3.6796743052538115 4.059706799161203 0.34005251922241325
      vertex 3.86095630325128 3.7776230328906357 0.34005251922241325
      vertex 3.86095630325128 3.7776230328906357 0.0
    endloop
  endfacet
  facet normal 0.8412565587682704 0.5406361089766089 -0.0
    outer loop
      vertex 3.6796743052538115 4.059706799161203 0.0
      vertex 3.6796743052538115 4.059706799161203 0.34005251922241325
      vertex 3.86095630325128 3.7776230328906357 0.0
    endloop
  endfacet
  facet normal 0.0 0.0 1.0
    outer loop
      vertex 0.09288704588819831 5.11112538492056 2.762926718682108
      vertex 0.0 4.227362892713431 2.762926718682108
      vertex 0.09288704588819831 3.3436021007688965 2.762926718682108
    endloop
  endfacet
  facet normal 0.0 0.0 1.0
    outer loop
      vertex 0.811803978614475 1.728889917442805 2.762926718682108
      vertex 0.09288704588819831 5.11112538492056 2.762926718682108
      vertex 0.3674879564732776 2.4984644739576445 2.762926718682108
    endloop
  endfacet
  facet normal 0.0 0.0 1.0
    outer loop
      vertex 0.3674879564732776 2.4984644739576445 2.762926718682108
      vertex 0.09288704588819831 5.11112538492056 2.762926718682108
      vertex 0.09288704588819831 3.3436021007688965 2.762926718682108
    endloop
  endfacet
  facet normal 0.0 0.0 1.0
    outer loop
      vertex 1.4064113124138062 1.068513025900667 2.762926718682108
      vertex 0.09288704588819831 5.11112538492056 2.762926718682108
      vertex 0.811803978614475 1.728889917442805 2.762926718682108
    endloop
  endfacet
  facet normal 0.0 0.0 1.0
    outer loop
      vertex 2.125328245140083 0.5461923563750399 2.762926718682108
      vertex 0.09288704588819831 5.11112538492056 2.762926718682108
      vertex 1.4064113124138062 1.068513025900667 2.762926718682108
    endloop
  endfacet
  facet normal 0.0 0.0 1.0
    outer loop
      vertex 2.9371322237545576 0.18475053369353722 2.762926718682108
      vertex 0.09288704588819831 5.11112538492056 2.762926718682108
      vertex 2.125328245140083 0.5461923563750399 2.762926718682108
    endloop
  endfacet
  facet normal 0.0 0.0 1.0
    outer loop
      vertex 1.642453667844256 2.9521659456293805 2.762926718682108
      vertex 0.09288704588819831 5.11112538492056 2.762926718682108
      vertex 2.9371322237545576 0.18475053369353722 2.762926718682108
    endloop
  endfacet
  facet normal 0.0 0.0 1.0
    outer loop
      vertex 1.642453667844256 2.9521659456293805 2.762926718682108
      vertex 1.3024011486218428 7.27069691874634 2.762926718682108
      vertex 0.09288704588819831 5.11112538492056 2.762926718682108
    endloop
  endfacet
  facet normal 0.0 -0.0 1.0
    outer loop
      vertex 1.642453667844256 2.9521659456293805 2.762926718682108
      vertex 1.642453667844256 8.659947480777587 2.762926718682108
      vertex 1.3024011486218428 7.27069691874634 2.762926718682108
    endloop
  endfacet
  facet normal 0.0 0.0 1.0
    outer loop
      vertex 6.858859312716076 2.9521659456293805 2.762926718682108
      vertex 7.689505601420663 1.728889917442805 2.762926718682108
      vertex 8.13381822303667 2.4984644739576445 2.762926718682108
    endloop
  endfacet
  facet normal 0.0 0.0 1.0
    outer loop
      vertex 6.858859312716076 2.9521659456293805 2.762926718682108
      vertex 7.094906768934314 1.068513025900667 2.762926718682108
      vertex 7.689505601420663 1.728889917442805 2.762926718682108
    endloop
  endfacet
  facet normal 0.0 0.0 1.0
    outer loop
      vertex 6.858859312716076 2.9521659456293805 2.762926718682108
      vertex 6.375984735420248 0.5461923563750399 2.762926718682108
      vertex 7.094906768934314 1.068513025900667 2.762926718682108
    endloop
  endfacet
  facet normal 0.0 0.0 1.0
    outer loop
      vertex 6.858859312716076 2.9521659456293805 2.762926718682108
      vertex 5.564177356280581 0.18475053369353722 2.762926718682108
      vertex 6.375984735420248 0.5461923563750399 2.762926718682108
    endloop
  endfacet
  facet normal 0.0 0.0 1.0
    outer loop
      vertex 6.858859312716076 2.9521659456293805 2.762926718682108
      vertex 4.694969111896171 0.0 2.762926718682108
      vertex 5.564177356280581 0.18475053369353722 2.762926718682108
    endloop
  endfacet
  facet normal 0.0 0.0 1.0
    outer loop
      vertex 6.858859312716076 2.9521659456293805 2.762926718682108
      vertex 3.8063438686641606 0.0 2.762926718682108
      vertex 4.694969111896171 0.0 2.762926718682108
    endloop
  endfacet
  facet normal 0.0 0.0 1.0
    outer loop
      vertex 7.1989118319384895 7.27069691874634 2.762926718682108
      vertex 8.13381822303667 5.956257910944023 2.762926718682108
      vertex 7.689505601420663 6.725830767196268 2.762926718682108
    endloop
  endfacet
  facet normal -0.0 0.0 1.0
    outer loop
      vertex 5.508850811403095 9.0 2.762926718682108
      vertex 5.508850811403095 8.659947480777587 2.762926718682108
      vertex 7.1989118319384895 9.0 2.762926718682108
    endloop
  endfacet
  facet normal 0.0 0.0 1.0
    outer loop
      vertex 1.3024011486218428 9.0 2.762926718682108
      vertex 1.3024011486218428 7.27069691874634 2.762926718682108
      vertex 1.642453667844256 8.659947480777587 2.762926718682108
    endloop
  endfacet
  facet normal 0.0 0.0 1.0
    outer loop
      vertex 7.1989118319384895 9.0 2.762926718682108
      vertex 6.858859312716076 8.659947480777587 2.762926718682108
      vertex 7.1989118319384895 7.27069691874634 2.762926718682108
    endloop
  endfacet
  facet normal 0.0 0.0 1.0
    outer loop
      vertex 8.408427634934728 3.3436021007688965 2.762926718682108
      vertex 6.858859312716076 2.9521659456293805 2.762926718682108
      vertex 8.13381822303667 2.4984644739576445 2.762926718682108
    endloop
  endfacet
  facet normal 0.0 0.0 1.0
    outer loop
      vertex 3.8063438686641606 0.0 2.762926718682108
      vertex 1.642453667844256 2.9521659456293805 2.762926718682108
      vertex 2.9371322237545576 0.18475053369353722 2.762926718682108
    endloop
  endfacet
  facet normal 0.0 0.0 1.0
    outer loop
      vertex 0.811803978614475 6.725830767196268 2.762926718682108
      vertex 0.3674879564732776 5.956257910944023 2.762926718682108
      vertex 0.09288704588819831 5.11112538492056 2.762926718682108
    endloop
  endfacet
  facet normal 0.0 -0.0 1.0
    outer loop
      vertex 2.992462169157237 8.659947480777587 2.762926718682108
      vertex 2.992462169157237 9.0 2.762926718682108
      vertex 1.642453667844256 8.659947480777587 2.762926718682108
    endloop
  endfacet
  facet normal -0.0 0.0 1.0
    outer loop
      vertex 1.3024011486218428 9.0 2.762926718682108
      vertex 1.642453667844256 8.659947480777587 2.762926718682108
      vertex 2.992462169157237 9.0 2.762926718682108
    endloop
  endfacet
  facet normal -0.0 0.0 1.0
    outer loop
      vertex 0.811803978614475 6.725830767196268 2.762926718682108
      vertex 0.09288704588819831 5.11112538492056 2.762926718682108
      vertex 1.3024011486218428 7.27069691874634 2.762926718682108
    endloop
  endfacet
  facet normal 0.0 0.0 1.0
    outer loop
      vertex 5.508850811403095 8.659947480777587 2.762926718682108
      vertex 6.858859312716076 8.659947480777587 2.762926718682108
      vertex 7.1989118319384895 9.0 2.762926718682108
    endloop
  endfacet
  facet normal 0.0 0.0 1.0
    outer loop
      vertex 7.1989118319384895 7.27069691874634 2.762926718682108
      vertex 8.408427634934728 5.11112538492056 2.762926718682108
      vertex 8.13381822303667 5.956257910944023 2.762926718682108
    endloop
  endfacet
  facet normal 0.0 0.0 1.0
    outer loop
      vertex 7.1989118319384895 7.27069691874634 2.762926718682108
      vertex 8.501312980560332 4.227362892713431 2.762926718682108
      vertex 8.408427634934728 5.11112538492056 2.762926718682108
    endloop
  endfacet
  facet normal 0.0 0.0 1.0
    outer loop
      vertex 7.1989118319384895 7.27069691874634 2.762926718682108
      vertex 8.408427634934728 3.3436021007688965 2.762926718682108
      vertex 8.501312980560332 4.227362892713431 2.762926718682108
    endloop
  endfacet
  facet normal 0.0 0.0 1.0
    outer loop
      vertex 7.1989118319384895 7.27069691874634 2.762926718682108
      vertex 6.858859312716076 2.9521659456293805 2.762926718682108
      vertex 8.408427634934728 3.3436021007688965 2.762926718682108
    endloop
  endfacet
  facet normal 0.0 0.0 1.0
    outer loop
      vertex 6.858859312716076 8.659947480777587 2.762926718682108
      vertex 6.858859312716076 2.9521659456293805 2.762926718682108
      vertex 7.1989118319384895 7.27069691874634 2.762926718682108
    endloop
  endfacet
  facet normal 0.0 0.0 1.0
    outer loop
      vertex 6.858859312716076 2.9521659456293805 2.762926718682108
      vertex 1.642453667844256 2.9521659456293805 2.762926718682108
      vertex 3.8063438686641606 0.0 2.762926718682108
    endloop
  endfacet
  facet normal -1.0 0.0 0.0
    outer loop
      vertex 5.508850811403095 8.659947480777587 1.9127954206260744
      vertex 5.508850811403095 8.659947480777587 2.762926718682108
      vertex 5.508850811403095 9.0 2.762926718682108
    endloop
  endfacet
  facet normal -1.0 0.0 0.0
    outer loop
      vertex 5.508850811403095 8.659947480777587 1.9127954206260744
      vertex 5.508850811403095 9.0 2.762926718682108
      vertex 5.508850811403095 9.0 0.34005251922241325
    endloop
  endfacet
  facet normal -1.0 -0.0 -0.0
    outer loop
      vertex 5.508850811403095 8.659947480777587 1.9127954206260744
      vertex 5.508850811403095 9.0 0.34005251922241325
      vertex 5.508850811403095 2.9521659456293805 1.9127954206260744
    endloop
  endfacet
  facet normal -1.0 0.0 0.0
    outer loop
      vertex 5.508850811403095 9.0 0.34005251922241325
      vertex 5.508850811403095 2.9521659456293805 0.34005251922241325
      vertex 5.508850811403095 2.9521659456293805 1.9127954206260744
    endloop
  endfacet
  facet normal 0.0 -0.0 1.0
    outer loop
      vertex 5.508850811403095 2.9521659456293805 0.34005251922241325
      vertex 5.508850811403095 9.0 0.34005251922241325
      vertex 2.992462169157237 9.0 0.34005251922241325
    endloop
  endfacet
  facet normal -0.0 -0.0 1.0
    outer loop
      vertex 4.751281809079403 4.54909338220014 0.34005251922241325
      vertex 5.508850811403095 2.9521659456293805 0.34005251922241325
      vertex 2.992462169157237 9.0 0.34005251922241325
    endloop
  endfacet
  facet normal 0.0 0.0 1.0
    outer loop
      vertex 2.992462169157237 2.9521659456293805 0.34005251922241325
      vertex 3.6796743052538115 4.395018986265657 0.34005251922241325
      vertex 2.992462169157237 9.0 0.34005251922241325
    endloop
  endfacet
  facet normal 0.0 -0.0 1.0
    outer loop
      vertex 3.6796743052538115 4.395018986265657 0.34005251922241325
      vertex 3.86095630325128 4.677099352011033 0.34005251922241325
      vertex 2.992462169157237 9.0 0.34005251922241325
    endloop
  endfacet
  facet normal 0.0 -0.0 1.0
    outer loop
      vertex 3.86095630325128 4.677099352011033 0.34005251922241325
      vertex 4.165966410367823 4.816401866510494 0.34005251922241325
      vertex 2.992462169157237 9.0 0.34005251922241325
    endloop
  endfacet
  facet normal -0.0 -0.0 1.0
    outer loop
      vertex 4.165966410367823 4.816401866510494 0.34005251922241325
      vertex 4.49787467175486 4.768675495437629 0.34005251922241325
      vertex 2.992462169157237 9.0 0.34005251922241325
    endloop
  endfacet
  facet normal -0.0 -0.0 1.0
    outer loop
      vertex 4.49787467175486 4.768675495437629 0.34005251922241325
      vertex 4.751281809079403 4.54909338220014 0.34005251922241325
      vertex 2.992462169157237 9.0 0.34005251922241325
    endloop
  endfacet
  facet normal -0.0 -0.0 1.0
    outer loop
      vertex 4.845748398919389 4.227362892713431 0.34005251922241325
      vertex 5.508850811403095 2.9521659456293805 0.34005251922241325
      vertex 4.751281809079403 4.54909338220014 0.34005251922241325
    endloop
  endfacet
  facet normal 0.0 0.0 1.0
    outer loop
      vertex 4.751281809079403 3.9056324032267207 0.34005251922241325
      vertex 4.49787467175486 3.686048589726636 0.34005251922241325
      vertex 5.508850811403095 2.9521659456293805 0.34005251922241325
    endloop
  endfacet
  facet normal 0.0 0.0 1.0
    outer loop
      vertex 2.992462169157237 2.9521659456293805 0.34005251922241325
      vertex 5.508850811403095 2.9521659456293805 0.34005251922241325
      vertex 4.49787467175486 3.686048589726636 0.34005251922241325
    endloop
  endfacet
  facet normal 0.0 0.0 1.0
    outer loop
      vertex 2.992462169157237 2.9521659456293805 0.34005251922241325
      vertex 4.49787467175486 3.686048589726636 0.34005251922241325
      vertex 4.165966410367823 3.6383273194415584 0.34005251922241325
    endloop
  endfacet
  facet normal 0.0 0.0 1.0
    outer loop
      vertex 2.992462169157237 2.9521659456293805 0.34005251922241325
      vertex 4.165966410367823 3.6383273194415584 0.34005251922241325
      vertex 3.86095630325128 3.7776230328906357 0.34005251922241325
    endloop
  endfacet
  facet normal 0.0 0.0 1.0
    outer loop
      vertex 2.992462169157237 2.9521659456293805 0.34005251922241325
      vertex 3.6796743052538115 4.059706799161203 0.34005251922241325
      vertex 3.6796743052538115 4.395018986265657 0.34005251922241325
    endloop
  endfacet
  facet normal 0.0 0.0 1.0
    outer loop
      vertex 2.992462169157237 2.9521659456293805 0.34005251922241325
      vertex 3.86095630325128 3.7776230328906357 0.34005251922241325
      vertex 3.6796743052538115 4.059706799161203 0.34005251922241325
    endloop
  endfacet
  facet normal 0.0 0.0 1.0
    outer loop
      vertex 4.845748398919389 4.227362892713431 0.34005251922241325
      vertex 4.751281809079403 3.9056324032267207 0.34005251922241325
      vertex 5.508850811403095 2.9521659456293805 0.34005251922241325
    endloop
  endfacet
  facet normal 1.0 0.0 -0.0
    outer loop
      vertex 2.992462169157237 9.0 0.34005251922241325
      vertex 2.992462169157237 9.0 2.762926718682108
      vertex 2.992462169157237 8.659947480777587 2.762926718682108
    endloop
  endfacet
  facet normal 1.0 -0.0 0.0
    outer loop
      vertex 2.992462169157237 2.9521659456293805 1.9127954206260744
      vertex 2.992462169157237 9.0 0.34005251922241325
      vertex 2.992462169157237 8.659947480777587 1.9127954206260744
    endloop
  endfacet
  facet normal 1.0 -0.0 0.0
    outer loop
      vertex 2.992462169157237 8.659947480777587 1.9127954206260744
      vertex 2.992462169157237 9.0 0.34005251922241325
      vertex 2.992462169157237 8.659947480777587 2.762926718682108
    endloop
  endfacet
  facet normal 1.0 0.0 0.0
    outer loop
      vertex 2.992462169157237 2.9521659456293805 0.34005251922241325
      vertex 2.992462169157237 9.0 0.34005251922241325
      vertex 2.992462169157237 2.9521659456293805 1.9127954206260744
    endloop
  endfacet
  facet normal 0.0 -1.0 0.0
    outer loop
      vertex 2.992462169157237 8.659947480777587 1.9127954206260744
      vertex 2.992462169157237 8.659947480777587 2.762926718682108
      vertex 1.642453667844256 8.659947480777587 2.762926718682108
    endloop
  endfacet
  facet normal 0.0 -1.0 0.0
    outer loop
      vertex 1.642453667844256 8.659947480777587 1.9127954206260744
      vertex 2.992462169157237 8.659947480777587 1.9127954206260744
      vertex 1.642453667844256 8.659947480777587 2.762926718682108
    endloop
  endfacet
  facet normal 1.0 0.0 -0.0
    outer loop
      vertex 1.642453667844256 8.659947480777587 1.9127954206260744
      vertex 1.642453667844256 8.659947480777587 2.762926718682108
      vertex 1.642453667844256 2.9521659456293805 2.762926718682108
    endloop
  endfacet
  facet normal 1.0 0.0 0.0
    outer loop
      vertex 1.642453667844256 2.9521659456293805 1.9127954206260744
      vertex 1.642453667844256 8.659947480777587 1.9127954206260744
      vertex 1.642453667844256 2.9521659456293805 2.762926718682108
    endloop
  endfacet
  facet normal 0.0 1.0 0.0
    outer loop
      vertex 6.858859312716076 2.9521659456293805 2.762926718682108
      vertex 6.858859312716076 2.9521659456293805 1.9127954206260744
      vertex 1.642453667844256 2.9521659456293805 2.762926718682108
    endloop
  endfacet
  facet normal 0.0 1.0 0.0
    outer loop
      vertex 1.642453667844256 2.9521659456293805 2.762926718682108
      vertex 6.858859312716076 2.9521659456293805 1.9127954206260744
      vertex 5.508850811403095 2.9521659456293805 1.9127954206260744
    endloop
  endfacet
  facet normal 0.0 1.0 0.0
    outer loop
      vertex 1.642453667844256 2.9521659456293805 2.762926718682108
      vertex 5.508850811403095 2.9521659456293805 1.9127954206260744
      vertex 5.508850811403095 2.9521659456293805 0.34005251922241325
    endloop
  endfacet
  facet normal 0.0 1.0 0.0
    outer loop
      vertex 2.992462169157237 2.9521659456293805 1.9127954206260744
      vertex 5.508850811403095 2.9521659456293805 0.34005251922241325
      vertex 2.992462169157237 2.9521659456293805 0.34005251922241325
    endloop
  endfacet
  facet normal 0.0 1.0 0.0
    outer loop
      vertex 1.642453667844256 2.9521659456293805 2.762926718682108
      vertex 5.508850811403095 2.9521659456293805 0.34005251922241325
      vertex 2.992462169157237 2.9521659456293805 1.9127954206260744
    endloop
  endfacet
  facet normal 0.0 1.0 0.0
    outer loop
      vertex 1.642453667844256 2.9521659456293805 1.9127954206260744
      vertex 1.642453667844256 2.9521659456293805 2.762926718682108
      vertex 2.992462169157237 2.9521659456293805 1.9127954206260744
    endloop
  endfacet
  facet normal -1.0 -0.0 -0.0
    outer loop
      vertex 6.858859312716076 8.659947480777587 2.762926718682108
      vertex 6.858859312716076 8.659947480777587 1.9127954206260744
      vertex 6.858859312716076 2.9521659456293805 2.762926718682108
    endloop
  endfacet
  facet normal -1.0 0.0 0.0
    outer loop
      vertex 6.858859312716076 2.9521659456293805 2.762926718682108
      vertex 6.858859312716076 8.659947480777587 1.9127954206260744
      vertex 6.858859312716076 2.9521659456293805 1.9127954206260744
    endloop
  endfacet
  facet normal 0.0 -1.0 0.0
    outer loop
      vertex 6.858859312716076 8.659947480777587 1.9127954206260744
      vertex 6.858859312716076 8.659947480777587 2.762926718682108
      vertex 5.508850811403095 8.659947480777587 2.762926718682108
    endloop
  endfacet
  facet normal 0.0 -1.0 0.0
    outer loop
      vertex 5.508850811403095 8.659947480777587 1.9127954206260744
      vertex 6.858859312716076 8.659947480777587 1.9127954206260744
      vertex 5.508850811403095 8.659947480777587 2.762926718682108
    endloop
  endfacet
  facet normal 0.0 -0.0 1.0
    outer loop
      vertex 6.087365159730225 8.201267640224435 1.9127954206260744
      vertex 6.858859312716076 8.659947480777587 1.9127954206260744
      vertex 5.508850811403095 8.659947480777587 1.9127954206260744
    endloop
  endfacet
  facet normal -0.0 -0.0 1.0
    outer loop
      vertex 6.501804167532541 3.650123741333384 1.9127954206260744
      vertex 6.858859312716076 2.9521659456293805 1.9127954206260744
      vertex 5.508850811403095 8.659947480777587 1.9127954206260744
    endloop
  endfacet
  facet normal 0.0 0.0 1.0
    outer loop
      vertex 5.508850811403095 2.9521659456293805 1.9127954206260744
      vertex 5.9492188237961185 3.650123741333384 1.9127954206260744
      vertex 5.508850811403095 8.659947480777587 1.9127954206260744
    endloop
  endfacet
  facet normal 0.0 -0.0 1.0
    outer loop
      vertex 5.9492188237961185 3.650123741333384 1.9127954206260744
      vertex 6.087365159730225 3.8893999962216386 1.9127954206260744
      vertex 5.508850811403095 8.659947480777587 1.9127954206260744
    endloop
  endfacet
  facet normal 0.0 -0.0 1.0
    outer loop
      vertex 6.087365159730225 3.8893999962216386 1.9127954206260744
      vertex 6.363657831598435 3.8893999962216386 1.9127954206260744
      vertex 5.508850811403095 8.659947480777587 1.9127954206260744
    endloop
  endfacet
  facet normal 0.0 0.0 1.0
    outer loop
      vertex 6.363657831598435 3.410847486445129 1.9127954206260744
      vertex 6.087365159730225 3.410847486445129 1.9127954206260744
      vertex 6.858859312716076 2.9521659456293805 1.9127954206260744
    endloop
  endfacet
  facet normal -0.0 -0.0 1.0
    outer loop
      vertex 6.363657831598435 3.8893999962216386 1.9127954206260744
      vertex 6.501804167532541 3.650123741333384 1.9127954206260744
      vertex 5.508850811403095 8.659947480777587 1.9127954206260744
    endloop
  endfacet
  facet normal 0.0 0.0 1.0
    outer loop
      vertex 6.087365159730225 8.201267640224435 1.9127954206260744
      vertex 6.363657831598435 8.201267640224435 1.9127954206260744
      vertex 6.858859312716076 8.659947480777587 1.9127954206260744
    endloop
  endfacet
  facet normal 0.0 0.0 1.0
    outer loop
      vertex 5.508850811403095 2.9521659456293805 1.9127954206260744
      vertex 6.087365159730225 3.410847486445129 1.9127954206260744
      vertex 5.9492188237961185 3.650123741333384 1.9127954206260744
    endloop
  endfacet
  facet normal 0.0 0.0 1.0
    outer loop
      vertex 5.508850811403095 2.9521659456293805 1.9127954206260744
      vertex 6.858859312716076 2.9521659456293805 1.9127954206260744
      vertex 6.087365159730225 3.410847486445129 1.9127954206260744
    endloop
  endfacet
  facet normal 0.0 0.0 1.0
    outer loop
      vertex 6.858859312716076 2.9521659456293805 1.9127954206260744
      vertex 5.9492188237961185 7.9619896850735845 1.9127954206260744
      vertex 5.508850811403095 8.659947480777587 1.9127954206260744
    endloop
  endfacet
  facet normal 0.0 -0.0 1.0
    outer loop
      vertex 5.9492188237961185 7.9619896850735845 1.9127954206260744
      vertex 6.087365159730225 8.201267640224435 1.9127954206260744
      vertex 5.508850811403095 8.659947480777587 1.9127954206260744
    endloop
  endfacet
  facet normal 0.0 0.0 1.0
    outer loop
      vertex 6.501804167532541 7.9619896850735845 1.9127954206260744
      vertex 6.363657831598435 7.722711729922732 1.9127954206260744
      vertex 6.858859312716076 2.9521659456293805 1.9127954206260744
    endloop
  endfacet
  facet normal 0.0 -0.0 1.0
    outer loop
      vertex 6.501804167532541 7.9619896850735845 1.9127954206260744
      vertex 6.858859312716076 8.659947480777587 1.9127954206260744
      vertex 6.363657831598435 8.201267640224435 1.9127954206260744
    endloop
  endfacet
  facet normal 0.0 -0.0 1.0
    outer loop
      vertex 6.858859312716076 2.9521659456293805 1.9127954206260744
      vertex 6.858859312716076 8.659947480777587 1.9127954206260744
      vertex 6.501804167532541 7.9619896850735845 1.9127954206260744
    endloop
  endfacet
  facet normal 0.0 0.0 1.0
    outer loop
      vertex 6.858859312716076 2.9521659456293805 1.9127954206260744
      vertex 6.087365159730225 7.722711729922732 1.9127954206260744
      vertex 5.9492188237961185 7.9619896850735845 1.9127954206260744
    endloop
  endfacet
  facet normal 0.0 0.0 1.0
    outer loop
      vertex 6.858859312716076 2.9521659456293805 1.9127954206260744
      vertex 6.363657831598435 7.722711729922732 1.9127954206260744
      vertex 6.087365159730225 7.722711729922732 1.9127954206260744
    endloop
  endfacet
  facet normal 0.0 0.0 1.0
    outer loop
      vertex 6.501804167532541 3.650123741333384 1.9127954206260744
      vertex 6.363657831598435 3.410847486445129 1.9127954206260744
      vertex 6.858859312716076 2.9521659456293805 1.9127954206260744
    endloop
  endfacet
  facet normal 0.0 -0.0 1.0
    outer loop
      vertex 2.1376551489618953 8.201267640224435 1.9127954206260744
      vertex 2.992462169157237 8.659947480777587 1.9127954206260744
      vertex 1.642453667844256 8.659947480777587 1.9127954206260744
    endloop
  endfacet
  facet normal -0.0 -0.0 1.0
    outer loop
      vertex 2.413947820830106 3.8893999962216386 1.9127954206260744
      vertex 2.992462169157237 2.9521659456293805 1.9127954206260744
      vertex 1.642453667844256 8.659947480777587 1.9127954206260744
    endloop
  endfacet
  facet normal 0.0 0.0 1.0
    outer loop
      vertex 1.642453667844256 2.9521659456293805 1.9127954206260744
      vertex 1.9995088130277898 3.650123741333384 1.9127954206260744
      vertex 1.642453667844256 8.659947480777587 1.9127954206260744
    endloop
  endfacet
  facet normal 0.0 -0.0 1.0
    outer loop
      vertex 1.9995088130277898 3.650123741333384 1.9127954206260744
      vertex 2.1376551489618953 3.8893999962216386 1.9127954206260744
      vertex 1.642453667844256 8.659947480777587 1.9127954206260744
    endloop
  endfacet
  facet normal 0.0 -0.0 1.0
    outer loop
      vertex 2.1376551489618953 3.8893999962216386 1.9127954206260744
      vertex 2.413947820830106 3.8893999962216386 1.9127954206260744
      vertex 1.642453667844256 8.659947480777587 1.9127954206260744
    endloop
  endfacet
  facet normal -0.0 -0.0 1.0
    outer loop
      vertex 2.5520941567642113 3.650123741333384 1.9127954206260744
      vertex 2.992462169157237 2.9521659456293805 1.9127954206260744
      vertex 2.413947820830106 3.8893999962216386 1.9127954206260744
    endloop
  endfacet
  facet normal 0.0 0.0 1.0
    outer loop
      vertex 2.413947820830106 3.410847486445129 1.9127954206260744
      vertex 2.1376551489618953 3.410847486445129 1.9127954206260744
      vertex 2.992462169157237 2.9521659456293805 1.9127954206260744
    endloop
  endfacet
  facet normal 0.0 0.0 1.0
    outer loop
      vertex 2.1376551489618953 8.201267640224435 1.9127954206260744
      vertex 2.413947820830106 8.201267640224435 1.9127954206260744
      vertex 2.992462169157237 8.659947480777587 1.9127954206260744
    endloop
  endfacet
  facet normal 0.0 0.0 1.0
    outer loop
      vertex 1.642453667844256 2.9521659456293805 1.9127954206260744
      vertex 2.1376551489618953 3.410847486445129 1.9127954206260744
      vertex 1.9995088130277898 3.650123741333384 1.9127954206260744
    endloop
  endfacet
  facet normal 0.0 0.0 1.0
    outer loop
      vertex 1.642453667844256 2.9521659456293805 1.9127954206260744
      vertex 2.992462169157237 2.9521659456293805 1.9127954206260744
      vertex 2.1376551489618953 3.410847486445129 1.9127954206260744
    endloop
  endfacet
  facet normal 0.0 0.0 1.0
    outer loop
      vertex 2.992462169157237 2.9521659456293805 1.9127954206260744
      vertex 1.9995088130277898 7.9619896850735845 1.9127954206260744
      vertex 1.642453667844256 8.659947480777587 1.9127954206260744
    endloop
  endfacet
  facet normal 0.0 -0.0 1.0
    outer loop
      vertex 1.9995088130277898 7.9619896850735845 1.9127954206260744
      vertex 2.1376551489618953 8.201267640224435 1.9127954206260744
      vertex 1.642453667844256 8.659947480777587 1.9127954206260744
    endloop
  endfacet
  facet normal 0.0 0.0 1.0
    outer loop
      vertex 2.5520941567642113 7.9619896850735845 1.9127954206260744
      vertex 2.413947820830106 7.722711729922732 1.9127954206260744
      vertex 2.992462169157237 2.9521659456293805 1.9127954206260744
    endloop
  endfacet
  facet normal 0.0 -0.0 1.0
    outer loop
      vertex 2.5520941567642113 7.9619896850735845 1.9127954206260744
      vertex 2.992462169157237 8.659947480777587 1.9127954206260744
      vertex 2.413947820830106 8.201267640224435 1.9127954206260744
    endloop
  endfacet
  facet normal 0.0 -0.0 1.0
    outer loop
      vertex 2.992462169157237 2.9521659456293805 1.9127954206260744
      vertex 2.992462169157237 8.659947480777587 1.9127954206260744
      vertex 2.5520941567642113 7.9619896850735845 1.9127954206260744
    endloop
  endfacet
  facet normal 0.0 0.0 1.0
    outer loop
      vertex 2.992462169157237 2.9521659456293805 1.9127954206260744
      vertex 2.1376551489618953 7.722711729922732 1.9127954206260744
      vertex 1.9995088130277898 7.9619896850735845 1.9127954206260744
    endloop
  endfacet
  facet normal 0.0 0.0 1.0
    outer loop
      vertex 2.992462169157237 2.9521659456293805 1.9127954206260744
      vertex 2.413947820830106 7.722711729922732 1.9127954206260744
      vertex 2.1376551489618953 7.722711729922732 1.9127954206260744
    endloop
  endfacet
  facet normal 0.0 0.0 1.0
    outer loop
      vertex 2.5520941567642113 3.650123741333384 1.9127954206260744
      vertex 2.413947820830106 3.410847486445129 1.9127954206260744
      vertex 2.992462169157237 2.9521659456293805 1.9127954206260744
    endloop
  endfacet
  facet normal 0.8660252066842795 -0.5000003413873344 0.0
    outer loop
      vertex 6.087365159730225 3.8893999962216386 0.8926378629588347
      vertex 6.087365159730225 3.8893999962216386 1.9127954206260744
      vertex 5.9492188237961185 3.650123741333384 1.9127954206260744
    endloop
  endfacet
  facet normal 0.8660252066842795 -0.5000003413873344 0.0
    outer loop
      vertex 5.9492188237961185 3.650123741333384 0.8926378629588347
      vertex 6.087365159730225 3.8893999962216386 0.8926378629588347
      vertex 5.9492188237961185 3.650123741333384 1.9127954206260744
    endloop
  endfacet
  facet normal 0.8660252066842795 0.5000003413873344 0.0
    outer loop
      vertex 5.9492188237961185 3.650123741333384 1.9127954206260744
      vertex 6.087365159730225 3.410847486445129 1.9127954206260744
      vertex 6.087365159730225 3.410847486445129 0.8926378629588347
    endloop
  endfacet
  facet normal 0.8660252066842795 0.5000003413873344 -0.0
    outer loop
      vertex 5.9492188237961185 3.650123741333384 0.8926378629588347
      vertex 5.9492188237961185 3.650123741333384 1.9127954206260744
      vertex 6.087365159730225 3.410847486445129 0.8926378629588347
    endloop
  endfacet
  facet normal 0.0 1.0 0.0
    outer loop
      vertex 6.363657831598435 3.410847486445129 1.9127954206260744
      vertex 6.363657831598435 3.410847486445129 0.8926378629588347
      vertex 6.087365159730225 3.410847486445129 1.9127954206260744
    endloop
  endfacet
  facet normal 0.0 1.0 0.0
    outer loop
      vertex 6.087365159730225 3.410847486445129 1.9127954206260744
      vertex 6.363657831598435 3.410847486445129 0.8926378629588347
      vertex 6.087365159730225 3.410847486445129 0.8926378629588347
    endloop
  endfacet
  facet normal -0.866025206684281 0.500000341387332 0.0
    outer loop
      vertex 6.501804167532541 3.650123741333384 1.9127954206260744
      vertex 6.501804167532541 3.650123741333384 0.8926378629588347
      vertex 6.363657831598435 3.410847486445129 1.9127954206260744
    endloop
  endfacet
  facet normal -0.866025206684281 0.500000341387332 0.0
    outer loop
      vertex 6.363657831598435 3.410847486445129 1.9127954206260744
      vertex 6.501804167532541 3.650123741333384 0.8926378629588347
      vertex 6.363657831598435 3.410847486445129 0.8926378629588347
    endloop
  endfacet
  facet normal -0.866025206684281 -0.500000341387332 -0.0
    outer loop
      vertex 6.501804167532541 3.650123741333384 1.9127954206260744
      vertex 6.363657831598435 3.8893999962216386 1.9127954206260744
      vertex 6.501804167532541 3.650123741333384 0.8926378629588347
    endloop
  endfacet
  facet normal -0.866025206684281 -0.500000341387332 0.0
    outer loop
      vertex 6.501804167532541 3.650123741333384 0.8926378629588347
      vertex 6.363657831598435 3.8893999962216386 1.9127954206260744
      vertex 6.363657831598435 3.8893999962216386 0.8926378629588347
    endloop
  endfacet
  facet normal 0.0 -1.0 0.0
    outer loop
      vertex 6.363657831598435 3.8893999962216386 0.8926378629588347
      vertex 6.363657831598435 3.8893999962216386 1.9127954206260744
      vertex 6.087365159730225 3.8893999962216386 1.9127954206260744
    endloop
  endfacet
  facet normal 0.0 -1.0 0.0
    outer loop
      vertex 6.087365159730225 3.8893999962216386 0.8926378629588347
      vertex 6.363657831598435 3.8893999962216386 0.8926378629588347
      vertex 6.087365159730225 3.8893999962216386 1.9127954206260744
    endloop
  endfacet
  facet normal 0.866026745136672 0.49999767670258427 0.0
    outer loop
      vertex 5.9492188237961185 7.9619896850735845 1.9127954206260744
      vertex 6.087365159730225 7.722711729922732 1.9127954206260744
      vertex 6.087365159730225 7.722711729922732 0.8926378629588347
    endloop
  endfacet
  facet normal 0.866026745136672 0.49999767670258427 -0.0
    outer loop
      vertex 5.9492188237961185 7.9619896850735845 0.8926378629588347
      vertex 5.9492188237961185 7.9619896850735845 1.9127954206260744
      vertex 6.087365159730225 7.722711729922732 0.8926378629588347
    endloop
  endfacet
  facet normal 0.8660267451366702 -0.49999767670258705 0.0
    outer loop
      vertex 6.087365159730225 8.201267640224435 0.8926378629588347
      vertex 6.087365159730225 8.201267640224435 1.9127954206260744
      vertex 5.9492188237961185 7.9619896850735845 1.9127954206260744
    endloop
  endfacet
  facet normal 0.8660267451366702 -0.49999767670258705 0.0
    outer loop
      vertex 5.9492188237961185 7.9619896850735845 0.8926378629588347
      vertex 6.087365159730225 8.201267640224435 0.8926378629588347
      vertex 5.9492188237961185 7.9619896850735845 1.9127954206260744
    endloop
  endfacet
  facet normal 0.0 1.0 0.0
    outer loop
      vertex 6.363657831598435 7.722711729922732 1.9127954206260744
      vertex 6.363657831598435 7.722711729922732 0.8926378629588347
      vertex 6.087365159730225 7.722711729922732 1.9127954206260744
    endloop
  endfacet
  facet normal 0.0 1.0 0.0
    outer loop
      vertex 6.087365159730225 7.722711729922732 1.9127954206260744
      vertex 6.363657831598435 7.722711729922732 0.8926378629588347
      vertex 6.087365159730225 7.722711729922732 0.8926378629588347
    endloop
  endfacet
  facet normal -0.8660267451366733 0.49999767670258194 0.0
    outer loop
      vertex 6.501804167532541 7.9619896850735845 1.9127954206260744
      vertex 6.501804167532541 7.9619896850735845 0.8926378629588347
      vertex 6.363657831598435 7.722711729922732 1.9127954206260744
    endloop
  endfacet
  facet normal -0.8660267451366733 0.49999767670258194 0.0
    outer loop
      vertex 6.363657831598435 7.722711729922732 1.9127954206260744
      vertex 6.501804167532541 7.9619896850735845 0.8926378629588347
      vertex 6.363657831598435 7.722711729922732 0.8926378629588347
    endloop
  endfacet
  facet normal -0.8660267451366715 -0.4999976767025847 -0.0
    outer loop
      vertex 6.501804167532541 7.9619896850735845 1.9127954206260744
      vertex 6.363657831598435 8.201267640224435 1.9127954206260744
      vertex 6.501804167532541 7.9619896850735845 0.8926378629588347
    endloop
  endfacet
  facet normal -0.8660267451366715 -0.4999976767025847 0.0
    outer loop
      vertex 6.501804167532541 7.9619896850735845 0.8926378629588347
      vertex 6.363657831598435 8.201267640224435 1.9127954206260744
      vertex 6.363657831598435 8.201267640224435 0.8926378629588347
    endloop
  endfacet
  facet normal 0.0 -1.0 0.0
    outer loop
      vertex 6.363657831598435 8.201267640224435 0.8926378629588347
      vertex 6.363657831598435 8.201267640224435 1.9127954206260744
      vertex 6.087365159730225 8.201267640224435 1.9127954206260744
    endloop
  endfacet
  facet normal 0.0 -1.0 0.0
    outer loop
      vertex 6.087365159730225 8.201267640224435 0.8926378629588347
      vertex 6.363657831598435 8.201267640224435 0.8926378629588347
      vertex 6.087365159730225 8.201267640224435 1.9127954206260744
    endloop
  endfacet
  facet normal 0.8660252066842806 -0.5000003413873326 0.0
    outer loop
      vertex 2.1376551489618953 3.8893999962216386 0.8926378629588347
      vertex 2.1376551489618953 3.8893999962216386 1.9127954206260744
      vertex 1.9995088130277898 3.650123741333384 1.9127954206260744
    endloop
  endfacet
  facet normal 0.8660252066842806 -0.5000003413873326 0.0
    outer loop
      vertex 1.9995088130277898 3.650123741333384 0.8926378629588347
      vertex 2.1376551489618953 3.8893999962216386 0.8926378629588347
      vertex 1.9995088130277898 3.650123741333384 1.9127954206260744
    endloop
  endfacet
  facet normal 0.8660252066842806 0.5000003413873326 0.0
    outer loop
      vertex 1.9995088130277898 3.650123741333384 1.9127954206260744
      vertex 2.1376551489618953 3.410847486445129 1.9127954206260744
      vertex 2.1376551489618953 3.410847486445129 0.8926378629588347
    endloop
  endfacet
  facet normal 0.8660252066842806 0.5000003413873326 -0.0
    outer loop
      vertex 1.9995088130277898 3.650123741333384 0.8926378629588347
      vertex 1.9995088130277898 3.650123741333384 1.9127954206260744
      vertex 2.1376551489618953 3.410847486445129 0.8926378629588347
    endloop
  endfacet
  facet normal 0.0 1.0 0.0
    outer loop
      vertex 2.413947820830106 3.410847486445129 1.9127954206260744
      vertex 2.413947820830106 3.410847486445129 0.8926378629588347
      vertex 2.1376551489618953 3.410847486445129 1.9127954206260744
    endloop
  endfacet
  facet normal 0.0 1.0 0.0
    outer loop
      vertex 2.1376551489618953 3.410847486445129 1.9127954206260744
      vertex 2.413947820830106 3.410847486445129 0.8926378629588347
      vertex 2.1376551489618953 3.410847486445129 0.8926378629588347
    endloop
  endfacet
  facet normal -0.866025206684281 0.500000341387332 0.0
    outer loop
      vertex 2.5520941567642113 3.650123741333384 1.9127954206260744
      vertex 2.5520941567642113 3.650123741333384 0.8926378629588347
      vertex 2.413947820830106 3.410847486445129 1.9127954206260744
    endloop
  endfacet
  facet normal -0.866025206684281 0.500000341387332 0.0
    outer loop
      vertex 2.413947820830106 3.410847486445129 1.9127954206260744
      vertex 2.5520941567642113 3.650123741333384 0.8926378629588347
      vertex 2.413947820830106 3.410847486445129 0.8926378629588347
    endloop
  endfacet
  facet normal -0.866025206684281 -0.500000341387332 -0.0
    outer loop
      vertex 2.5520941567642113 3.650123741333384 1.9127954206260744
      vertex 2.413947820830106 3.8893999962216386 1.9127954206260744
      vertex 2.5520941567642113 3.650123741333384 0.8926378629588347
    endloop
  endfacet
  facet normal -0.866025206684281 -0.500000341387332 0.0
    outer loop
      vertex 2.5520941567642113 3.650123741333384 0.8926378629588347
      vertex 2.413947820830106 3.8893999962216386 1.9127954206260744
      vertex 2.413947820830106 3.8893999962216386 0.8926378629588347
    endloop
  endfacet
  facet normal 0.0 -1.0 0.0
    outer loop
      vertex 2.413947820830106 3.8893999962216386 0.8926378629588347
      vertex 2.413947820830106 3.8893999962216386 1.9127954206260744
      vertex 2.1376551489618953 3.8893999962216386 1.9127954206260744
    endloop
  endfacet
  facet normal 0.0 -1.0 0.0
    outer loop
      vertex 2.1376551489618953 3.8893999962216386 0.8926378629588347
      vertex 2.413947820830106 3.8893999962216386 0.8926378629588347
      vertex 2.1376551489618953 3.8893999962216386 1.9127954206260744
    endloop
  endfacet
  facet normal 0.8660267451366712 -0.49999767670258527 0.0
    outer loop
      vertex 2.1376551489618953 8.201267640224435 0.8926378629588347
      vertex 2.1376551489618953 8.201267640224435 1.9127954206260744
      vertex 1.9995088130277898 7.9619896850735845 1.9127954206260744
    endloop
  endfacet
  facet normal 0.8660267451366712 -0.49999767670258527 0.0
    outer loop
      vertex 1.9995088130277898 7.9619896850735845 0.8926378629588347
      vertex 2.1376551489618953 8.201267640224435 0.8926378629588347
      vertex 1.9995088130277898 7.9619896850735845 1.9127954206260744
    endloop
  endfacet
  facet normal 0.8660267451366728 0.49999767670258244 0.0
    outer loop
      vertex 1.9995088130277898 7.9619896850735845 1.9127954206260744
      vertex 2.1376551489618953 7.722711729922732 1.9127954206260744
      vertex 2.1376551489618953 7.722711729922732 0.8926378629588347
    endloop
  endfacet
  facet normal 0.8660267451366728 0.49999767670258244 -0.0
    outer loop
      vertex 1.9995088130277898 7.9619896850735845 0.8926378629588347
      vertex 1.9995088130277898 7.9619896850735845 1.9127954206260744
      vertex 2.1376551489618953 7.722711729922732 0.8926378629588347
    endloop
  endfacet
  facet normal 0.0 1.0 0.0
    outer loop
      vertex 2.413947820830106 7.722711729922732 1.9127954206260744
      vertex 2.413947820830106 7.722711729922732 0.8926378629588347
      vertex 2.1376551489618953 7.722711729922732 1.9127954206260744
    endloop
  endfacet
  facet normal 0.0 1.0 0.0
    outer loop
      vertex 2.1376551489618953 7.722711729922732 1.9127954206260744
      vertex 2.413947820830106 7.722711729922732 0.8926378629588347
      vertex 2.1376551489618953 7.722711729922732 0.8926378629588347
    endloop
  endfacet
  facet normal -0.8660267451366733 0.49999767670258194 0.0
    outer loop
      vertex 2.5520941567642113 7.9619896850735845 1.9127954206260744
      vertex 2.5520941567642113 7.9619896850735845 0.8926378629588347
      vertex 2.413947820830106 7.722711729922732 1.9127954206260744
    endloop
  endfacet
  facet normal -0.8660267451366733 0.49999767670258194 0.0
    outer loop
      vertex 2.413947820830106 7.722711729922732 1.9127954206260744
      vertex 2.5520941567642113 7.9619896850735845 0.8926378629588347
      vertex 2.413947820830106 7.722711729922732 0.8926378629588347
    endloop
  endfacet
  facet normal -0.8660267451366715 -0.4999976767025847 -0.0
    outer loop
      vertex 2.5520941567642113 7.9619896850735845 1.9127954206260744
      vertex 2.413947820830106 8.201267640224435 1.9127954206260744
      vertex 2.5520941567642113 7.9619896850735845 0.8926378629588347
    endloop
  endfacet
  facet normal -0.8660267451366715 -0.4999976767025847 0.0
    outer loop
      vertex 2.5520941567642113 7.9619896850735845 0.8926378629588347
      vertex 2.413947820830106 8.201267640224435 1.9127954206260744
      vertex 2.413947820830106 8.201267640224435 0.8926378629588347
    endloop
  endfacet
  facet normal 0.0 -1.0 0.0
    outer loop
      vertex 2.413947820830106 8.201267640224435 0.8926378629588347
      vertex 2.413947820830106 8.201267640224435 1.9127954206260744
      vertex 2.1376551489618953 8.201267640224435 1.9127954206260744
    endloop
  endfacet
  facet normal 0.0 -1.0 0.0
    outer loop
      vertex 2.1376551489618953 8.201267640224435 0.8926378629588347
      vertex 2.413947820830106 8.201267640224435 0.8926378629588347
      vertex 2.1376551489618953 8.201267640224435 1.9127954206260744
    endloop
  endfacet
  facet normal 0.0 0.0 1.0
    outer loop
      vertex 6.087365159730225 3.410847486445129 0.8926378629588347
      vertex 6.363657831598435 3.410847486445129 0.8926378629588347
      vertex 6.501804167532541 3.650123741333384 0.8926378629588347
    endloop
  endfacet
  facet normal -0.0 0.0 1.0
    outer loop
      vertex 6.087365159730225 3.8893999962216386 0.8926378629588347
      vertex 6.087365159730225 3.410847486445129 0.8926378629588347
      vertex 6.363657831598435 3.8893999962216386 0.8926378629588347
    endloop
  endfacet
  facet normal 0.0 0.0 1.0
    outer loop
      vertex 6.363657831598435 3.8893999962216386 0.8926378629588347
      vertex 6.087365159730225 3.410847486445129 0.8926378629588347
      vertex 6.501804167532541 3.650123741333384 0.8926378629588347
    endloop
  endfacet
  facet normal -0.0 0.0 1.0
    outer loop
      vertex 5.9492188237961185 3.650123741333384 0.8926378629588347
      vertex 6.087365159730225 3.410847486445129 0.8926378629588347
      vertex 6.087365159730225 3.8893999962216386 0.8926378629588347
    endloop
  endfacet
  facet normal 0.0 0.0 1.0
    outer loop
      vertex 6.087365159730225 7.722711729922732 0.8926378629588347
      vertex 6.363657831598435 7.722711729922732 0.8926378629588347
      vertex 6.501804167532541 7.9619896850735845 0.8926378629588347
    endloop
  endfacet
  facet normal -0.0 0.0 1.0
    outer loop
      vertex 6.087365159730225 8.201267640224435 0.8926378629588347
      vertex 6.087365159730225 7.722711729922732 0.8926378629588347
      vertex 6.363657831598435 8.201267640224435 0.8926378629588347
    endloop
  endfacet
  facet normal 0.0 0.0 1.0
    outer loop
      vertex 6.363657831598435 8.201267640224435 0.8926378629588347
      vertex 6.087365159730225 7.722711729922732 0.8926378629588347
      vertex 6.501804167532541 7.9619896850735845 0.8926378629588347
    endloop
  endfacet
  facet normal -0.0 0.0 1.0
    outer loop
      vertex 5.9492188237961185 7.9619896850735845 0.8926378629588347
      vertex 6.087365159730225 7.722711729922732 0.8926378629588347
      vertex 6.087365159730225 8.201267640224435 0.8926378629588347
    endloop
  endfacet
  facet normal 0.0 0.0 1.0
    outer loop
      vertex 2.1376551489618953 3.410847486445129 0.8926378629588347
      vertex 2.413947820830106 3.410847486445129 0.8926378629588347
      vertex 2.5520941567642113 3.650123741333384 0.8926378629588347
    endloop
  endfacet
  facet normal -0.0 0.0 1.0
    outer loop
      vertex 2.1376551489618953 3.8893999962216386 0.8926378629588347
      vertex 2.1376551489618953 3.410847486445129 0.8926378629588347
      vertex 2.413947820830106 3.8893999962216386 0.8926378629588347
    endloop
  endfacet
  facet normal 0.0 0.0 1.0
    outer loop
      vertex 2.413947820830106 3.8893999962216386 0.8926378629588347
      vertex 2.1376551489618953 3.410847486445129 0.8926378629588347
      vertex 2.5520941567642113 3.650123741333384 0.8926378629588347
    endloop
  endfacet
  facet normal -0.0 0.0 1.0
    outer loop
      vertex 1.9995088130277898 3.650123741333384 0.8926378629588347
      vertex 2.1376551489618953 3.410847486445129 0.8926378629588347
      vertex 2.1376551489618953 3.8893999962216386 0.8926378629588347
    endloop
  endfacet
  facet normal 0.0 0.0 1.0
    outer loop
      vertex 2.1376551489618953 7.722711729922732 0.8926378629588347
      vertex 2.413947820830106 7.722711729922732 0.8926378629588347
      vertex 2.5520941567642113 7.9619896850735845 0.8926378629588347
    endloop
  endfacet
  facet normal -0.0 0.0 1.0
    outer loop
      vertex 2.1376551489618953 8.201267640224435 0.8926378629588347
      vertex 2.1376551489618953 7.722711729922732 0.8926378629588347
      vertex 2.413947820830106 8.201267640224435 0.8926378629588347
    endloop
  endfacet
  facet normal 0.0 0.0 1.0
    outer loop
      vertex 2.413947820830106 8.201267640224435 0.8926378629588347
      vertex 2.1376551489618953 7.722711729922732 0.8926378629588347
      vertex 2.5520941567642113 7.9619896850735845 0.8926378629588347
    endloop
  endfacet
  facet normal -0.0 0.0 1.0
    outer loop
      vertex 1.9995088130277898 7.9619896850735845 0.8926378629588347
      vertex 2.1376551489618953 7.722711729922732 0.8926378629588347
      vertex 2.1376551489618953 8.201267640224435 0.8926378629588347
    endloop
  endfacet
endsolid thingi10k_65643
