solid thingi10k_65644
  facet normal -1.0 0.0 0.0
    outer loop
      vertex 0.0 4.097558932673617 1.7805018554514929
      vertex 0.0 2.6619897508393704 2.5843788655239437
      vertex 0.0 5.2463686163633145 2.5843788655239437
    endloop
  endfacet
  facet normal -1.0 0.0 0.0
    outer loop
      vertex 0.0 2.6619897508393704 0.0
      vertex 0.0 2.6619897508393704 2.5843788655239437
      vertex 0.0 3.4504352359074035 1.3646172468634032
    endloop
  endfacet
  facet normal -1.0 0.0 0.0
    outer loop
      vertex 0.0 2.6619897508393704 0.0
      vertex 0.0 3.4504352359074035 1.3646172468634032
      vertex 0.0 3.4912461565647632 1.08077451846616
    endloop
  endfacet
  facet normal -1.0 0.0 0.0
    outer loop
      vertex 0.0 2.6619897508393704 0.0
      vertex 0.0 3.4912461565647632 1.08077451846616
      vertex 0.0 3.6790342816752073 0.8640556635447958
    endloop
  endfacet
  facet normal -1.0 0.0 0.0
    outer loop
      vertex 0.0 2.6619897508393704 0.0
      vertex 0.0 3.6790342816752073 0.8640556635447958
      vertex 0.0 5.2463686163633145 0.0
    endloop
  endfacet
  facet normal -1.0 0.0 0.0
    outer loop
      vertex 0.0 3.6790342816752073 0.8640556635447958
      vertex 0.0 3.9541791836013425 0.783265594628026
      vertex 0.0 5.2463686163633145 0.0
    endloop
  endfacet
  facet normal -1.0 0.0 -0.0
    outer loop
      vertex 0.0 4.229324085527478 0.8640556635447958
      vertex 0.0 5.2463686163633145 0.0
      vertex 0.0 3.9541791836013425 0.783265594628026
    endloop
  endfacet
  facet normal -1.0 0.0 -0.0
    outer loop
      vertex 0.0 4.4171090298639335 1.08077451846616
      vertex 0.0 5.2463686163633145 0.0
      vertex 0.0 4.229324085527478 0.8640556635447958
    endloop
  endfacet
  facet normal -1.0 0.0 0.0
    outer loop
      vertex 0.0 3.810799434529068 1.7805018554514929
      vertex 0.0 2.6619897508393704 2.5843788655239437
      vertex 0.0 4.097558932673617 1.7805018554514929
    endloop
  endfacet
  facet normal -1.0 0.0 0.0
    outer loop
      vertex 0.0 5.2463686163633145 0.0
      vertex 0.0 4.4171090298639335 1.08077451846616
      vertex 0.0 5.2463686163633145 2.5843788655239437
    endloop
  endfacet
  facet normal -1.0 0.0 0.0
    outer loop
      vertex 0.0 3.5695599929316133 1.6254709312599396
      vertex 0.0 2.6619897508393704 2.5843788655239437
      vertex 0.0 3.810799434529068 1.7805018554514929
    endloop
  endfacet
  facet normal -1.0 0.0 0.0
    outer loop
      vertex 0.0 4.4171090298639335 1.08077451846616
      vertex 0.0 4.457918360134299 1.3646172468634032
      vertex 0.0 5.2463686163633145 2.5843788655239437
    endloop
  endfacet
  facet normal -1.0 0.0 0.0
    outer loop
      vertex 0.0 4.457918360134299 1.3646172468634032
      vertex 0.0 4.338798374271072 1.6254709312599396
      vertex 0.0 5.2463686163633145 2.5843788655239437
    endloop
  endfacet
  facet normal -1.0 0.0 0.0
    outer loop
      vertex 0.0 4.338798374271072 1.6254709312599396
      vertex 0.0 4.097558932673617 1.7805018554514929
      vertex 0.0 5.2463686163633145 2.5843788655239437
    endloop
  endfacet
  facet normal -1.0 0.0 0.0
    outer loop
      vertex 0.0 3.4504352359074035 1.3646172468634032
      vertex 0.0 2.6619897508393704 2.5843788655239437
      vertex 0.0 3.5695599929316133 1.6254709312599396
    endloop
  endfacet
  facet normal 0.0 -1.0 0.0
    outer loop
      vertex 0.0 2.6619897508393704 2.5843788655239437
      vertex 0.0 2.6619897508393704 0.0
      vertex 1.2862127584378864 2.6619897508393704 0.0
    endloop
  endfacet
  facet normal -0.0 -1.0 -0.0
    outer loop
      vertex 1.2862127584378864 2.6619897508393704 2.5843788655239437
      vertex 0.0 2.6619897508393704 2.5843788655239437
      vertex 1.2862127584378864 2.6619897508393704 0.0
    endloop
  endfacet
  facet normal 0.0 0.0 -1.0
    outer loop
      vertex 0.0 2.6619897508393704 0.0
      vertex 0.0 5.2463686163633145 0.0
      vertex 1.2862127584378864 2.6619897508393704 0.0
    endloop
  endfacet
  facet normal 0.0 0.0 -1.0
    outer loop
      vertex 1.2862127584378864 2.6619897508393704 0.0
      vertex 0.0 5.2463686163633145 0.0
      vertex 1.2862127584378864 5.2463686163633145 0.0
    endloop
  endfacet
  facet normal 0.0 0.0 -1.0
    outer loop
      vertex 1.2862127584378864 2.6619897508393704 0.0
      vertex 1.2862127584378864 5.2463686163633145 0.0
      vertex 1.391804912528715 5.571348294751722 0.0
    endloop
  endfacet
  facet normal 0.0 0.0 -1.0
    outer loop
      vertex 1.2862127584378864 2.6619897508393704 0.0
      vertex 1.391804912528715 5.571348294751722 0.0
      vertex 1.807408022618837 6.291189256052306 0.0
    endloop
  endfacet
  facet normal 0.0 0.0 -1.0
    outer loop
      vertex 1.2862127584378864 2.6619897508393704 0.0
      vertex 1.807408022618837 6.291189256052306 0.0
      vertex 2.2663014666902277 6.800844672203569 0.0
    endloop
  endfacet
  facet normal 0.0 0.0 -1.0
    outer loop
      vertex 2.2663014666902277 6.800844672203569 0.0
      vertex 2.2663014666902277 8.418395476232549 0.0
      vertex 7.781763562466866 8.418395476232549 0.0
    endloop
  endfacet
  facet normal 0.0 -0.0 -1.0
    outer loop
      vertex 2.2663014666902277 6.800844672203569 0.0
      vertex 7.781763562466866 8.418395476232549 0.0
      vertex 1.2862127584378864 2.6619897508393704 0.0
    endloop
  endfacet
  facet normal 0.0 0.0 -1.0
    outer loop
      vertex 1.2862127584378864 2.6619897508393704 0.0
      vertex 7.781763562466866 8.418395476232549 0.0
      vertex 7.781763562466866 6.800844672203569 0.0
    endloop
  endfacet
  facet normal 0.0 0.0 -1.0
    outer loop
      vertex 1.2862127584378864 2.6619897508393704 0.0
      vertex 7.781763562466866 6.800844672203569 0.0
      vertex 8.240653825764268 6.291189256052306 0.0
    endloop
  endfacet
  facet normal 0.0 0.0 -1.0
    outer loop
      vertex 5.255274783530658 4.460510690934794 0.0
      vertex 8.240653825764268 6.291189256052306 0.0
      vertex 8.656253755080403 5.571348294751722 0.0
    endloop
  endfacet
  facet normal 0.0 0.0 -1.0
    outer loop
      vertex 5.492306061141544 3.6532397950167868 0.0
      vertex 8.91311715850857 4.780830535430288 0.0
      vertex 9.0 3.9541791836013425 0.0
    endloop
  endfacet
  facet normal 0.0 0.0 -1.0
    outer loop
      vertex 1.2862127584378864 2.6619897508393704 0.0
      vertex 9.0 3.9541791836013425 0.0
      vertex 8.91311715850857 3.1275294221593914 0.0
    endloop
  endfacet
  facet normal 0.0 0.0 -1.0
    outer loop
      vertex 1.2862127584378864 2.6619897508393704 0.0
      vertex 8.91311715850857 3.1275294221593914 0.0
      vertex 8.656253755080403 2.3370068916769746 0.0
    endloop
  endfacet
  facet normal 0.0 0.0 -1.0
    outer loop
      vertex 1.807408022618837 1.6171643399893971 0.0
      vertex 3.7953917653295632 0.1728114507863581 0.0
      vertex 2.363590210284502 0.9994628026153028 0.0
    endloop
  endfacet
  facet normal 0.0 0.0 -1.0
    outer loop
      vertex 1.391804912528715 2.3370068916769746 0.0
      vertex 5.43963244389468 0.0 0.0
      vertex 4.608432585262413 0.0 0.0
    endloop
  endfacet
  facet normal -0.0 0.0 -1.0
    outer loop
      vertex 4.489948754196854 4.111000883548329 0.0
      vertex 1.2862127584378864 2.6619897508393704 0.0
      vertex 4.659515815515109 4.374852447428873 0.0
    endloop
  endfacet
  facet normal 0.0 0.0 -1.0
    outer loop
      vertex 1.391804912528715 2.3370068916769746 0.0
      vertex 7.0120162572892735 0.5108959180067147 0.0
      vertex 6.252670083053542 0.1728114507863581 0.0
    endloop
  endfacet
  facet normal 0.0 0.0 -1.0
    outer loop
      vertex 3.7953917653295632 0.1728114507863581 0.0
      vertex 3.036048771867821 0.5108959180067147 0.0
      vertex 2.363590210284502 0.9994628026153028 0.0
    endloop
  endfacet
  facet normal 0.0 0.0 -1.0
    outer loop
      vertex 1.391804912528715 2.3370068916769746 0.0
      vertex 6.252670083053542 0.1728114507863581 0.0
      vertex 5.43963244389468 0.0 0.0
    endloop
  endfacet
  facet normal 0.0 0.0 -1.0
    outer loop
      vertex 4.608432585262413 0.0 0.0
      vertex 3.7953917653295632 0.1728114507863581 0.0
      vertex 1.807408022618837 1.6171643399893971 0.0
    endloop
  endfacet
  facet normal -0.0 0.0 -1.0
    outer loop
      vertex 7.684479590033574 0.9994628026153028 0.0
      vertex 7.0120162572892735 0.5108959180067147 0.0
      vertex 1.391804912528715 2.3370068916769746 0.0
    endloop
  endfacet
  facet normal 0.0 0.0 -1.0
    outer loop
      vertex 1.391804912528715 2.3370068916769746 0.0
      vertex 4.608432585262413 0.0 0.0
      vertex 1.807408022618837 1.6171643399893971 0.0
    endloop
  endfacet
  facet normal 0.0 0.0 -1.0
    outer loop
      vertex 5.255274783530658 4.460510690934794 0.0
      vertex 8.656253755080403 5.571348294751722 0.0
      vertex 5.492306061141544 4.255118572185898 0.0
    endloop
  endfacet
  facet normal 0.0 -0.0 -1.0
    outer loop
      vertex 5.492306061141544 3.6532397950167868 0.0
      vertex 9.0 3.9541791836013425 0.0
      vertex 5.255274783530658 3.4478460858808977 0.0
    endloop
  endfacet
  facet normal 0.0 0.0 -1.0
    outer loop
      vertex 1.2862127584378864 2.6619897508393704 0.0
      vertex 4.659515815515109 3.533502738999823 0.0
      vertex 4.94481533839901 3.403208694115568 0.0
    endloop
  endfacet
  facet normal 0.0 0.0 -1.0
    outer loop
      vertex 1.2862127584378864 2.6619897508393704 0.0
      vertex 4.94481533839901 3.403208694115568 0.0
      vertex 9.0 3.9541791836013425 0.0
    endloop
  endfacet
  facet normal 0.0 0.0 -1.0
    outer loop
      vertex 4.94481533839901 3.403208694115568 0.0
      vertex 5.255274783530658 3.4478460858808977 0.0
      vertex 9.0 3.9541791836013425 0.0
    endloop
  endfacet
  facet normal 0.0 0.0 -1.0
    outer loop
      vertex 5.492306061141544 4.255118572185898 0.0
      vertex 8.91311715850857 4.780830535430288 0.0
      vertex 5.580667962537551 3.9541791836013425 0.0
    endloop
  endfacet
  facet normal 0.0 -0.0 -1.0
    outer loop
      vertex 5.580667962537551 3.9541791836013425 0.0
      vertex 8.91311715850857 4.780830535430288 0.0
      vertex 5.492306061141544 3.6532397950167868 0.0
    endloop
  endfacet
  facet normal 0.0 0.0 -1.0
    outer loop
      vertex 5.492306061141544 4.255118572185898 0.0
      vertex 8.656253755080403 5.571348294751722 0.0
      vertex 8.91311715850857 4.780830535430288 0.0
    endloop
  endfacet
  facet normal -0.0 0.0 -1.0
    outer loop
      vertex 4.659515815515109 3.533502738999823 0.0
      vertex 1.2862127584378864 2.6619897508393704 0.0
      vertex 4.489948754196854 3.797357483654355 0.0
    endloop
  endfacet
  facet normal 0.0 0.0 -1.0
    outer loop
      vertex 4.94481533839901 4.505152853861105 0.0
      vertex 8.240653825764268 6.291189256052306 0.0
      vertex 5.255274783530658 4.460510690934794 0.0
    endloop
  endfacet
  facet normal 0.0 0.0 -1.0
    outer loop
      vertex 4.659515815515109 4.374852447428873 0.0
      vertex 8.240653825764268 6.291189256052306 0.0
      vertex 4.94481533839901 4.505152853861105 0.0
    endloop
  endfacet
  facet normal -0.0 0.0 -1.0
    outer loop
      vertex 4.489948754196854 3.797357483654355 0.0
      vertex 1.2862127584378864 2.6619897508393704 0.0
      vertex 4.489948754196854 4.111000883548329 0.0
    endloop
  endfacet
  facet normal 0.0 0.0 -1.0
    outer loop
      vertex 1.2862127584378864 2.6619897508393704 0.0
      vertex 8.240653825764268 6.291189256052306 0.0
      vertex 4.659515815515109 4.374852447428873 0.0
    endloop
  endfacet
  facet normal 0.0 0.0 -1.0
    outer loop
      vertex 1.2862127584378864 2.6619897508393704 0.0
      vertex 8.656253755080403 2.3370068916769746 0.0
      vertex 8.240653825764268 1.6171643399893971 0.0
    endloop
  endfacet
  facet normal 0.0 0.0 -1.0
    outer loop
      vertex 1.2862127584378864 2.6619897508393704 0.0
      vertex 8.240653825764268 1.6171643399893971 0.0
      vertex 7.684479590033574 0.9994628026153028 0.0
    endloop
  endfacet
  facet normal 0.0 0.0 -1.0
    outer loop
      vertex 1.2862127584378864 2.6619897508393704 0.0
      vertex 7.684479590033574 0.9994628026153028 0.0
      vertex 1.391804912528715 2.3370068916769746 0.0
    endloop
  endfacet
  facet normal 0.0 1.0 0.0
    outer loop
      vertex 0.0 5.2463686163633145 0.0
      vertex 0.0 5.2463686163633145 2.5843788655239437
      vertex 1.2862127584378864 5.2463686163633145 0.0
    endloop
  endfacet
  facet normal 0.0 1.0 -0.0
    outer loop
      vertex 1.2862127584378864 5.2463686163633145 0.0
      vertex 0.0 5.2463686163633145 2.5843788655239437
      vertex 1.2862127584378864 5.2463686163633145 2.5843788655239437
    endloop
  endfacet
  facet normal -0.0 -0.0 1.0
    outer loop
      vertex 1.391804912528715 2.3370068916769746 2.5843788655239437
      vertex 1.807408022618837 1.6171643399893971 2.5843788655239437
      vertex 1.2862127584378864 2.6619897508393704 2.5843788655239437
    endloop
  endfacet
  facet normal 0.0 0.0 1.0
    outer loop
      vertex 0.0 5.2463686163633145 2.5843788655239437
      vertex 0.0 2.6619897508393704 2.5843788655239437
      vertex 1.2862127584378864 2.6619897508393704 2.5843788655239437
    endloop
  endfacet
  facet normal 0.0 0.0 1.0
    outer loop
      vertex 1.807408022618837 1.6171643399893971 2.5843788655239437
      vertex 0.0 5.2463686163633145 2.5843788655239437
      vertex 1.2862127584378864 2.6619897508393704 2.5843788655239437
    endloop
  endfacet
  facet normal -0.0 -0.0 1.0
    outer loop
      vertex 1.807408022618837 1.6171643399893971 2.5843788655239437
      vertex 2.363590210284502 0.9994628026153028 2.5843788655239437
      vertex 0.0 5.2463686163633145 2.5843788655239437
    endloop
  endfacet
  facet normal -0.0 -0.0 1.0
    outer loop
      vertex 2.363590210284502 0.9994628026153028 2.5843788655239437
      vertex 3.036048771867821 0.5108959180067147 2.5843788655239437
      vertex 0.0 5.2463686163633145 2.5843788655239437
    endloop
  endfacet
  facet normal -0.0 -0.0 1.0
    outer loop
      vertex 3.036048771867821 0.5108959180067147 2.5843788655239437
      vertex 3.7953917653295632 0.1728114507863581 2.5843788655239437
      vertex 0.0 5.2463686163633145 2.5843788655239437
    endloop
  endfacet
  facet normal -0.0 -0.0 1.0
    outer loop
      vertex 3.7953917653295632 0.1728114507863581 2.5843788655239437
      vertex 4.608432585262413 0.0 2.5843788655239437
      vertex 0.0 5.2463686163633145 2.5843788655239437
    endloop
  endfacet
  facet normal 0.0 -0.0 1.0
    outer loop
      vertex 4.608432585262413 0.0 2.5843788655239437
      vertex 5.43963244389468 0.0 2.5843788655239437
      vertex 0.0 5.2463686163633145 2.5843788655239437
    endloop
  endfacet
  facet normal 0.0 0.0 1.0
    outer loop
      vertex 7.46368616363315 2.761388937974907 2.5843788655239437
      vertex 8.240653825764268 1.6171643399893971 2.5843788655239437
      vertex 8.656253755080403 2.3370068916769746 2.5843788655239437
    endloop
  endfacet
  facet normal 0.0 0.0 1.0
    outer loop
      vertex 7.46368616363315 2.761388937974907 2.5843788655239437
      vertex 7.684479590033574 0.9994628026153028 2.5843788655239437
      vertex 8.240653825764268 1.6171643399893971 2.5843788655239437
    endloop
  endfacet
  facet normal 0.0 0.0 1.0
    outer loop
      vertex 7.46368616363315 2.761388937974907 2.5843788655239437
      vertex 2.5843788655239437 2.761388937974907 2.5843788655239437
      vertex 6.252670083053542 0.1728114507863581 2.5843788655239437
    endloop
  endfacet
  facet normal 0.0 0.0 1.0
    outer loop
      vertex 2.5843788655239437 2.761388937974907 2.5843788655239437
      vertex 1.391804912528715 5.571348294751722 2.5843788655239437
      vertex 1.2862127584378864 5.2463686163633145 2.5843788655239437
    endloop
  endfacet
  facet normal 0.0 0.0 1.0
    outer loop
      vertex 7.781763562466866 8.418395476232549 2.5843788655239437
      vertex 6.200918890263296 8.418395476232549 2.5843788655239437
      vertex 6.200918890263296 8.100318077398832 2.5843788655239437
    endloop
  endfacet
  facet normal 0.0 -0.0 1.0
    outer loop
      vertex 7.781763562466866 6.800844672203569 2.5843788655239437
      vertex 7.781763562466866 8.418395476232549 2.5843788655239437
      vertex 7.46368616363315 8.100318077398832 2.5843788655239437
    endloop
  endfacet
  facet normal 0.0 0.0 1.0
    outer loop
      vertex 2.5843788655239437 2.761388937974907 2.5843788655239437
      vertex 1.2862127584378864 5.2463686163633145 2.5843788655239437
      vertex 0.0 5.2463686163633145 2.5843788655239437
    endloop
  endfacet
  facet normal 0.0 -0.0 1.0
    outer loop
      vertex 8.656253755080403 2.3370068916769746 2.5843788655239437
      vertex 8.91311715850857 3.1275294221593914 2.5843788655239437
      vertex 7.46368616363315 2.761388937974907 2.5843788655239437
    endloop
  endfacet
  facet normal 0.0 0.0 1.0
    outer loop
      vertex 5.43963244389468 0.0 2.5843788655239437
      vertex 2.5843788655239437 2.761388937974907 2.5843788655239437
      vertex 0.0 5.2463686163633145 2.5843788655239437
    endloop
  endfacet
  facet normal 0.0 -0.0 1.0
    outer loop
      vertex 5.43963244389468 0.0 2.5843788655239437
      vertex 6.252670083053542 0.1728114507863581 2.5843788655239437
      vertex 2.5843788655239437 2.761388937974907 2.5843788655239437
    endloop
  endfacet
  facet normal 0.0 -0.0 1.0
    outer loop
      vertex 3.8471461388937973 8.100318077398832 2.5843788655239437
      vertex 3.8471461388937973 8.418395476232549 2.5843788655239437
      vertex 2.5843788655239437 8.100318077398832 2.5843788655239437
    endloop
  endfacet
  facet normal 0.0 0.0 1.0
    outer loop
      vertex 2.2663014666902277 8.418395476232549 2.5843788655239437
      vertex 2.2663014666902277 6.800844672203569 2.5843788655239437
      vertex 2.5843788655239437 8.100318077398832 2.5843788655239437
    endloop
  endfacet
  facet normal 0.0 0.0 1.0
    outer loop
      vertex 3.8471461388937973 8.418395476232549 2.5843788655239437
      vertex 2.2663014666902277 8.418395476232549 2.5843788655239437
      vertex 2.5843788655239437 8.100318077398832 2.5843788655239437
    endloop
  endfacet
  facet normal 0.0 0.0 1.0
    outer loop
      vertex 2.5843788655239437 2.761388937974907 2.5843788655239437
      vertex 1.807408022618837 6.291189256052306 2.5843788655239437
      vertex 1.391804912528715 5.571348294751722 2.5843788655239437
    endloop
  endfacet
  facet normal 0.0 0.0 1.0
    outer loop
      vertex 2.5843788655239437 2.761388937974907 2.5843788655239437
      vertex 2.2663014666902277 6.800844672203569 2.5843788655239437
      vertex 1.807408022618837 6.291189256052306 2.5843788655239437
    endloop
  endfacet
  facet normal 0.0 0.0 1.0
    outer loop
      vertex 7.46368616363315 2.761388937974907 2.5843788655239437
      vertex 7.0120162572892735 0.5108959180067147 2.5843788655239437
      vertex 7.684479590033574 0.9994628026153028 2.5843788655239437
    endloop
  endfacet
  facet normal 0.0 0.0 1.0
    outer loop
      vertex 7.46368616363315 2.761388937974907 2.5843788655239437
      vertex 6.252670083053542 0.1728114507863581 2.5843788655239437
      vertex 7.0120162572892735 0.5108959180067147 2.5843788655239437
    endloop
  endfacet
  facet normal 0.0 0.0 1.0
    outer loop
      vertex 6.200918890263296 8.100318077398832 2.5843788655239437
      vertex 7.46368616363315 8.100318077398832 2.5843788655239437
      vertex 7.781763562466866 8.418395476232549 2.5843788655239437
    endloop
  endfacet
  facet normal 0.0 0.0 1.0
    outer loop
      vertex 7.781763562466866 6.800844672203569 2.5843788655239437
      vertex 8.656253755080403 5.571348294751722 2.5843788655239437
      vertex 8.240653825764268 6.291189256052306 2.5843788655239437
    endloop
  endfacet
  facet normal 0.0 0.0 1.0
    outer loop
      vertex 7.781763562466866 6.800844672203569 2.5843788655239437
      vertex 8.91311715850857 4.780830535430288 2.5843788655239437
      vertex 8.656253755080403 5.571348294751722 2.5843788655239437
    endloop
  endfacet
  facet normal 0.0 0.0 1.0
    outer loop
      vertex 7.781763562466866 6.800844672203569 2.5843788655239437
      vertex 9.0 3.9541791836013425 2.5843788655239437
      vertex 8.91311715850857 4.780830535430288 2.5843788655239437
    endloop
  endfacet
  facet normal 0.0 0.0 1.0
    outer loop
      vertex 7.781763562466866 6.800844672203569 2.5843788655239437
      vertex 8.91311715850857 3.1275294221593914 2.5843788655239437
      vertex 9.0 3.9541791836013425 2.5843788655239437
    endloop
  endfacet
  facet normal 0.0 0.0 1.0
    outer loop
      vertex 7.781763562466866 6.800844672203569 2.5843788655239437
      vertex 7.46368616363315 2.761388937974907 2.5843788655239437
      vertex 8.91311715850857 3.1275294221593914 2.5843788655239437
    endloop
  endfacet
  facet normal 0.0 0.0 1.0
    outer loop
      vertex 7.46368616363315 8.100318077398832 2.5843788655239437
      vertex 7.46368616363315 2.761388937974907 2.5843788655239437
      vertex 7.781763562466866 6.800844672203569 2.5843788655239437
    endloop
  endfacet
  facet normal 0.0 -0.0 1.0
    outer loop
      vertex 2.5843788655239437 2.761388937974907 2.5843788655239437
      vertex 2.5843788655239437 8.100318077398832 2.5843788655239437
      vertex 2.2663014666902277 6.800844672203569 2.5843788655239437
    endloop
  endfacet
  facet normal 0.0 0.9898211975383181 0.1423165377031423
    outer loop
      vertex 1.7891853684396535 3.4912461565647632 1.08077451846616
      vertex 0.0 3.4912461565647632 1.08077451846616
      vertex 1.7891853684396535 3.4504352359074035 1.3646172468634032
    endloop
  endfacet
  facet normal 0.0 0.9898211975383181 0.1423165377031423
    outer loop
      vertex 1.7891853684396535 3.4504352359074035 1.3646172468634032
      vertex 0.0 3.4912461565647632 1.08077451846616
      vertex 0.0 3.4504352359074035 1.3646172468634032
    endloop
  endfacet
  facet normal 0.0 0.9096361184543063 -0.41540598455412636
    outer loop
      vertex 1.7891853684396535 3.5695599929316133 1.6254709312599396
      vertex 1.7891853684396535 3.4504352359074035 1.3646172468634032
      vertex 0.0 3.5695599929316133 1.6254709312599396
    endloop
  endfacet
  facet normal 0.0 0.9096361184543063 -0.41540598455412636
    outer loop
      vertex 0.0 3.5695599929316133 1.6254709312599396
      vertex 1.7891853684396535 3.4504352359074035 1.3646172468634032
      vertex 0.0 3.4504352359074035 1.3646172468634032
    endloop
  endfacet
  facet normal 0.0 0.5406303259798239 -0.8412602752008141
    outer loop
      vertex 1.7891853684396535 3.810799434529068 1.7805018554514929
      vertex 1.7891853684396535 3.5695599929316133 1.6254709312599396
      vertex 0.0 3.810799434529068 1.7805018554514929
    endloop
  endfacet
  facet normal 0.0 0.5406303259798239 -0.8412602752008141
    outer loop
      vertex 0.0 3.810799434529068 1.7805018554514929
      vertex 1.7891853684396535 3.5695599929316133 1.6254709312599396
      vertex 0.0 3.5695599929316133 1.6254709312599396
    endloop
  endfacet
  facet normal -0.0 -0.0 -1.0
    outer loop
      vertex 1.7891853684396535 4.097558932673617 1.7805018554514929
      vertex 1.7891853684396535 3.810799434529068 1.7805018554514929
      vertex 0.0 4.097558932673617 1.7805018554514929
    endloop
  endfacet
  facet normal 0.0 0.0 -1.0
    outer loop
      vertex 0.0 4.097558932673617 1.7805018554514929
      vertex 1.7891853684396535 3.810799434529068 1.7805018554514929
      vertex 0.0 3.810799434529068 1.7805018554514929
    endloop
  endfacet
  facet normal -0.0 -0.5406303259798239 -0.8412602752008141
    outer loop
      vertex 1.7891853684396535 4.338798374271072 1.6254709312599396
      vertex 1.7891853684396535 4.097558932673617 1.7805018554514929
      vertex 0.0 4.338798374271072 1.6254709312599396
    endloop
  endfacet
  facet normal 0.0 -0.5406303259798239 -0.8412602752008141
    outer loop
      vertex 0.0 4.338798374271072 1.6254709312599396
      vertex 1.7891853684396535 4.097558932673617 1.7805018554514929
      vertex 0.0 4.097558932673617 1.7805018554514929
    endloop
  endfacet
  facet normal 0.0 -0.9096424052745318 -0.4153922177007704
    outer loop
      vertex 0.0 4.457918360134299 1.3646172468634032
      vertex 1.7891853684396535 4.457918360134299 1.3646172468634032
      vertex 1.7891853684396535 4.338798374271072 1.6254709312599396
    endloop
  endfacet
  facet normal 0.0 -0.9096424052745318 -0.4153922177007704
    outer loop
      vertex 0.0 4.338798374271072 1.6254709312599396
      vertex 0.0 4.457918360134299 1.3646172468634032
      vertex 1.7891853684396535 4.338798374271072 1.6254709312599396
    endloop
  endfacet
  facet normal 0.0 -0.9898219787810048 0.1423111040012561
    outer loop
      vertex 1.7891853684396535 4.4171090298639335 1.08077451846616
      vertex 1.7891853684396535 4.457918360134299 1.3646172468634032
      vertex 0.0 4.457918360134299 1.3646172468634032
    endloop
  endfacet
  facet normal 0.0 -0.9898219787810048 0.1423111040012561
    outer loop
      vertex 0.0 4.4171090298639335 1.08077451846616
      vertex 1.7891853684396535 4.4171090298639335 1.08077451846616
      vertex 0.0 4.457918360134299 1.3646172468634032
    endloop
  endfacet
  facet normal 0.0 -0.7557547734252547 0.6548547338493799
    outer loop
      vertex 1.7891853684396535 4.229324085527478 0.8640556635447958
      vertex 1.7891853684396535 4.4171090298639335 1.08077451846616
      vertex 0.0 4.4171090298639335 1.08077451846616
    endloop
  endfacet
  facet normal 0.0 -0.7557547734252547 0.6548547338493799
    outer loop
      vertex 0.0 4.229324085527478 0.8640556635447958
      vertex 1.7891853684396535 4.229324085527478 0.8640556635447958
      vertex 0.0 4.4171090298639335 1.08077451846616
    endloop
  endfacet
  facet normal 0.0 -0.28173331551303227 0.9594927508480896
    outer loop
      vertex 1.7891853684396535 3.9541791836013425 0.783265594628026
      vertex 1.7891853684396535 4.229324085527478 0.8640556635447958
      vertex 0.0 4.229324085527478 0.8640556635447958
    endloop
  endfacet
  facet normal 0.0 -0.28173331551303227 0.9594927508480896
    outer loop
      vertex 0.0 3.9541791836013425 0.783265594628026
      vertex 1.7891853684396535 3.9541791836013425 0.783265594628026
      vertex 0.0 4.229324085527478 0.8640556635447958
    endloop
  endfacet
  facet normal 0.0 0.28173331551303227 0.9594927508480896
    outer loop
      vertex 1.7891853684396535 3.6790342816752073 0.8640556635447958
      vertex 1.7891853684396535 3.9541791836013425 0.783265594628026
      vertex 0.0 3.9541791836013425 0.783265594628026
    endloop
  endfacet
  facet normal -0.0 0.28173331551303227 0.9594927508480896
    outer loop
      vertex 0.0 3.6790342816752073 0.8640556635447958
      vertex 1.7891853684396535 3.6790342816752073 0.8640556635447958
      vertex 0.0 3.9541791836013425 0.783265594628026
    endloop
  endfacet
  facet normal 0.0 0.7557492838109914 0.6548610692499391
    outer loop
      vertex 1.7891853684396535 3.6790342816752073 0.8640556635447958
      vertex 0.0 3.6790342816752073 0.8640556635447958
      vertex 1.7891853684396535 3.4912461565647632 1.08077451846616
    endloop
  endfacet
  facet normal 0.0 0.7557492838109914 0.6548610692499391
    outer loop
      vertex 1.7891853684396535 3.4912461565647632 1.08077451846616
      vertex 0.0 3.6790342816752073 0.8640556635447958
      vertex 0.0 3.4912461565647632 1.08077451846616
    endloop
  endfacet
  facet normal -0.9510575292739837 -0.30901387672929154 0.0
    outer loop
      vertex 1.2862127584378864 2.6619897508393704 0.0
      vertex 1.391804912528715 2.3370068916769746 0.0
      vertex 1.2862127584378864 2.6619897508393704 2.5843788655239437
    endloop
  endfacet
  facet normal -0.9510575292739837 -0.30901387672929154 0.0
    outer loop
      vertex 1.2862127584378864 2.6619897508393704 2.5843788655239437
      vertex 1.391804912528715 2.3370068916769746 0.0
      vertex 1.391804912528715 2.3370068916769746 2.5843788655239437
    endloop
  endfacet
  facet normal -0.8660244561292139 -0.5000016413834054 0.0
    outer loop
      vertex 1.391804912528715 2.3370068916769746 0.0
      vertex 1.807408022618837 1.6171643399893971 0.0
      vertex 1.391804912528715 2.3370068916769746 2.5843788655239437
    endloop
  endfacet
  facet normal -0.8660244561292139 -0.5000016413834054 0.0
    outer loop
      vertex 1.391804912528715 2.3370068916769746 2.5843788655239437
      vertex 1.807408022618837 1.6171643399893971 0.0
      vertex 1.807408022618837 1.6171643399893971 2.5843788655239437
    endloop
  endfacet
  facet normal -0.7431440924808668 -0.6691314204330783 0.0
    outer loop
      vertex 1.807408022618837 1.6171643399893971 0.0
      vertex 2.363590210284502 0.9994628026153028 0.0
      vertex 1.807408022618837 1.6171643399893971 2.5843788655239437
    endloop
  endfacet
  facet normal -0.7431440924808668 -0.6691314204330783 0.0
    outer loop
      vertex 1.807408022618837 1.6171643399893971 2.5843788655239437
      vertex 2.363590210284502 0.9994628026153028 0.0
      vertex 2.363590210284502 0.9994628026153028 2.5843788655239437
    endloop
  endfacet
  facet normal -0.5877830012807252 -0.8090186298259285 -0.0
    outer loop
      vertex 2.363590210284502 0.9994628026153028 2.5843788655239437
      vertex 2.363590210284502 0.9994628026153028 0.0
      vertex 3.036048771867821 0.5108959180067147 0.0
    endloop
  endfacet
  facet normal -0.5877830012807252 -0.8090186298259285 -0.0
    outer loop
      vertex 3.036048771867821 0.5108959180067147 2.5843788655239437
      vertex 2.363590210284502 0.9994628026153028 2.5843788655239437
      vertex 3.036048771867821 0.5108959180067147 0.0
    endloop
  endfacet
  facet normal -0.40673984048793244 -0.913544034056296 -0.0
    outer loop
      vertex 3.036048771867821 0.5108959180067147 2.5843788655239437
      vertex 3.036048771867821 0.5108959180067147 0.0
      vertex 3.7953917653295632 0.1728114507863581 0.0
    endloop
  endfacet
  facet normal -0.40673984048793244 -0.913544034056296 -0.0
    outer loop
      vertex 3.7953917653295632 0.1728114507863581 2.5843788655239437
      vertex 3.036048771867821 0.5108959180067147 2.5843788655239437
      vertex 3.7953917653295632 0.1728114507863581 0.0
    endloop
  endfacet
  facet normal -0.20790511775189502 -0.9781489978590023 -0.0
    outer loop
      vertex 3.7953917653295632 0.1728114507863581 2.5843788655239437
      vertex 3.7953917653295632 0.1728114507863581 0.0
      vertex 4.608432585262413 0.0 0.0
    endloop
  endfacet
  facet normal -0.20790511775189502 -0.9781489978590023 -0.0
    outer loop
      vertex 4.608432585262413 0.0 2.5843788655239437
      vertex 3.7953917653295632 0.1728114507863581 2.5843788655239437
      vertex 4.608432585262413 0.0 0.0
    endloop
  endfacet
  facet normal 0.0 -1.0 0.0
    outer loop
      vertex 4.608432585262413 0.0 2.5843788655239437
      vertex 4.608432585262413 0.0 0.0
      vertex 5.43963244389468 0.0 0.0
    endloop
  endfacet
  facet normal -0.0 -1.0 -0.0
    outer loop
      vertex 5.43963244389468 0.0 2.5843788655239437
      vertex 4.608432585262413 0.0 2.5843788655239437
      vertex 5.43963244389468 0.0 0.0
    endloop
  endfacet
  facet normal 0.2079058959627029 -0.978148832450331 0.0
    outer loop
      vertex 5.43963244389468 0.0 2.5843788655239437
      vertex 5.43963244389468 0.0 0.0
      vertex 6.252670083053542 0.1728114507863581 0.0
    endloop
  endfacet
  facet normal 0.2079058959627029 -0.978148832450331 0.0
    outer loop
      vertex 6.252670083053542 0.1728114507863581 2.5843788655239437
      vertex 5.43963244389468 0.0 2.5843788655239437
      vertex 6.252670083053542 0.1728114507863581 0.0
    endloop
  endfacet
  facet normal 0.4067384185876548 -0.9135446671317247 0.0
    outer loop
      vertex 6.252670083053542 0.1728114507863581 2.5843788655239437
      vertex 6.252670083053542 0.1728114507863581 0.0
      vertex 7.0120162572892735 0.5108959180067147 0.0
    endloop
  endfacet
  facet normal 0.4067384185876548 -0.9135446671317247 0.0
    outer loop
      vertex 7.0120162572892735 0.5108959180067147 2.5843788655239437
      vertex 6.252670083053542 0.1728114507863581 2.5843788655239437
      vertex 7.0120162572892735 0.5108959180067147 0.0
    endloop
  endfacet
  facet normal 0.587780271730277 -0.809020612941773 0.0
    outer loop
      vertex 7.0120162572892735 0.5108959180067147 2.5843788655239437
      vertex 7.0120162572892735 0.5108959180067147 0.0
      vertex 7.684479590033574 0.9994628026153028 0.0
    endloop
  endfacet
  facet normal 0.587780271730277 -0.809020612941773 0.0
    outer loop
      vertex 7.684479590033574 0.9994628026153028 2.5843788655239437
      vertex 7.0120162572892735 0.5108959180067147 2.5843788655239437
      vertex 7.684479590033574 0.9994628026153028 0.0
    endloop
  endfacet
  facet normal 0.7431488496948443 -0.6691261369855684 0.0
    outer loop
      vertex 7.684479590033574 0.9994628026153028 2.5843788655239437
      vertex 7.684479590033574 0.9994628026153028 0.0
      vertex 8.240653825764268 1.6171643399893971 0.0
    endloop
  endfacet
  facet normal 0.7431488496948443 -0.6691261369855684 0.0
    outer loop
      vertex 8.240653825764268 1.6171643399893971 2.5843788655239437
      vertex 7.684479590033574 0.9994628026153028 2.5843788655239437
      vertex 8.240653825764268 1.6171643399893971 0.0
    endloop
  endfacet
  facet normal 0.8660261131449128 -0.49999877134960496 0.0
    outer loop
      vertex 8.240653825764268 1.6171643399893971 2.5843788655239437
      vertex 8.240653825764268 1.6171643399893971 0.0
      vertex 8.656253755080403 2.3370068916769746 0.0
    endloop
  endfacet
  facet normal 0.8660261131449128 -0.49999877134960496 0.0
    outer loop
      vertex 8.656253755080403 2.3370068916769746 2.5843788655239437
      vertex 8.240653825764268 1.6171643399893971 2.5843788655239437
      vertex 8.656253755080403 2.3370068916769746 0.0
    endloop
  endfacet
  facet normal 0.9510540189896111 -0.3090246801854324 0.0
    outer loop
      vertex 8.656253755080403 2.3370068916769746 2.5843788655239437
      vertex 8.656253755080403 2.3370068916769746 0.0
      vertex 8.91311715850857 3.1275294221593914 0.0
    endloop
  endfacet
  facet normal 0.9510540189896111 -0.3090246801854324 0.0
    outer loop
      vertex 8.91311715850857 3.1275294221593914 2.5843788655239437
      vertex 8.656253755080403 2.3370068916769746 2.5843788655239437
      vertex 8.91311715850857 3.1275294221593914 0.0
    endloop
  endfacet
  facet normal 0.9945220891596521 -0.10452661944940508 0.0
    outer loop
      vertex 8.91311715850857 3.1275294221593914 2.5843788655239437
      vertex 8.91311715850857 3.1275294221593914 0.0
      vertex 9.0 3.9541791836013425 0.0
    endloop
  endfacet
  facet normal 0.9945220891596521 -0.10452661944940508 0.0
    outer loop
      vertex 9.0 3.9541791836013425 2.5843788655239437
      vertex 8.91311715850857 3.1275294221593914 2.5843788655239437
      vertex 9.0 3.9541791836013425 0.0
    endloop
  endfacet
  facet normal 0.9945221100645608 0.10452642054874656 0.0
    outer loop
      vertex 9.0 3.9541791836013425 0.0
      vertex 8.91311715850857 4.780830535430288 0.0
      vertex 8.91311715850857 4.780830535430288 2.5843788655239437
    endloop
  endfacet
  facet normal 0.9945221100645608 0.10452642054874656 0.0
    outer loop
      vertex 9.0 3.9541791836013425 2.5843788655239437
      vertex 9.0 3.9541791836013425 0.0
      vertex 8.91311715850857 4.780830535430288 2.5843788655239437
    endloop
  endfacet
  facet normal 0.9510534708327039 0.30902636718744103 0.0
    outer loop
      vertex 8.91311715850857 4.780830535430288 0.0
      vertex 8.656253755080403 5.571348294751722 0.0
      vertex 8.656253755080403 5.571348294751722 2.5843788655239437
    endloop
  endfacet
  facet normal 0.9510534708327039 0.30902636718744103 0.0
    outer loop
      vertex 8.91311715850857 4.780830535430288 2.5843788655239437
      vertex 8.91311715850857 4.780830535430288 0.0
      vertex 8.656253755080403 5.571348294751722 2.5843788655239437
    endloop
  endfacet
  facet normal 0.8660256348065186 0.4999995998578063 0.0
    outer loop
      vertex 8.656253755080403 5.571348294751722 0.0
      vertex 8.240653825764268 6.291189256052306 0.0
      vertex 8.240653825764268 6.291189256052306 2.5843788655239437
    endloop
  endfacet
  facet normal 0.8660256348065186 0.4999995998578063 0.0
    outer loop
      vertex 8.656253755080403 5.571348294751722 2.5843788655239437
      vertex 8.656253755080403 5.571348294751722 0.0
      vertex 8.240653825764268 6.291189256052306 2.5843788655239437
    endloop
  endfacet
  facet normal 0.7431488384720315 0.6691261494499153 0.0
    outer loop
      vertex 8.240653825764268 6.291189256052306 0.0
      vertex 7.781763562466866 6.800844672203569 0.0
      vertex 7.781763562466866 6.800844672203569 2.5843788655239437
    endloop
  endfacet
  facet normal 0.7431488384720315 0.6691261494499153 0.0
    outer loop
      vertex 8.240653825764268 6.291189256052306 2.5843788655239437
      vertex 8.240653825764268 6.291189256052306 0.0
      vertex 7.781763562466866 6.800844672203569 2.5843788655239437
    endloop
  endfacet
  facet normal 1.0 0.0 0.0
    outer loop
      vertex 7.781763562466866 6.800844672203569 2.5843788655239437
      vertex 7.781763562466866 6.800844672203569 0.0
      vertex 7.781763562466866 8.418395476232549 0.0
    endloop
  endfacet
  facet normal 1.0 0.0 0.0
    outer loop
      vertex 7.781763562466866 8.418395476232549 2.5843788655239437
      vertex 7.781763562466866 6.800844672203569 2.5843788655239437
      vertex 7.781763562466866 8.418395476232549 0.0
    endloop
  endfacet
  facet normal 0.0 1.0 0.0
    outer loop
      vertex 2.2663014666902277 8.418395476232549 0.0
      vertex 2.2663014666902277 8.418395476232549 2.5843788655239437
      vertex 3.8471461388937973 8.418395476232549 0.31807739883371616
    endloop
  endfacet
  facet normal 0.0 1.0 0.0
    outer loop
      vertex 2.2663014666902277 8.418395476232549 0.0
      vertex 3.8471461388937973 8.418395476232549 0.31807739883371616
      vertex 7.781763562466866 8.418395476232549 0.0
    endloop
  endfacet
  facet normal 0.0 1.0 0.0
    outer loop
      vertex 6.200918890263296 8.418395476232549 2.5843788655239437
      vertex 7.781763562466866 8.418395476232549 0.0
      vertex 6.200918890263296 8.418395476232549 0.31807739883371616
    endloop
  endfacet
  facet normal -0.0 1.0 0.0
    outer loop
      vertex 3.8471461388937973 8.418395476232549 0.31807739883371616
      vertex 6.200918890263296 8.418395476232549 0.31807739883371616
      vertex 7.781763562466866 8.418395476232549 0.0
    endloop
  endfacet
  facet normal 0.0 1.0 -0.0
    outer loop
      vertex 7.781763562466866 8.418395476232549 0.0
      vertex 6.200918890263296 8.418395476232549 2.5843788655239437
      vertex 7.781763562466866 8.418395476232549 2.5843788655239437
    endloop
  endfacet
  facet normal 0.0 1.0 -0.0
    outer loop
      vertex 3.8471461388937973 8.418395476232549 0.31807739883371616
      vertex 2.2663014666902277 8.418395476232549 2.5843788655239437
      vertex 3.8471461388937973 8.418395476232549 2.5843788655239437
    endloop
  endfacet
  facet normal -1.0 0.0 0.0
    outer loop
      vertex 2.2663014666902277 6.800844672203569 0.0
      vertex 2.2663014666902277 6.800844672203569 2.5843788655239437
      vertex 2.2663014666902277 8.418395476232549 0.0
    endloop
  endfacet
  facet normal -1.0 0.0 0.0
    outer loop
      vertex 2.2663014666902277 8.418395476232549 0.0
      vertex 2.2663014666902277 6.800844672203569 2.5843788655239437
      vertex 2.2663014666902277 8.418395476232549 2.5843788655239437
    endloop
  endfacet
  facet normal -0.7431465321748942 0.6691287108743945 0.0
    outer loop
      vertex 1.807408022618837 6.291189256052306 0.0
      vertex 1.807408022618837 6.291189256052306 2.5843788655239437
      vertex 2.2663014666902277 6.800844672203569 0.0
    endloop
  endfacet
  facet normal -0.7431465321748942 0.6691287108743945 0.0
    outer loop
      vertex 2.2663014666902277 6.800844672203569 0.0
      vertex 1.807408022618837 6.291189256052306 2.5843788655239437
      vertex 2.2663014666902277 6.800844672203569 2.5843788655239437
    endloop
  endfacet
  facet normal -0.8660239777862433 0.5000024698931919 0.0
    outer loop
      vertex 1.391804912528715 5.571348294751722 0.0
      vertex 1.391804912528715 5.571348294751722 2.5843788655239437
      vertex 1.807408022618837 6.291189256052306 0.0
    endloop
  endfacet
  facet normal -0.8660239777862433 0.5000024698931919 0.0
    outer loop
      vertex 1.807408022618837 6.291189256052306 0.0
      vertex 1.391804912528715 5.571348294751722 2.5843788655239437
      vertex 1.807408022618837 6.291189256052306 2.5843788655239437
    endloop
  endfacet
  facet normal -0.9510566403986059 0.30901661242353445 0.0
    outer loop
      vertex 1.2862127584378864 5.2463686163633145 0.0
      vertex 1.2862127584378864 5.2463686163633145 2.5843788655239437
      vertex 1.391804912528715 5.571348294751722 0.0
    endloop
  endfacet
  facet normal -0.9510566403986059 0.30901661242353445 0.0
    outer loop
      vertex 1.391804912528715 5.571348294751722 0.0
      vertex 1.2862127584378864 5.2463686163633145 2.5843788655239437
      vertex 1.391804912528715 5.571348294751722 2.5843788655239437
    endloop
  endfacet
  facet normal 1.0 0.0 -0.0
    outer loop
      vertex 4.489948754196854 4.111000883548329 0.0
      vertex 4.489948754196854 4.111000883548329 0.31807739883371616
      vertex 4.489948754196854 3.797357483654355 0.31807739883371616
    endloop
  endfacet
  facet normal 1.0 0.0 0.0
    outer loop
      vertex 4.489948754196854 3.797357483654355 0.0
      vertex 4.489948754196854 4.111000883548329 0.0
      vertex 4.489948754196854 3.797357483654355 0.31807739883371616
    endloop
  endfacet
  facet normal 0.8412535945374292 -0.5406407214387894 0.0
    outer loop
      vertex 4.659515815515109 4.374852447428873 0.0
      vertex 4.659515815515109 4.374852447428873 0.31807739883371616
      vertex 4.489948754196854 4.111000883548329 0.31807739883371616
    endloop
  endfacet
  facet normal 0.8412535945374292 -0.5406407214387894 0.0
    outer loop
      vertex 4.489948754196854 4.111000883548329 0.0
      vertex 4.659515815515109 4.374852447428873 0.0
      vertex 4.489948754196854 4.111000883548329 0.31807739883371616
    endloop
  endfacet
  facet normal 0.4154373839961486 -0.9096217785312952 0.0
    outer loop
      vertex 4.94481533839901 4.505152853861105 0.0
      vertex 4.94481533839901 4.505152853861105 0.31807739883371616
      vertex 4.659515815515109 4.374852447428873 0.31807739883371616
    endloop
  endfacet
  facet normal 0.4154373839961486 -0.9096217785312952 0.0
    outer loop
      vertex 4.659515815515109 4.374852447428873 0.0
      vertex 4.94481533839901 4.505152853861105 0.0
      vertex 4.659515815515109 4.374852447428873 0.31807739883371616
    endloop
  endfacet
  facet normal -0.14232993665987037 -0.9898192709431339 0.0
    outer loop
      vertex 5.255274783530658 4.460510690934794 0.0
      vertex 5.255274783530658 4.460510690934794 0.31807739883371616
      vertex 4.94481533839901 4.505152853861105 0.31807739883371616
    endloop
  endfacet
  facet normal -0.14232993665987037 -0.9898192709431339 0.0
    outer loop
      vertex 4.94481533839901 4.505152853861105 0.0
      vertex 5.255274783530658 4.460510690934794 0.0
      vertex 4.94481533839901 4.505152853861105 0.31807739883371616
    endloop
  endfacet
  facet normal -0.6548668299917779 -0.755744292056857 0.0
    outer loop
      vertex 5.492306061141544 4.255118572185898 0.0
      vertex 5.492306061141544 4.255118572185898 0.31807739883371616
      vertex 5.255274783530658 4.460510690934794 0.31807739883371616
    endloop
  endfacet
  facet normal -0.6548668299917779 -0.755744292056857 0.0
    outer loop
      vertex 5.255274783530658 4.460510690934794 0.0
      vertex 5.492306061141544 4.255118572185898 0.0
      vertex 5.255274783530658 4.460510690934794 0.31807739883371616
    endloop
  endfacet
  facet normal -0.9594945903492117 -0.28172705069019965 -0.0
    outer loop
      vertex 5.580667962537551 3.9541791836013425 0.31807739883371616
      vertex 5.492306061141544 4.255118572185898 0.31807739883371616
      vertex 5.580667962537551 3.9541791836013425 0.0
    endloop
  endfacet
  facet normal -0.9594945903492117 -0.28172705069019965 0.0
    outer loop
      vertex 5.580667962537551 3.9541791836013425 0.0
      vertex 5.492306061141544 4.255118572185898 0.31807739883371616
      vertex 5.492306061141544 4.255118572185898 0.0
    endloop
  endfacet
  facet normal -0.9594945903492117 0.28172705069019965 0.0
    outer loop
      vertex 5.580667962537551 3.9541791836013425 0.31807739883371616
      vertex 5.580667962537551 3.9541791836013425 0.0
      vertex 5.492306061141544 3.6532397950167868 0.31807739883371616
    endloop
  endfacet
  facet normal -0.9594945903492117 0.28172705069019965 0.0
    outer loop
      vertex 5.492306061141544 3.6532397950167868 0.31807739883371616
      vertex 5.580667962537551 3.9541791836013425 0.0
      vertex 5.492306061141544 3.6532397950167868 0.0
    endloop
  endfacet
  facet normal -0.6548697261322444 0.7557417824862399 0.0
    outer loop
      vertex 5.492306061141544 3.6532397950167868 0.31807739883371616
      vertex 5.492306061141544 3.6532397950167868 0.0
      vertex 5.255274783530658 3.4478460858808977 0.31807739883371616
    endloop
  endfacet
  facet normal -0.6548697261322444 0.7557417824862399 0.0
    outer loop
      vertex 5.255274783530658 3.4478460858808977 0.31807739883371616
      vertex 5.492306061141544 3.6532397950167868 0.0
      vertex 5.255274783530658 3.4478460858808977 0.0
    endloop
  endfacet
  facet normal -0.14231503315828054 0.989821413860681 0.0
    outer loop
      vertex 5.255274783530658 3.4478460858808977 0.31807739883371616
      vertex 5.255274783530658 3.4478460858808977 0.0
      vertex 4.94481533839901 3.403208694115568 0.31807739883371616
    endloop
  endfacet
  facet normal -0.14231503315828054 0.989821413860681 0.0
    outer loop
      vertex 4.94481533839901 3.403208694115568 0.31807739883371616
      vertex 5.255274783530658 3.4478460858808977 0.0
      vertex 4.94481533839901 3.403208694115568 0.0
    endloop
  endfacet
  facet normal 0.4154206017610732 0.9096294430329681 0.0
    outer loop
      vertex 4.94481533839901 3.403208694115568 0.31807739883371616
      vertex 4.94481533839901 3.403208694115568 0.0
      vertex 4.659515815515109 3.533502738999823 0.31807739883371616
    endloop
  endfacet
  facet normal 0.4154206017610732 0.9096294430329681 0.0
    outer loop
      vertex 4.659515815515109 3.533502738999823 0.31807739883371616
      vertex 4.94481533839901 3.403208694115568 0.0
      vertex 4.659515815515109 3.533502738999823 0.0
    endloop
  endfacet
  facet normal 0.8412565587682704 0.5406361089766087 0.0
    outer loop
      vertex 4.489948754196854 3.797357483654355 0.31807739883371616
      vertex 4.659515815515109 3.533502738999823 0.31807739883371616
      vertex 4.659515815515109 3.533502738999823 0.0
    endloop
  endfacet
  facet normal 0.8412565587682704 0.5406361089766087 -0.0
    outer loop
      vertex 4.489948754196854 3.797357483654355 0.0
      vertex 4.489948754196854 3.797357483654355 0.31807739883371616
      vertex 4.659515815515109 3.533502738999823 0.0
    endloop
  endfacet
  facet normal 1.0 0.0 -0.0
    outer loop
      vertex 3.8471461388937973 8.418395476232549 0.31807739883371616
      vertex 3.8471461388937973 8.418395476232549 2.5843788655239437
      vertex 3.8471461388937973 8.100318077398832 2.5843788655239437
    endloop
  endfacet
  facet normal 1.0 -0.0 0.0
    outer loop
      vertex 3.8471461388937973 2.761388937974907 1.7891853684396535
      vertex 3.8471461388937973 8.418395476232549 0.31807739883371616
      vertex 3.8471461388937973 8.100318077398832 1.7891853684396535
    endloop
  endfacet
  facet normal 1.0 -0.0 0.0
    outer loop
      vertex 3.8471461388937973 8.100318077398832 1.7891853684396535
      vertex 3.8471461388937973 8.418395476232549 0.31807739883371616
      vertex 3.8471461388937973 8.100318077398832 2.5843788655239437
    endloop
  endfacet
  facet normal 1.0 0.0 0.0
    outer loop
      vertex 3.8471461388937973 2.761388937974907 0.31807739883371616
      vertex 3.8471461388937973 8.418395476232549 0.31807739883371616
      vertex 3.8471461388937973 2.761388937974907 1.7891853684396535
    endloop
  endfacet
  facet normal 0.0 -1.0 0.0
    outer loop
      vertex 3.8471461388937973 8.100318077398832 1.7891853684396535
      vertex 3.8471461388937973 8.100318077398832 2.5843788655239437
      vertex 2.5843788655239437 8.100318077398832 2.5843788655239437
    endloop
  endfacet
  facet normal 0.0 -1.0 0.0
    outer loop
      vertex 2.5843788655239437 8.100318077398832 1.7891853684396535
      vertex 3.8471461388937973 8.100318077398832 1.7891853684396535
      vertex 2.5843788655239437 8.100318077398832 2.5843788655239437
    endloop
  endfacet
  facet normal 1.0 0.0 -0.0
    outer loop
      vertex 2.5843788655239437 8.100318077398832 1.7891853684396535
      vertex 2.5843788655239437 8.100318077398832 2.5843788655239437
      vertex 2.5843788655239437 2.761388937974907 2.5843788655239437
    endloop
  endfacet
  facet normal 1.0 0.0 0.0
    outer loop
      vertex 2.5843788655239437 2.761388937974907 1.7891853684396535
      vertex 2.5843788655239437 8.100318077398832 1.7891853684396535
      vertex 2.5843788655239437 2.761388937974907 2.5843788655239437
    endloop
  endfacet
  facet normal 0.0 1.0 0.0
    outer loop
      vertex 7.46368616363315 2.761388937974907 2.5843788655239437
      vertex 7.46368616363315 2.761388937974907 1.7891853684396535
      vertex 2.5843788655239437 2.761388937974907 2.5843788655239437
    endloop
  endfacet
  facet normal 0.0 1.0 0.0
    outer loop
      vertex 2.5843788655239437 2.761388937974907 2.5843788655239437
      vertex 7.46368616363315 2.761388937974907 1.7891853684396535
      vertex 6.200918890263296 2.761388937974907 1.7891853684396535
    endloop
  endfacet
  facet normal 0.0 1.0 0.0
    outer loop
      vertex 2.5843788655239437 2.761388937974907 2.5843788655239437
      vertex 6.200918890263296 2.761388937974907 1.7891853684396535
      vertex 6.200918890263296 2.761388937974907 0.31807739883371616
    endloop
  endfacet
  facet normal 0.0 1.0 0.0
    outer loop
      vertex 3.8471461388937973 2.761388937974907 1.7891853684396535
      vertex 6.200918890263296 2.761388937974907 0.31807739883371616
      vertex 3.8471461388937973 2.761388937974907 0.31807739883371616
    endloop
  endfacet
  facet normal 0.0 1.0 0.0
    outer loop
      vertex 2.5843788655239437 2.761388937974907 2.5843788655239437
      vertex 6.200918890263296 2.761388937974907 0.31807739883371616
      vertex 3.8471461388937973 2.761388937974907 1.7891853684396535
    endloop
  endfacet
  facet normal 0.0 1.0 0.0
    outer loop
      vertex 2.5843788655239437 2.761388937974907 1.7891853684396535
      vertex 2.5843788655239437 2.761388937974907 2.5843788655239437
      vertex 3.8471461388937973 2.761388937974907 1.7891853684396535
    endloop
  endfacet
  facet normal -1.0 -0.0 -0.0
    outer loop
      vertex 7.46368616363315 8.100318077398832 2.5843788655239437
      vertex 7.46368616363315 8.100318077398832 1.7891853684396535
      vertex 7.46368616363315 2.761388937974907 2.5843788655239437
    endloop
  endfacet
  facet normal -1.0 0.0 0.0
    outer loop
      vertex 7.46368616363315 2.761388937974907 2.5843788655239437
      vertex 7.46368616363315 8.100318077398832 1.7891853684396535
      vertex 7.46368616363315 2.761388937974907 1.7891853684396535
    endloop
  endfacet
  facet normal 0.0 -1.0 0.0
    outer loop
      vertex 7.46368616363315 8.100318077398832 1.7891853684396535
      vertex 7.46368616363315 8.100318077398832 2.5843788655239437
      vertex 6.200918890263296 8.100318077398832 2.5843788655239437
    endloop
  endfacet
  facet normal 0.0 -1.0 0.0
    outer loop
      vertex 6.200918890263296 8.100318077398832 1.7891853684396535
      vertex 7.46368616363315 8.100318077398832 1.7891853684396535
      vertex 6.200918890263296 8.100318077398832 2.5843788655239437
    endloop
  endfacet
  facet normal -1.0 0.0 0.0
    outer loop
      vertex 6.200918890263296 8.100318077398832 1.7891853684396535
      vertex 6.200918890263296 8.100318077398832 2.5843788655239437
      vertex 6.200918890263296 8.418395476232549 2.5843788655239437
    endloop
  endfacet
  facet normal -1.0 0.0 0.0
    outer loop
      vertex 6.200918890263296 8.100318077398832 1.7891853684396535
      vertex 6.200918890263296 8.418395476232549 2.5843788655239437
      vertex 6.200918890263296 8.418395476232549 0.31807739883371616
    endloop
  endfacet
  facet normal -1.0 -0.0 -0.0
    outer loop
      vertex 6.200918890263296 8.100318077398832 1.7891853684396535
      vertex 6.200918890263296 8.418395476232549 0.31807739883371616
      vertex 6.200918890263296 2.761388937974907 1.7891853684396535
    endloop
  endfacet
  facet normal -1.0 0.0 0.0
    outer loop
      vertex 6.200918890263296 8.418395476232549 0.31807739883371616
      vertex 6.200918890263296 2.761388937974907 0.31807739883371616
      vertex 6.200918890263296 2.761388937974907 1.7891853684396535
    endloop
  endfacet
  facet normal -1.0 -0.0 -0.0
    outer loop
      vertex 1.7891853684396535 4.338798374271072 1.6254709312599396
      vertex 1.7891853684396535 4.457918360134299 1.3646172468634032
      vertex 1.7891853684396535 4.097558932673617 1.7805018554514929
    endloop
  endfacet
  facet normal -1.0 0.0 0.0
    outer loop
      vertex 1.7891853684396535 4.097558932673617 1.7805018554514929
      vertex 1.7891853684396535 4.457918360134299 1.3646172468634032
      vertex 1.7891853684396535 4.4171090298639335 1.08077451846616
    endloop
  endfacet
  facet normal -1.0 0.0 0.0
    outer loop
      vertex 1.7891853684396535 4.097558932673617 1.7805018554514929
      vertex 1.7891853684396535 4.4171090298639335 1.08077451846616
      vertex 1.7891853684396535 4.229324085527478 0.8640556635447958
    endloop
  endfacet
  facet normal -1.0 0.0 -0.0
    outer loop
      vertex 1.7891853684396535 4.097558932673617 1.7805018554514929
      vertex 1.7891853684396535 4.229324085527478 0.8640556635447958
      vertex 1.7891853684396535 3.9541791836013425 0.783265594628026
    endloop
  endfacet
  facet normal -1.0 0.0 0.0
    outer loop
      vertex 1.7891853684396535 4.097558932673617 1.7805018554514929
      vertex 1.7891853684396535 3.9541791836013425 0.783265594628026
      vertex 1.7891853684396535 3.6790342816752073 0.8640556635447958
    endloop
  endfacet
  facet normal -1.0 0.0 0.0
    outer loop
      vertex 1.7891853684396535 4.097558932673617 1.7805018554514929
      vertex 1.7891853684396535 3.6790342816752073 0.8640556635447958
      vertex 1.7891853684396535 3.4912461565647632 1.08077451846616
    endloop
  endfacet
  facet normal -1.0 0.0 0.0
    outer loop
      vertex 1.7891853684396535 4.097558932673617 1.7805018554514929
      vertex 1.7891853684396535 3.4912461565647632 1.08077451846616
      vertex 1.7891853684396535 3.4504352359074035 1.3646172468634032
    endloop
  endfacet
  facet normal -1.0 0.0 0.0
    outer loop
      vertex 1.7891853684396535 4.097558932673617 1.7805018554514929
      vertex 1.7891853684396535 3.4504352359074035 1.3646172468634032
      vertex 1.7891853684396535 3.5695599929316133 1.6254709312599396
    endloop
  endfacet
  facet normal -1.0 -0.0 0.0
    outer loop
      vertex 1.7891853684396535 4.097558932673617 1.7805018554514929
      vertex 1.7891853684396535 3.5695599929316133 1.6254709312599396
      vertex 1.7891853684396535 3.810799434529068 1.7805018554514929
    endloop
  endfacet
  facet normal 0.0 -0.0 1.0
    outer loop
      vertex 6.200918890263296 2.761388937974907 0.31807739883371616
      vertex 6.200918890263296 8.418395476232549 0.31807739883371616
      vertex 3.8471461388937973 8.418395476232549 0.31807739883371616
    endloop
  endfacet
  facet normal -0.0 -0.0 1.0
    outer loop
      vertex 5.492306061141544 4.255118572185898 0.31807739883371616
      vertex 6.200918890263296 2.761388937974907 0.31807739883371616
      vertex 3.8471461388937973 8.418395476232549 0.31807739883371616
    endloop
  endfacet
  facet normal 0.0 0.0 1.0
    outer loop
      vertex 3.8471461388937973 2.761388937974907 0.31807739883371616
      vertex 4.489948754196854 4.111000883548329 0.31807739883371616
      vertex 3.8471461388937973 8.418395476232549 0.31807739883371616
    endloop
  endfacet
  facet normal 0.0 -0.0 1.0
    outer loop
      vertex 4.489948754196854 4.111000883548329 0.31807739883371616
      vertex 4.659515815515109 4.374852447428873 0.31807739883371616
      vertex 3.8471461388937973 8.418395476232549 0.31807739883371616
    endloop
  endfacet
  facet normal 0.0 -0.0 1.0
    outer loop
      vertex 4.659515815515109 4.374852447428873 0.31807739883371616
      vertex 4.94481533839901 4.505152853861105 0.31807739883371616
      vertex 3.8471461388937973 8.418395476232549 0.31807739883371616
    endloop
  endfacet
  facet normal -0.0 -0.0 1.0
    outer loop
      vertex 4.94481533839901 4.505152853861105 0.31807739883371616
      vertex 5.255274783530658 4.460510690934794 0.31807739883371616
      vertex 3.8471461388937973 8.418395476232549 0.31807739883371616
    endloop
  endfacet
  facet normal -0.0 -0.0 1.0
    outer loop
      vertex 5.255274783530658 4.460510690934794 0.31807739883371616
      vertex 5.492306061141544 4.255118572185898 0.31807739883371616
      vertex 3.8471461388937973 8.418395476232549 0.31807739883371616
    endloop
  endfacet
  facet normal -0.0 -0.0 1.0
    outer loop
      vertex 5.580667962537551 3.9541791836013425 0.31807739883371616
      vertex 6.200918890263296 2.761388937974907 0.31807739883371616
      vertex 5.492306061141544 4.255118572185898 0.31807739883371616
    endloop
  endfacet
  facet normal 0.0 0.0 1.0
    outer loop
      vertex 5.492306061141544 3.6532397950167868 0.31807739883371616
      vertex 5.255274783530658 3.4478460858808977 0.31807739883371616
      vertex 6.200918890263296 2.761388937974907 0.31807739883371616
    endloop
  endfacet
  facet normal 0.0 0.0 1.0
    outer loop
      vertex 3.8471461388937973 2.761388937974907 0.31807739883371616
      vertex 6.200918890263296 2.761388937974907 0.31807739883371616
      vertex 5.255274783530658 3.4478460858808977 0.31807739883371616
    endloop
  endfacet
  facet normal 0.0 0.0 1.0
    outer loop
      vertex 3.8471461388937973 2.761388937974907 0.31807739883371616
      vertex 5.255274783530658 3.4478460858808977 0.31807739883371616
      vertex 4.94481533839901 3.403208694115568 0.31807739883371616
    endloop
  endfacet
  facet normal 0.0 0.0 1.0
    outer loop
      vertex 3.8471461388937973 2.761388937974907 0.31807739883371616
      vertex 4.94481533839901 3.403208694115568 0.31807739883371616
      vertex 4.659515815515109 3.533502738999823 0.31807739883371616
    endloop
  endfacet
  facet normal 0.0 0.0 1.0
    outer loop
      vertex 3.8471461388937973 2.761388937974907 0.31807739883371616
      vertex 4.489948754196854 3.797357483654355 0.31807739883371616
      vertex 4.489948754196854 4.111000883548329 0.31807739883371616
    endloop
  endfacet
  facet normal 0.0 0.0 1.0
    outer loop
      vertex 3.8471461388937973 2.761388937974907 0.31807739883371616
      vertex 4.659515815515109 3.533502738999823 0.31807739883371616
      vertex 4.489948754196854 3.797357483654355 0.31807739883371616
    endloop
  endfacet
  facet normal 0.0 0.0 1.0
    outer loop
      vertex 5.580667962537551 3.9541791836013425 0.31807739883371616
      vertex 5.492306061141544 3.6532397950167868 0.31807739883371616
      vertex 6.200918890263296 2.761388937974907 0.31807739883371616
    endloop
  endfacet
  facet normal 0.0 -0.0 1.0
    outer loop
      vertex 3.047579077575543 7.671279377981974 1.7891853684396535
      vertex 3.8471461388937973 8.100318077398832 1.7891853684396535
      vertex 2.5843788655239437 8.100318077398832 1.7891853684396535
    endloop
  endfacet
  facet normal -0.0 -0.0 1.0
    outer loop
      vertex 3.3060169641279376 3.6380563703834596 1.7891853684396535
      vertex 3.8471461388937973 2.761388937974907 1.7891853684396535
      vertex 2.5843788655239437 8.100318077398832 1.7891853684396535
    endloop
  endfacet
  facet normal 0.0 0.0 1.0
    outer loop
      vertex 2.5843788655239437 2.761388937974907 1.7891853684396535
      vertex 2.918360134299346 3.4142427990811095 1.7891853684396535
      vertex 2.5843788655239437 8.100318077398832 1.7891853684396535
    endloop
  endfacet
  facet normal 0.0 -0.0 1.0
    outer loop
      vertex 2.918360134299346 3.4142427990811095 1.7891853684396535
      vertex 3.047579077575543 3.6380563703834596 1.7891853684396535
      vertex 2.5843788655239437 8.100318077398832 1.7891853684396535
    endloop
  endfacet
  facet normal 0.0 -0.0 1.0
    outer loop
      vertex 3.047579077575543 3.6380563703834596 1.7891853684396535
      vertex 3.3060169641279376 3.6380563703834596 1.7891853684396535
      vertex 2.5843788655239437 8.100318077398832 1.7891853684396535
    endloop
  endfacet
  facet normal -0.0 -0.0 1.0
    outer loop
      vertex 3.435235907404135 3.4142427990811095 1.7891853684396535
      vertex 3.8471461388937973 2.761388937974907 1.7891853684396535
      vertex 3.3060169641279376 3.6380563703834596 1.7891853684396535
    endloop
  endfacet
  facet normal 0.0 0.0 1.0
    outer loop
      vertex 3.3060169641279376 3.190429227778759 1.7891853684396535
      vertex 3.047579077575543 3.190429227778759 1.7891853684396535
      vertex 3.8471461388937973 2.761388937974907 1.7891853684396535
    endloop
  endfacet
  facet normal 0.0 0.0 1.0
    outer loop
      vertex 3.047579077575543 7.671279377981974 1.7891853684396535
      vertex 3.3060169641279376 7.671279377981974 1.7891853684396535
      vertex 3.8471461388937973 8.100318077398832 1.7891853684396535
    endloop
  endfacet
  facet normal 0.0 0.0 1.0
    outer loop
      vertex 2.5843788655239437 2.761388937974907 1.7891853684396535
      vertex 3.047579077575543 3.190429227778759 1.7891853684396535
      vertex 2.918360134299346 3.4142427990811095 1.7891853684396535
    endloop
  endfacet
  facet normal 0.0 0.0 1.0
    outer loop
      vertex 2.5843788655239437 2.761388937974907 1.7891853684396535
      vertex 3.8471461388937973 2.761388937974907 1.7891853684396535
      vertex 3.047579077575543 3.190429227778759 1.7891853684396535
    endloop
  endfacet
  facet normal 0.0 0.0 1.0
    outer loop
      vertex 3.8471461388937973 2.761388937974907 1.7891853684396535
      vertex 2.918360134299346 7.447464216292631 1.7891853684396535
      vertex 2.5843788655239437 8.100318077398832 1.7891853684396535
    endloop
  endfacet
  facet normal 0.0 -0.0 1.0
    outer loop
      vertex 2.918360134299346 7.447464216292631 1.7891853684396535
      vertex 3.047579077575543 7.671279377981974 1.7891853684396535
      vertex 2.5843788655239437 8.100318077398832 1.7891853684396535
    endloop
  endfacet
  facet normal 0.0 0.0 1.0
    outer loop
      vertex 3.435235907404135 7.447464216292631 1.7891853684396535
      vertex 3.3060169641279376 7.223649054603285 1.7891853684396535
      vertex 3.8471461388937973 2.761388937974907 1.7891853684396535
    endloop
  endfacet
  facet normal 0.0 -0.0 1.0
    outer loop
      vertex 3.435235907404135 7.447464216292631 1.7891853684396535
      vertex 3.8471461388937973 8.100318077398832 1.7891853684396535
      vertex 3.3060169641279376 7.671279377981974 1.7891853684396535
    endloop
  endfacet
  facet normal 0.0 -0.0 1.0
    outer loop
      vertex 3.8471461388937973 2.761388937974907 1.7891853684396535
      vertex 3.8471461388937973 8.100318077398832 1.7891853684396535
      vertex 3.435235907404135 7.447464216292631 1.7891853684396535
    endloop
  endfacet
  facet normal 0.0 0.0 1.0
    outer loop
      vertex 3.8471461388937973 2.761388937974907 1.7891853684396535
      vertex 3.047579077575543 7.223649054603285 1.7891853684396535
      vertex 2.918360134299346 7.447464216292631 1.7891853684396535
    endloop
  endfacet
  facet normal 0.0 0.0 1.0
    outer loop
      vertex 3.8471461388937973 2.761388937974907 1.7891853684396535
      vertex 3.3060169641279376 7.223649054603285 1.7891853684396535
      vertex 3.047579077575543 7.223649054603285 1.7891853684396535
    endloop
  endfacet
  facet normal 0.0 0.0 1.0
    outer loop
      vertex 3.435235907404135 3.4142427990811095 1.7891853684396535
      vertex 3.3060169641279376 3.190429227778759 1.7891853684396535
      vertex 3.8471461388937973 2.761388937974907 1.7891853684396535
    endloop
  endfacet
  facet normal 0.0 -0.0 1.0
    outer loop
      vertex 6.742048065029156 7.671279377981974 1.7891853684396535
      vertex 7.46368616363315 8.100318077398832 1.7891853684396535
      vertex 6.200918890263296 8.100318077398832 1.7891853684396535
    endloop
  endfacet
  facet normal -0.0 -0.0 1.0
    outer loop
      vertex 7.129704894857747 3.4142427990811095 1.7891853684396535
      vertex 7.46368616363315 2.761388937974907 1.7891853684396535
      vertex 6.200918890263296 8.100318077398832 1.7891853684396535
    endloop
  endfacet
  facet normal 0.0 0.0 1.0
    outer loop
      vertex 6.200918890263296 2.761388937974907 1.7891853684396535
      vertex 6.6128291217529585 3.4142427990811095 1.7891853684396535
      vertex 6.200918890263296 8.100318077398832 1.7891853684396535
    endloop
  endfacet
  facet normal 0.0 -0.0 1.0
    outer loop
      vertex 6.6128291217529585 3.4142427990811095 1.7891853684396535
      vertex 6.742048065029156 3.6380563703834596 1.7891853684396535
      vertex 6.200918890263296 8.100318077398832 1.7891853684396535
    endloop
  endfacet
  facet normal 0.0 -0.0 1.0
    outer loop
      vertex 6.742048065029156 3.6380563703834596 1.7891853684396535
      vertex 7.000485951581551 3.6380563703834596 1.7891853684396535
      vertex 6.200918890263296 8.100318077398832 1.7891853684396535
    endloop
  endfacet
  facet normal 0.0 0.0 1.0
    outer loop
      vertex 7.000485951581551 3.190429227778759 1.7891853684396535
      vertex 6.742048065029156 3.190429227778759 1.7891853684396535
      vertex 7.46368616363315 2.761388937974907 1.7891853684396535
    endloop
  endfacet
  facet normal -0.0 -0.0 1.0
    outer loop
      vertex 7.000485951581551 3.6380563703834596 1.7891853684396535
      vertex 7.129704894857747 3.4142427990811095 1.7891853684396535
      vertex 6.200918890263296 8.100318077398832 1.7891853684396535
    endloop
  endfacet
  facet normal 0.0 0.0 1.0
    outer loop
      vertex 6.742048065029156 7.671279377981974 1.7891853684396535
      vertex 7.000485951581551 7.671279377981974 1.7891853684396535
      vertex 7.46368616363315 8.100318077398832 1.7891853684396535
    endloop
  endfacet
  facet normal 0.0 0.0 1.0
    outer loop
      vertex 6.200918890263296 2.761388937974907 1.7891853684396535
      vertex 6.742048065029156 3.190429227778759 1.7891853684396535
      vertex 6.6128291217529585 3.4142427990811095 1.7891853684396535
    endloop
  endfacet
  facet normal 0.0 0.0 1.0
    outer loop
      vertex 6.200918890263296 2.761388937974907 1.7891853684396535
      vertex 7.46368616363315 2.761388937974907 1.7891853684396535
      vertex 6.742048065029156 3.190429227778759 1.7891853684396535
    endloop
  endfacet
  facet normal 0.0 0.0 1.0
    outer loop
      vertex 7.46368616363315 2.761388937974907 1.7891853684396535
      vertex 6.6128291217529585 7.447464216292631 1.7891853684396535
      vertex 6.200918890263296 8.100318077398832 1.7891853684396535
    endloop
  endfacet
  facet normal 0.0 -0.0 1.0
    outer loop
      vertex 6.6128291217529585 7.447464216292631 1.7891853684396535
      vertex 6.742048065029156 7.671279377981974 1.7891853684396535
      vertex 6.200918890263296 8.100318077398832 1.7891853684396535
    endloop
  endfacet
  facet normal 0.0 0.0 1.0
    outer loop
      vertex 7.129704894857747 7.447464216292631 1.7891853684396535
      vertex 7.000485951581551 7.223649054603285 1.7891853684396535
      vertex 7.46368616363315 2.761388937974907 1.7891853684396535
    endloop
  endfacet
  facet normal 0.0 -0.0 1.0
    outer loop
      vertex 7.129704894857747 7.447464216292631 1.7891853684396535
      vertex 7.46368616363315 8.100318077398832 1.7891853684396535
      vertex 7.000485951581551 7.671279377981974 1.7891853684396535
    endloop
  endfacet
  facet normal 0.0 -0.0 1.0
    outer loop
      vertex 7.46368616363315 2.761388937974907 1.7891853684396535
      vertex 7.46368616363315 8.100318077398832 1.7891853684396535
      vertex 7.129704894857747 7.447464216292631 1.7891853684396535
    endloop
  endfacet
  facet normal 0.0 0.0 1.0
    outer loop
      vertex 7.46368616363315 2.761388937974907 1.7891853684396535
      vertex 6.742048065029156 7.223649054603285 1.7891853684396535
      vertex 6.6128291217529585 7.447464216292631 1.7891853684396535
    endloop
  endfacet
  facet normal 0.0 0.0 1.0
    outer loop
      vertex 7.46368616363315 2.761388937974907 1.7891853684396535
      vertex 7.000485951581551 7.223649054603285 1.7891853684396535
      vertex 6.742048065029156 7.223649054603285 1.7891853684396535
    endloop
  endfacet
  facet normal 0.0 0.0 1.0
    outer loop
      vertex 7.129704894857747 3.4142427990811095 1.7891853684396535
      vertex 7.000485951581551 3.190429227778759 1.7891853684396535
      vertex 7.46368616363315 2.761388937974907 1.7891853684396535
    endloop
  endfacet
  facet normal 0.8660252066842812 -0.5000003413873314 0.0
    outer loop
      vertex 3.047579077575543 3.6380563703834596 0.8349531719385049
      vertex 3.047579077575543 3.6380563703834596 1.7891853684396535
      vertex 2.918360134299346 3.4142427990811095 1.7891853684396535
    endloop
  endfacet
  facet normal 0.8660252066842812 -0.5000003413873314 0.0
    outer loop
      vertex 2.918360134299346 3.4142427990811095 0.8349531719385049
      vertex 3.047579077575543 3.6380563703834596 0.8349531719385049
      vertex 2.918360134299346 3.4142427990811095 1.7891853684396535
    endloop
  endfacet
  facet normal 0.8660252066842816 0.5000003413873306 0.0
    outer loop
      vertex 2.918360134299346 3.4142427990811095 1.7891853684396535
      vertex 3.047579077575543 3.190429227778759 1.7891853684396535
      vertex 3.047579077575543 3.190429227778759 0.8349531719385049
    endloop
  endfacet
  facet normal 0.8660252066842816 0.5000003413873306 -0.0
    outer loop
      vertex 2.918360134299346 3.4142427990811095 0.8349531719385049
      vertex 2.918360134299346 3.4142427990811095 1.7891853684396535
      vertex 3.047579077575543 3.190429227778759 0.8349531719385049
    endloop
  endfacet
  facet normal 0.0 1.0 0.0
    outer loop
      vertex 3.3060169641279376 3.190429227778759 1.7891853684396535
      vertex 3.3060169641279376 3.190429227778759 0.8349531719385049
      vertex 3.047579077575543 3.190429227778759 1.7891853684396535
    endloop
  endfacet
  facet normal 0.0 1.0 0.0
    outer loop
      vertex 3.047579077575543 3.190429227778759 1.7891853684396535
      vertex 3.3060169641279376 3.190429227778759 0.8349531719385049
      vertex 3.047579077575543 3.190429227778759 0.8349531719385049
    endloop
  endfacet
  facet normal -0.866025206684281 0.500000341387332 0.0
    outer loop
      vertex 3.435235907404135 3.4142427990811095 1.7891853684396535
      vertex 3.435235907404135 3.4142427990811095 0.8349531719385049
      vertex 3.3060169641279376 3.190429227778759 1.7891853684396535
    endloop
  endfacet
  facet normal -0.866025206684281 0.500000341387332 0.0
    outer loop
      vertex 3.3060169641279376 3.190429227778759 1.7891853684396535
      vertex 3.435235907404135 3.4142427990811095 0.8349531719385049
      vertex 3.3060169641279376 3.190429227778759 0.8349531719385049
    endloop
  endfacet
  facet normal -0.8660252066842805 -0.5000003413873327 -0.0
    outer loop
      vertex 3.435235907404135 3.4142427990811095 1.7891853684396535
      vertex 3.3060169641279376 3.6380563703834596 1.7891853684396535
      vertex 3.435235907404135 3.4142427990811095 0.8349531719385049
    endloop
  endfacet
  facet normal -0.8660252066842805 -0.5000003413873327 0.0
    outer loop
      vertex 3.435235907404135 3.4142427990811095 0.8349531719385049
      vertex 3.3060169641279376 3.6380563703834596 1.7891853684396535
      vertex 3.3060169641279376 3.6380563703834596 0.8349531719385049
    endloop
  endfacet
  facet normal 0.0 -1.0 0.0
    outer loop
      vertex 3.3060169641279376 3.6380563703834596 0.8349531719385049
      vertex 3.3060169641279376 3.6380563703834596 1.7891853684396535
      vertex 3.047579077575543 3.6380563703834596 1.7891853684396535
    endloop
  endfacet
  facet normal 0.0 -1.0 0.0
    outer loop
      vertex 3.047579077575543 3.6380563703834596 0.8349531719385049
      vertex 3.3060169641279376 3.6380563703834596 0.8349531719385049
      vertex 3.047579077575543 3.6380563703834596 1.7891853684396535
    endloop
  endfacet
  facet normal 0.8660267451366711 -0.4999976767025857 0.0
    outer loop
      vertex 3.047579077575543 7.671279377981974 0.8349531719385049
      vertex 3.047579077575543 7.671279377981974 1.7891853684396535
      vertex 2.918360134299346 7.447464216292631 1.7891853684396535
    endloop
  endfacet
  facet normal 0.8660267451366711 -0.4999976767025857 0.0
    outer loop
      vertex 2.918360134299346 7.447464216292631 0.8349531719385049
      vertex 3.047579077575543 7.671279377981974 0.8349531719385049
      vertex 2.918360134299346 7.447464216292631 1.7891853684396535
    endloop
  endfacet
  facet normal 0.8660267451366737 0.49999767670258116 0.0
    outer loop
      vertex 2.918360134299346 7.447464216292631 1.7891853684396535
      vertex 3.047579077575543 7.223649054603285 1.7891853684396535
      vertex 3.047579077575543 7.223649054603285 0.8349531719385049
    endloop
  endfacet
  facet normal 0.8660267451366737 0.49999767670258116 -0.0
    outer loop
      vertex 2.918360134299346 7.447464216292631 0.8349531719385049
      vertex 2.918360134299346 7.447464216292631 1.7891853684396535
      vertex 3.047579077575543 7.223649054603285 0.8349531719385049
    endloop
  endfacet
  facet normal 0.0 1.0 0.0
    outer loop
      vertex 3.3060169641279376 7.223649054603285 1.7891853684396535
      vertex 3.3060169641279376 7.223649054603285 0.8349531719385049
      vertex 3.047579077575543 7.223649054603285 1.7891853684396535
    endloop
  endfacet
  facet normal 0.0 1.0 0.0
    outer loop
      vertex 3.047579077575543 7.223649054603285 1.7891853684396535
      vertex 3.3060169641279376 7.223649054603285 0.8349531719385049
      vertex 3.047579077575543 7.223649054603285 0.8349531719385049
    endloop
  endfacet
  facet normal -0.8660267451366729 0.49999767670258244 0.0
    outer loop
      vertex 3.435235907404135 7.447464216292631 1.7891853684396535
      vertex 3.435235907404135 7.447464216292631 0.8349531719385049
      vertex 3.3060169641279376 7.223649054603285 1.7891853684396535
    endloop
  endfacet
  facet normal -0.8660267451366729 0.49999767670258244 0.0
    outer loop
      vertex 3.3060169641279376 7.223649054603285 1.7891853684396535
      vertex 3.435235907404135 7.447464216292631 0.8349531719385049
      vertex 3.3060169641279376 7.223649054603285 0.8349531719385049
    endloop
  endfacet
  facet normal -0.8660267451366703 -0.49999767670258694 -0.0
    outer loop
      vertex 3.435235907404135 7.447464216292631 1.7891853684396535
      vertex 3.3060169641279376 7.671279377981974 1.7891853684396535
      vertex 3.435235907404135 7.447464216292631 0.8349531719385049
    endloop
  endfacet
  facet normal -0.8660267451366703 -0.49999767670258694 0.0
    outer loop
      vertex 3.435235907404135 7.447464216292631 0.8349531719385049
      vertex 3.3060169641279376 7.671279377981974 1.7891853684396535
      vertex 3.3060169641279376 7.671279377981974 0.8349531719385049
    endloop
  endfacet
  facet normal 0.0 -1.0 0.0
    outer loop
      vertex 3.3060169641279376 7.671279377981974 0.8349531719385049
      vertex 3.3060169641279376 7.671279377981974 1.7891853684396535
      vertex 3.047579077575543 7.671279377981974 1.7891853684396535
    endloop
  endfacet
  facet normal 0.0 -1.0 0.0
    outer loop
      vertex 3.047579077575543 7.671279377981974 0.8349531719385049
      vertex 3.3060169641279376 7.671279377981974 0.8349531719385049
      vertex 3.047579077575543 7.671279377981974 1.7891853684396535
    endloop
  endfacet
  facet normal 0.8660252066842805 -0.5000003413873327 0.0
    outer loop
      vertex 6.742048065029156 3.6380563703834596 0.8349531719385049
      vertex 6.742048065029156 3.6380563703834596 1.7891853684396535
      vertex 6.6128291217529585 3.4142427990811095 1.7891853684396535
    endloop
  endfacet
  facet normal 0.8660252066842805 -0.5000003413873327 0.0
    outer loop
      vertex 6.6128291217529585 3.4142427990811095 0.8349531719385049
      vertex 6.742048065029156 3.6380563703834596 0.8349531719385049
      vertex 6.6128291217529585 3.4142427990811095 1.7891853684396535
    endloop
  endfacet
  facet normal 0.866025206684281 0.500000341387332 0.0
    outer loop
      vertex 6.6128291217529585 3.4142427990811095 1.7891853684396535
      vertex 6.742048065029156 3.190429227778759 1.7891853684396535
      vertex 6.742048065029156 3.190429227778759 0.8349531719385049
    endloop
  endfacet
  facet normal 0.866025206684281 0.500000341387332 -0.0
    outer loop
      vertex 6.6128291217529585 3.4142427990811095 0.8349531719385049
      vertex 6.6128291217529585 3.4142427990811095 1.7891853684396535
      vertex 6.742048065029156 3.190429227778759 0.8349531719385049
    endloop
  endfacet
  facet normal 0.0 1.0 0.0
    outer loop
      vertex 7.000485951581551 3.190429227778759 1.7891853684396535
      vertex 7.000485951581551 3.190429227778759 0.8349531719385049
      vertex 6.742048065029156 3.190429227778759 1.7891853684396535
    endloop
  endfacet
  facet normal 0.0 1.0 0.0
    outer loop
      vertex 6.742048065029156 3.190429227778759 1.7891853684396535
      vertex 7.000485951581551 3.190429227778759 0.8349531719385049
      vertex 6.742048065029156 3.190429227778759 0.8349531719385049
    endloop
  endfacet
  facet normal -0.8660252066842824 0.5000003413873294 0.0
    outer loop
      vertex 7.129704894857747 3.4142427990811095 1.7891853684396535
      vertex 7.129704894857747 3.4142427990811095 0.8349531719385049
      vertex 7.000485951581551 3.190429227778759 1.7891853684396535
    endloop
  endfacet
  facet normal -0.8660252066842824 0.5000003413873294 0.0
    outer loop
      vertex 7.000485951581551 3.190429227778759 1.7891853684396535
      vertex 7.129704894857747 3.4142427990811095 0.8349531719385049
      vertex 7.000485951581551 3.190429227778759 0.8349531719385049
    endloop
  endfacet
  facet normal -0.866025206684282 -0.5000003413873301 -0.0
    outer loop
      vertex 7.129704894857747 3.4142427990811095 1.7891853684396535
      vertex 7.000485951581551 3.6380563703834596 1.7891853684396535
      vertex 7.129704894857747 3.4142427990811095 0.8349531719385049
    endloop
  endfacet
  facet normal -0.866025206684282 -0.5000003413873301 0.0
    outer loop
      vertex 7.129704894857747 3.4142427990811095 0.8349531719385049
      vertex 7.000485951581551 3.6380563703834596 1.7891853684396535
      vertex 7.000485951581551 3.6380563703834596 0.8349531719385049
    endloop
  endfacet
  facet normal 0.0 -1.0 0.0
    outer loop
      vertex 7.000485951581551 3.6380563703834596 0.8349531719385049
      vertex 7.000485951581551 3.6380563703834596 1.7891853684396535
      vertex 6.742048065029156 3.6380563703834596 1.7891853684396535
    endloop
  endfacet
  facet normal 0.0 -1.0 0.0
    outer loop
      vertex 6.742048065029156 3.6380563703834596 0.8349531719385049
      vertex 7.000485951581551 3.6380563703834596 0.8349531719385049
      vertex 6.742048065029156 3.6380563703834596 1.7891853684396535
    endloop
  endfacet
  facet normal 0.8660267451366729 0.49999767670258244 0.0
    outer loop
      vertex 6.6128291217529585 7.447464216292631 1.7891853684396535
      vertex 6.742048065029156 7.223649054603285 1.7891853684396535
      vertex 6.742048065029156 7.223649054603285 0.8349531719385049
    endloop
  endfacet
  facet normal 0.8660267451366729 0.49999767670258244 -0.0
    outer loop
      vertex 6.6128291217529585 7.447464216292631 0.8349531719385049
      vertex 6.6128291217529585 7.447464216292631 1.7891853684396535
      vertex 6.742048065029156 7.223649054603285 0.8349531719385049
    endloop
  endfacet
  facet normal 0.8660267451366703 -0.49999767670258694 0.0
    outer loop
      vertex 6.742048065029156 7.671279377981974 0.8349531719385049
      vertex 6.742048065029156 7.671279377981974 1.7891853684396535
      vertex 6.6128291217529585 7.447464216292631 1.7891853684396535
    endloop
  endfacet
  facet normal 0.8660267451366703 -0.49999767670258694 0.0
    outer loop
      vertex 6.6128291217529585 7.447464216292631 0.8349531719385049
      vertex 6.742048065029156 7.671279377981974 0.8349531719385049
      vertex 6.6128291217529585 7.447464216292631 1.7891853684396535
    endloop
  endfacet
  facet normal 0.0 1.0 0.0
    outer loop
      vertex 7.000485951581551 7.223649054603285 1.7891853684396535
      vertex 7.000485951581551 7.223649054603285 0.8349531719385049
      vertex 6.742048065029156 7.223649054603285 1.7891853684396535
    endloop
  endfacet
  facet normal 0.0 1.0 0.0
    outer loop
      vertex 6.742048065029156 7.223649054603285 1.7891853684396535
      vertex 7.000485951581551 7.223649054603285 0.8349531719385049
      vertex 6.742048065029156 7.223649054603285 0.8349531719385049
    endloop
  endfacet
  facet normal -0.8660267451366744 0.4999976767025799 0.0
    outer loop
      vertex 7.129704894857747 7.447464216292631 1.7891853684396535
      vertex 7.129704894857747 7.447464216292631 0.8349531719385049
      vertex 7.000485951581551 7.223649054603285 1.7891853684396535
    endloop
  endfacet
  facet normal -0.8660267451366744 0.4999976767025799 0.0
    outer loop
      vertex 7.000485951581551 7.223649054603285 1.7891853684396535
      vertex 7.129704894857747 7.447464216292631 0.8349531719385049
      vertex 7.000485951581551 7.223649054603285 0.8349531719385049
    endloop
  endfacet
  facet normal -0.8660267451366718 -0.4999976767025843 -0.0
    outer loop
      vertex 7.129704894857747 7.447464216292631 1.7891853684396535
      vertex 7.000485951581551 7.671279377981974 1.7891853684396535
      vertex 7.129704894857747 7.447464216292631 0.8349531719385049
    endloop
  endfacet
  facet normal -0.8660267451366718 -0.4999976767025843 0.0
    outer loop
      vertex 7.129704894857747 7.447464216292631 0.8349531719385049
      vertex 7.000485951581551 7.671279377981974 1.7891853684396535
      vertex 7.000485951581551 7.671279377981974 0.8349531719385049
    endloop
  endfacet
  facet normal 0.0 -1.0 0.0
    outer loop
      vertex 7.000485951581551 7.671279377981974 0.8349531719385049
      vertex 7.000485951581551 7.671279377981974 1.7891853684396535
      vertex 6.742048065029156 7.671279377981974 1.7891853684396535
    endloop
  endfacet
  facet normal 0.0 -1.0 0.0
    outer loop
      vertex 6.742048065029156 7.671279377981974 0.8349531719385049
      vertex 7.000485951581551 7.671279377981974 0.8349531719385049
      vertex 6.742048065029156 7.671279377981974 1.7891853684396535
    endloop
  endfacet
  facet normal 0.0 0.0 1.0
    outer loop
      vertex 3.047579077575543 3.190429227778759 0.8349531719385049
      vertex 3.3060169641279376 3.190429227778759 0.8349531719385049
      vertex 3.435235907404135 3.4142427990811095 0.8349531719385049
    endloop
  endfacet
  facet normal -0.0 0.0 1.0
    outer loop
      vertex 3.047579077575543 3.6380563703834596 0.8349531719385049
      vertex 3.047579077575543 3.190429227778759 0.8349531719385049
      vertex 3.3060169641279376 3.6380563703834596 0.8349531719385049
    endloop
  endfacet
  facet normal 0.0 0.0 1.0
    outer loop
      vertex 3.3060169641279376 3.6380563703834596 0.8349531719385049
      vertex 3.047579077575543 3.190429227778759 0.8349531719385049
      vertex 3.435235907404135 3.4142427990811095 0.8349531719385049
    endloop
  endfacet
  facet normal -0.0 0.0 1.0
    outer loop
      vertex 2.918360134299346 3.4142427990811095 0.8349531719385049
      vertex 3.047579077575543 3.190429227778759 0.8349531719385049
      vertex 3.047579077575543 3.6380563703834596 0.8349531719385049
    endloop
  endfacet
  facet normal 0.0 0.0 1.0
    outer loop
      vertex 3.047579077575543 7.223649054603285 0.8349531719385049
      vertex 3.3060169641279376 7.223649054603285 0.8349531719385049
      vertex 3.435235907404135 7.447464216292631 0.8349531719385049
    endloop
  endfacet
  facet normal -0.0 0.0 1.0
    outer loop
      vertex 3.047579077575543 7.671279377981974 0.8349531719385049
      vertex 3.047579077575543 7.223649054603285 0.8349531719385049
      vertex 3.3060169641279376 7.671279377981974 0.8349531719385049
    endloop
  endfacet
  facet normal 0.0 0.0 1.0
    outer loop
      vertex 3.3060169641279376 7.671279377981974 0.8349531719385049
      vertex 3.047579077575543 7.223649054603285 0.8349531719385049
      vertex 3.435235907404135 7.447464216292631 0.8349531719385049
    endloop
  endfacet
  facet normal -0.0 0.0 1.0
    outer loop
      vertex 2.918360134299346 7.447464216292631 0.8349531719385049
      vertex 3.047579077575543 7.223649054603285 0.8349531719385049
      vertex 3.047579077575543 7.671279377981974 0.8349531719385049
    endloop
  endfacet
  facet normal 0.0 0.0 1.0
    outer loop
      vertex 6.742048065029156 3.190429227778759 0.8349531719385049
      vertex 7.000485951581551 3.190429227778759 0.8349531719385049
      vertex 7.129704894857747 3.4142427990811095 0.8349531719385049
    endloop
  endfacet
  facet normal -0.0 0.0 1.0
    outer loop
      vertex 6.742048065029156 3.6380563703834596 0.8349531719385049
      vertex 6.742048065029156 3.190429227778759 0.8349531719385049
      vertex 7.000485951581551 3.6380563703834596 0.8349531719385049
    endloop
  endfacet
  facet normal 0.0 0.0 1.0
    outer loop
      vertex 7.000485951581551 3.6380563703834596 0.8349531719385049
      vertex 6.742048065029156 3.190429227778759 0.8349531719385049
      vertex 7.129704894857747 3.4142427990811095 0.8349531719385049
    endloop
  endfacet
  facet normal -0.0 0.0 1.0
    outer loop
      vertex 6.6128291217529585 3.4142427990811095 0.8349531719385049
      vertex 6.742048065029156 3.190429227778759 0.8349531719385049
      vertex 6.742048065029156 3.6380563703834596 0.8349531719385049
    endloop
  endfacet
  facet normal 0.0 0.0 1.0
    outer loop
      vertex 6.742048065029156 7.223649054603285 0.8349531719385049
      vertex 7.000485951581551 7.223649054603285 0.8349531719385049
      vertex 7.129704894857747 7.447464216292631 0.8349531719385049
    endloop
  endfacet
  facet normal -0.0 0.0 1.0
    outer loop
      vertex 6.742048065029156 7.671279377981974 0.8349531719385049
      vertex 6.742048065029156 7.223649054603285 0.8349531719385049
      vertex 7.000485951581551 7.671279377981974 0.8349531719385049
    endloop
  endfacet
  facet normal 0.0 0.0 1.0
    outer loop
      vertex 7.000485951581551 7.671279377981974 0.8349531719385049
      vertex 6.742048065029156 7.223649054603285 0.8349531719385049
      vertex 7.129704894857747 7.447464216292631 0.8349531719385049
    endloop
  endfacet
  facet normal -0.0 0.0 1.0
    outer loop
      vertex 6.6128291217529585 7.447464216292631 0.8349531719385049
      vertex 6.742048065029156 7.223649054603285 0.8349531719385049
      vertex 6.742048065029156 7.671279377981974 0.8349531719385049
    endloop
  endfacet
endsolid thingi10k_65644
