solid tri_prism
  facet normal 0 0 1
    outer loop
      vertex 0 0 0
      vertex 14 0 0
      vertex 0 9 0
    endloop
  endfacet
  facet normal 0 0 -1
    outer loop
      vertex 0 0 7
      vertex 0 9 7
      vertex 14 0 7
    endloop
  endfacet
  facet normal 0 1 0
    outer loop
      vertex 0 0 0
      vertex 0 0 7
      vertex 14 0 7
    endloop
  endfacet
  facet normal 0 1 0
    outer loop
      vertex 0 0 0
      vertex 14 0 7
      vertex 14 0 0
    endloop
  endfacet
  facet normal -0.5407576 -0.8411784 0
    outer loop
      vertex 14 0 0
      vertex 14 0 7
      vertex 0 9 7
    endloop
  endfacet
  facet normal -0.5407576 -0.8411784 0
    outer loop
      vertex 14 0 0
      vertex 0 9 7
      vertex 0 9 0
    endloop
  endfacet
  facet normal 1 0 -0
    outer loop
      vertex 0 9 0
      vertex 0 9 7
      vertex 0 0 7
    endloop
  endfacet
  facet normal 1 0 0
    outer loop
      vertex 0 9 0
      vertex 0 0 7
      vertex 0 0 0
    endloop
  endfacet
endsolid tri_prism
