solid abc_50_000
  facet normal 0.0 -0.0 -1.0
    outer loop
      vertex 4.907293218369499 3.16866385086891 0.0
      vertex 4.9999999987259045 2.49417192297635 0.0
      vertex 4.369519465131098 2.751131458947978 0.0
    endloop
  endfacet
  facet normal 0.0 0.0 -1.0
    outer loop
      vertex 4.9999999987259045 2.49417192297635 0.0
      vertex 4.907293218369497 1.8196799950837845 0.0
      vertex 4.488218587367431 2.2180623905879084 0.0
    endloop
  endfacet
  facet normal 0.0 0.0 -1.0
    outer loop
      vertex 4.369519465131098 2.751131458947978 0.0
      vertex 4.9999999987259045 2.49417192297635 0.0
      vertex 4.488218587367431 2.2180623905879084 0.0
    endloop
  endfacet
  facet normal 0.0 -0.0 -1.0
    outer loop
      vertex 4.636048511366222 3.7931317980649326 0.0
      vertex 4.907293218369499 3.16866385086891 0.0
      vertex 4.201441817389037 3.3259485583365205 0.0
    endloop
  endfacet
  facet normal -0.0 0.0 -1.0
    outer loop
      vertex 4.907293218369499 3.16866385086891 0.0
      vertex 4.369519465131098 2.751131458947978 0.0
      vertex 4.201441817389037 3.3259485583365205 0.0
    endloop
  endfacet
  facet normal 0.0 -0.0 -1.0
    outer loop
      vertex 4.206382858046637 4.3212618336716595 0.0
      vertex 4.636048511366222 3.7931317980649326 0.0
      vertex 4.047469845241219 3.8233482503497616 0.0
    endloop
  endfacet
  facet normal -0.0 0.0 -1.0
    outer loop
      vertex 4.636048511366222 3.7931317980649326 0.0
      vertex 4.201441817389037 3.3259485583365205 0.0
      vertex 4.047469845241219 3.8233482503497616 0.0
    endloop
  endfacet
  facet normal 0.0 -0.0 -1.0
    outer loop
      vertex 3.6501625943278837 4.713884968982287 0.0
      vertex 4.206382858046637 4.3212618336716595 0.0
      vertex 3.581682107394269 4.062300538726216 0.0
    endloop
  endfacet
  facet normal 0.0 0.0 -1.0
    outer loop
      vertex 3.581682107394269 4.062300538726216 0.0
      vertex 4.206382858046637 4.3212618336716595 0.0
      vertex 4.047469845241219 3.8233482503497616 0.0
    endloop
  endfacet
  facet normal 0.0 0.0 -1.0
    outer loop
      vertex 3.0086400326315896 4.941882142182156 0.0
      vertex 3.6501625943278837 4.713884968982287 0.0
      vertex 3.154272268906817 4.41423416152917 0.0
    endloop
  endfacet
  facet normal 0.0 0.0 -1.0
    outer loop
      vertex 3.6501625943278837 4.713884968982287 0.0
      vertex 3.581682107394269 4.062300538726216 0.0
      vertex 3.154272268906817 4.41423416152917 0.0
    endloop
  endfacet
  facet normal 0.0 0.0 -1.0
    outer loop
      vertex 2.3293939665883294 4.9883438459526985 0.0
      vertex 3.0086400326315896 4.941882142182156 0.0
      vertex 2.652892262901616 4.39679238395574 0.0
    endloop
  endfacet
  facet normal 0.0 -0.0 -1.0
    outer loop
      vertex 3.0086400326315896 4.941882142182156 0.0
      vertex 3.154272268906817 4.41423416152917 0.0
      vertex 2.652892262901616 4.39679238395574 0.0
    endloop
  endfacet
  facet normal 0.0 0.0 -1.0
    outer loop
      vertex 1.6628009695725439 4.849824228273405 0.0
      vertex 2.3293939665883294 4.9883438459526985 0.0
      vertex 2.116058975913213 4.341797567712577 0.0
    endloop
  endfacet
  facet normal 0.0 0.0 -1.0
    outer loop
      vertex 2.116058975913213 4.341797567712577 0.0
      vertex 2.3293939665883294 4.9883438459526985 0.0
      vertex 2.652892262901616 4.39679238395574 0.0
    endloop
  endfacet
  facet normal 0.0 0.0 -1.0
    outer loop
      vertex 1.0582991947128415 4.5365966555024615 0.0
      vertex 1.6628009695725439 4.849824228273405 0.0
      vertex 1.5819653134066556 4.29229274299266 0.0
    endloop
  endfacet
  facet normal 0.0 -0.0 -1.0
    outer loop
      vertex 1.6628009695725439 4.849824228273405 0.0
      vertex 2.116058975913213 4.341797567712577 0.0
      vertex 1.5819653134066556 4.29229274299266 0.0
    endloop
  endfacet
  facet normal 0.0 0.0 -1.0
    outer loop
      vertex 0.5607217732389579 4.071891783791491 0.0
      vertex 1.0582991947128415 4.5365966555024615 0.0
      vertex 1.262846888207071 3.9713763877127657 0.0
    endloop
  endfacet
  facet normal 0.0 0.0 -1.0
    outer loop
      vertex 1.262846888207071 3.9713763877127657 0.0
      vertex 1.0582991947128415 4.5365966555024615 0.0
      vertex 1.5819653134066556 4.29229274299266 0.0
    endloop
  endfacet
  facet normal 0.0 0.0 -1.0
    outer loop
      vertex 0.2069717462363734 3.4901746475919677 0.0
      vertex 0.5607217732389579 4.071891783791491 0.0
      vertex 0.9465617690286157 3.48555462502473 0.0
    endloop
  endfacet
  facet normal 0.0 0.0 -1.0
    outer loop
      vertex 0.9465617690286157 3.48555462502473 0.0
      vertex 0.5607217732389579 4.071891783791491 0.0
      vertex 1.262846888207071 3.9713763877127657 0.0
    endloop
  endfacet
  facet normal 0.0 0.0 -1.0
    outer loop
      vertex 0.02328513490917518 2.8345885457169833 0.0
      vertex 0.2069717462363734 3.4901746475919677 0.0
      vertex 0.6509693617931029 2.910124587601218 0.0
    endloop
  endfacet
  facet normal 0.0 0.0 -1.0
    outer loop
      vertex 0.2069717462363734 3.4901746475919677 0.0
      vertex 0.9465617690286157 3.48555462502473 0.0
      vertex 0.6509693617931029 2.910124587601218 0.0
    endloop
  endfacet
  facet normal 0.0 0.0 -1.0
    outer loop
      vertex 0.023285134909170495 2.1537553002357526 0.0
      vertex 0.02328513490917518 2.8345885457169833 0.0
      vertex 0.46010909350111884 2.4447141284547347 0.0
    endloop
  endfacet
  facet normal 0.0 0.0 -1.0
    outer loop
      vertex 0.02328513490917518 2.8345885457169833 0.0
      vertex 0.6509693617931029 2.910124587601218 0.0
      vertex 0.46010909350111884 2.4447141284547347 0.0
    endloop
  endfacet
  facet normal 0.0 0.0 -1.0
    outer loop
      vertex 0.20697174623635897 1.4981691983607666 0.0
      vertex 0.023285134909170495 2.1537553002357526 0.0
      vertex 0.653446085278291 1.9471961262519892 0.0
    endloop
  endfacet
  facet normal 0.0 0.0 -1.0
    outer loop
      vertex 0.653446085278291 1.9471961262519892 0.0
      vertex 0.023285134909170495 2.1537553002357526 0.0
      vertex 0.46010909350111884 2.4447141284547347 0.0
    endloop
  endfacet
  facet normal 0.0 0.0 -1.0
    outer loop
      vertex 0.5607217732389349 0.916452062161237 0.0
      vertex 0.20697174623635897 1.4981691983607666 0.0
      vertex 0.758467045231107 1.4351222724876964 0.0
    endloop
  endfacet
  facet normal 0.0 0.0 -1.0
    outer loop
      vertex 0.20697174623635897 1.4981691983607666 0.0
      vertex 0.653446085278291 1.9471961262519892 0.0
      vertex 0.758467045231107 1.4351222724876964 0.0
    endloop
  endfacet
  facet normal 0.0 0.0 -1.0
    outer loop
      vertex 1.0582991947128102 0.45174719045026035 0.0
      vertex 0.5607217732389349 0.916452062161237 0.0
      vertex 1.27451273486791 1.2269793686854156 0.0
    endloop
  endfacet
  facet normal 0.0 0.0 -1.0
    outer loop
      vertex 0.5607217732389349 0.916452062161237 0.0
      vertex 0.758467045231107 1.4351222724876964 0.0
      vertex 1.27451273486791 1.2269793686854156 0.0
    endloop
  endfacet
  facet normal 0.0 0.0 -1.0
    outer loop
      vertex 1.662800969572507 0.13851961767930876 0.0
      vertex 1.0582991947128102 0.45174719045026035 0.0
      vertex 1.6885080095392297 0.7702268332673254 0.0
    endloop
  endfacet
  facet normal -0.0 0.0 -1.0
    outer loop
      vertex 1.6885080095392297 0.7702268332673254 0.0
      vertex 1.0582991947128102 0.45174719045026035 0.0
      vertex 1.27451273486791 1.2269793686854156 0.0
    endloop
  endfacet
  facet normal 0.0 0.0 -1.0
    outer loop
      vertex 2.329393966588293 3.902000706228438e-15 0.0
      vertex 1.662800969572507 0.13851961767930876 0.0
      vertex 2.0994780058862967 0.45726311178876383 0.0
    endloop
  endfacet
  facet normal 0.0 0.0 -1.0
    outer loop
      vertex 1.662800969572507 0.13851961767930876 0.0
      vertex 1.6885080095392297 0.7702268332673254 0.0
      vertex 2.0994780058862967 0.45726311178876383 0.0
    endloop
  endfacet
  facet normal -0.0 0.0 -1.0
    outer loop
      vertex 3.0086400326315617 0.04646170377053798 0.0
      vertex 2.329393966588293 3.902000706228438e-15 0.0
      vertex 2.641145375607178 0.4306995717498029 0.0
    endloop
  endfacet
  facet normal -0.0 0.0 -1.0
    outer loop
      vertex 2.641145375607178 0.4306995717498029 0.0
      vertex 2.329393966588293 3.902000706228438e-15 0.0
      vertex 2.0994780058862967 0.45726311178876383 0.0
    endloop
  endfacet
  facet normal -0.0 0.0 -1.0
    outer loop
      vertex 3.6501625943278615 0.2744588769704018 0.0
      vertex 3.0086400326315617 0.04646170377053798 0.0
      vertex 3.112005813409811 0.7116257516994919 0.0
    endloop
  endfacet
  facet normal 0.0 0.0 -1.0
    outer loop
      vertex 3.112005813409811 0.7116257516994919 0.0
      vertex 3.0086400326315617 0.04646170377053798 0.0
      vertex 2.641145375607178 0.4306995717498029 0.0
    endloop
  endfacet
  facet normal -0.0 0.0 -1.0
    outer loop
      vertex 4.2063828580466245 0.6670820122810293 0.0
      vertex 3.6501625943278615 0.2744588769704018 0.0
      vertex 3.673051827384576 0.7975446800122217 0.0
    endloop
  endfacet
  facet normal 0.0 0.0 -1.0
    outer loop
      vertex 3.6501625943278615 0.2744588769704018 0.0
      vertex 3.112005813409811 0.7116257516994919 0.0
      vertex 3.673051827384576 0.7975446800122217 0.0
    endloop
  endfacet
  facet normal -0.0 0.0 -1.0
    outer loop
      vertex 4.636048511366216 1.1952120478877566 0.0
      vertex 4.2063828580466245 0.6670820122810293 0.0
      vertex 3.942636999552544 1.213857139437816 0.0
    endloop
  endfacet
  facet normal 0.0 -0.0 -1.0
    outer loop
      vertex 3.942636999552544 1.213857139437816 0.0
      vertex 4.2063828580466245 0.6670820122810293 0.0
      vertex 3.673051827384576 0.7975446800122217 0.0
    endloop
  endfacet
  facet normal 0.0 0.0 -1.0
    outer loop
      vertex 4.907293218369497 1.8196799950837845 0.0
      vertex 4.636048511366216 1.1952120478877566 0.0
      vertex 4.230865758815882 1.7423508283627493 0.0
    endloop
  endfacet
  facet normal 0.0 -0.0 -1.0
    outer loop
      vertex 4.230865758815882 1.7423508283627493 0.0
      vertex 4.636048511366216 1.1952120478877566 0.0
      vertex 3.942636999552544 1.213857139437816 0.0
    endloop
  endfacet
  facet normal -0.0 0.0 -1.0
    outer loop
      vertex 4.907293218369497 1.8196799950837845 0.0
      vertex 4.230865758815882 1.7423508283627493 0.0
      vertex 4.488218587367431 2.2180623905879084 0.0
    endloop
  endfacet
  facet normal 0.0 -0.0 -1.0
    outer loop
      vertex 4.369519465131098 2.751131458947978 0.0
      vertex 4.488218587367431 2.2180623905879084 0.0
      vertex 3.931010247174789 2.305769882561778 0.0
    endloop
  endfacet
  facet normal -0.0 0.0 -1.0
    outer loop
      vertex 4.369519465131098 2.751131458947978 0.0
      vertex 3.931010247174789 2.305769882561778 0.0
      vertex 3.717832432370329 2.9281393517776415 0.0
    endloop
  endfacet
  facet normal 0.0 0.0 -1.0
    outer loop
      vertex 4.369519465131098 2.751131458947978 0.0
      vertex 3.717832432370329 2.9281393517776415 0.0
      vertex 4.201441817389037 3.3259485583365205 0.0
    endloop
  endfacet
  facet normal 0.0 0.0 -1.0
    outer loop
      vertex 0.653446085278291 1.9471961262519892 0.0
      vertex 1.4456640747655423 1.8037134934851482 0.0
      vertex 0.758467045231107 1.4351222724876964 0.0
    endloop
  endfacet
  facet normal 0.0 0.0 -1.0
    outer loop
      vertex 1.4456640747655423 1.8037134934851482 0.0
      vertex 0.653446085278291 1.9471961262519892 0.0
      vertex 1.0026728444403183 2.418497660433576 0.0
    endloop
  endfacet
  facet normal -0.0 0.0 -1.0
    outer loop
      vertex 1.0026728444403183 2.418497660433576 0.0
      vertex 0.653446085278291 1.9471961262519892 0.0
      vertex 0.46010909350111884 2.4447141284547347 0.0
    endloop
  endfacet
  facet normal 0.0 0.0 -1.0
    outer loop
      vertex 1.7536117015143706 3.6533192618998944 0.0
      vertex 2.116058975913213 4.341797567712577 0.0
      vertex 2.3839971328865075 3.880036667964535 0.0
    endloop
  endfacet
  facet normal 0.0 0.0 -1.0
    outer loop
      vertex 2.116058975913213 4.341797567712577 0.0
      vertex 1.7536117015143706 3.6533192618998944 0.0
      vertex 1.5819653134066556 4.29229274299266 0.0
    endloop
  endfacet
  facet normal 0.0 0.0 -1.0
    outer loop
      vertex 2.3839971328865075 3.880036667964535 0.0
      vertex 2.116058975913213 4.341797567712577 0.0
      vertex 2.652892262901616 4.39679238395574 0.0
    endloop
  endfacet
  facet normal 0.0 -0.0 -1.0
    outer loop
      vertex 2.87567637078054 1.3570913931409139 0.0
      vertex 3.112005813409811 0.7116257516994919 0.0
      vertex 2.3666148384387276 0.9116010228321023 0.0
    endloop
  endfacet
  facet normal 0.0 0.0 -1.0
    outer loop
      vertex 3.112005813409811 0.7116257516994919 0.0
      vertex 2.87567637078054 1.3570913931409139 0.0
      vertex 3.410424119386803 1.170562039691956 0.0
    endloop
  endfacet
  facet normal 0.0 0.0 -1.0
    outer loop
      vertex 2.3666148384387276 0.9116010228321023 0.0
      vertex 3.112005813409811 0.7116257516994919 0.0
      vertex 2.641145375607178 0.4306995717498029 0.0
    endloop
  endfacet
  facet normal 0.0 0.0 -1.0
    outer loop
      vertex 3.112005813409811 0.7116257516994919 0.0
      vertex 3.410424119386803 1.170562039691956 0.0
      vertex 3.673051827384576 0.7975446800122217 0.0
    endloop
  endfacet
  facet normal 0.0 0.0 -1.0
    outer loop
      vertex 0.9465617690286157 3.48555462502473 0.0
      vertex 1.7536117015143706 3.6533192618998944 0.0
      vertex 1.2953042703203224 2.9574213388620065 0.0
    endloop
  endfacet
  facet normal -0.0 0.0 -1.0
    outer loop
      vertex 1.7536117015143706 3.6533192618998944 0.0
      vertex 0.9465617690286157 3.48555462502473 0.0
      vertex 1.262846888207071 3.9713763877127657 0.0
    endloop
  endfacet
  facet normal 0.0 -0.0 -1.0
    outer loop
      vertex 0.9465617690286157 3.48555462502473 0.0
      vertex 1.2953042703203224 2.9574213388620065 0.0
      vertex 0.6509693617931029 2.910124587601218 0.0
    endloop
  endfacet
  facet normal 0.0 0.0 -1.0
    outer loop
      vertex 1.6885080095392297 0.7702268332673254 0.0
      vertex 2.3666148384387276 0.9116010228321023 0.0
      vertex 2.0994780058862967 0.45726311178876383 0.0
    endloop
  endfacet
  facet normal -0.0 0.0 -1.0
    outer loop
      vertex 2.3666148384387276 0.9116010228321023 0.0
      vertex 1.6885080095392297 0.7702268332673254 0.0
      vertex 1.8026197247704416 1.2601920051626858 0.0
    endloop
  endfacet
  facet normal 0.0 0.0 -1.0
    outer loop
      vertex 1.6885080095392297 0.7702268332673254 0.0
      vertex 1.27451273486791 1.2269793686854156 0.0
      vertex 1.8026197247704416 1.2601920051626858 0.0
    endloop
  endfacet
  facet normal 0.0 0.0 -1.0
    outer loop
      vertex 2.924991200483239 3.8144599183933012 0.0
      vertex 3.581682107394269 4.062300538726216 0.0
      vertex 3.5479757661161964 3.490731246496558 0.0
    endloop
  endfacet
  facet normal -0.0 0.0 -1.0
    outer loop
      vertex 3.581682107394269 4.062300538726216 0.0
      vertex 2.924991200483239 3.8144599183933012 0.0
      vertex 3.154272268906817 4.41423416152917 0.0
    endloop
  endfacet
  facet normal 0.0 0.0 -1.0
    outer loop
      vertex 3.5479757661161964 3.490731246496558 0.0
      vertex 3.581682107394269 4.062300538726216 0.0
      vertex 4.047469845241219 3.8233482503497616 0.0
    endloop
  endfacet
  facet normal -0.0 0.0 -1.0
    outer loop
      vertex 4.488218587367431 2.2180623905879084 0.0
      vertex 4.230865758815882 1.7423508283627493 0.0
      vertex 3.931010247174789 2.305769882561778 0.0
    endloop
  endfacet
  facet normal 0.0 -0.0 -1.0
    outer loop
      vertex 3.931010247174789 2.305769882561778 0.0
      vertex 4.230865758815882 1.7423508283627493 0.0
      vertex 3.5034923376277627 1.7345470432795251 0.0
    endloop
  endfacet
  facet normal 0.0 0.0 -1.0
    outer loop
      vertex 3.5034923376277627 1.7345470432795251 0.0
      vertex 4.230865758815882 1.7423508283627493 0.0
      vertex 3.942636999552544 1.213857139437816 0.0
    endloop
  endfacet
  facet normal 0.0 -0.0 -1.0
    outer loop
      vertex 3.717832432370329 2.9281393517776415 0.0
      vertex 3.931010247174789 2.305769882561778 0.0
      vertex 3.261055755692153 2.4625219585318834 0.0
    endloop
  endfacet
  facet normal 0.0 0.0 -1.0
    outer loop
      vertex 3.261055755692153 2.4625219585318834 0.0
      vertex 3.931010247174789 2.305769882561778 0.0
      vertex 3.5034923376277627 1.7345470432795251 0.0
    endloop
  endfacet
  facet normal -0.0 0.0 -1.0
    outer loop
      vertex 3.717832432370329 2.9281393517776415 0.0
      vertex 3.261055755692153 2.4625219585318834 0.0
      vertex 3.0666983255855955 3.1183769719693704 0.0
    endloop
  endfacet
  facet normal 0.0 0.0 -1.0
    outer loop
      vertex 3.717832432370329 2.9281393517776415 0.0
      vertex 3.0666983255855955 3.1183769719693704 0.0
      vertex 3.5479757661161964 3.490731246496558 0.0
    endloop
  endfacet
  facet normal -0.0 0.0 -1.0
    outer loop
      vertex 4.201441817389037 3.3259485583365205 0.0
      vertex 3.717832432370329 2.9281393517776415 0.0
      vertex 3.5479757661161964 3.490731246496558 0.0
    endloop
  endfacet
  facet normal 0.0 -0.0 -1.0
    outer loop
      vertex 3.0666983255855955 3.1183769719693704 0.0
      vertex 3.261055755692153 2.4625219585318834 0.0
      vertex 2.5758059985471804 2.675068144243006 0.0
    endloop
  endfacet
  facet normal 0.0 0.0 -1.0
    outer loop
      vertex 2.5758059985471804 2.675068144243006 0.0
      vertex 3.261055755692153 2.4625219585318834 0.0
      vertex 2.732475030952877 2.01332380318113 0.0
    endloop
  endfacet
  facet normal 0.0 0.0 -1.0
    outer loop
      vertex 2.732475030952877 2.01332380318113 0.0
      vertex 3.261055755692153 2.4625219585318834 0.0
      vertex 3.5034923376277627 1.7345470432795251 0.0
    endloop
  endfacet
  facet normal -0.0 0.0 -1.0
    outer loop
      vertex 3.0666983255855955 3.1183769719693704 0.0
      vertex 2.5758059985471804 2.675068144243006 0.0
      vertex 2.438627730947245 3.317232914522289 0.0
    endloop
  endfacet
  facet normal 0.0 0.0 -1.0
    outer loop
      vertex 3.0666983255855955 3.1183769719693704 0.0
      vertex 2.438627730947245 3.317232914522289 0.0
      vertex 2.924991200483239 3.8144599183933012 0.0
    endloop
  endfacet
  facet normal 0.0 0.0 -1.0
    outer loop
      vertex 3.0666983255855955 3.1183769719693704 0.0
      vertex 2.924991200483239 3.8144599183933012 0.0
      vertex 3.5479757661161964 3.490731246496558 0.0
    endloop
  endfacet
  facet normal 0.0 -0.0 -1.0
    outer loop
      vertex 2.5758059985471804 2.675068144243006 0.0
      vertex 2.732475030952877 2.01332380318113 0.0
      vertex 2.071203366200291 2.2193124991026587 0.0
    endloop
  endfacet
  facet normal -0.0 0.0 -1.0
    outer loop
      vertex 2.5758059985471804 2.675068144243006 0.0
      vertex 2.071203366200291 2.2193124991026587 0.0
      vertex 1.927273357685424 2.8723355323717334 0.0
    endloop
  endfacet
  facet normal 0.0 0.0 -1.0
    outer loop
      vertex 2.5758059985471804 2.675068144243006 0.0
      vertex 1.927273357685424 2.8723355323717334 0.0
      vertex 2.438627730947245 3.317232914522289 0.0
    endloop
  endfacet
  facet normal 0.0 0.0 -1.0
    outer loop
      vertex 2.071203366200291 2.2193124991026587 0.0
      vertex 2.732475030952877 2.01332380318113 0.0
      vertex 2.2377989662408 1.5884393075434382 0.0
    endloop
  endfacet
  facet normal 0.0 0.0 -1.0
    outer loop
      vertex 2.732475030952877 2.01332380318113 0.0
      vertex 3.5034923376277627 1.7345470432795251 0.0
      vertex 2.87567637078054 1.3570913931409139 0.0
    endloop
  endfacet
  facet normal 0.0 0.0 -1.0
    outer loop
      vertex 2.2377989662408 1.5884393075434382 0.0
      vertex 2.732475030952877 2.01332380318113 0.0
      vertex 2.87567637078054 1.3570913931409139 0.0
    endloop
  endfacet
  facet normal 0.0 -0.0 -1.0
    outer loop
      vertex 1.927273357685424 2.8723355323717334 0.0
      vertex 2.071203366200291 2.2193124991026587 0.0
      vertex 1.5371007278957631 2.468112076929281 0.0
    endloop
  endfacet
  facet normal 0.0 -0.0 -1.0
    outer loop
      vertex 2.071203366200291 2.2193124991026587 0.0
      vertex 2.2377989662408 1.5884393075434382 0.0
      vertex 1.4456640747655423 1.8037134934851482 0.0
    endloop
  endfacet
  facet normal -0.0 0.0 -1.0
    outer loop
      vertex 2.071203366200291 2.2193124991026587 0.0
      vertex 1.4456640747655423 1.8037134934851482 0.0
      vertex 1.5371007278957631 2.468112076929281 0.0
    endloop
  endfacet
  facet normal -0.0 0.0 -1.0
    outer loop
      vertex 1.927273357685424 2.8723355323717334 0.0
      vertex 1.5371007278957631 2.468112076929281 0.0
      vertex 1.2953042703203224 2.9574213388620065 0.0
    endloop
  endfacet
  facet normal -0.0 0.0 -1.0
    outer loop
      vertex 2.438627730947245 3.317232914522289 0.0
      vertex 1.927273357685424 2.8723355323717334 0.0
      vertex 1.7536117015143706 3.6533192618998944 0.0
    endloop
  endfacet
  facet normal 0.0 -0.0 -1.0
    outer loop
      vertex 1.7536117015143706 3.6533192618998944 0.0
      vertex 1.927273357685424 2.8723355323717334 0.0
      vertex 1.2953042703203224 2.9574213388620065 0.0
    endloop
  endfacet
  facet normal 0.0 0.0 -1.0
    outer loop
      vertex 2.87567637078054 1.3570913931409139 0.0
      vertex 3.5034923376277627 1.7345470432795251 0.0
      vertex 3.410424119386803 1.170562039691956 0.0
    endloop
  endfacet
  facet normal 0.0 -0.0 -1.0
    outer loop
      vertex 3.5034923376277627 1.7345470432795251 0.0
      vertex 3.942636999552544 1.213857139437816 0.0
      vertex 3.410424119386803 1.170562039691956 0.0
    endloop
  endfacet
  facet normal 0.0 0.0 -1.0
    outer loop
      vertex 1.4456640747655423 1.8037134934851482 0.0
      vertex 2.2377989662408 1.5884393075434382 0.0
      vertex 1.8026197247704416 1.2601920051626858 0.0
    endloop
  endfacet
  facet normal 0.0 0.0 -1.0
    outer loop
      vertex 2.2377989662408 1.5884393075434382 0.0
      vertex 2.87567637078054 1.3570913931409139 0.0
      vertex 2.3666148384387276 0.9116010228321023 0.0
    endloop
  endfacet
  facet normal 0.0 -0.0 -1.0
    outer loop
      vertex 2.2377989662408 1.5884393075434382 0.0
      vertex 2.3666148384387276 0.9116010228321023 0.0
      vertex 1.8026197247704416 1.2601920051626858 0.0
    endloop
  endfacet
  facet normal 0.0 0.0 -1.0
    outer loop
      vertex 1.5371007278957631 2.468112076929281 0.0
      vertex 1.4456640747655423 1.8037134934851482 0.0
      vertex 1.0026728444403183 2.418497660433576 0.0
    endloop
  endfacet
  facet normal 0.0 0.0 -1.0
    outer loop
      vertex 0.758467045231107 1.4351222724876964 0.0
      vertex 1.4456640747655423 1.8037134934851482 0.0
      vertex 1.27451273486791 1.2269793686854156 0.0
    endloop
  endfacet
  facet normal 0.0 0.0 -1.0
    outer loop
      vertex 1.27451273486791 1.2269793686854156 0.0
      vertex 1.4456640747655423 1.8037134934851482 0.0
      vertex 1.8026197247704416 1.2601920051626858 0.0
    endloop
  endfacet
  facet normal 0.0 -0.0 -1.0
    outer loop
      vertex 2.3666148384387276 0.9116010228321023 0.0
      vertex 2.641145375607178 0.4306995717498029 0.0
      vertex 2.0994780058862967 0.45726311178876383 0.0
    endloop
  endfacet
  facet normal 0.0 -0.0 -1.0
    outer loop
      vertex 1.2953042703203224 2.9574213388620065 0.0
      vertex 1.5371007278957631 2.468112076929281 0.0
      vertex 1.0026728444403183 2.418497660433576 0.0
    endloop
  endfacet
  facet normal 0.0 0.0 -1.0
    outer loop
      vertex 2.438627730947245 3.317232914522289 0.0
      vertex 1.7536117015143706 3.6533192618998944 0.0
      vertex 2.3839971328865075 3.880036667964535 0.0
    endloop
  endfacet
  facet normal -0.0 0.0 -1.0
    outer loop
      vertex 2.924991200483239 3.8144599183933012 0.0
      vertex 2.438627730947245 3.317232914522289 0.0
      vertex 2.3839971328865075 3.880036667964535 0.0
    endloop
  endfacet
  facet normal 0.0 0.0 -1.0
    outer loop
      vertex 1.7536117015143706 3.6533192618998944 0.0
      vertex 1.262846888207071 3.9713763877127657 0.0
      vertex 1.5819653134066556 4.29229274299266 0.0
    endloop
  endfacet
  facet normal 0.0 0.0 -1.0
    outer loop
      vertex 3.154272268906817 4.41423416152917 0.0
      vertex 2.924991200483239 3.8144599183933012 0.0
      vertex 2.652892262901616 4.39679238395574 0.0
    endloop
  endfacet
  facet normal 0.0 0.0 -1.0
    outer loop
      vertex 2.924991200483239 3.8144599183933012 0.0
      vertex 2.3839971328865075 3.880036667964535 0.0
      vertex 2.652892262901616 4.39679238395574 0.0
    endloop
  endfacet
  facet normal 0.0 0.0 -1.0
    outer loop
      vertex 4.201441817389037 3.3259485583365205 0.0
      vertex 3.5479757661161964 3.490731246496558 0.0
      vertex 4.047469845241219 3.8233482503497616 0.0
    endloop
  endfacet
  facet normal 0.0 0.0 -1.0
    outer loop
      vertex 0.6509693617931029 2.910124587601218 0.0
      vertex 1.2953042703203224 2.9574213388620065 0.0
      vertex 1.0026728444403183 2.418497660433576 0.0
    endloop
  endfacet
  facet normal 0.0 -0.0 -1.0
    outer loop
      vertex 0.6509693617931029 2.910124587601218 0.0
      vertex 1.0026728444403183 2.418497660433576 0.0
      vertex 0.46010909350111884 2.4447141284547347 0.0
    endloop
  endfacet
  facet normal 0.0 0.0 -1.0
    outer loop
      vertex 3.410424119386803 1.170562039691956 0.0
      vertex 3.942636999552544 1.213857139437816 0.0
      vertex 3.673051827384576 0.7975446800122217 0.0
    endloop
  endfacet
  facet normal 0.0 0.0 1.0
    outer loop
      vertex 4.907293218369499 3.16866385086891 0.697430379273239
      vertex 4.48898350913522 2.7647162362451594 0.697430379273239
      vertex 4.9999999987259045 2.49417192297635 0.697430379273239
    endloop
  endfacet
  facet normal 0.0 0.0 1.0
    outer loop
      vertex 4.9999999987259045 2.49417192297635 0.697430379273239
      vertex 4.369519465131094 2.2372123870047207 0.697430379273239
      vertex 4.907293218369497 1.8196799950837845 0.697430379273239
    endloop
  endfacet
  facet normal 0.0 0.0 1.0
    outer loop
      vertex 4.9999999987259045 2.49417192297635 0.697430379273239
      vertex 4.48898350913522 2.7647162362451594 0.697430379273239
      vertex 4.369519465131094 2.2372123870047207 0.697430379273239
    endloop
  endfacet
  facet normal 0.0 0.0 1.0
    outer loop
      vertex 4.636048511366222 3.7931317980649326 0.697430379273239
      vertex 4.230865758815889 3.2459930175899463 0.697430379273239
      vertex 4.907293218369499 3.16866385086891 0.697430379273239
    endloop
  endfacet
  facet normal 0.0 0.0 1.0
    outer loop
      vertex 4.230865758815889 3.2459930175899463 0.697430379273239
      vertex 4.48898350913522 2.7647162362451594 0.697430379273239
      vertex 4.907293218369499 3.16866385086891 0.697430379273239
    endloop
  endfacet
  facet normal 0.0 0.0 1.0
    outer loop
      vertex 4.206382858046637 4.3212618336716595 0.697430379273239
      vertex 3.913937088773151 3.754147532978389 0.697430379273239
      vertex 4.636048511366222 3.7931317980649326 0.697430379273239
    endloop
  endfacet
  facet normal 0.0 0.0 1.0
    outer loop
      vertex 4.636048511366222 3.7931317980649326 0.697430379273239
      vertex 3.913937088773151 3.754147532978389 0.697430379273239
      vertex 4.230865758815889 3.2459930175899463 0.697430379273239
    endloop
  endfacet
  facet normal 0.0 0.0 1.0
    outer loop
      vertex 3.6501625943278837 4.713884968982287 0.697430379273239
      vertex 3.6314779841661333 4.191561154255375 0.697430379273239
      vertex 4.206382858046637 4.3212618336716595 0.697430379273239
    endloop
  endfacet
  facet normal 0.0 0.0 1.0
    outer loop
      vertex 4.206382858046637 4.3212618336716595 0.697430379273239
      vertex 3.6314779841661333 4.191561154255375 0.697430379273239
      vertex 3.913937088773151 3.754147532978389 0.697430379273239
    endloop
  endfacet
  facet normal 0.0 0.0 1.0
    outer loop
      vertex 3.0086400326315896 4.941882142182156 0.697430379273239
      vertex 3.1184943632772524 4.295984415796529 0.697430379273239
      vertex 3.6501625943278837 4.713884968982287 0.697430379273239
    endloop
  endfacet
  facet normal -0.0 0.0 1.0
    outer loop
      vertex 3.1184943632772524 4.295984415796529 0.697430379273239
      vertex 3.6314779841661333 4.191561154255375 0.697430379273239
      vertex 3.6501625943278837 4.713884968982287 0.697430379273239
    endloop
  endfacet
  facet normal 0.0 0.0 1.0
    outer loop
      vertex 2.3293939665883294 4.9883438459526985 0.697430379273239
      vertex 2.611983485901539 4.519553590787771 0.697430379273239
      vertex 3.0086400326315896 4.941882142182156 0.697430379273239
    endloop
  endfacet
  facet normal 0.0 0.0 1.0
    outer loop
      vertex 3.0086400326315896 4.941882142182156 0.697430379273239
      vertex 2.611983485901539 4.519553590787771 0.697430379273239
      vertex 3.1184943632772524 4.295984415796529 0.697430379273239
    endloop
  endfacet
  facet normal -0.0 0.0 1.0
    outer loop
      vertex 1.6628009695725439 4.849824228273405 0.697430379273239
      vertex 2.1339017458385623 4.367487894829806 0.697430379273239
      vertex 2.3293939665883294 4.9883438459526985 0.697430379273239
    endloop
  endfacet
  facet normal 0.0 0.0 1.0
    outer loop
      vertex 2.3293939665883294 4.9883438459526985 0.697430379273239
      vertex 2.1339017458385623 4.367487894829806 0.697430379273239
      vertex 2.611983485901539 4.519553590787771 0.697430379273239
    endloop
  endfacet
  facet normal -0.0 0.0 1.0
    outer loop
      vertex 1.0582991947128415 4.5365966555024615 0.697430379273239
      vertex 1.631813117328068 4.169696548226651 0.697430379273239
      vertex 1.6628009695725439 4.849824228273405 0.697430379273239
    endloop
  endfacet
  facet normal 0.0 0.0 1.0
    outer loop
      vertex 1.631813117328068 4.169696548226651 0.697430379273239
      vertex 2.1339017458385623 4.367487894829806 0.697430379273239
      vertex 1.6628009695725439 4.849824228273405 0.697430379273239
    endloop
  endfacet
  facet normal -0.0 0.0 1.0
    outer loop
      vertex 0.5607217732389579 4.071891783791491 0.697430379273239
      vertex 1.1308813385165912 3.9779307510282353 0.697430379273239
      vertex 1.0582991947128415 4.5365966555024615 0.697430379273239
    endloop
  endfacet
  facet normal 0.0 0.0 1.0
    outer loop
      vertex 1.0582991947128415 4.5365966555024615 0.697430379273239
      vertex 1.1308813385165912 3.9779307510282353 0.697430379273239
      vertex 1.631813117328068 4.169696548226651 0.697430379273239
    endloop
  endfacet
  facet normal 0.0 0.0 1.0
    outer loop
      vertex 0.2069717462363734 3.4901746475919677 0.697430379273239
      vertex 0.9101788867334756 3.582817724023873 0.697430379273239
      vertex 0.5607217732389579 4.071891783791491 0.697430379273239
    endloop
  endfacet
  facet normal 0.0 -0.0 1.0
    outer loop
      vertex 0.9101788867334756 3.582817724023873 0.697430379273239
      vertex 1.1308813385165912 3.9779307510282353 0.697430379273239
      vertex 0.5607217732389579 4.071891783791491 0.697430379273239
    endloop
  endfacet
  facet normal 0.0 0.0 1.0
    outer loop
      vertex 0.02328513490917518 2.8345885457169833 0.697430379273239
      vertex 0.7366956205242059 3.0296788461362345 0.697430379273239
      vertex 0.2069717462363734 3.4901746475919677 0.697430379273239
    endloop
  endfacet
  facet normal 0.0 -0.0 1.0
    outer loop
      vertex 0.7366956205242059 3.0296788461362345 0.697430379273239
      vertex 0.9101788867334756 3.582817724023873 0.697430379273239
      vertex 0.2069717462363734 3.4901746475919677 0.697430379273239
    endloop
  endfacet
  facet normal 0.0 0.0 1.0
    outer loop
      vertex 0.023285134909170495 2.1537553002357526 0.697430379273239
      vertex 0.6074065277609285 2.3927946982996007 0.697430379273239
      vertex 0.02328513490917518 2.8345885457169833 0.697430379273239
    endloop
  endfacet
  facet normal -0.0 0.0 1.0
    outer loop
      vertex 0.02328513490917518 2.8345885457169833 0.697430379273239
      vertex 0.6074065277609285 2.3927946982996007 0.697430379273239
      vertex 0.7366956205242059 3.0296788461362345 0.697430379273239
    endloop
  endfacet
  facet normal 0.0 -0.0 1.0
    outer loop
      vertex 0.20697174623635897 1.4981691983607666 0.697430379273239
      vertex 0.5142480904630852 1.8998118805824395 0.697430379273239
      vertex 0.023285134909170495 2.1537553002357526 0.697430379273239
    endloop
  endfacet
  facet normal -0.0 0.0 1.0
    outer loop
      vertex 0.023285134909170495 2.1537553002357526 0.697430379273239
      vertex 0.5142480904630852 1.8998118805824395 0.697430379273239
      vertex 0.6074065277609285 2.3927946982996007 0.697430379273239
    endloop
  endfacet
  facet normal 0.0 -0.0 1.0
    outer loop
      vertex 0.5607217732389349 0.916452062161237 0.697430379273239
      vertex 0.7309681347850852 1.4965695822800242 0.697430379273239
      vertex 0.20697174623635897 1.4981691983607666 0.697430379273239
    endloop
  endfacet
  facet normal 0.0 0.0 1.0
    outer loop
      vertex 0.7309681347850852 1.4965695822800242 0.697430379273239
      vertex 0.5142480904630852 1.8998118805824395 0.697430379273239
      vertex 0.20697174623635897 1.4981691983607666 0.697430379273239
    endloop
  endfacet
  facet normal 0.0 -0.0 1.0
    outer loop
      vertex 1.0582991947128102 0.45174719045026035 0.697430379273239
      vertex 1.3440182621982677 1.2533095292771799 0.697430379273239
      vertex 0.5607217732389349 0.916452062161237 0.697430379273239
    endloop
  endfacet
  facet normal 0.0 0.0 1.0
    outer loop
      vertex 0.5607217732389349 0.916452062161237 0.697430379273239
      vertex 1.3440182621982677 1.2533095292771799 0.697430379273239
      vertex 0.7309681347850852 1.4965695822800242 0.697430379273239
    endloop
  endfacet
  facet normal 0.0 -0.0 1.0
    outer loop
      vertex 1.662800969572507 0.13851961767930876 0.697430379273239
      vertex 1.673690018271486 0.7088118629900049 0.697430379273239
      vertex 1.0582991947128102 0.45174719045026035 0.697430379273239
    endloop
  endfacet
  facet normal 0.0 0.0 1.0
    outer loop
      vertex 1.673690018271486 0.7088118629900049 0.697430379273239
      vertex 1.3440182621982677 1.2533095292771799 0.697430379273239
      vertex 1.0582991947128102 0.45174719045026035 0.697430379273239
    endloop
  endfacet
  facet normal 0.0 0.0 1.0
    outer loop
      vertex 2.329393966588293 3.902000706228438e-15 0.697430379273239
      vertex 2.154593393175795 0.5986435039957315 0.697430379273239
      vertex 1.662800969572507 0.13851961767930876 0.697430379273239
    endloop
  endfacet
  facet normal 0.0 0.0 1.0
    outer loop
      vertex 2.154593393175795 0.5986435039957315 0.697430379273239
      vertex 1.673690018271486 0.7088118629900049 0.697430379273239
      vertex 1.662800969572507 0.13851961767930876 0.697430379273239
    endloop
  endfacet
  facet normal 0.0 0.0 1.0
    outer loop
      vertex 3.0086400326315617 0.04646170377053798 0.697430379273239
      vertex 2.6559233704373417 0.4232634653869807 0.697430379273239
      vertex 2.329393966588293 3.902000706228438e-15 0.697430379273239
    endloop
  endfacet
  facet normal 0.0 -0.0 1.0
    outer loop
      vertex 2.329393966588293 3.902000706228438e-15 0.697430379273239
      vertex 2.6559233704373417 0.4232634653869807 0.697430379273239
      vertex 2.154593393175795 0.5986435039957315 0.697430379273239
    endloop
  endfacet
  facet normal 0.0 0.0 1.0
    outer loop
      vertex 3.6501625943278615 0.2744588769704018 0.697430379273239
      vertex 3.1926295000485414 0.5452992902965663 0.697430379273239
      vertex 3.0086400326315617 0.04646170377053798 0.697430379273239
    endloop
  endfacet
  facet normal 0.0 0.0 1.0
    outer loop
      vertex 3.1926295000485414 0.5452992902965663 0.697430379273239
      vertex 2.6559233704373417 0.4232634653869807 0.697430379273239
      vertex 3.0086400326315617 0.04646170377053798 0.697430379273239
    endloop
  endfacet
  facet normal 0.0 0.0 1.0
    outer loop
      vertex 4.2063828580466245 0.6670820122810293 0.697430379273239
      vertex 3.5702361792369777 0.9428445914787317 0.697430379273239
      vertex 3.6501625943278615 0.2744588769704018 0.697430379273239
    endloop
  endfacet
  facet normal 0.0 0.0 1.0
    outer loop
      vertex 3.5702361792369777 0.9428445914787317 0.697430379273239
      vertex 3.1926295000485414 0.5452992902965663 0.697430379273239
      vertex 3.6501625943278615 0.2744588769704018 0.697430379273239
    endloop
  endfacet
  facet normal 0.0 0.0 1.0
    outer loop
      vertex 4.636048511366216 1.1952120478877566 0.697430379273239
      vertex 4.08729643567666 1.176945815958297 0.697430379273239
      vertex 4.2063828580466245 0.6670820122810293 0.697430379273239
    endloop
  endfacet
  facet normal 0.0 0.0 1.0
    outer loop
      vertex 4.2063828580466245 0.6670820122810293 0.697430379273239
      vertex 4.08729643567666 1.176945815958297 0.697430379273239
      vertex 3.5702361792369777 0.9428445914787317 0.697430379273239
    endloop
  endfacet
  facet normal 0.0 0.0 1.0
    outer loop
      vertex 4.907293218369497 1.8196799950837845 0.697430379273239
      vertex 4.234564901015521 1.6505534890851188 0.697430379273239
      vertex 4.636048511366216 1.1952120478877566 0.697430379273239
    endloop
  endfacet
  facet normal 0.0 0.0 1.0
    outer loop
      vertex 4.234564901015521 1.6505534890851188 0.697430379273239
      vertex 4.08729643567666 1.176945815958297 0.697430379273239
      vertex 4.636048511366216 1.1952120478877566 0.697430379273239
    endloop
  endfacet
  facet normal 0.0 0.0 1.0
    outer loop
      vertex 4.369519465131094 2.2372123870047207 0.697430379273239
      vertex 4.234564901015521 1.6505534890851188 0.697430379273239
      vertex 4.907293218369497 1.8196799950837845 0.697430379273239
    endloop
  endfacet
  facet normal 0.0 0.0 1.0
    outer loop
      vertex 4.48898350913522 2.7647162362451594 0.697430379273239
      vertex 3.928774767579889 2.698838285384168 0.697430379273239
      vertex 4.369519465131094 2.2372123870047207 0.697430379273239
    endloop
  endfacet
  facet normal 0.0 0.0 1.0
    outer loop
      vertex 3.928774767579889 2.698838285384168 0.697430379273239
      vertex 3.6712244595970644 2.033454986879903 0.697430379273239
      vertex 4.369519465131094 2.2372123870047207 0.697430379273239
    endloop
  endfacet
  facet normal -0.0 0.0 1.0
    outer loop
      vertex 3.6712244595970644 2.033454986879903 0.697430379273239
      vertex 4.234564901015521 1.6505534890851188 0.697430379273239
      vertex 4.369519465131094 2.2372123870047207 0.697430379273239
    endloop
  endfacet
  facet normal -0.0 0.0 1.0
    outer loop
      vertex 0.7366956205242059 3.0296788461362345 0.697430379273239
      vertex 1.2157738125906852 2.5896607570778776 0.697430379273239
      vertex 1.4685555949233275 3.4089617809833754 0.697430379273239
    endloop
  endfacet
  facet normal 0.0 0.0 1.0
    outer loop
      vertex 1.4685555949233275 3.4089617809833754 0.697430379273239
      vertex 0.9101788867334756 3.582817724023873 0.697430379273239
      vertex 0.7366956205242059 3.0296788461362345 0.697430379273239
    endloop
  endfacet
  facet normal 0.0 0.0 1.0
    outer loop
      vertex 0.7366956205242059 3.0296788461362345 0.697430379273239
      vertex 0.6074065277609285 2.3927946982996007 0.697430379273239
      vertex 1.2157738125906852 2.5896607570778776 0.697430379273239
    endloop
  endfacet
  facet normal -0.0 0.0 1.0
    outer loop
      vertex 2.154593393175795 0.5986435039957315 0.697430379273239
      vertex 2.6559233704373417 0.4232634653869807 0.697430379273239
      vertex 2.7965711647409472 0.933628072753198 0.697430379273239
    endloop
  endfacet
  facet normal 0.0 0.0 1.0
    outer loop
      vertex 2.7965711647409472 0.933628072753198 0.697430379273239
      vertex 2.0854630541388697 1.1237117709624656 0.697430379273239
      vertex 2.154593393175795 0.5986435039957315 0.697430379273239
    endloop
  endfacet
  facet normal 0.0 0.0 1.0
    outer loop
      vertex 2.154593393175795 0.5986435039957315 0.697430379273239
      vertex 2.0854630541388697 1.1237117709624656 0.697430379273239
      vertex 1.673690018271486 0.7088118629900049 0.697430379273239
    endloop
  endfacet
  facet normal -0.0 0.0 1.0
    outer loop
      vertex 2.553021935542609 3.8801613113422393 0.697430379273239
      vertex 3.240245494005469 3.7365166012816737 0.697430379273239
      vertex 3.1184943632772524 4.295984415796529 0.697430379273239
    endloop
  endfacet
  facet normal 0.0 0.0 1.0
    outer loop
      vertex 3.1184943632772524 4.295984415796529 0.697430379273239
      vertex 2.611983485901539 4.519553590787771 0.697430379273239
      vertex 2.553021935542609 3.8801613113422393 0.697430379273239
    endloop
  endfacet
  facet normal 0.0 -0.0 1.0
    outer loop
      vertex 3.240245494005469 3.7365166012816737 0.697430379273239
      vertex 3.6314779841661333 4.191561154255375 0.697430379273239
      vertex 3.1184943632772524 4.295984415796529 0.697430379273239
    endloop
  endfacet
  facet normal 0.0 0.0 1.0
    outer loop
      vertex 1.4685555949233275 3.4089617809833754 0.697430379273239
      vertex 2.0143970000982856 3.7973478443960738 0.697430379273239
      vertex 1.631813117328068 4.169696548226651 0.697430379273239
    endloop
  endfacet
  facet normal 0.0 0.0 1.0
    outer loop
      vertex 1.631813117328068 4.169696548226651 0.697430379273239
      vertex 1.1308813385165912 3.9779307510282353 0.697430379273239
      vertex 1.4685555949233275 3.4089617809833754 0.697430379273239
    endloop
  endfacet
  facet normal 0.0 -0.0 1.0
    outer loop
      vertex 2.0143970000982856 3.7973478443960738 0.697430379273239
      vertex 2.1339017458385623 4.367487894829806 0.697430379273239
      vertex 1.631813117328068 4.169696548226651 0.697430379273239
    endloop
  endfacet
  facet normal 0.0 0.0 1.0
    outer loop
      vertex 3.16852592770611 1.5006136952859142 0.697430379273239
      vertex 2.7965711647409472 0.933628072753198 0.697430379273239
      vertex 3.5702361792369777 0.9428445914787317 0.697430379273239
    endloop
  endfacet
  facet normal 0.0 -0.0 1.0
    outer loop
      vertex 3.5702361792369777 0.9428445914787317 0.697430379273239
      vertex 3.7337687963416695 1.465274572386549 0.697430379273239
      vertex 3.16852592770611 1.5006136952859142 0.697430379273239
    endloop
  endfacet
  facet normal -0.0 0.0 1.0
    outer loop
      vertex 2.7965711647409472 0.933628072753198 0.697430379273239
      vertex 3.1926295000485414 0.5452992902965663 0.697430379273239
      vertex 3.5702361792369777 0.9428445914787317 0.697430379273239
    endloop
  endfacet
  facet normal 0.0 0.0 1.0
    outer loop
      vertex 3.5702361792369777 0.9428445914787317 0.697430379273239
      vertex 4.08729643567666 1.176945815958297 0.697430379273239
      vertex 3.7337687963416695 1.465274572386549 0.697430379273239
    endloop
  endfacet
  facet normal 0.0 0.0 1.0
    outer loop
      vertex 1.3440182621982677 1.2533095292771799 0.697430379273239
      vertex 1.0026089086238832 1.957770623736053 0.697430379273239
      vertex 0.7309681347850852 1.4965695822800242 0.697430379273239
    endloop
  endfacet
  facet normal 0.0 0.0 1.0
    outer loop
      vertex 1.0026089086238832 1.957770623736053 0.697430379273239
      vertex 0.5142480904630852 1.8998118805824395 0.697430379273239
      vertex 0.7309681347850852 1.4965695822800242 0.697430379273239
    endloop
  endfacet
  facet normal 0.0 0.0 1.0
    outer loop
      vertex 4.230865758815889 3.2459930175899463 0.697430379273239
      vertex 3.928774767579889 2.698838285384168 0.697430379273239
      vertex 4.48898350913522 2.7647162362451594 0.697430379273239
    endloop
  endfacet
  facet normal 0.0 0.0 1.0
    outer loop
      vertex 4.230865758815889 3.2459930175899463 0.697430379273239
      vertex 3.5555888910651543 3.240613920240923 0.697430379273239
      vertex 3.928774767579889 2.698838285384168 0.697430379273239
    endloop
  endfacet
  facet normal 0.0 0.0 1.0
    outer loop
      vertex 4.230865758815889 3.2459930175899463 0.697430379273239
      vertex 3.913937088773151 3.754147532978389 0.697430379273239
      vertex 3.5555888910651543 3.240613920240923 0.697430379273239
    endloop
  endfacet
  facet normal 0.0 0.0 1.0
    outer loop
      vertex 3.5555888910651543 3.240613920240923 0.697430379273239
      vertex 3.2413728020463055 2.6690260104030656 0.697430379273239
      vertex 3.928774767579889 2.698838285384168 0.697430379273239
    endloop
  endfacet
  facet normal -0.0 0.0 1.0
    outer loop
      vertex 3.2413728020463055 2.6690260104030656 0.697430379273239
      vertex 3.6712244595970644 2.033454986879903 0.697430379273239
      vertex 3.928774767579889 2.698838285384168 0.697430379273239
    endloop
  endfacet
  facet normal 0.0 0.0 1.0
    outer loop
      vertex 3.5555888910651543 3.240613920240923 0.697430379273239
      vertex 2.877275107575667 3.2481231336696603 0.697430379273239
      vertex 3.2413728020463055 2.6690260104030656 0.697430379273239
    endloop
  endfacet
  facet normal 0.0 0.0 1.0
    outer loop
      vertex 3.5555888910651543 3.240613920240923 0.697430379273239
      vertex 3.240245494005469 3.7365166012816737 0.697430379273239
      vertex 2.877275107575667 3.2481231336696603 0.697430379273239
    endloop
  endfacet
  facet normal 0.0 0.0 1.0
    outer loop
      vertex 3.913937088773151 3.754147532978389 0.697430379273239
      vertex 3.240245494005469 3.7365166012816737 0.697430379273239
      vertex 3.5555888910651543 3.240613920240923 0.697430379273239
    endloop
  endfacet
  facet normal 0.0 0.0 1.0
    outer loop
      vertex 2.877275107575667 3.2481231336696603 0.697430379273239
      vertex 2.5241896901243885 2.688812234897174 0.697430379273239
      vertex 3.2413728020463055 2.6690260104030656 0.697430379273239
    endloop
  endfacet
  facet normal 0.0 0.0 1.0
    outer loop
      vertex 2.5241896901243885 2.688812234897174 0.697430379273239
      vertex 2.85358549651074 2.0938759682461265 0.697430379273239
      vertex 3.2413728020463055 2.6690260104030656 0.697430379273239
    endloop
  endfacet
  facet normal -0.0 0.0 1.0
    outer loop
      vertex 2.85358549651074 2.0938759682461265 0.697430379273239
      vertex 3.6712244595970644 2.033454986879903 0.697430379273239
      vertex 3.2413728020463055 2.6690260104030656 0.697430379273239
    endloop
  endfacet
  facet normal 0.0 0.0 1.0
    outer loop
      vertex 2.877275107575667 3.2481231336696603 0.697430379273239
      vertex 2.2188443830727813 3.2701535397917825 0.697430379273239
      vertex 2.5241896901243885 2.688812234897174 0.697430379273239
    endloop
  endfacet
  facet normal 0.0 0.0 1.0
    outer loop
      vertex 2.877275107575667 3.2481231336696603 0.697430379273239
      vertex 2.553021935542609 3.8801613113422393 0.697430379273239
      vertex 2.2188443830727813 3.2701535397917825 0.697430379273239
    endloop
  endfacet
  facet normal 0.0 -0.0 1.0
    outer loop
      vertex 2.877275107575667 3.2481231336696603 0.697430379273239
      vertex 3.240245494005469 3.7365166012816737 0.697430379273239
      vertex 2.553021935542609 3.8801613113422393 0.697430379273239
    endloop
  endfacet
  facet normal 0.0 0.0 1.0
    outer loop
      vertex 2.5241896901243885 2.688812234897174 0.697430379273239
      vertex 2.161260493833557 2.1138170843708486 0.697430379273239
      vertex 2.85358549651074 2.0938759682461265 0.697430379273239
    endloop
  endfacet
  facet normal 0.0 0.0 1.0
    outer loop
      vertex 2.5241896901243885 2.688812234897174 0.697430379273239
      vertex 1.8464842944269086 2.7037924005151175 0.697430379273239
      vertex 2.161260493833557 2.1138170843708486 0.697430379273239
    endloop
  endfacet
  facet normal 0.0 0.0 1.0
    outer loop
      vertex 2.5241896901243885 2.688812234897174 0.697430379273239
      vertex 2.2188443830727813 3.2701535397917825 0.697430379273239
      vertex 1.8464842944269086 2.7037924005151175 0.697430379273239
    endloop
  endfacet
  facet normal 0.0 0.0 1.0
    outer loop
      vertex 2.161260493833557 2.1138170843708486 0.697430379273239
      vertex 2.4906610426987355 1.5518088437812427 0.697430379273239
      vertex 2.85358549651074 2.0938759682461265 0.697430379273239
    endloop
  endfacet
  facet normal 0.0 0.0 1.0
    outer loop
      vertex 2.85358549651074 2.0938759682461265 0.697430379273239
      vertex 3.16852592770611 1.5006136952859142 0.697430379273239
      vertex 3.6712244595970644 2.033454986879903 0.697430379273239
    endloop
  endfacet
  facet normal -0.0 0.0 1.0
    outer loop
      vertex 2.4906610426987355 1.5518088437812427 0.697430379273239
      vertex 3.16852592770611 1.5006136952859142 0.697430379273239
      vertex 2.85358549651074 2.0938759682461265 0.697430379273239
    endloop
  endfacet
  facet normal 0.0 0.0 1.0
    outer loop
      vertex 1.8464842944269086 2.7037924005151175 0.697430379273239
      vertex 1.5845146279369065 2.055937220290176 0.697430379273239
      vertex 2.161260493833557 2.1138170843708486 0.697430379273239
    endloop
  endfacet
  facet normal 0.0 0.0 1.0
    outer loop
      vertex 2.161260493833557 2.1138170843708486 0.697430379273239
      vertex 1.9250579547252307 1.6300841689187338 0.697430379273239
      vertex 2.4906610426987355 1.5518088437812427 0.697430379273239
    endloop
  endfacet
  facet normal 0.0 0.0 1.0
    outer loop
      vertex 2.161260493833557 2.1138170843708486 0.697430379273239
      vertex 1.5845146279369065 2.055937220290176 0.697430379273239
      vertex 1.9250579547252307 1.6300841689187338 0.697430379273239
    endloop
  endfacet
  facet normal 0.0 0.0 1.0
    outer loop
      vertex 1.8464842944269086 2.7037924005151175 0.697430379273239
      vertex 1.2157738125906852 2.5896607570778776 0.697430379273239
      vertex 1.5845146279369065 2.055937220290176 0.697430379273239
    endloop
  endfacet
  facet normal 0.0 0.0 1.0
    outer loop
      vertex 2.2188443830727813 3.2701535397917825 0.697430379273239
      vertex 1.4685555949233275 3.4089617809833754 0.697430379273239
      vertex 1.8464842944269086 2.7037924005151175 0.697430379273239
    endloop
  endfacet
  facet normal 0.0 0.0 1.0
    outer loop
      vertex 1.4685555949233275 3.4089617809833754 0.697430379273239
      vertex 1.2157738125906852 2.5896607570778776 0.697430379273239
      vertex 1.8464842944269086 2.7037924005151175 0.697430379273239
    endloop
  endfacet
  facet normal -0.0 0.0 1.0
    outer loop
      vertex 3.16852592770611 1.5006136952859142 0.697430379273239
      vertex 3.7337687963416695 1.465274572386549 0.697430379273239
      vertex 3.6712244595970644 2.033454986879903 0.697430379273239
    endloop
  endfacet
  facet normal 0.0 0.0 1.0
    outer loop
      vertex 3.6712244595970644 2.033454986879903 0.697430379273239
      vertex 3.7337687963416695 1.465274572386549 0.697430379273239
      vertex 4.234564901015521 1.6505534890851188 0.697430379273239
    endloop
  endfacet
  facet normal 0.0 0.0 1.0
    outer loop
      vertex 1.9250579547252307 1.6300841689187338 0.697430379273239
      vertex 2.0854630541388697 1.1237117709624656 0.697430379273239
      vertex 2.4906610426987355 1.5518088437812427 0.697430379273239
    endloop
  endfacet
  facet normal 0.0 0.0 1.0
    outer loop
      vertex 2.4906610426987355 1.5518088437812427 0.697430379273239
      vertex 2.7965711647409472 0.933628072753198 0.697430379273239
      vertex 3.16852592770611 1.5006136952859142 0.697430379273239
    endloop
  endfacet
  facet normal 0.0 0.0 1.0
    outer loop
      vertex 2.4906610426987355 1.5518088437812427 0.697430379273239
      vertex 2.0854630541388697 1.1237117709624656 0.697430379273239
      vertex 2.7965711647409472 0.933628072753198 0.697430379273239
    endloop
  endfacet
  facet normal 0.0 0.0 1.0
    outer loop
      vertex 1.5845146279369065 2.055937220290176 0.697430379273239
      vertex 1.3440182621982677 1.2533095292771799 0.697430379273239
      vertex 1.9250579547252307 1.6300841689187338 0.697430379273239
    endloop
  endfacet
  facet normal -0.0 0.0 1.0
    outer loop
      vertex 1.3440182621982677 1.2533095292771799 0.697430379273239
      vertex 2.0854630541388697 1.1237117709624656 0.697430379273239
      vertex 1.9250579547252307 1.6300841689187338 0.697430379273239
    endloop
  endfacet
  facet normal 0.0 0.0 1.0
    outer loop
      vertex 2.7965711647409472 0.933628072753198 0.697430379273239
      vertex 2.6559233704373417 0.4232634653869807 0.697430379273239
      vertex 3.1926295000485414 0.5452992902965663 0.697430379273239
    endloop
  endfacet
  facet normal 0.0 0.0 1.0
    outer loop
      vertex 1.2157738125906852 2.5896607570778776 0.697430379273239
      vertex 1.0026089086238832 1.957770623736053 0.697430379273239
      vertex 1.5845146279369065 2.055937220290176 0.697430379273239
    endloop
  endfacet
  facet normal 0.0 0.0 1.0
    outer loop
      vertex 1.5845146279369065 2.055937220290176 0.697430379273239
      vertex 1.0026089086238832 1.957770623736053 0.697430379273239
      vertex 1.3440182621982677 1.2533095292771799 0.697430379273239
    endloop
  endfacet
  facet normal 0.0 0.0 1.0
    outer loop
      vertex 2.2188443830727813 3.2701535397917825 0.697430379273239
      vertex 2.0143970000982856 3.7973478443960738 0.697430379273239
      vertex 1.4685555949233275 3.4089617809833754 0.697430379273239
    endloop
  endfacet
  facet normal 0.0 0.0 1.0
    outer loop
      vertex 2.553021935542609 3.8801613113422393 0.697430379273239
      vertex 2.0143970000982856 3.7973478443960738 0.697430379273239
      vertex 2.2188443830727813 3.2701535397917825 0.697430379273239
    endloop
  endfacet
  facet normal 0.0 0.0 1.0
    outer loop
      vertex 1.4685555949233275 3.4089617809833754 0.697430379273239
      vertex 1.1308813385165912 3.9779307510282353 0.697430379273239
      vertex 0.9101788867334756 3.582817724023873 0.697430379273239
    endloop
  endfacet
  facet normal 0.0 0.0 1.0
    outer loop
      vertex 2.611983485901539 4.519553590787771 0.697430379273239
      vertex 2.1339017458385623 4.367487894829806 0.697430379273239
      vertex 2.553021935542609 3.8801613113422393 0.697430379273239
    endloop
  endfacet
  facet normal 0.0 0.0 1.0
    outer loop
      vertex 2.553021935542609 3.8801613113422393 0.697430379273239
      vertex 2.1339017458385623 4.367487894829806 0.697430379273239
      vertex 2.0143970000982856 3.7973478443960738 0.697430379273239
    endloop
  endfacet
  facet normal 0.0 0.0 1.0
    outer loop
      vertex 3.913937088773151 3.754147532978389 0.697430379273239
      vertex 3.6314779841661333 4.191561154255375 0.697430379273239
      vertex 3.240245494005469 3.7365166012816737 0.697430379273239
    endloop
  endfacet
  facet normal -0.0 0.0 1.0
    outer loop
      vertex 0.6074065277609285 2.3927946982996007 0.697430379273239
      vertex 1.0026089086238832 1.957770623736053 0.697430379273239
      vertex 1.2157738125906852 2.5896607570778776 0.697430379273239
    endloop
  endfacet
  facet normal 0.0 0.0 1.0
    outer loop
      vertex 0.6074065277609285 2.3927946982996007 0.697430379273239
      vertex 0.5142480904630852 1.8998118805824395 0.697430379273239
      vertex 1.0026089086238832 1.957770623736053 0.697430379273239
    endloop
  endfacet
  facet normal -0.0 0.0 1.0
    outer loop
      vertex 3.7337687963416695 1.465274572386549 0.697430379273239
      vertex 4.08729643567666 1.176945815958297 0.697430379273239
      vertex 4.234564901015521 1.6505534890851188 0.697430379273239
    endloop
  endfacet
  facet normal 0.0 -0.0 1.0
    outer loop
      vertex 1.673690018271486 0.7088118629900049 0.697430379273239
      vertex 2.0854630541388697 1.1237117709624656 0.697430379273239
      vertex 1.3440182621982677 1.2533095292771799 0.697430379273239
    endloop
  endfacet
  facet normal 0.9887726448881933 0.13590367003869283 -0.06211963611307568
    outer loop
      vertex 4.907293218369499 3.16866385086891 0.0
      vertex 4.963043157641631 2.9224456714068925 0.3487151896366195
      vertex 4.9999999987259045 2.49417192297635 0.0
    endloop
  endfacet
  facet normal 0.9887726448881924 -0.13590367003869416 -0.06211963611308586
    outer loop
      vertex 4.9999999987259045 2.49417192297635 0.0
      vertex 4.963043157641645 2.0658981745458895 0.3487151896366195
      vertex 4.907293218369497 1.8196799950837845 0.0
    endloop
  endfacet
  facet normal 0.9962974613680025 0.08597306829277147 -3.640156980092814e-09
    outer loop
      vertex 4.9999999987259045 2.49417192297635 0.0
      vertex 4.963043157641631 2.9224456714068925 0.3487151896366195
      vertex 5.0 2.4941719229763493 0.3487151896366193
    endloop
  endfacet
  facet normal 0.996297461368004 -0.0859730682927553 -3.64015741804004e-09
    outer loop
      vertex 5.0 2.4941719229763493 0.3487151896366193
      vertex 4.963043157641645 2.0658981745458895 0.3487151896366195
      vertex 4.9999999987259045 2.49417192297635 0.0
    endloop
  endfacet
  facet normal 0.9887726448881933 0.13590367003869283 0.062119636113075694
    outer loop
      vertex 4.9999999987259045 2.49417192297635 0.697430379273239
      vertex 4.963043157641631 2.9224456714068925 0.3487151896366195
      vertex 4.907293218369499 3.16866385086891 0.697430379273239
    endloop
  endfacet
  facet normal 0.9887726448881924 -0.13590367003869416 0.06211963611308586
    outer loop
      vertex 4.907293218369497 1.8196799950837845 0.697430379273239
      vertex 4.963043157641645 2.0658981745458895 0.3487151896366195
      vertex 4.9999999987259045 2.49417192297635 0.697430379273239
    endloop
  endfacet
  facet normal 0.9962974613680025 0.08597306829277147 3.640156980092809e-09
    outer loop
      vertex 5.0 2.4941719229763493 0.3487151896366193
      vertex 4.963043157641631 2.9224456714068925 0.3487151896366195
      vertex 4.9999999987259045 2.49417192297635 0.697430379273239
    endloop
  endfacet
  facet normal 0.9962974613680038 -0.08597306829275528 3.6401574180400345e-09
    outer loop
      vertex 4.9999999987259045 2.49417192297635 0.697430379273239
      vertex 4.963043157641645 2.0658981745458895 0.3487151896366195
      vertex 5.0 2.4941719229763493 0.3487151896366193
    endloop
  endfacet
  facet normal 0.9151823305025362 0.3975197833713848 -0.06647799458703399
    outer loop
      vertex 4.636048511366222 3.7931317980649326 0.0
      vertex 4.793028253763634 3.490174647591953 0.3494934798567425
      vertex 4.907293218369499 3.16866385086891 0.0
    endloop
  endfacet
  facet normal 0.9568210933747248 0.2864667573500002 0.049296979690164174
    outer loop
      vertex 4.793028253763634 3.490174647591953 0.3494934798567425
      vertex 4.963043157641631 2.9224456714068925 0.3487151896366195
      vertex 4.907293218369499 3.16866385086891 0.0
    endloop
  endfacet
  facet normal 0.773995333091501 0.6296919092606023 -0.06647799458703266
    outer loop
      vertex 4.206382858046637 4.3212618336716595 0.0
      vertex 4.439278226761051 4.071891783791481 0.34949347985674195
      vertex 4.636048511366222 3.7931317980649326 0.0
    endloop
  endfacet
  facet normal 0.852529336038492 0.5184345739140619 0.06647799458702924
    outer loop
      vertex 4.636048511366222 3.7931317980649326 0.0
      vertex 4.439278226761051 4.071891783791481 0.34949347985674195
      vertex 4.793028253763634 3.490174647591953 0.3494934798567425
    endloop
  endfacet
  facet normal 0.5753932412300139 0.8151465148016301 -0.06677407695786589
    outer loop
      vertex 3.6501625943278837 4.713884968982287 0.0
      vertex 3.94170080528717 4.5365966555024535 0.3479368994164966
      vertex 4.206382858046637 4.3212618336716595 0.0
    endloop
  endfacet
  facet normal 0.6809252038847741 0.729316037057518 0.06662570678946553
    outer loop
      vertex 3.94170080528717 4.5365966555024535 0.3479368994164966
      vertex 4.439278226761051 4.071891783791481 0.34949347985674195
      vertex 4.206382858046637 4.3212618336716595 0.0
    endloop
  endfacet
  facet normal 0.3341323011933752 0.9401581905541546 -0.06676961908800716
    outer loop
      vertex 3.0086400326315896 4.941882142182156 0.0
      vertex 3.337205297632224 4.8498220008989055 0.3479602333095413
      vertex 3.6501625943278837 4.713884968982287 0.0
    endloop
  endfacet
  facet normal 0.45904154684081755 0.8859021115422215 0.06677055517982994
    outer loop
      vertex 3.6501625943278837 4.713884968982287 0.0
      vertex 3.337205297632224 4.8498220008989055 0.3479602333095413
      vertex 3.94170080528717 4.5365966555024535 0.3479368994164966
    endloop
  endfacet
  facet normal 0.0680901045335761 0.9954420928969357 -0.06677407695786793
    outer loop
      vertex 2.3293939665883294 4.9883438459526985 0.0
      vertex 2.670606033411683 4.988343845952698 0.3479368994164924
      vertex 3.0086400326315896 4.941882142182156 0.0
    endloop
  endfacet
  facet normal 0.20300099545223568 0.9768991470570784 0.066773140742024
    outer loop
      vertex 2.670606033411683 4.988343845952698 0.3479368994164924
      vertex 3.337205297632224 4.8498220008989055 0.3479602333095413
      vertex 3.0086400326315896 4.941882142182156 0.0
    endloop
  endfacet
  facet normal -0.20300201556986827 0.9768993318496012 -0.06676733562434267
    outer loop
      vertex 1.6628009695725439 4.849824228273405 0.0
      vertex 1.991359967368397 4.941882142182153 0.3479721870806355
      vertex 2.3293939665883294 4.9883438459526985 0.0
    endloop
  endfacet
  facet normal -0.06808666726196301 0.9954425541161429 0.06677070612093877
    outer loop
      vertex 1.991359967368397 4.941882142182153 0.3479721870806355
      vertex 2.670606033411683 4.988343845952698 0.3479368994164924
      vertex 2.3293939665883294 4.9883438459526985 0.0
    endloop
  endfacet
  facet normal -0.45903822808784195 0.8859035657453916 -0.06677407695786657
    outer loop
      vertex 1.0582991947128415 4.5365966555024615 0.0
      vertex 1.349837405672129 4.713884968982293 0.34793689941649547
      vertex 1.6628009695725439 4.849824228273405 0.0
    endloop
  endfacet
  facet normal -0.33413553774468785 0.9401569630759433 0.06677070612093032
    outer loop
      vertex 1.349837405672129 4.713884968982293 0.34793689941649547
      vertex 1.991359967368397 4.941882142182153 0.3479721870806355
      vertex 1.6628009695725439 4.849824228273405 0.0
    endloop
  endfacet
  facet normal -0.6810297669738848 0.7292048266035552 -0.06677407695786744
    outer loop
      vertex 0.5607217732389579 4.071891783791491 0.0
      vertex 0.7936171419533727 4.3212618336716675 0.3479368994164966
      vertex 1.0582991947128415 4.5365966555024615 0.0
    endloop
  endfacet
  facet normal -0.5753932412300098 0.8151465148016327 0.06677407695786779
    outer loop
      vertex 0.7936171419533727 4.3212618336716675 0.3479368994164966
      vertex 1.349837405672129 4.713884968982293 0.34793689941649547
      vertex 1.0582991947128415 4.5365966555024615 0.0
    endloop
  endfacet
  facet normal -0.8525209179113089 0.5184294547375252 -0.06662570813290755
    outer loop
      vertex 0.2069717462363734 3.4901746475919677 0.0
      vertex 0.36395494452120153 3.7931374810126584 0.3487151865049262
      vertex 0.5607217732389579 4.071891783791491 0.0
    endloop
  endfacet
  facet normal -0.7739349588330038 0.6297427944812652 0.06669851793768347
    outer loop
      vertex 0.5607217732389579 4.071891783791491 0.0
      vertex 0.36395494452120153 3.7931374810126584 0.3487151865049262
      vertex 0.7936171419533727 4.3212618336716675 0.3479368994164966
    endloop
  endfacet
  facet normal -0.9607872097407848 0.26919995140082 -0.06647799458703113
    outer loop
      vertex 0.02328513490917518 2.8345885457169833 0.0
      vertex 0.09270678163050593 3.168663850868926 0.3494934798567425
      vertex 0.2069717462363734 3.4901746475919677 0.0
    endloop
  endfacet
  facet normal -0.9151468992398981 0.3975887867975541 0.06655305721339094
    outer loop
      vertex 0.09270678163050593 3.168663850868926 0.3494934798567425
      vertex 0.36395494452120153 3.7931374810126584 0.3487151865049262
      vertex 0.2069717462363734 3.4901746475919677 0.0
    endloop
  endfacet
  facet normal -0.9977878914056267 6.8642247496549854e-15 -0.06647799458703067
    outer loop
      vertex 0.023285134909170495 2.1537553002357526 0.0
      vertex 0.0 2.4941719229763684 0.3494934798567436
      vertex 0.02328513490917518 2.8345885457169833 0.0
    endloop
  endfacet
  facet normal -0.988494441140778 0.13586543368152046 0.06647799458703163
    outer loop
      vertex 0.02328513490917518 2.8345885457169833 0.0
      vertex 0.0 2.4941719229763684 0.3494934798567436
      vertex 0.09270678163050593 3.168663850868926 0.3494934798567425
    endloop
  endfacet
  facet normal -0.9607681721678426 -0.2691946173230208 -0.06677407695786723
    outer loop
      vertex 0.20697174623635897 1.4981691983607666 0.0
      vertex 0.09270678163049617 1.8196799950838096 0.34793689941649764
      vertex 0.023285134909170495 2.1537553002357526 0.0
    endloop
  endfacet
  facet normal -0.9884639273692819 -0.1360149972778715 0.06662570678946397
    outer loop
      vertex 0.023285134909170495 2.1537553002357526 0.0
      vertex 0.09270678163049617 1.8196799950838096 0.34793689941649764
      vertex 0.0 2.4941719229763684 0.3494934798567436
    endloop
  endfacet
  facet normal -0.8525126984428781 -0.5184244563680277 -0.06676961908800572
    outer loop
      vertex 0.5607217732389349 0.916452062161237 0.0
      vertex 0.36395494452118826 1.195206364940064 0.3479602333095438
      vertex 0.20697174623635897 1.4981691983607666 0.0
    endloop
  endfacet
  facet normal -0.9151646369735945 -0.3975110500456997 0.06677314074202412
    outer loop
      vertex 0.20697174623635897 1.4981691983607666 0.0
      vertex 0.36395494452118826 1.195206364940064 0.3479602333095438
      vertex 0.09270678163049617 1.8196799950838096 0.34793689941649764
    endloop
  endfacet
  facet normal -0.681029766973896 -0.7292048266035449 -0.0667740769578671
    outer loop
      vertex 1.0582991947128102 0.45174719045026035 0.0
      vertex 0.793617141953346 0.6670820122810573 0.34793689941649597
      vertex 0.5607217732389349 0.916452062161237 0.0
    endloop
  endfacet
  facet normal -0.7739778977094194 -0.6296823856662065 0.06677055517982841
    outer loop
      vertex 0.793617141953346 0.6670820122810573 0.34793689941649597
      vertex 0.36395494452118826 1.195206364940064 0.3479602333095438
      vertex 0.5607217732389349 0.916452062161237 0.0
    endloop
  endfacet
  facet normal -0.45903822808785405 -0.8859035657453851 -0.06677407695786813
    outer loop
      vertex 1.662800969572507 0.13851961767930876 0.0
      vertex 1.3498374056720945 0.2744588769704248 0.34793689941649464
      vertex 1.0582991947128102 0.45174719045026035 0.0
    endloop
  endfacet
  facet normal -0.5753932412300221 -0.815146514801624 0.06677407695786768
    outer loop
      vertex 1.0582991947128102 0.45174719045026035 0.0
      vertex 1.3498374056720945 0.2744588769704248 0.34793689941649464
      vertex 0.793617141953346 0.6670820122810573 0.34793689941649597
    endloop
  endfacet
  facet normal -0.20300594625759505 -0.9769182473573441 -0.06647799458703202
    outer loop
      vertex 2.329393966588293 3.902000706228438e-15 0.0
      vertex 1.9913599673683875 0.046461703770548514 0.3494934798567425
      vertex 1.662800969572507 0.13851961767930876 0.0
    endloop
  endfacet
  facet normal -0.33427904922983886 -0.9401162334737121 0.06662570678946385
    outer loop
      vertex 1.9913599673683875 0.046461703770548514 0.3494934798567425
      vertex 1.3498374056720945 0.2744588769704248 0.34793689941649464
      vertex 1.662800969572507 0.13851961767930876 0.0
    endloop
  endfacet
  facet normal 0.06809145373555572 -0.9954618175318756 -0.06647799458703302
    outer loop
      vertex 3.0086400326315617 0.04646170377053798 0.0
      vertex 2.6706060334116506 0.0 0.3494934798567428
      vertex 2.329393966588293 3.902000706228438e-15 0.0
    endloop
  endfacet
  facet normal -0.06809145373557735 -0.9954618175318741 0.06647799458703192
    outer loop
      vertex 2.6706060334116506 0.0 0.3494934798567428
      vertex 1.9913599673683875 0.046461703770548514 0.3494934798567425
      vertex 2.329393966588293 3.902000706228438e-15 0.0
    endloop
  endfacet
  facet normal 0.33413220129007226 -0.940157909453234 -0.06677407695786768
    outer loop
      vertex 3.6501625943278615 0.2744588769704018 0.0
      vertex 3.337199030427444 0.1385196176792912 0.3479368994164966
      vertex 3.0086400326315617 0.04646170377053798 0.0
    endloop
  endfacet
  facet normal 0.20315307885326742 -0.9768775981397272 0.06662570678946536
    outer loop
      vertex 3.0086400326315617 0.04646170377053798 0.0
      vertex 3.337199030427444 0.1385196176792912 0.3479368994164966
      vertex 2.6706060334116506 0.0 0.3494934798567428
    endloop
  endfacet
  facet normal 0.5753932412300075 -0.8151465148016344 -0.06677407695786887
    outer loop
      vertex 4.2063828580466245 0.6670820122810293 0.0
      vertex 3.9417008052871547 0.45174719045023537 0.3479368994164966
      vertex 3.6501625943278615 0.2744588769704018 0.0
    endloop
  endfacet
  facet normal 0.4590382280878372 -0.8859035657453938 0.0667740769578697
    outer loop
      vertex 3.9417008052871547 0.45174719045023537 0.3479368994164966
      vertex 3.337199030427444 0.1385196176792912 0.3479368994164966
      vertex 3.6501625943278615 0.2744588769704018 0.0
    endloop
  endfacet
  facet normal 0.7739799967168407 -0.62967943219437 -0.06677407695786741
    outer loop
      vertex 4.636048511366216 1.1952120478877566 0.0
      vertex 4.43927822676104 0.9164520621612067 0.34793689941649597
      vertex 4.2063828580466245 0.6670820122810293 0.0
    endloop
  endfacet
  facet normal 0.6810297669738843 -0.7292048266035555 0.06677407695786906
    outer loop
      vertex 4.2063828580466245 0.6670820122810293 0.0
      vertex 4.43927822676104 0.9164520621612067 0.34793689941649597
      vertex 3.9417008052871547 0.45174719045023537 0.3479368994164966
    endloop
  endfacet
  facet normal 0.9151641965700689 -0.3975119066929756 -0.06677407695786931
    outer loop
      vertex 4.907293218369497 1.8196799950837845 0.0
      vertex 4.793028253763629 1.498169198360739 0.34793689941649325
      vertex 4.636048511366216 1.1952120478877566 0.0
    endloop
  endfacet
  facet normal 0.852512443547354 -0.5184243013626425 0.06677407695787027
    outer loop
      vertex 4.793028253763629 1.498169198360739 0.34793689941649325
      vertex 4.43927822676104 0.9164520621612067 0.34793689941649597
      vertex 4.636048511366216 1.1952120478877566 0.0
    endloop
  endfacet
  facet normal 0.9567794940388823 -0.2865895886403807 0.04939035806346976
    outer loop
      vertex 4.907293218369497 1.8196799950837845 0.0
      vertex 4.963043157641645 2.0658981745458895 0.3487151896366195
      vertex 4.793028253763629 1.498169198360739 0.34793689941649325
    endloop
  endfacet
  facet normal 0.91516419657007 0.39751190669297287 0.06677407695787016
    outer loop
      vertex 4.907293218369499 3.16866385086891 0.697430379273239
      vertex 4.793028253763634 3.490174647591953 0.3494934798567425
      vertex 4.636048511366222 3.7931317980649326 0.697430379273239
    endloop
  endfacet
  facet normal 0.9567794940388794 0.28658958864039347 -0.049390358063451226
    outer loop
      vertex 4.907293218369499 3.16866385086891 0.697430379273239
      vertex 4.963043157641631 2.9224456714068925 0.3487151896366195
      vertex 4.793028253763634 3.490174647591953 0.3494934798567425
    endloop
  endfacet
  facet normal 0.7739799967168448 0.6296794321943647 0.06677407695786862
    outer loop
      vertex 4.636048511366222 3.7931317980649326 0.697430379273239
      vertex 4.439278226761051 4.071891783791481 0.34949347985674195
      vertex 4.206382858046637 4.3212618336716595 0.697430379273239
    endloop
  endfacet
  facet normal 0.8525124435473567 0.5184243013626387 -0.06677407695786526
    outer loop
      vertex 4.793028253763634 3.490174647591953 0.3494934798567425
      vertex 4.439278226761051 4.071891783791481 0.34949347985674195
      vertex 4.636048511366222 3.7931317980649326 0.697430379273239
    endloop
  endfacet
  facet normal 0.5754046426181113 0.8151626668887691 0.06647799458702976
    outer loop
      vertex 4.206382858046637 4.3212618336716595 0.697430379273239
      vertex 3.94170080528717 4.5365966555024535 0.3479368994164966
      vertex 3.6501625943278837 4.713884968982287 0.697430379273239
    endloop
  endfacet
  facet normal 0.6811478538081677 0.7291080965449027 -0.06662570678946543
    outer loop
      vertex 4.206382858046637 4.3212618336716595 0.697430379273239
      vertex 4.439278226761051 4.071891783791481 0.34949347985674195
      vertex 3.94170080528717 4.5365966555024535 0.3479368994164966
    endloop
  endfacet
  facet normal 0.33413872350400503 0.940176261204371 0.0664824136361211
    outer loop
      vertex 3.6501625943278837 4.713884968982287 0.697430379273239
      vertex 3.337205297632224 4.8498220008989055 0.3479602333095413
      vertex 3.0086400326315896 4.941882142182156 0.697430379273239
    endloop
  endfacet
  facet normal 0.4590464511521281 0.8859215028947242 -0.06647891690897226
    outer loop
      vertex 3.94170080528717 4.5365966555024535 0.3479368994164966
      vertex 3.337205297632224 4.8498220008989055 0.3479602333095413
      vertex 3.6501625943278837 4.713884968982287 0.697430379273239
    endloop
  endfacet
  facet normal 0.06809145373556834 0.9954618175318749 0.0664779945870302
    outer loop
      vertex 3.0086400326315896 4.941882142182156 0.697430379273239
      vertex 2.670606033411683 4.988343845952698 0.3479368994164924
      vertex 2.3293939665883294 4.9883438459526985 0.697430379273239
    endloop
  endfacet
  facet normal 0.20300942921356022 0.9769172856384896 -0.06648149119198807
    outer loop
      vertex 3.0086400326315896 4.941882142182156 0.697430379273239
      vertex 3.337205297632224 4.8498220008989055 0.3479602333095413
      vertex 2.670606033411683 4.988343845952698 0.3479368994164924
    endloop
  endfacet
  facet normal -0.2030058556605614 0.9769178113805648 0.06648467774555732
    outer loop
      vertex 2.3293939665883294 4.9883438459526985 0.697430379273239
      vertex 1.991359967368397 4.941882142182153 0.3479721870806355
      vertex 1.6628009695725439 4.849824228273405 0.697430379273239
    endloop
  endfacet
  facet normal -0.0680948762448264 0.9954613602712463 -0.06648133599832036
    outer loop
      vertex 2.3293939665883294 4.9883438459526985 0.697430379273239
      vertex 2.670606033411683 4.988343845952698 0.3479368994164924
      vertex 1.991359967368397 4.941882142182153 0.3479721870806355
    endloop
  endfacet
  facet normal -0.45904732390721387 0.8859211198799317 0.06647799458703
    outer loop
      vertex 1.6628009695725439 4.849824228273405 0.697430379273239
      vertex 1.349837405672129 4.713884968982293 0.34793689941649547
      vertex 1.0582991947128415 4.5365966555024615 0.697430379273239
    endloop
  endfacet
  facet normal -0.33413550076552134 0.9401774827616612 -0.06648133599831257
    outer loop
      vertex 1.6628009695725439 4.849824228273405 0.697430379273239
      vertex 1.991359967368397 4.941882142182153 0.3479721870806355
      vertex 1.349837405672129 4.713884968982293 0.34793689941649547
    endloop
  endfacet
  facet normal -0.68104326154442 0.7292192757604706 0.06647799458703131
    outer loop
      vertex 1.0582991947128415 4.5365966555024615 0.697430379273239
      vertex 0.7936171419533727 4.3212618336716675 0.3479368994164966
      vertex 0.5607217732389579 4.071891783791491 0.697430379273239
    endloop
  endfacet
  facet normal -0.5754046426181074 0.8151626668887717 -0.06647799458703142
    outer loop
      vertex 1.0582991947128415 4.5365966555024615 0.697430379273239
      vertex 1.349837405672129 4.713884968982293 0.34793689941649547
      vertex 0.7936171419533727 4.3212618336716675 0.3479368994164966
    endloop
  endfacet
  facet normal -0.8525209179792805 0.5184294547788597 0.06662570694153364
    outer loop
      vertex 0.5607217732389579 4.071891783791491 0.697430379273239
      vertex 0.36395494452120153 3.7931374810126584 0.3487151865049262
      vertex 0.2069717462363734 3.4901746475919677 0.697430379273239
    endloop
  endfacet
  facet normal -0.7740387563772877 0.6296308736918748 -0.06655048098930949
    outer loop
      vertex 0.7936171419533727 4.3212618336716675 0.3479368994164966
      vertex 0.36395494452120153 3.7931374810126584 0.3487151865049262
      vertex 0.5607217732389579 4.071891783791491 0.697430379273239
    endloop
  endfacet
  facet normal -0.9607681721678387 0.2691946173230346 0.06677407695786734
    outer loop
      vertex 0.2069717462363734 3.4901746475919677 0.697430379273239
      vertex 0.09270678163050593 3.168663850868926 0.3494934798567425
      vertex 0.02328513490917518 2.8345885457169833 0.697430379273239
    endloop
  endfacet
  facet normal -0.9151985196743214 0.3974451316077628 -0.06670110154426757
    outer loop
      vertex 0.2069717462363734 3.4901746475919677 0.697430379273239
      vertex 0.36395494452120153 3.7931374810126584 0.3487151865049262
      vertex 0.09270678163050593 3.168663850868926 0.3494934798567425
    endloop
  endfacet
  facet normal -0.9977681206805642 6.864088738082324e-15 0.06677407695786725
    outer loop
      vertex 0.02328513490917518 2.8345885457169833 0.697430379273239
      vertex 0.0 2.4941719229763684 0.3494934798567436
      vertex 0.023285134909170495 2.1537553002357526 0.697430379273239
    endloop
  endfacet
  facet normal -0.9884748545613157 0.13586274156813827 -0.06677407695786801
    outer loop
      vertex 0.09270678163050593 3.168663850868926 0.3494934798567425
      vertex 0.0 2.4941719229763684 0.3494934798567436
      vertex 0.02328513490917518 2.8345885457169833 0.697430379273239
    endloop
  endfacet
  facet normal -0.9607872097407886 -0.2691999514008061 0.06647799458703149
    outer loop
      vertex 0.023285134909170495 2.1537553002357526 0.697430379273239
      vertex 0.09270678163049617 1.8196799950838096 0.34793689941649764
      vertex 0.20697174623635897 1.4981691983607666 0.697430379273239
    endloop
  endfacet
  facet normal -0.9885054106780843 -0.13571318379198194 -0.0666257067894644
    outer loop
      vertex 0.0 2.4941719229763684 0.3494934798567436
      vertex 0.09270678163049617 1.8196799950838096 0.34793689941649764
      vertex 0.023285134909170495 2.1537553002357526 0.697430379273239
    endloop
  endfacet
  facet normal -0.8525290844712438 -0.5184344209326177 0.06648241363612065
    outer loop
      vertex 0.20697174623635897 1.4981691983607666 0.697430379273239
      vertex 0.36395494452118826 1.195206364940064 0.3479602333095438
      vertex 0.5607217732389349 0.916452062161237 0.697430379273239
    endloop
  endfacet
  facet normal -0.9151806802705733 -0.39752299781066763 -0.06648149119198962
    outer loop
      vertex 0.09270678163049617 1.8196799950838096 0.34793689941649764
      vertex 0.36395494452118826 1.195206364940064 0.3479602333095438
      vertex 0.20697174623635897 1.4981691983607666 0.697430379273239
    endloop
  endfacet
  facet normal -0.6810432615444311 -0.7292192757604604 0.06647799458703078
    outer loop
      vertex 0.5607217732389349 0.916452062161237 0.697430379273239
      vertex 0.793617141953346 0.6670820122810573 0.34793689941649597
      vertex 1.0582991947128102 0.45174719045026035 0.697430379273239
    endloop
  endfacet
  facet normal -0.7739958856624677 -0.629691132686639 -0.06647891690897105
    outer loop
      vertex 0.5607217732389349 0.916452062161237 0.697430379273239
      vertex 0.36395494452118826 1.195206364940064 0.3479602333095438
      vertex 0.793617141953346 0.6670820122810573 0.34793689941649597
    endloop
  endfacet
  facet normal -0.45904732390722597 -0.8859211198799253 0.06647799458703126
    outer loop
      vertex 1.0582991947128102 0.45174719045026035 0.697430379273239
      vertex 1.3498374056720945 0.2744588769704248 0.34793689941649464
      vertex 1.662800969572507 0.13851961767930876 0.697430379273239
    endloop
  endfacet
  facet normal -0.5754046426181199 -0.8151626668887629 -0.06647799458703103
    outer loop
      vertex 0.793617141953346 0.6670820122810573 0.34793689941649597
      vertex 1.3498374056720945 0.2744588769704248 0.34793689941649464
      vertex 1.0582991947128102 0.45174719045026035 0.697430379273239
    endloop
  endfacet
  facet normal -0.20300192378469864 -0.9768988901550334 0.06677407695786822
    outer loop
      vertex 1.662800969572507 0.13851961767930876 0.697430379273239
      vertex 1.9913599673683875 0.046461703770548514 0.3494934798567425
      vertex 2.329393966588293 3.902000706228438e-15 0.697430379273239
    endloop
  endfacet
  facet normal -0.3339919884769733 -0.9402182548897898 -0.0666257067894635
    outer loop
      vertex 1.662800969572507 0.13851961767930876 0.697430379273239
      vertex 1.3498374056720945 0.2744588769704248 0.34793689941649464
      vertex 1.9913599673683875 0.046461703770548514 0.3494934798567425
    endloop
  endfacet
  facet normal 0.06809010453356348 -0.9954420928969364 0.0667740769578693
    outer loop
      vertex 2.329393966588293 3.902000706228438e-15 0.697430379273239
      vertex 2.6706060334116506 0.0 0.3494934798567428
      vertex 3.0086400326315617 0.04646170377053798 0.697430379273239
    endloop
  endfacet
  facet normal -0.06809010453358506 -0.9954420928969351 -0.06677407695786815
    outer loop
      vertex 2.329393966588293 3.902000706228438e-15 0.697430379273239
      vertex 1.9913599673683875 0.046461703770548514 0.3494934798567425
      vertex 2.6706060334116506 0.0 0.3494934798567428
    endloop
  endfacet
  facet normal 0.33413882210281354 -0.9401765386348625 0.06647799458703155
    outer loop
      vertex 3.0086400326315617 0.04646170377053798 0.697430379273239
      vertex 3.337199030427444 0.1385196176792912 0.3479368994164966
      vertex 3.6501625943278615 0.2744588769704018 0.697430379273239
    endloop
  endfacet
  facet normal 0.20285479988538177 -0.9769395812220252 -0.06662570678946543
    outer loop
      vertex 2.6706060334116506 0.0 0.3494934798567428
      vertex 3.337199030427444 0.1385196176792912 0.3479368994164966
      vertex 3.0086400326315617 0.04646170377053798 0.697430379273239
    endloop
  endfacet
  facet normal 0.5754046426181049 -0.8151626668887735 0.06647799458703273
    outer loop
      vertex 3.6501625943278615 0.2744588769704018 0.697430379273239
      vertex 3.9417008052871547 0.45174719045023537 0.3479368994164966
      vertex 4.2063828580466245 0.6670820122810293 0.697430379273239
    endloop
  endfacet
  facet normal 0.45904732390720915 -0.8859211198799338 -0.06647799458703349
    outer loop
      vertex 3.6501625943278615 0.2744588769704018 0.697430379273239
      vertex 3.337199030427444 0.1385196176792912 0.3479368994164966
      vertex 3.9417008052871547 0.45174719045023537 0.3479368994164966
    endloop
  endfacet
  facet normal 0.773995333091497 -0.6296919092606075 0.0664779945870311
    outer loop
      vertex 4.2063828580466245 0.6670820122810293 0.697430379273239
      vertex 4.43927822676104 0.9164520621612067 0.34793689941649597
      vertex 4.636048511366216 1.1952120478877566 0.697430379273239
    endloop
  endfacet
  facet normal 0.6810432615444194 -0.7292192757604711 -0.06647799458703287
    outer loop
      vertex 3.9417008052871547 0.45174719045023537 0.3479368994164966
      vertex 4.43927822676104 0.9164520621612067 0.34793689941649597
      vertex 4.2063828580466245 0.6670820122810293 0.697430379273239
    endloop
  endfacet
  facet normal 0.9151823305025353 -0.39751978337138755 0.06647799458703191
    outer loop
      vertex 4.636048511366216 1.1952120478877566 0.697430379273239
      vertex 4.793028253763629 1.498169198360739 0.34793689941649325
      vertex 4.907293218369497 1.8196799950837845 0.697430379273239
    endloop
  endfacet
  facet normal 0.8525293360384891 -0.518434573914066 -0.06647799458703334
    outer loop
      vertex 4.636048511366216 1.1952120478877566 0.697430379273239
      vertex 4.43927822676104 0.9164520621612067 0.34793689941649597
      vertex 4.793028253763629 1.498169198360739 0.34793689941649325
    endloop
  endfacet
  facet normal 0.9568210933747279 -0.2864667573499869 -0.04929697969018231
    outer loop
      vertex 4.793028253763629 1.498169198360739 0.34793689941649325
      vertex 4.963043157641645 2.0658981745458895 0.3487151896366195
      vertex 4.907293218369497 1.8196799950837845 0.697430379273239
    endloop
  endfacet
endsolid abc_50_000
