solid abc_50_003
  facet normal 1.0 0.0 -0.0
    outer loop
      vertex 5.0 5.0 0.0
      vertex 5.0 5.0 0.24999999999999997
      vertex 5.0 4.374999999999998 0.0
    endloop
  endfacet
  facet normal 1.0 0.0 0.0
    outer loop
      vertex 5.0 0.625 0.24999999999999997
      vertex 5.0 0.0 0.24999999999999997
      vertex 5.0 0.0 0.0
    endloop
  endfacet
  facet normal 1.0 0.0 0.0
    outer loop
      vertex 5.0 0.0 0.0
      vertex 5.0 0.625 0.0
      vertex 5.0 0.625 0.24999999999999997
    endloop
  endfacet
  facet normal 1.0 0.0 0.0
    outer loop
      vertex 5.0 5.0 0.24999999999999997
      vertex 5.0 4.374999999999998 0.24999999999999997
      vertex 5.0 4.374999999999998 0.0
    endloop
  endfacet
  facet normal 1.0 0.0 -0.0
    outer loop
      vertex 5.0 4.374999999999998 0.0
      vertex 5.0 4.374999999999998 0.24999999999999997
      vertex 5.0 3.7499999999999964 0.0
    endloop
  endfacet
  facet normal 1.0 0.0 0.0
    outer loop
      vertex 5.0 3.1249999999999964 0.24999999999999997
      vertex 5.0 3.1249999999999964 0.0
      vertex 5.0 3.7499999999999964 0.0
    endloop
  endfacet
  facet normal 1.0 0.0 0.0
    outer loop
      vertex 5.0 4.374999999999998 0.24999999999999997
      vertex 5.0 3.7499999999999964 0.24999999999999997
      vertex 5.0 3.7499999999999964 0.0
    endloop
  endfacet
  facet normal 1.0 0.0 -0.0
    outer loop
      vertex 5.0 3.7499999999999964 0.0
      vertex 5.0 3.7499999999999964 0.24999999999999997
      vertex 5.0 3.1249999999999964 0.24999999999999997
    endloop
  endfacet
  facet normal 1.0 0.0 0.0
    outer loop
      vertex 5.0 3.1249999999999964 0.0
      vertex 5.0 2.812499999999996 0.12499999999999999
      vertex 5.0 2.4999999999999982 0.0
    endloop
  endfacet
  facet normal 1.0 0.0 0.0
    outer loop
      vertex 5.0 3.1249999999999964 0.24999999999999997
      vertex 5.0 2.812499999999996 0.12499999999999999
      vertex 5.0 3.1249999999999964 0.0
    endloop
  endfacet
  facet normal 1.0 0.0 0.0
    outer loop
      vertex 5.0 2.4999999999999982 0.0
      vertex 5.0 2.187499999999998 0.12499999999999999
      vertex 5.0 1.8749999999999978 0.0
    endloop
  endfacet
  facet normal 1.0 0.0 0.0
    outer loop
      vertex 5.0 2.4999999999999982 0.0
      vertex 5.0 2.812499999999996 0.12499999999999999
      vertex 5.0 2.4999999999999982 0.24999999999999997
    endloop
  endfacet
  facet normal 1.0 0.0 0.0
    outer loop
      vertex 5.0 2.4999999999999982 0.24999999999999997
      vertex 5.0 2.187499999999998 0.12499999999999999
      vertex 5.0 2.4999999999999982 0.0
    endloop
  endfacet
  facet normal 1.0 0.0 0.0
    outer loop
      vertex 5.0 1.8749999999999978 0.0
      vertex 5.0 1.5624999999999978 0.12499999999999999
      vertex 5.0 1.2499999999999978 0.0
    endloop
  endfacet
  facet normal 1.0 0.0 0.0
    outer loop
      vertex 5.0 1.8749999999999978 0.0
      vertex 5.0 2.187499999999998 0.12499999999999999
      vertex 5.0 1.8749999999999978 0.24999999999999997
    endloop
  endfacet
  facet normal 1.0 0.0 0.0
    outer loop
      vertex 5.0 1.8749999999999978 0.24999999999999997
      vertex 5.0 1.5624999999999978 0.12499999999999999
      vertex 5.0 1.8749999999999978 0.0
    endloop
  endfacet
  facet normal 1.0 0.0 0.0
    outer loop
      vertex 5.0 1.2499999999999978 0.0
      vertex 5.0 0.9375 0.12499999999999999
      vertex 5.0 0.625 0.0
    endloop
  endfacet
  facet normal 1.0 0.0 0.0
    outer loop
      vertex 5.0 1.2499999999999978 0.0
      vertex 5.0 1.5624999999999978 0.12499999999999999
      vertex 5.0 1.2499999999999978 0.24999999999999997
    endloop
  endfacet
  facet normal 1.0 0.0 0.0
    outer loop
      vertex 5.0 1.2499999999999978 0.24999999999999997
      vertex 5.0 0.9375 0.12499999999999999
      vertex 5.0 1.2499999999999978 0.0
    endloop
  endfacet
  facet normal 1.0 0.0 0.0
    outer loop
      vertex 5.0 0.625 0.0
      vertex 5.0 0.9375 0.12499999999999999
      vertex 5.0 0.625 0.24999999999999997
    endloop
  endfacet
  facet normal 1.0 -0.0 0.0
    outer loop
      vertex 5.0 2.4999999999999982 0.24999999999999997
      vertex 5.0 2.812499999999996 0.12499999999999999
      vertex 5.0 3.1249999999999964 0.24999999999999997
    endloop
  endfacet
  facet normal 1.0 -0.0 0.0
    outer loop
      vertex 5.0 1.8749999999999978 0.24999999999999997
      vertex 5.0 2.187499999999998 0.12499999999999999
      vertex 5.0 2.4999999999999982 0.24999999999999997
    endloop
  endfacet
  facet normal 1.0 -0.0 0.0
    outer loop
      vertex 5.0 1.2499999999999978 0.24999999999999997
      vertex 5.0 1.5624999999999978 0.12499999999999999
      vertex 5.0 1.8749999999999978 0.24999999999999997
    endloop
  endfacet
  facet normal 1.0 -0.0 0.0
    outer loop
      vertex 5.0 0.625 0.24999999999999997
      vertex 5.0 0.9375 0.12499999999999999
      vertex 5.0 1.2499999999999978 0.24999999999999997
    endloop
  endfacet
  facet normal 0.0 0.0 1.0
    outer loop
      vertex 5.0 5.0 0.24999999999999997
      vertex 4.526807940771957 4.5314004125491145 0.24999999999999997
      vertex 5.0 4.374999999999998 0.24999999999999997
    endloop
  endfacet
  facet normal -0.0 0.0 1.0
    outer loop
      vertex 4.357142857142856 5.0 0.24999999999999997
      vertex 4.526807940771957 4.5314004125491145 0.24999999999999997
      vertex 5.0 5.0 0.24999999999999997
    endloop
  endfacet
  facet normal 0.0 0.0 1.0
    outer loop
      vertex 5.0 0.625 0.24999999999999997
      vertex 4.54565045965309 0.45434954034690955 0.24999999999999997
      vertex 5.0 0.0 0.24999999999999997
    endloop
  endfacet
  facet normal 0.0 0.0 1.0
    outer loop
      vertex 5.0 0.0 0.24999999999999997
      vertex 4.54565045965309 0.45434954034690955 0.24999999999999997
      vertex 4.375 0.0 0.24999999999999997
    endloop
  endfacet
  facet normal -0.0 0.0 1.0
    outer loop
      vertex 0.49999999999999994 5.0 0.24999999999999997
      vertex 0.662863044567959 4.675231479545895 0.24999999999999997
      vertex 1.1428571428571441 5.0 0.24999999999999997
    endloop
  endfacet
  facet normal 0.0 0.0 1.0
    outer loop
      vertex 0.3535533905932734 4.646446609406726 0.24999999999999997
      vertex 0.662863044567959 4.675231479545895 0.24999999999999997
      vertex 0.49999999999999994 5.0 0.24999999999999997
    endloop
  endfacet
  facet normal -0.0 0.0 1.0
    outer loop
      vertex 0.0 4.5 0.24999999999999997
      vertex 0.3878193613753756 4.207972670817727 0.24999999999999997
      vertex 0.3535533905932734 4.646446609406726 0.24999999999999997
    endloop
  endfacet
  facet normal 0.0 0.0 1.0
    outer loop
      vertex 0.0 3.8571428571428568 0.24999999999999997
      vertex 0.3878193613753756 4.207972670817727 0.24999999999999997
      vertex 0.0 4.5 0.24999999999999997
    endloop
  endfacet
  facet normal 0.0 0.0 1.0
    outer loop
      vertex 0.0 0.0 0.24999999999999997
      vertex 0.4685995874508851 0.4731920592280431 0.24999999999999997
      vertex 0.0 0.6428571428571453 0.24999999999999997
    endloop
  endfacet
  facet normal 0.0 0.0 1.0
    outer loop
      vertex 0.6250000000000018 0.0 0.24999999999999997
      vertex 0.4685995874508851 0.4731920592280431 0.24999999999999997
      vertex 0.0 0.0 0.24999999999999997
    endloop
  endfacet
  facet normal 0.0 0.0 1.0
    outer loop
      vertex 5.0 4.374999999999998 0.24999999999999997
      vertex 4.485870255060338 4.071391707622288 0.24999999999999997
      vertex 5.0 3.7499999999999964 0.24999999999999997
    endloop
  endfacet
  facet normal 0.0 0.0 1.0
    outer loop
      vertex 5.0 4.374999999999998 0.24999999999999997
      vertex 4.526807940771957 4.5314004125491145 0.24999999999999997
      vertex 4.485870255060338 4.071391707622288 0.24999999999999997
    endloop
  endfacet
  facet normal 0.0 0.0 1.0
    outer loop
      vertex 5.0 3.7499999999999964 0.24999999999999997
      vertex 4.361782206376248 3.4978438669977736 0.24999999999999997
      vertex 5.0 3.1249999999999964 0.24999999999999997
    endloop
  endfacet
  facet normal 0.0 0.0 1.0
    outer loop
      vertex 5.0 3.7499999999999964 0.24999999999999997
      vertex 4.485870255060338 4.071391707622288 0.24999999999999997
      vertex 4.361782206376248 3.4978438669977736 0.24999999999999997
    endloop
  endfacet
  facet normal 0.0 0.0 1.0
    outer loop
      vertex 5.0 3.1249999999999964 0.24999999999999997
      vertex 4.46514739698285 2.812499999999996 0.24999999999999997
      vertex 5.0 2.4999999999999982 0.24999999999999997
    endloop
  endfacet
  facet normal 0.0 0.0 1.0
    outer loop
      vertex 4.361782206376248 3.4978438669977736 0.24999999999999997
      vertex 4.46514739698285 2.812499999999996 0.24999999999999997
      vertex 5.0 3.1249999999999964 0.24999999999999997
    endloop
  endfacet
  facet normal 0.0 0.0 1.0
    outer loop
      vertex 5.0 2.4999999999999982 0.24999999999999997
      vertex 4.420926320186274 2.101695354055844 0.24999999999999997
      vertex 5.0 1.8749999999999978 0.24999999999999997
    endloop
  endfacet
  facet normal 0.0 0.0 1.0
    outer loop
      vertex 5.0 2.4999999999999982 0.24999999999999997
      vertex 4.46514739698285 2.812499999999996 0.24999999999999997
      vertex 4.420926320186274 2.101695354055844 0.24999999999999997
    endloop
  endfacet
  facet normal 0.0 0.0 1.0
    outer loop
      vertex 5.0 1.8749999999999978 0.24999999999999997
      vertex 4.588108371053092 1.5350084633068404 0.24999999999999997
      vertex 5.0 1.2499999999999978 0.24999999999999997
    endloop
  endfacet
  facet normal 0.0 0.0 1.0
    outer loop
      vertex 4.420926320186274 2.101695354055844 0.24999999999999997
      vertex 4.588108371053092 1.5350084633068404 0.24999999999999997
      vertex 5.0 1.8749999999999978 0.24999999999999997
    endloop
  endfacet
  facet normal 0.0 0.0 1.0
    outer loop
      vertex 5.0 1.2499999999999978 0.24999999999999997
      vertex 4.45801989693264 0.961893027856736 0.24999999999999997
      vertex 5.0 0.625 0.24999999999999997
    endloop
  endfacet
  facet normal 0.0 0.0 1.0
    outer loop
      vertex 5.0 1.2499999999999978 0.24999999999999997
      vertex 4.588108371053092 1.5350084633068404 0.24999999999999997
      vertex 4.45801989693264 0.961893027856736 0.24999999999999997
    endloop
  endfacet
  facet normal 0.0 0.0 1.0
    outer loop
      vertex 4.45801989693264 0.961893027856736 0.24999999999999997
      vertex 4.54565045965309 0.45434954034690955 0.24999999999999997
      vertex 5.0 0.625 0.24999999999999997
    endloop
  endfacet
  facet normal -0.0 0.0 1.0
    outer loop
      vertex 1.1428571428571441 5.0 0.24999999999999997
      vertex 1.4726488799946404 4.463074114355404 0.24999999999999997
      vertex 1.785714285714287 5.0 0.24999999999999997
    endloop
  endfacet
  facet normal 0.0 0.0 1.0
    outer loop
      vertex 1.1428571428571441 5.0 0.24999999999999997
      vertex 0.913556145150929 4.428181414425572 0.24999999999999997
      vertex 1.4726488799946404 4.463074114355404 0.24999999999999997
    endloop
  endfacet
  facet normal 0.0 0.0 1.0
    outer loop
      vertex 1.1428571428571441 5.0 0.24999999999999997
      vertex 0.662863044567959 4.675231479545895 0.24999999999999997
      vertex 0.913556145150929 4.428181414425572 0.24999999999999997
    endloop
  endfacet
  facet normal -0.0 0.0 1.0
    outer loop
      vertex 1.785714285714287 5.0 0.24999999999999997
      vertex 2.0985245249750375 4.440155573601184 0.24999999999999997
      vertex 2.428571428571429 5.0 0.24999999999999997
    endloop
  endfacet
  facet normal -0.0 0.0 1.0
    outer loop
      vertex 1.4726488799946404 4.463074114355404 0.24999999999999997
      vertex 2.0985245249750375 4.440155573601184 0.24999999999999997
      vertex 1.785714285714287 5.0 0.24999999999999997
    endloop
  endfacet
  facet normal -0.0 0.0 1.0
    outer loop
      vertex 2.428571428571429 5.0 0.24999999999999997
      vertex 2.7499999999999996 4.443269383281434 0.24999999999999997
      vertex 3.071428571428571 5.0 0.24999999999999997
    endloop
  endfacet
  facet normal 0.0 0.0 1.0
    outer loop
      vertex 2.428571428571429 5.0 0.24999999999999997
      vertex 2.0985245249750375 4.440155573601184 0.24999999999999997
      vertex 2.7499999999999996 4.443269383281434 0.24999999999999997
    endloop
  endfacet
  facet normal -0.0 0.0 1.0
    outer loop
      vertex 3.071428571428571 5.0 0.24999999999999997
      vertex 3.4766665155996654 4.352991988088143 0.24999999999999997
      vertex 3.7142857142857126 5.0 0.24999999999999997
    endloop
  endfacet
  facet normal -0.0 0.0 1.0
    outer loop
      vertex 2.7499999999999996 4.443269383281434 0.24999999999999997
      vertex 3.4766665155996654 4.352991988088143 0.24999999999999997
      vertex 3.071428571428571 5.0 0.24999999999999997
    endloop
  endfacet
  facet normal -0.0 0.0 1.0
    outer loop
      vertex 3.7142857142857126 5.0 0.24999999999999997
      vertex 4.080194444281772 4.498654500015875 0.24999999999999997
      vertex 4.357142857142856 5.0 0.24999999999999997
    endloop
  endfacet
  facet normal 0.0 0.0 1.0
    outer loop
      vertex 3.7142857142857126 5.0 0.24999999999999997
      vertex 3.4766665155996654 4.352991988088143 0.24999999999999997
      vertex 4.080194444281772 4.498654500015875 0.24999999999999997
    endloop
  endfacet
  facet normal 0.0 0.0 1.0
    outer loop
      vertex 4.080194444281772 4.498654500015875 0.24999999999999997
      vertex 4.526807940771957 4.5314004125491145 0.24999999999999997
      vertex 4.357142857142856 5.0 0.24999999999999997
    endloop
  endfacet
  facet normal 0.0 -0.0 1.0
    outer loop
      vertex 0.3878193613753756 4.207972670817727 0.24999999999999997
      vertex 0.662863044567959 4.675231479545895 0.24999999999999997
      vertex 0.3535533905932734 4.646446609406726 0.24999999999999997
    endloop
  endfacet
  facet normal 0.0 0.0 1.0
    outer loop
      vertex 0.0 3.214285714285714 0.24999999999999997
      vertex 0.608481194136699 3.5614696940226995 0.24999999999999997
      vertex 0.0 3.8571428571428568 0.24999999999999997
    endloop
  endfacet
  facet normal 0.0 0.0 1.0
    outer loop
      vertex 0.608481194136699 3.5614696940226995 0.24999999999999997
      vertex 0.3878193613753756 4.207972670817727 0.24999999999999997
      vertex 0.0 3.8571428571428568 0.24999999999999997
    endloop
  endfacet
  facet normal 0.0 0.0 1.0
    outer loop
      vertex 0.0 2.5714285714285725 0.24999999999999997
      vertex 0.4180908060748435 2.8978229457683757 0.24999999999999997
      vertex 0.0 3.214285714285714 0.24999999999999997
    endloop
  endfacet
  facet normal -0.0 0.0 1.0
    outer loop
      vertex 0.0 3.214285714285714 0.24999999999999997
      vertex 0.4180908060748435 2.8978229457683757 0.24999999999999997
      vertex 0.608481194136699 3.5614696940226995 0.24999999999999997
    endloop
  endfacet
  facet normal 0.0 0.0 1.0
    outer loop
      vertex 0.0 1.928571428571431 0.24999999999999997
      vertex 0.5880166282892116 2.2859701235787577 0.24999999999999997
      vertex 0.0 2.5714285714285725 0.24999999999999997
    endloop
  endfacet
  facet normal 0.0 0.0 1.0
    outer loop
      vertex 0.5880166282892116 2.2859701235787577 0.24999999999999997
      vertex 0.4180908060748435 2.8978229457683757 0.24999999999999997
      vertex 0.0 2.5714285714285725 0.24999999999999997
    endloop
  endfacet
  facet normal 0.0 0.0 1.0
    outer loop
      vertex 0.0 1.2857142857142891 0.24999999999999997
      vertex 0.5540399868125608 1.5755371927718507 0.24999999999999997
      vertex 0.0 1.928571428571431 0.24999999999999997
    endloop
  endfacet
  facet normal -0.0 0.0 1.0
    outer loop
      vertex 0.0 1.928571428571431 0.24999999999999997
      vertex 0.5540399868125608 1.5755371927718507 0.24999999999999997
      vertex 0.5880166282892116 2.2859701235787577 0.24999999999999997
    endloop
  endfacet
  facet normal 0.0 0.0 1.0
    outer loop
      vertex 0.0 0.6428571428571453 0.24999999999999997
      vertex 0.5272559235991143 0.952773654915929 0.24999999999999997
      vertex 0.0 1.2857142857142891 0.24999999999999997
    endloop
  endfacet
  facet normal 0.0 -0.0 1.0
    outer loop
      vertex 0.5272559235991143 0.952773654915929 0.24999999999999997
      vertex 0.5540399868125608 1.5755371927718507 0.24999999999999997
      vertex 0.0 1.2857142857142891 0.24999999999999997
    endloop
  endfacet
  facet normal -0.0 0.0 1.0
    outer loop
      vertex 0.0 0.6428571428571453 0.24999999999999997
      vertex 0.4685995874508851 0.4731920592280431 0.24999999999999997
      vertex 0.5272559235991143 0.952773654915929 0.24999999999999997
    endloop
  endfacet
  facet normal 0.0 0.0 1.0
    outer loop
      vertex 1.2500000000000036 0.0 0.24999999999999997
      vertex 0.9465261413039721 0.5249764814279918 0.24999999999999997
      vertex 0.6250000000000018 0.0 0.24999999999999997
    endloop
  endfacet
  facet normal 0.0 0.0 1.0
    outer loop
      vertex 0.9465261413039721 0.5249764814279918 0.24999999999999997
      vertex 0.4685995874508851 0.4731920592280431 0.24999999999999997
      vertex 0.6250000000000018 0.0 0.24999999999999997
    endloop
  endfacet
  facet normal 0.0 0.0 1.0
    outer loop
      vertex 1.8750000000000033 0.0 0.24999999999999997
      vertex 1.5625000000000033 0.5412658773652735 0.24999999999999997
      vertex 1.2500000000000036 0.0 0.24999999999999997
    endloop
  endfacet
  facet normal 0.0 0.0 1.0
    outer loop
      vertex 1.5625000000000033 0.5412658773652735 0.24999999999999997
      vertex 0.9465261413039721 0.5249764814279918 0.24999999999999997
      vertex 1.2500000000000036 0.0 0.24999999999999997
    endloop
  endfacet
  facet normal 0.0 0.0 1.0
    outer loop
      vertex 2.5000000000000018 0.0 0.24999999999999997
      vertex 2.187500000000004 0.5110277030448739 0.24999999999999997
      vertex 1.8750000000000033 0.0 0.24999999999999997
    endloop
  endfacet
  facet normal 0.0 -0.0 1.0
    outer loop
      vertex 1.8750000000000033 0.0 0.24999999999999997
      vertex 2.187500000000004 0.5110277030448739 0.24999999999999997
      vertex 1.5625000000000033 0.5412658773652735 0.24999999999999997
    endloop
  endfacet
  facet normal 0.0 0.0 1.0
    outer loop
      vertex 3.125000000000002 0.0 0.24999999999999997
      vertex 2.7916867016578855 0.528064323129366 0.24999999999999997
      vertex 2.5000000000000018 0.0 0.24999999999999997
    endloop
  endfacet
  facet normal 0.0 0.0 1.0
    outer loop
      vertex 2.7916867016578855 0.528064323129366 0.24999999999999997
      vertex 2.187500000000004 0.5110277030448739 0.24999999999999997
      vertex 2.5000000000000018 0.0 0.24999999999999997
    endloop
  endfacet
  facet normal 0.0 0.0 1.0
    outer loop
      vertex 3.750000000000002 0.0 0.24999999999999997
      vertex 3.4138974124639354 0.5174557378868739 0.24999999999999997
      vertex 3.125000000000002 0.0 0.24999999999999997
    endloop
  endfacet
  facet normal 0.0 -0.0 1.0
    outer loop
      vertex 3.125000000000002 0.0 0.24999999999999997
      vertex 3.4138974124639354 0.5174557378868739 0.24999999999999997
      vertex 2.7916867016578855 0.528064323129366 0.24999999999999997
    endloop
  endfacet
  facet normal 0.0 0.0 1.0
    outer loop
      vertex 4.375 0.0 0.24999999999999997
      vertex 4.050765745336093 0.4931406121340098 0.24999999999999997
      vertex 3.750000000000002 0.0 0.24999999999999997
    endloop
  endfacet
  facet normal 0.0 0.0 1.0
    outer loop
      vertex 4.050765745336093 0.4931406121340098 0.24999999999999997
      vertex 3.4138974124639354 0.5174557378868739 0.24999999999999997
      vertex 3.750000000000002 0.0 0.24999999999999997
    endloop
  endfacet
  facet normal 0.0 -0.0 1.0
    outer loop
      vertex 4.375 0.0 0.24999999999999997
      vertex 4.54565045965309 0.45434954034690955 0.24999999999999997
      vertex 4.050765745336093 0.4931406121340098 0.24999999999999997
    endloop
  endfacet
  facet normal -0.0 0.0 1.0
    outer loop
      vertex 0.5880166282892116 2.2859701235787577 0.24999999999999997
      vertex 1.283241302747045 2.2821221846645274 0.24999999999999997
      vertex 0.9787853398152441 2.865892231348604 0.24999999999999997
    endloop
  endfacet
  facet normal 0.0 0.0 1.0
    outer loop
      vertex 0.9787853398152441 2.865892231348604 0.24999999999999997
      vertex 0.4180908060748435 2.8978229457683757 0.24999999999999997
      vertex 0.5880166282892116 2.2859701235787577 0.24999999999999997
    endloop
  endfacet
  facet normal 0.0 0.0 1.0
    outer loop
      vertex 0.5540399868125608 1.5755371927718507 0.24999999999999997
      vertex 1.0338352619025115 1.8164089103774332 0.24999999999999997
      vertex 0.5880166282892116 2.2859701235787577 0.24999999999999997
    endloop
  endfacet
  facet normal 0.0 0.0 1.0
    outer loop
      vertex 0.5880166282892116 2.2859701235787577 0.24999999999999997
      vertex 1.0338352619025115 1.8164089103774332 0.24999999999999997
      vertex 1.283241302747045 2.2821221846645274 0.24999999999999997
    endloop
  endfacet
  facet normal -0.0 0.0 1.0
    outer loop
      vertex 3.783405970886006 2.031311129872868 0.24999999999999997
      vertex 4.061595638146545 1.486453934621628 0.24999999999999997
      vertex 4.420926320186274 2.101695354055844 0.24999999999999997
    endloop
  endfacet
  facet normal 0.0 0.0 1.0
    outer loop
      vertex 4.420926320186274 2.101695354055844 0.24999999999999997
      vertex 4.0173071987188935 2.515949864733945 0.24999999999999997
      vertex 3.783405970886006 2.031311129872868 0.24999999999999997
    endloop
  endfacet
  facet normal 0.0 0.0 1.0
    outer loop
      vertex 4.061595638146545 1.486453934621628 0.24999999999999997
      vertex 4.588108371053092 1.5350084633068404 0.24999999999999997
      vertex 4.420926320186274 2.101695354055844 0.24999999999999997
    endloop
  endfacet
  facet normal 0.0 0.0 1.0
    outer loop
      vertex 4.46514739698285 2.812499999999996 0.24999999999999997
      vertex 4.0173071987188935 2.515949864733945 0.24999999999999997
      vertex 4.420926320186274 2.101695354055844 0.24999999999999997
    endloop
  endfacet
  facet normal 0.0 0.0 1.0
    outer loop
      vertex 2.7499999999999996 4.443269383281434 0.24999999999999997
      vertex 2.0985245249750375 4.440155573601184 0.24999999999999997
      vertex 2.3980383790710906 3.838643407063382 0.24999999999999997
    endloop
  endfacet
  facet normal -0.0 0.0 1.0
    outer loop
      vertex 2.3980383790710906 3.838643407063382 0.24999999999999997
      vertex 3.040561434257145 3.813358351556682 0.24999999999999997
      vertex 2.7499999999999996 4.443269383281434 0.24999999999999997
    endloop
  endfacet
  facet normal 0.0 0.0 1.0
    outer loop
      vertex 2.7499999999999996 4.443269383281434 0.24999999999999997
      vertex 3.040561434257145 3.813358351556682 0.24999999999999997
      vertex 3.4766665155996654 4.352991988088143 0.24999999999999997
    endloop
  endfacet
  facet normal 0.0 0.0 1.0
    outer loop
      vertex 2.471285092486222 1.0728870050142876 0.24999999999999997
      vertex 2.187500000000004 0.5110277030448739 0.24999999999999997
      vertex 2.7916867016578855 0.528064323129366 0.24999999999999997
    endloop
  endfacet
  facet normal 0.0 -0.0 1.0
    outer loop
      vertex 2.7916867016578855 0.528064323129366 0.24999999999999997
      vertex 3.0854890285205374 1.0490490834481594 0.24999999999999997
      vertex 2.471285092486222 1.0728870050142876 0.24999999999999997
    endloop
  endfacet
  facet normal 0.0 0.0 1.0
    outer loop
      vertex 3.4138974124639354 0.5174557378868739 0.24999999999999997
      vertex 3.0854890285205374 1.0490490834481594 0.24999999999999997
      vertex 2.7916867016578855 0.528064323129366 0.24999999999999997
    endloop
  endfacet
  facet normal -0.0 0.0 1.0
    outer loop
      vertex 0.913556145150929 4.428181414425572 0.24999999999999997
      vertex 1.1418724139723528 3.962976766352498 0.24999999999999997
      vertex 1.4726488799946404 4.463074114355404 0.24999999999999997
    endloop
  endfacet
  facet normal -0.0 0.0 1.0
    outer loop
      vertex 1.1418724139723528 3.962976766352498 0.24999999999999997
      vertex 1.756174176498784 3.895946536906887 0.24999999999999997
      vertex 1.4726488799946404 4.463074114355404 0.24999999999999997
    endloop
  endfacet
  facet normal 0.0 -0.0 1.0
    outer loop
      vertex 1.756174176498784 3.895946536906887 0.24999999999999997
      vertex 2.0985245249750375 4.440155573601184 0.24999999999999997
      vertex 1.4726488799946404 4.463074114355404 0.24999999999999997
    endloop
  endfacet
  facet normal 0.0 0.0 1.0
    outer loop
      vertex 4.361782206376248 3.4978438669977736 0.24999999999999997
      vertex 3.6616754938052916 3.679276307762789 0.24999999999999997
      vertex 3.8922272316038287 3.045453903922415 0.24999999999999997
    endloop
  endfacet
  facet normal -0.0 0.0 1.0
    outer loop
      vertex 3.8922272316038287 3.045453903922415 0.24999999999999997
      vertex 4.46514739698285 2.812499999999996 0.24999999999999997
      vertex 4.361782206376248 3.4978438669977736 0.24999999999999997
    endloop
  endfacet
  facet normal 0.0 0.0 1.0
    outer loop
      vertex 4.361782206376248 3.4978438669977736 0.24999999999999997
      vertex 4.013237783024663 4.020031674097373 0.24999999999999997
      vertex 3.6616754938052916 3.679276307762789 0.24999999999999997
    endloop
  endfacet
  facet normal 0.0 0.0 1.0
    outer loop
      vertex 4.485870255060338 4.071391707622288 0.24999999999999997
      vertex 4.013237783024663 4.020031674097373 0.24999999999999997
      vertex 4.361782206376248 3.4978438669977736 0.24999999999999997
    endloop
  endfacet
  facet normal 0.0 0.0 1.0
    outer loop
      vertex 1.804587806780287 1.1226128846465928 0.24999999999999997
      vertex 1.1441291781546383 1.1775175964505962 0.24999999999999997
      vertex 1.5625000000000033 0.5412658773652735 0.24999999999999997
    endloop
  endfacet
  facet normal -0.0 0.0 1.0
    outer loop
      vertex 1.5625000000000033 0.5412658773652735 0.24999999999999997
      vertex 2.187500000000004 0.5110277030448739 0.24999999999999997
      vertex 1.804587806780287 1.1226128846465928 0.24999999999999997
    endloop
  endfacet
  facet normal 0.0 0.0 1.0
    outer loop
      vertex 1.1441291781546383 1.1775175964505962 0.24999999999999997
      vertex 0.9465261413039721 0.5249764814279918 0.24999999999999997
      vertex 1.5625000000000033 0.5412658773652735 0.24999999999999997
    endloop
  endfacet
  facet normal -0.0 0.0 1.0
    outer loop
      vertex 0.608481194136699 3.5614696940226995 0.24999999999999997
      vertex 1.391487201967994 3.376085748998556 0.24999999999999997
      vertex 1.1418724139723528 3.962976766352498 0.24999999999999997
    endloop
  endfacet
  facet normal 0.0 0.0 1.0
    outer loop
      vertex 1.1418724139723528 3.962976766352498 0.24999999999999997
      vertex 0.7588894344535825 4.057103998855715 0.24999999999999997
      vertex 0.608481194136699 3.5614696940226995 0.24999999999999997
    endloop
  endfacet
  facet normal 0.0 0.0 1.0
    outer loop
      vertex 0.608481194136699 3.5614696940226995 0.24999999999999997
      vertex 0.9787853398152441 2.865892231348604 0.24999999999999997
      vertex 1.391487201967994 3.376085748998556 0.24999999999999997
    endloop
  endfacet
  facet normal 0.0 0.0 1.0
    outer loop
      vertex 0.608481194136699 3.5614696940226995 0.24999999999999997
      vertex 0.4180908060748435 2.8978229457683757 0.24999999999999997
      vertex 0.9787853398152441 2.865892231348604 0.24999999999999997
    endloop
  endfacet
  facet normal 0.0 -0.0 1.0
    outer loop
      vertex 0.608481194136699 3.5614696940226995 0.24999999999999997
      vertex 0.7588894344535825 4.057103998855715 0.24999999999999997
      vertex 0.3878193613753756 4.207972670817727 0.24999999999999997
    endloop
  endfacet
  facet normal 0.0 0.0 1.0
    outer loop
      vertex 4.050765745336093 0.4931406121340098 0.24999999999999997
      vertex 3.750077375472305 1.0041436921144802 0.24999999999999997
      vertex 3.4138974124639354 0.5174557378868739 0.24999999999999997
    endloop
  endfacet
  facet normal 0.0 0.0 1.0
    outer loop
      vertex 4.45801989693264 0.961893027856736 0.24999999999999997
      vertex 3.750077375472305 1.0041436921144802 0.24999999999999997
      vertex 4.050765745336093 0.4931406121340098 0.24999999999999997
    endloop
  endfacet
  facet normal -0.0 0.0 1.0
    outer loop
      vertex 4.050765745336093 0.4931406121340098 0.24999999999999997
      vertex 4.54565045965309 0.45434954034690955 0.24999999999999997
      vertex 4.45801989693264 0.961893027856736 0.24999999999999997
    endloop
  endfacet
  facet normal 0.0 0.0 1.0
    outer loop
      vertex 0.5272559235991143 0.952773654915929 0.24999999999999997
      vertex 1.1441291781546383 1.1775175964505962 0.24999999999999997
      vertex 0.5540399868125608 1.5755371927718507 0.24999999999999997
    endloop
  endfacet
  facet normal -0.0 0.0 1.0
    outer loop
      vertex 0.5272559235991143 0.952773654915929 0.24999999999999997
      vertex 0.9465261413039721 0.5249764814279918 0.24999999999999997
      vertex 1.1441291781546383 1.1775175964505962 0.24999999999999997
    endloop
  endfacet
  facet normal 0.0 0.0 1.0
    outer loop
      vertex 0.5272559235991143 0.952773654915929 0.24999999999999997
      vertex 0.4685995874508851 0.4731920592280431 0.24999999999999997
      vertex 0.9465261413039721 0.5249764814279918 0.24999999999999997
    endloop
  endfacet
  facet normal -0.0 0.0 1.0
    outer loop
      vertex 3.4766665155996654 4.352991988088143 0.24999999999999997
      vertex 4.013237783024663 4.020031674097373 0.24999999999999997
      vertex 4.080194444281772 4.498654500015875 0.24999999999999997
    endloop
  endfacet
  facet normal 0.0 -0.0 1.0
    outer loop
      vertex 4.485870255060338 4.071391707622288 0.24999999999999997
      vertex 4.526807940771957 4.5314004125491145 0.24999999999999997
      vertex 4.080194444281772 4.498654500015875 0.24999999999999997
    endloop
  endfacet
  facet normal 0.0 0.0 1.0
    outer loop
      vertex 4.080194444281772 4.498654500015875 0.24999999999999997
      vertex 4.013237783024663 4.020031674097373 0.24999999999999997
      vertex 4.485870255060338 4.071391707622288 0.24999999999999997
    endloop
  endfacet
  facet normal 0.0 0.0 1.0
    outer loop
      vertex 0.913556145150929 4.428181414425572 0.24999999999999997
      vertex 0.7588894344535825 4.057103998855715 0.24999999999999997
      vertex 1.1418724139723528 3.962976766352498 0.24999999999999997
    endloop
  endfacet
  facet normal 0.0 0.0 1.0
    outer loop
      vertex 0.913556145150929 4.428181414425572 0.24999999999999997
      vertex 0.662863044567959 4.675231479545895 0.24999999999999997
      vertex 0.3878193613753756 4.207972670817727 0.24999999999999997
    endloop
  endfacet
  facet normal -0.0 0.0 1.0
    outer loop
      vertex 0.3878193613753756 4.207972670817727 0.24999999999999997
      vertex 0.7588894344535825 4.057103998855715 0.24999999999999997
      vertex 0.913556145150929 4.428181414425572 0.24999999999999997
    endloop
  endfacet
  facet normal 0.0 0.0 1.0
    outer loop
      vertex 1.1418724139723528 3.962976766352498 0.24999999999999997
      vertex 1.391487201967994 3.376085748998556 0.24999999999999997
      vertex 1.756174176498784 3.895946536906887 0.24999999999999997
    endloop
  endfacet
  facet normal -0.0 0.0 1.0
    outer loop
      vertex 1.391487201967994 3.376085748998556 0.24999999999999997
      vertex 2.024526541152364 3.3102916152423596 0.24999999999999997
      vertex 1.756174176498784 3.895946536906887 0.24999999999999997
    endloop
  endfacet
  facet normal 0.0 -0.0 1.0
    outer loop
      vertex 2.024526541152364 3.3102916152423596 0.24999999999999997
      vertex 2.3980383790710906 3.838643407063382 0.24999999999999997
      vertex 1.756174176498784 3.895946536906887 0.24999999999999997
    endloop
  endfacet
  facet normal 0.0 0.0 1.0
    outer loop
      vertex 2.3980383790710906 3.838643407063382 0.24999999999999997
      vertex 2.0985245249750375 4.440155573601184 0.24999999999999997
      vertex 1.756174176498784 3.895946536906887 0.24999999999999997
    endloop
  endfacet
  facet normal 0.0 0.0 1.0
    outer loop
      vertex 1.391487201967994 3.376085748998556 0.24999999999999997
      vertex 1.627856685968908 2.8020252118025355 0.24999999999999997
      vertex 2.024526541152364 3.3102916152423596 0.24999999999999997
    endloop
  endfacet
  facet normal 0.0 0.0 1.0
    outer loop
      vertex 1.391487201967994 3.376085748998556 0.24999999999999997
      vertex 0.9787853398152441 2.865892231348604 0.24999999999999997
      vertex 1.627856685968908 2.8020252118025355 0.24999999999999997
    endloop
  endfacet
  facet normal -0.0 0.0 1.0
    outer loop
      vertex 1.627856685968908 2.8020252118025355 0.24999999999999997
      vertex 2.2811123055444367 2.7285005220430647 0.24999999999999997
      vertex 2.024526541152364 3.3102916152423596 0.24999999999999997
    endloop
  endfacet
  facet normal 0.0 -0.0 1.0
    outer loop
      vertex 2.2811123055444367 2.7285005220430647 0.24999999999999997
      vertex 2.6577896770586795 3.256803519938543 0.24999999999999997
      vertex 2.024526541152364 3.3102916152423596 0.24999999999999997
    endloop
  endfacet
  facet normal -0.0 0.0 1.0
    outer loop
      vertex 2.024526541152364 3.3102916152423596 0.24999999999999997
      vertex 2.6577896770586795 3.256803519938543 0.24999999999999997
      vertex 2.3980383790710906 3.838643407063382 0.24999999999999997
    endloop
  endfacet
  facet normal 0.0 0.0 1.0
    outer loop
      vertex 1.627856685968908 2.8020252118025355 0.24999999999999997
      vertex 1.908446190249318 2.214275558030762 0.24999999999999997
      vertex 2.2811123055444367 2.7285005220430647 0.24999999999999997
    endloop
  endfacet
  facet normal 0.0 0.0 1.0
    outer loop
      vertex 1.627856685968908 2.8020252118025355 0.24999999999999997
      vertex 1.283241302747045 2.2821221846645274 0.24999999999999997
      vertex 1.908446190249318 2.214275558030762 0.24999999999999997
    endloop
  endfacet
  facet normal 0.0 0.0 1.0
    outer loop
      vertex 0.9787853398152441 2.865892231348604 0.24999999999999997
      vertex 1.283241302747045 2.2821221846645274 0.24999999999999997
      vertex 1.627856685968908 2.8020252118025355 0.24999999999999997
    endloop
  endfacet
  facet normal -0.0 0.0 1.0
    outer loop
      vertex 1.908446190249318 2.214275558030762 0.24999999999999997
      vertex 2.542526766859297 2.147578927384996 0.24999999999999997
      vertex 2.2811123055444367 2.7285005220430647 0.24999999999999997
    endloop
  endfacet
  facet normal 0.0 -0.0 1.0
    outer loop
      vertex 2.542526766859297 2.147578927384996 0.24999999999999997
      vertex 2.9152804820075686 2.659912122325447 0.24999999999999997
      vertex 2.2811123055444367 2.7285005220430647 0.24999999999999997
    endloop
  endfacet
  facet normal 0.0 0.0 1.0
    outer loop
      vertex 2.9152804820075686 2.659912122325447 0.24999999999999997
      vertex 2.6577896770586795 3.256803519938543 0.24999999999999997
      vertex 2.2811123055444367 2.7285005220430647 0.24999999999999997
    endloop
  endfacet
  facet normal 0.0 0.0 1.0
    outer loop
      vertex 1.908446190249318 2.214275558030762 0.24999999999999997
      vertex 2.1718508071385396 1.6349388637344844 0.24999999999999997
      vertex 2.542526766859297 2.147578927384996 0.24999999999999997
    endloop
  endfacet
  facet normal 0.0 0.0 1.0
    outer loop
      vertex 1.908446190249318 2.214275558030762 0.24999999999999997
      vertex 1.5625077102570764 1.7081610728490788 0.24999999999999997
      vertex 2.1718508071385396 1.6349388637344844 0.24999999999999997
    endloop
  endfacet
  facet normal 0.0 0.0 1.0
    outer loop
      vertex 1.908446190249318 2.214275558030762 0.24999999999999997
      vertex 1.283241302747045 2.2821221846645274 0.24999999999999997
      vertex 1.5625077102570764 1.7081610728490788 0.24999999999999997
    endloop
  endfacet
  facet normal -0.0 0.0 1.0
    outer loop
      vertex 2.542526766859297 2.147578927384996 0.24999999999999997
      vertex 3.172793763915842 2.0817822051615136 0.24999999999999997
      vertex 2.9152804820075686 2.659912122325447 0.24999999999999997
    endloop
  endfacet
  facet normal 0.0 0.0 1.0
    outer loop
      vertex 2.542526766859297 2.147578927384996 0.24999999999999997
      vertex 2.8029980132158445 1.5828770185644194 0.24999999999999997
      vertex 3.172793763915842 2.0817822051615136 0.24999999999999997
    endloop
  endfacet
  facet normal -0.0 0.0 1.0
    outer loop
      vertex 2.1718508071385396 1.6349388637344844 0.24999999999999997
      vertex 2.8029980132158445 1.5828770185644194 0.24999999999999997
      vertex 2.542526766859297 2.147578927384996 0.24999999999999997
    endloop
  endfacet
  facet normal 0.0 -0.0 1.0
    outer loop
      vertex 3.172793763915842 2.0817822051615136 0.24999999999999997
      vertex 3.5248290739355057 2.588788935818596 0.24999999999999997
      vertex 2.9152804820075686 2.659912122325447 0.24999999999999997
    endloop
  endfacet
  facet normal 0.0 0.0 1.0
    outer loop
      vertex 3.5248290739355057 2.588788935818596 0.24999999999999997
      vertex 3.2872189203194706 3.1901151014003246 0.24999999999999997
      vertex 2.9152804820075686 2.659912122325447 0.24999999999999997
    endloop
  endfacet
  facet normal 0.0 0.0 1.0
    outer loop
      vertex 3.2872189203194706 3.1901151014003246 0.24999999999999997
      vertex 2.6577896770586795 3.256803519938543 0.24999999999999997
      vertex 2.9152804820075686 2.659912122325447 0.24999999999999997
    endloop
  endfacet
  facet normal -0.0 0.0 1.0
    outer loop
      vertex 3.172793763915842 2.0817822051615136 0.24999999999999997
      vertex 3.783405970886006 2.031311129872868 0.24999999999999997
      vertex 3.5248290739355057 2.588788935818596 0.24999999999999997
    endloop
  endfacet
  facet normal 0.0 0.0 1.0
    outer loop
      vertex 3.172793763915842 2.0817822051615136 0.24999999999999997
      vertex 3.430696531434077 1.5168697567394707 0.24999999999999997
      vertex 3.783405970886006 2.031311129872868 0.24999999999999997
    endloop
  endfacet
  facet normal 0.0 0.0 1.0
    outer loop
      vertex 3.172793763915842 2.0817822051615136 0.24999999999999997
      vertex 2.8029980132158445 1.5828770185644194 0.24999999999999997
      vertex 3.430696531434077 1.5168697567394707 0.24999999999999997
    endloop
  endfacet
  facet normal 0.0 0.0 1.0
    outer loop
      vertex 1.5625077102570764 1.7081610728490788 0.24999999999999997
      vertex 1.804587806780287 1.1226128846465928 0.24999999999999997
      vertex 2.1718508071385396 1.6349388637344844 0.24999999999999997
    endloop
  endfacet
  facet normal 0.0 0.0 1.0
    outer loop
      vertex 2.1718508071385396 1.6349388637344844 0.24999999999999997
      vertex 2.471285092486222 1.0728870050142876 0.24999999999999997
      vertex 2.8029980132158445 1.5828770185644194 0.24999999999999997
    endloop
  endfacet
  facet normal 0.0 0.0 1.0
    outer loop
      vertex 2.1718508071385396 1.6349388637344844 0.24999999999999997
      vertex 1.804587806780287 1.1226128846465928 0.24999999999999997
      vertex 2.471285092486222 1.0728870050142876 0.24999999999999997
    endloop
  endfacet
  facet normal 0.0 0.0 1.0
    outer loop
      vertex 1.5625077102570764 1.7081610728490788 0.24999999999999997
      vertex 1.1441291781546383 1.1775175964505962 0.24999999999999997
      vertex 1.804587806780287 1.1226128846465928 0.24999999999999997
    endloop
  endfacet
  facet normal 0.0 0.0 1.0
    outer loop
      vertex 1.5625077102570764 1.7081610728490788 0.24999999999999997
      vertex 1.0338352619025115 1.8164089103774332 0.24999999999999997
      vertex 1.1441291781546383 1.1775175964505962 0.24999999999999997
    endloop
  endfacet
  facet normal 0.0 0.0 1.0
    outer loop
      vertex 1.283241302747045 2.2821221846645274 0.24999999999999997
      vertex 1.0338352619025115 1.8164089103774332 0.24999999999999997
      vertex 1.5625077102570764 1.7081610728490788 0.24999999999999997
    endloop
  endfacet
  facet normal 0.0 -0.0 1.0
    outer loop
      vertex 3.5248290739355057 2.588788935818596 0.24999999999999997
      vertex 3.8922272316038287 3.045453903922415 0.24999999999999997
      vertex 3.2872189203194706 3.1901151014003246 0.24999999999999997
    endloop
  endfacet
  facet normal 0.0 -0.0 1.0
    outer loop
      vertex 3.783405970886006 2.031311129872868 0.24999999999999997
      vertex 4.0173071987188935 2.515949864733945 0.24999999999999997
      vertex 3.5248290739355057 2.588788935818596 0.24999999999999997
    endloop
  endfacet
  facet normal -0.0 0.0 1.0
    outer loop
      vertex 3.5248290739355057 2.588788935818596 0.24999999999999997
      vertex 4.0173071987188935 2.515949864733945 0.24999999999999997
      vertex 3.8922272316038287 3.045453903922415 0.24999999999999997
    endloop
  endfacet
  facet normal 0.0 0.0 1.0
    outer loop
      vertex 3.8922272316038287 3.045453903922415 0.24999999999999997
      vertex 3.6616754938052916 3.679276307762789 0.24999999999999997
      vertex 3.2872189203194706 3.1901151014003246 0.24999999999999997
    endloop
  endfacet
  facet normal 0.0 0.0 1.0
    outer loop
      vertex 3.6616754938052916 3.679276307762789 0.24999999999999997
      vertex 3.040561434257145 3.813358351556682 0.24999999999999997
      vertex 3.2872189203194706 3.1901151014003246 0.24999999999999997
    endloop
  endfacet
  facet normal 0.0 0.0 1.0
    outer loop
      vertex 3.040561434257145 3.813358351556682 0.24999999999999997
      vertex 2.6577896770586795 3.256803519938543 0.24999999999999997
      vertex 3.2872189203194706 3.1901151014003246 0.24999999999999997
    endloop
  endfacet
  facet normal 0.0 0.0 1.0
    outer loop
      vertex 2.3980383790710906 3.838643407063382 0.24999999999999997
      vertex 2.6577896770586795 3.256803519938543 0.24999999999999997
      vertex 3.040561434257145 3.813358351556682 0.24999999999999997
    endloop
  endfacet
  facet normal -0.0 0.0 1.0
    outer loop
      vertex 3.430696531434077 1.5168697567394707 0.24999999999999997
      vertex 4.061595638146545 1.486453934621628 0.24999999999999997
      vertex 3.783405970886006 2.031311129872868 0.24999999999999997
    endloop
  endfacet
  facet normal 0.0 0.0 1.0
    outer loop
      vertex 3.430696531434077 1.5168697567394707 0.24999999999999997
      vertex 3.750077375472305 1.0041436921144802 0.24999999999999997
      vertex 4.061595638146545 1.486453934621628 0.24999999999999997
    endloop
  endfacet
  facet normal 0.0 0.0 1.0
    outer loop
      vertex 2.8029980132158445 1.5828770185644194 0.24999999999999997
      vertex 3.0854890285205374 1.0490490834481594 0.24999999999999997
      vertex 3.430696531434077 1.5168697567394707 0.24999999999999997
    endloop
  endfacet
  facet normal -0.0 0.0 1.0
    outer loop
      vertex 3.0854890285205374 1.0490490834481594 0.24999999999999997
      vertex 3.750077375472305 1.0041436921144802 0.24999999999999997
      vertex 3.430696531434077 1.5168697567394707 0.24999999999999997
    endloop
  endfacet
  facet normal 0.0 0.0 1.0
    outer loop
      vertex 4.061595638146545 1.486453934621628 0.24999999999999997
      vertex 3.750077375472305 1.0041436921144802 0.24999999999999997
      vertex 4.45801989693264 0.961893027856736 0.24999999999999997
    endloop
  endfacet
  facet normal 0.0 -0.0 1.0
    outer loop
      vertex 4.45801989693264 0.961893027856736 0.24999999999999997
      vertex 4.588108371053092 1.5350084633068404 0.24999999999999997
      vertex 4.061595638146545 1.486453934621628 0.24999999999999997
    endloop
  endfacet
  facet normal 0.0 0.0 1.0
    outer loop
      vertex 3.8922272316038287 3.045453903922415 0.24999999999999997
      vertex 4.0173071987188935 2.515949864733945 0.24999999999999997
      vertex 4.46514739698285 2.812499999999996 0.24999999999999997
    endloop
  endfacet
  facet normal 0.0 0.0 1.0
    outer loop
      vertex 3.4766665155996654 4.352991988088143 0.24999999999999997
      vertex 3.040561434257145 3.813358351556682 0.24999999999999997
      vertex 3.6616754938052916 3.679276307762789 0.24999999999999997
    endloop
  endfacet
  facet normal 0.0 -0.0 1.0
    outer loop
      vertex 3.6616754938052916 3.679276307762789 0.24999999999999997
      vertex 4.013237783024663 4.020031674097373 0.24999999999999997
      vertex 3.4766665155996654 4.352991988088143 0.24999999999999997
    endloop
  endfacet
  facet normal 0.0 0.0 1.0
    outer loop
      vertex 1.1441291781546383 1.1775175964505962 0.24999999999999997
      vertex 1.0338352619025115 1.8164089103774332 0.24999999999999997
      vertex 0.5540399868125608 1.5755371927718507 0.24999999999999997
    endloop
  endfacet
  facet normal -0.0 0.0 1.0
    outer loop
      vertex 2.471285092486222 1.0728870050142876 0.24999999999999997
      vertex 3.0854890285205374 1.0490490834481594 0.24999999999999997
      vertex 2.8029980132158445 1.5828770185644194 0.24999999999999997
    endloop
  endfacet
  facet normal 0.0 0.0 1.0
    outer loop
      vertex 1.804587806780287 1.1226128846465928 0.24999999999999997
      vertex 2.187500000000004 0.5110277030448739 0.24999999999999997
      vertex 2.471285092486222 1.0728870050142876 0.24999999999999997
    endloop
  endfacet
  facet normal 0.0 -0.0 1.0
    outer loop
      vertex 3.4138974124639354 0.5174557378868739 0.24999999999999997
      vertex 3.750077375472305 1.0041436921144802 0.24999999999999997
      vertex 3.0854890285205374 1.0490490834481594 0.24999999999999997
    endloop
  endfacet
  facet normal 0.0 -1.0 0.0
    outer loop
      vertex 5.0 0.0 0.0
      vertex 5.0 0.0 0.24999999999999997
      vertex 4.6875 0.0 0.12499999999999999
    endloop
  endfacet
  facet normal 0.0 -1.0 0.0
    outer loop
      vertex 4.375 0.0 0.0
      vertex 5.0 0.0 0.0
      vertex 4.6875 0.0 0.12499999999999999
    endloop
  endfacet
  facet normal -0.0 -1.0 0.0
    outer loop
      vertex 5.0 0.0 0.24999999999999997
      vertex 4.375 0.0 0.24999999999999997
      vertex 4.6875 0.0 0.12499999999999999
    endloop
  endfacet
  facet normal 0.0 -1.0 0.0
    outer loop
      vertex 0.0 0.0 0.24999999999999997
      vertex 0.0 0.0 0.0
      vertex 0.6250000000000018 0.0 0.24999999999999997
    endloop
  endfacet
  facet normal 0.0 -1.0 -0.0
    outer loop
      vertex 0.6250000000000018 0.0 0.24999999999999997
      vertex 0.0 0.0 0.0
      vertex 0.6250000000000018 0.0 0.0
    endloop
  endfacet
  facet normal 0.0 -1.0 0.0
    outer loop
      vertex 0.6250000000000018 0.0 0.24999999999999997
      vertex 1.2500000000000036 0.0 0.0
      vertex 1.2500000000000036 0.0 0.24999999999999997
    endloop
  endfacet
  facet normal 0.0 -1.0 0.0
    outer loop
      vertex 1.2500000000000036 0.0 0.0
      vertex 0.6250000000000018 0.0 0.24999999999999997
      vertex 0.6250000000000018 0.0 0.0
    endloop
  endfacet
  facet normal 0.0 -1.0 0.0
    outer loop
      vertex 1.2500000000000036 0.0 0.24999999999999997
      vertex 1.8750000000000033 0.0 0.0
      vertex 1.8750000000000033 0.0 0.24999999999999997
    endloop
  endfacet
  facet normal 0.0 -1.0 0.0
    outer loop
      vertex 1.2500000000000036 0.0 0.0
      vertex 1.8750000000000033 0.0 0.0
      vertex 1.2500000000000036 0.0 0.24999999999999997
    endloop
  endfacet
  facet normal -0.0 -1.0 0.0
    outer loop
      vertex 2.5000000000000018 0.0 0.24999999999999997
      vertex 1.8750000000000033 0.0 0.24999999999999997
      vertex 2.187500000000004 0.0 0.12499999999999997
    endloop
  endfacet
  facet normal 0.0 -1.0 0.0
    outer loop
      vertex 1.8750000000000033 0.0 0.24999999999999997
      vertex 1.8750000000000033 0.0 0.0
      vertex 2.187500000000004 0.0 0.12499999999999997
    endloop
  endfacet
  facet normal -0.0 -1.0 0.0
    outer loop
      vertex 3.125000000000002 0.0 0.24999999999999997
      vertex 2.5000000000000018 0.0 0.24999999999999997
      vertex 2.812500000000002 0.0 0.12499999999999999
    endloop
  endfacet
  facet normal 0.0 -1.0 0.0
    outer loop
      vertex 2.5000000000000018 0.0 0.0
      vertex 2.5000000000000018 0.0 0.24999999999999997
      vertex 2.187500000000004 0.0 0.12499999999999997
    endloop
  endfacet
  facet normal 0.0 -1.0 0.0
    outer loop
      vertex 2.5000000000000018 0.0 0.24999999999999997
      vertex 2.5000000000000018 0.0 0.0
      vertex 2.812500000000002 0.0 0.12499999999999999
    endloop
  endfacet
  facet normal -0.0 -1.0 0.0
    outer loop
      vertex 3.750000000000002 0.0 0.24999999999999997
      vertex 3.125000000000002 0.0 0.24999999999999997
      vertex 3.437500000000002 0.0 0.12499999999999999
    endloop
  endfacet
  facet normal 0.0 -1.0 0.0
    outer loop
      vertex 3.125000000000002 0.0 0.0
      vertex 3.125000000000002 0.0 0.24999999999999997
      vertex 2.812500000000002 0.0 0.12499999999999999
    endloop
  endfacet
  facet normal 0.0 -1.0 0.0
    outer loop
      vertex 3.125000000000002 0.0 0.24999999999999997
      vertex 3.125000000000002 0.0 0.0
      vertex 3.437500000000002 0.0 0.12499999999999999
    endloop
  endfacet
  facet normal -0.0 -1.0 0.0
    outer loop
      vertex 4.375 0.0 0.24999999999999997
      vertex 3.750000000000002 0.0 0.24999999999999997
      vertex 4.062500000000002 0.0 0.12499999999999999
    endloop
  endfacet
  facet normal 0.0 -1.0 0.0
    outer loop
      vertex 3.750000000000002 0.0 0.0
      vertex 3.750000000000002 0.0 0.24999999999999997
      vertex 3.437500000000002 0.0 0.12499999999999999
    endloop
  endfacet
  facet normal 0.0 -1.0 0.0
    outer loop
      vertex 3.750000000000002 0.0 0.24999999999999997
      vertex 3.750000000000002 0.0 0.0
      vertex 4.062500000000002 0.0 0.12499999999999999
    endloop
  endfacet
  facet normal 0.0 -1.0 0.0
    outer loop
      vertex 4.375 0.0 0.24999999999999997
      vertex 4.375 0.0 0.0
      vertex 4.6875 0.0 0.12499999999999999
    endloop
  endfacet
  facet normal 0.0 -1.0 0.0
    outer loop
      vertex 4.375 0.0 0.0
      vertex 4.375 0.0 0.24999999999999997
      vertex 4.062500000000002 0.0 0.12499999999999999
    endloop
  endfacet
  facet normal 0.0 -1.0 0.0
    outer loop
      vertex 1.8750000000000033 0.0 0.0
      vertex 2.5000000000000018 0.0 0.0
      vertex 2.187500000000004 0.0 0.12499999999999997
    endloop
  endfacet
  facet normal 0.0 -1.0 0.0
    outer loop
      vertex 2.5000000000000018 0.0 0.0
      vertex 3.125000000000002 0.0 0.0
      vertex 2.812500000000002 0.0 0.12499999999999999
    endloop
  endfacet
  facet normal 0.0 -1.0 0.0
    outer loop
      vertex 3.125000000000002 0.0 0.0
      vertex 3.750000000000002 0.0 0.0
      vertex 3.437500000000002 0.0 0.12499999999999999
    endloop
  endfacet
  facet normal 0.0 -1.0 0.0
    outer loop
      vertex 3.750000000000002 0.0 0.0
      vertex 4.375 0.0 0.0
      vertex 4.062500000000002 0.0 0.12499999999999999
    endloop
  endfacet
  facet normal -0.0 1.0 0.0
    outer loop
      vertex 4.357142857142856 5.0 0.24999999999999997
      vertex 5.0 5.0 0.24999999999999997
      vertex 5.0 5.0 0.0
    endloop
  endfacet
  facet normal 0.0 1.0 0.0
    outer loop
      vertex 5.0 5.0 0.0
      vertex 4.357142857142856 5.0 0.0
      vertex 4.357142857142856 5.0 0.24999999999999997
    endloop
  endfacet
  facet normal 0.0 1.0 0.0
    outer loop
      vertex 0.49999999999999994 5.0 0.0
      vertex 0.49999999999999994 5.0 0.24999999999999997
      vertex 1.1428571428571441 5.0 0.0
    endloop
  endfacet
  facet normal -0.0 1.0 0.0
    outer loop
      vertex 0.49999999999999994 5.0 0.24999999999999997
      vertex 1.1428571428571441 5.0 0.24999999999999997
      vertex 1.1428571428571441 5.0 0.0
    endloop
  endfacet
  facet normal 0.0 1.0 0.0
    outer loop
      vertex 1.1428571428571441 5.0 0.0
      vertex 1.1428571428571441 5.0 0.24999999999999997
      vertex 1.785714285714287 5.0 0.24999999999999997
    endloop
  endfacet
  facet normal -0.0 1.0 0.0
    outer loop
      vertex 1.785714285714287 5.0 0.24999999999999997
      vertex 2.428571428571429 5.0 0.24999999999999997
      vertex 1.785714285714287 5.0 0.0
    endloop
  endfacet
  facet normal 0.0 1.0 0.0
    outer loop
      vertex 1.1428571428571441 5.0 0.0
      vertex 1.785714285714287 5.0 0.24999999999999997
      vertex 1.785714285714287 5.0 0.0
    endloop
  endfacet
  facet normal -0.0 1.0 0.0
    outer loop
      vertex 2.428571428571429 5.0 0.24999999999999997
      vertex 3.071428571428571 5.0 0.24999999999999997
      vertex 3.071428571428571 5.0 0.0
    endloop
  endfacet
  facet normal 0.0 1.0 0.0
    outer loop
      vertex 2.428571428571429 5.0 0.24999999999999997
      vertex 2.428571428571429 5.0 0.0
      vertex 1.785714285714287 5.0 0.0
    endloop
  endfacet
  facet normal 0.0 1.0 0.0
    outer loop
      vertex 3.071428571428571 5.0 0.0
      vertex 2.428571428571429 5.0 0.0
      vertex 2.428571428571429 5.0 0.24999999999999997
    endloop
  endfacet
  facet normal 0.0 1.0 0.0
    outer loop
      vertex 3.071428571428571 5.0 0.0
      vertex 3.071428571428571 5.0 0.24999999999999997
      vertex 3.7142857142857126 5.0 0.24999999999999997
    endloop
  endfacet
  facet normal 0.0 1.0 0.0
    outer loop
      vertex 4.357142857142856 5.0 0.24999999999999997
      vertex 3.7142857142857126 5.0 0.0
      vertex 3.7142857142857126 5.0 0.24999999999999997
    endloop
  endfacet
  facet normal 0.0 1.0 0.0
    outer loop
      vertex 3.7142857142857126 5.0 0.24999999999999997
      vertex 3.7142857142857126 5.0 0.0
      vertex 3.071428571428571 5.0 0.0
    endloop
  endfacet
  facet normal 0.0 1.0 0.0
    outer loop
      vertex 4.357142857142856 5.0 0.24999999999999997
      vertex 4.357142857142856 5.0 0.0
      vertex 3.7142857142857126 5.0 0.0
    endloop
  endfacet
  facet normal -0.9807852804032303 0.19509032201612864 0.0
    outer loop
      vertex 0.49999999999999994 5.0 0.24999999999999997
      vertex 0.49999999999999994 5.0 0.0
      vertex 0.46193976625564326 4.808658283817455 0.12920435997210059
    endloop
  endfacet
  facet normal -0.8811749615827755 0.36499461991117726 -0.3005155811526073
    outer loop
      vertex 0.3535533905932734 4.646446609406726 0.24999999999999997
      vertex 0.49999999999999994 5.0 0.24999999999999997
      vertex 0.46193976625564326 4.808658283817455 0.12920435997210059
    endloop
  endfacet
  facet normal -0.19525237875616705 0.9807530313947841 0.0
    outer loop
      vertex 0.0 4.5 0.0
      vertex 0.0 4.5 0.24999999999999997
      vertex 0.19149436235215359 4.538123491409942 0.12499999999999999
    endloop
  endfacet
  facet normal -0.3660895948810934 0.8838184650056079 -0.29127878301539206
    outer loop
      vertex 0.0 4.5 0.24999999999999997
      vertex 0.3535533905932734 4.646446609406726 0.24999999999999997
      vertex 0.19149436235215359 4.538123491409942 0.12499999999999999
    endloop
  endfacet
  facet normal -0.886228613835183 0.36708791121364176 0.2825691233319299
    outer loop
      vertex 0.49999999999999994 5.0 0.0
      vertex 0.3535533905932734 4.646446609406726 0.0
      vertex 0.46193976625564326 4.808658283817455 0.12920435997210059
    endloop
  endfacet
  facet normal -0.3660895948810934 0.8838184650056079 0.2912787830153921
    outer loop
      vertex 0.3535533905932734 4.646446609406726 0.0
      vertex 0.0 4.5 0.0
      vertex 0.19149436235215359 4.538123491409942 0.12499999999999999
    endloop
  endfacet
  facet normal -0.8314696123025451 0.5555702330196025 0.0
    outer loop
      vertex 0.3535533905932734 4.646446609406726 0.0
      vertex 0.3535533905932734 4.646446609406726 0.24999999999999997
      vertex 0.46193976625564326 4.808658283817455 0.12920435997210059
    endloop
  endfacet
  facet normal -0.5557076127635875 0.8313778016741815 0.0
    outer loop
      vertex 0.3535533905932734 4.646446609406726 0.24999999999999997
      vertex 0.3535533905932734 4.646446609406726 0.0
      vertex 0.19149436235215359 4.538123491409942 0.12499999999999999
    endloop
  endfacet
  facet normal -1.0 0.0 0.0
    outer loop
      vertex 0.0 4.5 0.0
      vertex 0.0 3.8571428571428568 0.0
      vertex 0.0 4.5 0.24999999999999997
    endloop
  endfacet
  facet normal -1.0 -0.0 0.0
    outer loop
      vertex 0.0 4.5 0.24999999999999997
      vertex 0.0 3.8571428571428568 0.0
      vertex 0.0 3.8571428571428568 0.24999999999999997
    endloop
  endfacet
  facet normal -1.0 0.0 0.0
    outer loop
      vertex 0.0 0.0 0.24999999999999997
      vertex 0.0 0.6428571428571453 0.0
      vertex 0.0 0.0 0.0
    endloop
  endfacet
  facet normal -1.0 0.0 0.0
    outer loop
      vertex 0.0 0.6428571428571453 0.0
      vertex 0.0 0.0 0.24999999999999997
      vertex 0.0 0.6428571428571453 0.24999999999999997
    endloop
  endfacet
  facet normal -1.0 0.0 0.0
    outer loop
      vertex 0.0 3.8571428571428568 0.0
      vertex 0.0 3.214285714285714 0.24999999999999997
      vertex 0.0 3.8571428571428568 0.24999999999999997
    endloop
  endfacet
  facet normal -1.0 0.0 0.0
    outer loop
      vertex 0.0 2.5714285714285725 0.24999999999999997
      vertex 0.0 3.214285714285714 0.24999999999999997
      vertex 0.0 3.214285714285714 0.0
    endloop
  endfacet
  facet normal -1.0 0.0 0.0
    outer loop
      vertex 0.0 3.214285714285714 0.24999999999999997
      vertex 0.0 3.8571428571428568 0.0
      vertex 0.0 3.214285714285714 0.0
    endloop
  endfacet
  facet normal -1.0 -0.0 0.0
    outer loop
      vertex 0.0 2.5714285714285725 0.24999999999999997
      vertex 0.0 1.928571428571431 0.0
      vertex 0.0 1.928571428571431 0.24999999999999997
    endloop
  endfacet
  facet normal -1.0 0.0 0.0
    outer loop
      vertex 0.0 2.5714285714285725 0.24999999999999997
      vertex 0.0 3.214285714285714 0.0
      vertex 0.0 2.5714285714285725 0.0
    endloop
  endfacet
  facet normal -1.0 0.0 0.0
    outer loop
      vertex 0.0 1.928571428571431 0.0
      vertex 0.0 2.5714285714285725 0.24999999999999997
      vertex 0.0 2.5714285714285725 0.0
    endloop
  endfacet
  facet normal -1.0 0.0 0.0
    outer loop
      vertex 0.0 1.928571428571431 0.0
      vertex 0.0 1.2857142857142891 0.24999999999999997
      vertex 0.0 1.928571428571431 0.24999999999999997
    endloop
  endfacet
  facet normal -1.0 -0.0 0.0
    outer loop
      vertex 0.0 1.2857142857142891 0.24999999999999997
      vertex 0.0 0.6428571428571453 0.0
      vertex 0.0 0.6428571428571453 0.24999999999999997
    endloop
  endfacet
  facet normal -1.0 0.0 0.0
    outer loop
      vertex 0.0 1.2857142857142891 0.24999999999999997
      vertex 0.0 1.928571428571431 0.0
      vertex 0.0 1.2857142857142891 0.0
    endloop
  endfacet
  facet normal -1.0 0.0 -0.0
    outer loop
      vertex 0.0 1.2857142857142891 0.24999999999999997
      vertex 0.0 1.2857142857142891 0.0
      vertex 0.0 0.6428571428571453 0.0
    endloop
  endfacet
  facet normal 0.0 -0.0 -1.0
    outer loop
      vertex 5.0 5.0 0.0
      vertex 5.0 4.374999999999998 0.0
      vertex 4.526807940771957 4.5314004125491145 0.0
    endloop
  endfacet
  facet normal 0.0 0.0 -1.0
    outer loop
      vertex 4.357142857142856 5.0 0.0
      vertex 5.0 5.0 0.0
      vertex 4.526807940771957 4.5314004125491145 0.0
    endloop
  endfacet
  facet normal 0.0 -0.0 -1.0
    outer loop
      vertex 5.0 0.625 0.0
      vertex 5.0 0.0 0.0
      vertex 4.54565045965309 0.45434954034690955 0.0
    endloop
  endfacet
  facet normal 0.0 0.0 -1.0
    outer loop
      vertex 5.0 0.0 0.0
      vertex 4.375 0.0 0.0
      vertex 4.54565045965309 0.45434954034690955 0.0
    endloop
  endfacet
  facet normal 0.0 0.0 -1.0
    outer loop
      vertex 0.6250000000000018 0.0 0.0
      vertex 0.0 0.0 0.0
      vertex 0.4685995874508851 0.4731920592280431 0.0
    endloop
  endfacet
  facet normal 0.0 0.0 -1.0
    outer loop
      vertex 0.0 0.0 0.0
      vertex 0.0 0.6428571428571453 0.0
      vertex 0.4685995874508851 0.4731920592280431 0.0
    endloop
  endfacet
  facet normal 0.0 0.0 -1.0
    outer loop
      vertex 0.49999999999999994 5.0 0.0
      vertex 1.1428571428571441 5.0 0.0
      vertex 0.6485526990897893 4.671319034648365 0.0
    endloop
  endfacet
  facet normal 0.0 0.0 -1.0
    outer loop
      vertex 0.3535533905932734 4.646446609406726 0.0
      vertex 0.49999999999999994 5.0 0.0
      vertex 0.6485526990897893 4.671319034648365 0.0
    endloop
  endfacet
  facet normal 0.0 0.0 -1.0
    outer loop
      vertex 0.0 4.5 0.0
      vertex 0.3535533905932734 4.646446609406726 0.0
      vertex 0.3392176692837668 4.293994494498524 0.0
    endloop
  endfacet
  facet normal 0.0 0.0 -1.0
    outer loop
      vertex 0.0 3.8571428571428568 0.0
      vertex 0.0 4.5 0.0
      vertex 0.3392176692837668 4.293994494498524 0.0
    endloop
  endfacet
  facet normal 0.0 -0.0 -1.0
    outer loop
      vertex 5.0 4.374999999999998 0.0
      vertex 5.0 3.7499999999999964 0.0
      vertex 4.485870255060338 4.071391707622288 0.0
    endloop
  endfacet
  facet normal -0.0 0.0 -1.0
    outer loop
      vertex 5.0 4.374999999999998 0.0
      vertex 4.485870255060338 4.071391707622288 0.0
      vertex 4.526807940771957 4.5314004125491145 0.0
    endloop
  endfacet
  facet normal 0.0 -0.0 -1.0
    outer loop
      vertex 5.0 3.7499999999999964 0.0
      vertex 5.0 3.1249999999999964 0.0
      vertex 4.361782206376248 3.497843866997773 0.0
    endloop
  endfacet
  facet normal -0.0 0.0 -1.0
    outer loop
      vertex 5.0 3.7499999999999964 0.0
      vertex 4.361782206376248 3.497843866997773 0.0
      vertex 4.485870255060338 4.071391707622288 0.0
    endloop
  endfacet
  facet normal 0.0 -0.0 -1.0
    outer loop
      vertex 5.0 3.1249999999999964 0.0
      vertex 5.0 2.4999999999999982 0.0
      vertex 4.46514739698285 2.812499999999996 0.0
    endloop
  endfacet
  facet normal 0.0 0.0 -1.0
    outer loop
      vertex 4.361782206376248 3.497843866997773 0.0
      vertex 5.0 3.1249999999999964 0.0
      vertex 4.46514739698285 2.812499999999996 0.0
    endloop
  endfacet
  facet normal 0.0 -0.0 -1.0
    outer loop
      vertex 5.0 2.4999999999999982 0.0
      vertex 5.0 1.8749999999999978 0.0
      vertex 4.420926320186272 2.101695354055844 0.0
    endloop
  endfacet
  facet normal -0.0 0.0 -1.0
    outer loop
      vertex 5.0 2.4999999999999982 0.0
      vertex 4.420926320186272 2.101695354055844 0.0
      vertex 4.46514739698285 2.812499999999996 0.0
    endloop
  endfacet
  facet normal 0.0 -0.0 -1.0
    outer loop
      vertex 5.0 1.8749999999999978 0.0
      vertex 5.0 1.2499999999999978 0.0
      vertex 4.588107869396866 1.535008583800504 0.0
    endloop
  endfacet
  facet normal 0.0 0.0 -1.0
    outer loop
      vertex 4.420926320186272 2.101695354055844 0.0
      vertex 5.0 1.8749999999999978 0.0
      vertex 4.588107869396866 1.535008583800504 0.0
    endloop
  endfacet
  facet normal 0.0 -0.0 -1.0
    outer loop
      vertex 5.0 1.2499999999999978 0.0
      vertex 5.0 0.625 0.0
      vertex 4.458019726533107 0.9618930687852895 0.0
    endloop
  endfacet
  facet normal -0.0 0.0 -1.0
    outer loop
      vertex 5.0 1.2499999999999978 0.0
      vertex 4.458019726533107 0.9618930687852895 0.0
      vertex 4.588107869396866 1.535008583800504 0.0
    endloop
  endfacet
  facet normal 0.0 0.0 -1.0
    outer loop
      vertex 4.458019726533107 0.9618930687852895 0.0
      vertex 5.0 0.625 0.0
      vertex 4.54565045965309 0.45434954034690955 0.0
    endloop
  endfacet
  facet normal 0.0 0.0 -1.0
    outer loop
      vertex 1.2500000000000036 0.0 0.0
      vertex 0.6250000000000018 0.0 0.0
      vertex 0.9465238938984831 0.5249770653951163 0.0
    endloop
  endfacet
  facet normal 0.0 0.0 -1.0
    outer loop
      vertex 0.9465238938984831 0.5249770653951163 0.0
      vertex 0.6250000000000018 0.0 0.0
      vertex 0.4685995874508851 0.4731920592280431 0.0
    endloop
  endfacet
  facet normal 0.0 0.0 -1.0
    outer loop
      vertex 1.8750000000000033 0.0 0.0
      vertex 1.2500000000000036 0.0 0.0
      vertex 1.5625000000000033 0.5412658773652735 0.0
    endloop
  endfacet
  facet normal 0.0 0.0 -1.0
    outer loop
      vertex 1.5625000000000033 0.5412658773652735 0.0
      vertex 1.2500000000000036 0.0 0.0
      vertex 0.9465238938984831 0.5249770653951163 0.0
    endloop
  endfacet
  facet normal 0.0 0.0 -1.0
    outer loop
      vertex 2.5000000000000018 0.0 0.0
      vertex 1.8750000000000033 0.0 0.0
      vertex 2.187500000000004 0.5110277030448739 0.0
    endloop
  endfacet
  facet normal 0.0 0.0 -1.0
    outer loop
      vertex 1.8750000000000033 0.0 0.0
      vertex 1.5625000000000033 0.5412658773652735 0.0
      vertex 2.187500000000004 0.5110277030448739 0.0
    endloop
  endfacet
  facet normal 0.0 0.0 -1.0
    outer loop
      vertex 3.125000000000002 0.0 0.0
      vertex 2.5000000000000018 0.0 0.0
      vertex 2.7916867016578855 0.528064323129366 0.0
    endloop
  endfacet
  facet normal 0.0 0.0 -1.0
    outer loop
      vertex 2.7916867016578855 0.528064323129366 0.0
      vertex 2.5000000000000018 0.0 0.0
      vertex 2.187500000000004 0.5110277030448739 0.0
    endloop
  endfacet
  facet normal 0.0 0.0 -1.0
    outer loop
      vertex 3.750000000000002 0.0 0.0
      vertex 3.125000000000002 0.0 0.0
      vertex 3.413897412463933 0.5174557378868739 0.0
    endloop
  endfacet
  facet normal 0.0 0.0 -1.0
    outer loop
      vertex 3.125000000000002 0.0 0.0
      vertex 2.7916867016578855 0.528064323129366 0.0
      vertex 3.413897412463933 0.5174557378868739 0.0
    endloop
  endfacet
  facet normal 0.0 0.0 -1.0
    outer loop
      vertex 4.375 0.0 0.0
      vertex 3.750000000000002 0.0 0.0
      vertex 4.050765745336091 0.4931406121340098 0.0
    endloop
  endfacet
  facet normal -0.0 0.0 -1.0
    outer loop
      vertex 4.050765745336091 0.4931406121340098 0.0
      vertex 3.750000000000002 0.0 0.0
      vertex 3.413897412463933 0.5174557378868739 0.0
    endloop
  endfacet
  facet normal 0.0 0.0 -1.0
    outer loop
      vertex 4.375 0.0 0.0
      vertex 4.050765745336091 0.4931406121340098 0.0
      vertex 4.54565045965309 0.45434954034690955 0.0
    endloop
  endfacet
  facet normal 0.0 0.0 -1.0
    outer loop
      vertex 1.1428571428571441 5.0 0.0
      vertex 1.785714285714287 5.0 0.0
      vertex 1.4726488799946404 4.463074114355404 0.0
    endloop
  endfacet
  facet normal 0.0 -0.0 -1.0
    outer loop
      vertex 1.1428571428571441 5.0 0.0
      vertex 1.4726488799946404 4.463074114355404 0.0
      vertex 0.9071352927147619 4.416154069336574 0.0
    endloop
  endfacet
  facet normal 0.0 0.0 -1.0
    outer loop
      vertex 1.1428571428571441 5.0 0.0
      vertex 0.9071352927147619 4.416154069336574 0.0
      vertex 0.6485526990897893 4.671319034648365 0.0
    endloop
  endfacet
  facet normal 0.0 0.0 -1.0
    outer loop
      vertex 1.785714285714287 5.0 0.0
      vertex 2.428571428571429 5.0 0.0
      vertex 2.0986784432987853 4.43978931925398 0.0
    endloop
  endfacet
  facet normal 0.0 0.0 -1.0
    outer loop
      vertex 1.4726488799946404 4.463074114355404 0.0
      vertex 1.785714285714287 5.0 0.0
      vertex 2.0986784432987853 4.43978931925398 0.0
    endloop
  endfacet
  facet normal 0.0 0.0 -1.0
    outer loop
      vertex 2.428571428571429 5.0 0.0
      vertex 3.071428571428571 5.0 0.0
      vertex 2.7499999999999996 4.443269383281434 0.0
    endloop
  endfacet
  facet normal 0.0 -0.0 -1.0
    outer loop
      vertex 2.428571428571429 5.0 0.0
      vertex 2.7499999999999996 4.443269383281434 0.0
      vertex 2.0986784432987853 4.43978931925398 0.0
    endloop
  endfacet
  facet normal 0.0 0.0 -1.0
    outer loop
      vertex 3.071428571428571 5.0 0.0
      vertex 3.7142857142857126 5.0 0.0
      vertex 3.476666515599667 4.352991988088142 0.0
    endloop
  endfacet
  facet normal 0.0 0.0 -1.0
    outer loop
      vertex 2.7499999999999996 4.443269383281434 0.0
      vertex 3.071428571428571 5.0 0.0
      vertex 3.476666515599667 4.352991988088142 0.0
    endloop
  endfacet
  facet normal 0.0 0.0 -1.0
    outer loop
      vertex 3.7142857142857126 5.0 0.0
      vertex 4.357142857142856 5.0 0.0
      vertex 4.080194444281772 4.498654500015875 0.0
    endloop
  endfacet
  facet normal 0.0 -0.0 -1.0
    outer loop
      vertex 3.7142857142857126 5.0 0.0
      vertex 4.080194444281772 4.498654500015875 0.0
      vertex 3.476666515599667 4.352991988088142 0.0
    endloop
  endfacet
  facet normal 0.0 0.0 -1.0
    outer loop
      vertex 4.080194444281772 4.498654500015875 0.0
      vertex 4.357142857142856 5.0 0.0
      vertex 4.526807940771957 4.5314004125491145 0.0
    endloop
  endfacet
  facet normal 0.0 0.0 -1.0
    outer loop
      vertex 0.3392176692837668 4.293994494498524 0.0
      vertex 0.3535533905932734 4.646446609406726 0.0
      vertex 0.6485526990897893 4.671319034648365 0.0
    endloop
  endfacet
  facet normal 0.0 0.0 -1.0
    outer loop
      vertex 0.0 3.214285714285714 0.0
      vertex 0.0 3.8571428571428568 0.0
      vertex 0.6413604112100939 3.4707891551424557 0.0
    endloop
  endfacet
  facet normal 0.0 0.0 -1.0
    outer loop
      vertex 0.6413604112100939 3.4707891551424557 0.0
      vertex 0.0 3.8571428571428568 0.0
      vertex 0.6071491483585632 3.9976516535227846 0.0
    endloop
  endfacet
  facet normal 0.0 0.0 -1.0
    outer loop
      vertex 0.0 3.8571428571428568 0.0
      vertex 0.3392176692837668 4.293994494498524 0.0
      vertex 0.6071491483585632 3.9976516535227846 0.0
    endloop
  endfacet
  facet normal 0.0 0.0 -1.0
    outer loop
      vertex 0.0 2.5714285714285725 0.0
      vertex 0.0 3.214285714285714 0.0
      vertex 0.4229612808634376 2.882879691646612 0.0
    endloop
  endfacet
  facet normal 0.0 0.0 -1.0
    outer loop
      vertex 0.0 3.214285714285714 0.0
      vertex 0.6413604112100939 3.4707891551424557 0.0
      vertex 0.4229612808634376 2.882879691646612 0.0
    endloop
  endfacet
  facet normal 0.0 0.0 -1.0
    outer loop
      vertex 0.0 1.928571428571431 0.0
      vertex 0.0 2.5714285714285725 0.0
      vertex 0.5880166282892112 2.2859701235787577 0.0
    endloop
  endfacet
  facet normal 0.0 0.0 -1.0
    outer loop
      vertex 0.5880166282892112 2.2859701235787577 0.0
      vertex 0.0 2.5714285714285725 0.0
      vertex 0.4229612808634376 2.882879691646612 0.0
    endloop
  endfacet
  facet normal 0.0 0.0 -1.0
    outer loop
      vertex 0.0 1.2857142857142891 0.0
      vertex 0.0 1.928571428571431 0.0
      vertex 0.5540399868125606 1.5755371927718482 0.0
    endloop
  endfacet
  facet normal 0.0 0.0 -1.0
    outer loop
      vertex 0.0 1.928571428571431 0.0
      vertex 0.5880166282892112 2.2859701235787577 0.0
      vertex 0.5540399868125606 1.5755371927718482 0.0
    endloop
  endfacet
  facet normal 0.0 0.0 -1.0
    outer loop
      vertex 0.0 0.6428571428571453 0.0
      vertex 0.0 1.2857142857142891 0.0
      vertex 0.5272559235991143 0.952773654915929 0.0
    endloop
  endfacet
  facet normal 0.0 0.0 -1.0
    outer loop
      vertex 0.5272559235991143 0.952773654915929 0.0
      vertex 0.0 1.2857142857142891 0.0
      vertex 0.5540399868125606 1.5755371927718482 0.0
    endloop
  endfacet
  facet normal 0.0 0.0 -1.0
    outer loop
      vertex 0.0 0.6428571428571453 0.0
      vertex 0.5272559235991143 0.952773654915929 0.0
      vertex 0.4685995874508851 0.4731920592280431 0.0
    endloop
  endfacet
  facet normal 0.0 0.0 -1.0
    outer loop
      vertex 2.7499999999999996 4.443269383281434 0.0
      vertex 2.397935229911606 3.838579060123322 0.0
      vertex 2.0986784432987853 4.43978931925398 0.0
    endloop
  endfacet
  facet normal 0.0 0.0 -1.0
    outer loop
      vertex 2.397935229911606 3.838579060123322 0.0
      vertex 2.7499999999999996 4.443269383281434 0.0
      vertex 3.040542567580817 3.813352248950575 0.0
    endloop
  endfacet
  facet normal 0.0 0.0 -1.0
    outer loop
      vertex 2.7499999999999996 4.443269383281434 0.0
      vertex 3.476666515599667 4.352991988088142 0.0
      vertex 3.040542567580817 3.813352248950575 0.0
    endloop
  endfacet
  facet normal 0.0 -0.0 -1.0
    outer loop
      vertex 2.471231153921992 1.0729006651388127 0.0
      vertex 2.7916867016578855 0.528064323129366 0.0
      vertex 2.187500000000004 0.5110277030448739 0.0
    endloop
  endfacet
  facet normal 0.0 0.0 -1.0
    outer loop
      vertex 2.7916867016578855 0.528064323129366 0.0
      vertex 2.471231153921992 1.0729006651388127 0.0
      vertex 3.0854741310900766 1.0490527957430156 0.0
    endloop
  endfacet
  facet normal 0.0 0.0 -1.0
    outer loop
      vertex 3.413897412463933 0.5174557378868739 0.0
      vertex 2.7916867016578855 0.528064323129366 0.0
      vertex 3.0854741310900766 1.0490527957430156 0.0
    endloop
  endfacet
  facet normal 0.0 0.0 -1.0
    outer loop
      vertex 0.5880166282892112 2.2859701235787577 0.0
      vertex 0.9799994462620089 2.851969991376502 0.0
      vertex 1.2825723583273794 2.280034575781919 0.0
    endloop
  endfacet
  facet normal -0.0 0.0 -1.0
    outer loop
      vertex 0.9799994462620089 2.851969991376502 0.0
      vertex 0.5880166282892112 2.2859701235787577 0.0
      vertex 0.4229612808634376 2.882879691646612 0.0
    endloop
  endfacet
  facet normal 0.0 0.0 -1.0
    outer loop
      vertex 0.5540399868125606 1.5755371927718482 0.0
      vertex 0.5880166282892112 2.2859701235787577 0.0
      vertex 1.033835261902511 1.8164089103774332 0.0
    endloop
  endfacet
  facet normal 0.0 0.0 -1.0
    outer loop
      vertex 0.5880166282892112 2.2859701235787577 0.0
      vertex 1.2825723583273794 2.280034575781919 0.0
      vertex 1.033835261902511 1.8164089103774332 0.0
    endloop
  endfacet
  facet normal 0.0 0.0 -1.0
    outer loop
      vertex 3.7833860566855964 2.031315906903093 0.0
      vertex 4.420926320186272 2.101695354055844 0.0
      vertex 4.061593300264955 1.4864544961613855 0.0
    endloop
  endfacet
  facet normal -0.0 0.0 -1.0
    outer loop
      vertex 4.420926320186272 2.101695354055844 0.0
      vertex 3.7833860566855964 2.031315906903093 0.0
      vertex 4.017286809624362 2.5159547165642184 0.0
    endloop
  endfacet
  facet normal 0.0 0.0 -1.0
    outer loop
      vertex 4.061593300264955 1.4864544961613855 0.0
      vertex 4.420926320186272 2.101695354055844 0.0
      vertex 4.588107869396866 1.535008583800504 0.0
    endloop
  endfacet
  facet normal 0.0 0.0 -1.0
    outer loop
      vertex 4.46514739698285 2.812499999999996 0.0
      vertex 4.420926320186272 2.101695354055844 0.0
      vertex 4.017286809624362 2.5159547165642184 0.0
    endloop
  endfacet
  facet normal 0.0 0.0 -1.0
    outer loop
      vertex 0.9071352927147619 4.416154069336574 0.0
      vertex 1.4726488799946404 4.463074114355404 0.0
      vertex 1.1480323685841927 3.9501776914935145 0.0
    endloop
  endfacet
  facet normal 0.0 0.0 -1.0
    outer loop
      vertex 1.1480323685841927 3.9501776914935145 0.0
      vertex 1.4726488799946404 4.463074114355404 0.0
      vertex 1.757200835600757 3.893813357763723 0.0
    endloop
  endfacet
  facet normal 0.0 0.0 -1.0
    outer loop
      vertex 1.757200835600757 3.893813357763723 0.0
      vertex 1.4726488799946404 4.463074114355404 0.0
      vertex 2.0986784432987853 4.43978931925398 0.0
    endloop
  endfacet
  facet normal -0.0 0.0 -1.0
    outer loop
      vertex 4.361782206376248 3.497843866997773 0.0
      vertex 3.8922076084332695 3.045458556375258 0.0
      vertex 3.6616754938052916 3.6792763077627875 0.0
    endloop
  endfacet
  facet normal 0.0 0.0 -1.0
    outer loop
      vertex 3.8922076084332695 3.045458556375258 0.0
      vertex 4.361782206376248 3.497843866997773 0.0
      vertex 4.46514739698285 2.812499999999996 0.0
    endloop
  endfacet
  facet normal 0.0 0.0 -1.0
    outer loop
      vertex 4.361782206376248 3.497843866997773 0.0
      vertex 3.6616754938052916 3.6792763077627875 0.0
      vertex 4.013237783024663 4.020031674097373 0.0
    endloop
  endfacet
  facet normal 0.0 0.0 -1.0
    outer loop
      vertex 4.485870255060338 4.071391707622288 0.0
      vertex 4.361782206376248 3.497843866997773 0.0
      vertex 4.013237783024663 4.020031674097373 0.0
    endloop
  endfacet
  facet normal -0.0 0.0 -1.0
    outer loop
      vertex 1.8045878067802872 1.1226128846465928 0.0
      vertex 1.5625000000000033 0.5412658773652735 0.0
      vertex 1.144102748666086 1.1775244639039604 0.0
    endloop
  endfacet
  facet normal 0.0 0.0 -1.0
    outer loop
      vertex 1.5625000000000033 0.5412658773652735 0.0
      vertex 1.8045878067802872 1.1226128846465928 0.0
      vertex 2.187500000000004 0.5110277030448739 0.0
    endloop
  endfacet
  facet normal 0.0 -0.0 -1.0
    outer loop
      vertex 1.144102748666086 1.1775244639039604 0.0
      vertex 1.5625000000000033 0.5412658773652735 0.0
      vertex 0.9465238938984831 0.5249770653951163 0.0
    endloop
  endfacet
  facet normal 0.0 0.0 -1.0
    outer loop
      vertex 0.6413604112100939 3.4707891551424557 0.0
      vertex 1.1480323685841927 3.9501776914935145 0.0
      vertex 1.3700353070553697 3.3821189756231593 0.0
    endloop
  endfacet
  facet normal -0.0 0.0 -1.0
    outer loop
      vertex 1.1480323685841927 3.9501776914935145 0.0
      vertex 0.6413604112100939 3.4707891551424557 0.0
      vertex 0.6071491483585632 3.9976516535227846 0.0
    endloop
  endfacet
  facet normal 0.0 0.0 -1.0
    outer loop
      vertex 0.6413604112100939 3.4707891551424557 0.0
      vertex 1.3700353070553697 3.3821189756231593 0.0
      vertex 0.9799994462620089 2.851969991376502 0.0
    endloop
  endfacet
  facet normal 0.0 -0.0 -1.0
    outer loop
      vertex 0.6413604112100939 3.4707891551424557 0.0
      vertex 0.9799994462620089 2.851969991376502 0.0
      vertex 0.4229612808634376 2.882879691646612 0.0
    endloop
  endfacet
  facet normal 0.0 0.0 -1.0
    outer loop
      vertex 4.050765745336091 0.4931406121340098 0.0
      vertex 3.413897412463933 0.5174557378868739 0.0
      vertex 3.7500732113058626 1.0041447156878973 0.0
    endloop
  endfacet
  facet normal -0.0 0.0 -1.0
    outer loop
      vertex 4.458019726533107 0.9618930687852895 0.0
      vertex 4.050765745336091 0.4931406121340098 0.0
      vertex 3.7500732113058626 1.0041447156878973 0.0
    endloop
  endfacet
  facet normal 0.0 0.0 -1.0
    outer loop
      vertex 4.050765745336091 0.4931406121340098 0.0
      vertex 4.458019726533107 0.9618930687852895 0.0
      vertex 4.54565045965309 0.45434954034690955 0.0
    endloop
  endfacet
  facet normal 0.0 0.0 -1.0
    outer loop
      vertex 0.5272559235991143 0.952773654915929 0.0
      vertex 0.5540399868125606 1.5755371927718482 0.0
      vertex 1.144102748666086 1.1775244639039604 0.0
    endloop
  endfacet
  facet normal 0.0 0.0 -1.0
    outer loop
      vertex 0.5272559235991143 0.952773654915929 0.0
      vertex 1.144102748666086 1.1775244639039604 0.0
      vertex 0.9465238938984831 0.5249770653951163 0.0
    endloop
  endfacet
  facet normal 0.0 -0.0 -1.0
    outer loop
      vertex 0.5272559235991143 0.952773654915929 0.0
      vertex 0.9465238938984831 0.5249770653951163 0.0
      vertex 0.4685995874508851 0.4731920592280431 0.0
    endloop
  endfacet
  facet normal 0.0 0.0 -1.0
    outer loop
      vertex 3.476666515599667 4.352991988088142 0.0
      vertex 4.080194444281772 4.498654500015875 0.0
      vertex 4.013237783024663 4.020031674097373 0.0
    endloop
  endfacet
  facet normal 0.0 0.0 -1.0
    outer loop
      vertex 4.485870255060338 4.071391707622288 0.0
      vertex 4.080194444281772 4.498654500015875 0.0
      vertex 4.526807940771957 4.5314004125491145 0.0
    endloop
  endfacet
  facet normal 0.0 -0.0 -1.0
    outer loop
      vertex 4.080194444281772 4.498654500015875 0.0
      vertex 4.485870255060338 4.071391707622288 0.0
      vertex 4.013237783024663 4.020031674097373 0.0
    endloop
  endfacet
  facet normal 0.0 -0.0 -1.0
    outer loop
      vertex 0.9071352927147619 4.416154069336574 0.0
      vertex 1.1480323685841927 3.9501776914935145 0.0
      vertex 0.6071491483585632 3.9976516535227846 0.0
    endloop
  endfacet
  facet normal 0.0 0.0 -1.0
    outer loop
      vertex 0.3392176692837668 4.293994494498524 0.0
      vertex 0.9071352927147619 4.416154069336574 0.0
      vertex 0.6071491483585632 3.9976516535227846 0.0
    endloop
  endfacet
  facet normal -0.0 0.0 -1.0
    outer loop
      vertex 0.9071352927147619 4.416154069336574 0.0
      vertex 0.3392176692837668 4.293994494498524 0.0
      vertex 0.6485526990897893 4.671319034648365 0.0
    endloop
  endfacet
  facet normal 0.0 0.0 -1.0
    outer loop
      vertex 1.1480323685841927 3.9501776914935145 0.0
      vertex 1.757200835600757 3.893813357763723 0.0
      vertex 1.3700353070553697 3.3821189756231593 0.0
    endloop
  endfacet
  facet normal 0.0 0.0 -1.0
    outer loop
      vertex 1.3700353070553697 3.3821189756231593 0.0
      vertex 1.757200835600757 3.893813357763723 0.0
      vertex 2.021122335183921 3.310941623155932 0.0
    endloop
  endfacet
  facet normal 0.0 0.0 -1.0
    outer loop
      vertex 2.021122335183921 3.310941623155932 0.0
      vertex 1.757200835600757 3.893813357763723 0.0
      vertex 2.397935229911606 3.838579060123322 0.0
    endloop
  endfacet
  facet normal 0.0 0.0 -1.0
    outer loop
      vertex 2.397935229911606 3.838579060123322 0.0
      vertex 1.757200835600757 3.893813357763723 0.0
      vertex 2.0986784432987853 4.43978931925398 0.0
    endloop
  endfacet
  facet normal 0.0 0.0 -1.0
    outer loop
      vertex 1.3700353070553697 3.3821189756231593 0.0
      vertex 2.021122335183921 3.310941623155932 0.0
      vertex 1.6237140024887298 2.8031390842255632 0.0
    endloop
  endfacet
  facet normal 0.0 -0.0 -1.0
    outer loop
      vertex 1.3700353070553697 3.3821189756231593 0.0
      vertex 1.6237140024887298 2.8031390842255632 0.0
      vertex 0.9799994462620089 2.851969991376502 0.0
    endloop
  endfacet
  facet normal 0.0 0.0 -1.0
    outer loop
      vertex 1.6237140024887298 2.8031390842255632 0.0
      vertex 2.021122335183921 3.310941623155932 0.0
      vertex 2.2798544906363327 2.7287945020991655 0.0
    endloop
  endfacet
  facet normal 0.0 0.0 -1.0
    outer loop
      vertex 2.2798544906363327 2.7287945020991655 0.0
      vertex 2.021122335183921 3.310941623155932 0.0
      vertex 2.656938186214945 3.2569619039546263 0.0
    endloop
  endfacet
  facet normal 0.0 0.0 -1.0
    outer loop
      vertex 2.021122335183921 3.310941623155932 0.0
      vertex 2.397935229911606 3.838579060123322 0.0
      vertex 2.656938186214945 3.2569619039546263 0.0
    endloop
  endfacet
  facet normal 0.0 0.0 -1.0
    outer loop
      vertex 1.6237140024887298 2.8031390842255632 0.0
      vertex 2.2798544906363327 2.7287945020991655 0.0
      vertex 1.9075461071846034 2.2145102001106163 0.0
    endloop
  endfacet
  facet normal 0.0 -0.0 -1.0
    outer loop
      vertex 1.6237140024887298 2.8031390842255632 0.0
      vertex 1.9075461071846034 2.2145102001106163 0.0
      vertex 1.2825723583273794 2.280034575781919 0.0
    endloop
  endfacet
  facet normal 0.0 0.0 -1.0
    outer loop
      vertex 0.9799994462620089 2.851969991376502 0.0
      vertex 1.6237140024887298 2.8031390842255632 0.0
      vertex 1.2825723583273794 2.280034575781919 0.0
    endloop
  endfacet
  facet normal 0.0 0.0 -1.0
    outer loop
      vertex 1.9075461071846034 2.2145102001106163 0.0
      vertex 2.2798544906363327 2.7287945020991655 0.0
      vertex 2.5421671171971596 2.1476670310743207 0.0
    endloop
  endfacet
  facet normal 0.0 0.0 -1.0
    outer loop
      vertex 2.5421671171971596 2.1476670310743207 0.0
      vertex 2.2798544906363327 2.7287945020991655 0.0
      vertex 2.9150109045791948 2.659975802949683 0.0
    endloop
  endfacet
  facet normal 0.0 0.0 -1.0
    outer loop
      vertex 2.9150109045791948 2.659975802949683 0.0
      vertex 2.2798544906363327 2.7287945020991655 0.0
      vertex 2.656938186214945 3.2569619039546263 0.0
    endloop
  endfacet
  facet normal 0.0 0.0 -1.0
    outer loop
      vertex 1.9075461071846034 2.2145102001106163 0.0
      vertex 2.5421671171971596 2.1476670310743207 0.0
      vertex 2.171640851684065 1.634992654696014 0.0
    endloop
  endfacet
  facet normal 0.0 -0.0 -1.0
    outer loop
      vertex 1.9075461071846034 2.2145102001106163 0.0
      vertex 2.171640851684065 1.634992654696014 0.0
      vertex 1.5623227038372107 1.7082091450226415 0.0
    endloop
  endfacet
  facet normal -0.0 0.0 -1.0
    outer loop
      vertex 1.9075461071846034 2.2145102001106163 0.0
      vertex 1.5623227038372107 1.7082091450226415 0.0
      vertex 1.2825723583273794 2.280034575781919 0.0
    endloop
  endfacet
  facet normal 0.0 0.0 -1.0
    outer loop
      vertex 2.5421671171971596 2.1476670310743207 0.0
      vertex 2.9150109045791948 2.659975802949683 0.0
      vertex 3.17268889273409 2.0818075025471066 0.0
    endloop
  endfacet
  facet normal 0.0 0.0 -1.0
    outer loop
      vertex 2.5421671171971596 2.1476670310743207 0.0
      vertex 3.17268889273409 2.0818075025471066 0.0
      vertex 2.802884337284939 1.5829051883500513 0.0
    endloop
  endfacet
  facet normal 0.0 0.0 -1.0
    outer loop
      vertex 2.171640851684065 1.634992654696014 0.0
      vertex 2.5421671171971596 2.1476670310743207 0.0
      vertex 2.802884337284939 1.5829051883500513 0.0
    endloop
  endfacet
  facet normal 0.0 0.0 -1.0
    outer loop
      vertex 3.17268889273409 2.0818075025471066 0.0
      vertex 2.9150109045791948 2.659975802949683 0.0
      vertex 3.524766665833819 2.5888037654868996 0.0
    endloop
  endfacet
  facet normal 0.0 0.0 -1.0
    outer loop
      vertex 3.524766665833819 2.5888037654868996 0.0
      vertex 2.9150109045791948 2.659975802949683 0.0
      vertex 3.2871635893977933 3.1901281864490807 0.0
    endloop
  endfacet
  facet normal -0.0 0.0 -1.0
    outer loop
      vertex 3.2871635893977933 3.1901281864490807 0.0
      vertex 2.9150109045791948 2.659975802949683 0.0
      vertex 2.656938186214945 3.2569619039546263 0.0
    endloop
  endfacet
  facet normal 0.0 0.0 -1.0
    outer loop
      vertex 3.17268889273409 2.0818075025471066 0.0
      vertex 3.524766665833819 2.5888037654868996 0.0
      vertex 3.7833860566855964 2.031315906903093 0.0
    endloop
  endfacet
  facet normal 0.0 0.0 -1.0
    outer loop
      vertex 3.17268889273409 2.0818075025471066 0.0
      vertex 3.7833860566855964 2.031315906903093 0.0
      vertex 3.430688952147016 1.5168715834168152 0.0
    endloop
  endfacet
  facet normal 0.0 -0.0 -1.0
    outer loop
      vertex 3.17268889273409 2.0818075025471066 0.0
      vertex 3.430688952147016 1.5168715834168152 0.0
      vertex 2.802884337284939 1.5829051883500513 0.0
    endloop
  endfacet
  facet normal 0.0 0.0 -1.0
    outer loop
      vertex 1.5623227038372107 1.7082091450226415 0.0
      vertex 2.171640851684065 1.634992654696014 0.0
      vertex 1.8045878067802872 1.1226128846465928 0.0
    endloop
  endfacet
  facet normal 0.0 0.0 -1.0
    outer loop
      vertex 2.171640851684065 1.634992654696014 0.0
      vertex 2.802884337284939 1.5829051883500513 0.0
      vertex 2.471231153921992 1.0729006651388127 0.0
    endloop
  endfacet
  facet normal 0.0 -0.0 -1.0
    outer loop
      vertex 2.171640851684065 1.634992654696014 0.0
      vertex 2.471231153921992 1.0729006651388127 0.0
      vertex 1.8045878067802872 1.1226128846465928 0.0
    endloop
  endfacet
  facet normal 0.0 -0.0 -1.0
    outer loop
      vertex 1.5623227038372107 1.7082091450226415 0.0
      vertex 1.8045878067802872 1.1226128846465928 0.0
      vertex 1.144102748666086 1.1775244639039604 0.0
    endloop
  endfacet
  facet normal -0.0 0.0 -1.0
    outer loop
      vertex 1.5623227038372107 1.7082091450226415 0.0
      vertex 1.144102748666086 1.1775244639039604 0.0
      vertex 1.033835261902511 1.8164089103774332 0.0
    endloop
  endfacet
  facet normal 0.0 -0.0 -1.0
    outer loop
      vertex 1.2825723583273794 2.280034575781919 0.0
      vertex 1.5623227038372107 1.7082091450226415 0.0
      vertex 1.033835261902511 1.8164089103774332 0.0
    endloop
  endfacet
  facet normal 0.0 0.0 -1.0
    outer loop
      vertex 3.524766665833819 2.5888037654868996 0.0
      vertex 3.2871635893977933 3.1901281864490807 0.0
      vertex 3.8922076084332695 3.045458556375258 0.0
    endloop
  endfacet
  facet normal 0.0 0.0 -1.0
    outer loop
      vertex 3.7833860566855964 2.031315906903093 0.0
      vertex 3.524766665833819 2.5888037654868996 0.0
      vertex 4.017286809624362 2.5159547165642184 0.0
    endloop
  endfacet
  facet normal 0.0 0.0 -1.0
    outer loop
      vertex 3.524766665833819 2.5888037654868996 0.0
      vertex 3.8922076084332695 3.045458556375258 0.0
      vertex 4.017286809624362 2.5159547165642184 0.0
    endloop
  endfacet
  facet normal 0.0 0.0 -1.0
    outer loop
      vertex 3.8922076084332695 3.045458556375258 0.0
      vertex 3.2871635893977933 3.1901281864490807 0.0
      vertex 3.6616754938052916 3.6792763077627875 0.0
    endloop
  endfacet
  facet normal -0.0 0.0 -1.0
    outer loop
      vertex 3.6616754938052916 3.6792763077627875 0.0
      vertex 3.2871635893977933 3.1901281864490807 0.0
      vertex 3.040542567580817 3.813352248950575 0.0
    endloop
  endfacet
  facet normal 0.0 -0.0 -1.0
    outer loop
      vertex 3.040542567580817 3.813352248950575 0.0
      vertex 3.2871635893977933 3.1901281864490807 0.0
      vertex 2.656938186214945 3.2569619039546263 0.0
    endloop
  endfacet
  facet normal 0.0 0.0 -1.0
    outer loop
      vertex 2.397935229911606 3.838579060123322 0.0
      vertex 3.040542567580817 3.813352248950575 0.0
      vertex 2.656938186214945 3.2569619039546263 0.0
    endloop
  endfacet
  facet normal 0.0 0.0 -1.0
    outer loop
      vertex 3.430688952147016 1.5168715834168152 0.0
      vertex 3.7833860566855964 2.031315906903093 0.0
      vertex 4.061593300264955 1.4864544961613855 0.0
    endloop
  endfacet
  facet normal 0.0 0.0 -1.0
    outer loop
      vertex 3.430688952147016 1.5168715834168152 0.0
      vertex 4.061593300264955 1.4864544961613855 0.0
      vertex 3.7500732113058626 1.0041447156878973 0.0
    endloop
  endfacet
  facet normal 0.0 0.0 -1.0
    outer loop
      vertex 2.802884337284939 1.5829051883500513 0.0
      vertex 3.430688952147016 1.5168715834168152 0.0
      vertex 3.0854741310900766 1.0490527957430156 0.0
    endloop
  endfacet
  facet normal 0.0 0.0 -1.0
    outer loop
      vertex 3.0854741310900766 1.0490527957430156 0.0
      vertex 3.430688952147016 1.5168715834168152 0.0
      vertex 3.7500732113058626 1.0041447156878973 0.0
    endloop
  endfacet
  facet normal 0.0 -0.0 -1.0
    outer loop
      vertex 4.061593300264955 1.4864544961613855 0.0
      vertex 4.458019726533107 0.9618930687852895 0.0
      vertex 3.7500732113058626 1.0041447156878973 0.0
    endloop
  endfacet
  facet normal 0.0 0.0 -1.0
    outer loop
      vertex 4.458019726533107 0.9618930687852895 0.0
      vertex 4.061593300264955 1.4864544961613855 0.0
      vertex 4.588107869396866 1.535008583800504 0.0
    endloop
  endfacet
  facet normal 0.0 0.0 -1.0
    outer loop
      vertex 3.8922076084332695 3.045458556375258 0.0
      vertex 4.46514739698285 2.812499999999996 0.0
      vertex 4.017286809624362 2.5159547165642184 0.0
    endloop
  endfacet
  facet normal 0.0 -0.0 -1.0
    outer loop
      vertex 3.476666515599667 4.352991988088142 0.0
      vertex 3.6616754938052916 3.6792763077627875 0.0
      vertex 3.040542567580817 3.813352248950575 0.0
    endloop
  endfacet
  facet normal 0.0 0.0 -1.0
    outer loop
      vertex 3.6616754938052916 3.6792763077627875 0.0
      vertex 3.476666515599667 4.352991988088142 0.0
      vertex 4.013237783024663 4.020031674097373 0.0
    endloop
  endfacet
  facet normal 0.0 0.0 -1.0
    outer loop
      vertex 1.144102748666086 1.1775244639039604 0.0
      vertex 0.5540399868125606 1.5755371927718482 0.0
      vertex 1.033835261902511 1.8164089103774332 0.0
    endloop
  endfacet
  facet normal 0.0 0.0 -1.0
    outer loop
      vertex 2.471231153921992 1.0729006651388127 0.0
      vertex 2.802884337284939 1.5829051883500513 0.0
      vertex 3.0854741310900766 1.0490527957430156 0.0
    endloop
  endfacet
  facet normal 0.0 0.0 -1.0
    outer loop
      vertex 1.8045878067802872 1.1226128846465928 0.0
      vertex 2.471231153921992 1.0729006651388127 0.0
      vertex 2.187500000000004 0.5110277030448739 0.0
    endloop
  endfacet
  facet normal 0.0 0.0 -1.0
    outer loop
      vertex 3.413897412463933 0.5174557378868739 0.0
      vertex 3.0854741310900766 1.0490527957430156 0.0
      vertex 3.7500732113058626 1.0041447156878973 0.0
    endloop
  endfacet
endsolid abc_50_003
