solid abc_50_004
  facet normal 1.0 0.0 0.0
    outer loop
      vertex 5.0 1.5597345132743357 0.0
      vertex 5.0 2.0796460176991145 0.0
      vertex 5.0 2.0796460176991145 0.11061946902654866
    endloop
  endfacet
  facet normal 1.0 0.0 0.0
    outer loop
      vertex 5.0 0.0 0.11061946902654866
      vertex 5.0 0.0 0.0
      vertex 5.0 0.519911504424778 0.0
    endloop
  endfacet
  facet normal 1.0 -0.0 0.0
    outer loop
      vertex 5.0 1.5597345132743357 0.11061946902654866
      vertex 5.0 1.5597345132743357 0.0
      vertex 5.0 2.0796460176991145 0.11061946902654866
    endloop
  endfacet
  facet normal 1.0 0.0 -0.0
    outer loop
      vertex 5.0 0.519911504424778 0.0
      vertex 5.0 0.519911504424778 0.11061946902654866
      vertex 5.0 0.0 0.11061946902654866
    endloop
  endfacet
  facet normal 1.0 0.0 0.0
    outer loop
      vertex 5.0 1.0398230088495566 0.0
      vertex 5.0 1.5597345132743357 0.0
      vertex 5.0 1.5597345132743357 0.11061946902654866
    endloop
  endfacet
  facet normal 1.0 0.0 0.0
    outer loop
      vertex 5.0 0.519911504424778 0.0
      vertex 5.0 1.0398230088495566 0.0
      vertex 5.0 1.0398230088495566 0.11061946902654866
    endloop
  endfacet
  facet normal 1.0 -0.0 0.0
    outer loop
      vertex 5.0 1.0398230088495566 0.11061946902654866
      vertex 5.0 1.0398230088495566 0.0
      vertex 5.0 1.5597345132743357 0.11061946902654866
    endloop
  endfacet
  facet normal 1.0 0.0 0.0
    outer loop
      vertex 5.0 1.0398230088495566 0.11061946902654866
      vertex 5.0 0.519911504424778 0.11061946902654866
      vertex 5.0 0.519911504424778 0.0
    endloop
  endfacet
  facet normal 0.0 0.0 1.0
    outer loop
      vertex 5.0 2.0796460176991145 0.11061946902654866
      vertex 4.62683615280213 1.701243331585795 0.11061946902654866
      vertex 5.0 1.5597345132743357 0.11061946902654866
    endloop
  endfacet
  facet normal -0.0 0.0 1.0
    outer loop
      vertex 4.499999999999999 2.0796460176991145 0.11061946902654866
      vertex 4.62683615280213 1.701243331585795 0.11061946902654866
      vertex 5.0 2.0796460176991145 0.11061946902654866
    endloop
  endfacet
  facet normal 0.0 0.0 1.0
    outer loop
      vertex 5.0 0.519911504424778 0.11061946902654866
      vertex 4.621237428567096 0.3837869911223308 0.11061946902654866
      vertex 5.0 0.0 0.11061946902654866
    endloop
  endfacet
  facet normal 0.0 0.0 1.0
    outer loop
      vertex 5.0 0.0 0.11061946902654866
      vertex 4.621237428567096 0.3837869911223308 0.11061946902654866
      vertex 4.499999999999999 0.0 0.11061946902654866
    endloop
  endfacet
  facet normal -0.0 0.0 1.0
    outer loop
      vertex 0.0 2.0796460176991145 0.11061946902654866
      vertex 0.3787625714329039 1.6958590265767832 0.11061946902654866
      vertex 0.4999999999999991 2.0796460176991145 0.11061946902654866
    endloop
  endfacet
  facet normal 0.0 0.0 1.0
    outer loop
      vertex 0.0 1.5597345132743357 0.11061946902654866
      vertex 0.3787625714329039 1.6958590265767832 0.11061946902654866
      vertex 0.0 2.0796460176991145 0.11061946902654866
    endloop
  endfacet
  facet normal 0.0 0.0 1.0
    outer loop
      vertex 0.0 0.0 0.11061946902654866
      vertex 0.37316384719786944 0.37840268611331945 0.11061946902654866
      vertex 0.0 0.519911504424778 0.11061946902654866
    endloop
  endfacet
  facet normal 0.0 0.0 1.0
    outer loop
      vertex 0.4999999999999991 0.0 0.11061946902654866
      vertex 0.37316384719786944 0.37840268611331945 0.11061946902654866
      vertex 0.0 0.0 0.11061946902654866
    endloop
  endfacet
  facet normal 0.0 0.0 1.0
    outer loop
      vertex 5.0 1.5597345132743357 0.11061946902654866
      vertex 4.5878530853094635 1.3001515734727827 0.11061946902654866
      vertex 5.0 1.0398230088495566 0.11061946902654866
    endloop
  endfacet
  facet normal 0.0 0.0 1.0
    outer loop
      vertex 5.0 1.5597345132743357 0.11061946902654866
      vertex 4.62683615280213 1.701243331585795 0.11061946902654866
      vertex 4.5878530853094635 1.3001515734727827 0.11061946902654866
    endloop
  endfacet
  facet normal 0.0 0.0 1.0
    outer loop
      vertex 5.0 1.0398230088495566 0.11061946902654866
      vertex 4.56377181215971 0.8021497724220296 0.11061946902654866
      vertex 5.0 0.519911504424778 0.11061946902654866
    endloop
  endfacet
  facet normal 0.0 0.0 1.0
    outer loop
      vertex 5.0 1.0398230088495566 0.11061946902654866
      vertex 4.5878530853094635 1.3001515734727827 0.11061946902654866
      vertex 4.56377181215971 0.8021497724220296 0.11061946902654866
    endloop
  endfacet
  facet normal 0.0 0.0 1.0
    outer loop
      vertex 4.56377181215971 0.8021497724220296 0.11061946902654866
      vertex 4.621237428567096 0.3837869911223308 0.11061946902654866
      vertex 5.0 0.519911504424778 0.11061946902654866
    endloop
  endfacet
  facet normal -0.0 0.0 1.0
    outer loop
      vertex 0.4999999999999991 2.0796460176991145 0.11061946902654866
      vertex 0.8232550450775011 1.5940114025646768 0.11061946902654866
      vertex 0.9999999999999984 2.0796460176991145 0.11061946902654866
    endloop
  endfacet
  facet normal 0.0 0.0 1.0
    outer loop
      vertex 0.4999999999999991 2.0796460176991145 0.11061946902654866
      vertex 0.3787625714329039 1.6958590265767832 0.11061946902654866
      vertex 0.8232550450775011 1.5940114025646768 0.11061946902654866
    endloop
  endfacet
  facet normal -0.0 0.0 1.0
    outer loop
      vertex 0.9999999999999984 2.0796460176991145 0.11061946902654866
      vertex 1.2773247124300646 1.7269143841007206 0.11061946902654866
      vertex 1.4999999999999982 2.0796460176991145 0.11061946902654866
    endloop
  endfacet
  facet normal 0.0 0.0 1.0
    outer loop
      vertex 0.8232550450775011 1.5940114025646768 0.11061946902654866
      vertex 1.2773247124300646 1.7269143841007206 0.11061946902654866
      vertex 0.9999999999999984 2.0796460176991145 0.11061946902654866
    endloop
  endfacet
  facet normal -0.0 0.0 1.0
    outer loop
      vertex 1.4999999999999982 2.0796460176991145 0.11061946902654866
      vertex 1.7499999999999984 1.646633315806896 0.11061946902654866
      vertex 1.9999999999999984 2.0796460176991145 0.11061946902654866
    endloop
  endfacet
  facet normal 0.0 0.0 1.0
    outer loop
      vertex 1.4999999999999982 2.0796460176991145 0.11061946902654866
      vertex 1.2773247124300646 1.7269143841007206 0.11061946902654866
      vertex 1.7499999999999984 1.646633315806896 0.11061946902654866
    endloop
  endfacet
  facet normal -0.0 0.0 1.0
    outer loop
      vertex 1.9999999999999984 2.0796460176991145 0.11061946902654866
      vertex 2.2499999999999982 1.7504023555333945 0.11061946902654866
      vertex 2.4999999999999973 2.0796460176991145 0.11061946902654866
    endloop
  endfacet
  facet normal 0.0 0.0 1.0
    outer loop
      vertex 1.7499999999999984 1.646633315806896 0.11061946902654866
      vertex 2.2499999999999982 1.7504023555333945 0.11061946902654866
      vertex 1.9999999999999984 2.0796460176991145 0.11061946902654866
    endloop
  endfacet
  facet normal -0.0 0.0 1.0
    outer loop
      vertex 2.4999999999999973 2.0796460176991145 0.11061946902654866
      vertex 2.749999999999999 1.6466333158068953 0.11061946902654866
      vertex 2.9999999999999996 2.0796460176991145 0.11061946902654866
    endloop
  endfacet
  facet normal 0.0 0.0 1.0
    outer loop
      vertex 2.4999999999999973 2.0796460176991145 0.11061946902654866
      vertex 2.2499999999999982 1.7504023555333945 0.11061946902654866
      vertex 2.749999999999999 1.6466333158068953 0.11061946902654866
    endloop
  endfacet
  facet normal -0.0 0.0 1.0
    outer loop
      vertex 2.9999999999999996 2.0796460176991145 0.11061946902654866
      vertex 3.2499999999999996 1.6899174739684293 0.11061946902654866
      vertex 3.4999999999999996 2.0796460176991145 0.11061946902654866
    endloop
  endfacet
  facet normal 0.0 0.0 1.0
    outer loop
      vertex 2.749999999999999 1.6466333158068953 0.11061946902654866
      vertex 3.2499999999999996 1.6899174739684293 0.11061946902654866
      vertex 2.9999999999999996 2.0796460176991145 0.11061946902654866
    endloop
  endfacet
  facet normal -0.0 0.0 1.0
    outer loop
      vertex 3.4999999999999996 2.0796460176991145 0.11061946902654866
      vertex 3.6904007967287114 1.668170430107737 0.11061946902654866
      vertex 3.999999999999999 2.0796460176991145 0.11061946902654866
    endloop
  endfacet
  facet normal 0.0 0.0 1.0
    outer loop
      vertex 3.4999999999999996 2.0796460176991145 0.11061946902654866
      vertex 3.2499999999999996 1.6899174739684293 0.11061946902654866
      vertex 3.6904007967287114 1.668170430107737 0.11061946902654866
    endloop
  endfacet
  facet normal -0.0 0.0 1.0
    outer loop
      vertex 3.999999999999999 2.0796460176991145 0.11061946902654866
      vertex 4.202282588580299 1.6103574065630666 0.11061946902654866
      vertex 4.499999999999999 2.0796460176991145 0.11061946902654866
    endloop
  endfacet
  facet normal -0.0 0.0 1.0
    outer loop
      vertex 3.6904007967287114 1.668170430107737 0.11061946902654866
      vertex 4.202282588580299 1.6103574065630666 0.11061946902654866
      vertex 3.999999999999999 2.0796460176991145 0.11061946902654866
    endloop
  endfacet
  facet normal 0.0 0.0 1.0
    outer loop
      vertex 4.202282588580299 1.6103574065630666 0.11061946902654866
      vertex 4.62683615280213 1.701243331585795 0.11061946902654866
      vertex 4.499999999999999 2.0796460176991145 0.11061946902654866
    endloop
  endfacet
  facet normal 0.0 0.0 1.0
    outer loop
      vertex 0.0 1.0398230088495566 0.11061946902654866
      vertex 0.43622818784028944 1.2774962452770842 0.11061946902654866
      vertex 0.0 1.5597345132743357 0.11061946902654866
    endloop
  endfacet
  facet normal 0.0 0.0 1.0
    outer loop
      vertex 0.43622818784028944 1.2774962452770842 0.11061946902654866
      vertex 0.3787625714329039 1.6958590265767832 0.11061946902654866
      vertex 0.0 1.5597345132743357 0.11061946902654866
    endloop
  endfacet
  facet normal 0.0 0.0 1.0
    outer loop
      vertex 0.0 0.519911504424778 0.11061946902654866
      vertex 0.41214691469053644 0.7794944442263303 0.11061946902654866
      vertex 0.0 1.0398230088495566 0.11061946902654866
    endloop
  endfacet
  facet normal -0.0 0.0 1.0
    outer loop
      vertex 0.0 1.0398230088495566 0.11061946902654866
      vertex 0.41214691469053644 0.7794944442263303 0.11061946902654866
      vertex 0.43622818784028944 1.2774962452770842 0.11061946902654866
    endloop
  endfacet
  facet normal -0.0 0.0 1.0
    outer loop
      vertex 0.0 0.519911504424778 0.11061946902654866
      vertex 0.37316384719786944 0.37840268611331945 0.11061946902654866
      vertex 0.41214691469053644 0.7794944442263303 0.11061946902654866
    endloop
  endfacet
  facet normal 0.0 0.0 1.0
    outer loop
      vertex 0.9999999999999984 0.0 0.11061946902654866
      vertex 0.7911699502231893 0.48092534020712197 0.11061946902654866
      vertex 0.4999999999999991 0.0 0.11061946902654866
    endloop
  endfacet
  facet normal 0.0 0.0 1.0
    outer loop
      vertex 0.7911699502231893 0.48092534020712197 0.11061946902654866
      vertex 0.37316384719786944 0.37840268611331945 0.11061946902654866
      vertex 0.4999999999999991 0.0 0.11061946902654866
    endloop
  endfacet
  facet normal 0.0 0.0 1.0
    outer loop
      vertex 1.4999999999999982 0.0 0.11061946902654866
      vertex 1.2773375256717885 0.412837664257979 0.11061946902654866
      vertex 0.9999999999999984 0.0 0.11061946902654866
    endloop
  endfacet
  facet normal 0.0 0.0 1.0
    outer loop
      vertex 1.2773375256717885 0.412837664257979 0.11061946902654866
      vertex 0.7911699502231893 0.48092534020712197 0.11061946902654866
      vertex 0.9999999999999984 0.0 0.11061946902654866
    endloop
  endfacet
  facet normal 0.0 0.0 1.0
    outer loop
      vertex 1.9999999999999984 0.0 0.11061946902654866
      vertex 1.7546779356802966 0.4226372395925892 0.11061946902654866
      vertex 1.4999999999999982 0.0 0.11061946902654866
    endloop
  endfacet
  facet normal 0.0 -0.0 1.0
    outer loop
      vertex 1.4999999999999982 0.0 0.11061946902654866
      vertex 1.7546779356802966 0.4226372395925892 0.11061946902654866
      vertex 1.2773375256717885 0.412837664257979 0.11061946902654866
    endloop
  endfacet
  facet normal 0.0 0.0 1.0
    outer loop
      vertex 2.4999999999999973 0.0 0.11061946902654866
      vertex 2.2499999999999982 0.4330127018922192 0.11061946902654866
      vertex 1.9999999999999984 0.0 0.11061946902654866
    endloop
  endfacet
  facet normal 0.0 0.0 1.0
    outer loop
      vertex 2.2499999999999982 0.4330127018922192 0.11061946902654866
      vertex 1.7546779356802966 0.4226372395925892 0.11061946902654866
      vertex 1.9999999999999984 0.0 0.11061946902654866
    endloop
  endfacet
  facet normal 0.0 0.0 1.0
    outer loop
      vertex 2.9999999999999996 0.0 0.11061946902654866
      vertex 2.7537123486355455 0.4288923354544483 0.11061946902654866
      vertex 2.4999999999999973 0.0 0.11061946902654866
    endloop
  endfacet
  facet normal 0.0 -0.0 1.0
    outer loop
      vertex 2.4999999999999973 0.0 0.11061946902654866
      vertex 2.7537123486355455 0.4288923354544483 0.11061946902654866
      vertex 2.2499999999999982 0.4330127018922192 0.11061946902654866
    endloop
  endfacet
  facet normal 0.0 0.0 1.0
    outer loop
      vertex 3.4999999999999996 0.0 0.11061946902654866
      vertex 3.2722740918132813 0.40829050326559246 0.11061946902654866
      vertex 2.9999999999999996 0.0 0.11061946902654866
    endloop
  endfacet
  facet normal 0.0 0.0 1.0
    outer loop
      vertex 3.2722740918132813 0.40829050326559246 0.11061946902654866
      vertex 2.7537123486355455 0.4288923354544483 0.11061946902654866
      vertex 2.9999999999999996 0.0 0.11061946902654866
    endloop
  endfacet
  facet normal 0.0 0.0 1.0
    outer loop
      vertex 3.999999999999999 0.0 0.11061946902654866
      vertex 3.7174330952223316 0.3408666483443654 0.11061946902654866
      vertex 3.4999999999999996 0.0 0.11061946902654866
    endloop
  endfacet
  facet normal 0.0 -0.0 1.0
    outer loop
      vertex 3.4999999999999996 0.0 0.11061946902654866
      vertex 3.7174330952223316 0.3408666483443654 0.11061946902654866
      vertex 3.2722740918132813 0.40829050326559246 0.11061946902654866
    endloop
  endfacet
  facet normal 0.0 0.0 1.0
    outer loop
      vertex 4.499999999999999 0.0 0.11061946902654866
      vertex 4.174879746949969 0.48453901327346305 0.11061946902654866
      vertex 3.999999999999999 0.0 0.11061946902654866
    endloop
  endfacet
  facet normal 0.0 0.0 1.0
    outer loop
      vertex 4.174879746949969 0.48453901327346305 0.11061946902654866
      vertex 3.7174330952223316 0.3408666483443654 0.11061946902654866
      vertex 3.999999999999999 0.0 0.11061946902654866
    endloop
  endfacet
  facet normal 0.0 -0.0 1.0
    outer loop
      vertex 4.499999999999999 0.0 0.11061946902654866
      vertex 4.621237428567096 0.3837869911223308 0.11061946902654866
      vertex 4.174879746949969 0.48453901327346305 0.11061946902654866
    endloop
  endfacet
  facet normal 0.0 0.0 1.0
    outer loop
      vertex 1.7546779356802966 0.4226372395925892 0.11061946902654866
      vertex 1.5381364284000707 0.8228562290399517 0.11061946902654866
      vertex 1.2773375256717885 0.412837664257979 0.11061946902654866
    endloop
  endfacet
  facet normal 0.0 0.0 1.0
    outer loop
      vertex 1.5381364284000707 0.8228562290399517 0.11061946902654866
      vertex 1.1441022568531285 0.7788971976329062 0.11061946902654866
      vertex 1.2773375256717885 0.412837664257979 0.11061946902654866
    endloop
  endfacet
  facet normal 0.0 0.0 1.0
    outer loop
      vertex 1.2773375256717885 0.412837664257979 0.11061946902654866
      vertex 1.1441022568531285 0.7788971976329062 0.11061946902654866
      vertex 0.7911699502231893 0.48092534020712197 0.11061946902654866
    endloop
  endfacet
  facet normal 0.0 0.0 1.0
    outer loop
      vertex 3.6904007967287114 1.668170430107737 0.11061946902654866
      vertex 3.2499999999999996 1.6899174739684293 0.11061946902654866
      vertex 3.384768669249237 1.2469437235190035 0.11061946902654866
    endloop
  endfacet
  facet normal 0.0 0.0 1.0
    outer loop
      vertex 3.384768669249237 1.2469437235190035 0.11061946902654866
      vertex 3.7775590083006443 1.2547335419053338 0.11061946902654866
      vertex 3.6904007967287114 1.668170430107737 0.11061946902654866
    endloop
  endfacet
  facet normal 0.0 0.0 1.0
    outer loop
      vertex 3.6904007967287114 1.668170430107737 0.11061946902654866
      vertex 3.7775590083006443 1.2547335419053338 0.11061946902654866
      vertex 4.202282588580299 1.6103574065630666 0.11061946902654866
    endloop
  endfacet
  facet normal 0.0 0.0 1.0
    outer loop
      vertex 2.7537123486355455 0.4288923354544483 0.11061946902654866
      vertex 2.5006187247725897 0.8516175689034169 0.11061946902654866
      vertex 2.2499999999999982 0.4330127018922192 0.11061946902654866
    endloop
  endfacet
  facet normal 0.0 0.0 1.0
    outer loop
      vertex 2.5006187247725897 0.8516175689034169 0.11061946902654866
      vertex 2.0007300884099983 0.8463671972262767 0.11061946902654866
      vertex 2.2499999999999982 0.4330127018922192 0.11061946902654866
    endloop
  endfacet
  facet normal 0.0 0.0 1.0
    outer loop
      vertex 2.0007300884099983 0.8463671972262767 0.11061946902654866
      vertex 1.7546779356802966 0.4226372395925892 0.11061946902654866
      vertex 2.2499999999999982 0.4330127018922192 0.11061946902654866
    endloop
  endfacet
  facet normal 0.0 0.0 1.0
    outer loop
      vertex 1.7499999999999984 1.646633315806896 0.11061946902654866
      vertex 1.2773247124300646 1.7269143841007206 0.11061946902654866
      vertex 1.2982089580978027 1.2588968496941688 0.11061946902654866
    endloop
  endfacet
  facet normal -0.0 0.0 1.0
    outer loop
      vertex 1.2982089580978027 1.2588968496941688 0.11061946902654866
      vertex 1.7635141551832407 1.1870298791562606 0.11061946902654866
      vertex 1.7499999999999984 1.646633315806896 0.11061946902654866
    endloop
  endfacet
  facet normal 0.0 -0.0 1.0
    outer loop
      vertex 2.2499999999999982 1.2994531106549518 0.11061946902654866
      vertex 2.2499999999999982 1.7504023555333945 0.11061946902654866
      vertex 1.7499999999999984 1.646633315806896 0.11061946902654866
    endloop
  endfacet
  facet normal 0.0 0.0 1.0
    outer loop
      vertex 1.7499999999999984 1.646633315806896 0.11061946902654866
      vertex 1.7635141551832407 1.1870298791562606 0.11061946902654866
      vertex 2.2499999999999982 1.2994531106549518 0.11061946902654866
    endloop
  endfacet
  facet normal 0.0 0.0 1.0
    outer loop
      vertex 3.640011637348406 0.8115037251827703 0.11061946902654866
      vertex 3.051588702732168 0.9076555405175658 0.11061946902654866
      vertex 3.2722740918132813 0.40829050326559246 0.11061946902654866
    endloop
  endfacet
  facet normal -0.0 0.0 1.0
    outer loop
      vertex 3.2722740918132813 0.40829050326559246 0.11061946902654866
      vertex 3.7174330952223316 0.3408666483443654 0.11061946902654866
      vertex 3.640011637348406 0.8115037251827703 0.11061946902654866
    endloop
  endfacet
  facet normal 0.0 0.0 1.0
    outer loop
      vertex 3.2722740918132813 0.40829050326559246 0.11061946902654866
      vertex 3.051588702732168 0.9076555405175658 0.11061946902654866
      vertex 2.7537123486355455 0.4288923354544483 0.11061946902654866
    endloop
  endfacet
  facet normal 0.0 0.0 1.0
    outer loop
      vertex 2.749999999999999 1.6466333158068953 0.11061946902654866
      vertex 2.2499999999999982 1.7504023555333945 0.11061946902654866
      vertex 2.2499999999999982 1.2994531106549518 0.11061946902654866
    endloop
  endfacet
  facet normal -0.0 0.0 1.0
    outer loop
      vertex 2.2499999999999982 1.2994531106549518 0.11061946902654866
      vertex 2.7223885749621743 1.21908080106611 0.11061946902654866
      vertex 2.749999999999999 1.6466333158068953 0.11061946902654866
    endloop
  endfacet
  facet normal -0.0 0.0 1.0
    outer loop
      vertex 2.749999999999999 1.6466333158068953 0.11061946902654866
      vertex 3.0454567442870353 1.3655555416558223 0.11061946902654866
      vertex 3.2499999999999996 1.6899174739684293 0.11061946902654866
    endloop
  endfacet
  facet normal 0.0 0.0 1.0
    outer loop
      vertex 2.7223885749621743 1.21908080106611 0.11061946902654866
      vertex 3.0454567442870353 1.3655555416558223 0.11061946902654866
      vertex 2.749999999999999 1.6466333158068953 0.11061946902654866
    endloop
  endfacet
  facet normal 0.0 0.0 1.0
    outer loop
      vertex 0.41214691469053644 0.7794944442263303 0.11061946902654866
      vertex 0.8314391071490062 1.016845389219317 0.11061946902654866
      vertex 0.43622818784028944 1.2774962452770842 0.11061946902654866
    endloop
  endfacet
  facet normal 0.0 0.0 1.0
    outer loop
      vertex 0.8314391071490062 1.016845389219317 0.11061946902654866
      vertex 0.8232550450775011 1.5940114025646768 0.11061946902654866
      vertex 0.43622818784028944 1.2774962452770842 0.11061946902654866
    endloop
  endfacet
  facet normal 0.0 0.0 1.0
    outer loop
      vertex 0.8232550450775011 1.5940114025646768 0.11061946902654866
      vertex 0.3787625714329039 1.6958590265767832 0.11061946902654866
      vertex 0.43622818784028944 1.2774962452770842 0.11061946902654866
    endloop
  endfacet
  facet normal 0.0 0.0 1.0
    outer loop
      vertex 4.5878530853094635 1.3001515734727827 0.11061946902654866
      vertex 4.155504437043289 1.0551314154529836 0.11061946902654866
      vertex 4.56377181215971 0.8021497724220296 0.11061946902654866
    endloop
  endfacet
  facet normal 0.0 0.0 1.0
    outer loop
      vertex 4.155504437043289 1.0551314154529836 0.11061946902654866
      vertex 4.174879746949969 0.48453901327346305 0.11061946902654866
      vertex 4.56377181215971 0.8021497724220296 0.11061946902654866
    endloop
  endfacet
  facet normal -0.0 0.0 1.0
    outer loop
      vertex 4.174879746949969 0.48453901327346305 0.11061946902654866
      vertex 4.621237428567096 0.3837869911223308 0.11061946902654866
      vertex 4.56377181215971 0.8021497724220296 0.11061946902654866
    endloop
  endfacet
  facet normal -0.0 0.0 1.0
    outer loop
      vertex 0.41214691469053644 0.7794944442263303 0.11061946902654866
      vertex 0.7911699502231893 0.48092534020712197 0.11061946902654866
      vertex 0.8314391071490062 1.016845389219317 0.11061946902654866
    endloop
  endfacet
  facet normal 0.0 0.0 1.0
    outer loop
      vertex 0.41214691469053644 0.7794944442263303 0.11061946902654866
      vertex 0.37316384719786944 0.37840268611331945 0.11061946902654866
      vertex 0.7911699502231893 0.48092534020712197 0.11061946902654866
    endloop
  endfacet
  facet normal 0.0 -0.0 1.0
    outer loop
      vertex 0.8314391071490062 1.016845389219317 0.11061946902654866
      vertex 1.2982089580978027 1.2588968496941688 0.11061946902654866
      vertex 0.8232550450775011 1.5940114025646768 0.11061946902654866
    endloop
  endfacet
  facet normal -0.0 0.0 1.0
    outer loop
      vertex 0.8314391071490062 1.016845389219317 0.11061946902654866
      vertex 1.1441022568531285 0.7788971976329062 0.11061946902654866
      vertex 1.2982089580978027 1.2588968496941688 0.11061946902654866
    endloop
  endfacet
  facet normal 0.0 0.0 1.0
    outer loop
      vertex 0.7911699502231893 0.48092534020712197 0.11061946902654866
      vertex 1.1441022568531285 0.7788971976329062 0.11061946902654866
      vertex 0.8314391071490062 1.016845389219317 0.11061946902654866
    endloop
  endfacet
  facet normal 0.0 0.0 1.0
    outer loop
      vertex 1.2982089580978027 1.2588968496941688 0.11061946902654866
      vertex 1.2773247124300646 1.7269143841007206 0.11061946902654866
      vertex 0.8232550450775011 1.5940114025646768 0.11061946902654866
    endloop
  endfacet
  facet normal 0.0 -0.0 1.0
    outer loop
      vertex 1.5381364284000707 0.8228562290399517 0.11061946902654866
      vertex 1.7635141551832407 1.1870298791562606 0.11061946902654866
      vertex 1.2982089580978027 1.2588968496941688 0.11061946902654866
    endloop
  endfacet
  facet normal 0.0 0.0 1.0
    outer loop
      vertex 1.2982089580978027 1.2588968496941688 0.11061946902654866
      vertex 1.1441022568531285 0.7788971976329062 0.11061946902654866
      vertex 1.5381364284000707 0.8228562290399517 0.11061946902654866
    endloop
  endfacet
  facet normal 0.0 0.0 1.0
    outer loop
      vertex 4.5878530853094635 1.3001515734727827 0.11061946902654866
      vertex 4.202282588580299 1.6103574065630666 0.11061946902654866
      vertex 4.155504437043289 1.0551314154529836 0.11061946902654866
    endloop
  endfacet
  facet normal 0.0 -0.0 1.0
    outer loop
      vertex 4.5878530853094635 1.3001515734727827 0.11061946902654866
      vertex 4.62683615280213 1.701243331585795 0.11061946902654866
      vertex 4.202282588580299 1.6103574065630666 0.11061946902654866
    endloop
  endfacet
  facet normal 0.0 0.0 1.0
    outer loop
      vertex 4.155504437043289 1.0551314154529836 0.11061946902654866
      vertex 3.640011637348406 0.8115037251827703 0.11061946902654866
      vertex 4.174879746949969 0.48453901327346305 0.11061946902654866
    endloop
  endfacet
  facet normal 0.0 0.0 1.0
    outer loop
      vertex 4.155504437043289 1.0551314154529836 0.11061946902654866
      vertex 3.7775590083006443 1.2547335419053338 0.11061946902654866
      vertex 3.640011637348406 0.8115037251827703 0.11061946902654866
    endloop
  endfacet
  facet normal 0.0 0.0 1.0
    outer loop
      vertex 4.202282588580299 1.6103574065630666 0.11061946902654866
      vertex 3.7775590083006443 1.2547335419053338 0.11061946902654866
      vertex 4.155504437043289 1.0551314154529836 0.11061946902654866
    endloop
  endfacet
  facet normal 0.0 0.0 1.0
    outer loop
      vertex 3.640011637348406 0.8115037251827703 0.11061946902654866
      vertex 3.7174330952223316 0.3408666483443654 0.11061946902654866
      vertex 4.174879746949969 0.48453901327346305 0.11061946902654866
    endloop
  endfacet
  facet normal 0.0 0.0 1.0
    outer loop
      vertex 3.640011637348406 0.8115037251827703 0.11061946902654866
      vertex 3.384768669249237 1.2469437235190035 0.11061946902654866
      vertex 3.051588702732168 0.9076555405175658 0.11061946902654866
    endloop
  endfacet
  facet normal 0.0 -0.0 1.0
    outer loop
      vertex 3.640011637348406 0.8115037251827703 0.11061946902654866
      vertex 3.7775590083006443 1.2547335419053338 0.11061946902654866
      vertex 3.384768669249237 1.2469437235190035 0.11061946902654866
    endloop
  endfacet
  facet normal 0.0 -0.0 1.0
    outer loop
      vertex 2.7537123486355455 0.4288923354544483 0.11061946902654866
      vertex 3.051588702732168 0.9076555405175658 0.11061946902654866
      vertex 2.5006187247725897 0.8516175689034169 0.11061946902654866
    endloop
  endfacet
  facet normal 0.0 0.0 1.0
    outer loop
      vertex 2.5006187247725897 0.8516175689034169 0.11061946902654866
      vertex 2.2499999999999982 1.2994531106549518 0.11061946902654866
      vertex 2.0007300884099983 0.8463671972262767 0.11061946902654866
    endloop
  endfacet
  facet normal 0.0 -0.0 1.0
    outer loop
      vertex 2.5006187247725897 0.8516175689034169 0.11061946902654866
      vertex 2.7223885749621743 1.21908080106611 0.11061946902654866
      vertex 2.2499999999999982 1.2994531106549518 0.11061946902654866
    endloop
  endfacet
  facet normal 0.0 0.0 1.0
    outer loop
      vertex 3.051588702732168 0.9076555405175658 0.11061946902654866
      vertex 2.7223885749621743 1.21908080106611 0.11061946902654866
      vertex 2.5006187247725897 0.8516175689034169 0.11061946902654866
    endloop
  endfacet
  facet normal 0.0 0.0 1.0
    outer loop
      vertex 2.2499999999999982 1.2994531106549518 0.11061946902654866
      vertex 1.7635141551832407 1.1870298791562606 0.11061946902654866
      vertex 2.0007300884099983 0.8463671972262767 0.11061946902654866
    endloop
  endfacet
  facet normal 0.0 0.0 1.0
    outer loop
      vertex 2.0007300884099983 0.8463671972262767 0.11061946902654866
      vertex 1.5381364284000707 0.8228562290399517 0.11061946902654866
      vertex 1.7546779356802966 0.4226372395925892 0.11061946902654866
    endloop
  endfacet
  facet normal 0.0 0.0 1.0
    outer loop
      vertex 2.0007300884099983 0.8463671972262767 0.11061946902654866
      vertex 1.7635141551832407 1.1870298791562606 0.11061946902654866
      vertex 1.5381364284000707 0.8228562290399517 0.11061946902654866
    endloop
  endfacet
  facet normal 0.0 0.0 1.0
    outer loop
      vertex 3.384768669249237 1.2469437235190035 0.11061946902654866
      vertex 3.0454567442870353 1.3655555416558223 0.11061946902654866
      vertex 3.051588702732168 0.9076555405175658 0.11061946902654866
    endloop
  endfacet
  facet normal 0.0 0.0 1.0
    outer loop
      vertex 3.051588702732168 0.9076555405175658 0.11061946902654866
      vertex 3.0454567442870353 1.3655555416558223 0.11061946902654866
      vertex 2.7223885749621743 1.21908080106611 0.11061946902654866
    endloop
  endfacet
  facet normal 0.0 0.0 1.0
    outer loop
      vertex 3.2499999999999996 1.6899174739684293 0.11061946902654866
      vertex 3.0454567442870353 1.3655555416558223 0.11061946902654866
      vertex 3.384768669249237 1.2469437235190035 0.11061946902654866
    endloop
  endfacet
  facet normal 0.0 -1.0 -0.0
    outer loop
      vertex 5.0 0.0 0.11061946902654866
      vertex 4.499999999999999 0.0 0.0
      vertex 5.0 0.0 0.0
    endloop
  endfacet
  facet normal 0.0 -1.0 0.0
    outer loop
      vertex 4.499999999999999 0.0 0.0
      vertex 5.0 0.0 0.11061946902654866
      vertex 4.499999999999999 0.0 0.11061946902654866
    endloop
  endfacet
  facet normal 0.0 -1.0 0.0
    outer loop
      vertex 0.0 0.0 0.0
      vertex 0.4999999999999991 0.0 0.11061946902654866
      vertex 0.0 0.0 0.11061946902654866
    endloop
  endfacet
  facet normal 0.0 -1.0 0.0
    outer loop
      vertex 0.0 0.0 0.0
      vertex 0.4999999999999991 0.0 0.0
      vertex 0.4999999999999991 0.0 0.11061946902654866
    endloop
  endfacet
  facet normal 0.0 -1.0 0.0
    outer loop
      vertex 0.4999999999999991 0.0 0.11061946902654866
      vertex 0.9999999999999984 0.0 0.0
      vertex 0.9999999999999984 0.0 0.11061946902654866
    endloop
  endfacet
  facet normal 0.0 -1.0 0.0
    outer loop
      vertex 0.4999999999999991 0.0 0.0
      vertex 0.9999999999999984 0.0 0.0
      vertex 0.4999999999999991 0.0 0.11061946902654866
    endloop
  endfacet
  facet normal 0.0 -1.0 0.0
    outer loop
      vertex 0.9999999999999984 0.0 0.11061946902654866
      vertex 1.4999999999999982 0.0 0.0
      vertex 1.4999999999999982 0.0 0.11061946902654866
    endloop
  endfacet
  facet normal 0.0 -1.0 0.0
    outer loop
      vertex 0.9999999999999984 0.0 0.0
      vertex 1.4999999999999982 0.0 0.0
      vertex 0.9999999999999984 0.0 0.11061946902654866
    endloop
  endfacet
  facet normal 0.0 -1.0 0.0
    outer loop
      vertex 1.4999999999999982 0.0 0.0
      vertex 1.9999999999999984 0.0 0.11061946902654866
      vertex 1.4999999999999982 0.0 0.11061946902654866
    endloop
  endfacet
  facet normal 0.0 -1.0 0.0
    outer loop
      vertex 1.9999999999999984 0.0 0.11061946902654866
      vertex 2.4999999999999973 0.0 0.0
      vertex 2.4999999999999973 0.0 0.11061946902654866
    endloop
  endfacet
  facet normal 0.0 -1.0 0.0
    outer loop
      vertex 1.4999999999999982 0.0 0.0
      vertex 1.9999999999999984 0.0 0.0
      vertex 1.9999999999999984 0.0 0.11061946902654866
    endloop
  endfacet
  facet normal 0.0 -1.0 0.0
    outer loop
      vertex 1.9999999999999984 0.0 0.0
      vertex 2.4999999999999973 0.0 0.0
      vertex 1.9999999999999984 0.0 0.11061946902654866
    endloop
  endfacet
  facet normal 0.0 -1.0 0.0
    outer loop
      vertex 2.4999999999999973 0.0 0.0
      vertex 2.9999999999999996 0.0 0.11061946902654866
      vertex 2.4999999999999973 0.0 0.11061946902654866
    endloop
  endfacet
  facet normal 0.0 -1.0 0.0
    outer loop
      vertex 2.9999999999999996 0.0 0.11061946902654866
      vertex 3.4999999999999996 0.0 0.0
      vertex 3.4999999999999996 0.0 0.11061946902654866
    endloop
  endfacet
  facet normal 0.0 -1.0 0.0
    outer loop
      vertex 2.4999999999999973 0.0 0.0
      vertex 2.9999999999999996 0.0 0.0
      vertex 2.9999999999999996 0.0 0.11061946902654866
    endloop
  endfacet
  facet normal 0.0 -1.0 0.0
    outer loop
      vertex 2.9999999999999996 0.0 0.0
      vertex 3.4999999999999996 0.0 0.0
      vertex 2.9999999999999996 0.0 0.11061946902654866
    endloop
  endfacet
  facet normal 0.0 -1.0 0.0
    outer loop
      vertex 3.4999999999999996 0.0 0.11061946902654866
      vertex 3.999999999999999 0.0 0.0
      vertex 3.999999999999999 0.0 0.11061946902654866
    endloop
  endfacet
  facet normal 0.0 -1.0 0.0
    outer loop
      vertex 3.4999999999999996 0.0 0.0
      vertex 3.999999999999999 0.0 0.0
      vertex 3.4999999999999996 0.0 0.11061946902654866
    endloop
  endfacet
  facet normal 0.0 -1.0 0.0
    outer loop
      vertex 3.999999999999999 0.0 0.11061946902654866
      vertex 4.499999999999999 0.0 0.0
      vertex 4.499999999999999 0.0 0.11061946902654866
    endloop
  endfacet
  facet normal 0.0 -1.0 0.0
    outer loop
      vertex 3.999999999999999 0.0 0.0
      vertex 4.499999999999999 0.0 0.0
      vertex 3.999999999999999 0.0 0.11061946902654866
    endloop
  endfacet
  facet normal -0.0 1.0 0.0
    outer loop
      vertex 4.499999999999999 2.0796460176991145 0.11061946902654866
      vertex 5.0 2.0796460176991145 0.11061946902654866
      vertex 5.0 2.0796460176991145 0.0
    endloop
  endfacet
  facet normal 0.0 1.0 0.0
    outer loop
      vertex 4.499999999999999 2.0796460176991145 0.0
      vertex 4.499999999999999 2.0796460176991145 0.11061946902654866
      vertex 5.0 2.0796460176991145 0.0
    endloop
  endfacet
  facet normal 0.0 1.0 0.0
    outer loop
      vertex 0.0 2.0796460176991145 0.0
      vertex 0.0 2.0796460176991145 0.11061946902654866
      vertex 0.4999999999999991 2.0796460176991145 0.11061946902654866
    endloop
  endfacet
  facet normal 0.0 1.0 0.0
    outer loop
      vertex 0.4999999999999991 2.0796460176991145 0.11061946902654866
      vertex 0.4999999999999991 2.0796460176991145 0.0
      vertex 0.0 2.0796460176991145 0.0
    endloop
  endfacet
  facet normal 0.0 1.0 0.0
    outer loop
      vertex 0.9999999999999984 2.0796460176991145 0.11061946902654866
      vertex 0.4999999999999991 2.0796460176991145 0.0
      vertex 0.4999999999999991 2.0796460176991145 0.11061946902654866
    endloop
  endfacet
  facet normal -0.0 1.0 0.0
    outer loop
      vertex 0.9999999999999984 2.0796460176991145 0.11061946902654866
      vertex 1.4999999999999982 2.0796460176991145 0.11061946902654866
      vertex 1.4999999999999982 2.0796460176991145 0.0
    endloop
  endfacet
  facet normal 0.0 1.0 0.0
    outer loop
      vertex 0.9999999999999984 2.0796460176991145 0.11061946902654866
      vertex 0.9999999999999984 2.0796460176991145 0.0
      vertex 0.4999999999999991 2.0796460176991145 0.0
    endloop
  endfacet
  facet normal 0.0 1.0 0.0
    outer loop
      vertex 1.4999999999999982 2.0796460176991145 0.0
      vertex 0.9999999999999984 2.0796460176991145 0.0
      vertex 0.9999999999999984 2.0796460176991145 0.11061946902654866
    endloop
  endfacet
  facet normal 0.0 1.0 0.0
    outer loop
      vertex 1.4999999999999982 2.0796460176991145 0.0
      vertex 1.4999999999999982 2.0796460176991145 0.11061946902654866
      vertex 1.9999999999999984 2.0796460176991145 0.11061946902654866
    endloop
  endfacet
  facet normal 0.0 1.0 0.0
    outer loop
      vertex 2.4999999999999973 2.0796460176991145 0.11061946902654866
      vertex 1.9999999999999984 2.0796460176991145 0.0
      vertex 1.9999999999999984 2.0796460176991145 0.11061946902654866
    endloop
  endfacet
  facet normal 0.0 1.0 0.0
    outer loop
      vertex 1.9999999999999984 2.0796460176991145 0.11061946902654866
      vertex 1.9999999999999984 2.0796460176991145 0.0
      vertex 1.4999999999999982 2.0796460176991145 0.0
    endloop
  endfacet
  facet normal 0.0 1.0 0.0
    outer loop
      vertex 2.9999999999999996 2.0796460176991145 0.11061946902654866
      vertex 2.4999999999999973 2.0796460176991145 0.0
      vertex 2.4999999999999973 2.0796460176991145 0.11061946902654866
    endloop
  endfacet
  facet normal 0.0 1.0 0.0
    outer loop
      vertex 2.4999999999999973 2.0796460176991145 0.11061946902654866
      vertex 2.4999999999999973 2.0796460176991145 0.0
      vertex 1.9999999999999984 2.0796460176991145 0.0
    endloop
  endfacet
  facet normal 0.0 1.0 0.0
    outer loop
      vertex 3.4999999999999996 2.0796460176991145 0.11061946902654866
      vertex 2.9999999999999996 2.0796460176991145 0.0
      vertex 2.9999999999999996 2.0796460176991145 0.11061946902654866
    endloop
  endfacet
  facet normal 0.0 1.0 0.0
    outer loop
      vertex 2.9999999999999996 2.0796460176991145 0.11061946902654866
      vertex 2.9999999999999996 2.0796460176991145 0.0
      vertex 2.4999999999999973 2.0796460176991145 0.0
    endloop
  endfacet
  facet normal 0.0 1.0 0.0
    outer loop
      vertex 3.999999999999999 2.0796460176991145 0.11061946902654866
      vertex 3.4999999999999996 2.0796460176991145 0.0
      vertex 3.4999999999999996 2.0796460176991145 0.11061946902654866
    endloop
  endfacet
  facet normal 0.0 1.0 0.0
    outer loop
      vertex 3.4999999999999996 2.0796460176991145 0.11061946902654866
      vertex 3.4999999999999996 2.0796460176991145 0.0
      vertex 2.9999999999999996 2.0796460176991145 0.0
    endloop
  endfacet
  facet normal -0.0 1.0 0.0
    outer loop
      vertex 3.999999999999999 2.0796460176991145 0.11061946902654866
      vertex 4.499999999999999 2.0796460176991145 0.11061946902654866
      vertex 4.499999999999999 2.0796460176991145 0.0
    endloop
  endfacet
  facet normal 0.0 1.0 0.0
    outer loop
      vertex 3.999999999999999 2.0796460176991145 0.11061946902654866
      vertex 3.999999999999999 2.0796460176991145 0.0
      vertex 3.4999999999999996 2.0796460176991145 0.0
    endloop
  endfacet
  facet normal 0.0 1.0 0.0
    outer loop
      vertex 4.499999999999999 2.0796460176991145 0.0
      vertex 3.999999999999999 2.0796460176991145 0.0
      vertex 3.999999999999999 2.0796460176991145 0.11061946902654866
    endloop
  endfacet
  facet normal -1.0 0.0 0.0
    outer loop
      vertex 0.0 2.0796460176991145 0.0
      vertex 0.0 1.5597345132743357 0.11061946902654866
      vertex 0.0 2.0796460176991145 0.11061946902654866
    endloop
  endfacet
  facet normal -1.0 -0.0 0.0
    outer loop
      vertex 0.0 0.519911504424778 0.11061946902654866
      vertex 0.0 0.0 0.0
      vertex 0.0 0.0 0.11061946902654866
    endloop
  endfacet
  facet normal -1.0 0.0 0.0
    outer loop
      vertex 0.0 0.519911504424778 0.0
      vertex 0.0 0.0 0.0
      vertex 0.0 0.519911504424778 0.11061946902654866
    endloop
  endfacet
  facet normal -1.0 0.0 0.0
    outer loop
      vertex 0.0 1.5597345132743357 0.0
      vertex 0.0 1.5597345132743357 0.11061946902654866
      vertex 0.0 2.0796460176991145 0.0
    endloop
  endfacet
  facet normal -1.0 0.0 0.0
    outer loop
      vertex 0.0 1.5597345132743357 0.0
      vertex 0.0 1.0398230088495566 0.11061946902654866
      vertex 0.0 1.5597345132743357 0.11061946902654866
    endloop
  endfacet
  facet normal -1.0 0.0 0.0
    outer loop
      vertex 0.0 1.0398230088495566 0.0
      vertex 0.0 0.519911504424778 0.11061946902654866
      vertex 0.0 1.0398230088495566 0.11061946902654866
    endloop
  endfacet
  facet normal -1.0 0.0 0.0
    outer loop
      vertex 0.0 1.5597345132743357 0.0
      vertex 0.0 1.0398230088495566 0.0
      vertex 0.0 1.0398230088495566 0.11061946902654866
    endloop
  endfacet
  facet normal -1.0 0.0 0.0
    outer loop
      vertex 0.0 1.0398230088495566 0.0
      vertex 0.0 0.519911504424778 0.0
      vertex 0.0 0.519911504424778 0.11061946902654866
    endloop
  endfacet
  facet normal 0.0 -0.0 -1.0
    outer loop
      vertex 5.0 2.0796460176991145 0.0
      vertex 5.0 1.5597345132743357 0.0
      vertex 4.621237428567096 1.6958590265767832 0.0
    endloop
  endfacet
  facet normal 0.0 0.0 -1.0
    outer loop
      vertex 4.499999999999999 2.0796460176991145 0.0
      vertex 5.0 2.0796460176991145 0.0
      vertex 4.621237428567096 1.6958590265767832 0.0
    endloop
  endfacet
  facet normal 0.0 -0.0 -1.0
    outer loop
      vertex 5.0 0.519911504424778 0.0
      vertex 5.0 0.0 0.0
      vertex 4.627778726309621 0.3774962111656901 0.0
    endloop
  endfacet
  facet normal 0.0 0.0 -1.0
    outer loop
      vertex 5.0 0.0 0.0
      vertex 4.499999999999999 0.0 0.0
      vertex 4.627778726309621 0.3774962111656901 0.0
    endloop
  endfacet
  facet normal 0.0 0.0 -1.0
    outer loop
      vertex 0.4999999999999991 0.0 0.0
      vertex 0.0 0.0 0.0
      vertex 0.3787625714329039 0.3837869911223308 0.0
    endloop
  endfacet
  facet normal 0.0 0.0 -1.0
    outer loop
      vertex 0.0 0.0 0.0
      vertex 0.0 0.519911504424778 0.0
      vertex 0.3787625714329039 0.3837869911223308 0.0
    endloop
  endfacet
  facet normal 0.0 0.0 -1.0
    outer loop
      vertex 0.0 2.0796460176991145 0.0
      vertex 0.4999999999999991 2.0796460176991145 0.0
      vertex 0.37222127369037755 1.702149806533425 0.0
    endloop
  endfacet
  facet normal 0.0 0.0 -1.0
    outer loop
      vertex 0.0 1.5597345132743357 0.0
      vertex 0.0 2.0796460176991145 0.0
      vertex 0.37222127369037755 1.702149806533425 0.0
    endloop
  endfacet
  facet normal 0.0 -0.0 -1.0
    outer loop
      vertex 5.0 1.5597345132743357 0.0
      vertex 5.0 1.0398230088495566 0.0
      vertex 4.564246488603294 1.2779946711649284 0.0
    endloop
  endfacet
  facet normal -0.0 0.0 -1.0
    outer loop
      vertex 5.0 1.5597345132743357 0.0
      vertex 4.564246488603294 1.2779946711649284 0.0
      vertex 4.621237428567096 1.6958590265767832 0.0
    endloop
  endfacet
  facet normal 0.0 -0.0 -1.0
    outer loop
      vertex 5.0 1.0398230088495566 0.0
      vertex 5.0 0.519911504424778 0.0
      vertex 4.588525769498104 0.7795939325433459 0.0
    endloop
  endfacet
  facet normal 0.0 0.0 -1.0
    outer loop
      vertex 4.564246488603294 1.2779946711649284 0.0
      vertex 5.0 1.0398230088495566 0.0
      vertex 4.588525769498104 0.7795939325433459 0.0
    endloop
  endfacet
  facet normal 0.0 0.0 -1.0
    outer loop
      vertex 4.588525769498104 0.7795939325433459 0.0
      vertex 5.0 0.519911504424778 0.0
      vertex 4.627778726309621 0.3774962111656901 0.0
    endloop
  endfacet
  facet normal 0.0 0.0 -1.0
    outer loop
      vertex 0.9999999999999984 0.0 0.0
      vertex 0.4999999999999991 0.0 0.0
      vertex 0.8230579695004584 0.48571296751262055 0.0
    endloop
  endfacet
  facet normal 0.0 0.0 -1.0
    outer loop
      vertex 0.8230579695004584 0.48571296751262055 0.0
      vertex 0.4999999999999991 0.0 0.0
      vertex 0.3787625714329039 0.3837869911223308 0.0
    endloop
  endfacet
  facet normal 0.0 0.0 -1.0
    outer loop
      vertex 1.4999999999999982 0.0 0.0
      vertex 0.9999999999999984 0.0 0.0
      vertex 1.272513753235483 0.35800181536840414 0.0
    endloop
  endfacet
  facet normal 0.0 0.0 -1.0
    outer loop
      vertex 0.9999999999999984 0.0 0.0
      vertex 0.8230579695004584 0.48571296751262055 0.0
      vertex 1.272513753235483 0.35800181536840414 0.0
    endloop
  endfacet
  facet normal 0.0 0.0 -1.0
    outer loop
      vertex 1.9999999999999984 0.0 0.0
      vertex 1.4999999999999982 0.0 0.0
      vertex 1.7188882783839599 0.4693469461896013 0.0
    endloop
  endfacet
  facet normal 0.0 0.0 -1.0
    outer loop
      vertex 1.7188882783839599 0.4693469461896013 0.0
      vertex 1.4999999999999982 0.0 0.0
      vertex 1.272513753235483 0.35800181536840414 0.0
    endloop
  endfacet
  facet normal 0.0 0.0 -1.0
    outer loop
      vertex 2.4999999999999973 0.0 0.0
      vertex 1.9999999999999984 0.0 0.0
      vertex 2.2398350236062625 0.43148630734347276 0.0
    endloop
  endfacet
  facet normal 0.0 0.0 -1.0
    outer loop
      vertex 1.9999999999999984 0.0 0.0
      vertex 1.7188882783839599 0.4693469461896013 0.0
      vertex 2.2398350236062625 0.43148630734347276 0.0
    endloop
  endfacet
  facet normal 0.0 0.0 -1.0
    outer loop
      vertex 2.9999999999999996 0.0 0.0
      vertex 2.4999999999999973 0.0 0.0
      vertex 2.749999999999999 0.4330127018922192 0.0
    endloop
  endfacet
  facet normal 0.0 0.0 -1.0
    outer loop
      vertex 2.749999999999999 0.4330127018922192 0.0
      vertex 2.4999999999999973 0.0 0.0
      vertex 2.2398350236062625 0.43148630734347276 0.0
    endloop
  endfacet
  facet normal 0.0 0.0 -1.0
    outer loop
      vertex 3.4999999999999996 0.0 0.0
      vertex 2.9999999999999996 0.0 0.0
      vertex 3.2455012756786887 0.4258884632118916 0.0
    endloop
  endfacet
  facet normal 0.0 0.0 -1.0
    outer loop
      vertex 2.9999999999999996 0.0 0.0
      vertex 2.749999999999999 0.4330127018922192 0.0
      vertex 3.2455012756786887 0.4258884632118916 0.0
    endloop
  endfacet
  facet normal 0.0 0.0 -1.0
    outer loop
      vertex 3.999999999999999 0.0 0.0
      vertex 3.4999999999999996 0.0 0.0
      vertex 3.7230076540721377 0.4129819237387372 0.0
    endloop
  endfacet
  facet normal -0.0 0.0 -1.0
    outer loop
      vertex 3.7230076540721377 0.4129819237387372 0.0
      vertex 3.4999999999999996 0.0 0.0
      vertex 3.2455012756786887 0.4258884632118916 0.0
    endloop
  endfacet
  facet normal 0.0 0.0 -1.0
    outer loop
      vertex 4.499999999999999 0.0 0.0
      vertex 3.999999999999999 0.0 0.0
      vertex 4.209252638859248 0.480874561889917 0.0
    endloop
  endfacet
  facet normal 0.0 0.0 -1.0
    outer loop
      vertex 3.999999999999999 0.0 0.0
      vertex 3.7230076540721377 0.4129819237387372 0.0
      vertex 4.209252638859248 0.480874561889917 0.0
    endloop
  endfacet
  facet normal 0.0 0.0 -1.0
    outer loop
      vertex 4.499999999999999 0.0 0.0
      vertex 4.209252638859248 0.480874561889917 0.0
      vertex 4.627778726309621 0.3774962111656901 0.0
    endloop
  endfacet
  facet normal 0.0 0.0 -1.0
    outer loop
      vertex 0.4999999999999991 2.0796460176991145 0.0
      vertex 0.9999999999999984 2.0796460176991145 0.0
      vertex 0.7907473611407496 1.5987714558091979 0.0
    endloop
  endfacet
  facet normal 0.0 -0.0 -1.0
    outer loop
      vertex 0.4999999999999991 2.0796460176991145 0.0
      vertex 0.7907473611407496 1.5987714558091979 0.0
      vertex 0.37222127369037755 1.702149806533425 0.0
    endloop
  endfacet
  facet normal 0.0 0.0 -1.0
    outer loop
      vertex 0.9999999999999984 2.0796460176991145 0.0
      vertex 1.4999999999999982 2.0796460176991145 0.0
      vertex 1.2769923459278598 1.6666640939603776 0.0
    endloop
  endfacet
  facet normal 0.0 -0.0 -1.0
    outer loop
      vertex 0.9999999999999984 2.0796460176991145 0.0
      vertex 1.2769923459278598 1.6666640939603776 0.0
      vertex 0.7907473611407496 1.5987714558091979 0.0
    endloop
  endfacet
  facet normal 0.0 0.0 -1.0
    outer loop
      vertex 1.4999999999999982 2.0796460176991145 0.0
      vertex 1.9999999999999984 2.0796460176991145 0.0
      vertex 1.7499999999999984 1.6466333158068958 0.0
    endloop
  endfacet
  facet normal 0.0 0.0 -1.0
    outer loop
      vertex 1.2769923459278598 1.6666640939603776 0.0
      vertex 1.4999999999999982 2.0796460176991145 0.0
      vertex 1.7499999999999984 1.6466333158068958 0.0
    endloop
  endfacet
  facet normal 0.0 0.0 -1.0
    outer loop
      vertex 1.9999999999999984 2.0796460176991145 0.0
      vertex 2.4999999999999973 2.0796460176991145 0.0
      vertex 2.2285681082443083 1.672797298919061 0.0
    endloop
  endfacet
  facet normal 0.0 -0.0 -1.0
    outer loop
      vertex 1.9999999999999984 2.0796460176991145 0.0
      vertex 2.2285681082443083 1.672797298919061 0.0
      vertex 1.7499999999999984 1.6466333158068958 0.0
    endloop
  endfacet
  facet normal 0.0 0.0 -1.0
    outer loop
      vertex 2.4999999999999973 2.0796460176991145 0.0
      vertex 2.9999999999999996 2.0796460176991145 0.0
      vertex 2.728607569543767 1.7096511572297899 0.0
    endloop
  endfacet
  facet normal 0.0 0.0 -1.0
    outer loop
      vertex 2.2285681082443083 1.672797298919061 0.0
      vertex 2.4999999999999973 2.0796460176991145 0.0
      vertex 2.728607569543767 1.7096511572297899 0.0
    endloop
  endfacet
  facet normal 0.0 0.0 -1.0
    outer loop
      vertex 2.9999999999999996 2.0796460176991145 0.0
      vertex 3.4999999999999996 2.0796460176991145 0.0
      vertex 3.2499999999999996 1.6466333158068955 0.0
    endloop
  endfacet
  facet normal 0.0 -0.0 -1.0
    outer loop
      vertex 2.9999999999999996 2.0796460176991145 0.0
      vertex 3.2499999999999996 1.6466333158068955 0.0
      vertex 2.728607569543767 1.7096511572297899 0.0
    endloop
  endfacet
  facet normal 0.0 0.0 -1.0
    outer loop
      vertex 3.4999999999999996 2.0796460176991145 0.0
      vertex 3.999999999999999 2.0796460176991145 0.0
      vertex 3.722658280753019 1.7267689106867794 0.0
    endloop
  endfacet
  facet normal 0.0 0.0 -1.0
    outer loop
      vertex 3.2499999999999996 1.6466333158068955 0.0
      vertex 3.4999999999999996 2.0796460176991145 0.0
      vertex 3.722658280753019 1.7267689106867794 0.0
    endloop
  endfacet
  facet normal 0.0 0.0 -1.0
    outer loop
      vertex 3.999999999999999 2.0796460176991145 0.0
      vertex 4.499999999999999 2.0796460176991145 0.0
      vertex 4.17694203049954 1.5939330501864932 0.0
    endloop
  endfacet
  facet normal 0.0 -0.0 -1.0
    outer loop
      vertex 3.999999999999999 2.0796460176991145 0.0
      vertex 4.17694203049954 1.5939330501864932 0.0
      vertex 3.722658280753019 1.7267689106867794 0.0
    endloop
  endfacet
  facet normal 0.0 0.0 -1.0
    outer loop
      vertex 4.17694203049954 1.5939330501864932 0.0
      vertex 4.499999999999999 2.0796460176991145 0.0
      vertex 4.621237428567096 1.6958590265767832 0.0
    endloop
  endfacet
  facet normal 0.0 0.0 -1.0
    outer loop
      vertex 0.0 1.0398230088495566 0.0
      vertex 0.0 1.5597345132743357 0.0
      vertex 0.41147423050189474 1.300052085155768 0.0
    endloop
  endfacet
  facet normal 0.0 0.0 -1.0
    outer loop
      vertex 0.41147423050189474 1.300052085155768 0.0
      vertex 0.0 1.5597345132743357 0.0
      vertex 0.37222127369037755 1.702149806533425 0.0
    endloop
  endfacet
  facet normal 0.0 0.0 -1.0
    outer loop
      vertex 0.0 0.519911504424778 0.0
      vertex 0.0 1.0398230088495566 0.0
      vertex 0.43575351139670543 0.8016513465341849 0.0
    endloop
  endfacet
  facet normal 0.0 0.0 -1.0
    outer loop
      vertex 0.43575351139670543 0.8016513465341849 0.0
      vertex 0.0 1.0398230088495566 0.0
      vertex 0.41147423050189474 1.300052085155768 0.0
    endloop
  endfacet
  facet normal 0.0 0.0 -1.0
    outer loop
      vertex 0.0 0.519911504424778 0.0
      vertex 0.43575351139670543 0.8016513465341849 0.0
      vertex 0.3787625714329039 0.3837869911223308 0.0
    endloop
  endfacet
  facet normal 0.0 0.0 -1.0
    outer loop
      vertex 1.2769923459278598 1.6666640939603776 0.0
      vertex 1.7499999999999984 1.6466333158068958 0.0
      vertex 1.5211263739434155 1.2596239725533442 0.0
    endloop
  endfacet
  facet normal 0.0 -0.0 -1.0
    outer loop
      vertex 1.2769923459278598 1.6666640939603776 0.0
      vertex 1.5211263739434155 1.2596239725533442 0.0
      vertex 1.1435524843352505 1.2956430522071178 0.0
    endloop
  endfacet
  facet normal 0.0 0.0 -1.0
    outer loop
      vertex 0.7907473611407496 1.5987714558091979 0.0
      vertex 1.2769923459278598 1.6666640939603776 0.0
      vertex 1.1435524843352505 1.2956430522071178 0.0
    endloop
  endfacet
  facet normal 0.0 0.0 -1.0
    outer loop
      vertex 3.7230076540721377 0.4129819237387372 0.0
      vertex 3.2455012756786887 0.4258884632118916 0.0
      vertex 3.4619899876699396 0.8236006189954461 0.0
    endloop
  endfacet
  facet normal 0.0 0.0 -1.0
    outer loop
      vertex 3.7230076540721377 0.4129819237387372 0.0
      vertex 3.4619899876699396 0.8236006189954461 0.0
      vertex 3.8562538381894695 0.7790677327008054 0.0
    endloop
  endfacet
  facet normal -0.0 0.0 -1.0
    outer loop
      vertex 4.209252638859248 0.480874561889917 0.0
      vertex 3.7230076540721377 0.4129819237387372 0.0
      vertex 3.8562538381894695 0.7790677327008054 0.0
    endloop
  endfacet
  facet normal 0.0 0.0 -1.0
    outer loop
      vertex 1.7499999999999984 1.6466333158068958 0.0
      vertex 2.2285681082443083 1.672797298919061 0.0
      vertex 1.9945469198125048 1.2062524587936865 0.0
    endloop
  endfacet
  facet normal 0.0 0.0 -1.0
    outer loop
      vertex 1.9945469198125048 1.2062524587936865 0.0
      vertex 2.2285681082443083 1.672797298919061 0.0
      vertex 2.405921255326918 1.321937273182072 0.0
    endloop
  endfacet
  facet normal 0.0 0.0 -1.0
    outer loop
      vertex 2.2285681082443083 1.672797298919061 0.0
      vertex 2.728607569543767 1.7096511572297899 0.0
      vertex 2.405921255326918 1.321937273182072 0.0
    endloop
  endfacet
  facet normal 0.0 -0.0 -1.0
    outer loop
      vertex 1.295347055040889 0.8203720665971469 0.0
      vertex 1.7188882783839599 0.4693469461896013 0.0
      vertex 1.272513753235483 0.35800181536840414 0.0
    endloop
  endfacet
  facet normal 0.0 0.0 -1.0
    outer loop
      vertex 1.7188882783839599 0.4693469461896013 0.0
      vertex 1.295347055040889 0.8203720665971469 0.0
      vertex 1.6877894551904702 0.9125666205141053 0.0
    endloop
  endfacet
  facet normal 0.0 0.0 -1.0
    outer loop
      vertex 2.2398350236062625 0.43148630734347276 0.0
      vertex 1.7188882783839599 0.4693469461896013 0.0
      vertex 2.0130243805560197 0.7847880841189289 0.0
    endloop
  endfacet
  facet normal -0.0 0.0 -1.0
    outer loop
      vertex 2.0130243805560197 0.7847880841189289 0.0
      vertex 1.7188882783839599 0.4693469461896013 0.0
      vertex 1.6877894551904702 0.9125666205141053 0.0
    endloop
  endfacet
  facet normal 0.0 0.0 -1.0
    outer loop
      vertex 3.7019689044946813 1.2588126652970704 0.0
      vertex 3.2499999999999996 1.6466333158068955 0.0
      vertex 3.722658280753019 1.7267689106867794 0.0
    endloop
  endfacet
  facet normal 0.0 -0.0 -1.0
    outer loop
      vertex 3.2499999999999996 1.6466333158068955 0.0
      vertex 3.7019689044946813 1.2588126652970704 0.0
      vertex 3.242089989863563 1.1722850052038212 0.0
    endloop
  endfacet
  facet normal -0.0 0.0 -1.0
    outer loop
      vertex 3.2499999999999996 1.6466333158068955 0.0
      vertex 2.7978182672584326 1.284931518284644 0.0
      vertex 2.728607569543767 1.7096511572297899 0.0
    endloop
  endfacet
  facet normal 0.0 0.0 -1.0
    outer loop
      vertex 2.7978182672584326 1.284931518284644 0.0
      vertex 3.2499999999999996 1.6466333158068955 0.0
      vertex 3.242089989863563 1.1722850052038212 0.0
    endloop
  endfacet
  facet normal 0.0 0.0 -1.0
    outer loop
      vertex 3.2455012756786887 0.4258884632118916 0.0
      vertex 2.749999999999999 0.4330127018922192 0.0
      vertex 2.998672789894764 0.8474469076350476 0.0
    endloop
  endfacet
  facet normal -0.0 0.0 -1.0
    outer loop
      vertex 2.998672789894764 0.8474469076350476 0.0
      vertex 2.749999999999999 0.4330127018922192 0.0
      vertex 2.445725919908659 0.8996110931042329 0.0
    endloop
  endfacet
  facet normal 0.0 -0.0 -1.0
    outer loop
      vertex 2.445725919908659 0.8996110931042329 0.0
      vertex 2.749999999999999 0.4330127018922192 0.0
      vertex 2.2398350236062625 0.43148630734347276 0.0
    endloop
  endfacet
  facet normal 0.0 -0.0 -1.0
    outer loop
      vertex 4.564246488603294 1.2779946711649284 0.0
      vertex 4.588525769498104 0.7795939325433459 0.0
      vertex 4.16920248394541 1.0169821330808373 0.0
    endloop
  endfacet
  facet normal -0.0 0.0 -1.0
    outer loop
      vertex 4.564246488603294 1.2779946711649284 0.0
      vertex 4.16920248394541 1.0169821330808373 0.0
      vertex 4.17694203049954 1.5939330501864932 0.0
    endloop
  endfacet
  facet normal 0.0 0.0 -1.0
    outer loop
      vertex 4.564246488603294 1.2779946711649284 0.0
      vertex 4.17694203049954 1.5939330501864932 0.0
      vertex 4.621237428567096 1.6958590265767832 0.0
    endloop
  endfacet
  facet normal 0.0 0.0 -1.0
    outer loop
      vertex 0.43575351139670543 0.8016513465341849 0.0
      vertex 0.41147423050189474 1.300052085155768 0.0
      vertex 0.8307975160545884 1.0626638846182759 0.0
    endloop
  endfacet
  facet normal 0.0 0.0 -1.0
    outer loop
      vertex 0.43575351139670543 0.8016513465341849 0.0
      vertex 0.8307975160545884 1.0626638846182759 0.0
      vertex 0.8230579695004584 0.48571296751262055 0.0
    endloop
  endfacet
  facet normal 0.0 -0.0 -1.0
    outer loop
      vertex 0.43575351139670543 0.8016513465341849 0.0
      vertex 0.8230579695004584 0.48571296751262055 0.0
      vertex 0.3787625714329039 0.3837869911223308 0.0
    endloop
  endfacet
  facet normal 0.0 0.0 -1.0
    outer loop
      vertex 4.16920248394541 1.0169821330808373 0.0
      vertex 4.588525769498104 0.7795939325433459 0.0
      vertex 4.209252638859248 0.480874561889917 0.0
    endloop
  endfacet
  facet normal 0.0 0.0 -1.0
    outer loop
      vertex 4.209252638859248 0.480874561889917 0.0
      vertex 4.588525769498104 0.7795939325433459 0.0
      vertex 4.627778726309621 0.3774962111656901 0.0
    endloop
  endfacet
  facet normal 0.0 0.0 -1.0
    outer loop
      vertex 4.17694203049954 1.5939330501864932 0.0
      vertex 4.16920248394541 1.0169821330808373 0.0
      vertex 3.7019689044946813 1.2588126652970704 0.0
    endloop
  endfacet
  facet normal 0.0 0.0 -1.0
    outer loop
      vertex 3.7019689044946813 1.2588126652970704 0.0
      vertex 4.16920248394541 1.0169821330808373 0.0
      vertex 3.8562538381894695 0.7790677327008054 0.0
    endloop
  endfacet
  facet normal 0.0 -0.0 -1.0
    outer loop
      vertex 4.16920248394541 1.0169821330808373 0.0
      vertex 4.209252638859248 0.480874561889917 0.0
      vertex 3.8562538381894695 0.7790677327008054 0.0
    endloop
  endfacet
  facet normal -0.0 0.0 -1.0
    outer loop
      vertex 4.17694203049954 1.5939330501864932 0.0
      vertex 3.7019689044946813 1.2588126652970704 0.0
      vertex 3.722658280753019 1.7267689106867794 0.0
    endloop
  endfacet
  facet normal 0.0 0.0 -1.0
    outer loop
      vertex 3.7019689044946813 1.2588126652970704 0.0
      vertex 3.4619899876699396 0.8236006189954461 0.0
      vertex 3.242089989863563 1.1722850052038212 0.0
    endloop
  endfacet
  facet normal 0.0 0.0 -1.0
    outer loop
      vertex 3.4619899876699396 0.8236006189954461 0.0
      vertex 3.7019689044946813 1.2588126652970704 0.0
      vertex 3.8562538381894695 0.7790677327008054 0.0
    endloop
  endfacet
  facet normal 0.0 0.0 -1.0
    outer loop
      vertex 0.8307975160545884 1.0626638846182759 0.0
      vertex 0.41147423050189474 1.300052085155768 0.0
      vertex 0.7907473611407496 1.5987714558091979 0.0
    endloop
  endfacet
  facet normal -0.0 0.0 -1.0
    outer loop
      vertex 0.7907473611407496 1.5987714558091979 0.0
      vertex 0.41147423050189474 1.300052085155768 0.0
      vertex 0.37222127369037755 1.702149806533425 0.0
    endloop
  endfacet
  facet normal 0.0 0.0 -1.0
    outer loop
      vertex 0.8230579695004584 0.48571296751262055 0.0
      vertex 0.8307975160545884 1.0626638846182759 0.0
      vertex 1.295347055040889 0.8203720665971469 0.0
    endloop
  endfacet
  facet normal 0.0 0.0 -1.0
    outer loop
      vertex 1.295347055040889 0.8203720665971469 0.0
      vertex 0.8307975160545884 1.0626638846182759 0.0
      vertex 1.1435524843352505 1.2956430522071178 0.0
    endloop
  endfacet
  facet normal 0.0 0.0 -1.0
    outer loop
      vertex 0.8307975160545884 1.0626638846182759 0.0
      vertex 0.7907473611407496 1.5987714558091979 0.0
      vertex 1.1435524843352505 1.2956430522071178 0.0
    endloop
  endfacet
  facet normal 0.0 0.0 -1.0
    outer loop
      vertex 0.8230579695004584 0.48571296751262055 0.0
      vertex 1.295347055040889 0.8203720665971469 0.0
      vertex 1.272513753235483 0.35800181536840414 0.0
    endloop
  endfacet
  facet normal -0.0 0.0 -1.0
    outer loop
      vertex 1.5211263739434155 1.2596239725533442 0.0
      vertex 1.295347055040889 0.8203720665971469 0.0
      vertex 1.1435524843352505 1.2956430522071178 0.0
    endloop
  endfacet
  facet normal 0.0 0.0 -1.0
    outer loop
      vertex 1.295347055040889 0.8203720665971469 0.0
      vertex 1.5211263739434155 1.2596239725533442 0.0
      vertex 1.6877894551904702 0.9125666205141053 0.0
    endloop
  endfacet
  facet normal 0.0 0.0 -1.0
    outer loop
      vertex 3.2455012756786887 0.4258884632118916 0.0
      vertex 2.998672789894764 0.8474469076350476 0.0
      vertex 3.4619899876699396 0.8236006189954461 0.0
    endloop
  endfacet
  facet normal 0.0 0.0 -1.0
    outer loop
      vertex 2.998672789894764 0.8474469076350476 0.0
      vertex 2.445725919908659 0.8996110931042329 0.0
      vertex 2.7978182672584326 1.284931518284644 0.0
    endloop
  endfacet
  facet normal 0.0 0.0 -1.0
    outer loop
      vertex 2.998672789894764 0.8474469076350476 0.0
      vertex 2.7978182672584326 1.284931518284644 0.0
      vertex 3.242089989863563 1.1722850052038212 0.0
    endloop
  endfacet
  facet normal 0.0 0.0 -1.0
    outer loop
      vertex 3.4619899876699396 0.8236006189954461 0.0
      vertex 2.998672789894764 0.8474469076350476 0.0
      vertex 3.242089989863563 1.1722850052038212 0.0
    endloop
  endfacet
  facet normal -0.0 0.0 -1.0
    outer loop
      vertex 2.7978182672584326 1.284931518284644 0.0
      vertex 2.445725919908659 0.8996110931042329 0.0
      vertex 2.405921255326918 1.321937273182072 0.0
    endloop
  endfacet
  facet normal 0.0 0.0 -1.0
    outer loop
      vertex 1.9945469198125048 1.2062524587936865 0.0
      vertex 2.445725919908659 0.8996110931042329 0.0
      vertex 2.0130243805560197 0.7847880841189289 0.0
    endloop
  endfacet
  facet normal 0.0 0.0 -1.0
    outer loop
      vertex 2.445725919908659 0.8996110931042329 0.0
      vertex 1.9945469198125048 1.2062524587936865 0.0
      vertex 2.405921255326918 1.321937273182072 0.0
    endloop
  endfacet
  facet normal 0.0 0.0 -1.0
    outer loop
      vertex 2.445725919908659 0.8996110931042329 0.0
      vertex 2.2398350236062625 0.43148630734347276 0.0
      vertex 2.0130243805560197 0.7847880841189289 0.0
    endloop
  endfacet
  facet normal 0.0 -0.0 -1.0
    outer loop
      vertex 2.728607569543767 1.7096511572297899 0.0
      vertex 2.7978182672584326 1.284931518284644 0.0
      vertex 2.405921255326918 1.321937273182072 0.0
    endloop
  endfacet
  facet normal 0.0 -0.0 -1.0
    outer loop
      vertex 1.7499999999999984 1.6466333158068958 0.0
      vertex 1.9945469198125048 1.2062524587936865 0.0
      vertex 1.5211263739434155 1.2596239725533442 0.0
    endloop
  endfacet
  facet normal 0.0 0.0 -1.0
    outer loop
      vertex 1.5211263739434155 1.2596239725533442 0.0
      vertex 1.9945469198125048 1.2062524587936865 0.0
      vertex 1.6877894551904702 0.9125666205141053 0.0
    endloop
  endfacet
  facet normal 0.0 -0.0 -1.0
    outer loop
      vertex 1.9945469198125048 1.2062524587936865 0.0
      vertex 2.0130243805560197 0.7847880841189289 0.0
      vertex 1.6877894551904702 0.9125666205141053 0.0
    endloop
  endfacet
endsolid abc_50_004
