solid abc_50_005
  facet normal 0.989121893988992 0.1422142520615752 -0.03758969728789985
    outer loop
      vertex 4.898732434036243 3.204331391994245 0.0
      vertex 4.943057732946501 3.0305364392520966 0.5088363507411967
      vertex 4.999999995436125 2.49999999989067 0.0
    endloop
  endfacet
  facet normal 0.9893809408724985 -0.142251497378872 -0.029830610649439652
    outer loop
      vertex 4.999999995436125 2.49999999989067 0.0
      vertex 4.9430577329464995 1.9694635605292354 0.6413550798761061
      vertex 4.898732434036243 1.7956686077870956 0.0
    endloop
  endfacet
  facet normal 0.9942894683125405 0.1067166959887969 -7.890534288784433e-09
    outer loop
      vertex 4.999999995436125 2.49999999989067 0.0
      vertex 4.943057732946501 3.0305364392520966 0.5088363507411967
      vertex 5.0 2.49999999989067 0.5750957153086487
    endloop
  endfacet
  facet normal 0.9942894681034117 -0.1067166979372704 -7.890534287124816e-09
    outer loop
      vertex 5.0 2.49999999989067 0.5750957153086487
      vertex 4.9430577329464995 1.9694635605292354 0.6413550798761061
      vertex 4.999999995436125 2.49999999989067 0.0
    endloop
  endfacet
  facet normal 0.9942894681034119 0.10671669793726875 7.890534287124852e-09
    outer loop
      vertex 5.0 2.49999999989067 0.5750957153086487
      vertex 4.943057732946501 3.0305364392520966 0.5088363507411967
      vertex 4.999999995436125 2.49999999989067 1.150191430617295
    endloop
  endfacet
  facet normal 0.9942894683125404 -0.10671669598879856 7.890534288784465e-09
    outer loop
      vertex 4.999999995436125 2.49999999989067 1.150191430617295
      vertex 4.9430577329464995 1.9694635605292354 0.6413550798761061
      vertex 5.0 2.49999999989067 0.5750957153086487
    endloop
  endfacet
  facet normal 0.9893809408724985 0.14225149737887194 0.029830610649440904
    outer loop
      vertex 4.999999995436125 2.49999999989067 1.150191430617295
      vertex 4.943057732946501 3.0305364392520966 0.5088363507411967
      vertex 4.898732434036243 3.204331391994245 1.150191430617295
    endloop
  endfacet
  facet normal 0.989121893988992 -0.14221425206157526 0.03758969728789931
    outer loop
      vertex 4.898732434036243 1.7956686077870956 1.150191430617295
      vertex 4.9430577329464995 1.9694635605292354 0.6413550798761061
      vertex 4.999999995436125 2.49999999989067 1.150191430617295
    endloop
  endfacet
  facet normal 0.9087445903943521 0.41500974873573643 -0.044160818417485675
    outer loop
      vertex 4.603133832077951 3.8516020435296654 0.0
      vertex 4.774079988386296 3.538537532395388 0.5756589574421752
      vertex 4.898732434036243 3.204331391994245 0.0
    endloop
  endfacet
  facet normal 0.9495518213046442 0.3126841841078446 0.024081936505287605
    outer loop
      vertex 4.774079988386296 3.538537532395388 0.5756589574421752
      vertex 4.943057732946501 3.0305364392520966 0.5088363507411967
      vertex 4.898732434036243 3.204331391994245 0.0
    endloop
  endfacet
  facet normal 0.7550108087864023 0.6542205899367443 -0.04420518429461554
    outer loop
      vertex 4.137151834863211 4.389373935776318 0.0
      vertex 4.389257161009661 4.137286590434217 0.5750799326718498
      vertex 4.603133832077951 3.8516020435296654 0.0
    endloop
  endfacet
  facet normal 0.8403924861997831 0.5401725548964631 0.044204977950168284
    outer loop
      vertex 4.603133832077951 3.8516020435296654 0.0
      vertex 4.389257161009661 4.137286590434217 0.5750799326718498
      vertex 4.774079988386296 3.538537532395388 0.5756589574421752
    endloop
  endfacet
  facet normal 0.5401115125631936 0.8404299183420415 -0.044239194751812455
    outer loop
      vertex 3.5385375325047126 4.7740799882769664 0.0
      vertex 3.8515645246343024 4.603157943495965 0.5746370881451583
      vertex 4.137151834863211 4.389373935776318 0.0
    endloop
  endfacet
  facet normal 0.6541661183908644 0.7550579763182962 0.04420567777501979
    outer loop
      vertex 4.137151834863211 4.389373935776318 0.0
      vertex 3.8515645246343024 4.603157943495965 0.5746370881451583
      vertex 4.389257161009661 4.137286590434217 0.5750799326718498
    endloop
  endfacet
  facet normal 0.28145663121344133 0.9585532572243771 -0.04424723506071098
    outer loop
      vertex 2.855787095683207 4.9745536045930026 0.0
      vertex 3.204331392103569 4.898732433926916 0.5745324731751197
      vertex 3.5385375325047126 4.7740799882769664 0.0
    endloop
  endfacet
  facet normal 0.41499431338703013 0.9087478996268121 0.04423770767439015
    outer loop
      vertex 3.204331392103569 4.898732433926916 0.5745324731751197
      vertex 3.8515645246343024 4.603157943495965 0.5746370881451583
      vertex 3.5385375325047126 4.7740799882769664 0.0
    endloop
  endfacet
  facet normal -2.4939321155567834e-15 0.9990209675716077 -0.04423919475181121
    outer loop
      vertex 2.1442129043167797 4.974553604593001 0.0
      vertex 2.500044598671084 4.999999999492862 0.5746370881451583
      vertex 2.855787095683207 4.9745536045930026 0.0
    endloop
  endfacet
  facet normal 0.14219077507360198 0.9888502458429604 0.044237707674392335
    outer loop
      vertex 2.855787095683207 4.9745536045930026 0.0
      vertex 2.500044598671084 4.999999999492862 0.5746370881451583
      vertex 3.204331392103569 4.898732433926916 0.5745324731751197
    endloop
  endfacet
  facet normal -0.28145715567760504 0.9585550433852777 -0.044205184294613974
    outer loop
      vertex 1.4614624674952745 4.774079988276963 0.0
      vertex 1.795839699594554 4.898782664354649 0.5750799326718498
      vertex 2.1442129043167797 4.974553604593001 0.0
    endloop
  endfacet
  facet normal -0.14210439661168728 0.9888640950687204 0.04420567777501981
    outer loop
      vertex 1.795839699594554 4.898782664354649 0.5750799326718498
      vertex 2.500044598671084 4.999999999492862 0.5746370881451583
      vertex 2.1442129043167797 4.974553604593001 0.0
    endloop
  endfacet
  facet normal -0.5401128167887306 0.8404319477565735 -0.04418468434463762
    outer loop
      vertex 0.86284816513678 4.389373935776309 0.0
      vertex 1.1484280053708467 4.603153142991326 0.5753474073592869
      vertex 1.4614624674952745 4.774079988276963 0.0
    endloop
  endfacet
  facet normal -0.4149547837729964 0.9087671761596575 0.04421252038402527
    outer loop
      vertex 1.4614624674952745 4.774079988276963 0.0
      vertex 1.1484280053708467 4.603153142991326 0.5753474073592869
      vertex 1.795839699594554 4.898782664354649 0.5750799326718498
    endloop
  endfacet
  facet normal -0.7550122331893476 0.6542218241889177 -0.044162568871828366
    outer loop
      vertex 0.3968661679220426 3.851602043529656 0.0
      vertex 0.6106297471205824 4.13715608515999 0.5756360955463905
      vertex 0.86284816513678 4.389373935776309 0.0
    endloop
  endfacet
  facet normal -0.6542016088867034 0.7550288856233197 0.044177333605104
    outer loop
      vertex 0.6106297471205824 4.13715608515999 0.5756360955463905
      vertex 1.1484280053708467 4.603153142991326 0.5753474073592869
      vertex 0.86284816513678 4.389373935776309 0.0
    endloop
  endfacet
  facet normal -0.9087442682686079 0.4150096016258331 -0.0441688289104395
    outer loop
      vertex 0.1012675659637546 3.2043313919942364 0.0
      vertex 0.2259385389330917 3.538578100608299 0.5755543424721361
      vertex 0.3968661679220426 3.851602043529656 0.0
    endloop
  endfacet
  facet normal -0.8404301506135077 0.5401175587670711 0.04416089504591526
    outer loop
      vertex 0.2259385389330917 3.538578100608299 0.5755543424721361
      vertex 0.6106297471205824 4.13715608515999 0.5756360955463905
      vertex 0.3968661679220426 3.851602043529656 0.0
    endloop
  endfacet
  facet normal -0.988853970810273 0.14217573693325355 -0.04420276281231709
    outer loop
      vertex 0.0 2.4999999998906626 0.0
      vertex 0.02547177815346164 2.8559635925304327 0.575111497945445
      vertex 0.1012675659637546 3.2043313919942364 0.0
    endloop
  endfacet
  facet normal -0.9585517636104944 0.2814739573807185 0.04416930829940719
    outer loop
      vertex 0.02547177815346164 2.8559635925304327 0.575111497945445
      vertex 0.2259385389330917 3.538578100608299 0.5755543424721361
      vertex 0.1012675659637546 3.2043313919942364 0.0
    endloop
  endfacet
  facet normal -0.9888547400156019 -0.14217584752828852 -0.04418519580458214
    outer loop
      vertex 0.10126756596375795 1.7956686077870903 0.0
      vertex 0.025416311979059 2.144422201117071 0.5753405380639844
      vertex 0.0 2.4999999998906626 0.0
    endloop
  endfacet
  facet normal -0.9990231456231203 9.210040280352615e-05 0.044189886023858954
    outer loop
      vertex 0.0 2.4999999998906626 0.0
      vertex 0.025416311979059 2.144422201117071 0.5753405380639844
      vertex 0.02547177815346164 2.8559635925304327 0.575111497945445
    endloop
  endfacet
  facet normal -0.9087440236863835 -0.415009489928879 -0.044174910110301426
    outer loop
      vertex 0.3968661679220497 1.1483979562516706 0.0
      vertex 0.22588641004812138 1.4615360477015837 0.5754749351129501
      vertex 0.10126756596375795 1.7956686077870903 0.0
    endloop
  endfacet
  facet normal -0.9585742321344604 -0.28139321544164253 0.044196151317089497
    outer loop
      vertex 0.10126756596375795 1.7956686077870903 0.0
      vertex 0.22588641004812138 1.4615360477015837 0.5754749351129501
      vertex 0.025416311979059 2.144422201117071 0.5753405380639844
    endloop
  endfacet
  facet normal -0.7550120658904278 -0.6542216792235873 -0.04416757627194573
    outer loop
      vertex 0.8628481651367907 0.610626064005021 0.0
      vertex 0.6106112667545375 0.8628652422469666 0.5755707043880224
      vertex 0.3968661679220497 1.1483979562516706 0.0
    endloop
  endfacet
  facet normal -0.84044657331828 -0.5400905699879582 0.04417842921204331
    outer loop
      vertex 0.3968661679220497 1.1483979562516706 0.0
      vertex 0.6106112667545375 0.8628652422469666 0.5755707043880224
      vertex 0.22588641004812138 1.4615360477015837 0.5754749351129501
    endloop
  endfacet
  facet normal -0.5401123115550579 -0.8404311615976484 -0.04420580869387642
    outer loop
      vertex 1.4614624674952883 0.22592001150437185 0.0
      vertex 1.1482403199468116 0.39696748293271705 0.5750717788656559
      vertex 0.8628481651367907 0.610626064005021 0.0
    endloop
  endfacet
  facet normal -0.6542300129695959 -0.7550049150074083 0.0441663723262207
    outer loop
      vertex 0.8628481651367907 0.610626064005021 0.0
      vertex 1.1482403199468116 0.39696748293271705 0.5750717788656559
      vertex 0.6106112667545375 0.8628652422469666 0.5755707043880224
    endloop
  endfacet
  facet normal -0.28145690282895336 -0.9585541822618624 -0.04422546232913098
    outer loop
      vertex 2.1442129043167912 0.025446395188336933 0.0
      vertex 1.7956269276561043 0.1012798046705566 0.5748158686725536
      vertex 1.4614624674952883 0.22592001150437185 0.0
    endloop
  endfacet
  facet normal -0.4150358994394731 -0.9087291170660758 0.04423340335965623
    outer loop
      vertex 1.4614624674952883 0.22592001150437185 0.0
      vertex 1.7956269276561043 0.1012798046705566 0.5748158686725536
      vertex 1.1482403199468116 0.39696748293271705 0.5750717788656559
    endloop
  endfacet
  facet normal 1.7681597837896384e-15 -0.999021465652472 -0.044227945527534465
    outer loop
      vertex 2.8557870956832163 0.025446395188338192 0.0
      vertex 2.5000233806169327 0.0 0.5747835381772062
      vertex 2.1442129043167912 0.025446395188336933 0.0
    endloop
  endfacet
  facet normal -0.14217751213294702 -0.9888522761367867 0.04423495250118171
    outer loop
      vertex 2.1442129043167912 0.025446395188336933 0.0
      vertex 2.5000233806169327 0.0 0.5747835381772062
      vertex 1.7956269276561043 0.1012798046705566 0.5748158686725536
    endloop
  endfacet
  facet normal 0.28145680765513353 -0.958553858129586 -0.04423309269615465
    outer loop
      vertex 3.538537532504719 0.22592001150437563 0.0
      vertex 3.2044090047417 0.10129035634503925 0.5747164955043447
      vertex 2.8557870956832163 0.025446395188338192 0.0
    endloop
  endfacet
  facet normal 0.1422002640946497 -0.988848885333748 0.044237618218164396
    outer loop
      vertex 3.2044090047417 0.10129035634503925 0.5747164955043447
      vertex 2.5000233806169327 0.0 0.5747835381772062
      vertex 2.8557870956832163 0.025446395188338192 0.0
    endloop
  endfacet
  facet normal 0.5401119059961105 -0.8404305305356033 -0.0442227582234862
    outer loop
      vertex 4.137151834863213 0.6106260640050245 0.0
      vertex 3.85177992007346 0.3969804926853298 0.5748508925533103
      vertex 3.538537532504719 0.22592001150437563 0.0
    endloop
  endfacet
  facet normal 0.41505375034107017 -0.9087204458862626 0.04424404543082372
    outer loop
      vertex 3.85177992007346 0.3969804926853298 0.5748508925533103
      vertex 3.2044090047417 0.10129035634503925 0.5747164955043447
      vertex 3.538537532504719 0.22592001150437563 0.0
    endloop
  endfacet
  facet normal 0.7550108087864021 -0.6542205899367444 -0.0442051842946179
    outer loop
      vertex 4.603133832077954 1.1483979562516777 0.0
      vertex 4.389490701149866 0.862982929036431 0.5750799326718498
      vertex 4.137151834863213 0.6106260640050245 0.0
    endloop
  endfacet
  facet normal 0.6542685521084316 -0.7549689713646841 0.04420988575519171
    outer loop
      vertex 4.389490701149866 0.862982929036431 0.5750799326718498
      vertex 3.85177992007346 0.3969804926853298 0.5748508925533103
      vertex 4.137151834863213 0.6106260640050245 0.0
    endloop
  endfacet
  facet normal 0.9087411122334129 -0.41500816031285676 -0.04424723506070804
    outer loop
      vertex 4.898732434036243 1.7956686077870956 0.0
      vertex 4.774079988386296 1.4614624673859549 0.5745324731751197
      vertex 4.603133832077954 1.1483979562516777 0.0
    endloop
  endfacet
  facet normal 0.8404688728545111 -0.540053759637201 0.04420419057501106
    outer loop
      vertex 4.774079988386296 1.4614624673859549 0.5745324731751197
      vertex 4.389490701149866 0.862982929036431 0.5750799326718498
      vertex 4.603133832077954 1.1483979562516777 0.0
    endloop
  endfacet
  facet normal 0.94786264213569 -0.31800840607222913 0.020665558568518528
    outer loop
      vertex 4.898732434036243 1.7956686077870956 0.0
      vertex 4.9430577329464995 1.9694635605292354 0.6413550798761061
      vertex 4.774079988386296 1.4614624673859549 0.5745324731751197
    endloop
  endfacet
  facet normal 0.9087411122334123 0.41500816031285837 0.04424723506071094
    outer loop
      vertex 4.898732434036243 3.204331391994245 1.150191430617295
      vertex 4.774079988386296 3.538537532395388 0.5756589574421752
      vertex 4.603133832077951 3.8516020435296654 1.150191430617295
    endloop
  endfacet
  facet normal 0.9478626421356912 0.3180084060722258 -0.020665558568519364
    outer loop
      vertex 4.898732434036243 3.204331391994245 1.150191430617295
      vertex 4.943057732946501 3.0305364392520966 0.5088363507411967
      vertex 4.774079988386296 3.538537532395388 0.5756589574421752
    endloop
  endfacet
  facet normal 0.7550108897603363 0.6542206601010575 0.04420276281231692
    outer loop
      vertex 4.603133832077951 3.8516020435296654 1.150191430617295
      vertex 4.389257161009661 4.137286590434217 0.5750799326718498
      vertex 4.137151834863211 4.389373935776318 1.150191430617295
    endloop
  endfacet
  facet normal 0.8404298263731288 0.5401110156940958 -0.04424700745050084
    outer loop
      vertex 4.774079988386296 3.538537532395388 0.5756589574421752
      vertex 4.389257161009661 4.137286590434217 0.5750799326718498
      vertex 4.603133832077951 3.8516020435296654 1.150191430617295
    endloop
  endfacet
  facet normal 0.5401131958461355 0.8404325375814256 0.04416882891044078
    outer loop
      vertex 4.137151834863211 4.389373935776318 1.150191430617295
      vertex 3.8515645246343024 4.603157943495965 0.5746370881451583
      vertex 3.5385375325047126 4.7740799882769664 1.150191430617295
    endloop
  endfacet
  facet normal 0.6542087471281115 0.7550231700983875 -0.044169308299408204
    outer loop
      vertex 4.389257161009661 4.137286590434217 0.5750799326718498
      vertex 3.8515645246343024 4.603157943495965 0.5746370881451583
      vertex 4.137151834863211 4.389373935776318 1.150191430617295
    endloop
  endfacet
  facet normal 0.2814577084745532 0.9585569260387988 0.044160818417485724
    outer loop
      vertex 3.5385375325047126 4.7740799882769664 1.150191430617295
      vertex 3.204331392103569 4.898732433926916 0.5745324731751197
      vertex 2.855787095683207 4.9745536045930026 1.150191430617295
    endloop
  endfacet
  facet normal 0.4150075763028307 0.9087456549995545 -0.04415932665565487
    outer loop
      vertex 3.5385375325047126 4.7740799882769664 1.150191430617295
      vertex 3.8515645246343024 4.603157943495965 0.5746370881451583
      vertex 3.204331392103569 4.898732433926916 0.5745324731751197
    endloop
  endfacet
  facet normal -2.4939398880135647e-15 0.9990240810674588 0.04416882891043951
    outer loop
      vertex 2.855787095683207 4.9745536045930026 1.150191430617295
      vertex 2.500044598671084 4.999999999492862 0.5746370881451583
      vertex 2.1442129043167797 4.974553604593001 1.150191430617295
    endloop
  endfacet
  facet normal 0.1421784040617137 0.9888555280159904 -0.04415932665565705
    outer loop
      vertex 3.204331392103569 4.898732433926916 0.5745324731751197
      vertex 2.500044598671084 4.999999999492862 0.5746370881451583
      vertex 2.855787095683207 4.9745536045930026 1.150191430617295
    endloop
  endfacet
  facet normal -0.2814571858635214 0.958555146189068 0.044202762812315326
    outer loop
      vertex 2.1442129043167797 4.974553604593001 1.150191430617295
      vertex 1.795839699594554 4.898782664354649 0.5750799326718498
      vertex 1.4614624674952745 4.774079988276963 1.150191430617295
    endloop
  endfacet
  facet normal -0.14215907585068038 0.9888578610486101 -0.04416930829940823
    outer loop
      vertex 2.1442129043167797 4.974553604593001 1.150191430617295
      vertex 2.500044598671084 4.999999999492862 0.5746370881451583
      vertex 1.795839699594554 4.898782664354649 0.5750799326718498
    endloop
  endfacet
  facet normal -0.5401118930131694 0.8404305103337426 0.04422330071235636
    outer loop
      vertex 1.4614624674952745 4.774079988276963 1.150191430617295
      vertex 1.1484280053708467 4.603153142991326 0.5753474073592869
      vertex 0.86284816513678 4.389373935776309 1.150191430617295
    endloop
  endfacet
  facet normal -0.4149846861132836 0.9087526404681224 -0.044230631169753835
    outer loop
      vertex 1.795839699594554 4.898782664354649 0.5750799326718498
      vertex 1.1484280053708467 4.603153142991326 0.5753474073592869
      vertex 1.4614624674952745 4.774079988276963 1.150191430617295
    endloop
  endfacet
  facet normal -0.755009460724081 0.654219421834089 0.04424547787291621
    outer loop
      vertex 0.86284816513678 4.389373935776309 1.150191430617295
      vertex 0.6106297471205824 4.13715608515999 0.5756360955463905
      vertex 0.3968661679220426 3.851602043529656 1.150191430617295
    endloop
  endfacet
  facet normal -0.6542269560665743 0.7550033643831787 -0.04423810264857098
    outer loop
      vertex 0.86284816513678 4.389373935776309 1.150191430617295
      vertex 1.1484280053708467 4.603153142991326 0.5753474073592869
      vertex 0.6106297471205824 4.13715608515999 0.5756360955463905
    endloop
  endfacet
  facet normal -0.9087414361331645 0.41500830823291374 0.0442391947518111
    outer loop
      vertex 0.3968661679220426 3.851602043529656 1.150191430617295
      vertex 0.2259385389330917 3.538578100608299 0.5755543424721361
      vertex 0.1012675659637546 3.2043313919942364 1.150191430617295
    endloop
  endfacet
  facet normal -0.8404218073766725 0.54012427012756 -0.04423752372023057
    outer loop
      vertex 0.3968661679220426 3.851602043529656 1.150191430617295
      vertex 0.6106297471205824 4.13715608515999 0.5756360955463905
      vertex 0.2259385389330917 3.538578100608299 0.5755543424721361
    endloop
  endfacet
  facet normal -0.9888538647569735 0.14217572168509107 0.044205184294615674
    outer loop
      vertex 0.1012675659637546 3.2043313919942364 1.150191430617295
      vertex 0.02547177815346164 2.8559635925304327 0.575111497945445
      vertex 0.0 2.4999999998906626 1.150191430617295
    endloop
  endfacet
  facet normal -0.9585347196978693 0.2815262850715334 -0.04420567777501872
    outer loop
      vertex 0.1012675659637546 3.2043313919942364 1.150191430617295
      vertex 0.2259385389330917 3.538578100608299 0.5755543424721361
      vertex 0.02547177815346164 2.8559635925304327 0.575111497945445
    endloop
  endfacet
  facet normal -0.9888530948998051 -0.14217561099634582 0.044222758223484995
    outer loop
      vertex 0.0 2.4999999998906626 1.150191430617295
      vertex 0.025416311979059 2.144422201117071 0.5753405380639844
      vertex 0.10126756596375795 1.7956686077870903 1.150191430617295
    endloop
  endfacet
  facet normal -0.9990222629905787 6.364507552711343e-05 -0.04420988575519335
    outer loop
      vertex 0.02547177815346164 2.8559635925304327 0.575111497945445
      vertex 0.025416311979059 2.144422201117071 0.5753405380639844
      vertex 0.0 2.4999999998906626 1.150191430617295
    endloop
  endfacet
  facet normal -0.9087416819120028 -0.41500842047635345 0.04423309269615365
    outer loop
      vertex 0.10126756596375795 1.7956686077870903 1.150191430617295
      vertex 0.22588641004812138 1.4615360477015837 0.5754749351129501
      vertex 0.3968661679220497 1.1483979562516706 1.150191430617295
    endloop
  endfacet
  facet normal -0.95856749376065 -0.28140864298976537 -0.044244045430825066
    outer loop
      vertex 0.025416311979059 2.144422201117071 0.5753405380639844
      vertex 0.22588641004812138 1.4615360477015837 0.5754749351129501
      vertex 0.10126756596375795 1.7956686077870903 1.150191430617295
    endloop
  endfacet
  facet normal -0.7550096289208713 -0.654219567577446 0.04424045247901032
    outer loop
      vertex 0.3968661679220497 1.1483979562516706 1.150191430617295
      vertex 0.6106112667545375 0.8628652422469666 0.5755707043880224
      vertex 0.8628481651367907 0.610626064005021 1.150191430617295
    endloop
  endfacet
  facet normal -0.840437700028569 -0.5400990126478347 -0.04424397029565906
    outer loop
      vertex 0.22588641004812138 1.4615360477015837 0.5754749351129501
      vertex 0.6106112667545375 0.8628652422469666 0.5755707043880224
      vertex 0.3968661679220497 1.1483979562516706 1.150191430617295
    endloop
  endfacet
  facet normal -0.5401123994079754 -0.8404312982994565 0.044202136197810514
    outer loop
      vertex 0.8628481651367907 0.610626064005021 1.150191430617295
      vertex 1.1482403199468116 0.39696748293271705 0.5750717788656559
      vertex 1.4614624674952883 0.22592001150437185 1.150191430617295
    endloop
  endfacet
  facet normal -0.6542758463767255 -0.7549631733606736 -0.04420094701701546
    outer loop
      vertex 0.6106112667545375 0.8628652422469666 0.5755707043880224
      vertex 1.1482403199468116 0.39696748293271705 0.5750717788656559
      vertex 0.8628481651367907 0.610626064005021 1.150191430617295
    endloop
  endfacet
  facet normal -0.2814574380649342 -0.9585560051082122 0.044182526284822714
    outer loop
      vertex 1.4614624674952883 0.22592001150437185 1.150191430617295
      vertex 1.7956269276561043 0.1012798046705566 0.5748158686725536
      vertex 2.1442129043167912 0.025446395188336933 1.150191430617295
    endloop
  endfacet
  facet normal -0.41506525526389776 -0.90871684390608 -0.04421008339834402
    outer loop
      vertex 1.1482403199468116 0.39696748293271705 0.5750717788656559
      vertex 1.7956269276561043 0.1012798046705566 0.5748158686725536
      vertex 1.4614624674952883 0.22592001150437185 1.150191430617295
    endloop
  endfacet
  facet normal 1.7681635346941368e-15 -0.9990235849372469 0.04418004910739
    outer loop
      vertex 2.1442129043167912 0.025446395188336933 1.150191430617295
      vertex 2.5000233806169327 0.0 0.5747835381772062
      vertex 2.8557870956832163 0.025446395188338192 1.150191430617295
    endloop
  endfacet
  facet normal -0.14218177455211137 -0.9888536942447018 -0.04418952776188407
    outer loop
      vertex 1.7956269276561043 0.1012798046705566 0.5748158686725536
      vertex 2.5000233806169327 0.0 0.5747835381772062
      vertex 2.1442129043167912 0.025446395188336933 1.150191430617295
    endloop
  endfacet
  facet normal 0.2814575329529322 -0.9585563282670433 0.04417491011030239
    outer loop
      vertex 2.8557870956832163 0.025446395188338192 1.150191430617295
      vertex 3.2044090047417 0.10129035634503925 0.5747164955043447
      vertex 3.538537532504719 0.22592001150437563 1.150191430617295
    endloop
  endfacet
  facet normal 0.14219235280924652 -0.9888523946924982 -0.04418457098900586
    outer loop
      vertex 2.8557870956832163 0.025446395188338192 1.150191430617295
      vertex 2.5000233806169327 0.0 0.5747835381772062
      vertex 3.2044090047417 0.10129035634503925 0.5747164955043447
    endloop
  endfacet
  facet normal 0.5401128045589335 -0.8404319287266482 0.04418519580458331
    outer loop
      vertex 3.538537532504719 0.22592001150437563 1.150191430617295
      vertex 3.85177992007346 0.3969804926853298 0.5748508925533103
      vertex 4.137151834863213 0.6106260640050245 1.150191430617295
    endloop
  endfacet
  facet normal 0.4150698224004164 -0.9087154355139149 -0.04419615131708813
    outer loop
      vertex 3.538537532504719 0.22592001150437563 1.150191430617295
      vertex 3.2044090047417 0.10129035634503925 0.5747164955043447
      vertex 3.85177992007346 0.3969804926853298 0.5748508925533103
    endloop
  endfacet
  facet normal 0.7550108897603361 -0.6542206601010574 0.044202762812319274
    outer loop
      vertex 4.137151834863213 0.6106260640050245 1.150191430617295
      vertex 4.389490701149866 0.862982929036431 0.5750799326718498
      vertex 4.603133832077954 1.1483979562516777 1.150191430617295
    endloop
  endfacet
  facet normal 0.6542906352113028 -0.754951004137347 -0.04418988602385733
    outer loop
      vertex 4.137151834863213 0.6106260640050245 1.150191430617295
      vertex 3.85177992007346 0.3969804926853298 0.5748508925533103
      vertex 4.389490701149866 0.862982929036431 0.5750799326718498
    endloop
  endfacet
  facet normal 0.908744590394353 -0.4150097487357348 0.04416081841748279
    outer loop
      vertex 4.603133832077954 1.1483979562516777 1.150191430617295
      vertex 4.774079988386296 1.4614624673859549 0.5745324731751197
      vertex 4.898732434036243 1.7956686077870956 1.150191430617295
    endloop
  endfacet
  facet normal 0.8404337622339041 -0.5401120281948643 -0.04415980408239651
    outer loop
      vertex 4.603133832077954 1.1483979562516777 1.150191430617295
      vertex 4.389490701149866 0.862982929036431 0.5750799326718498
      vertex 4.774079988386296 1.4614624673859549 0.5745324731751197
    endloop
  endfacet
  facet normal 0.9495518213046433 -0.31268418410784726 -0.02408193650528711
    outer loop
      vertex 4.774079988386296 1.4614624673859549 0.5745324731751197
      vertex 4.9430577329464995 1.9694635605292354 0.6413550798761061
      vertex 4.898732434036243 1.7956686077870956 1.150191430617295
    endloop
  endfacet
  facet normal 0.0 -0.0 -1.0
    outer loop
      vertex 4.898732434036243 3.204331391994245 0.0
      vertex 4.999999995436125 2.49999999989067 0.0
      vertex 4.476035753741097 2.7835154321284463 0.0
    endloop
  endfacet
  facet normal 0.0 0.0 -1.0
    outer loop
      vertex 4.999999995436125 2.49999999989067 0.0
      vertex 4.898732434036243 1.7956686077870956 0.0
      vertex 4.339397339330333 2.2355345884628615 0.0
    endloop
  endfacet
  facet normal -0.0 0.0 -1.0
    outer loop
      vertex 4.999999995436125 2.49999999989067 0.0
      vertex 4.339397339330333 2.2355345884628615 0.0
      vertex 4.476035753741097 2.7835154321284463 0.0
    endloop
  endfacet
  facet normal 0.0 -0.0 -1.0
    outer loop
      vertex 4.603133832077951 3.8516020435296654 0.0
      vertex 4.898732434036243 3.204331391994245 0.0
      vertex 4.190380305959148 3.2719708192597436 0.0
    endloop
  endfacet
  facet normal 0.0 0.0 -1.0
    outer loop
      vertex 4.190380305959148 3.2719708192597436 0.0
      vertex 4.898732434036243 3.204331391994245 0.0
      vertex 4.476035753741097 2.7835154321284463 0.0
    endloop
  endfacet
  facet normal 0.0 -0.0 -1.0
    outer loop
      vertex 4.137151834863211 4.389373935776318 0.0
      vertex 4.603133832077951 3.8516020435296654 0.0
      vertex 3.851723650076388 3.7943654695383104 0.0
    endloop
  endfacet
  facet normal 0.0 0.0 -1.0
    outer loop
      vertex 4.603133832077951 3.8516020435296654 0.0
      vertex 4.190380305959148 3.2719708192597436 0.0
      vertex 3.851723650076388 3.7943654695383104 0.0
    endloop
  endfacet
  facet normal 0.0 -0.0 -1.0
    outer loop
      vertex 3.5385375325047126 4.7740799882769664 0.0
      vertex 4.137151834863211 4.389373935776318 0.0
      vertex 3.5338257247529037 4.220904666063605 0.0
    endloop
  endfacet
  facet normal 0.0 0.0 -1.0
    outer loop
      vertex 4.137151834863211 4.389373935776318 0.0
      vertex 3.851723650076388 3.7943654695383104 0.0
      vertex 3.5338257247529037 4.220904666063605 0.0
    endloop
  endfacet
  facet normal 0.0 0.0 -1.0
    outer loop
      vertex 2.855787095683207 4.9745536045930026 0.0
      vertex 3.5385375325047126 4.7740799882769664 0.0
      vertex 2.988856225896685 4.362503936777418 0.0
    endloop
  endfacet
  facet normal 0.0 0.0 -1.0
    outer loop
      vertex 2.988856225896685 4.362503936777418 0.0
      vertex 3.5385375325047126 4.7740799882769664 0.0
      vertex 3.5338257247529037 4.220904666063605 0.0
    endloop
  endfacet
  facet normal 0.0 0.0 -1.0
    outer loop
      vertex 2.1442129043167797 4.974553604593001 0.0
      vertex 2.855787095683207 4.9745536045930026 0.0
      vertex 2.483564343839592 4.561788225317729 0.0
    endloop
  endfacet
  facet normal 0.0 -0.0 -1.0
    outer loop
      vertex 2.855787095683207 4.9745536045930026 0.0
      vertex 2.988856225896685 4.362503936777418 0.0
      vertex 2.483564343839592 4.561788225317729 0.0
    endloop
  endfacet
  facet normal 0.0 0.0 -1.0
    outer loop
      vertex 1.4614624674952745 4.774079988276963 0.0
      vertex 2.1442129043167797 4.974553604593001 0.0
      vertex 1.9741883904806132 4.474987880799086 0.0
    endloop
  endfacet
  facet normal 0.0 -0.0 -1.0
    outer loop
      vertex 2.1442129043167797 4.974553604593001 0.0
      vertex 2.483564343839592 4.561788225317729 0.0
      vertex 1.9741883904806132 4.474987880799086 0.0
    endloop
  endfacet
  facet normal 0.0 0.0 -1.0
    outer loop
      vertex 0.86284816513678 4.389373935776309 0.0
      vertex 1.4614624674952745 4.774079988276963 0.0
      vertex 1.5269134409218412 4.0437420448520385 0.0
    endloop
  endfacet
  facet normal 0.0 0.0 -1.0
    outer loop
      vertex 1.5269134409218412 4.0437420448520385 0.0
      vertex 1.4614624674952745 4.774079988276963 0.0
      vertex 1.9741883904806132 4.474987880799086 0.0
    endloop
  endfacet
  facet normal 0.0 0.0 -1.0
    outer loop
      vertex 0.3968661679220426 3.851602043529656 0.0
      vertex 0.86284816513678 4.389373935776309 0.0
      vertex 0.9635238525402827 3.7822240253645023 0.0
    endloop
  endfacet
  facet normal 0.0 0.0 -1.0
    outer loop
      vertex 0.86284816513678 4.389373935776309 0.0
      vertex 1.5269134409218412 4.0437420448520385 0.0
      vertex 0.9635238525402827 3.7822240253645023 0.0
    endloop
  endfacet
  facet normal 0.0 0.0 -1.0
    outer loop
      vertex 0.1012675659637546 3.2043313919942364 0.0
      vertex 0.3968661679220426 3.851602043529656 0.0
      vertex 0.6724730824048445 3.372495601337829 0.0
    endloop
  endfacet
  facet normal 0.0 0.0 -1.0
    outer loop
      vertex 0.3968661679220426 3.851602043529656 0.0
      vertex 0.9635238525402827 3.7822240253645023 0.0
      vertex 0.6724730824048445 3.372495601337829 0.0
    endloop
  endfacet
  facet normal 0.0 0.0 -1.0
    outer loop
      vertex 0.0 2.4999999998906626 0.0
      vertex 0.1012675659637546 3.2043313919942364 0.0
      vertex 0.6513479887185036 2.7938181104297897 0.0
    endloop
  endfacet
  facet normal 0.0 0.0 -1.0
    outer loop
      vertex 0.6513479887185036 2.7938181104297897 0.0
      vertex 0.1012675659637546 3.2043313919942364 0.0
      vertex 0.6724730824048445 3.372495601337829 0.0
    endloop
  endfacet
  facet normal 0.0 0.0 -1.0
    outer loop
      vertex 0.10126756596375795 1.7956686077870903 0.0
      vertex 0.0 2.4999999998906626 0.0
      vertex 0.6409486279143488 2.242613727041429 0.0
    endloop
  endfacet
  facet normal 0.0 0.0 -1.0
    outer loop
      vertex 0.0 2.4999999998906626 0.0
      vertex 0.6513479887185036 2.7938181104297897 0.0
      vertex 0.6409486279143488 2.242613727041429 0.0
    endloop
  endfacet
  facet normal 0.0 0.0 -1.0
    outer loop
      vertex 0.3968661679220497 1.1483979562516706 0.0
      vertex 0.10126756596375795 1.7956686077870903 0.0
      vertex 0.6703533762031506 1.7091526433397413 0.0
    endloop
  endfacet
  facet normal 0.0 0.0 -1.0
    outer loop
      vertex 0.6703533762031506 1.7091526433397413 0.0
      vertex 0.10126756596375795 1.7956686077870903 0.0
      vertex 0.6409486279143488 2.242613727041429 0.0
    endloop
  endfacet
  facet normal 0.0 0.0 -1.0
    outer loop
      vertex 0.8628481651367907 0.610626064005021 0.0
      vertex 0.3968661679220497 1.1483979562516706 0.0
      vertex 1.0955812866562478 1.2830642574225213 0.0
    endloop
  endfacet
  facet normal -0.0 0.0 -1.0
    outer loop
      vertex 1.0955812866562478 1.2830642574225213 0.0
      vertex 0.3968661679220497 1.1483979562516706 0.0
      vertex 0.6703533762031506 1.7091526433397413 0.0
    endloop
  endfacet
  facet normal 0.0 0.0 -1.0
    outer loop
      vertex 1.4614624674952883 0.22592001150437185 0.0
      vertex 0.8628481651367907 0.610626064005021 0.0
      vertex 1.5616188153135888 0.8571232642689482 0.0
    endloop
  endfacet
  facet normal 0.0 0.0 -1.0
    outer loop
      vertex 0.8628481651367907 0.610626064005021 0.0
      vertex 1.0955812866562478 1.2830642574225213 0.0
      vertex 1.5616188153135888 0.8571232642689482 0.0
    endloop
  endfacet
  facet normal 0.0 0.0 -1.0
    outer loop
      vertex 2.1442129043167912 0.025446395188336933 0.0
      vertex 1.4614624674952883 0.22592001150437185 0.0
      vertex 1.9566965435920092 0.5365659662889081 0.0
    endloop
  endfacet
  facet normal 0.0 0.0 -1.0
    outer loop
      vertex 1.4614624674952883 0.22592001150437185 0.0
      vertex 1.5616188153135888 0.8571232642689482 0.0
      vertex 1.9566965435920092 0.5365659662889081 0.0
    endloop
  endfacet
  facet normal -0.0 0.0 -1.0
    outer loop
      vertex 2.8557870956832163 0.025446395188338192 0.0
      vertex 2.1442129043167912 0.025446395188336933 0.0
      vertex 2.480435455297506 0.563967840537265 0.0
    endloop
  endfacet
  facet normal 0.0 0.0 -1.0
    outer loop
      vertex 2.480435455297506 0.563967840537265 0.0
      vertex 2.1442129043167912 0.025446395188336933 0.0
      vertex 1.9566965435920092 0.5365659662889081 0.0
    endloop
  endfacet
  facet normal -0.0 0.0 -1.0
    outer loop
      vertex 3.538537532504719 0.22592001150437563 0.0
      vertex 2.8557870956832163 0.025446395188338192 0.0
      vertex 3.0044245029709415 0.5312490320507818 0.0
    endloop
  endfacet
  facet normal 0.0 0.0 -1.0
    outer loop
      vertex 2.8557870956832163 0.025446395188338192 0.0
      vertex 2.480435455297506 0.563967840537265 0.0
      vertex 3.0044245029709415 0.5312490320507818 0.0
    endloop
  endfacet
  facet normal -0.0 0.0 -1.0
    outer loop
      vertex 4.137151834863213 0.6106260640050245 0.0
      vertex 3.538537532504719 0.22592001150437563 0.0
      vertex 3.405698098979878 0.8710858114013201 0.0
    endloop
  endfacet
  facet normal 0.0 -0.0 -1.0
    outer loop
      vertex 3.405698098979878 0.8710858114013201 0.0
      vertex 3.538537532504719 0.22592001150437563 0.0
      vertex 3.0044245029709415 0.5312490320507818 0.0
    endloop
  endfacet
  facet normal -0.0 0.0 -1.0
    outer loop
      vertex 4.603133832077954 1.1483979562516777 0.0
      vertex 4.137151834863213 0.6106260640050245 0.0
      vertex 3.8742610283853938 1.2911441762089728 0.0
    endloop
  endfacet
  facet normal 0.0 -0.0 -1.0
    outer loop
      vertex 3.8742610283853938 1.2911441762089728 0.0
      vertex 4.137151834863213 0.6106260640050245 0.0
      vertex 3.405698098979878 0.8710858114013201 0.0
    endloop
  endfacet
  facet normal 0.0 0.0 -1.0
    outer loop
      vertex 4.898732434036243 1.7956686077870956 0.0
      vertex 4.603133832077954 1.1483979562516777 0.0
      vertex 4.339397338834176 1.6599753818805822 0.0
    endloop
  endfacet
  facet normal 0.0 0.0 -1.0
    outer loop
      vertex 4.603133832077954 1.1483979562516777 0.0
      vertex 3.8742610283853938 1.2911441762089728 0.0
      vertex 4.339397338834176 1.6599753818805822 0.0
    endloop
  endfacet
  facet normal 0.0 -0.0 -1.0
    outer loop
      vertex 4.339397339330333 2.2355345884628615 0.0
      vertex 4.898732434036243 1.7956686077870956 0.0
      vertex 4.339397338834176 1.6599753818805822 0.0
    endloop
  endfacet
  facet normal 0.0 0.0 -1.0
    outer loop
      vertex 4.476035753741097 2.7835154321284463 0.0
      vertex 4.339397339330333 2.2355345884628615 0.0
      vertex 3.8811146086273003 2.7139800854094758 0.0
    endloop
  endfacet
  facet normal 0.0 -0.0 -1.0
    outer loop
      vertex 3.8811146086273003 2.7139800854094758 0.0
      vertex 4.339397339330333 2.2355345884628615 0.0
      vertex 3.676802177123215 1.9981243077423785 0.0
    endloop
  endfacet
  facet normal 0.0 0.0 -1.0
    outer loop
      vertex 3.676802177123215 1.9981243077423785 0.0
      vertex 4.339397339330333 2.2355345884628615 0.0
      vertex 4.339397338834176 1.6599753818805822 0.0
    endloop
  endfacet
  facet normal -0.0 0.0 -1.0
    outer loop
      vertex 1.249359836879638 3.2305024353709606 0.0
      vertex 0.6513479887185036 2.7938181104297897 0.0
      vertex 0.6724730824048445 3.372495601337829 0.0
    endloop
  endfacet
  facet normal 0.0 0.0 -1.0
    outer loop
      vertex 0.6513479887185036 2.7938181104297897 0.0
      vertex 1.249359836879638 3.2305024353709606 0.0
      vertex 1.1380824118978334 2.6131715501380253 0.0
    endloop
  endfacet
  facet normal 0.0 -0.0 -1.0
    outer loop
      vertex 0.6513479887185036 2.7938181104297897 0.0
      vertex 1.1380824118978334 2.6131715501380253 0.0
      vertex 0.6409486279143488 2.242613727041429 0.0
    endloop
  endfacet
  facet normal 0.0 -0.0 -1.0
    outer loop
      vertex 2.1357530755368708 1.0103723199456167 0.0
      vertex 2.480435455297506 0.563967840537265 0.0
      vertex 1.9566965435920092 0.5365659662889081 0.0
    endloop
  endfacet
  facet normal 0.0 0.0 -1.0
    outer loop
      vertex 2.480435455297506 0.563967840537265 0.0
      vertex 2.1357530755368708 1.0103723199456167 0.0
      vertex 2.763990802556549 0.9998397910738132 0.0
    endloop
  endfacet
  facet normal 0.0 0.0 -1.0
    outer loop
      vertex 3.0044245029709415 0.5312490320507818 0.0
      vertex 2.480435455297506 0.563967840537265 0.0
      vertex 2.763990802556549 0.9998397910738132 0.0
    endloop
  endfacet
  facet normal 0.0 0.0 -1.0
    outer loop
      vertex 2.3681275663743575 4.003255121056834 0.0
      vertex 2.988856225896685 4.362503936777418 0.0
      vertex 3.1528593804235214 3.7841999999490166 0.0
    endloop
  endfacet
  facet normal -0.0 0.0 -1.0
    outer loop
      vertex 2.988856225896685 4.362503936777418 0.0
      vertex 2.3681275663743575 4.003255121056834 0.0
      vertex 2.483564343839592 4.561788225317729 0.0
    endloop
  endfacet
  facet normal 0.0 0.0 -1.0
    outer loop
      vertex 3.1528593804235214 3.7841999999490166 0.0
      vertex 2.988856225896685 4.362503936777418 0.0
      vertex 3.5338257247529037 4.220904666063605 0.0
    endloop
  endfacet
  facet normal 0.0 0.0 -1.0
    outer loop
      vertex 1.0955812866562478 1.2830642574225213 0.0
      vertex 1.2846404247028482 2.043871450663264 0.0
      vertex 1.7605442029083782 1.4743463336979086 0.0
    endloop
  endfacet
  facet normal 0.0 0.0 -1.0
    outer loop
      vertex 1.2846404247028482 2.043871450663264 0.0
      vertex 1.0955812866562478 1.2830642574225213 0.0
      vertex 0.6703533762031506 1.7091526433397413 0.0
    endloop
  endfacet
  facet normal 0.0 0.0 -1.0
    outer loop
      vertex 1.0955812866562478 1.2830642574225213 0.0
      vertex 1.7605442029083782 1.4743463336979086 0.0
      vertex 1.5616188153135888 0.8571232642689482 0.0
    endloop
  endfacet
  facet normal 0.0 -0.0 -1.0
    outer loop
      vertex 1.5269134409218412 4.0437420448520385 0.0
      vertex 2.0341640551824747 3.3431328389158477 0.0
      vertex 1.249359836879638 3.2305024353709606 0.0
    endloop
  endfacet
  facet normal 0.0 0.0 -1.0
    outer loop
      vertex 2.0341640551824747 3.3431328389158477 0.0
      vertex 1.5269134409218412 4.0437420448520385 0.0
      vertex 2.3681275663743575 4.003255121056834 0.0
    endloop
  endfacet
  facet normal 0.0 0.0 -1.0
    outer loop
      vertex 1.5269134409218412 4.0437420448520385 0.0
      vertex 1.249359836879638 3.2305024353709606 0.0
      vertex 0.9635238525402827 3.7822240253645023 0.0
    endloop
  endfacet
  facet normal 0.0 0.0 -1.0
    outer loop
      vertex 2.3681275663743575 4.003255121056834 0.0
      vertex 1.5269134409218412 4.0437420448520385 0.0
      vertex 1.9741883904806132 4.474987880799086 0.0
    endloop
  endfacet
  facet normal 0.0 -0.0 -1.0
    outer loop
      vertex 4.190380305959148 3.2719708192597436 0.0
      vertex 4.476035753741097 2.7835154321284463 0.0
      vertex 3.8811146086273003 2.7139800854094758 0.0
    endloop
  endfacet
  facet normal 0.0 0.0 -1.0
    outer loop
      vertex 4.190380305959148 3.2719708192597436 0.0
      vertex 3.8811146086273003 2.7139800854094758 0.0
      vertex 3.4911850058102774 3.2704271508602174 0.0
    endloop
  endfacet
  facet normal -0.0 0.0 -1.0
    outer loop
      vertex 4.190380305959148 3.2719708192597436 0.0
      vertex 3.4911850058102774 3.2704271508602174 0.0
      vertex 3.851723650076388 3.7943654695383104 0.0
    endloop
  endfacet
  facet normal 0.0 0.0 -1.0
    outer loop
      vertex 3.8742610283853938 1.2911441762089728 0.0
      vertex 3.1428946229869044 1.4795149339552522 0.0
      vertex 3.676802177123215 1.9981243077423785 0.0
    endloop
  endfacet
  facet normal 0.0 0.0 -1.0
    outer loop
      vertex 3.1428946229869044 1.4795149339552522 0.0
      vertex 3.8742610283853938 1.2911441762089728 0.0
      vertex 3.405698098979878 0.8710858114013201 0.0
    endloop
  endfacet
  facet normal 0.0 0.0 -1.0
    outer loop
      vertex 3.8742610283853938 1.2911441762089728 0.0
      vertex 3.676802177123215 1.9981243077423785 0.0
      vertex 4.339397338834176 1.6599753818805822 0.0
    endloop
  endfacet
  facet normal 0.0 -0.0 -1.0
    outer loop
      vertex 3.4911850058102774 3.2704271508602174 0.0
      vertex 3.8811146086273003 2.7139800854094758 0.0
      vertex 3.1639582397964108 2.680871735675924 0.0
    endloop
  endfacet
  facet normal 0.0 0.0 -1.0
    outer loop
      vertex 3.1639582397964108 2.680871735675924 0.0
      vertex 3.8811146086273003 2.7139800854094758 0.0
      vertex 3.676802177123215 1.9981243077423785 0.0
    endloop
  endfacet
  facet normal -0.0 0.0 -1.0
    outer loop
      vertex 3.4911850058102774 3.2704271508602174 0.0
      vertex 3.1639582397964108 2.680871735675924 0.0
      vertex 2.754965617767821 3.298687431404758 0.0
    endloop
  endfacet
  facet normal 0.0 0.0 -1.0
    outer loop
      vertex 3.4911850058102774 3.2704271508602174 0.0
      vertex 2.754965617767821 3.298687431404758 0.0
      vertex 3.1528593804235214 3.7841999999490166 0.0
    endloop
  endfacet
  facet normal 0.0 0.0 -1.0
    outer loop
      vertex 3.851723650076388 3.7943654695383104 0.0
      vertex 3.4911850058102774 3.2704271508602174 0.0
      vertex 3.1528593804235214 3.7841999999490166 0.0
    endloop
  endfacet
  facet normal 0.0 -0.0 -1.0
    outer loop
      vertex 2.754965617767821 3.298687431404758 0.0
      vertex 3.1639582397964108 2.680871735675924 0.0
      vertex 2.412041526187154 2.7001960361894444 0.0
    endloop
  endfacet
  facet normal 0.0 0.0 -1.0
    outer loop
      vertex 2.412041526187154 2.7001960361894444 0.0
      vertex 3.1639582397964108 2.680871735675924 0.0
      vertex 2.764411835207392 2.0789475481098973 0.0
    endloop
  endfacet
  facet normal 0.0 0.0 -1.0
    outer loop
      vertex 2.764411835207392 2.0789475481098973 0.0
      vertex 3.1639582397964108 2.680871735675924 0.0
      vertex 3.676802177123215 1.9981243077423785 0.0
    endloop
  endfacet
  facet normal -0.0 0.0 -1.0
    outer loop
      vertex 2.754965617767821 3.298687431404758 0.0
      vertex 2.412041526187154 2.7001960361894444 0.0
      vertex 2.0341640551824747 3.3431328389158477 0.0
    endloop
  endfacet
  facet normal 0.0 0.0 -1.0
    outer loop
      vertex 2.754965617767821 3.298687431404758 0.0
      vertex 2.0341640551824747 3.3431328389158477 0.0
      vertex 2.3681275663743575 4.003255121056834 0.0
    endloop
  endfacet
  facet normal 0.0 0.0 -1.0
    outer loop
      vertex 2.754965617767821 3.298687431404758 0.0
      vertex 2.3681275663743575 4.003255121056834 0.0
      vertex 3.1528593804235214 3.7841999999490166 0.0
    endloop
  endfacet
  facet normal 0.0 -0.0 -1.0
    outer loop
      vertex 2.412041526187154 2.7001960361894444 0.0
      vertex 2.764411835207392 2.0789475481098973 0.0
      vertex 2.051940480507297 2.0976044071885527 0.0
    endloop
  endfacet
  facet normal 0.0 0.0 -1.0
    outer loop
      vertex 2.412041526187154 2.7001960361894444 0.0
      vertex 2.051940480507297 2.0976044071885527 0.0
      vertex 1.7300321576777267 2.6978028741342066 0.0
    endloop
  endfacet
  facet normal -0.0 0.0 -1.0
    outer loop
      vertex 2.412041526187154 2.7001960361894444 0.0
      vertex 1.7300321576777267 2.6978028741342066 0.0
      vertex 2.0341640551824747 3.3431328389158477 0.0
    endloop
  endfacet
  facet normal 0.0 0.0 -1.0
    outer loop
      vertex 2.051940480507297 2.0976044071885527 0.0
      vertex 2.764411835207392 2.0789475481098973 0.0
      vertex 2.4147390595671943 1.5428488085526448 0.0
    endloop
  endfacet
  facet normal 0.0 0.0 -1.0
    outer loop
      vertex 2.4147390595671943 1.5428488085526448 0.0
      vertex 2.764411835207392 2.0789475481098973 0.0
      vertex 3.1428946229869044 1.4795149339552522 0.0
    endloop
  endfacet
  facet normal 0.0 0.0 -1.0
    outer loop
      vertex 3.1428946229869044 1.4795149339552522 0.0
      vertex 2.764411835207392 2.0789475481098973 0.0
      vertex 3.676802177123215 1.9981243077423785 0.0
    endloop
  endfacet
  facet normal 0.0 -0.0 -1.0
    outer loop
      vertex 1.7300321576777267 2.6978028741342066 0.0
      vertex 2.051940480507297 2.0976044071885527 0.0
      vertex 1.2846404247028482 2.043871450663264 0.0
    endloop
  endfacet
  facet normal 0.0 0.0 -1.0
    outer loop
      vertex 1.2846404247028482 2.043871450663264 0.0
      vertex 2.051940480507297 2.0976044071885527 0.0
      vertex 1.7605442029083782 1.4743463336979086 0.0
    endloop
  endfacet
  facet normal 0.0 -0.0 -1.0
    outer loop
      vertex 2.051940480507297 2.0976044071885527 0.0
      vertex 2.4147390595671943 1.5428488085526448 0.0
      vertex 1.7605442029083782 1.4743463336979086 0.0
    endloop
  endfacet
  facet normal 0.0 0.0 -1.0
    outer loop
      vertex 1.7300321576777267 2.6978028741342066 0.0
      vertex 1.2846404247028482 2.043871450663264 0.0
      vertex 1.1380824118978334 2.6131715501380253 0.0
    endloop
  endfacet
  facet normal 0.0 0.0 -1.0
    outer loop
      vertex 2.0341640551824747 3.3431328389158477 0.0
      vertex 1.7300321576777267 2.6978028741342066 0.0
      vertex 1.249359836879638 3.2305024353709606 0.0
    endloop
  endfacet
  facet normal 0.0 -0.0 -1.0
    outer loop
      vertex 1.249359836879638 3.2305024353709606 0.0
      vertex 1.7300321576777267 2.6978028741342066 0.0
      vertex 1.1380824118978334 2.6131715501380253 0.0
    endloop
  endfacet
  facet normal -0.0 0.0 -1.0
    outer loop
      vertex 1.2846404247028482 2.043871450663264 0.0
      vertex 0.6703533762031506 1.7091526433397413 0.0
      vertex 0.6409486279143488 2.242613727041429 0.0
    endloop
  endfacet
  facet normal 0.0 -0.0 -1.0
    outer loop
      vertex 1.1380824118978334 2.6131715501380253 0.0
      vertex 1.2846404247028482 2.043871450663264 0.0
      vertex 0.6409486279143488 2.242613727041429 0.0
    endloop
  endfacet
  facet normal 0.0 0.0 -1.0
    outer loop
      vertex 2.4147390595671943 1.5428488085526448 0.0
      vertex 3.1428946229869044 1.4795149339552522 0.0
      vertex 2.763990802556549 0.9998397910738132 0.0
    endloop
  endfacet
  facet normal 0.0 0.0 -1.0
    outer loop
      vertex 1.7605442029083782 1.4743463336979086 0.0
      vertex 2.4147390595671943 1.5428488085526448 0.0
      vertex 2.1357530755368708 1.0103723199456167 0.0
    endloop
  endfacet
  facet normal 0.0 0.0 -1.0
    outer loop
      vertex 2.1357530755368708 1.0103723199456167 0.0
      vertex 2.4147390595671943 1.5428488085526448 0.0
      vertex 2.763990802556549 0.9998397910738132 0.0
    endloop
  endfacet
  facet normal 0.0 -0.0 -1.0
    outer loop
      vertex 3.1428946229869044 1.4795149339552522 0.0
      vertex 3.405698098979878 0.8710858114013201 0.0
      vertex 2.763990802556549 0.9998397910738132 0.0
    endloop
  endfacet
  facet normal 0.0 -0.0 -1.0
    outer loop
      vertex 0.9635238525402827 3.7822240253645023 0.0
      vertex 1.249359836879638 3.2305024353709606 0.0
      vertex 0.6724730824048445 3.372495601337829 0.0
    endloop
  endfacet
  facet normal 0.0 0.0 -1.0
    outer loop
      vertex 2.483564343839592 4.561788225317729 0.0
      vertex 2.3681275663743575 4.003255121056834 0.0
      vertex 1.9741883904806132 4.474987880799086 0.0
    endloop
  endfacet
  facet normal 0.0 0.0 -1.0
    outer loop
      vertex 1.5616188153135888 0.8571232642689482 0.0
      vertex 1.7605442029083782 1.4743463336979086 0.0
      vertex 2.1357530755368708 1.0103723199456167 0.0
    endloop
  endfacet
  facet normal -0.0 0.0 -1.0
    outer loop
      vertex 3.405698098979878 0.8710858114013201 0.0
      vertex 3.0044245029709415 0.5312490320507818 0.0
      vertex 2.763990802556549 0.9998397910738132 0.0
    endloop
  endfacet
  facet normal 0.0 0.0 -1.0
    outer loop
      vertex 1.5616188153135888 0.8571232642689482 0.0
      vertex 2.1357530755368708 1.0103723199456167 0.0
      vertex 1.9566965435920092 0.5365659662889081 0.0
    endloop
  endfacet
  facet normal -0.0 0.0 -1.0
    outer loop
      vertex 3.851723650076388 3.7943654695383104 0.0
      vertex 3.1528593804235214 3.7841999999490166 0.0
      vertex 3.5338257247529037 4.220904666063605 0.0
    endloop
  endfacet
  facet normal 0.0 0.0 1.0
    outer loop
      vertex 4.898732434036243 3.204331391994245 1.150191430617295
      vertex 4.476035753741097 2.7835154321284463 1.150191430617295
      vertex 4.999999995436125 2.49999999989067 1.150191430617295
    endloop
  endfacet
  facet normal 0.0 0.0 1.0
    outer loop
      vertex 4.999999995436125 2.49999999989067 1.150191430617295
      vertex 4.339397339330333 2.2355345884628615 1.150191430617295
      vertex 4.898732434036243 1.7956686077870956 1.150191430617295
    endloop
  endfacet
  facet normal 0.0 0.0 1.0
    outer loop
      vertex 4.999999995436125 2.49999999989067 1.150191430617295
      vertex 4.476035753741097 2.7835154321284463 1.150191430617295
      vertex 4.339397339330333 2.2355345884628615 1.150191430617295
    endloop
  endfacet
  facet normal 0.0 0.0 1.0
    outer loop
      vertex 4.603133832077951 3.8516020435296654 1.150191430617295
      vertex 4.190380305959148 3.2719708192597436 1.150191430617295
      vertex 4.898732434036243 3.204331391994245 1.150191430617295
    endloop
  endfacet
  facet normal 0.0 0.0 1.0
    outer loop
      vertex 4.190380305959148 3.2719708192597436 1.150191430617295
      vertex 4.476035753741097 2.7835154321284463 1.150191430617295
      vertex 4.898732434036243 3.204331391994245 1.150191430617295
    endloop
  endfacet
  facet normal 0.0 0.0 1.0
    outer loop
      vertex 4.137151834863211 4.389373935776318 1.150191430617295
      vertex 3.851723650076388 3.7943654695383104 1.150191430617295
      vertex 4.603133832077951 3.8516020435296654 1.150191430617295
    endloop
  endfacet
  facet normal 0.0 0.0 1.0
    outer loop
      vertex 4.603133832077951 3.8516020435296654 1.150191430617295
      vertex 3.851723650076388 3.7943654695383104 1.150191430617295
      vertex 4.190380305959148 3.2719708192597436 1.150191430617295
    endloop
  endfacet
  facet normal 0.0 0.0 1.0
    outer loop
      vertex 3.5385375325047126 4.7740799882769664 1.150191430617295
      vertex 3.5338257247529037 4.220904666063605 1.150191430617295
      vertex 4.137151834863211 4.389373935776318 1.150191430617295
    endloop
  endfacet
  facet normal 0.0 0.0 1.0
    outer loop
      vertex 4.137151834863211 4.389373935776318 1.150191430617295
      vertex 3.5338257247529037 4.220904666063605 1.150191430617295
      vertex 3.851723650076388 3.7943654695383104 1.150191430617295
    endloop
  endfacet
  facet normal 0.0 0.0 1.0
    outer loop
      vertex 2.855787095683207 4.9745536045930026 1.150191430617295
      vertex 2.988856225896685 4.362503936777418 1.150191430617295
      vertex 3.5385375325047126 4.7740799882769664 1.150191430617295
    endloop
  endfacet
  facet normal -0.0 0.0 1.0
    outer loop
      vertex 2.988856225896685 4.362503936777418 1.150191430617295
      vertex 3.5338257247529037 4.220904666063605 1.150191430617295
      vertex 3.5385375325047126 4.7740799882769664 1.150191430617295
    endloop
  endfacet
  facet normal -0.0 0.0 1.0
    outer loop
      vertex 2.1442129043167797 4.974553604593001 1.150191430617295
      vertex 2.483564343839592 4.561788225317729 1.150191430617295
      vertex 2.855787095683207 4.9745536045930026 1.150191430617295
    endloop
  endfacet
  facet normal 0.0 0.0 1.0
    outer loop
      vertex 2.855787095683207 4.9745536045930026 1.150191430617295
      vertex 2.483564343839592 4.561788225317729 1.150191430617295
      vertex 2.988856225896685 4.362503936777418 1.150191430617295
    endloop
  endfacet
  facet normal -0.0 0.0 1.0
    outer loop
      vertex 1.4614624674952745 4.774079988276963 1.150191430617295
      vertex 1.9741883904806132 4.474987880799086 1.150191430617295
      vertex 2.1442129043167797 4.974553604593001 1.150191430617295
    endloop
  endfacet
  facet normal 0.0 0.0 1.0
    outer loop
      vertex 2.1442129043167797 4.974553604593001 1.150191430617295
      vertex 1.9741883904806132 4.474987880799086 1.150191430617295
      vertex 2.483564343839592 4.561788225317729 1.150191430617295
    endloop
  endfacet
  facet normal -0.0 0.0 1.0
    outer loop
      vertex 0.86284816513678 4.389373935776309 1.150191430617295
      vertex 1.5269134409218412 4.0437420448520385 1.150191430617295
      vertex 1.4614624674952745 4.774079988276963 1.150191430617295
    endloop
  endfacet
  facet normal 0.0 -0.0 1.0
    outer loop
      vertex 1.5269134409218412 4.0437420448520385 1.150191430617295
      vertex 1.9741883904806132 4.474987880799086 1.150191430617295
      vertex 1.4614624674952745 4.774079988276963 1.150191430617295
    endloop
  endfacet
  facet normal -0.0 0.0 1.0
    outer loop
      vertex 0.3968661679220426 3.851602043529656 1.150191430617295
      vertex 0.9635238525402827 3.7822240253645023 1.150191430617295
      vertex 0.86284816513678 4.389373935776309 1.150191430617295
    endloop
  endfacet
  facet normal 0.0 0.0 1.0
    outer loop
      vertex 0.86284816513678 4.389373935776309 1.150191430617295
      vertex 0.9635238525402827 3.7822240253645023 1.150191430617295
      vertex 1.5269134409218412 4.0437420448520385 1.150191430617295
    endloop
  endfacet
  facet normal 0.0 0.0 1.0
    outer loop
      vertex 0.1012675659637546 3.2043313919942364 1.150191430617295
      vertex 0.6724730824048445 3.372495601337829 1.150191430617295
      vertex 0.3968661679220426 3.851602043529656 1.150191430617295
    endloop
  endfacet
  facet normal 0.0 0.0 1.0
    outer loop
      vertex 0.3968661679220426 3.851602043529656 1.150191430617295
      vertex 0.6724730824048445 3.372495601337829 1.150191430617295
      vertex 0.9635238525402827 3.7822240253645023 1.150191430617295
    endloop
  endfacet
  facet normal 0.0 0.0 1.0
    outer loop
      vertex 0.0 2.4999999998906626 1.150191430617295
      vertex 0.6513479887185036 2.7938181104297897 1.150191430617295
      vertex 0.1012675659637546 3.2043313919942364 1.150191430617295
    endloop
  endfacet
  facet normal 0.0 -0.0 1.0
    outer loop
      vertex 0.6513479887185036 2.7938181104297897 1.150191430617295
      vertex 0.6724730824048445 3.372495601337829 1.150191430617295
      vertex 0.1012675659637546 3.2043313919942364 1.150191430617295
    endloop
  endfacet
  facet normal 0.0 -0.0 1.0
    outer loop
      vertex 0.10126756596375795 1.7956686077870903 1.150191430617295
      vertex 0.6409486279143488 2.242613727041429 1.150191430617295
      vertex 0.0 2.4999999998906626 1.150191430617295
    endloop
  endfacet
  facet normal -0.0 0.0 1.0
    outer loop
      vertex 0.0 2.4999999998906626 1.150191430617295
      vertex 0.6409486279143488 2.242613727041429 1.150191430617295
      vertex 0.6513479887185036 2.7938181104297897 1.150191430617295
    endloop
  endfacet
  facet normal 0.0 -0.0 1.0
    outer loop
      vertex 0.3968661679220497 1.1483979562516706 1.150191430617295
      vertex 0.6703533762031506 1.7091526433397413 1.150191430617295
      vertex 0.10126756596375795 1.7956686077870903 1.150191430617295
    endloop
  endfacet
  facet normal 0.0 0.0 1.0
    outer loop
      vertex 0.6703533762031506 1.7091526433397413 1.150191430617295
      vertex 0.6409486279143488 2.242613727041429 1.150191430617295
      vertex 0.10126756596375795 1.7956686077870903 1.150191430617295
    endloop
  endfacet
  facet normal 0.0 -0.0 1.0
    outer loop
      vertex 0.8628481651367907 0.610626064005021 1.150191430617295
      vertex 1.0955812866562478 1.2830642574225213 1.150191430617295
      vertex 0.3968661679220497 1.1483979562516706 1.150191430617295
    endloop
  endfacet
  facet normal 0.0 0.0 1.0
    outer loop
      vertex 1.0955812866562478 1.2830642574225213 1.150191430617295
      vertex 0.6703533762031506 1.7091526433397413 1.150191430617295
      vertex 0.3968661679220497 1.1483979562516706 1.150191430617295
    endloop
  endfacet
  facet normal 0.0 -0.0 1.0
    outer loop
      vertex 1.4614624674952883 0.22592001150437185 1.150191430617295
      vertex 1.5616188153135888 0.8571232642689482 1.150191430617295
      vertex 0.8628481651367907 0.610626064005021 1.150191430617295
    endloop
  endfacet
  facet normal 0.0 0.0 1.0
    outer loop
      vertex 0.8628481651367907 0.610626064005021 1.150191430617295
      vertex 1.5616188153135888 0.8571232642689482 1.150191430617295
      vertex 1.0955812866562478 1.2830642574225213 1.150191430617295
    endloop
  endfacet
  facet normal 0.0 0.0 1.0
    outer loop
      vertex 2.1442129043167912 0.025446395188336933 1.150191430617295
      vertex 1.9566965435920092 0.5365659662889081 1.150191430617295
      vertex 1.4614624674952883 0.22592001150437185 1.150191430617295
    endloop
  endfacet
  facet normal 0.0 0.0 1.0
    outer loop
      vertex 1.4614624674952883 0.22592001150437185 1.150191430617295
      vertex 1.9566965435920092 0.5365659662889081 1.150191430617295
      vertex 1.5616188153135888 0.8571232642689482 1.150191430617295
    endloop
  endfacet
  facet normal 0.0 0.0 1.0
    outer loop
      vertex 2.8557870956832163 0.025446395188338192 1.150191430617295
      vertex 2.480435455297506 0.563967840537265 1.150191430617295
      vertex 2.1442129043167912 0.025446395188336933 1.150191430617295
    endloop
  endfacet
  facet normal 0.0 0.0 1.0
    outer loop
      vertex 2.480435455297506 0.563967840537265 1.150191430617295
      vertex 1.9566965435920092 0.5365659662889081 1.150191430617295
      vertex 2.1442129043167912 0.025446395188336933 1.150191430617295
    endloop
  endfacet
  facet normal 0.0 0.0 1.0
    outer loop
      vertex 3.538537532504719 0.22592001150437563 1.150191430617295
      vertex 3.0044245029709415 0.5312490320507818 1.150191430617295
      vertex 2.8557870956832163 0.025446395188338192 1.150191430617295
    endloop
  endfacet
  facet normal 0.0 -0.0 1.0
    outer loop
      vertex 2.8557870956832163 0.025446395188338192 1.150191430617295
      vertex 3.0044245029709415 0.5312490320507818 1.150191430617295
      vertex 2.480435455297506 0.563967840537265 1.150191430617295
    endloop
  endfacet
  facet normal 0.0 0.0 1.0
    outer loop
      vertex 4.137151834863213 0.6106260640050245 1.150191430617295
      vertex 3.405698098979878 0.8710858114013201 1.150191430617295
      vertex 3.538537532504719 0.22592001150437563 1.150191430617295
    endloop
  endfacet
  facet normal 0.0 0.0 1.0
    outer loop
      vertex 3.405698098979878 0.8710858114013201 1.150191430617295
      vertex 3.0044245029709415 0.5312490320507818 1.150191430617295
      vertex 3.538537532504719 0.22592001150437563 1.150191430617295
    endloop
  endfacet
  facet normal 0.0 0.0 1.0
    outer loop
      vertex 4.603133832077954 1.1483979562516777 1.150191430617295
      vertex 3.8742610283853938 1.2911441762089728 1.150191430617295
      vertex 4.137151834863213 0.6106260640050245 1.150191430617295
    endloop
  endfacet
  facet normal 0.0 0.0 1.0
    outer loop
      vertex 3.8742610283853938 1.2911441762089728 1.150191430617295
      vertex 3.405698098979878 0.8710858114013201 1.150191430617295
      vertex 4.137151834863213 0.6106260640050245 1.150191430617295
    endloop
  endfacet
  facet normal 0.0 0.0 1.0
    outer loop
      vertex 4.898732434036243 1.7956686077870956 1.150191430617295
      vertex 4.339397338834176 1.6599753818805822 1.150191430617295
      vertex 4.603133832077954 1.1483979562516777 1.150191430617295
    endloop
  endfacet
  facet normal 0.0 0.0 1.0
    outer loop
      vertex 4.603133832077954 1.1483979562516777 1.150191430617295
      vertex 4.339397338834176 1.6599753818805822 1.150191430617295
      vertex 3.8742610283853938 1.2911441762089728 1.150191430617295
    endloop
  endfacet
  facet normal 0.0 0.0 1.0
    outer loop
      vertex 4.339397339330333 2.2355345884628615 1.150191430617295
      vertex 4.339397338834176 1.6599753818805822 1.150191430617295
      vertex 4.898732434036243 1.7956686077870956 1.150191430617295
    endloop
  endfacet
  facet normal 0.0 0.0 1.0
    outer loop
      vertex 4.476035753741097 2.7835154321284463 1.150191430617295
      vertex 3.8811146086273003 2.7139800854094758 1.150191430617295
      vertex 4.339397339330333 2.2355345884628615 1.150191430617295
    endloop
  endfacet
  facet normal 0.0 0.0 1.0
    outer loop
      vertex 3.8811146086273003 2.7139800854094758 1.150191430617295
      vertex 3.676802177123215 1.9981243077423785 1.150191430617295
      vertex 4.339397339330333 2.2355345884628615 1.150191430617295
    endloop
  endfacet
  facet normal -0.0 0.0 1.0
    outer loop
      vertex 3.676802177123215 1.9981243077423785 1.150191430617295
      vertex 4.339397338834176 1.6599753818805822 1.150191430617295
      vertex 4.339397339330333 2.2355345884628615 1.150191430617295
    endloop
  endfacet
  facet normal 0.0 0.0 1.0
    outer loop
      vertex 1.249359836879638 3.2305024353709606 1.150191430617295
      vertex 0.6724730824048445 3.372495601337829 1.150191430617295
      vertex 0.6513479887185036 2.7938181104297897 1.150191430617295
    endloop
  endfacet
  facet normal -0.0 0.0 1.0
    outer loop
      vertex 0.6513479887185036 2.7938181104297897 1.150191430617295
      vertex 1.1380824118978334 2.6131715501380253 1.150191430617295
      vertex 1.249359836879638 3.2305024353709606 1.150191430617295
    endloop
  endfacet
  facet normal 0.0 0.0 1.0
    outer loop
      vertex 0.6513479887185036 2.7938181104297897 1.150191430617295
      vertex 0.6409486279143488 2.242613727041429 1.150191430617295
      vertex 1.1380824118978334 2.6131715501380253 1.150191430617295
    endloop
  endfacet
  facet normal 0.0 0.0 1.0
    outer loop
      vertex 2.1357530755368708 1.0103723199456167 1.150191430617295
      vertex 1.9566965435920092 0.5365659662889081 1.150191430617295
      vertex 2.480435455297506 0.563967840537265 1.150191430617295
    endloop
  endfacet
  facet normal 0.0 -0.0 1.0
    outer loop
      vertex 2.480435455297506 0.563967840537265 1.150191430617295
      vertex 2.763990802556549 0.9998397910738132 1.150191430617295
      vertex 2.1357530755368708 1.0103723199456167 1.150191430617295
    endloop
  endfacet
  facet normal 0.0 0.0 1.0
    outer loop
      vertex 3.0044245029709415 0.5312490320507818 1.150191430617295
      vertex 2.763990802556549 0.9998397910738132 1.150191430617295
      vertex 2.480435455297506 0.563967840537265 1.150191430617295
    endloop
  endfacet
  facet normal -0.0 0.0 1.0
    outer loop
      vertex 2.3681275663743575 4.003255121056834 1.150191430617295
      vertex 3.1528593804235214 3.7841999999490166 1.150191430617295
      vertex 2.988856225896685 4.362503936777418 1.150191430617295
    endloop
  endfacet
  facet normal 0.0 0.0 1.0
    outer loop
      vertex 2.988856225896685 4.362503936777418 1.150191430617295
      vertex 2.483564343839592 4.561788225317729 1.150191430617295
      vertex 2.3681275663743575 4.003255121056834 1.150191430617295
    endloop
  endfacet
  facet normal 0.0 -0.0 1.0
    outer loop
      vertex 3.1528593804235214 3.7841999999490166 1.150191430617295
      vertex 3.5338257247529037 4.220904666063605 1.150191430617295
      vertex 2.988856225896685 4.362503936777418 1.150191430617295
    endloop
  endfacet
  facet normal 0.0 0.0 1.0
    outer loop
      vertex 1.0955812866562478 1.2830642574225213 1.150191430617295
      vertex 1.7605442029083782 1.4743463336979086 1.150191430617295
      vertex 1.2846404247028482 2.043871450663264 1.150191430617295
    endloop
  endfacet
  facet normal 0.0 0.0 1.0
    outer loop
      vertex 1.2846404247028482 2.043871450663264 1.150191430617295
      vertex 0.6703533762031506 1.7091526433397413 1.150191430617295
      vertex 1.0955812866562478 1.2830642574225213 1.150191430617295
    endloop
  endfacet
  facet normal -0.0 0.0 1.0
    outer loop
      vertex 1.0955812866562478 1.2830642574225213 1.150191430617295
      vertex 1.5616188153135888 0.8571232642689482 1.150191430617295
      vertex 1.7605442029083782 1.4743463336979086 1.150191430617295
    endloop
  endfacet
  facet normal 0.0 0.0 1.0
    outer loop
      vertex 1.5269134409218412 4.0437420448520385 1.150191430617295
      vertex 1.249359836879638 3.2305024353709606 1.150191430617295
      vertex 2.0341640551824747 3.3431328389158477 1.150191430617295
    endloop
  endfacet
  facet normal 0.0 -0.0 1.0
    outer loop
      vertex 2.0341640551824747 3.3431328389158477 1.150191430617295
      vertex 2.3681275663743575 4.003255121056834 1.150191430617295
      vertex 1.5269134409218412 4.0437420448520385 1.150191430617295
    endloop
  endfacet
  facet normal 0.0 0.0 1.0
    outer loop
      vertex 1.5269134409218412 4.0437420448520385 1.150191430617295
      vertex 0.9635238525402827 3.7822240253645023 1.150191430617295
      vertex 1.249359836879638 3.2305024353709606 1.150191430617295
    endloop
  endfacet
  facet normal 0.0 0.0 1.0
    outer loop
      vertex 2.3681275663743575 4.003255121056834 1.150191430617295
      vertex 1.9741883904806132 4.474987880799086 1.150191430617295
      vertex 1.5269134409218412 4.0437420448520385 1.150191430617295
    endloop
  endfacet
  facet normal 0.0 0.0 1.0
    outer loop
      vertex 4.190380305959148 3.2719708192597436 1.150191430617295
      vertex 3.8811146086273003 2.7139800854094758 1.150191430617295
      vertex 4.476035753741097 2.7835154321284463 1.150191430617295
    endloop
  endfacet
  facet normal 0.0 0.0 1.0
    outer loop
      vertex 4.190380305959148 3.2719708192597436 1.150191430617295
      vertex 3.4911850058102774 3.2704271508602174 1.150191430617295
      vertex 3.8811146086273003 2.7139800854094758 1.150191430617295
    endloop
  endfacet
  facet normal 0.0 0.0 1.0
    outer loop
      vertex 4.190380305959148 3.2719708192597436 1.150191430617295
      vertex 3.851723650076388 3.7943654695383104 1.150191430617295
      vertex 3.4911850058102774 3.2704271508602174 1.150191430617295
    endloop
  endfacet
  facet normal 0.0 0.0 1.0
    outer loop
      vertex 3.8742610283853938 1.2911441762089728 1.150191430617295
      vertex 3.676802177123215 1.9981243077423785 1.150191430617295
      vertex 3.1428946229869044 1.4795149339552522 1.150191430617295
    endloop
  endfacet
  facet normal 0.0 0.0 1.0
    outer loop
      vertex 3.1428946229869044 1.4795149339552522 1.150191430617295
      vertex 3.405698098979878 0.8710858114013201 1.150191430617295
      vertex 3.8742610283853938 1.2911441762089728 1.150191430617295
    endloop
  endfacet
  facet normal 0.0 -0.0 1.0
    outer loop
      vertex 3.8742610283853938 1.2911441762089728 1.150191430617295
      vertex 4.339397338834176 1.6599753818805822 1.150191430617295
      vertex 3.676802177123215 1.9981243077423785 1.150191430617295
    endloop
  endfacet
  facet normal 0.0 0.0 1.0
    outer loop
      vertex 3.4911850058102774 3.2704271508602174 1.150191430617295
      vertex 3.1639582397964108 2.680871735675924 1.150191430617295
      vertex 3.8811146086273003 2.7139800854094758 1.150191430617295
    endloop
  endfacet
  facet normal -0.0 0.0 1.0
    outer loop
      vertex 3.1639582397964108 2.680871735675924 1.150191430617295
      vertex 3.676802177123215 1.9981243077423785 1.150191430617295
      vertex 3.8811146086273003 2.7139800854094758 1.150191430617295
    endloop
  endfacet
  facet normal 0.0 0.0 1.0
    outer loop
      vertex 3.4911850058102774 3.2704271508602174 1.150191430617295
      vertex 2.754965617767821 3.298687431404758 1.150191430617295
      vertex 3.1639582397964108 2.680871735675924 1.150191430617295
    endloop
  endfacet
  facet normal 0.0 0.0 1.0
    outer loop
      vertex 3.4911850058102774 3.2704271508602174 1.150191430617295
      vertex 3.1528593804235214 3.7841999999490166 1.150191430617295
      vertex 2.754965617767821 3.298687431404758 1.150191430617295
    endloop
  endfacet
  facet normal 0.0 0.0 1.0
    outer loop
      vertex 3.851723650076388 3.7943654695383104 1.150191430617295
      vertex 3.1528593804235214 3.7841999999490166 1.150191430617295
      vertex 3.4911850058102774 3.2704271508602174 1.150191430617295
    endloop
  endfacet
  facet normal 0.0 0.0 1.0
    outer loop
      vertex 2.754965617767821 3.298687431404758 1.150191430617295
      vertex 2.412041526187154 2.7001960361894444 1.150191430617295
      vertex 3.1639582397964108 2.680871735675924 1.150191430617295
    endloop
  endfacet
  facet normal 0.0 0.0 1.0
    outer loop
      vertex 2.412041526187154 2.7001960361894444 1.150191430617295
      vertex 2.764411835207392 2.0789475481098973 1.150191430617295
      vertex 3.1639582397964108 2.680871735675924 1.150191430617295
    endloop
  endfacet
  facet normal -0.0 0.0 1.0
    outer loop
      vertex 2.764411835207392 2.0789475481098973 1.150191430617295
      vertex 3.676802177123215 1.9981243077423785 1.150191430617295
      vertex 3.1639582397964108 2.680871735675924 1.150191430617295
    endloop
  endfacet
  facet normal 0.0 0.0 1.0
    outer loop
      vertex 2.754965617767821 3.298687431404758 1.150191430617295
      vertex 2.0341640551824747 3.3431328389158477 1.150191430617295
      vertex 2.412041526187154 2.7001960361894444 1.150191430617295
    endloop
  endfacet
  facet normal 0.0 0.0 1.0
    outer loop
      vertex 2.754965617767821 3.298687431404758 1.150191430617295
      vertex 2.3681275663743575 4.003255121056834 1.150191430617295
      vertex 2.0341640551824747 3.3431328389158477 1.150191430617295
    endloop
  endfacet
  facet normal 0.0 -0.0 1.0
    outer loop
      vertex 2.754965617767821 3.298687431404758 1.150191430617295
      vertex 3.1528593804235214 3.7841999999490166 1.150191430617295
      vertex 2.3681275663743575 4.003255121056834 1.150191430617295
    endloop
  endfacet
  facet normal 0.0 0.0 1.0
    outer loop
      vertex 2.412041526187154 2.7001960361894444 1.150191430617295
      vertex 2.051940480507297 2.0976044071885527 1.150191430617295
      vertex 2.764411835207392 2.0789475481098973 1.150191430617295
    endloop
  endfacet
  facet normal 0.0 0.0 1.0
    outer loop
      vertex 2.412041526187154 2.7001960361894444 1.150191430617295
      vertex 1.7300321576777267 2.6978028741342066 1.150191430617295
      vertex 2.051940480507297 2.0976044071885527 1.150191430617295
    endloop
  endfacet
  facet normal 0.0 0.0 1.0
    outer loop
      vertex 2.412041526187154 2.7001960361894444 1.150191430617295
      vertex 2.0341640551824747 3.3431328389158477 1.150191430617295
      vertex 1.7300321576777267 2.6978028741342066 1.150191430617295
    endloop
  endfacet
  facet normal 0.0 0.0 1.0
    outer loop
      vertex 2.051940480507297 2.0976044071885527 1.150191430617295
      vertex 2.4147390595671943 1.5428488085526448 1.150191430617295
      vertex 2.764411835207392 2.0789475481098973 1.150191430617295
    endloop
  endfacet
  facet normal -0.0 0.0 1.0
    outer loop
      vertex 2.4147390595671943 1.5428488085526448 1.150191430617295
      vertex 3.1428946229869044 1.4795149339552522 1.150191430617295
      vertex 2.764411835207392 2.0789475481098973 1.150191430617295
    endloop
  endfacet
  facet normal 0.0 -0.0 1.0
    outer loop
      vertex 3.1428946229869044 1.4795149339552522 1.150191430617295
      vertex 3.676802177123215 1.9981243077423785 1.150191430617295
      vertex 2.764411835207392 2.0789475481098973 1.150191430617295
    endloop
  endfacet
  facet normal 0.0 0.0 1.0
    outer loop
      vertex 1.7300321576777267 2.6978028741342066 1.150191430617295
      vertex 1.2846404247028482 2.043871450663264 1.150191430617295
      vertex 2.051940480507297 2.0976044071885527 1.150191430617295
    endloop
  endfacet
  facet normal -0.0 0.0 1.0
    outer loop
      vertex 1.2846404247028482 2.043871450663264 1.150191430617295
      vertex 1.7605442029083782 1.4743463336979086 1.150191430617295
      vertex 2.051940480507297 2.0976044071885527 1.150191430617295
    endloop
  endfacet
  facet normal 0.0 0.0 1.0
    outer loop
      vertex 2.051940480507297 2.0976044071885527 1.150191430617295
      vertex 1.7605442029083782 1.4743463336979086 1.150191430617295
      vertex 2.4147390595671943 1.5428488085526448 1.150191430617295
    endloop
  endfacet
  facet normal 0.0 0.0 1.0
    outer loop
      vertex 1.7300321576777267 2.6978028741342066 1.150191430617295
      vertex 1.1380824118978334 2.6131715501380253 1.150191430617295
      vertex 1.2846404247028482 2.043871450663264 1.150191430617295
    endloop
  endfacet
  facet normal 0.0 0.0 1.0
    outer loop
      vertex 2.0341640551824747 3.3431328389158477 1.150191430617295
      vertex 1.249359836879638 3.2305024353709606 1.150191430617295
      vertex 1.7300321576777267 2.6978028741342066 1.150191430617295
    endloop
  endfacet
  facet normal 0.0 0.0 1.0
    outer loop
      vertex 1.249359836879638 3.2305024353709606 1.150191430617295
      vertex 1.1380824118978334 2.6131715501380253 1.150191430617295
      vertex 1.7300321576777267 2.6978028741342066 1.150191430617295
    endloop
  endfacet
  facet normal 0.0 0.0 1.0
    outer loop
      vertex 1.2846404247028482 2.043871450663264 1.150191430617295
      vertex 0.6409486279143488 2.242613727041429 1.150191430617295
      vertex 0.6703533762031506 1.7091526433397413 1.150191430617295
    endloop
  endfacet
  facet normal 0.0 0.0 1.0
    outer loop
      vertex 1.1380824118978334 2.6131715501380253 1.150191430617295
      vertex 0.6409486279143488 2.242613727041429 1.150191430617295
      vertex 1.2846404247028482 2.043871450663264 1.150191430617295
    endloop
  endfacet
  facet normal 0.0 0.0 1.0
    outer loop
      vertex 2.4147390595671943 1.5428488085526448 1.150191430617295
      vertex 2.763990802556549 0.9998397910738132 1.150191430617295
      vertex 3.1428946229869044 1.4795149339552522 1.150191430617295
    endloop
  endfacet
  facet normal -0.0 0.0 1.0
    outer loop
      vertex 1.7605442029083782 1.4743463336979086 1.150191430617295
      vertex 2.1357530755368708 1.0103723199456167 1.150191430617295
      vertex 2.4147390595671943 1.5428488085526448 1.150191430617295
    endloop
  endfacet
  facet normal -0.0 0.0 1.0
    outer loop
      vertex 2.1357530755368708 1.0103723199456167 1.150191430617295
      vertex 2.763990802556549 0.9998397910738132 1.150191430617295
      vertex 2.4147390595671943 1.5428488085526448 1.150191430617295
    endloop
  endfacet
  facet normal 0.0 0.0 1.0
    outer loop
      vertex 3.1428946229869044 1.4795149339552522 1.150191430617295
      vertex 2.763990802556549 0.9998397910738132 1.150191430617295
      vertex 3.405698098979878 0.8710858114013201 1.150191430617295
    endloop
  endfacet
  facet normal 0.0 0.0 1.0
    outer loop
      vertex 0.9635238525402827 3.7822240253645023 1.150191430617295
      vertex 0.6724730824048445 3.372495601337829 1.150191430617295
      vertex 1.249359836879638 3.2305024353709606 1.150191430617295
    endloop
  endfacet
  facet normal 0.0 0.0 1.0
    outer loop
      vertex 2.483564343839592 4.561788225317729 1.150191430617295
      vertex 1.9741883904806132 4.474987880799086 1.150191430617295
      vertex 2.3681275663743575 4.003255121056834 1.150191430617295
    endloop
  endfacet
  facet normal 0.0 0.0 1.0
    outer loop
      vertex 1.5616188153135888 0.8571232642689482 1.150191430617295
      vertex 2.1357530755368708 1.0103723199456167 1.150191430617295
      vertex 1.7605442029083782 1.4743463336979086 1.150191430617295
    endloop
  endfacet
  facet normal 0.0 0.0 1.0
    outer loop
      vertex 3.405698098979878 0.8710858114013201 1.150191430617295
      vertex 2.763990802556549 0.9998397910738132 1.150191430617295
      vertex 3.0044245029709415 0.5312490320507818 1.150191430617295
    endloop
  endfacet
  facet normal -0.0 0.0 1.0
    outer loop
      vertex 1.5616188153135888 0.8571232642689482 1.150191430617295
      vertex 1.9566965435920092 0.5365659662889081 1.150191430617295
      vertex 2.1357530755368708 1.0103723199456167 1.150191430617295
    endloop
  endfacet
  facet normal 0.0 0.0 1.0
    outer loop
      vertex 3.851723650076388 3.7943654695383104 1.150191430617295
      vertex 3.5338257247529037 4.220904666063605 1.150191430617295
      vertex 3.1528593804235214 3.7841999999490166 1.150191430617295
    endloop
  endfacet
endsolid abc_50_005
