solid abc_50_007
  facet normal 0.0 1.0 0.0
    outer loop
      vertex 4.898732434036242 1.5430539436446857 3.2043313921035756
      vertex 4.999999998369806 1.5430539436446857 2.5
      vertex 4.476035753655939 1.5430539436446857 2.7835154322682687
    endloop
  endfacet
  facet normal 0.0 1.0 0.0
    outer loop
      vertex 4.999999998369806 1.5430539436446857 2.5
      vertex 4.898732434036244 1.5430539436446857 1.795668607896428
      vertex 4.339397338972443 1.5430539436446857 2.2355345886236493
    endloop
  endfacet
  facet normal 0.0 1.0 0.0
    outer loop
      vertex 4.999999998369806 1.5430539436446857 2.5
      vertex 4.339397338972443 1.5430539436446857 2.2355345886236493
      vertex 4.476035753655939 1.5430539436446857 2.7835154322682687
    endloop
  endfacet
  facet normal 0.0 1.0 0.0
    outer loop
      vertex 4.60313383207795 1.5430539436446857 3.8516020436389957
      vertex 4.898732434036242 1.5430539436446857 3.2043313921035756
      vertex 4.190380305794697 1.5430539436446857 3.2719708192939727
    endloop
  endfacet
  facet normal 0.0 1.0 0.0
    outer loop
      vertex 4.190380305794697 1.5430539436446857 3.2719708192939727
      vertex 4.898732434036242 1.5430539436446857 3.2043313921035756
      vertex 4.476035753655939 1.5430539436446857 2.7835154322682687
    endloop
  endfacet
  facet normal 0.0 1.0 0.0
    outer loop
      vertex 4.137151834863209 1.5430539436446857 4.389373935885648
      vertex 4.60313383207795 1.5430539436446857 3.8516020436389957
      vertex 3.8517236500541276 1.5430539436446857 3.7943654696838105
    endloop
  endfacet
  facet normal 0.0 1.0 0.0
    outer loop
      vertex 4.60313383207795 1.5430539436446857 3.8516020436389957
      vertex 4.190380305794697 1.5430539436446857 3.2719708192939727
      vertex 3.8517236500541276 1.5430539436446857 3.7943654696838105
    endloop
  endfacet
  facet normal 0.0 1.0 0.0
    outer loop
      vertex 3.53853753250471 1.5430539436446857 4.774079988386297
      vertex 4.137151834863209 1.5430539436446857 4.389373935885648
      vertex 3.5338257247492226 1.5430539436446857 4.220904666221088
    endloop
  endfacet
  facet normal 0.0 1.0 0.0
    outer loop
      vertex 4.137151834863209 1.5430539436446857 4.389373935885648
      vertex 3.8517236500541276 1.5430539436446857 3.7943654696838105
      vertex 3.5338257247492226 1.5430539436446857 4.220904666221088
    endloop
  endfacet
  facet normal 0.0 1.0 0.0
    outer loop
      vertex 2.855787095683205 1.5430539436446857 4.974553604702333
      vertex 3.53853753250471 1.5430539436446857 4.774079988386297
      vertex 2.9888562258924507 1.5430539436446857 4.362503936956903
    endloop
  endfacet
  facet normal -0.0 1.0 0.0
    outer loop
      vertex 2.9888562258924507 1.5430539436446857 4.362503936956903
      vertex 3.53853753250471 1.5430539436446857 4.774079988386297
      vertex 3.5338257247492226 1.5430539436446857 4.220904666221088
    endloop
  endfacet
  facet normal -0.0 1.0 0.0
    outer loop
      vertex 2.144212904316779 1.5430539436446857 4.97455360470233
      vertex 2.855787095683205 1.5430539436446857 4.974553604702333
      vertex 2.483564343832837 1.5430539436446857 4.561788225559185
    endloop
  endfacet
  facet normal 0.0 1.0 0.0
    outer loop
      vertex 2.855787095683205 1.5430539436446857 4.974553604702333
      vertex 2.9888562258924507 1.5430539436446857 4.362503936956903
      vertex 2.483564343832837 1.5430539436446857 4.561788225559185
    endloop
  endfacet
  facet normal -0.0 1.0 0.0
    outer loop
      vertex 1.4614624674952748 1.5430539436446857 4.774079988386291
      vertex 2.144212904316779 1.5430539436446857 4.97455360470233
      vertex 1.9741883904581519 1.5430539436446857 4.474987881028374
    endloop
  endfacet
  facet normal 0.0 1.0 0.0
    outer loop
      vertex 2.144212904316779 1.5430539436446857 4.97455360470233
      vertex 2.483564343832837 1.5430539436446857 4.561788225559185
      vertex 1.9741883904581519 1.5430539436446857 4.474987881028374
    endloop
  endfacet
  facet normal -0.0 1.0 0.0
    outer loop
      vertex 0.8628481651367791 1.5430539436446857 4.389373935885638
      vertex 1.4614624674952748 1.5430539436446857 4.774079988386291
      vertex 1.526913440912997 1.5430539436446857 4.043742045078854
    endloop
  endfacet
  facet normal 0.0 1.0 -0.0
    outer loop
      vertex 1.526913440912997 1.5430539436446857 4.043742045078854
      vertex 1.4614624674952748 1.5430539436446857 4.774079988386291
      vertex 1.9741883904581519 1.5430539436446857 4.474987881028374
    endloop
  endfacet
  facet normal -0.0 1.0 0.0
    outer loop
      vertex 0.3968661679220414 1.5430539436446857 3.8516020436389837
      vertex 0.8628481651367791 1.5430539436446857 4.389373935885638
      vertex 0.9635238525128592 1.5430539436446857 3.782224025673575
    endloop
  endfacet
  facet normal 0.0 1.0 0.0
    outer loop
      vertex 0.8628481651367791 1.5430539436446857 4.389373935885638
      vertex 1.526913440912997 1.5430539436446857 4.043742045078854
      vertex 0.9635238525128592 1.5430539436446857 3.782224025673575
    endloop
  endfacet
  facet normal 0.0 1.0 0.0
    outer loop
      vertex 0.10126756596375383 1.5430539436446857 3.2043313921035637
      vertex 0.3968661679220414 1.5430539436446857 3.8516020436389837
      vertex 0.6724730824027596 1.5430539436446857 3.3724956015453484
    endloop
  endfacet
  facet normal 0.0 1.0 0.0
    outer loop
      vertex 0.3968661679220414 1.5430539436446857 3.8516020436389837
      vertex 0.9635238525128592 1.5430539436446857 3.782224025673575
      vertex 0.6724730824027596 1.5430539436446857 3.3724956015453484
    endloop
  endfacet
  facet normal 0.0 1.0 0.0
    outer loop
      vertex 0.0 1.5430539436446857 2.499999999999987
      vertex 0.10126756596375383 1.5430539436446857 3.2043313921035637
      vertex 0.651347988725419 1.5430539436446857 2.793818110582772
    endloop
  endfacet
  facet normal 0.0 1.0 -0.0
    outer loop
      vertex 0.651347988725419 1.5430539436446857 2.793818110582772
      vertex 0.10126756596375383 1.5430539436446857 3.2043313921035637
      vertex 0.6724730824027596 1.5430539436446857 3.3724956015453484
    endloop
  endfacet
  facet normal 0.0 1.0 -0.0
    outer loop
      vertex 0.10126756596376031 1.5430539436446857 1.795668607896414
      vertex 0.0 1.5430539436446857 2.499999999999987
      vertex 0.6409486279179474 1.5430539436446857 2.2426137272721824
    endloop
  endfacet
  facet normal -0.0 1.0 0.0
    outer loop
      vertex 0.0 1.5430539436446857 2.499999999999987
      vertex 0.651347988725419 1.5430539436446857 2.793818110582772
      vertex 0.6409486279179474 1.5430539436446857 2.2426137272721824
    endloop
  endfacet
  facet normal 0.0 1.0 -0.0
    outer loop
      vertex 0.3968661679220539 1.5430539436446857 1.1483979563609958
      vertex 0.10126756596376031 1.5430539436446857 1.795668607896414
      vertex 0.6703533761970905 1.5430539436446857 1.7091526435102915
    endloop
  endfacet
  facet normal 0.0 1.0 0.0
    outer loop
      vertex 0.6703533761970905 1.5430539436446857 1.7091526435102915
      vertex 0.10126756596376031 1.5430539436446857 1.795668607896414
      vertex 0.6409486279179474 1.5430539436446857 2.2426137272721824
    endloop
  endfacet
  facet normal 0.0 1.0 -0.0
    outer loop
      vertex 0.862848165136799 1.5430539436446857 0.6106260641143446
      vertex 0.3968661679220539 1.5430539436446857 1.1483979563609958
      vertex 1.095581286656252 1.5430539436446857 1.283064257531847
    endloop
  endfacet
  facet normal 0.0 1.0 0.0
    outer loop
      vertex 1.095581286656252 1.5430539436446857 1.283064257531847
      vertex 0.3968661679220539 1.5430539436446857 1.1483979563609958
      vertex 0.6703533761970905 1.5430539436446857 1.7091526435102915
    endloop
  endfacet
  facet normal 0.0 1.0 -0.0
    outer loop
      vertex 1.4614624674952965 1.5430539436446857 0.22592001161369923
      vertex 0.862848165136799 1.5430539436446857 0.6106260641143446
      vertex 1.5616188155232282 1.5430539436446857 0.8571232644933341
    endloop
  endfacet
  facet normal 0.0 1.0 0.0
    outer loop
      vertex 0.862848165136799 1.5430539436446857 0.6106260641143446
      vertex 1.095581286656252 1.5430539436446857 1.283064257531847
      vertex 1.5616188155232282 1.5430539436446857 0.8571232644933341
    endloop
  endfacet
  facet normal 0.0 1.0 0.0
    outer loop
      vertex 2.1442129043168 1.5430539436446857 0.025446395297666933
      vertex 1.4614624674952965 1.5430539436446857 0.22592001161369923
      vertex 1.9566965436861488 1.5430539436446857 0.5365659664782928
    endloop
  endfacet
  facet normal 0.0 1.0 0.0
    outer loop
      vertex 1.4614624674952965 1.5430539436446857 0.22592001161369923
      vertex 1.5616188155232282 1.5430539436446857 0.8571232644933341
      vertex 1.9566965436861488 1.5430539436446857 0.5365659664782928
    endloop
  endfacet
  facet normal 0.0 1.0 0.0
    outer loop
      vertex 2.855787095683225 1.5430539436446857 0.025446395297669955
      vertex 2.1442129043168 1.5430539436446857 0.025446395297666933
      vertex 2.4804354553595496 1.5430539436446857 0.5639678407163724
    endloop
  endfacet
  facet normal 0.0 1.0 0.0
    outer loop
      vertex 2.4804354553595496 1.5430539436446857 0.5639678407163724
      vertex 2.1442129043168 1.5430539436446857 0.025446395297666933
      vertex 1.9566965436861488 1.5430539436446857 0.5365659664782928
    endloop
  endfacet
  facet normal 0.0 1.0 0.0
    outer loop
      vertex 3.538537532504723 1.5430539436446857 0.22592001161370745
      vertex 2.855787095683225 1.5430539436446857 0.025446395297669955
      vertex 3.004424502903006 1.5430539436446857 0.5312490321469124
    endloop
  endfacet
  facet normal 0.0 1.0 -0.0
    outer loop
      vertex 2.855787095683225 1.5430539436446857 0.025446395297669955
      vertex 2.4804354553595496 1.5430539436446857 0.5639678407163724
      vertex 3.004424502903006 1.5430539436446857 0.5312490321469124
    endloop
  endfacet
  facet normal 0.0 1.0 0.0
    outer loop
      vertex 4.137151834863218 1.5430539436446857 0.6106260641143593
      vertex 3.538537532504723 1.5430539436446857 0.22592001161370745
      vertex 3.4056980988813135 1.5430539436446857 0.8710858116136033
    endloop
  endfacet
  facet normal 0.0 1.0 0.0
    outer loop
      vertex 3.4056980988813135 1.5430539436446857 0.8710858116136033
      vertex 3.538537532504723 1.5430539436446857 0.22592001161370745
      vertex 3.004424502903006 1.5430539436446857 0.5312490321469124
    endloop
  endfacet
  facet normal 0.0 1.0 0.0
    outer loop
      vertex 4.603133832077953 1.5430539436446857 1.148397956361008
      vertex 4.137151834863218 1.5430539436446857 0.6106260641143593
      vertex 3.874261028228792 1.5430539436446857 1.291144176480532
    endloop
  endfacet
  facet normal 0.0 1.0 0.0
    outer loop
      vertex 3.874261028228792 1.5430539436446857 1.291144176480532
      vertex 4.137151834863218 1.5430539436446857 0.6106260641143593
      vertex 3.4056980988813135 1.5430539436446857 0.8710858116136033
    endloop
  endfacet
  facet normal 0.0 1.0 0.0
    outer loop
      vertex 4.898732434036244 1.5430539436446857 1.795668607896428
      vertex 4.603133832077953 1.5430539436446857 1.148397956361008
      vertex 4.339397338795218 1.5430539436446857 1.6599753820077048
    endloop
  endfacet
  facet normal 0.0 1.0 0.0
    outer loop
      vertex 4.603133832077953 1.5430539436446857 1.148397956361008
      vertex 3.874261028228792 1.5430539436446857 1.291144176480532
      vertex 4.339397338795218 1.5430539436446857 1.6599753820077048
    endloop
  endfacet
  facet normal 0.0 1.0 0.0
    outer loop
      vertex 4.339397338972443 1.5430539436446857 2.2355345886236493
      vertex 4.898732434036244 1.5430539436446857 1.795668607896428
      vertex 4.339397338795218 1.5430539436446857 1.6599753820077048
    endloop
  endfacet
  facet normal 0.0 1.0 0.0
    outer loop
      vertex 4.476035753655939 1.5430539436446857 2.7835154322682687
      vertex 4.339397338972443 1.5430539436446857 2.2355345886236493
      vertex 3.881114608435184 1.5430539436446857 2.713980085697677
    endloop
  endfacet
  facet normal 0.0 1.0 0.0
    outer loop
      vertex 3.881114608435184 1.5430539436446857 2.713980085697677
      vertex 4.339397338972443 1.5430539436446857 2.2355345886236493
      vertex 3.676802176659442 1.5430539436446857 1.9981243083262568
    endloop
  endfacet
  facet normal -0.0 1.0 0.0
    outer loop
      vertex 3.676802176659442 1.5430539436446857 1.9981243083262568
      vertex 4.339397338972443 1.5430539436446857 2.2355345886236493
      vertex 4.339397338795218 1.5430539436446857 1.6599753820077048
    endloop
  endfacet
  facet normal 0.0 1.0 0.0
    outer loop
      vertex 1.249359836889724 1.5430539436446857 3.230502435727849
      vertex 0.651347988725419 1.5430539436446857 2.793818110582772
      vertex 0.6724730824027596 1.5430539436446857 3.3724956015453484
    endloop
  endfacet
  facet normal -0.0 1.0 0.0
    outer loop
      vertex 0.651347988725419 1.5430539436446857 2.793818110582772
      vertex 1.249359836889724 1.5430539436446857 3.230502435727849
      vertex 1.1380824119342483 1.5430539436446857 2.6131715506014763
    endloop
  endfacet
  facet normal 0.0 1.0 0.0
    outer loop
      vertex 0.651347988725419 1.5430539436446857 2.793818110582772
      vertex 1.1380824119342483 1.5430539436446857 2.6131715506014763
      vertex 0.6409486279179474 1.5430539436446857 2.2426137272721824
    endloop
  endfacet
  facet normal 0.0 1.0 0.0
    outer loop
      vertex 2.1357530757358707 1.5430539436446857 1.0103723202703918
      vertex 2.4804354553595496 1.5430539436446857 0.5639678407163724
      vertex 1.9566965436861488 1.5430539436446857 0.5365659664782928
    endloop
  endfacet
  facet normal 0.0 1.0 -0.0
    outer loop
      vertex 2.4804354553595496 1.5430539436446857 0.5639678407163724
      vertex 2.1357530757358707 1.5430539436446857 1.0103723202703918
      vertex 2.7639908025298983 1.5430539436446857 0.999839791350705
    endloop
  endfacet
  facet normal 0.0 1.0 0.0
    outer loop
      vertex 3.004424502903006 1.5430539436446857 0.5312490321469124
      vertex 2.4804354553595496 1.5430539436446857 0.5639678407163724
      vertex 2.7639908025298983 1.5430539436446857 0.999839791350705
    endloop
  endfacet
  facet normal -0.0 1.0 0.0
    outer loop
      vertex 2.368127566339114 1.5430539436446857 4.003255121393962
      vertex 2.9888562258924507 1.5430539436446857 4.362503936956903
      vertex 3.1528593804316163 1.5430539436446857 3.7842000001927807
    endloop
  endfacet
  facet normal 0.0 1.0 0.0
    outer loop
      vertex 2.9888562258924507 1.5430539436446857 4.362503936956903
      vertex 2.368127566339114 1.5430539436446857 4.003255121393962
      vertex 2.483564343832837 1.5430539436446857 4.561788225559185
    endloop
  endfacet
  facet normal 0.0 1.0 -0.0
    outer loop
      vertex 3.1528593804316163 1.5430539436446857 3.7842000001927807
      vertex 2.9888562258924507 1.5430539436446857 4.362503936956903
      vertex 3.5338257247492226 1.5430539436446857 4.220904666221088
    endloop
  endfacet
  facet normal 0.0 1.0 0.0
    outer loop
      vertex 1.526913440912997 1.5430539436446857 4.043742045078854
      vertex 2.034164055185561 1.5430539436446857 3.343132839386013
      vertex 1.249359836889724 1.5430539436446857 3.230502435727849
    endloop
  endfacet
  facet normal 0.0 1.0 -0.0
    outer loop
      vertex 2.034164055185561 1.5430539436446857 3.343132839386013
      vertex 1.526913440912997 1.5430539436446857 4.043742045078854
      vertex 2.368127566339114 1.5430539436446857 4.003255121393962
    endloop
  endfacet
  facet normal 0.0 1.0 0.0
    outer loop
      vertex 1.526913440912997 1.5430539436446857 4.043742045078854
      vertex 1.249359836889724 1.5430539436446857 3.230502435727849
      vertex 0.9635238525128592 1.5430539436446857 3.782224025673575
    endloop
  endfacet
  facet normal 0.0 1.0 0.0
    outer loop
      vertex 2.368127566339114 1.5430539436446857 4.003255121393962
      vertex 1.526913440912997 1.5430539436446857 4.043742045078854
      vertex 1.9741883904581519 1.5430539436446857 4.474987881028374
    endloop
  endfacet
  facet normal 0.0 1.0 0.0
    outer loop
      vertex 1.095581286656252 1.5430539436446857 1.283064257531847
      vertex 1.2846404246871668 1.5430539436446857 2.0438714510421554
      vertex 1.7605442029988447 1.5430539436446857 1.4743463340426153
    endloop
  endfacet
  facet normal 0.0 1.0 0.0
    outer loop
      vertex 1.2846404246871668 1.5430539436446857 2.0438714510421554
      vertex 1.095581286656252 1.5430539436446857 1.283064257531847
      vertex 0.6703533761970905 1.5430539436446857 1.7091526435102915
    endloop
  endfacet
  facet normal -0.0 1.0 0.0
    outer loop
      vertex 1.095581286656252 1.5430539436446857 1.283064257531847
      vertex 1.7605442029988447 1.5430539436446857 1.4743463340426153
      vertex 1.5616188155232282 1.5430539436446857 0.8571232644933341
    endloop
  endfacet
  facet normal 0.0 1.0 0.0
    outer loop
      vertex 4.190380305794697 1.5430539436446857 3.2719708192939727
      vertex 4.476035753655939 1.5430539436446857 2.7835154322682687
      vertex 3.881114608435184 1.5430539436446857 2.713980085697677
    endloop
  endfacet
  facet normal 0.0 1.0 0.0
    outer loop
      vertex 4.190380305794697 1.5430539436446857 3.2719708192939727
      vertex 3.881114608435184 1.5430539436446857 2.713980085697677
      vertex 3.4911850057771163 1.5430539436446857 3.2704271511534544
    endloop
  endfacet
  facet normal 0.0 1.0 0.0
    outer loop
      vertex 4.190380305794697 1.5430539436446857 3.2719708192939727
      vertex 3.4911850057771163 1.5430539436446857 3.2704271511534544
      vertex 3.8517236500541276 1.5430539436446857 3.7943654696838105
    endloop
  endfacet
  facet normal 0.0 1.0 0.0
    outer loop
      vertex 3.874261028228792 1.5430539436446857 1.291144176480532
      vertex 3.1428946227824075 1.5430539436446857 1.4795149343469627
      vertex 3.676802176659442 1.5430539436446857 1.9981243083262568
    endloop
  endfacet
  facet normal 0.0 1.0 0.0
    outer loop
      vertex 3.1428946227824075 1.5430539436446857 1.4795149343469627
      vertex 3.874261028228792 1.5430539436446857 1.291144176480532
      vertex 3.4056980988813135 1.5430539436446857 0.8710858116136033
    endloop
  endfacet
  facet normal 0.0 1.0 -0.0
    outer loop
      vertex 3.874261028228792 1.5430539436446857 1.291144176480532
      vertex 3.676802176659442 1.5430539436446857 1.9981243083262568
      vertex 4.339397338795218 1.5430539436446857 1.6599753820077048
    endloop
  endfacet
  facet normal 0.0 1.0 0.0
    outer loop
      vertex 3.4911850057771163 1.5430539436446857 3.2704271511534544
      vertex 3.881114608435184 1.5430539436446857 2.713980085697677
      vertex 3.1639582396644585 1.5430539436446857 2.6808717361078234
    endloop
  endfacet
  facet normal -0.0 1.0 0.0
    outer loop
      vertex 3.1639582396644585 1.5430539436446857 2.6808717361078234
      vertex 3.881114608435184 1.5430539436446857 2.713980085697677
      vertex 3.676802176659442 1.5430539436446857 1.9981243083262568
    endloop
  endfacet
  facet normal 0.0 1.0 0.0
    outer loop
      vertex 3.4911850057771163 1.5430539436446857 3.2704271511534544
      vertex 3.1639582396644585 1.5430539436446857 2.6808717361078234
      vertex 2.754965617730105 1.5430539436446857 3.298687431805758
    endloop
  endfacet
  facet normal 0.0 1.0 0.0
    outer loop
      vertex 3.4911850057771163 1.5430539436446857 3.2704271511534544
      vertex 2.754965617730105 1.5430539436446857 3.298687431805758
      vertex 3.1528593804316163 1.5430539436446857 3.7842000001927807
    endloop
  endfacet
  facet normal 0.0 1.0 0.0
    outer loop
      vertex 3.8517236500541276 1.5430539436446857 3.7943654696838105
      vertex 3.4911850057771163 1.5430539436446857 3.2704271511534544
      vertex 3.1528593804316163 1.5430539436446857 3.7842000001927807
    endloop
  endfacet
  facet normal 0.0 1.0 0.0
    outer loop
      vertex 2.754965617730105 1.5430539436446857 3.298687431805758
      vertex 3.1639582396644585 1.5430539436446857 2.6808717361078234
      vertex 2.4120415261392663 1.5430539436446857 2.7001960366743547
    endloop
  endfacet
  facet normal 0.0 1.0 0.0
    outer loop
      vertex 2.4120415261392663 1.5430539436446857 2.7001960366743547
      vertex 3.1639582396644585 1.5430539436446857 2.6808717361078234
      vertex 2.7644118351045925 1.5430539436446857 2.0789475486056546
    endloop
  endfacet
  facet normal -0.0 1.0 0.0
    outer loop
      vertex 2.7644118351045925 1.5430539436446857 2.0789475486056546
      vertex 3.1639582396644585 1.5430539436446857 2.6808717361078234
      vertex 3.676802176659442 1.5430539436446857 1.9981243083262568
    endloop
  endfacet
  facet normal 0.0 1.0 0.0
    outer loop
      vertex 2.754965617730105 1.5430539436446857 3.298687431805758
      vertex 2.4120415261392663 1.5430539436446857 2.7001960366743547
      vertex 2.034164055185561 1.5430539436446857 3.343132839386013
    endloop
  endfacet
  facet normal 0.0 1.0 0.0
    outer loop
      vertex 2.754965617730105 1.5430539436446857 3.298687431805758
      vertex 2.034164055185561 1.5430539436446857 3.343132839386013
      vertex 2.368127566339114 1.5430539436446857 4.003255121393962
    endloop
  endfacet
  facet normal 0.0 1.0 -0.0
    outer loop
      vertex 2.754965617730105 1.5430539436446857 3.298687431805758
      vertex 2.368127566339114 1.5430539436446857 4.003255121393962
      vertex 3.1528593804316163 1.5430539436446857 3.7842000001927807
    endloop
  endfacet
  facet normal 0.0 1.0 0.0
    outer loop
      vertex 2.4120415261392663 1.5430539436446857 2.7001960366743547
      vertex 2.7644118351045925 1.5430539436446857 2.0789475486056546
      vertex 2.0519404804327173 1.5430539436446857 2.0976044077218243
    endloop
  endfacet
  facet normal 0.0 1.0 0.0
    outer loop
      vertex 2.4120415261392663 1.5430539436446857 2.7001960366743547
      vertex 2.0519404804327173 1.5430539436446857 2.0976044077218243
      vertex 1.7300321576740956 1.5430539436446857 2.697802874669612
    endloop
  endfacet
  facet normal 0.0 1.0 0.0
    outer loop
      vertex 2.4120415261392663 1.5430539436446857 2.7001960366743547
      vertex 1.7300321576740956 1.5430539436446857 2.697802874669612
      vertex 2.034164055185561 1.5430539436446857 3.343132839386013
    endloop
  endfacet
  facet normal 0.0 1.0 0.0
    outer loop
      vertex 2.0519404804327173 1.5430539436446857 2.0976044077218243
      vertex 2.7644118351045925 1.5430539436446857 2.0789475486056546
      vertex 2.4147390595172418 1.5430539436446857 1.542848809009987
    endloop
  endfacet
  facet normal -0.0 1.0 0.0
    outer loop
      vertex 2.4147390595172418 1.5430539436446857 1.542848809009987
      vertex 2.7644118351045925 1.5430539436446857 2.0789475486056546
      vertex 3.1428946227824075 1.5430539436446857 1.4795149343469627
    endloop
  endfacet
  facet normal 0.0 1.0 -0.0
    outer loop
      vertex 3.1428946227824075 1.5430539436446857 1.4795149343469627
      vertex 2.7644118351045925 1.5430539436446857 2.0789475486056546
      vertex 3.676802176659442 1.5430539436446857 1.9981243083262568
    endloop
  endfacet
  facet normal 0.0 1.0 0.0
    outer loop
      vertex 1.7300321576740956 1.5430539436446857 2.697802874669612
      vertex 2.0519404804327173 1.5430539436446857 2.0976044077218243
      vertex 1.2846404246871668 1.5430539436446857 2.0438714510421554
    endloop
  endfacet
  facet normal -0.0 1.0 0.0
    outer loop
      vertex 1.2846404246871668 1.5430539436446857 2.0438714510421554
      vertex 2.0519404804327173 1.5430539436446857 2.0976044077218243
      vertex 1.7605442029988447 1.5430539436446857 1.4743463340426153
    endloop
  endfacet
  facet normal 0.0 1.0 0.0
    outer loop
      vertex 2.0519404804327173 1.5430539436446857 2.0976044077218243
      vertex 2.4147390595172418 1.5430539436446857 1.542848809009987
      vertex 1.7605442029988447 1.5430539436446857 1.4743463340426153
    endloop
  endfacet
  facet normal 0.0 1.0 0.0
    outer loop
      vertex 1.7300321576740956 1.5430539436446857 2.697802874669612
      vertex 1.2846404246871668 1.5430539436446857 2.0438714510421554
      vertex 1.1380824119342483 1.5430539436446857 2.6131715506014763
    endloop
  endfacet
  facet normal 0.0 1.0 0.0
    outer loop
      vertex 2.034164055185561 1.5430539436446857 3.343132839386013
      vertex 1.7300321576740956 1.5430539436446857 2.697802874669612
      vertex 1.249359836889724 1.5430539436446857 3.230502435727849
    endloop
  endfacet
  facet normal 0.0 1.0 0.0
    outer loop
      vertex 1.249359836889724 1.5430539436446857 3.230502435727849
      vertex 1.7300321576740956 1.5430539436446857 2.697802874669612
      vertex 1.1380824119342483 1.5430539436446857 2.6131715506014763
    endloop
  endfacet
  facet normal 0.0 1.0 0.0
    outer loop
      vertex 1.2846404246871668 1.5430539436446857 2.0438714510421554
      vertex 0.6703533761970905 1.5430539436446857 1.7091526435102915
      vertex 0.6409486279179474 1.5430539436446857 2.2426137272721824
    endloop
  endfacet
  facet normal 0.0 1.0 0.0
    outer loop
      vertex 1.1380824119342483 1.5430539436446857 2.6131715506014763
      vertex 1.2846404246871668 1.5430539436446857 2.0438714510421554
      vertex 0.6409486279179474 1.5430539436446857 2.2426137272721824
    endloop
  endfacet
  facet normal 0.0 1.0 0.0
    outer loop
      vertex 2.4147390595172418 1.5430539436446857 1.542848809009987
      vertex 3.1428946227824075 1.5430539436446857 1.4795149343469627
      vertex 2.7639908025298983 1.5430539436446857 0.999839791350705
    endloop
  endfacet
  facet normal -0.0 1.0 0.0
    outer loop
      vertex 1.7605442029988447 1.5430539436446857 1.4743463340426153
      vertex 2.4147390595172418 1.5430539436446857 1.542848809009987
      vertex 2.1357530757358707 1.5430539436446857 1.0103723202703918
    endloop
  endfacet
  facet normal -0.0 1.0 0.0
    outer loop
      vertex 2.1357530757358707 1.5430539436446857 1.0103723202703918
      vertex 2.4147390595172418 1.5430539436446857 1.542848809009987
      vertex 2.7639908025298983 1.5430539436446857 0.999839791350705
    endloop
  endfacet
  facet normal 0.0 1.0 0.0
    outer loop
      vertex 3.1428946227824075 1.5430539436446857 1.4795149343469627
      vertex 3.4056980988813135 1.5430539436446857 0.8710858116136033
      vertex 2.7639908025298983 1.5430539436446857 0.999839791350705
    endloop
  endfacet
  facet normal 0.0 1.0 0.0
    outer loop
      vertex 0.9635238525128592 1.5430539436446857 3.782224025673575
      vertex 1.249359836889724 1.5430539436446857 3.230502435727849
      vertex 0.6724730824027596 1.5430539436446857 3.3724956015453484
    endloop
  endfacet
  facet normal 0.0 1.0 0.0
    outer loop
      vertex 2.483564343832837 1.5430539436446857 4.561788225559185
      vertex 2.368127566339114 1.5430539436446857 4.003255121393962
      vertex 1.9741883904581519 1.5430539436446857 4.474987881028374
    endloop
  endfacet
  facet normal 0.0 1.0 0.0
    outer loop
      vertex 1.5616188155232282 1.5430539436446857 0.8571232644933341
      vertex 1.7605442029988447 1.5430539436446857 1.4743463340426153
      vertex 2.1357530757358707 1.5430539436446857 1.0103723202703918
    endloop
  endfacet
  facet normal 0.0 1.0 0.0
    outer loop
      vertex 3.4056980988813135 1.5430539436446857 0.8710858116136033
      vertex 3.004424502903006 1.5430539436446857 0.5312490321469124
      vertex 2.7639908025298983 1.5430539436446857 0.999839791350705
    endloop
  endfacet
  facet normal -0.0 1.0 0.0
    outer loop
      vertex 1.5616188155232282 1.5430539436446857 0.8571232644933341
      vertex 2.1357530757358707 1.5430539436446857 1.0103723202703918
      vertex 1.9566965436861488 1.5430539436446857 0.5365659664782928
    endloop
  endfacet
  facet normal 0.0 1.0 0.0
    outer loop
      vertex 3.8517236500541276 1.5430539436446857 3.7943654696838105
      vertex 3.1528593804316163 1.5430539436446857 3.7842000001927807
      vertex 3.5338257247492226 1.5430539436446857 4.220904666221088
    endloop
  endfacet
  facet normal 0.0 -1.0 -0.0
    outer loop
      vertex 4.898732434036242 0.0 3.2043313921035756
      vertex 4.476035753655939 0.0 2.7835154322682687
      vertex 4.999999998369806 0.0 2.5
    endloop
  endfacet
  facet normal 0.0 -1.0 0.0
    outer loop
      vertex 4.999999998369806 0.0 2.5
      vertex 4.339397338972443 0.0 2.2355345886236493
      vertex 4.898732434036244 0.0 1.795668607896428
    endloop
  endfacet
  facet normal -0.0 -1.0 0.0
    outer loop
      vertex 4.999999998369806 0.0 2.5
      vertex 4.476035753655939 0.0 2.7835154322682687
      vertex 4.339397338972443 0.0 2.2355345886236493
    endloop
  endfacet
  facet normal 0.0 -1.0 -0.0
    outer loop
      vertex 4.60313383207795 0.0 3.8516020436389957
      vertex 4.190380305794697 0.0 3.2719708192939727
      vertex 4.898732434036242 0.0 3.2043313921035756
    endloop
  endfacet
  facet normal 0.0 -1.0 0.0
    outer loop
      vertex 4.190380305794697 0.0 3.2719708192939727
      vertex 4.476035753655939 0.0 2.7835154322682687
      vertex 4.898732434036242 0.0 3.2043313921035756
    endloop
  endfacet
  facet normal 0.0 -1.0 -0.0
    outer loop
      vertex 4.137151834863209 0.0 4.389373935885648
      vertex 3.8517236500541276 0.0 3.7943654696838105
      vertex 4.60313383207795 0.0 3.8516020436389957
    endloop
  endfacet
  facet normal 0.0 -1.0 0.0
    outer loop
      vertex 4.60313383207795 0.0 3.8516020436389957
      vertex 3.8517236500541276 0.0 3.7943654696838105
      vertex 4.190380305794697 0.0 3.2719708192939727
    endloop
  endfacet
  facet normal 0.0 -1.0 -0.0
    outer loop
      vertex 3.53853753250471 0.0 4.774079988386297
      vertex 3.5338257247492226 0.0 4.220904666221088
      vertex 4.137151834863209 0.0 4.389373935885648
    endloop
  endfacet
  facet normal 0.0 -1.0 0.0
    outer loop
      vertex 4.137151834863209 0.0 4.389373935885648
      vertex 3.5338257247492226 0.0 4.220904666221088
      vertex 3.8517236500541276 0.0 3.7943654696838105
    endloop
  endfacet
  facet normal 0.0 -1.0 0.0
    outer loop
      vertex 2.855787095683205 0.0 4.974553604702333
      vertex 2.9888562258924507 0.0 4.362503936956903
      vertex 3.53853753250471 0.0 4.774079988386297
    endloop
  endfacet
  facet normal 0.0 -1.0 0.0
    outer loop
      vertex 2.9888562258924507 0.0 4.362503936956903
      vertex 3.5338257247492226 0.0 4.220904666221088
      vertex 3.53853753250471 0.0 4.774079988386297
    endloop
  endfacet
  facet normal 0.0 -1.0 0.0
    outer loop
      vertex 2.144212904316779 0.0 4.97455360470233
      vertex 2.483564343832837 0.0 4.561788225559185
      vertex 2.855787095683205 0.0 4.974553604702333
    endloop
  endfacet
  facet normal 0.0 -1.0 -0.0
    outer loop
      vertex 2.855787095683205 0.0 4.974553604702333
      vertex 2.483564343832837 0.0 4.561788225559185
      vertex 2.9888562258924507 0.0 4.362503936956903
    endloop
  endfacet
  facet normal 0.0 -1.0 0.0
    outer loop
      vertex 1.4614624674952748 0.0 4.774079988386291
      vertex 1.9741883904581519 0.0 4.474987881028374
      vertex 2.144212904316779 0.0 4.97455360470233
    endloop
  endfacet
  facet normal 0.0 -1.0 -0.0
    outer loop
      vertex 2.144212904316779 0.0 4.97455360470233
      vertex 1.9741883904581519 0.0 4.474987881028374
      vertex 2.483564343832837 0.0 4.561788225559185
    endloop
  endfacet
  facet normal 0.0 -1.0 0.0
    outer loop
      vertex 0.8628481651367791 0.0 4.389373935885638
      vertex 1.526913440912997 0.0 4.043742045078854
      vertex 1.4614624674952748 0.0 4.774079988386291
    endloop
  endfacet
  facet normal 0.0 -1.0 0.0
    outer loop
      vertex 1.526913440912997 0.0 4.043742045078854
      vertex 1.9741883904581519 0.0 4.474987881028374
      vertex 1.4614624674952748 0.0 4.774079988386291
    endloop
  endfacet
  facet normal 0.0 -1.0 0.0
    outer loop
      vertex 0.3968661679220414 0.0 3.8516020436389837
      vertex 0.9635238525128592 0.0 3.782224025673575
      vertex 0.8628481651367791 0.0 4.389373935885638
    endloop
  endfacet
  facet normal 0.0 -1.0 0.0
    outer loop
      vertex 0.8628481651367791 0.0 4.389373935885638
      vertex 0.9635238525128592 0.0 3.782224025673575
      vertex 1.526913440912997 0.0 4.043742045078854
    endloop
  endfacet
  facet normal 0.0 -1.0 0.0
    outer loop
      vertex 0.10126756596375383 0.0 3.2043313921035637
      vertex 0.6724730824027596 0.0 3.3724956015453484
      vertex 0.3968661679220414 0.0 3.8516020436389837
    endloop
  endfacet
  facet normal 0.0 -1.0 0.0
    outer loop
      vertex 0.3968661679220414 0.0 3.8516020436389837
      vertex 0.6724730824027596 0.0 3.3724956015453484
      vertex 0.9635238525128592 0.0 3.782224025673575
    endloop
  endfacet
  facet normal 0.0 -1.0 0.0
    outer loop
      vertex 0.0 0.0 2.499999999999987
      vertex 0.651347988725419 0.0 2.793818110582772
      vertex 0.10126756596375383 0.0 3.2043313921035637
    endloop
  endfacet
  facet normal 0.0 -1.0 0.0
    outer loop
      vertex 0.651347988725419 0.0 2.793818110582772
      vertex 0.6724730824027596 0.0 3.3724956015453484
      vertex 0.10126756596375383 0.0 3.2043313921035637
    endloop
  endfacet
  facet normal 0.0 -1.0 0.0
    outer loop
      vertex 0.10126756596376031 0.0 1.795668607896414
      vertex 0.6409486279179474 0.0 2.2426137272721824
      vertex 0.0 0.0 2.499999999999987
    endloop
  endfacet
  facet normal 0.0 -1.0 0.0
    outer loop
      vertex 0.0 0.0 2.499999999999987
      vertex 0.6409486279179474 0.0 2.2426137272721824
      vertex 0.651347988725419 0.0 2.793818110582772
    endloop
  endfacet
  facet normal 0.0 -1.0 0.0
    outer loop
      vertex 0.3968661679220539 0.0 1.1483979563609958
      vertex 0.6703533761970905 0.0 1.7091526435102915
      vertex 0.10126756596376031 0.0 1.795668607896414
    endloop
  endfacet
  facet normal 0.0 -1.0 0.0
    outer loop
      vertex 0.6703533761970905 0.0 1.7091526435102915
      vertex 0.6409486279179474 0.0 2.2426137272721824
      vertex 0.10126756596376031 0.0 1.795668607896414
    endloop
  endfacet
  facet normal 0.0 -1.0 0.0
    outer loop
      vertex 0.862848165136799 0.0 0.6106260641143446
      vertex 1.095581286656252 0.0 1.283064257531847
      vertex 0.3968661679220539 0.0 1.1483979563609958
    endloop
  endfacet
  facet normal -0.0 -1.0 0.0
    outer loop
      vertex 1.095581286656252 0.0 1.283064257531847
      vertex 0.6703533761970905 0.0 1.7091526435102915
      vertex 0.3968661679220539 0.0 1.1483979563609958
    endloop
  endfacet
  facet normal 0.0 -1.0 0.0
    outer loop
      vertex 1.4614624674952965 0.0 0.22592001161369923
      vertex 1.5616188155232282 0.0 0.8571232644933341
      vertex 0.862848165136799 0.0 0.6106260641143446
    endloop
  endfacet
  facet normal 0.0 -1.0 0.0
    outer loop
      vertex 0.862848165136799 0.0 0.6106260641143446
      vertex 1.5616188155232282 0.0 0.8571232644933341
      vertex 1.095581286656252 0.0 1.283064257531847
    endloop
  endfacet
  facet normal 0.0 -1.0 0.0
    outer loop
      vertex 2.1442129043168 0.0 0.025446395297666933
      vertex 1.9566965436861488 0.0 0.5365659664782928
      vertex 1.4614624674952965 0.0 0.22592001161369923
    endloop
  endfacet
  facet normal 0.0 -1.0 0.0
    outer loop
      vertex 1.4614624674952965 0.0 0.22592001161369923
      vertex 1.9566965436861488 0.0 0.5365659664782928
      vertex 1.5616188155232282 0.0 0.8571232644933341
    endloop
  endfacet
  facet normal -0.0 -1.0 0.0
    outer loop
      vertex 2.855787095683225 0.0 0.025446395297669955
      vertex 2.4804354553595496 0.0 0.5639678407163724
      vertex 2.1442129043168 0.0 0.025446395297666933
    endloop
  endfacet
  facet normal 0.0 -1.0 0.0
    outer loop
      vertex 2.4804354553595496 0.0 0.5639678407163724
      vertex 1.9566965436861488 0.0 0.5365659664782928
      vertex 2.1442129043168 0.0 0.025446395297666933
    endloop
  endfacet
  facet normal -0.0 -1.0 0.0
    outer loop
      vertex 3.538537532504723 0.0 0.22592001161370745
      vertex 3.004424502903006 0.0 0.5312490321469124
      vertex 2.855787095683225 0.0 0.025446395297669955
    endloop
  endfacet
  facet normal 0.0 -1.0 0.0
    outer loop
      vertex 2.855787095683225 0.0 0.025446395297669955
      vertex 3.004424502903006 0.0 0.5312490321469124
      vertex 2.4804354553595496 0.0 0.5639678407163724
    endloop
  endfacet
  facet normal -0.0 -1.0 0.0
    outer loop
      vertex 4.137151834863218 0.0 0.6106260641143593
      vertex 3.4056980988813135 0.0 0.8710858116136033
      vertex 3.538537532504723 0.0 0.22592001161370745
    endloop
  endfacet
  facet normal 0.0 -1.0 -0.0
    outer loop
      vertex 3.4056980988813135 0.0 0.8710858116136033
      vertex 3.004424502903006 0.0 0.5312490321469124
      vertex 3.538537532504723 0.0 0.22592001161370745
    endloop
  endfacet
  facet normal -0.0 -1.0 0.0
    outer loop
      vertex 4.603133832077953 0.0 1.148397956361008
      vertex 3.874261028228792 0.0 1.291144176480532
      vertex 4.137151834863218 0.0 0.6106260641143593
    endloop
  endfacet
  facet normal 0.0 -1.0 -0.0
    outer loop
      vertex 3.874261028228792 0.0 1.291144176480532
      vertex 3.4056980988813135 0.0 0.8710858116136033
      vertex 4.137151834863218 0.0 0.6106260641143593
    endloop
  endfacet
  facet normal 0.0 -1.0 0.0
    outer loop
      vertex 4.898732434036244 0.0 1.795668607896428
      vertex 4.339397338795218 0.0 1.6599753820077048
      vertex 4.603133832077953 0.0 1.148397956361008
    endloop
  endfacet
  facet normal 0.0 -1.0 0.0
    outer loop
      vertex 4.603133832077953 0.0 1.148397956361008
      vertex 4.339397338795218 0.0 1.6599753820077048
      vertex 3.874261028228792 0.0 1.291144176480532
    endloop
  endfacet
  facet normal 0.0 -1.0 -0.0
    outer loop
      vertex 4.339397338972443 0.0 2.2355345886236493
      vertex 4.339397338795218 0.0 1.6599753820077048
      vertex 4.898732434036244 0.0 1.795668607896428
    endloop
  endfacet
  facet normal 0.0 -1.0 0.0
    outer loop
      vertex 4.476035753655939 0.0 2.7835154322682687
      vertex 3.881114608435184 0.0 2.713980085697677
      vertex 4.339397338972443 0.0 2.2355345886236493
    endloop
  endfacet
  facet normal 0.0 -1.0 -0.0
    outer loop
      vertex 3.881114608435184 0.0 2.713980085697677
      vertex 3.676802176659442 0.0 1.9981243083262568
      vertex 4.339397338972443 0.0 2.2355345886236493
    endloop
  endfacet
  facet normal 0.0 -1.0 0.0
    outer loop
      vertex 3.676802176659442 0.0 1.9981243083262568
      vertex 4.339397338795218 0.0 1.6599753820077048
      vertex 4.339397338972443 0.0 2.2355345886236493
    endloop
  endfacet
  facet normal -0.0 -1.0 0.0
    outer loop
      vertex 1.249359836889724 0.0 3.230502435727849
      vertex 0.6724730824027596 0.0 3.3724956015453484
      vertex 0.651347988725419 0.0 2.793818110582772
    endloop
  endfacet
  facet normal 0.0 -1.0 0.0
    outer loop
      vertex 0.651347988725419 0.0 2.793818110582772
      vertex 1.1380824119342483 0.0 2.6131715506014763
      vertex 1.249359836889724 0.0 3.230502435727849
    endloop
  endfacet
  facet normal 0.0 -1.0 -0.0
    outer loop
      vertex 0.651347988725419 0.0 2.793818110582772
      vertex 0.6409486279179474 0.0 2.2426137272721824
      vertex 1.1380824119342483 0.0 2.6131715506014763
    endloop
  endfacet
  facet normal 0.0 -1.0 -0.0
    outer loop
      vertex 2.1357530757358707 0.0 1.0103723202703918
      vertex 1.9566965436861488 0.0 0.5365659664782928
      vertex 2.4804354553595496 0.0 0.5639678407163724
    endloop
  endfacet
  facet normal 0.0 -1.0 0.0
    outer loop
      vertex 2.4804354553595496 0.0 0.5639678407163724
      vertex 2.7639908025298983 0.0 0.999839791350705
      vertex 2.1357530757358707 0.0 1.0103723202703918
    endloop
  endfacet
  facet normal 0.0 -1.0 0.0
    outer loop
      vertex 3.004424502903006 0.0 0.5312490321469124
      vertex 2.7639908025298983 0.0 0.999839791350705
      vertex 2.4804354553595496 0.0 0.5639678407163724
    endloop
  endfacet
  facet normal 0.0 -1.0 0.0
    outer loop
      vertex 2.368127566339114 0.0 4.003255121393962
      vertex 3.1528593804316163 0.0 3.7842000001927807
      vertex 2.9888562258924507 0.0 4.362503936956903
    endloop
  endfacet
  facet normal -0.0 -1.0 0.0
    outer loop
      vertex 2.9888562258924507 0.0 4.362503936956903
      vertex 2.483564343832837 0.0 4.561788225559185
      vertex 2.368127566339114 0.0 4.003255121393962
    endloop
  endfacet
  facet normal 0.0 -1.0 0.0
    outer loop
      vertex 3.1528593804316163 0.0 3.7842000001927807
      vertex 3.5338257247492226 0.0 4.220904666221088
      vertex 2.9888562258924507 0.0 4.362503936956903
    endloop
  endfacet
  facet normal 0.0 -1.0 -0.0
    outer loop
      vertex 1.526913440912997 0.0 4.043742045078854
      vertex 1.249359836889724 0.0 3.230502435727849
      vertex 2.034164055185561 0.0 3.343132839386013
    endloop
  endfacet
  facet normal 0.0 -1.0 0.0
    outer loop
      vertex 2.034164055185561 0.0 3.343132839386013
      vertex 2.368127566339114 0.0 4.003255121393962
      vertex 1.526913440912997 0.0 4.043742045078854
    endloop
  endfacet
  facet normal 0.0 -1.0 0.0
    outer loop
      vertex 1.526913440912997 0.0 4.043742045078854
      vertex 0.9635238525128592 0.0 3.782224025673575
      vertex 1.249359836889724 0.0 3.230502435727849
    endloop
  endfacet
  facet normal 0.0 -1.0 0.0
    outer loop
      vertex 2.368127566339114 0.0 4.003255121393962
      vertex 1.9741883904581519 0.0 4.474987881028374
      vertex 1.526913440912997 0.0 4.043742045078854
    endloop
  endfacet
  facet normal 0.0 -1.0 0.0
    outer loop
      vertex 1.095581286656252 0.0 1.283064257531847
      vertex 1.7605442029988447 0.0 1.4743463340426153
      vertex 1.2846404246871668 0.0 2.0438714510421554
    endloop
  endfacet
  facet normal 0.0 -1.0 0.0
    outer loop
      vertex 1.2846404246871668 0.0 2.0438714510421554
      vertex 0.6703533761970905 0.0 1.7091526435102915
      vertex 1.095581286656252 0.0 1.283064257531847
    endloop
  endfacet
  facet normal 0.0 -1.0 0.0
    outer loop
      vertex 1.095581286656252 0.0 1.283064257531847
      vertex 1.5616188155232282 0.0 0.8571232644933341
      vertex 1.7605442029988447 0.0 1.4743463340426153
    endloop
  endfacet
  facet normal 0.0 -1.0 -0.0
    outer loop
      vertex 4.190380305794697 0.0 3.2719708192939727
      vertex 3.881114608435184 0.0 2.713980085697677
      vertex 4.476035753655939 0.0 2.7835154322682687
    endloop
  endfacet
  facet normal 0.0 -1.0 0.0
    outer loop
      vertex 4.190380305794697 0.0 3.2719708192939727
      vertex 3.4911850057771163 0.0 3.2704271511534544
      vertex 3.881114608435184 0.0 2.713980085697677
    endloop
  endfacet
  facet normal -0.0 -1.0 0.0
    outer loop
      vertex 4.190380305794697 0.0 3.2719708192939727
      vertex 3.8517236500541276 0.0 3.7943654696838105
      vertex 3.4911850057771163 0.0 3.2704271511534544
    endloop
  endfacet
  facet normal 0.0 -1.0 0.0
    outer loop
      vertex 3.874261028228792 0.0 1.291144176480532
      vertex 3.676802176659442 0.0 1.9981243083262568
      vertex 3.1428946227824075 0.0 1.4795149343469627
    endloop
  endfacet
  facet normal 0.0 -1.0 0.0
    outer loop
      vertex 3.1428946227824075 0.0 1.4795149343469627
      vertex 3.4056980988813135 0.0 0.8710858116136033
      vertex 3.874261028228792 0.0 1.291144176480532
    endloop
  endfacet
  facet normal 0.0 -1.0 0.0
    outer loop
      vertex 3.874261028228792 0.0 1.291144176480532
      vertex 4.339397338795218 0.0 1.6599753820077048
      vertex 3.676802176659442 0.0 1.9981243083262568
    endloop
  endfacet
  facet normal 0.0 -1.0 -0.0
    outer loop
      vertex 3.4911850057771163 0.0 3.2704271511534544
      vertex 3.1639582396644585 0.0 2.6808717361078234
      vertex 3.881114608435184 0.0 2.713980085697677
    endloop
  endfacet
  facet normal 0.0 -1.0 0.0
    outer loop
      vertex 3.1639582396644585 0.0 2.6808717361078234
      vertex 3.676802176659442 0.0 1.9981243083262568
      vertex 3.881114608435184 0.0 2.713980085697677
    endloop
  endfacet
  facet normal -0.0 -1.0 0.0
    outer loop
      vertex 3.4911850057771163 0.0 3.2704271511534544
      vertex 2.754965617730105 0.0 3.298687431805758
      vertex 3.1639582396644585 0.0 2.6808717361078234
    endloop
  endfacet
  facet normal 0.0 -1.0 0.0
    outer loop
      vertex 3.4911850057771163 0.0 3.2704271511534544
      vertex 3.1528593804316163 0.0 3.7842000001927807
      vertex 2.754965617730105 0.0 3.298687431805758
    endloop
  endfacet
  facet normal 0.0 -1.0 0.0
    outer loop
      vertex 3.8517236500541276 0.0 3.7943654696838105
      vertex 3.1528593804316163 0.0 3.7842000001927807
      vertex 3.4911850057771163 0.0 3.2704271511534544
    endloop
  endfacet
  facet normal 0.0 -1.0 -0.0
    outer loop
      vertex 2.754965617730105 0.0 3.298687431805758
      vertex 2.4120415261392663 0.0 2.7001960366743547
      vertex 3.1639582396644585 0.0 2.6808717361078234
    endloop
  endfacet
  facet normal 0.0 -1.0 0.0
    outer loop
      vertex 2.4120415261392663 0.0 2.7001960366743547
      vertex 2.7644118351045925 0.0 2.0789475486056546
      vertex 3.1639582396644585 0.0 2.6808717361078234
    endloop
  endfacet
  facet normal 0.0 -1.0 0.0
    outer loop
      vertex 2.7644118351045925 0.0 2.0789475486056546
      vertex 3.676802176659442 0.0 1.9981243083262568
      vertex 3.1639582396644585 0.0 2.6808717361078234
    endloop
  endfacet
  facet normal -0.0 -1.0 0.0
    outer loop
      vertex 2.754965617730105 0.0 3.298687431805758
      vertex 2.034164055185561 0.0 3.343132839386013
      vertex 2.4120415261392663 0.0 2.7001960366743547
    endloop
  endfacet
  facet normal 0.0 -1.0 0.0
    outer loop
      vertex 2.754965617730105 0.0 3.298687431805758
      vertex 2.368127566339114 0.0 4.003255121393962
      vertex 2.034164055185561 0.0 3.343132839386013
    endloop
  endfacet
  facet normal 0.0 -1.0 0.0
    outer loop
      vertex 2.754965617730105 0.0 3.298687431805758
      vertex 3.1528593804316163 0.0 3.7842000001927807
      vertex 2.368127566339114 0.0 4.003255121393962
    endloop
  endfacet
  facet normal 0.0 -1.0 -0.0
    outer loop
      vertex 2.4120415261392663 0.0 2.7001960366743547
      vertex 2.0519404804327173 0.0 2.0976044077218243
      vertex 2.7644118351045925 0.0 2.0789475486056546
    endloop
  endfacet
  facet normal 0.0 -1.0 0.0
    outer loop
      vertex 2.4120415261392663 0.0 2.7001960366743547
      vertex 1.7300321576740956 0.0 2.697802874669612
      vertex 2.0519404804327173 0.0 2.0976044077218243
    endloop
  endfacet
  facet normal -0.0 -1.0 0.0
    outer loop
      vertex 2.4120415261392663 0.0 2.7001960366743547
      vertex 2.034164055185561 0.0 3.343132839386013
      vertex 1.7300321576740956 0.0 2.697802874669612
    endloop
  endfacet
  facet normal 0.0 -1.0 0.0
    outer loop
      vertex 2.0519404804327173 0.0 2.0976044077218243
      vertex 2.4147390595172418 0.0 1.542848809009987
      vertex 2.7644118351045925 0.0 2.0789475486056546
    endloop
  endfacet
  facet normal 0.0 -1.0 0.0
    outer loop
      vertex 2.4147390595172418 0.0 1.542848809009987
      vertex 3.1428946227824075 0.0 1.4795149343469627
      vertex 2.7644118351045925 0.0 2.0789475486056546
    endloop
  endfacet
  facet normal 0.0 -1.0 0.0
    outer loop
      vertex 3.1428946227824075 0.0 1.4795149343469627
      vertex 3.676802176659442 0.0 1.9981243083262568
      vertex 2.7644118351045925 0.0 2.0789475486056546
    endloop
  endfacet
  facet normal 0.0 -1.0 -0.0
    outer loop
      vertex 1.7300321576740956 0.0 2.697802874669612
      vertex 1.2846404246871668 0.0 2.0438714510421554
      vertex 2.0519404804327173 0.0 2.0976044077218243
    endloop
  endfacet
  facet normal 0.0 -1.0 0.0
    outer loop
      vertex 1.2846404246871668 0.0 2.0438714510421554
      vertex 1.7605442029988447 0.0 1.4743463340426153
      vertex 2.0519404804327173 0.0 2.0976044077218243
    endloop
  endfacet
  facet normal 0.0 -1.0 -0.0
    outer loop
      vertex 2.0519404804327173 0.0 2.0976044077218243
      vertex 1.7605442029988447 0.0 1.4743463340426153
      vertex 2.4147390595172418 0.0 1.542848809009987
    endloop
  endfacet
  facet normal 0.0 -1.0 0.0
    outer loop
      vertex 1.7300321576740956 0.0 2.697802874669612
      vertex 1.1380824119342483 0.0 2.6131715506014763
      vertex 1.2846404246871668 0.0 2.0438714510421554
    endloop
  endfacet
  facet normal 0.0 -1.0 0.0
    outer loop
      vertex 2.034164055185561 0.0 3.343132839386013
      vertex 1.249359836889724 0.0 3.230502435727849
      vertex 1.7300321576740956 0.0 2.697802874669612
    endloop
  endfacet
  facet normal 0.0 -1.0 -0.0
    outer loop
      vertex 1.249359836889724 0.0 3.230502435727849
      vertex 1.1380824119342483 0.0 2.6131715506014763
      vertex 1.7300321576740956 0.0 2.697802874669612
    endloop
  endfacet
  facet normal -0.0 -1.0 0.0
    outer loop
      vertex 1.2846404246871668 0.0 2.0438714510421554
      vertex 0.6409486279179474 0.0 2.2426137272721824
      vertex 0.6703533761970905 0.0 1.7091526435102915
    endloop
  endfacet
  facet normal 0.0 -1.0 -0.0
    outer loop
      vertex 1.1380824119342483 0.0 2.6131715506014763
      vertex 0.6409486279179474 0.0 2.2426137272721824
      vertex 1.2846404246871668 0.0 2.0438714510421554
    endloop
  endfacet
  facet normal 0.0 -1.0 0.0
    outer loop
      vertex 2.4147390595172418 0.0 1.542848809009987
      vertex 2.7639908025298983 0.0 0.999839791350705
      vertex 3.1428946227824075 0.0 1.4795149343469627
    endloop
  endfacet
  facet normal 0.0 -1.0 0.0
    outer loop
      vertex 1.7605442029988447 0.0 1.4743463340426153
      vertex 2.1357530757358707 0.0 1.0103723202703918
      vertex 2.4147390595172418 0.0 1.542848809009987
    endloop
  endfacet
  facet normal 0.0 -1.0 0.0
    outer loop
      vertex 2.1357530757358707 0.0 1.0103723202703918
      vertex 2.7639908025298983 0.0 0.999839791350705
      vertex 2.4147390595172418 0.0 1.542848809009987
    endloop
  endfacet
  facet normal 0.0 -1.0 -0.0
    outer loop
      vertex 3.1428946227824075 0.0 1.4795149343469627
      vertex 2.7639908025298983 0.0 0.999839791350705
      vertex 3.4056980988813135 0.0 0.8710858116136033
    endloop
  endfacet
  facet normal 0.0 -1.0 -0.0
    outer loop
      vertex 0.9635238525128592 0.0 3.782224025673575
      vertex 0.6724730824027596 0.0 3.3724956015453484
      vertex 1.249359836889724 0.0 3.230502435727849
    endloop
  endfacet
  facet normal 0.0 -1.0 0.0
    outer loop
      vertex 2.483564343832837 0.0 4.561788225559185
      vertex 1.9741883904581519 0.0 4.474987881028374
      vertex 2.368127566339114 0.0 4.003255121393962
    endloop
  endfacet
  facet normal 0.0 -1.0 0.0
    outer loop
      vertex 1.5616188155232282 0.0 0.8571232644933341
      vertex 2.1357530757358707 0.0 1.0103723202703918
      vertex 1.7605442029988447 0.0 1.4743463340426153
    endloop
  endfacet
  facet normal -0.0 -1.0 0.0
    outer loop
      vertex 3.4056980988813135 0.0 0.8710858116136033
      vertex 2.7639908025298983 0.0 0.999839791350705
      vertex 3.004424502903006 0.0 0.5312490321469124
    endloop
  endfacet
  facet normal 0.0 -1.0 0.0
    outer loop
      vertex 1.5616188155232282 0.0 0.8571232644933341
      vertex 1.9566965436861488 0.0 0.5365659664782928
      vertex 2.1357530757358707 0.0 1.0103723202703918
    endloop
  endfacet
  facet normal -0.0 -1.0 0.0
    outer loop
      vertex 3.8517236500541276 0.0 3.7943654696838105
      vertex 3.5338257247492226 0.0 4.220904666221088
      vertex 3.1528593804316163 0.0 3.7842000001927807
    endloop
  endfacet
  facet normal 0.9883114282132749 0.055215544313507274 0.14209772879676835
    outer loop
      vertex 4.898732434036242 1.5430539436446857 3.2043313921035756
      vertex 4.946376182619586 1.1774709736085174 3.015018031831524
      vertex 4.999999998369806 1.5430539436446857 2.5
    endloop
  endfacet
  facet normal 0.9883727155568001 0.05408425154761376 -0.14210654058632027
    outer loop
      vertex 4.999999998369806 1.5430539436446857 2.5
      vertex 4.945226032033614 1.176543313339412 1.979548607202224
      vertex 4.898732434036244 1.5430539436446857 1.795668607896428
    endloop
  endfacet
  facet normal 0.9946231631680903 3.152375390265104e-09 0.10356043303068097
    outer loop
      vertex 4.999999998369806 1.5430539436446857 2.5
      vertex 4.946376182619586 1.1774709736085174 3.015018031831524
      vertex 5.0 1.0287026290964567 2.4999999999999996
    endloop
  endfacet
  facet normal 0.9945075196257175 3.152009047446805e-09 -0.10466514896517885
    outer loop
      vertex 5.0 1.0287026290964567 2.4999999999999996
      vertex 4.945226032033614 1.176543313339412 1.979548607202224
      vertex 4.999999998369806 1.5430539436446857 2.5
    endloop
  endfacet
  facet normal 0.9850114494343417 -0.09846469277368285 0.14162326348535162
    outer loop
      vertex 4.999999998369806 0.0 2.5
      vertex 4.974510319203752 0.257175657354902 2.85608802304226
      vertex 4.898732434036242 0.0 3.2043313921035756
    endloop
  endfacet
  facet normal 0.9849642353862886 -0.09894558596323269 -0.14161647513017747
    outer loop
      vertex 4.898732434036244 0.0 1.795668607896428
      vertex 4.974553604694035 0.2559136565712547 2.1442129042590863
      vertex 4.999999998369806 0.0 2.5
    endloop
  endfacet
  facet normal 0.9974477751567381 -3.1613277910540835e-09 0.07139983077622133
    outer loop
      vertex 5.0 0.514351314548228 2.4999999999999996
      vertex 4.974510319203752 0.257175657354902 2.85608802304226
      vertex 4.999999998369806 0.0 2.5
    endloop
  endfacet
  facet normal 0.9974521147728236 -3.1613416683471053e-09 -0.07133918092620681
    outer loop
      vertex 4.999999998369806 0.0 2.5
      vertex 4.974553604694035 0.2559136565712547 2.1442129042590863
      vertex 5.0 0.514351314548228 2.4999999999999996
    endloop
  endfacet
  facet normal 0.9088219921979048 0.042191871148816514 0.4150450969550094
    outer loop
      vertex 4.60313383207795 1.5430539436446857 3.8516020436389957
      vertex 4.760837635358614 0.9451626016671442 3.567058192670888
      vertex 4.898732434036242 1.5430539436446857 3.2043313921035756
    endloop
  endfacet
  facet normal 0.9515945812715548 -0.03416070695293146 0.3054517948794704
    outer loop
      vertex 4.760837635358614 0.9451626016671442 3.567058192670888
      vertex 4.946376182619586 1.1774709736085174 3.015018031831524
      vertex 4.898732434036242 1.5430539436446857 3.2043313921035756
    endloop
  endfacet
  facet normal 0.7552611512548231 0.0359462805826392 0.654437512920457
    outer loop
      vertex 4.137151834863209 1.5430539436446857 4.389373935885648
      vertex 4.29390785649101 0.9465202072007668 4.241233643834115
      vertex 4.60313383207795 1.5430539436446857 3.8516020436389957
    endloop
  endfacet
  facet normal 0.8208271114587428 -0.05410108432191193 0.5686087633597375
    outer loop
      vertex 4.29390785649101 0.9465202072007668 4.241233643834115
      vertex 4.760837635358614 0.9451626016671442 3.567058192670888
      vertex 4.60313383207795 1.5430539436446857 3.8516020436389957
    endloop
  endfacet
  facet normal 0.5401796963686083 0.041292906216294396 0.8405360144142132
    outer loop
      vertex 3.53853753250471 1.5430539436446857 4.774079988386297
      vertex 3.85160204363899 0.9273382191983771 4.603133832077955
      vertex 4.137151834863209 1.5430539436446857 4.389373935885648
    endloop
  endfacet
  facet normal 0.6337080938614222 -0.025476343711677178 0.7731526419055991
    outer loop
      vertex 4.137151834863209 1.5430539436446857 4.389373935885648
      vertex 3.85160204363899 0.9273382191983771 4.603133832077955
      vertex 4.29390785649101 0.9465202072007668 4.241233643834115
    endloop
  endfacet
  facet normal 0.2811497693603028 0.06428755022884391 0.9575081817270402
    outer loop
      vertex 2.855787095683205 1.5430539436446857 4.974553604702333
      vertex 3.2044960659718433 1.148051313740228 4.898684075285904
      vertex 3.53853753250471 1.5430539436446857 4.774079988386297
    endloop
  endfacet
  facet normal 0.4006862356109904 -0.05026183093697889 0.9148356622600347
    outer loop
      vertex 3.53853753250471 1.5430539436446857 4.774079988386297
      vertex 3.2044960659718433 1.148051313740228 4.898684075285904
      vertex 3.85160204363899 0.9273382191983771 4.603133832077955
    endloop
  endfacet
  facet normal -3.74137042520761e-15 0.04129290621629342 0.9991470842154384
    outer loop
      vertex 2.144212904316779 1.5430539436446857 4.97455360470233
      vertex 2.4999999999999916 0.9273382191983699 5.0
      vertex 2.855787095683205 1.5430539436446857 4.974553604702333
    endloop
  endfacet
  facet normal 0.15759196066331582 -0.05030468607874059 0.9862221922532525
    outer loop
      vertex 2.4999999999999916 0.9273382191983699 5.0
      vertex 3.2044960659718433 1.148051313740228 4.898684075285904
      vertex 2.855787095683205 1.5430539436446857 4.974553604702333
    endloop
  endfacet
  facet normal -0.2811497693603064 0.0642875502288473 0.9575081817270388
    outer loop
      vertex 1.4614624674952748 1.5430539436446857 4.774079988386291
      vertex 1.7958332850842766 1.14805131374025 4.898780781481459
      vertex 2.144212904316779 1.5430539436446857 4.97455360470233
    endloop
  endfacet
  facet normal -0.15751878901720903 -0.0502618309369689 0.9862360668001426
    outer loop
      vertex 2.144212904316779 1.5430539436446857 4.97455360470233
      vertex 1.7958332850842766 1.14805131374025 4.898780781481459
      vertex 2.4999999999999916 0.9273382191983699 5.0
    endloop
  endfacet
  facet normal -0.540179696368615 0.04129290621629306 0.840536014414209
    outer loop
      vertex 0.8628481651367791 1.5430539436446857 4.389373935885638
      vertex 1.1483979563609905 0.9273382191983783 4.603133832077942
      vertex 1.4614624674952748 1.5430539436446857 4.774079988386291
    endloop
  endfacet
  facet normal -0.40061717855882584 -0.050304686078755 0.9148635498270132
    outer loop
      vertex 1.1483979563609905 0.9273382191983783 4.603133832077942
      vertex 1.7958332850842766 1.14805131374025 4.898780781481459
      vertex 1.4614624674952748 1.5430539436446857 4.774079988386291
    endloop
  endfacet
  facet normal -0.7551049836131193 0.04129290621629371 0.6543021928886096
    outer loop
      vertex 0.3968661679220414 1.5430539436446857 3.8516020436389837
      vertex 0.6106260641143471 0.9273382191983783 4.137151834863204
      vertex 0.8628481651367791 1.5430539436446857 4.389373935885638
    endloop
  endfacet
  facet normal -0.6543021928886179 -0.041292906216293154 0.7551049836131121
    outer loop
      vertex 0.6106260641143471 0.9273382191983783 4.137151834863204
      vertex 1.1483979563609905 0.9273382191983783 4.603133832077942
      vertex 0.8628481651367791 1.5430539436446857 4.389373935885638
    endloop
  endfacet
  facet normal -0.9077503450927672 0.06428755022885126 0.414555692120534
    outer loop
      vertex 0.10126756596375383 1.5430539436446857 3.2043313921035637
      vertex 0.2259913136767138 1.1480513137402715 3.5386936480629125
      vertex 0.3968661679220414 1.5430539436446857 3.8516020436389837
    endloop
  endfacet
  facet normal -0.8485003574829946 -0.05026183093695393 0.5268025167955214
    outer loop
      vertex 0.3968661679220414 1.5430539436446857 3.8516020436389837
      vertex 0.2259913136767138 1.1480513137402715 3.5386936480629125
      vertex 0.6106260641143471 0.9273382191983783 4.137151834863204
    endloop
  endfacet
  facet normal -0.9884498117442803 0.05262651022897829 0.14211762763224092
    outer loop
      vertex 0.0 1.5430539436446857 2.499999999999987
      vertex 0.0506521392513546 1.1422972240179694 3.0006945746121434
      vertex 0.10126756596375383 1.5430539436446857 3.2043313921035637
    endloop
  endfacet
  facet normal -0.9499907932118015 -0.03754358127899462 0.31001285831003844
    outer loop
      vertex 0.0506521392513546 1.1422972240179694 3.0006945746121434
      vertex 0.2259913136767138 1.1480513137402715 3.5386936480629125
      vertex 0.10126756596375383 1.5430539436446857 3.2043313921035637
    endloop
  endfacet
  facet normal -0.9889772075492543 0.0412929062162932 -0.14219345570134995
    outer loop
      vertex 0.10126756596376031 1.5430539436446857 1.795668607896414
      vertex 0.025446395297669955 0.9273382191983711 2.144212904316775
      vertex 0.0 1.5430539436446857 2.499999999999987
    endloop
  endfacet
  facet normal -0.9966061686529314 -0.06799715091592627 0.046395388458786574
    outer loop
      vertex 0.025446395297669955 0.9273382191983711 2.144212904316775
      vertex 0.0506521392513546 1.1422972240179694 3.0006945746121434
      vertex 0.0 1.5430539436446857 2.499999999999987
    endloop
  endfacet
  facet normal -0.9077503450927629 0.0642875502288595 -0.41455569212054183
    outer loop
      vertex 0.3968661679220539 1.5430539436446857 1.1483979563609958
      vertex 0.22584872026827169 1.1480513137403303 1.461618587948272
      vertex 0.10126756596376031 1.5430539436446857 1.795668607896414
    endloop
  endfacet
  facet normal -0.9537803446911309 -0.05026183093693005 -0.29627150121423257
    outer loop
      vertex 0.10126756596376031 1.5430539436446857 1.795668607896414
      vertex 0.22584872026827169 1.1480513137403303 1.461618587948272
      vertex 0.025446395297669955 0.9273382191983711 2.144212904316775
    endloop
  endfacet
  facet normal -0.7551049836131122 0.04129290621629409 -0.6543021928886177
    outer loop
      vertex 0.862848165136799 1.5430539436446857 0.6106260641143446
      vertex 0.6106260641143634 0.927338219198379 0.8628481651367771
      vertex 0.3968661679220539 1.5430539436446857 1.1483979563609958
    endloop
  endfacet
  facet normal -0.8485377890380252 -0.0503046860788006 -0.5267381314590517
    outer loop
      vertex 0.6106260641143634 0.927338219198379 0.8628481651367771
      vertex 0.22584872026827169 1.1480513137403303 1.461618587948272
      vertex 0.3968661679220539 1.5430539436446857 1.1483979563609958
    endloop
  endfacet
  facet normal -0.5395175204062774 0.06442911844477713 -0.8395056485045773
    outer loop
      vertex 1.4614624674952965 1.5430539436446857 0.22592001161369923
      vertex 1.1483979563610174 1.1489227561267896 0.3968661679220401
      vertex 0.862848165136799 1.5430539436446857 0.6106260641143446
    endloop
  endfacet
  facet normal -0.6421065097710996 -0.0503264818227744 -0.7649617476298529
    outer loop
      vertex 0.862848165136799 1.5430539436446857 0.6106260641143446
      vertex 1.1483979563610174 1.1489227561267896 0.3968661679220401
      vertex 0.6106260641143634 0.927338219198379 0.8628481651367771
    endloop
  endfacet
  facet normal -0.2813416300715614 0.0526615306436121 -0.9581615993030345
    outer loop
      vertex 2.1442129043168 1.5430539436446857 0.025446395297666933
      vertex 1.655895986602069 1.1424782954569255 0.1468131364964865
      vertex 1.4614624674952965 1.5430539436446857 0.22592001161369923
    endloop
  endfacet
  facet normal -0.44205144976713473 -0.03758059432293848 -0.8962021059387827
    outer loop
      vertex 1.4614624674952965 1.5430539436446857 0.22592001161369923
      vertex 1.655895986602069 1.1424782954569255 0.1468131364964865
      vertex 1.1483979563610174 1.1489227561267896 0.3968661679220401
    endloop
  endfacet
  facet normal 4.2431427608799925e-15 0.04129290621629408 -0.9991470842154384
    outer loop
      vertex 2.855787095683225 1.5430539436446857 0.025446395297669955
      vertex 2.5000000000000124 0.9273382191983801 0.0
      vertex 2.1442129043168 1.5430539436446857 0.025446395297666933
    endloop
  endfacet
  facet normal -0.18775552643382032 -0.06799746250891381 -0.9798592793793953
    outer loop
      vertex 2.5000000000000124 0.9273382191983801 0.0
      vertex 1.655895986602069 1.1424782954569255 0.1468131364964865
      vertex 2.1442129043168 1.5430539436446857 0.025446395297666933
    endloop
  endfacet
  facet normal 0.28149226269667893 0.04129290621629243 -0.9586746069121244
    outer loop
      vertex 3.538537532504723 1.5430539436446857 0.22592001161370745
      vertex 3.204331392103585 0.927338219198382 0.10126756596376031
      vertex 2.855787095683225 1.5430539436446857 0.025446395297669955
    endloop
  endfacet
  facet normal 0.1421934557013502 -0.04129290621629405 -0.9889772075492541
    outer loop
      vertex 2.855787095683225 1.5430539436446857 0.025446395297669955
      vertex 3.204331392103585 0.927338219198382 0.10126756596376031
      vertex 2.5000000000000124 0.9273382191983801 0.0
    endloop
  endfacet
  facet normal 0.5395224564690981 0.06428755022881481 -0.8395133291682317
    outer loop
      vertex 4.137151834863218 1.5430539436446857 0.6106260641143593
      vertex 3.851457658084277 1.1480513137400572 0.3967733839632597
      vertex 3.538537532504723 1.5430539436446857 0.22592001161370745
    endloop
  endfacet
  facet normal 0.4289929800232348 -0.05026183093704728 -0.90190840523949
    outer loop
      vertex 3.538537532504723 1.5430539436446857 0.22592001161370745
      vertex 3.851457658084277 1.1480513137400572 0.3967733839632597
      vertex 3.204331392103585 0.927338219198382 0.10126756596376031
    endloop
  endfacet
  facet normal 0.7551049836131177 0.04129290621629373 -0.6543021928886114
    outer loop
      vertex 4.603133832077953 1.5430539436446857 1.148397956361008
      vertex 4.38937393588565 0.9273382191983752 0.8628481651367922
      vertex 4.137151834863218 1.5430539436446857 0.6106260641143593
    endloop
  endfacet
  facet normal 0.6421362149903774 -0.05030468607865651 -0.7649382458449566
    outer loop
      vertex 4.38937393588565 0.9273382191983752 0.8628481651367922
      vertex 3.851457658084277 1.1480513137400572 0.3967733839632597
      vertex 4.137151834863218 1.5430539436446857 0.6106260641143593
    endloop
  endfacet
  facet normal 0.9088219921979044 0.04219187114883739 -0.4150450969550081
    outer loop
      vertex 4.898732434036244 1.5430539436446857 1.795668607896428
      vertex 4.760837635358191 0.9451626016677135 1.4329418073282127
      vertex 4.603133832077953 1.5430539436446857 1.148397956361008
    endloop
  endfacet
  facet normal 0.837770350723967 -0.03824484599538867 -0.5446817155023935
    outer loop
      vertex 4.603133832077953 1.5430539436446857 1.148397956361008
      vertex 4.760837635358191 0.9451626016677135 1.4329418073282127
      vertex 4.38937393588565 0.9273382191983752 0.8628481651367922
    endloop
  endfacet
  facet normal 0.9511953525615036 -0.0332554136047608 -0.3067922403376157
    outer loop
      vertex 4.898732434036244 1.5430539436446857 1.795668607896428
      vertex 4.945226032033614 1.176543313339412 1.979548607202224
      vertex 4.760837635358191 0.9451626016677135 1.4329418073282127
    endloop
  endfacet
  facet normal 0.9078408017762933 -0.0627248300989157 0.41459700230373
    outer loop
      vertex 4.898732434036242 0.0 3.2043313921035756
      vertex 4.774079988386294 0.4048841219583915 3.5385375325047193
      vertex 4.60313383207795 0.0 3.8516020436389957
    endloop
  endfacet
  facet normal 0.9610180147038632 0.0765770695733017 0.26566958393879275
    outer loop
      vertex 4.898732434036242 0.0 3.2043313921035756
      vertex 4.974510319203752 0.257175657354902 2.85608802304226
      vertex 4.774079988386294 0.4048841219583915 3.5385375325047193
    endloop
  endfacet
  facet normal 0.7542467887936355 -0.06303163116391887 0.6535585628444515
    outer loop
      vertex 4.60313383207795 0.0 3.8516020436389957
      vertex 4.3776959850514485 0.40190674285881184 4.150532576994974
      vertex 4.137151834863209 0.0 4.389373935885648
    endloop
  endfacet
  facet normal 0.8373476748820621 0.06606234558022037 0.5426643878734296
    outer loop
      vertex 4.774079988386294 0.4048841219583915 3.5385375325047193
      vertex 4.3776959850514485 0.40190674285881184 4.150532576994974
      vertex 4.60313383207795 0.0 3.8516020436389957
    endloop
  endfacet
  facet normal 0.53951752040628 -0.0644291184447729 0.839505648504576
    outer loop
      vertex 4.137151834863209 0.0 4.389373935885648
      vertex 3.85160204363899 0.39413118751792875 4.603133832077955
      vertex 3.53853753250471 0.0 4.774079988386297
    endloop
  endfacet
  facet normal 0.6504572599725154 0.0606301517492107 0.7571191040040631
    outer loop
      vertex 4.137151834863209 0.0 4.389373935885648
      vertex 4.3776959850514485 0.40190674285881184 4.150532576994974
      vertex 3.85160204363899 0.39413118751792875 4.603133832077955
    endloop
  endfacet
  facet normal 0.28149226269667443 -0.04129290621629316 0.9586746069121257
    outer loop
      vertex 3.53853753250471 0.0 4.774079988386297
      vertex 3.2043313921035677 0.6157157244463085 4.898732434036244
      vertex 2.855787095683205 0.0 4.974553604702333
    endloop
  endfacet
  facet normal 0.42909299676125495 0.05032648182277151 0.9018572200508171
    outer loop
      vertex 3.53853753250471 0.0 4.774079988386297
      vertex 3.85160204363899 0.39413118751792875 4.603133832077955
      vertex 3.2043313921035677 0.6157157244463085 4.898732434036244
    endloop
  endfacet
  facet normal -3.73681827721159e-15 -0.06428755022881857 0.9979314159227463
    outer loop
      vertex 2.855787095683205 0.0 4.974553604702333
      vertex 2.499828372346613 0.39500262990460283 4.999999994108789
      vertex 2.144212904316779 0.0 4.97455360470233
    endloop
  endfacet
  facet normal 0.12664252088281178 0.05030468607866646 0.9906720499049994
    outer loop
      vertex 3.2043313921035677 0.6157157244463085 4.898732434036244
      vertex 2.499828372346613 0.39500262990460283 4.999999994108789
      vertex 2.855787095683205 0.0 4.974553604702333
    endloop
  endfacet
  facet normal -0.28149226269667815 -0.04129290621629246 0.9586746069121246
    outer loop
      vertex 2.144212904316779 0.0 4.97455360470233
      vertex 1.7956686078964166 0.6157157244463092 4.89873243403624
      vertex 1.4614624674952748 0.0 4.774079988386291
    endloop
  endfacet
  facet normal -0.1267166374744454 0.05026183093704318 0.9906647476003304
    outer loop
      vertex 2.144212904316779 0.0 4.97455360470233
      vertex 2.499828372346613 0.39500262990460283 4.999999994108789
      vertex 1.7956686078964166 0.6157157244463092 4.89873243403624
    endloop
  endfacet
  facet normal -0.5398906344778346 -0.052661530643710014 0.8400862253324851
    outer loop
      vertex 1.4614624674952748 0.0 4.774079988386291
      vertex 1.0271187783650908 0.4005756481880085 4.520054679199366
      vertex 0.8628481651367791 0.0 4.389373935885638
    endloop
  endfacet
  facet normal -0.4562083684947215 0.06799746250879361 0.8872712491722864
    outer loop
      vertex 1.7956686078964166 0.6157157244463092 4.89873243403624
      vertex 1.0271187783650908 0.4005756481880085 4.520054679199366
      vertex 1.4614624674952748 0.0 4.774079988386291
    endloop
  endfacet
  facet normal -0.7541793428077647 -0.06442911844476812 0.6535001205650066
    outer loop
      vertex 0.8628481651367791 0.0 4.389373935885638
      vertex 0.6106260641143471 0.3941311875179501 4.137151834863204
      vertex 0.3968661679220414 0.0 3.8516020436389837
    endloop
  endfacet
  facet normal -0.676634570780355 0.03758059432308647 0.7353593383885244
    outer loop
      vertex 0.8628481651367791 0.0 4.389373935885638
      vertex 1.0271187783650908 0.4005756481880085 4.520054679199366
      vertex 0.6106260641143471 0.3941311875179501 4.137151834863204
    endloop
  endfacet
  facet normal -0.9088561558675399 -0.04129290621629367 0.41506069898014963
    outer loop
      vertex 0.3968661679220414 0.0 3.8516020436389837
      vertex 0.22592001161369968 0.6157157244463073 3.5385375325047055
      vertex 0.10126756596375383 0.0 3.2043313921035637
    endloop
  endfacet
  facet normal -0.8316113134831541 0.05032648182277116 0.5530731131723596
    outer loop
      vertex 0.3968661679220414 0.0 3.8516020436389837
      vertex 0.6106260641143471 0.3941311875179501 4.137151834863204
      vertex 0.22592001161369968 0.6157157244463073 3.5385375325047055
    endloop
  endfacet
  facet normal -0.9889772075492556 -0.041292906216293175 0.14219345570134037
    outer loop
      vertex 0.10126756596375383 0.0 3.2043313921035637
      vertex 0.025446395297666933 0.6157157244463073 2.8557870956832003
      vertex 0.0 0.0 2.499999999999987
    endloop
  endfacet
  facet normal -0.9586746069121271 0.04129290621629378 0.28149226269666994
    outer loop
      vertex 0.10126756596375383 0.0 3.2043313921035637
      vertex 0.22592001161369968 0.6157157244463073 3.5385375325047055
      vertex 0.025446395297666933 0.6157157244463073 2.8557870956832003
    endloop
  endfacet
  facet normal -0.9877739130069328 -0.06428755022881608 -0.1420204480648815
    outer loop
      vertex 0.0 0.0 2.499999999999987
      vertex 0.025470826290646762 0.3950026299046145 2.144043024423876
      vertex 0.10126756596376031 0.0 1.795668607896414
    endloop
  endfacet
  facet normal -0.9986115467460644 0.050304686078661606 -0.015633849940428532
    outer loop
      vertex 0.025446395297666933 0.6157157244463073 2.8557870956832003
      vertex 0.025470826290646762 0.3950026299046145 2.144043024423876
      vertex 0.0 0.0 2.499999999999987
    endloop
  endfacet
  facet normal -0.9088561558675362 -0.04129290621629264 -0.4150606989801577
    outer loop
      vertex 0.10126756596376031 0.0 1.795668607896414
      vertex 0.22592001161371045 0.6157157244463145 1.4614624674952712
      vertex 0.3968661679220539 0.0 1.1483979563609958
    endloop
  endfacet
  facet normal -0.96254755112166 0.050261830937045754 -0.26641313815304035
    outer loop
      vertex 0.10126756596376031 0.0 1.795668607896414
      vertex 0.025470826290646762 0.3950026299046145 2.144043024423876
      vertex 0.22592001161371045 0.6157157244463145 1.4614624674952712
    endloop
  endfacet
  facet normal -0.7541862428183541 -0.06428755022881964 -0.6535060994582312
    outer loop
      vertex 0.3968661679220539 0.0 1.1483979563609958
      vertex 0.6107384607777133 0.3950026299045998 0.8627184614686965
      vertex 0.862848165136799 0.0 0.6106260641143446
    endloop
  endfacet
  facet normal -0.8316331942143584 0.0503046860786673 -0.5530421944475394
    outer loop
      vertex 0.22592001161371045 0.6157157244463145 1.4614624674952712
      vertex 0.6107384607777133 0.3950026299045998 0.8627184614686965
      vertex 0.3968661679220539 0.0 1.1483979563609958
    endloop
  endfacet
  facet normal -0.540179696368606 -0.0412929062162934 -0.8405360144142148
    outer loop
      vertex 0.862848165136799 0.0 0.6106260641143446
      vertex 1.1483979563610174 0.615715724446314 0.3968661679220401
      vertex 1.4614624674952965 0.0 0.22592001161369923
    endloop
  endfacet
  facet normal -0.665712711107121 0.05026183093703973 -0.7445134885421911
    outer loop
      vertex 0.862848165136799 0.0 0.6106260641143446
      vertex 0.6107384607777133 0.3950026299045998 0.8627184614686965
      vertex 1.1483979563610174 0.615715724446314 0.3968661679220401
    endloop
  endfacet
  facet normal -0.28149226269667 -0.04129290621629247 -0.9586746069121271
    outer loop
      vertex 1.4614624674952965 0.0 0.22592001161369923
      vertex 1.7956686078964341 0.6157157244463152 0.10126756596375512
      vertex 2.1442129043168 0.0 0.025446395297666933
    endloop
  endfacet
  facet normal -0.4150606989801484 0.041292906216292155 -0.9088561558675404
    outer loop
      vertex 1.1483979563610174 0.615715724446314 0.3968661679220401
      vertex 1.7956686078964341 0.6157157244463152 0.10126756596375512
      vertex 1.4614624674952965 0.0 0.22592001161369923
    endloop
  endfacet
  facet normal 4.2408721630075506e-15 -0.05266153064370909 -0.9986124189044826
    outer loop
      vertex 2.1442129043168 0.0 0.025446395297666933
      vertex 2.646942518073737 0.40057564818800784 0.004322156931678806
      vertex 2.855787095683225 0.0 0.025446395297669955
    endloop
  endfacet
  facet normal -0.09590815175401791 0.0679974625087944 -0.9930649382187922
    outer loop
      vertex 1.7956686078964341 0.6157157244463152 0.10126756596375512
      vertex 2.646942518073737 0.40057564818800784 0.004322156931678806
      vertex 2.1442129043168 0.0 0.025446395297666933
    endloop
  endfacet
  facet normal 0.28114719713573294 -0.06442911844476315 -0.9574994215346305
    outer loop
      vertex 2.855787095683225 0.0 0.025446395297669955
      vertex 3.204331392103585 0.3941311875179665 0.10126756596376031
      vertex 3.538537532504723 0.0 0.22592001161370745
    endloop
  endfacet
  facet normal 0.17165594927470706 0.037580594323083534 -0.9844399087851543
    outer loop
      vertex 2.855787095683225 0.0 0.025446395297669955
      vertex 2.646942518073737 0.40057564818800784 0.004322156931678806
      vertex 3.204331392103585 0.3941311875179665 0.10126756596376031
    endloop
  endfacet
  facet normal 0.540179696368614 -0.04129290621629309 -0.8405360144142096
    outer loop
      vertex 3.538537532504723 0.0 0.22592001161370745
      vertex 3.8516020436389993 0.6157157244463036 0.3968661679220513
      vertex 4.137151834863218 0.0 0.6106260641143593
    endloop
  endfacet
  facet normal 0.40058205539186587 0.05032648182277138 -0.9148777306970425
    outer loop
      vertex 3.538537532504723 0.0 0.22592001161370745
      vertex 3.204331392103585 0.3941311875179665 0.10126756596376031
      vertex 3.8516020436389993 0.6157157244463036 0.3968661679220513
    endloop
  endfacet
  facet normal 0.7546871263157797 -0.05300626495330223 -0.6539401174793689
    outer loop
      vertex 4.137151834863218 0.0 0.6106260641143593
      vertex 4.479255828382003 0.40345474894294725 0.9727323856586664
      vertex 4.603133832077953 0.0 1.148397956361008
    endloop
  endfacet
  facet normal 0.6867751324918261 0.06723724885031677 -0.7237534592372428
    outer loop
      vertex 3.8516020436389993 0.6157157244463036 0.3968661679220513
      vertex 4.479255828382003 0.40345474894294725 0.9727323856586664
      vertex 4.137151834863218 0.0 0.6106260641143593
    endloop
  endfacet
  facet normal 0.9078408017762969 -0.06272483009885879 -0.4145970023037305
    outer loop
      vertex 4.603133832077953 0.0 1.148397956361008
      vertex 4.774079988386297 0.40488412195875845 1.4614624674952856
      vertex 4.898732434036244 0.0 1.795668607896428
    endloop
  endfacet
  facet normal 0.8555992674677809 0.03793006469502042 -0.5162472311798179
    outer loop
      vertex 4.603133832077953 0.0 1.148397956361008
      vertex 4.479255828382003 0.40345474894294725 0.9727323856586664
      vertex 4.774079988386297 0.40488412195875845 1.4614624674952856
    endloop
  endfacet
  facet normal 0.9610648902407876 0.07677986454156219 -0.26544138552125296
    outer loop
      vertex 4.774079988386297 0.40488412195875845 1.4614624674952856
      vertex 4.974553604694035 0.2559136565712547 2.1442129042590863
      vertex 4.898732434036244 0.0 1.795668607896428
    endloop
  endfacet
  facet normal 0.9928225565224792 0.0 -0.11959670254722192
    outer loop
      vertex 5.0 0.514351314548228 2.4999999999999996
      vertex 4.928483143699157 0.7675085532374241 1.9063084801270493
      vertex 5.0 1.0287026290964567 2.4999999999999996
    endloop
  endfacet
  facet normal 0.9938318199462782 0.0 0.11089776220586386
    outer loop
      vertex 5.0 1.0287026290964567 2.4999999999999996
      vertex 4.93850843168866 0.7686566591044055 3.051068624205105
      vertex 5.0 0.514351314548228 2.4999999999999996
    endloop
  endfacet
  facet normal 0.993655716175972 -0.02088580262483906 -0.11050837506511613
    outer loop
      vertex 4.928483143699157 0.7675085532374241 1.9063084801270493
      vertex 4.945226032033614 1.176543313339412 1.979548607202224
      vertex 5.0 1.0287026290964567 2.4999999999999996
    endloop
  endfacet
  facet normal 0.994281582456736 -0.009757525590285211 0.10634343177499875
    outer loop
      vertex 5.0 1.0287026290964567 2.4999999999999996
      vertex 4.946376182619586 1.1774709736085174 3.015018031831524
      vertex 4.93850843168866 0.7686566591044055 3.051068624205105
    endloop
  endfacet
  facet normal 0.993916179313196 0.04219497379567846 -0.10173599503538963
    outer loop
      vertex 5.0 0.514351314548228 2.4999999999999996
      vertex 4.974553604694035 0.2559136565712547 2.1442129042590863
      vertex 4.928483143699157 0.7675085532374241 1.9063084801270493
    endloop
  endfacet
  facet normal 0.9948617451849293 0.033621620679334496 0.09549709205254298
    outer loop
      vertex 4.93850843168866 0.7686566591044055 3.051068624205105
      vertex 4.974510319203752 0.257175657354902 2.85608802304226
      vertex 5.0 0.514351314548228 2.4999999999999996
    endloop
  endfacet
  facet normal 0.9432747413475164 0.005595793141847233 -0.3319660365683358
    outer loop
      vertex 4.928483143699157 0.7675085532374241 1.9063084801270493
      vertex 4.774079988386297 0.40488412195875845 1.4614624674952856
      vertex 4.760837635358191 0.9451626016677135 1.4329418073282127
    endloop
  endfacet
  facet normal 0.9447708590447987 0.019902011139235815 -0.327126785592936
    outer loop
      vertex 4.760837635358191 0.9451626016677135 1.4329418073282127
      vertex 4.945226032033614 1.176543313339412 1.979548607202224
      vertex 4.928483143699157 0.7675085532374241 1.9063084801270493
    endloop
  endfacet
  facet normal 0.9553530857075065 -0.049430842213056825 -0.2913023746337358
    outer loop
      vertex 4.928483143699157 0.7675085532374241 1.9063084801270493
      vertex 4.974553604694035 0.2559136565712547 2.1442129042590863
      vertex 4.774079988386297 0.40488412195875845 1.4614624674952856
    endloop
  endfacet
  facet normal 0.946140975786866 0.0061025362345153 0.32369740961055543
    outer loop
      vertex 4.760837635358614 0.9451626016671442 3.567058192670888
      vertex 4.774079988386294 0.4048841219583915 3.5385375325047193
      vertex 4.93850843168866 0.7686566591044055 3.051068624205105
    endloop
  endfacet
  facet normal 0.9465390991336333 0.010216279140471208 0.32242729638139184
    outer loop
      vertex 4.93850843168866 0.7686566591044055 3.051068624205105
      vertex 4.946376182619586 1.1774709736085174 3.015018031831524
      vertex 4.760837635358614 0.9451626016671442 3.567058192670888
    endloop
  endfacet
  facet normal 0.9560017191829279 -0.04331521434811573 0.29014566191012264
    outer loop
      vertex 4.774079988386294 0.4048841219583915 3.5385375325047193
      vertex 4.974510319203752 0.257175657354902 2.85608802304226
      vertex 4.93850843168866 0.7686566591044055 3.051068624205105
    endloop
  endfacet
  facet normal 0.6548455457929061 4.588755584791037e-05 -0.7557627333029349
    outer loop
      vertex 3.8516020436389993 0.6157157244463036 0.3968661679220513
      vertex 3.851457658084277 1.1480513137400572 0.3967733839632597
      vertex 4.38937393588565 0.9273382191983752 0.8628481651367922
    endloop
  endfacet
  facet normal 0.6678606037499563 -0.04128935399100004 -0.7431402311850368
    outer loop
      vertex 4.38937393588565 0.9273382191983752 0.8628481651367922
      vertex 4.479255828382003 0.40345474894294725 0.9727323856586664
      vertex 3.8516020436389993 0.6157157244463036 0.3968661679220513
    endloop
  endfacet
  facet normal 0.41539673639080066 -4.5878472447375665e-05 -0.9096403406242696
    outer loop
      vertex 3.204331392103585 0.927338219198382 0.10126756596376031
      vertex 3.851457658084277 1.1480513137400572 0.3967733839632597
      vertex 3.8516020436389993 0.6157157244463036 0.3968661679220513
    endloop
  endfacet
  facet normal 0.4154150130018898 0.0 -0.9096319953545168
    outer loop
      vertex 3.8516020436389993 0.6157157244463036 0.3968661679220513
      vertex 3.204331392103585 0.3941311875179665 0.10126756596376031
      vertex 3.204331392103585 0.927338219198382 0.10126756596376031
    endloop
  endfacet
  facet normal 0.14224393670595636 0.031561942589862606 -0.989328310648364
    outer loop
      vertex 3.204331392103585 0.927338219198382 0.10126756596376031
      vertex 2.646942518073737 0.40057564818800784 0.004322156931678806
      vertex 2.5000000000000124 0.9273382191983801 0.0
    endloop
  endfacet
  facet normal -0.12367915440268264 -0.04263541026894502 -0.9914059151313532
    outer loop
      vertex 2.5000000000000124 0.9273382191983801 0.0
      vertex 2.646942518073737 0.40057564818800784 0.004322156931678806
      vertex 1.7956686078964341 0.6157157244463152 0.10126756596375512
    endloop
  endfacet
  facet normal -0.16064204370581975 0.0426354102691987 -0.9860914539662103
    outer loop
      vertex 1.7956686078964341 0.6157157244463152 0.10126756596375512
      vertex 1.655895986602069 1.1424782954569255 0.1468131364964865
      vertex 2.5000000000000124 0.9273382191983801 0.0
    endloop
  endfacet
  facet normal -0.6548455487995386 4.587847246503713e-05 -0.7557627306983304
    outer loop
      vertex 1.1483979563610174 0.615715724446314 0.3968661679220401
      vertex 0.6107384607777133 0.3950026299045998 0.8627184614686965
      vertex 0.6106260641143634 0.927338219198379 0.8628481651367771
    endloop
  endfacet
  facet normal -0.6548607339452809 0.0 -0.7557495743542619
    outer loop
      vertex 0.6106260641143634 0.927338219198379 0.8628481651367771
      vertex 1.1483979563610174 1.1489227561267896 0.3968661679220401
      vertex 1.1483979563610174 0.615715724446314 0.3968661679220401
    endloop
  endfacet
  facet normal -0.8412426672099388 -4.588755586813738e-05 -0.5406577223714096
    outer loop
      vertex 0.6106260641143634 0.927338219198379 0.8628481651367771
      vertex 0.6107384607777133 0.3950026299045998 0.8627184614686965
      vertex 0.22592001161371045 0.6157157244463145 1.4614624674952712
    endloop
  endfacet
  facet normal -0.8412643963413485 4.5887556126771224e-05 -0.5406239111829577
    outer loop
      vertex 0.22592001161371045 0.6157157244463145 1.4614624674952712
      vertex 0.22584872026827169 1.1480513137403303 1.461618587948272
      vertex 0.6106260641143634 0.927338219198379 0.8628481651367771
    endloop
  endfacet
  facet normal -0.9989143378249405 0.04267222412755259 0.01868761557204442
    outer loop
      vertex 0.025446395297666933 0.6157157244463073 2.8557870956832003
      vertex 0.0506521392513546 1.1422972240179694 3.0006945746121434
      vertex 0.025446395297669955 0.9273382191983711 2.144212904316775
    endloop
  endfacet
  facet normal -0.9999999987452473 -4.588755585561143e-05 -2.0095718493335035e-05
    outer loop
      vertex 0.025446395297669955 0.9273382191983711 2.144212904316775
      vertex 0.025470826290646762 0.3950026299046145 2.144043024423876
      vertex 0.025446395297666933 0.6157157244463073 2.8557870956832003
    endloop
  endfacet
  facet normal -0.9590142508575751 -0.031585078252178225 0.2815919911572196
    outer loop
      vertex 0.22592001161369968 0.6157157244463073 3.5385375325047055
      vertex 0.0506521392513546 1.1422972240179694 3.0006945746121434
      vertex 0.025446395297666933 0.6157157244463073 2.8557870956832003
    endloop
  endfacet
  facet normal -0.8412535328311838 0.0 0.5406408174555938
    outer loop
      vertex 0.22592001161369968 0.6157157244463073 3.5385375325047055
      vertex 0.6106260641143471 0.3941311875179501 4.137151834863204
      vertex 0.6106260641143471 0.9273382191983783 4.137151834863204
    endloop
  endfacet
  facet normal -0.8412426693609456 -4.587847266804415e-05 0.5406577190252967
    outer loop
      vertex 0.6106260641143471 0.9273382191983783 4.137151834863204
      vertex 0.2259913136767138 1.1480513137402715 3.5386936480629125
      vertex 0.22592001161369968 0.6157157244463073 3.5385375325047055
    endloop
  endfacet
  facet normal -0.654534480878598 0.03156194258985918 0.75537305824403
    outer loop
      vertex 0.6106260641143471 0.9273382191983783 4.137151834863204
      vertex 1.0271187783650908 0.4005756481880085 4.520054679199366
      vertex 1.1483979563609905 0.9273382191983783 4.603133832077942
    endloop
  endfacet
  facet normal -0.6767975866527403 0.0 0.7361691563092185
    outer loop
      vertex 0.6106260641143471 0.3941311875179501 4.137151834863204
      vertex 1.0271187783650908 0.4005756481880085 4.520054679199366
      vertex 0.6106260641143471 0.9273382191983783 4.137151834863204
    endloop
  endfacet
  facet normal -0.14229495085910235 -4.587847263491725e-05 0.989824299992262
    outer loop
      vertex 2.4999999999999916 0.9273382191983699 5.0
      vertex 1.7958332850842766 1.14805131374025 4.898780781481459
      vertex 1.7956686078964166 0.6157157244463092 4.89873243403624
    endloop
  endfacet
  facet normal -0.14233472533040342 4.5878472459357854e-05 0.9898185812866337
    outer loop
      vertex 1.7956686078964166 0.6157157244463092 4.89873243403624
      vertex 2.499828372346613 0.39500262990460283 4.999999994108789
      vertex 2.4999999999999916 0.9273382191983699 5.0
    endloop
  endfacet
  facet normal -0.4319489788080996 -0.04263541026893873 0.9008897277124649
    outer loop
      vertex 1.1483979563609905 0.9273382191983783 4.603133832077942
      vertex 1.0271187783650908 0.4005756481880085 4.520054679199366
      vertex 1.7956686078964166 0.6157157244463092 4.89873243403624
    endloop
  endfacet
  facet normal -0.41539673277206984 4.588755603300145e-05 0.9096403422763426
    outer loop
      vertex 1.7956686078964166 0.6157157244463092 4.89873243403624
      vertex 1.7958332850842766 1.14805131374025 4.898780781481459
      vertex 1.1483979563609905 0.9273382191983783 4.603133832077942
    endloop
  endfacet
  facet normal 0.6337540249297157 -0.03121882142259289 0.7729044061682981
    outer loop
      vertex 3.85160204363899 0.9273382191983771 4.603133832077955
      vertex 4.3776959850514485 0.40190674285881184 4.150532576994974
      vertex 4.29390785649101 0.9465202072007668 4.241233643834115
    endloop
  endfacet
  facet normal 0.8217000975197862 0.03164834303211845 0.5690407121808557
    outer loop
      vertex 4.29390785649101 0.9465202072007668 4.241233643834115
      vertex 4.3776959850514485 0.40190674285881184 4.150532576994974
      vertex 4.760837635358614 0.9451626016671442 3.567058192670888
    endloop
  endfacet
  facet normal 0.1423347292678303 4.588755600762236e-05 0.9898185807200154
    outer loop
      vertex 3.2043313921035677 0.6157157244463085 4.898732434036244
      vertex 3.2044960659718433 1.148051313740228 4.898684075285904
      vertex 2.4999999999999916 0.9273382191983699 5.0
    endloop
  endfacet
  facet normal 0.14229494692166011 -4.5887555863163214e-05 0.9898243005578788
    outer loop
      vertex 2.4999999999999916 0.9273382191983699 5.0
      vertex 2.499828372346613 0.39500262990460283 4.999999994108789
      vertex 3.2043313921035677 0.6157157244463085 4.898732434036244
    endloop
  endfacet
  facet normal 0.4154150130018838 0.0 0.9096319953545196
    outer loop
      vertex 3.2043313921035677 0.6157157244463085 4.898732434036244
      vertex 3.85160204363899 0.39413118751792875 4.603133832077955
      vertex 3.85160204363899 0.9273382191983771 4.603133832077955
    endloop
  endfacet
  facet normal 0.41543328857096345 -4.587847260838686e-05 0.9096236478029144
    outer loop
      vertex 3.85160204363899 0.9273382191983771 4.603133832077955
      vertex 3.2044960659718433 1.148051313740228 4.898684075285904
      vertex 3.2043313921035677 0.6157157244463085 4.898732434036244
    endloop
  endfacet
  facet normal 0.8370685817648307 0.029022720108976562 -0.5463276225303741
    outer loop
      vertex 4.760837635358191 0.9451626016677135 1.4329418073282127
      vertex 4.479255828382003 0.40345474894294725 0.9727323856586664
      vertex 4.38937393588565 0.9273382191983752 0.8628481651367922
    endloop
  endfacet
  facet normal -0.41520805232319463 -0.03156194258999054 -0.9091788146816474
    outer loop
      vertex 1.1483979563610174 0.615715724446314 0.3968661679220401
      vertex 1.655895986602069 1.1424782954569255 0.1468131364964865
      vertex 1.7956686078964341 0.6157157244463152 0.10126756596375512
    endloop
  endfacet
  facet normal -0.4419797102779129 -0.0 -0.8970250474221176
    outer loop
      vertex 1.1483979563610174 1.1489227561267896 0.3968661679220401
      vertex 1.655895986602069 1.1424782954569255 0.1468131364964865
      vertex 1.1483979563610174 0.615715724446314 0.3968661679220401
    endloop
  endfacet
  facet normal -0.9594986329085184 -4.587847272638131e-05 -0.2817132786040621
    outer loop
      vertex 0.025446395297669955 0.9273382191983711 2.144212904316775
      vertex 0.22584872026827169 1.1480513137403303 1.461618587948272
      vertex 0.22592001161371045 0.6157157244463145 1.4614624674952712
    endloop
  endfacet
  facet normal -0.9594873119136069 4.5878472451626266e-05 -0.2817518343719639
    outer loop
      vertex 0.22592001161371045 0.6157157244463145 1.4614624674952712
      vertex 0.025470826290646762 0.3950026299046145 2.144043024423876
      vertex 0.025446395297669955 0.9273382191983711 2.144212904316775
    endloop
  endfacet
  facet normal 0.17135526633062545 0.0 -0.9852093040063926
    outer loop
      vertex 3.204331392103585 0.3941311875179665 0.10126756596376031
      vertex 2.646942518073737 0.40057564818800784 0.004322156931678806
      vertex 3.204331392103585 0.927338219198382 0.10126756596376031
    endloop
  endfacet
  facet normal -0.9507795855543025 3.6475731259135505e-05 0.30986800151469274
    outer loop
      vertex 0.22592001161369968 0.6157157244463073 3.5385375325047055
      vertex 0.2259913136767138 1.1480513137402715 3.5386936480629125
      vertex 0.0506521392513546 1.1422972240179694 3.0006945746121434
    endloop
  endfacet
  facet normal 0.6521721752484273 -0.0 0.7580708765225944
    outer loop
      vertex 3.85160204363899 0.39413118751792875 4.603133832077955
      vertex 4.3776959850514485 0.40190674285881184 4.150532576994974
      vertex 3.85160204363899 0.9273382191983771 4.603133832077955
    endloop
  endfacet
  facet normal 0.8393182057835107 -0.008123044050028273 0.5435797693031903
    outer loop
      vertex 4.760837635358614 0.9451626016671442 3.567058192670888
      vertex 4.3776959850514485 0.40190674285881184 4.150532576994974
      vertex 4.774079988386294 0.4048841219583915 3.5385375325047193
    endloop
  endfacet
  facet normal 0.8562557493247568 -0.006279128552211262 -0.5165139536284805
    outer loop
      vertex 4.774079988386297 0.40488412195875845 1.4614624674952856
      vertex 4.479255828382003 0.40345474894294725 0.9727323856586664
      vertex 4.760837635358191 0.9451626016677135 1.4329418073282127
    endloop
  endfacet
endsolid abc_50_007
