solid abc_50_008
  facet normal -1.0 0.0 0.0
    outer loop
      vertex 0.0 3.8125 2.4941719229763484
      vertex 0.0 3.6366583424670766 3.1504219229763475
      vertex 0.0 4.2111253842928855 2.958628142903692
    endloop
  endfacet
  facet normal -1.0 0.0 0.0
    outer loop
      vertex 0.0 3.636658342467075 1.8379219229763477
      vertex 0.0 3.8125 2.4941719229763484
      vertex 0.0 4.2111253842928855 2.0297157030490034
    endloop
  endfacet
  facet normal -1.0 0.0 0.0
    outer loop
      vertex 0.0 3.8125 2.4941719229763484
      vertex 0.0 4.2111253842928855 2.958628142903692
      vertex 0.0 4.481464129976746 2.494171922976347
    endloop
  endfacet
  facet normal -1.0 0.0 0.0
    outer loop
      vertex 0.0 4.2111253842928855 2.0297157030490034
      vertex 0.0 3.8125 2.4941719229763484
      vertex 0.0 4.481464129976746 2.494171922976347
    endloop
  endfacet
  facet normal -1.0 0.0 -0.0
    outer loop
      vertex 0.0 4.907293218369499 3.168663850868909
      vertex 0.0 5.0 2.4941719229763484
      vertex 0.0 4.481464129976746 2.494171922976347
    endloop
  endfacet
  facet normal -1.0 0.0 0.0
    outer loop
      vertex 0.0 5.0 2.4941719229763484
      vertex 0.0 4.907293218369499 1.8196799950837872
      vertex 0.0 4.481464129976746 2.494171922976347
    endloop
  endfacet
  facet normal -1.0 0.0 0.0
    outer loop
      vertex 0.0 3.6366583424670766 3.1504219229763475
      vertex 0.0 3.156250000000002 3.630830265443423
      vertex 0.0 3.742362516828993 3.760961345539531
    endloop
  endfacet
  facet normal -1.0 0.0 0.0
    outer loop
      vertex 0.0 3.6366583424670766 3.1504219229763475
      vertex 0.0 3.742362516828993 3.760961345539531
      vertex 0.0 4.217711230651109 3.485711094720509
    endloop
  endfacet
  facet normal -1.0 0.0 0.0
    outer loop
      vertex 0.0 4.2111253842928855 2.958628142903692
      vertex 0.0 3.6366583424670766 3.1504219229763475
      vertex 0.0 4.217711230651109 3.485711094720509
    endloop
  endfacet
  facet normal -1.0 0.0 0.0
    outer loop
      vertex 0.0 3.156250000000002 3.630830265443423
      vertex 0.0 2.5000000000000027 3.806671922976348
      vertex 0.0 2.977034287112918 4.274488119434143
    endloop
  endfacet
  facet normal -1.0 0.0 0.0
    outer loop
      vertex 0.0 3.156250000000002 3.630830265443423
      vertex 0.0 2.977034287112918 4.274488119434143
      vertex 0.0 3.508249422629026 4.1967210568791815
    endloop
  endfacet
  facet normal -1.0 -0.0 0.0
    outer loop
      vertex 0.0 3.742362516828993 3.760961345539531
      vertex 0.0 3.156250000000002 3.630830265443423
      vertex 0.0 3.508249422629026 4.1967210568791815
    endloop
  endfacet
  facet normal -1.0 -0.0 0.0
    outer loop
      vertex 0.0 2.5000000000000027 3.806671922976348
      vertex 0.0 1.8437500000000022 3.6308302654434255
      vertex 0.0 2.0214524276298285 4.280135776900586
    endloop
  endfacet
  facet normal -1.0 0.0 0.0
    outer loop
      vertex 0.0 2.5000000000000027 3.806671922976348
      vertex 0.0 2.0214524276298285 4.280135776900586
      vertex 0.0 2.517902552290925 4.48388191653679
    endloop
  endfacet
  facet normal -1.0 -0.0 0.0
    outer loop
      vertex 0.0 2.977034287112918 4.274488119434143
      vertex 0.0 2.5000000000000027 3.806671922976348
      vertex 0.0 2.517902552290925 4.48388191653679
    endloop
  endfacet
  facet normal -1.0 -0.0 0.0
    outer loop
      vertex 0.0 1.8437500000000022 3.6308302654434255
      vertex 0.0 1.3633416575329256 3.150421922976351
      vertex 0.0 1.187500000000003 3.806671922976351
    endloop
  endfacet
  facet normal -1.0 0.0 0.0
    outer loop
      vertex 0.0 1.8437500000000022 3.6308302654434255
      vertex 0.0 1.187500000000003 3.806671922976351
      vertex 0.0 1.494347662595338 4.237382697277507
    endloop
  endfacet
  facet normal -1.0 0.0 0.0
    outer loop
      vertex 0.0 2.0214524276298285 4.280135776900586
      vertex 0.0 1.8437500000000022 3.6308302654434255
      vertex 0.0 1.494347662595338 4.237382697277507
    endloop
  endfacet
  facet normal -1.0 0.0 0.0
    outer loop
      vertex 0.0 1.3633416575329256 3.150421922976351
      vertex 0.0 1.1875 2.4941719229763506
      vertex 0.0 0.7070916575329254 2.9745802654434272
    endloop
  endfacet
  facet normal -1.0 -0.0 0.0
    outer loop
      vertex 0.0 1.3633416575329256 3.150421922976351
      vertex 0.0 0.7070916575329254 2.9745802654434272
      vertex 0.0 0.7422330843319833 3.5090191249099005
    endloop
  endfacet
  facet normal -1.0 0.0 -0.0
    outer loop
      vertex 0.0 1.187500000000003 3.806671922976351
      vertex 0.0 1.3633416575329256 3.150421922976351
      vertex 0.0 0.7422330843319833 3.5090191249099005
    endloop
  endfacet
  facet normal -1.0 0.0 -0.0
    outer loop
      vertex 0.0 1.1875 2.4941719229763506
      vertex 0.0 1.3633416575329234 1.83792192297635
      vertex 0.0 0.7070916575329231 2.0137635805092753
    endloop
  endfacet
  facet normal -1.0 0.0 -0.0
    outer loop
      vertex 0.0 0.7070916575329254 2.9745802654434272
      vertex 0.0 1.1875 2.4941719229763506
      vertex 0.0 0.44920974924422513 2.4941719229763524
    endloop
  endfacet
  facet normal -1.0 -0.0 0.0
    outer loop
      vertex 0.0 1.1875 2.4941719229763506
      vertex 0.0 0.7070916575329231 2.0137635805092753
      vertex 0.0 0.44920974924422513 2.4941719229763524
    endloop
  endfacet
  facet normal -1.0 0.0 -0.0
    outer loop
      vertex 0.0 1.3633416575329234 1.83792192297635
      vertex 0.0 1.8437499999999984 1.3575135805092735
      vertex 0.0 1.187499999999998 1.1816719229763502
    endloop
  endfacet
  facet normal -1.0 0.0 0.0
    outer loop
      vertex 0.0 0.7070916575329231 2.0137635805092753
      vertex 0.0 1.3633416575329234 1.83792192297635
      vertex 0.0 0.7422330843319849 1.479324721042805
    endloop
  endfacet
  facet normal -1.0 0.0 0.0
    outer loop
      vertex 0.0 1.3633416575329234 1.83792192297635
      vertex 0.0 1.187499999999998 1.1816719229763502
      vertex 0.0 0.7422330843319849 1.479324721042805
    endloop
  endfacet
  facet normal -1.0 0.0 0.0
    outer loop
      vertex 0.0 1.8437499999999984 1.3575135805092735
      vertex 0.0 2.4999999999999987 1.1816719229763482
      vertex 0.0 2.0214524276298236 0.7082080690521133
    endloop
  endfacet
  facet normal -1.0 0.0 0.0
    outer loop
      vertex 0.0 1.187499999999998 1.1816719229763502
      vertex 0.0 1.8437499999999984 1.3575135805092735
      vertex 0.0 1.494347662595335 0.7509611486751966
    endloop
  endfacet
  facet normal -1.0 0.0 -0.0
    outer loop
      vertex 0.0 1.8437499999999984 1.3575135805092735
      vertex 0.0 2.0214524276298236 0.7082080690521133
      vertex 0.0 1.494347662595335 0.7509611486751966
    endloop
  endfacet
  facet normal -1.0 0.0 0.0
    outer loop
      vertex 0.0 2.4999999999999987 1.1816719229763482
      vertex 0.0 3.156249999999999 1.357513580509272
      vertex 0.0 2.9770342871129123 0.7138557265185532
    endloop
  endfacet
  facet normal -1.0 0.0 0.0
    outer loop
      vertex 0.0 2.0214524276298236 0.7082080690521133
      vertex 0.0 2.4999999999999987 1.1816719229763482
      vertex 0.0 2.51790255229092 0.5044619294159094
    endloop
  endfacet
  facet normal -1.0 0.0 0.0
    outer loop
      vertex 0.0 2.4999999999999987 1.1816719229763482
      vertex 0.0 2.9770342871129123 0.7138557265185532
      vertex 0.0 2.51790255229092 0.5044619294159094
    endloop
  endfacet
  facet normal -1.0 0.0 0.0
    outer loop
      vertex 0.0 3.156249999999999 1.357513580509272
      vertex 0.0 3.636658342467075 1.8379219229763477
      vertex 0.0 3.7423625168289916 1.2273825004131644
    endloop
  endfacet
  facet normal -1.0 0.0 0.0
    outer loop
      vertex 0.0 2.9770342871129123 0.7138557265185532
      vertex 0.0 3.156249999999999 1.357513580509272
      vertex 0.0 3.5082494226290217 0.7916227890735145
    endloop
  endfacet
  facet normal -1.0 0.0 0.0
    outer loop
      vertex 0.0 3.156249999999999 1.357513580509272
      vertex 0.0 3.7423625168289916 1.2273825004131644
      vertex 0.0 3.5082494226290217 0.7916227890735145
    endloop
  endfacet
  facet normal -1.0 0.0 0.0
    outer loop
      vertex 0.0 3.7423625168289916 1.2273825004131644
      vertex 0.0 3.636658342467075 1.8379219229763477
      vertex 0.0 4.217711230651107 1.502632751232185
    endloop
  endfacet
  facet normal -1.0 0.0 0.0
    outer loop
      vertex 0.0 3.636658342467075 1.8379219229763477
      vertex 0.0 4.2111253842928855 2.0297157030490034
      vertex 0.0 4.217711230651107 1.502632751232185
    endloop
  endfacet
  facet normal -1.0 0.0 -0.0
    outer loop
      vertex 0.0 4.636048511366221 3.793131798064933
      vertex 0.0 4.907293218369499 3.168663850868909
      vertex 0.0 4.217711230651109 3.485711094720509
    endloop
  endfacet
  facet normal -1.0 -0.0 0.0
    outer loop
      vertex 0.0 4.907293218369499 3.168663850868909
      vertex 0.0 4.2111253842928855 2.958628142903692
      vertex 0.0 4.217711230651109 3.485711094720509
    endloop
  endfacet
  facet normal -1.0 0.0 0.0
    outer loop
      vertex 0.0 4.2111253842928855 2.958628142903692
      vertex 0.0 4.907293218369499 3.168663850868909
      vertex 0.0 4.481464129976746 2.494171922976347
    endloop
  endfacet
  facet normal -1.0 0.0 0.0
    outer loop
      vertex 0.0 4.206382858046633 4.32126183367166
      vertex 0.0 4.636048511366221 3.793131798064933
      vertex 0.0 4.217711230651109 3.485711094720509
    endloop
  endfacet
  facet normal -1.0 0.0 -0.0
    outer loop
      vertex 0.0 3.650162594327877 4.713884968982288
      vertex 0.0 4.206382858046633 4.32126183367166
      vertex 0.0 3.508249422629026 4.1967210568791815
    endloop
  endfacet
  facet normal -1.0 0.0 0.0
    outer loop
      vertex 0.0 4.206382858046633 4.32126183367166
      vertex 0.0 3.742362516828993 3.760961345539531
      vertex 0.0 3.508249422629026 4.1967210568791815
    endloop
  endfacet
  facet normal -1.0 0.0 0.0
    outer loop
      vertex 0.0 3.742362516828993 3.760961345539531
      vertex 0.0 4.206382858046633 4.32126183367166
      vertex 0.0 4.217711230651109 3.485711094720509
    endloop
  endfacet
  facet normal -1.0 0.0 -0.0
    outer loop
      vertex 0.0 3.0086400326315803 4.941882142182156
      vertex 0.0 3.650162594327877 4.713884968982288
      vertex 0.0 2.977034287112918 4.274488119434143
    endloop
  endfacet
  facet normal -1.0 0.0 0.0
    outer loop
      vertex 0.0 2.977034287112918 4.274488119434143
      vertex 0.0 3.650162594327877 4.713884968982288
      vertex 0.0 3.508249422629026 4.1967210568791815
    endloop
  endfacet
  facet normal -1.0 0.0 0.0
    outer loop
      vertex 0.0 2.329393966588319 4.988343845952697
      vertex 0.0 3.0086400326315803 4.941882142182156
      vertex 0.0 2.517902552290925 4.48388191653679
    endloop
  endfacet
  facet normal -1.0 0.0 0.0
    outer loop
      vertex 0.0 3.0086400326315803 4.941882142182156
      vertex 0.0 2.977034287112918 4.274488119434143
      vertex 0.0 2.517902552290925 4.48388191653679
    endloop
  endfacet
  facet normal -1.0 0.0 0.0
    outer loop
      vertex 0.0 1.6628009695725314 4.849824228273398
      vertex 0.0 2.329393966588319 4.988343845952697
      vertex 0.0 2.0214524276298285 4.280135776900586
    endloop
  endfacet
  facet normal -1.0 0.0 0.0
    outer loop
      vertex 0.0 2.0214524276298285 4.280135776900586
      vertex 0.0 2.329393966588319 4.988343845952697
      vertex 0.0 2.517902552290925 4.48388191653679
    endloop
  endfacet
  facet normal -1.0 0.0 0.0
    outer loop
      vertex 0.0 1.0582991947128286 4.536596655502451
      vertex 0.0 1.6628009695725314 4.849824228273398
      vertex 0.0 1.494347662595338 4.237382697277507
    endloop
  endfacet
  facet normal -1.0 0.0 -0.0
    outer loop
      vertex 0.0 1.6628009695725314 4.849824228273398
      vertex 0.0 2.0214524276298285 4.280135776900586
      vertex 0.0 1.494347662595338 4.237382697277507
    endloop
  endfacet
  facet normal -1.0 0.0 0.0
    outer loop
      vertex 0.0 0.560721773238948 4.071891783791477
      vertex 0.0 1.0582991947128286 4.536596655502451
      vertex 0.0 1.187500000000003 3.806671922976351
    endloop
  endfacet
  facet normal -1.0 0.0 0.0
    outer loop
      vertex 0.0 1.187500000000003 3.806671922976351
      vertex 0.0 1.0582991947128286 4.536596655502451
      vertex 0.0 1.494347662595338 4.237382697277507
    endloop
  endfacet
  facet normal -1.0 0.0 0.0
    outer loop
      vertex 0.0 0.20697174623636572 3.4901746475919477
      vertex 0.0 0.560721773238948 4.071891783791477
      vertex 0.0 0.7422330843319833 3.5090191249099005
    endloop
  endfacet
  facet normal -1.0 0.0 0.0
    outer loop
      vertex 0.0 0.560721773238948 4.071891783791477
      vertex 0.0 1.187500000000003 3.806671922976351
      vertex 0.0 0.7422330843319833 3.5090191249099005
    endloop
  endfacet
  facet normal -1.0 0.0 0.0
    outer loop
      vertex 0.0 0.023285134909172556 2.8345885457169606
      vertex 0.0 0.20697174623636572 3.4901746475919477
      vertex 0.0 0.7070916575329254 2.9745802654434272
    endloop
  endfacet
  facet normal -1.0 0.0 0.0
    outer loop
      vertex 0.0 0.7070916575329254 2.9745802654434272
      vertex 0.0 0.20697174623636572 3.4901746475919477
      vertex 0.0 0.7422330843319833 3.5090191249099005
    endloop
  endfacet
  facet normal -1.0 0.0 0.0
    outer loop
      vertex 0.0 0.02328513490917339 2.1537553002357286
      vertex 0.0 0.023285134909172556 2.8345885457169606
      vertex 0.0 0.44920974924422513 2.4941719229763524
    endloop
  endfacet
  facet normal -1.0 0.0 0.0
    outer loop
      vertex 0.0 0.023285134909172556 2.8345885457169606
      vertex 0.0 0.7070916575329254 2.9745802654434272
      vertex 0.0 0.44920974924422513 2.4941719229763524
    endloop
  endfacet
  facet normal -1.0 0.0 0.0
    outer loop
      vertex 0.0 0.20697174623636905 1.4981691983607415
      vertex 0.0 0.02328513490917339 2.1537553002357286
      vertex 0.0 0.7070916575329231 2.0137635805092753
    endloop
  endfacet
  facet normal -1.0 0.0 0.0
    outer loop
      vertex 0.0 0.7070916575329231 2.0137635805092753
      vertex 0.0 0.02328513490917339 2.1537553002357286
      vertex 0.0 0.44920974924422513 2.4941719229763524
    endloop
  endfacet
  facet normal -1.0 0.0 0.0
    outer loop
      vertex 0.0 0.5607217732389527 0.9164520621612136
      vertex 0.0 0.20697174623636905 1.4981691983607415
      vertex 0.0 0.7422330843319849 1.479324721042805
    endloop
  endfacet
  facet normal -1.0 0.0 0.0
    outer loop
      vertex 0.0 0.20697174623636905 1.4981691983607415
      vertex 0.0 0.7070916575329231 2.0137635805092753
      vertex 0.0 0.7422330843319849 1.479324721042805
    endloop
  endfacet
  facet normal -1.0 0.0 0.0
    outer loop
      vertex 0.0 1.0582991947128355 0.4517471904502407
      vertex 0.0 0.5607217732389527 0.9164520621612136
      vertex 0.0 1.187499999999998 1.1816719229763502
    endloop
  endfacet
  facet normal -1.0 -0.0 0.0
    outer loop
      vertex 0.0 1.187499999999998 1.1816719229763502
      vertex 0.0 0.5607217732389527 0.9164520621612136
      vertex 0.0 0.7422330843319849 1.479324721042805
    endloop
  endfacet
  facet normal -1.0 0.0 0.0
    outer loop
      vertex 0.0 1.6628009695725363 0.13851961767929633
      vertex 0.0 1.0582991947128355 0.4517471904502407
      vertex 0.0 1.494347662595335 0.7509611486751966
    endloop
  endfacet
  facet normal -1.0 0.0 0.0
    outer loop
      vertex 0.0 1.0582991947128355 0.4517471904502407
      vertex 0.0 1.187499999999998 1.1816719229763502
      vertex 0.0 1.494347662595335 0.7509611486751966
    endloop
  endfacet
  facet normal -1.0 0.0 0.0
    outer loop
      vertex 0.0 2.329393966588324 0.0
      vertex 0.0 1.6628009695725363 0.13851961767929633
      vertex 0.0 2.0214524276298236 0.7082080690521133
    endloop
  endfacet
  facet normal -1.0 -0.0 0.0
    outer loop
      vertex 0.0 2.0214524276298236 0.7082080690521133
      vertex 0.0 1.6628009695725363 0.13851961767929633
      vertex 0.0 1.494347662595335 0.7509611486751966
    endloop
  endfacet
  facet normal -1.0 -0.0 0.0
    outer loop
      vertex 0.0 3.008640032631585 0.04646170377054115
      vertex 0.0 2.329393966588324 0.0
      vertex 0.0 2.51790255229092 0.5044619294159094
    endloop
  endfacet
  facet normal -1.0 0.0 0.0
    outer loop
      vertex 0.0 2.329393966588324 0.0
      vertex 0.0 2.0214524276298236 0.7082080690521133
      vertex 0.0 2.51790255229092 0.5044619294159094
    endloop
  endfacet
  facet normal -1.0 -0.0 0.0
    outer loop
      vertex 0.0 3.650162594327883 0.2744588769704115
      vertex 0.0 3.008640032631585 0.04646170377054115
      vertex 0.0 2.9770342871129123 0.7138557265185532
    endloop
  endfacet
  facet normal -1.0 0.0 -0.0
    outer loop
      vertex 0.0 2.9770342871129123 0.7138557265185532
      vertex 0.0 3.008640032631585 0.04646170377054115
      vertex 0.0 2.51790255229092 0.5044619294159094
    endloop
  endfacet
  facet normal -1.0 -0.0 0.0
    outer loop
      vertex 0.0 4.206382858046637 0.6670820122810397
      vertex 0.0 3.650162594327883 0.2744588769704115
      vertex 0.0 3.5082494226290217 0.7916227890735145
    endloop
  endfacet
  facet normal -1.0 0.0 0.0
    outer loop
      vertex 0.0 3.650162594327883 0.2744588769704115
      vertex 0.0 2.9770342871129123 0.7138557265185532
      vertex 0.0 3.5082494226290217 0.7916227890735145
    endloop
  endfacet
  facet normal -1.0 -0.0 0.0
    outer loop
      vertex 0.0 4.636048511366221 1.1952120478877646
      vertex 0.0 4.206382858046637 0.6670820122810397
      vertex 0.0 4.217711230651107 1.502632751232185
    endloop
  endfacet
  facet normal -1.0 0.0 -0.0
    outer loop
      vertex 0.0 3.7423625168289916 1.2273825004131644
      vertex 0.0 4.206382858046637 0.6670820122810397
      vertex 0.0 3.5082494226290217 0.7916227890735145
    endloop
  endfacet
  facet normal -1.0 0.0 0.0
    outer loop
      vertex 0.0 4.206382858046637 0.6670820122810397
      vertex 0.0 3.7423625168289916 1.2273825004131644
      vertex 0.0 4.217711230651107 1.502632751232185
    endloop
  endfacet
  facet normal -1.0 0.0 0.0
    outer loop
      vertex 0.0 4.907293218369499 1.8196799950837872
      vertex 0.0 4.636048511366221 1.1952120478877646
      vertex 0.0 4.217711230651107 1.502632751232185
    endloop
  endfacet
  facet normal -1.0 0.0 0.0
    outer loop
      vertex 0.0 4.2111253842928855 2.0297157030490034
      vertex 0.0 4.907293218369499 1.8196799950837872
      vertex 0.0 4.217711230651107 1.502632751232185
    endloop
  endfacet
  facet normal -1.0 0.0 0.0
    outer loop
      vertex 0.0 4.907293218369499 1.8196799950837872
      vertex 0.0 4.2111253842928855 2.0297157030490034
      vertex 0.0 4.481464129976746 2.494171922976347
    endloop
  endfacet
  facet normal 1.0 0.0 -0.0
    outer loop
      vertex 0.703125 3.8125 2.4941719229763484
      vertex 0.703125 4.2111253842928855 2.958628142903692
      vertex 0.703125 3.6366583424670766 3.1504219229763475
    endloop
  endfacet
  facet normal 1.0 0.0 0.0
    outer loop
      vertex 0.703125 3.636658342467075 1.8379219229763477
      vertex 0.703125 4.2111253842928855 2.0297157030490034
      vertex 0.703125 3.8125 2.4941719229763484
    endloop
  endfacet
  facet normal 1.0 -0.0 0.0
    outer loop
      vertex 0.703125 3.8125 2.4941719229763484
      vertex 0.703125 4.481464129976746 2.494171922976347
      vertex 0.703125 4.2111253842928855 2.958628142903692
    endloop
  endfacet
  facet normal 1.0 0.0 -0.0
    outer loop
      vertex 0.703125 4.2111253842928855 2.0297157030490034
      vertex 0.703125 4.481464129976746 2.494171922976347
      vertex 0.703125 3.8125 2.4941719229763484
    endloop
  endfacet
  facet normal 1.0 0.0 0.0
    outer loop
      vertex 0.703125 4.907293218369499 3.168663850868909
      vertex 0.703125 4.481464129976746 2.494171922976347
      vertex 0.703125 5.0 2.4941719229763484
    endloop
  endfacet
  facet normal 1.0 0.0 0.0
    outer loop
      vertex 0.703125 5.0 2.4941719229763484
      vertex 0.703125 4.481464129976746 2.494171922976347
      vertex 0.703125 4.907293218369499 1.8196799950837872
    endloop
  endfacet
  facet normal 1.0 0.0 -0.0
    outer loop
      vertex 0.703125 3.6366583424670766 3.1504219229763475
      vertex 0.703125 3.742362516828993 3.760961345539531
      vertex 0.703125 3.156250000000002 3.630830265443423
    endloop
  endfacet
  facet normal 1.0 0.0 0.0
    outer loop
      vertex 0.703125 3.6366583424670766 3.1504219229763475
      vertex 0.703125 4.217711230651109 3.485711094720509
      vertex 0.703125 3.742362516828993 3.760961345539531
    endloop
  endfacet
  facet normal 1.0 0.0 -0.0
    outer loop
      vertex 0.703125 4.2111253842928855 2.958628142903692
      vertex 0.703125 4.217711230651109 3.485711094720509
      vertex 0.703125 3.6366583424670766 3.1504219229763475
    endloop
  endfacet
  facet normal 1.0 0.0 0.0
    outer loop
      vertex 0.703125 3.156250000000002 3.630830265443423
      vertex 0.703125 2.977034287112918 4.274488119434143
      vertex 0.703125 2.5000000000000027 3.806671922976348
    endloop
  endfacet
  facet normal 1.0 0.0 -0.0
    outer loop
      vertex 0.703125 3.156250000000002 3.630830265443423
      vertex 0.703125 3.508249422629026 4.1967210568791815
      vertex 0.703125 2.977034287112918 4.274488119434143
    endloop
  endfacet
  facet normal 1.0 0.0 0.0
    outer loop
      vertex 0.703125 3.742362516828993 3.760961345539531
      vertex 0.703125 3.508249422629026 4.1967210568791815
      vertex 0.703125 3.156250000000002 3.630830265443423
    endloop
  endfacet
  facet normal 1.0 0.0 0.0
    outer loop
      vertex 0.703125 2.5000000000000027 3.806671922976348
      vertex 0.703125 2.0214524276298285 4.280135776900586
      vertex 0.703125 1.8437500000000022 3.6308302654434255
    endloop
  endfacet
  facet normal 1.0 0.0 -0.0
    outer loop
      vertex 0.703125 2.5000000000000027 3.806671922976348
      vertex 0.703125 2.517902552290925 4.48388191653679
      vertex 0.703125 2.0214524276298285 4.280135776900586
    endloop
  endfacet
  facet normal 1.0 0.0 0.0
    outer loop
      vertex 0.703125 2.977034287112918 4.274488119434143
      vertex 0.703125 2.517902552290925 4.48388191653679
      vertex 0.703125 2.5000000000000027 3.806671922976348
    endloop
  endfacet
  facet normal 1.0 0.0 0.0
    outer loop
      vertex 0.703125 1.8437500000000022 3.6308302654434255
      vertex 0.703125 1.187500000000003 3.806671922976351
      vertex 0.703125 1.3633416575329256 3.150421922976351
    endloop
  endfacet
  facet normal 1.0 0.0 0.0
    outer loop
      vertex 0.703125 1.8437500000000022 3.6308302654434255
      vertex 0.703125 1.494347662595338 4.237382697277507
      vertex 0.703125 1.187500000000003 3.806671922976351
    endloop
  endfacet
  facet normal 1.0 0.0 0.0
    outer loop
      vertex 0.703125 2.0214524276298285 4.280135776900586
      vertex 0.703125 1.494347662595338 4.237382697277507
      vertex 0.703125 1.8437500000000022 3.6308302654434255
    endloop
  endfacet
  facet normal 1.0 0.0 0.0
    outer loop
      vertex 0.703125 1.3633416575329256 3.150421922976351
      vertex 0.703125 0.7070916575329254 2.9745802654434272
      vertex 0.703125 1.1875 2.4941719229763506
    endloop
  endfacet
  facet normal 1.0 0.0 0.0
    outer loop
      vertex 0.703125 1.3633416575329256 3.150421922976351
      vertex 0.703125 0.7422330843319833 3.5090191249099005
      vertex 0.703125 0.7070916575329254 2.9745802654434272
    endloop
  endfacet
  facet normal 1.0 0.0 0.0
    outer loop
      vertex 0.703125 1.187500000000003 3.806671922976351
      vertex 0.703125 0.7422330843319833 3.5090191249099005
      vertex 0.703125 1.3633416575329256 3.150421922976351
    endloop
  endfacet
  facet normal 1.0 0.0 0.0
    outer loop
      vertex 0.703125 1.1875 2.4941719229763506
      vertex 0.703125 0.7070916575329231 2.0137635805092753
      vertex 0.703125 1.3633416575329234 1.83792192297635
    endloop
  endfacet
  facet normal 1.0 0.0 0.0
    outer loop
      vertex 0.703125 0.7070916575329254 2.9745802654434272
      vertex 0.703125 0.44920974924422513 2.4941719229763524
      vertex 0.703125 1.1875 2.4941719229763506
    endloop
  endfacet
  facet normal 1.0 0.0 0.0
    outer loop
      vertex 0.703125 1.1875 2.4941719229763506
      vertex 0.703125 0.44920974924422513 2.4941719229763524
      vertex 0.703125 0.7070916575329231 2.0137635805092753
    endloop
  endfacet
  facet normal 1.0 0.0 0.0
    outer loop
      vertex 0.703125 1.3633416575329234 1.83792192297635
      vertex 0.703125 1.187499999999998 1.1816719229763502
      vertex 0.703125 1.8437499999999984 1.3575135805092735
    endloop
  endfacet
  facet normal 1.0 0.0 0.0
    outer loop
      vertex 0.703125 0.7070916575329231 2.0137635805092753
      vertex 0.703125 0.7422330843319849 1.479324721042805
      vertex 0.703125 1.3633416575329234 1.83792192297635
    endloop
  endfacet
  facet normal 1.0 0.0 0.0
    outer loop
      vertex 0.703125 1.3633416575329234 1.83792192297635
      vertex 0.703125 0.7422330843319849 1.479324721042805
      vertex 0.703125 1.187499999999998 1.1816719229763502
    endloop
  endfacet
  facet normal 1.0 0.0 0.0
    outer loop
      vertex 0.703125 1.8437499999999984 1.3575135805092735
      vertex 0.703125 2.0214524276298236 0.7082080690521133
      vertex 0.703125 2.4999999999999987 1.1816719229763482
    endloop
  endfacet
  facet normal 1.0 -0.0 0.0
    outer loop
      vertex 0.703125 1.187499999999998 1.1816719229763502
      vertex 0.703125 1.494347662595335 0.7509611486751966
      vertex 0.703125 1.8437499999999984 1.3575135805092735
    endloop
  endfacet
  facet normal 1.0 0.0 0.0
    outer loop
      vertex 0.703125 1.8437499999999984 1.3575135805092735
      vertex 0.703125 1.494347662595335 0.7509611486751966
      vertex 0.703125 2.0214524276298236 0.7082080690521133
    endloop
  endfacet
  facet normal 1.0 -0.0 0.0
    outer loop
      vertex 0.703125 2.4999999999999987 1.1816719229763482
      vertex 0.703125 2.9770342871129123 0.7138557265185532
      vertex 0.703125 3.156249999999999 1.357513580509272
    endloop
  endfacet
  facet normal 1.0 -0.0 0.0
    outer loop
      vertex 0.703125 2.0214524276298236 0.7082080690521133
      vertex 0.703125 2.51790255229092 0.5044619294159092
      vertex 0.703125 2.4999999999999987 1.1816719229763482
    endloop
  endfacet
  facet normal 1.0 0.0 0.0
    outer loop
      vertex 0.703125 2.4999999999999987 1.1816719229763482
      vertex 0.703125 2.51790255229092 0.5044619294159092
      vertex 0.703125 2.9770342871129123 0.7138557265185532
    endloop
  endfacet
  facet normal 1.0 -0.0 0.0
    outer loop
      vertex 0.703125 3.156249999999999 1.357513580509272
      vertex 0.703125 3.7423625168289916 1.2273825004131644
      vertex 0.703125 3.636658342467075 1.8379219229763477
    endloop
  endfacet
  facet normal 1.0 0.0 0.0
    outer loop
      vertex 0.703125 2.9770342871129123 0.7138557265185532
      vertex 0.703125 3.5082494226290217 0.7916227890735148
      vertex 0.703125 3.156249999999999 1.357513580509272
    endloop
  endfacet
  facet normal 1.0 0.0 0.0
    outer loop
      vertex 0.703125 3.156249999999999 1.357513580509272
      vertex 0.703125 3.5082494226290217 0.7916227890735148
      vertex 0.703125 3.7423625168289916 1.2273825004131644
    endloop
  endfacet
  facet normal 1.0 0.0 -0.0
    outer loop
      vertex 0.703125 3.7423625168289916 1.2273825004131644
      vertex 0.703125 4.217711230651107 1.502632751232185
      vertex 0.703125 3.636658342467075 1.8379219229763477
    endloop
  endfacet
  facet normal 1.0 -0.0 0.0
    outer loop
      vertex 0.703125 3.636658342467075 1.8379219229763477
      vertex 0.703125 4.217711230651107 1.502632751232185
      vertex 0.703125 4.2111253842928855 2.0297157030490034
    endloop
  endfacet
  facet normal 1.0 0.0 0.0
    outer loop
      vertex 0.703125 4.636048511366221 3.793131798064933
      vertex 0.703125 4.217711230651109 3.485711094720509
      vertex 0.703125 4.907293218369499 3.168663850868909
    endloop
  endfacet
  facet normal 1.0 0.0 0.0
    outer loop
      vertex 0.703125 4.907293218369499 3.168663850868909
      vertex 0.703125 4.217711230651109 3.485711094720509
      vertex 0.703125 4.2111253842928855 2.958628142903692
    endloop
  endfacet
  facet normal 1.0 -0.0 0.0
    outer loop
      vertex 0.703125 4.2111253842928855 2.958628142903692
      vertex 0.703125 4.481464129976746 2.494171922976347
      vertex 0.703125 4.907293218369499 3.168663850868909
    endloop
  endfacet
  facet normal 1.0 0.0 0.0
    outer loop
      vertex 0.703125 4.206382858046633 4.32126183367166
      vertex 0.703125 4.217711230651109 3.485711094720509
      vertex 0.703125 4.636048511366221 3.793131798064933
    endloop
  endfacet
  facet normal 1.0 0.0 0.0
    outer loop
      vertex 0.703125 3.650162594327877 4.713884968982288
      vertex 0.703125 3.508249422629026 4.1967210568791815
      vertex 0.703125 4.206382858046633 4.32126183367166
    endloop
  endfacet
  facet normal 1.0 0.0 0.0
    outer loop
      vertex 0.703125 4.206382858046633 4.32126183367166
      vertex 0.703125 3.508249422629026 4.1967210568791815
      vertex 0.703125 3.742362516828993 3.760961345539531
    endloop
  endfacet
  facet normal 1.0 -0.0 0.0
    outer loop
      vertex 0.703125 3.742362516828993 3.760961345539531
      vertex 0.703125 4.217711230651109 3.485711094720509
      vertex 0.703125 4.206382858046633 4.32126183367166
    endloop
  endfacet
  facet normal 1.0 0.0 0.0
    outer loop
      vertex 0.703125 3.0086400326315803 4.941882142182156
      vertex 0.703125 2.977034287112918 4.274488119434143
      vertex 0.703125 3.650162594327877 4.713884968982288
    endloop
  endfacet
  facet normal 1.0 -0.0 0.0
    outer loop
      vertex 0.703125 2.977034287112918 4.274488119434143
      vertex 0.703125 3.508249422629026 4.1967210568791815
      vertex 0.703125 3.650162594327877 4.713884968982288
    endloop
  endfacet
  facet normal 1.0 0.0 0.0
    outer loop
      vertex 0.703125 2.329393966588319 4.988343845952697
      vertex 0.703125 2.517902552290925 4.48388191653679
      vertex 0.703125 3.0086400326315803 4.941882142182156
    endloop
  endfacet
  facet normal 1.0 0.0 0.0
    outer loop
      vertex 0.703125 3.0086400326315803 4.941882142182156
      vertex 0.703125 2.517902552290925 4.48388191653679
      vertex 0.703125 2.977034287112918 4.274488119434143
    endloop
  endfacet
  facet normal 1.0 -0.0 0.0
    outer loop
      vertex 0.703125 1.6628009695725314 4.849824228273398
      vertex 0.703125 2.0214524276298285 4.280135776900586
      vertex 0.703125 2.329393966588319 4.988343845952697
    endloop
  endfacet
  facet normal 1.0 0.0 0.0
    outer loop
      vertex 0.703125 2.0214524276298285 4.280135776900586
      vertex 0.703125 2.517902552290925 4.48388191653679
      vertex 0.703125 2.329393966588319 4.988343845952697
    endloop
  endfacet
  facet normal 1.0 -0.0 0.0
    outer loop
      vertex 0.703125 1.0582991947128286 4.536596655502451
      vertex 0.703125 1.494347662595338 4.237382697277507
      vertex 0.703125 1.6628009695725314 4.849824228273398
    endloop
  endfacet
  facet normal 1.0 0.0 0.0
    outer loop
      vertex 0.703125 1.6628009695725314 4.849824228273398
      vertex 0.703125 1.494347662595338 4.237382697277507
      vertex 0.703125 2.0214524276298285 4.280135776900586
    endloop
  endfacet
  facet normal 1.0 -0.0 0.0
    outer loop
      vertex 0.703125 0.560721773238948 4.071891783791477
      vertex 0.703125 1.187500000000003 3.806671922976351
      vertex 0.703125 1.0582991947128286 4.536596655502451
    endloop
  endfacet
  facet normal 1.0 0.0 -0.0
    outer loop
      vertex 0.703125 1.187500000000003 3.806671922976351
      vertex 0.703125 1.494347662595338 4.237382697277507
      vertex 0.703125 1.0582991947128286 4.536596655502451
    endloop
  endfacet
  facet normal 1.0 0.0 0.0
    outer loop
      vertex 0.703125 0.20697174623636572 3.4901746475919477
      vertex 0.703125 0.7422330843319833 3.5090191249099005
      vertex 0.703125 0.560721773238948 4.071891783791477
    endloop
  endfacet
  facet normal 1.0 0.0 0.0
    outer loop
      vertex 0.703125 0.560721773238948 4.071891783791477
      vertex 0.703125 0.7422330843319833 3.5090191249099005
      vertex 0.703125 1.187500000000003 3.806671922976351
    endloop
  endfacet
  facet normal 1.0 0.0 0.0
    outer loop
      vertex 0.703125 0.023285134909172556 2.8345885457169606
      vertex 0.703125 0.7070916575329254 2.9745802654434272
      vertex 0.703125 0.20697174623636572 3.4901746475919477
    endloop
  endfacet
  facet normal 1.0 0.0 -0.0
    outer loop
      vertex 0.703125 0.7070916575329254 2.9745802654434272
      vertex 0.703125 0.7422330843319833 3.5090191249099005
      vertex 0.703125 0.20697174623636572 3.4901746475919477
    endloop
  endfacet
  facet normal 1.0 0.0 -0.0
    outer loop
      vertex 0.703125 0.02328513490917339 2.1537553002357286
      vertex 0.703125 0.44920974924422513 2.4941719229763524
      vertex 0.703125 0.023285134909172556 2.8345885457169606
    endloop
  endfacet
  facet normal 1.0 -0.0 0.0
    outer loop
      vertex 0.703125 0.023285134909172556 2.8345885457169606
      vertex 0.703125 0.44920974924422513 2.4941719229763524
      vertex 0.703125 0.7070916575329254 2.9745802654434272
    endloop
  endfacet
  facet normal 1.0 0.0 -0.0
    outer loop
      vertex 0.703125 0.20697174623636905 1.4981691983607415
      vertex 0.703125 0.7070916575329231 2.0137635805092753
      vertex 0.703125 0.02328513490917339 2.1537553002357286
    endloop
  endfacet
  facet normal 1.0 0.0 0.0
    outer loop
      vertex 0.703125 0.7070916575329231 2.0137635805092753
      vertex 0.703125 0.44920974924422513 2.4941719229763524
      vertex 0.703125 0.02328513490917339 2.1537553002357286
    endloop
  endfacet
  facet normal 1.0 0.0 -0.0
    outer loop
      vertex 0.703125 0.5607217732389527 0.9164520621612136
      vertex 0.703125 0.7422330843319849 1.479324721042805
      vertex 0.703125 0.20697174623636905 1.4981691983607415
    endloop
  endfacet
  facet normal 1.0 -0.0 0.0
    outer loop
      vertex 0.703125 0.20697174623636905 1.4981691983607415
      vertex 0.703125 0.7422330843319849 1.479324721042805
      vertex 0.703125 0.7070916575329231 2.0137635805092753
    endloop
  endfacet
  facet normal 1.0 0.0 -0.0
    outer loop
      vertex 0.703125 1.0582991947128355 0.4517471904502407
      vertex 0.703125 1.187499999999998 1.1816719229763502
      vertex 0.703125 0.5607217732389527 0.9164520621612136
    endloop
  endfacet
  facet normal 1.0 0.0 0.0
    outer loop
      vertex 0.703125 1.187499999999998 1.1816719229763502
      vertex 0.703125 0.7422330843319849 1.479324721042805
      vertex 0.703125 0.5607217732389527 0.9164520621612136
    endloop
  endfacet
  facet normal 1.0 0.0 0.0
    outer loop
      vertex 0.703125 1.6628009695725363 0.13851961767929633
      vertex 0.703125 1.494347662595335 0.7509611486751966
      vertex 0.703125 1.0582991947128355 0.4517471904502407
    endloop
  endfacet
  facet normal 1.0 0.0 0.0
    outer loop
      vertex 0.703125 1.0582991947128355 0.4517471904502407
      vertex 0.703125 1.494347662595335 0.7509611486751966
      vertex 0.703125 1.187499999999998 1.1816719229763502
    endloop
  endfacet
  facet normal 1.0 0.0 0.0
    outer loop
      vertex 0.703125 2.329393966588324 0.0
      vertex 0.703125 2.0214524276298236 0.7082080690521133
      vertex 0.703125 1.6628009695725363 0.13851961767929633
    endloop
  endfacet
  facet normal 1.0 0.0 0.0
    outer loop
      vertex 0.703125 2.0214524276298236 0.7082080690521133
      vertex 0.703125 1.494347662595335 0.7509611486751966
      vertex 0.703125 1.6628009695725363 0.13851961767929633
    endloop
  endfacet
  facet normal 1.0 0.0 0.0
    outer loop
      vertex 0.703125 3.008640032631585 0.04646170377054115
      vertex 0.703125 2.51790255229092 0.5044619294159092
      vertex 0.703125 2.329393966588324 0.0
    endloop
  endfacet
  facet normal 1.0 0.0 -0.0
    outer loop
      vertex 0.703125 2.329393966588324 0.0
      vertex 0.703125 2.51790255229092 0.5044619294159092
      vertex 0.703125 2.0214524276298236 0.7082080690521133
    endloop
  endfacet
  facet normal 1.0 0.0 0.0
    outer loop
      vertex 0.703125 3.650162594327883 0.2744588769704115
      vertex 0.703125 2.9770342871129123 0.7138557265185532
      vertex 0.703125 3.008640032631585 0.04646170377054115
    endloop
  endfacet
  facet normal 1.0 0.0 0.0
    outer loop
      vertex 0.703125 2.9770342871129123 0.7138557265185532
      vertex 0.703125 2.51790255229092 0.5044619294159092
      vertex 0.703125 3.008640032631585 0.04646170377054115
    endloop
  endfacet
  facet normal 1.0 0.0 0.0
    outer loop
      vertex 0.703125 4.206382858046637 0.6670820122810397
      vertex 0.703125 3.5082494226290217 0.7916227890735148
      vertex 0.703125 3.650162594327883 0.2744588769704115
    endloop
  endfacet
  facet normal 1.0 0.0 0.0
    outer loop
      vertex 0.703125 3.650162594327883 0.2744588769704115
      vertex 0.703125 3.5082494226290217 0.7916227890735148
      vertex 0.703125 2.9770342871129123 0.7138557265185532
    endloop
  endfacet
  facet normal 1.0 0.0 0.0
    outer loop
      vertex 0.703125 4.636048511366221 1.1952120478877646
      vertex 0.703125 4.217711230651107 1.502632751232185
      vertex 0.703125 4.206382858046637 0.6670820122810397
    endloop
  endfacet
  facet normal 1.0 0.0 0.0
    outer loop
      vertex 0.703125 3.7423625168289916 1.2273825004131644
      vertex 0.703125 3.5082494226290217 0.7916227890735148
      vertex 0.703125 4.206382858046637 0.6670820122810397
    endloop
  endfacet
  facet normal 1.0 0.0 -0.0
    outer loop
      vertex 0.703125 4.206382858046637 0.6670820122810397
      vertex 0.703125 4.217711230651107 1.502632751232185
      vertex 0.703125 3.7423625168289916 1.2273825004131644
    endloop
  endfacet
  facet normal 1.0 0.0 0.0
    outer loop
      vertex 0.703125 4.907293218369499 1.8196799950837872
      vertex 0.703125 4.217711230651107 1.502632751232185
      vertex 0.703125 4.636048511366221 1.1952120478877646
    endloop
  endfacet
  facet normal 1.0 0.0 0.0
    outer loop
      vertex 0.703125 4.2111253842928855 2.0297157030490034
      vertex 0.703125 4.217711230651107 1.502632751232185
      vertex 0.703125 4.907293218369499 1.8196799950837872
    endloop
  endfacet
  facet normal 1.0 0.0 0.0
    outer loop
      vertex 0.703125 4.907293218369499 1.8196799950837872
      vertex 0.703125 4.481464129976746 2.494171922976347
      vertex 0.703125 4.2111253842928855 2.0297157030490034
    endloop
  endfacet
  facet normal 0.1175618846036469 -0.9592276700606917 -0.25702427955034873
    outer loop
      vertex 0.0 3.6366583424670766 3.1504219229763475
      vertex 0.0 3.8125 2.4941719229763484
      vertex 0.3524268202712028 3.7419199252470263 2.9187789757609446
    endloop
  endfacet
  facet normal 0.1177044131907798 -0.9592113620400397 0.2570199098293869
    outer loop
      vertex 0.0 3.8125 2.4941719229763484
      vertex 0.0 3.636658342467075 1.8379219229763477
      vertex 0.3515625 3.7416758943621082 2.068851780777487
    endloop
  endfacet
  facet normal -2.0713051268671978e-16 -0.9864645723365121 -0.1639745331597021
    outer loop
      vertex 0.0 3.8125 2.4941719229763484
      vertex 0.35156250000000033 3.8125 2.494171922976348
      vertex 0.3524268202712028 3.7419199252470263 2.9187789757609446
    endloop
  endfacet
  facet normal 2.0748828098670792e-16 -0.9864174513503005 0.16425775985194047
    outer loop
      vertex 0.35156250000000033 3.8125 2.494171922976348
      vertex 0.0 3.8125 2.4941719229763484
      vertex 0.3515625 3.7416758943621082 2.068851780777487
    endloop
  endfacet
  facet normal -0.11813329628273837 -0.9591621686721794 -0.25700672850619377
    outer loop
      vertex 0.703125 3.8125 2.4941719229763484
      vertex 0.703125 3.6366583424670766 3.1504219229763475
      vertex 0.3524268202712028 3.7419199252470263 2.9187789757609446
    endloop
  endfacet
  facet normal -0.1177044131907798 -0.9592113620400397 0.2570199098293869
    outer loop
      vertex 0.703125 3.636658342467075 1.8379219229763477
      vertex 0.703125 3.8125 2.4941719229763484
      vertex 0.3515625 3.7416758943621082 2.068851780777487
    endloop
  endfacet
  facet normal 2.071305126867202e-16 -0.9864645723365121 -0.16397453315970212
    outer loop
      vertex 0.35156250000000033 3.8125 2.494171922976348
      vertex 0.703125 3.8125 2.4941719229763484
      vertex 0.3524268202712028 3.7419199252470263 2.9187789757609446
    endloop
  endfacet
  facet normal -2.074882809867083e-16 -0.9864174513503005 0.16425775985194044
    outer loop
      vertex 0.703125 3.8125 2.4941719229763484
      vertex 0.35156250000000033 3.8125 2.494171922976348
      vertex 0.3515625 3.7416758943621082 2.068851780777487
    endloop
  endfacet
  facet normal 0.1251923301149703 -0.7015436125004583 -0.7015436125004569
    outer loop
      vertex 0.0 3.156250000000002 3.630830265443423
      vertex 0.0 3.6366583424670766 3.1504219229763475
      vertex 0.35441867291544626 3.4280776503073445 3.422249573283691
    endloop
  endfacet
  facet normal -0.09359589730658475 -0.8450650467549579 -0.5264075177658616
    outer loop
      vertex 0.35441867291544626 3.4280776503073445 3.422249573283691
      vertex 0.0 3.6366583424670766 3.1504219229763475
      vertex 0.3524268202712028 3.7419199252470263 2.9187789757609446
    endloop
  endfacet
  facet normal 0.12690911210498654 -0.2567263248290142 -0.9581156879023072
    outer loop
      vertex 0.0 2.5000000000000027 3.806671922976348
      vertex 0.0 3.156250000000002 3.630830265443423
      vertex 0.3495473182714978 2.8396019790422473 3.7619758296711447
    endloop
  endfacet
  facet normal -0.1260811704183363 -0.4951937449617751 -0.8595851868294817
    outer loop
      vertex 0.3495473182714978 2.8396019790422473 3.7619758296711447
      vertex 0.0 3.156250000000002 3.630830265443423
      vertex 0.35441867291544626 3.4280776503073445 3.422249573283691
    endloop
  endfacet
  facet normal 0.12646237802073448 0.2567410916294638 -0.958170798351866
    outer loop
      vertex 0.0 1.8437500000000022 3.6308302654434255
      vertex 0.0 2.5000000000000027 3.806671922976348
      vertex 0.3508023080530278 2.160245277842426 3.7619349050718305
    endloop
  endfacet
  facet normal -0.12666923827641835 -0.0001742437337959935 -0.9919449953064904
    outer loop
      vertex 0.0 2.5000000000000027 3.806671922976348
      vertex 0.3495473182714978 2.8396019790422473 3.7619758296711447
      vertex 0.3508023080530278 2.160245277842426 3.7619349050718305
    endloop
  endfacet
  facet normal 0.12636669201232245 0.7014383291315988 -0.7014383291316021
    outer loop
      vertex 0.0 1.3633416575329256 3.150421922976351
      vertex 0.0 1.8437500000000022 3.6308302654434255
      vertex 0.351071187272815 1.5714981736520852 3.421825203285638
    endloop
  endfacet
  facet normal -0.12661029086690423 0.4961477987209908 -0.8589570397120645
    outer loop
      vertex 0.351071187272815 1.5714981736520852 3.421825203285638
      vertex 0.0 1.8437500000000022 3.6308302654434255
      vertex 0.3508023080530278 2.160245277842426 3.7619349050718305
    endloop
  endfacet
  facet normal 0.12623062620616674 0.9581993101449122 -0.2567487313413898
    outer loop
      vertex 0.0 1.1875 2.4941719229763506
      vertex 0.0 1.3633416575329256 3.150421922976351
      vertex 0.35145606106353 1.2320915044495786 2.8333832095088978
    endloop
  endfacet
  facet normal -0.12626490030082066 0.8592673688910992 -0.49569825873306367
    outer loop
      vertex 0.0 1.3633416575329256 3.150421922976351
      vertex 0.351071187272815 1.5714981736520852 3.421825203285638
      vertex 0.35145606106353 1.2320915044495786 2.8333832095088978
    endloop
  endfacet
  facet normal 0.1261348413249035 0.9582110787755561 0.25675188473646354
    outer loop
      vertex 0.0 1.3633416575329234 1.83792192297635
      vertex 0.0 1.1875 2.4941719229763506
      vertex 0.3517272195993678 1.2323577402829853 2.1539670561981956
    endloop
  endfacet
  facet normal -0.12618881891002282 0.9920061831921455 0.00033836466270602717
    outer loop
      vertex 0.0 1.1875 2.4941719229763506
      vertex 0.35145606106353 1.2320915044495786 2.8333832095088978
      vertex 0.3517272195993678 1.2323577402829853 2.1539670561981956
    endloop
  endfacet
  facet normal 0.1257809128616687 0.7014909699916628 0.7014909699916609
    outer loop
      vertex 0.0 1.8437499999999984 1.3575135805092735
      vertex 0.0 1.3633416575329234 1.83792192297635
      vertex 0.3527334197893825 1.5721480141058435 1.5658686631133496
    endloop
  endfacet
  facet normal -0.1258848351152533 0.8590702215950244 0.4961364355262381
    outer loop
      vertex 0.3527334197893825 1.5721480141058435 1.5658686631133496
      vertex 0.0 1.3633416575329234 1.83792192297635
      vertex 0.3517272195993678 1.2323577402829853 2.1539670561981956
    endloop
  endfacet
  facet normal 0.1254066830953284 0.2567757773726061 0.9583002473075553
    outer loop
      vertex 0.0 2.4999999999999987 1.1816719229763482
      vertex 0.0 1.8437499999999984 1.3575135805092735
      vertex 0.3538032210665425 2.1602698994452547 1.2264023426593795
    endloop
  endfacet
  facet normal -0.12546837328795155 0.4961257476381377 0.8591373172170873
    outer loop
      vertex 0.3538032210665425 2.1602698994452547 1.2264023426593795
      vertex 0.0 1.8437499999999984 1.3575135805092735
      vertex 0.3527334197893825 1.5721480141058435 1.5658686631133496
    endloop
  endfacet
  facet normal 0.12665435653252713 -0.25673475226204523 0.9581471395105648
    outer loop
      vertex 0.0 3.156249999999999 1.357513580509272
      vertex 0.0 2.4999999999999987 1.1816719229763482
      vertex 0.35026192302636183 2.839759245119544 1.2264101530227824
    endloop
  endfacet
  facet normal -0.12606060456077073 -0.0006683934480578981 0.9920223169001651
    outer loop
      vertex 0.0 2.4999999999999987 1.1816719229763482
      vertex 0.3538032210665425 2.1602698994452547 1.2264023426593795
      vertex 0.35026192302636183 2.839759245119544 1.2264101530227824
    endloop
  endfacet
  facet normal 0.1272102485208064 -0.7013620864686352 0.7013620864686352
    outer loop
      vertex 0.0 3.636658342467075 1.8379219229763477
      vertex 0.0 3.156249999999999 1.357513580509272
      vertex 0.3487063270845534 3.4280776503073422 1.566094272669003
    endloop
  endfacet
  facet normal -0.12690950401091539 -0.4962288693741599 0.8588660471757783
    outer loop
      vertex 0.3487063270845534 3.4280776503073422 1.566094272669003
      vertex 0.0 3.156249999999999 1.357513580509272
      vertex 0.35026192302636183 2.839759245119544 1.2264101530227824
    endloop
  endfacet
  facet normal -0.09409424478910317 -0.844467623980333 0.5272766874673859
    outer loop
      vertex 0.0 3.636658342467075 1.8379219229763477
      vertex 0.3487063270845534 3.4280776503073422 1.566094272669003
      vertex 0.3515625 3.7416758943621082 2.068851780777487
    endloop
  endfacet
  facet normal -0.12721024852080412 -0.7013620864686361 -0.7013620864686347
    outer loop
      vertex 0.703125 3.6366583424670766 3.1504219229763475
      vertex 0.703125 3.156250000000002 3.630830265443423
      vertex 0.35441867291544626 3.4280776503073445 3.422249573283691
    endloop
  endfacet
  facet normal 0.09450338328992636 -0.8446582238541204 -0.5268980882697905
    outer loop
      vertex 0.703125 3.6366583424670766 3.1504219229763475
      vertex 0.35441867291544626 3.4280776503073445 3.422249573283691
      vertex 0.3524268202712028 3.7419199252470263 2.9187789757609446
    endloop
  endfacet
  facet normal -0.12548540817786755 -0.2567732009880466 -0.9582906321094797
    outer loop
      vertex 0.703125 3.156250000000002 3.630830265443423
      vertex 0.703125 2.5000000000000027 3.806671922976348
      vertex 0.3495473182714978 2.8396019790422473 3.7619758296711447
    endloop
  endfacet
  facet normal 0.1263785769091662 -0.49674227429097356 -0.858647522695224
    outer loop
      vertex 0.703125 3.156250000000002 3.630830265443423
      vertex 0.3495473182714978 2.8396019790422473 3.7619758296711447
      vertex 0.35441867291544626 3.4280776503073445 3.422249573283691
    endloop
  endfacet
  facet normal -0.12592532496604783 0.25675877387875673 -0.9582367894046193
    outer loop
      vertex 0.703125 2.5000000000000027 3.806671922976348
      vertex 0.703125 1.8437500000000022 3.6308302654434255
      vertex 0.3508023080530278 2.160245277842426 3.7619349050718305
    endloop
  endfacet
  facet normal 0.12568888658829674 0.0002919501956301138 -0.9920696641633981
    outer loop
      vertex 0.3495473182714978 2.8396019790422473 3.7619758296711447
      vertex 0.703125 2.5000000000000027 3.806671922976348
      vertex 0.3508023080530278 2.160245277842426 3.7619349050718305
    endloop
  endfacet
  facet normal -0.12601959604591267 0.7014695508047447 -0.7014695508047479
    outer loop
      vertex 0.703125 1.8437500000000022 3.6308302654434255
      vertex 0.703125 1.3633416575329256 3.150421922976351
      vertex 0.351071187272815 1.5714981736520852 3.421825203285638
    endloop
  endfacet
  facet normal 0.12616746251431177 0.4962625786408033 -0.8589558920244277
    outer loop
      vertex 0.703125 1.8437500000000022 3.6308302654434255
      vertex 0.351071187272815 1.5714981736520852 3.421825203285638
      vertex 0.3508023080530278 2.160245277842426 3.7619349050718305
    endloop
  endfacet
  facet normal -0.1261554307355893 0.9582085498190086 -0.25675120710460225
    outer loop
      vertex 0.703125 1.3633416575329256 3.150421922976351
      vertex 0.703125 1.1875 2.4941719229763506
      vertex 0.35145606106353 1.2320915044495786 2.8333832095088978
    endloop
  endfacet
  facet normal 0.1260535881653084 0.8593620733016614 -0.4955878528387482
    outer loop
      vertex 0.351071187272815 1.5714981736520852 3.421825203285638
      vertex 0.703125 1.3633416575329256 3.150421922976351
      vertex 0.35145606106353 1.2320915044495786 2.8333832095088978
    endloop
  endfacet
  facet normal -0.12625121008957277 0.95819677991647 0.25674805336871875
    outer loop
      vertex 0.703125 1.1875 2.4941719229763506
      vertex 0.703125 1.3633416575329234 1.83792192297635
      vertex 0.3517272195993678 1.2323577402829853 2.1539670561981956
    endloop
  endfacet
  facet normal 0.1262092614869038 0.9920035430928343 0.00043909702049022773
    outer loop
      vertex 0.35145606106353 1.2320915044495786 2.8333832095088978
      vertex 0.703125 1.1875 2.4941719229763506
      vertex 0.3517272195993678 1.2323577402829853 2.1539670561981956
    endloop
  endfacet
  facet normal -0.1266081373046307 0.7014165593883047 0.7014165593883028
    outer loop
      vertex 0.703125 1.3633416575329234 1.83792192297635
      vertex 0.703125 1.8437499999999984 1.3575135805092735
      vertex 0.3527334197893825 1.5721480141058435 1.5658686631133496
    endloop
  endfacet
  facet normal 0.12635592381892088 0.8588314192079561 0.49643002920564233
    outer loop
      vertex 0.703125 1.3633416575329234 1.83792192297635
      vertex 0.3527334197893825 1.5721480141058435 1.5658686631133496
      vertex 0.3517272195993678 1.2323577402829853 2.1539670561981956
    endloop
  endfacet
  facet normal -0.12698973984352563 0.25672365404027325 0.9581057203830294
    outer loop
      vertex 0.703125 1.8437499999999984 1.3575135805092735
      vertex 0.703125 2.4999999999999987 1.1816719229763482
      vertex 0.3538032210665425 2.1602698994452547 1.2264023426593795
    endloop
  endfacet
  facet normal 0.1266721830787476 0.4957052405841929 0.8592033941340267
    outer loop
      vertex 0.703125 1.8437499999999984 1.3575135805092735
      vertex 0.3538032210665425 2.1602698994452547 1.2264023426593795
      vertex 0.3527334197893825 1.5721480141058435 1.5658686631133496
    endloop
  endfacet
  facet normal -0.1257355296719858 -0.25676500452379736 0.9582600424884675
    outer loop
      vertex 0.703125 2.4999999999999987 1.1816719229763482
      vertex 0.703125 3.156249999999999 1.357513580509272
      vertex 0.35026192302636183 2.839759245119544 1.2264101530227824
    endloop
  endfacet
  facet normal 0.12639283561065776 0.000647319901500919 0.9919800562930903
    outer loop
      vertex 0.3538032210665425 2.1602698994452547 1.2264023426593795
      vertex 0.703125 2.4999999999999987 1.1816719229763482
      vertex 0.35026192302636183 2.839759245119544 1.2264101530227824
    endloop
  endfacet
  facet normal -0.12519233011497236 -0.7015436125004574 0.7015436125004574
    outer loop
      vertex 0.703125 3.156249999999999 1.357513580509272
      vertex 0.703125 3.636658342467075 1.8379219229763477
      vertex 0.3487063270845534 3.4280776503073422 1.566094272669003
    endloop
  endfacet
  facet normal 0.12544144970508544 -0.49582181121333424 0.8593166902958509
    outer loop
      vertex 0.703125 3.156249999999999 1.357513580509272
      vertex 0.3487063270845534 3.4280776503073422 1.566094272669003
      vertex 0.35026192302636183 2.839759245119544 1.2264101530227824
    endloop
  endfacet
  facet normal 0.09345317751592494 -0.8449972968445522 0.5265416146303887
    outer loop
      vertex 0.3487063270845534 3.4280776503073422 1.566094272669003
      vertex 0.703125 3.636658342467075 1.8379219229763477
      vertex 0.3515625 3.7416758943621082 2.068851780777487
    endloop
  endfacet
  facet normal -0.0614702351338419 0.9888124766842898 0.13590914666081472
    outer loop
      vertex 0.0 4.907293218369499 3.168663850868909
      vertex 0.3515625 4.962792347515449 2.9238856102372313
      vertex 0.0 5.0 2.4941719229763484
    endloop
  endfacet
  facet normal -0.06147023513381586 0.9888124766842915 -0.13590914666081486
    outer loop
      vertex 0.0 5.0 2.4941719229763484
      vertex 0.3515625 4.9627923475154025 2.064458235715197
      vertex 0.0 4.907293218369499 1.8196799950837872
    endloop
  endfacet
  facet normal -2.179359147149402e-16 0.9962722868287969 -0.08626430604206722
    outer loop
      vertex 0.35156250000000033 5.0 2.4941719229763475
      vertex 0.3515625 4.9627923475154025 2.064458235715197
      vertex 0.0 5.0 2.4941719229763484
    endloop
  endfacet
  facet normal 2.1793591471480607e-16 0.9962722868288015 0.08626430604201414
    outer loop
      vertex 0.0 5.0 2.4941719229763484
      vertex 0.3515625 4.962792347515449 2.9238856102372313
      vertex 0.35156250000000033 5.0 2.4941719229763475
    endloop
  endfacet
  facet normal 0.0614702351338419 0.9888124766842898 0.13590914666081472
    outer loop
      vertex 0.703125 5.0 2.4941719229763484
      vertex 0.3515625 4.962792347515449 2.9238856102372313
      vertex 0.703125 4.907293218369499 3.168663850868909
    endloop
  endfacet
  facet normal 0.06147023513381586 0.9888124766842915 -0.13590914666081486
    outer loop
      vertex 0.703125 4.907293218369499 1.8196799950837872
      vertex 0.3515625 4.9627923475154025 2.064458235715197
      vertex 0.703125 5.0 2.4941719229763484
    endloop
  endfacet
  facet normal 2.179359147149406e-16 0.9962722868287969 -0.08626430604206722
    outer loop
      vertex 0.703125 5.0 2.4941719229763484
      vertex 0.3515625 4.9627923475154025 2.064458235715197
      vertex 0.35156250000000033 5.0 2.4941719229763475
    endloop
  endfacet
  facet normal -2.1793591471480646e-16 0.9962722868288015 0.08626430604201414
    outer loop
      vertex 0.35156250000000033 5.0 2.4941719229763475
      vertex 0.3515625 4.962792347515449 2.9238856102372313
      vertex 0.703125 5.0 2.4941719229763484
    endloop
  endfacet
  facet normal -0.06623327263053479 0.9151972577029167 0.39752626716949185
    outer loop
      vertex 0.0 4.636048511366221 3.793131798064933
      vertex 0.3507905270934666 4.793028253763632 3.490174647591952
      vertex 0.0 4.907293218369499 3.168663850868909
    endloop
  endfacet
  facet normal 0.048707800004745526 0.9567281455328831 0.2868776843254078
    outer loop
      vertex 0.3507905270934666 4.793028253763632 3.490174647591952
      vertex 0.3515625 4.962792347515449 2.9238856102372313
      vertex 0.0 4.907293218369499 3.168663850868909
    endloop
  endfacet
  facet normal -0.06594430029919571 0.7740228043050689 0.6297142587505593
    outer loop
      vertex 0.0 4.206382858046633 4.32126183367166
      vertex 0.3523344729065341 4.439278226761048 4.071891783791481
      vertex 0.0 4.636048511366221 3.793131798064933
    endloop
  endfacet
  facet normal 0.06608847053360709 0.8526293056812982 0.5183199602137236
    outer loop
      vertex 0.3523344729065341 4.439278226761048 4.071891783791481
      vertex 0.3507905270934666 4.793028253763632 3.490174647591952
      vertex 0.0 4.636048511366221 3.793131798064933
    endloop
  endfacet
  facet normal -0.06594430029919669 0.5754250653043335 0.8151915992437317
    outer loop
      vertex 0.0 3.650162594327877 4.713884968982288
      vertex 0.3523344729065328 3.941700805287165 4.536596655502455
      vertex 0.0 4.206382858046633 4.32126183367166
    endloop
  endfacet
  facet normal 0.06594430029919844 0.6810674336344705 0.7292451577491655
    outer loop
      vertex 0.3523344729065328 3.941700805287165 4.536596655502455
      vertex 0.3523344729065341 4.439278226761048 4.071891783791481
      vertex 0.0 4.206382858046633 4.32126183367166
    endloop
  endfacet
  facet normal -0.06594430029919486 0.33415068160448846 0.940209908074418
    outer loop
      vertex 0.0 3.0086400326315803 4.941882142182156
      vertex 0.3523344729065341 3.337199030427462 4.8498242282734
      vertex 0.0 3.650162594327877 4.713884968982288
    endloop
  endfacet
  facet normal 0.06594430029919883 0.4590636167536107 0.8859525636461262
    outer loop
      vertex 0.3523344729065341 3.337199030427462 4.8498242282734
      vertex 0.3523344729065328 3.941700805287165 4.536596655502455
      vertex 0.0 3.650162594327877 4.713884968982288
    endloop
  endfacet
  facet normal -0.06623327263053642 0.06809256435007408 0.9954780541412653
    outer loop
      vertex 0.0 2.329393966588319 4.988343845952697
      vertex 0.3507905270934659 2.6706060334116746 4.988343845952697
      vertex 0.0 3.0086400326315803 4.941882142182156
    endloop
  endfacet
  facet normal 0.0660884705336056 0.20286447245140277 0.9769740630536426
    outer loop
      vertex 0.0 3.0086400326315803 4.941882142182156
      vertex 0.3507905270934659 2.6706060334116746 4.988343845952697
      vertex 0.3523344729065341 3.337199030427462 4.8498242282734
    endloop
  endfacet
  facet normal -0.06622283061294602 -0.20300939842296797 0.976934860089225
    outer loop
      vertex 0.0 1.6628009695725314 4.849824228273398
      vertex 0.35084608345012214 1.9913603394756765 4.941882219506904
      vertex 0.0 2.329393966588319 4.988343845952697
    endloop
  endfacet
  facet normal 0.06622797793437317 -0.06808712102189637 0.9954787787239233
    outer loop
      vertex 0.0 2.329393966588319 4.988343845952697
      vertex 0.35084608345012214 1.9913603394756765 4.941882219506904
      vertex 0.3507905270934659 2.6706060334116746 4.988343845952697
    endloop
  endfacet
  facet normal -0.06617844283201589 -0.4590564849913254 0.8859387999696924
    outer loop
      vertex 0.0 1.0582991947128286 4.536596655502451
      vertex 0.35108244218318657 1.3498374056721114 4.713884968982282
      vertex 0.0 1.6628009695725314 4.849824228273398
    endloop
  endfacet
  facet normal 0.06620070251125416 -0.3341232690732045 0.9402016315933788
    outer loop
      vertex 0.35108244218318657 1.3498374056721114 4.713884968982282
      vertex 0.35084608345012214 1.9913603394756765 4.941882219506904
      vertex 0.0 1.6628009695725314 4.849824228273398
    endloop
  endfacet
  facet normal -0.06622283061294804 -0.6810548428503659 0.7292316763112202
    outer loop
      vertex 0.0 0.560721773238948 4.071891783791477
      vertex 0.35084608345012 0.7936168641944324 4.321261574262885
      vertex 0.0 1.0582991947128286 4.536596655502451
    endloop
  endfacet
  facet normal 0.06620070251125215 -0.5754341119358819 0.8151644311472255
    outer loop
      vertex 0.0 1.0582991947128286 4.536596655502451
      vertex 0.35084608345012 0.7936168641944324 4.321261574262885
      vertex 0.35108244218318657 1.3498374056721114 4.713884968982282
    endloop
  endfacet
  facet normal -0.06623327263053687 -0.8525432413290617 0.5184430299085776
    outer loop
      vertex 0.0 0.20697174623636572 3.4901746475919477
      vertex 0.3507905270934656 0.36395148863377635 3.793131798064928
      vertex 0.0 0.560721773238948 4.071891783791477
    endloop
  endfacet
  facet normal 0.06622797793437128 -0.7740116884654704 0.6296981507496714
    outer loop
      vertex 0.3507905270934656 0.36395148863377635 3.793131798064928
      vertex 0.35084608345012 0.7936168641944324 4.321261574262885
      vertex 0.0 0.560721773238948 4.071891783791477
    endloop
  endfacet
  facet normal -0.06623327263053787 -0.960802880785479 0.2692043422216169
    outer loop
      vertex 0.0 0.023285134909172556 2.8345885457169606
      vertex 0.3507905270934635 0.0927067816305005 3.168663850868905
      vertex 0.0 0.20697174623636572 3.4901746475919477
    endloop
  endfacet
  facet normal 0.06623327263053677 -0.9151972577029175 0.39752626716949
    outer loop
      vertex 0.3507905270934635 0.0927067816305005 3.168663850868905
      vertex 0.3507905270934656 0.36395148863377635 3.793131798064928
      vertex 0.0 0.20697174623636572 3.4901746475919477
    endloop
  endfacet
  facet normal -0.06623327263053597 -0.9978041659547474 -1.2203265261306912e-15
    outer loop
      vertex 0.0 0.02328513490917339 2.1537553002357286
      vertex 0.3507905270934685 0.0 2.4941719229763444
      vertex 0.0 0.023285134909172556 2.8345885457169606
    endloop
  endfacet
  facet normal 0.06623327263053655 -0.9885105641078711 0.13586764973233173
    outer loop
      vertex 0.0 0.023285134909172556 2.8345885457169606
      vertex 0.3507905270934685 0.0 2.4941719229763444
      vertex 0.3507905270934635 0.0927067816305005 3.168663850868905
    endloop
  endfacet
  facet normal -0.06623327263053705 -0.9608028807854783 -0.26920434222162026
    outer loop
      vertex 0.0 0.20697174623636905 1.4981691983607415
      vertex 0.3507905270934659 0.09270678163050217 1.819679995083786
      vertex 0.0 0.02328513490917339 2.1537553002357286
    endloop
  endfacet
  facet normal 0.06623327263053663 -0.9885105641078706 -0.1358676497323344
    outer loop
      vertex 0.3507905270934659 0.09270678163050217 1.819679995083786
      vertex 0.3507905270934685 0.0 2.4941719229763444
      vertex 0.0 0.02328513490917339 2.1537553002357286
    endloop
  endfacet
  facet normal -0.06620465117177911 -0.8525448642580192 -0.5184440168335427
    outer loop
      vertex 0.0 0.5607217732389527 0.9164520621612136
      vertex 0.35094284814526094 0.3639493101447766 1.1952156302670733
      vertex 0.0 0.20697174623636905 1.4981691983607415
    endloop
  endfacet
  facet normal 0.06621815049274059 -0.9152044137961641 -0.397512311146888
    outer loop
      vertex 0.0 0.20697174623636905 1.4981691983607415
      vertex 0.35094284814526094 0.3639493101447766 1.1952156302670733
      vertex 0.3507905270934659 0.09270678163050217 1.819679995083786
    endloop
  endfacet
  facet normal -0.06599115630106735 -0.6810653192680204 -0.7292428938154952
    outer loop
      vertex 0.0 1.0582991947128355 0.4517471904502407
      vertex 0.35208320677682753 0.7936417699681311 0.6670590116316475
      vertex 0.0 0.5607217732389527 0.9164520621612136
    endloop
  endfacet
  facet normal 0.06610502726495154 -0.774080705938592 -0.6296262272681397
    outer loop
      vertex 0.35208320677682753 0.7936417699681311 0.6670590116316475
      vertex 0.35094284814526094 0.3639493101447766 1.1952156302670733
      vertex 0.0 0.5607217732389527 0.9164520621612136
    endloop
  endfacet
  facet normal -0.06607870528003436 -0.45905952600769545 -0.8859446688648814
    outer loop
      vertex 0.0 1.6628009695725363 0.13851961767929633
      vertex 0.3516146849353244 1.3498578134427077 0.27444830263502057
      vertex 0.0 1.0582991947128355 0.4517471904502407
    endloop
  endfacet
  facet normal 0.06603283860893834 -0.5753753217200822 -0.8152195430561989
    outer loop
      vertex 0.0 1.0582991947128355 0.4517471904502407
      vertex 0.3516146849353244 1.3498578134427077 0.27444830263502057
      vertex 0.35208320677682753 0.7936417699681311 0.6670590116316475
    endloop
  endfacet
  facet normal -0.06615970509037669 -0.2030102504035342 -0.9769389600448171
    outer loop
      vertex 0.0 2.329393966588324 0.0
      vertex 0.3511822771701803 1.991466721750863 0.046439522383263376
      vertex 0.0 1.6628009695725363 0.13851961767929633
    endloop
  endfacet
  facet normal 0.06613573748295695 -0.33408203940476644 -0.9402208544670435
    outer loop
      vertex 0.3511822771701803 1.991466721750863 0.046439522383263376
      vertex 0.3516146849353244 1.3498578134427077 0.27444830263502057
      vertex 0.0 1.6628009695725363 0.13851961767929633
    endloop
  endfacet
  facet normal -0.0661823391933053 0.06809279498257699 -0.9954814258690933
    outer loop
      vertex 0.0 3.008640032631585 0.04646170377054115
      vertex 0.35106167637814345 2.6706488729960345 2.9306774734783048e-06
      vertex 0.0 2.329393966588324 0.0
    endloop
  endfacet
  facet normal 0.06615828706081849 -0.06805095334240162 -0.9954858857876231
    outer loop
      vertex 0.0 2.329393966588324 0.0
      vertex 0.35106167637814345 2.6706488729960345 2.9306774734783048e-06
      vertex 0.3511822771701803 1.991466721750863 0.046439522383263376
    endloop
  endfacet
  facet normal -0.06622283061294823 0.3341445042145831 -0.9401925265650644
    outer loop
      vertex 0.0 3.650162594327883 0.2744588769704115
      vertex 0.35084608345012064 3.337198672315082 0.13851949040615597
      vertex 0.0 3.008640032631585 0.04646170377054115
    endloop
  endfacet
  facet normal 0.06619422933308446 0.20303862403850137 -0.9769307248477505
    outer loop
      vertex 0.35084608345012064 3.337198672315082 0.13851949040615597
      vertex 0.35106167637814345 2.6706488729960345 2.9306774734783048e-06
      vertex 0.0 3.008640032631585 0.04646170377054115
    endloop
  endfacet
  facet normal -0.06617844283201707 0.5754161258139664 -0.8151789348710964
    outer loop
      vertex 0.0 4.206382858046637 0.6670820122810397
      vertex 0.35108244218318496 3.941700805287173 0.45174719045024625
      vertex 0.0 3.650162594327883 0.2744588769704115
    endloop
  endfacet
  facet normal 0.06620070251125329 0.45903533256343215 -0.8859480969252068
    outer loop
      vertex 0.35108244218318496 3.941700805287173 0.45174719045024625
      vertex 0.35084608345012064 3.337198672315082 0.13851949040615597
      vertex 0.0 3.650162594327883 0.2744588769704115
    endloop
  endfacet
  facet normal -0.06622283061294872 0.7740084950699762 -0.6297026173243361
    outer loop
      vertex 0.0 4.636048511366221 1.1952120478877646
      vertex 0.35084608345011875 4.439278466610094 0.9164523569753424
      vertex 0.0 4.206382858046637 0.6670820122810397
    endloop
  endfacet
  facet normal 0.06620070251125139 0.6810726966165399 -0.7292170108482737
    outer loop
      vertex 0.0 4.206382858046637 0.6670820122810397
      vertex 0.35084608345011875 4.439278466610094 0.9164523569753424
      vertex 0.35108244218318496 3.941700805287173 0.45174719045024625
    endloop
  endfacet
  facet normal -0.066233272630537 0.9151972577029164 -0.3975262671694925
    outer loop
      vertex 0.0 4.907293218369499 1.8196799950837872
      vertex 0.3507905270934659 4.793028253763633 1.498169198360745
      vertex 0.0 4.636048511366221 1.1952120478877646
    endloop
  endfacet
  facet normal 0.06622797793437007 0.8525463889602773 -0.518438530213097
    outer loop
      vertex 0.3507905270934659 4.793028253763633 1.498169198360745
      vertex 0.35084608345011875 4.439278466610094 0.9164523569753424
      vertex 0.0 4.636048511366221 1.1952120478877646
    endloop
  endfacet
  facet normal 0.04870780000469119 0.9567281455328701 -0.2868776843254606
    outer loop
      vertex 0.0 4.907293218369499 1.8196799950837872
      vertex 0.3515625 4.9627923475154025 2.064458235715197
      vertex 0.3507905270934659 4.793028253763633 1.498169198360745
    endloop
  endfacet
  facet normal 0.06594430029919517 0.9152148128292135 0.3975338924369057
    outer loop
      vertex 0.703125 4.907293218369499 3.168663850868909
      vertex 0.3507905270934666 4.793028253763632 3.490174647591952
      vertex 0.703125 4.636048511366221 3.793131798064933
    endloop
  endfacet
  facet normal -0.0486174943833407 0.9567688540537821 0.28675721290404976
    outer loop
      vertex 0.703125 4.907293218369499 3.168663850868909
      vertex 0.3515625 4.962792347515449 2.9238856102372313
      vertex 0.3507905270934666 4.793028253763632 3.490174647591952
    endloop
  endfacet
  facet normal 0.06623327263053556 0.7740079574430037 0.6297021799323538
    outer loop
      vertex 0.703125 4.636048511366221 3.793131798064933
      vertex 0.3523344729065341 4.439278226761048 4.071891783791481
      vertex 0.703125 4.206382858046633 4.32126183367166
    endloop
  endfacet
  facet normal -0.06608847053360722 0.8524735647656245 0.5185760652385697
    outer loop
      vertex 0.703125 4.636048511366221 3.793131798064933
      vertex 0.3507905270934666 4.793028253763632 3.490174647591952
      vertex 0.3523344729065341 4.439278226761048 4.071891783791481
    endloop
  endfacet
  facet normal 0.06623327263053608 0.5754140278303392 0.8151759627054238
    outer loop
      vertex 0.703125 4.206382858046633 4.32126183367166
      vertex 0.3523344729065328 3.941700805287165 4.536596655502455
      vertex 0.703125 3.650162594327877 4.713884968982288
    endloop
  endfacet
  facet normal -0.06623327263053808 0.68105436978908 0.7292311697862673
    outer loop
      vertex 0.703125 4.206382858046633 4.32126183367166
      vertex 0.3523344729065341 4.439278226761048 4.071891783791481
      vertex 0.3523344729065328 3.941700805287165 4.536596655502455
    endloop
  endfacet
  facet normal 0.06623327263053479 0.33414427211751835 0.9401918735065217
    outer loop
      vertex 0.703125 3.650162594327877 4.713884968982288
      vertex 0.3523344729065341 3.337199030427462 4.8498242282734
      vertex 0.703125 3.0086400326315803 4.941882142182156
    endloop
  endfacet
  facet normal -0.06623327263053848 0.4590548112582695 0.8859355698115317
    outer loop
      vertex 0.703125 3.650162594327877 4.713884968982288
      vertex 0.3523344729065328 3.941700805287165 4.536596655502455
      vertex 0.3523344729065341 3.337199030427462 4.8498242282734
    endloop
  endfacet
  facet normal 0.06594430029919655 0.06809387048769301 0.9954971491973519
    outer loop
      vertex 0.703125 3.0086400326315803 4.941882142182156
      vertex 0.3507905270934659 2.6706060334116746 4.988343845952697
      vertex 0.703125 2.329393966588319 4.988343845952697
    endloop
  endfacet
  facet normal -0.0660884705336056 0.20315794466571363 0.9769130788262237
    outer loop
      vertex 0.3523344729065341 3.337199030427462 4.8498242282734
      vertex 0.3507905270934659 2.6706060334116746 4.988343845952697
      vertex 0.703125 3.0086400326315803 4.941882142182156
    endloop
  endfacet
  facet normal 0.06595465484864035 -0.2030130122558631 0.9769522508078875
    outer loop
      vertex 0.703125 2.329393966588319 4.988343845952697
      vertex 0.35084608345012214 1.9913603394756765 4.941882219506904
      vertex 0.703125 1.6628009695725314 4.849824228273398
    endloop
  endfacet
  facet normal -0.06594940420301297 -0.06809914076221074 0.9954964505776585
    outer loop
      vertex 0.3507905270934659 2.6706060334116746 4.988343845952697
      vertex 0.35084608345012214 1.9913603394756765 4.941882219506904
      vertex 0.703125 2.329393966588319 4.988343845952697
    endloop
  endfacet
  facet normal 0.06599874349106812 -0.4590619607302774 0.8859493676661626
    outer loop
      vertex 0.703125 1.6628009695725314 4.849824228273398
      vertex 0.35108244218318657 1.3498374056721114 4.713884968982282
      vertex 0.703125 1.0582991947128286 4.536596655502451
    endloop
  endfacet
  facet normal -0.06597676481266837 -0.33417147344014564 0.9402002408230365
    outer loop
      vertex 0.703125 1.6628009695725314 4.849824228273398
      vertex 0.35084608345012214 1.9913603394756765 4.941882219506904
      vertex 0.35108244218318657 1.3498374056721114 4.713884968982282
    endloop
  endfacet
  facet normal 0.06595465484864158 -0.6810669665176129 0.729244657589134
    outer loop
      vertex 0.703125 1.0582991947128286 4.536596655502451
      vertex 0.35084608345012 0.7936168641944324 4.321261574262885
      vertex 0.703125 0.560721773238948 4.071891783791477
    endloop
  endfacet
  facet normal -0.06597676481266597 -0.575405177208529 0.8152030106338392
    outer loop
      vertex 0.35108244218318657 1.3498374056721114 4.713884968982282
      vertex 0.35084608345012 0.7936168641944324 4.321261574262885
      vertex 0.703125 1.0582991947128286 4.536596655502451
    endloop
  endfacet
  facet normal 0.06594430029919687 -0.8525595946388526 0.5184529745765615
    outer loop
      vertex 0.703125 0.560721773238948 4.071891783791477
      vertex 0.3507905270934656 0.36395148863377635 3.793131798064928
      vertex 0.703125 0.20697174623636572 3.4901746475919477
    endloop
  endfacet
  facet normal -0.06594940420301063 -0.7740191942902097 0.6297181615259341
    outer loop
      vertex 0.703125 0.560721773238948 4.071891783791477
      vertex 0.35084608345012 0.7936168641944324 4.321261574262885
      vertex 0.3507905270934656 0.36395148863377635 3.793131798064928
    endloop
  endfacet
  facet normal 0.06594430029919711 -0.9608213107094944 0.2692095060441563
    outer loop
      vertex 0.703125 0.20697174623636572 3.4901746475919477
      vertex 0.3507905270934635 0.0927067816305005 3.168663850868905
      vertex 0.703125 0.023285134909172556 2.8345885457169606
    endloop
  endfacet
  facet normal -0.0659443002991964 -0.915214812829214 0.3975338924369043
    outer loop
      vertex 0.703125 0.20697174623636572 3.4901746475919477
      vertex 0.3507905270934656 0.36395148863377635 3.793131798064928
      vertex 0.3507905270934635 0.0927067816305005 3.168663850868905
    endloop
  endfacet
  facet normal 0.06594430029919707 -0.9978233056298341 -1.2203499341841017e-15
    outer loop
      vertex 0.703125 0.023285134909172556 2.8345885457169606
      vertex 0.3507905270934685 0.0 2.4941719229763444
      vertex 0.703125 0.02328513490917339 2.1537553002357286
    endloop
  endfacet
  facet normal -0.0659443002991967 -0.9885295255149913 0.13587025591775212
    outer loop
      vertex 0.3507905270934635 0.0927067816305005 3.168663850868905
      vertex 0.3507905270934685 0.0 2.4941719229763444
      vertex 0.703125 0.023285134909172556 2.8345885457169606
    endloop
  endfacet
  facet normal 0.06594430029919715 -0.9608213107094934 -0.26920950604415966
    outer loop
      vertex 0.703125 0.02328513490917339 2.1537553002357286
      vertex 0.3507905270934659 0.09270678163050217 1.819679995083786
      vertex 0.703125 0.20697174623636905 1.4981691983607415
    endloop
  endfacet
  facet normal -0.06594430029919723 -0.9885295255149908 -0.1358702559177552
    outer loop
      vertex 0.703125 0.02328513490917339 2.1537553002357286
      vertex 0.3507905270934685 0.0 2.4941719229763444
      vertex 0.3507905270934659 0.09270678163050217 1.819679995083786
    endloop
  endfacet
  facet normal 0.06597269751496167 -0.8525579907864717 -0.5184519992523259
    outer loop
      vertex 0.703125 0.20697174623636905 1.4981691983607415
      vertex 0.35094284814526094 0.3639493101447766 1.1952156302670733
      vertex 0.703125 0.5607217732389527 0.9164520621612136
    endloop
  endfacet
  facet normal -0.0659576908616398 -0.9152084552584931 -0.39754630728955703
    outer loop
      vertex 0.3507905270934659 0.09270678163050217 1.819679995083786
      vertex 0.35094284814526094 0.3639493101447766 1.1952156302670733
      vertex 0.703125 0.20697174623636905 1.4981691983607415
    endloop
  endfacet
  facet normal 0.06618607176910762 -0.6810565075633163 -0.7292334587835593
    outer loop
      vertex 0.703125 0.5607217732389527 0.9164520621612136
      vertex 0.35208320677682753 0.7936417699681311 0.6670590116316475
      vertex 0.703125 1.0582991947128355 0.4517471904502407
    endloop
  endfacet
  facet normal -0.06608649704075406 -0.7739419333172818 -0.6297987446494241
    outer loop
      vertex 0.703125 0.5607217732389527 0.9164520621612136
      vertex 0.35094284814526094 0.3639493101447766 1.1952156302670733
      vertex 0.35208320677682753 0.7936417699681311 0.6670590116316475
    endloop
  endfacet
  facet normal 0.06609823955507244 -0.4590589307668145 -0.8859435201021277
    outer loop
      vertex 0.703125 1.0582991947128355 0.4517471904502407
      vertex 0.3516146849353244 1.3498578134427077 0.27444830263502057
      vertex 0.703125 1.6628009695725363 0.13851961767929633
    endloop
  endfacet
  facet normal -0.06614006732550298 -0.5754455363593299 -0.8151612884443795
    outer loop
      vertex 0.35208320677682753 0.7936417699681311 0.6670590116316475
      vertex 0.3516146849353244 1.3498578134427077 0.27444830263502057
      vertex 0.703125 1.0582991947128355 0.4517471904502407
    endloop
  endfacet
  facet normal 0.06601737694593703 -0.20301216835667774 -0.976948189742065
    outer loop
      vertex 0.703125 1.6628009695725363 0.13851961767929633
      vertex 0.3511822771701803 1.991466721750863 0.046439522383263376
      vertex 0.703125 2.329393966588324 0.0
    endloop
  endfacet
  facet normal -0.06607434106133468 -0.3341625126668793 -0.9401965733725411
    outer loop
      vertex 0.703125 1.6628009695725363 0.13851961767929633
      vertex 0.3516146849353244 1.3498578134427077 0.27444830263502057
      vertex 0.3511822771701803 1.991466721750863 0.046439522383263376
    endloop
  endfacet
  facet normal 0.06599486659141071 0.06809364234513274 -0.9954938138711636
    outer loop
      vertex 0.703125 2.329393966588324 0.0
      vertex 0.35106167637814345 2.6706488729960345 2.9306774734783048e-06
      vertex 0.703125 3.008640032631585 0.04646170377054115
    endloop
  endfacet
  facet normal -0.06599342318822739 -0.06807505472690482 -0.9954951808119556
    outer loop
      vertex 0.3511822771701803 1.991466721750863 0.046439522383263376
      vertex 0.35106167637814345 2.6706488729960345 2.9306774734783048e-06
      vertex 0.703125 2.329393966588324 0.0
    endloop
  endfacet
  facet normal 0.065954654848642 0.3341504524239293 -0.9402092632221191
    outer loop
      vertex 0.703125 3.008640032631585 0.04646170377054115
      vertex 0.35084608345012064 3.337198672315082 0.13851949040615597
      vertex 0.703125 3.650162594327883 0.2744588769704115
    endloop
  endfacet
  facet normal -0.06596643621292439 0.20300071619637777 -0.9769540104411896
    outer loop
      vertex 0.703125 3.008640032631585 0.04646170377054115
      vertex 0.35106167637814345 2.6706488729960345 2.9306774734783048e-06
      vertex 0.35084608345012064 3.337198672315082 0.13851949040615597
    endloop
  endfacet
  facet normal 0.06599874349106863 0.5754229895194074 -0.815188658526447
    outer loop
      vertex 0.703125 3.650162594327883 0.2744588769704115
      vertex 0.35108244218318496 3.941700805287173 0.45174719045024625
      vertex 0.703125 4.206382858046637 0.6670820122810397
    endloop
  endfacet
  facet normal -0.06597676481266691 0.45908289857576123 -0.8859401552814566
    outer loop
      vertex 0.703125 3.650162594327883 0.2744588769704115
      vertex 0.35084608345012064 3.337198672315082 0.13851949040615597
      vertex 0.35108244218318496 3.941700805287173 0.45174719045024625
    endloop
  endfacet
  facet normal 0.06595465484864177 0.7740222734338469 -0.6297138268547832
    outer loop
      vertex 0.703125 4.206382858046637 0.6670820122810397
      vertex 0.35084608345011875 4.439278466610094 0.9164523569753424
      vertex 0.703125 4.636048511366221 1.1952120478877646
    endloop
  endfacet
  facet normal -0.06597676481266464 0.6810492846282151 -0.7292591709483335
    outer loop
      vertex 0.35108244218318496 3.941700805287173 0.45174719045024625
      vertex 0.35084608345011875 4.439278466610094 0.9164523569753424
      vertex 0.703125 4.206382858046637 0.6670820122810397
    endloop
  endfacet
  facet normal 0.06594430029919712 0.915214812829213 -0.39753389243690634
    outer loop
      vertex 0.703125 4.636048511366221 1.1952120478877646
      vertex 0.3507905270934659 4.793028253763633 1.498169198360745
      vertex 0.703125 4.907293218369499 1.8196799950837872
    endloop
  endfacet
  facet normal -0.06594940420300924 0.8525565496757096 -0.518457332564906
    outer loop
      vertex 0.703125 4.636048511366221 1.1952120478877646
      vertex 0.35084608345011875 4.439278466610094 0.9164523569753424
      vertex 0.3507905270934659 4.793028253763633 1.498169198360745
    endloop
  endfacet
  facet normal -0.048617494383286476 0.9567688540537689 -0.28675721290410255
    outer loop
      vertex 0.3507905270934659 4.793028253763633 1.498169198360745
      vertex 0.3515625 4.9627923475154025 2.064458235715197
      vertex 0.703125 4.907293218369499 1.8196799950837872
    endloop
  endfacet
endsolid abc_50_008
