solid abc_50_009
  facet normal -1.0 0.0 0.0
    outer loop
      vertex 0.0 3.8125 2.494171922976349
      vertex 0.0 3.636658342467075 3.1504219229763497
      vertex 0.0 4.2111253842928855 2.9586281429036942
    endloop
  endfacet
  facet normal -1.0 0.0 0.0
    outer loop
      vertex 0.0 3.636658342467076 1.8379219229763493
      vertex 0.0 3.8125 2.494171922976349
      vertex 0.0 4.2111253842928855 2.029715703049004
    endloop
  endfacet
  facet normal -1.0 0.0 0.0
    outer loop
      vertex 0.0 3.8125 2.494171922976349
      vertex 0.0 4.2111253842928855 2.9586281429036942
      vertex 0.0 4.481464129976746 2.4941719229763497
    endloop
  endfacet
  facet normal -1.0 0.0 0.0
    outer loop
      vertex 0.0 4.2111253842928855 2.029715703049004
      vertex 0.0 3.8125 2.494171922976349
      vertex 0.0 4.481464129976746 2.4941719229763497
    endloop
  endfacet
  facet normal -1.0 0.0 -0.0
    outer loop
      vertex 0.0 4.907293218369499 3.168663850868909
      vertex 0.0 5.0 2.494171922976349
      vertex 0.0 4.481464129976746 2.4941719229763497
    endloop
  endfacet
  facet normal -1.0 -0.0 0.0
    outer loop
      vertex 0.0 5.0 2.494171922976349
      vertex 0.0 4.907293218369498 1.8196799950837839
      vertex 0.0 4.481464129976746 2.4941719229763497
    endloop
  endfacet
  facet normal -1.0 0.0 0.0
    outer loop
      vertex 0.0 3.636658342467075 3.1504219229763497
      vertex 0.0 3.1562499999999982 3.630830265443426
      vertex 0.0 3.742362516828991 3.760961345539533
    endloop
  endfacet
  facet normal -1.0 0.0 0.0
    outer loop
      vertex 0.0 3.636658342467075 3.1504219229763497
      vertex 0.0 3.742362516828991 3.760961345539533
      vertex 0.0 4.2177112306511075 3.4857110947205117
    endloop
  endfacet
  facet normal -1.0 0.0 0.0
    outer loop
      vertex 0.0 4.2111253842928855 2.9586281429036942
      vertex 0.0 3.636658342467075 3.1504219229763497
      vertex 0.0 4.2177112306511075 3.4857110947205117
    endloop
  endfacet
  facet normal -1.0 0.0 0.0
    outer loop
      vertex 0.0 3.1562499999999982 3.630830265443426
      vertex 0.0 2.499999999999996 3.8066719229763493
      vertex 0.0 2.97703428711291 4.274488119434144
    endloop
  endfacet
  facet normal -1.0 0.0 0.0
    outer loop
      vertex 0.0 3.1562499999999982 3.630830265443426
      vertex 0.0 2.97703428711291 4.274488119434144
      vertex 0.0 3.50824942262902 4.196721056879183
    endloop
  endfacet
  facet normal -1.0 -0.0 0.0
    outer loop
      vertex 0.0 3.742362516828991 3.760961345539533
      vertex 0.0 3.1562499999999982 3.630830265443426
      vertex 0.0 3.50824942262902 4.196721056879183
    endloop
  endfacet
  facet normal -1.0 -0.0 0.0
    outer loop
      vertex 0.0 2.499999999999996 3.8066719229763493
      vertex 0.0 1.8437499999999951 3.6308302654434224
      vertex 0.0 2.021452427629819 4.280135776900581
    endloop
  endfacet
  facet normal -1.0 0.0 0.0
    outer loop
      vertex 0.0 2.499999999999996 3.8066719229763493
      vertex 0.0 2.021452427629819 4.280135776900581
      vertex 0.0 2.5179025522909164 4.483881916536786
    endloop
  endfacet
  facet normal -1.0 -0.0 0.0
    outer loop
      vertex 0.0 2.97703428711291 4.274488119434144
      vertex 0.0 2.499999999999996 3.8066719229763493
      vertex 0.0 2.5179025522909164 4.483881916536786
    endloop
  endfacet
  facet normal -1.0 -0.0 0.0
    outer loop
      vertex 0.0 1.8437499999999951 3.6308302654434224
      vertex 0.0 1.3633416575329216 3.150421922976344
      vertex 0.0 1.1874999999999947 3.8066719229763435
    endloop
  endfacet
  facet normal -1.0 0.0 0.0
    outer loop
      vertex 0.0 1.8437499999999951 3.6308302654434224
      vertex 0.0 1.1874999999999947 3.8066719229763435
      vertex 0.0 1.4943476625953318 4.237382697277496
    endloop
  endfacet
  facet normal -1.0 0.0 0.0
    outer loop
      vertex 0.0 2.021452427629819 4.280135776900581
      vertex 0.0 1.8437499999999951 3.6308302654434224
      vertex 0.0 1.4943476625953318 4.237382697277496
    endloop
  endfacet
  facet normal -1.0 0.0 0.0
    outer loop
      vertex 0.0 1.3633416575329216 3.150421922976344
      vertex 0.0 1.1875 2.4941719229763444
      vertex 0.0 0.7070916575329231 2.9745802654434184
    endloop
  endfacet
  facet normal -1.0 -0.0 0.0
    outer loop
      vertex 0.0 1.3633416575329216 3.150421922976344
      vertex 0.0 0.7070916575329231 2.9745802654434184
      vertex 0.0 0.7422330843319844 3.5090191249098868
    endloop
  endfacet
  facet normal -1.0 0.0 -0.0
    outer loop
      vertex 0.0 1.1874999999999947 3.8066719229763435
      vertex 0.0 1.3633416575329216 3.150421922976344
      vertex 0.0 0.7422330843319844 3.5090191249098868
    endloop
  endfacet
  facet normal -1.0 0.0 -0.0
    outer loop
      vertex 0.0 1.1875 2.4941719229763444
      vertex 0.0 1.3633416575329256 1.8379219229763462
      vertex 0.0 0.7070916575329267 2.013763580509268
    endloop
  endfacet
  facet normal -1.0 0.0 0.0
    outer loop
      vertex 0.0 1.1875 2.4941719229763444
      vertex 0.0 0.7070916575329267 2.013763580509268
      vertex 0.0 0.44920974924422763 2.494171922976342
    endloop
  endfacet
  facet normal -1.0 0.0 -0.0
    outer loop
      vertex 0.0 0.7070916575329231 2.9745802654434184
      vertex 0.0 1.1875 2.4941719229763444
      vertex 0.0 0.44920974924422763 2.494171922976342
    endloop
  endfacet
  facet normal -1.0 0.0 -0.0
    outer loop
      vertex 0.0 1.3633416575329256 1.8379219229763462
      vertex 0.0 1.8437500000000022 1.357513580509272
      vertex 0.0 1.1875000000000036 1.1816719229763466
    endloop
  endfacet
  facet normal -1.0 0.0 0.0
    outer loop
      vertex 0.0 0.7070916575329267 2.013763580509268
      vertex 0.0 1.3633416575329256 1.8379219229763462
      vertex 0.0 0.7422330843319813 1.479324721042794
    endloop
  endfacet
  facet normal -1.0 0.0 0.0
    outer loop
      vertex 0.0 1.3633416575329256 1.8379219229763462
      vertex 0.0 1.1875000000000036 1.1816719229763466
      vertex 0.0 0.7422330843319813 1.479324721042794
    endloop
  endfacet
  facet normal -1.0 0.0 0.0
    outer loop
      vertex 0.0 1.8437500000000022 1.357513580509272
      vertex 0.0 2.500000000000002 1.1816719229763488
      vertex 0.0 2.021452427629828 0.7082080690521095
    endloop
  endfacet
  facet normal -1.0 0.0 0.0
    outer loop
      vertex 0.0 1.1875000000000036 1.1816719229763466
      vertex 0.0 1.8437500000000022 1.357513580509272
      vertex 0.0 1.4943476625953367 0.7509611486751879
    endloop
  endfacet
  facet normal -1.0 0.0 -0.0
    outer loop
      vertex 0.0 1.8437500000000022 1.357513580509272
      vertex 0.0 2.021452427629828 0.7082080690521095
      vertex 0.0 1.4943476625953367 0.7509611486751879
    endloop
  endfacet
  facet normal -1.0 0.0 0.0
    outer loop
      vertex 0.0 2.500000000000002 1.1816719229763488
      vertex 0.0 3.1562500000000018 1.3575135805092742
      vertex 0.0 2.9770342871129163 0.7138557265185528
    endloop
  endfacet
  facet normal -1.0 0.0 0.0
    outer loop
      vertex 0.0 2.021452427629828 0.7082080690521095
      vertex 0.0 2.500000000000002 1.1816719229763488
      vertex 0.0 2.5179025522909226 0.5044619294159056
    endloop
  endfacet
  facet normal -1.0 0.0 0.0
    outer loop
      vertex 0.0 2.500000000000002 1.1816719229763488
      vertex 0.0 2.9770342871129163 0.7138557265185528
      vertex 0.0 2.5179025522909226 0.5044619294159056
    endloop
  endfacet
  facet normal -1.0 0.0 0.0
    outer loop
      vertex 0.0 3.1562500000000018 1.3575135805092742
      vertex 0.0 3.636658342467076 1.8379219229763493
      vertex 0.0 3.7423625168289916 1.2273825004131638
    endloop
  endfacet
  facet normal -1.0 0.0 0.0
    outer loop
      vertex 0.0 2.9770342871129163 0.7138557265185528
      vertex 0.0 3.1562500000000018 1.3575135805092742
      vertex 0.0 3.508249422629024 0.791622789073513
    endloop
  endfacet
  facet normal -1.0 0.0 0.0
    outer loop
      vertex 0.0 3.1562500000000018 1.3575135805092742
      vertex 0.0 3.7423625168289916 1.2273825004131638
      vertex 0.0 3.508249422629024 0.791622789073513
    endloop
  endfacet
  facet normal -1.0 0.0 0.0
    outer loop
      vertex 0.0 3.7423625168289916 1.2273825004131638
      vertex 0.0 3.636658342467076 1.8379219229763493
      vertex 0.0 4.217711230651108 1.502632751232187
    endloop
  endfacet
  facet normal -1.0 0.0 0.0
    outer loop
      vertex 0.0 3.636658342467076 1.8379219229763493
      vertex 0.0 4.2111253842928855 2.029715703049004
      vertex 0.0 4.217711230651108 1.502632751232187
    endloop
  endfacet
  facet normal -1.0 0.0 -0.0
    outer loop
      vertex 0.0 4.636048511366222 3.793131798064932
      vertex 0.0 4.907293218369499 3.168663850868909
      vertex 0.0 4.2177112306511075 3.4857110947205117
    endloop
  endfacet
  facet normal -1.0 -0.0 0.0
    outer loop
      vertex 0.0 4.907293218369499 3.168663850868909
      vertex 0.0 4.2111253842928855 2.9586281429036942
      vertex 0.0 4.2177112306511075 3.4857110947205117
    endloop
  endfacet
  facet normal -1.0 0.0 0.0
    outer loop
      vertex 0.0 4.2111253842928855 2.9586281429036942
      vertex 0.0 4.907293218369499 3.168663850868909
      vertex 0.0 4.481464129976746 2.4941719229763497
    endloop
  endfacet
  facet normal -1.0 0.0 0.0
    outer loop
      vertex 0.0 4.206382858046637 4.321261833671658
      vertex 0.0 4.636048511366222 3.793131798064932
      vertex 0.0 4.2177112306511075 3.4857110947205117
    endloop
  endfacet
  facet normal -1.0 0.0 -0.0
    outer loop
      vertex 0.0 3.650162594327882 4.713884968982286
      vertex 0.0 4.206382858046637 4.321261833671658
      vertex 0.0 3.50824942262902 4.196721056879183
    endloop
  endfacet
  facet normal -1.0 0.0 0.0
    outer loop
      vertex 0.0 4.206382858046637 4.321261833671658
      vertex 0.0 3.742362516828991 3.760961345539533
      vertex 0.0 3.50824942262902 4.196721056879183
    endloop
  endfacet
  facet normal -1.0 0.0 0.0
    outer loop
      vertex 0.0 3.742362516828991 3.760961345539533
      vertex 0.0 4.206382858046637 4.321261833671658
      vertex 0.0 4.2177112306511075 3.4857110947205117
    endloop
  endfacet
  facet normal -1.0 0.0 -0.0
    outer loop
      vertex 0.0 3.008640032631587 4.9418821421821555
      vertex 0.0 3.650162594327882 4.713884968982286
      vertex 0.0 2.97703428711291 4.274488119434144
    endloop
  endfacet
  facet normal -1.0 0.0 0.0
    outer loop
      vertex 0.0 2.97703428711291 4.274488119434144
      vertex 0.0 3.650162594327882 4.713884968982286
      vertex 0.0 3.50824942262902 4.196721056879183
    endloop
  endfacet
  facet normal -1.0 0.0 0.0
    outer loop
      vertex 0.0 2.3293939665883254 4.988343845952698
      vertex 0.0 3.008640032631587 4.9418821421821555
      vertex 0.0 2.5179025522909164 4.483881916536786
    endloop
  endfacet
  facet normal -1.0 0.0 0.0
    outer loop
      vertex 0.0 3.008640032631587 4.9418821421821555
      vertex 0.0 2.97703428711291 4.274488119434144
      vertex 0.0 2.5179025522909164 4.483881916536786
    endloop
  endfacet
  facet normal -1.0 0.0 0.0
    outer loop
      vertex 0.0 1.6628009695725376 4.849824228273402
      vertex 0.0 2.3293939665883254 4.988343845952698
      vertex 0.0 2.021452427629819 4.280135776900581
    endloop
  endfacet
  facet normal -1.0 0.0 0.0
    outer loop
      vertex 0.0 2.021452427629819 4.280135776900581
      vertex 0.0 2.3293939665883254 4.988343845952698
      vertex 0.0 2.5179025522909164 4.483881916536786
    endloop
  endfacet
  facet normal -1.0 0.0 0.0
    outer loop
      vertex 0.0 1.058299194712835 4.536596655502456
      vertex 0.0 1.6628009695725376 4.849824228273402
      vertex 0.0 1.4943476625953318 4.237382697277496
    endloop
  endfacet
  facet normal -1.0 0.0 -0.0
    outer loop
      vertex 0.0 1.6628009695725376 4.849824228273402
      vertex 0.0 2.021452427629819 4.280135776900581
      vertex 0.0 1.4943476625953318 4.237382697277496
    endloop
  endfacet
  facet normal -1.0 0.0 0.0
    outer loop
      vertex 0.0 0.5607217732389536 4.071891783791485
      vertex 0.0 1.058299194712835 4.536596655502456
      vertex 0.0 1.1874999999999947 3.8066719229763435
    endloop
  endfacet
  facet normal -1.0 0.0 0.0
    outer loop
      vertex 0.0 1.1874999999999947 3.8066719229763435
      vertex 0.0 1.058299194712835 4.536596655502456
      vertex 0.0 1.4943476625953318 4.237382697277496
    endloop
  endfacet
  facet normal -1.0 0.0 0.0
    outer loop
      vertex 0.0 0.20697174623637044 3.4901746475919593
      vertex 0.0 0.5607217732389536 4.071891783791485
      vertex 0.0 0.7422330843319844 3.5090191249098868
    endloop
  endfacet
  facet normal -1.0 0.0 0.0
    outer loop
      vertex 0.0 0.5607217732389536 4.071891783791485
      vertex 0.0 1.1874999999999947 3.8066719229763435
      vertex 0.0 0.7422330843319844 3.5090191249098868
    endloop
  endfacet
  facet normal -1.0 0.0 0.0
    outer loop
      vertex 0.0 0.0232851349091745 2.8345885457169744
      vertex 0.0 0.20697174623637044 3.4901746475919593
      vertex 0.0 0.7070916575329231 2.9745802654434184
    endloop
  endfacet
  facet normal -1.0 0.0 0.0
    outer loop
      vertex 0.0 0.7070916575329231 2.9745802654434184
      vertex 0.0 0.20697174623637044 3.4901746475919593
      vertex 0.0 0.7422330843319844 3.5090191249098868
    endloop
  endfacet
  facet normal -1.0 0.0 0.0
    outer loop
      vertex 0.0 0.023285134909172 2.153755300235742
      vertex 0.0 0.0232851349091745 2.8345885457169744
      vertex 0.0 0.44920974924422763 2.494171922976342
    endloop
  endfacet
  facet normal -1.0 0.0 0.0
    outer loop
      vertex 0.0 0.0232851349091745 2.8345885457169744
      vertex 0.0 0.7070916575329231 2.9745802654434184
      vertex 0.0 0.44920974924422763 2.494171922976342
    endloop
  endfacet
  facet normal -1.0 0.0 0.0
    outer loop
      vertex 0.0 0.20697174623636294 1.4981691983607561
      vertex 0.0 0.023285134909172 2.153755300235742
      vertex 0.0 0.7070916575329267 2.013763580509268
    endloop
  endfacet
  facet normal -1.0 0.0 0.0
    outer loop
      vertex 0.0 0.7070916575329267 2.013763580509268
      vertex 0.0 0.023285134909172 2.153755300235742
      vertex 0.0 0.44920974924422763 2.494171922976342
    endloop
  endfacet
  facet normal -1.0 0.0 0.0
    outer loop
      vertex 0.0 0.5607217732389422 0.9164520621612273
      vertex 0.0 0.20697174623636294 1.4981691983607561
      vertex 0.0 0.7422330843319813 1.479324721042794
    endloop
  endfacet
  facet normal -1.0 0.0 0.0
    outer loop
      vertex 0.0 0.20697174623636294 1.4981691983607561
      vertex 0.0 0.7070916575329267 2.013763580509268
      vertex 0.0 0.7422330843319813 1.479324721042794
    endloop
  endfacet
  facet normal -1.0 0.0 0.0
    outer loop
      vertex 0.0 1.0582991947128209 0.4517471904502518
      vertex 0.0 0.5607217732389422 0.9164520621612273
      vertex 0.0 1.1875000000000036 1.1816719229763466
    endloop
  endfacet
  facet normal -1.0 -0.0 0.0
    outer loop
      vertex 0.0 1.1875000000000036 1.1816719229763466
      vertex 0.0 0.5607217732389422 0.9164520621612273
      vertex 0.0 0.7422330843319813 1.479324721042794
    endloop
  endfacet
  facet normal -1.0 0.0 0.0
    outer loop
      vertex 0.0 1.6628009695725172 0.13851961767930354
      vertex 0.0 1.0582991947128209 0.4517471904502518
      vertex 0.0 1.4943476625953367 0.7509611486751879
    endloop
  endfacet
  facet normal -1.0 0.0 0.0
    outer loop
      vertex 0.0 1.0582991947128209 0.4517471904502518
      vertex 0.0 1.1875000000000036 1.1816719229763466
      vertex 0.0 1.4943476625953367 0.7509611486751879
    endloop
  endfacet
  facet normal -1.0 0.0 0.0
    outer loop
      vertex 0.0 2.329393966588304 2.220446049250313e-15
      vertex 0.0 1.6628009695725172 0.13851961767930354
      vertex 0.0 2.021452427629828 0.7082080690521095
    endloop
  endfacet
  facet normal -1.0 -0.0 0.0
    outer loop
      vertex 0.0 2.021452427629828 0.7082080690521095
      vertex 0.0 1.6628009695725172 0.13851961767930354
      vertex 0.0 1.4943476625953367 0.7509611486751879
    endloop
  endfacet
  facet normal -1.0 -0.0 0.0
    outer loop
      vertex 0.0 3.0086400326315705 0.04646170377053893
      vertex 0.0 2.329393966588304 2.220446049250313e-15
      vertex 0.0 2.5179025522909226 0.5044619294159056
    endloop
  endfacet
  facet normal -1.0 0.0 0.0
    outer loop
      vertex 0.0 2.329393966588304 2.220446049250313e-15
      vertex 0.0 2.021452427629828 0.7082080690521095
      vertex 0.0 2.5179025522909226 0.5044619294159056
    endloop
  endfacet
  facet normal -1.0 -0.0 0.0
    outer loop
      vertex 0.0 3.650162594327867 0.274458876970404
      vertex 0.0 3.0086400326315705 0.04646170377053893
      vertex 0.0 2.9770342871129163 0.7138557265185528
    endloop
  endfacet
  facet normal -1.0 0.0 -0.0
    outer loop
      vertex 0.0 2.9770342871129163 0.7138557265185528
      vertex 0.0 3.0086400326315705 0.04646170377053893
      vertex 0.0 2.5179025522909226 0.5044619294159056
    endloop
  endfacet
  facet normal -1.0 -0.0 0.0
    outer loop
      vertex 0.0 4.206382858046627 0.6670820122810315
      vertex 0.0 3.650162594327867 0.274458876970404
      vertex 0.0 3.508249422629024 0.791622789073513
    endloop
  endfacet
  facet normal -1.0 0.0 0.0
    outer loop
      vertex 0.0 3.650162594327867 0.274458876970404
      vertex 0.0 2.9770342871129163 0.7138557265185528
      vertex 0.0 3.508249422629024 0.791622789073513
    endloop
  endfacet
  facet normal -1.0 -0.0 0.0
    outer loop
      vertex 0.0 4.6360485113662175 1.1952120478877593
      vertex 0.0 4.206382858046627 0.6670820122810315
      vertex 0.0 4.217711230651108 1.502632751232187
    endloop
  endfacet
  facet normal -1.0 0.0 -0.0
    outer loop
      vertex 0.0 3.7423625168289916 1.2273825004131638
      vertex 0.0 4.206382858046627 0.6670820122810315
      vertex 0.0 3.508249422629024 0.791622789073513
    endloop
  endfacet
  facet normal -1.0 0.0 0.0
    outer loop
      vertex 0.0 4.206382858046627 0.6670820122810315
      vertex 0.0 3.7423625168289916 1.2273825004131638
      vertex 0.0 4.217711230651108 1.502632751232187
    endloop
  endfacet
  facet normal -1.0 0.0 0.0
    outer loop
      vertex 0.0 4.907293218369498 1.8196799950837839
      vertex 0.0 4.6360485113662175 1.1952120478877593
      vertex 0.0 4.217711230651108 1.502632751232187
    endloop
  endfacet
  facet normal -1.0 0.0 0.0
    outer loop
      vertex 0.0 4.2111253842928855 2.029715703049004
      vertex 0.0 4.907293218369498 1.8196799950837839
      vertex 0.0 4.217711230651108 1.502632751232187
    endloop
  endfacet
  facet normal -1.0 0.0 0.0
    outer loop
      vertex 0.0 4.907293218369498 1.8196799950837839
      vertex 0.0 4.2111253842928855 2.029715703049004
      vertex 0.0 4.481464129976746 2.4941719229763497
    endloop
  endfacet
  facet normal 1.0 0.0 -0.0
    outer loop
      vertex 0.5859375 3.8125 2.494171922976349
      vertex 0.5859375 4.2111253842928855 2.9586281429036942
      vertex 0.5859375 3.636658342467075 3.1504219229763497
    endloop
  endfacet
  facet normal 1.0 0.0 0.0
    outer loop
      vertex 0.5859375 3.636658342467076 1.8379219229763493
      vertex 0.5859375 4.2111253842928855 2.029715703049004
      vertex 0.5859375 3.8125 2.494171922976349
    endloop
  endfacet
  facet normal 1.0 0.0 0.0
    outer loop
      vertex 0.5859375 3.8125 2.494171922976349
      vertex 0.5859375 4.481464129976746 2.4941719229763497
      vertex 0.5859375 4.2111253842928855 2.9586281429036942
    endloop
  endfacet
  facet normal 1.0 0.0 -0.0
    outer loop
      vertex 0.5859375 4.2111253842928855 2.029715703049004
      vertex 0.5859375 4.481464129976746 2.4941719229763497
      vertex 0.5859375 3.8125 2.494171922976349
    endloop
  endfacet
  facet normal 1.0 0.0 0.0
    outer loop
      vertex 0.5859375 4.907293218369499 3.168663850868909
      vertex 0.5859375 4.481464129976746 2.4941719229763497
      vertex 0.5859375 5.0 2.494171922976349
    endloop
  endfacet
  facet normal 1.0 0.0 0.0
    outer loop
      vertex 0.5859375 5.0 2.494171922976349
      vertex 0.5859375 4.481464129976746 2.4941719229763497
      vertex 0.5859375 4.907293218369498 1.8196799950837839
    endloop
  endfacet
  facet normal 1.0 0.0 -0.0
    outer loop
      vertex 0.5859375 3.636658342467075 3.1504219229763497
      vertex 0.5859375 3.742362516828991 3.760961345539533
      vertex 0.5859375 3.1562499999999982 3.630830265443426
    endloop
  endfacet
  facet normal 1.0 0.0 0.0
    outer loop
      vertex 0.5859375 3.636658342467075 3.1504219229763497
      vertex 0.5859375 4.2177112306511075 3.4857110947205117
      vertex 0.5859375 3.742362516828991 3.760961345539533
    endloop
  endfacet
  facet normal 1.0 0.0 -0.0
    outer loop
      vertex 0.5859375 4.2111253842928855 2.9586281429036942
      vertex 0.5859375 4.2177112306511075 3.4857110947205117
      vertex 0.5859375 3.636658342467075 3.1504219229763497
    endloop
  endfacet
  facet normal 1.0 0.0 0.0
    outer loop
      vertex 0.5859375 3.1562499999999982 3.630830265443426
      vertex 0.5859375 2.97703428711291 4.274488119434144
      vertex 0.5859375 2.499999999999996 3.8066719229763493
    endloop
  endfacet
  facet normal 1.0 0.0 -0.0
    outer loop
      vertex 0.5859375 3.1562499999999982 3.630830265443426
      vertex 0.5859375 3.50824942262902 4.196721056879183
      vertex 0.5859375 2.97703428711291 4.274488119434144
    endloop
  endfacet
  facet normal 1.0 0.0 0.0
    outer loop
      vertex 0.5859375 3.742362516828991 3.760961345539533
      vertex 0.5859375 3.50824942262902 4.196721056879183
      vertex 0.5859375 3.1562499999999982 3.630830265443426
    endloop
  endfacet
  facet normal 1.0 0.0 0.0
    outer loop
      vertex 0.5859375 2.499999999999996 3.8066719229763493
      vertex 0.5859375 2.021452427629819 4.280135776900581
      vertex 0.5859375 1.8437499999999951 3.6308302654434224
    endloop
  endfacet
  facet normal 1.0 0.0 -0.0
    outer loop
      vertex 0.5859375 2.499999999999996 3.8066719229763493
      vertex 0.5859375 2.5179025522909164 4.483881916536786
      vertex 0.5859375 2.021452427629819 4.280135776900581
    endloop
  endfacet
  facet normal 1.0 0.0 0.0
    outer loop
      vertex 0.5859375 2.97703428711291 4.274488119434144
      vertex 0.5859375 2.5179025522909164 4.483881916536786
      vertex 0.5859375 2.499999999999996 3.8066719229763493
    endloop
  endfacet
  facet normal 1.0 0.0 0.0
    outer loop
      vertex 0.5859375 1.8437499999999951 3.6308302654434224
      vertex 0.5859375 1.1874999999999947 3.8066719229763435
      vertex 0.5859375 1.3633416575329216 3.150421922976344
    endloop
  endfacet
  facet normal 1.0 0.0 0.0
    outer loop
      vertex 0.5859375 1.8437499999999951 3.6308302654434224
      vertex 0.5859375 1.4943476625953318 4.237382697277496
      vertex 0.5859375 1.1874999999999947 3.8066719229763435
    endloop
  endfacet
  facet normal 1.0 0.0 0.0
    outer loop
      vertex 0.5859375 2.021452427629819 4.280135776900581
      vertex 0.5859375 1.4943476625953318 4.237382697277496
      vertex 0.5859375 1.8437499999999951 3.6308302654434224
    endloop
  endfacet
  facet normal 1.0 0.0 0.0
    outer loop
      vertex 0.5859375 1.3633416575329216 3.150421922976344
      vertex 0.5859375 0.7070916575329231 2.9745802654434184
      vertex 0.5859375 1.1875 2.4941719229763444
    endloop
  endfacet
  facet normal 1.0 0.0 0.0
    outer loop
      vertex 0.5859375 1.3633416575329216 3.150421922976344
      vertex 0.5859375 0.7422330843319844 3.5090191249098868
      vertex 0.5859375 0.7070916575329231 2.9745802654434184
    endloop
  endfacet
  facet normal 1.0 0.0 0.0
    outer loop
      vertex 0.5859375 1.1874999999999947 3.8066719229763435
      vertex 0.5859375 0.7422330843319844 3.5090191249098868
      vertex 0.5859375 1.3633416575329216 3.150421922976344
    endloop
  endfacet
  facet normal 1.0 0.0 0.0
    outer loop
      vertex 0.5859375 1.1875 2.4941719229763444
      vertex 0.5859375 0.7070916575329267 2.013763580509268
      vertex 0.5859375 1.3633416575329256 1.8379219229763462
    endloop
  endfacet
  facet normal 1.0 0.0 0.0
    outer loop
      vertex 0.5859375 1.1875 2.4941719229763444
      vertex 0.5859375 0.44920974924422763 2.494171922976342
      vertex 0.5859375 0.7070916575329267 2.013763580509268
    endloop
  endfacet
  facet normal 1.0 0.0 0.0
    outer loop
      vertex 0.5859375 0.7070916575329231 2.9745802654434184
      vertex 0.5859375 0.44920974924422763 2.494171922976342
      vertex 0.5859375 1.1875 2.4941719229763444
    endloop
  endfacet
  facet normal 1.0 0.0 0.0
    outer loop
      vertex 0.5859375 1.3633416575329256 1.8379219229763462
      vertex 0.5859375 1.1875000000000036 1.1816719229763466
      vertex 0.5859375 1.8437500000000022 1.357513580509272
    endloop
  endfacet
  facet normal 1.0 0.0 0.0
    outer loop
      vertex 0.5859375 0.7070916575329267 2.013763580509268
      vertex 0.5859375 0.7422330843319813 1.479324721042794
      vertex 0.5859375 1.3633416575329256 1.8379219229763462
    endloop
  endfacet
  facet normal 1.0 0.0 0.0
    outer loop
      vertex 0.5859375 1.3633416575329256 1.8379219229763462
      vertex 0.5859375 0.7422330843319813 1.479324721042794
      vertex 0.5859375 1.1875000000000036 1.1816719229763466
    endloop
  endfacet
  facet normal 1.0 0.0 0.0
    outer loop
      vertex 0.5859375 1.8437500000000022 1.357513580509272
      vertex 0.5859375 2.021452427629828 0.7082080690521095
      vertex 0.5859375 2.500000000000002 1.1816719229763488
    endloop
  endfacet
  facet normal 1.0 -0.0 0.0
    outer loop
      vertex 0.5859375 1.1875000000000036 1.1816719229763466
      vertex 0.5859375 1.4943476625953371 0.7509611486751883
      vertex 0.5859375 1.8437500000000022 1.357513580509272
    endloop
  endfacet
  facet normal 1.0 0.0 0.0
    outer loop
      vertex 0.5859375 1.8437500000000022 1.357513580509272
      vertex 0.5859375 1.4943476625953371 0.7509611486751883
      vertex 0.5859375 2.021452427629828 0.7082080690521095
    endloop
  endfacet
  facet normal 1.0 -0.0 0.0
    outer loop
      vertex 0.5859375 2.500000000000002 1.1816719229763488
      vertex 0.5859375 2.977034287112917 0.7138557265185528
      vertex 0.5859375 3.1562500000000018 1.3575135805092742
    endloop
  endfacet
  facet normal 1.0 -0.0 0.0
    outer loop
      vertex 0.5859375 2.021452427629828 0.7082080690521095
      vertex 0.5859375 2.517902552290923 0.5044619294159056
      vertex 0.5859375 2.500000000000002 1.1816719229763488
    endloop
  endfacet
  facet normal 1.0 0.0 0.0
    outer loop
      vertex 0.5859375 2.500000000000002 1.1816719229763488
      vertex 0.5859375 2.517902552290923 0.5044619294159056
      vertex 0.5859375 2.977034287112917 0.7138557265185528
    endloop
  endfacet
  facet normal 1.0 -0.0 0.0
    outer loop
      vertex 0.5859375 3.1562500000000018 1.3575135805092742
      vertex 0.5859375 3.7423625168289916 1.2273825004131638
      vertex 0.5859375 3.636658342467076 1.8379219229763493
    endloop
  endfacet
  facet normal 1.0 0.0 0.0
    outer loop
      vertex 0.5859375 2.977034287112917 0.7138557265185528
      vertex 0.5859375 3.5082494226290244 0.791622789073513
      vertex 0.5859375 3.1562500000000018 1.3575135805092742
    endloop
  endfacet
  facet normal 1.0 0.0 0.0
    outer loop
      vertex 0.5859375 3.1562500000000018 1.3575135805092742
      vertex 0.5859375 3.5082494226290244 0.791622789073513
      vertex 0.5859375 3.7423625168289916 1.2273825004131638
    endloop
  endfacet
  facet normal 1.0 0.0 -0.0
    outer loop
      vertex 0.5859375 3.7423625168289916 1.2273825004131638
      vertex 0.5859375 4.217711230651108 1.502632751232187
      vertex 0.5859375 3.636658342467076 1.8379219229763493
    endloop
  endfacet
  facet normal 1.0 -0.0 0.0
    outer loop
      vertex 0.5859375 3.636658342467076 1.8379219229763493
      vertex 0.5859375 4.217711230651108 1.502632751232187
      vertex 0.5859375 4.2111253842928855 2.029715703049004
    endloop
  endfacet
  facet normal 1.0 0.0 0.0
    outer loop
      vertex 0.5859375 4.636048511366222 3.793131798064932
      vertex 0.5859375 4.2177112306511075 3.4857110947205117
      vertex 0.5859375 4.907293218369499 3.168663850868909
    endloop
  endfacet
  facet normal 1.0 0.0 0.0
    outer loop
      vertex 0.5859375 4.907293218369499 3.168663850868909
      vertex 0.5859375 4.2177112306511075 3.4857110947205117
      vertex 0.5859375 4.2111253842928855 2.9586281429036942
    endloop
  endfacet
  facet normal 1.0 -0.0 0.0
    outer loop
      vertex 0.5859375 4.2111253842928855 2.9586281429036942
      vertex 0.5859375 4.481464129976746 2.4941719229763497
      vertex 0.5859375 4.907293218369499 3.168663850868909
    endloop
  endfacet
  facet normal 1.0 0.0 0.0
    outer loop
      vertex 0.5859375 4.206382858046637 4.321261833671658
      vertex 0.5859375 4.2177112306511075 3.4857110947205117
      vertex 0.5859375 4.636048511366222 3.793131798064932
    endloop
  endfacet
  facet normal 1.0 0.0 0.0
    outer loop
      vertex 0.5859375 3.650162594327882 4.713884968982286
      vertex 0.5859375 3.50824942262902 4.196721056879183
      vertex 0.5859375 4.206382858046637 4.321261833671658
    endloop
  endfacet
  facet normal 1.0 0.0 0.0
    outer loop
      vertex 0.5859375 4.206382858046637 4.321261833671658
      vertex 0.5859375 3.50824942262902 4.196721056879183
      vertex 0.5859375 3.742362516828991 3.760961345539533
    endloop
  endfacet
  facet normal 1.0 -0.0 0.0
    outer loop
      vertex 0.5859375 3.742362516828991 3.760961345539533
      vertex 0.5859375 4.2177112306511075 3.4857110947205117
      vertex 0.5859375 4.206382858046637 4.321261833671658
    endloop
  endfacet
  facet normal 1.0 0.0 0.0
    outer loop
      vertex 0.5859375 3.008640032631587 4.9418821421821555
      vertex 0.5859375 2.97703428711291 4.274488119434144
      vertex 0.5859375 3.650162594327882 4.713884968982286
    endloop
  endfacet
  facet normal 1.0 -0.0 0.0
    outer loop
      vertex 0.5859375 2.97703428711291 4.274488119434144
      vertex 0.5859375 3.50824942262902 4.196721056879183
      vertex 0.5859375 3.650162594327882 4.713884968982286
    endloop
  endfacet
  facet normal 1.0 0.0 0.0
    outer loop
      vertex 0.5859375 2.3293939665883254 4.988343845952698
      vertex 0.5859375 2.5179025522909164 4.483881916536786
      vertex 0.5859375 3.008640032631587 4.9418821421821555
    endloop
  endfacet
  facet normal 1.0 0.0 0.0
    outer loop
      vertex 0.5859375 3.008640032631587 4.9418821421821555
      vertex 0.5859375 2.5179025522909164 4.483881916536786
      vertex 0.5859375 2.97703428711291 4.274488119434144
    endloop
  endfacet
  facet normal 1.0 -0.0 0.0
    outer loop
      vertex 0.5859375 1.6628009695725376 4.849824228273402
      vertex 0.5859375 2.021452427629819 4.280135776900581
      vertex 0.5859375 2.3293939665883254 4.988343845952698
    endloop
  endfacet
  facet normal 1.0 0.0 0.0
    outer loop
      vertex 0.5859375 2.021452427629819 4.280135776900581
      vertex 0.5859375 2.5179025522909164 4.483881916536786
      vertex 0.5859375 2.3293939665883254 4.988343845952698
    endloop
  endfacet
  facet normal 1.0 -0.0 0.0
    outer loop
      vertex 0.5859375 1.058299194712835 4.536596655502456
      vertex 0.5859375 1.4943476625953318 4.237382697277496
      vertex 0.5859375 1.6628009695725376 4.849824228273402
    endloop
  endfacet
  facet normal 1.0 0.0 0.0
    outer loop
      vertex 0.5859375 1.6628009695725376 4.849824228273402
      vertex 0.5859375 1.4943476625953318 4.237382697277496
      vertex 0.5859375 2.021452427629819 4.280135776900581
    endloop
  endfacet
  facet normal 1.0 -0.0 0.0
    outer loop
      vertex 0.5859375 0.5607217732389536 4.071891783791485
      vertex 0.5859375 1.1874999999999947 3.8066719229763435
      vertex 0.5859375 1.058299194712835 4.536596655502456
    endloop
  endfacet
  facet normal 1.0 0.0 -0.0
    outer loop
      vertex 0.5859375 1.1874999999999947 3.8066719229763435
      vertex 0.5859375 1.4943476625953318 4.237382697277496
      vertex 0.5859375 1.058299194712835 4.536596655502456
    endloop
  endfacet
  facet normal 1.0 0.0 0.0
    outer loop
      vertex 0.5859375 0.20697174623637044 3.4901746475919593
      vertex 0.5859375 0.7422330843319844 3.5090191249098868
      vertex 0.5859375 0.5607217732389536 4.071891783791485
    endloop
  endfacet
  facet normal 1.0 0.0 0.0
    outer loop
      vertex 0.5859375 0.5607217732389536 4.071891783791485
      vertex 0.5859375 0.7422330843319844 3.5090191249098868
      vertex 0.5859375 1.1874999999999947 3.8066719229763435
    endloop
  endfacet
  facet normal 1.0 0.0 0.0
    outer loop
      vertex 0.5859375 0.0232851349091745 2.8345885457169744
      vertex 0.5859375 0.7070916575329231 2.9745802654434184
      vertex 0.5859375 0.20697174623637044 3.4901746475919593
    endloop
  endfacet
  facet normal 1.0 0.0 -0.0
    outer loop
      vertex 0.5859375 0.7070916575329231 2.9745802654434184
      vertex 0.5859375 0.7422330843319844 3.5090191249098868
      vertex 0.5859375 0.20697174623637044 3.4901746475919593
    endloop
  endfacet
  facet normal 1.0 0.0 0.0
    outer loop
      vertex 0.5859375 0.023285134909172 2.153755300235742
      vertex 0.5859375 0.44920974924422763 2.494171922976342
      vertex 0.5859375 0.0232851349091745 2.8345885457169744
    endloop
  endfacet
  facet normal 1.0 -0.0 0.0
    outer loop
      vertex 0.5859375 0.0232851349091745 2.8345885457169744
      vertex 0.5859375 0.44920974924422763 2.494171922976342
      vertex 0.5859375 0.7070916575329231 2.9745802654434184
    endloop
  endfacet
  facet normal 1.0 0.0 -0.0
    outer loop
      vertex 0.5859375 0.20697174623636294 1.4981691983607561
      vertex 0.5859375 0.7070916575329267 2.013763580509268
      vertex 0.5859375 0.023285134909172 2.153755300235742
    endloop
  endfacet
  facet normal 1.0 0.0 0.0
    outer loop
      vertex 0.5859375 0.7070916575329267 2.013763580509268
      vertex 0.5859375 0.44920974924422763 2.494171922976342
      vertex 0.5859375 0.023285134909172 2.153755300235742
    endloop
  endfacet
  facet normal 1.0 0.0 -0.0
    outer loop
      vertex 0.5859375 0.5607217732389422 0.9164520621612273
      vertex 0.5859375 0.7422330843319813 1.479324721042794
      vertex 0.5859375 0.20697174623636294 1.4981691983607561
    endloop
  endfacet
  facet normal 1.0 -0.0 0.0
    outer loop
      vertex 0.5859375 0.20697174623636294 1.4981691983607561
      vertex 0.5859375 0.7422330843319813 1.479324721042794
      vertex 0.5859375 0.7070916575329267 2.013763580509268
    endloop
  endfacet
  facet normal 1.0 0.0 -0.0
    outer loop
      vertex 0.5859375 1.0582991947128209 0.4517471904502518
      vertex 0.5859375 1.1875000000000036 1.1816719229763466
      vertex 0.5859375 0.5607217732389422 0.9164520621612273
    endloop
  endfacet
  facet normal 1.0 0.0 0.0
    outer loop
      vertex 0.5859375 1.1875000000000036 1.1816719229763466
      vertex 0.5859375 0.7422330843319813 1.479324721042794
      vertex 0.5859375 0.5607217732389422 0.9164520621612273
    endloop
  endfacet
  facet normal 1.0 0.0 0.0
    outer loop
      vertex 0.5859375 1.6628009695725172 0.13851961767930354
      vertex 0.5859375 1.4943476625953371 0.7509611486751883
      vertex 0.5859375 1.0582991947128209 0.4517471904502518
    endloop
  endfacet
  facet normal 1.0 0.0 0.0
    outer loop
      vertex 0.5859375 1.0582991947128209 0.4517471904502518
      vertex 0.5859375 1.4943476625953371 0.7509611486751883
      vertex 0.5859375 1.1875000000000036 1.1816719229763466
    endloop
  endfacet
  facet normal 1.0 0.0 0.0
    outer loop
      vertex 0.5859375 2.329393966588304 2.220446049250313e-15
      vertex 0.5859375 2.021452427629828 0.7082080690521095
      vertex 0.5859375 1.6628009695725172 0.13851961767930354
    endloop
  endfacet
  facet normal 1.0 0.0 0.0
    outer loop
      vertex 0.5859375 2.021452427629828 0.7082080690521095
      vertex 0.5859375 1.4943476625953371 0.7509611486751883
      vertex 0.5859375 1.6628009695725172 0.13851961767930354
    endloop
  endfacet
  facet normal 1.0 0.0 0.0
    outer loop
      vertex 0.5859375 3.0086400326315705 0.04646170377053893
      vertex 0.5859375 2.517902552290923 0.5044619294159056
      vertex 0.5859375 2.329393966588304 2.220446049250313e-15
    endloop
  endfacet
  facet normal 1.0 0.0 -0.0
    outer loop
      vertex 0.5859375 2.329393966588304 2.220446049250313e-15
      vertex 0.5859375 2.517902552290923 0.5044619294159056
      vertex 0.5859375 2.021452427629828 0.7082080690521095
    endloop
  endfacet
  facet normal 1.0 0.0 0.0
    outer loop
      vertex 0.5859375 3.650162594327867 0.274458876970404
      vertex 0.5859375 2.977034287112917 0.7138557265185528
      vertex 0.5859375 3.0086400326315705 0.04646170377053893
    endloop
  endfacet
  facet normal 1.0 0.0 0.0
    outer loop
      vertex 0.5859375 2.977034287112917 0.7138557265185528
      vertex 0.5859375 2.517902552290923 0.5044619294159056
      vertex 0.5859375 3.0086400326315705 0.04646170377053893
    endloop
  endfacet
  facet normal 1.0 0.0 0.0
    outer loop
      vertex 0.5859375 4.206382858046627 0.6670820122810315
      vertex 0.5859375 3.5082494226290244 0.791622789073513
      vertex 0.5859375 3.650162594327867 0.274458876970404
    endloop
  endfacet
  facet normal 1.0 0.0 0.0
    outer loop
      vertex 0.5859375 3.650162594327867 0.274458876970404
      vertex 0.5859375 3.5082494226290244 0.791622789073513
      vertex 0.5859375 2.977034287112917 0.7138557265185528
    endloop
  endfacet
  facet normal 1.0 0.0 0.0
    outer loop
      vertex 0.5859375 4.6360485113662175 1.1952120478877593
      vertex 0.5859375 4.217711230651108 1.502632751232187
      vertex 0.5859375 4.206382858046627 0.6670820122810315
    endloop
  endfacet
  facet normal 1.0 0.0 0.0
    outer loop
      vertex 0.5859375 3.7423625168289916 1.2273825004131638
      vertex 0.5859375 3.5082494226290244 0.791622789073513
      vertex 0.5859375 4.206382858046627 0.6670820122810315
    endloop
  endfacet
  facet normal 1.0 0.0 -0.0
    outer loop
      vertex 0.5859375 4.206382858046627 0.6670820122810315
      vertex 0.5859375 4.217711230651108 1.502632751232187
      vertex 0.5859375 3.7423625168289916 1.2273825004131638
    endloop
  endfacet
  facet normal 1.0 0.0 0.0
    outer loop
      vertex 0.5859375 4.907293218369498 1.8196799950837839
      vertex 0.5859375 4.217711230651108 1.502632751232187
      vertex 0.5859375 4.6360485113662175 1.1952120478877593
    endloop
  endfacet
  facet normal 1.0 0.0 0.0
    outer loop
      vertex 0.5859375 4.2111253842928855 2.029715703049004
      vertex 0.5859375 4.217711230651108 1.502632751232187
      vertex 0.5859375 4.907293218369498 1.8196799950837839
    endloop
  endfacet
  facet normal 1.0 0.0 0.0
    outer loop
      vertex 0.5859375 4.907293218369498 1.8196799950837839
      vertex 0.5859375 4.481464129976746 2.4941719229763497
      vertex 0.5859375 4.2111253842928855 2.029715703049004
    endloop
  endfacet
  facet normal 0.15088385093816042 -0.9548674222066494 -0.2558559546590605
    outer loop
      vertex 0.0 3.636658342467075 3.1504219229763497
      vertex 0.0 3.8125 2.494171922976349
      vertex 0.29296875 3.7667303877847633 2.8377565190551923
    endloop
  endfacet
  facet normal 0.14608557236603126 -0.9555633328022181 0.25604242334114596
    outer loop
      vertex 0.0 3.8125 2.494171922976349
      vertex 0.0 3.636658342467076 1.8379219229763493
      vertex 0.29296875 3.75035088436597 2.095074295865843
    endloop
  endfacet
  facet normal 0.0 -0.9912436417205097 -0.13204560859287123
    outer loop
      vertex 0.0 3.8125 2.494171922976349
      vertex 0.29296875 3.8125 2.494171922976349
      vertex 0.29296875 3.7667303877847633 2.8377565190551923
    endloop
  endfacet
  facet normal 0.0 -0.9880911630133786 0.15386959925491683
    outer loop
      vertex 0.29296875 3.8125 2.494171922976349
      vertex 0.0 3.8125 2.494171922976349
      vertex 0.29296875 3.75035088436597 2.095074295865843
    endloop
  endfacet
  facet normal -0.15088385093816042 -0.9548674222066494 -0.2558559546590605
    outer loop
      vertex 0.5859375 3.8125 2.494171922976349
      vertex 0.5859375 3.636658342467075 3.1504219229763497
      vertex 0.29296875 3.7667303877847633 2.8377565190551923
    endloop
  endfacet
  facet normal -0.1460855723660312 -0.9555633328022181 0.25604242334114596
    outer loop
      vertex 0.5859375 3.636658342467076 1.8379219229763493
      vertex 0.5859375 3.8125 2.494171922976349
      vertex 0.29296875 3.75035088436597 2.095074295865843
    endloop
  endfacet
  facet normal 0.0 -0.9912436417205097 -0.13204560859287123
    outer loop
      vertex 0.29296875 3.8125 2.494171922976349
      vertex 0.5859375 3.8125 2.494171922976349
      vertex 0.29296875 3.7667303877847633 2.8377565190551923
    endloop
  endfacet
  facet normal 0.0 -0.9880911630133786 0.15386959925491683
    outer loop
      vertex 0.5859375 3.8125 2.494171922976349
      vertex 0.29296875 3.8125 2.494171922976349
      vertex 0.29296875 3.75035088436597 2.095074295865843
    endloop
  endfacet
  facet normal 0.15003335576760776 -0.6991029938990068 -0.6991029938990073
    outer loop
      vertex 0.0 3.1562499999999982 3.630830265443426
      vertex 0.0 3.636658342467075 3.1504219229763497
      vertex 0.294708717070148 3.4280776503073414 3.422249573283695
    endloop
  endfacet
  facet normal 0.0 -0.793353340291235 -0.6087614290087209
    outer loop
      vertex 0.0 3.636658342467075 3.1504219229763497
      vertex 0.5859375 3.636658342467075 3.1504219229763497
      vertex 0.294708717070148 3.4280776503073414 3.422249573283695
    endloop
  endfacet
  facet normal -0.0 -0.9232919153566808 -0.38409899640195855
    outer loop
      vertex 0.5859375 3.636658342467075 3.1504219229763497
      vertex 0.0 3.636658342467075 3.1504219229763497
      vertex 0.29296875 3.7667303877847633 2.8377565190551923
    endloop
  endfacet
  facet normal 0.15178506087517565 -0.25582024456187324 -0.9547341503096151
    outer loop
      vertex 0.0 2.499999999999996 3.8066719229763493
      vertex 0.0 3.1562499999999982 3.630830265443426
      vertex 0.29122878292985216 2.839699996697057 3.7619495699807515
    endloop
  endfacet
  facet normal 0.0 -0.38268343236508784 -0.9238795325112875
    outer loop
      vertex 0.0 3.1562499999999982 3.630830265443426
      vertex 0.5859375 3.1562499999999982 3.630830265443426
      vertex 0.29122878292985216 2.839699996697057 3.7619495699807515
    endloop
  endfacet
  facet normal -0.0 -0.608761429008719 -0.7933533402912364
    outer loop
      vertex 0.5859375 3.1562499999999982 3.630830265443426
      vertex 0.0 3.1562499999999982 3.630830265443426
      vertex 0.294708717070148 3.4280776503073414 3.422249573283695
    endloop
  endfacet
  facet normal 0.15090417710532164 0.25585515164136263 -0.954864425303792
    outer loop
      vertex 0.0 1.8437499999999951 3.6308302654434224
      vertex 0.0 2.499999999999996 3.8066719229763493
      vertex 0.29296875 2.1603728146221735 3.7619690774739976
    endloop
  endfacet
  facet normal -0.0 -0.13052619222005046 -0.9914448613738106
    outer loop
      vertex 0.5859375 2.499999999999996 3.8066719229763493
      vertex 0.0 2.499999999999996 3.8066719229763493
      vertex 0.29122878292985216 2.839699996697057 3.7619495699807515
    endloop
  endfacet
  facet normal 0.0 0.1304977219321009 -0.9914486091424668
    outer loop
      vertex 0.0 2.499999999999996 3.8066719229763493
      vertex 0.5859375 2.499999999999996 3.8066719229763493
      vertex 0.29296875 2.1603728146221735 3.7619690774739976
    endloop
  endfacet
  facet normal 0.1500333557676052 0.699102993899011 -0.699102993899004
    outer loop
      vertex 0.0 1.3633416575329216 3.150421922976344
      vertex 0.0 1.8437499999999951 3.6308302654434224
      vertex 0.2947087170701479 1.571922349692654 3.4222495732836897
    endloop
  endfacet
  facet normal 0.0 0.38265690217257825 -0.9238905212305654
    outer loop
      vertex 0.5859375 1.8437499999999951 3.6308302654434224
      vertex 0.0 1.8437499999999951 3.6308302654434224
      vertex 0.29296875 2.1603728146221735 3.7619690774739976
    endloop
  endfacet
  facet normal 0.0 0.6087614290087252 -0.7933533402912317
    outer loop
      vertex 0.0 1.8437499999999951 3.6308302654434224
      vertex 0.5859375 1.8437499999999951 3.6308302654434224
      vertex 0.2947087170701479 1.571922349692654 3.4222495732836897
    endloop
  endfacet
  facet normal 0.1517850608751761 0.9547341503096154 -0.2558202445618718
    outer loop
      vertex 0.0 1.1875 2.4941719229763444
      vertex 0.0 1.3633416575329216 3.150421922976344
      vertex 0.29122878292985205 1.232222352995597 2.8338719196734043
    endloop
  endfacet
  facet normal 0.0 0.793353340291237 -0.6087614290087181
    outer loop
      vertex 0.5859375 1.3633416575329216 3.150421922976344
      vertex 0.0 1.3633416575329216 3.150421922976344
      vertex 0.2947087170701479 1.571922349692654 3.4222495732836897
    endloop
  endfacet
  facet normal 0.0 0.9238795325112877 -0.38268343236508745
    outer loop
      vertex 0.0 1.3633416575329216 3.150421922976344
      vertex 0.5859375 1.3633416575329216 3.150421922976344
      vertex 0.29122878292985205 1.232222352995597 2.8338719196734043
    endloop
  endfacet
  facet normal 0.15090417710532159 0.9548644253037922 0.2558551516413618
    outer loop
      vertex 0.0 1.3633416575329256 1.8379219229763462
      vertex 0.0 1.1875 2.4941719229763444
      vertex 0.29296875 1.2322028455023508 2.154544737598524
    endloop
  endfacet
  facet normal 0.0 0.9914448613738108 -0.13052619222004824
    outer loop
      vertex 0.5859375 1.1875 2.4941719229763444
      vertex 0.0 1.1875 2.4941719229763444
      vertex 0.29122878292985205 1.232222352995597 2.8338719196734043
    endloop
  endfacet
  facet normal -0.0 0.991448609142467 0.13049772193209921
    outer loop
      vertex 0.0 1.1875 2.4941719229763444
      vertex 0.5859375 1.1875 2.4941719229763444
      vertex 0.29296875 1.2322028455023508 2.154544737598524
    endloop
  endfacet
  facet normal 0.1517850608751757 0.6989139057477375 0.6989139057477409
    outer loop
      vertex 0.0 1.8437500000000022 1.357513580509272
      vertex 0.0 1.3633416575329256 1.8379219229763462
      vertex 0.2912287829298521 1.5719223496926584 1.566094272669003
    endloop
  endfacet
  facet normal -0.0 0.7933533402912336 0.6087614290087228
    outer loop
      vertex 0.0 1.3633416575329256 1.8379219229763462
      vertex 0.5859375 1.3633416575329256 1.8379219229763462
      vertex 0.2912287829298521 1.5719223496926584 1.566094272669003
    endloop
  endfacet
  facet normal 0.0 0.9238905212305657 0.3826569021725776
    outer loop
      vertex 0.5859375 1.3633416575329256 1.8379219229763462
      vertex 0.0 1.3633416575329256 1.8379219229763462
      vertex 0.29296875 1.2322028455023508 2.154544737598524
    endloop
  endfacet
  facet normal 0.15178506087517585 0.25582024456187374 0.9547341503096148
    outer loop
      vertex 0.0 2.500000000000002 1.1816719229763488
      vertex 0.0 1.8437500000000022 1.357513580509272
      vertex 0.291228782929852 2.1603000033029436 1.2263942759719462
    endloop
  endfacet
  facet normal 0.0 0.6087614290087185 0.7933533402912367
    outer loop
      vertex 0.5859375 1.8437500000000022 1.357513580509272
      vertex 0.0 1.8437500000000022 1.357513580509272
      vertex 0.2912287829298521 1.5719223496926584 1.566094272669003
    endloop
  endfacet
  facet normal -0.0 0.3826834323650884 0.9238795325112874
    outer loop
      vertex 0.0 1.8437500000000022 1.357513580509272
      vertex 0.5859375 1.8437500000000022 1.357513580509272
      vertex 0.291228782929852 2.1603000033029436 1.2263942759719462
    endloop
  endfacet
  facet normal 0.15003335576760626 -0.2558894556287957 0.9549924495278009
    outer loop
      vertex 0.0 3.1562500000000018 1.3575135805092742
      vertex 0.0 2.500000000000002 1.1816719229763488
      vertex 0.2947087170701479 2.8396999966970577 1.2263942759719466
    endloop
  endfacet
  facet normal 0.0 -0.1305261922200525 0.9914448613738103
    outer loop
      vertex 0.0 2.500000000000002 1.1816719229763488
      vertex 0.5859375 2.500000000000002 1.1816719229763488
      vertex 0.2947087170701479 2.8396999966970577 1.2263942759719466
    endloop
  endfacet
  facet normal 0.0 0.13052619222005002 0.9914448613738107
    outer loop
      vertex 0.5859375 2.500000000000002 1.1816719229763488
      vertex 0.0 2.500000000000002 1.1816719229763488
      vertex 0.291228782929852 2.1603000033029436 1.2263942759719462
    endloop
  endfacet
  facet normal 0.15090417710532172 -0.6990092736624339 0.6990092736624329
    outer loop
      vertex 0.0 3.636658342467076 1.8379219229763493
      vertex 0.0 3.1562500000000018 1.3575135805092742
      vertex 0.29296875 3.4280243476018257 1.5660409730246703
    endloop
  endfacet
  facet normal 0.0 -0.38268343236509006 0.9238795325112867
    outer loop
      vertex 0.5859375 3.1562500000000018 1.3575135805092742
      vertex 0.0 3.1562500000000018 1.3575135805092742
      vertex 0.2947087170701479 2.8396999966970577 1.2263942759719466
    endloop
  endfacet
  facet normal 0.0 -0.6087386469004276 0.7933708210980768
    outer loop
      vertex 0.0 3.1562500000000018 1.3575135805092742
      vertex 0.5859375 3.1562500000000018 1.3575135805092742
      vertex 0.29296875 3.4280243476018257 1.5660409730246703
    endloop
  endfacet
  facet normal 0.0 -0.7933358588301906 0.6087842106150289
    outer loop
      vertex 0.5859375 3.636658342467076 1.8379219229763493
      vertex 0.0 3.636658342467076 1.8379219229763493
      vertex 0.29296875 3.4280243476018257 1.5660409730246703
    endloop
  endfacet
  facet normal 0.0 -0.91459839033316 0.4043634310864332
    outer loop
      vertex 0.0 3.636658342467076 1.8379219229763493
      vertex 0.5859375 3.636658342467076 1.8379219229763493
      vertex 0.29296875 3.75035088436597 2.095074295865843
    endloop
  endfacet
  facet normal -0.15178506087517707 -0.6989139057477387 -0.6989139057477393
    outer loop
      vertex 0.5859375 3.636658342467075 3.1504219229763497
      vertex 0.5859375 3.1562499999999982 3.630830265443426
      vertex 0.294708717070148 3.4280776503073414 3.422249573283695
    endloop
  endfacet
  facet normal -0.15003335576760654 -0.25588945562879206 -0.9549924495278019
    outer loop
      vertex 0.5859375 3.1562499999999982 3.630830265443426
      vertex 0.5859375 2.499999999999996 3.8066719229763493
      vertex 0.29122878292985216 2.839699996697057 3.7619495699807515
    endloop
  endfacet
  facet normal -0.1509041771053217 0.25585515164136263 -0.954864425303792
    outer loop
      vertex 0.5859375 2.499999999999996 3.8066719229763493
      vertex 0.5859375 1.8437499999999951 3.6308302654434224
      vertex 0.29296875 2.1603728146221735 3.7619690774739976
    endloop
  endfacet
  facet normal -0.15178506087517435 0.6989139057477428 -0.6989139057477357
    outer loop
      vertex 0.5859375 1.8437499999999951 3.6308302654434224
      vertex 0.5859375 1.3633416575329216 3.150421922976344
      vertex 0.2947087170701479 1.571922349692654 3.4222495732836897
    endloop
  endfacet
  facet normal -0.1500333557676069 0.9549924495278023 -0.2558894556287906
    outer loop
      vertex 0.5859375 1.3633416575329216 3.150421922976344
      vertex 0.5859375 1.1875 2.4941719229763444
      vertex 0.29122878292985205 1.232222352995597 2.8338719196734043
    endloop
  endfacet
  facet normal -0.1509041771053216 0.9548644253037922 0.2558551516413618
    outer loop
      vertex 0.5859375 1.1875 2.4941719229763444
      vertex 0.5859375 1.3633416575329256 1.8379219229763462
      vertex 0.29296875 1.2322028455023508 2.154544737598524
    endloop
  endfacet
  facet normal -0.1500333557676066 0.6991029938990055 0.6991029938990091
    outer loop
      vertex 0.5859375 1.3633416575329256 1.8379219229763462
      vertex 0.5859375 1.8437500000000022 1.357513580509272
      vertex 0.2912287829298521 1.5719223496926584 1.566094272669003
    endloop
  endfacet
  facet normal -0.15003335576760662 0.25588945562879256 0.9549924495278018
    outer loop
      vertex 0.5859375 1.8437500000000022 1.357513580509272
      vertex 0.5859375 2.500000000000002 1.1816719229763488
      vertex 0.291228782929852 2.1603000033029436 1.2263942759719462
    endloop
  endfacet
  facet normal -0.15178506087517546 -0.25582024456187696 0.9547341503096142
    outer loop
      vertex 0.5859375 2.500000000000002 1.1816719229763488
      vertex 0.5859375 3.1562500000000018 1.3575135805092742
      vertex 0.2947087170701479 2.8396999966970577 1.2263942759719466
    endloop
  endfacet
  facet normal -0.15090417710532172 -0.6990092736624339 0.6990092736624329
    outer loop
      vertex 0.5859375 3.1562500000000018 1.3575135805092742
      vertex 0.5859375 3.636658342467076 1.8379219229763493
      vertex 0.29296875 3.4280243476018257 1.5660409730246703
    endloop
  endfacet
  facet normal -0.07918733914268639 0.9875749465561602 0.13573905205981915
    outer loop
      vertex 0.0 4.907293218369499 3.168663850868909
      vertex 0.29296875 4.977784750107602 2.8267117433501037
      vertex 0.0 5.0 2.494171922976349
    endloop
  endfacet
  facet normal -0.07657141145389346 0.9877773908887308 -0.13576687739286775
    outer loop
      vertex 0.0 5.0 2.494171922976349
      vertex 0.29296875 4.967400293448039 2.091759458094193
      vertex 0.0 4.907293218369498 1.8196799950837839
    endloop
  endfacet
  facet normal -1.2239699804484185e-16 0.996734698247035 -0.08074615353310796
    outer loop
      vertex 0.29296875 5.0 2.4941719229763484
      vertex 0.29296875 4.967400293448039 2.091759458094193
      vertex 0.0 5.0 2.494171922976349
    endloop
  endfacet
  facet normal 1.0103911237737173e-16 0.9977760019270459 0.06665620735145171
    outer loop
      vertex 0.0 5.0 2.494171922976349
      vertex 0.29296875 4.977784750107602 2.8267117433501037
      vertex 0.29296875 5.0 2.4941719229763484
    endloop
  endfacet
  facet normal 0.07918733914268639 0.9875749465561602 0.13573905205981915
    outer loop
      vertex 0.5859375 5.0 2.494171922976349
      vertex 0.29296875 4.977784750107602 2.8267117433501037
      vertex 0.5859375 4.907293218369499 3.168663850868909
    endloop
  endfacet
  facet normal 0.07657141145389346 0.9877773908887308 -0.13576687739286775
    outer loop
      vertex 0.5859375 4.907293218369498 1.8196799950837839
      vertex 0.29296875 4.967400293448039 2.091759458094193
      vertex 0.5859375 5.0 2.494171922976349
    endloop
  endfacet
  facet normal 1.2239699804484182e-16 0.996734698247035 -0.08074615353310796
    outer loop
      vertex 0.5859375 5.0 2.494171922976349
      vertex 0.29296875 4.967400293448039 2.091759458094193
      vertex 0.29296875 5.0 2.4941719229763484
    endloop
  endfacet
  facet normal -1.0103911237737172e-16 0.9977760019270459 0.0666562073514517
    outer loop
      vertex 0.29296875 5.0 2.4941719229763484
      vertex 0.29296875 4.977784750107602 2.8267117433501037
      vertex 0.5859375 5.0 2.494171922976349
    endloop
  endfacet
  facet normal -0.07936860495688242 0.9143178083276703 0.3971442683988831
    outer loop
      vertex 0.0 4.636048511366222 3.793131798064932
      vertex 0.2924541530300446 4.793028253763634 3.490174647591951
      vertex 0.0 4.907293218369499 3.168663850868909
    endloop
  endfacet
  facet normal -0.0 0.9422609221188208 0.33487961217098516
    outer loop
      vertex 0.0 4.907293218369499 3.168663850868909
      vertex 0.2924541530300446 4.793028253763634 3.490174647591951
      vertex 0.5859375 4.907293218369499 3.168663850868909
    endloop
  endfacet
  facet normal 0.0 0.9794063100049321 0.20189918257022052
    outer loop
      vertex 0.5859375 4.907293218369499 3.168663850868909
      vertex 0.29296875 4.977784750107602 2.8267117433501037
      vertex 0.0 4.907293218369499 3.168663850868909
    endloop
  endfacet
  facet normal -0.07923007002851847 0.7732727311454921 0.6291040289730051
    outer loop
      vertex 0.0 4.206382858046637 4.321261833671658
      vertex 0.29296875 4.439296840577176 4.071868904062192
      vertex 0.0 4.636048511366222 3.793131798064932
    endloop
  endfacet
  facet normal 0.0 0.8878852184023751 0.46006503773115226
    outer loop
      vertex 0.5859375 4.636048511366222 3.793131798064932
      vertex 0.2924541530300446 4.793028253763634 3.490174647591951
      vertex 0.0 4.636048511366222 3.793131798064932
    endloop
  endfacet
  facet normal -0.0 0.8169732948356729 0.5766755027962821
    outer loop
      vertex 0.0 4.636048511366222 3.793131798064932
      vertex 0.29296875 4.439296840577176 4.071868904062192
      vertex 0.5859375 4.636048511366222 3.793131798064932
    endloop
  endfacet
  facet normal -0.07936860495688196 0.5748610896489542 0.8143926277630559
    outer loop
      vertex 0.0 3.650162594327882 4.713884968982286
      vertex 0.29245415303004474 3.941700805287166 4.536596655502455
      vertex 0.0 4.206382858046637 4.321261833671658
    endloop
  endfacet
  facet normal -0.0 0.6310879443260523 0.7757112907044202
    outer loop
      vertex 0.0 4.206382858046637 4.321261833671658
      vertex 0.29245415303004474 3.941700805287166 4.536596655502455
      vertex 0.5859375 4.206382858046637 4.321261833671658
    endloop
  endfacet
  facet normal 0.0 0.7308399906490344 0.6825488320026044
    outer loop
      vertex 0.5859375 4.206382858046637 4.321261833671658
      vertex 0.29296875 4.439296840577176 4.071868904062192
      vertex 0.0 4.206382858046637 4.321261833671658
    endloop
  endfacet
  facet normal -0.0793686049568821 0.33382317962201546 0.9392884058127439
    outer loop
      vertex 0.0 3.008640032631587 4.9418821421821555
      vertex 0.2924541530300446 3.3371990304274677 4.849824228273399
      vertex 0.0 3.650162594327882 4.713884968982286
    endloop
  endfacet
  facet normal 0.0 0.5195839500354327 0.854419404546489
    outer loop
      vertex 0.5859375 3.650162594327882 4.713884968982286
      vertex 0.29245415303004474 3.941700805287166 4.536596655502455
      vertex 0.0 3.650162594327882 4.713884968982286
    endloop
  endfacet
  facet normal -0.0 0.39840108984624306 0.9172113015054523
    outer loop
      vertex 0.0 3.650162594327882 4.713884968982286
      vertex 0.2924541530300446 3.3371990304274677 4.849824228273399
      vertex 0.5859375 3.650162594327882 4.713884968982286
    endloop
  endfacet
  facet normal -0.07936860495688121 0.06802713150194187 0.9945214597618374
    outer loop
      vertex 0.0 2.3293939665883254 4.988343845952698
      vertex 0.2924541530300446 2.670606033411681 4.988343845952697
      vertex 0.0 3.008640032631587 4.9418821421821555
    endloop
  endfacet
  facet normal -0.0 0.13616664909624823 0.9906859460363304
    outer loop
      vertex 0.0 3.008640032631587 4.9418821421821555
      vertex 0.2924541530300446 2.670606033411681 4.988343845952697
      vertex 0.5859375 3.008640032631587 4.9418821421821555
    endloop
  endfacet
  facet normal 0.0 0.26979677115702533 0.962917287347799
    outer loop
      vertex 0.5859375 3.008640032631587 4.9418821421821555
      vertex 0.2924541530300446 3.3371990304274677 4.849824228273399
      vertex 0.0 3.008640032631587 4.9418821421821555
    endloop
  endfacet
  facet normal -0.07936860495688126 -0.20281417775821292 0.9759954066733402
    outer loop
      vertex 0.0 1.6628009695725376 4.849824228273402
      vertex 0.2924541530300443 1.991359967368419 4.941882142182157
      vertex 0.0 2.3293939665883254 4.988343845952698
    endloop
  endfacet
  facet normal 0.0 2.6030099930783897e-15 1.0
    outer loop
      vertex 0.5859375 2.3293939665883254 4.988343845952698
      vertex 0.2924541530300446 2.670606033411681 4.988343845952697
      vertex 0.0 2.3293939665883254 4.988343845952698
    endloop
  endfacet
  facet normal 0.0 -0.1361666490962456 0.9906859460363309
    outer loop
      vertex 0.0 2.3293939665883254 4.988343845952698
      vertex 0.2924541530300443 1.991359967368419 4.941882142182157
      vertex 0.5859375 2.3293939665883254 4.988343845952698
    endloop
  endfacet
  facet normal -0.07936860495688218 -0.4586136872671673 0.885084239153772
    outer loop
      vertex 0.0 1.058299194712835 4.536596655502456
      vertex 0.29245415303004463 1.349837405672123 4.713884968982289
      vertex 0.0 1.6628009695725376 4.849824228273402
    endloop
  endfacet
  facet normal 0.0 -0.39840108984624034 0.9172113015054534
    outer loop
      vertex 0.0 1.6628009695725376 4.849824228273402
      vertex 0.29245415303004463 1.349837405672123 4.713884968982289
      vertex 0.5859375 1.6628009695725376 4.849824228273402
    endloop
  endfacet
  facet normal 0.0 -0.2697967711570224 0.9629172873477998
    outer loop
      vertex 0.5859375 1.6628009695725376 4.849824228273402
      vertex 0.2924541530300443 1.991359967368419 4.941882142182157
      vertex 0.0 1.6628009695725376 4.849824228273402
    endloop
  endfacet
  facet normal -0.07936860495688049 -0.6803999176095311 0.7285304226071428
    outer loop
      vertex 0.0 0.5607217732389536 4.071891783791485
      vertex 0.2924541530300443 0.7936171419533711 4.321261833671665
      vertex 0.0 1.058299194712835 4.536596655502456
    endloop
  endfacet
  facet normal 0.0 -0.5195839500354332 0.8544194045464888
    outer loop
      vertex 0.5859375 1.058299194712835 4.536596655502456
      vertex 0.29245415303004463 1.349837405672123 4.713884968982289
      vertex 0.0 1.058299194712835 4.536596655502456
    endloop
  endfacet
  facet normal 0.0 -0.6310879443260515 0.7757112907044208
    outer loop
      vertex 0.0 1.058299194712835 4.536596655502456
      vertex 0.2924541530300443 0.7936171419533711 4.321261833671665
      vertex 0.5859375 1.058299194712835 4.536596655502456
    endloop
  endfacet
  facet normal -0.07936860495687895 -0.8517239986853052 0.5179448374206592
    outer loop
      vertex 0.0 0.20697174623637044 3.4901746475919593
      vertex 0.29245415303004674 0.36395148863378357 3.79313179806494
      vertex 0.0 0.5607217732389536 4.071891783791485
    endloop
  endfacet
  facet normal 0.0 -0.7308359642781216 0.6825531432186568
    outer loop
      vertex 0.5859375 0.5607217732389536 4.071891783791485
      vertex 0.2924541530300443 0.7936171419533711 4.321261833671665
      vertex 0.0 0.5607217732389536 4.071891783791485
    endloop
  endfacet
  facet normal 0.0 -0.8169698930104414 0.5766803221148679
    outer loop
      vertex 0.0 0.5607217732389536 4.071891783791485
      vertex 0.29245415303004674 0.36395148863378357 3.79313179806494
      vertex 0.5859375 0.5607217732389536 4.071891783791485
    endloop
  endfacet
  facet normal -0.0793686049568813 -0.9598796071566179 0.26894565308265406
    outer loop
      vertex 0.0 0.0232851349091745 2.8345885457169744
      vertex 0.2924541530300443 0.09270678163050439 3.1686638508689184
      vertex 0.0 0.20697174623637044 3.4901746475919593
    endloop
  endfacet
  facet normal 0.0 -0.9422609221188195 0.33487961217098905
    outer loop
      vertex 0.0 0.20697174623637044 3.4901746475919593
      vertex 0.2924541530300443 0.09270678163050439 3.1686638508689184
      vertex 0.5859375 0.20697174623637044 3.4901746475919593
    endloop
  endfacet
  facet normal 0.0 -0.8878852184023732 0.460065037731156
    outer loop
      vertex 0.5859375 0.20697174623637044 3.4901746475919593
      vertex 0.29245415303004674 0.36395148863378357 3.79313179806494
      vertex 0.0 0.20697174623637044 3.4901746475919593
    endloop
  endfacet
  facet normal -0.07936860495688271 -0.996845336322139 3.6574615977863496e-15
    outer loop
      vertex 0.0 0.023285134909172 2.153755300235742
      vertex 0.2924541530300428 0.0 2.4941719229763586
      vertex 0.0 0.0232851349091745 2.8345885457169744
    endloop
  endfacet
  facet normal 0.0 -0.997668769190539 0.06824241336467514
    outer loop
      vertex 0.0 0.0232851349091745 2.8345885457169744
      vertex 0.2924541530300428 0.0 2.4941719229763586
      vertex 0.5859375 0.0232851349091745 2.8345885457169744
    endloop
  endfacet
  facet normal 0.0 -0.9790840876823221 0.20345601305263739
    outer loop
      vertex 0.5859375 0.0232851349091745 2.8345885457169744
      vertex 0.2924541530300443 0.09270678163050439 3.1686638508689184
      vertex 0.0 0.0232851349091745 2.8345885457169744
    endloop
  endfacet
  facet normal -0.07923007002851902 -0.9598902189221407 -0.26894862635990696
    outer loop
      vertex 0.0 0.20697174623636294 1.4981691983607561
      vertex 0.29296875 0.09269882413706965 1.8197083963947014
      vertex 0.0 0.023285134909172 2.153755300235742
    endloop
  endfacet
  facet normal -0.0 -0.9976687691905396 -0.06824241336466767
    outer loop
      vertex 0.5859375 0.023285134909172 2.153755300235742
      vertex 0.2924541530300428 0.0 2.4941719229763586
      vertex 0.0 0.023285134909172 2.153755300235742
    endloop
  endfacet
  facet normal 0.0 -0.9790852878530942 -0.20345023742827964
    outer loop
      vertex 0.0 0.023285134909172 2.153755300235742
      vertex 0.29296875 0.09269882413706965 1.8197083963947014
      vertex 0.5859375 0.023285134909172 2.153755300235742
    endloop
  endfacet
  facet normal -0.07936860495688144 -0.8517239986853088 -0.5179448374206529
    outer loop
      vertex 0.0 0.5607217732389422 0.9164520621612273
      vertex 0.2924541530300466 0.3639514886337733 1.1952120478877737
      vertex 0.0 0.20697174623636294 1.4981691983607561
    endloop
  endfacet
  facet normal 0.0 -0.8878852184023776 -0.46006503773114776
    outer loop
      vertex 0.0 0.20697174623636294 1.4981691983607561
      vertex 0.2924541530300466 0.3639514886337733 1.1952120478877737
      vertex 0.5859375 0.20697174623636294 1.4981691983607561
    endloop
  endfacet
  facet normal -0.0 -0.9422628975585512 -0.3348740537643417
    outer loop
      vertex 0.5859375 0.20697174623636294 1.4981691983607561
      vertex 0.29296875 0.09269882413706965 1.8197083963947014
      vertex 0.0 0.20697174623636294 1.4981691983607561
    endloop
  endfacet
  facet normal -0.07936860495688146 -0.6803999176095366 -0.7285304226071375
    outer loop
      vertex 0.0 1.0582991947128209 0.4517471904502518
      vertex 0.29245415303004463 0.7936171419533555 0.6670820122810475
      vertex 0.0 0.5607217732389422 0.9164520621612273
    endloop
  endfacet
  facet normal 0.0 -0.7308359642781278 -0.6825531432186502
    outer loop
      vertex 0.0 0.5607217732389422 0.9164520621612273
      vertex 0.29245415303004463 0.7936171419533555 0.6670820122810475
      vertex 0.5859375 0.5607217732389422 0.9164520621612273
    endloop
  endfacet
  facet normal -0.0 -0.8169698930104444 -0.5766803221148636
    outer loop
      vertex 0.5859375 0.5607217732389422 0.9164520621612273
      vertex 0.2924541530300466 0.3639514886337733 1.1952120478877737
      vertex 0.0 0.5607217732389422 0.9164520621612273
    endloop
  endfacet
  facet normal -0.0793686049568795 -0.45861368726717405 -0.8850842391537687
    outer loop
      vertex 0.0 1.6628009695725172 0.13851961767930354
      vertex 0.2924541530300456 1.34983740567211 0.27445887697041593
      vertex 0.0 1.0582991947128209 0.4517471904502518
    endloop
  endfacet
  facet normal -0.0 -0.6310879443260573 -0.7757112907044161
    outer loop
      vertex 0.5859375 1.0582991947128209 0.4517471904502518
      vertex 0.29245415303004463 0.7936171419533555 0.6670820122810475
      vertex 0.0 1.0582991947128209 0.4517471904502518
    endloop
  endfacet
  facet normal 0.0 -0.5195839500354373 -0.8544194045464861
    outer loop
      vertex 0.0 1.0582991947128209 0.4517471904502518
      vertex 0.2924541530300456 1.34983740567211 0.27445887697041593
      vertex 0.5859375 1.0582991947128209 0.4517471904502518
    endloop
  endfacet
  facet normal -0.07936860495688074 -0.20281417775822097 -0.9759954066733385
    outer loop
      vertex 0.0 2.329393966588304 2.220446049250313e-15
      vertex 0.29245415303004463 1.9913599673683937 0.046461703770546425
      vertex 0.0 1.6628009695725172 0.13851961767930354
    endloop
  endfacet
  facet normal 0.0 -0.26979677115703077 -0.9629172873477975
    outer loop
      vertex 0.0 1.6628009695725172 0.13851961767930354
      vertex 0.29245415303004463 1.9913599673683937 0.046461703770546425
      vertex 0.5859375 1.6628009695725172 0.13851961767930354
    endloop
  endfacet
  facet normal -0.0 -0.3984010898462479 -0.9172113015054502
    outer loop
      vertex 0.5859375 1.6628009695725172 0.13851961767930354
      vertex 0.2924541530300456 1.34983740567211 0.27445887697041593
      vertex 0.0 1.6628009695725172 0.13851961767930354
    endloop
  endfacet
  facet normal -0.07909201752552827 0.06802863168966691 -0.9945433917301815
    outer loop
      vertex 0.0 3.0086400326315705 0.04646170377053893
      vertex 0.2934833469699554 2.6706060334116617 0.0
      vertex 0.0 2.329393966588304 2.220446049250313e-15
    endloop
  endfacet
  facet normal 0.0 -6.507524982695932e-15 -1.0
    outer loop
      vertex 0.0 2.329393966588304 2.220446049250313e-15
      vertex 0.2934833469699554 2.6706060334116617 0.0
      vertex 0.5859375 2.329393966588304 2.220446049250313e-15
    endloop
  endfacet
  facet normal -0.0 -0.13616664909625503 -0.9906859460363296
    outer loop
      vertex 0.5859375 2.329393966588304 2.220446049250313e-15
      vertex 0.29245415303004463 1.9913599673683937 0.046461703770546425
      vertex 0.0 2.329393966588304 2.220446049250313e-15
    endloop
  endfacet
  facet normal -0.07923007002851848 0.3338268701403624 -0.9392987899361765
    outer loop
      vertex 0.0 3.650162594327867 0.274458876970404
      vertex 0.29296875 3.337171238365109 0.1385097405626165
      vertex 0.0 3.0086400326315705 0.04646170377053893
    endloop
  endfacet
  facet normal 0.0 0.1361666490962405 -0.9906859460363316
    outer loop
      vertex 0.5859375 3.0086400326315705 0.04646170377053893
      vertex 0.2934833469699554 2.6706060334116617 0.0
      vertex 0.0 3.0086400326315705 0.04646170377053893
    endloop
  endfacet
  facet normal 0.0 0.2697910908995312 -0.9629188788632409
    outer loop
      vertex 0.0 3.0086400326315705 0.04646170377053893
      vertex 0.29296875 3.337171238365109 0.1385097405626165
      vertex 0.5859375 3.0086400326315705 0.04646170377053893
    endloop
  endfacet
  facet normal -0.07936860495688322 0.5748610896489501 -0.8143926277630589
    outer loop
      vertex 0.0 4.206382858046627 0.6670820122810315
      vertex 0.2924541530300453 3.9417008052871543 0.4517471904502343
      vertex 0.0 3.650162594327867 0.274458876970404
    endloop
  endfacet
  facet normal 0.0 0.5195839500354279 -0.854419404546492
    outer loop
      vertex 0.0 3.650162594327867 0.274458876970404
      vertex 0.2924541530300453 3.9417008052871543 0.4517471904502343
      vertex 0.5859375 3.650162594327867 0.274458876970404
    endloop
  endfacet
  facet normal 0.0 0.39839567920629726 -0.917213651659063
    outer loop
      vertex 0.5859375 3.650162594327867 0.274458876970404
      vertex 0.29296875 3.337171238365109 0.1385097405626165
      vertex 0.0 3.650162594327867 0.274458876970404
    endloop
  endfacet
  facet normal -0.07923007002852125 0.7732727311454893 -0.6291040289730081
    outer loop
      vertex 0.0 4.6360485113662175 1.1952120478877593
      vertex 0.29296875 4.439259612674977 0.9164291826515208
      vertex 0.0 4.206382858046627 0.6670820122810315
    endloop
  endfacet
  facet normal 0.0 0.631087944326049 -0.7757112907044228
    outer loop
      vertex 0.5859375 4.206382858046627 0.6670820122810315
      vertex 0.2924541530300453 3.9417008052871543 0.4517471904502343
      vertex 0.0 4.206382858046627 0.6670820122810315
    endloop
  endfacet
  facet normal 0.0 0.7308319378817777 -0.6825574544109568
    outer loop
      vertex 0.0 4.206382858046627 0.6670820122810315
      vertex 0.29296875 4.439259612674977 0.9164291826515208
      vertex 0.5859375 4.206382858046627 0.6670820122810315
    endloop
  endfacet
  facet normal -0.07936860495688154 0.9143178083276686 -0.39714426839888667
    outer loop
      vertex 0.0 4.907293218369498 1.8196799950837839
      vertex 0.2924541530300453 4.7930282537636275 1.4981691983607337
      vertex 0.0 4.6360485113662175 1.1952120478877593
    endloop
  endfacet
  facet normal 0.0 0.8169664911567798 -0.5766851414133878
    outer loop
      vertex 0.5859375 4.6360485113662175 1.1952120478877593
      vertex 0.29296875 4.439259612674977 0.9164291826515208
      vertex 0.0 4.6360485113662175 1.1952120478877593
    endloop
  endfacet
  facet normal 0.0 0.887885218402373 -0.4600650377311563
    outer loop
      vertex 0.0 4.6360485113662175 1.1952120478877593
      vertex 0.2924541530300453 4.7930282537636275 1.4981691983607337
      vertex 0.5859375 4.6360485113662175 1.1952120478877593
    endloop
  endfacet
  facet normal 0.0 0.9422609221188187 -0.33487961217099127
    outer loop
      vertex 0.5859375 4.907293218369498 1.8196799950837839
      vertex 0.2924541530300453 4.7930282537636275 1.4981691983607337
      vertex 0.0 4.907293218369498 1.8196799950837839
    endloop
  endfacet
  facet normal 0.0 0.9764561243260864 -0.2157161033999979
    outer loop
      vertex 0.0 4.907293218369498 1.8196799950837839
      vertex 0.29296875 4.967400293448039 2.091759458094193
      vertex 0.5859375 4.907293218369498 1.8196799950837839
    endloop
  endfacet
  facet normal 0.07909201752552825 0.9143379715820991 0.3971530265362132
    outer loop
      vertex 0.5859375 4.907293218369499 3.168663850868909
      vertex 0.2924541530300446 4.793028253763634 3.490174647591951
      vertex 0.5859375 4.636048511366222 3.793131798064932
    endloop
  endfacet
  facet normal 0.07923007002851847 0.7732727311454921 0.6291040289730051
    outer loop
      vertex 0.5859375 4.636048511366222 3.793131798064932
      vertex 0.29296875 4.439296840577176 4.071868904062192
      vertex 0.5859375 4.206382858046637 4.321261833671658
    endloop
  endfacet
  facet normal 0.07909201752552789 0.5748737669372082 0.8144105873889201
    outer loop
      vertex 0.5859375 4.206382858046637 4.321261833671658
      vertex 0.29245415303004474 3.941700805287166 4.536596655502455
      vertex 0.5859375 3.650162594327882 4.713884968982286
    endloop
  endfacet
  facet normal 0.07909201752552793 0.3338305413529625 0.9393091197384008
    outer loop
      vertex 0.5859375 3.650162594327882 4.713884968982286
      vertex 0.2924541530300446 3.3371990304274677 4.849824228273399
      vertex 0.5859375 3.008640032631587 4.9418821421821555
    endloop
  endfacet
  facet normal 0.07909201752552704 0.06802863168967534 0.9945433917301809
    outer loop
      vertex 0.5859375 3.008640032631587 4.9418821421821555
      vertex 0.2924541530300446 2.670606033411681 4.988343845952697
      vertex 0.5859375 2.3293939665883254 4.988343845952698
    endloop
  endfacet
  facet normal 0.07909201752552696 -0.20281865037575428 0.9760169300906103
    outer loop
      vertex 0.5859375 2.3293939665883254 4.988343845952698
      vertex 0.2924541530300443 1.991359967368419 4.941882142182157
      vertex 0.5859375 1.6628009695725376 4.849824228273402
    endloop
  endfacet
  facet normal 0.07909201752552804 -0.4586238009764013 0.8851037577265729
    outer loop
      vertex 0.5859375 1.6628009695725376 4.849824228273402
      vertex 0.29245415303004463 1.349837405672123 4.713884968982289
      vertex 0.5859375 1.058299194712835 4.536596655502456
    endloop
  endfacet
  facet normal 0.07909201752552616 -0.6804149223229111 0.7285464887322214
    outer loop
      vertex 0.5859375 1.058299194712835 4.536596655502456
      vertex 0.2924541530300443 0.7936171419533711 4.321261833671665
      vertex 0.5859375 0.5607217732389536 4.071891783791485
    endloop
  endfacet
  facet normal 0.07909201752552596 -0.8517427815718817 0.517956259547016
    outer loop
      vertex 0.5859375 0.5607217732389536 4.071891783791485
      vertex 0.29245415303004674 0.36395148863378357 3.79313179806494
      vertex 0.5859375 0.20697174623637044 3.4901746475919593
    endloop
  endfacet
  facet normal 0.079092017525527 -0.9599007751756197 0.26895158408343006
    outer loop
      vertex 0.5859375 0.20697174623637044 3.4901746475919593
      vertex 0.2924541530300443 0.09270678163050439 3.1686638508689184
      vertex 0.5859375 0.0232851349091745 2.8345885457169744
    endloop
  endfacet
  facet normal 0.0790920175255276 -0.9968673195384337 3.6575422550021325e-15
    outer loop
      vertex 0.5859375 0.0232851349091745 2.8345885457169744
      vertex 0.2924541530300428 0.0 2.4941719229763586
      vertex 0.5859375 0.023285134909172 2.153755300235742
    endloop
  endfacet
  facet normal 0.07923007002851898 -0.9598902189221407 -0.26894862635990696
    outer loop
      vertex 0.5859375 0.023285134909172 2.153755300235742
      vertex 0.29296875 0.09269882413706965 1.8197083963947014
      vertex 0.5859375 0.20697174623636294 1.4981691983607561
    endloop
  endfacet
  facet normal 0.07909201752552839 -0.8517427815718851 -0.5179562595470097
    outer loop
      vertex 0.5859375 0.20697174623636294 1.4981691983607561
      vertex 0.2924541530300466 0.3639514886337733 1.1952120478877737
      vertex 0.5859375 0.5607217732389422 0.9164520621612273
    endloop
  endfacet
  facet normal 0.07909201752552733 -0.6804149223229166 -0.7285464887322163
    outer loop
      vertex 0.5859375 0.5607217732389422 0.9164520621612273
      vertex 0.29245415303004463 0.7936171419533555 0.6670820122810475
      vertex 0.5859375 1.0582991947128209 0.4517471904502518
    endloop
  endfacet
  facet normal 0.07909201752552592 -0.4586238009764081 -0.8851037577265696
    outer loop
      vertex 0.5859375 1.0582991947128209 0.4517471904502518
      vertex 0.2924541530300456 1.34983740567211 0.27445887697041593
      vertex 0.5859375 1.6628009695725172 0.13851961767930354
    endloop
  endfacet
  facet normal 0.07909201752552662 -0.20281865037576233 -0.9760169300906086
    outer loop
      vertex 0.5859375 1.6628009695725172 0.13851961767930354
      vertex 0.29245415303004463 1.9913599673683937 0.046461703770546425
      vertex 0.5859375 2.329393966588304 2.220446049250313e-15
    endloop
  endfacet
  facet normal 0.07936860495688247 0.06802713150193344 -0.9945214597618379
    outer loop
      vertex 0.5859375 2.329393966588304 2.220446049250313e-15
      vertex 0.2934833469699554 2.6706060334116617 0.0
      vertex 0.5859375 3.0086400326315705 0.04646170377053893
    endloop
  endfacet
  facet normal 0.07923007002851855 0.3338268701403624 -0.9392987899361765
    outer loop
      vertex 0.5859375 3.0086400326315705 0.04646170377053893
      vertex 0.29296875 3.337171238365109 0.1385097405626165
      vertex 0.5859375 3.650162594327867 0.274458876970404
    endloop
  endfacet
  facet normal 0.07909201752552936 0.5748737669372039 -0.814410587388923
    outer loop
      vertex 0.5859375 3.650162594327867 0.274458876970404
      vertex 0.2924541530300453 3.9417008052871543 0.4517471904502343
      vertex 0.5859375 4.206382858046627 0.6670820122810315
    endloop
  endfacet
  facet normal 0.07923007002852132 0.7732727311454893 -0.6291040289730081
    outer loop
      vertex 0.5859375 4.206382858046627 0.6670820122810315
      vertex 0.29296875 4.439259612674977 0.9164291826515208
      vertex 0.5859375 4.6360485113662175 1.1952120478877593
    endloop
  endfacet
  facet normal 0.07909201752552776 0.9143379715820976 -0.3971530265362168
    outer loop
      vertex 0.5859375 4.6360485113662175 1.1952120478877593
      vertex 0.2924541530300453 4.7930282537636275 1.4981691983607337
      vertex 0.5859375 4.907293218369498 1.8196799950837839
    endloop
  endfacet
endsolid abc_50_009
