solid abc_50_010
  facet normal -1.0 0.0 0.0
    outer loop
      vertex 0.0 3.8125 2.494171922976348
      vertex 0.0 3.636658342467076 3.1504219229763475
      vertex 0.0 4.2111253842928855 2.9586281429036916
    endloop
  endfacet
  facet normal -1.0 0.0 0.0
    outer loop
      vertex 0.0 3.636658342467073 1.8379219229763433
      vertex 0.0 3.8125 2.494171922976348
      vertex 0.0 4.211125384292883 2.0297157030490007
    endloop
  endfacet
  facet normal -1.0 0.0 0.0
    outer loop
      vertex 0.0 4.211125384292883 2.0297157030490007
      vertex 0.0 3.8125 2.494171922976348
      vertex 0.0 4.481464129976744 2.4941719229763453
    endloop
  endfacet
  facet normal -1.0 0.0 0.0
    outer loop
      vertex 0.0 3.8125 2.494171922976348
      vertex 0.0 4.2111253842928855 2.9586281429036916
      vertex 0.0 4.481464129976744 2.4941719229763453
    endloop
  endfacet
  facet normal -1.0 0.0 -0.0
    outer loop
      vertex 0.0 4.907293218369499 3.168663850868909
      vertex 0.0 5.0 2.494171922976348
      vertex 0.0 4.481464129976744 2.4941719229763453
    endloop
  endfacet
  facet normal -1.0 0.0 0.0
    outer loop
      vertex 0.0 5.0 2.494171922976348
      vertex 0.0 4.907293218369499 1.819679995083787
      vertex 0.0 4.481464129976744 2.4941719229763453
    endloop
  endfacet
  facet normal -1.0 0.0 0.0
    outer loop
      vertex 0.0 3.636658342467076 3.1504219229763475
      vertex 0.0 3.1562500000000018 3.630830265443423
      vertex 0.0 3.742362516828993 3.7609613455395308
    endloop
  endfacet
  facet normal -1.0 0.0 0.0
    outer loop
      vertex 0.0 3.636658342467076 3.1504219229763475
      vertex 0.0 3.742362516828993 3.7609613455395308
      vertex 0.0 4.217711230651108 3.4857110947205094
    endloop
  endfacet
  facet normal -1.0 0.0 0.0
    outer loop
      vertex 0.0 4.2111253842928855 2.9586281429036916
      vertex 0.0 3.636658342467076 3.1504219229763475
      vertex 0.0 4.217711230651108 3.4857110947205094
    endloop
  endfacet
  facet normal -1.0 0.0 0.0
    outer loop
      vertex 0.0 3.1562500000000018 3.630830265443423
      vertex 0.0 2.5000000000000036 3.806671922976348
      vertex 0.0 2.977034287112918 4.274488119434143
    endloop
  endfacet
  facet normal -1.0 0.0 0.0
    outer loop
      vertex 0.0 3.1562500000000018 3.630830265443423
      vertex 0.0 2.977034287112918 4.274488119434143
      vertex 0.0 3.5082494226290257 4.1967210568791815
    endloop
  endfacet
  facet normal -1.0 -0.0 0.0
    outer loop
      vertex 0.0 3.742362516828993 3.7609613455395308
      vertex 0.0 3.1562500000000018 3.630830265443423
      vertex 0.0 3.5082494226290257 4.1967210568791815
    endloop
  endfacet
  facet normal -1.0 -0.0 0.0
    outer loop
      vertex 0.0 2.5000000000000036 3.806671922976348
      vertex 0.0 1.8437500000000044 3.630830265443427
      vertex 0.0 2.021452427629831 4.280135776900586
    endloop
  endfacet
  facet normal -1.0 0.0 0.0
    outer loop
      vertex 0.0 2.5000000000000036 3.806671922976348
      vertex 0.0 2.021452427629831 4.280135776900586
      vertex 0.0 2.5179025522909266 4.48388191653679
    endloop
  endfacet
  facet normal -1.0 -0.0 0.0
    outer loop
      vertex 0.0 2.977034287112918 4.274488119434143
      vertex 0.0 2.5000000000000036 3.806671922976348
      vertex 0.0 2.5179025522909266 4.48388191653679
    endloop
  endfacet
  facet normal -1.0 -0.0 0.0
    outer loop
      vertex 0.0 1.8437500000000044 3.630830265443427
      vertex 0.0 1.3633416575329278 3.150421922976354
      vertex 0.0 1.187500000000008 3.8066719229763537
    endloop
  endfacet
  facet normal -1.0 0.0 0.0
    outer loop
      vertex 0.0 1.8437500000000044 3.630830265443427
      vertex 0.0 1.187500000000008 3.8066719229763537
      vertex 0.0 1.4943476625953416 4.237382697277511
    endloop
  endfacet
  facet normal -1.0 0.0 0.0
    outer loop
      vertex 0.0 2.021452427629831 4.280135776900586
      vertex 0.0 1.8437500000000044 3.630830265443427
      vertex 0.0 1.4943476625953416 4.237382697277511
    endloop
  endfacet
  facet normal -1.0 0.0 0.0
    outer loop
      vertex 0.0 1.3633416575329278 3.150421922976354
      vertex 0.0 1.1875 2.4941719229763577
      vertex 0.0 0.7070916575329295 2.974580265443435
    endloop
  endfacet
  facet normal -1.0 -0.0 0.0
    outer loop
      vertex 0.0 1.3633416575329278 3.150421922976354
      vertex 0.0 0.7070916575329295 2.974580265443435
      vertex 0.0 0.7422330843319849 3.5090191249099076
    endloop
  endfacet
  facet normal -1.0 0.0 -0.0
    outer loop
      vertex 0.0 1.187500000000008 3.8066719229763537
      vertex 0.0 1.3633416575329278 3.150421922976354
      vertex 0.0 0.7422330843319849 3.5090191249099076
    endloop
  endfacet
  facet normal -1.0 0.0 -0.0
    outer loop
      vertex 0.0 1.1875 2.4941719229763577
      vertex 0.0 1.3633416575329176 1.837921922976359
      vertex 0.0 0.707091657532922 2.0137635805092886
    endloop
  endfacet
  facet normal -1.0 0.0 -0.0
    outer loop
      vertex 0.0 0.7070916575329295 2.974580265443435
      vertex 0.0 1.1875 2.4941719229763577
      vertex 0.0 0.4492097492442279 2.4941719229763635
    endloop
  endfacet
  facet normal -1.0 -0.0 0.0
    outer loop
      vertex 0.0 1.1875 2.4941719229763577
      vertex 0.0 0.707091657532922 2.0137635805092886
      vertex 0.0 0.4492097492442279 2.4941719229763635
    endloop
  endfacet
  facet normal -1.0 0.0 -0.0
    outer loop
      vertex 0.0 1.3633416575329176 1.837921922976359
      vertex 0.0 1.8437499999999862 1.35751358050928
      vertex 0.0 1.1874999999999871 1.1816719229763635
    endloop
  endfacet
  facet normal -1.0 0.0 0.0
    outer loop
      vertex 0.0 0.707091657532922 2.0137635805092886
      vertex 0.0 1.3633416575329176 1.837921922976359
      vertex 0.0 0.7422330843319797 1.4793247210428218
    endloop
  endfacet
  facet normal -1.0 0.0 0.0
    outer loop
      vertex 0.0 1.3633416575329176 1.837921922976359
      vertex 0.0 1.1874999999999871 1.1816719229763635
      vertex 0.0 0.7422330843319797 1.4793247210428218
    endloop
  endfacet
  facet normal -1.0 0.0 0.0
    outer loop
      vertex 0.0 1.8437499999999862 1.35751358050928
      vertex 0.0 2.499999999999987 1.181671922976348
      vertex 0.0 2.0214524276298067 0.7082080690521211
    endloop
  endfacet
  facet normal -1.0 0.0 0.0
    outer loop
      vertex 0.0 1.1874999999999871 1.1816719229763635
      vertex 0.0 1.8437499999999862 1.35751358050928
      vertex 0.0 1.4943476625953211 0.7509611486752108
    endloop
  endfacet
  facet normal -1.0 0.0 -0.0
    outer loop
      vertex 0.0 1.8437499999999862 1.35751358050928
      vertex 0.0 2.0214524276298067 0.7082080690521211
      vertex 0.0 1.4943476625953211 0.7509611486752108
    endloop
  endfacet
  facet normal -1.0 0.0 0.0
    outer loop
      vertex 0.0 2.499999999999987 1.181671922976348
      vertex 0.0 3.1562499999999933 1.3575135805092682
      vertex 0.0 2.9770342871128994 0.7138557265185517
    endloop
  endfacet
  facet normal -1.0 0.0 0.0
    outer loop
      vertex 0.0 2.0214524276298067 0.7082080690521211
      vertex 0.0 2.499999999999987 1.181671922976348
      vertex 0.0 2.517902552290905 0.5044619294159138
    endloop
  endfacet
  facet normal -1.0 0.0 0.0
    outer loop
      vertex 0.0 2.499999999999987 1.181671922976348
      vertex 0.0 2.9770342871128994 0.7138557265185517
      vertex 0.0 2.517902552290905 0.5044619294159138
    endloop
  endfacet
  facet normal -1.0 0.0 0.0
    outer loop
      vertex 0.0 3.1562499999999933 1.3575135805092682
      vertex 0.0 3.636658342467073 1.8379219229763433
      vertex 0.0 3.7423625168289867 1.227382500413161
    endloop
  endfacet
  facet normal -1.0 0.0 0.0
    outer loop
      vertex 0.0 2.9770342871128994 0.7138557265185517
      vertex 0.0 3.1562499999999933 1.3575135805092682
      vertex 0.0 3.508249422629012 0.7916227890735115
    endloop
  endfacet
  facet normal -1.0 0.0 0.0
    outer loop
      vertex 0.0 3.1562499999999933 1.3575135805092682
      vertex 0.0 3.7423625168289867 1.227382500413161
      vertex 0.0 3.508249422629012 0.7916227890735115
    endloop
  endfacet
  facet normal -1.0 0.0 0.0
    outer loop
      vertex 0.0 3.7423625168289867 1.227382500413161
      vertex 0.0 3.636658342467073 1.8379219229763433
      vertex 0.0 4.217711230651102 1.502632751232181
    endloop
  endfacet
  facet normal -1.0 0.0 0.0
    outer loop
      vertex 0.0 3.636658342467073 1.8379219229763433
      vertex 0.0 4.211125384292883 2.0297157030490007
      vertex 0.0 4.217711230651102 1.502632751232181
    endloop
  endfacet
  facet normal -1.0 0.0 -0.0
    outer loop
      vertex 0.0 4.636048511366221 3.7931317980649313
      vertex 0.0 4.907293218369499 3.168663850868909
      vertex 0.0 4.217711230651108 3.4857110947205094
    endloop
  endfacet
  facet normal -1.0 -0.0 0.0
    outer loop
      vertex 0.0 4.907293218369499 3.168663850868909
      vertex 0.0 4.2111253842928855 2.9586281429036916
      vertex 0.0 4.217711230651108 3.4857110947205094
    endloop
  endfacet
  facet normal -1.0 0.0 0.0
    outer loop
      vertex 0.0 4.2111253842928855 2.9586281429036916
      vertex 0.0 4.907293218369499 3.168663850868909
      vertex 0.0 4.481464129976744 2.4941719229763453
    endloop
  endfacet
  facet normal -1.0 0.0 0.0
    outer loop
      vertex 0.0 4.206382858046636 4.321261833671658
      vertex 0.0 4.636048511366221 3.7931317980649313
      vertex 0.0 4.217711230651108 3.4857110947205094
    endloop
  endfacet
  facet normal -1.0 0.0 -0.0
    outer loop
      vertex 0.0 3.65016259432788 4.713884968982286
      vertex 0.0 4.206382858046636 4.321261833671658
      vertex 0.0 3.5082494226290257 4.1967210568791815
    endloop
  endfacet
  facet normal -1.0 0.0 0.0
    outer loop
      vertex 0.0 4.206382858046636 4.321261833671658
      vertex 0.0 3.742362516828993 3.7609613455395308
      vertex 0.0 3.5082494226290257 4.1967210568791815
    endloop
  endfacet
  facet normal -1.0 0.0 0.0
    outer loop
      vertex 0.0 3.742362516828993 3.7609613455395308
      vertex 0.0 4.206382858046636 4.321261833671658
      vertex 0.0 4.217711230651108 3.4857110947205094
    endloop
  endfacet
  facet normal -1.0 0.0 -0.0
    outer loop
      vertex 0.0 3.0086400326315843 4.9418821421821555
      vertex 0.0 3.65016259432788 4.713884968982286
      vertex 0.0 2.977034287112918 4.274488119434143
    endloop
  endfacet
  facet normal -1.0 0.0 0.0
    outer loop
      vertex 0.0 2.977034287112918 4.274488119434143
      vertex 0.0 3.65016259432788 4.713884968982286
      vertex 0.0 3.5082494226290257 4.1967210568791815
    endloop
  endfacet
  facet normal -1.0 0.0 0.0
    outer loop
      vertex 0.0 2.3293939665883228 4.988343845952696
      vertex 0.0 3.0086400326315843 4.9418821421821555
      vertex 0.0 2.5179025522909266 4.48388191653679
    endloop
  endfacet
  facet normal -1.0 0.0 0.0
    outer loop
      vertex 0.0 3.0086400326315843 4.9418821421821555
      vertex 0.0 2.977034287112918 4.274488119434143
      vertex 0.0 2.5179025522909266 4.48388191653679
    endloop
  endfacet
  facet normal -1.0 0.0 0.0
    outer loop
      vertex 0.0 1.662800969572535 4.849824228273399
      vertex 0.0 2.3293939665883228 4.988343845952696
      vertex 0.0 2.021452427629831 4.280135776900586
    endloop
  endfacet
  facet normal -1.0 0.0 0.0
    outer loop
      vertex 0.0 2.021452427629831 4.280135776900586
      vertex 0.0 2.3293939665883228 4.988343845952696
      vertex 0.0 2.5179025522909266 4.48388191653679
    endloop
  endfacet
  facet normal -1.0 0.0 0.0
    outer loop
      vertex 0.0 1.0582991947128324 4.536596655502453
      vertex 0.0 1.662800969572535 4.849824228273399
      vertex 0.0 1.4943476625953416 4.237382697277511
    endloop
  endfacet
  facet normal -1.0 0.0 -0.0
    outer loop
      vertex 0.0 1.662800969572535 4.849824228273399
      vertex 0.0 2.021452427629831 4.280135776900586
      vertex 0.0 1.4943476625953416 4.237382697277511
    endloop
  endfacet
  facet normal -1.0 0.0 0.0
    outer loop
      vertex 0.0 0.5607217732389502 4.071891783791479
      vertex 0.0 1.0582991947128324 4.536596655502453
      vertex 0.0 1.187500000000008 3.8066719229763537
    endloop
  endfacet
  facet normal -1.0 0.0 0.0
    outer loop
      vertex 0.0 1.187500000000008 3.8066719229763537
      vertex 0.0 1.0582991947128324 4.536596655502453
      vertex 0.0 1.4943476625953416 4.237382697277511
    endloop
  endfacet
  facet normal -1.0 0.0 0.0
    outer loop
      vertex 0.0 0.20697174623636738 3.4901746475919513
      vertex 0.0 0.5607217732389502 4.071891783791479
      vertex 0.0 0.7422330843319849 3.5090191249099076
    endloop
  endfacet
  facet normal -1.0 0.0 0.0
    outer loop
      vertex 0.0 0.5607217732389502 4.071891783791479
      vertex 0.0 1.187500000000008 3.8066719229763537
      vertex 0.0 0.7422330843319849 3.5090191249099076
    endloop
  endfacet
  facet normal -1.0 0.0 0.0
    outer loop
      vertex 0.0 0.02328513490917311 2.8345885457169646
      vertex 0.0 0.20697174623636738 3.4901746475919513
      vertex 0.0 0.7070916575329295 2.974580265443435
    endloop
  endfacet
  facet normal -1.0 0.0 0.0
    outer loop
      vertex 0.0 0.7070916575329295 2.974580265443435
      vertex 0.0 0.20697174623636738 3.4901746475919513
      vertex 0.0 0.7422330843319849 3.5090191249099076
    endloop
  endfacet
  facet normal -1.0 0.0 0.0
    outer loop
      vertex 0.0 0.02328513490917311 2.1537553002357317
      vertex 0.0 0.02328513490917311 2.8345885457169646
      vertex 0.0 0.4492097492442279 2.4941719229763635
    endloop
  endfacet
  facet normal -1.0 0.0 0.0
    outer loop
      vertex 0.0 0.02328513490917311 2.8345885457169646
      vertex 0.0 0.7070916575329295 2.974580265443435
      vertex 0.0 0.4492097492442279 2.4941719229763635
    endloop
  endfacet
  facet normal -1.0 0.0 0.0
    outer loop
      vertex 0.0 0.2069717462363671 1.498169198360745
      vertex 0.0 0.02328513490917311 2.1537553002357317
      vertex 0.0 0.707091657532922 2.0137635805092886
    endloop
  endfacet
  facet normal -1.0 0.0 0.0
    outer loop
      vertex 0.0 0.707091657532922 2.0137635805092886
      vertex 0.0 0.02328513490917311 2.1537553002357317
      vertex 0.0 0.4492097492442279 2.4941719229763635
    endloop
  endfacet
  facet normal -1.0 0.0 0.0
    outer loop
      vertex 0.0 0.5607217732389497 0.9164520621612169
      vertex 0.0 0.2069717462363671 1.498169198360745
      vertex 0.0 0.7422330843319797 1.4793247210428218
    endloop
  endfacet
  facet normal -1.0 0.0 0.0
    outer loop
      vertex 0.0 0.2069717462363671 1.498169198360745
      vertex 0.0 0.707091657532922 2.0137635805092886
      vertex 0.0 0.7422330843319797 1.4793247210428218
    endloop
  endfacet
  facet normal -1.0 0.0 0.0
    outer loop
      vertex 0.0 1.0582991947128317 0.4517471904502429
      vertex 0.0 0.5607217732389497 0.9164520621612169
      vertex 0.0 1.1874999999999871 1.1816719229763635
    endloop
  endfacet
  facet normal -1.0 -0.0 0.0
    outer loop
      vertex 0.0 1.1874999999999871 1.1816719229763635
      vertex 0.0 0.5607217732389497 0.9164520621612169
      vertex 0.0 0.7422330843319797 1.4793247210428218
    endloop
  endfacet
  facet normal -1.0 0.0 0.0
    outer loop
      vertex 0.0 1.662800969572534 0.13851961767929688
      vertex 0.0 1.0582991947128317 0.4517471904502429
      vertex 0.0 1.4943476625953211 0.7509611486752108
    endloop
  endfacet
  facet normal -1.0 0.0 0.0
    outer loop
      vertex 0.0 1.0582991947128317 0.4517471904502429
      vertex 0.0 1.1874999999999871 1.1816719229763635
      vertex 0.0 1.4943476625953211 0.7509611486752108
    endloop
  endfacet
  facet normal -1.0 0.0 0.0
    outer loop
      vertex 0.0 2.329393966588322 0.0
      vertex 0.0 1.662800969572534 0.13851961767929688
      vertex 0.0 2.0214524276298067 0.7082080690521211
    endloop
  endfacet
  facet normal -1.0 -0.0 0.0
    outer loop
      vertex 0.0 2.0214524276298067 0.7082080690521211
      vertex 0.0 1.662800969572534 0.13851961767929688
      vertex 0.0 1.4943476625953211 0.7509611486752108
    endloop
  endfacet
  facet normal -1.0 -0.0 0.0
    outer loop
      vertex 0.0 3.008640032631585 0.046461703770540874
      vertex 0.0 2.329393966588322 0.0
      vertex 0.0 2.517902552290905 0.5044619294159138
    endloop
  endfacet
  facet normal -1.0 0.0 0.0
    outer loop
      vertex 0.0 2.329393966588322 0.0
      vertex 0.0 2.0214524276298067 0.7082080690521211
      vertex 0.0 2.517902552290905 0.5044619294159138
    endloop
  endfacet
  facet normal -1.0 -0.0 0.0
    outer loop
      vertex 0.0 3.650162594327881 0.2744588769704101
      vertex 0.0 3.008640032631585 0.046461703770540874
      vertex 0.0 2.9770342871128994 0.7138557265185517
    endloop
  endfacet
  facet normal -1.0 0.0 -0.0
    outer loop
      vertex 0.0 2.9770342871128994 0.7138557265185517
      vertex 0.0 3.008640032631585 0.046461703770540874
      vertex 0.0 2.517902552290905 0.5044619294159138
    endloop
  endfacet
  facet normal -1.0 -0.0 0.0
    outer loop
      vertex 0.0 4.206382858046636 0.6670820122810378
      vertex 0.0 3.650162594327881 0.2744588769704101
      vertex 0.0 3.508249422629012 0.7916227890735115
    endloop
  endfacet
  facet normal -1.0 0.0 0.0
    outer loop
      vertex 0.0 3.650162594327881 0.2744588769704101
      vertex 0.0 2.9770342871128994 0.7138557265185517
      vertex 0.0 3.508249422629012 0.7916227890735115
    endloop
  endfacet
  facet normal -1.0 -0.0 0.0
    outer loop
      vertex 0.0 4.636048511366221 1.1952120478877641
      vertex 0.0 4.206382858046636 0.6670820122810378
      vertex 0.0 4.217711230651102 1.502632751232181
    endloop
  endfacet
  facet normal -1.0 0.0 -0.0
    outer loop
      vertex 0.0 3.7423625168289867 1.227382500413161
      vertex 0.0 4.206382858046636 0.6670820122810378
      vertex 0.0 3.508249422629012 0.7916227890735115
    endloop
  endfacet
  facet normal -1.0 0.0 0.0
    outer loop
      vertex 0.0 4.206382858046636 0.6670820122810378
      vertex 0.0 3.7423625168289867 1.227382500413161
      vertex 0.0 4.217711230651102 1.502632751232181
    endloop
  endfacet
  facet normal -1.0 0.0 0.0
    outer loop
      vertex 0.0 4.907293218369499 1.819679995083787
      vertex 0.0 4.636048511366221 1.1952120478877641
      vertex 0.0 4.217711230651102 1.502632751232181
    endloop
  endfacet
  facet normal -1.0 0.0 0.0
    outer loop
      vertex 0.0 4.211125384292883 2.0297157030490007
      vertex 0.0 4.907293218369499 1.819679995083787
      vertex 0.0 4.217711230651102 1.502632751232181
    endloop
  endfacet
  facet normal -1.0 0.0 0.0
    outer loop
      vertex 0.0 4.907293218369499 1.819679995083787
      vertex 0.0 4.211125384292883 2.0297157030490007
      vertex 0.0 4.481464129976744 2.4941719229763453
    endloop
  endfacet
  facet normal 1.0 0.0 -0.0
    outer loop
      vertex 0.8203125 3.8125 2.494171922976348
      vertex 0.8203125 4.2111253842928855 2.9586281429036916
      vertex 0.8203125 3.636658342467076 3.1504219229763475
    endloop
  endfacet
  facet normal 1.0 0.0 0.0
    outer loop
      vertex 0.8203125 3.636658342467073 1.8379219229763433
      vertex 0.8203125 4.211125384292883 2.0297157030490007
      vertex 0.8203125 3.8125 2.494171922976348
    endloop
  endfacet
  facet normal 1.0 0.0 -0.0
    outer loop
      vertex 0.8203125 4.211125384292883 2.0297157030490007
      vertex 0.8203125 4.481464129976744 2.4941719229763453
      vertex 0.8203125 3.8125 2.494171922976348
    endloop
  endfacet
  facet normal 1.0 -0.0 0.0
    outer loop
      vertex 0.8203125 3.8125 2.494171922976348
      vertex 0.8203125 4.481464129976744 2.4941719229763453
      vertex 0.8203125 4.2111253842928855 2.9586281429036916
    endloop
  endfacet
  facet normal 1.0 0.0 0.0
    outer loop
      vertex 0.8203125 4.907293218369499 3.168663850868909
      vertex 0.8203125 4.481464129976744 2.4941719229763453
      vertex 0.8203125 5.0 2.494171922976348
    endloop
  endfacet
  facet normal 1.0 0.0 0.0
    outer loop
      vertex 0.8203125 5.0 2.494171922976348
      vertex 0.8203125 4.481464129976744 2.4941719229763453
      vertex 0.8203125 4.907293218369499 1.819679995083787
    endloop
  endfacet
  facet normal 1.0 0.0 -0.0
    outer loop
      vertex 0.8203125 3.636658342467076 3.1504219229763475
      vertex 0.8203125 3.742362516828993 3.7609613455395308
      vertex 0.8203125 3.1562500000000018 3.630830265443423
    endloop
  endfacet
  facet normal 1.0 0.0 0.0
    outer loop
      vertex 0.8203125 3.636658342467076 3.1504219229763475
      vertex 0.8203125 4.217711230651108 3.4857110947205094
      vertex 0.8203125 3.742362516828993 3.7609613455395308
    endloop
  endfacet
  facet normal 1.0 0.0 -0.0
    outer loop
      vertex 0.8203125 4.2111253842928855 2.9586281429036916
      vertex 0.8203125 4.217711230651108 3.4857110947205094
      vertex 0.8203125 3.636658342467076 3.1504219229763475
    endloop
  endfacet
  facet normal 1.0 0.0 0.0
    outer loop
      vertex 0.8203125 3.1562500000000018 3.630830265443423
      vertex 0.8203125 2.977034287112918 4.274488119434143
      vertex 0.8203125 2.5000000000000036 3.806671922976348
    endloop
  endfacet
  facet normal 1.0 0.0 -0.0
    outer loop
      vertex 0.8203125 3.1562500000000018 3.630830265443423
      vertex 0.8203125 3.5082494226290257 4.1967210568791815
      vertex 0.8203125 2.977034287112918 4.274488119434143
    endloop
  endfacet
  facet normal 1.0 0.0 0.0
    outer loop
      vertex 0.8203125 3.742362516828993 3.7609613455395308
      vertex 0.8203125 3.5082494226290257 4.1967210568791815
      vertex 0.8203125 3.1562500000000018 3.630830265443423
    endloop
  endfacet
  facet normal 1.0 0.0 0.0
    outer loop
      vertex 0.8203125 2.5000000000000036 3.806671922976348
      vertex 0.8203125 2.021452427629831 4.280135776900586
      vertex 0.8203125 1.8437500000000044 3.630830265443427
    endloop
  endfacet
  facet normal 1.0 0.0 -0.0
    outer loop
      vertex 0.8203125 2.5000000000000036 3.806671922976348
      vertex 0.8203125 2.5179025522909266 4.48388191653679
      vertex 0.8203125 2.021452427629831 4.280135776900586
    endloop
  endfacet
  facet normal 1.0 0.0 0.0
    outer loop
      vertex 0.8203125 2.977034287112918 4.274488119434143
      vertex 0.8203125 2.5179025522909266 4.48388191653679
      vertex 0.8203125 2.5000000000000036 3.806671922976348
    endloop
  endfacet
  facet normal 1.0 0.0 0.0
    outer loop
      vertex 0.8203125 1.8437500000000044 3.630830265443427
      vertex 0.8203125 1.187500000000008 3.8066719229763537
      vertex 0.8203125 1.3633416575329278 3.150421922976354
    endloop
  endfacet
  facet normal 1.0 0.0 0.0
    outer loop
      vertex 0.8203125 1.8437500000000044 3.630830265443427
      vertex 0.8203125 1.4943476625953416 4.237382697277511
      vertex 0.8203125 1.187500000000008 3.8066719229763537
    endloop
  endfacet
  facet normal 1.0 0.0 0.0
    outer loop
      vertex 0.8203125 2.021452427629831 4.280135776900586
      vertex 0.8203125 1.4943476625953416 4.237382697277511
      vertex 0.8203125 1.8437500000000044 3.630830265443427
    endloop
  endfacet
  facet normal 1.0 0.0 0.0
    outer loop
      vertex 0.8203125 1.3633416575329278 3.150421922976354
      vertex 0.8203125 0.7070916575329295 2.974580265443435
      vertex 0.8203125 1.1875 2.4941719229763577
    endloop
  endfacet
  facet normal 1.0 0.0 0.0
    outer loop
      vertex 0.8203125 1.3633416575329278 3.150421922976354
      vertex 0.8203125 0.7422330843319849 3.5090191249099076
      vertex 0.8203125 0.7070916575329295 2.974580265443435
    endloop
  endfacet
  facet normal 1.0 0.0 0.0
    outer loop
      vertex 0.8203125 1.187500000000008 3.8066719229763537
      vertex 0.8203125 0.7422330843319849 3.5090191249099076
      vertex 0.8203125 1.3633416575329278 3.150421922976354
    endloop
  endfacet
  facet normal 1.0 0.0 0.0
    outer loop
      vertex 0.8203125 1.1875 2.4941719229763577
      vertex 0.8203125 0.707091657532922 2.0137635805092886
      vertex 0.8203125 1.3633416575329176 1.837921922976359
    endloop
  endfacet
  facet normal 1.0 0.0 0.0
    outer loop
      vertex 0.8203125 0.7070916575329295 2.974580265443435
      vertex 0.8203125 0.4492097492442279 2.4941719229763635
      vertex 0.8203125 1.1875 2.4941719229763577
    endloop
  endfacet
  facet normal 1.0 0.0 0.0
    outer loop
      vertex 0.8203125 1.1875 2.4941719229763577
      vertex 0.8203125 0.4492097492442279 2.4941719229763635
      vertex 0.8203125 0.707091657532922 2.0137635805092886
    endloop
  endfacet
  facet normal 1.0 0.0 0.0
    outer loop
      vertex 0.8203125 1.3633416575329176 1.837921922976359
      vertex 0.8203125 1.1874999999999871 1.1816719229763635
      vertex 0.8203125 1.8437499999999862 1.35751358050928
    endloop
  endfacet
  facet normal 1.0 0.0 0.0
    outer loop
      vertex 0.8203125 0.707091657532922 2.0137635805092886
      vertex 0.8203125 0.7422330843319797 1.4793247210428218
      vertex 0.8203125 1.3633416575329176 1.837921922976359
    endloop
  endfacet
  facet normal 1.0 0.0 0.0
    outer loop
      vertex 0.8203125 1.3633416575329176 1.837921922976359
      vertex 0.8203125 0.7422330843319797 1.4793247210428218
      vertex 0.8203125 1.1874999999999871 1.1816719229763635
    endloop
  endfacet
  facet normal 1.0 0.0 0.0
    outer loop
      vertex 0.8203125 1.8437499999999862 1.35751358050928
      vertex 0.8203125 2.0214524276298067 0.7082080690521211
      vertex 0.8203125 2.499999999999987 1.181671922976348
    endloop
  endfacet
  facet normal 1.0 -0.0 0.0
    outer loop
      vertex 0.8203125 1.1874999999999871 1.1816719229763635
      vertex 0.8203125 1.494347662595321 0.7509611486752105
      vertex 0.8203125 1.8437499999999862 1.35751358050928
    endloop
  endfacet
  facet normal 1.0 0.0 0.0
    outer loop
      vertex 0.8203125 1.8437499999999862 1.35751358050928
      vertex 0.8203125 1.494347662595321 0.7509611486752105
      vertex 0.8203125 2.0214524276298067 0.7082080690521211
    endloop
  endfacet
  facet normal 1.0 -0.0 0.0
    outer loop
      vertex 0.8203125 2.499999999999987 1.181671922976348
      vertex 0.8203125 2.9770342871128994 0.7138557265185513
      vertex 0.8203125 3.1562499999999933 1.3575135805092682
    endloop
  endfacet
  facet normal 1.0 -0.0 0.0
    outer loop
      vertex 0.8203125 2.0214524276298067 0.7082080690521211
      vertex 0.8203125 2.5179025522909053 0.5044619294159136
      vertex 0.8203125 2.499999999999987 1.181671922976348
    endloop
  endfacet
  facet normal 1.0 0.0 0.0
    outer loop
      vertex 0.8203125 2.499999999999987 1.181671922976348
      vertex 0.8203125 2.5179025522909053 0.5044619294159136
      vertex 0.8203125 2.9770342871128994 0.7138557265185513
    endloop
  endfacet
  facet normal 1.0 -0.0 0.0
    outer loop
      vertex 0.8203125 3.1562499999999933 1.3575135805092682
      vertex 0.8203125 3.7423625168289867 1.227382500413161
      vertex 0.8203125 3.636658342467073 1.8379219229763433
    endloop
  endfacet
  facet normal 1.0 0.0 0.0
    outer loop
      vertex 0.8203125 2.9770342871128994 0.7138557265185513
      vertex 0.8203125 3.508249422629011 0.7916227890735117
      vertex 0.8203125 3.1562499999999933 1.3575135805092682
    endloop
  endfacet
  facet normal 1.0 0.0 0.0
    outer loop
      vertex 0.8203125 3.1562499999999933 1.3575135805092682
      vertex 0.8203125 3.508249422629011 0.7916227890735117
      vertex 0.8203125 3.7423625168289867 1.227382500413161
    endloop
  endfacet
  facet normal 1.0 0.0 -0.0
    outer loop
      vertex 0.8203125 3.7423625168289867 1.227382500413161
      vertex 0.8203125 4.217711230651102 1.502632751232181
      vertex 0.8203125 3.636658342467073 1.8379219229763433
    endloop
  endfacet
  facet normal 1.0 -0.0 0.0
    outer loop
      vertex 0.8203125 3.636658342467073 1.8379219229763433
      vertex 0.8203125 4.217711230651102 1.502632751232181
      vertex 0.8203125 4.211125384292883 2.0297157030490007
    endloop
  endfacet
  facet normal 1.0 0.0 0.0
    outer loop
      vertex 0.8203125 4.636048511366221 3.7931317980649313
      vertex 0.8203125 4.217711230651108 3.4857110947205094
      vertex 0.8203125 4.907293218369499 3.168663850868909
    endloop
  endfacet
  facet normal 1.0 0.0 0.0
    outer loop
      vertex 0.8203125 4.907293218369499 3.168663850868909
      vertex 0.8203125 4.217711230651108 3.4857110947205094
      vertex 0.8203125 4.2111253842928855 2.9586281429036916
    endloop
  endfacet
  facet normal 1.0 -0.0 0.0
    outer loop
      vertex 0.8203125 4.2111253842928855 2.9586281429036916
      vertex 0.8203125 4.481464129976744 2.4941719229763453
      vertex 0.8203125 4.907293218369499 3.168663850868909
    endloop
  endfacet
  facet normal 1.0 0.0 0.0
    outer loop
      vertex 0.8203125 4.206382858046636 4.321261833671658
      vertex 0.8203125 4.217711230651108 3.4857110947205094
      vertex 0.8203125 4.636048511366221 3.7931317980649313
    endloop
  endfacet
  facet normal 1.0 0.0 0.0
    outer loop
      vertex 0.8203125 3.65016259432788 4.713884968982286
      vertex 0.8203125 3.5082494226290257 4.1967210568791815
      vertex 0.8203125 4.206382858046636 4.321261833671658
    endloop
  endfacet
  facet normal 1.0 0.0 0.0
    outer loop
      vertex 0.8203125 4.206382858046636 4.321261833671658
      vertex 0.8203125 3.5082494226290257 4.1967210568791815
      vertex 0.8203125 3.742362516828993 3.7609613455395308
    endloop
  endfacet
  facet normal 1.0 -0.0 0.0
    outer loop
      vertex 0.8203125 3.742362516828993 3.7609613455395308
      vertex 0.8203125 4.217711230651108 3.4857110947205094
      vertex 0.8203125 4.206382858046636 4.321261833671658
    endloop
  endfacet
  facet normal 1.0 0.0 0.0
    outer loop
      vertex 0.8203125 3.0086400326315843 4.9418821421821555
      vertex 0.8203125 2.977034287112918 4.274488119434143
      vertex 0.8203125 3.65016259432788 4.713884968982286
    endloop
  endfacet
  facet normal 1.0 -0.0 0.0
    outer loop
      vertex 0.8203125 2.977034287112918 4.274488119434143
      vertex 0.8203125 3.5082494226290257 4.1967210568791815
      vertex 0.8203125 3.65016259432788 4.713884968982286
    endloop
  endfacet
  facet normal 1.0 0.0 0.0
    outer loop
      vertex 0.8203125 2.3293939665883228 4.988343845952696
      vertex 0.8203125 2.5179025522909266 4.48388191653679
      vertex 0.8203125 3.0086400326315843 4.9418821421821555
    endloop
  endfacet
  facet normal 1.0 0.0 0.0
    outer loop
      vertex 0.8203125 3.0086400326315843 4.9418821421821555
      vertex 0.8203125 2.5179025522909266 4.48388191653679
      vertex 0.8203125 2.977034287112918 4.274488119434143
    endloop
  endfacet
  facet normal 1.0 -0.0 0.0
    outer loop
      vertex 0.8203125 1.662800969572535 4.849824228273399
      vertex 0.8203125 2.021452427629831 4.280135776900586
      vertex 0.8203125 2.3293939665883228 4.988343845952696
    endloop
  endfacet
  facet normal 1.0 0.0 0.0
    outer loop
      vertex 0.8203125 2.021452427629831 4.280135776900586
      vertex 0.8203125 2.5179025522909266 4.48388191653679
      vertex 0.8203125 2.3293939665883228 4.988343845952696
    endloop
  endfacet
  facet normal 1.0 -0.0 0.0
    outer loop
      vertex 0.8203125 1.0582991947128324 4.536596655502453
      vertex 0.8203125 1.4943476625953416 4.237382697277511
      vertex 0.8203125 1.662800969572535 4.849824228273399
    endloop
  endfacet
  facet normal 1.0 0.0 0.0
    outer loop
      vertex 0.8203125 1.662800969572535 4.849824228273399
      vertex 0.8203125 1.4943476625953416 4.237382697277511
      vertex 0.8203125 2.021452427629831 4.280135776900586
    endloop
  endfacet
  facet normal 1.0 -0.0 0.0
    outer loop
      vertex 0.8203125 0.5607217732389502 4.071891783791479
      vertex 0.8203125 1.187500000000008 3.8066719229763537
      vertex 0.8203125 1.0582991947128324 4.536596655502453
    endloop
  endfacet
  facet normal 1.0 0.0 -0.0
    outer loop
      vertex 0.8203125 1.187500000000008 3.8066719229763537
      vertex 0.8203125 1.4943476625953416 4.237382697277511
      vertex 0.8203125 1.0582991947128324 4.536596655502453
    endloop
  endfacet
  facet normal 1.0 0.0 0.0
    outer loop
      vertex 0.8203125 0.20697174623636738 3.4901746475919513
      vertex 0.8203125 0.7422330843319849 3.5090191249099076
      vertex 0.8203125 0.5607217732389502 4.071891783791479
    endloop
  endfacet
  facet normal 1.0 0.0 0.0
    outer loop
      vertex 0.8203125 0.5607217732389502 4.071891783791479
      vertex 0.8203125 0.7422330843319849 3.5090191249099076
      vertex 0.8203125 1.187500000000008 3.8066719229763537
    endloop
  endfacet
  facet normal 1.0 0.0 0.0
    outer loop
      vertex 0.8203125 0.02328513490917311 2.8345885457169646
      vertex 0.8203125 0.7070916575329295 2.974580265443435
      vertex 0.8203125 0.20697174623636738 3.4901746475919513
    endloop
  endfacet
  facet normal 1.0 0.0 -0.0
    outer loop
      vertex 0.8203125 0.7070916575329295 2.974580265443435
      vertex 0.8203125 0.7422330843319849 3.5090191249099076
      vertex 0.8203125 0.20697174623636738 3.4901746475919513
    endloop
  endfacet
  facet normal 1.0 0.0 0.0
    outer loop
      vertex 0.8203125 0.02328513490917311 2.1537553002357317
      vertex 0.8203125 0.4492097492442279 2.4941719229763635
      vertex 0.8203125 0.02328513490917311 2.8345885457169646
    endloop
  endfacet
  facet normal 1.0 -0.0 0.0
    outer loop
      vertex 0.8203125 0.02328513490917311 2.8345885457169646
      vertex 0.8203125 0.4492097492442279 2.4941719229763635
      vertex 0.8203125 0.7070916575329295 2.974580265443435
    endloop
  endfacet
  facet normal 1.0 0.0 -0.0
    outer loop
      vertex 0.8203125 0.2069717462363671 1.498169198360745
      vertex 0.8203125 0.707091657532922 2.0137635805092886
      vertex 0.8203125 0.02328513490917311 2.1537553002357317
    endloop
  endfacet
  facet normal 1.0 0.0 0.0
    outer loop
      vertex 0.8203125 0.707091657532922 2.0137635805092886
      vertex 0.8203125 0.4492097492442279 2.4941719229763635
      vertex 0.8203125 0.02328513490917311 2.1537553002357317
    endloop
  endfacet
  facet normal 1.0 0.0 -0.0
    outer loop
      vertex 0.8203125 0.5607217732389497 0.9164520621612169
      vertex 0.8203125 0.7422330843319797 1.4793247210428218
      vertex 0.8203125 0.2069717462363671 1.498169198360745
    endloop
  endfacet
  facet normal 1.0 -0.0 0.0
    outer loop
      vertex 0.8203125 0.2069717462363671 1.498169198360745
      vertex 0.8203125 0.7422330843319797 1.4793247210428218
      vertex 0.8203125 0.707091657532922 2.0137635805092886
    endloop
  endfacet
  facet normal 1.0 0.0 -0.0
    outer loop
      vertex 0.8203125 1.0582991947128317 0.4517471904502429
      vertex 0.8203125 1.1874999999999871 1.1816719229763635
      vertex 0.8203125 0.5607217732389497 0.9164520621612169
    endloop
  endfacet
  facet normal 1.0 0.0 0.0
    outer loop
      vertex 0.8203125 1.1874999999999871 1.1816719229763635
      vertex 0.8203125 0.7422330843319797 1.4793247210428218
      vertex 0.8203125 0.5607217732389497 0.9164520621612169
    endloop
  endfacet
  facet normal 1.0 0.0 0.0
    outer loop
      vertex 0.8203125 1.662800969572534 0.13851961767929688
      vertex 0.8203125 1.494347662595321 0.7509611486752105
      vertex 0.8203125 1.0582991947128317 0.4517471904502429
    endloop
  endfacet
  facet normal 1.0 0.0 0.0
    outer loop
      vertex 0.8203125 1.0582991947128317 0.4517471904502429
      vertex 0.8203125 1.494347662595321 0.7509611486752105
      vertex 0.8203125 1.1874999999999871 1.1816719229763635
    endloop
  endfacet
  facet normal 1.0 0.0 0.0
    outer loop
      vertex 0.8203125 2.329393966588322 0.0
      vertex 0.8203125 2.0214524276298067 0.7082080690521211
      vertex 0.8203125 1.662800969572534 0.13851961767929688
    endloop
  endfacet
  facet normal 1.0 0.0 0.0
    outer loop
      vertex 0.8203125 2.0214524276298067 0.7082080690521211
      vertex 0.8203125 1.494347662595321 0.7509611486752105
      vertex 0.8203125 1.662800969572534 0.13851961767929688
    endloop
  endfacet
  facet normal 1.0 0.0 0.0
    outer loop
      vertex 0.8203125 3.008640032631585 0.046461703770540874
      vertex 0.8203125 2.5179025522909053 0.5044619294159136
      vertex 0.8203125 2.329393966588322 0.0
    endloop
  endfacet
  facet normal 1.0 0.0 -0.0
    outer loop
      vertex 0.8203125 2.329393966588322 0.0
      vertex 0.8203125 2.5179025522909053 0.5044619294159136
      vertex 0.8203125 2.0214524276298067 0.7082080690521211
    endloop
  endfacet
  facet normal 1.0 0.0 0.0
    outer loop
      vertex 0.8203125 3.650162594327881 0.2744588769704101
      vertex 0.8203125 2.9770342871128994 0.7138557265185513
      vertex 0.8203125 3.008640032631585 0.046461703770540874
    endloop
  endfacet
  facet normal 1.0 0.0 0.0
    outer loop
      vertex 0.8203125 2.9770342871128994 0.7138557265185513
      vertex 0.8203125 2.5179025522909053 0.5044619294159136
      vertex 0.8203125 3.008640032631585 0.046461703770540874
    endloop
  endfacet
  facet normal 1.0 0.0 0.0
    outer loop
      vertex 0.8203125 4.206382858046636 0.6670820122810378
      vertex 0.8203125 3.508249422629011 0.7916227890735117
      vertex 0.8203125 3.650162594327881 0.2744588769704101
    endloop
  endfacet
  facet normal 1.0 0.0 0.0
    outer loop
      vertex 0.8203125 3.650162594327881 0.2744588769704101
      vertex 0.8203125 3.508249422629011 0.7916227890735117
      vertex 0.8203125 2.9770342871128994 0.7138557265185513
    endloop
  endfacet
  facet normal 1.0 0.0 0.0
    outer loop
      vertex 0.8203125 4.636048511366221 1.1952120478877641
      vertex 0.8203125 4.217711230651102 1.502632751232181
      vertex 0.8203125 4.206382858046636 0.6670820122810378
    endloop
  endfacet
  facet normal 1.0 0.0 0.0
    outer loop
      vertex 0.8203125 3.7423625168289867 1.227382500413161
      vertex 0.8203125 3.508249422629011 0.7916227890735117
      vertex 0.8203125 4.206382858046636 0.6670820122810378
    endloop
  endfacet
  facet normal 1.0 0.0 -0.0
    outer loop
      vertex 0.8203125 4.206382858046636 0.6670820122810378
      vertex 0.8203125 4.217711230651102 1.502632751232181
      vertex 0.8203125 3.7423625168289867 1.227382500413161
    endloop
  endfacet
  facet normal 1.0 0.0 0.0
    outer loop
      vertex 0.8203125 4.907293218369499 1.819679995083787
      vertex 0.8203125 4.217711230651102 1.502632751232181
      vertex 0.8203125 4.636048511366221 1.1952120478877641
    endloop
  endfacet
  facet normal 1.0 0.0 0.0
    outer loop
      vertex 0.8203125 4.211125384292883 2.0297157030490007
      vertex 0.8203125 4.217711230651102 1.502632751232181
      vertex 0.8203125 4.907293218369499 1.819679995083787
    endloop
  endfacet
  facet normal 1.0 0.0 0.0
    outer loop
      vertex 0.8203125 4.907293218369499 1.819679995083787
      vertex 0.8203125 4.481464129976744 2.4941719229763453
      vertex 0.8203125 4.211125384292883 2.0297157030490007
    endloop
  endfacet
  facet normal 0.10114201057686906 -0.9609725573471897 -0.2574918206896497
    outer loop
      vertex 0.0 3.636658342467076 3.1504219229763475
      vertex 0.0 3.8125 2.494171922976348
      vertex 0.41015625 3.7418079938964635 2.9191062194209176
    endloop
  endfacet
  facet normal 0.09476427117335774 -0.9615789092060589 0.2576542921805654
    outer loop
      vertex 0.0 3.8125 2.494171922976348
      vertex 0.0 3.636658342467073 1.8379219229763433
      vertex 0.41015625 3.7307275641098476 2.0381391248792804
    endloop
  endfacet
  facet normal -1.7768116236722773e-16 -0.9864429593040632 -0.164104503409999
    outer loop
      vertex 0.0 3.8125 2.494171922976348
      vertex 0.4101562500000006 3.8125 2.4941719229763475
      vertex 0.41015625 3.7418079938964635 2.9191062194209176
    endloop
  endfacet
  facet normal 1.9109956611375055e-16 -0.9843010697197125 0.17649760380421473
    outer loop
      vertex 0.4101562500000006 3.8125 2.4941719229763475
      vertex 0.0 3.8125 2.494171922976348
      vertex 0.41015625 3.7307275641098476 2.0381391248792804
    endloop
  endfacet
  facet normal -0.10114201057686903 -0.9609725573471897 -0.2574918206896497
    outer loop
      vertex 0.8203125 3.8125 2.494171922976348
      vertex 0.8203125 3.636658342467076 3.1504219229763475
      vertex 0.41015625 3.7418079938964635 2.9191062194209176
    endloop
  endfacet
  facet normal -0.09476427117335774 -0.9615789092060589 0.2576542921805654
    outer loop
      vertex 0.8203125 3.636658342467073 1.8379219229763433
      vertex 0.8203125 3.8125 2.494171922976348
      vertex 0.41015625 3.7307275641098476 2.0381391248792804
    endloop
  endfacet
  facet normal 1.7768116236722827e-16 -0.9864429593040631 -0.164104503409999
    outer loop
      vertex 0.4101562500000006 3.8125 2.4941719229763475
      vertex 0.8203125 3.8125 2.494171922976348
      vertex 0.41015625 3.7418079938964635 2.9191062194209176
    endloop
  endfacet
  facet normal -1.9109956611375117e-16 -0.9843010697197127 0.17649760380421475
    outer loop
      vertex 0.8203125 3.8125 2.494171922976348
      vertex 0.4101562500000006 3.8125 2.4941719229763475
      vertex 0.41015625 3.7307275641098476 2.0381391248792804
    endloop
  endfacet
  facet normal 0.10839400608803548 -0.7029405164891938 -0.7029405164891924
    outer loop
      vertex 0.0 3.1562500000000018 3.630830265443423
      vertex 0.0 3.636658342467076 3.1504219229763475
      vertex 0.41015625 3.4287766635409844 3.42155003316748
    endloop
  endfacet
  facet normal -0.08036923131171535 -0.8460080770219244 -0.5270779072129941
    outer loop
      vertex 0.41015625 3.4287766635409844 3.42155003316748
      vertex 0.0 3.636658342467076 3.1504219229763475
      vertex 0.41015625 3.7418079938964635 2.9191062194209176
    endloop
  endfacet
  facet normal 0.10830048326273956 -0.2572967245127435 -0.9602444485026042
    outer loop
      vertex 0.0 2.5000000000000036 3.806671922976348
      vertex 0.0 3.1562500000000018 3.630830265443423
      vertex 0.4105177942742291 2.839970813641327 3.7618769737953683
    endloop
  endfacet
  facet normal -0.108566887446391 -0.4975107705818844 -0.8606371268457003
    outer loop
      vertex 0.4105177942742291 2.839970813641327 3.7618769737953683
      vertex 0.0 3.1562500000000018 3.630830265443423
      vertex 0.41015625 3.4287766635409844 3.42155003316748
    endloop
  endfacet
  facet normal 0.10838217548022279 0.2572944202341014 -0.96023584881766
    outer loop
      vertex 0.0 1.8437500000000044 3.630830265443427
      vertex 0.0 2.5000000000000036 3.806671922976348
      vertex 0.41020494610450753 2.1602190162706125 3.7619278667983007
    endloop
  endfacet
  facet normal -0.10845422632316792 -2.451350852695354e-05 -0.9941014436121349
    outer loop
      vertex 0.41020494610450753 2.1602190162706125 3.7619278667983007
      vertex 0.0 2.5000000000000036 3.806671922976348
      vertex 0.4105177942742291 2.839970813641327 3.7618769737953683
    endloop
  endfacet
  facet normal 0.10870210325303123 0.7029167279089178 -0.7029167279089237
    outer loop
      vertex 0.0 1.3633416575329278 3.150421922976354
      vertex 0.0 1.8437500000000044 3.630830265443427
      vertex 0.40898329968672065 1.5719223496926604 3.422249573283696
    endloop
  endfacet
  facet normal -0.10851586266227903 0.49724384753448797 -0.8607978064794078
    outer loop
      vertex 0.40898329968672065 1.5719223496926604 3.422249573283696
      vertex 0.0 1.8437500000000044 3.630830265443427
      vertex 0.41020494610450753 2.1602190162706125 3.7619278667983007
    endloop
  endfacet
  facet normal 0.10897034067470593 0.9601737393676324 -0.257277778057135
    outer loop
      vertex 0.0 1.1875 2.4941719229763577
      vertex 0.0 1.3633416575329278 3.150421922976354
      vertex 0.40796450824070374 1.23222194261012 2.833870388090252
    endloop
  endfacet
  facet normal -0.10883654936073425 0.8609628085689562 -0.49688796301007676
    outer loop
      vertex 0.0 1.3633416575329278 3.150421922976354
      vertex 0.40898329968672065 1.5719223496926604 3.422249573283696
      vertex 0.40796450824070374 1.23222194261012 2.833870388090252
    endloop
  endfacet
  facet normal 0.1090373558749791 0.9601666410653854 0.2572758760727644
    outer loop
      vertex 0.0 1.3633416575329176 1.837921922976359
      vertex 0.0 1.1875 2.4941719229763577
      vertex 0.4077107559981766 1.2322223529955945 2.1544719262793013
    endloop
  endfacet
  facet normal -0.1090033436847863 0.9940413821158541 4.131269737117497e-05
    outer loop
      vertex 0.4077107559981766 1.2322223529955945 2.1544719262793013
      vertex 0.0 1.1875 2.4941719229763577
      vertex 0.40796450824070374 1.23222194261012 2.833870388090252
    endloop
  endfacet
  facet normal 0.10887434065951522 0.7029033994604014 0.702903399460386
    outer loop
      vertex 0.0 1.8437499999999862 1.35751358050928
      vertex 0.0 1.3633416575329176 1.837921922976359
      vertex 0.4083285429243544 1.5719587620649746 1.5660578617252396
    endloop
  endfacet
  facet normal -0.10897183654196221 0.8609078701219639 0.49695349682111656
    outer loop
      vertex 0.0 1.3633416575329176 1.837921922976359
      vertex 0.4077107559981766 1.2322223529955945 2.1544719262793013
      vertex 0.4083285429243544 1.5719587620649746 1.5660578617252396
    endloop
  endfacet
  facet normal 0.10850279152105485 0.2572910148234569 0.9602231396520573
    outer loop
      vertex 0.0 2.499999999999987 1.181671922976348
      vertex 0.0 1.8437499999999862 1.35751358050928
      vertex 0.409743056927495 2.1606620403082526 1.2262973238490358
    endloop
  endfacet
  facet normal -0.10878888730775804 0.4970886969681921 0.86085295221937
    outer loop
      vertex 0.409743056927495 2.1606620403082526 1.2262973238490358
      vertex 0.0 1.8437499999999862 1.35751358050928
      vertex 0.4083285429243544 1.5719587620649746 1.5660578617252396
    endloop
  endfacet
  facet normal 0.10839400608803891 -0.2572940863843909 0.9602346028735935
    outer loop
      vertex 0.0 3.1562499999999933 1.3575135805092682
      vertex 0.0 2.499999999999987 1.181671922976348
      vertex 0.41015625 2.840655129973053 1.2266505888667234
    endloop
  endfacet
  facet normal -0.10863909772894759 -0.00045042395139467944 0.994081155420876
    outer loop
      vertex 0.0 2.499999999999987 1.181671922976348
      vertex 0.409743056927495 2.1606620403082526 1.2262973238490358
      vertex 0.41015625 2.840655129973053 1.2266505888667234
    endloop
  endfacet
  facet normal 0.10903735587498052 -0.7028907649926065 0.7028907649926134
    outer loop
      vertex 0.0 3.636658342467073 1.8379219229763433
      vertex 0.0 3.1562499999999933 1.3575135805092682
      vertex 0.40771075599817685 3.428077650307339 1.5660942726689997
    endloop
  endfacet
  facet normal -0.10840726510221677 -0.4977158825430733 0.8605386482531899
    outer loop
      vertex 0.0 3.1562499999999933 1.3575135805092682
      vertex 0.41015625 2.840655129973053 1.2266505888667234
      vertex 0.40771075599817685 3.428077650307339 1.5660942726689997
    endloop
  endfacet
  facet normal -0.07038786313680574 -0.8395791763926354 0.5386579204754148
    outer loop
      vertex 0.0 3.636658342467073 1.8379219229763433
      vertex 0.40771075599817685 3.428077650307339 1.5660942726689997
      vertex 0.41015625 3.7307275641098476 2.0381391248792804
    endloop
  endfacet
  facet normal -0.10839400608803552 -0.7029405164891938 -0.7029405164891924
    outer loop
      vertex 0.8203125 3.636658342467076 3.1504219229763475
      vertex 0.8203125 3.1562500000000018 3.630830265443423
      vertex 0.41015625 3.4287766635409844 3.42155003316748
    endloop
  endfacet
  facet normal 0.08036923131171533 -0.8460080770219244 -0.5270779072129941
    outer loop
      vertex 0.8203125 3.636658342467076 3.1504219229763475
      vertex 0.41015625 3.4287766635409844 3.42155003316748
      vertex 0.41015625 3.7418079938964635 2.9191062194209176
    endloop
  endfacet
  facet normal -0.1084893337453032 -0.25729139497326514 -0.96022455839049
    outer loop
      vertex 0.8203125 3.1562500000000018 3.630830265443423
      vertex 0.8203125 2.5000000000000036 3.806671922976348
      vertex 0.4105177942742291 2.839970813641327 3.7618769737953683
    endloop
  endfacet
  facet normal 0.10866167581253114 -0.4974056052051413 -0.8606859497633963
    outer loop
      vertex 0.8203125 3.1562500000000018 3.630830265443423
      vertex 0.4105177942742291 2.839970813641327 3.7618769737953683
      vertex 0.41015625 3.4287766635409844 3.42155003316748
    endloop
  endfacet
  facet normal -0.10840761159460945 0.2572937024029663 -0.9602331698353926
    outer loop
      vertex 0.8203125 2.5000000000000036 3.806671922976348
      vertex 0.8203125 1.8437500000000044 3.630830265443427
      vertex 0.41020494610450753 2.1602190162706125 3.7619278667983007
    endloop
  endfacet
  facet normal 0.10856145494453547 -0.00012439167420861413 -0.9940897318788868
    outer loop
      vertex 0.8203125 2.5000000000000036 3.806671922976348
      vertex 0.41020494610450753 2.1602190162706125 3.7619278667983007
      vertex 0.4105177942742291 2.839970813641327 3.7618769737953683
    endloop
  endfacet
  facet normal -0.10808941494843277 0.7029639672046133 -0.7029639672046192
    outer loop
      vertex 0.8203125 1.8437500000000044 3.630830265443427
      vertex 0.8203125 1.3633416575329278 3.150421922976354
      vertex 0.40898329968672065 1.5719223496926604 3.422249573283696
    endloop
  endfacet
  facet normal 0.1082223465569998 0.4969223031394044 -0.8610204111101701
    outer loop
      vertex 0.8203125 1.8437500000000044 3.630830265443427
      vertex 0.40898329968672065 1.5719223496926604 3.422249573283696
      vertex 0.41020494610450753 2.1602190162706125 3.7619278667983007
    endloop
  endfacet
  facet normal -0.10782546627115297 0.9602943232301495 -0.2573100884057166
    outer loop
      vertex 0.8203125 1.3633416575329278 3.150421922976354
      vertex 0.8203125 1.1875 2.4941719229763577
      vertex 0.40796450824070374 1.23222194261012 2.833870388090252
    endloop
  endfacet
  facet normal 0.10795776867340061 0.8608832470577412 -0.49721741232420696
    outer loop
      vertex 0.40898329968672065 1.5719223496926604 3.422249573283696
      vertex 0.8203125 1.3633416575329278 3.150421922976354
      vertex 0.40796450824070374 1.23222194261012 2.833870388090252
    endloop
  endfacet
  facet normal -0.10775992332132842 0.9603011875412064 0.25731192769230504
    outer loop
      vertex 0.8203125 1.1875 2.4941719229763577
      vertex 0.8203125 1.3633416575329176 1.837921922976359
      vertex 0.4077107559981766 1.2322223529955945 2.1544719262793013
    endloop
  endfacet
  facet normal 0.10779219605843669 0.9941734460827415 -3.9659373180706905e-05
    outer loop
      vertex 0.8203125 1.1875 2.4941719229763577
      vertex 0.4077107559981766 1.2322223529955945 2.1544719262793013
      vertex 0.40796450824070374 1.23222194261012 2.833870388090252
    endloop
  endfacet
  facet normal -0.10791963076480689 0.7029770100421525 0.7029770100421373
    outer loop
      vertex 0.8203125 1.3633416575329176 1.837921922976359
      vertex 0.8203125 1.8437499999999862 1.35751358050928
      vertex 0.4083285429243544 1.5719587620649746 1.5660578617252396
    endloop
  endfacet
  facet normal 0.10785559447954322 0.8609147152215928 0.4971851001934675
    outer loop
      vertex 0.4077107559981766 1.2322223529955945 2.1544719262793013
      vertex 0.8203125 1.3633416575329176 1.837921922976359
      vertex 0.4083285429243544 1.5719587620649746 1.5660578617252396
    endloop
  endfacet
  facet normal -0.10828696265905119 0.2572971057165766 0.9602458711746434
    outer loop
      vertex 0.8203125 1.8437499999999862 1.35751358050928
      vertex 0.8203125 2.499999999999987 1.181671922976348
      vertex 0.409743056927495 2.1606620403082526 1.2262973238490358
    endloop
  endfacet
  facet normal 0.10820286284443277 0.49672955950376774 0.8611340692293283
    outer loop
      vertex 0.8203125 1.8437499999999862 1.35751358050928
      vertex 0.409743056927495 2.1606620403082526 1.2262973238490358
      vertex 0.4083285429243544 1.5719587620649746 1.5660578617252396
    endloop
  endfacet
  facet normal -0.10839400608803891 -0.2572940863843909 0.9602346028735935
    outer loop
      vertex 0.8203125 2.499999999999987 1.181671922976348
      vertex 0.8203125 3.1562499999999933 1.3575135805092682
      vertex 0.41015625 2.840655129973053 1.2266505888667234
    endloop
  endfacet
  facet normal 0.10853078179838725 -0.0005823918295340773 0.9940929183039117
    outer loop
      vertex 0.409743056927495 2.1606620403082526 1.2262973238490358
      vertex 0.8203125 2.499999999999987 1.181671922976348
      vertex 0.41015625 2.840655129973053 1.2266505888667234
    endloop
  endfacet
  facet normal -0.10775992332132996 -0.7029892598488868 0.7029892598488937
    outer loop
      vertex 0.8203125 3.1562499999999933 1.3575135805092682
      vertex 0.8203125 3.636658342467073 1.8379219229763433
      vertex 0.40771075599817685 3.428077650307339 1.5660942726689997
    endloop
  endfacet
  facet normal 0.10777125732401083 -0.49707579631131527 0.860988390639661
    outer loop
      vertex 0.41015625 2.840655129973053 1.2266505888667234
      vertex 0.8203125 3.1562499999999933 1.3575135805092682
      vertex 0.40771075599817685 3.428077650307339 1.5660942726689997
    endloop
  endfacet
  facet normal 0.07006193899900624 -0.839929100456225 0.5381546533390715
    outer loop
      vertex 0.40771075599817685 3.428077650307339 1.5660942726689997
      vertex 0.8203125 3.636658342467073 1.8379219229763433
      vertex 0.41015625 3.7307275641098476 2.0381391248792804
    endloop
  endfacet
  facet normal -0.05002940029137699 0.989445355085037 0.13599613379478975
    outer loop
      vertex 0.0 4.907293218369499 3.168663850868909
      vertex 0.41040524417487656 4.9581173123647995 2.949868399430197
      vertex 0.0 5.0 2.494171922976348
    endloop
  endfacet
  facet normal -0.04932446483114737 0.9894800908362505 -0.13600090811390222
    outer loop
      vertex 0.0 5.0 2.494171922976348
      vertex 0.41015625 4.956959013946745 2.0322710637155783
      vertex 0.0 4.907293218369499 1.819679995083787
    endloop
  endfacet
  facet normal 9.909532278069593e-17 0.9958029235109526 0.09152342611069667
    outer loop
      vertex 0.0 5.0 2.494171922976348
      vertex 0.41040524417487656 4.9581173123647995 2.949868399430197
      vertex 0.4101562500000006 5.0 2.4941719229763475
    endloop
  endfacet
  facet normal -1.0045625677973157e-16 0.9956865986791974 -0.09278037082622
    outer loop
      vertex 0.4101562500000006 5.0 2.4941719229763475
      vertex 0.41015625 4.956959013946745 2.0322710637155783
      vertex 0.0 5.0 2.494171922976348
    endloop
  endfacet
  facet normal 0.05009002763164316 0.989442344591282 0.1359957200119473
    outer loop
      vertex 0.8203125 5.0 2.494171922976348
      vertex 0.41040524417487656 4.9581173123647995 2.949868399430197
      vertex 0.8203125 4.907293218369499 3.168663850868909
    endloop
  endfacet
  facet normal 0.04932446483114737 0.9894800908362505 -0.13600090811390222
    outer loop
      vertex 0.8203125 4.907293218369499 1.819679995083787
      vertex 0.41015625 4.956959013946745 2.0322710637155783
      vertex 0.8203125 5.0 2.494171922976348
    endloop
  endfacet
  facet normal -9.909532278069622e-17 0.9958029235109525 0.09152342611069668
    outer loop
      vertex 0.4101562500000006 5.0 2.4941719229763475
      vertex 0.41040524417487656 4.9581173123647995 2.949868399430197
      vertex 0.8203125 5.0 2.494171922976348
    endloop
  endfacet
  facet normal 1.0045625677973187e-16 0.9956865986791974 -0.09278037082622
    outer loop
      vertex 0.8203125 5.0 2.494171922976348
      vertex 0.41015625 4.956959013946745 2.0322710637155783
      vertex 0.4101562500000006 5.0 2.4941719229763475
    endloop
  endfacet
  facet normal -0.056589136613339745 0.9157415170690119 0.39776267237323987
    outer loop
      vertex 0.0 4.636048511366221 3.7931317980649313
      vertex 0.41081774801125437 4.793028253763632 3.4901746475919513
      vertex 0.0 4.907293218369499 3.168663850868909
    endloop
  endfacet
  facet normal 0.037309205932815726 0.9556959222945858 0.29198172419205276
    outer loop
      vertex 0.41081774801125437 4.793028253763632 3.4901746475919513
      vertex 0.41040524417487656 4.9581173123647995 2.949868399430197
      vertex 0.0 4.907293218369499 3.168663850868909
    endloop
  endfacet
  facet normal -0.056680109999186414 0.7744642497562978 0.6300734012636107
    outer loop
      vertex 0.0 4.206382858046636 4.321261833671658
      vertex 0.410156250011505 4.439294595789043 4.071871663339961
      vertex 0.0 4.636048511366221 3.7931317980649313
    endloop
  endfacet
  facet normal 0.056630307254724156 0.8530223467232662 0.5187927180396495
    outer loop
      vertex 0.0 4.636048511366221 3.7931317980649313
      vertex 0.410156250011505 4.439294595789043 4.071871663339961
      vertex 0.41081774801125437 4.793028253763632 3.4901746475919513
    endloop
  endfacet
  facet normal -0.05668898833284501 0.5757529545803033 0.8156561125216004
    outer loop
      vertex 0.0 3.65016259432788 4.713884968982286
      vertex 0.4100917798228719 3.9416267058861965 4.53664895855734
      vertex 0.0 4.206382858046636 4.321261833671658
    endloop
  endfacet
  facet normal 0.05670382093674078 0.6814415708575965 0.7296725719103777
    outer loop
      vertex 0.0 4.206382858046636 4.321261833671658
      vertex 0.4100917798228719 3.9416267058861965 4.53664895855734
      vertex 0.410156250011505 4.439294595789043 4.071871663339961
    endloop
  endfacet
  facet normal -0.056680106881002085 0.33434125653779245 0.9407461345446433
    outer loop
      vertex 0.0 3.0086400326315843 4.9418821421821555
      vertex 0.41015625000186967 3.3371196271303605 4.849852446704709
      vertex 0.0 3.65016259432788 4.713884968982286
    endloop
  endfacet
  facet normal 0.05668348600842562 0.45929908989781154 0.8864712789667665
    outer loop
      vertex 0.0 3.65016259432788 4.713884968982286
      vertex 0.41015625000186967 3.3371196271303605 4.849852446704709
      vertex 0.4100917798228719 3.9416267058861965 4.53664895855734
    endloop
  endfacet
  facet normal -0.05667121150498853 0.06813274067511868 0.9960654112229046
    outer loop
      vertex 0.0 2.3293939665883228 4.988343845952696
      vertex 0.41022072018209005 2.6704055049832274 4.988357554374182
      vertex 0.0 3.0086400326315843 4.9418821421821555
    endloop
  endfacet
  facet normal 0.056694945277069024 0.20307824918501963 0.9775197736557443
    outer loop
      vertex 0.41022072018209005 2.6704055049832274 4.988357554374182
      vertex 0.41015625000186967 3.3371196271303605 4.849852446704709
      vertex 0.0 3.0086400326315843 4.9418821421821555
    endloop
  endfacet
  facet normal -0.0566800759872355 -0.2031289355977643 0.9775101045559583
    outer loop
      vertex 0.0 1.662800969572535 4.849824228273399
      vertex 0.41015625 1.991099518067446 4.941828005739777
      vertex 0.0 2.3293939665883228 4.988343845952696
    endloop
  endfacet
  facet normal 0.05668638141657498 -0.06823107129783071 0.9960578171328434
    outer loop
      vertex 0.0 2.3293939665883228 4.988343845952696
      vertex 0.41015625 1.991099518067446 4.941828005739777
      vertex 0.41022072018209005 2.6704055049832274 4.988357554374182
    endloop
  endfacet
  facet normal -0.056723440930712 -0.4593243005678407 0.8864556605701405
    outer loop
      vertex 0.0 1.0582991947128324 4.536596655502453
      vertex 0.40984188342135247 1.3497414075286867 4.713835224120445
      vertex 0.0 1.662800969572535 4.849824228273399
    endloop
  endfacet
  facet normal 0.056675650970186967 -0.3344363971902831 0.9407125845982335
    outer loop
      vertex 0.0 1.662800969572535 4.849824228273399
      vertex 0.40984188342135247 1.3497414075286867 4.713835224120445
      vertex 0.41015625 1.991099518067446 4.941828005739777
    endloop
  endfacet
  facet normal -0.05677137654046098 -0.6814523248188011 0.7296572755785774
    outer loop
      vertex 0.0 0.5607217732389502 4.071891783791479
      vertex 0.40949475198874496 0.7936171419533646 4.321261833671658
      vertex 0.0 1.0582991947128324 4.536596655502453
    endloop
  endfacet
  facet normal 0.056729515519803334 -0.575792898213574 0.81562509796824
    outer loop
      vertex 0.40949475198874496 0.7936171419533646 4.321261833671658
      vertex 0.40984188342135247 1.3497414075286867 4.713835224120445
      vertex 0.0 1.0582991947128324 4.536596655502453
    endloop
  endfacet
  facet normal -0.056771376540461056 -0.8530414010737024 0.5187459675601499
    outer loop
      vertex 0.0 0.20697174623636738 3.4901746475919513
      vertex 0.40949475198874624 0.3639514886337786 3.793131798064932
      vertex 0.0 0.5607217732389502 4.071891783791479
    endloop
  endfacet
  facet normal 0.05677137654045877 -0.774460227296002 0.6300701287494324
    outer loop
      vertex 0.0 0.5607217732389502 4.071891783791479
      vertex 0.40949475198874624 0.3639514886337786 3.793131798064932
      vertex 0.40949475198874496 0.7936171419533646 4.321261833671658
    endloop
  endfacet
  facet normal -0.05677137654046039 -0.9613642990157106 0.26936164423267966
    outer loop
      vertex 0.0 0.02328513490917311 2.8345885457169646
      vertex 0.40949475198874374 0.09270678163050189 3.168663850868909
      vertex 0.0 0.20697174623636738 3.4901746475919513
    endloop
  endfacet
  facet normal 0.056771376540459814 -0.915732027565714 0.39775855050028464
    outer loop
      vertex 0.0 0.20697174623636738 3.4901746475919513
      vertex 0.40949475198874374 0.09270678163050189 3.168663850868909
      vertex 0.40949475198874624 0.3639514886337786 3.793131798064932
    endloop
  endfacet
  facet normal -0.05677137654046047 -0.9983872048487508 0.0
    outer loop
      vertex 0.0 0.02328513490917311 2.1537553002357317
      vertex 0.40949475198874313 0.0 2.494171922976349
      vertex 0.0 0.02328513490917311 2.8345885457169646
    endloop
  endfacet
  facet normal 0.05677137654046046 -0.9890881725461524 0.13594704018482248
    outer loop
      vertex 0.0 0.02328513490917311 2.8345885457169646
      vertex 0.40949475198874313 0.0 2.494171922976349
      vertex 0.40949475198874374 0.09270678163050189 3.168663850868909
    endloop
  endfacet
  facet normal -0.056771376540459856 -0.9613642990157109 -0.2693616442326792
    outer loop
      vertex 0.0 0.2069717462363671 1.498169198360745
      vertex 0.40949475198874563 0.09270678163050217 1.819679995083786
      vertex 0.0 0.02328513490917311 2.1537553002357317
    endloop
  endfacet
  facet normal 0.0567713765404607 -0.9890881725461526 -0.1359470401848223
    outer loop
      vertex 0.40949475198874563 0.09270678163050217 1.819679995083786
      vertex 0.40949475198874313 0.0 2.494171922976349
      vertex 0.0 0.02328513490917311 2.1537553002357317
    endloop
  endfacet
  facet normal -0.05677137654045983 -0.853041401073703 -0.5187459675601491
    outer loop
      vertex 0.0 0.5607217732389497 0.9164520621612169
      vertex 0.40949475198874624 0.363951488633778 1.195212047887765
      vertex 0.0 0.2069717462363671 1.498169198360745
    endloop
  endfacet
  facet normal 0.056771376540459884 -0.9157320275657139 -0.3977585505002848
    outer loop
      vertex 0.40949475198874624 0.363951488633778 1.195212047887765
      vertex 0.40949475198874563 0.09270678163050217 1.819679995083786
      vertex 0.0 0.2069717462363671 1.498169198360745
    endloop
  endfacet
  facet normal -0.05677137654045994 -0.6814523248188014 -0.7296572755785773
    outer loop
      vertex 0.0 1.0582991947128317 0.4517471904502429
      vertex 0.40949475198874535 0.7936171419533653 0.6670820122810373
      vertex 0.0 0.5607217732389497 0.9164520621612169
    endloop
  endfacet
  facet normal 0.0567713765404606 -0.7744602272960024 -0.6300701287494318
    outer loop
      vertex 0.40949475198874535 0.7936171419533653 0.6670820122810373
      vertex 0.40949475198874624 0.363951488633778 1.195212047887765
      vertex 0.0 0.5607217732389497 0.9164520621612169
    endloop
  endfacet
  facet normal -0.056771376540459814 -0.4593230470690399 -0.8864532414272701
    outer loop
      vertex 0.0 1.662800969572534 0.13851961767929688
      vertex 0.40949475198874624 1.349837405672118 0.27445887697041066
      vertex 0.0 1.0582991947128317 0.4517471904502429
    endloop
  endfacet
  facet normal 0.056771376540460265 -0.5757502548875397 -0.8156522879282779
    outer loop
      vertex 0.0 1.0582991947128317 0.4517471904502429
      vertex 0.40949475198874624 1.349837405672118 0.27445887697041066
      vertex 0.40949475198874535 0.7936171419533653 0.6670820122810373
    endloop
  endfacet
  facet normal -0.05675791951248017 -0.2031280358489733 -0.9775057747270617
    outer loop
      vertex 0.0 2.329393966588322 0.0
      vertex 0.40959215457724346 1.991371950866011 0.04645921360170557
      vertex 0.0 1.662800969572534 0.13851961767929688
    endloop
  endfacet
  facet normal 0.056766672276251574 -0.33434495889302857 -0.9407395991354354
    outer loop
      vertex 0.0 1.662800969572534 0.13851961767929688
      vertex 0.40959215457724346 1.991371950866011 0.04645921360170557
      vertex 0.40949475198874624 1.349837405672118 0.27445887697041066
    endloop
  endfacet
  facet normal -0.05673713048925384 0.06813248518199222 -0.9960616760456007
    outer loop
      vertex 0.0 3.008640032631585 0.046461703770540874
      vertex 0.40974270301594223 2.670672216558732 4.527933478992718e-06
      vertex 0.0 2.329393966588322 0.0
    endloop
  endfacet
  facet normal 0.056756472301125765 -0.06812927656337388 -0.9960607935898705
    outer loop
      vertex 0.40974270301594223 2.670672216558732 4.527933478992718e-06
      vertex 0.40959215457724346 1.991371950866011 0.04645921360170557
      vertex 0.0 2.329393966588322 0.0
    endloop
  endfacet
  facet normal -0.056711294587270394 0.33434066344671004 -0.9407444657462778
    outer loop
      vertex 0.0 3.650162594327881 0.2744588769704101
      vertex 0.4099299838932763 3.3372280904412204 0.13852994581255412
      vertex 0.0 3.008640032631585 0.046461703770540874
    endloop
  endfacet
  facet normal 0.056718343292618704 0.20313221570649256 -0.9775072032861505
    outer loop
      vertex 0.0 3.008640032631585 0.046461703770540874
      vertex 0.4099299838932763 3.3372280904412204 0.13852994581255412
      vertex 0.40974270301594223 2.670672216558732 4.527933478992718e-06
    endloop
  endfacet
  facet normal -0.05670565817210942 0.575752408661236 -0.8156553391304768
    outer loop
      vertex 0.0 4.206382858046636 0.6670820122810378
      vertex 0.40997084360356284 3.941764227931192 0.4517919605163817
      vertex 0.0 3.650162594327881 0.2744588769704101
    endloop
  endfacet
  facet normal 0.056716210765979616 0.45934069884804024 -0.8864476260998971
    outer loop
      vertex 0.40997084360356284 3.941764227931192 0.4517919605163817
      vertex 0.4099299838932763 3.3372280904412204 0.13852994581255412
      vertex 0.0 3.650162594327881 0.2744588769704101
    endloop
  endfacet
  facet normal -0.056664223951141804 0.7744649492508638 -0.6300739703446506
    outer loop
      vertex 0.0 4.636048511366221 1.1952120478877641
      vertex 0.4102716119013406 4.439279984441073 0.9164542226426555
      vertex 0.0 4.206382858046636 0.6670820122810378
    endloop
  endfacet
  facet normal 0.05667257188243666 0.6814495926041014 -0.7296675080719536
    outer loop
      vertex 0.0 4.206382858046636 0.6670820122810378
      vertex 0.4102716119013406 4.439279984441073 0.9164542226426555
      vertex 0.40997084360356284 3.941764227931192 0.4517919605163817
    endloop
  endfacet
  facet normal -0.056589136613341334 0.915741517069012 -0.3977626723732395
    outer loop
      vertex 0.0 4.907293218369499 1.819679995083787
      vertex 0.41081774801125465 4.793028253763633 1.4981691983607448
      vertex 0.0 4.636048511366221 1.1952120478877641
    endloop
  endfacet
  facet normal 0.05662619586604211 0.8530251324662941 -0.5187885863457309
    outer loop
      vertex 0.41081774801125465 4.793028253763633 1.4981691983607448
      vertex 0.4102716119013406 4.439279984441073 0.9164542226426555
      vertex 0.0 4.636048511366221 1.1952120478877641
    endloop
  endfacet
  facet normal 0.03627694134187763 0.955367530274632 -0.29318401324736004
    outer loop
      vertex 0.0 4.907293218369499 1.819679995083787
      vertex 0.41015625 4.956959013946745 2.0322710637155783
      vertex 0.41081774801125465 4.793028253763633 1.4981691983607448
    endloop
  endfacet
  facet normal 0.05677137654045851 0.9157320275657135 0.3977585505002865
    outer loop
      vertex 0.8203125 4.907293218369499 3.168663850868909
      vertex 0.41081774801125437 4.793028253763632 3.4901746475919513
      vertex 0.8203125 4.636048511366221 3.7931317980649313
    endloop
  endfacet
  facet normal -0.03738424264739371 0.955677304114781 0.2920330611447702
    outer loop
      vertex 0.8203125 4.907293218369499 3.168663850868909
      vertex 0.41040524417487656 4.9581173123647995 2.949868399430197
      vertex 0.41081774801125437 4.793028253763632 3.4901746475919513
    endloop
  endfacet
  facet normal 0.05668011000235599 0.7744642497561581 0.6300734012634972
    outer loop
      vertex 0.8203125 4.636048511366221 3.7931317980649313
      vertex 0.410156250011505 4.439294595789043 4.071871663339961
      vertex 0.8203125 4.206382858046636 4.321261833671658
    endloop
  endfacet
  facet normal -0.056721416728467346 0.8530751524352106 0.5186959274777062
    outer loop
      vertex 0.41081774801125437 4.793028253763632 3.4901746475919513
      vertex 0.410156250011505 4.439294595789043 4.071871663339961
      vertex 0.8203125 4.636048511366221 3.7931317980649313
    endloop
  endfacet
  facet normal 0.05667122711598805 0.5757535360636133 0.8156569362957774
    outer loop
      vertex 0.8203125 4.206382858046636 4.321261833671658
      vertex 0.4100917798228719 3.9416267058861965 4.53664895855734
      vertex 0.8203125 3.65016259432788 4.713884968982286
    endloop
  endfacet
  facet normal -0.05669493817474152 0.681449761708266 0.729665612628901
    outer loop
      vertex 0.410156250011505 4.439294595789043 4.071871663339961
      vertex 0.4100917798228719 3.9416267058861965 4.53664895855734
      vertex 0.8203125 4.206382858046636 4.321261833671658
    endloop
  endfacet
  facet normal 0.0566801068815172 0.3343412565377827 0.9407461345446159
    outer loop
      vertex 0.8203125 3.65016259432788 4.713884968982286
      vertex 0.41015625000186967 3.3371196271303605 4.849852446704709
      vertex 0.8203125 3.0086400326315843 4.9418821421821555
    endloop
  endfacet
  facet normal -0.056674603283535484 0.4592897908609662 0.8864766648669009
    outer loop
      vertex 0.4100917798228719 3.9416267058861965 4.53664895855734
      vertex 0.41015625000186967 3.3371196271303605 4.849852446704709
      vertex 0.8203125 3.65016259432788 4.713884968982286
    endloop
  endfacet
  facet normal 0.056688972718351646 0.0681326718643684 0.9960644052453438
    outer loop
      vertex 0.8203125 3.0086400326315843 4.9418821421821555
      vertex 0.41022072018209005 2.6704055049832274 4.988357554374182
      vertex 0.8203125 2.3293939665883228 4.988343845952696
    endloop
  endfacet
  facet normal -0.05670382516580203 0.20306763479266696 0.9775214636575905
    outer loop
      vertex 0.8203125 3.0086400326315843 4.9418821421821555
      vertex 0.41015625000186967 3.3371196271303605 4.849852446704709
      vertex 0.41022072018209005 2.6704055049832274 4.988357554374182
    endloop
  endfacet
  facet normal 0.0566800759872355 -0.2031289355977643 0.9775101045559583
    outer loop
      vertex 0.8203125 2.3293939665883228 4.988343845952696
      vertex 0.41015625 1.991099518067446 4.941828005739777
      vertex 0.8203125 1.662800969572535 4.849824228273399
    endloop
  endfacet
  facet normal -0.056695269786286924 -0.06822032646446789 0.9960580472246292
    outer loop
      vertex 0.41022072018209005 2.6704055049832274 4.988357554374182
      vertex 0.41015625 1.991099518067446 4.941828005739777
      vertex 0.8203125 2.3293939665883228 4.988343845952696
    endloop
  endfacet
  facet normal 0.05663683443811307 -0.4593265626028227 0.886460026099488
    outer loop
      vertex 0.8203125 1.662800969572535 4.849824228273399
      vertex 0.40984188342135247 1.3497414075286867 4.713835224120445
      vertex 0.8203125 1.0582991947128324 4.536596655502453
    endloop
  endfacet
  facet normal -0.05663239133925058 -0.33438791160092085 0.9407324257334667
    outer loop
      vertex 0.41015625 1.991099518067446 4.941828005739777
      vertex 0.40984188342135247 1.3497414075286867 4.713835224120445
      vertex 0.8203125 1.662800969572535 4.849824228273399
    endloop
  endfacet
  facet normal 0.056589136613342035 -0.6814593865397955 0.72966483683549
    outer loop
      vertex 0.8203125 1.0582991947128324 4.536596655502453
      vertex 0.40949475198874496 0.7936171419533646 4.321261833671658
      vertex 0.8203125 0.5607217732389502 4.071891783791479
    endloop
  endfacet
  facet normal -0.05659514205620419 -0.575750084974567 0.8156646550803934
    outer loop
      vertex 0.8203125 1.0582991947128324 4.536596655502453
      vertex 0.40984188342135247 1.3497414075286867 4.713835224120445
      vertex 0.40949475198874496 0.7936171419533646 4.321261833671658
    endloop
  endfacet
  facet normal 0.056589136613342444 -0.853050240929627 0.5187513431956218
    outer loop
      vertex 0.8203125 0.5607217732389502 4.071891783791479
      vertex 0.40949475198874624 0.3639514886337786 3.793131798064932
      vertex 0.8203125 0.20697174623636738 3.4901746475919513
    endloop
  endfacet
  facet normal -0.05658913661334003 -0.7744682528347627 0.6300766580095051
    outer loop
      vertex 0.40949475198874496 0.7936171419533646 4.321261833671658
      vertex 0.40949475198874624 0.3639514886337786 3.793131798064932
      vertex 0.8203125 0.5607217732389502 4.071891783791479
    endloop
  endfacet
  facet normal 0.05658913661334107 -0.9613742613948915 0.26936443556042017
    outer loop
      vertex 0.8203125 0.20697174623636738 3.4901746475919513
      vertex 0.40949475198874374 0.09270678163050189 3.168663850868909
      vertex 0.8203125 0.02328513490917311 2.8345885457169646
    endloop
  endfacet
  facet normal -0.0565891366133409 -0.9157415170690124 0.3977626723732385
    outer loop
      vertex 0.40949475198874624 0.3639514886337786 3.793131798064932
      vertex 0.40949475198874374 0.09270678163050189 3.168663850868909
      vertex 0.8203125 0.20697174623636738 3.4901746475919513
    endloop
  endfacet
  facet normal 0.056589136613341 -0.9983975508870986 0.0
    outer loop
      vertex 0.8203125 0.02328513490917311 2.8345885457169646
      vertex 0.40949475198874313 0.0 2.494171922976349
      vertex 0.8203125 0.02328513490917311 2.1537553002357317
    endloop
  endfacet
  facet normal -0.05658913661334108 -0.9890984222209409 0.13594844897019584
    outer loop
      vertex 0.40949475198874374 0.09270678163050189 3.168663850868909
      vertex 0.40949475198874313 0.0 2.494171922976349
      vertex 0.8203125 0.02328513490917311 2.8345885457169646
    endloop
  endfacet
  facet normal 0.056589136613341105 -0.9613742613948915 -0.2693644355604197
    outer loop
      vertex 0.8203125 0.02328513490917311 2.1537553002357317
      vertex 0.40949475198874563 0.09270678163050217 1.819679995083786
      vertex 0.8203125 0.2069717462363671 1.498169198360745
    endloop
  endfacet
  facet normal -0.056589136613341584 -0.9890984222209409 -0.13594844897019595
    outer loop
      vertex 0.8203125 0.02328513490917311 2.1537553002357317
      vertex 0.40949475198874313 0.0 2.494171922976349
      vertex 0.40949475198874563 0.09270678163050217 1.819679995083786
    endloop
  endfacet
  facet normal 0.05658913661334127 -0.8530502409296274 -0.5187513431956211
    outer loop
      vertex 0.8203125 0.2069717462363671 1.498169198360745
      vertex 0.40949475198874624 0.363951488633778 1.195212047887765
      vertex 0.8203125 0.5607217732389497 0.9164520621612169
    endloop
  endfacet
  facet normal -0.05658913661334122 -0.9157415170690125 -0.39776267237323853
    outer loop
      vertex 0.8203125 0.2069717462363671 1.498169198360745
      vertex 0.40949475198874563 0.09270678163050217 1.819679995083786
      vertex 0.40949475198874624 0.363951488633778 1.195212047887765
    endloop
  endfacet
  facet normal 0.0565891366133411 -0.6814593865397958 -0.7296648368354898
    outer loop
      vertex 0.8203125 0.5607217732389497 0.9164520621612169
      vertex 0.40949475198874535 0.7936171419533653 0.6670820122810373
      vertex 0.8203125 1.0582991947128317 0.4517471904502429
    endloop
  endfacet
  facet normal -0.056589136613341896 -0.774468252834763 -0.6300766580095045
    outer loop
      vertex 0.8203125 0.5607217732389497 0.9164520621612169
      vertex 0.40949475198874624 0.363951488633778 1.195212047887765
      vertex 0.40949475198874535 0.7936171419533653 0.6670820122810373
    endloop
  endfacet
  facet normal 0.05658913661334121 -0.45932780691956276 -0.8864624275217882
    outer loop
      vertex 0.8203125 1.0582991947128317 0.4517471904502429
      vertex 0.40949475198874624 1.349837405672118 0.27445887697041066
      vertex 0.8203125 1.662800969572534 0.13851961767929688
    endloop
  endfacet
  facet normal -0.05658913661334152 -0.5757562212442666 -0.81566074033012
    outer loop
      vertex 0.40949475198874535 0.7936171419533653 0.6670820122810373
      vertex 0.40949475198874624 1.349837405672118 0.27445887697041066
      vertex 0.8203125 1.0582991947128317 0.4517471904502429
    endloop
  endfacet
  facet normal 0.05660251369912738 -0.20312983086377215 -0.9775144128125148
    outer loop
      vertex 0.8203125 1.662800969572534 0.13851961767929688
      vertex 0.40959215457724346 1.991371950866011 0.04645921360170557
      vertex 0.8203125 2.329393966588322 0.0
    endloop
  endfacet
  facet normal -0.05659784318835628 -0.33433288703411507 -0.9407540618003517
    outer loop
      vertex 0.40949475198874624 1.349837405672118 0.27445887697041066
      vertex 0.40959215457724346 1.991371950866011 0.04645921360170557
      vertex 0.8203125 1.662800969572534 0.13851961767929688
    endloop
  endfacet
  facet normal 0.0566232002127374 0.06813292657289392 -0.996068128952172
    outer loop
      vertex 0.8203125 2.329393966588322 0.0
      vertex 0.40974270301594223 2.670672216558732 4.527933478992718e-06
      vertex 0.8203125 3.008640032631585 0.046461703770540874
    endloop
  endfacet
  facet normal -0.05662178077860811 -0.06810478810723262 -0.9960701339656401
    outer loop
      vertex 0.8203125 2.329393966588322 0.0
      vertex 0.40959215457724346 1.991371950866011 0.04645921360170557
      vertex 0.40974270301594223 2.670672216558732 4.527933478992718e-06
    endloop
  endfacet
  facet normal 0.056648959366122485 0.334341848537889 -0.9407478002732734
    outer loop
      vertex 0.8203125 3.008640032631585 0.046461703770540874
      vertex 0.4099299838932763 3.3372280904412204 0.13852994581255412
      vertex 0.8203125 3.650162594327881 0.2744588769704101
    endloop
  endfacet
  facet normal -0.05663021593370373 0.20316376238327222 -0.9775057566570007
    outer loop
      vertex 0.40974270301594223 2.670672216558732 4.527933478992718e-06
      vertex 0.4099299838932763 3.3372280904412204 0.13852994581255412
      vertex 0.8203125 3.008640032631585 0.046461703770540874
    endloop
  endfacet
  facet normal 0.056654579611339254 0.5757540809192072 -0.8156577081803011
    outer loop
      vertex 0.8203125 3.650162594327881 0.2744588769704101
      vertex 0.40997084360356284 3.941764227931192 0.4517919605163817
      vertex 0.8203125 4.206382858046636 0.6670820122810378
    endloop
  endfacet
  facet normal -0.05665949529474747 0.4593482212716548 -0.8864473550118538
    outer loop
      vertex 0.8203125 3.650162594327881 0.2744588769704101
      vertex 0.4099299838932763 3.3372280904412204 0.13852994581255412
      vertex 0.40997084360356284 3.941764227931192 0.4517919605163817
    endloop
  endfacet
  facet normal 0.05669600559176201 0.7744635496445786 -0.6300728316804799
    outer loop
      vertex 0.8203125 4.206382858046636 0.6670820122810378
      vertex 0.4102716119013406 4.439279984441073 0.9164542226426555
      vertex 0.8203125 4.636048511366221 1.1952120478877641
    endloop
  endfacet
  facet normal -0.056662920623061455 0.6814865611879559 -0.7296337302692901
    outer loop
      vertex 0.40997084360356284 3.941764227931192 0.4517919605163817
      vertex 0.4102716119013406 4.439279984441073 0.9164542226426555
      vertex 0.8203125 4.206382858046636 0.6670820122810378
    endloop
  endfacet
  facet normal 0.056771376540460175 0.9157320275657135 -0.397758550500286
    outer loop
      vertex 0.8203125 4.636048511366221 1.1952120478877641
      vertex 0.41081774801125465 4.793028253763633 1.4981691983607448
      vertex 0.8203125 4.907293218369499 1.819679995083787
    endloop
  endfacet
  facet normal -0.05673320533808972 0.8530671888948282 -0.5187077352836967
    outer loop
      vertex 0.8203125 4.636048511366221 1.1952120478877641
      vertex 0.4102716119013406 4.439279984441073 0.9164542226426555
      vertex 0.41081774801125465 4.793028253763633 1.4981691983607448
    endloop
  endfacet
  facet normal -0.03632252797964504 0.9553407255069283 -0.2932657023060551
    outer loop
      vertex 0.41081774801125465 4.793028253763633 1.4981691983607448
      vertex 0.41015625 4.956959013946745 2.0322710637155783
      vertex 0.8203125 4.907293218369499 1.819679995083787
    endloop
  endfacet
endsolid abc_50_010
