solid abc_50_014
  facet normal 0.0 -0.0 1.0
    outer loop
      vertex 0.532665596572952 0.8499999999999972 0.5750000000000001
      vertex 0.532665596572952 1.35 0.5750000000000001
      vertex 0.3249999999999997 1.35 0.5750000000000001
    endloop
  endfacet
  facet normal 0.0 0.0 1.0
    outer loop
      vertex 0.3250000000000004 0.35000000000000003 0.5750000000000001
      vertex 0.532665596572952 0.35000000000000003 0.5750000000000001
      vertex 0.532665596572952 0.8499999999999972 0.5750000000000001
    endloop
  endfacet
  facet normal 0.0 0.0 1.0
    outer loop
      vertex 0.3249999999999997 1.35 0.5750000000000001
      vertex 0.117334403427048 1.35 0.5750000000000001
      vertex 0.117334403427048 0.8499999999999972 0.5750000000000001
    endloop
  endfacet
  facet normal 0.0 0.0 1.0
    outer loop
      vertex 0.117334403427048 0.8499999999999972 0.5750000000000001
      vertex 0.117334403427048 0.35000000000000003 0.5750000000000001
      vertex 0.3250000000000004 0.35000000000000003 0.5750000000000001
    endloop
  endfacet
  facet normal 0.0 0.0 1.0
    outer loop
      vertex 0.117334403427048 0.8499999999999972 0.5750000000000001
      vertex 0.532665596572952 0.8499999999999972 0.5750000000000001
      vertex 0.3249999999999997 1.35 0.5750000000000001
    endloop
  endfacet
  facet normal 0.0 -0.0 1.0
    outer loop
      vertex 0.3250000000000004 0.35000000000000003 0.5750000000000001
      vertex 0.532665596572952 0.8499999999999972 0.5750000000000001
      vertex 0.117334403427048 0.8499999999999972 0.5750000000000001
    endloop
  endfacet
  facet normal 0.0 -1.0 0.0
    outer loop
      vertex 0.3249999999999997 1.35 0.5750000000000001
      vertex 0.532665596572952 1.35 0.5750000000000001
      vertex 0.3250000000000008 1.35 0.65
    endloop
  endfacet
  facet normal 0.0 -1.0 0.0
    outer loop
      vertex 0.3250000000000008 1.35 0.65
      vertex 0.117334403427048 1.35 0.5750000000000001
      vertex 0.3249999999999997 1.35 0.5750000000000001
    endloop
  endfacet
  facet normal 0.0 1.0 0.0
    outer loop
      vertex 0.32499999999999934 0.35000000000000003 0.65
      vertex 0.532665596572952 0.35000000000000003 0.5750000000000001
      vertex 0.3250000000000004 0.35000000000000003 0.5750000000000001
    endloop
  endfacet
  facet normal 0.0 1.0 0.0
    outer loop
      vertex 0.3250000000000004 0.35000000000000003 0.5750000000000001
      vertex 0.117334403427048 0.35000000000000003 0.5750000000000001
      vertex 0.32499999999999934 0.35000000000000003 0.65
    endloop
  endfacet
  facet normal 0.9052544024688072 0.0 0.42486994105354525
    outer loop
      vertex 0.532665596572952 1.35 0.5750000000000001
      vertex 0.532665596572952 0.8499999999999972 0.5750000000000001
      vertex 0.65 1.0600000000000003 0.325
    endloop
  endfacet
  facet normal 0.33815351301290253 -0.09479318288228944 0.9363046801741821
    outer loop
      vertex 0.532665596572952 1.35 0.5750000000000001
      vertex 0.43539701082909854 1.5529418082008128 0.630675481515937
      vertex 0.3250000000000008 1.35 0.65
    endloop
  endfacet
  facet normal 0.905254402468807 -0.0 0.42486994105354514
    outer loop
      vertex 0.65 1.0600000000000003 0.325
      vertex 0.65 1.5525 0.325
      vertex 0.532665596572952 1.35 0.5750000000000001
    endloop
  endfacet
  facet normal 0.796929464696594 0.22856071268901818 0.5591631505325508
    outer loop
      vertex 0.65 1.5525 0.325
      vertex 0.43539701082909854 1.5529418082008128 0.630675481515937
      vertex 0.532665596572952 1.35 0.5750000000000001
    endloop
  endfacet
  facet normal 0.9052544024688072 0.0 0.4248699410535452
    outer loop
      vertex 0.532665596572952 0.8499999999999972 0.5750000000000001
      vertex 0.532665596572952 0.35000000000000003 0.5750000000000001
      vertex 0.65 0.5674999999999998 0.325
    endloop
  endfacet
  facet normal 0.3395879446913484 0.023669412948121565 0.9402764416441566
    outer loop
      vertex 0.532665596572952 0.35000000000000003 0.5750000000000001
      vertex 0.32499999999999934 0.35000000000000003 0.65
      vertex 0.516030206995054 0.07500000000000001 0.5879305231718578
    endloop
  endfacet
  facet normal 0.8438146660478144 0.14019028608237571 0.5179995106665229
    outer loop
      vertex 0.532665596572952 0.35000000000000003 0.5750000000000001
      vertex 0.6139043445798706 0.23472851929472968 0.47385993310113844
      vertex 0.65 0.5674999999999998 0.325
    endloop
  endfacet
  facet normal 0.770202502422773 -0.016612132048360866 0.63758304739893
    outer loop
      vertex 0.516030206995054 0.07500000000000001 0.5879305231718578
      vertex 0.6139043445798706 0.23472851929472968 0.47385993310113844
      vertex 0.532665596572952 0.35000000000000003 0.5750000000000001
    endloop
  endfacet
  facet normal -0.8881891974871738 0.0 0.45947790966170493
    outer loop
      vertex 0.117334403427048 1.35 0.5750000000000001
      vertex 0.0009674460133604957 1.0669248493315102 0.35005801183046215
      vertex 0.117334403427048 0.8499999999999972 0.5750000000000001
    endloop
  endfacet
  facet normal -0.33799568867230373 -0.0995519553002118 0.9358676843629337
    outer loop
      vertex 0.3250000000000008 1.35 0.65
      vertex 0.21029163483316912 1.5428258342420003 0.6290838551464926
      vertex 0.117334403427048 1.35 0.5750000000000001
    endloop
  endfacet
  facet normal -0.898902277377405 0.021783105504148147 0.4376073491616772
    outer loop
      vertex 0.117334403427048 1.35 0.5750000000000001
      vertex 0.00011578107238725545 1.3609163870734677 0.33367434676474067
      vertex 0.0009674460133604957 1.0669248493315102 0.35005801183046215
    endloop
  endfacet
  facet normal -0.6682278172652837 0.11602649693430811 0.734853343356365
    outer loop
      vertex 0.117334403427048 1.35 0.5750000000000001
      vertex 0.21029163483316912 1.5428258342420003 0.6290838551464926
      vertex 0.01656602091266648 1.7042330492272328 0.42743769103388785
    endloop
  endfacet
  facet normal -0.8982893235839016 -0.0751936160260927 0.43292286985570194
    outer loop
      vertex 0.01656602091266648 1.7042330492272328 0.42743769103388785
      vertex 0.00011578107238725545 1.3609163870734677 0.33367434676474067
      vertex 0.117334403427048 1.35 0.5750000000000001
    endloop
  endfacet
  facet normal -0.9378323907051216 0.0 0.3470884713503406
    outer loop
      vertex 0.117334403427048 0.8499999999999972 0.5750000000000001
      vertex 0.00461411584566549 0.6000000000000001 0.2704299969337975
      vertex 0.117334403427048 0.35000000000000003 0.5750000000000001
    endloop
  endfacet
  facet normal -0.33886217544586394 0.06948159793432075 0.9382668775996466
    outer loop
      vertex 0.32499999999999934 0.35000000000000003 0.65
      vertex 0.117334403427048 0.35000000000000003 0.5750000000000001
      vertex 0.22456947682814238 0.07500000000000001 0.634093367795925
    endloop
  endfacet
  facet normal -0.7017507114929715 -0.12284900422150101 0.7017507114929731
    outer loop
      vertex 0.22456947682814238 0.07500000000000001 0.634093367795925
      vertex 0.117334403427048 0.35000000000000003 0.5750000000000001
      vertex 0.015906632204075243 0.07500000000000001 0.42543052317185825
    endloop
  endfacet
  facet normal -0.909411554069223 0.11860838965988679 0.39862598413511546
    outer loop
      vertex 0.117334403427048 0.35000000000000003 0.5750000000000001
      vertex 9.409532617277172e-05 0.31757462500221223 0.3171799547263573
      vertex 0.015906632204075243 0.07500000000000001 0.42543052317185825
    endloop
  endfacet
  facet normal -0.91109610687685 0.08146617520896424 0.40406329495596316
    outer loop
      vertex 0.00461411584566549 0.6000000000000001 0.2704299969337975
      vertex 9.409532617277172e-05 0.31757462500221223 0.3171799547263573
      vertex 0.117334403427048 0.35000000000000003 0.5750000000000001
    endloop
  endfacet
  facet normal 0.9009688679024195 -0.0 0.4338837391175576
    outer loop
      vertex 0.65 4.5075 0.325
      vertex 0.65 5.0 0.325
      vertex 0.5276341856040887 5.0 0.5790952318021095
    endloop
  endfacet
  facet normal 0.9009688679024189 0.0 -0.43388373911755845
    outer loop
      vertex 0.5276341856040881 5.0 0.07090476819789
      vertex 0.65 5.0 0.325
      vertex 0.65 4.5075 0.325
    endloop
  endfacet
  facet normal 0.8977853782735987 0.0 -0.440433212369516
    outer loop
      vertex 0.65 0.07500000000000001 0.325
      vertex 0.5239120805372147 0.32124999999999987 0.06798057618857549
      vertex 0.65 0.5674999999999998 0.325
    endloop
  endfacet
  facet normal 0.9718375494034844 0.0 0.23565181427145804
    outer loop
      vertex 0.65 0.5674999999999998 0.325
      vertex 0.6139043445798706 0.23472851929472968 0.47385993310113844
      vertex 0.65 0.07500000000000001 0.325
    endloop
  endfacet
  facet normal 0.9213848855018056 0.07343760565364657 -0.38165011574043023
    outer loop
      vertex 0.5548097038856276 0.07500000000000001 0.09519029611437171
      vertex 0.5239120805372147 0.32124999999999987 0.06798057618857549
      vertex 0.65 0.07500000000000001 0.325
    endloop
  endfacet
  facet normal 0.8698762476801316 -0.21648954528898978 0.44322408610374575
    outer loop
      vertex 0.65 0.07500000000000001 0.325
      vertex 0.6139043445798706 0.23472851929472968 0.47385993310113844
      vertex 0.516030206995054 0.07500000000000001 0.5879305231718578
    endloop
  endfacet
  facet normal 0.382125276347165 -0.05399015290849305 -0.9225320246828943
    outer loop
      vertex 0.325 0.07500000000000001 0.0
      vertex 0.5239120805372147 0.32124999999999987 0.06798057618857549
      vertex 0.5548097038856276 0.07500000000000001 0.09519029611437171
    endloop
  endfacet
  facet normal -0.44882488701767087 -0.1504227876240057 -0.880868438393043
    outer loop
      vertex 0.06206947682814201 0.07500000000000001 0.1339697930049463
      vertex 0.17745308758464745 0.30780933811281774 0.035422879638780234
      vertex 0.325 0.07500000000000001 0.0
    endloop
  endfacet
  facet normal 0.08388169261915572 0.20164260397461617 -0.9758607082497387
    outer loop
      vertex 0.17745308758464745 0.30780933811281774 0.035422879638780234
      vertex 0.5239120805372147 0.32124999999999987 0.06798057618857549
      vertex 0.325 0.07500000000000001 0.0
    endloop
  endfacet
  facet normal 0.9052544024688072 0.0 0.4248699410535452
    outer loop
      vertex 0.65 1.0600000000000003 0.325
      vertex 0.532665596572952 0.8499999999999972 0.5750000000000001
      vertex 0.65 0.5674999999999998 0.325
    endloop
  endfacet
  facet normal -0.9134568412566977 -0.0753322138670779 0.3999020589034534
    outer loop
      vertex 0.117334403427048 0.8499999999999972 0.5750000000000001
      vertex 0.0009674460133604957 1.0669248493315102 0.35005801183046215
      vertex 0.00461411584566549 0.6000000000000001 0.2704299969337975
    endloop
  endfacet
  facet normal -0.011573852437500089 0.10102438318463072 0.9948166262894483
    outer loop
      vertex 0.43539701082909854 1.5529418082008128 0.630675481515937
      vertex 0.21029163483316912 1.5428258342420003 0.6290838551464926
      vertex 0.3250000000000008 1.35 0.65
    endloop
  endfacet
  facet normal 0.1554231972037718 -0.11352169460521838 0.9813034467609482
    outer loop
      vertex 0.516030206995054 0.07500000000000001 0.5879305231718578
      vertex 0.32499999999999934 0.35000000000000003 0.65
      vertex 0.22456947682814238 0.07500000000000001 0.634093367795925
    endloop
  endfacet
  facet normal 0.2224850418871782 0.017960205240184404 0.9747706587521964
    outer loop
      vertex 0.25268069646419855 5.0 0.6418515714590929
      vertex 0.26463697747170783 4.716554943131693 0.6443451197548647
      vertex 0.5276341856040887 5.0 0.5790952318021095
    endloop
  endfacet
  facet normal 0.512674154323544 -0.289626111687543 0.808258576766986
    outer loop
      vertex 0.5276341856040887 5.0 0.5790952318021095
      vertex 0.26463697747170783 4.716554943131693 0.6443451197548647
      vertex 0.65 4.5075 0.325
    endloop
  endfacet
  facet normal -0.6184595508019555 0.12677027104774982 0.7755237471543497
    outer loop
      vertex 0.03218511793171426 5.0 0.4660122152132076
      vertex 0.08366484213834068 4.782160527859207 0.5426748528881735
      vertex 0.25268069646419855 5.0 0.6418515714590929
    endloop
  endfacet
  facet normal -0.4933777260442511 -0.013160521941389924 0.8697155972532826
    outer loop
      vertex 0.25268069646419855 5.0 0.6418515714590929
      vertex 0.08366484213834068 4.782160527859207 0.5426748528881735
      vertex 0.26463697747170783 4.716554943131693 0.6443451197548647
    endloop
  endfacet
  facet normal -0.9912794621764193 0.1317764313799282 3.585229485241325e-15
    outer loop
      vertex 0.03218511793171324 5.0 0.18398778478679495
      vertex 0.0 4.757889585722281 0.32500000000000157
      vertex 0.03218511793171426 5.0 0.4660122152132076
    endloop
  endfacet
  facet normal -0.9262284874004484 -0.09006643160477233 0.36604484291663
    outer loop
      vertex 0.0 4.757889585722281 0.32500000000000157
      vertex 0.08366484213834068 4.782160527859207 0.5426748528881735
      vertex 0.03218511793171426 5.0 0.4660122152132076
    endloop
  endfacet
  facet normal -0.6184031918424204 0.12747556784570965 -0.7754530752544091
    outer loop
      vertex 0.25268069646419694 5.0 0.008148428540907516
      vertex 0.10015146851867912 4.7600048521863405 0.09033398650274589
      vertex 0.03218511793171324 5.0 0.18398778478679495
    endloop
  endfacet
  facet normal -0.9141851546111098 -0.10626995223069088 -0.3911166070899419
    outer loop
      vertex 0.03218511793171324 5.0 0.18398778478679495
      vertex 0.10015146851867912 4.7600048521863405 0.09033398650274589
      vertex 0.0 4.757889585722281 0.32500000000000157
    endloop
  endfacet
  facet normal 0.22111352487001795 0.11229280678345174 -0.9687616500792392
    outer loop
      vertex 0.5276341856040881 5.0 0.07090476819789
      vertex 0.35156109260472923 4.744378552190731 0.0010871901890217473
      vertex 0.25268069646419694 5.0 0.008148428540907516
    endloop
  endfacet
  facet normal -0.33847504806890166 -0.10509943867079981 -0.9350875626516681
    outer loop
      vertex 0.35156109260472923 4.744378552190731 0.0010871901890217473
      vertex 0.10015146851867912 4.7600048521863405 0.09033398650274589
      vertex 0.25268069646419694 5.0 0.008148428540907516
    endloop
  endfacet
  facet normal 0.6269997993567116 -0.22846306663330967 -0.7447656536059832
    outer loop
      vertex 0.65 4.5075 0.325
      vertex 0.35156109260472923 4.744378552190731 0.0010871901890217473
      vertex 0.5276341856040881 5.0 0.07090476819789
    endloop
  endfacet
  facet normal 0.7444337729867834 0.0 0.6676963064422795
    outer loop
      vertex 0.65 4.5075 0.325
      vertex 0.36021806753616964 4.222455524991297 0.6480861923992075
      vertex 0.65 4.015 0.325
    endloop
  endfacet
  facet normal 0.7985590245133579 0.0 -0.6019165094664494
    outer loop
      vertex 0.65 4.015 0.325
      vertex 0.4145027351606218 4.233237910301046 0.0125671905852915
      vertex 0.65 4.5075 0.325
    endloop
  endfacet
  facet normal 0.674850974094161 0.13603824289770727 0.7253066656480321
    outer loop
      vertex 0.65 4.5075 0.325
      vertex 0.26463697747170783 4.716554943131693 0.6443451197548647
      vertex 0.36021806753616964 4.222455524991297 0.6480861923992075
    endloop
  endfacet
  facet normal 0.7613457643514434 0.07929954990479818 -0.6434782113552974
    outer loop
      vertex 0.65 4.5075 0.325
      vertex 0.4145027351606218 4.233237910301046 0.0125671905852915
      vertex 0.35156109260472923 4.744378552190731 0.0010871901890217473
    endloop
  endfacet
  facet normal 0.7493796146257634 0.0 -0.6621406143587194
    outer loop
      vertex 0.65 3.5225000000000004 0.325
      vertex 0.36502037443082747 3.758474508591337 0.002473459029467762
      vertex 0.65 4.015 0.325
    endloop
  endfacet
  facet normal 0.8771864916330722 0.0 0.4801498296328578
    outer loop
      vertex 0.65 4.015 0.325
      vertex 0.5001464917172996 3.7687499999999994 0.5987676139340112
      vertex 0.65 3.5225000000000004 0.325
    endloop
  endfacet
  facet normal 0.7736149802397297 -0.06723443370643255 -0.6300788786119225
    outer loop
      vertex 0.36502037443082747 3.758474508591337 0.002473459029467762
      vertex 0.4145027351606218 4.233237910301046 0.0125671905852915
      vertex 0.65 4.015 0.325
    endloop
  endfacet
  facet normal 0.7866696587207727 0.17837104519346902 0.5910453605982647
    outer loop
      vertex 0.36021806753616964 4.222455524991297 0.6480861923992075
      vertex 0.5001464917172996 3.7687499999999994 0.5987676139340112
      vertex 0.65 4.015 0.325
    endloop
  endfacet
  facet normal 0.6273682755334005 0.0 -0.7787227021567096
    outer loop
      vertex 0.65 3.03 0.325
      vertex 0.25583411954473934 3.2201666657725525 0.007445152799003019
      vertex 0.65 3.5225000000000004 0.325
    endloop
  endfacet
  facet normal 0.5372939527682314 0.0 0.8433950487871561
    outer loop
      vertex 0.65 3.5225000000000004 0.325
      vertex 0.18764511459285177 3.363431838627915 0.6195481886802043
      vertex 0.65 3.03 0.325
    endloop
  endfacet
  facet normal 0.6860490238599416 -0.14573630343406901 -0.7128096988132204
    outer loop
      vertex 0.65 3.5225000000000004 0.325
      vertex 0.25583411954473934 3.2201666657725525 0.007445152799003019
      vertex 0.36502037443082747 3.758474508591337 0.002473459029467762
    endloop
  endfacet
  facet normal 0.5860709076731223 -0.4162202607952854 0.6951845695084918
    outer loop
      vertex 0.65 3.5225000000000004 0.325
      vertex 0.5001464917172996 3.7687499999999994 0.5987676139340112
      vertex 0.18764511459285177 3.363431838627915 0.6195481886802043
    endloop
  endfacet
  facet normal 0.7923280882714663 0.0 0.6100952389062576
    outer loop
      vertex 0.65 3.03 0.325
      vertex 0.4080594696515458 2.78375 0.639207136298977
      vertex 0.65 2.5375 0.325
    endloop
  endfacet
  facet normal 0.7438852793052529 0.0 -0.6683073329187298
    outer loop
      vertex 0.65 2.5375 0.325
      vertex 0.35968745069858504 2.734360238871716 0.0018564084435012341
      vertex 0.65 3.03 0.325
    endloop
  endfacet
  facet normal 0.6484738017675556 0.27070000255193793 0.7114796111200333
    outer loop
      vertex 0.65 3.03 0.325
      vertex 0.18764511459285177 3.363431838627915 0.6195481886802043
      vertex 0.4080594696515458 2.78375 0.639207136298977
    endloop
  endfacet
  facet normal 0.6631845212688656 0.15020745757283444 -0.7332284844704894
    outer loop
      vertex 0.35968745069858504 2.734360238871716 0.0018564084435012341
      vertex 0.25583411954473934 3.2201666657725525 0.007445152799003019
      vertex 0.65 3.03 0.325
    endloop
  endfacet
  facet normal 0.7784564202271271 0.0 -0.627698655253591
    outer loop
      vertex 0.65 2.045 0.325
      vertex 0.3938963588253418 2.2586961992108328 0.007386568702440233
      vertex 0.65 2.5375 0.325
    endloop
  endfacet
  facet normal 0.7423748141276523 0.0 0.6699848023268392
    outer loop
      vertex 0.65 2.5375 0.325
      vertex 0.35822823702319295 2.3047853390226023 0.6482968980122306
      vertex 0.65 2.045 0.325
    endloop
  endfacet
  facet normal 0.764319562673278 -0.0673486472324406 0.6413109743571284
    outer loop
      vertex 0.4080594696515458 2.78375 0.639207136298977
      vertex 0.35822823702319295 2.3047853390226023 0.6482968980122306
      vertex 0.65 2.5375 0.325
    endloop
  endfacet
  facet normal 0.757095687987675 0.04687310837368115 -0.6516203119469636
    outer loop
      vertex 0.3938963588253418 2.2586961992108328 0.007386568702440233
      vertex 0.35968745069858504 2.734360238871716 0.0018564084435012341
      vertex 0.65 2.5375 0.325
    endloop
  endfacet
  facet normal 0.7794467082295105 0.0 -0.6264685379411965
    outer loop
      vertex 0.65 1.5525 0.325
      vertex 0.39489916113038265 1.794848863329265 0.007605754190046988
      vertex 0.65 2.045 0.325
    endloop
  endfacet
  facet normal 0.9521491416512576 0.0 0.30563378748556824
    outer loop
      vertex 0.65 2.045 0.325
      vertex 0.5892821921656974 1.7987499999999998 0.5141558164691038
      vertex 0.65 1.5525 0.325
    endloop
  endfacet
  facet normal 0.7789116583932956 0.0013876034115629743 -0.6271321256129193
    outer loop
      vertex 0.39489916113038265 1.794848863329265 0.007605754190046988
      vertex 0.3938963588253418 2.2586961992108328 0.007386568702440233
      vertex 0.65 2.045 0.325
    endloop
  endfacet
  facet normal 0.7173224081456685 -0.05838528054251384 0.6942908049139574
    outer loop
      vertex 0.65 2.045 0.325
      vertex 0.35822823702319295 2.3047853390226023 0.6482968980122306
      vertex 0.324484018566615 1.91045101094004 0.6499995904046041
    endloop
  endfacet
  facet normal 0.5482219625616849 0.4202531412110759 0.723076743553019
    outer loop
      vertex 0.324484018566615 1.91045101094004 0.6499995904046041
      vertex 0.5892821921656974 1.7987499999999998 0.5141558164691038
      vertex 0.65 2.045 0.325
    endloop
  endfacet
  facet normal 0.7784564202271281 0.0 -0.6276986552535896
    outer loop
      vertex 0.65 1.0600000000000003 0.325
      vertex 0.39389635882534296 1.3388038007891674 0.0073865687024404995
      vertex 0.65 1.5525 0.325
    endloop
  endfacet
  facet normal 0.7957189044723878 -0.23317819823891087 0.5589806373492003
    outer loop
      vertex 0.65 1.5525 0.325
      vertex 0.5892821921656974 1.7987499999999998 0.5141558164691038
      vertex 0.43539701082909854 1.5529418082008128 0.630675481515937
    endloop
  endfacet
  facet normal 0.778919437371273 -0.00141136507925301 -0.627122410804966
    outer loop
      vertex 0.65 1.5525 0.325
      vertex 0.39389635882534296 1.3388038007891674 0.0073865687024404995
      vertex 0.39489916113038265 1.794848863329265 0.007605754190046988
    endloop
  endfacet
  facet normal 0.7122237012837747 0.0 -0.7019525620222784
    outer loop
      vertex 0.65 0.5674999999999998 0.325
      vertex 0.32972069043573365 0.8860793333069523 3.4286298062014e-05
      vertex 0.65 1.0600000000000003 0.325
    endloop
  endfacet
  facet normal 0.7335820686091036 -0.09305563849807816 -0.6731998193396249
    outer loop
      vertex 0.32972069043573365 0.8860793333069523 3.4286298062014e-05
      vertex 0.39389635882534296 1.3388038007891674 0.0073865687024404995
      vertex 0.65 1.0600000000000003 0.325
    endloop
  endfacet
  facet normal 0.727045136029998 0.031299493963965946 -0.6858758720444402
    outer loop
      vertex 0.65 0.5674999999999998 0.325
      vertex 0.3455800547268784 0.5312293279075079 0.0006522524397022611
      vertex 0.32972069043573365 0.8860793333069523 3.4286298062014e-05
    endloop
  endfacet
  facet normal 0.6628855716890216 0.35090532654645 -0.6613986472981693
    outer loop
      vertex 0.5239120805372147 0.32124999999999987 0.06798057618857549
      vertex 0.3455800547268784 0.5312293279075079 0.0006522524397022611
      vertex 0.65 0.5674999999999998 0.325
    endloop
  endfacet
  facet normal -0.978913560010582 -0.13300146754693382 -0.15504467632837446
    outer loop
      vertex 0.015906632204075243 0.07500000000000001 0.42543052317185825
      vertex 9.409532617277172e-05 0.31757462500221223 0.3171799547263573
      vertex 0.06206947682814201 0.07500000000000001 0.1339697930049463
    endloop
  endfacet
  facet normal -0.8284115775013483 0.18709475446256824 -0.5279486822734941
    outer loop
      vertex 0.06206947682814201 0.07500000000000001 0.1339697930049463
      vertex 9.409532617277172e-05 0.31757462500221223 0.3171799547263573
      vertex 0.17745308758464745 0.30780933811281774 0.035422879638780234
    endloop
  endfacet
  facet normal -0.6166115037113652 0.11787971015750864 -0.7783923351523903
    outer loop
      vertex 0.25583411954473934 3.2201666657725525 0.007445152799003019
      vertex 0.007738709261525978 3.5537863039463797 0.25449983405014254
      vertex 0.36502037443082747 3.758474508591337 0.002473459029467762
    endloop
  endfacet
  facet normal -0.5338632937454771 -0.1017118985617787 -0.839431160538009
    outer loop
      vertex 0.007738709261525978 3.5537863039463797 0.25449983405014254
      vertex 0.0325274075674765 4.011461725333603 0.18327920873845305
      vertex 0.36502037443082747 3.758474508591337 0.002473459029467762
    endloop
  endfacet
  facet normal -0.43825679179633864 0.06473786116598303 -0.8965154732496449
    outer loop
      vertex 0.0325274075674765 4.011461725333603 0.18327920873845305
      vertex 0.4145027351606218 4.233237910301046 0.0125671905852915
      vertex 0.36502037443082747 3.758474508591337 0.002473459029467762
    endloop
  endfacet
  facet normal -0.3964974468353983 -0.1198945336229084 0.9101731019209235
    outer loop
      vertex 0.18764511459285177 3.363431838627915 0.6195481886802043
      vertex 0.04922171865960952 2.8906075861030365 0.49696319240157316
      vertex 0.4080594696515458 2.78375 0.639207136298977
    endloop
  endfacet
  facet normal -0.3770925234814349 0.056776354438302486 0.9244337046598309
    outer loop
      vertex 0.4080594696515458 2.78375 0.639207136298977
      vertex 0.059381119011525256 2.5346520186421415 0.5122741574869061
      vertex 0.35822823702319295 2.3047853390226023 0.6482968980122306
    endloop
  endfacet
  facet normal -0.3606588376949852 0.029804655297196284 0.9322214786814974
    outer loop
      vertex 0.4080594696515458 2.78375 0.639207136298977
      vertex 0.04922171865960952 2.8906075861030365 0.49696319240157316
      vertex 0.059381119011525256 2.5346520186421415 0.5122741574869061
    endloop
  endfacet
  facet normal -0.9657689562611044 -0.2536947540347213 0.05412296090938624
    outer loop
      vertex 0.07687649236382672 4.420454305628762 0.11509591486032988
      vertex 0.07548210481903715 4.514969866610615 0.533244615739428
      vertex 0.0 4.757889585722281 0.32500000000000157
    endloop
  endfacet
  facet normal -0.9193063598458058 0.03442584689917803 -0.3920340263450715
    outer loop
      vertex 0.0 4.757889585722281 0.32500000000000157
      vertex 0.10015146851867912 4.7600048521863405 0.09033398650274589
      vertex 0.07687649236382672 4.420454305628762 0.11509591486032988
    endloop
  endfacet
  facet normal -0.9339029528428267 0.015994936188877096 0.3571686390037103
    outer loop
      vertex 0.07548210481903715 4.514969866610615 0.533244615739428
      vertex 0.08366484213834068 4.782160527859207 0.5426748528881735
      vertex 0.0 4.757889585722281 0.32500000000000157
    endloop
  endfacet
  facet normal 0.48856434355661676 0.10475047261433956 0.8662171902543636
    outer loop
      vertex 0.43539701082909854 1.5529418082008128 0.630675481515937
      vertex 0.5892821921656974 1.7987499999999998 0.5141558164691038
      vertex 0.324484018566615 1.91045101094004 0.6499995904046041
    endloop
  endfacet
  facet normal -0.004570650587042136 -0.055386514216902806 0.998454527355208
    outer loop
      vertex 0.324484018566615 1.91045101094004 0.6499995904046041
      vertex 0.21029163483316912 1.5428258342420003 0.6290838551464926
      vertex 0.43539701082909854 1.5529418082008128 0.630675481515937
    endloop
  endfacet
  facet normal -0.8451207158479873 -0.07410845162571202 -0.5294137446668956
    outer loop
      vertex 0.17745308758464745 0.30780933811281774 0.035422879638780234
      vertex 9.409532617277172e-05 0.31757462500221223 0.3171799547263573
      vertex 0.00461411584566549 0.6000000000000001 0.2704299969337975
    endloop
  endfacet
  facet normal -0.5550204779500227 0.29671959239434775 -0.7771163056746786
    outer loop
      vertex 0.00461411584566549 0.6000000000000001 0.2704299969337975
      vertex 0.3455800547268784 0.5312293279075079 0.0006522524397022611
      vertex 0.17745308758464745 0.30780933811281774 0.035422879638780234
    endloop
  endfacet
  facet normal 0.09982577099292526 -0.22592737379969888 -0.9690158085468159
    outer loop
      vertex 0.17745308758464745 0.30780933811281774 0.035422879638780234
      vertex 0.3455800547268784 0.5312293279075079 0.0006522524397022611
      vertex 0.5239120805372147 0.32124999999999987 0.06798057618857549
    endloop
  endfacet
  facet normal -0.44128423649990356 -0.0785959497104217 0.8939188438028444
    outer loop
      vertex 0.26463697747170783 4.716554943131693 0.6443451197548647
      vertex 0.07548210481903715 4.514969866610615 0.533244615739428
      vertex 0.36021806753616964 4.222455524991297 0.6480861923992075
    endloop
  endfacet
  facet normal -0.43930009316130036 0.10604398683647381 0.892059471674562
    outer loop
      vertex 0.36021806753616964 4.222455524991297 0.6480861923992075
      vertex 0.052345854800136274 4.177011266596938 0.5018748628418738
      vertex 0.12142798383060423 3.8199172249188096 0.5783444971431733
    endloop
  endfacet
  facet normal -0.07081372217972473 -0.1293531139620112 0.9890668271959099
    outer loop
      vertex 0.12142798383060423 3.8199172249188096 0.5783444971431733
      vertex 0.5001464917172996 3.7687499999999994 0.5987676139340112
      vertex 0.36021806753616964 4.222455524991297 0.6480861923992075
    endloop
  endfacet
  facet normal -0.4216841814850022 -0.055141255649913234 0.9050645794697054
    outer loop
      vertex 0.07548210481903715 4.514969866610615 0.533244615739428
      vertex 0.052345854800136274 4.177011266596938 0.5018748628418738
      vertex 0.36021806753616964 4.222455524991297 0.6480861923992075
    endloop
  endfacet
  facet normal -0.22756381451883842 0.048052890327738795 -0.9725767990512554
    outer loop
      vertex 0.32972069043573365 0.8860793333069523 3.4286298062014e-05
      vertex 0.1300798739865985 1.2543168313091577 0.06494011367586952
      vertex 0.39389635882534296 1.3388038007891674 0.0073865687024404995
    endloop
  endfacet
  facet normal -0.38164275737932357 -0.04417509751645969 -0.9232536848013758
    outer loop
      vertex 0.32972069043573365 0.8860793333069523 3.4286298062014e-05
      vertex 0.08944546273479848 0.85000000000151 0.10108247059737203
      vertex 0.1300798739865985 1.2543168313091577 0.06494011367586952
    endloop
  endfacet
  facet normal -0.3851932724580399 -0.018822271531177506 -0.9226439535094092
    outer loop
      vertex 0.3455800547268784 0.5312293279075079 0.0006522524397022611
      vertex 0.08944546273479848 0.85000000000151 0.10108247059737203
      vertex 0.32972069043573365 0.8860793333069523 3.4286298062014e-05
    endloop
  endfacet
  facet normal -0.28333153524523524 0.0010839479094712176 -0.9590214107059902
    outer loop
      vertex 0.39389635882534296 1.3388038007891674 0.0073865687024404995
      vertex 0.09418104715777519 1.5777598849871801 0.09620399695619947
      vertex 0.39489916113038265 1.794848863329265 0.007605754190046988
    endloop
  endfacet
  facet normal -0.34420265563117675 0.09561021419756492 -0.9340145709771027
    outer loop
      vertex 0.09418104715777519 1.5777598849871801 0.09620399695619947
      vertex 0.051622372450995484 1.9427067942461052 0.14924541896246984
      vertex 0.39489916113038265 1.794848863329265 0.007605754190046988
    endloop
  endfacet
  facet normal -0.3818826096980647 -0.001262325187863851 -0.9242099755711987
    outer loop
      vertex 0.051622372450995484 1.9427067942461052 0.14924541896246984
      vertex 0.3938963588253418 2.2586961992108328 0.007386568702440233
      vertex 0.39489916113038265 1.794848863329265 0.007605754190046988
    endloop
  endfacet
  facet normal -0.49401824878349837 -0.015552193259074204 0.8693124289653966
    outer loop
      vertex 0.26463697747170783 4.716554943131693 0.6443451197548647
      vertex 0.08366484213834068 4.782160527859207 0.5426748528881735
      vertex 0.07548210481903715 4.514969866610615 0.533244615739428
    endloop
  endfacet
  facet normal -0.9239290274871161 0.05728979576654605 -0.3782499589791639
    outer loop
      vertex 0.0009674460133604957 1.0669248493315102 0.35005801183046215
      vertex 0.08944546273479848 0.85000000000151 0.10108247059737203
      vertex 0.00461411584566549 0.6000000000000001 0.2704299969337975
    endloop
  endfacet
  facet normal -0.6299090005464755 -0.2776081487547396 -0.7253608528005264
    outer loop
      vertex 0.00461411584566549 0.6000000000000001 0.2704299969337975
      vertex 0.08944546273479848 0.85000000000151 0.10108247059737203
      vertex 0.3455800547268784 0.5312293279075079 0.0006522524397022611
    endloop
  endfacet
  facet normal -0.2333504154713287 0.06786246161659427 -0.9700217883649287
    outer loop
      vertex 0.39389635882534296 1.3388038007891674 0.0073865687024404995
      vertex 0.1300798739865985 1.2543168313091577 0.06494011367586952
      vertex 0.09418104715777519 1.5777598849871801 0.09620399695619947
    endloop
  endfacet
  facet normal -0.9768216408637767 -0.08538459293983404 -0.19628793449597912
    outer loop
      vertex 0.09418104715777519 1.5777598849871801 0.09620399695619947
      vertex 0.01656602091266648 1.7042330492272328 0.42743769103388785
      vertex 0.051622372450995484 1.9427067942461052 0.14924541896246984
    endloop
  endfacet
  facet normal -0.9555720619583392 0.11938910101153132 -0.26949633942661655
    outer loop
      vertex 0.09418104715777519 1.5777598849871801 0.09620399695619947
      vertex 0.00011578107238725545 1.3609163870734677 0.33367434676474067
      vertex 0.01656602091266648 1.7042330492272328 0.42743769103388785
    endloop
  endfacet
  facet normal -0.9078096548363714 -0.060646204438900515 -0.41497429856922863
    outer loop
      vertex 0.09418104715777519 1.5777598849871801 0.09620399695619947
      vertex 0.1300798739865985 1.2543168313091577 0.06494011367586952
      vertex 0.00011578107238725545 1.3609163870734677 0.33367434676474067
    endloop
  endfacet
  facet normal -0.9954309968030064 0.06719518246020127 -0.06783758587916483
    outer loop
      vertex 0.01656602091266648 1.7042330492272328 0.42743769103388785
      vertex 0.04061822311925774 2.1159577035394475 0.4823276993353418
      vertex 0.051622372450995484 1.9427067942461052 0.14924541896246984
    endloop
  endfacet
  facet normal -0.9992347598936728 -0.03651530430520959 -0.014018814918959977
    outer loop
      vertex 0.04061822311925774 2.1159577035394475 0.4823276993353418
      vertex 0.037474960869400234 2.32053911522485 0.17349306328439276
      vertex 0.051622372450995484 1.9427067942461052 0.14924541896246984
    endloop
  endfacet
  facet normal -0.41593338131953567 0.04272255230740554 -0.9083909983197977
    outer loop
      vertex 0.051622372450995484 1.9427067942461052 0.14924541896246984
      vertex 0.037474960869400234 2.32053911522485 0.17349306328439276
      vertex 0.3938963588253418 2.2586961992108328 0.007386568702440233
    endloop
  endfacet
  facet normal -0.903999933521941 -0.026399024737326297 -0.4267167815838093
    outer loop
      vertex 0.00011578107238725545 1.3609163870734677 0.33367434676474067
      vertex 0.1300798739865985 1.2543168313091577 0.06494011367586952
      vertex 0.0009674460133604957 1.0669248493315102 0.35005801183046215
    endloop
  endfacet
  facet normal -0.923345757706331 0.05888001722055296 -0.37942819518036464
    outer loop
      vertex 0.1300798739865985 1.2543168313091577 0.06494011367586952
      vertex 0.08944546273479848 0.85000000000151 0.10108247059737203
      vertex 0.0009674460133604957 1.0669248493315102 0.35005801183046215
    endloop
  endfacet
  facet normal -0.5487222900501993 -0.07890102368462729 0.8322730783003752
    outer loop
      vertex 0.01656602091266648 1.7042330492272328 0.42743769103388785
      vertex 0.324484018566615 1.91045101094004 0.6499995904046041
      vertex 0.04061822311925774 2.1159577035394475 0.4823276993353418
    endloop
  endfacet
  facet normal -0.6457873339135689 0.15809736464829746 0.7469698405210669
    outer loop
      vertex 0.01656602091266648 1.7042330492272328 0.42743769103388785
      vertex 0.21029163483316912 1.5428258342420003 0.6290838551464926
      vertex 0.324484018566615 1.91045101094004 0.6499995904046041
    endloop
  endfacet
  facet normal -0.4836210783148421 0.04515903749413031 0.8741117285234153
    outer loop
      vertex 0.324484018566615 1.91045101094004 0.6499995904046041
      vertex 0.35822823702319295 2.3047853390226023 0.6482968980122306
      vertex 0.04061822311925774 2.1159577035394475 0.4823276993353418
    endloop
  endfacet
  facet normal -0.4418749360478863 -0.04428210508269292 0.89598305567802
    outer loop
      vertex 0.35822823702319295 2.3047853390226023 0.6482968980122306
      vertex 0.059381119011525256 2.5346520186421415 0.5122741574869061
      vertex 0.04061822311925774 2.1159577035394475 0.4823276993353418
    endloop
  endfacet
  facet normal -0.9983937843561698 0.04202308819550266 0.03799883442263652
    outer loop
      vertex 0.059381119011525256 2.5346520186421415 0.5122741574869061
      vertex 0.037474960869400234 2.32053911522485 0.17349306328439276
      vertex 0.04061822311925774 2.1159577035394475 0.4823276993353418
    endloop
  endfacet
  facet normal -0.42793332419094576 -0.04127310817878061 -0.9028674324551471
    outer loop
      vertex 0.3938963588253418 2.2586961992108328 0.007386568702440233
      vertex 0.037474960869400234 2.32053911522485 0.17349306328439276
      vertex 0.35968745069858504 2.734360238871716 0.0018564084435012341
    endloop
  endfacet
  facet normal -0.5018672516930761 -0.09739965360323548 -0.8594431738957545
    outer loop
      vertex 0.35968745069858504 2.734360238871716 0.0018564084435012341
      vertex 0.030316396389867252 2.789553624096465 0.18793587718390284
      vertex 0.25583411954473934 3.2201666657725525 0.007445152799003019
    endloop
  endfacet
  facet normal -0.489327216283523 0.01938019142357927 -0.8718849027162953
    outer loop
      vertex 0.037474960869400234 2.32053911522485 0.17349306328439276
      vertex 0.030316396389867252 2.789553624096465 0.18793587718390284
      vertex 0.35968745069858504 2.734360238871716 0.0018564084435012341
    endloop
  endfacet
  facet normal -0.7242402781111087 -0.02838286078093916 -0.6889633029236272
    outer loop
      vertex 0.25583411954473934 3.2201666657725525 0.007445152799003019
      vertex 0.004120851124422487 3.187088951651521 0.27340957630640106
      vertex 0.007738709261525978 3.5537863039463797 0.25449983405014254
    endloop
  endfacet
  facet normal -0.7288609514932941 0.09767456641276842 -0.6776587581256275
    outer loop
      vertex 0.25583411954473934 3.2201666657725525 0.007445152799003019
      vertex 0.030316396389867252 2.789553624096465 0.18793587718390284
      vertex 0.004120851124422487 3.187088951651521 0.27340957630640106
    endloop
  endfacet
  facet normal -0.9608387025699527 0.092679710628108 0.26115026111719675
    outer loop
      vertex 0.007738709261525978 3.5537863039463797 0.25449983405014254
      vertex 0.12142798383060423 3.8199172249188096 0.5783444971431733
      vertex 0.0325274075674765 4.011461725333603 0.18327920873845305
    endloop
  endfacet
  facet normal -0.9118067216640057 -0.0962339411561638 0.39918358044625357
    outer loop
      vertex 0.007738709261525978 3.5537863039463797 0.25449983405014254
      vertex 0.18764511459285177 3.363431838627915 0.6195481886802043
      vertex 0.12142798383060423 3.8199172249188096 0.5783444971431733
    endloop
  endfacet
  facet normal -0.8897465283461059 0.0322577762303762 0.4553136843635643
    outer loop
      vertex 0.007738709261525978 3.5537863039463797 0.25449983405014254
      vertex 0.004120851124422487 3.187088951651521 0.27340957630640106
      vertex 0.18764511459285177 3.363431838627915 0.6195481886802043
    endloop
  endfacet
  facet normal -0.9769617501288815 -0.15836362957940853 0.14306187336795373
    outer loop
      vertex 0.12142798383060423 3.8199172249188096 0.5783444971431733
      vertex 0.052345854800136274 4.177011266596938 0.5018748628418738
      vertex 0.0325274075674765 4.011461725333603 0.18327920873845305
    endloop
  endfacet
  facet normal -0.34759475427575093 -0.1173937086566573 -0.9302669530666003
    outer loop
      vertex 0.0325274075674765 4.011461725333603 0.18327920873845305
      vertex 0.07687649236382672 4.420454305628762 0.11509591486032988
      vertex 0.4145027351606218 4.233237910301046 0.0125671905852915
    endloop
  endfacet
  facet normal -0.9940618059393088 0.108684791369344 0.005361165701777127
    outer loop
      vertex 0.0325274075674765 4.011461725333603 0.18327920873845305
      vertex 0.052345854800136274 4.177011266596938 0.5018748628418738
      vertex 0.07687649236382672 4.420454305628762 0.11509591486032988
    endloop
  endfacet
  facet normal -0.04237824864141521 0.08371732489447509 0.9955880139669216
    outer loop
      vertex 0.18764511459285177 3.363431838627915 0.6195481886802043
      vertex 0.5001464917172996 3.7687499999999994 0.5987676139340112
      vertex 0.12142798383060423 3.8199172249188096 0.5783444971431733
    endloop
  endfacet
  facet normal -0.9035896272984769 0.16168003653651453 0.39671822648342125
    outer loop
      vertex 0.004120851124422487 3.187088951651521 0.27340957630640106
      vertex 0.04922171865960952 2.8906075861030365 0.49696319240157316
      vertex 0.18764511459285177 3.363431838627915 0.6195481886802043
    endloop
  endfacet
  facet normal -0.32071308616893457 -0.060721890770300456 -0.9452279980730984
    outer loop
      vertex 0.4145027351606218 4.233237910301046 0.0125671905852915
      vertex 0.07687649236382672 4.420454305628762 0.11509591486032988
      vertex 0.35156109260472923 4.744378552190731 0.0010871901890217473
    endloop
  endfacet
  facet normal -0.33669700831069005 -0.04550807948724318 -0.94051270023111
    outer loop
      vertex 0.07687649236382672 4.420454305628762 0.11509591486032988
      vertex 0.10015146851867912 4.7600048521863405 0.09033398650274589
      vertex 0.35156109260472923 4.744378552190731 0.0010871901890217473
    endloop
  endfacet
  facet normal -0.9969873211681294 -0.01754363531474877 0.07555463116143311
    outer loop
      vertex 0.059381119011525256 2.5346520186421415 0.5122741574869061
      vertex 0.030316396389867252 2.789553624096465 0.18793587718390284
      vertex 0.037474960869400234 2.32053911522485 0.17349306328439276
    endloop
  endfacet
  facet normal -0.9972674802336117 -0.02548055813877359 0.06934200765365489
    outer loop
      vertex 0.059381119011525256 2.5346520186421415 0.5122741574869061
      vertex 0.04922171865960952 2.8906075861030365 0.49696319240157316
      vertex 0.030316396389867252 2.789553624096465 0.18793587718390284
    endloop
  endfacet
  facet normal -0.992511381420887 -0.08438990471491199 0.0883147877323542
    outer loop
      vertex 0.030316396389867252 2.789553624096465 0.18793587718390284
      vertex 0.04922171865960952 2.8906075861030365 0.49696319240157316
      vertex 0.004120851124422487 3.187088951651521 0.27340957630640106
    endloop
  endfacet
  facet normal -0.9973589789413546 0.07005657525479143 -0.019160986107931266
    outer loop
      vertex 0.07687649236382672 4.420454305628762 0.11509591486032988
      vertex 0.052345854800136274 4.177011266596938 0.5018748628418738
      vertex 0.07548210481903715 4.514969866610615 0.533244615739428
    endloop
  endfacet
  facet normal -0.0 -1.0 0.0
    outer loop
      vertex 0.5204578706170077 0.0 0.16912754953531692
      vertex 0.32499999999999946 0.0 0.32499999999999973
      vertex 0.325 0.0 0.07500000000000001
    endloop
  endfacet
  facet normal 0.0 -1.0 0.0
    outer loop
      vertex 0.325 0.0 0.07500000000000001
      vertex 0.32499999999999946 0.0 0.32499999999999973
      vertex 0.12954212938299334 0.0 0.16912754953531564
    endloop
  endfacet
  facet normal 0.0 -1.0 0.0
    outer loop
      vertex 0.5687319780454557 0.0 0.38063023348907976
      vertex 0.32499999999999946 0.0 0.32499999999999973
      vertex 0.5204578706170077 0.0 0.16912754953531692
    endloop
  endfacet
  facet normal 0.0 -1.0 -0.0
    outer loop
      vertex 0.43347093477938775 0.0 0.5502422169756057
      vertex 0.32499999999999946 0.0 0.32499999999999973
      vertex 0.5687319780454557 0.0 0.38063023348907976
    endloop
  endfacet
  facet normal 0.0 -1.0 0.0
    outer loop
      vertex 0.216529065220608 0.0 0.5502422169756036
      vertex 0.32499999999999946 0.0 0.32499999999999973
      vertex 0.43347093477938775 0.0 0.5502422169756057
    endloop
  endfacet
  facet normal 0.0 -1.0 0.0
    outer loop
      vertex 0.08126802195454355 0.0 0.3806302334890763
      vertex 0.32499999999999946 0.0 0.32499999999999973
      vertex 0.216529065220608 0.0 0.5502422169756036
    endloop
  endfacet
  facet normal 0.0 -1.0 0.0
    outer loop
      vertex 0.12954212938299334 0.0 0.16912754953531564
      vertex 0.32499999999999946 0.0 0.32499999999999973
      vertex 0.08126802195454355 0.0 0.3806302334890763
    endloop
  endfacet
  facet normal 0.0 1.0 0.0
    outer loop
      vertex 0.5276341856040887 5.0 0.5790952318021095
      vertex 0.65 5.0 0.325
      vertex 0.32499999999999996 5.0 0.3250000000000004
    endloop
  endfacet
  facet normal 0.0 1.0 0.0
    outer loop
      vertex 0.65 5.0 0.325
      vertex 0.5276341856040881 5.0 0.07090476819789
      vertex 0.32499999999999996 5.0 0.3250000000000004
    endloop
  endfacet
  facet normal 0.0 1.0 0.0
    outer loop
      vertex 0.25268069646419855 5.0 0.6418515714590929
      vertex 0.5276341856040887 5.0 0.5790952318021095
      vertex 0.32499999999999996 5.0 0.3250000000000004
    endloop
  endfacet
  facet normal -0.0 1.0 0.0
    outer loop
      vertex 0.03218511793171426 5.0 0.4660122152132076
      vertex 0.25268069646419855 5.0 0.6418515714590929
      vertex 0.32499999999999996 5.0 0.3250000000000004
    endloop
  endfacet
  facet normal 0.0 1.0 0.0
    outer loop
      vertex 0.03218511793171324 5.0 0.18398778478679495
      vertex 0.03218511793171426 5.0 0.4660122152132076
      vertex 0.32499999999999996 5.0 0.3250000000000004
    endloop
  endfacet
  facet normal 0.0 1.0 -0.0
    outer loop
      vertex 0.25268069646419694 5.0 0.008148428540907516
      vertex 0.03218511793171324 5.0 0.18398778478679495
      vertex 0.32499999999999996 5.0 0.3250000000000004
    endloop
  endfacet
  facet normal 0.0 1.0 0.0
    outer loop
      vertex 0.5276341856040881 5.0 0.07090476819789
      vertex 0.25268069646419694 5.0 0.008148428540907516
      vertex 0.32499999999999996 5.0 0.3250000000000004
    endloop
  endfacet
  facet normal 0.7212808298655191 -0.6248950762431832 -0.2987643020100198
    outer loop
      vertex 0.5204578706170077 0.0 0.16912754953531692
      vertex 0.5548097038856276 0.07500000000000001 0.09519029611437171
      vertex 0.65 0.07500000000000001 0.325
    endloop
  endfacet
  facet normal 0.7543048366756747 -0.5322676873852606 0.38433751096299457
    outer loop
      vertex 0.5687319780454557 0.0 0.38063023348907976
      vertex 0.65 0.07500000000000001 0.325
      vertex 0.516030206995054 0.07500000000000001 0.5879305231718578
    endloop
  endfacet
  facet normal 0.617592465565714 -0.7737631524328106 -0.1409614500978959
    outer loop
      vertex 0.5687319780454557 0.0 0.38063023348907976
      vertex 0.5204578706170077 0.0 0.16912754953531692
      vertex 0.65 0.07500000000000001 0.325
    endloop
  endfacet
  facet normal 0.34010571748006185 -0.458413423527112 -0.8210878357809991
    outer loop
      vertex 0.5548097038856276 0.07500000000000001 0.09519029611437171
      vertex 0.46391923948805885 0.028698327345427543 0.08339246169608101
      vertex 0.325 0.07500000000000001 0.0
    endloop
  endfacet
  facet normal -0.44779655119330386 -0.16462243802644666 -0.878850215700953
    outer loop
      vertex 0.325 0.07500000000000001 0.0
      vertex 0.1979217765511136 0.032484300143757854 0.07271344674581424
      vertex 0.06206947682814201 0.07500000000000001 0.1339697930049463
    endloop
  endfacet
  facet normal 0.18551694625727524 -0.6948321605418308 -0.6948321605453698
    outer loop
      vertex 0.325 0.07500000000000001 0.0
      vertex 0.46391923948805885 0.028698327345427543 0.08339246169608101
      vertex 0.3250000000000001 0.03749999999990479 0.037499999999904256
    endloop
  endfacet
  facet normal -0.1657075771338152 -0.6973309827031525 -0.6973309827067032
    outer loop
      vertex 0.3250000000000001 0.03749999999990479 0.037499999999904256
      vertex 0.1979217765511136 0.032484300143757854 0.07271344674581424
      vertex 0.325 0.07500000000000001 0.0
    endloop
  endfacet
  facet normal 0.20746263829367298 -0.8782767732160026 -0.43080060740615844
    outer loop
      vertex 0.325 0.0 0.07500000000000001
      vertex 0.46391923948805885 0.028698327345427543 0.08339246169608101
      vertex 0.5204578706170077 0.0 0.16912754953531692
    endloop
  endfacet
  facet normal -0.21427204276446685 -0.8695489978276401 -0.44494048148768095
    outer loop
      vertex 0.12954212938299334 0.0 0.16912754953531564
      vertex 0.1979217765511136 0.032484300143757854 0.07271344674581424
      vertex 0.325 0.0 0.07500000000000001
    endloop
  endfacet
  facet normal 0.18551694625592993 -0.6948321605455494 -0.6948321605420105
    outer loop
      vertex 0.3250000000000001 0.03749999999990479 0.037499999999904256
      vertex 0.46391923948805885 0.028698327345427543 0.08339246169608101
      vertex 0.325 0.0 0.07500000000000001
    endloop
  endfacet
  facet normal -0.16570757713272205 -0.6973309827068329 -0.6973309827032824
    outer loop
      vertex 0.325 0.0 0.07500000000000001
      vertex 0.1979217765511136 0.032484300143757854 0.07271344674581424
      vertex 0.3250000000000001 0.03749999999990479 0.037499999999904256
    endloop
  endfacet
  facet normal 0.4382354208553742 -0.7248020178374699 -0.5316124065956747
    outer loop
      vertex 0.5204578706170077 0.0 0.16912754953531692
      vertex 0.46391923948805885 0.028698327345427543 0.08339246169608101
      vertex 0.5548097038856276 0.07500000000000001 0.09519029611437171
    endloop
  endfacet
  facet normal 0.13004965952499603 -0.555769599971705 0.8211012348089142
    outer loop
      vertex 0.22456947682814238 0.07500000000000001 0.634093367795925
      vertex 0.43347093477938775 0.0 0.5502422169756057
      vertex 0.516030206995054 0.07500000000000001 0.5879305231718578
    endloop
  endfacet
  facet normal 0.506984033990473 -0.7612513544893382 0.4043062756956597
    outer loop
      vertex 0.43347093477938775 0.0 0.5502422169756057
      vertex 0.5687319780454557 0.0 0.38063023348907976
      vertex 0.516030206995054 0.07500000000000001 0.5879305231718578
    endloop
  endfacet
  facet normal -0.5752699650808748 -0.581488550662605 0.575269965080876
    outer loop
      vertex 0.015906632204075243 0.07500000000000001 0.42543052317185825
      vertex 0.216529065220608 0.0 0.5502422169756036
      vertex 0.22456947682814238 0.07500000000000001 0.634093367795925
    endloop
  endfacet
  facet normal -6.482361055143047e-15 -0.7453504681331017 0.6666728430450473
    outer loop
      vertex 0.216529065220608 0.0 0.5502422169756036
      vertex 0.43347093477938775 0.0 0.5502422169756057
      vertex 0.22456947682814238 0.07500000000000001 0.634093367795925
    endloop
  endfacet
  facet normal -0.7835916513501281 -0.6087537665411115 -0.12410872514206846
    outer loop
      vertex 0.06206947682814201 0.07500000000000001 0.1339697930049463
      vertex 0.08126802195454355 0.0 0.3806302334890763
      vertex 0.015906632204075243 0.07500000000000001 0.42543052317185825
    endloop
  endfacet
  facet normal -0.5381751050261857 -0.7253770089544563 0.4291803248173671
    outer loop
      vertex 0.08126802195454355 0.0 0.3806302334890763
      vertex 0.216529065220608 0.0 0.5502422169756036
      vertex 0.015906632204075243 0.07500000000000001 0.42543052317185825
    endloop
  endfacet
  facet normal -0.6958220853433988 -0.700434746142716 -0.15881685031618217
    outer loop
      vertex 0.12954212938299334 0.0 0.16912754953531564
      vertex 0.08126802195454355 0.0 0.3806302334890763
      vertex 0.06206947682814201 0.07500000000000001 0.1339697930049463
    endloop
  endfacet
  facet normal -0.46694957156217953 -0.6832399163700111 -0.5613744866812146
    outer loop
      vertex 0.06206947682814201 0.07500000000000001 0.1339697930049463
      vertex 0.1979217765511136 0.032484300143757854 0.07271344674581424
      vertex 0.12954212938299334 0.0 0.16912754953531564
    endloop
  endfacet
endsolid abc_50_014
