solid abc_50_016
  facet normal 0.6693623192826464 0.32234790375266364 0.6693623192791929
    outer loop
      vertex 0.644322515112685 0.6999969510380899 4.916666666666666
      vertex 0.7520833333334396 0.38970758143359097 4.958333333333441
      vertex 0.79375 0.38970758143359086 4.916666666666666
    endloop
  endfacet
  facet normal 0.669362319282645 -0.3223479037526663 0.669362319279193
    outer loop
      vertex 0.7520833333334396 0.38970758143359097 4.958333333333441
      vertex 0.6443225151126823 0.07941821182908948 4.916666666666666
      vertex 0.79375 0.38970758143359086 4.916666666666666
    endloop
  endfacet
  facet normal 0.6693623192795549 0.32234790375117406 0.6693623192830017
    outer loop
      vertex 0.5923650316244573 0.6348443274990875 5.0
      vertex 0.7104166666666665 0.38970758143359086 5.0
      vertex 0.7520833333334396 0.38970758143359097 4.958333333333441
    endloop
  endfacet
  facet normal 0.6693623192795555 -0.3223479037511758 0.6693623192830003
    outer loop
      vertex 0.7104166666666665 0.38970758143359086 5.0
      vertex 0.5923650316244564 0.14457083536809345 5.0
      vertex 0.7520833333334396 0.38970758143359097 4.958333333333441
    endloop
  endfacet
  facet normal 0.16531884035945238 0.7243091650316442 0.6693623192810964
    outer loop
      vertex 0.5923650316244573 0.6348443274990875 5.0
      vertex 0.644322515112685 0.6999969510380899 4.916666666666666
      vertex 0.3085620043360887 0.7766320965807523 4.916666666666666
    endloop
  endfacet
  facet normal 0.6693623192808087 0.32234790375229594 0.6693623192812074
    outer loop
      vertex 0.7520833333334396 0.38970758143359097 4.958333333333441
      vertex 0.644322515112685 0.6999969510380899 4.916666666666666
      vertex 0.5923650316244573 0.6348443274990875 5.0
    endloop
  endfacet
  facet normal -0.4632130972426394 0.5808508518281708 0.6693623192810971
    outer loop
      vertex 0.11438371954309608 0.5257482121360759 5.0
      vertex 0.3085620043360887 0.7766320965807523 4.916666666666666
      vertex 0.03930298055122801 0.5619051903958729 4.916666666666666
    endloop
  endfacet
  facet normal 0.1653188403594521 0.7243091650316439 0.6693623192810967
    outer loop
      vertex 0.5923650316244573 0.6348443274990875 5.0
      vertex 0.3085620043360887 0.7766320965807523 4.916666666666666
      vertex 0.32710541549911465 0.6953881038989336 5.0
    endloop
  endfacet
  facet normal -0.46321309724264037 0.5808508518281711 0.6693623192810962
    outer loop
      vertex 0.11438371954309608 0.5257482121360759 5.0
      vertex 0.32710541549911465 0.6953881038989336 5.0
      vertex 0.3085620043360887 0.7766320965807523 4.916666666666666
    endloop
  endfacet
  facet normal -0.7429361247958209 3.8319918449264236e-15 0.6693623192810964
    outer loop
      vertex 0.03930298055122623 0.21750997247131237 4.916666666666666
      vertex 0.11438371954309608 0.5257482121360759 5.0
      vertex 0.03930298055122801 0.5619051903958729 4.916666666666666
    endloop
  endfacet
  facet normal -0.46321309724264403 -0.5808508518281633 0.6693623192811005
    outer loop
      vertex 0.32710541549911276 0.08402705896824858 5.0
      vertex 0.03930298055122623 0.21750997247131237 4.916666666666666
      vertex 0.3085620043360842 0.0027830662864303983 4.916666666666666
    endloop
  endfacet
  facet normal -0.7429361247958186 2.538913409090436e-15 0.669362319281099
    outer loop
      vertex 0.11438371954309515 0.2536669507311076 5.0
      vertex 0.11438371954309608 0.5257482121360759 5.0
      vertex 0.03930298055122623 0.21750997247131237 4.916666666666666
    endloop
  endfacet
  facet normal -0.4632130972426451 -0.5808508518281696 0.6693623192810942
    outer loop
      vertex 0.32710541549911276 0.08402705896824858 5.0
      vertex 0.11438371954309515 0.2536669507311076 5.0
      vertex 0.03930298055122623 0.21750997247131237 4.916666666666666
    endloop
  endfacet
  facet normal 0.1653188403594454 -0.7243091650316488 0.6693623192810932
    outer loop
      vertex 0.6443225151126823 0.07941821182908948 4.916666666666666
      vertex 0.32710541549911276 0.08402705896824858 5.0
      vertex 0.3085620043360842 0.0027830662864303983 4.916666666666666
    endloop
  endfacet
  facet normal 0.6693623192808114 -0.32234790375229944 0.6693623192812034
    outer loop
      vertex 0.5923650316244564 0.14457083536809345 5.0
      vertex 0.6443225151126823 0.07941821182908948 4.916666666666666
      vertex 0.7520833333334396 0.38970758143359097 4.958333333333441
    endloop
  endfacet
  facet normal 0.1653188403594475 -0.7243091650316411 0.6693623192811008
    outer loop
      vertex 0.5923650316244564 0.14457083536809345 5.0
      vertex 0.32710541549911276 0.08402705896824858 5.0
      vertex 0.6443225151126823 0.07941821182908948 4.916666666666666
    endloop
  endfacet
  facet normal 0.6693623192826287 0.3223479037526543 -0.669362319279215
    outer loop
      vertex 0.7104166666666665 0.38970758143359086 0.0
      vertex 0.5923650316244573 0.6348443274990875 0.0
      vertex 0.7520833333332269 0.38970758143359086 0.04166666666677288
    endloop
  endfacet
  facet normal 0.6693623192826285 -0.3223479037526556 -0.6693623192792146
    outer loop
      vertex 0.5923650316244564 0.14457083536809345 0.0
      vertex 0.7104166666666665 0.38970758143359086 0.0
      vertex 0.7520833333332269 0.38970758143359086 0.04166666666677288
    endloop
  endfacet
  facet normal 0.6693623192795685 0.32234790375118133 -0.6693623192829845
    outer loop
      vertex 0.79375 0.38970758143359086 0.08333333333333333
      vertex 0.7520833333332269 0.38970758143359086 0.04166666666677288
      vertex 0.644322515112685 0.6999969510380899 0.08333333333333333
    endloop
  endfacet
  facet normal 0.6693623192795678 -0.32234790375118433 -0.669362319282984
    outer loop
      vertex 0.6443225151126823 0.07941821182908948 0.08333333333333333
      vertex 0.7520833333332269 0.38970758143359086 0.04166666666677288
      vertex 0.79375 0.38970758143359086 0.08333333333333333
    endloop
  endfacet
  facet normal 0.16531884035945169 0.724309165031642 -0.6693623192810988
    outer loop
      vertex 0.644322515112685 0.6999969510380899 0.08333333333333333
      vertex 0.5923650316244573 0.6348443274990875 0.0
      vertex 0.32710541549911465 0.6953881038989336 0.0
    endloop
  endfacet
  facet normal 0.6693623192813897 0.3223479037515457 -0.6693623192809879
    outer loop
      vertex 0.7520833333332269 0.38970758143359086 0.04166666666677288
      vertex 0.5923650316244573 0.6348443274990875 0.0
      vertex 0.644322515112685 0.6999969510380899 0.08333333333333333
    endloop
  endfacet
  facet normal -0.4632130972426389 0.5808508518281692 -0.6693623192810989
    outer loop
      vertex 0.3085620043360887 0.7766320965807523 0.08333333333333333
      vertex 0.32710541549911465 0.6953881038989336 0.0
      vertex 0.11438371954309608 0.5257482121360759 0.0
    endloop
  endfacet
  facet normal 0.16531884035945177 0.7243091650316416 -0.6693623192810992
    outer loop
      vertex 0.644322515112685 0.6999969510380899 0.08333333333333333
      vertex 0.32710541549911465 0.6953881038989336 0.0
      vertex 0.3085620043360887 0.7766320965807523 0.08333333333333333
    endloop
  endfacet
  facet normal -0.7429361247958163 2.5389134090904282e-15 -0.6693623192811017
    outer loop
      vertex 0.11438371954309608 0.5257482121360759 0.0
      vertex 0.11438371954309515 0.2536669507311076 0.0
      vertex 0.03930298055122623 0.21750997247131237 0.08333333333333333
    endloop
  endfacet
  facet normal -0.4632130972426379 0.5808508518281688 -0.6693623192811
    outer loop
      vertex 0.3085620043360887 0.7766320965807523 0.08333333333333333
      vertex 0.11438371954309608 0.5257482121360759 0.0
      vertex 0.03930298055122801 0.5619051903958729 0.08333333333333333
    endloop
  endfacet
  facet normal -0.7429361247958186 3.839476203998534e-15 -0.669362319281099
    outer loop
      vertex 0.11438371954309608 0.5257482121360759 0.0
      vertex 0.03930298055122623 0.21750997247131237 0.08333333333333333
      vertex 0.03930298055122801 0.5619051903958729 0.08333333333333333
    endloop
  endfacet
  facet normal -0.4632130972426397 -0.5808508518281629 -0.6693623192811039
    outer loop
      vertex 0.11438371954309515 0.2536669507311076 0.0
      vertex 0.32710541549911276 0.08402705896824858 0.0
      vertex 0.3085620043360842 0.0027830662864303983 0.08333333333333333
    endloop
  endfacet
  facet normal -0.46321309724264553 -0.5808508518281654 -0.6693623192810975
    outer loop
      vertex 0.03930298055122623 0.21750997247131237 0.08333333333333333
      vertex 0.11438371954309515 0.2536669507311076 0.0
      vertex 0.3085620043360842 0.0027830662864303983 0.08333333333333333
    endloop
  endfacet
  facet normal 0.16531884035944872 -0.7243091650316464 -0.6693623192810948
    outer loop
      vertex 0.5923650316244564 0.14457083536809345 0.0
      vertex 0.3085620043360842 0.0027830662864303983 0.08333333333333333
      vertex 0.32710541549911276 0.08402705896824858 0.0
    endloop
  endfacet
  facet normal 0.669362319281392 -0.32234790375154937 -0.6693623192809839
    outer loop
      vertex 0.6443225151126823 0.07941821182908948 0.08333333333333333
      vertex 0.5923650316244564 0.14457083536809345 0.0
      vertex 0.7520833333332269 0.38970758143359086 0.04166666666677288
    endloop
  endfacet
  facet normal 0.16531884035944355 -0.7243091650316406 -0.6693623192811027
    outer loop
      vertex 0.6443225151126823 0.07941821182908948 0.08333333333333333
      vertex 0.3085620043360842 0.0027830662864303983 0.08333333333333333
      vertex 0.5923650316244564 0.14457083536809345 0.0
    endloop
  endfacet
  facet normal 0.8989898921050961 0.43293071460233273 0.06624326567117145
    outer loop
      vertex 0.79375 0.38970758143359086 4.916666666666666
      vertex 0.6783281235535297 0.6695180617000769 4.654369046738587
      vertex 0.644322515112685 0.6999969510380899 4.916666666666666
    endloop
  endfacet
  facet normal 0.8935283962983009 -0.4303005968410609 0.12825132111137574
    outer loop
      vertex 0.6443225151126823 0.07941821182908948 4.916666666666666
      vertex 0.7190440764632682 0.15793861932734846 4.659527337527508
      vertex 0.79375 0.38970758143359086 4.916666666666666
    endloop
  endfacet
  facet normal 0.92443853897969 0.3813310735425273 -8.759224921074692e-17
    outer loop
      vertex 0.79375 0.38970758143359074 4.433333333333334
      vertex 0.6783281235535297 0.6695180617000769 4.654369046738587
      vertex 0.79375 0.38970758143359086 4.916666666666666
    endloop
  endfacet
  facet normal 0.951778493692774 -0.3067860801012883 7.046916615785141e-17
    outer loop
      vertex 0.79375 0.38970758143359086 4.916666666666666
      vertex 0.7190440764632682 0.15793861932734846 4.659527337527508
      vertex 0.79375 0.38970758143359074 4.433333333333334
    endloop
  endfacet
  facet normal 0.8989014465398627 0.43288812146297034 -0.06770571397454574
    outer loop
      vertex 0.644322515112685 0.6999969510380899 0.08333333333333333
      vertex 0.6791337905756293 0.6687053247359034 0.34544019995223013
      vertex 0.79375 0.38970758143359086 0.08333333333333333
    endloop
  endfacet
  facet normal 0.8944846050648588 -0.4307610827133166 -0.11975884485754928
    outer loop
      vertex 0.79375 0.38970758143359086 0.08333333333333333
      vertex 0.7096613061703372 0.14542395059166124 0.3339356103982336
      vertex 0.6443225151126823 0.07941821182908948 0.08333333333333333
    endloop
  endfacet
  facet normal 0.924987365276982 0.3799978606228556 8.728600844933707e-17
    outer loop
      vertex 0.79375 0.38970758143359086 0.08333333333333333
      vertex 0.6791337905756293 0.6687053247359034 0.34544019995223013
      vertex 0.79375 0.38970758143359074 0.5666666666666662
    endloop
  endfacet
  facet normal 0.9455482473616108 -0.3254819686424827 -7.476363634907748e-17
    outer loop
      vertex 0.79375 0.38970758143359074 0.5666666666666662
      vertex 0.7096613061703372 0.14542395059166124 0.3339356103982336
      vertex 0.79375 0.38970758143359086 0.08333333333333333
    endloop
  endfacet
  facet normal 0.22093697302719648 0.9679881259147592 0.1191043325728007
    outer loop
      vertex 0.644322515112685 0.6999969510380899 4.916666666666666
      vertex 0.4184584873018096 0.7859952530824735 4.636713621405712
      vertex 0.3085620043360887 0.7766320965807523 4.916666666666666
    endloop
  endfacet
  facet normal 0.4114091861461659 0.9099433729324572 -0.05239789700791831
    outer loop
      vertex 0.644322515112685 0.6999969510380899 4.916666666666666
      vertex 0.6783281235535297 0.6695180617000769 4.654369046738587
      vertex 0.4184584873018096 0.7859952530824735 4.636713621405712
    endloop
  endfacet
  facet normal -0.6169704012949203 0.7736564127356772 0.14423341831541164
    outer loop
      vertex 0.3085620043360887 0.7766320965807523 4.916666666666666
      vertex 0.14364531559070015 0.6952963452305708 4.647500266312545
      vertex 0.03930298055122801 0.5619051903958729 4.916666666666666
    endloop
  endfacet
  facet normal -0.3153369755360602 0.9444904368273719 -0.09219764965231039
    outer loop
      vertex 0.4184584873018096 0.7859952530824735 4.636713621405712
      vertex 0.14364531559070015 0.6952963452305708 4.647500266312545
      vertex 0.3085620043360887 0.7766320965807523 4.916666666666666
    endloop
  endfacet
  facet normal -0.9912794621764199 5.1129224819254065e-15 0.13177643137992404
    outer loop
      vertex 0.03930298055122801 0.5619051903958729 4.916666666666666
      vertex 0.0 0.3897075814335931 4.621012603077521
      vertex 0.03930298055122623 0.21750997247131237 4.916666666666666
    endloop
  endfacet
  facet normal -0.8925685764974415 0.43103716725917746 -0.13239447379144878
    outer loop
      vertex 0.03930298055122801 0.5619051903958729 4.916666666666666
      vertex 0.14364531559070015 0.6952963452305708 4.647500266312545
      vertex 0.0 0.3897075814335931 4.621012603077521
    endloop
  endfacet
  facet normal -0.61293093726841 -0.7685910850610006 0.1832577695597712
    outer loop
      vertex 0.03930298055122623 0.21750997247131237 4.916666666666666
      vertex 0.14942748488731256 0.07941821182909355 4.705830418992875
      vertex 0.3085620043360842 0.0027830662864303983 4.916666666666666
    endloop
  endfacet
  facet normal -0.8733001148399863 -0.46245074715714873 -0.1532521317119658
    outer loop
      vertex 0.0 0.3897075814335931 4.621012603077521
      vertex 0.14942748488731256 0.07941821182909355 4.705830418992875
      vertex 0.03930298055122623 0.21750997247131237 4.916666666666666
    endloop
  endfacet
  facet normal 0.22058043173520314 -0.9664260164483864 0.13177643137987394
    outer loop
      vertex 0.3085620043360842 0.0027830662864303983 4.916666666666666
      vertex 0.48518799566390874 0.0027830662864287703 4.6210126030774035
      vertex 0.6443225151126823 0.07941821182908948 4.916666666666666
    endloop
  endfacet
  facet normal -0.2565285842345514 -0.9543096298352887 -0.15325213171193144
    outer loop
      vertex 0.3085620043360842 0.0027830662864303983 4.916666666666666
      vertex 0.14942748488731256 0.07941821182909355 4.705830418992875
      vertex 0.48518799566390874 0.0027830662864287703 4.6210126030774035
    endloop
  endfacet
  facet normal 0.5607586195981249 -0.8232427886402499 -0.08843687860971927
    outer loop
      vertex 0.48518799566390874 0.0027830662864287703 4.6210126030774035
      vertex 0.7190440764632682 0.15793861932734846 4.659527337527508
      vertex 0.6443225151126823 0.07941821182908948 4.916666666666666
    endloop
  endfacet
  facet normal 0.22065731409078043 0.9667628600570464 -0.1291507729460516
    outer loop
      vertex 0.3085620043360887 0.7766320965807523 0.08333333333333333
      vertex 0.43265374674799323 0.7849665432625959 0.35773497479614846
      vertex 0.644322515112685 0.6999969510380899 0.08333333333333333
    endloop
  endfacet
  facet normal 0.4281317710986492 0.9022841522298529 0.050857597375311946
    outer loop
      vertex 0.43265374674799323 0.7849665432625959 0.35773497479614846
      vertex 0.6791337905756293 0.6687053247359034 0.34544019995223013
      vertex 0.644322515112685 0.6999969510380899 0.08333333333333333
    endloop
  endfacet
  facet normal -0.6165035500733256 0.7730709998202078 -0.14928027995676685
    outer loop
      vertex 0.03930298055122801 0.5619051903958729 0.08333333333333333
      vertex 0.14942748488731605 0.6999969510380908 0.3436663632861414
      vertex 0.3085620043360887 0.7766320965807523 0.08333333333333333
    endloop
  endfacet
  facet normal -0.2905069844728404 0.9513694159757337 0.10247890670029794
    outer loop
      vertex 0.3085620043360887 0.7766320965807523 0.08333333333333333
      vertex 0.14942748488731605 0.6999969510380908 0.3436663632861414
      vertex 0.43265374674799323 0.7849665432625959 0.35773497479614846
    endloop
  endfacet
  facet normal -0.9912794621764194 5.112922481925403e-15 -0.13177643137992764
    outer loop
      vertex 0.03930298055122623 0.21750997247131237 0.08333333333333333
      vertex 0.0 0.3897075814335931 0.3789873969224704
      vertex 0.03930298055122801 0.5619051903958729 0.08333333333333333
    endloop
  endfacet
  facet normal -0.8857764747562376 0.44250110348692856 0.13997431972066518
    outer loop
      vertex 0.0 0.3897075814335931 0.3789873969224704
      vertex 0.14942748488731605 0.6999969510380908 0.3436663632861414
      vertex 0.03930298055122801 0.5619051903958729 0.08333333333333333
    endloop
  endfacet
  facet normal -0.6135288385943837 -0.7693408296096075 -0.17803665945143815
    outer loop
      vertex 0.3085620043360842 0.0027830662864303983 0.08333333333333333
      vertex 0.1487166705841368 0.07998640171459273 0.30055850461993333
      vertex 0.03930298055122623 0.21750997247131237 0.08333333333333333
    endloop
  endfacet
  facet normal -0.8757351445410761 -0.4586620731355877 0.1507217943184901
    outer loop
      vertex 0.03930298055122623 0.21750997247131237 0.08333333333333333
      vertex 0.1487166705841368 0.07998640171459273 0.30055850461993333
      vertex 0.0 0.3897075814335931 0.3789873969224704
    endloop
  endfacet
  facet normal 0.2201370079736395 -0.9644832500111489 -0.14598547245649368
    outer loop
      vertex 0.6443225151126823 0.07941821182908948 0.08333333333333333
      vertex 0.4719600624171092 0.0 0.34811434051959483
      vertex 0.3085620043360842 0.0027830662864303983 0.08333333333333333
    endloop
  endfacet
  facet normal -0.25815248400574625 -0.9545021131190036 0.14927495119081385
    outer loop
      vertex 0.4719600624171092 0.0 0.34811434051959483
      vertex 0.1487166705841368 0.07998640171459273 0.30055850461993333
      vertex 0.3085620043360842 0.0027830662864303983 0.08333333333333333
    endloop
  endfacet
  facet normal 0.5236663351227661 -0.847501470598486 0.08668810063955931
    outer loop
      vertex 0.6443225151126823 0.07941821182908948 0.08333333333333333
      vertex 0.7096613061703372 0.14542395059166124 0.3339356103982336
      vertex 0.4719600624171092 0.0 0.34811434051959483
    endloop
  endfacet
  facet normal 0.8496521507000725 0.5273435529242219 -0.0
    outer loop
      vertex 0.79375 0.38970758143359074 0.5666666666666662
      vertex 0.5730150918939737 0.7453540824041227 0.8083333333333316
      vertex 0.79375 0.38970758143359074 1.0499999999999974
    endloop
  endfacet
  facet normal 0.8632253952975895 -0.5048186970718501 0.0
    outer loop
      vertex 0.79375 0.38970758143359074 1.0499999999999974
      vertex 0.591469228450052 0.04381330296265551 0.7704215114674141
      vertex 0.79375 0.38970758143359074 0.5666666666666662
    endloop
  endfacet
  facet normal 0.8788528650354698 0.4603589868621089 0.12524873186679028
    outer loop
      vertex 0.79375 0.38970758143359074 0.5666666666666662
      vertex 0.6791337905756293 0.6687053247359034 0.34544019995223013
      vertex 0.5730150918939737 0.7453540824041227 0.8083333333333316
    endloop
  endfacet
  facet normal 0.8883061339659231 -0.43783441279176133 0.13861182970370642
    outer loop
      vertex 0.591469228450052 0.04381330296265551 0.7704215114674141
      vertex 0.7096613061703372 0.14542395059166124 0.3339356103982336
      vertex 0.79375 0.38970758143359074 0.5666666666666662
    endloop
  endfacet
  facet normal 0.8585713994075317 -0.5126940141247923 0.0
    outer loop
      vertex 0.79375 0.38970758143359074 1.533333333333329
      vertex 0.5851087230052321 0.04031120030094441 1.2911525819354475
      vertex 0.79375 0.38970758143359074 1.0499999999999974
    endloop
  endfacet
  facet normal 0.8564044942348608 0.5163054737791692 -0.0
    outer loop
      vertex 0.79375 0.38970758143359074 1.0499999999999974
      vertex 0.5821589970856236 0.7406771043967316 1.2764319220553204
      vertex 0.79375 0.38970758143359074 1.533333333333329
    endloop
  endfacet
  facet normal 0.8606960945914167 -0.5090697140770558 0.007089355724443569
    outer loop
      vertex 0.5851087230052321 0.04031120030094441 1.2911525819354475
      vertex 0.591469228450052 0.04381330296265551 0.7704215114674141
      vertex 0.79375 0.38970758143359074 1.0499999999999974
    endloop
  endfacet
  facet normal 0.853064427685279 0.5216799250546005 -0.011451550681621708
    outer loop
      vertex 0.5730150918939737 0.7453540824041227 0.8083333333333316
      vertex 0.5821589970856236 0.7406771043967316 1.2764319220553204
      vertex 0.79375 0.38970758143359074 1.0499999999999974
    endloop
  endfacet
  facet normal 0.8574192608677444 0.5146185102510507 -0.0
    outer loop
      vertex 0.79375 0.38970758143359074 1.533333333333329
      vertex 0.5835394324449226 0.7399448656924414 1.7751292722525451
      vertex 0.79375 0.38970758143359074 2.0166666666666604
    endloop
  endfacet
  facet normal 0.8603633721070735 -0.5096811433990327 0.0
    outer loop
      vertex 0.79375 0.38970758143359074 2.0166666666666604
      vertex 0.5875536985753672 0.041639485316460036 1.7540508898530258
      vertex 0.79375 0.38970758143359074 1.533333333333329
    endloop
  endfacet
  facet normal 0.8569257135378688 0.5154373992376241 -0.0016152228231835707
    outer loop
      vertex 0.79375 0.38970758143359074 1.533333333333329
      vertex 0.5821589970856236 0.7406771043967316 1.2764319220553204
      vertex 0.5835394324449226 0.7399448656924414 1.7751292722525451
    endloop
  endfacet
  facet normal 0.8595035539281976 -0.5111205303971115 -0.0030731403114205415
    outer loop
      vertex 0.79375 0.38970758143359074 1.533333333333329
      vertex 0.5875536985753672 0.041639485316460036 1.7540508898530258
      vertex 0.5851087230052321 0.04031120030094441 1.2911525819354475
    endloop
  endfacet
  facet normal 0.8800273240866969 -0.4749230557267227 0.0
    outer loop
      vertex 0.79375 0.38970758143359074 2.4999999999999947
      vertex 0.6147181723417339 0.05796352664271801 2.243130782806257
      vertex 0.79375 0.38970758143359074 2.0166666666666604
    endloop
  endfacet
  facet normal 0.8496521506774865 0.5273435529606122 -0.0
    outer loop
      vertex 0.79375 0.38970758143359074 2.0166666666666604
      vertex 0.5730150918635092 0.7453540824192109 2.2583333333333275
      vertex 0.79375 0.38970758143359074 2.4999999999999947
    endloop
  endfacet
  facet normal 0.8534435867862915 0.5210291144558727 0.012755628666545846
    outer loop
      vertex 0.5835394324449226 0.7399448656924414 1.7751292722525451
      vertex 0.5730150918635092 0.7453540824192109 2.2583333333333275
      vertex 0.79375 0.38970758143359074 2.0166666666666604
    endloop
  endfacet
  facet normal 0.8703052419018745 -0.4914763228720478 -0.031934463738888114
    outer loop
      vertex 0.6147181723417339 0.05796352664271801 2.243130782806257
      vertex 0.5875536985753672 0.041639485316460036 1.7540508898530258
      vertex 0.79375 0.38970758143359074 2.0166666666666604
    endloop
  endfacet
  facet normal 0.8641469471946578 0.503239558912208 -0.0
    outer loop
      vertex 0.79375 0.38970758143359074 2.4999999999999947
      vertex 0.5927327699120155 0.7348879684634625 2.741666666666662
      vertex 0.79375 0.38970758143359074 2.9833333333333294
    endloop
  endfacet
  facet normal 0.8470770957242032 -0.5314700310454478 0.0
    outer loop
      vertex 0.79375 0.38970758143359074 2.9833333333333294
      vertex 0.5695470623423122 0.03236443470841206 2.7583757724911218
      vertex 0.79375 0.38970758143359074 2.4999999999999947
    endloop
  endfacet
  facet normal 0.8565723966488409 0.5154785668307952 -0.023781851007232423
    outer loop
      vertex 0.79375 0.38970758143359074 2.4999999999999947
      vertex 0.5730150918635092 0.7453540824192109 2.2583333333333275
      vertex 0.5927327699120155 0.7348879684634625 2.741666666666662
    endloop
  endfacet
  facet normal 0.8620334270465536 -0.5043276657853081 0.0505170879793823
    outer loop
      vertex 0.79375 0.38970758143359074 2.4999999999999947
      vertex 0.5695470623423122 0.03236443470841206 2.7583757724911218
      vertex 0.6147181723417339 0.05796352664271801 2.243130782806257
    endloop
  endfacet
  facet normal 0.8546947347070138 -0.5191309184243482 0.0
    outer loop
      vertex 0.79375 0.38970758143359074 3.4666666666666632
      vertex 0.5798368273191149 0.03752192674412114 3.2363239987232975
      vertex 0.79375 0.38970758143359074 2.9833333333333294
    endloop
  endfacet
  facet normal 0.8536510679519994 0.5208453265456177 -0.0
    outer loop
      vertex 0.79375 0.38970758143359074 2.9833333333333294
      vertex 0.5784216157411235 0.7426248407705988 3.233954705354183
      vertex 0.79375 0.38970758143359074 3.4666666666666632
    endloop
  endfacet
  facet normal 0.8588263929943097 0.5119872392824092 0.01692021005663444
    outer loop
      vertex 0.5927327699120155 0.7348879684634625 2.741666666666662
      vertex 0.5784216157411235 0.7426248407705988 3.233954705354183
      vertex 0.79375 0.38970758143359074 2.9833333333333294
    endloop
  endfacet
  facet normal 0.8505722692320012 -0.5257062549660478 -0.012639157531131161
    outer loop
      vertex 0.5798368273191149 0.03752192674412114 3.2363239987232975
      vertex 0.5695470623423122 0.03236443470841206 2.7583757724911218
      vertex 0.79375 0.38970758143359074 2.9833333333333294
    endloop
  endfacet
  facet normal 0.8607172175992849 -0.509083363829683 0.0
    outer loop
      vertex 0.79375 0.38970758143359074 3.949999999999998
      vertex 0.5880370896332847 0.04190473338309545 3.707397474198178
      vertex 0.79375 0.38970758143359074 3.4666666666666632
    endloop
  endfacet
  facet normal 0.8496521507000706 0.5273435529242244 -0.0
    outer loop
      vertex 0.79375 0.38970758143359074 3.4666666666666632
      vertex 0.5730150918939715 0.7453540824041238 3.708333333333331
      vertex 0.79375 0.38970758143359074 3.949999999999998
    endloop
  endfacet
  facet normal 0.857580737814399 -0.5142493354577057 -0.010143919904019328
    outer loop
      vertex 0.5880370896332847 0.04190473338309545 3.707397474198178
      vertex 0.5798368273191149 0.03752192674412114 3.2363239987232975
      vertex 0.79375 0.38970758143359074 3.4666666666666632
    endloop
  endfacet
  facet normal 0.851664089181654 0.5240453255889428 0.006691481656740276
    outer loop
      vertex 0.79375 0.38970758143359074 3.4666666666666632
      vertex 0.5784216157411235 0.7426248407705988 3.233954705354183
      vertex 0.5730150918939715 0.7453540824041238 3.708333333333331
    endloop
  endfacet
  facet normal 0.8662453442831504 -0.4996188582387244 0.0
    outer loop
      vertex 0.79375 0.38970758143359074 4.433333333333334
      vertex 0.5956149159657104 0.046178526727962854 4.226984704209796
      vertex 0.79375 0.38970758143359074 3.949999999999998
    endloop
  endfacet
  facet normal 0.8619859390795868 0.5069321856314541 -0.0
    outer loop
      vertex 0.79375 0.38970758143359074 3.949999999999998
      vertex 0.5897719338419152 0.7365512616980405 4.225039504143728
      vertex 0.79375 0.38970758143359074 4.433333333333334
    endloop
  endfacet
  facet normal 0.8632547238559539 -0.5046979995755776 -0.008438658945052363
    outer loop
      vertex 0.79375 0.38970758143359074 3.949999999999998
      vertex 0.5956149159657104 0.046178526727962854 4.226984704209796
      vertex 0.5880370896332847 0.04190473338309545 3.707397474198178
    endloop
  endfacet
  facet normal 0.8552071228363619 0.5179412766533454 -0.018910605190064194
    outer loop
      vertex 0.5730150918939715 0.7453540824041238 3.708333333333331
      vertex 0.5897719338419152 0.7365512616980405 4.225039504143728
      vertex 0.79375 0.38970758143359074 3.949999999999998
    endloop
  endfacet
  facet normal 0.8921896764253772 -0.4280968942124299 -0.14398135450693691
    outer loop
      vertex 0.79375 0.38970758143359074 4.433333333333334
      vertex 0.7190440764632682 0.15793861932734846 4.659527337527508
      vertex 0.5956149159657104 0.046178526727962854 4.226984704209796
    endloop
  endfacet
  facet normal 0.8844513431486076 0.45306790214254467 -0.11169287197837371
    outer loop
      vertex 0.5897719338419152 0.7365512616980405 4.225039504143728
      vertex 0.6783281235535297 0.6695180617000769 4.654369046738587
      vertex 0.79375 0.38970758143359074 4.433333333333334
    endloop
  endfacet
  facet normal -0.027351555657666 0.9996246846316302 0.0015434630605284149
    outer loop
      vertex 0.5821589970856236 0.7406771043967316 1.2764319220553204
      vertex 0.19198346039610076 0.7296034811201622 1.5340080686531787
      vertex 0.5835394324449226 0.7399448656924414 1.7751292722525451
    endloop
  endfacet
  facet normal -0.0728662798930926 0.9972602072111452 -0.012750857529017159
    outer loop
      vertex 0.5835394324449226 0.7399448656924414 1.7751292722525451
      vertex 0.16568455060124213 0.7122920536758244 2.000249953502572
      vertex 0.5730150918635092 0.7453540824192109 2.2583333333333275
    endloop
  endfacet
  facet normal -0.047539407995501375 0.9982773807304329 0.03438423780489449
    outer loop
      vertex 0.5835394324449226 0.7399448656924414 1.7751292722525451
      vertex 0.19198346039610076 0.7296034811201622 1.5340080686531787
      vertex 0.16568455060124213 0.7122920536758244 2.000249953502572
    endloop
  endfacet
  facet normal -0.13491454626546076 0.990665506812965 -0.019491506278274583
    outer loop
      vertex 0.5927327699120155 0.7348879684634625 2.741666666666662
      vertex 0.12121619502560801 0.6752281391261852 2.9731269564075093
      vertex 0.5784216157411235 0.7426248407705988 3.233954705354183
    endloop
  endfacet
  facet normal -0.21472705184703722 0.9762163448892314 0.029898849077999223
    outer loop
      vertex 0.5730150918635092 0.7453540824192109 2.2583333333333275
      vertex 0.08142775460171521 0.6305452881898924 2.4764394480908827
      vertex 0.5927327699120155 0.7348879684634625 2.741666666666662
    endloop
  endfacet
  facet normal -0.16159582638823386 0.983959055999054 -0.07557357349864031
    outer loop
      vertex 0.08142775460171521 0.6305452881898924 2.4764394480908827
      vertex 0.12121619502560801 0.6752281391261852 2.9731269564075093
      vertex 0.5927327699120155 0.7348879684634625 2.741666666666662
    endloop
  endfacet
  facet normal -0.02994427050631839 -0.9995140710727857 0.008658082429199927
    outer loop
      vertex 0.5956149159657104 0.046178526727962854 4.226984704209796
      vertex 0.1817067538753483 0.05622236214397776 3.954958748829924
      vertex 0.5880370896332847 0.04190473338309545 3.707397474198178
    endloop
  endfacet
  facet normal -0.0377465983946403 -0.9992786769409961 -0.004161744908770278
    outer loop
      vertex 0.1817067538753483 0.05622236214397776 3.954958748829924
      vertex 0.17866710872631733 0.05820331025312371 3.506881564434579
      vertex 0.5880370896332847 0.04190473338309545 3.707397474198178
    endloop
  endfacet
  facet normal -0.044705557107438725 -0.9989494289876832 0.010072312986346282
    outer loop
      vertex 0.17866710872631733 0.05820331025312371 3.506881564434579
      vertex 0.5798368273191149 0.03752192674412114 3.2363239987232975
      vertex 0.5880370896332847 0.04190473338309545 3.707397474198178
    endloop
  endfacet
  facet normal -0.8942654662331915 0.44745317662457035 0.008656248108375375
    outer loop
      vertex 8.914701932420202e-05 0.3812961309405104 0.8229963134680425
      vertex 0.16338988586886122 0.7106350921025408 0.6694017101208682
      vertex 0.0 0.3897075814335931 0.3789873969224704
    endloop
  endfacet
  facet normal -0.8687725876264243 -0.49512569285035685 -0.00920539343760466
    outer loop
      vertex 0.0 0.3897075814335931 0.3789873969224704
      vertex 0.19089988586795506 0.05046722713697852 0.6090729065941296
      vertex 8.914701932420202e-05 0.3812961309405104 0.8229963134680425
    endloop
  endfacet
  facet normal -0.8996172255444633 0.43600147065919903 0.024322111065817206
    outer loop
      vertex 0.16338988586886122 0.7106350921025408 0.6694017101208682
      vertex 0.14942748488731605 0.6999969510380908 0.3436663632861414
      vertex 0.0 0.3897075814335931 0.3789873969224704
    endloop
  endfacet
  facet normal -0.8907037887188951 -0.4476755403793028 0.07895170237496589
    outer loop
      vertex 0.0 0.3897075814335931 0.3789873969224704
      vertex 0.1487166705841368 0.07998640171459273 0.30055850461993333
      vertex 0.19089988586795506 0.05046722713697852 0.6090729065941296
    endloop
  endfacet
  facet normal -0.04244948155067606 -0.9990723989554418 -0.007237621259605959
    outer loop
      vertex 0.5851087230052321 0.04031120030094441 1.2911525819354475
      vertex 0.17680887061936246 0.05943396104524604 1.0461956635128913
      vertex 0.591469228450052 0.04381330296265551 0.7704215114674141
    endloop
  endfacet
  facet normal -0.04747858146342463 -0.9988715819034398 0.0011606756396842603
    outer loop
      vertex 0.5851087230052321 0.04031120030094441 1.2911525819354475
      vertex 0.17596368673391896 0.05999868362211928 1.4976199752042114
      vertex 0.17680887061936246 0.05943396104524604 1.0461956635128913
    endloop
  endfacet
  facet normal -0.04649592309540906 -0.9989136323068001 0.0031119651574165203
    outer loop
      vertex 0.5851087230052321 0.04031120030094441 1.2911525819354475
      vertex 0.5875536985753672 0.041639485316460036 1.7540508898530258
      vertex 0.17596368673391896 0.05999868362211928 1.4976199752042114
    endloop
  endfacet
  facet normal -0.8642715954748247 0.5026506899358874 0.019413736435249098
    outer loop
      vertex 0.1903205324149515 0.7285954943866161 4.319493466130062
      vertex 0.0004025077619468723 0.40757734706011567 4.1762566940667165
      vertex 0.0 0.3897075814335931 4.621012603077521
    endloop
  endfacet
  facet normal -0.8989502726928295 0.4298665369307277 -0.08428029219616487
    outer loop
      vertex 0.0 0.3897075814335931 4.621012603077521
      vertex 0.14364531559070015 0.6952963452305708 4.647500266312545
      vertex 0.1903205324149515 0.7285954943866161 4.319493466130062
    endloop
  endfacet
  facet normal -0.8773792747944564 -0.4793781491486675 -0.020054881698766343
    outer loop
      vertex 0.0004025077619468723 0.40757734706011567 4.1762566940667165
      vertex 0.19043335396781236 0.05075092873516551 4.391947916595829
      vertex 0.0 0.3897075814335931 4.621012603077521
    endloop
  endfacet
  facet normal -0.8902154458743122 -0.44927897734966005 -0.07526526714523206
    outer loop
      vertex 0.19043335396781236 0.05075092873516551 4.391947916595829
      vertex 0.14942748488731256 0.07941821182909355 4.705830418992875
      vertex 0.0 0.3897075814335931 4.621012603077521
    endloop
  endfacet
  facet normal 0.018223833724498015 0.9996987591369844 0.016440281760224842
    outer loop
      vertex 0.5730150918939715 0.7453540824041238 3.708333333333331
      vertex 0.22558543501165323 0.7477154731777574 3.949863310109678
      vertex 0.5897719338419152 0.7365512616980405 4.225039504143728
    endloop
  endfacet
  facet normal -0.0238974630405396 0.9996962657479758 -0.006023911501551939
    outer loop
      vertex 0.5784216157411235 0.7426248407705988 3.233954705354183
      vertex 0.20190279194984478 0.7353889429691052 3.526811707598971
      vertex 0.5730150918939715 0.7453540824041238 3.708333333333331
    endloop
  endfacet
  facet normal -0.012948677467728983 0.9995128208696521 -0.02839811030733594
    outer loop
      vertex 0.5730150918939715 0.7453540824041238 3.708333333333331
      vertex 0.20190279194984478 0.7353889429691052 3.526811707598971
      vertex 0.22558543501165323 0.7477154731777574 3.949863310109678
    endloop
  endfacet
  facet normal -0.9629815238103225 0.22745698335347442 -0.14467171639158297
    outer loop
      vertex 0.0005670162504138135 0.36850032698286805 3.2939605534669196
      vertex 0.12121619502560801 0.6752281391261852 2.9731269564075093
      vertex 0.037980183141059776 0.22028421806009452 2.811896890835585
    endloop
  endfacet
  facet normal -0.8022366747953465 -0.5852903627356664 0.11769243349535158
    outer loop
      vertex 0.037980183141059776 0.22028421806009452 2.811896890835585
      vertex 0.22287063252645858 0.03301128803382373 3.140863307969289
      vertex 0.0005670162504138135 0.36850032698286805 3.2939605534669196
    endloop
  endfacet
  facet normal -0.34446462336475875 -0.8858894582133509 -0.31071528941561677
    outer loop
      vertex 0.5695470623423122 0.03236443470841206 2.7583757724911218
      vertex 0.22287063252645858 0.03301128803382373 3.140863307969289
      vertex 0.037980183141059776 0.22028421806009452 2.811896890835585
    endloop
  endfacet
  facet normal -0.27239953980964854 -0.8808218529862815 0.3872355278293886
    outer loop
      vertex 0.037980183141059776 0.22028421806009452 2.811896890835585
      vertex 0.2596480099015409 0.017311933213156605 2.5061392794220345
      vertex 0.5695470623423122 0.03236443470841206 2.7583757724911218
    endloop
  endfacet
  facet normal -0.9854185321243322 0.15733126591690133 0.06478571841781222
    outer loop
      vertex 0.037980183141059776 0.22028421806009452 2.811896890835585
      vertex 0.12121619502560801 0.6752281391261852 2.9731269564075093
      vertex 0.08142775460171521 0.6305452881898924 2.4764394480908827
    endloop
  endfacet
  facet normal -0.9834230518450896 0.16522498167399985 0.07469810258980097
    outer loop
      vertex 0.08142775460171521 0.6305452881898924 2.4764394480908827
      vertex 0.01548179013047446 0.2799397123168952 2.383746574393945
      vertex 0.037980183141059776 0.22028421806009452 2.811896890835585
    endloop
  endfacet
  facet normal -0.7172282158332409 -0.694331513904667 -0.05905451050952301
    outer loop
      vertex 0.01548179013047446 0.2799397123168952 2.383746574393945
      vertex 0.2596480099015409 0.017311933213156605 2.5061392794220345
      vertex 0.037980183141059776 0.22028421806009452 2.811896890835585
    endloop
  endfacet
  facet normal -0.0521503672387053 -0.9979826886258601 0.036206248079133585
    outer loop
      vertex 0.6147181723417339 0.05796352664271801 2.243130782806257
      vertex 0.15766814524349954 0.07302185983802778 1.9998752294580016
      vertex 0.5875536985753672 0.041639485316460036 1.7540508898530258
    endloop
  endfacet
  facet normal 0.028494888795213086 -0.9929560198609091 -0.1150060169492453
    outer loop
      vertex 0.6147181723417339 0.05796352664271801 2.243130782806257
      vertex 0.2596480099015409 0.017311933213156605 2.5061392794220345
      vertex 0.15766814524349954 0.07302185983802778 1.9998752294580016
    endloop
  endfacet
  facet normal 0.08272350709309906 -0.9956779625261706 -0.04221630388785227
    outer loop
      vertex 0.5695470623423122 0.03236443470841206 2.7583757724911218
      vertex 0.2596480099015409 0.017311933213156605 2.5061392794220345
      vertex 0.6147181723417339 0.05796352664271801 2.243130782806257
    endloop
  endfacet
  facet normal -0.12606170124890387 0.9840169550719817 0.12577392261155568
    outer loop
      vertex 0.43265374674799323 0.7849665432625959 0.35773497479614846
      vertex 0.16338988586886122 0.7106350921025408 0.6694017101208682
      vertex 0.5730150918939737 0.7453540824041227 0.8083333333333316
    endloop
  endfacet
  facet normal 0.4238750464257552 0.9041949992708981 -0.052548532910677265
    outer loop
      vertex 0.5730150918939737 0.7453540824041227 0.8083333333333316
      vertex 0.6791337905756293 0.6687053247359034 0.34544019995223013
      vertex 0.43265374674799323 0.7849665432625959 0.35773497479614846
    endloop
  endfacet
  facet normal -0.05282001962238622 0.998543366377604 0.011008677957546745
    outer loop
      vertex 0.5730150918939737 0.7453540824041227 0.8083333333333316
      vertex 0.17897964827726182 0.7214173662193645 1.0889200947333109
      vertex 0.5821589970856236 0.7406771043967316 1.2764319220553204
    endloop
  endfacet
  facet normal -0.07676418940530609 0.9967893210682103 -0.02276639254082053
    outer loop
      vertex 0.16338988586886122 0.7106350921025408 0.6694017101208682
      vertex 0.17897964827726182 0.7214173662193645 1.0889200947333109
      vertex 0.5730150918939737 0.7453540824041227 0.8083333333333316
    endloop
  endfacet
  facet normal -0.06528601513834474 -0.9904745874102512 0.12123459869958098
    outer loop
      vertex 0.591469228450052 0.04381330296265551 0.7704215114674141
      vertex 0.19089988586795506 0.05046722713697852 0.6090729065941296
      vertex 0.4719600624171092 0.0 0.34811434051959483
    endloop
  endfacet
  facet normal 0.518459656860263 -0.8531184636947213 -0.05821057559839815
    outer loop
      vertex 0.4719600624171092 0.0 0.34811434051959483
      vertex 0.7096613061703372 0.14542395059166124 0.3339356103982336
      vertex 0.591469228450052 0.04381330296265551 0.7704215114674141
    endloop
  endfacet
  facet normal -0.23124792634929808 -0.970962704018723 -0.061284777586277546
    outer loop
      vertex 0.19089988586795506 0.05046722713697852 0.6090729065941296
      vertex 0.1487166705841368 0.07998640171459273 0.30055850461993333
      vertex 0.4719600624171092 0.0 0.34811434051959483
    endloop
  endfacet
  facet normal -0.06271667390805881 -0.9899686299054414 -0.12660462320568347
    outer loop
      vertex 0.48518799566390874 0.0027830662864287703 4.6210126030774035
      vertex 0.19043335396781236 0.05075092873516551 4.391947916595829
      vertex 0.5956149159657104 0.046178526727962854 4.226984704209796
    endloop
  endfacet
  facet normal 0.5448872749059103 -0.836316664538825 0.06059945759052315
    outer loop
      vertex 0.5956149159657104 0.046178526727962854 4.226984704209796
      vertex 0.7190440764632682 0.15793861932734846 4.659527337527508
      vertex 0.48518799566390874 0.0027830662864287703 4.6210126030774035
    endloop
  endfacet
  facet normal -0.2071529572979127 -0.976335156455694 0.062107282595236436
    outer loop
      vertex 0.48518799566390874 0.0027830662864287703 4.6210126030774035
      vertex 0.14942748488731256 0.07941821182909355 4.705830418992875
      vertex 0.19043335396781236 0.05075092873516551 4.391947916595829
    endloop
  endfacet
  facet normal -0.05298005319613528 0.9886215968418284 -0.14078512784114722
    outer loop
      vertex 0.5897719338419152 0.7365512616980405 4.225039504143728
      vertex 0.1903205324149515 0.7285954943866161 4.319493466130062
      vertex 0.4184584873018096 0.7859952530824735 4.636713621405712
    endloop
  endfacet
  facet normal 0.40496119137725173 0.9124326792807926 0.05893249747627509
    outer loop
      vertex 0.4184584873018096 0.7859952530824735 4.636713621405712
      vertex 0.6783281235535297 0.6695180617000769 4.654369046738587
      vertex 0.5897719338419152 0.7365512616980405 4.225039504143728
    endloop
  endfacet
  facet normal -0.31114207429343566 0.9489364197247336 0.052060358473433786
    outer loop
      vertex 0.1903205324149515 0.7285954943866161 4.319493466130062
      vertex 0.14364531559070015 0.6952963452305708 4.647500266312545
      vertex 0.4184584873018096 0.7859952530824735 4.636713621405712
    endloop
  endfacet
  facet normal -0.01624697259167449 -0.9997936532473412 -0.012193720020606261
    outer loop
      vertex 0.5956149159657104 0.046178526727962854 4.226984704209796
      vertex 0.19043335396781236 0.05075092873516551 4.391947916595829
      vertex 0.1817067538753483 0.05622236214397776 3.954958748829924
    endloop
  endfacet
  facet normal -0.9069934677773149 -0.42112282817467905 0.00429103710543945
    outer loop
      vertex 0.1817067538753483 0.05622236214397776 3.954958748829924
      vertex 0.0030636505267028396 0.4389253287512058 3.753801748551517
      vertex 0.17866710872631733 0.05820331025312371 3.506881564434579
    endloop
  endfacet
  facet normal -0.897622816870256 -0.43910267661947705 -0.03823765185674461
    outer loop
      vertex 0.1817067538753483 0.05622236214397776 3.954958748829924
      vertex 0.0004025077619468723 0.40757734706011567 4.1762566940667165
      vertex 0.0030636505267028396 0.4389253287512058 3.753801748551517
    endloop
  endfacet
  facet normal -0.8855335869013151 -0.4644237211728136 0.011869021934753535
    outer loop
      vertex 0.1817067538753483 0.05622236214397776 3.954958748829924
      vertex 0.19043335396781236 0.05075092873516551 4.391947916595829
      vertex 0.0004025077619468723 0.40757734706011567 4.1762566940667165
    endloop
  endfacet
  facet normal -0.8861701318302597 -0.45727558810113006 0.0748433963600395
    outer loop
      vertex 0.0030636505267028396 0.4389253287512058 3.753801748551517
      vertex 0.0005670162504138135 0.36850032698286805 3.2939605534669196
      vertex 0.17866710872631733 0.05820331025312371 3.506881564434579
    endloop
  endfacet
  facet normal -0.8453297055279478 -0.5302025371458055 -0.06559694014345312
    outer loop
      vertex 0.0005670162504138135 0.36850032698286805 3.2939605534669196
      vertex 0.22287063252645858 0.03301128803382373 3.140863307969289
      vertex 0.17866710872631733 0.05820331025312371 3.506881564434579
    endloop
  endfacet
  facet normal -0.005576353238384405 -0.997670185176139 0.06799342538193738
    outer loop
      vertex 0.17866710872631733 0.05820331025312371 3.506881564434579
      vertex 0.22287063252645858 0.03301128803382373 3.140863307969289
      vertex 0.5798368273191149 0.03752192674412114 3.2363239987232975
    endloop
  endfacet
  facet normal -0.024542794533907966 -0.9995044261496973 0.019711756482632493
    outer loop
      vertex 0.17680887061936246 0.05943396104524604 1.0461956635128913
      vertex 0.19089988586795506 0.05046722713697852 0.6090729065941296
      vertex 0.591469228450052 0.04381330296265551 0.7704215114674141
    endloop
  endfacet
  facet normal -0.884004165217047 -0.46747779666819633 -0.0010702808790485937
    outer loop
      vertex 0.17596368673391896 0.05999868362211928 1.4976199752042114
      vertex 1.5996921774045582e-05 0.3932709086367317 1.255744415850712
      vertex 0.17680887061936246 0.05943396104524604 1.0461956635128913
    endloop
  endfacet
  facet normal -0.8802609742473045 -0.4743123837248415 0.012976126634908809
    outer loop
      vertex 1.5996921774045582e-05 0.3932709086367317 1.255744415850712
      vertex 8.914701932420202e-05 0.3812961309405104 0.8229963134680425
      vertex 0.17680887061936246 0.05943396104524604 1.0461956635128913
    endloop
  endfacet
  facet normal -0.8711011285085194 -0.4907732076802086 -0.01801339874823266
    outer loop
      vertex 8.914701932420202e-05 0.3812961309405104 0.8229963134680425
      vertex 0.19089988586795506 0.05046722713697852 0.6090729065941296
      vertex 0.17680887061936246 0.05943396104524604 1.0461956635128913
    endloop
  endfacet
  facet normal -0.8876547734210374 -0.4603688615165866 0.011380446773684504
    outer loop
      vertex 0.17596368673391896 0.05999868362211928 1.4976199752042114
      vertex 0.0002519975103495072 0.40384828583947874 1.7020346407111013
      vertex 1.5996921774045582e-05 0.3932709086367317 1.255744415850712
    endloop
  endfacet
  facet normal -0.05929061374989391 -0.9979589875442866 0.023716709315232377
    outer loop
      vertex 0.5875536985753672 0.041639485316460036 1.7540508898530258
      vertex 0.15766814524349954 0.07302185983802778 1.9998752294580016
      vertex 0.17596368673391896 0.05999868362211928 1.4976199752042114
    endloop
  endfacet
  facet normal -0.8952934263911037 -0.4449781344639557 -0.021074641393277187
    outer loop
      vertex 0.15766814524349954 0.07302185983802778 1.9998752294580016
      vertex 0.0002519975103495072 0.40384828583947874 1.7020346407111013
      vertex 0.17596368673391896 0.05999868362211928 1.4976199752042114
    endloop
  endfacet
  facet normal -0.8806637191793016 0.47355651736485066 -0.013252870728792299
    outer loop
      vertex 1.5996921774045582e-05 0.3932709086367317 1.255744415850712
      vertex 0.17897964827726182 0.7214173662193645 1.0889200947333109
      vertex 8.914701932420202e-05 0.3812961309405104 0.8229963134680425
    endloop
  endfacet
  facet normal -0.8742275993977134 0.48523187471813534 0.016617226267791527
    outer loop
      vertex 0.19198346039610076 0.7296034811201622 1.5340080686531787
      vertex 0.17897964827726182 0.7214173662193645 1.0889200947333109
      vertex 1.5996921774045582e-05 0.3932709086367317 1.255744415850712
    endloop
  endfacet
  facet normal -0.8643223167485417 0.5028077219566721 -0.011459821603123905
    outer loop
      vertex 1.5996921774045582e-05 0.3932709086367317 1.255744415850712
      vertex 0.0002519975103495072 0.40384828583947874 1.7020346407111013
      vertex 0.19198346039610076 0.7296034811201622 1.5340080686531787
    endloop
  endfacet
  facet normal -0.8916747059451309 0.45216518593409877 0.021514260546119063
    outer loop
      vertex 8.914701932420202e-05 0.3812961309405104 0.8229963134680425
      vertex 0.17897964827726182 0.7214173662193645 1.0889200947333109
      vertex 0.16338988586886122 0.7106350921025408 0.6694017101208682
    endloop
  endfacet
  facet normal -0.7480422181377149 -0.6590322781211094 0.07816198742424585
    outer loop
      vertex 0.15766814524349954 0.07302185983802778 1.9998752294580016
      vertex 0.2596480099015409 0.017311933213156605 2.5061392794220345
      vertex 0.01548179013047446 0.2799397123168952 2.383746574393945
    endloop
  endfacet
  facet normal -0.8957046913602239 -0.4337194067679286 -0.09798256002045579
    outer loop
      vertex 0.01548179013047446 0.2799397123168952 2.383746574393945
      vertex 7.280865370236829e-06 0.38730359851422574 2.0499605365753104
      vertex 0.15766814524349954 0.07302185983802778 1.9998752294580016
    endloop
  endfacet
  facet normal -0.8950111711515578 -0.44550996495963224 -0.021814551005789263
    outer loop
      vertex 0.15766814524349954 0.07302185983802778 1.9998752294580016
      vertex 7.280865370236829e-06 0.38730359851422574 2.0499605365753104
      vertex 0.0002519975103495072 0.40384828583947874 1.7020346407111013
    endloop
  endfacet
  facet normal -0.007852273134452588 0.998672401179072 0.05090949744250618
    outer loop
      vertex 0.5897719338419152 0.7365512616980405 4.225039504143728
      vertex 0.22558543501165323 0.7477154731777574 3.949863310109678
      vertex 0.1903205324149515 0.7285954943866161 4.319493466130062
    endloop
  endfacet
  facet normal -0.8487214966667386 0.5261005238551333 -0.053759277293558026
    outer loop
      vertex 0.1903205324149515 0.7285954943866161 4.319493466130062
      vertex 0.22558543501165323 0.7477154731777574 3.949863310109678
      vertex 0.0004025077619468723 0.40757734706011567 4.1762566940667165
    endloop
  endfacet
  facet normal -0.8217392801239111 0.568659849219305 0.037020688639102795
    outer loop
      vertex 0.0004025077619468723 0.40757734706011567 4.1762566940667165
      vertex 0.22558543501165323 0.7477154731777574 3.949863310109678
      vertex 0.0030636505267028396 0.4389253287512058 3.753801748551517
    endloop
  endfacet
  facet normal -0.8535990797997343 0.5156002834815342 -0.07433006551058913
    outer loop
      vertex 0.0030636505267028396 0.4389253287512058 3.753801748551517
      vertex 0.20190279194984478 0.7353889429691052 3.526811707598971
      vertex 0.0005670162504138135 0.36850032698286805 3.2939605534669196
    endloop
  endfacet
  facet normal -0.819654063501659 0.5721133689740987 0.029214880220965033
    outer loop
      vertex 0.22558543501165323 0.7477154731777574 3.949863310109678
      vertex 0.20190279194984478 0.7353889429691052 3.526811707598971
      vertex 0.0030636505267028396 0.4389253287512058 3.753801748551517
    endloop
  endfacet
  facet normal -0.89488411791283 0.4385587169361939 0.08275667529967416
    outer loop
      vertex 0.0005670162504138135 0.36850032698286805 3.2939605534669196
      vertex 0.20190279194984478 0.7353889429691052 3.526811707598971
      vertex 0.12121619502560801 0.6752281391261852 2.9731269564075093
    endloop
  endfacet
  facet normal -0.2864350323073411 0.9579111269247469 -0.019006451032580404
    outer loop
      vertex 0.43265374674799323 0.7849665432625959 0.35773497479614846
      vertex 0.14942748488731605 0.6999969510380908 0.3436663632861414
      vertex 0.16338988586886122 0.7106350921025408 0.6694017101208682
    endloop
  endfacet
  facet normal -0.03971872692789286 0.9990626032980727 -0.017214453883442192
    outer loop
      vertex 0.5821589970856236 0.7406771043967316 1.2764319220553204
      vertex 0.17897964827726182 0.7214173662193645 1.0889200947333109
      vertex 0.19198346039610076 0.7296034811201622 1.5340080686531787
    endloop
  endfacet
  facet normal 0.009805752881187969 -0.9998959640636348 0.010578670033962432
    outer loop
      vertex 0.5798368273191149 0.03752192674412114 3.2363239987232975
      vertex 0.22287063252645858 0.03301128803382373 3.140863307969289
      vertex 0.5695470623423122 0.03236443470841206 2.7583757724911218
    endloop
  endfacet
  facet normal -0.09235505541908877 0.9912558261942086 -0.09424664861189434
    outer loop
      vertex 0.12121619502560801 0.6752281391261852 2.9731269564075093
      vertex 0.20190279194984478 0.7353889429691052 3.526811707598971
      vertex 0.5784216157411235 0.7426248407705988 3.233954705354183
    endloop
  endfacet
  facet normal -0.16673868009057174 0.9762828242721865 0.13809438653608283
    outer loop
      vertex 0.5730150918635092 0.7453540824192109 2.2583333333333275
      vertex 0.16568455060124213 0.7122920536758244 2.000249953502572
      vertex 0.08142775460171521 0.6305452881898924 2.4764394480908827
    endloop
  endfacet
  facet normal -0.8929287167097958 0.44266679936941683 -0.08200250978496781
    outer loop
      vertex 0.16568455060124213 0.7122920536758244 2.000249953502572
      vertex 7.280865370236829e-06 0.38730359851422574 2.0499605365753104
      vertex 0.08142775460171521 0.6305452881898924 2.4764394480908827
    endloop
  endfacet
  facet normal -0.9824903719481735 0.15921643481428976 0.09676154150367128
    outer loop
      vertex 0.08142775460171521 0.6305452881898924 2.4764394480908827
      vertex 7.280865370236829e-06 0.38730359851422574 2.0499605365753104
      vertex 0.01548179013047446 0.2799397123168952 2.383746574393945
    endloop
  endfacet
  facet normal -0.8682195490432234 0.49523668780888047 -0.030584926144611113
    outer loop
      vertex 0.19198346039610076 0.7296034811201622 1.5340080686531787
      vertex 0.0002519975103495072 0.40384828583947874 1.7020346407111013
      vertex 0.16568455060124213 0.7122920536758244 2.000249953502572
    endloop
  endfacet
  facet normal -0.8894025535038139 0.4566381140197572 0.02108863782644194
    outer loop
      vertex 0.0002519975103495072 0.40384828583947874 1.7020346407111013
      vertex 7.280865370236829e-06 0.38730359851422574 2.0499605365753104
      vertex 0.16568455060124213 0.7122920536758244 2.000249953502572
    endloop
  endfacet
  facet normal 0.0 0.0 1.0
    outer loop
      vertex 0.5923650316244573 0.6348443274990875 5.0
      vertex 0.39687499999999987 0.3897075814335911 5.0
      vertex 0.7104166666666665 0.38970758143359086 5.0
    endloop
  endfacet
  facet normal 0.0 0.0 1.0
    outer loop
      vertex 0.7104166666666665 0.38970758143359086 5.0
      vertex 0.39687499999999987 0.3897075814335911 5.0
      vertex 0.5923650316244564 0.14457083536809345 5.0
    endloop
  endfacet
  facet normal 0.0 0.0 1.0
    outer loop
      vertex 0.32710541549911465 0.6953881038989336 5.0
      vertex 0.39687499999999987 0.3897075814335911 5.0
      vertex 0.5923650316244573 0.6348443274990875 5.0
    endloop
  endfacet
  facet normal -0.0 0.0 1.0
    outer loop
      vertex 0.11438371954309608 0.5257482121360759 5.0
      vertex 0.39687499999999987 0.3897075814335911 5.0
      vertex 0.32710541549911465 0.6953881038989336 5.0
    endloop
  endfacet
  facet normal 0.0 0.0 1.0
    outer loop
      vertex 0.11438371954309515 0.2536669507311076 5.0
      vertex 0.39687499999999987 0.3897075814335911 5.0
      vertex 0.11438371954309608 0.5257482121360759 5.0
    endloop
  endfacet
  facet normal 0.0 -0.0 1.0
    outer loop
      vertex 0.32710541549911276 0.08402705896824858 5.0
      vertex 0.39687499999999987 0.3897075814335911 5.0
      vertex 0.11438371954309515 0.2536669507311076 5.0
    endloop
  endfacet
  facet normal 0.0 0.0 1.0
    outer loop
      vertex 0.5923650316244564 0.14457083536809345 5.0
      vertex 0.39687499999999987 0.3897075814335911 5.0
      vertex 0.32710541549911276 0.08402705896824858 5.0
    endloop
  endfacet
  facet normal 0.0 -0.0 -1.0
    outer loop
      vertex 0.5923650316244573 0.6348443274990875 0.0
      vertex 0.7104166666666665 0.38970758143359086 0.0
      vertex 0.39687499999999987 0.3897075814335911 0.0
    endloop
  endfacet
  facet normal -0.0 0.0 -1.0
    outer loop
      vertex 0.7104166666666665 0.38970758143359086 0.0
      vertex 0.5923650316244564 0.14457083536809345 0.0
      vertex 0.39687499999999987 0.3897075814335911 0.0
    endloop
  endfacet
  facet normal 0.0 0.0 -1.0
    outer loop
      vertex 0.32710541549911465 0.6953881038989336 0.0
      vertex 0.5923650316244573 0.6348443274990875 0.0
      vertex 0.39687499999999987 0.3897075814335911 0.0
    endloop
  endfacet
  facet normal 0.0 0.0 -1.0
    outer loop
      vertex 0.11438371954309608 0.5257482121360759 0.0
      vertex 0.32710541549911465 0.6953881038989336 0.0
      vertex 0.39687499999999987 0.3897075814335911 0.0
    endloop
  endfacet
  facet normal 0.0 0.0 -1.0
    outer loop
      vertex 0.11438371954309515 0.2536669507311076 0.0
      vertex 0.11438371954309608 0.5257482121360759 0.0
      vertex 0.39687499999999987 0.3897075814335911 0.0
    endloop
  endfacet
  facet normal 0.0 0.0 -1.0
    outer loop
      vertex 0.32710541549911276 0.08402705896824858 0.0
      vertex 0.11438371954309515 0.2536669507311076 0.0
      vertex 0.39687499999999987 0.3897075814335911 0.0
    endloop
  endfacet
  facet normal -0.0 0.0 -1.0
    outer loop
      vertex 0.5923650316244564 0.14457083536809345 0.0
      vertex 0.32710541549911276 0.08402705896824858 0.0
      vertex 0.39687499999999987 0.3897075814335911 0.0
    endloop
  endfacet
endsolid abc_50_016
