solid abc_50_017
  facet normal 0.0 0.0 -1.0
    outer loop
      vertex 3.4848388287343797 2.5000000000000013 0.0
      vertex 3.250336593016564 3.1442895974463227 0.0
      vertex 3.927192150225202 3.0164768480260933 0.0
    endloop
  endfacet
  facet normal 0.0 0.0 -1.0
    outer loop
      vertex 3.2503365930165606 1.8557104025536755 0.0
      vertex 3.4848388287343797 2.5000000000000013 0.0
      vertex 3.9248591202403387 1.988019222130206 0.0
    endloop
  endfacet
  facet normal 0.0 0.0 -1.0
    outer loop
      vertex 3.9248591202403387 1.988019222130206 0.0
      vertex 3.4848388287343797 2.5000000000000013 0.0
      vertex 4.048397494615994 2.5047548874104613 0.0
    endloop
  endfacet
  facet normal 0.0 0.0 -1.0
    outer loop
      vertex 3.4848388287343797 2.5000000000000013 0.0
      vertex 3.927192150225202 3.0164768480260933 0.0
      vertex 4.048397494615994 2.5047548874104613 0.0
    endloop
  endfacet
  facet normal 0.0 -0.0 -1.0
    outer loop
      vertex 4.895420438411615 3.176067998439817 0.0
      vertex 4.988343845952698 2.5000000000000013 0.0
      vertex 4.443497629519097 2.7912990699821774 0.0
    endloop
  endfacet
  facet normal 0.0 0.0 -1.0
    outer loop
      vertex 4.988343845952698 2.5000000000000013 0.0
      vertex 4.895420438411617 1.8239320015601888 0.0
      vertex 4.461599744360955 2.227979296913828 0.0
    endloop
  endfacet
  facet normal -0.0 0.0 -1.0
    outer loop
      vertex 4.988343845952698 2.5000000000000013 0.0
      vertex 4.461599744360955 2.227979296913828 0.0
      vertex 4.443497629519097 2.7912990699821774 0.0
    endloop
  endfacet
  facet normal 0.0 0.0 -1.0
    outer loop
      vertex 3.250336593016564 3.1442895974463227 0.0
      vertex 2.6565560881575316 3.4871089317662367 0.0
      vertex 3.250336593016564 3.8299282660861507 0.0
    endloop
  endfacet
  facet normal 0.0 0.0 -1.0
    outer loop
      vertex 3.927192150225202 3.0164768480260933 0.0
      vertex 3.250336593016564 3.1442895974463227 0.0
      vertex 3.935812783947184 3.6845704550013774 0.0
    endloop
  endfacet
  facet normal 0.0 0.0 -1.0
    outer loop
      vertex 3.250336593016564 3.1442895974463227 0.0
      vertex 3.250336593016564 3.8299282660861507 0.0
      vertex 3.935812783947184 3.6845704550013774 0.0
    endloop
  endfacet
  facet normal -0.0 0.0 -1.0
    outer loop
      vertex 2.6565560881575316 3.4871089317662367 0.0
      vertex 1.9813338115160604 3.36804902641895 0.0
      vertex 2.229745271815017 3.8478790849820945 0.0
    endloop
  endfacet
  facet normal -0.0 0.0 -1.0
    outer loop
      vertex 3.250336593016564 3.8299282660861507 0.0
      vertex 2.6565560881575316 3.4871089317662367 0.0
      vertex 2.6830161672738795 4.103594041132601 0.0
    endloop
  endfacet
  facet normal 0.0 0.0 -1.0
    outer loop
      vertex 2.6830161672738795 4.103594041132601 0.0
      vertex 2.6565560881575316 3.4871089317662367 0.0
      vertex 2.229745271815017 3.8478790849820945 0.0
    endloop
  endfacet
  facet normal -0.0 0.0 -1.0
    outer loop
      vertex 1.9813338115160604 3.36804902641895 0.0
      vertex 1.5406137705924043 2.8428193343199157 0.0
      vertex 1.3291202099961923 3.4548911542109075 0.0
    endloop
  endfacet
  facet normal 0.0 0.0 -1.0
    outer loop
      vertex 1.9813338115160604 3.36804902641895 0.0
      vertex 1.3291202099961923 3.4548911542109075 0.0
      vertex 1.7190263666485859 3.8976582428211075 0.0
    endloop
  endfacet
  facet normal 0.0 0.0 -1.0
    outer loop
      vertex 1.9813338115160604 3.36804902641895 0.0
      vertex 1.7190263666485859 3.8976582428211075 0.0
      vertex 2.229745271815017 3.8478790849820945 0.0
    endloop
  endfacet
  facet normal 0.0 0.0 -1.0
    outer loop
      vertex 1.5406137705924043 2.8428193343199157 0.0
      vertex 1.5406137705924035 2.157180665680089 0.0
      vertex 1.1133792766390171 2.499999999999999 0.0
    endloop
  endfacet
  facet normal 0.0 -0.0 -1.0
    outer loop
      vertex 1.3291202099961923 3.4548911542109075 0.0
      vertex 1.5406137705924043 2.8428193343199157 0.0
      vertex 0.9613867103663812 2.987192882547839 0.0
    endloop
  endfacet
  facet normal 0.0 0.0 -1.0
    outer loop
      vertex 0.9613867103663812 2.987192882547839 0.0
      vertex 1.5406137705924043 2.8428193343199157 0.0
      vertex 1.1133792766390171 2.499999999999999 0.0
    endloop
  endfacet
  facet normal 0.0 -0.0 -1.0
    outer loop
      vertex 1.5406137705924035 2.157180665680089 0.0
      vertex 1.9813338115160566 1.6319509735810547 0.0
      vertex 1.3291202099961952 1.5451088457890927 0.0
    endloop
  endfacet
  facet normal 0.0 0.0 -1.0
    outer loop
      vertex 1.5406137705924035 2.157180665680089 0.0
      vertex 1.3291202099961952 1.5451088457890927 0.0
      vertex 0.9613867103663843 2.0128071174521556 0.0
    endloop
  endfacet
  facet normal -0.0 0.0 -1.0
    outer loop
      vertex 1.5406137705924035 2.157180665680089 0.0
      vertex 0.9613867103663843 2.0128071174521556 0.0
      vertex 1.1133792766390171 2.499999999999999 0.0
    endloop
  endfacet
  facet normal 0.0 0.0 -1.0
    outer loop
      vertex 1.9813338115160566 1.6319509735810547 0.0
      vertex 2.656556088157527 1.5128910682337648 0.0
      vertex 2.229745271815018 1.152120915017907 0.0
    endloop
  endfacet
  facet normal 0.0 0.0 -1.0
    outer loop
      vertex 1.3291202099961952 1.5451088457890927 0.0
      vertex 1.9813338115160566 1.6319509735810547 0.0
      vertex 1.719026366648588 1.1023417571788887 0.0
    endloop
  endfacet
  facet normal 0.0 0.0 -1.0
    outer loop
      vertex 1.719026366648588 1.1023417571788887 0.0
      vertex 1.9813338115160566 1.6319509735810547 0.0
      vertex 2.229745271815018 1.152120915017907 0.0
    endloop
  endfacet
  facet normal 0.0 0.0 -1.0
    outer loop
      vertex 2.656556088157527 1.5128910682337648 0.0
      vertex 3.2503365930165606 1.8557104025536755 0.0
      vertex 3.250336593016557 1.1700717339138482 0.0
    endloop
  endfacet
  facet normal 0.0 0.0 -1.0
    outer loop
      vertex 2.656556088157527 1.5128910682337648 0.0
      vertex 3.250336593016557 1.1700717339138482 0.0
      vertex 2.6830161672738786 0.8964059588674059 0.0
    endloop
  endfacet
  facet normal 0.0 -0.0 -1.0
    outer loop
      vertex 2.656556088157527 1.5128910682337648 0.0
      vertex 2.6830161672738786 0.8964059588674059 0.0
      vertex 2.229745271815018 1.152120915017907 0.0
    endloop
  endfacet
  facet normal 0.0 0.0 -1.0
    outer loop
      vertex 3.2503365930165606 1.8557104025536755 0.0
      vertex 3.9248591202403387 1.988019222130206 0.0
      vertex 3.9416731673438723 1.311391111789116 0.0
    endloop
  endfacet
  facet normal 0.0 0.0 -1.0
    outer loop
      vertex 3.250336593016557 1.1700717339138482 0.0
      vertex 3.2503365930165606 1.8557104025536755 0.0
      vertex 3.9416731673438723 1.311391111789116 0.0
    endloop
  endfacet
  facet normal 0.0 -0.0 -1.0
    outer loop
      vertex 4.623541919829388 3.801995126240647 0.0
      vertex 4.895420438411615 3.176067998439817 0.0
      vertex 4.372020377946014 3.3121174438925327 0.0
    endloop
  endfacet
  facet normal -0.0 0.0 -1.0
    outer loop
      vertex 4.895420438411615 3.176067998439817 0.0
      vertex 4.443497629519097 2.7912990699821774 0.0
      vertex 4.372020377946014 3.3121174438925327 0.0
    endloop
  endfacet
  facet normal 0.0 -0.0 -1.0
    outer loop
      vertex 4.1928722761677975 4.331359231759582 0.0
      vertex 4.623541919829388 3.801995126240647 0.0
      vertex 3.935812783947184 3.6845704550013774 0.0
    endloop
  endfacet
  facet normal 0.0 0.0 -1.0
    outer loop
      vertex 3.935812783947184 3.6845704550013774 0.0
      vertex 4.623541919829388 3.801995126240647 0.0
      vertex 4.372020377946014 3.3121174438925327 0.0
    endloop
  endfacet
  facet normal 0.0 0.0 -1.0
    outer loop
      vertex 3.6353523047146994 4.724899800969927 0.0
      vertex 4.1928722761677975 4.331359231759582 0.0
      vertex 3.676307985324353 4.165787113967423 0.0
    endloop
  endfacet
  facet normal 0.0 0.0 -1.0
    outer loop
      vertex 4.1928722761677975 4.331359231759582 0.0
      vertex 3.935812783947184 3.6845704550013774 0.0
      vertex 3.676307985324353 4.165787113967423 0.0
    endloop
  endfacet
  facet normal 0.0 0.0 -1.0
    outer loop
      vertex 2.9923307112686106 4.953429730181657 0.0
      vertex 3.6353523047146994 4.724899800969927 0.0
      vertex 3.1440800604113917 4.39868662829484 0.0
    endloop
  endfacet
  facet normal 0.0 0.0 -1.0
    outer loop
      vertex 3.1440800604113917 4.39868662829484 0.0
      vertex 3.6353523047146994 4.724899800969927 0.0
      vertex 3.676307985324353 4.165787113967423 0.0
    endloop
  endfacet
  facet normal 0.0 0.0 -1.0
    outer loop
      vertex 2.311497465787377 5.0 0.0
      vertex 2.9923307112686106 4.953429730181657 0.0
      vertex 2.637752450448721 4.590633010821514 0.0
    endloop
  endfacet
  facet normal 0.0 -0.0 -1.0
    outer loop
      vertex 2.9923307112686106 4.953429730181657 0.0
      vertex 3.1440800604113917 4.39868662829484 0.0
      vertex 2.637752450448721 4.590633010821514 0.0
    endloop
  endfacet
  facet normal 0.0 0.0 -1.0
    outer loop
      vertex 1.6433468554834876 4.861156706557341 0.0
      vertex 2.311497465787377 5.0 0.0
      vertex 2.1087939254790293 4.382985182771578 0.0
    endloop
  endfacet
  facet normal 0.0 0.0 -1.0
    outer loop
      vertex 2.1087939254790293 4.382985182771578 0.0
      vertex 2.311497465787377 5.0 0.0
      vertex 2.637752450448721 4.590633010821514 0.0
    endloop
  endfacet
  facet normal 0.0 0.0 -1.0
    outer loop
      vertex 1.0374325545375265 4.547197221762516 0.0
      vertex 1.6433468554834876 4.861156706557341 0.0
      vertex 1.5218402764449313 4.353473603803387 0.0
    endloop
  endfacet
  facet normal 0.0 -0.0 -1.0
    outer loop
      vertex 1.6433468554834876 4.861156706557341 0.0
      vertex 2.1087939254790293 4.382985182771578 0.0
      vertex 1.5218402764449313 4.353473603803387 0.0
    endloop
  endfacet
  facet normal 0.0 0.0 -1.0
    outer loop
      vertex 0.5386924547771715 4.081406484333684 0.0
      vertex 1.0374325545375265 4.547197221762516 0.0
      vertex 1.14827702971554 3.9818300372760502 0.0
    endloop
  endfacet
  facet normal 0.0 0.0 -1.0
    outer loop
      vertex 1.14827702971554 3.9818300372760502 0.0
      vertex 1.0374325545375265 4.547197221762516 0.0
      vertex 1.5218402764449313 4.353473603803387 0.0
    endloop
  endfacet
  facet normal 0.0 0.0 -1.0
    outer loop
      vertex 0.18411582781750854 3.498330062415108 0.0
      vertex 0.5386924547771715 4.081406484333684 0.0
      vertex 0.749017672498864 3.5452823438086067 0.0
    endloop
  endfacet
  facet normal 0.0 0.0 -1.0
    outer loop
      vertex 0.749017672498864 3.5452823438086067 0.0
      vertex 0.5386924547771715 4.081406484333684 0.0
      vertex 1.14827702971554 3.9818300372760502 0.0
    endloop
  endfacet
  facet normal 0.0 0.0 -1.0
    outer loop
      vertex 0.0 2.841212066823345 0.0
      vertex 0.18411582781750854 3.498330062415108 0.0
      vertex 0.4714746085277264 3.071905381403533 0.0
    endloop
  endfacet
  facet normal 0.0 0.0 -1.0
    outer loop
      vertex 0.18411582781750854 3.498330062415108 0.0
      vertex 0.749017672498864 3.5452823438086067 0.0
      vertex 0.4714746085277264 3.071905381403533 0.0
    endloop
  endfacet
  facet normal 0.0 0.0 -1.0
    outer loop
      vertex 2.848812181768908e-15 2.1587879331766335 0.0
      vertex 0.0 2.841212066823345 0.0
      vertex 0.5628954212775125 2.4999999999999956 0.0
    endloop
  endfacet
  facet normal 0.0 0.0 -1.0
    outer loop
      vertex 0.5628954212775125 2.4999999999999956 0.0
      vertex 0.0 2.841212066823345 0.0
      vertex 0.4714746085277264 3.071905381403533 0.0
    endloop
  endfacet
  facet normal 0.0 0.0 -1.0
    outer loop
      vertex 0.18411582781751853 1.5016699375848719 0.0
      vertex 2.848812181768908e-15 2.1587879331766335 0.0
      vertex 0.47147460852773315 1.9280946185964518 0.0
    endloop
  endfacet
  facet normal 0.0 0.0 -1.0
    outer loop
      vertex 2.848812181768908e-15 2.1587879331766335 0.0
      vertex 0.5628954212775125 2.4999999999999956 0.0
      vertex 0.47147460852773315 1.9280946185964518 0.0
    endloop
  endfacet
  facet normal 0.0 0.0 -1.0
    outer loop
      vertex 0.5386924547771875 0.9185935156662993 0.0
      vertex 0.18411582781751853 1.5016699375848719 0.0
      vertex 0.74901767249887 1.454717656191377 0.0
    endloop
  endfacet
  facet normal 0.0 0.0 -1.0
    outer loop
      vertex 0.74901767249887 1.454717656191377 0.0
      vertex 0.18411582781751853 1.5016699375848719 0.0
      vertex 0.47147460852773315 1.9280946185964518 0.0
    endloop
  endfacet
  facet normal 0.0 0.0 -1.0
    outer loop
      vertex 1.0374325545375476 0.4528027782374718 0.0
      vertex 0.5386924547771875 0.9185935156662993 0.0
      vertex 1.14827702971555 1.0181699627239396 0.0
    endloop
  endfacet
  facet normal 0.0 0.0 -1.0
    outer loop
      vertex 0.5386924547771875 0.9185935156662993 0.0
      vertex 0.74901767249887 1.454717656191377 0.0
      vertex 1.14827702971555 1.0181699627239396 0.0
    endloop
  endfacet
  facet normal 0.0 0.0 -1.0
    outer loop
      vertex 1.6433468554835082 0.13884329344265436 0.0
      vertex 1.0374325545375476 0.4528027782374718 0.0
      vertex 1.5218402764449466 0.6465263961966042 0.0
    endloop
  endfacet
  facet normal 0.0 0.0 -1.0
    outer loop
      vertex 1.0374325545375476 0.4528027782374718 0.0
      vertex 1.14827702971555 1.0181699627239396 0.0
      vertex 1.5218402764449466 0.6465263961966042 0.0
    endloop
  endfacet
  facet normal 0.0 0.0 -1.0
    outer loop
      vertex 2.3114974657873972 0.0 0.0
      vertex 1.6433468554835082 0.13884329344265436 0.0
      vertex 2.108793925479038 0.6170148172284217 0.0
    endloop
  endfacet
  facet normal -0.0 0.0 -1.0
    outer loop
      vertex 2.108793925479038 0.6170148172284217 0.0
      vertex 1.6433468554835082 0.13884329344265436 0.0
      vertex 1.5218402764449466 0.6465263961966042 0.0
    endloop
  endfacet
  facet normal -0.0 0.0 -1.0
    outer loop
      vertex 2.9923307112686275 0.04657026981834919 0.0
      vertex 2.3114974657873972 0.0 0.0
      vertex 2.6377524504487337 0.4093669891784911 0.0
    endloop
  endfacet
  facet normal 0.0 0.0 -1.0
    outer loop
      vertex 2.3114974657873972 0.0 0.0
      vertex 2.108793925479038 0.6170148172284217 0.0
      vertex 2.6377524504487337 0.4093669891784911 0.0
    endloop
  endfacet
  facet normal -0.0 0.0 -1.0
    outer loop
      vertex 3.6353523047147105 0.2751001990300818 0.0
      vertex 2.9923307112686275 0.04657026981834919 0.0
      vertex 3.1440800604113974 0.6013133717051637 0.0
    endloop
  endfacet
  facet normal 0.0 0.0 -1.0
    outer loop
      vertex 3.1440800604113974 0.6013133717051637 0.0
      vertex 2.9923307112686275 0.04657026981834919 0.0
      vertex 2.6377524504487337 0.4093669891784911 0.0
    endloop
  endfacet
  facet normal -0.0 0.0 -1.0
    outer loop
      vertex 4.192872276167805 0.6686407682404277 0.0
      vertex 3.6353523047147105 0.2751001990300818 0.0
      vertex 3.67630798532435 0.8342128860325733 0.0
    endloop
  endfacet
  facet normal 0.0 0.0 -1.0
    outer loop
      vertex 3.6353523047147105 0.2751001990300818 0.0
      vertex 3.1440800604113974 0.6013133717051637 0.0
      vertex 3.67630798532435 0.8342128860325733 0.0
    endloop
  endfacet
  facet normal -0.0 0.0 -1.0
    outer loop
      vertex 4.6235419198293926 1.198004873759361 0.0
      vertex 4.192872276167805 0.6686407682404277 0.0
      vertex 3.9416731673438723 1.311391111789116 0.0
    endloop
  endfacet
  facet normal 0.0 -0.0 -1.0
    outer loop
      vertex 3.9416731673438723 1.311391111789116 0.0
      vertex 4.192872276167805 0.6686407682404277 0.0
      vertex 3.67630798532435 0.8342128860325733 0.0
    endloop
  endfacet
  facet normal 0.0 0.0 -1.0
    outer loop
      vertex 4.895420438411617 1.8239320015601888 0.0
      vertex 4.6235419198293926 1.198004873759361 0.0
      vertex 4.3742813376524845 1.6859553357526456 0.0
    endloop
  endfacet
  facet normal 0.0 0.0 -1.0
    outer loop
      vertex 4.6235419198293926 1.198004873759361 0.0
      vertex 3.9416731673438723 1.311391111789116 0.0
      vertex 4.3742813376524845 1.6859553357526456 0.0
    endloop
  endfacet
  facet normal 0.0 -0.0 -1.0
    outer loop
      vertex 4.461599744360955 2.227979296913828 0.0
      vertex 4.895420438411617 1.8239320015601888 0.0
      vertex 4.3742813376524845 1.6859553357526456 0.0
    endloop
  endfacet
  facet normal 0.0 0.0 -1.0
    outer loop
      vertex 0.5628954212775125 2.4999999999999956 0.0
      vertex 0.9613867103663812 2.987192882547839 0.0
      vertex 1.1133792766390171 2.499999999999999 0.0
    endloop
  endfacet
  facet normal -0.0 0.0 -1.0
    outer loop
      vertex 0.9613867103663812 2.987192882547839 0.0
      vertex 0.5628954212775125 2.4999999999999956 0.0
      vertex 0.4714746085277264 3.071905381403533 0.0
    endloop
  endfacet
  facet normal 0.0 0.0 -1.0
    outer loop
      vertex 0.9613867103663843 2.0128071174521556 0.0
      vertex 0.5628954212775125 2.4999999999999956 0.0
      vertex 1.1133792766390171 2.499999999999999 0.0
    endloop
  endfacet
  facet normal 0.0 -0.0 -1.0
    outer loop
      vertex 0.5628954212775125 2.4999999999999956 0.0
      vertex 0.9613867103663843 2.0128071174521556 0.0
      vertex 0.47147460852773315 1.9280946185964518 0.0
    endloop
  endfacet
  facet normal -0.0 0.0 -1.0
    outer loop
      vertex 2.6830161672738786 0.8964059588674059 0.0
      vertex 2.108793925479038 0.6170148172284217 0.0
      vertex 2.229745271815018 1.152120915017907 0.0
    endloop
  endfacet
  facet normal 0.0 0.0 -1.0
    outer loop
      vertex 2.108793925479038 0.6170148172284217 0.0
      vertex 2.6830161672738786 0.8964059588674059 0.0
      vertex 2.6377524504487337 0.4093669891784911 0.0
    endloop
  endfacet
  facet normal 0.0 0.0 -1.0
    outer loop
      vertex 2.108793925479038 0.6170148172284217 0.0
      vertex 1.719026366648588 1.1023417571788887 0.0
      vertex 2.229745271815018 1.152120915017907 0.0
    endloop
  endfacet
  facet normal 0.0 -0.0 -1.0
    outer loop
      vertex 1.719026366648588 1.1023417571788887 0.0
      vertex 2.108793925479038 0.6170148172284217 0.0
      vertex 1.5218402764449466 0.6465263961966042 0.0
    endloop
  endfacet
  facet normal 0.0 0.0 -1.0
    outer loop
      vertex 2.1087939254790293 4.382985182771578 0.0
      vertex 2.6830161672738795 4.103594041132601 0.0
      vertex 2.229745271815017 3.8478790849820945 0.0
    endloop
  endfacet
  facet normal 0.0 0.0 -1.0
    outer loop
      vertex 2.6830161672738795 4.103594041132601 0.0
      vertex 2.1087939254790293 4.382985182771578 0.0
      vertex 2.637752450448721 4.590633010821514 0.0
    endloop
  endfacet
  facet normal 0.0 0.0 -1.0
    outer loop
      vertex 1.7190263666485859 3.8976582428211075 0.0
      vertex 2.1087939254790293 4.382985182771578 0.0
      vertex 2.229745271815017 3.8478790849820945 0.0
    endloop
  endfacet
  facet normal 0.0 0.0 -1.0
    outer loop
      vertex 2.1087939254790293 4.382985182771578 0.0
      vertex 1.7190263666485859 3.8976582428211075 0.0
      vertex 1.5218402764449313 4.353473603803387 0.0
    endloop
  endfacet
  facet normal 0.0 0.0 -1.0
    outer loop
      vertex 3.9416731673438723 1.311391111789116 0.0
      vertex 3.9248591202403387 1.988019222130206 0.0
      vertex 4.3742813376524845 1.6859553357526456 0.0
    endloop
  endfacet
  facet normal 0.0 0.0 -1.0
    outer loop
      vertex 3.9248591202403387 1.988019222130206 0.0
      vertex 4.461599744360955 2.227979296913828 0.0
      vertex 4.3742813376524845 1.6859553357526456 0.0
    endloop
  endfacet
  facet normal -0.0 0.0 -1.0
    outer loop
      vertex 4.461599744360955 2.227979296913828 0.0
      vertex 3.9248591202403387 1.988019222130206 0.0
      vertex 4.048397494615994 2.5047548874104613 0.0
    endloop
  endfacet
  facet normal 0.0 0.0 -1.0
    outer loop
      vertex 3.927192150225202 3.0164768480260933 0.0
      vertex 3.935812783947184 3.6845704550013774 0.0
      vertex 4.372020377946014 3.3121174438925327 0.0
    endloop
  endfacet
  facet normal 0.0 0.0 -1.0
    outer loop
      vertex 4.443497629519097 2.7912990699821774 0.0
      vertex 3.927192150225202 3.0164768480260933 0.0
      vertex 4.372020377946014 3.3121174438925327 0.0
    endloop
  endfacet
  facet normal 0.0 0.0 -1.0
    outer loop
      vertex 3.927192150225202 3.0164768480260933 0.0
      vertex 4.443497629519097 2.7912990699821774 0.0
      vertex 4.048397494615994 2.5047548874104613 0.0
    endloop
  endfacet
  facet normal 0.0 0.0 -1.0
    outer loop
      vertex 3.250336593016557 1.1700717339138482 0.0
      vertex 3.9416731673438723 1.311391111789116 0.0
      vertex 3.67630798532435 0.8342128860325733 0.0
    endloop
  endfacet
  facet normal 0.0 0.0 -1.0
    outer loop
      vertex 2.6830161672738786 0.8964059588674059 0.0
      vertex 3.250336593016557 1.1700717339138482 0.0
      vertex 3.1440800604113974 0.6013133717051637 0.0
    endloop
  endfacet
  facet normal 0.0 0.0 -1.0
    outer loop
      vertex 3.1440800604113974 0.6013133717051637 0.0
      vertex 3.250336593016557 1.1700717339138482 0.0
      vertex 3.67630798532435 0.8342128860325733 0.0
    endloop
  endfacet
  facet normal 0.0 0.0 -1.0
    outer loop
      vertex 3.935812783947184 3.6845704550013774 0.0
      vertex 3.250336593016564 3.8299282660861507 0.0
      vertex 3.676307985324353 4.165787113967423 0.0
    endloop
  endfacet
  facet normal 0.0 0.0 -1.0
    outer loop
      vertex 3.250336593016564 3.8299282660861507 0.0
      vertex 2.6830161672738795 4.103594041132601 0.0
      vertex 3.1440800604113917 4.39868662829484 0.0
    endloop
  endfacet
  facet normal 0.0 0.0 -1.0
    outer loop
      vertex 3.250336593016564 3.8299282660861507 0.0
      vertex 3.1440800604113917 4.39868662829484 0.0
      vertex 3.676307985324353 4.165787113967423 0.0
    endloop
  endfacet
  facet normal -0.0 0.0 -1.0
    outer loop
      vertex 1.3291202099961923 3.4548911542109075 0.0
      vertex 0.9613867103663812 2.987192882547839 0.0
      vertex 0.749017672498864 3.5452823438086067 0.0
    endloop
  endfacet
  facet normal -0.0 0.0 -1.0
    outer loop
      vertex 1.7190263666485859 3.8976582428211075 0.0
      vertex 1.3291202099961923 3.4548911542109075 0.0
      vertex 1.14827702971554 3.9818300372760502 0.0
    endloop
  endfacet
  facet normal 0.0 0.0 -1.0
    outer loop
      vertex 1.3291202099961923 3.4548911542109075 0.0
      vertex 0.749017672498864 3.5452823438086067 0.0
      vertex 1.14827702971554 3.9818300372760502 0.0
    endloop
  endfacet
  facet normal 0.0 -0.0 -1.0
    outer loop
      vertex 0.9613867103663843 2.0128071174521556 0.0
      vertex 1.3291202099961952 1.5451088457890927 0.0
      vertex 0.74901767249887 1.454717656191377 0.0
    endloop
  endfacet
  facet normal 0.0 -0.0 -1.0
    outer loop
      vertex 1.3291202099961952 1.5451088457890927 0.0
      vertex 1.719026366648588 1.1023417571788887 0.0
      vertex 1.14827702971555 1.0181699627239396 0.0
    endloop
  endfacet
  facet normal 0.0 0.0 -1.0
    outer loop
      vertex 0.74901767249887 1.454717656191377 0.0
      vertex 1.3291202099961952 1.5451088457890927 0.0
      vertex 1.14827702971555 1.0181699627239396 0.0
    endloop
  endfacet
  facet normal -0.0 0.0 -1.0
    outer loop
      vertex 3.1440800604113917 4.39868662829484 0.0
      vertex 2.6830161672738795 4.103594041132601 0.0
      vertex 2.637752450448721 4.590633010821514 0.0
    endloop
  endfacet
  facet normal 0.0 -0.0 -1.0
    outer loop
      vertex 2.6830161672738786 0.8964059588674059 0.0
      vertex 3.1440800604113974 0.6013133717051637 0.0
      vertex 2.6377524504487337 0.4093669891784911 0.0
    endloop
  endfacet
  facet normal 0.0 -0.0 -1.0
    outer loop
      vertex 0.749017672498864 3.5452823438086067 0.0
      vertex 0.9613867103663812 2.987192882547839 0.0
      vertex 0.4714746085277264 3.071905381403533 0.0
    endloop
  endfacet
  facet normal 0.0 0.0 -1.0
    outer loop
      vertex 0.9613867103663843 2.0128071174521556 0.0
      vertex 0.74901767249887 1.454717656191377 0.0
      vertex 0.47147460852773315 1.9280946185964518 0.0
    endloop
  endfacet
  facet normal 0.0 -0.0 -1.0
    outer loop
      vertex 4.443497629519097 2.7912990699821774 0.0
      vertex 4.461599744360955 2.227979296913828 0.0
      vertex 4.048397494615994 2.5047548874104613 0.0
    endloop
  endfacet
  facet normal 0.0 0.0 -1.0
    outer loop
      vertex 1.14827702971555 1.0181699627239396 0.0
      vertex 1.719026366648588 1.1023417571788887 0.0
      vertex 1.5218402764449466 0.6465263961966042 0.0
    endloop
  endfacet
  facet normal 0.0 0.0 -1.0
    outer loop
      vertex 1.7190263666485859 3.8976582428211075 0.0
      vertex 1.14827702971554 3.9818300372760502 0.0
      vertex 1.5218402764449313 4.353473603803387 0.0
    endloop
  endfacet
  facet normal 0.0 -0.0 1.0
    outer loop
      vertex 3.4848388287343797 2.5000000000000013 0.20046733562910912
      vertex 3.927192150225202 3.0164768480260933 0.20046733562910912
      vertex 3.250336593016564 3.1442895974463227 0.20046733562910912
    endloop
  endfacet
  facet normal 0.0 0.0 1.0
    outer loop
      vertex 3.2503365930165606 1.8557104025536755 0.20046733562910912
      vertex 3.9248591202403387 1.988019222130206 0.20046733562910912
      vertex 3.4848388287343797 2.5000000000000013 0.20046733562910912
    endloop
  endfacet
  facet normal 0.0 -0.0 1.0
    outer loop
      vertex 3.9248591202403387 1.988019222130206 0.20046733562910912
      vertex 4.048397494615994 2.5047548874104613 0.20046733562910912
      vertex 3.4848388287343797 2.5000000000000013 0.20046733562910912
    endloop
  endfacet
  facet normal 0.0 0.0 1.0
    outer loop
      vertex 3.4848388287343797 2.5000000000000013 0.20046733562910912
      vertex 4.048397494615994 2.5047548874104613 0.20046733562910912
      vertex 3.927192150225202 3.0164768480260933 0.20046733562910912
    endloop
  endfacet
  facet normal 0.0 0.0 1.0
    outer loop
      vertex 4.895420438411615 3.176067998439817 0.20046733562910912
      vertex 4.443497629519097 2.7912990699821774 0.20046733562910912
      vertex 4.988343845952698 2.5000000000000013 0.20046733562910912
    endloop
  endfacet
  facet normal 0.0 0.0 1.0
    outer loop
      vertex 4.988343845952698 2.5000000000000013 0.20046733562910912
      vertex 4.461599744360955 2.227979296913828 0.20046733562910912
      vertex 4.895420438411617 1.8239320015601888 0.20046733562910912
    endloop
  endfacet
  facet normal 0.0 0.0 1.0
    outer loop
      vertex 4.988343845952698 2.5000000000000013 0.20046733562910912
      vertex 4.443497629519097 2.7912990699821774 0.20046733562910912
      vertex 4.461599744360955 2.227979296913828 0.20046733562910912
    endloop
  endfacet
  facet normal 0.0 -0.0 1.0
    outer loop
      vertex 3.250336593016564 3.1442895974463227 0.20046733562910912
      vertex 3.250336593016564 3.8299282660861507 0.20046733562910912
      vertex 2.6565560881575316 3.4871089317662367 0.20046733562910912
    endloop
  endfacet
  facet normal 0.0 -0.0 1.0
    outer loop
      vertex 3.927192150225202 3.0164768480260933 0.20046733562910912
      vertex 3.935812783947184 3.6845704550013774 0.20046733562910912
      vertex 3.250336593016564 3.1442895974463227 0.20046733562910912
    endloop
  endfacet
  facet normal 0.0 0.0 1.0
    outer loop
      vertex 3.250336593016564 3.1442895974463227 0.20046733562910912
      vertex 3.935812783947184 3.6845704550013774 0.20046733562910912
      vertex 3.250336593016564 3.8299282660861507 0.20046733562910912
    endloop
  endfacet
  facet normal 0.0 0.0 1.0
    outer loop
      vertex 2.6565560881575316 3.4871089317662367 0.20046733562910912
      vertex 2.229745271815017 3.8478790849820945 0.20046733562910912
      vertex 1.9813338115160604 3.36804902641895 0.20046733562910912
    endloop
  endfacet
  facet normal 0.0 0.0 1.0
    outer loop
      vertex 3.250336593016564 3.8299282660861507 0.20046733562910912
      vertex 2.6830161672738795 4.103594041132601 0.20046733562910912
      vertex 2.6565560881575316 3.4871089317662367 0.20046733562910912
    endloop
  endfacet
  facet normal 0.0 0.0 1.0
    outer loop
      vertex 2.6830161672738795 4.103594041132601 0.20046733562910912
      vertex 2.229745271815017 3.8478790849820945 0.20046733562910912
      vertex 2.6565560881575316 3.4871089317662367 0.20046733562910912
    endloop
  endfacet
  facet normal 0.0 0.0 1.0
    outer loop
      vertex 1.9813338115160604 3.36804902641895 0.20046733562910912
      vertex 1.3291202099961923 3.4548911542109075 0.20046733562910912
      vertex 1.5406137705924043 2.8428193343199157 0.20046733562910912
    endloop
  endfacet
  facet normal 0.0 0.0 1.0
    outer loop
      vertex 1.9813338115160604 3.36804902641895 0.20046733562910912
      vertex 1.7190263666485859 3.8976582428211075 0.20046733562910912
      vertex 1.3291202099961923 3.4548911542109075 0.20046733562910912
    endloop
  endfacet
  facet normal 0.0 -0.0 1.0
    outer loop
      vertex 1.9813338115160604 3.36804902641895 0.20046733562910912
      vertex 2.229745271815017 3.8478790849820945 0.20046733562910912
      vertex 1.7190263666485859 3.8976582428211075 0.20046733562910912
    endloop
  endfacet
  facet normal 0.0 0.0 1.0
    outer loop
      vertex 1.5406137705924043 2.8428193343199157 0.20046733562910912
      vertex 1.1133792766390171 2.499999999999999 0.20046733562910912
      vertex 1.5406137705924035 2.157180665680089 0.20046733562910912
    endloop
  endfacet
  facet normal 0.0 0.0 1.0
    outer loop
      vertex 1.3291202099961923 3.4548911542109075 0.20046733562910912
      vertex 0.9613867103663812 2.987192882547839 0.20046733562910912
      vertex 1.5406137705924043 2.8428193343199157 0.20046733562910912
    endloop
  endfacet
  facet normal 0.0 0.0 1.0
    outer loop
      vertex 0.9613867103663812 2.987192882547839 0.20046733562910912
      vertex 1.1133792766390171 2.499999999999999 0.20046733562910912
      vertex 1.5406137705924043 2.8428193343199157 0.20046733562910912
    endloop
  endfacet
  facet normal 0.0 0.0 1.0
    outer loop
      vertex 1.5406137705924035 2.157180665680089 0.20046733562910912
      vertex 1.3291202099961952 1.5451088457890927 0.20046733562910912
      vertex 1.9813338115160566 1.6319509735810547 0.20046733562910912
    endloop
  endfacet
  facet normal 0.0 0.0 1.0
    outer loop
      vertex 1.5406137705924035 2.157180665680089 0.20046733562910912
      vertex 0.9613867103663843 2.0128071174521556 0.20046733562910912
      vertex 1.3291202099961952 1.5451088457890927 0.20046733562910912
    endloop
  endfacet
  facet normal 0.0 0.0 1.0
    outer loop
      vertex 1.5406137705924035 2.157180665680089 0.20046733562910912
      vertex 1.1133792766390171 2.499999999999999 0.20046733562910912
      vertex 0.9613867103663843 2.0128071174521556 0.20046733562910912
    endloop
  endfacet
  facet normal 0.0 0.0 1.0
    outer loop
      vertex 1.9813338115160566 1.6319509735810547 0.20046733562910912
      vertex 2.229745271815018 1.152120915017907 0.20046733562910912
      vertex 2.656556088157527 1.5128910682337648 0.20046733562910912
    endloop
  endfacet
  facet normal -0.0 0.0 1.0
    outer loop
      vertex 1.3291202099961952 1.5451088457890927 0.20046733562910912
      vertex 1.719026366648588 1.1023417571788887 0.20046733562910912
      vertex 1.9813338115160566 1.6319509735810547 0.20046733562910912
    endloop
  endfacet
  facet normal 0.0 0.0 1.0
    outer loop
      vertex 1.719026366648588 1.1023417571788887 0.20046733562910912
      vertex 2.229745271815018 1.152120915017907 0.20046733562910912
      vertex 1.9813338115160566 1.6319509735810547 0.20046733562910912
    endloop
  endfacet
  facet normal -0.0 0.0 1.0
    outer loop
      vertex 2.656556088157527 1.5128910682337648 0.20046733562910912
      vertex 3.250336593016557 1.1700717339138482 0.20046733562910912
      vertex 3.2503365930165606 1.8557104025536755 0.20046733562910912
    endloop
  endfacet
  facet normal 0.0 0.0 1.0
    outer loop
      vertex 2.656556088157527 1.5128910682337648 0.20046733562910912
      vertex 2.6830161672738786 0.8964059588674059 0.20046733562910912
      vertex 3.250336593016557 1.1700717339138482 0.20046733562910912
    endloop
  endfacet
  facet normal 0.0 0.0 1.0
    outer loop
      vertex 2.656556088157527 1.5128910682337648 0.20046733562910912
      vertex 2.229745271815018 1.152120915017907 0.20046733562910912
      vertex 2.6830161672738786 0.8964059588674059 0.20046733562910912
    endloop
  endfacet
  facet normal -0.0 0.0 1.0
    outer loop
      vertex 3.2503365930165606 1.8557104025536755 0.20046733562910912
      vertex 3.9416731673438723 1.311391111789116 0.20046733562910912
      vertex 3.9248591202403387 1.988019222130206 0.20046733562910912
    endloop
  endfacet
  facet normal 0.0 0.0 1.0
    outer loop
      vertex 3.250336593016557 1.1700717339138482 0.20046733562910912
      vertex 3.9416731673438723 1.311391111789116 0.20046733562910912
      vertex 3.2503365930165606 1.8557104025536755 0.20046733562910912
    endloop
  endfacet
  facet normal 0.0 0.0 1.0
    outer loop
      vertex 4.623541919829388 3.801995126240647 0.20046733562910912
      vertex 4.372020377946014 3.3121174438925327 0.20046733562910912
      vertex 4.895420438411615 3.176067998439817 0.20046733562910912
    endloop
  endfacet
  facet normal 0.0 0.0 1.0
    outer loop
      vertex 4.895420438411615 3.176067998439817 0.20046733562910912
      vertex 4.372020377946014 3.3121174438925327 0.20046733562910912
      vertex 4.443497629519097 2.7912990699821774 0.20046733562910912
    endloop
  endfacet
  facet normal 0.0 0.0 1.0
    outer loop
      vertex 4.1928722761677975 4.331359231759582 0.20046733562910912
      vertex 3.935812783947184 3.6845704550013774 0.20046733562910912
      vertex 4.623541919829388 3.801995126240647 0.20046733562910912
    endloop
  endfacet
  facet normal -0.0 0.0 1.0
    outer loop
      vertex 3.935812783947184 3.6845704550013774 0.20046733562910912
      vertex 4.372020377946014 3.3121174438925327 0.20046733562910912
      vertex 4.623541919829388 3.801995126240647 0.20046733562910912
    endloop
  endfacet
  facet normal 0.0 0.0 1.0
    outer loop
      vertex 3.6353523047146994 4.724899800969927 0.20046733562910912
      vertex 3.676307985324353 4.165787113967423 0.20046733562910912
      vertex 4.1928722761677975 4.331359231759582 0.20046733562910912
    endloop
  endfacet
  facet normal 0.0 0.0 1.0
    outer loop
      vertex 4.1928722761677975 4.331359231759582 0.20046733562910912
      vertex 3.676307985324353 4.165787113967423 0.20046733562910912
      vertex 3.935812783947184 3.6845704550013774 0.20046733562910912
    endloop
  endfacet
  facet normal 0.0 0.0 1.0
    outer loop
      vertex 2.9923307112686106 4.953429730181657 0.20046733562910912
      vertex 3.1440800604113917 4.39868662829484 0.20046733562910912
      vertex 3.6353523047146994 4.724899800969927 0.20046733562910912
    endloop
  endfacet
  facet normal -0.0 0.0 1.0
    outer loop
      vertex 3.1440800604113917 4.39868662829484 0.20046733562910912
      vertex 3.676307985324353 4.165787113967423 0.20046733562910912
      vertex 3.6353523047146994 4.724899800969927 0.20046733562910912
    endloop
  endfacet
  facet normal 0.0 0.0 1.0
    outer loop
      vertex 2.311497465787377 5.0 0.20046733562910912
      vertex 2.637752450448721 4.590633010821514 0.20046733562910912
      vertex 2.9923307112686106 4.953429730181657 0.20046733562910912
    endloop
  endfacet
  facet normal 0.0 0.0 1.0
    outer loop
      vertex 2.9923307112686106 4.953429730181657 0.20046733562910912
      vertex 2.637752450448721 4.590633010821514 0.20046733562910912
      vertex 3.1440800604113917 4.39868662829484 0.20046733562910912
    endloop
  endfacet
  facet normal -0.0 0.0 1.0
    outer loop
      vertex 1.6433468554834876 4.861156706557341 0.20046733562910912
      vertex 2.1087939254790293 4.382985182771578 0.20046733562910912
      vertex 2.311497465787377 5.0 0.20046733562910912
    endloop
  endfacet
  facet normal 0.0 0.0 1.0
    outer loop
      vertex 2.1087939254790293 4.382985182771578 0.20046733562910912
      vertex 2.637752450448721 4.590633010821514 0.20046733562910912
      vertex 2.311497465787377 5.0 0.20046733562910912
    endloop
  endfacet
  facet normal -0.0 0.0 1.0
    outer loop
      vertex 1.0374325545375265 4.547197221762516 0.20046733562910912
      vertex 1.5218402764449313 4.353473603803387 0.20046733562910912
      vertex 1.6433468554834876 4.861156706557341 0.20046733562910912
    endloop
  endfacet
  facet normal 0.0 0.0 1.0
    outer loop
      vertex 1.6433468554834876 4.861156706557341 0.20046733562910912
      vertex 1.5218402764449313 4.353473603803387 0.20046733562910912
      vertex 2.1087939254790293 4.382985182771578 0.20046733562910912
    endloop
  endfacet
  facet normal -0.0 0.0 1.0
    outer loop
      vertex 0.5386924547771715 4.081406484333684 0.20046733562910912
      vertex 1.14827702971554 3.9818300372760502 0.20046733562910912
      vertex 1.0374325545375265 4.547197221762516 0.20046733562910912
    endloop
  endfacet
  facet normal 0.0 -0.0 1.0
    outer loop
      vertex 1.14827702971554 3.9818300372760502 0.20046733562910912
      vertex 1.5218402764449313 4.353473603803387 0.20046733562910912
      vertex 1.0374325545375265 4.547197221762516 0.20046733562910912
    endloop
  endfacet
  facet normal 0.0 0.0 1.0
    outer loop
      vertex 0.18411582781750854 3.498330062415108 0.20046733562910912
      vertex 0.749017672498864 3.5452823438086067 0.20046733562910912
      vertex 0.5386924547771715 4.081406484333684 0.20046733562910912
    endloop
  endfacet
  facet normal 0.0 -0.0 1.0
    outer loop
      vertex 0.749017672498864 3.5452823438086067 0.20046733562910912
      vertex 1.14827702971554 3.9818300372760502 0.20046733562910912
      vertex 0.5386924547771715 4.081406484333684 0.20046733562910912
    endloop
  endfacet
  facet normal 0.0 0.0 1.0
    outer loop
      vertex 0.0 2.841212066823345 0.20046733562910912
      vertex 0.4714746085277264 3.071905381403533 0.20046733562910912
      vertex 0.18411582781750854 3.498330062415108 0.20046733562910912
    endloop
  endfacet
  facet normal -0.0 0.0 1.0
    outer loop
      vertex 0.18411582781750854 3.498330062415108 0.20046733562910912
      vertex 0.4714746085277264 3.071905381403533 0.20046733562910912
      vertex 0.749017672498864 3.5452823438086067 0.20046733562910912
    endloop
  endfacet
  facet normal 0.0 -0.0 1.0
    outer loop
      vertex 2.848812181768908e-15 2.1587879331766335 0.20046733562910912
      vertex 0.5628954212775125 2.4999999999999956 0.20046733562910912
      vertex 0.0 2.841212066823345 0.20046733562910912
    endloop
  endfacet
  facet normal 0.0 0.0 1.0
    outer loop
      vertex 0.5628954212775125 2.4999999999999956 0.20046733562910912
      vertex 0.4714746085277264 3.071905381403533 0.20046733562910912
      vertex 0.0 2.841212066823345 0.20046733562910912
    endloop
  endfacet
  facet normal 0.0 -0.0 1.0
    outer loop
      vertex 0.18411582781751853 1.5016699375848719 0.20046733562910912
      vertex 0.47147460852773315 1.9280946185964518 0.20046733562910912
      vertex 2.848812181768908e-15 2.1587879331766335 0.20046733562910912
    endloop
  endfacet
  facet normal -0.0 0.0 1.0
    outer loop
      vertex 2.848812181768908e-15 2.1587879331766335 0.20046733562910912
      vertex 0.47147460852773315 1.9280946185964518 0.20046733562910912
      vertex 0.5628954212775125 2.4999999999999956 0.20046733562910912
    endloop
  endfacet
  facet normal 0.0 -0.0 1.0
    outer loop
      vertex 0.5386924547771875 0.9185935156662993 0.20046733562910912
      vertex 0.74901767249887 1.454717656191377 0.20046733562910912
      vertex 0.18411582781751853 1.5016699375848719 0.20046733562910912
    endloop
  endfacet
  facet normal 0.0 0.0 1.0
    outer loop
      vertex 0.74901767249887 1.454717656191377 0.20046733562910912
      vertex 0.47147460852773315 1.9280946185964518 0.20046733562910912
      vertex 0.18411582781751853 1.5016699375848719 0.20046733562910912
    endloop
  endfacet
  facet normal 0.0 -0.0 1.0
    outer loop
      vertex 1.0374325545375476 0.4528027782374718 0.20046733562910912
      vertex 1.14827702971555 1.0181699627239396 0.20046733562910912
      vertex 0.5386924547771875 0.9185935156662993 0.20046733562910912
    endloop
  endfacet
  facet normal 0.0 0.0 1.0
    outer loop
      vertex 0.5386924547771875 0.9185935156662993 0.20046733562910912
      vertex 1.14827702971555 1.0181699627239396 0.20046733562910912
      vertex 0.74901767249887 1.454717656191377 0.20046733562910912
    endloop
  endfacet
  facet normal 0.0 0.0 1.0
    outer loop
      vertex 1.6433468554835082 0.13884329344265436 0.20046733562910912
      vertex 1.5218402764449466 0.6465263961966042 0.20046733562910912
      vertex 1.0374325545375476 0.4528027782374718 0.20046733562910912
    endloop
  endfacet
  facet normal 0.0 0.0 1.0
    outer loop
      vertex 1.0374325545375476 0.4528027782374718 0.20046733562910912
      vertex 1.5218402764449466 0.6465263961966042 0.20046733562910912
      vertex 1.14827702971555 1.0181699627239396 0.20046733562910912
    endloop
  endfacet
  facet normal 0.0 0.0 1.0
    outer loop
      vertex 2.3114974657873972 0.0 0.20046733562910912
      vertex 2.108793925479038 0.6170148172284217 0.20046733562910912
      vertex 1.6433468554835082 0.13884329344265436 0.20046733562910912
    endloop
  endfacet
  facet normal 0.0 0.0 1.0
    outer loop
      vertex 2.108793925479038 0.6170148172284217 0.20046733562910912
      vertex 1.5218402764449466 0.6465263961966042 0.20046733562910912
      vertex 1.6433468554835082 0.13884329344265436 0.20046733562910912
    endloop
  endfacet
  facet normal 0.0 0.0 1.0
    outer loop
      vertex 2.9923307112686275 0.04657026981834919 0.20046733562910912
      vertex 2.6377524504487337 0.4093669891784911 0.20046733562910912
      vertex 2.3114974657873972 0.0 0.20046733562910912
    endloop
  endfacet
  facet normal 0.0 -0.0 1.0
    outer loop
      vertex 2.3114974657873972 0.0 0.20046733562910912
      vertex 2.6377524504487337 0.4093669891784911 0.20046733562910912
      vertex 2.108793925479038 0.6170148172284217 0.20046733562910912
    endloop
  endfacet
  facet normal 0.0 0.0 1.0
    outer loop
      vertex 3.6353523047147105 0.2751001990300818 0.20046733562910912
      vertex 3.1440800604113974 0.6013133717051637 0.20046733562910912
      vertex 2.9923307112686275 0.04657026981834919 0.20046733562910912
    endloop
  endfacet
  facet normal 0.0 0.0 1.0
    outer loop
      vertex 3.1440800604113974 0.6013133717051637 0.20046733562910912
      vertex 2.6377524504487337 0.4093669891784911 0.20046733562910912
      vertex 2.9923307112686275 0.04657026981834919 0.20046733562910912
    endloop
  endfacet
  facet normal 0.0 0.0 1.0
    outer loop
      vertex 4.192872276167805 0.6686407682404277 0.20046733562910912
      vertex 3.67630798532435 0.8342128860325733 0.20046733562910912
      vertex 3.6353523047147105 0.2751001990300818 0.20046733562910912
    endloop
  endfacet
  facet normal 0.0 -0.0 1.0
    outer loop
      vertex 3.6353523047147105 0.2751001990300818 0.20046733562910912
      vertex 3.67630798532435 0.8342128860325733 0.20046733562910912
      vertex 3.1440800604113974 0.6013133717051637 0.20046733562910912
    endloop
  endfacet
  facet normal 0.0 0.0 1.0
    outer loop
      vertex 4.6235419198293926 1.198004873759361 0.20046733562910912
      vertex 3.9416731673438723 1.311391111789116 0.20046733562910912
      vertex 4.192872276167805 0.6686407682404277 0.20046733562910912
    endloop
  endfacet
  facet normal 0.0 0.0 1.0
    outer loop
      vertex 3.9416731673438723 1.311391111789116 0.20046733562910912
      vertex 3.67630798532435 0.8342128860325733 0.20046733562910912
      vertex 4.192872276167805 0.6686407682404277 0.20046733562910912
    endloop
  endfacet
  facet normal 0.0 0.0 1.0
    outer loop
      vertex 4.895420438411617 1.8239320015601888 0.20046733562910912
      vertex 4.3742813376524845 1.6859553357526456 0.20046733562910912
      vertex 4.6235419198293926 1.198004873759361 0.20046733562910912
    endloop
  endfacet
  facet normal 0.0 0.0 1.0
    outer loop
      vertex 4.6235419198293926 1.198004873759361 0.20046733562910912
      vertex 4.3742813376524845 1.6859553357526456 0.20046733562910912
      vertex 3.9416731673438723 1.311391111789116 0.20046733562910912
    endloop
  endfacet
  facet normal 0.0 0.0 1.0
    outer loop
      vertex 4.461599744360955 2.227979296913828 0.20046733562910912
      vertex 4.3742813376524845 1.6859553357526456 0.20046733562910912
      vertex 4.895420438411617 1.8239320015601888 0.20046733562910912
    endloop
  endfacet
  facet normal 0.0 0.0 1.0
    outer loop
      vertex 0.5628954212775125 2.4999999999999956 0.20046733562910912
      vertex 1.1133792766390171 2.499999999999999 0.20046733562910912
      vertex 0.9613867103663812 2.987192882547839 0.20046733562910912
    endloop
  endfacet
  facet normal 0.0 0.0 1.0
    outer loop
      vertex 0.9613867103663812 2.987192882547839 0.20046733562910912
      vertex 0.4714746085277264 3.071905381403533 0.20046733562910912
      vertex 0.5628954212775125 2.4999999999999956 0.20046733562910912
    endloop
  endfacet
  facet normal 0.0 -0.0 1.0
    outer loop
      vertex 0.9613867103663843 2.0128071174521556 0.20046733562910912
      vertex 1.1133792766390171 2.499999999999999 0.20046733562910912
      vertex 0.5628954212775125 2.4999999999999956 0.20046733562910912
    endloop
  endfacet
  facet normal 0.0 0.0 1.0
    outer loop
      vertex 0.5628954212775125 2.4999999999999956 0.20046733562910912
      vertex 0.47147460852773315 1.9280946185964518 0.20046733562910912
      vertex 0.9613867103663843 2.0128071174521556 0.20046733562910912
    endloop
  endfacet
  facet normal 0.0 0.0 1.0
    outer loop
      vertex 2.6830161672738786 0.8964059588674059 0.20046733562910912
      vertex 2.229745271815018 1.152120915017907 0.20046733562910912
      vertex 2.108793925479038 0.6170148172284217 0.20046733562910912
    endloop
  endfacet
  facet normal -0.0 0.0 1.0
    outer loop
      vertex 2.108793925479038 0.6170148172284217 0.20046733562910912
      vertex 2.6377524504487337 0.4093669891784911 0.20046733562910912
      vertex 2.6830161672738786 0.8964059588674059 0.20046733562910912
    endloop
  endfacet
  facet normal 0.0 -0.0 1.0
    outer loop
      vertex 2.108793925479038 0.6170148172284217 0.20046733562910912
      vertex 2.229745271815018 1.152120915017907 0.20046733562910912
      vertex 1.719026366648588 1.1023417571788887 0.20046733562910912
    endloop
  endfacet
  facet normal 0.0 0.0 1.0
    outer loop
      vertex 1.719026366648588 1.1023417571788887 0.20046733562910912
      vertex 1.5218402764449466 0.6465263961966042 0.20046733562910912
      vertex 2.108793925479038 0.6170148172284217 0.20046733562910912
    endloop
  endfacet
  facet normal 0.0 0.0 1.0
    outer loop
      vertex 2.1087939254790293 4.382985182771578 0.20046733562910912
      vertex 2.229745271815017 3.8478790849820945 0.20046733562910912
      vertex 2.6830161672738795 4.103594041132601 0.20046733562910912
    endloop
  endfacet
  facet normal 0.0 0.0 1.0
    outer loop
      vertex 2.6830161672738795 4.103594041132601 0.20046733562910912
      vertex 2.637752450448721 4.590633010821514 0.20046733562910912
      vertex 2.1087939254790293 4.382985182771578 0.20046733562910912
    endloop
  endfacet
  facet normal -0.0 0.0 1.0
    outer loop
      vertex 1.7190263666485859 3.8976582428211075 0.20046733562910912
      vertex 2.229745271815017 3.8478790849820945 0.20046733562910912
      vertex 2.1087939254790293 4.382985182771578 0.20046733562910912
    endloop
  endfacet
  facet normal 0.0 0.0 1.0
    outer loop
      vertex 2.1087939254790293 4.382985182771578 0.20046733562910912
      vertex 1.5218402764449313 4.353473603803387 0.20046733562910912
      vertex 1.7190263666485859 3.8976582428211075 0.20046733562910912
    endloop
  endfacet
  facet normal 0.0 -0.0 1.0
    outer loop
      vertex 3.9416731673438723 1.311391111789116 0.20046733562910912
      vertex 4.3742813376524845 1.6859553357526456 0.20046733562910912
      vertex 3.9248591202403387 1.988019222130206 0.20046733562910912
    endloop
  endfacet
  facet normal -0.0 0.0 1.0
    outer loop
      vertex 3.9248591202403387 1.988019222130206 0.20046733562910912
      vertex 4.3742813376524845 1.6859553357526456 0.20046733562910912
      vertex 4.461599744360955 2.227979296913828 0.20046733562910912
    endloop
  endfacet
  facet normal 0.0 0.0 1.0
    outer loop
      vertex 4.461599744360955 2.227979296913828 0.20046733562910912
      vertex 4.048397494615994 2.5047548874104613 0.20046733562910912
      vertex 3.9248591202403387 1.988019222130206 0.20046733562910912
    endloop
  endfacet
  facet normal 0.0 0.0 1.0
    outer loop
      vertex 3.927192150225202 3.0164768480260933 0.20046733562910912
      vertex 4.372020377946014 3.3121174438925327 0.20046733562910912
      vertex 3.935812783947184 3.6845704550013774 0.20046733562910912
    endloop
  endfacet
  facet normal 0.0 0.0 1.0
    outer loop
      vertex 4.443497629519097 2.7912990699821774 0.20046733562910912
      vertex 4.372020377946014 3.3121174438925327 0.20046733562910912
      vertex 3.927192150225202 3.0164768480260933 0.20046733562910912
    endloop
  endfacet
  facet normal 0.0 0.0 1.0
    outer loop
      vertex 3.927192150225202 3.0164768480260933 0.20046733562910912
      vertex 4.048397494615994 2.5047548874104613 0.20046733562910912
      vertex 4.443497629519097 2.7912990699821774 0.20046733562910912
    endloop
  endfacet
  facet normal -0.0 0.0 1.0
    outer loop
      vertex 3.250336593016557 1.1700717339138482 0.20046733562910912
      vertex 3.67630798532435 0.8342128860325733 0.20046733562910912
      vertex 3.9416731673438723 1.311391111789116 0.20046733562910912
    endloop
  endfacet
  facet normal -0.0 0.0 1.0
    outer loop
      vertex 2.6830161672738786 0.8964059588674059 0.20046733562910912
      vertex 3.1440800604113974 0.6013133717051637 0.20046733562910912
      vertex 3.250336593016557 1.1700717339138482 0.20046733562910912
    endloop
  endfacet
  facet normal 0.0 0.0 1.0
    outer loop
      vertex 3.1440800604113974 0.6013133717051637 0.20046733562910912
      vertex 3.67630798532435 0.8342128860325733 0.20046733562910912
      vertex 3.250336593016557 1.1700717339138482 0.20046733562910912
    endloop
  endfacet
  facet normal 0.0 0.0 1.0
    outer loop
      vertex 3.935812783947184 3.6845704550013774 0.20046733562910912
      vertex 3.676307985324353 4.165787113967423 0.20046733562910912
      vertex 3.250336593016564 3.8299282660861507 0.20046733562910912
    endloop
  endfacet
  facet normal 0.0 0.0 1.0
    outer loop
      vertex 3.250336593016564 3.8299282660861507 0.20046733562910912
      vertex 3.1440800604113917 4.39868662829484 0.20046733562910912
      vertex 2.6830161672738795 4.103594041132601 0.20046733562910912
    endloop
  endfacet
  facet normal 0.0 -0.0 1.0
    outer loop
      vertex 3.250336593016564 3.8299282660861507 0.20046733562910912
      vertex 3.676307985324353 4.165787113967423 0.20046733562910912
      vertex 3.1440800604113917 4.39868662829484 0.20046733562910912
    endloop
  endfacet
  facet normal 0.0 0.0 1.0
    outer loop
      vertex 1.3291202099961923 3.4548911542109075 0.20046733562910912
      vertex 0.749017672498864 3.5452823438086067 0.20046733562910912
      vertex 0.9613867103663812 2.987192882547839 0.20046733562910912
    endloop
  endfacet
  facet normal 0.0 0.0 1.0
    outer loop
      vertex 1.7190263666485859 3.8976582428211075 0.20046733562910912
      vertex 1.14827702971554 3.9818300372760502 0.20046733562910912
      vertex 1.3291202099961923 3.4548911542109075 0.20046733562910912
    endloop
  endfacet
  facet normal 0.0 0.0 1.0
    outer loop
      vertex 1.3291202099961923 3.4548911542109075 0.20046733562910912
      vertex 1.14827702971554 3.9818300372760502 0.20046733562910912
      vertex 0.749017672498864 3.5452823438086067 0.20046733562910912
    endloop
  endfacet
  facet normal 0.0 0.0 1.0
    outer loop
      vertex 0.9613867103663843 2.0128071174521556 0.20046733562910912
      vertex 0.74901767249887 1.454717656191377 0.20046733562910912
      vertex 1.3291202099961952 1.5451088457890927 0.20046733562910912
    endloop
  endfacet
  facet normal 0.0 0.0 1.0
    outer loop
      vertex 1.3291202099961952 1.5451088457890927 0.20046733562910912
      vertex 1.14827702971555 1.0181699627239396 0.20046733562910912
      vertex 1.719026366648588 1.1023417571788887 0.20046733562910912
    endloop
  endfacet
  facet normal -0.0 0.0 1.0
    outer loop
      vertex 0.74901767249887 1.454717656191377 0.20046733562910912
      vertex 1.14827702971555 1.0181699627239396 0.20046733562910912
      vertex 1.3291202099961952 1.5451088457890927 0.20046733562910912
    endloop
  endfacet
  facet normal 0.0 0.0 1.0
    outer loop
      vertex 3.1440800604113917 4.39868662829484 0.20046733562910912
      vertex 2.637752450448721 4.590633010821514 0.20046733562910912
      vertex 2.6830161672738795 4.103594041132601 0.20046733562910912
    endloop
  endfacet
  facet normal 0.0 0.0 1.0
    outer loop
      vertex 2.6830161672738786 0.8964059588674059 0.20046733562910912
      vertex 2.6377524504487337 0.4093669891784911 0.20046733562910912
      vertex 3.1440800604113974 0.6013133717051637 0.20046733562910912
    endloop
  endfacet
  facet normal 0.0 0.0 1.0
    outer loop
      vertex 0.749017672498864 3.5452823438086067 0.20046733562910912
      vertex 0.4714746085277264 3.071905381403533 0.20046733562910912
      vertex 0.9613867103663812 2.987192882547839 0.20046733562910912
    endloop
  endfacet
  facet normal 0.0 0.0 1.0
    outer loop
      vertex 0.9613867103663843 2.0128071174521556 0.20046733562910912
      vertex 0.47147460852773315 1.9280946185964518 0.20046733562910912
      vertex 0.74901767249887 1.454717656191377 0.20046733562910912
    endloop
  endfacet
  facet normal 0.0 0.0 1.0
    outer loop
      vertex 4.443497629519097 2.7912990699821774 0.20046733562910912
      vertex 4.048397494615994 2.5047548874104613 0.20046733562910912
      vertex 4.461599744360955 2.227979296913828 0.20046733562910912
    endloop
  endfacet
  facet normal -0.0 0.0 1.0
    outer loop
      vertex 1.14827702971555 1.0181699627239396 0.20046733562910912
      vertex 1.5218402764449466 0.6465263961966042 0.20046733562910912
      vertex 1.719026366648588 1.1023417571788887 0.20046733562910912
    endloop
  endfacet
  facet normal 0.0 0.0 1.0
    outer loop
      vertex 1.7190263666485859 3.8976582428211075 0.20046733562910912
      vertex 1.5218402764449313 4.353473603803387 0.20046733562910912
      vertex 1.14827702971554 3.9818300372760502 0.20046733562910912
    endloop
  endfacet
  facet normal -0.9396926207859081 -0.34202014332566955 -1.5153337048716307e-15
    outer loop
      vertex 3.4848388287343797 2.500000000000001 0.10023366781455487
      vertex 3.250336593016564 3.1442895974463227 0.0
      vertex 3.4848388287343797 2.5000000000000013 0.0
    endloop
  endfacet
  facet normal -0.9396926207859071 0.34202014332567204 1.6154789529331732e-15
    outer loop
      vertex 3.2503365930165606 1.8557104025536755 0.0
      vertex 3.4848388287343797 2.500000000000001 0.10023366781455487
      vertex 3.4848388287343797 2.5000000000000013 0.0
    endloop
  endfacet
  facet normal -0.9396926207859081 -0.3420201433256696 1.5153337048716401e-15
    outer loop
      vertex 3.4848388287343797 2.500000000000001 0.10023366781455487
      vertex 3.4848388287343797 2.5000000000000013 0.20046733562910912
      vertex 3.250336593016564 3.1442895974463227 0.20046733562910912
    endloop
  endfacet
  facet normal -0.9396926207859072 0.34202014332567204 -1.6154789529331832e-15
    outer loop
      vertex 3.2503365930165606 1.8557104025536755 0.20046733562910912
      vertex 3.4848388287343797 2.5000000000000013 0.20046733562910912
      vertex 3.4848388287343797 2.500000000000001 0.10023366781455487
    endloop
  endfacet
  facet normal -0.4999999999999996 -0.8660254037844388 -0.0
    outer loop
      vertex 3.250336593016564 3.1442895974463227 0.20046733562910912
      vertex 2.6565560881575316 3.4871089317662367 0.0
      vertex 3.250336593016564 3.1442895974463227 0.0
    endloop
  endfacet
  facet normal -0.9396926207859081 -0.3420201433256693 0.0
    outer loop
      vertex 3.4848388287343797 2.500000000000001 0.10023366781455487
      vertex 3.250336593016564 3.1442895974463227 0.20046733562910912
      vertex 3.250336593016564 3.1442895974463227 0.0
    endloop
  endfacet
  facet normal 0.17364817766693033 -0.984807753012208 0.0
    outer loop
      vertex 2.6565560881575316 3.4871089317662367 0.0
      vertex 2.6565560881575316 3.4871089317662367 0.20046733562910912
      vertex 1.9813338115160604 3.36804902641895 0.0
    endloop
  endfacet
  facet normal -0.4999999999999996 -0.8660254037844388 0.0
    outer loop
      vertex 3.250336593016564 3.1442895974463227 0.20046733562910912
      vertex 2.6565560881575316 3.4871089317662367 0.20046733562910912
      vertex 2.6565560881575316 3.4871089317662367 0.0
    endloop
  endfacet
  facet normal 0.7660444431189782 -0.6427876096865393 0.0
    outer loop
      vertex 1.9813338115160604 3.36804902641895 0.0
      vertex 1.5406137705924043 2.8428193343199157 0.20046733562910912
      vertex 1.5406137705924043 2.8428193343199157 0.0
    endloop
  endfacet
  facet normal 0.17364817766693033 -0.984807753012208 0.0
    outer loop
      vertex 2.6565560881575316 3.4871089317662367 0.20046733562910912
      vertex 1.9813338115160604 3.36804902641895 0.20046733562910912
      vertex 1.9813338115160604 3.36804902641895 0.0
    endloop
  endfacet
  facet normal 0.7660444431189782 -0.6427876096865393 0.0
    outer loop
      vertex 1.9813338115160604 3.36804902641895 0.20046733562910912
      vertex 1.5406137705924043 2.8428193343199157 0.20046733562910912
      vertex 1.9813338115160604 3.36804902641895 0.0
    endloop
  endfacet
  facet normal 1.0 -1.295403045837683e-15 0.0
    outer loop
      vertex 1.5406137705924043 2.8428193343199157 0.20046733562910912
      vertex 1.5406137705924035 2.157180665680089 0.0
      vertex 1.5406137705924043 2.8428193343199157 0.0
    endloop
  endfacet
  facet normal 0.7660444431189802 0.6427876096865367 0.0
    outer loop
      vertex 1.5406137705924035 2.157180665680089 0.0
      vertex 1.9813338115160566 1.6319509735810547 0.20046733562910912
      vertex 1.9813338115160566 1.6319509735810547 0.0
    endloop
  endfacet
  facet normal 1.0 -1.295403045837683e-15 0.0
    outer loop
      vertex 1.5406137705924043 2.8428193343199157 0.20046733562910912
      vertex 1.5406137705924035 2.157180665680089 0.20046733562910912
      vertex 1.5406137705924035 2.157180665680089 0.0
    endloop
  endfacet
  facet normal 0.7660444431189802 0.6427876096865367 0.0
    outer loop
      vertex 1.5406137705924035 2.157180665680089 0.20046733562910912
      vertex 1.9813338115160566 1.6319509735810547 0.20046733562910912
      vertex 1.5406137705924035 2.157180665680089 0.0
    endloop
  endfacet
  facet normal 0.1736481776669352 0.9848077530122072 0.0
    outer loop
      vertex 1.9813338115160566 1.6319509735810547 0.20046733562910912
      vertex 2.656556088157527 1.5128910682337648 0.0
      vertex 1.9813338115160566 1.6319509735810547 0.0
    endloop
  endfacet
  facet normal -0.49999999999999534 0.8660254037844412 0.0
    outer loop
      vertex 2.656556088157527 1.5128910682337648 0.20046733562910912
      vertex 3.2503365930165606 1.8557104025536755 0.0
      vertex 2.656556088157527 1.5128910682337648 0.0
    endloop
  endfacet
  facet normal 0.1736481776669352 0.9848077530122072 0.0
    outer loop
      vertex 1.9813338115160566 1.6319509735810547 0.20046733562910912
      vertex 2.656556088157527 1.5128910682337648 0.20046733562910912
      vertex 2.656556088157527 1.5128910682337648 0.0
    endloop
  endfacet
  facet normal -0.49999999999999534 0.8660254037844412 0.0
    outer loop
      vertex 3.2503365930165606 1.8557104025536755 0.0
      vertex 2.656556088157527 1.5128910682337648 0.20046733562910912
      vertex 3.2503365930165606 1.8557104025536755 0.20046733562910912
    endloop
  endfacet
  facet normal -0.9396926207859071 0.34202014332567227 0.0
    outer loop
      vertex 3.4848388287343797 2.500000000000001 0.10023366781455487
      vertex 3.2503365930165606 1.8557104025536755 0.0
      vertex 3.2503365930165606 1.8557104025536755 0.20046733562910912
    endloop
  endfacet
  facet normal 0.9906859460363306 0.13616664909624768 1.8098750925775023e-15
    outer loop
      vertex 4.988343845952698 2.5 0.10023366781455487
      vertex 4.988343845952698 2.5000000000000013 0.0
      vertex 4.895420438411615 3.176067998439817 0.0
    endloop
  endfacet
  facet normal 0.9906859460363309 -0.13616664909624562 -1.8259746862395883e-15
    outer loop
      vertex 4.895420438411617 1.8239320015601888 0.0
      vertex 4.988343845952698 2.5000000000000013 0.0
      vertex 4.988343845952698 2.5 0.10023366781455487
    endloop
  endfacet
  facet normal 0.9906859460363306 0.13616664909624762 -1.809875092577513e-15
    outer loop
      vertex 4.988343845952698 2.5 0.10023366781455487
      vertex 4.895420438411615 3.176067998439817 0.20046733562910912
      vertex 4.988343845952698 2.5000000000000013 0.20046733562910912
    endloop
  endfacet
  facet normal 0.9906859460363308 -0.13616664909624562 1.8259746862395994e-15
    outer loop
      vertex 4.895420438411617 1.8239320015601888 0.20046733562910912
      vertex 4.988343845952698 2.5 0.10023366781455487
      vertex 4.988343845952698 2.5000000000000013 0.20046733562910912
    endloop
  endfacet
  facet normal 0.9172113015054527 0.3984010898462421 0.0
    outer loop
      vertex 4.895420438411615 3.176067998439817 0.0
      vertex 4.623541919829388 3.801995126240647 0.0
      vertex 4.623541919829388 3.801995126240647 0.20046733562910912
    endloop
  endfacet
  facet normal 0.9172113015054527 0.3984010898462421 0.0
    outer loop
      vertex 4.895420438411615 3.176067998439817 0.20046733562910912
      vertex 4.895420438411615 3.176067998439817 0.0
      vertex 4.623541919829388 3.801995126240647 0.20046733562910912
    endloop
  endfacet
  facet normal 0.9906859460363306 0.13616664909624737 0.0
    outer loop
      vertex 4.895420438411615 3.176067998439817 0.20046733562910912
      vertex 4.988343845952698 2.5 0.10023366781455487
      vertex 4.895420438411615 3.176067998439817 0.0
    endloop
  endfacet
  facet normal 0.7757112907044192 0.6310879443260535 0.0
    outer loop
      vertex 4.1928722761677975 4.331359231759582 0.20046733562910912
      vertex 4.623541919829388 3.801995126240647 0.0
      vertex 4.1928722761677975 4.331359231759582 0.0
    endloop
  endfacet
  facet normal 0.7757112907044192 0.6310879443260535 0.0
    outer loop
      vertex 4.623541919829388 3.801995126240647 0.20046733562910912
      vertex 4.623541919829388 3.801995126240647 0.0
      vertex 4.1928722761677975 4.331359231759582 0.20046733562910912
    endloop
  endfacet
  facet normal 0.5766803221148664 0.8169698930104425 0.0
    outer loop
      vertex 4.1928722761677975 4.331359231759582 0.20046733562910912
      vertex 4.1928722761677975 4.331359231759582 0.0
      vertex 3.6353523047146994 4.724899800969927 0.0
    endloop
  endfacet
  facet normal 0.33487961217098383 0.9422609221188214 0.0
    outer loop
      vertex 3.6353523047146994 4.724899800969927 0.0
      vertex 2.9923307112686106 4.953429730181657 0.0
      vertex 2.9923307112686106 4.953429730181657 0.20046733562910912
    endloop
  endfacet
  facet normal 0.5766803221148664 0.8169698930104425 0.0
    outer loop
      vertex 4.1928722761677975 4.331359231759582 0.20046733562910912
      vertex 3.6353523047146994 4.724899800969927 0.0
      vertex 3.6353523047146994 4.724899800969927 0.20046733562910912
    endloop
  endfacet
  facet normal 0.33487961217098383 0.9422609221188214 0.0
    outer loop
      vertex 3.6353523047146994 4.724899800969927 0.20046733562910912
      vertex 3.6353523047146994 4.724899800969927 0.0
      vertex 2.9923307112686106 4.953429730181657 0.20046733562910912
    endloop
  endfacet
  facet normal 0.06824241336466584 0.9976687691905395 0.0
    outer loop
      vertex 2.9923307112686106 4.953429730181657 0.0
      vertex 2.311497465787377 5.0 0.0
      vertex 2.311497465787377 5.0 0.20046733562910912
    endloop
  endfacet
  facet normal 0.06824241336466584 0.9976687691905395 -0.0
    outer loop
      vertex 2.9923307112686106 4.953429730181657 0.0
      vertex 2.311497465787377 5.0 0.20046733562910912
      vertex 2.9923307112686106 4.953429730181657 0.20046733562910912
    endloop
  endfacet
  facet normal -0.20345601305263614 0.9790840876823225 0.0
    outer loop
      vertex 2.311497465787377 5.0 0.0
      vertex 1.6433468554834876 4.861156706557341 0.0
      vertex 1.6433468554834876 4.861156706557341 0.20046733562910912
    endloop
  endfacet
  facet normal -0.20345601305263614 0.9790840876823225 0.0
    outer loop
      vertex 2.311497465787377 5.0 0.20046733562910912
      vertex 2.311497465787377 5.0 0.0
      vertex 1.6433468554834876 4.861156706557341 0.20046733562910912
    endloop
  endfacet
  facet normal -0.4600650377311552 0.8878852184023736 0.0
    outer loop
      vertex 1.0374325545375265 4.547197221762516 0.0
      vertex 1.0374325545375265 4.547197221762516 0.20046733562910912
      vertex 1.6433468554834876 4.861156706557341 0.0
    endloop
  endfacet
  facet normal -0.4600650377311552 0.8878852184023736 0.0
    outer loop
      vertex 1.6433468554834876 4.861156706557341 0.0
      vertex 1.0374325545375265 4.547197221762516 0.20046733562910912
      vertex 1.6433468554834876 4.861156706557341 0.20046733562910912
    endloop
  endfacet
  facet normal -0.6825531432186578 0.7308359642781206 0.0
    outer loop
      vertex 1.0374325545375265 4.547197221762516 0.20046733562910912
      vertex 1.0374325545375265 4.547197221762516 0.0
      vertex 0.5386924547771715 4.081406484333684 0.0
    endloop
  endfacet
  facet normal -0.8544194045464909 0.5195839500354298 0.0
    outer loop
      vertex 0.5386924547771715 4.081406484333684 0.20046733562910912
      vertex 0.5386924547771715 4.081406484333684 0.0
      vertex 0.18411582781750854 3.498330062415108 0.0
    endloop
  endfacet
  facet normal -0.6825531432186578 0.7308359642781206 0.0
    outer loop
      vertex 1.0374325545375265 4.547197221762516 0.20046733562910912
      vertex 0.5386924547771715 4.081406484333684 0.0
      vertex 0.5386924547771715 4.081406484333684 0.20046733562910912
    endloop
  endfacet
  facet normal -0.9629172873478006 0.26979677115701933 0.0
    outer loop
      vertex 0.18411582781750854 3.498330062415108 0.0
      vertex 0.0 2.841212066823345 0.0
      vertex 0.0 2.841212066823345 0.20046733562910912
    endloop
  endfacet
  facet normal -0.8544194045464909 0.5195839500354298 0.0
    outer loop
      vertex 0.5386924547771715 4.081406484333684 0.20046733562910912
      vertex 0.18411582781750854 3.498330062415108 0.0
      vertex 0.18411582781750854 3.498330062415108 0.20046733562910912
    endloop
  endfacet
  facet normal -0.9629172873478006 0.26979677115701933 0.0
    outer loop
      vertex 0.18411582781750854 3.498330062415108 0.0
      vertex 0.0 2.841212066823345 0.20046733562910912
      vertex 0.18411582781750854 3.498330062415108 0.20046733562910912
    endloop
  endfacet
  facet normal -1.0 -4.174547823426959e-15 0.0
    outer loop
      vertex 0.0 2.841212066823345 0.0
      vertex 2.848812181768908e-15 2.1587879331766335 0.0
      vertex 2.848812181768908e-15 2.1587879331766335 0.20046733562910912
    endloop
  endfacet
  facet normal -1.0 -4.174547823426959e-15 0.0
    outer loop
      vertex 0.0 2.841212066823345 0.0
      vertex 2.848812181768908e-15 2.1587879331766335 0.20046733562910912
      vertex 0.0 2.841212066823345 0.20046733562910912
    endloop
  endfacet
  facet normal -0.9629172873477978 -0.2697967711570295 0.0
    outer loop
      vertex 2.848812181768908e-15 2.1587879331766335 0.0
      vertex 0.18411582781751853 1.5016699375848719 0.0
      vertex 0.18411582781751853 1.5016699375848719 0.20046733562910912
    endloop
  endfacet
  facet normal -0.9629172873477978 -0.2697967711570295 -0.0
    outer loop
      vertex 2.848812181768908e-15 2.1587879331766335 0.20046733562910912
      vertex 2.848812181768908e-15 2.1587879331766335 0.0
      vertex 0.18411582781751853 1.5016699375848719 0.20046733562910912
    endloop
  endfacet
  facet normal -0.8544194045464858 -0.5195839500354383 0.0
    outer loop
      vertex 0.18411582781751853 1.5016699375848719 0.0
      vertex 0.5386924547771875 0.9185935156662993 0.0
      vertex 0.5386924547771875 0.9185935156662993 0.20046733562910912
    endloop
  endfacet
  facet normal -0.8544194045464858 -0.5195839500354383 0.0
    outer loop
      vertex 0.18411582781751853 1.5016699375848719 0.0
      vertex 0.5386924547771875 0.9185935156662993 0.20046733562910912
      vertex 0.18411582781751853 1.5016699375848719 0.20046733562910912
    endloop
  endfacet
  facet normal -0.6825531432186506 -0.7308359642781271 0.0
    outer loop
      vertex 0.5386924547771875 0.9185935156662993 0.0
      vertex 1.0374325545375476 0.4528027782374718 0.0
      vertex 1.0374325545375476 0.4528027782374718 0.20046733562910912
    endloop
  endfacet
  facet normal -0.6825531432186506 -0.7308359642781271 -0.0
    outer loop
      vertex 0.5386924547771875 0.9185935156662993 0.20046733562910912
      vertex 0.5386924547771875 0.9185935156662993 0.0
      vertex 1.0374325545375476 0.4528027782374718 0.20046733562910912
    endloop
  endfacet
  facet normal -0.46006503773114643 -0.8878852184023782 0.0
    outer loop
      vertex 1.0374325545375476 0.4528027782374718 0.0
      vertex 1.6433468554835082 0.13884329344265436 0.0
      vertex 1.6433468554835082 0.13884329344265436 0.20046733562910912
    endloop
  endfacet
  facet normal -0.46006503773114643 -0.8878852184023782 0.0
    outer loop
      vertex 1.0374325545375476 0.4528027782374718 0.0
      vertex 1.6433468554835082 0.13884329344265436 0.20046733562910912
      vertex 1.0374325545375476 0.4528027782374718 0.20046733562910912
    endloop
  endfacet
  facet normal -0.20345601305262953 -0.9790840876823238 0.0
    outer loop
      vertex 1.6433468554835082 0.13884329344265436 0.0
      vertex 2.3114974657873972 0.0 0.0
      vertex 2.3114974657873972 0.0 0.20046733562910912
    endloop
  endfacet
  facet normal -0.20345601305262953 -0.9790840876823238 -0.0
    outer loop
      vertex 1.6433468554835082 0.13884329344265436 0.20046733562910912
      vertex 1.6433468554835082 0.13884329344265436 0.0
      vertex 2.3114974657873972 0.0 0.20046733562910912
    endloop
  endfacet
  facet normal 0.06824241336467556 -0.9976687691905389 0.0
    outer loop
      vertex 2.3114974657873972 0.0 0.20046733562910912
      vertex 2.3114974657873972 0.0 0.0
      vertex 2.9923307112686275 0.04657026981834919 0.0
    endloop
  endfacet
  facet normal 0.33487961217098905 -0.9422609221188193 0.0
    outer loop
      vertex 2.9923307112686275 0.04657026981834919 0.0
      vertex 3.6353523047147105 0.2751001990300818 0.0
      vertex 3.6353523047147105 0.2751001990300818 0.20046733562910912
    endloop
  endfacet
  facet normal 0.06824241336467556 -0.9976687691905389 0.0
    outer loop
      vertex 2.3114974657873972 0.0 0.20046733562910912
      vertex 2.9923307112686275 0.04657026981834919 0.0
      vertex 2.9923307112686275 0.04657026981834919 0.20046733562910912
    endloop
  endfacet
  facet normal 0.33487961217098905 -0.9422609221188193 0.0
    outer loop
      vertex 2.9923307112686275 0.04657026981834919 0.0
      vertex 3.6353523047147105 0.2751001990300818 0.20046733562910912
      vertex 2.9923307112686275 0.04657026981834919 0.20046733562910912
    endloop
  endfacet
  facet normal 0.5766803221148707 -0.8169698930104395 0.0
    outer loop
      vertex 3.6353523047147105 0.2751001990300818 0.20046733562910912
      vertex 3.6353523047147105 0.2751001990300818 0.0
      vertex 4.192872276167805 0.6686407682404277 0.0
    endloop
  endfacet
  facet normal 0.77571129070442 -0.6310879443260524 0.0
    outer loop
      vertex 4.6235419198293926 1.198004873759361 0.20046733562910912
      vertex 4.192872276167805 0.6686407682404277 0.0
      vertex 4.6235419198293926 1.198004873759361 0.0
    endloop
  endfacet
  facet normal 0.5766803221148707 -0.8169698930104395 0.0
    outer loop
      vertex 4.192872276167805 0.6686407682404277 0.0
      vertex 4.192872276167805 0.6686407682404277 0.20046733562910912
      vertex 3.6353523047147105 0.2751001990300818 0.20046733562910912
    endloop
  endfacet
  facet normal 0.77571129070442 -0.6310879443260524 0.0
    outer loop
      vertex 4.192872276167805 0.6686407682404277 0.0
      vertex 4.6235419198293926 1.198004873759361 0.20046733562910912
      vertex 4.192872276167805 0.6686407682404277 0.20046733562910912
    endloop
  endfacet
  facet normal 0.9172113015054535 -0.3984010898462401 0.0
    outer loop
      vertex 4.6235419198293926 1.198004873759361 0.0
      vertex 4.895420438411617 1.8239320015601888 0.0
      vertex 4.895420438411617 1.8239320015601888 0.20046733562910912
    endloop
  endfacet
  facet normal 0.9172113015054535 -0.3984010898462401 0.0
    outer loop
      vertex 4.6235419198293926 1.198004873759361 0.20046733562910912
      vertex 4.6235419198293926 1.198004873759361 0.0
      vertex 4.895420438411617 1.8239320015601888 0.20046733562910912
    endloop
  endfacet
  facet normal 0.9906859460363309 -0.13616664909624593 0.0
    outer loop
      vertex 4.895420438411617 1.8239320015601888 0.20046733562910912
      vertex 4.895420438411617 1.8239320015601888 0.0
      vertex 4.988343845952698 2.5 0.10023366781455487
    endloop
  endfacet
endsolid abc_50_017
