solid abc_50_020
  facet normal -0.6879660613034649 -0.002415789988931411 -0.7257388390139572
    outer loop
      vertex 0.001546605857244237 0.6211334500937188 1.6011583721681029
      vertex 0.0006489509410259869 1.134163418911435 1.600301567333989
      vertex 0.019603790819182367 1.134163418911435 1.5823332764935394
    endloop
  endfacet
  facet normal -0.753815024169111 0.0024211872375440504 -0.6570822225485052
    outer loop
      vertex 0.001546605857244237 0.6211334500937188 1.6011583721681029
      vertex 0.019603790819182367 1.134163418911435 1.5823332764935394
      vertex 0.018706264200609685 0.6211334545858741 1.5814725431895134
    endloop
  endfacet
  facet normal -0.7884347286836584 -0.0013863691157036343 -0.6151168641698915
    outer loop
      vertex 0.001546605857244237 0.6211334500937188 1.6011583721681029
      vertex 0.01815916327193164 0.10810251265443867 1.5810212768087675
      vertex 0.0020935784882731064 0.10810251265443867 1.601613567018762
    endloop
  endfacet
  facet normal -0.7538165138346644 0.001381853138533011 -0.6570835212909063
    outer loop
      vertex 0.018706264200609685 0.6211334545858741 1.5814725431895134
      vertex 0.01815916327193164 0.10810251265443867 1.5810212768087675
      vertex 0.001546605857244237 0.6211334500937188 1.6011583721681029
    endloop
  endfacet
  facet normal -0.615866485798738 0.00023818986836683645 0.7878505029099742
    outer loop
      vertex 0.0006489509410259869 1.134163418911435 1.600301567333989
      vertex 0.001546605857244237 0.6211334500937188 1.6011583721681029
      vertex 0.26620952918184554 0.9984701992235527 1.8079325585357326
    endloop
  endfacet
  facet normal -0.6307390070126467 -0.04941929436067206 0.7744198075834537
    outer loop
      vertex 0.31946613493551235 1.3541983492641254 1.8740089324715192
      vertex 0.0006489509410259869 1.134163418911435 1.600301567333989
      vertex 0.26620952918184554 0.9984701992235527 1.8079325585357326
    endloop
  endfacet
  facet normal -0.4884830861713492 0.00025340383347617965 0.872573326609868
    outer loop
      vertex 0.0020935784882731064 0.10810251265443867 1.601613567018762
      vertex 0.47172933911020637 0.14880487310303542 1.864512746486148
      vertex 0.001546605857244237 0.6211334500937188 1.6011583721681029
    endloop
  endfacet
  facet normal 0.04404101622315666 -0.4532491790615958 0.8902952154033071
    outer loop
      vertex 2.1184896191510987 1.5651391526017226 2.151224082745561
      vertex 1.6471855776733515 1.6049218026210281 2.1947918361467007
      vertex 1.8350863227552854 1.2201629361892574 1.989616095618186
    endloop
  endfacet
  facet normal 0.047799072708345935 -0.5181185928515034 0.8539721145270496
    outer loop
      vertex 2.6500204934889324 1.469742985432919 2.0635945108507263
      vertex 2.1184896191510987 1.5651391526017226 2.151224082745561
      vertex 2.260952745186682 1.0486490584245955 1.8298872129949568
    endloop
  endfacet
  facet normal 0.12009506121979552 -0.5003451563445751 0.8574566465968623
    outer loop
      vertex 2.1184896191510987 1.5651391526017226 2.151224082745561
      vertex 1.8350863227552854 1.2201629361892574 1.989616095618186
      vertex 2.260952745186682 1.0486490584245955 1.8298872129949568
    endloop
  endfacet
  facet normal -0.17121163900818825 -0.8481740893081051 0.5012856360344831
    outer loop
      vertex 4.20874874414827 1.0433643710468339 1.7806681596974219
      vertex 3.6868143906188893 1.1907741417999846 1.8518210301913456
      vertex 4.011165261671919 0.8837532493360765 1.443122861143228
    endloop
  endfacet
  facet normal -0.22059710869622157 -0.8992034037235122 0.377849380530017
    outer loop
      vertex 4.622721368348786 0.9516075956992043 1.8039926898537948
      vertex 4.20874874414827 1.0433643710468339 1.7806681596974219
      vertex 4.550287882703824 0.8330744032392539 1.4796198737640966
    endloop
  endfacet
  facet normal -0.1142345754793454 -0.8706033396094159 0.4785397442490912
    outer loop
      vertex 4.550287882703824 0.8330744032392539 1.4796198737640966
      vertex 4.20874874414827 1.0433643710468339 1.7806681596974219
      vertex 4.011165261671919 0.8837532493360765 1.443122861143228
    endloop
  endfacet
  facet normal -0.19793396808562194 -0.9055957803759728 0.37512454844106474
    outer loop
      vertex 4.985659733010428 0.9567256223441778 2.0078521662312507
      vertex 4.622721368348786 0.9516075956992043 1.8039926898537948
      vertex 4.550287882703824 0.8330744032392539 1.4796198737640966
    endloop
  endfacet
  facet normal -0.10450082497233468 -0.945784611717646 0.3075240572999178
    outer loop
      vertex 5.0 0.7857477391280789 1.4868858308955335
      vertex 4.985659733010428 0.9567256223441778 2.0078521662312507
      vertex 4.550287882703824 0.8330744032392539 1.4796198737640966
    endloop
  endfacet
  facet normal 0.38055240916403965 -0.8363948460467673 0.3944914769495656
    outer loop
      vertex 4.789892953204112 0.10580627466271601 0.010957185988679487
      vertex 4.897227908210789 0.37432757777509135 0.476729627214675
      vertex 4.324554721923381 0.015831366598867972 0.2690895958427458
    endloop
  endfacet
  facet normal -0.508918226959824 -0.02687905470398046 0.8603951154477165
    outer loop
      vertex 0.001546605857244237 0.6211334500937188 1.6011583721681029
      vertex 0.47172933911020637 0.14880487310303542 1.864512746486148
      vertex 0.47362165334643336 0.7107901399566043 1.8831886613629754
    endloop
  endfacet
  facet normal -0.4905771197183597 -0.12822399637897097 0.8619122324004016
    outer loop
      vertex 0.001546605857244237 0.6211334500937188 1.6011583721681029
      vertex 0.47362165334643336 0.7107901399566043 1.8831886613629754
      vertex 0.26620952918184554 0.9984701992235527 1.8079325585357326
    endloop
  endfacet
  facet normal -0.40676894966413396 -0.13653714559764568 0.9032699648838018
    outer loop
      vertex 0.7178986385022676 1.5103194317357076 2.077033836526395
      vertex 0.31946613493551235 1.3541983492641254 1.8740089324715192
      vertex 0.6207397865923824 1.0939794714337947 1.9703469348621574
    endloop
  endfacet
  facet normal -0.3888662507020421 -0.11165097500238134 0.9145037445773276
    outer loop
      vertex 0.6207397865923824 1.0939794714337947 1.9703469348621574
      vertex 0.31946613493551235 1.3541983492641254 1.8740089324715192
      vertex 0.26620952918184554 0.9984701992235527 1.8079325585357326
    endloop
  endfacet
  facet normal -0.16911560218968955 -0.2654270659451507 0.9491830096244703
    outer loop
      vertex 1.1730675698456674 1.591352906514558 2.180791114498565
      vertex 0.7178986385022676 1.5103194317357076 2.077033836526395
      vertex 1.1120761190999977 1.1302076315665874 2.040970824965893
    endloop
  endfacet
  facet normal -0.12294891694238405 -0.21932532329239324 0.9678739413711798
    outer loop
      vertex 1.1120761190999977 1.1302076315665874 2.040970824965893
      vertex 0.7178986385022676 1.5103194317357076 2.077033836526395
      vertex 0.6207397865923824 1.0939794714337947 1.9703469348621574
    endloop
  endfacet
  facet normal -0.01697924046335959 -0.3665623927488976 0.9302385272689421
    outer loop
      vertex 1.6471855776733515 1.6049218026210281 2.1947918361467007
      vertex 1.1730675698456674 1.591352906514558 2.180791114498565
      vertex 1.4710216138632293 1.2625122322764903 2.0566492007460773
    endloop
  endfacet
  facet normal 0.068148199414099 -0.297727222579727 0.9522154818377918
    outer loop
      vertex 1.1730675698456674 1.591352906514558 2.180791114498565
      vertex 1.1120761190999977 1.1302076315665874 2.040970824965893
      vertex 1.4710216138632293 1.2625122322764903 2.0566492007460773
    endloop
  endfacet
  facet normal 0.11635528935370339 -0.4225022288766735 0.8988622326216955
    outer loop
      vertex 1.8350863227552854 1.2201629361892574 1.989616095618186
      vertex 1.6471855776733515 1.6049218026210281 2.1947918361467007
      vertex 1.4710216138632293 1.2625122322764903 2.0566492007460773
    endloop
  endfacet
  facet normal -0.0029221469046198066 -0.6414992888866468 0.7671180635439335
    outer loop
      vertex 3.1707239056415695 1.3396264357954104 1.9567685787090492
      vertex 2.6500204934889324 1.469742985432919 2.0635945108507263
      vertex 2.7584124678471733 1.046194970392386 1.7098171380018423
    endloop
  endfacet
  facet normal 0.18458003156832134 -0.6017935109556373 0.7770294602638468
    outer loop
      vertex 2.7584124678471733 1.046194970392386 1.7098171380018423
      vertex 2.6500204934889324 1.469742985432919 2.0635945108507263
      vertex 2.260952745186682 1.0486490584245955 1.8298872129949568
    endloop
  endfacet
  facet normal -0.06301085358621016 -0.7117308012321667 0.6996205392266263
    outer loop
      vertex 3.6868143906188893 1.1907741417999846 1.8518210301913456
      vertex 3.1707239056415695 1.3396264357954104 1.9567685787090492
      vertex 3.185029980594231 0.9296878780679095 1.5410225509056852
    endloop
  endfacet
  facet normal 0.08401689555227067 -0.7080980930776087 0.7010978903417218
    outer loop
      vertex 3.185029980594231 0.9296878780679095 1.5410225509056852
      vertex 3.1707239056415695 1.3396264357954104 1.9567685787090492
      vertex 2.7584124678471733 1.046194970392386 1.7098171380018423
    endloop
  endfacet
  facet normal 0.0308776903385695 -0.7893147807754216 0.6132118272577624
    outer loop
      vertex 3.6868143906188893 1.1907741417999846 1.8518210301913456
      vertex 3.185029980594231 0.9296878780679095 1.5410225509056852
      vertex 3.5737843272849137 0.8186788323178807 1.3785584357064142
    endloop
  endfacet
  facet normal 0.026758253493678375 -0.7889334012403414 0.6138958252646084
    outer loop
      vertex 4.011165261671919 0.8837532493360765 1.443122861143228
      vertex 3.6868143906188893 1.1907741417999846 1.8518210301913456
      vertex 3.5737843272849137 0.8186788323178807 1.3785584357064142
    endloop
  endfacet
  facet normal 0.006310777630521482 -0.9375426073875016 0.3478132162795759
    outer loop
      vertex 4.96953650611179 0.5950883601383119 0.9735095858087363
      vertex 5.0 0.7857477391280789 1.4868858308955335
      vertex 4.652516618098108 0.6412978694007627 1.1038209819728495
    endloop
  endfacet
  facet normal -0.10135174082504521 -0.8970272996370267 0.43019745273262244
    outer loop
      vertex 5.0 0.7857477391280789 1.4868858308955335
      vertex 4.550287882703824 0.8330744032392539 1.4796198737640966
      vertex 4.652516618098108 0.6412978694007627 1.1038209819728495
    endloop
  endfacet
  facet normal 0.03186213768464876 -0.9150810948825826 0.40200919637572763
    outer loop
      vertex 4.897227908210789 0.37432757777509135 0.476729627214675
      vertex 4.96953650611179 0.5950883601383119 0.9735095858087363
      vertex 4.652516618098108 0.6412978694007627 1.1038209819728495
    endloop
  endfacet
  facet normal 0.2538002656043666 -0.7553599675870978 0.604166156405646
    outer loop
      vertex 4.324554721923381 0.015831366598867972 0.2690895958427458
      vertex 4.897227908210789 0.37432757777509135 0.476729627214675
      vertex 4.3197186524581115 0.3731449461702205 0.7178531797072051
    endloop
  endfacet
  facet normal 0.18797143927822887 -0.8751158035883944 0.44591374538750195
    outer loop
      vertex 4.3197186524581115 0.3731449461702205 0.7178531797072051
      vertex 4.897227908210789 0.37432757777509135 0.476729627214675
      vertex 4.652516618098108 0.6412978694007627 1.1038209819728495
    endloop
  endfacet
  facet normal 0.4265381339985269 -0.7053301777140507 0.5661930418602126
    outer loop
      vertex 3.882635286691311 0.0 0.5822851626450569
      vertex 4.324554721923381 0.015831366598867972 0.2690895958427458
      vertex 4.3197186524581115 0.3731449461702205 0.7178531797072051
    endloop
  endfacet
  facet normal 0.48257390275192136 -0.5425982231733681 0.6875387964267057
    outer loop
      vertex 3.444225582065386 0.01358292997432278 0.9007183288504566
      vertex 3.882635286691311 0.0 0.5822851626450569
      vertex 3.8450680217453517 0.374162712877585 0.9039382911596268
    endloop
  endfacet
  facet normal 0.288863723176968 -0.6072590545857379 0.7401311978669564
    outer loop
      vertex 3.8450680217453517 0.374162712877585 0.9039382911596268
      vertex 3.882635286691311 0.0 0.5822851626450569
      vertex 4.3197186524581115 0.3731449461702205 0.7178531797072051
    endloop
  endfacet
  facet normal 0.5069558237807923 -0.3823190211067848 0.7725464120910072
    outer loop
      vertex 2.9981819054204593 0.04174695595494063 1.2073563232434352
      vertex 3.444225582065386 0.01358292997432278 0.9007183288504566
      vertex 3.3613689878574613 0.4698236612914521 1.180875144507328
    endloop
  endfacet
  facet normal 0.3821870387277921 -0.43215643408565835 0.8168071277277453
    outer loop
      vertex 3.444225582065386 0.01358292997432278 0.9007183288504566
      vertex 3.8450680217453517 0.374162712877585 0.9039382911596268
      vertex 3.3613689878574613 0.4698236612914521 1.180875144507328
    endloop
  endfacet
  facet normal 0.4926870974532657 -0.23686208528116565 0.8373504502652006
    outer loop
      vertex 2.536463416582274 0.07680225435868832 1.4889421432684702
      vertex 2.9981819054204593 0.04174695595494063 1.2073563232434352
      vertex 2.8399814730148134 0.5169210484783601 1.4348525146220148
    endloop
  endfacet
  facet normal 0.3989290053416036 -0.28453234703790764 0.8717207076731964
    outer loop
      vertex 2.9981819054204593 0.04174695595494063 1.2073563232434352
      vertex 3.3613689878574613 0.4698236612914521 1.180875144507328
      vertex 2.8399814730148134 0.5169210484783601 1.4348525146220148
    endloop
  endfacet
  facet normal 0.430604871947593 -0.1401234345076494 0.8915968076192161
    outer loop
      vertex 2.0519212450336997 0.11289847973474364 1.7286291239520153
      vertex 2.536463416582274 0.07680225435868832 1.4889421432684702
      vertex 2.351130184626212 0.5582090363503664 1.654108464012987
    endloop
  endfacet
  facet normal 0.3927448944637757 -0.1595387468456256 0.9057035034312084
    outer loop
      vertex 2.351130184626212 0.5582090363503664 1.654108464012987
      vertex 2.536463416582274 0.07680225435868832 1.4889421432684702
      vertex 2.8399814730148134 0.5169210484783601 1.4348525146220148
    endloop
  endfacet
  facet normal 0.31145968951353165 -0.0843118005014915 0.9465116914778872
    outer loop
      vertex 1.5392692246697501 0.14341877237197379 1.9000413329885353
      vertex 2.0519212450336997 0.11289847973474364 1.7286291239520153
      vertex 1.8481727275915367 0.6325142047468391 1.8419601987732312
    endloop
  endfacet
  facet normal 0.33973026036314763 -0.07132954402825978 0.937814185402582
    outer loop
      vertex 2.0519212450336997 0.11289847973474364 1.7286291239520153
      vertex 2.351130184626212 0.5582090363503664 1.654108464012987
      vertex 1.8481727275915367 0.6325142047468391 1.8419601987732312
    endloop
  endfacet
  facet normal 0.11150653051737408 -0.0609414534751886 0.9918933576248554
    outer loop
      vertex 1.0024086337304707 0.1590923787316135 1.9613570316494622
      vertex 1.5392692246697501 0.14341877237197379 1.9000413329885353
      vertex 1.3333767710902282 0.6169466954263275 1.9522806515121087
    endloop
  endfacet
  facet normal 0.20999135366912358 -0.016538851569702598 0.9775633471918659
    outer loop
      vertex 1.3333767710902282 0.6169466954263275 1.9522806515121087
      vertex 1.5392692246697501 0.14341877237197379 1.9000413329885353
      vertex 1.8481727275915367 0.6325142047468391 1.8419601987732312
    endloop
  endfacet
  facet normal -0.17731483278226062 -0.08402393360250893 0.9805607725466892
    outer loop
      vertex 0.47172933911020637 0.14880487310303542 1.864512746486148
      vertex 1.0024086337304707 0.1590923787316135 1.9613570316494622
      vertex 0.7463500713889614 0.44181664234187074 1.9392805046082853
    endloop
  endfacet
  facet normal 0.06715024314206544 -0.028769987302690637 0.9973279965370292
    outer loop
      vertex 1.0024086337304707 0.1590923787316135 1.9613570316494622
      vertex 1.3333767710902282 0.6169466954263275 1.9522806515121087
      vertex 0.9685136460494257 0.7504337124405553 1.9806976491729027
    endloop
  endfacet
  facet normal -0.12939180465956765 -0.03982182977663037 0.9907936125955704
    outer loop
      vertex 1.0024086337304707 0.1590923787316135 1.9613570316494622
      vertex 0.9685136460494257 0.7504337124405553 1.9806976491729027
      vertex 0.7463500713889614 0.44181664234187074 1.9392805046082853
    endloop
  endfacet
  facet normal -0.2310997177380482 -0.03153729903721914 0.9724187982710082
    outer loop
      vertex 0.47362165334643336 0.7107901399566043 1.8831886613629754
      vertex 0.47172933911020637 0.14880487310303542 1.864512746486148
      vertex 0.7463500713889614 0.44181664234187074 1.9392805046082853
    endloop
  endfacet
  facet normal 0.2339751058499435 -0.7642469181207484 0.6009844407182651
    outer loop
      vertex 3.8450680217453517 0.374162712877585 0.9039382911596268
      vertex 4.3197186524581115 0.3731449461702205 0.7178531797072051
      vertex 4.200537011064125 0.6485306626820143 1.1144495075826475
    endloop
  endfacet
  facet normal 0.2766433279080644 -0.6500621634824496 0.7077341681256232
    outer loop
      vertex 3.3613689878574613 0.4698236612914521 1.180875144507328
      vertex 3.8450680217453517 0.374162712877585 0.9039382911596268
      vertex 3.7999855614238793 0.6611718901008796 1.1851816979402605
    endloop
  endfacet
  facet normal 0.10517797759508227 -0.6875369476608705 0.7184918500791653
    outer loop
      vertex 3.8450680217453517 0.374162712877585 0.9039382911596268
      vertex 4.200537011064125 0.6485306626820143 1.1144495075826475
      vertex 3.7999855614238793 0.6611718901008796 1.1851816979402605
    endloop
  endfacet
  facet normal 0.25923093835603683 -0.22992622566520993 0.9380475741402456
    outer loop
      vertex 1.8350863227552854 1.2201629361892574 1.989616095618186
      vertex 1.8481727275915367 0.6325142047468391 1.8419601987732312
      vertex 2.260952745186682 1.0486490584245955 1.8298872129949568
    endloop
  endfacet
  facet normal 0.14054091517827455 -0.23832701903820477 0.9609622693723289
    outer loop
      vertex 1.8481727275915367 0.6325142047468391 1.8419601987732312
      vertex 1.8350863227552854 1.2201629361892574 1.989616095618186
      vertex 1.5196004396475324 0.9587720977956715 1.9709287598581877
    endloop
  endfacet
  facet normal 0.14765516043017368 -0.24668610834306157 0.9577807251917816
    outer loop
      vertex 1.8350863227552854 1.2201629361892574 1.989616095618186
      vertex 1.4710216138632293 1.2625122322764903 2.0566492007460773
      vertex 1.5196004396475324 0.9587720977956715 1.9709287598581877
    endloop
  endfacet
  facet normal -0.17930828293776696 -0.15223131922661642 0.9719434989321312
    outer loop
      vertex 0.6207397865923824 1.0939794714337947 1.9703469348621574
      vertex 0.47362165334643336 0.7107901399566043 1.8831886613629754
      vertex 0.9685136460494257 0.7504337124405553 1.9806976491729027
    endloop
  endfacet
  facet normal -0.4041826366159095 -0.052526581553840684 0.9131688532185488
    outer loop
      vertex 0.47362165334643336 0.7107901399566043 1.8831886613629754
      vertex 0.6207397865923824 1.0939794714337947 1.9703469348621574
      vertex 0.26620952918184554 0.9984701992235527 1.8079325585357326
    endloop
  endfacet
  facet normal -0.19392089421457784 0.007946943073666996 0.9809849809669883
    outer loop
      vertex 0.9685136460494257 0.7504337124405553 1.9806976491729027
      vertex 0.47362165334643336 0.7107901399566043 1.8831886613629754
      vertex 0.7463500713889614 0.44181664234187074 1.9392805046082853
    endloop
  endfacet
  facet normal -0.11488683280133669 -0.8379559966276312 0.5335079787263457
    outer loop
      vertex 4.550287882703824 0.8330744032392539 1.4796198737640966
      vertex 4.011165261671919 0.8837532493360765 1.443122861143228
      vertex 4.200537011064125 0.6485306626820143 1.1144495075826475
    endloop
  endfacet
  facet normal -0.0035892916543669444 -0.8911104238161186 0.45377233228974795
    outer loop
      vertex 4.550287882703824 0.8330744032392539 1.4796198737640966
      vertex 4.200537011064125 0.6485306626820143 1.1144495075826475
      vertex 4.652516618098108 0.6412978694007627 1.1038209819728495
    endloop
  endfacet
  facet normal 0.34945779128402954 -0.38897392639761313 0.8523957629491782
    outer loop
      vertex 2.7584124678471733 1.046194970392386 1.7098171380018423
      vertex 2.351130184626212 0.5582090363503664 1.654108464012987
      vertex 2.8399814730148134 0.5169210484783601 1.4348525146220148
    endloop
  endfacet
  facet normal 0.22301882268889023 -0.2923001913986678 0.929958710284905
    outer loop
      vertex 2.351130184626212 0.5582090363503664 1.654108464012987
      vertex 2.7584124678471733 1.046194970392386 1.7098171380018423
      vertex 2.260952745186682 1.0486490584245955 1.8298872129949568
    endloop
  endfacet
  facet normal 0.3011290808723305 -0.27218680816565777 0.9139122595269071
    outer loop
      vertex 1.8481727275915367 0.6325142047468391 1.8419601987732312
      vertex 2.351130184626212 0.5582090363503664 1.654108464012987
      vertex 2.260952745186682 1.0486490584245955 1.8298872129949568
    endloop
  endfacet
  facet normal 0.34448219204023817 -0.4933993975874808 0.7986795689307843
    outer loop
      vertex 3.3613689878574613 0.4698236612914521 1.180875144507328
      vertex 3.185029980594231 0.9296878780679095 1.5410225509056852
      vertex 2.8399814730148134 0.5169210484783601 1.4348525146220148
    endloop
  endfacet
  facet normal 0.17598040003328905 -0.5642434045017013 0.8066351587182727
    outer loop
      vertex 3.185029980594231 0.9296878780679095 1.5410225509056852
      vertex 3.3613689878574613 0.4698236612914521 1.180875144507328
      vertex 3.5737843272849137 0.8186788323178807 1.3785584357064142
    endloop
  endfacet
  facet normal 0.2324209704480451 -0.41994151618481 0.8772853671869787
    outer loop
      vertex 3.185029980594231 0.9296878780679095 1.5410225509056852
      vertex 2.7584124678471733 1.046194970392386 1.7098171380018423
      vertex 2.8399814730148134 0.5169210484783601 1.4348525146220148
    endloop
  endfacet
  facet normal 0.017176168963227264 -0.16305331536506462 0.9864677367092182
    outer loop
      vertex 1.3333767710902282 0.6169466954263275 1.9522806515121087
      vertex 1.1120761190999977 1.1302076315665874 2.040970824965893
      vertex 0.9685136460494257 0.7504337124405553 1.9806976491729027
    endloop
  endfacet
  facet normal 0.11942398560363834 -0.11883587701109091 0.985705811080338
    outer loop
      vertex 1.1120761190999977 1.1302076315665874 2.040970824965893
      vertex 1.3333767710902282 0.6169466954263275 1.9522806515121087
      vertex 1.5196004396475324 0.9587720977956715 1.9709287598581877
    endloop
  endfacet
  facet normal 0.05488851625462268 -0.2630571665404449 0.9632176171120825
    outer loop
      vertex 1.4710216138632293 1.2625122322764903 2.0566492007460773
      vertex 1.1120761190999977 1.1302076315665874 2.040970824965893
      vertex 1.5196004396475324 0.9587720977956715 1.9709287598581877
    endloop
  endfacet
  facet normal -0.13383101078499016 -0.10579068228172712 0.9853413581569763
    outer loop
      vertex 1.1120761190999977 1.1302076315665874 2.040970824965893
      vertex 0.6207397865923824 1.0939794714337947 1.9703469348621574
      vertex 0.9685136460494257 0.7504337124405553 1.9806976491729027
    endloop
  endfacet
  facet normal 0.00026970697926907033 -0.8213595194540305 0.5704107879943975
    outer loop
      vertex 4.200537011064125 0.6485306626820143 1.1144495075826475
      vertex 4.3197186524581115 0.3731449461702205 0.7178531797072051
      vertex 4.652516618098108 0.6412978694007627 1.1038209819728495
    endloop
  endfacet
  facet normal 0.08308683076016651 -0.787112799891675 0.6111873843600828
    outer loop
      vertex 4.200537011064125 0.6485306626820143 1.1144495075826475
      vertex 4.011165261671919 0.8837532493360765 1.443122861143228
      vertex 3.7999855614238793 0.6611718901008796 1.1851816979402605
    endloop
  endfacet
  facet normal 0.018609721571478874 -0.7644474774076645 0.6444173589748263
    outer loop
      vertex 4.011165261671919 0.8837532493360765 1.443122861143228
      vertex 3.5737843272849137 0.8186788323178807 1.3785584357064142
      vertex 3.7999855614238793 0.6611718901008796 1.1851816979402605
    endloop
  endfacet
  facet normal 0.24885037089818665 -0.5877512750337515 0.769819414927965
    outer loop
      vertex 3.5737843272849137 0.8186788323178807 1.3785584357064142
      vertex 3.3613689878574613 0.4698236612914521 1.180875144507328
      vertex 3.7999855614238793 0.6611718901008796 1.1851816979402605
    endloop
  endfacet
  facet normal 0.21142026677473377 -0.16771048583758227 0.962899093226815
    outer loop
      vertex 1.3333767710902282 0.6169466954263275 1.9522806515121087
      vertex 1.8481727275915367 0.6325142047468391 1.8419601987732312
      vertex 1.5196004396475324 0.9587720977956715 1.9709287598581877
    endloop
  endfacet
  facet normal -0.6059742283673089 -0.10315028268030829 0.7887681875796065
    outer loop
      vertex 0.0006489509410259869 1.134163418911435 1.600301567333989
      vertex 0.31946613493551235 1.3541983492641254 1.8740089324715192
      vertex 0.13840033309334146 1.414517834427687 1.7427926394731155
    endloop
  endfacet
  facet normal -0.7190383153814782 7.647619204805995e-05 0.6949704275469265
    outer loop
      vertex 0.00031547631318136124 1.3207199388689637 1.5999360148488673
      vertex 0.0006489509410259869 1.134163418911435 1.600301567333989
      vertex 0.13840033309334146 1.414517834427687 1.7427926394731155
    endloop
  endfacet
  facet normal 0.021935907272038577 -0.6086901836457017 0.7931047070251912
    outer loop
      vertex 2.1184896191510987 1.5651391526017226 2.151224082745561
      vertex 1.8663282863703876 1.8881628461084443 2.4061119142580396
      vertex 1.6471855776733515 1.6049218026210281 2.1947918361467007
    endloop
  endfacet
  facet normal -0.016721842670871137 -0.7253352617368456 0.6881926605673968
    outer loop
      vertex 2.4001015068265326 1.7738587040313256 2.378051145994162
      vertex 2.1184896191510987 1.5651391526017226 2.151224082745561
      vertex 2.6500204934889324 1.469742985432919 2.0635945108507263
    endloop
  endfacet
  facet normal -0.10342535342861141 -0.6646308942703546 0.7399790339256616
    outer loop
      vertex 2.4001015068265326 1.7738587040313256 2.378051145994162
      vertex 1.8663282863703876 1.8881628461084443 2.4061119142580396
      vertex 2.1184896191510987 1.5651391526017226 2.151224082745561
    endloop
  endfacet
  facet normal -0.20124489161207376 -0.8996141180613955 0.387549909282227
    outer loop
      vertex 4.20874874414827 1.0433643710468339 1.7806681596974219
      vertex 3.941606013256679 1.261958812171278 2.1493678600965302
      vertex 3.6868143906188893 1.1907741417999846 1.8518210301913456
    endloop
  endfacet
  facet normal -0.22250162887452185 -0.927430020009691 0.30061035100776023
    outer loop
      vertex 4.622721368348786 0.9516075956992043 1.8039926898537948
      vertex 4.462028448240603 1.0973538041981419 2.134703100385419
      vertex 4.20874874414827 1.0433643710468339 1.7806681596974219
    endloop
  endfacet
  facet normal -0.27560107257915406 -0.9011615044065717 0.33459227691162313
    outer loop
      vertex 4.462028448240603 1.0973538041981419 2.134703100385419
      vertex 3.941606013256679 1.261958812171278 2.1493678600965302
      vertex 4.20874874414827 1.0433643710468339 1.7806681596974219
    endloop
  endfacet
  facet normal -0.1272455479897092 -0.9596830292936425 0.250633305453558
    outer loop
      vertex 4.622721368348786 0.9516075956992043 1.8039926898537948
      vertex 4.985659733010428 0.9567256223441778 2.0078521662312507
      vertex 4.817161131195824 0.9995036626505559 2.0861045850372
    endloop
  endfacet
  facet normal -0.11549021491172655 -0.954953502323431 0.27336023606197046
    outer loop
      vertex 4.985659733010428 0.9567256223441778 2.0078521662312507
      vertex 4.972039586958275 1.004713284872135 2.169737425924483
      vertex 4.817161131195824 0.9995036626505559 2.0861045850372
    endloop
  endfacet
  facet normal -0.7190698946930364 0.0001727560801985031 0.6949377358450771
    outer loop
      vertex 0.0 1.5072764757321608 1.5995632069238144
      vertex 0.00031547631318136124 1.3207199388689637 1.5999360148488673
      vertex 0.13840033309334146 1.414517834427687 1.7427926394731155
    endloop
  endfacet
  facet normal -0.7099876541967984 0.027234187568686823 0.7036873097588169
    outer loop
      vertex 0.3516770937387264 1.7408148087114113 1.9453505540579679
      vertex 0.0 1.5072764757321608 1.5995632069238144
      vertex 0.13840033309334146 1.414517834427687 1.7427926394731155
    endloop
  endfacet
  facet normal -0.214253351638019 -0.928393848112129 0.30361219359477043
    outer loop
      vertex 4.954024633633949 1.0484604695285225 2.33238804802224
      vertex 4.462028448240603 1.0973538041981419 2.134703100385419
      vertex 4.817161131195824 0.9995036626505559 2.0861045850372
    endloop
  endfacet
  facet normal -0.10145522308727391 -0.9634588720651307 0.24789884942713528
    outer loop
      vertex 4.972039586958275 1.004713284872135 2.169737425924483
      vertex 4.954024633633949 1.0484604695285225 2.33238804802224
      vertex 4.817161131195824 0.9995036626505559 2.0861045850372
    endloop
  endfacet
  facet normal -0.40824759078884343 -0.13264938300280368 0.9031821775279231
    outer loop
      vertex 0.31946613493551235 1.3541983492641254 1.8740089324715192
      vertex 0.7178986385022676 1.5103194317357076 2.077033836526395
      vertex 0.3516770937387264 1.7408148087114113 1.9453505540579679
    endloop
  endfacet
  facet normal -0.6047853393723818 -0.09550779287113088 0.7906408506908292
    outer loop
      vertex 0.31946613493551235 1.3541983492641254 1.8740089324715192
      vertex 0.3516770937387264 1.7408148087114113 1.9453505540579679
      vertex 0.13840033309334146 1.414517834427687 1.7427926394731155
    endloop
  endfacet
  facet normal -0.1627917181612169 -0.29224557277572827 0.942386004613346
    outer loop
      vertex 0.8029428757070742 1.8925182976058608 2.2102493377649193
      vertex 0.7178986385022676 1.5103194317357076 2.077033836526395
      vertex 1.1730675698456674 1.591352906514558 2.180791114498565
    endloop
  endfacet
  facet normal -0.443119982902017 -0.20553852275977139 0.8725815700635944
    outer loop
      vertex 0.8029428757070742 1.8925182976058608 2.2102493377649193
      vertex 0.3516770937387264 1.7408148087114113 1.9453505540579679
      vertex 0.7178986385022676 1.5103194317357076 2.077033836526395
    endloop
  endfacet
  facet normal -0.013155141432725321 -0.4576614700104731 0.8890292015011306
    outer loop
      vertex 1.3245241341077458 1.9378780613605748 2.3614192018719278
      vertex 1.1730675698456674 1.591352906514558 2.180791114498565
      vertex 1.6471855776733515 1.6049218026210281 2.1947918361467007
    endloop
  endfacet
  facet normal -0.22890391531320467 -0.36941167119686236 0.9006320085017113
    outer loop
      vertex 1.3245241341077458 1.9378780613605748 2.3614192018719278
      vertex 0.8029428757070742 1.8925182976058608 2.2102493377649193
      vertex 1.1730675698456674 1.591352906514558 2.180791114498565
    endloop
  endfacet
  facet normal -0.11804019232295222 -0.5335206218347166 0.8375095576012598
    outer loop
      vertex 1.8663282863703876 1.8881628461084443 2.4061119142580396
      vertex 1.3245241341077458 1.9378780613605748 2.3614192018719278
      vertex 1.6471855776733515 1.6049218026210281 2.1947918361467007
    endloop
  endfacet
  facet normal -0.08164552844685537 -0.8069619346307726 0.584932854045312
    outer loop
      vertex 2.9203920131237604 1.6201926764681924 2.3088906988622075
      vertex 2.6500204934889324 1.469742985432919 2.0635945108507263
      vertex 3.1707239056415695 1.3396264357954104 1.9567685787090492
    endloop
  endfacet
  facet normal -0.14280851511924555 -0.7657561790067322 0.6270751169696065
    outer loop
      vertex 2.9203920131237604 1.6201926764681924 2.3088906988622075
      vertex 2.4001015068265326 1.7738587040313256 2.378051145994162
      vertex 2.6500204934889324 1.469742985432919 2.0635945108507263
    endloop
  endfacet
  facet normal -0.1499065950409423 -0.8616244972713707 0.48490332898948907
    outer loop
      vertex 3.4314264629937914 1.444580490092415 2.22385690171826
      vertex 3.1707239056415695 1.3396264357954104 1.9567685787090492
      vertex 3.6868143906188893 1.1907741417999846 1.8518210301913456
    endloop
  endfacet
  facet normal -0.19879488419557387 -0.8304721320495939 0.5203812370816902
    outer loop
      vertex 3.4314264629937914 1.444580490092415 2.22385690171826
      vertex 2.9203920131237604 1.6201926764681924 2.3088906988622075
      vertex 3.1707239056415695 1.3396264357954104 1.9567685787090492
    endloop
  endfacet
  facet normal -0.25012342060922355 -0.8711238769066381 0.4225890031057244
    outer loop
      vertex 3.941606013256679 1.261958812171278 2.1493678600965302
      vertex 3.4314264629937914 1.444580490092415 2.22385690171826
      vertex 3.6868143906188893 1.1907741417999846 1.8518210301913456
    endloop
  endfacet
  facet normal -0.2139534241848758 -0.9280026819935758 0.3050163184032893
    outer loop
      vertex 4.462028448240603 1.0973538041981419 2.134703100385419
      vertex 4.622721368348786 0.9516075956992043 1.8039926898537948
      vertex 4.817161131195824 0.9995036626505559 2.0861045850372
    endloop
  endfacet
  facet normal 0.9961774577094267 -0.010002520502284002 0.08677800605674751
    outer loop
      vertex 4.972039586958275 1.004713284872135 2.169737425924483
      vertex 4.985659733010428 0.9567256223441778 2.0078521662312507
      vertex 4.986571565670162 0.9817000966248475 2.0002633833157626
    endloop
  endfacet
  facet normal 0.9937777871001194 0.0007867149183597101 0.1113781439333008
    outer loop
      vertex 4.954024633633949 1.0484604695285225 2.33238804802224
      vertex 4.973042451091252 1.0298862064314807 2.162831694940746
      vertex 4.954705940751446 1.0738084106426924 2.3261300026071243
    endloop
  endfacet
  facet normal 0.9936239117743894 -0.008748608141226378 0.11240544384393523
    outer loop
      vertex 4.972039586958275 1.004713284872135 2.169737425924483
      vertex 4.973042451091252 1.0298862064314807 2.162831694940746
      vertex 4.954024633633949 1.0484604695285225 2.33238804802224
    endloop
  endfacet
  facet normal 0.9960382016249748 -0.015667455817446746 0.0875353170548578
    outer loop
      vertex 4.972039586958275 1.004713284872135 2.169737425924483
      vertex 4.986571565670162 0.9817000966248475 2.0002633833157626
      vertex 4.973042451091252 1.0298862064314807 2.162831694940746
    endloop
  endfacet
  facet normal 0.9990285485339793 -0.025569165445459438 0.03589118265693506
    outer loop
      vertex 4.986571565670162 0.9817000966248475 2.0002633833157626
      vertex 4.985659733010428 0.9567256223441778 2.0078521662312507
      vertex 5.0 0.7857477391280789 1.4868858308955335
    endloop
  endfacet
  facet normal 0.8842795932124355 0.27977652557066457 -0.37386454334111013
    outer loop
      vertex 4.890047416601445 0.39689841563581035 0.46568149456979735
      vertex 4.789892953204112 0.10580627466271601 0.010957185988679487
      vertex 4.778655449146244 0.126682194002768 0.0
    endloop
  endfacet
  facet normal 0.9407941615118404 0.15065960303852102 -0.30365775089318664
    outer loop
      vertex 4.897227908210789 0.37432757777509135 0.476729627214675
      vertex 4.789892953204112 0.10580627466271601 0.010957185988679487
      vertex 4.890047416601445 0.39689841563581035 0.46568149456979735
    endloop
  endfacet
  facet normal 0.9990055243112019 0.04356191986686149 0.009503764160237106
    outer loop
      vertex 4.999019960400124 0.8102113474219242 1.4777718873705323
      vertex 4.986571565670162 0.9817000966248475 2.0002633833157626
      vertex 5.0 0.7857477391280789 1.4868858308955335
    endloop
  endfacet
  facet normal 0.9977578658956159 0.015736569110127187 -0.06505076045726325
    outer loop
      vertex 4.999019960400124 0.8102113474219242 1.4777718873705323
      vertex 5.0 0.7857477391280789 1.4868858308955335
      vertex 4.96953650611179 0.5950883601383119 0.9735095858087363
    endloop
  endfacet
  facet normal 0.9810327050521909 0.07800096422678568 -0.17745613879962793
    outer loop
      vertex 4.965780651068196 0.618803055400406 0.9631698615882904
      vertex 4.96953650611179 0.5950883601383119 0.9735095858087363
      vertex 4.897227908210789 0.37432757777509135 0.476729627214675
    endloop
  endfacet
  facet normal 0.9882858363830351 0.11073111458143615 -0.10502250172338065
    outer loop
      vertex 4.999019960400124 0.8102113474219242 1.4777718873705323
      vertex 4.96953650611179 0.5950883601383119 0.9735095858087363
      vertex 4.965780651068196 0.618803055400406 0.9631698615882904
    endloop
  endfacet
  facet normal 0.9542140688654407 0.19080291586259515 -0.2303687437079764
    outer loop
      vertex 4.897227908210789 0.37432757777509135 0.476729627214675
      vertex 4.890047416601445 0.39689841563581035 0.46568149456979735
      vertex 4.965780651068196 0.618803055400406 0.9631698615882904
    endloop
  endfacet
  facet normal -0.6879656498575588 0.002651821377312662 -0.7257384049776131
    outer loop
      vertex 0.019603790819182367 1.134163418911435 1.5823332764935394
      vertex 0.0006489509410259869 1.134163418911435 1.600301567333989
      vertex 0.019937265448357434 1.3207199388689603 1.5826988289789934
    endloop
  endfacet
  facet normal -0.6599782324781627 -0.00265184128476543 -0.7512800412581188
    outer loop
      vertex 0.019937265448357434 1.3207199388689603 1.5826988289789934
      vertex 0.0006489509410259869 1.134163418911435 1.600301567333989
      vertex 0.00031547631318136124 1.3207199388689637 1.5999360148488673
    endloop
  endfacet
  facet normal -0.6314253713201506 -0.0026173675747607887 -0.7754322342024406
    outer loop
      vertex 0.0 1.5072764757321608 1.5995632069238144
      vertex 0.020252741760208248 1.5072764757321608 1.5830716369037163
      vertex 0.00031547631318136124 1.3207199388689637 1.5999360148488673
    endloop
  endfacet
  facet normal -0.6599782923868908 0.002617387223655896 -0.7512801094546593
    outer loop
      vertex 0.00031547631318136124 1.3207199388689637 1.5999360148488673
      vertex 0.020252741760208248 1.5072764757321608 1.5830716369037163
      vertex 0.019937265448357434 1.3207199388689603 1.5826988289789934
    endloop
  endfacet
  facet normal 0.7181016321307196 8.004694422657122e-05 -0.6959382440444578
    outer loop
      vertex 0.019937265448357434 1.3207199388689603 1.5826988289789934
      vertex 0.15823593479142664 1.4134797826960874 1.7254125340652529
      vertex 0.019603790819182367 1.134163418911435 1.5823332764935394
    endloop
  endfacet
  facet normal 0.5684192453702355 0.13372104096901044 -0.8117993869761766
    outer loop
      vertex 0.019603790819182367 1.134163418911435 1.5823332764935394
      vertex 0.15823593479142664 1.4134797826960874 1.7254125340652529
      vertex 0.4253894422213415 1.4039659700921925 1.9109054040799058
    endloop
  endfacet
  facet normal 0.11669517655673795 0.9548233330826278 -0.2733031986080164
    outer loop
      vertex 4.986571565670162 0.9817000966248475 2.0002633833157626
      vertex 4.8187907571008015 1.0247116942125665 2.0788913174216552
      vertex 4.973042451091252 1.0298862064314807 2.162831694940746
    endloop
  endfacet
  facet normal 0.1279861160917602 0.9593140899537631 -0.25166650731460066
    outer loop
      vertex 4.626612763613314 0.9758532813557873 1.7949175792645982
      vertex 4.8187907571008015 1.0247116942125665 2.0788913174216552
      vertex 4.986571565670162 0.9817000966248475 2.0002633833157626
    endloop
  endfacet
  facet normal 0.10243538856298998 0.9634245151634475 -0.24762914762205485
    outer loop
      vertex 4.973042451091252 1.0298862064314807 2.162831694940746
      vertex 4.8187907571008015 1.0247116942125665 2.0788913174216552
      vertex 4.954705940751446 1.0738084106426924 2.3261300026071243
    endloop
  endfacet
  facet normal 0.215176538201525 0.928488305521657 -0.3026690005883157
    outer loop
      vertex 4.954705940751446 1.0738084106426924 2.3261300026071243
      vertex 4.8187907571008015 1.0247116942125665 2.0788913174216552
      vertex 4.465567706521947 1.122666682193893 2.128267855959091
    endloop
  endfacet
  facet normal 0.7180702875176019 0.0001765104433757351 -0.6959705676452503
    outer loop
      vertex 0.020252741760208248 1.5072764757321608 1.5830716369037163
      vertex 0.15823593479142664 1.4134797826960874 1.7254125340652529
      vertex 0.019937265448357434 1.3207199388689603 1.5826988289789934
    endloop
  endfacet
  facet normal 0.7095251831350178 -0.02494116183046009 -0.7042385625225066
    outer loop
      vertex 0.3688783958730031 1.7449670470204808 1.9258963768769037
      vertex 0.15823593479142664 1.4134797826960874 1.7254125340652529
      vertex 0.020252741760208248 1.5072764757321608 1.5830716369037163
    endloop
  endfacet
  facet normal 0.22220631593456797 0.9273511529011064 -0.30107173957675903
    outer loop
      vertex 4.465567706521947 1.122666682193893 2.128267855959091
      vertex 4.626612763613314 0.9758532813557873 1.7949175792645982
      vertex 4.214010037214681 1.0666601365282542 1.7700959538520198
    endloop
  endfacet
  facet normal 0.20078293204980607 0.8996085455533537 -0.3878023710150091
    outer loop
      vertex 4.214010037214681 1.0666601365282542 1.7700959538520198
      vertex 3.6908435078393786 1.213009100075938 1.8387233540724488
      vertex 3.946941122976671 1.286438419519898 2.141655161881419
    endloop
  endfacet
  facet normal 0.2758930962607844 0.9010452828560781 -0.3346646047589254
    outer loop
      vertex 4.465567706521947 1.122666682193893 2.128267855959091
      vertex 4.214010037214681 1.0666601365282542 1.7700959538520198
      vertex 3.946941122976671 1.286438419519898 2.141655161881419
    endloop
  endfacet
  facet normal 0.01653030954911649 0.7264283254260177 -0.687043402475391
    outer loop
      vertex 2.4086546562470845 1.792323680443454 2.360851869325421
      vertex 2.6509270713136557 1.488525437863122 2.0454674120581866
      vertex 2.1179406646833088 1.5812164045372348 2.130648221895335
    endloop
  endfacet
  facet normal -0.02004992918710102 0.611748293726736 -0.7907983469014205
    outer loop
      vertex 2.1179406646833088 1.5812164045372348 2.130648221895335
      vertex 1.531735412204218 1.6191480827833729 2.174854198530914
      vertex 1.8762379111094925 1.9037328402019154 2.3862696494087365
    endloop
  endfacet
  facet normal 0.10368206700101266 0.6643612881576374 -0.7401851847881868
    outer loop
      vertex 2.4086546562470845 1.792323680443454 2.360851869325421
      vertex 2.1179406646833088 1.5812164045372348 2.130648221895335
      vertex 1.8762379111094925 1.9037328402019154 2.3862696494087365
    endloop
  endfacet
  facet normal 0.21468683400274 0.9278618551284253 -0.3049294034748321
    outer loop
      vertex 4.465567706521947 1.122666682193893 2.128267855959091
      vertex 4.8187907571008015 1.0247116942125665 2.0788913174216552
      vertex 4.626612763613314 0.9758532813557873 1.7949175792645982
    endloop
  endfacet
  facet normal 0.0813708520722089 0.8074687874806733 -0.5842712911632182
    outer loop
      vertex 2.9279347737609323 1.6411334186319038 2.2949517460903057
      vertex 3.173234190571079 1.3604191490866613 1.9411644020501246
      vertex 2.6509270713136557 1.488525437863122 2.0454674120581866
    endloop
  endfacet
  facet normal 0.1432629420702479 0.7654808240182754 -0.6273076099408318
    outer loop
      vertex 2.9279347737609323 1.6411334186319038 2.2949517460903057
      vertex 2.6509270713136557 1.488525437863122 2.0454674120581866
      vertex 2.4086546562470845 1.792323680443454 2.360851869325421
    endloop
  endfacet
  facet normal 0.14949937439531755 0.86179763231425 -0.4847213405586364
    outer loop
      vertex 3.4380015140534748 1.4675301029467955 2.213259943584407
      vertex 3.6908435078393786 1.213009100075938 1.8387233540724488
      vertex 3.173234190571079 1.3604191490866613 1.9411644020501246
    endloop
  endfacet
  facet normal 0.19918376112157735 0.8302188849296324 -0.5206365646126484
    outer loop
      vertex 3.4380015140534748 1.4675301029467955 2.213259943584407
      vertex 3.173234190571079 1.3604191490866613 1.9411644020501246
      vertex 2.9279347737609323 1.6411334186319038 2.2949517460903057
    endloop
  endfacet
  facet normal 0.25041101378632963 0.8709352069858107 -0.42280750869288675
    outer loop
      vertex 3.946941122976671 1.286438419519898 2.141655161881419
      vertex 3.6908435078393786 1.213009100075938 1.8387233540724488
      vertex 3.4380015140534748 1.4675301029467955 2.213259943584407
    endloop
  endfacet
  facet normal 0.267621898835787 0.3003191784686412 -0.9155254831556838
    outer loop
      vertex 0.4253894422213415 1.4039659700921925 1.9109054040799058
      vertex 0.625040331299655 1.6372152111858136 2.045778952413529
      vertex 0.9489360857789563 1.568369443061848 2.117875134910881
    endloop
  endfacet
  facet normal 0.5686154055338606 0.1299405163952032 -0.8122758046307369
    outer loop
      vertex 0.4253894422213415 1.4039659700921925 1.9109054040799058
      vertex 0.15823593479142664 1.4134797826960874 1.7254125340652529
      vertex 0.3688783958730031 1.7449670470204808 1.9258963768769037
    endloop
  endfacet
  facet normal 0.4603292523341388 0.11498436971707039 -0.8802701711214921
    outer loop
      vertex 0.3688783958730031 1.7449670470204808 1.9258963768769037
      vertex 0.625040331299655 1.6372152111858136 2.045778952413529
      vertex 0.4253894422213415 1.4039659700921925 1.9109054040799058
    endloop
  endfacet
  facet normal 0.045563485597759974 0.46760824751797075 -0.8827607238846521
    outer loop
      vertex 1.3363199558596264 1.95008791019995 2.3400704110959922
      vertex 1.531735412204218 1.6191480827833729 2.174854198530914
      vertex 0.9489360857789563 1.568369443061848 2.117875134910881
    endloop
  endfacet
  facet normal 0.24124002381501147 0.29360633939996156 -0.9249857125241919
    outer loop
      vertex 1.3363199558596264 1.95008791019995 2.3400704110959922
      vertex 0.9489360857789563 1.568369443061848 2.117875134910881
      vertex 0.8171592953185627 1.901031670227793 2.189099913644074
    endloop
  endfacet
  facet normal 0.2678400034720568 0.30198670717988724 -0.9149129801389516
    outer loop
      vertex 0.9489360857789563 1.568369443061848 2.117875134910881
      vertex 0.625040331299655 1.6372152111858136 2.045778952413529
      vertex 0.8171592953185627 1.901031670227793 2.189099913644074
    endloop
  endfacet
  facet normal 0.11627879853516694 0.4977480437239599 -0.8594917835443158
    outer loop
      vertex 1.8762379111094925 1.9037328402019154 2.3862696494087365
      vertex 1.531735412204218 1.6191480827833729 2.174854198530914
      vertex 1.3363199558596264 1.95008791019995 2.3400704110959922
    endloop
  endfacet
  facet normal 0.46614793075720656 0.13549318480853198 -0.874269811626374
    outer loop
      vertex 0.8171592953185627 1.901031670227793 2.189099913644074
      vertex 0.625040331299655 1.6372152111858136 2.045778952413529
      vertex 0.3688783958730031 1.7449670470204808 1.9258963768769037
    endloop
  endfacet
  facet normal 0.5563272253733436 0.00042087055922975886 -0.8309632008557115
    outer loop
      vertex 0.019603790819182367 1.134163418911435 1.5823332764935394
      vertex 0.38120983908271894 0.8079504987087741 1.824262156000475
      vertex 0.018706264200609685 0.6211334545858741 1.5814725431895134
    endloop
  endfacet
  facet normal 0.5984728581431564 0.0716345555894463 -0.7979340376945102
    outer loop
      vertex 0.4253894422213415 1.4039659700921925 1.9109054040799058
      vertex 0.38120983908271894 0.8079504987087741 1.824262156000475
      vertex 0.019603790819182367 1.134163418911435 1.5823332764935394
    endloop
  endfacet
  facet normal 0.4872856655616834 0.0002484656808297538 -0.8732425885187417
    outer loop
      vertex 0.01815916327193164 0.10810251265443867 1.5810212768087675
      vertex 0.018706264200609685 0.6211334545858741 1.5814725431895134
      vertex 0.4849806019190415 0.148914429478598 1.841527966222756
    endloop
  endfacet
  facet normal 0.1132413207184068 0.9448171015036729 -0.3074037214936559
    outer loop
      vertex 4.999019960400124 0.8102113474219242 1.4777718873705323
      vertex 4.522532025585849 0.8700097931899679 1.4860361697542617
      vertex 4.986571565670162 0.9817000966248475 2.0002633833157626
    endloop
  endfacet
  facet normal 0.20060467858301215 0.9040658265975723 -0.3773893799632615
    outer loop
      vertex 4.986571565670162 0.9817000966248475 2.0002633833157626
      vertex 4.522532025585849 0.8700097931899679 1.4860361697542617
      vertex 4.626612763613314 0.9758532813557873 1.7949175792645982
    endloop
  endfacet
  facet normal -0.3818787013331818 0.8361093555177292 -0.39381442721643656
    outer loop
      vertex 4.778655449146244 0.126682194002768 0.0
      vertex 4.314946295616237 0.033892048420457274 0.25265184221004416
      vertex 4.890047416601445 0.39689841563581035 0.46568149456979735
    endloop
  endfacet
  facet normal 0.22050356752759218 0.8975323875224096 -0.38185571889907305
    outer loop
      vertex 4.626612763613314 0.9758532813557873 1.7949175792645982
      vertex 4.522532025585849 0.8700097931899679 1.4860361697542617
      vertex 4.214010037214681 1.0666601365282542 1.7700959538520198
    endloop
  endfacet
  facet normal 0.1696700629949764 0.844632618128587 -0.5077477819907531
    outer loop
      vertex 4.214010037214681 1.0666601365282542 1.7700959538520198
      vertex 3.9764651931239436 0.9161466362187594 1.4403399875440015
      vertex 3.6908435078393786 1.213009100075938 1.8387233540724488
    endloop
  endfacet
  facet normal 0.11363044790865015 0.8703618070748077 -0.4791225794027606
    outer loop
      vertex 4.522532025585849 0.8700097931899679 1.4860361697542617
      vertex 3.9764651931239436 0.9161466362187594 1.4403399875440015
      vertex 4.214010037214681 1.0666601365282542 1.7700959538520198
    endloop
  endfacet
  facet normal -0.04138279585961507 0.5365848124381533 -0.8428310644889361
    outer loop
      vertex 2.6509270713136557 1.488525437863122 2.0454674120581866
      vertex 2.270591573266362 1.11901305690671 1.828893304807051
      vertex 2.1179406646833088 1.5812164045372348 2.130648221895335
    endloop
  endfacet
  facet normal -0.04216776731572314 0.41009620831710236 -0.9110669455772956
    outer loop
      vertex 2.1179406646833088 1.5812164045372348 2.130648221895335
      vertex 1.7327046513394828 1.1569679223797207 1.9575125899744417
      vertex 1.531735412204218 1.6191480827833729 2.174854198530914
    endloop
  endfacet
  facet normal -0.16799493587319952 0.49940152454702097 -0.8499269490968447
    outer loop
      vertex 2.1179406646833088 1.5812164045372348 2.130648221895335
      vertex 2.270591573266362 1.11901305690671 1.828893304807051
      vertex 1.7327046513394828 1.1569679223797207 1.9575125899744417
    endloop
  endfacet
  facet normal 0.5332103293205975 0.06185421727138563 -0.8437184367498225
    outer loop
      vertex 0.018706264200609685 0.6211334545858741 1.5814725431895134
      vertex 0.38120983908271894 0.8079504987087741 1.824262156000475
      vertex 0.4849806019190415 0.148914429478598 1.841527966222756
    endloop
  endfacet
  facet normal 0.00393317346080896 0.9371741383619175 -0.34883974047135846
    outer loop
      vertex 4.965780651068196 0.618803055400406 0.9631698615882904
      vertex 4.6993281227158965 0.6848106069216873 1.1374979531270724
      vertex 4.999019960400124 0.8102113474219242 1.4777718873705323
    endloop
  endfacet
  facet normal 0.1055044667255767 0.8993304067211676 -0.42435083014846453
    outer loop
      vertex 4.999019960400124 0.8102113474219242 1.4777718873705323
      vertex 4.6993281227158965 0.6848106069216873 1.1374979531270724
      vertex 4.522532025585849 0.8700097931899679 1.4860361697542617
    endloop
  endfacet
  facet normal -0.10646638469781528 0.9140048980198977 -0.39148429767362714
    outer loop
      vertex 4.890047416601445 0.39689841563581035 0.46568149456979735
      vertex 4.458965623314366 0.48766039333087075 0.7948201419517825
      vertex 4.965780651068196 0.618803055400406 0.9631698615882904
    endloop
  endfacet
  facet normal -0.0782241768104687 0.8868624797003015 -0.4553635034367122
    outer loop
      vertex 4.458965623314366 0.48766039333087075 0.7948201419517825
      vertex 4.6993281227158965 0.6848106069216873 1.1374979531270724
      vertex 4.965780651068196 0.618803055400406 0.9631698615882904
    endloop
  endfacet
  facet normal -0.25680202103177735 0.758403626590415 -0.5990631529050181
    outer loop
      vertex 4.314946295616237 0.033892048420457274 0.25265184221004416
      vertex 4.206528693960583 0.2576620652306814 0.5824164931215383
      vertex 4.890047416601445 0.39689841563581035 0.46568149456979735
    endloop
  endfacet
  facet normal -0.2559806579614558 0.7923527083345501 -0.5537608584438987
    outer loop
      vertex 4.890047416601445 0.39689841563581035 0.46568149456979735
      vertex 4.206528693960583 0.2576620652306814 0.5824164931215383
      vertex 4.458965623314366 0.48766039333087075 0.7948201419517825
    endloop
  endfacet
  facet normal 0.0010525560985971349 0.6339590855969218 -0.7733658706684526
    outer loop
      vertex 3.173234190571079 1.3604191490866613 1.9411644020501246
      vertex 2.7803896316835695 1.0026314540434118 1.647336784951769
      vertex 2.6509270713136557 1.488525437863122 2.0454674120581866
    endloop
  endfacet
  facet normal -0.14111873744681974 0.6046819230859748 -0.7838655967922452
    outer loop
      vertex 2.6509270713136557 1.488525437863122 2.0454674120581866
      vertex 2.7803896316835695 1.0026314540434118 1.647336784951769
      vertex 2.270591573266362 1.11901305690671 1.828893304807051
    endloop
  endfacet
  facet normal 0.0811719947425625 0.7450832245169741 -0.6620136673913176
    outer loop
      vertex 3.6908435078393786 1.213009100075938 1.8387233540724488
      vertex 3.37923912308957 0.8981286577066069 1.4461246848596083
      vertex 3.173234190571079 1.3604191490866613 1.9411644020501246
    endloop
  endfacet
  facet normal -0.1136701993900697 0.7020957935582438 -0.7029513371766509
    outer loop
      vertex 3.37923912308957 0.8981286577066069 1.4461246848596083
      vertex 2.7803896316835695 1.0026314540434118 1.647336784951769
      vertex 3.173234190571079 1.3604191490866613 1.9411644020501246
    endloop
  endfacet
  facet normal -0.02978568132466161 0.791151003283216 -0.6108951654678455
    outer loop
      vertex 3.6908435078393786 1.213009100075938 1.8387233540724488
      vertex 3.9764651931239436 0.9161466362187594 1.4403399875440015
      vertex 3.37923912308957 0.8981286577066069 1.4461246848596083
    endloop
  endfacet
  facet normal 0.3140451360057662 0.17472386743570886 -0.933191953833416
    outer loop
      vertex 0.9489360857789563 1.568369443061848 2.117875134910881
      vertex 0.8223067761095373 1.091556952584154 1.9859860410864238
      vertex 0.4253894422213415 1.4039659700921925 1.9109054040799058
    endloop
  endfacet
  facet normal 0.27378338235822336 0.11845770372503038 -0.9544686647411132
    outer loop
      vertex 0.4253894422213415 1.4039659700921925 1.9109054040799058
      vertex 0.8223067761095373 1.091556952584154 1.9859860410864238
      vertex 0.38120983908271894 0.8079504987087741 1.824262156000475
    endloop
  endfacet
  facet normal 0.0674555232455862 0.29521579273470494 -0.953046372483356
    outer loop
      vertex 1.531735412204218 1.6191480827833729 2.174854198530914
      vertex 1.270461987520133 1.2035786640471906 2.027634718963372
      vertex 0.9489360857789563 1.568369443061848 2.117875134910881
    endloop
  endfacet
  facet normal 0.02459699126942192 0.26044103564685556 -0.9651763854196214
    outer loop
      vertex 1.270461987520133 1.2035786640471906 2.027634718963372
      vertex 0.8223067761095373 1.091556952584154 1.9859860410864238
      vertex 0.9489360857789563 1.568369443061848 2.117875134910881
    endloop
  endfacet
  facet normal -0.09994972125823234 0.38749622389961125 -0.9164369752928697
    outer loop
      vertex 1.7327046513394828 1.1569679223797207 1.9575125899744417
      vertex 1.270461987520133 1.2035786640471906 2.027634718963372
      vertex 1.531735412204218 1.6191480827833729 2.174854198530914
    endloop
  endfacet
  facet normal -0.4488425326925233 0.6639401104188744 -0.5981002513150567
    outer loop
      vertex 3.874093468901111 0.013539566945732525 0.5608956024901819
      vertex 4.206528693960583 0.2576620652306814 0.5824164931215383
      vertex 4.314946295616237 0.033892048420457274 0.25265184221004416
    endloop
  endfacet
  facet normal -0.47644014501521204 0.5608419912015931 -0.6770975181780804
    outer loop
      vertex 3.437309402414474 0.022482723673819822 0.8756466628362408
      vertex 3.8890183748592877 0.38161203741342337 0.8552692599522006
      vertex 3.874093468901111 0.013539566945732525 0.5608956024901819
    endloop
  endfacet
  facet normal -0.3842172327347622 0.5860962118371077 -0.7133500883436082
    outer loop
      vertex 3.8890183748592877 0.38161203741342337 0.8552692599522006
      vertex 4.206528693960583 0.2576620652306814 0.5824164931215383
      vertex 3.874093468901111 0.013539566945732525 0.5608956024901819
    endloop
  endfacet
  facet normal -0.5100037967804042 0.37574334805314663 -0.7737655094816414
    outer loop
      vertex 2.9936783974632912 0.04672304465861911 1.1798236174500407
      vertex 3.3516457728464135 0.4248372617104599 1.1274940444577253
      vertex 3.437309402414474 0.022482723673819822 0.8756466628362408
    endloop
  endfacet
  facet normal -0.3798539126215644 0.4313435352718726 -0.8183237498968559
    outer loop
      vertex 3.437309402414474 0.022482723673819822 0.8756466628362408
      vertex 3.3516457728464135 0.4248372617104599 1.1274940444577253
      vertex 3.8890183748592877 0.38161203741342337 0.8552692599522006
    endloop
  endfacet
  facet normal -0.4927686960867605 0.2454887559322385 -0.8348139211032574
    outer loop
      vertex 2.5350500656041874 0.07879820547912678 1.4599720079988396
      vertex 2.881004251922565 0.4898345450428567 1.3766353602780157
      vertex 2.9936783974632912 0.04672304465861911 1.1798236174500407
    endloop
  endfacet
  facet normal -0.4193080553056671 0.2773301092577802 -0.8644470864401403
    outer loop
      vertex 2.9936783974632912 0.04672304465861911 1.1798236174500407
      vertex 2.881004251922565 0.4898345450428567 1.3766353602780157
      vertex 3.3516457728464135 0.4248372617104599 1.1274940444577253
    endloop
  endfacet
  facet normal -0.43263963496096747 0.14456896209795894 -0.8899004222151823
    outer loop
      vertex 2.054168167631863 0.1128989960593058 1.6993004534993192
      vertex 2.3756193688478433 0.5529471683100666 1.614509817454195
      vertex 2.5350500656041874 0.07879820547912678 1.4599720079988396
    endloop
  endfacet
  facet normal -0.4043508022815037 0.15766962641089477 -0.900911048662271
    outer loop
      vertex 2.3756193688478433 0.5529471683100666 1.614509817454195
      vertex 2.881004251922565 0.4898345450428567 1.3766353602780157
      vertex 2.5350500656041874 0.07879820547912678 1.4599720079988396
    endloop
  endfacet
  facet normal -0.31563505541867787 0.08169732279864726 -0.9453571067265436
    outer loop
      vertex 1.5455463769996998 0.1425550479715943 1.8716815420422759
      vertex 1.8457827128536433 0.5971027422850306 1.8107206814466357
      vertex 2.054168167631863 0.1128989960593058 1.6993004534993192
    endloop
  endfacet
  facet normal -0.3414080396588426 0.06877347980043902 -0.9373957322990354
    outer loop
      vertex 2.054168167631863 0.1128989960593058 1.6993004534993192
      vertex 1.8457827128536433 0.5971027422850306 1.8107206814466357
      vertex 2.3756193688478433 0.5529471683100666 1.614509817454195
    endloop
  endfacet
  facet normal -0.11659679801187238 0.06443617614648302 -0.9910868609244087
    outer loop
      vertex 1.012554937346084 0.15846786882077646 1.9354201093154355
      vertex 1.3196447544233256 0.6851365669938444 1.9335341269251576
      vertex 1.5455463769996998 0.1425550479715943 1.8716815420422759
    endloop
  endfacet
  facet normal -0.2244838799852767 0.017606312504468955 -0.9743187391130025
    outer loop
      vertex 1.3196447544233256 0.6851365669938444 1.9335341269251576
      vertex 1.8457827128536433 0.5971027422850306 1.8107206814466357
      vertex 1.5455463769996998 0.1425550479715943 1.8716815420422759
    endloop
  endfacet
  facet normal 0.17379345486895478 0.06190907843814849 -0.982834218498548
    outer loop
      vertex 0.4849806019190415 0.148914429478598 1.841527966222756
      vertex 0.8433213411823988 0.6119610782754593 1.9340604245825126
      vertex 1.012554937346084 0.15846786882077646 1.9354201093154355
    endloop
  endfacet
  facet normal -0.0006093704999674178 -0.003225634557465394 -0.9999946119601322
    outer loop
      vertex 1.012554937346084 0.15846786882077646 1.9354201093154355
      vertex 0.8433213411823988 0.6119610782754593 1.9340604245825126
      vertex 1.3196447544233256 0.6851365669938444 1.9335341269251576
    endloop
  endfacet
  facet normal 0.23583476110442286 0.011676398567934346 -0.9717230197804837
    outer loop
      vertex 0.38120983908271894 0.8079504987087741 1.824262156000475
      vertex 0.8433213411823988 0.6119610782754593 1.9340604245825126
      vertex 0.4849806019190415 0.148914429478598 1.841527966222756
    endloop
  endfacet
  facet normal -0.32030834758626237 0.6056082476862412 -0.7284512425694382
    outer loop
      vertex 3.3516457728464135 0.4248372617104599 1.1274940444577253
      vertex 3.6823677974726645 0.7012408390565839 1.211863810504927
      vertex 3.8890183748592877 0.38161203741342337 0.8552692599522006
    endloop
  endfacet
  facet normal -0.20634770901837227 0.7524744214983281 -0.6254621235323733
    outer loop
      vertex 3.8890183748592877 0.38161203741342337 0.8552692599522006
      vertex 4.200613131072776 0.6694974486182929 1.0988164523978459
      vertex 4.458965623314366 0.48766039333087075 0.7948201419517825
    endloop
  endfacet
  facet normal -0.207597377705341 0.7768518356999825 -0.5944783882862635
    outer loop
      vertex 4.458965623314366 0.48766039333087075 0.7948201419517825
      vertex 4.206528693960583 0.2576620652306814 0.5824164931215383
      vertex 3.8890183748592877 0.38161203741342337 0.8552692599522006
    endloop
  endfacet
  facet normal -0.10882796287690556 0.7080540804004092 -0.6977219315202825
    outer loop
      vertex 3.8890183748592877 0.38161203741342337 0.8552692599522006
      vertex 3.6823677974726645 0.7012408390565839 1.211863810504927
      vertex 4.200613131072776 0.6694974486182929 1.0988164523978459
    endloop
  endfacet
  facet normal 0.11535381732823805 0.8396708154100515 -0.5307037013027353
    outer loop
      vertex 4.522532025585849 0.8700097931899679 1.4860361697542617
      vertex 4.200613131072776 0.6694974486182929 1.0988164523978459
      vertex 3.9764651931239436 0.9161466362187594 1.4403399875440015
    endloop
  endfacet
  facet normal 0.008946914153005484 0.8849136464367497 -0.4656691863084286
    outer loop
      vertex 4.6993281227158965 0.6848106069216873 1.1374979531270724
      vertex 4.200613131072776 0.6694974486182929 1.0988164523978459
      vertex 4.522532025585849 0.8700097931899679 1.4860361697542617
    endloop
  endfacet
  facet normal 0.2756853447239011 0.11540090617543243 -0.9542956677876898
    outer loop
      vertex 0.8223067761095373 1.091556952584154 1.9859860410864238
      vertex 0.8433213411823988 0.6119610782754593 1.9340604245825126
      vertex 0.38120983908271894 0.8079504987087741 1.824262156000475
    endloop
  endfacet
  facet normal -0.1880809422260331 0.21337441081075978 -0.9586954260778179
    outer loop
      vertex 1.7327046513394828 1.1569679223797207 1.9575125899744417
      vertex 1.8457827128536433 0.5971027422850306 1.8107206814466357
      vertex 1.3196447544233256 0.6851365669938444 1.9335341269251576
    endloop
  endfacet
  facet normal -0.13165260605264728 0.16492940435495876 -0.9774793516482406
    outer loop
      vertex 1.3196447544233256 0.6851365669938444 1.9335341269251576
      vertex 1.270461987520133 1.2035786640471906 2.027634718963372
      vertex 1.7327046513394828 1.1569679223797207 1.9575125899744417
    endloop
  endfacet
  facet normal 0.0456318402574409 0.18259175041985284 -0.9821293131931933
    outer loop
      vertex 1.3196447544233256 0.6851365669938444 1.9335341269251576
      vertex 0.8223067761095373 1.091556952584154 1.9859860410864238
      vertex 1.270461987520133 1.2035786640471906 2.027634718963372
    endloop
  endfacet
  facet normal -0.017515672562862364 0.10686532424941057 -0.9941192099983476
    outer loop
      vertex 1.3196447544233256 0.6851365669938444 1.9335341269251576
      vertex 0.8433213411823988 0.6119610782754593 1.9340604245825126
      vertex 0.8223067761095373 1.091556952584154 1.9859860410864238
    endloop
  endfacet
  facet normal -0.3118306940845344 0.2853703816600389 -0.9062700279155002
    outer loop
      vertex 2.3756193688478433 0.5529471683100666 1.614509817454195
      vertex 1.8457827128536433 0.5971027422850306 1.8107206814466357
      vertex 2.270591573266362 1.11901305690671 1.828893304807051
    endloop
  endfacet
  facet normal -0.25859223496915856 0.29979925654180284 -0.9182866991254082
    outer loop
      vertex 2.270591573266362 1.11901305690671 1.828893304807051
      vertex 2.7803896316835695 1.0026314540434118 1.647336784951769
      vertex 2.3756193688478433 0.5529471683100666 1.614509817454195
    endloop
  endfacet
  facet normal -0.35429799151554 0.3812449315714721 -0.853888303795712
    outer loop
      vertex 2.3756193688478433 0.5529471683100666 1.614509817454195
      vertex 2.7803896316835695 1.0026314540434118 1.647336784951769
      vertex 2.881004251922565 0.4898345450428567 1.3766353602780157
    endloop
  endfacet
  facet normal -0.02895905135760836 0.7464369400343782 -0.6648257425044412
    outer loop
      vertex 3.9764651931239436 0.9161466362187594 1.4403399875440015
      vertex 3.6823677974726645 0.7012408390565839 1.211863810504927
      vertex 3.37923912308957 0.8981286577066069 1.4461246848596083
    endloop
  endfacet
  facet normal -0.33446625810452596 0.5396374397451955 -0.7726084103961119
    outer loop
      vertex 3.3516457728464135 0.4248372617104599 1.1274940444577253
      vertex 2.881004251922565 0.4898345450428567 1.3766353602780157
      vertex 3.37923912308957 0.8981286577066069 1.4461246848596083
    endloop
  endfacet
  facet normal -0.2569177992991067 0.5499765494464554 -0.7946817221141269
    outer loop
      vertex 3.37923912308957 0.8981286577066069 1.4461246848596083
      vertex 3.6823677974726645 0.7012408390565839 1.211863810504927
      vertex 3.3516457728464135 0.4248372617104599 1.1274940444577253
    endloop
  endfacet
  facet normal -0.22211255870109475 0.4207384174296805 -0.8795710291761664
    outer loop
      vertex 2.881004251922565 0.4898345450428567 1.3766353602780157
      vertex 2.7803896316835695 1.0026314540434118 1.647336784951769
      vertex 3.37923912308957 0.8981286577066069 1.4461246848596083
    endloop
  endfacet
  facet normal -0.0875846492324573 0.7794032713176082 -0.620370429564658
    outer loop
      vertex 4.200613131072776 0.6694974486182929 1.0988164523978459
      vertex 3.6823677974726645 0.7012408390565839 1.211863810504927
      vertex 3.9764651931239436 0.9161466362187594 1.4403399875440015
    endloop
  endfacet
  facet normal -0.2136674346450255 0.2071563508397392 -0.9546897263922853
    outer loop
      vertex 2.270591573266362 1.11901305690671 1.828893304807051
      vertex 1.8457827128536433 0.5971027422850306 1.8107206814466357
      vertex 1.7327046513394828 1.1569679223797207 1.9575125899744417
    endloop
  endfacet
  facet normal 0.012700033488497551 0.8628392531200919 -0.5053188423407078
    outer loop
      vertex 4.458965623314366 0.48766039333087075 0.7948201419517825
      vertex 4.200613131072776 0.6694974486182929 1.0988164523978459
      vertex 4.6993281227158965 0.6848106069216873 1.1374979531270724
    endloop
  endfacet
  facet normal 0.060146971011520764 -0.9970859403177118 0.04692514783017428
    outer loop
      vertex 0.0020935784882731064 0.10810251265443867 1.601613567018762
      vertex 0.01815916327193164 0.10810251265443867 1.5810212768087675
      vertex 0.47172933911020637 0.14880487310303542 1.864512746486148
    endloop
  endfacet
  facet normal 0.06795907685493648 -0.9970939373510904 0.03442737240517749
    outer loop
      vertex 0.47172933911020637 0.14880487310303542 1.864512746486148
      vertex 0.01815916327193164 0.10810251265443867 1.5810212768087675
      vertex 0.4849806019190415 0.148914429478598 1.841527966222756
    endloop
  endfacet
  facet normal -0.3042397817638889 -0.5659538241126667 -0.7662469733476994
    outer loop
      vertex 4.314946295616237 0.033892048420457274 0.25265184221004416
      vertex 4.778655449146244 0.126682194002768 0.0
      vertex 4.789892953204112 0.10580627466271601 0.010957185988679487
    endloop
  endfacet
  facet normal -0.22584150584194507 -0.7186885697947051 -0.6576339056690157
    outer loop
      vertex 4.324554721923381 0.015831366598867972 0.2690895958427458
      vertex 4.314946295616237 0.033892048420457274 0.25265184221004416
      vertex 4.789892953204112 0.10580627466271601 0.010957185988679487
    endloop
  endfacet
  facet normal -0.27608312720669914 -0.8581085859757122 -0.4329292800753182
    outer loop
      vertex 3.874093468901111 0.013539566945732525 0.5608956024901819
      vertex 4.324554721923381 0.015831366598867972 0.2690895958427458
      vertex 3.882635286691311 0.0 0.5822851626450569
    endloop
  endfacet
  facet normal -0.37173146325868445 -0.7252250268286479 -0.5795380744049043
    outer loop
      vertex 4.314946295616237 0.033892048420457274 0.25265184221004416
      vertex 4.324554721923381 0.015831366598867972 0.2690895958427458
      vertex 3.874093468901111 0.013539566945732525 0.5608956024901819
    endloop
  endfacet
  facet normal -0.22523005307150276 -0.9361008234613929 -0.27016045511567766
    outer loop
      vertex 3.882635286691311 0.0 0.5822851626450569
      vertex 3.444225582065386 0.01358292997432278 0.9007183288504566
      vertex 3.437309402414474 0.022482723673819822 0.8756466628362408
    endloop
  endfacet
  facet normal -0.315931904309866 -0.853610739170997 -0.4141687310880505
    outer loop
      vertex 3.874093468901111 0.013539566945732525 0.5608956024901819
      vertex 3.882635286691311 0.0 0.5822851626450569
      vertex 3.437309402414474 0.022482723673819822 0.8756466628362408
    endloop
  endfacet
  facet normal -0.16424447310141344 -0.9750465681973582 -0.14935843766655302
    outer loop
      vertex 2.9936783974632912 0.04672304465861911 1.1798236174500407
      vertex 3.444225582065386 0.01358292997432278 0.9007183288504566
      vertex 2.9981819054204593 0.04174695595494063 1.2073563232434352
    endloop
  endfacet
  facet normal -0.23426915554812924 -0.9347360453816189 -0.2671824998443919
    outer loop
      vertex 3.437309402414474 0.022482723673819822 0.8756466628362408
      vertex 3.444225582065386 0.01358292997432278 0.9007183288504566
      vertex 2.9936783974632912 0.04672304465861911 1.1798236174500407
    endloop
  endfacet
  facet normal -0.11356522711755784 -0.9915454478533703 -0.06277391202559503
    outer loop
      vertex 2.5350500656041874 0.07879820547912678 1.4599720079988396
      vertex 2.9981819054204593 0.04174695595494063 1.2073563232434352
      vertex 2.536463416582274 0.07680225435868832 1.4889421432684702
    endloop
  endfacet
  facet normal -0.159960171461158 -0.9756346971307689 -0.15016551302036665
    outer loop
      vertex 2.9936783974632912 0.04672304465861911 1.1798236174500407
      vertex 2.9981819054204593 0.04174695595494063 1.2073563232434352
      vertex 2.5350500656041874 0.07879820547912678 1.4599720079988396
    endloop
  endfacet
  facet normal -0.07720645519009993 -0.9969974769162308 -0.0059324783732382655
    outer loop
      vertex 2.536463416582274 0.07680225435868832 1.4889421432684702
      vertex 2.0519212450336997 0.11289847973474364 1.7286291239520153
      vertex 2.054168167631863 0.1128989960593058 1.6993004534993192
    endloop
  endfacet
  facet normal -0.10196507888442906 -0.9927640927582588 -0.06342380324423585
    outer loop
      vertex 2.5350500656041874 0.07879820547912678 1.4599720079988396
      vertex 2.536463416582274 0.07680225435868832 1.4889421432684702
      vertex 2.054168167631863 0.1128989960593058 1.6993004534993192
    endloop
  endfacet
  facet normal -0.05321026254793479 -0.9984095314934501 0.01862995927556491
    outer loop
      vertex 2.0519212450336997 0.11289847973474364 1.7286291239520153
      vertex 1.5392692246697501 0.14341877237197379 1.9000413329885353
      vertex 1.5455463769996998 0.1425550479715943 1.8716815420422759
    endloop
  endfacet
  facet normal -0.05975948363950101 -0.9982022251165471 -0.0045958554714708435
    outer loop
      vertex 2.054168167631863 0.1128989960593058 1.6993004534993192
      vertex 2.0519212450336997 0.11289847973474364 1.7286291239520153
      vertex 1.5455463769996998 0.1425550479715943 1.8716815420422759
    endloop
  endfacet
  facet normal -0.02766869264020596 -0.9995294232886869 0.01324293878891668
    outer loop
      vertex 1.5392692246697501 0.14341877237197379 1.9000413329885353
      vertex 1.0024086337304707 0.1590923787316135 1.9613570316494622
      vertex 1.012554937346084 0.15846786882077646 1.9354201093154355
    endloop
  endfacet
  facet normal -0.02690845469691866 -0.9993381162539846 0.02447987883469585
    outer loop
      vertex 1.5455463769996998 0.1425550479715943 1.8716815420422759
      vertex 1.5392692246697501 0.14341877237197379 1.9000413329885353
      vertex 1.012554937346084 0.15846786882077646 1.9354201093154355
    endloop
  endfacet
  facet normal 0.01832378663330412 -0.9998152910809505 0.005798496713075694
    outer loop
      vertex 1.0024086337304707 0.1590923787316135 1.9613570316494622
      vertex 0.47172933911020637 0.14880487310303542 1.864512746486148
      vertex 0.4849806019190415 0.148914429478598 1.841527966222756
    endloop
  endfacet
  facet normal 0.012916794653854147 -0.9994924987020948 0.02911874746813952
    outer loop
      vertex 1.012554937346084 0.15846786882077646 1.9354201093154355
      vertex 1.0024086337304707 0.1590923787316135 1.9613570316494622
      vertex 0.4849806019190415 0.148914429478598 1.841527966222756
    endloop
  endfacet
  facet normal -0.27157857257503226 0.9027800528024517 -0.3335164991122783
    outer loop
      vertex 0.3516770937387264 1.7408148087114113 1.9453505540579679
      vertex 0.020252741760208248 1.5072764757321608 1.5830716369037163
      vertex 0.0 1.5072764757321608 1.5995632069238144
    endloop
  endfacet
  facet normal -0.34239294406118614 0.2338654166329483 0.9099857354707331
    outer loop
      vertex 4.462028448240603 1.0973538041981419 2.134703100385419
      vertex 4.954024633633949 1.0484604695285225 2.33238804802224
      vertex 4.954705940751446 1.0738084106426924 2.3261300026071243
    endloop
  endfacet
  facet normal -0.33661860124599047 0.2759478006665025 0.9003003546608838
    outer loop
      vertex 4.465567706521947 1.122666682193893 2.128267855959091
      vertex 4.462028448240603 1.0973538041981419 2.134703100385419
      vertex 4.954705940751446 1.0738084106426924 2.3261300026071243
    endloop
  endfacet
  facet normal -0.4230912711668741 0.8870485019600737 -0.18476669459831713
    outer loop
      vertex 0.020252741760208248 1.5072764757321608 1.5830716369037163
      vertex 0.3516770937387264 1.7408148087114113 1.9453505540579679
      vertex 0.3688783958730031 1.7449670470204808 1.9258963768769037
    endloop
  endfacet
  facet normal 0.10061238831676333 0.2319034743957655 0.9675215376829445
    outer loop
      vertex 4.462028448240603 1.0973538041981419 2.134703100385419
      vertex 4.465567706521947 1.122666682193893 2.128267855959091
      vertex 3.941606013256679 1.261958812171278 2.1493678600965302
    endloop
  endfacet
  facet normal 0.22616130126122377 0.24753804404323673 0.9421125105649953
    outer loop
      vertex 3.946941122976671 1.286438419519898 2.141655161881419
      vertex 3.4314264629937914 1.444580490092415 2.22385690171826
      vertex 3.941606013256679 1.261958812171278 2.1493678600965302
    endloop
  endfacet
  facet normal 0.11190429530637769 0.27634858516253824 0.9545202397909887
    outer loop
      vertex 4.465567706521947 1.122666682193893 2.128267855959091
      vertex 3.946941122976671 1.286438419519898 2.141655161881419
      vertex 3.941606013256679 1.261958812171278 2.1493678600965302
    endloop
  endfacet
  facet normal 0.2956783238703397 0.4532450201400246 0.8409181176021214
    outer loop
      vertex 2.9203920131237604 1.6201926764681924 2.3088906988622075
      vertex 3.4314264629937914 1.444580490092415 2.22385690171826
      vertex 2.9279347737609323 1.6411334186319038 2.2949517460903057
    endloop
  endfacet
  facet normal 0.25028883568598614 0.34584831939132027 0.90429223081101
    outer loop
      vertex 3.4380015140534748 1.4675301029467955 2.213259943584407
      vertex 3.4314264629937914 1.444580490092415 2.22385690171826
      vertex 3.946941122976671 1.286438419519898 2.141655161881419
    endloop
  endfacet
  facet normal 0.26099509413773925 0.34204989892024723 0.9027089384096523
    outer loop
      vertex 3.4314264629937914 1.444580490092415 2.22385690171826
      vertex 3.4380015140534748 1.4675301029467955 2.213259943584407
      vertex 2.9279347737609323 1.6411334186319038 2.2949517460903057
    endloop
  endfacet
  facet normal 0.274127988888225 0.5844171573950805 0.7637476231389206
    outer loop
      vertex 2.4001015068265326 1.7738587040313256 2.378051145994162
      vertex 2.9203920131237604 1.6201926764681924 2.3088906988622075
      vertex 2.4086546562470845 1.792323680443454 2.360851869325421
    endloop
  endfacet
  facet normal 0.2454030083804096 0.4743603044124023 0.8454346013001938
    outer loop
      vertex 2.4086546562470845 1.792323680443454 2.360851869325421
      vertex 2.9203920131237604 1.6201926764681924 2.3088906988622075
      vertex 2.9279347737609323 1.6411334186319038 2.2949517460903057
    endloop
  endfacet
  facet normal 0.18991658268398723 0.7240949921018501 0.6630370532893752
    outer loop
      vertex 1.8663282863703876 1.8881628461084443 2.4061119142580396
      vertex 2.4001015068265326 1.7738587040313256 2.378051145994162
      vertex 1.8762379111094925 1.9037328402019154 2.3862696494087365
    endloop
  endfacet
  facet normal 0.16788274433891398 0.6291501416470051 0.7589370747425561
    outer loop
      vertex 2.4001015068265326 1.7738587040313256 2.378051145994162
      vertex 2.4086546562470845 1.792323680443454 2.360851869325421
      vertex 1.8762379111094925 1.9037328402019154 2.3862696494087365
    endloop
  endfacet
  facet normal 0.036610223086399586 0.8586251150403326 0.5112950257801648
    outer loop
      vertex 1.3245241341077458 1.9378780613605748 2.3614192018719278
      vertex 1.8663282863703876 1.8881628461084443 2.4061119142580396
      vertex 1.3363199558596264 1.95008791019995 2.3400704110959922
    endloop
  endfacet
  facet normal 0.014055005219929608 0.783211599449497 0.6215963700956016
    outer loop
      vertex 1.8663282863703876 1.8881628461084443 2.4061119142580396
      vertex 1.8762379111094925 1.9037328402019154 2.3862696494087365
      vertex 1.3363199558596264 1.95008791019995 2.3400704110959922
    endloop
  endfacet
  facet normal -0.16162058466889406 0.9483147094930021 0.2730897258603623
    outer loop
      vertex 0.8029428757070742 1.8925182976058608 2.2102493377649193
      vertex 1.3245241341077458 1.9378780613605748 2.3614192018719278
      vertex 0.8171592953185627 1.901031670227793 2.189099913644074
    endloop
  endfacet
  facet normal -0.20089959913955138 0.8940742257455435 0.40033814447673427
    outer loop
      vertex 1.3245241341077458 1.9378780613605748 2.3614192018719278
      vertex 1.3363199558596264 1.95008791019995 2.3400704110959922
      vertex 0.8171592953185627 1.901031670227793 2.189099913644074
    endloop
  endfacet
  facet normal -0.2902666292789636 0.9554927493443993 -0.052715176916233814
    outer loop
      vertex 0.3516770937387264 1.7408148087114113 1.9453505540579679
      vertex 0.8029428757070742 1.8925182976058608 2.2102493377649193
      vertex 0.3688783958730031 1.7449670470204808 1.9258963768769037
    endloop
  endfacet
  facet normal -0.3841367385755062 0.9166092299763356 0.11075416741036123
    outer loop
      vertex 0.8029428757070742 1.8925182976058608 2.2102493377649193
      vertex 0.8171592953185627 1.901031670227793 2.189099913644074
      vertex 0.3688783958730031 1.7449670470204808 1.9258963768769037
    endloop
  endfacet
endsolid abc_50_020
