solid abc_50_022
  facet normal 0.828371865992982 0.3989228655964533 -0.3932691176988337
    outer loop
      vertex 0.6051845255421305 4.804700849053175 0.016666666666666666
      vertex 0.6794250650097738 4.716260611418602 0.08333333333333333
      vertex 0.715 4.576666666666667 0.016666666666666666
    endloop
  endfacet
  facet normal 0.7036881640924993 -0.3388783593822112 -0.6244873299423686
    outer loop
      vertex 0.715 4.576666666666667 0.016666666666666666
      vertex 0.6792055333983832 4.436670732160283 0.052301417046941995
      vertex 0.6051845255421319 4.3486324842801585 0.016666666666666666
    endloop
  endfacet
  facet normal 0.9688333485457505 -0.24771342867440266 -3.2268632717405553e-15
    outer loop
      vertex 0.7150000000000002 4.576666666666667 0.08333333333333312
      vertex 0.6792055333983832 4.436670732160283 0.052301417046941995
      vertex 0.715 4.576666666666667 0.016666666666666666
    endloop
  endfacet
  facet normal 0.9799607533562454 0.19919066715451295 -3.263924974815364e-15
    outer loop
      vertex 0.715 4.576666666666667 0.016666666666666666
      vertex 0.6918551289024826 4.690532771143655 0.11598391479658436
      vertex 0.7150000000000002 4.576666666666667 0.08333333333333312
    endloop
  endfacet
  facet normal 0.945865685327327 0.3000909554027634 -0.12362654976065107
    outer loop
      vertex 0.6794250650097738 4.716260611418602 0.08333333333333333
      vertex 0.6918551289024826 4.690532771143655 0.11598391479658436
      vertex 0.715 4.576666666666667 0.016666666666666666
    endloop
  endfacet
  facet normal 0.96883334854575 -0.24771342867440393 3.226863271740533e-15
    outer loop
      vertex 0.715 4.576666666666667 0.15
      vertex 0.6792055333983832 4.436670732160283 0.052301417046941995
      vertex 0.7150000000000002 4.576666666666667 0.08333333333333312
    endloop
  endfacet
  facet normal 0.9799607533562458 0.19919066715451111 3.2639249748153445e-15
    outer loop
      vertex 0.7150000000000002 4.576666666666667 0.08333333333333312
      vertex 0.6918551289024826 4.690532771143655 0.11598391479658436
      vertex 0.715 4.576666666666667 0.15
    endloop
  endfacet
  facet normal 0.6900926972300286 0.33233112761041184 0.642905973569212
    outer loop
      vertex 0.715 4.576666666666667 0.15
      vertex 0.6918551289024826 4.690532771143655 0.11598391479658436
      vertex 0.6051845255421305 4.804700849053175 0.15
    endloop
  endfacet
  facet normal 0.7731007573425357 -0.37230570251703904 0.5135208689719356
    outer loop
      vertex 0.6051845255421319 4.3486324842801585 0.15
      vertex 0.6786416006009589 4.43564491972937 0.10249561229839195
      vertex 0.715 4.576666666666667 0.15
    endloop
  endfacet
  facet normal 0.967849673072945 -0.2514639613416456 0.00573467339618299
    outer loop
      vertex 0.715 4.576666666666667 0.15
      vertex 0.6786416006009589 4.43564491972937 0.10249561229839195
      vertex 0.6792055333983832 4.436670732160283 0.052301417046941995
    endloop
  endfacet
  facet normal 0.2041841771582695 0.8945893314314192 -0.3975157228177107
    outer loop
      vertex 0.35843139426274057 4.861020641053032 0.016666666666666666
      vertex 0.48692233280572167 4.861317125283098 0.08333333333333333
      vertex 0.6051845255421305 4.804700849053175 0.016666666666666666
    endloop
  endfacet
  facet normal 0.43180366431875783 0.9019676244083783 -0.0
    outer loop
      vertex 0.6051845255421305 4.804700849053175 0.016666666666666666
      vertex 0.48692233280572167 4.861317125283098 0.08333333333333333
      vertex 0.6051845255421305 4.804700849053175 0.15
    endloop
  endfacet
  facet normal 0.7659149250834993 0.6429419316970527 0.0
    outer loop
      vertex 0.6051845255421305 4.804700849053175 0.15
      vertex 0.6794250650097738 4.716260611418602 0.08333333333333333
      vertex 0.6051845255421305 4.804700849053175 0.016666666666666666
    endloop
  endfacet
  facet normal -0.5643642719383678 0.7076904130045951 -0.4250497005067309
    outer loop
      vertex 0.16055074686179366 4.703216090575953 0.016666666666666666
      vertex 0.24148214112453464 4.804700849053175 0.0781771281708119
      vertex 0.35843139426274057 4.861020641053032 0.016666666666666666
    endloop
  endfacet
  facet normal -0.4338837391175603 0.900968867902418 0.0
    outer loop
      vertex 0.35843139426274057 4.861020641053032 0.016666666666666666
      vertex 0.24148214112453464 4.804700849053175 0.0781771281708119
      vertex 0.35843139426274057 4.861020641053032 0.15
    endloop
  endfacet
  facet normal -0.002307426843899052 0.9999973378871367 0.0
    outer loop
      vertex 0.35843139426274057 4.861020641053032 0.15
      vertex 0.48692233280572167 4.861317125283098 0.08333333333333333
      vertex 0.35843139426274057 4.861020641053032 0.016666666666666666
    endloop
  endfacet
  facet normal -0.9175953629529245 -7.748221111784613e-15 -0.39751572281771524
    outer loop
      vertex 0.1605507468617958 4.4501172427573765 0.016666666666666666
      vertex 0.13166977246087322 4.578012662075725 0.08333333333333333
      vertex 0.16055074686179366 4.703216090575953 0.016666666666666666
    endloop
  endfacet
  facet normal -0.7818314824680344 0.6234898018587278 0.0
    outer loop
      vertex 0.16055074686179366 4.703216090575953 0.15
      vertex 0.24148214112453464 4.804700849053175 0.0781771281708119
      vertex 0.16055074686179366 4.703216090575953 0.016666666666666666
    endloop
  endfacet
  facet normal -0.9744118660373539 0.2247699164158804 0.0
    outer loop
      vertex 0.16055074686179366 4.703216090575953 0.016666666666666666
      vertex 0.13166977246087322 4.578012662075725 0.08333333333333333
      vertex 0.16055074686179366 4.703216090575953 0.15
    endloop
  endfacet
  facet normal -0.5643642719383558 -0.707690413004607 -0.42504970050672725
    outer loop
      vertex 0.3584313942627446 4.292312692280302 0.016666666666666666
      vertex 0.24148214112453867 4.348632484280157 0.07817712817081206
      vertex 0.1605507468617958 4.4501172427573765 0.016666666666666666
    endloop
  endfacet
  facet normal -0.9754387675900209 -0.22027076674506982 -0.0
    outer loop
      vertex 0.1605507468617958 4.4501172427573765 0.15
      vertex 0.13166977246087322 4.578012662075725 0.08333333333333333
      vertex 0.1605507468617958 4.4501172427573765 0.016666666666666666
    endloop
  endfacet
  facet normal -0.7818314824680219 -0.6234898018587434 0.0
    outer loop
      vertex 0.1605507468617958 4.4501172427573765 0.016666666666666666
      vertex 0.24148214112453867 4.348632484280157 0.07817712817081206
      vertex 0.1605507468617958 4.4501172427573765 0.15
    endloop
  endfacet
  facet normal 0.20141927664079834 -0.8824755107631271 -0.4250497005067238
    outer loop
      vertex 0.6051845255421319 4.3486324842801585 0.016666666666666666
      vertex 0.48823527240392744 4.292312692280302 0.0781771281708121
      vertex 0.3584313942627446 4.292312692280302 0.016666666666666666
    endloop
  endfacet
  facet normal -0.43388373911754363 -0.9009688679024263 -0.0
    outer loop
      vertex 0.3584313942627446 4.292312692280302 0.15
      vertex 0.24148214112453867 4.348632484280157 0.07817712817081206
      vertex 0.3584313942627446 4.292312692280302 0.016666666666666666
    endloop
  endfacet
  facet normal 0.0 -1.0 0.0
    outer loop
      vertex 0.3584313942627446 4.292312692280302 0.016666666666666666
      vertex 0.48823527240392744 4.292312692280302 0.0781771281708121
      vertex 0.3584313942627446 4.292312692280302 0.15
    endloop
  endfacet
  facet normal 0.43388373911755934 -0.9009688679024187 0.0
    outer loop
      vertex 0.6051845255421319 4.3486324842801585 0.15
      vertex 0.48823527240392744 4.292312692280302 0.0781771281708121
      vertex 0.6051845255421319 4.3486324842801585 0.016666666666666666
    endloop
  endfacet
  facet normal 0.7641168865373279 -0.6450778121347068 0.0
    outer loop
      vertex 0.6051845255421319 4.3486324842801585 0.016666666666666666
      vertex 0.6786416006009589 4.43564491972937 0.10249561229839195
      vertex 0.6051845255421319 4.3486324842801585 0.15
    endloop
  endfacet
  facet normal 0.7663025727729801 -0.6424639536749392 -0.004520529822608276
    outer loop
      vertex 0.6792055333983832 4.436670732160283 0.052301417046941995
      vertex 0.6786416006009589 4.43564491972937 0.10249561229839195
      vertex 0.6051845255421319 4.3486324842801585 0.016666666666666666
    endloop
  endfacet
  facet normal 0.2041841771582695 0.8945893314314192 0.3975157228177107
    outer loop
      vertex 0.6051845255421305 4.804700849053175 0.15
      vertex 0.48692233280572167 4.861317125283098 0.08333333333333333
      vertex 0.35843139426274057 4.861020641053032 0.15
    endloop
  endfacet
  facet normal 0.8083448081453355 0.5712324566290906 0.14238030635581164
    outer loop
      vertex 0.6051845255421305 4.804700849053175 0.15
      vertex 0.6918551289024826 4.690532771143655 0.11598391479658436
      vertex 0.6794250650097738 4.716260611418602 0.08333333333333333
    endloop
  endfacet
  facet normal -0.5784644642370534 0.725371494900564 0.3731153414169132
    outer loop
      vertex 0.35843139426274057 4.861020641053032 0.15
      vertex 0.24148214112453464 4.804700849053175 0.0781771281708119
      vertex 0.16055074686179366 4.703216090575953 0.15
    endloop
  endfacet
  facet normal -0.9175953629529245 -7.748221111784613e-15 0.39751572281771524
    outer loop
      vertex 0.16055074686179366 4.703216090575953 0.15
      vertex 0.13166977246087322 4.578012662075725 0.08333333333333333
      vertex 0.1605507468617958 4.4501172427573765 0.15
    endloop
  endfacet
  facet normal -0.5784644642370406 -0.7253714949005753 0.37311534141691133
    outer loop
      vertex 0.1605507468617958 4.4501172427573765 0.15
      vertex 0.24148214112453867 4.348632484280157 0.07817712817081206
      vertex 0.3584313942627446 4.292312692280302 0.15
    endloop
  endfacet
  facet normal 0.20645157700868452 -0.9045234592590571 0.3731153414169086
    outer loop
      vertex 0.3584313942627446 4.292312692280302 0.15
      vertex 0.48823527240392744 4.292312692280302 0.0781771281708121
      vertex 0.6051845255421319 4.3486324842801585 0.15
    endloop
  endfacet
  facet normal 0.0 -0.0 -1.0
    outer loop
      vertex 0.6051845255421305 4.804700849053175 0.016666666666666666
      vertex 0.715 4.576666666666667 0.016666666666666666
      vertex 0.4233333333333339 4.576666666666667 0.016666666666666666
    endloop
  endfacet
  facet normal -0.0 0.0 -1.0
    outer loop
      vertex 0.715 4.576666666666667 0.016666666666666666
      vertex 0.6051845255421319 4.3486324842801585 0.016666666666666666
      vertex 0.4233333333333339 4.576666666666667 0.016666666666666666
    endloop
  endfacet
  facet normal 0.0 0.0 -1.0
    outer loop
      vertex 0.35843139426274057 4.861020641053032 0.016666666666666666
      vertex 0.6051845255421305 4.804700849053175 0.016666666666666666
      vertex 0.4233333333333339 4.576666666666667 0.016666666666666666
    endloop
  endfacet
  facet normal 0.0 0.0 -1.0
    outer loop
      vertex 0.16055074686179366 4.703216090575953 0.016666666666666666
      vertex 0.35843139426274057 4.861020641053032 0.016666666666666666
      vertex 0.4233333333333339 4.576666666666667 0.016666666666666666
    endloop
  endfacet
  facet normal 0.0 0.0 -1.0
    outer loop
      vertex 0.1605507468617958 4.4501172427573765 0.016666666666666666
      vertex 0.16055074686179366 4.703216090575953 0.016666666666666666
      vertex 0.4233333333333339 4.576666666666667 0.016666666666666666
    endloop
  endfacet
  facet normal 0.0 0.0 -1.0
    outer loop
      vertex 0.3584313942627446 4.292312692280302 0.016666666666666666
      vertex 0.1605507468617958 4.4501172427573765 0.016666666666666666
      vertex 0.4233333333333339 4.576666666666667 0.016666666666666666
    endloop
  endfacet
  facet normal -0.0 0.0 -1.0
    outer loop
      vertex 0.6051845255421319 4.3486324842801585 0.016666666666666666
      vertex 0.3584313942627446 4.292312692280302 0.016666666666666666
      vertex 0.4233333333333339 4.576666666666667 0.016666666666666666
    endloop
  endfacet
  facet normal 0.0 0.0 1.0
    outer loop
      vertex 0.6051845255421305 4.804700849053175 0.15
      vertex 0.4233333333333339 4.576666666666667 0.15
      vertex 0.715 4.576666666666667 0.15
    endloop
  endfacet
  facet normal 0.0 0.0 1.0
    outer loop
      vertex 0.715 4.576666666666667 0.15
      vertex 0.4233333333333339 4.576666666666667 0.15
      vertex 0.6051845255421319 4.3486324842801585 0.15
    endloop
  endfacet
  facet normal 0.0 0.0 1.0
    outer loop
      vertex 0.35843139426274057 4.861020641053032 0.15
      vertex 0.4233333333333339 4.576666666666667 0.15
      vertex 0.6051845255421305 4.804700849053175 0.15
    endloop
  endfacet
  facet normal -0.0 0.0 1.0
    outer loop
      vertex 0.16055074686179366 4.703216090575953 0.15
      vertex 0.4233333333333339 4.576666666666667 0.15
      vertex 0.35843139426274057 4.861020641053032 0.15
    endloop
  endfacet
  facet normal 0.0 -0.0 1.0
    outer loop
      vertex 0.1605507468617958 4.4501172427573765 0.15
      vertex 0.4233333333333339 4.576666666666667 0.15
      vertex 0.16055074686179366 4.703216090575953 0.15
    endloop
  endfacet
  facet normal 0.0 -0.0 1.0
    outer loop
      vertex 0.3584313942627446 4.292312692280302 0.15
      vertex 0.4233333333333339 4.576666666666667 0.15
      vertex 0.1605507468617958 4.4501172427573765 0.15
    endloop
  endfacet
  facet normal 0.0 0.0 1.0
    outer loop
      vertex 0.6051845255421319 4.3486324842801585 0.15
      vertex 0.4233333333333339 4.576666666666667 0.15
      vertex 0.3584313942627446 4.292312692280302 0.15
    endloop
  endfacet
  facet normal 1.0 0.0 0.0
    outer loop
      vertex 3.3333333333333335 5.0 0.15
      vertex 3.3333333333333335 4.444444444444444 0.0
      vertex 3.3333333333333335 5.0 0.0
    endloop
  endfacet
  facet normal 1.0 0.0 0.0
    outer loop
      vertex 3.3333333333333335 4.444444444444444 0.0
      vertex 3.3333333333333335 5.0 0.15
      vertex 3.3333333333333335 4.444444444444444 0.15
    endloop
  endfacet
  facet normal 1.0 0.0 0.0
    outer loop
      vertex 3.3333333333333335 0.0 0.0
      vertex 3.3333333333333335 0.5555555555555567 0.15
      vertex 3.3333333333333335 0.0 0.15
    endloop
  endfacet
  facet normal 1.0 0.0 0.0
    outer loop
      vertex 3.3333333333333335 0.5555555555555567 0.15
      vertex 3.3333333333333335 0.0 0.0
      vertex 3.3333333333333335 0.5555555555555567 0.0
    endloop
  endfacet
  facet normal 1.0 -0.0 0.0
    outer loop
      vertex 3.3333333333333335 3.888888888888888 0.15
      vertex 3.3333333333333335 4.444444444444444 0.0
      vertex 3.3333333333333335 4.444444444444444 0.15
    endloop
  endfacet
  facet normal 1.0 0.0 0.0
    outer loop
      vertex 3.3333333333333335 3.888888888888888 0.15
      vertex 3.3333333333333335 3.3333333333333304 0.15
      vertex 3.3333333333333335 3.3333333333333304 0.0
    endloop
  endfacet
  facet normal 1.0 0.0 0.0
    outer loop
      vertex 3.3333333333333335 4.444444444444444 0.0
      vertex 3.3333333333333335 3.888888888888888 0.15
      vertex 3.3333333333333335 3.888888888888888 0.0
    endloop
  endfacet
  facet normal 1.0 0.0 0.0
    outer loop
      vertex 3.3333333333333335 3.888888888888888 0.15
      vertex 3.3333333333333335 3.3333333333333304 0.0
      vertex 3.3333333333333335 3.888888888888888 0.0
    endloop
  endfacet
  facet normal 1.0 0.0 0.0
    outer loop
      vertex 3.3333333333333335 3.3333333333333304 0.15
      vertex 3.3333333333333335 2.777777777777773 0.15
      vertex 3.3333333333333335 3.3333333333333304 0.0
    endloop
  endfacet
  facet normal 1.0 0.0 0.0
    outer loop
      vertex 3.3333333333333335 2.777777777777773 0.15
      vertex 3.3333333333333335 2.2222222222222174 0.15
      vertex 3.3333333333333335 2.777777777777773 0.0
    endloop
  endfacet
  facet normal 1.0 0.0 0.0
    outer loop
      vertex 3.3333333333333335 3.3333333333333304 0.0
      vertex 3.3333333333333335 2.777777777777773 0.15
      vertex 3.3333333333333335 2.777777777777773 0.0
    endloop
  endfacet
  facet normal 1.0 0.0 0.0
    outer loop
      vertex 3.3333333333333335 2.2222222222222174 0.15
      vertex 3.3333333333333335 1.6666666666666639 0.15
      vertex 3.3333333333333335 2.2222222222222174 0.0
    endloop
  endfacet
  facet normal 1.0 0.0 0.0
    outer loop
      vertex 3.3333333333333335 2.777777777777773 0.0
      vertex 3.3333333333333335 2.2222222222222174 0.15
      vertex 3.3333333333333335 2.2222222222222174 0.0
    endloop
  endfacet
  facet normal 1.0 0.0 0.0
    outer loop
      vertex 3.3333333333333335 1.6666666666666639 0.15
      vertex 3.3333333333333335 1.11111111111111 0.15
      vertex 3.3333333333333335 1.6666666666666639 0.0
    endloop
  endfacet
  facet normal 1.0 0.0 0.0
    outer loop
      vertex 3.3333333333333335 2.2222222222222174 0.0
      vertex 3.3333333333333335 1.6666666666666639 0.15
      vertex 3.3333333333333335 1.6666666666666639 0.0
    endloop
  endfacet
  facet normal 1.0 0.0 0.0
    outer loop
      vertex 3.3333333333333335 1.11111111111111 0.15
      vertex 3.3333333333333335 0.5555555555555567 0.15
      vertex 3.3333333333333335 1.11111111111111 0.0
    endloop
  endfacet
  facet normal 1.0 0.0 0.0
    outer loop
      vertex 3.3333333333333335 1.6666666666666639 0.0
      vertex 3.3333333333333335 1.11111111111111 0.15
      vertex 3.3333333333333335 1.11111111111111 0.0
    endloop
  endfacet
  facet normal 1.0 0.0 0.0
    outer loop
      vertex 3.3333333333333335 1.11111111111111 0.0
      vertex 3.3333333333333335 0.5555555555555567 0.15
      vertex 3.3333333333333335 0.5555555555555567 0.0
    endloop
  endfacet
  facet normal 0.0 1.0 -0.0
    outer loop
      vertex 3.3333333333333335 5.0 0.0
      vertex 2.7777777777777772 5.0 0.15
      vertex 3.3333333333333335 5.0 0.15
    endloop
  endfacet
  facet normal 0.0 1.0 0.0
    outer loop
      vertex 2.7777777777777772 5.0 0.15
      vertex 3.3333333333333335 5.0 0.0
      vertex 2.7777777777777772 5.0 0.0
    endloop
  endfacet
  facet normal 0.0 1.0 0.0
    outer loop
      vertex 0.0 5.0 0.0
      vertex 0.0 5.0 0.15
      vertex 0.5555555555555548 5.0 0.0
    endloop
  endfacet
  facet normal 0.0 1.0 -0.0
    outer loop
      vertex 0.5555555555555548 5.0 0.0
      vertex 0.0 5.0 0.15
      vertex 0.5555555555555548 5.0 0.15
    endloop
  endfacet
  facet normal 0.0 1.0 -0.0
    outer loop
      vertex 1.1111111111111085 5.0 0.0
      vertex 0.5555555555555548 5.0 0.15
      vertex 1.1111111111111085 5.0 0.15
    endloop
  endfacet
  facet normal 0.0 1.0 0.0
    outer loop
      vertex 1.1111111111111085 5.0 0.0
      vertex 0.5555555555555548 5.0 0.0
      vertex 0.5555555555555548 5.0 0.15
    endloop
  endfacet
  facet normal 0.0 1.0 0.0
    outer loop
      vertex 1.6666666666666645 5.0 0.15
      vertex 1.1111111111111085 5.0 0.0
      vertex 1.1111111111111085 5.0 0.15
    endloop
  endfacet
  facet normal 0.0 1.0 -0.0
    outer loop
      vertex 2.222222222222221 5.0 0.0
      vertex 1.6666666666666645 5.0 0.15
      vertex 2.222222222222221 5.0 0.15
    endloop
  endfacet
  facet normal 0.0 1.0 -0.0
    outer loop
      vertex 1.6666666666666645 5.0 0.0
      vertex 1.1111111111111085 5.0 0.0
      vertex 1.6666666666666645 5.0 0.15
    endloop
  endfacet
  facet normal 0.0 1.0 0.0
    outer loop
      vertex 2.222222222222221 5.0 0.0
      vertex 1.6666666666666645 5.0 0.0
      vertex 1.6666666666666645 5.0 0.15
    endloop
  endfacet
  facet normal 0.0 1.0 0.0
    outer loop
      vertex 2.7777777777777772 5.0 0.15
      vertex 2.222222222222221 5.0 0.0
      vertex 2.222222222222221 5.0 0.15
    endloop
  endfacet
  facet normal 0.0 1.0 0.0
    outer loop
      vertex 2.222222222222221 5.0 0.0
      vertex 2.7777777777777772 5.0 0.15
      vertex 2.7777777777777772 5.0 0.0
    endloop
  endfacet
  facet normal 0.0 -1.0 0.0
    outer loop
      vertex 2.7777777777777772 0.0 0.0
      vertex 3.3333333333333335 0.0 0.0
      vertex 3.3333333333333335 0.0 0.15
    endloop
  endfacet
  facet normal -0.0 -1.0 0.0
    outer loop
      vertex 3.3333333333333335 0.0 0.15
      vertex 2.7777777777777772 0.0 0.15
      vertex 2.7777777777777772 0.0 0.0
    endloop
  endfacet
  facet normal 0.0 -1.0 0.0
    outer loop
      vertex 0.0 0.0 0.15
      vertex 0.0 0.0 0.0
      vertex 0.5555555555555548 0.0 0.15
    endloop
  endfacet
  facet normal 0.0 -1.0 0.0
    outer loop
      vertex 0.0 0.0 0.0
      vertex 0.5555555555555548 0.0 0.0
      vertex 0.5555555555555548 0.0 0.15
    endloop
  endfacet
  facet normal 0.0 -1.0 0.0
    outer loop
      vertex 1.1111111111111085 0.0 0.0
      vertex 1.1111111111111085 0.0 0.15
      vertex 0.5555555555555548 0.0 0.15
    endloop
  endfacet
  facet normal 0.0 -1.0 0.0
    outer loop
      vertex 0.5555555555555548 0.0 0.15
      vertex 0.5555555555555548 0.0 0.0
      vertex 1.1111111111111085 0.0 0.0
    endloop
  endfacet
  facet normal 0.0 -1.0 0.0
    outer loop
      vertex 1.1111111111111085 0.0 0.0
      vertex 1.6666666666666645 0.0 0.15
      vertex 1.1111111111111085 0.0 0.15
    endloop
  endfacet
  facet normal 0.0 -1.0 0.0
    outer loop
      vertex 1.6666666666666645 0.0 0.15
      vertex 1.6666666666666645 0.0 0.0
      vertex 2.222222222222221 0.0 0.15
    endloop
  endfacet
  facet normal 0.0 -1.0 0.0
    outer loop
      vertex 1.1111111111111085 0.0 0.0
      vertex 1.6666666666666645 0.0 0.0
      vertex 1.6666666666666645 0.0 0.15
    endloop
  endfacet
  facet normal 0.0 -1.0 0.0
    outer loop
      vertex 2.7777777777777772 0.0 0.0
      vertex 2.7777777777777772 0.0 0.15
      vertex 2.222222222222221 0.0 0.15
    endloop
  endfacet
  facet normal 0.0 -1.0 0.0
    outer loop
      vertex 1.6666666666666645 0.0 0.0
      vertex 2.222222222222221 0.0 0.0
      vertex 2.222222222222221 0.0 0.15
    endloop
  endfacet
  facet normal 0.0 -1.0 0.0
    outer loop
      vertex 2.222222222222221 0.0 0.15
      vertex 2.222222222222221 0.0 0.0
      vertex 2.7777777777777772 0.0 0.0
    endloop
  endfacet
  facet normal -1.0 -0.0 -0.0
    outer loop
      vertex 0.0 5.0 0.15
      vertex 0.0 5.0 0.0
      vertex 0.0 4.444444444444444 0.15
    endloop
  endfacet
  facet normal -1.0 0.0 0.0
    outer loop
      vertex 0.0 5.0 0.0
      vertex 0.0 4.444444444444444 0.0
      vertex 0.0 4.444444444444444 0.15
    endloop
  endfacet
  facet normal -1.0 4.263256414560593e-16 0.0
    outer loop
      vertex 2.3684757858670006e-16 0.5555555555555567 0.0
      vertex 0.0 0.0 0.0
      vertex 0.0 0.0 0.15
    endloop
  endfacet
  facet normal -1.0 4.263256414560593e-16 0.0
    outer loop
      vertex 0.0 0.0 0.15
      vertex 2.3684757858670006e-16 0.5555555555555567 0.15
      vertex 2.3684757858670006e-16 0.5555555555555567 0.0
    endloop
  endfacet
  facet normal -1.0 0.0 0.0
    outer loop
      vertex 0.0 3.8888888888888884 0.15
      vertex 0.0 4.444444444444444 0.15
      vertex 0.0 3.8888888888888884 0.0
    endloop
  endfacet
  facet normal -1.0 0.0 -0.0
    outer loop
      vertex 0.0 4.444444444444444 0.15
      vertex 0.0 4.444444444444444 0.0
      vertex 0.0 3.8888888888888884 0.0
    endloop
  endfacet
  facet normal -1.0 0.0 0.0
    outer loop
      vertex 0.0 3.333333333333331 0.0
      vertex 0.0 3.333333333333331 0.15
      vertex 0.0 3.8888888888888884 0.15
    endloop
  endfacet
  facet normal -1.0 0.0 0.0
    outer loop
      vertex 0.0 3.333333333333331 0.0
      vertex 0.0 3.8888888888888884 0.15
      vertex 0.0 3.8888888888888884 0.0
    endloop
  endfacet
  facet normal -1.0 0.0 0.0
    outer loop
      vertex 0.0 2.7777777777777732 0.0
      vertex 0.0 2.7777777777777732 0.15
      vertex 0.0 3.333333333333331 0.15
    endloop
  endfacet
  facet normal -1.0 0.0 0.0
    outer loop
      vertex 0.0 2.7777777777777732 0.0
      vertex 0.0 3.333333333333331 0.15
      vertex 0.0 3.333333333333331 0.0
    endloop
  endfacet
  facet normal -1.0 0.0 0.0
    outer loop
      vertex 0.0 2.2222222222222174 0.0
      vertex 0.0 2.2222222222222174 0.15
      vertex 0.0 2.7777777777777732 0.15
    endloop
  endfacet
  facet normal -1.0 0.0 0.0
    outer loop
      vertex 0.0 2.2222222222222174 0.0
      vertex 0.0 2.7777777777777732 0.15
      vertex 0.0 2.7777777777777732 0.0
    endloop
  endfacet
  facet normal -1.0 -4.263256414560616e-16 0.0
    outer loop
      vertex 2.3684757858670006e-16 1.6666666666666639 0.0
      vertex 2.3684757858670006e-16 1.6666666666666639 0.15
      vertex 0.0 2.2222222222222174 0.15
    endloop
  endfacet
  facet normal -1.0 -4.263256414560616e-16 0.0
    outer loop
      vertex 2.3684757858670006e-16 1.6666666666666639 0.0
      vertex 0.0 2.2222222222222174 0.15
      vertex 0.0 2.2222222222222174 0.0
    endloop
  endfacet
  facet normal -1.0 0.0 0.0
    outer loop
      vertex 2.3684757858670006e-16 1.1111111111111103 0.0
      vertex 2.3684757858670006e-16 1.1111111111111103 0.15
      vertex 2.3684757858670006e-16 1.6666666666666639 0.15
    endloop
  endfacet
  facet normal -1.0 0.0 0.0
    outer loop
      vertex 2.3684757858670006e-16 1.1111111111111103 0.0
      vertex 2.3684757858670006e-16 1.6666666666666639 0.15
      vertex 2.3684757858670006e-16 1.6666666666666639 0.0
    endloop
  endfacet
  facet normal -1.0 0.0 0.0
    outer loop
      vertex 2.3684757858670006e-16 1.1111111111111103 0.0
      vertex 2.3684757858670006e-16 0.5555555555555567 0.15
      vertex 2.3684757858670006e-16 1.1111111111111103 0.15
    endloop
  endfacet
  facet normal -1.0 0.0 0.0
    outer loop
      vertex 2.3684757858670006e-16 1.1111111111111103 0.0
      vertex 2.3684757858670006e-16 0.5555555555555567 0.0
      vertex 2.3684757858670006e-16 0.5555555555555567 0.15
    endloop
  endfacet
  facet normal 0.0 -0.0 -1.0
    outer loop
      vertex 3.3333333333333335 0.5555555555555567 0.0
      vertex 3.3333333333333335 0.0 0.0
      vertex 2.926638440239512 0.40669489309382173 0.0
    endloop
  endfacet
  facet normal 0.0 0.0 -1.0
    outer loop
      vertex 3.3333333333333335 0.0 0.0
      vertex 2.7777777777777772 0.0 0.0
      vertex 2.926638440239512 0.40669489309382173 0.0
    endloop
  endfacet
  facet normal 0.0 -0.0 -1.0
    outer loop
      vertex 3.3333333333333335 5.0 0.0
      vertex 3.3333333333333335 4.444444444444444 0.0
      vertex 2.9266384402395125 4.593305106906179 0.0
    endloop
  endfacet
  facet normal 0.0 0.0 -1.0
    outer loop
      vertex 2.7777777777777772 5.0 0.0
      vertex 3.3333333333333335 5.0 0.0
      vertex 2.9266384402395125 4.593305106906179 0.0
    endloop
  endfacet
  facet normal 0.0 0.0 -1.0
    outer loop
      vertex 0.0 5.0 0.0
      vertex 0.5555555555555548 5.0 0.0
      vertex 0.406694893093821 4.593305106906178 0.0
    endloop
  endfacet
  facet normal 0.0 0.0 -1.0
    outer loop
      vertex 0.0 4.444444444444444 0.0
      vertex 0.0 5.0 0.0
      vertex 0.406694893093821 4.593305106906178 0.0
    endloop
  endfacet
  facet normal 0.0 0.0 -1.0
    outer loop
      vertex 0.5555555555555548 0.0 0.0
      vertex 0.0 0.0 0.0
      vertex 0.4066948930938205 0.40669489309382006 0.0
    endloop
  endfacet
  facet normal 0.0 0.0 -1.0
    outer loop
      vertex 0.0 0.0 0.0
      vertex 2.3684757858670006e-16 0.5555555555555567 0.0
      vertex 0.4066948930938205 0.40669489309382006 0.0
    endloop
  endfacet
  facet normal 0.0 -0.0 -1.0
    outer loop
      vertex 3.3333333333333335 4.444444444444444 0.0
      vertex 3.3333333333333335 3.888888888888888 0.0
      vertex 2.864613164213789 4.145180480780659 0.0
    endloop
  endfacet
  facet normal -0.0 0.0 -1.0
    outer loop
      vertex 3.3333333333333335 4.444444444444444 0.0
      vertex 2.864613164213789 4.145180480780659 0.0
      vertex 2.9266384402395125 4.593305106906179 0.0
    endloop
  endfacet
  facet normal 0.0 -0.0 -1.0
    outer loop
      vertex 3.3333333333333335 3.888888888888888 0.0
      vertex 3.3333333333333335 3.3333333333333304 0.0
      vertex 2.8542756182095017 3.6075300801301076 0.0
    endloop
  endfacet
  facet normal 0.0 -0.0 -1.0
    outer loop
      vertex 2.864613164213789 4.145180480780659 0.0
      vertex 3.3333333333333335 3.888888888888888 0.0
      vertex 2.8542756182095017 3.6075300801301076 0.0
    endloop
  endfacet
  facet normal 0.0 -0.0 -1.0
    outer loop
      vertex 3.3333333333333335 3.3333333333333304 0.0
      vertex 3.3333333333333335 2.777777777777773 0.0
      vertex 2.8522081090086444 3.055555555555552 0.0
    endloop
  endfacet
  facet normal -0.0 0.0 -1.0
    outer loop
      vertex 3.3333333333333335 3.3333333333333304 0.0
      vertex 2.8522081090086444 3.055555555555552 0.0
      vertex 2.8542756182095017 3.6075300801301076 0.0
    endloop
  endfacet
  facet normal 0.0 -0.0 -1.0
    outer loop
      vertex 3.3333333333333335 2.777777777777773 0.0
      vertex 3.3333333333333335 2.2222222222222174 0.0
      vertex 2.852208109008645 2.4999999999999956 0.0
    endloop
  endfacet
  facet normal 0.0 0.0 -1.0
    outer loop
      vertex 2.8522081090086444 3.055555555555552 0.0
      vertex 3.3333333333333335 2.777777777777773 0.0
      vertex 2.852208109008645 2.4999999999999956 0.0
    endloop
  endfacet
  facet normal 0.0 -0.0 -1.0
    outer loop
      vertex 3.3333333333333335 2.2222222222222174 0.0
      vertex 3.3333333333333335 1.6666666666666639 0.0
      vertex 2.852208109008646 1.9444444444444404 0.0
    endloop
  endfacet
  facet normal -0.0 0.0 -1.0
    outer loop
      vertex 3.3333333333333335 2.2222222222222174 0.0
      vertex 2.852208109008646 1.9444444444444404 0.0
      vertex 2.852208109008645 2.4999999999999956 0.0
    endloop
  endfacet
  facet normal 0.0 -0.0 -1.0
    outer loop
      vertex 3.3333333333333335 1.6666666666666639 0.0
      vertex 3.3333333333333335 1.11111111111111 0.0
      vertex 2.852208109008648 1.388888888888887 0.0
    endloop
  endfacet
  facet normal 0.0 0.0 -1.0
    outer loop
      vertex 2.852208109008646 1.9444444444444404 0.0
      vertex 3.3333333333333335 1.6666666666666639 0.0
      vertex 2.852208109008648 1.388888888888887 0.0
    endloop
  endfacet
  facet normal 0.0 -0.0 -1.0
    outer loop
      vertex 3.3333333333333335 1.11111111111111 0.0
      vertex 3.3333333333333335 0.5555555555555567 0.0
      vertex 2.8775034136186743 0.8373877823488953 0.0
    endloop
  endfacet
  facet normal 0.0 0.0 -1.0
    outer loop
      vertex 2.852208109008648 1.388888888888887 0.0
      vertex 3.3333333333333335 1.11111111111111 0.0
      vertex 2.8775034136186743 0.8373877823488953 0.0
    endloop
  endfacet
  facet normal 0.0 0.0 -1.0
    outer loop
      vertex 2.8775034136186743 0.8373877823488953 0.0
      vertex 3.3333333333333335 0.5555555555555567 0.0
      vertex 2.926638440239512 0.40669489309382173 0.0
    endloop
  endfacet
  facet normal 0.0 0.0 -1.0
    outer loop
      vertex 0.5555555555555548 5.0 0.0
      vertex 1.1111111111111085 5.0 0.0
      vertex 0.836904887722547 4.541874858616037 0.0
    endloop
  endfacet
  facet normal 0.0 -0.0 -1.0
    outer loop
      vertex 0.5555555555555548 5.0 0.0
      vertex 0.836904887722547 4.541874858616037 0.0
      vertex 0.406694893093821 4.593305106906178 0.0
    endloop
  endfacet
  facet normal 0.0 0.0 -1.0
    outer loop
      vertex 1.1111111111111085 5.0 0.0
      vertex 1.6666666666666645 5.0 0.0
      vertex 1.4085605124650171 4.470997887281539 0.0
    endloop
  endfacet
  facet normal 0.0 -0.0 -1.0
    outer loop
      vertex 1.1111111111111085 5.0 0.0
      vertex 1.4085605124650171 4.470997887281539 0.0
      vertex 0.836904887722547 4.541874858616037 0.0
    endloop
  endfacet
  facet normal 0.0 0.0 -1.0
    outer loop
      vertex 1.6666666666666645 5.0 0.0
      vertex 2.222222222222221 5.0 0.0
      vertex 1.9444444444444424 4.627848343845662 0.0
    endloop
  endfacet
  facet normal 0.0 0.0 -1.0
    outer loop
      vertex 1.4085605124650171 4.470997887281539 0.0
      vertex 1.6666666666666645 5.0 0.0
      vertex 1.9444444444444424 4.627848343845662 0.0
    endloop
  endfacet
  facet normal 0.0 0.0 -1.0
    outer loop
      vertex 2.222222222222221 5.0 0.0
      vertex 2.7777777777777772 5.0 0.0
      vertex 2.4284498125726617 4.48824451680146 0.0
    endloop
  endfacet
  facet normal 0.0 -0.0 -1.0
    outer loop
      vertex 2.222222222222221 5.0 0.0
      vertex 2.4284498125726617 4.48824451680146 0.0
      vertex 1.9444444444444424 4.627848343845662 0.0
    endloop
  endfacet
  facet normal 0.0 0.0 -1.0
    outer loop
      vertex 2.4284498125726617 4.48824451680146 0.0
      vertex 2.7777777777777772 5.0 0.0
      vertex 2.9266384402395125 4.593305106906179 0.0
    endloop
  endfacet
  facet normal 0.0 0.0 -1.0
    outer loop
      vertex 1.1111111111111085 0.0 0.0
      vertex 0.5555555555555548 0.0 0.0
      vertex 0.8480148865375765 0.4634710097611034 0.0
    endloop
  endfacet
  facet normal 0.0 0.0 -1.0
    outer loop
      vertex 0.8480148865375765 0.4634710097611034 0.0
      vertex 0.5555555555555548 0.0 0.0
      vertex 0.4066948930938205 0.40669489309382006 0.0
    endloop
  endfacet
  facet normal 0.0 0.0 -1.0
    outer loop
      vertex 1.6666666666666645 0.0 0.0
      vertex 1.1111111111111085 0.0 0.0
      vertex 1.4005858341188568 0.5583823133838001 0.0
    endloop
  endfacet
  facet normal 0.0 0.0 -1.0
    outer loop
      vertex 1.4005858341188568 0.5583823133838001 0.0
      vertex 1.1111111111111085 0.0 0.0
      vertex 0.8480148865375765 0.4634710097611034 0.0
    endloop
  endfacet
  facet normal 0.0 0.0 -1.0
    outer loop
      vertex 2.222222222222221 0.0 0.0
      vertex 1.6666666666666645 0.0 0.0
      vertex 1.9943460134090882 0.49913771089721665 0.0
    endloop
  endfacet
  facet normal 0.0 0.0 -1.0
    outer loop
      vertex 1.6666666666666645 0.0 0.0
      vertex 1.4005858341188568 0.5583823133838001 0.0
      vertex 1.9943460134090882 0.49913771089721665 0.0
    endloop
  endfacet
  facet normal 0.0 0.0 -1.0
    outer loop
      vertex 2.7777777777777772 0.0 0.0
      vertex 2.222222222222221 0.0 0.0
      vertex 2.5183504763509976 0.4765846589842567 0.0
    endloop
  endfacet
  facet normal -0.0 0.0 -1.0
    outer loop
      vertex 2.5183504763509976 0.4765846589842567 0.0
      vertex 2.222222222222221 0.0 0.0
      vertex 1.9943460134090882 0.49913771089721665 0.0
    endloop
  endfacet
  facet normal 0.0 0.0 -1.0
    outer loop
      vertex 2.7777777777777772 0.0 0.0
      vertex 2.5183504763509976 0.4765846589842567 0.0
      vertex 2.926638440239512 0.40669489309382173 0.0
    endloop
  endfacet
  facet normal 0.0 0.0 -1.0
    outer loop
      vertex 0.0 3.8888888888888884 0.0
      vertex 0.0 4.444444444444444 0.0
      vertex 0.5043603004785472 4.125419249050811 0.0
    endloop
  endfacet
  facet normal 0.0 0.0 -1.0
    outer loop
      vertex 0.5043603004785472 4.125419249050811 0.0
      vertex 0.0 4.444444444444444 0.0
      vertex 0.406694893093821 4.593305106906178 0.0
    endloop
  endfacet
  facet normal 0.0 0.0 -1.0
    outer loop
      vertex 0.0 3.333333333333331 0.0
      vertex 0.0 3.8888888888888884 0.0
      vertex 0.3826385473026252 3.6028616275879397 0.0
    endloop
  endfacet
  facet normal 0.0 0.0 -1.0
    outer loop
      vertex 0.0 3.8888888888888884 0.0
      vertex 0.5043603004785472 4.125419249050811 0.0
      vertex 0.3826385473026252 3.6028616275879397 0.0
    endloop
  endfacet
  facet normal 0.0 0.0 -1.0
    outer loop
      vertex 0.0 2.7777777777777732 0.0
      vertex 0.0 3.333333333333331 0.0
      vertex 0.48112522432468885 3.055555555555552 0.0
    endloop
  endfacet
  facet normal 0.0 0.0 -1.0
    outer loop
      vertex 0.48112522432468885 3.055555555555552 0.0
      vertex 0.0 3.333333333333331 0.0
      vertex 0.3826385473026252 3.6028616275879397 0.0
    endloop
  endfacet
  facet normal 0.0 0.0 -1.0
    outer loop
      vertex 0.0 2.2222222222222174 0.0
      vertex 0.0 2.7777777777777732 0.0
      vertex 0.3779915320718525 2.4999999999999973 0.0
    endloop
  endfacet
  facet normal 0.0 0.0 -1.0
    outer loop
      vertex 0.0 2.7777777777777732 0.0
      vertex 0.48112522432468885 3.055555555555552 0.0
      vertex 0.3779915320718525 2.4999999999999973 0.0
    endloop
  endfacet
  facet normal 0.0 0.0 -1.0
    outer loop
      vertex 2.3684757858670006e-16 1.6666666666666639 0.0
      vertex 0.0 2.2222222222222174 0.0
      vertex 0.48112522432468646 1.944444444444441 0.0
    endloop
  endfacet
  facet normal 0.0 0.0 -1.0
    outer loop
      vertex 0.48112522432468646 1.944444444444441 0.0
      vertex 0.0 2.2222222222222174 0.0
      vertex 0.3779915320718525 2.4999999999999973 0.0
    endloop
  endfacet
  facet normal 0.0 0.0 -1.0
    outer loop
      vertex 2.3684757858670006e-16 1.1111111111111103 0.0
      vertex 2.3684757858670006e-16 1.6666666666666639 0.0
      vertex 0.3826385473026273 1.3971383724120565 0.0
    endloop
  endfacet
  facet normal 0.0 0.0 -1.0
    outer loop
      vertex 2.3684757858670006e-16 1.6666666666666639 0.0
      vertex 0.48112522432468646 1.944444444444441 0.0
      vertex 0.3826385473026273 1.3971383724120565 0.0
    endloop
  endfacet
  facet normal 0.0 0.0 -1.0
    outer loop
      vertex 2.3684757858670006e-16 0.5555555555555567 0.0
      vertex 2.3684757858670006e-16 1.1111111111111103 0.0
      vertex 0.5043603004785497 0.8745807509491875 0.0
    endloop
  endfacet
  facet normal 0.0 0.0 -1.0
    outer loop
      vertex 0.5043603004785497 0.8745807509491875 0.0
      vertex 2.3684757858670006e-16 1.1111111111111103 0.0
      vertex 0.3826385473026273 1.3971383724120565 0.0
    endloop
  endfacet
  facet normal 0.0 0.0 -1.0
    outer loop
      vertex 2.3684757858670006e-16 0.5555555555555567 0.0
      vertex 0.5043603004785497 0.8745807509491875 0.0
      vertex 0.4066948930938205 0.40669489309382006 0.0
    endloop
  endfacet
  facet normal 0.0 -0.0 -1.0
    outer loop
      vertex 2.852208109008645 2.4999999999999956 0.0
      vertex 2.852208109008646 1.9444444444444404 0.0
      vertex 2.3710828846839584 2.2222222222222165 0.0
    endloop
  endfacet
  facet normal 0.0 0.0 -1.0
    outer loop
      vertex 2.3710828846839584 2.2222222222222165 0.0
      vertex 2.852208109008646 1.9444444444444404 0.0
      vertex 2.3710828846839602 1.6666666666666623 0.0
    endloop
  endfacet
  facet normal 0.0 0.0 -1.0
    outer loop
      vertex 2.3710828846839602 1.6666666666666623 0.0
      vertex 2.852208109008646 1.9444444444444404 0.0
      vertex 2.852208109008648 1.388888888888887 0.0
    endloop
  endfacet
  facet normal 0.0 0.0 -1.0
    outer loop
      vertex 0.9277072117098899 3.611111111111114 0.0
      vertex 0.48112522432468885 3.055555555555552 0.0
      vertex 0.3826385473026252 3.6028616275879397 0.0
    endloop
  endfacet
  facet normal 0.0 0.0 -1.0
    outer loop
      vertex 0.48112522432468885 3.055555555555552 0.0
      vertex 0.9277072117098899 3.611111111111114 0.0
      vertex 1.0357920849298299 3.0550417369081706 0.0
    endloop
  endfacet
  facet normal 0.0 -0.0 -1.0
    outer loop
      vertex 0.48112522432468885 3.055555555555552 0.0
      vertex 0.9277072117098885 2.5000000000000004 0.0
      vertex 0.3779915320718525 2.4999999999999973 0.0
    endloop
  endfacet
  facet normal 0.0 0.0 -1.0
    outer loop
      vertex 0.9277072117098885 2.5000000000000004 0.0
      vertex 0.48112522432468885 3.055555555555552 0.0
      vertex 1.0357920849298299 3.0550417369081706 0.0
    endloop
  endfacet
  facet normal 0.0 -0.0 -1.0
    outer loop
      vertex 0.48112522432468646 1.944444444444441 0.0
      vertex 0.9277072117099 1.3888888888888795 0.0
      vertex 0.3826385473026273 1.3971383724120565 0.0
    endloop
  endfacet
  facet normal 0.0 0.0 -1.0
    outer loop
      vertex 0.9277072117099 1.3888888888888795 0.0
      vertex 0.48112522432468646 1.944444444444441 0.0
      vertex 1.0351408258194679 1.9450560370765966 0.0
    endloop
  endfacet
  facet normal 0.0 0.0 -1.0
    outer loop
      vertex 0.48112522432468646 1.944444444444441 0.0
      vertex 0.9277072117098885 2.5000000000000004 0.0
      vertex 1.0351408258194679 1.9450560370765966 0.0
    endloop
  endfacet
  facet normal 0.0 0.0 -1.0
    outer loop
      vertex 0.9277072117098885 2.5000000000000004 0.0
      vertex 0.48112522432468646 1.944444444444441 0.0
      vertex 0.3779915320718525 2.4999999999999973 0.0
    endloop
  endfacet
  facet normal 0.0 -0.0 -1.0
    outer loop
      vertex 2.8522081090086444 3.055555555555552 0.0
      vertex 2.852208109008645 2.4999999999999956 0.0
      vertex 2.3718249170595067 2.7774046140496487 0.0
    endloop
  endfacet
  facet normal 0.0 0.0 -1.0
    outer loop
      vertex 2.8542756182095017 3.6075300801301076 0.0
      vertex 2.8522081090086444 3.055555555555552 0.0
      vertex 2.3728686432461137 3.3316936935265034 0.0
    endloop
  endfacet
  facet normal 0.0 -0.0 -1.0
    outer loop
      vertex 2.3728686432461137 3.3316936935265034 0.0
      vertex 2.8522081090086444 3.055555555555552 0.0
      vertex 2.3718249170595067 2.7774046140496487 0.0
    endloop
  endfacet
  facet normal 0.0 0.0 -1.0
    outer loop
      vertex 1.406417981274754 1.1454451306890054 0.0
      vertex 1.4005858341188568 0.5583823133838001 0.0
      vertex 1.0174172428239274 0.8861536187343954 0.0
    endloop
  endfacet
  facet normal 0.0 0.0 -1.0
    outer loop
      vertex 1.4005858341188568 0.5583823133838001 0.0
      vertex 1.406417981274754 1.1454451306890054 0.0
      vertex 1.810627070112861 0.9282641637298603 0.0
    endloop
  endfacet
  facet normal 0.0 0.0 -1.0
    outer loop
      vertex 1.9943460134090882 0.49913771089721665 0.0
      vertex 1.4005858341188568 0.5583823133838001 0.0
      vertex 1.810627070112861 0.9282641637298603 0.0
    endloop
  endfacet
  facet normal -0.0 0.0 -1.0
    outer loop
      vertex 1.4005858341188568 0.5583823133838001 0.0
      vertex 0.8480148865375765 0.4634710097611034 0.0
      vertex 1.0174172428239274 0.8861536187343954 0.0
    endloop
  endfacet
  facet normal 0.0 0.0 -1.0
    outer loop
      vertex 1.4085605124650171 4.470997887281539 0.0
      vertex 1.908956640771265 4.1619669612232855 0.0
      vertex 1.4209862528360724 3.877669727400831 0.0
    endloop
  endfacet
  facet normal 0.0 0.0 -1.0
    outer loop
      vertex 1.908956640771265 4.1619669612232855 0.0
      vertex 1.4085605124650171 4.470997887281539 0.0
      vertex 1.9444444444444424 4.627848343845662 0.0
    endloop
  endfacet
  facet normal 0.0 -0.0 -1.0
    outer loop
      vertex 1.4085605124650171 4.470997887281539 0.0
      vertex 1.4209862528360724 3.877669727400831 0.0
      vertex 1.0197038330424149 4.125414566692066 0.0
    endloop
  endfacet
  facet normal 0.0 0.0 -1.0
    outer loop
      vertex 0.836904887722547 4.541874858616037 0.0
      vertex 1.4085605124650171 4.470997887281539 0.0
      vertex 1.0197038330424149 4.125414566692066 0.0
    endloop
  endfacet
  facet normal 0.0 -0.0 -1.0
    outer loop
      vertex 2.3241159691596653 1.0298381231948814 0.0
      vertex 2.5183504763509976 0.4765846589842567 0.0
      vertex 1.9943460134090882 0.49913771089721665 0.0
    endloop
  endfacet
  facet normal 0.0 0.0 -1.0
    outer loop
      vertex 2.5183504763509976 0.4765846589842567 0.0
      vertex 2.3241159691596653 1.0298381231948814 0.0
      vertex 2.8775034136186743 0.8373877823488953 0.0
    endloop
  endfacet
  facet normal 0.0 0.0 -1.0
    outer loop
      vertex 2.5183504763509976 0.4765846589842567 0.0
      vertex 2.8775034136186743 0.8373877823488953 0.0
      vertex 2.926638440239512 0.40669489309382173 0.0
    endloop
  endfacet
  facet normal 0.0 0.0 -1.0
    outer loop
      vertex 2.864613164213789 4.145180480780659 0.0
      vertex 2.8542756182095017 3.6075300801301076 0.0
      vertex 2.3734949787516233 3.884711019411053 0.0
    endloop
  endfacet
  facet normal -0.0 0.0 -1.0
    outer loop
      vertex 2.864613164213789 4.145180480780659 0.0
      vertex 2.3734949787516233 3.884711019411053 0.0
      vertex 2.4284498125726617 4.48824451680146 0.0
    endloop
  endfacet
  facet normal 0.0 0.0 -1.0
    outer loop
      vertex 2.864613164213789 4.145180480780659 0.0
      vertex 2.4284498125726617 4.48824451680146 0.0
      vertex 2.9266384402395125 4.593305106906179 0.0
    endloop
  endfacet
  facet normal -0.0 0.0 -1.0
    outer loop
      vertex 0.9277072117099 1.3888888888888795 0.0
      vertex 0.5043603004785497 0.8745807509491875 0.0
      vertex 0.3826385473026273 1.3971383724120565 0.0
    endloop
  endfacet
  facet normal 0.0 0.0 -1.0
    outer loop
      vertex 0.5043603004785497 0.8745807509491875 0.0
      vertex 0.9277072117099 1.3888888888888795 0.0
      vertex 1.0174172428239274 0.8861536187343954 0.0
    endloop
  endfacet
  facet normal 0.0 0.0 -1.0
    outer loop
      vertex 0.8480148865375765 0.4634710097611034 0.0
      vertex 0.5043603004785497 0.8745807509491875 0.0
      vertex 1.0174172428239274 0.8861536187343954 0.0
    endloop
  endfacet
  facet normal 0.0 -0.0 -1.0
    outer loop
      vertex 0.5043603004785497 0.8745807509491875 0.0
      vertex 0.8480148865375765 0.4634710097611034 0.0
      vertex 0.4066948930938205 0.40669489309382006 0.0
    endloop
  endfacet
  facet normal 0.0 -0.0 -1.0
    outer loop
      vertex 0.5043603004785472 4.125419249050811 0.0
      vertex 0.9277072117098899 3.611111111111114 0.0
      vertex 0.3826385473026252 3.6028616275879397 0.0
    endloop
  endfacet
  facet normal 0.0 0.0 -1.0
    outer loop
      vertex 0.9277072117098899 3.611111111111114 0.0
      vertex 0.5043603004785472 4.125419249050811 0.0
      vertex 1.0197038330424149 4.125414566692066 0.0
    endloop
  endfacet
  facet normal 0.0 0.0 -1.0
    outer loop
      vertex 0.5043603004785472 4.125419249050811 0.0
      vertex 0.836904887722547 4.541874858616037 0.0
      vertex 1.0197038330424149 4.125414566692066 0.0
    endloop
  endfacet
  facet normal -0.0 0.0 -1.0
    outer loop
      vertex 0.836904887722547 4.541874858616037 0.0
      vertex 0.5043603004785472 4.125419249050811 0.0
      vertex 0.406694893093821 4.593305106906178 0.0
    endloop
  endfacet
  facet normal -0.0 0.0 -1.0
    outer loop
      vertex 2.852208109008645 2.4999999999999956 0.0
      vertex 2.3710828846839584 2.2222222222222165 0.0
      vertex 2.3718249170595067 2.7774046140496487 0.0
    endloop
  endfacet
  facet normal 0.0 -0.0 -1.0
    outer loop
      vertex 2.3710828846839584 2.2222222222222165 0.0
      vertex 2.3710828846839602 1.6666666666666623 0.0
      vertex 1.8899576603592712 1.944444444444439 0.0
    endloop
  endfacet
  facet normal -0.0 0.0 -1.0
    outer loop
      vertex 2.3710828846839584 2.2222222222222165 0.0
      vertex 1.8899576603592712 1.944444444444439 0.0
      vertex 1.8899576603592674 2.499999999999998 0.0
    endloop
  endfacet
  facet normal 0.0 0.0 -1.0
    outer loop
      vertex 2.3710828846839584 2.2222222222222165 0.0
      vertex 1.8899576603592674 2.499999999999998 0.0
      vertex 2.3718249170595067 2.7774046140496487 0.0
    endloop
  endfacet
  facet normal 0.0 -0.0 -1.0
    outer loop
      vertex 1.8899576603592712 1.944444444444439 0.0
      vertex 2.3710828846839602 1.6666666666666623 0.0
      vertex 1.8806538689554155 1.4050035283033895 0.0
    endloop
  endfacet
  facet normal 0.0 0.0 -1.0
    outer loop
      vertex 1.8806538689554155 1.4050035283033895 0.0
      vertex 2.3710828846839602 1.6666666666666623 0.0
      vertex 2.3241159691596653 1.0298381231948814 0.0
    endloop
  endfacet
  facet normal 0.0 0.0 -1.0
    outer loop
      vertex 2.3241159691596653 1.0298381231948814 0.0
      vertex 2.3710828846839602 1.6666666666666623 0.0
      vertex 2.852208109008648 1.388888888888887 0.0
    endloop
  endfacet
  facet normal 0.0 -0.0 -1.0
    outer loop
      vertex 1.8899576603592674 2.499999999999998 0.0
      vertex 1.8899576603592712 1.944444444444439 0.0
      vertex 1.422072963687787 2.2225944121472514 0.0
    endloop
  endfacet
  facet normal 0.0 0.0 -1.0
    outer loop
      vertex 1.8899576603592712 1.944444444444439 0.0
      vertex 1.8806538689554155 1.4050035283033895 0.0
      vertex 1.4170915176650771 1.6693524399024113 0.0
    endloop
  endfacet
  facet normal -0.0 0.0 -1.0
    outer loop
      vertex 1.8899576603592712 1.944444444444439 0.0
      vertex 1.4170915176650771 1.6693524399024113 0.0
      vertex 1.422072963687787 2.2225944121472514 0.0
    endloop
  endfacet
  facet normal 0.0 0.0 -1.0
    outer loop
      vertex 1.8926240960504128 3.0549562129936243 0.0
      vertex 1.8899576603592674 2.499999999999998 0.0
      vertex 1.4211582391365056 2.7773251440922264 0.0
    endloop
  endfacet
  facet normal 0.0 0.0 -1.0
    outer loop
      vertex 1.8899576603592674 2.499999999999998 0.0
      vertex 1.8926240960504128 3.0549562129936243 0.0
      vertex 2.3718249170595067 2.7774046140496487 0.0
    endloop
  endfacet
  facet normal 0.0 0.0 -1.0
    outer loop
      vertex 1.4211582391365056 2.7773251440922264 0.0
      vertex 1.8899576603592674 2.499999999999998 0.0
      vertex 1.422072963687787 2.2225944121472514 0.0
    endloop
  endfacet
  facet normal 0.0 -0.0 -1.0
    outer loop
      vertex 1.4170915176650771 1.6693524399024113 0.0
      vertex 1.8806538689554155 1.4050035283033895 0.0
      vertex 1.406417981274754 1.1454451306890054 0.0
    endloop
  endfacet
  facet normal 0.0 -0.0 -1.0
    outer loop
      vertex 1.8806538689554155 1.4050035283033895 0.0
      vertex 2.3241159691596653 1.0298381231948814 0.0
      vertex 1.810627070112861 0.9282641637298603 0.0
    endloop
  endfacet
  facet normal 0.0 0.0 -1.0
    outer loop
      vertex 1.406417981274754 1.1454451306890054 0.0
      vertex 1.8806538689554155 1.4050035283033895 0.0
      vertex 1.810627070112861 0.9282641637298603 0.0
    endloop
  endfacet
  facet normal 0.0 0.0 -1.0
    outer loop
      vertex 1.4170915176650771 1.6693524399024113 0.0
      vertex 1.406417981274754 1.1454451306890054 0.0
      vertex 0.9277072117099 1.3888888888888795 0.0
    endloop
  endfacet
  facet normal -0.0 0.0 -1.0
    outer loop
      vertex 1.4170915176650771 1.6693524399024113 0.0
      vertex 0.9277072117099 1.3888888888888795 0.0
      vertex 1.0351408258194679 1.9450560370765966 0.0
    endloop
  endfacet
  facet normal 0.0 0.0 -1.0
    outer loop
      vertex 1.422072963687787 2.2225944121472514 0.0
      vertex 1.4170915176650771 1.6693524399024113 0.0
      vertex 1.0351408258194679 1.9450560370765966 0.0
    endloop
  endfacet
  facet normal 0.0 0.0 -1.0
    outer loop
      vertex 2.3241159691596653 1.0298381231948814 0.0
      vertex 1.9943460134090882 0.49913771089721665 0.0
      vertex 1.810627070112861 0.9282641637298603 0.0
    endloop
  endfacet
  facet normal 0.0 0.0 -1.0
    outer loop
      vertex 2.3241159691596653 1.0298381231948814 0.0
      vertex 2.852208109008648 1.388888888888887 0.0
      vertex 2.8775034136186743 0.8373877823488953 0.0
    endloop
  endfacet
  facet normal 0.0 0.0 -1.0
    outer loop
      vertex 0.9277072117099 1.3888888888888795 0.0
      vertex 1.406417981274754 1.1454451306890054 0.0
      vertex 1.0174172428239274 0.8861536187343954 0.0
    endloop
  endfacet
  facet normal 0.0 -0.0 -1.0
    outer loop
      vertex 2.3734949787516233 3.884711019411053 0.0
      vertex 2.8542756182095017 3.6075300801301076 0.0
      vertex 2.3728686432461137 3.3316936935265034 0.0
    endloop
  endfacet
  facet normal 0.0 0.0 -1.0
    outer loop
      vertex 2.4284498125726617 4.48824451680146 0.0
      vertex 2.3734949787516233 3.884711019411053 0.0
      vertex 1.908956640771265 4.1619669612232855 0.0
    endloop
  endfacet
  facet normal 0.0 -0.0 -1.0
    outer loop
      vertex 1.908956640771265 4.1619669612232855 0.0
      vertex 2.3734949787516233 3.884711019411053 0.0
      vertex 1.8935261727725443 3.609631515290908 0.0
    endloop
  endfacet
  facet normal 0.0 0.0 -1.0
    outer loop
      vertex 1.8935261727725443 3.609631515290908 0.0
      vertex 2.3734949787516233 3.884711019411053 0.0
      vertex 2.3728686432461137 3.3316936935265034 0.0
    endloop
  endfacet
  facet normal -0.0 0.0 -1.0
    outer loop
      vertex 2.4284498125726617 4.48824451680146 0.0
      vertex 1.908956640771265 4.1619669612232855 0.0
      vertex 1.9444444444444424 4.627848343845662 0.0
    endloop
  endfacet
  facet normal 0.0 0.0 -1.0
    outer loop
      vertex 1.908956640771265 4.1619669612232855 0.0
      vertex 1.8935261727725443 3.609631515290908 0.0
      vertex 1.4209862528360724 3.877669727400831 0.0
    endloop
  endfacet
  facet normal 0.0 0.0 -1.0
    outer loop
      vertex 1.4209862528360724 3.877669727400831 0.0
      vertex 1.8935261727725443 3.609631515290908 0.0
      vertex 1.4212625377681767 3.3312168737819574 0.0
    endloop
  endfacet
  facet normal 0.0 0.0 -1.0
    outer loop
      vertex 1.4212625377681767 3.3312168737819574 0.0
      vertex 1.8935261727725443 3.609631515290908 0.0
      vertex 1.8926240960504128 3.0549562129936243 0.0
    endloop
  endfacet
  facet normal 0.0 0.0 -1.0
    outer loop
      vertex 1.8926240960504128 3.0549562129936243 0.0
      vertex 1.8935261727725443 3.609631515290908 0.0
      vertex 2.3728686432461137 3.3316936935265034 0.0
    endloop
  endfacet
  facet normal 0.0 -0.0 -1.0
    outer loop
      vertex 1.4209862528360724 3.877669727400831 0.0
      vertex 1.4212625377681767 3.3312168737819574 0.0
      vertex 0.9277072117098899 3.611111111111114 0.0
    endloop
  endfacet
  facet normal -0.0 0.0 -1.0
    outer loop
      vertex 1.4209862528360724 3.877669727400831 0.0
      vertex 0.9277072117098899 3.611111111111114 0.0
      vertex 1.0197038330424149 4.125414566692066 0.0
    endloop
  endfacet
  facet normal 0.0 0.0 -1.0
    outer loop
      vertex 0.9277072117098899 3.611111111111114 0.0
      vertex 1.4212625377681767 3.3312168737819574 0.0
      vertex 1.0357920849298299 3.0550417369081706 0.0
    endloop
  endfacet
  facet normal 0.0 -0.0 -1.0
    outer loop
      vertex 1.4212625377681767 3.3312168737819574 0.0
      vertex 1.8926240960504128 3.0549562129936243 0.0
      vertex 1.4211582391365056 2.7773251440922264 0.0
    endloop
  endfacet
  facet normal 0.0 0.0 -1.0
    outer loop
      vertex 1.4212625377681767 3.3312168737819574 0.0
      vertex 1.4211582391365056 2.7773251440922264 0.0
      vertex 1.0357920849298299 3.0550417369081706 0.0
    endloop
  endfacet
  facet normal 0.0 0.0 -1.0
    outer loop
      vertex 1.8926240960504128 3.0549562129936243 0.0
      vertex 2.3728686432461137 3.3316936935265034 0.0
      vertex 2.3718249170595067 2.7774046140496487 0.0
    endloop
  endfacet
  facet normal 0.0 -0.0 -1.0
    outer loop
      vertex 1.4211582391365056 2.7773251440922264 0.0
      vertex 1.422072963687787 2.2225944121472514 0.0
      vertex 0.9277072117098885 2.5000000000000004 0.0
    endloop
  endfacet
  facet normal -0.0 0.0 -1.0
    outer loop
      vertex 1.4211582391365056 2.7773251440922264 0.0
      vertex 0.9277072117098885 2.5000000000000004 0.0
      vertex 1.0357920849298299 3.0550417369081706 0.0
    endloop
  endfacet
  facet normal 0.0 0.0 -1.0
    outer loop
      vertex 0.9277072117098885 2.5000000000000004 0.0
      vertex 1.422072963687787 2.2225944121472514 0.0
      vertex 1.0351408258194679 1.9450560370765966 0.0
    endloop
  endfacet
  facet normal 0.0 0.0 1.0
    outer loop
      vertex 3.3333333333333335 5.0 0.15
      vertex 2.9266384402395125 4.593305106906179 0.15
      vertex 3.3333333333333335 4.444444444444444 0.15
    endloop
  endfacet
  facet normal -0.0 0.0 1.0
    outer loop
      vertex 2.7777777777777772 5.0 0.15
      vertex 2.9266384402395125 4.593305106906179 0.15
      vertex 3.3333333333333335 5.0 0.15
    endloop
  endfacet
  facet normal 0.0 0.0 1.0
    outer loop
      vertex 3.3333333333333335 0.5555555555555567 0.15
      vertex 2.926638440239512 0.40669489309382173 0.15
      vertex 3.3333333333333335 0.0 0.15
    endloop
  endfacet
  facet normal 0.0 0.0 1.0
    outer loop
      vertex 3.3333333333333335 0.0 0.15
      vertex 2.926638440239512 0.40669489309382173 0.15
      vertex 2.7777777777777772 0.0 0.15
    endloop
  endfacet
  facet normal -0.0 0.0 1.0
    outer loop
      vertex 0.0 5.0 0.15
      vertex 0.406694893093821 4.593305106906178 0.15
      vertex 0.5555555555555548 5.0 0.15
    endloop
  endfacet
  facet normal 0.0 0.0 1.0
    outer loop
      vertex 0.0 4.444444444444444 0.15
      vertex 0.406694893093821 4.593305106906178 0.15
      vertex 0.0 5.0 0.15
    endloop
  endfacet
  facet normal 0.0 0.0 1.0
    outer loop
      vertex 0.5555555555555548 0.0 0.15
      vertex 0.4066948930938205 0.40669489309382006 0.15
      vertex 0.0 0.0 0.15
    endloop
  endfacet
  facet normal 0.0 0.0 1.0
    outer loop
      vertex 0.0 0.0 0.15
      vertex 0.4066948930938205 0.40669489309382006 0.15
      vertex 2.3684757858670006e-16 0.5555555555555567 0.15
    endloop
  endfacet
  facet normal 0.0 0.0 1.0
    outer loop
      vertex 3.3333333333333335 4.444444444444444 0.15
      vertex 2.864613164213789 4.145180480780659 0.15
      vertex 3.3333333333333335 3.888888888888888 0.15
    endloop
  endfacet
  facet normal 0.0 0.0 1.0
    outer loop
      vertex 3.3333333333333335 4.444444444444444 0.15
      vertex 2.9266384402395125 4.593305106906179 0.15
      vertex 2.864613164213789 4.145180480780659 0.15
    endloop
  endfacet
  facet normal 0.0 0.0 1.0
    outer loop
      vertex 3.3333333333333335 3.888888888888888 0.15
      vertex 2.8542756182095017 3.607530080130108 0.15
      vertex 3.3333333333333335 3.3333333333333304 0.15
    endloop
  endfacet
  facet normal 0.0 0.0 1.0
    outer loop
      vertex 2.864613164213789 4.145180480780659 0.15
      vertex 2.8542756182095017 3.607530080130108 0.15
      vertex 3.3333333333333335 3.888888888888888 0.15
    endloop
  endfacet
  facet normal 0.0 0.0 1.0
    outer loop
      vertex 3.3333333333333335 3.3333333333333304 0.15
      vertex 2.852208109008644 3.0555555555555522 0.15
      vertex 3.3333333333333335 2.777777777777773 0.15
    endloop
  endfacet
  facet normal 0.0 0.0 1.0
    outer loop
      vertex 3.3333333333333335 3.3333333333333304 0.15
      vertex 2.8542756182095017 3.607530080130108 0.15
      vertex 2.852208109008644 3.0555555555555522 0.15
    endloop
  endfacet
  facet normal 0.0 0.0 1.0
    outer loop
      vertex 3.3333333333333335 2.777777777777773 0.15
      vertex 2.852208109008645 2.499999999999996 0.15
      vertex 3.3333333333333335 2.2222222222222174 0.15
    endloop
  endfacet
  facet normal 0.0 0.0 1.0
    outer loop
      vertex 2.852208109008644 3.0555555555555522 0.15
      vertex 2.852208109008645 2.499999999999996 0.15
      vertex 3.3333333333333335 2.777777777777773 0.15
    endloop
  endfacet
  facet normal 0.0 0.0 1.0
    outer loop
      vertex 3.3333333333333335 2.2222222222222174 0.15
      vertex 2.852208109008646 1.9444444444444404 0.15
      vertex 3.3333333333333335 1.6666666666666639 0.15
    endloop
  endfacet
  facet normal 0.0 0.0 1.0
    outer loop
      vertex 3.3333333333333335 2.2222222222222174 0.15
      vertex 2.852208109008645 2.499999999999996 0.15
      vertex 2.852208109008646 1.9444444444444404 0.15
    endloop
  endfacet
  facet normal 0.0 0.0 1.0
    outer loop
      vertex 3.3333333333333335 1.6666666666666639 0.15
      vertex 2.852208109008648 1.388888888888887 0.15
      vertex 3.3333333333333335 1.11111111111111 0.15
    endloop
  endfacet
  facet normal 0.0 0.0 1.0
    outer loop
      vertex 2.852208109008646 1.9444444444444404 0.15
      vertex 2.852208109008648 1.388888888888887 0.15
      vertex 3.3333333333333335 1.6666666666666639 0.15
    endloop
  endfacet
  facet normal 0.0 0.0 1.0
    outer loop
      vertex 3.3333333333333335 1.11111111111111 0.15
      vertex 2.8775034136186743 0.8373877823488953 0.15
      vertex 3.3333333333333335 0.5555555555555567 0.15
    endloop
  endfacet
  facet normal 0.0 0.0 1.0
    outer loop
      vertex 2.852208109008648 1.388888888888887 0.15
      vertex 2.8775034136186743 0.8373877823488953 0.15
      vertex 3.3333333333333335 1.11111111111111 0.15
    endloop
  endfacet
  facet normal 0.0 0.0 1.0
    outer loop
      vertex 2.8775034136186743 0.8373877823488953 0.15
      vertex 2.926638440239512 0.40669489309382173 0.15
      vertex 3.3333333333333335 0.5555555555555567 0.15
    endloop
  endfacet
  facet normal -0.0 0.0 1.0
    outer loop
      vertex 0.5555555555555548 5.0 0.15
      vertex 0.836904887722547 4.541874858616037 0.15
      vertex 1.1111111111111085 5.0 0.15
    endloop
  endfacet
  facet normal 0.0 0.0 1.0
    outer loop
      vertex 0.5555555555555548 5.0 0.15
      vertex 0.406694893093821 4.593305106906178 0.15
      vertex 0.836904887722547 4.541874858616037 0.15
    endloop
  endfacet
  facet normal -0.0 0.0 1.0
    outer loop
      vertex 1.1111111111111085 5.0 0.15
      vertex 1.4085605124650171 4.470997887281539 0.15
      vertex 1.6666666666666645 5.0 0.15
    endloop
  endfacet
  facet normal 0.0 0.0 1.0
    outer loop
      vertex 1.1111111111111085 5.0 0.15
      vertex 0.836904887722547 4.541874858616037 0.15
      vertex 1.4085605124650171 4.470997887281539 0.15
    endloop
  endfacet
  facet normal -0.0 0.0 1.0
    outer loop
      vertex 1.6666666666666645 5.0 0.15
      vertex 1.9444444444444424 4.627848343845662 0.15
      vertex 2.222222222222221 5.0 0.15
    endloop
  endfacet
  facet normal 0.0 0.0 1.0
    outer loop
      vertex 1.4085605124650171 4.470997887281539 0.15
      vertex 1.9444444444444424 4.627848343845662 0.15
      vertex 1.6666666666666645 5.0 0.15
    endloop
  endfacet
  facet normal -0.0 0.0 1.0
    outer loop
      vertex 2.222222222222221 5.0 0.15
      vertex 2.4284498125726617 4.48824451680146 0.15
      vertex 2.7777777777777772 5.0 0.15
    endloop
  endfacet
  facet normal 0.0 0.0 1.0
    outer loop
      vertex 2.222222222222221 5.0 0.15
      vertex 1.9444444444444424 4.627848343845662 0.15
      vertex 2.4284498125726617 4.48824451680146 0.15
    endloop
  endfacet
  facet normal 0.0 0.0 1.0
    outer loop
      vertex 2.4284498125726617 4.48824451680146 0.15
      vertex 2.9266384402395125 4.593305106906179 0.15
      vertex 2.7777777777777772 5.0 0.15
    endloop
  endfacet
  facet normal 0.0 0.0 1.0
    outer loop
      vertex 1.1111111111111085 0.0 0.15
      vertex 0.8480148865375765 0.4634710097611034 0.15
      vertex 0.5555555555555548 0.0 0.15
    endloop
  endfacet
  facet normal 0.0 0.0 1.0
    outer loop
      vertex 0.8480148865375765 0.4634710097611034 0.15
      vertex 0.4066948930938205 0.40669489309382006 0.15
      vertex 0.5555555555555548 0.0 0.15
    endloop
  endfacet
  facet normal 0.0 0.0 1.0
    outer loop
      vertex 1.6666666666666645 0.0 0.15
      vertex 1.4005858341188568 0.5583823133838001 0.15
      vertex 1.1111111111111085 0.0 0.15
    endloop
  endfacet
  facet normal 0.0 0.0 1.0
    outer loop
      vertex 1.4005858341188568 0.5583823133838001 0.15
      vertex 0.8480148865375765 0.4634710097611034 0.15
      vertex 1.1111111111111085 0.0 0.15
    endloop
  endfacet
  facet normal 0.0 0.0 1.0
    outer loop
      vertex 2.222222222222221 0.0 0.15
      vertex 1.9943460134090882 0.49913771089721665 0.15
      vertex 1.6666666666666645 0.0 0.15
    endloop
  endfacet
  facet normal 0.0 -0.0 1.0
    outer loop
      vertex 1.6666666666666645 0.0 0.15
      vertex 1.9943460134090882 0.49913771089721665 0.15
      vertex 1.4005858341188568 0.5583823133838001 0.15
    endloop
  endfacet
  facet normal 0.0 0.0 1.0
    outer loop
      vertex 2.7777777777777772 0.0 0.15
      vertex 2.5183504763509976 0.4765846589842567 0.15
      vertex 2.222222222222221 0.0 0.15
    endloop
  endfacet
  facet normal 0.0 0.0 1.0
    outer loop
      vertex 2.5183504763509976 0.4765846589842567 0.15
      vertex 1.9943460134090882 0.49913771089721665 0.15
      vertex 2.222222222222221 0.0 0.15
    endloop
  endfacet
  facet normal 0.0 -0.0 1.0
    outer loop
      vertex 2.7777777777777772 0.0 0.15
      vertex 2.926638440239512 0.40669489309382173 0.15
      vertex 2.5183504763509976 0.4765846589842567 0.15
    endloop
  endfacet
  facet normal 0.0 0.0 1.0
    outer loop
      vertex 0.0 3.8888888888888884 0.15
      vertex 0.5043603004785474 4.125419249050811 0.15
      vertex 0.0 4.444444444444444 0.15
    endloop
  endfacet
  facet normal 0.0 0.0 1.0
    outer loop
      vertex 0.5043603004785474 4.125419249050811 0.15
      vertex 0.406694893093821 4.593305106906178 0.15
      vertex 0.0 4.444444444444444 0.15
    endloop
  endfacet
  facet normal 0.0 0.0 1.0
    outer loop
      vertex 0.0 3.333333333333331 0.15
      vertex 0.3826385473026252 3.6028616275879393 0.15
      vertex 0.0 3.8888888888888884 0.15
    endloop
  endfacet
  facet normal -0.0 0.0 1.0
    outer loop
      vertex 0.0 3.8888888888888884 0.15
      vertex 0.3826385473026252 3.6028616275879393 0.15
      vertex 0.5043603004785474 4.125419249050811 0.15
    endloop
  endfacet
  facet normal 0.0 0.0 1.0
    outer loop
      vertex 0.0 2.7777777777777732 0.15
      vertex 0.48112522432468885 3.055555555555552 0.15
      vertex 0.0 3.333333333333331 0.15
    endloop
  endfacet
  facet normal 0.0 0.0 1.0
    outer loop
      vertex 0.48112522432468885 3.055555555555552 0.15
      vertex 0.3826385473026252 3.6028616275879393 0.15
      vertex 0.0 3.333333333333331 0.15
    endloop
  endfacet
  facet normal 0.0 0.0 1.0
    outer loop
      vertex 0.0 2.2222222222222174 0.15
      vertex 0.3779915320718525 2.4999999999999964 0.15
      vertex 0.0 2.7777777777777732 0.15
    endloop
  endfacet
  facet normal -0.0 0.0 1.0
    outer loop
      vertex 0.0 2.7777777777777732 0.15
      vertex 0.3779915320718525 2.4999999999999964 0.15
      vertex 0.48112522432468885 3.055555555555552 0.15
    endloop
  endfacet
  facet normal 0.0 -0.0 1.0
    outer loop
      vertex 2.3684757858670006e-16 1.6666666666666639 0.15
      vertex 0.48112522432468646 1.944444444444441 0.15
      vertex 0.0 2.2222222222222174 0.15
    endloop
  endfacet
  facet normal 0.0 0.0 1.0
    outer loop
      vertex 0.48112522432468646 1.944444444444441 0.15
      vertex 0.3779915320718525 2.4999999999999964 0.15
      vertex 0.0 2.2222222222222174 0.15
    endloop
  endfacet
  facet normal 0.0 0.0 1.0
    outer loop
      vertex 2.3684757858670006e-16 1.1111111111111103 0.15
      vertex 0.3826385473026271 1.3971383724120563 0.15
      vertex 2.3684757858670006e-16 1.6666666666666639 0.15
    endloop
  endfacet
  facet normal -0.0 0.0 1.0
    outer loop
      vertex 2.3684757858670006e-16 1.6666666666666639 0.15
      vertex 0.3826385473026271 1.3971383724120563 0.15
      vertex 0.48112522432468646 1.944444444444441 0.15
    endloop
  endfacet
  facet normal 0.0 0.0 1.0
    outer loop
      vertex 2.3684757858670006e-16 0.5555555555555567 0.15
      vertex 0.5043603004785495 0.8745807509491873 0.15
      vertex 2.3684757858670006e-16 1.1111111111111103 0.15
    endloop
  endfacet
  facet normal 0.0 0.0 1.0
    outer loop
      vertex 0.5043603004785495 0.8745807509491873 0.15
      vertex 0.3826385473026271 1.3971383724120563 0.15
      vertex 2.3684757858670006e-16 1.1111111111111103 0.15
    endloop
  endfacet
  facet normal -0.0 0.0 1.0
    outer loop
      vertex 2.3684757858670006e-16 0.5555555555555567 0.15
      vertex 0.4066948930938205 0.40669489309382006 0.15
      vertex 0.5043603004785495 0.8745807509491873 0.15
    endloop
  endfacet
  facet normal 0.0 0.0 1.0
    outer loop
      vertex 2.852208109008645 2.499999999999996 0.15
      vertex 2.3710828846839584 2.2222222222222165 0.15
      vertex 2.852208109008646 1.9444444444444404 0.15
    endloop
  endfacet
  facet normal 0.0 0.0 1.0
    outer loop
      vertex 2.3710828846839584 2.2222222222222165 0.15
      vertex 2.3710828846839602 1.666666666666662 0.15
      vertex 2.852208109008646 1.9444444444444404 0.15
    endloop
  endfacet
  facet normal -0.0 0.0 1.0
    outer loop
      vertex 2.3710828846839602 1.666666666666662 0.15
      vertex 2.852208109008648 1.388888888888887 0.15
      vertex 2.852208109008646 1.9444444444444404 0.15
    endloop
  endfacet
  facet normal 0.0 0.0 1.0
    outer loop
      vertex 0.9277072117098899 3.6111111111111134 0.15
      vertex 0.3826385473026252 3.6028616275879393 0.15
      vertex 0.48112522432468885 3.055555555555552 0.15
    endloop
  endfacet
  facet normal -0.0 0.0 1.0
    outer loop
      vertex 0.48112522432468885 3.055555555555552 0.15
      vertex 1.0357920849298297 3.05504173690817 0.15
      vertex 0.9277072117098899 3.6111111111111134 0.15
    endloop
  endfacet
  facet normal 0.0 0.0 1.0
    outer loop
      vertex 0.48112522432468885 3.055555555555552 0.15
      vertex 0.3779915320718525 2.4999999999999964 0.15
      vertex 0.9277072117098882 2.5000000000000004 0.15
    endloop
  endfacet
  facet normal 0.0 -0.0 1.0
    outer loop
      vertex 0.9277072117098882 2.5000000000000004 0.15
      vertex 1.0357920849298297 3.05504173690817 0.15
      vertex 0.48112522432468885 3.055555555555552 0.15
    endloop
  endfacet
  facet normal 0.0 0.0 1.0
    outer loop
      vertex 0.48112522432468646 1.944444444444441 0.15
      vertex 0.3826385473026271 1.3971383724120563 0.15
      vertex 0.9277072117098998 1.3888888888888788 0.15
    endloop
  endfacet
  facet normal 0.0 -0.0 1.0
    outer loop
      vertex 0.9277072117098998 1.3888888888888788 0.15
      vertex 1.0351408258194676 1.9450560370765964 0.15
      vertex 0.48112522432468646 1.944444444444441 0.15
    endloop
  endfacet
  facet normal 0.0 0.0 1.0
    outer loop
      vertex 0.48112522432468646 1.944444444444441 0.15
      vertex 1.0351408258194676 1.9450560370765964 0.15
      vertex 0.9277072117098882 2.5000000000000004 0.15
    endloop
  endfacet
  facet normal 0.0 0.0 1.0
    outer loop
      vertex 0.9277072117098882 2.5000000000000004 0.15
      vertex 0.3779915320718525 2.4999999999999964 0.15
      vertex 0.48112522432468646 1.944444444444441 0.15
    endloop
  endfacet
  facet normal 0.0 0.0 1.0
    outer loop
      vertex 2.852208109008644 3.0555555555555522 0.15
      vertex 2.3718249170595067 2.7774046140496487 0.15
      vertex 2.852208109008645 2.499999999999996 0.15
    endloop
  endfacet
  facet normal 0.0 0.0 1.0
    outer loop
      vertex 2.8542756182095017 3.607530080130108 0.15
      vertex 2.3728686432461132 3.3316936935265034 0.15
      vertex 2.852208109008644 3.0555555555555522 0.15
    endloop
  endfacet
  facet normal 0.0 0.0 1.0
    outer loop
      vertex 2.3728686432461132 3.3316936935265034 0.15
      vertex 2.3718249170595067 2.7774046140496487 0.15
      vertex 2.852208109008644 3.0555555555555522 0.15
    endloop
  endfacet
  facet normal 0.0 0.0 1.0
    outer loop
      vertex 1.406417981274754 1.145445130689005 0.15
      vertex 1.0174172428239274 0.8861536187343954 0.15
      vertex 1.4005858341188568 0.5583823133838001 0.15
    endloop
  endfacet
  facet normal 0.0 0.0 1.0
    outer loop
      vertex 1.4005858341188568 0.5583823133838001 0.15
      vertex 1.810627070112861 0.9282641637298601 0.15
      vertex 1.406417981274754 1.145445130689005 0.15
    endloop
  endfacet
  facet normal 0.0 0.0 1.0
    outer loop
      vertex 1.9943460134090882 0.49913771089721665 0.15
      vertex 1.810627070112861 0.9282641637298601 0.15
      vertex 1.4005858341188568 0.5583823133838001 0.15
    endloop
  endfacet
  facet normal 0.0 0.0 1.0
    outer loop
      vertex 1.4005858341188568 0.5583823133838001 0.15
      vertex 1.0174172428239274 0.8861536187343954 0.15
      vertex 0.8480148865375765 0.4634710097611034 0.15
    endloop
  endfacet
  facet normal 0.0 0.0 1.0
    outer loop
      vertex 1.4085605124650171 4.470997887281539 0.15
      vertex 1.4209862528360722 3.877669727400831 0.15
      vertex 1.908956640771265 4.1619669612232855 0.15
    endloop
  endfacet
  facet normal 0.0 -0.0 1.0
    outer loop
      vertex 1.908956640771265 4.1619669612232855 0.15
      vertex 1.9444444444444424 4.627848343845662 0.15
      vertex 1.4085605124650171 4.470997887281539 0.15
    endloop
  endfacet
  facet normal 0.0 0.0 1.0
    outer loop
      vertex 1.4085605124650171 4.470997887281539 0.15
      vertex 1.0197038330424146 4.125414566692067 0.15
      vertex 1.4209862528360722 3.877669727400831 0.15
    endloop
  endfacet
  facet normal 0.0 0.0 1.0
    outer loop
      vertex 0.836904887722547 4.541874858616037 0.15
      vertex 1.0197038330424146 4.125414566692067 0.15
      vertex 1.4085605124650171 4.470997887281539 0.15
    endloop
  endfacet
  facet normal 0.0 0.0 1.0
    outer loop
      vertex 2.3241159691596653 1.029838123194881 0.15
      vertex 1.9943460134090882 0.49913771089721665 0.15
      vertex 2.5183504763509976 0.4765846589842567 0.15
    endloop
  endfacet
  facet normal 0.0 -0.0 1.0
    outer loop
      vertex 2.5183504763509976 0.4765846589842567 0.15
      vertex 2.8775034136186743 0.8373877823488953 0.15
      vertex 2.3241159691596653 1.029838123194881 0.15
    endloop
  endfacet
  facet normal -0.0 0.0 1.0
    outer loop
      vertex 2.5183504763509976 0.4765846589842567 0.15
      vertex 2.926638440239512 0.40669489309382173 0.15
      vertex 2.8775034136186743 0.8373877823488953 0.15
    endloop
  endfacet
  facet normal 0.0 0.0 1.0
    outer loop
      vertex 2.864613164213789 4.145180480780659 0.15
      vertex 2.373494978751623 3.8847110194110535 0.15
      vertex 2.8542756182095017 3.607530080130108 0.15
    endloop
  endfacet
  facet normal 0.0 0.0 1.0
    outer loop
      vertex 2.864613164213789 4.145180480780659 0.15
      vertex 2.4284498125726617 4.48824451680146 0.15
      vertex 2.373494978751623 3.8847110194110535 0.15
    endloop
  endfacet
  facet normal 0.0 -0.0 1.0
    outer loop
      vertex 2.864613164213789 4.145180480780659 0.15
      vertex 2.9266384402395125 4.593305106906179 0.15
      vertex 2.4284498125726617 4.48824451680146 0.15
    endloop
  endfacet
  facet normal 0.0 0.0 1.0
    outer loop
      vertex 0.9277072117098998 1.3888888888888788 0.15
      vertex 0.3826385473026271 1.3971383724120563 0.15
      vertex 0.5043603004785495 0.8745807509491873 0.15
    endloop
  endfacet
  facet normal 0.0 0.0 1.0
    outer loop
      vertex 0.5043603004785495 0.8745807509491873 0.15
      vertex 1.0174172428239274 0.8861536187343954 0.15
      vertex 0.9277072117098998 1.3888888888888788 0.15
    endloop
  endfacet
  facet normal 0.0 -0.0 1.0
    outer loop
      vertex 0.8480148865375765 0.4634710097611034 0.15
      vertex 1.0174172428239274 0.8861536187343954 0.15
      vertex 0.5043603004785495 0.8745807509491873 0.15
    endloop
  endfacet
  facet normal 0.0 0.0 1.0
    outer loop
      vertex 0.5043603004785495 0.8745807509491873 0.15
      vertex 0.4066948930938205 0.40669489309382006 0.15
      vertex 0.8480148865375765 0.4634710097611034 0.15
    endloop
  endfacet
  facet normal 0.0 0.0 1.0
    outer loop
      vertex 0.5043603004785474 4.125419249050811 0.15
      vertex 0.3826385473026252 3.6028616275879393 0.15
      vertex 0.9277072117098899 3.6111111111111134 0.15
    endloop
  endfacet
  facet normal 0.0 -0.0 1.0
    outer loop
      vertex 0.9277072117098899 3.6111111111111134 0.15
      vertex 1.0197038330424146 4.125414566692067 0.15
      vertex 0.5043603004785474 4.125419249050811 0.15
    endloop
  endfacet
  facet normal -0.0 0.0 1.0
    outer loop
      vertex 0.5043603004785474 4.125419249050811 0.15
      vertex 1.0197038330424146 4.125414566692067 0.15
      vertex 0.836904887722547 4.541874858616037 0.15
    endloop
  endfacet
  facet normal 0.0 0.0 1.0
    outer loop
      vertex 0.836904887722547 4.541874858616037 0.15
      vertex 0.406694893093821 4.593305106906178 0.15
      vertex 0.5043603004785474 4.125419249050811 0.15
    endloop
  endfacet
  facet normal 0.0 0.0 1.0
    outer loop
      vertex 2.852208109008645 2.499999999999996 0.15
      vertex 2.3718249170595067 2.7774046140496487 0.15
      vertex 2.3710828846839584 2.2222222222222165 0.15
    endloop
  endfacet
  facet normal 0.0 0.0 1.0
    outer loop
      vertex 2.3710828846839584 2.2222222222222165 0.15
      vertex 1.8899576603592712 1.9444444444444389 0.15
      vertex 2.3710828846839602 1.666666666666662 0.15
    endloop
  endfacet
  facet normal 0.0 0.0 1.0
    outer loop
      vertex 2.3710828846839584 2.2222222222222165 0.15
      vertex 1.8899576603592674 2.499999999999998 0.15
      vertex 1.8899576603592712 1.9444444444444389 0.15
    endloop
  endfacet
  facet normal 0.0 -0.0 1.0
    outer loop
      vertex 2.3710828846839584 2.2222222222222165 0.15
      vertex 2.3718249170595067 2.7774046140496487 0.15
      vertex 1.8899576603592674 2.499999999999998 0.15
    endloop
  endfacet
  facet normal 0.0 0.0 1.0
    outer loop
      vertex 1.8899576603592712 1.9444444444444389 0.15
      vertex 1.8806538689554155 1.405003528303389 0.15
      vertex 2.3710828846839602 1.666666666666662 0.15
    endloop
  endfacet
  facet normal -0.0 0.0 1.0
    outer loop
      vertex 1.8806538689554155 1.405003528303389 0.15
      vertex 2.3241159691596653 1.029838123194881 0.15
      vertex 2.3710828846839602 1.666666666666662 0.15
    endloop
  endfacet
  facet normal 0.0 0.0 1.0
    outer loop
      vertex 2.3241159691596653 1.029838123194881 0.15
      vertex 2.852208109008648 1.388888888888887 0.15
      vertex 2.3710828846839602 1.666666666666662 0.15
    endloop
  endfacet
  facet normal 0.0 0.0 1.0
    outer loop
      vertex 1.8899576603592674 2.499999999999998 0.15
      vertex 1.422072963687787 2.222594412147251 0.15
      vertex 1.8899576603592712 1.9444444444444389 0.15
    endloop
  endfacet
  facet normal 0.0 0.0 1.0
    outer loop
      vertex 1.8899576603592712 1.9444444444444389 0.15
      vertex 1.4170915176650771 1.6693524399024104 0.15
      vertex 1.8806538689554155 1.405003528303389 0.15
    endloop
  endfacet
  facet normal 0.0 0.0 1.0
    outer loop
      vertex 1.8899576603592712 1.9444444444444389 0.15
      vertex 1.422072963687787 2.222594412147251 0.15
      vertex 1.4170915176650771 1.6693524399024104 0.15
    endloop
  endfacet
  facet normal 0.0 0.0 1.0
    outer loop
      vertex 1.8926240960504124 3.0549562129936247 0.15
      vertex 1.4211582391365054 2.777325144092226 0.15
      vertex 1.8899576603592674 2.499999999999998 0.15
    endloop
  endfacet
  facet normal 0.0 0.0 1.0
    outer loop
      vertex 1.8899576603592674 2.499999999999998 0.15
      vertex 2.3718249170595067 2.7774046140496487 0.15
      vertex 1.8926240960504124 3.0549562129936247 0.15
    endloop
  endfacet
  facet normal 0.0 0.0 1.0
    outer loop
      vertex 1.4211582391365054 2.777325144092226 0.15
      vertex 1.422072963687787 2.222594412147251 0.15
      vertex 1.8899576603592674 2.499999999999998 0.15
    endloop
  endfacet
  facet normal 0.0 0.0 1.0
    outer loop
      vertex 1.4170915176650771 1.6693524399024104 0.15
      vertex 1.406417981274754 1.145445130689005 0.15
      vertex 1.8806538689554155 1.405003528303389 0.15
    endloop
  endfacet
  facet normal 0.0 0.0 1.0
    outer loop
      vertex 1.8806538689554155 1.405003528303389 0.15
      vertex 1.810627070112861 0.9282641637298601 0.15
      vertex 2.3241159691596653 1.029838123194881 0.15
    endloop
  endfacet
  facet normal -0.0 0.0 1.0
    outer loop
      vertex 1.406417981274754 1.145445130689005 0.15
      vertex 1.810627070112861 0.9282641637298601 0.15
      vertex 1.8806538689554155 1.405003528303389 0.15
    endloop
  endfacet
  facet normal 0.0 0.0 1.0
    outer loop
      vertex 1.4170915176650771 1.6693524399024104 0.15
      vertex 0.9277072117098998 1.3888888888888788 0.15
      vertex 1.406417981274754 1.145445130689005 0.15
    endloop
  endfacet
  facet normal 0.0 0.0 1.0
    outer loop
      vertex 1.4170915176650771 1.6693524399024104 0.15
      vertex 1.0351408258194676 1.9450560370765964 0.15
      vertex 0.9277072117098998 1.3888888888888788 0.15
    endloop
  endfacet
  facet normal 0.0 0.0 1.0
    outer loop
      vertex 1.422072963687787 2.222594412147251 0.15
      vertex 1.0351408258194676 1.9450560370765964 0.15
      vertex 1.4170915176650771 1.6693524399024104 0.15
    endloop
  endfacet
  facet normal 0.0 0.0 1.0
    outer loop
      vertex 2.3241159691596653 1.029838123194881 0.15
      vertex 1.810627070112861 0.9282641637298601 0.15
      vertex 1.9943460134090882 0.49913771089721665 0.15
    endloop
  endfacet
  facet normal -0.0 0.0 1.0
    outer loop
      vertex 2.3241159691596653 1.029838123194881 0.15
      vertex 2.8775034136186743 0.8373877823488953 0.15
      vertex 2.852208109008648 1.388888888888887 0.15
    endloop
  endfacet
  facet normal 0.0 0.0 1.0
    outer loop
      vertex 0.9277072117098998 1.3888888888888788 0.15
      vertex 1.0174172428239274 0.8861536187343954 0.15
      vertex 1.406417981274754 1.145445130689005 0.15
    endloop
  endfacet
  facet normal 0.0 0.0 1.0
    outer loop
      vertex 2.373494978751623 3.8847110194110535 0.15
      vertex 2.3728686432461132 3.3316936935265034 0.15
      vertex 2.8542756182095017 3.607530080130108 0.15
    endloop
  endfacet
  facet normal 0.0 0.0 1.0
    outer loop
      vertex 2.4284498125726617 4.48824451680146 0.15
      vertex 1.908956640771265 4.1619669612232855 0.15
      vertex 2.373494978751623 3.8847110194110535 0.15
    endloop
  endfacet
  facet normal 0.0 0.0 1.0
    outer loop
      vertex 1.908956640771265 4.1619669612232855 0.15
      vertex 1.8935261727725439 3.6096315152909084 0.15
      vertex 2.373494978751623 3.8847110194110535 0.15
    endloop
  endfacet
  facet normal -0.0 0.0 1.0
    outer loop
      vertex 1.8935261727725439 3.6096315152909084 0.15
      vertex 2.3728686432461132 3.3316936935265034 0.15
      vertex 2.373494978751623 3.8847110194110535 0.15
    endloop
  endfacet
  facet normal 0.0 0.0 1.0
    outer loop
      vertex 2.4284498125726617 4.48824451680146 0.15
      vertex 1.9444444444444424 4.627848343845662 0.15
      vertex 1.908956640771265 4.1619669612232855 0.15
    endloop
  endfacet
  facet normal 0.0 0.0 1.0
    outer loop
      vertex 1.908956640771265 4.1619669612232855 0.15
      vertex 1.4209862528360722 3.877669727400831 0.15
      vertex 1.8935261727725439 3.6096315152909084 0.15
    endloop
  endfacet
  facet normal 0.0 0.0 1.0
    outer loop
      vertex 1.4209862528360722 3.877669727400831 0.15
      vertex 1.4212625377681767 3.3312168737819574 0.15
      vertex 1.8935261727725439 3.6096315152909084 0.15
    endloop
  endfacet
  facet normal -0.0 0.0 1.0
    outer loop
      vertex 1.4212625377681767 3.3312168737819574 0.15
      vertex 1.8926240960504124 3.0549562129936247 0.15
      vertex 1.8935261727725439 3.6096315152909084 0.15
    endloop
  endfacet
  facet normal 0.0 0.0 1.0
    outer loop
      vertex 1.8926240960504124 3.0549562129936247 0.15
      vertex 2.3728686432461132 3.3316936935265034 0.15
      vertex 1.8935261727725439 3.6096315152909084 0.15
    endloop
  endfacet
  facet normal 0.0 0.0 1.0
    outer loop
      vertex 1.4209862528360722 3.877669727400831 0.15
      vertex 0.9277072117098899 3.6111111111111134 0.15
      vertex 1.4212625377681767 3.3312168737819574 0.15
    endloop
  endfacet
  facet normal 0.0 0.0 1.0
    outer loop
      vertex 1.4209862528360722 3.877669727400831 0.15
      vertex 1.0197038330424146 4.125414566692067 0.15
      vertex 0.9277072117098899 3.6111111111111134 0.15
    endloop
  endfacet
  facet normal 0.0 0.0 1.0
    outer loop
      vertex 0.9277072117098899 3.6111111111111134 0.15
      vertex 1.0357920849298297 3.05504173690817 0.15
      vertex 1.4212625377681767 3.3312168737819574 0.15
    endloop
  endfacet
  facet normal 0.0 0.0 1.0
    outer loop
      vertex 1.4212625377681767 3.3312168737819574 0.15
      vertex 1.4211582391365054 2.777325144092226 0.15
      vertex 1.8926240960504124 3.0549562129936247 0.15
    endloop
  endfacet
  facet normal 0.0 0.0 1.0
    outer loop
      vertex 1.4212625377681767 3.3312168737819574 0.15
      vertex 1.0357920849298297 3.05504173690817 0.15
      vertex 1.4211582391365054 2.777325144092226 0.15
    endloop
  endfacet
  facet normal -0.0 0.0 1.0
    outer loop
      vertex 1.8926240960504124 3.0549562129936247 0.15
      vertex 2.3718249170595067 2.7774046140496487 0.15
      vertex 2.3728686432461132 3.3316936935265034 0.15
    endloop
  endfacet
  facet normal 0.0 0.0 1.0
    outer loop
      vertex 1.4211582391365054 2.777325144092226 0.15
      vertex 0.9277072117098882 2.5000000000000004 0.15
      vertex 1.422072963687787 2.222594412147251 0.15
    endloop
  endfacet
  facet normal 0.0 0.0 1.0
    outer loop
      vertex 1.4211582391365054 2.777325144092226 0.15
      vertex 1.0357920849298297 3.05504173690817 0.15
      vertex 0.9277072117098882 2.5000000000000004 0.15
    endloop
  endfacet
  facet normal 0.0 0.0 1.0
    outer loop
      vertex 0.9277072117098882 2.5000000000000004 0.15
      vertex 1.0351408258194676 1.9450560370765964 0.15
      vertex 1.422072963687787 2.222594412147251 0.15
    endloop
  endfacet
endsolid abc_50_022
