solid abc_50_023
  facet normal 0.0 0.0 -1.0
    outer loop
      vertex 3.928571428571429 2.4999999999999996 0.0
      vertex 3.7649371795045856 3.1638902457768108 0.0
      vertex 4.340059216211815 2.953533863464182 0.0
    endloop
  endfacet
  facet normal 0.0 0.0 -1.0
    outer loop
      vertex 3.7649371795045834 1.836109754223184 0.0
      vertex 3.928571428571429 2.4999999999999996 0.0
      vertex 4.340059216211813 2.0464661365358134 0.0
    endloop
  endfacet
  facet normal 0.0 0.0 -1.0
    outer loop
      vertex 3.928571428571429 2.4999999999999996 0.0
      vertex 4.340059216211815 2.953533863464182 0.0
      vertex 4.340059216211813 2.0464661365358134 0.0
    endloop
  endfacet
  facet normal 0.0 -0.0 -1.0
    outer loop
      vertex 4.898732434036243 3.204331392103575 0.0
      vertex 5.0 2.4999999999999996 0.0
      vertex 4.340059216211815 2.953533863464182 0.0
    endloop
  endfacet
  facet normal 0.0 0.0 -1.0
    outer loop
      vertex 5.0 2.4999999999999996 0.0
      vertex 4.898732434036245 1.795668607896427 0.0
      vertex 4.340059216211813 2.0464661365358134 0.0
    endloop
  endfacet
  facet normal 0.0 -0.0 -1.0
    outer loop
      vertex 4.340059216211815 2.953533863464182 0.0
      vertex 5.0 2.4999999999999996 0.0
      vertex 4.340059216211813 2.0464661365358134 0.0
    endloop
  endfacet
  facet normal 0.0 0.0 -1.0
    outer loop
      vertex 3.7649371795045856 3.1638902457768108 0.0
      vertex 3.3115210667587958 3.6756912369909363 0.0
      vertex 3.9712845142636364 3.7058965028156075 0.0
    endloop
  endfacet
  facet normal 0.0 0.0 -1.0
    outer loop
      vertex 3.7649371795045856 3.1638902457768108 0.0
      vertex 3.9712845142636364 3.7058965028156075 0.0
      vertex 4.340059216211815 2.953533863464182 0.0
    endloop
  endfacet
  facet normal 0.0 0.0 -1.0
    outer loop
      vertex 3.3115210667587958 3.6756912369909363 0.0
      vertex 2.672195257507609 3.91815553442579 0.0
      vertex 3.053480676980786 4.320336351869348 0.0
    endloop
  endfacet
  facet normal -0.0 0.0 -1.0
    outer loop
      vertex 3.9712845142636364 3.7058965028156075 0.0
      vertex 3.3115210667587958 3.6756912369909363 0.0
      vertex 3.602395125074228 4.1730756031895675 0.0
    endloop
  endfacet
  facet normal 0.0 0.0 -1.0
    outer loop
      vertex 3.3115210667587958 3.6756912369909363 0.0
      vertex 3.053480676980786 4.320336351869348 0.0
      vertex 3.602395125074228 4.1730756031895675 0.0
    endloop
  endfacet
  facet normal -0.0 0.0 -1.0
    outer loop
      vertex 2.672195257507609 3.91815553442579 0.0
      vertex 1.993421589939241 3.8357374895505942 0.0
      vertex 2.2719391532649325 4.378250055573662 0.0
    endloop
  endfacet
  facet normal -0.0 0.0 -1.0
    outer loop
      vertex 3.053480676980786 4.320336351869348 0.0
      vertex 2.672195257507609 3.91815553442579 0.0
      vertex 2.2719391532649325 4.378250055573662 0.0
    endloop
  endfacet
  facet normal -0.0 0.0 -1.0
    outer loop
      vertex 1.993421589939241 3.8357374895505942 0.0
      vertex 1.4306989311841471 3.4473180832011425 0.0
      vertex 1.4929723607485028 4.117914003960191 0.0
    endloop
  endfacet
  facet normal 0.0 0.0 -1.0
    outer loop
      vertex 1.993421589939241 3.8357374895505942 0.0
      vertex 1.4929723607485028 4.117914003960191 0.0
      vertex 2.2719391532649325 4.378250055573662 0.0
    endloop
  endfacet
  facet normal 0.0 0.0 -1.0
    outer loop
      vertex 1.4306989311841471 3.4473180832011425 0.0
      vertex 1.1129402608199286 2.841879520410808 0.0
      vertex 0.7647028654066628 3.2879759184197224 0.0
    endloop
  endfacet
  facet normal 0.0 0.0 -1.0
    outer loop
      vertex 1.4929723607485028 4.117914003960191 0.0
      vertex 1.4306989311841471 3.4473180832011425 0.0
      vertex 0.9896176980796256 3.8188367970211345 0.0
    endloop
  endfacet
  facet normal -0.0 0.0 -1.0
    outer loop
      vertex 1.4306989311841471 3.4473180832011425 0.0
      vertex 0.7647028654066628 3.2879759184197224 0.0
      vertex 0.9896176980796256 3.8188367970211345 0.0
    endloop
  endfacet
  facet normal 0.0 0.0 -1.0
    outer loop
      vertex 1.1129402608199286 2.841879520410808 0.0
      vertex 1.1129402608199221 2.1581204795892157 0.0
      vertex 0.6089804090794607 2.5000000000000164 0.0
    endloop
  endfacet
  facet normal 0.0 -0.0 -1.0
    outer loop
      vertex 0.7647028654066628 3.2879759184197224 0.0
      vertex 1.1129402608199286 2.841879520410808 0.0
      vertex 0.6089804090794607 2.5000000000000164 0.0
    endloop
  endfacet
  facet normal 0.0 -0.0 -1.0
    outer loop
      vertex 1.1129402608199221 2.1581204795892157 0.0
      vertex 1.4306989311841305 1.5526819167988757 0.0
      vertex 0.7647028654066549 1.7120240815802843 0.0
    endloop
  endfacet
  facet normal -0.0 0.0 -1.0
    outer loop
      vertex 1.1129402608199221 2.1581204795892157 0.0
      vertex 0.7647028654066549 1.7120240815802843 0.0
      vertex 0.6089804090794607 2.5000000000000164 0.0
    endloop
  endfacet
  facet normal 0.0 0.0 -1.0
    outer loop
      vertex 1.4306989311841305 1.5526819167988757 0.0
      vertex 1.9934215899392203 1.1642625104494124 0.0
      vertex 1.4929723607484908 0.8820859960398116 0.0
    endloop
  endfacet
  facet normal 0.0 -0.0 -1.0
    outer loop
      vertex 1.4306989311841305 1.5526819167988757 0.0
      vertex 1.4929723607484908 0.8820859960398116 0.0
      vertex 0.9896176980796237 1.1811632029788637 0.0
    endloop
  endfacet
  facet normal 0.0 0.0 -1.0
    outer loop
      vertex 0.7647028654066549 1.7120240815802843 0.0
      vertex 1.4306989311841305 1.5526819167988757 0.0
      vertex 0.9896176980796237 1.1811632029788637 0.0
    endloop
  endfacet
  facet normal 0.0 0.0 -1.0
    outer loop
      vertex 1.9934215899392203 1.1642625104494124 0.0
      vertex 2.6721952575075933 1.0818444655742065 0.0
      vertex 2.2719391532649085 0.6217499444263438 0.0
    endloop
  endfacet
  facet normal 0.0 0.0 -1.0
    outer loop
      vertex 1.4929723607484908 0.8820859960398116 0.0
      vertex 1.9934215899392203 1.1642625104494124 0.0
      vertex 2.2719391532649085 0.6217499444263438 0.0
    endloop
  endfacet
  facet normal 0.0 0.0 -1.0
    outer loop
      vertex 2.6721952575075933 1.0818444655742065 0.0
      vertex 3.3115210667587878 1.3243087630090573 0.0
      vertex 3.0534806769807803 0.6796636481306494 0.0
    endloop
  endfacet
  facet normal 0.0 -0.0 -1.0
    outer loop
      vertex 2.6721952575075933 1.0818444655742065 0.0
      vertex 3.0534806769807803 0.6796636481306494 0.0
      vertex 2.2719391532649085 0.6217499444263438 0.0
    endloop
  endfacet
  facet normal 0.0 0.0 -1.0
    outer loop
      vertex 3.3115210667587878 1.3243087630090573 0.0
      vertex 3.7649371795045834 1.836109754223184 0.0
      vertex 3.9712845142636346 1.2941034971843894 0.0
    endloop
  endfacet
  facet normal 0.0 0.0 -1.0
    outer loop
      vertex 3.3115210667587878 1.3243087630090573 0.0
      vertex 3.9712845142636346 1.2941034971843894 0.0
      vertex 3.602395125074227 0.8269243968104315 0.0
    endloop
  endfacet
  facet normal 0.0 0.0 -1.0
    outer loop
      vertex 3.0534806769807803 0.6796636481306494 0.0
      vertex 3.3115210667587878 1.3243087630090573 0.0
      vertex 3.602395125074227 0.8269243968104315 0.0
    endloop
  endfacet
  facet normal 0.0 0.0 -1.0
    outer loop
      vertex 3.9712845142636346 1.2941034971843894 0.0
      vertex 3.7649371795045834 1.836109754223184 0.0
      vertex 4.340059216211813 2.0464661365358134 0.0
    endloop
  endfacet
  facet normal 0.0 -0.0 -1.0
    outer loop
      vertex 4.603133832077952 3.851602043638996 0.0
      vertex 4.898732434036243 3.204331392103575 0.0
      vertex 4.340059216211815 2.953533863464182 0.0
    endloop
  endfacet
  facet normal 0.0 -0.0 -1.0
    outer loop
      vertex 4.13715183486321 4.389373935885648 0.0
      vertex 4.603133832077952 3.851602043638996 0.0
      vertex 3.9712845142636364 3.7058965028156075 0.0
    endloop
  endfacet
  facet normal 0.0 0.0 -1.0
    outer loop
      vertex 3.9712845142636364 3.7058965028156075 0.0
      vertex 4.603133832077952 3.851602043638996 0.0
      vertex 4.340059216211815 2.953533863464182 0.0
    endloop
  endfacet
  facet normal 0.0 0.0 -1.0
    outer loop
      vertex 3.5385375325047104 4.774079988386297 0.0
      vertex 4.13715183486321 4.389373935885648 0.0
      vertex 3.602395125074228 4.1730756031895675 0.0
    endloop
  endfacet
  facet normal 0.0 0.0 -1.0
    outer loop
      vertex 4.13715183486321 4.389373935885648 0.0
      vertex 3.9712845142636364 3.7058965028156075 0.0
      vertex 3.602395125074228 4.1730756031895675 0.0
    endloop
  endfacet
  facet normal 0.0 0.0 -1.0
    outer loop
      vertex 2.855787095683205 4.974553604702333 0.0
      vertex 3.5385375325047104 4.774079988386297 0.0
      vertex 3.053480676980786 4.320336351869348 0.0
    endloop
  endfacet
  facet normal 0.0 0.0 -1.0
    outer loop
      vertex 3.053480676980786 4.320336351869348 0.0
      vertex 3.5385375325047104 4.774079988386297 0.0
      vertex 3.602395125074228 4.1730756031895675 0.0
    endloop
  endfacet
  facet normal 0.0 0.0 -1.0
    outer loop
      vertex 2.1442129043167766 4.97455360470233 0.0
      vertex 2.855787095683205 4.974553604702333 0.0
      vertex 2.2719391532649325 4.378250055573662 0.0
    endloop
  endfacet
  facet normal 0.0 -0.0 -1.0
    outer loop
      vertex 2.855787095683205 4.974553604702333 0.0
      vertex 3.053480676980786 4.320336351869348 0.0
      vertex 2.2719391532649325 4.378250055573662 0.0
    endloop
  endfacet
  facet normal 0.0 0.0 -1.0
    outer loop
      vertex 1.461462467495273 4.7740799883862906 0.0
      vertex 2.1442129043167766 4.97455360470233 0.0
      vertex 2.2719391532649325 4.378250055573662 0.0
    endloop
  endfacet
  facet normal 0.0 0.0 -1.0
    outer loop
      vertex 0.8628481651367759 4.389373935885636 0.0
      vertex 1.461462467495273 4.7740799883862906 0.0
      vertex 1.4929723607485028 4.117914003960191 0.0
    endloop
  endfacet
  facet normal 0.0 0.0 -1.0
    outer loop
      vertex 1.4929723607485028 4.117914003960191 0.0
      vertex 1.461462467495273 4.7740799883862906 0.0
      vertex 2.2719391532649325 4.378250055573662 0.0
    endloop
  endfacet
  facet normal 0.0 0.0 -1.0
    outer loop
      vertex 0.39686616792203994 3.8516020436389833 0.0
      vertex 0.8628481651367759 4.389373935885636 0.0
      vertex 0.9896176980796256 3.8188367970211345 0.0
    endloop
  endfacet
  facet normal 0.0 0.0 -1.0
    outer loop
      vertex 0.8628481651367759 4.389373935885636 0.0
      vertex 1.4929723607485028 4.117914003960191 0.0
      vertex 0.9896176980796256 3.8188367970211345 0.0
    endloop
  endfacet
  facet normal 0.0 0.0 -1.0
    outer loop
      vertex 0.10126756596375282 3.204331392103562 0.0
      vertex 0.39686616792203994 3.8516020436389833 0.0
      vertex 0.7647028654066628 3.2879759184197224 0.0
    endloop
  endfacet
  facet normal 0.0 0.0 -1.0
    outer loop
      vertex 0.7647028654066628 3.2879759184197224 0.0
      vertex 0.39686616792203994 3.8516020436389833 0.0
      vertex 0.9896176980796256 3.8188367970211345 0.0
    endloop
  endfacet
  facet normal 0.0 0.0 -1.0
    outer loop
      vertex 0.0 2.4999999999999885 0.0
      vertex 0.10126756596375282 3.204331392103562 0.0
      vertex 0.6089804090794607 2.5000000000000164 0.0
    endloop
  endfacet
  facet normal 0.0 0.0 -1.0
    outer loop
      vertex 0.10126756596375282 3.204331392103562 0.0
      vertex 0.7647028654066628 3.2879759184197224 0.0
      vertex 0.6089804090794607 2.5000000000000164 0.0
    endloop
  endfacet
  facet normal 0.0 0.0 -1.0
    outer loop
      vertex 0.10126756596375916 1.7956686078964152 0.0
      vertex 0.0 2.4999999999999885 0.0
      vertex 0.6089804090794607 2.5000000000000164 0.0
    endloop
  endfacet
  facet normal 0.0 0.0 -1.0
    outer loop
      vertex 0.3968661679220523 1.1483979563609978 0.0
      vertex 0.10126756596375916 1.7956686078964152 0.0
      vertex 0.7647028654066549 1.7120240815802843 0.0
    endloop
  endfacet
  facet normal 0.0 0.0 -1.0
    outer loop
      vertex 0.7647028654066549 1.7120240815802843 0.0
      vertex 0.10126756596375916 1.7956686078964152 0.0
      vertex 0.6089804090794607 2.5000000000000164 0.0
    endloop
  endfacet
  facet normal 0.0 0.0 -1.0
    outer loop
      vertex 0.8628481651367921 0.6106260641143493 0.0
      vertex 0.3968661679220523 1.1483979563609978 0.0
      vertex 0.9896176980796237 1.1811632029788637 0.0
    endloop
  endfacet
  facet normal 0.0 0.0 -1.0
    outer loop
      vertex 0.3968661679220523 1.1483979563609978 0.0
      vertex 0.7647028654066549 1.7120240815802843 0.0
      vertex 0.9896176980796237 1.1811632029788637 0.0
    endloop
  endfacet
  facet normal 0.0 0.0 -1.0
    outer loop
      vertex 1.4614624674952885 0.2259200116137015 0.0
      vertex 0.8628481651367921 0.6106260641143493 0.0
      vertex 1.4929723607484908 0.8820859960398116 0.0
    endloop
  endfacet
  facet normal -0.0 0.0 -1.0
    outer loop
      vertex 1.4929723607484908 0.8820859960398116 0.0
      vertex 0.8628481651367921 0.6106260641143493 0.0
      vertex 0.9896176980796237 1.1811632029788637 0.0
    endloop
  endfacet
  facet normal 0.0 0.0 -1.0
    outer loop
      vertex 2.1442129043167935 0.025446395297666426 0.0
      vertex 1.4614624674952885 0.2259200116137015 0.0
      vertex 2.2719391532649085 0.6217499444263438 0.0
    endloop
  endfacet
  facet normal 0.0 0.0 -1.0
    outer loop
      vertex 1.4614624674952885 0.2259200116137015 0.0
      vertex 1.4929723607484908 0.8820859960398116 0.0
      vertex 2.2719391532649085 0.6217499444263438 0.0
    endloop
  endfacet
  facet normal -0.0 0.0 -1.0
    outer loop
      vertex 2.855787095683219 0.025446395297668647 0.0
      vertex 2.1442129043167935 0.025446395297666426 0.0
      vertex 2.2719391532649085 0.6217499444263438 0.0
    endloop
  endfacet
  facet normal -0.0 0.0 -1.0
    outer loop
      vertex 3.5385375325047193 0.225920011613705 0.0
      vertex 2.855787095683219 0.025446395297668647 0.0
      vertex 3.0534806769807803 0.6796636481306494 0.0
    endloop
  endfacet
  facet normal 0.0 0.0 -1.0
    outer loop
      vertex 3.0534806769807803 0.6796636481306494 0.0
      vertex 2.855787095683219 0.025446395297668647 0.0
      vertex 2.2719391532649085 0.6217499444263438 0.0
    endloop
  endfacet
  facet normal -0.0 0.0 -1.0
    outer loop
      vertex 4.137151834863217 0.6106260641143572 0.0
      vertex 3.5385375325047193 0.225920011613705 0.0
      vertex 3.602395125074227 0.8269243968104315 0.0
    endloop
  endfacet
  facet normal 0.0 0.0 -1.0
    outer loop
      vertex 3.5385375325047193 0.225920011613705 0.0
      vertex 3.0534806769807803 0.6796636481306494 0.0
      vertex 3.602395125074227 0.8269243968104315 0.0
    endloop
  endfacet
  facet normal -0.0 0.0 -1.0
    outer loop
      vertex 4.603133832077955 1.1483979563610074 0.0
      vertex 4.137151834863217 0.6106260641143572 0.0
      vertex 3.9712845142636346 1.2941034971843894 0.0
    endloop
  endfacet
  facet normal 0.0 -0.0 -1.0
    outer loop
      vertex 3.9712845142636346 1.2941034971843894 0.0
      vertex 4.137151834863217 0.6106260641143572 0.0
      vertex 3.602395125074227 0.8269243968104315 0.0
    endloop
  endfacet
  facet normal -0.0 0.0 -1.0
    outer loop
      vertex 4.898732434036245 1.795668607896427 0.0
      vertex 4.603133832077955 1.1483979563610074 0.0
      vertex 4.340059216211813 2.0464661365358134 0.0
    endloop
  endfacet
  facet normal 0.0 0.0 -1.0
    outer loop
      vertex 4.603133832077955 1.1483979563610074 0.0
      vertex 3.9712845142636346 1.2941034971843894 0.0
      vertex 4.340059216211813 2.0464661365358134 0.0
    endloop
  endfacet
  facet normal 0.0 -0.0 1.0
    outer loop
      vertex 3.928571428571429 2.4999999999999996 1.0
      vertex 4.340059216211815 2.953533863464182 1.0
      vertex 3.7649371795045856 3.1638902457768108 1.0
    endloop
  endfacet
  facet normal 0.0 0.0 1.0
    outer loop
      vertex 3.7649371795045834 1.836109754223184 1.0
      vertex 4.340059216211813 2.0464661365358134 1.0
      vertex 3.928571428571429 2.4999999999999996 1.0
    endloop
  endfacet
  facet normal -0.0 0.0 1.0
    outer loop
      vertex 3.928571428571429 2.4999999999999996 1.0
      vertex 4.340059216211813 2.0464661365358134 1.0
      vertex 4.340059216211815 2.953533863464182 1.0
    endloop
  endfacet
  facet normal 0.0 0.0 1.0
    outer loop
      vertex 4.898732434036243 3.204331392103575 1.0
      vertex 4.340059216211815 2.953533863464182 1.0
      vertex 5.0 2.4999999999999996 1.0
    endloop
  endfacet
  facet normal 0.0 0.0 1.0
    outer loop
      vertex 5.0 2.4999999999999996 1.0
      vertex 4.340059216211813 2.0464661365358134 1.0
      vertex 4.898732434036245 1.795668607896427 1.0
    endloop
  endfacet
  facet normal 0.0 0.0 1.0
    outer loop
      vertex 4.340059216211815 2.953533863464182 1.0
      vertex 4.340059216211813 2.0464661365358134 1.0
      vertex 5.0 2.4999999999999996 1.0
    endloop
  endfacet
  facet normal 0.0 -0.0 1.0
    outer loop
      vertex 3.7649371795045856 3.1638902457768108 1.0
      vertex 3.9712845142636364 3.7058965028156075 1.0
      vertex 3.3115210667587958 3.6756912369909363 1.0
    endloop
  endfacet
  facet normal -0.0 0.0 1.0
    outer loop
      vertex 3.7649371795045856 3.1638902457768108 1.0
      vertex 4.340059216211815 2.953533863464182 1.0
      vertex 3.9712845142636364 3.7058965028156075 1.0
    endloop
  endfacet
  facet normal 0.0 0.0 1.0
    outer loop
      vertex 3.3115210667587958 3.6756912369909363 1.0
      vertex 3.053480676980786 4.320336351869348 1.0
      vertex 2.672195257507609 3.91815553442579 1.0
    endloop
  endfacet
  facet normal 0.0 0.0 1.0
    outer loop
      vertex 3.9712845142636364 3.7058965028156075 1.0
      vertex 3.602395125074228 4.1730756031895675 1.0
      vertex 3.3115210667587958 3.6756912369909363 1.0
    endloop
  endfacet
  facet normal 0.0 -0.0 1.0
    outer loop
      vertex 3.3115210667587958 3.6756912369909363 1.0
      vertex 3.602395125074228 4.1730756031895675 1.0
      vertex 3.053480676980786 4.320336351869348 1.0
    endloop
  endfacet
  facet normal 0.0 0.0 1.0
    outer loop
      vertex 2.672195257507609 3.91815553442579 1.0
      vertex 2.2719391532649325 4.378250055573662 1.0
      vertex 1.993421589939241 3.8357374895505942 1.0
    endloop
  endfacet
  facet normal 0.0 0.0 1.0
    outer loop
      vertex 3.053480676980786 4.320336351869348 1.0
      vertex 2.2719391532649325 4.378250055573662 1.0
      vertex 2.672195257507609 3.91815553442579 1.0
    endloop
  endfacet
  facet normal 0.0 0.0 1.0
    outer loop
      vertex 1.993421589939241 3.8357374895505942 1.0
      vertex 1.4929723607485028 4.117914003960191 1.0
      vertex 1.4306989311841471 3.4473180832011425 1.0
    endloop
  endfacet
  facet normal 0.0 -0.0 1.0
    outer loop
      vertex 1.993421589939241 3.8357374895505942 1.0
      vertex 2.2719391532649325 4.378250055573662 1.0
      vertex 1.4929723607485028 4.117914003960191 1.0
    endloop
  endfacet
  facet normal 0.0 0.0 1.0
    outer loop
      vertex 1.4306989311841471 3.4473180832011425 1.0
      vertex 0.7647028654066628 3.2879759184197224 1.0
      vertex 1.1129402608199286 2.841879520410808 1.0
    endloop
  endfacet
  facet normal 0.0 0.0 1.0
    outer loop
      vertex 1.4929723607485028 4.117914003960191 1.0
      vertex 0.9896176980796256 3.8188367970211345 1.0
      vertex 1.4306989311841471 3.4473180832011425 1.0
    endloop
  endfacet
  facet normal 0.0 0.0 1.0
    outer loop
      vertex 1.4306989311841471 3.4473180832011425 1.0
      vertex 0.9896176980796256 3.8188367970211345 1.0
      vertex 0.7647028654066628 3.2879759184197224 1.0
    endloop
  endfacet
  facet normal 0.0 0.0 1.0
    outer loop
      vertex 1.1129402608199286 2.841879520410808 1.0
      vertex 0.6089804090794607 2.5000000000000164 1.0
      vertex 1.1129402608199221 2.1581204795892157 1.0
    endloop
  endfacet
  facet normal 0.0 0.0 1.0
    outer loop
      vertex 0.7647028654066628 3.2879759184197224 1.0
      vertex 0.6089804090794607 2.5000000000000164 1.0
      vertex 1.1129402608199286 2.841879520410808 1.0
    endloop
  endfacet
  facet normal 0.0 0.0 1.0
    outer loop
      vertex 1.1129402608199221 2.1581204795892157 1.0
      vertex 0.7647028654066549 1.7120240815802843 1.0
      vertex 1.4306989311841305 1.5526819167988757 1.0
    endloop
  endfacet
  facet normal 0.0 0.0 1.0
    outer loop
      vertex 1.1129402608199221 2.1581204795892157 1.0
      vertex 0.6089804090794607 2.5000000000000164 1.0
      vertex 0.7647028654066549 1.7120240815802843 1.0
    endloop
  endfacet
  facet normal 0.0 0.0 1.0
    outer loop
      vertex 1.4306989311841305 1.5526819167988757 1.0
      vertex 1.4929723607484908 0.8820859960398116 1.0
      vertex 1.9934215899392203 1.1642625104494124 1.0
    endloop
  endfacet
  facet normal 0.0 0.0 1.0
    outer loop
      vertex 1.4306989311841305 1.5526819167988757 1.0
      vertex 0.9896176980796237 1.1811632029788637 1.0
      vertex 1.4929723607484908 0.8820859960398116 1.0
    endloop
  endfacet
  facet normal 0.0 0.0 1.0
    outer loop
      vertex 0.7647028654066549 1.7120240815802843 1.0
      vertex 0.9896176980796237 1.1811632029788637 1.0
      vertex 1.4306989311841305 1.5526819167988757 1.0
    endloop
  endfacet
  facet normal 0.0 0.0 1.0
    outer loop
      vertex 1.9934215899392203 1.1642625104494124 1.0
      vertex 2.271939153264908 0.6217499444263445 1.0
      vertex 2.6721952575075933 1.0818444655742065 1.0
    endloop
  endfacet
  facet normal -0.0 0.0 1.0
    outer loop
      vertex 1.4929723607484908 0.8820859960398116 1.0
      vertex 2.271939153264908 0.6217499444263445 1.0
      vertex 1.9934215899392203 1.1642625104494124 1.0
    endloop
  endfacet
  facet normal -0.0 0.0 1.0
    outer loop
      vertex 2.6721952575075933 1.0818444655742065 1.0
      vertex 3.0534806769807803 0.6796636481306494 1.0
      vertex 3.3115210667587878 1.3243087630090573 1.0
    endloop
  endfacet
  facet normal 0.0 0.0 1.0
    outer loop
      vertex 2.6721952575075933 1.0818444655742065 1.0
      vertex 2.271939153264908 0.6217499444263445 1.0
      vertex 3.0534806769807803 0.6796636481306494 1.0
    endloop
  endfacet
  facet normal -0.0 0.0 1.0
    outer loop
      vertex 3.3115210667587878 1.3243087630090573 1.0
      vertex 3.9712845142636346 1.2941034971843894 1.0
      vertex 3.7649371795045834 1.836109754223184 1.0
    endloop
  endfacet
  facet normal 0.0 0.0 1.0
    outer loop
      vertex 3.3115210667587878 1.3243087630090573 1.0
      vertex 3.602395125074228 0.8269243968104315 1.0
      vertex 3.9712845142636346 1.2941034971843894 1.0
    endloop
  endfacet
  facet normal 0.0 0.0 1.0
    outer loop
      vertex 3.0534806769807803 0.6796636481306494 1.0
      vertex 3.602395125074228 0.8269243968104315 1.0
      vertex 3.3115210667587878 1.3243087630090573 1.0
    endloop
  endfacet
  facet normal 0.0 -0.0 1.0
    outer loop
      vertex 3.9712845142636346 1.2941034971843894 1.0
      vertex 4.340059216211813 2.0464661365358134 1.0
      vertex 3.7649371795045834 1.836109754223184 1.0
    endloop
  endfacet
  facet normal 0.0 0.0 1.0
    outer loop
      vertex 4.603133832077952 3.851602043638996 1.0
      vertex 4.340059216211815 2.953533863464182 1.0
      vertex 4.898732434036243 3.204331392103575 1.0
    endloop
  endfacet
  facet normal 0.0 0.0 1.0
    outer loop
      vertex 4.13715183486321 4.389373935885648 1.0
      vertex 3.9712845142636364 3.7058965028156075 1.0
      vertex 4.603133832077952 3.851602043638996 1.0
    endloop
  endfacet
  facet normal -0.0 0.0 1.0
    outer loop
      vertex 3.9712845142636364 3.7058965028156075 1.0
      vertex 4.340059216211815 2.953533863464182 1.0
      vertex 4.603133832077952 3.851602043638996 1.0
    endloop
  endfacet
  facet normal 0.0 0.0 1.0
    outer loop
      vertex 3.5385375325047104 4.774079988386297 1.0
      vertex 3.602395125074228 4.1730756031895675 1.0
      vertex 4.13715183486321 4.389373935885648 1.0
    endloop
  endfacet
  facet normal 0.0 0.0 1.0
    outer loop
      vertex 4.13715183486321 4.389373935885648 1.0
      vertex 3.602395125074228 4.1730756031895675 1.0
      vertex 3.9712845142636364 3.7058965028156075 1.0
    endloop
  endfacet
  facet normal 0.0 0.0 1.0
    outer loop
      vertex 2.855787095683205 4.974553604702333 1.0
      vertex 3.053480676980786 4.320336351869348 1.0
      vertex 3.5385375325047104 4.774079988386297 1.0
    endloop
  endfacet
  facet normal -0.0 0.0 1.0
    outer loop
      vertex 3.053480676980786 4.320336351869348 1.0
      vertex 3.602395125074228 4.1730756031895675 1.0
      vertex 3.5385375325047104 4.774079988386297 1.0
    endloop
  endfacet
  facet normal -0.0 0.0 1.0
    outer loop
      vertex 2.1442129043167766 4.97455360470233 1.0
      vertex 2.2719391532649325 4.378250055573662 1.0
      vertex 2.855787095683205 4.974553604702333 1.0
    endloop
  endfacet
  facet normal 0.0 0.0 1.0
    outer loop
      vertex 2.855787095683205 4.974553604702333 1.0
      vertex 2.2719391532649325 4.378250055573662 1.0
      vertex 3.053480676980786 4.320336351869348 1.0
    endloop
  endfacet
  facet normal -0.0 0.0 1.0
    outer loop
      vertex 1.461462467495273 4.7740799883862906 1.0
      vertex 2.2719391532649325 4.378250055573662 1.0
      vertex 2.1442129043167766 4.97455360470233 1.0
    endloop
  endfacet
  facet normal -0.0 0.0 1.0
    outer loop
      vertex 0.8628481651367759 4.389373935885636 1.0
      vertex 1.4929723607485028 4.117914003960191 1.0
      vertex 1.461462467495273 4.7740799883862906 1.0
    endloop
  endfacet
  facet normal 0.0 -0.0 1.0
    outer loop
      vertex 1.4929723607485028 4.117914003960191 1.0
      vertex 2.2719391532649325 4.378250055573662 1.0
      vertex 1.461462467495273 4.7740799883862906 1.0
    endloop
  endfacet
  facet normal -0.0 0.0 1.0
    outer loop
      vertex 0.39686616792203994 3.8516020436389833 1.0
      vertex 0.9896176980796256 3.8188367970211345 1.0
      vertex 0.8628481651367759 4.389373935885636 1.0
    endloop
  endfacet
  facet normal 0.0 0.0 1.0
    outer loop
      vertex 0.8628481651367759 4.389373935885636 1.0
      vertex 0.9896176980796256 3.8188367970211345 1.0
      vertex 1.4929723607485028 4.117914003960191 1.0
    endloop
  endfacet
  facet normal 0.0 0.0 1.0
    outer loop
      vertex 0.10126756596375282 3.204331392103562 1.0
      vertex 0.7647028654066628 3.2879759184197224 1.0
      vertex 0.39686616792203994 3.8516020436389833 1.0
    endloop
  endfacet
  facet normal 0.0 -0.0 1.0
    outer loop
      vertex 0.7647028654066628 3.2879759184197224 1.0
      vertex 0.9896176980796256 3.8188367970211345 1.0
      vertex 0.39686616792203994 3.8516020436389833 1.0
    endloop
  endfacet
  facet normal 0.0 0.0 1.0
    outer loop
      vertex 0.0 2.4999999999999885 1.0
      vertex 0.6089804090794607 2.5000000000000164 1.0
      vertex 0.10126756596375282 3.204331392103562 1.0
    endloop
  endfacet
  facet normal -0.0 0.0 1.0
    outer loop
      vertex 0.10126756596375282 3.204331392103562 1.0
      vertex 0.6089804090794607 2.5000000000000164 1.0
      vertex 0.7647028654066628 3.2879759184197224 1.0
    endloop
  endfacet
  facet normal 0.0 -0.0 1.0
    outer loop
      vertex 0.10126756596375916 1.7956686078964152 1.0
      vertex 0.6089804090794607 2.5000000000000164 1.0
      vertex 0.0 2.4999999999999885 1.0
    endloop
  endfacet
  facet normal 0.0 -0.0 1.0
    outer loop
      vertex 0.3968661679220523 1.1483979563609978 1.0
      vertex 0.7647028654066549 1.7120240815802843 1.0
      vertex 0.10126756596375916 1.7956686078964152 1.0
    endloop
  endfacet
  facet normal 0.0 0.0 1.0
    outer loop
      vertex 0.7647028654066549 1.7120240815802843 1.0
      vertex 0.6089804090794607 2.5000000000000164 1.0
      vertex 0.10126756596375916 1.7956686078964152 1.0
    endloop
  endfacet
  facet normal 0.0 -0.0 1.0
    outer loop
      vertex 0.8628481651367921 0.6106260641143493 1.0
      vertex 0.9896176980796237 1.1811632029788637 1.0
      vertex 0.3968661679220523 1.1483979563609978 1.0
    endloop
  endfacet
  facet normal 0.0 0.0 1.0
    outer loop
      vertex 0.3968661679220523 1.1483979563609978 1.0
      vertex 0.9896176980796237 1.1811632029788637 1.0
      vertex 0.7647028654066549 1.7120240815802843 1.0
    endloop
  endfacet
  facet normal 0.0 -0.0 1.0
    outer loop
      vertex 1.4614624674952885 0.2259200116137015 1.0
      vertex 1.4929723607484908 0.8820859960398116 1.0
      vertex 0.8628481651367921 0.6106260641143493 1.0
    endloop
  endfacet
  facet normal 0.0 0.0 1.0
    outer loop
      vertex 1.4929723607484908 0.8820859960398116 1.0
      vertex 0.9896176980796237 1.1811632029788637 1.0
      vertex 0.8628481651367921 0.6106260641143493 1.0
    endloop
  endfacet
  facet normal 0.0 -0.0 1.0
    outer loop
      vertex 2.1442129043167935 0.025446395297666426 1.0
      vertex 2.271939153264908 0.6217499444263445 1.0
      vertex 1.4614624674952885 0.2259200116137015 1.0
    endloop
  endfacet
  facet normal 0.0 0.0 1.0
    outer loop
      vertex 1.4614624674952885 0.2259200116137015 1.0
      vertex 2.271939153264908 0.6217499444263445 1.0
      vertex 1.4929723607484908 0.8820859960398116 1.0
    endloop
  endfacet
  facet normal 0.0 0.0 1.0
    outer loop
      vertex 2.855787095683219 0.025446395297668647 1.0
      vertex 2.271939153264908 0.6217499444263445 1.0
      vertex 2.1442129043167935 0.025446395297666426 1.0
    endloop
  endfacet
  facet normal 0.0 0.0 1.0
    outer loop
      vertex 3.5385375325047193 0.225920011613705 1.0
      vertex 3.0534806769807803 0.6796636481306494 1.0
      vertex 2.855787095683219 0.025446395297668647 1.0
    endloop
  endfacet
  facet normal 0.0 0.0 1.0
    outer loop
      vertex 3.0534806769807803 0.6796636481306494 1.0
      vertex 2.271939153264908 0.6217499444263445 1.0
      vertex 2.855787095683219 0.025446395297668647 1.0
    endloop
  endfacet
  facet normal 0.0 0.0 1.0
    outer loop
      vertex 4.137151834863217 0.6106260641143572 1.0
      vertex 3.602395125074228 0.8269243968104315 1.0
      vertex 3.5385375325047193 0.225920011613705 1.0
    endloop
  endfacet
  facet normal 0.0 -0.0 1.0
    outer loop
      vertex 3.5385375325047193 0.225920011613705 1.0
      vertex 3.602395125074228 0.8269243968104315 1.0
      vertex 3.0534806769807803 0.6796636481306494 1.0
    endloop
  endfacet
  facet normal 0.0 0.0 1.0
    outer loop
      vertex 4.603133832077955 1.1483979563610074 1.0
      vertex 3.9712845142636346 1.2941034971843894 1.0
      vertex 4.137151834863217 0.6106260641143572 1.0
    endloop
  endfacet
  facet normal 0.0 0.0 1.0
    outer loop
      vertex 3.9712845142636346 1.2941034971843894 1.0
      vertex 3.602395125074228 0.8269243968104315 1.0
      vertex 4.137151834863217 0.6106260641143572 1.0
    endloop
  endfacet
  facet normal 0.0 0.0 1.0
    outer loop
      vertex 4.898732434036245 1.795668607896427 1.0
      vertex 4.340059216211813 2.0464661365358134 1.0
      vertex 4.603133832077955 1.1483979563610074 1.0
    endloop
  endfacet
  facet normal 0.0 0.0 1.0
    outer loop
      vertex 4.603133832077955 1.1483979563610074 1.0
      vertex 4.340059216211813 2.0464661365358134 1.0
      vertex 3.9712845142636346 1.2941034971843894 1.0
    endloop
  endfacet
  facet normal -0.9689303717846395 -0.23881988746425806 0.06433502922078789
    outer loop
      vertex 3.7649371795045856 3.1638902457768108 0.0
      vertex 3.928571428571429 2.4999999999999996 0.0
      vertex 3.836687406711047 3.00406656630916 0.4873224051955597
    endloop
  endfacet
  facet normal -0.9691238650444793 0.23886757926945612 0.0611654622740629
    outer loop
      vertex 3.928571428571429 2.4999999999999996 0.0
      vertex 3.7649371795045834 1.836109754223184 0.0
      vertex 3.8366874067110297 1.995933433690793 0.5126775948043949
    endloop
  endfacet
  facet normal -0.9837888962317373 0.17933044262238348 3.185548582649451e-16
    outer loop
      vertex 3.928571428571429 2.4999999999999987 0.5
      vertex 3.928571428571429 2.4999999999999996 0.0
      vertex 3.8366874067110297 1.995933433690793 0.5126775948043949
    endloop
  endfacet
  facet normal -0.9837888962317405 -0.17933044262236608 -3.185548582649142e-16
    outer loop
      vertex 3.928571428571429 2.4999999999999996 0.0
      vertex 3.928571428571429 2.4999999999999987 0.5
      vertex 3.836687406711047 3.00406656630916 0.4873224051955597
    endloop
  endfacet
  facet normal -0.9691238650444794 -0.23886757926945454 -0.06116546227406709
    outer loop
      vertex 3.928571428571429 2.4999999999999996 1.0
      vertex 3.7649371795045856 3.1638902457768108 1.0
      vertex 3.836687406711047 3.00406656630916 0.4873224051955597
    endloop
  endfacet
  facet normal -0.96893037178464 0.23881988746425986 -0.06433502922077185
    outer loop
      vertex 3.7649371795045834 1.836109754223184 1.0
      vertex 3.928571428571429 2.4999999999999996 1.0
      vertex 3.8366874067110297 1.995933433690793 0.5126775948043949
    endloop
  endfacet
  facet normal -0.9837888962317373 0.17933044262238348 -3.185548582649451e-16
    outer loop
      vertex 3.928571428571429 2.4999999999999996 1.0
      vertex 3.928571428571429 2.4999999999999987 0.5
      vertex 3.8366874067110297 1.995933433690793 0.5126775948043949
    endloop
  endfacet
  facet normal -0.9837888962317405 -0.17933044262236608 3.185548582649142e-16
    outer loop
      vertex 3.928571428571429 2.4999999999999987 0.5
      vertex 3.928571428571429 2.4999999999999996 1.0
      vertex 3.836687406711047 3.00406656630916 0.4873224051955597
    endloop
  endfacet
  facet normal -0.745954991646845 -0.6608584555365271 0.0825666529721992
    outer loop
      vertex 3.3115210667587958 3.6756912369909363 0.0
      vertex 3.7649371795045856 3.1638902457768108 0.0
      vertex 3.5624217826742237 3.455026848957628 0.5005981626891486
    endloop
  endfacet
  facet normal -0.8541362548981692 -0.5181690347635258 -0.04418268304172834
    outer loop
      vertex 3.5624217826742237 3.455026848957628 0.5005981626891486
      vertex 3.7649371795045856 3.1638902457768108 0.0
      vertex 3.836687406711047 3.00406656630916 0.4873224051955597
    endloop
  endfacet
  facet normal -0.3533919599548931 -0.9318180168019565 0.08263961642280142
    outer loop
      vertex 2.672195257507609 3.91815553442579 0.0
      vertex 3.3115210667587958 3.6756912369909363 0.0
      vertex 3.006578410060769 3.8357374895505902 0.5006037094932548
    endloop
  endfacet
  facet normal -0.563265508245517 -0.8223751100563518 -0.08019442362610185
    outer loop
      vertex 3.006578410060769 3.8357374895505902 0.5006037094932548
      vertex 3.3115210667587958 3.6756912369909363 0.0
      vertex 3.5624217826742237 3.455026848957628 0.5005981626891486
    endloop
  endfacet
  facet normal 0.12012329182650905 -0.9893043140847904 0.08274883016687196
    outer loop
      vertex 1.993421589939241 3.8357374895505942 0.0
      vertex 2.672195257507609 3.91815553442579 0.0
      vertex 2.3278100912943667 3.9181561838776986 0.49993845524949987
    endloop
  endfacet
  facet normal -0.12004584762361617 -0.9893183899926211 -0.08269291197397496
    outer loop
      vertex 2.672195257507609 3.91815553442579 0.0
      vertex 3.006578410060769 3.8357374895505902 0.5006037094932548
      vertex 2.3278100912943667 3.9181561838776986 0.49993845524949987
    endloop
  endfacet
  facet normal 0.5661079895531018 -0.8201490137112765 0.08292972610931129
    outer loop
      vertex 1.4306989311841471 3.4473180832011425 0.0
      vertex 1.993421589939241 3.8357374895505942 0.0
      vertex 1.6884788715067416 3.6756911943787105 0.49884040461904655
    endloop
  endfacet
  facet normal 0.3535086984182556 -0.9317558992579418 -0.08284047525609206
    outer loop
      vertex 1.993421589939241 3.8357374895505942 0.0
      vertex 2.3278100912943667 3.9181561838776986 0.49993845524949987
      vertex 1.6884788715067416 3.6756911943787105 0.49884040461904655
    endloop
  endfacet
  facet normal 0.8824017921037842 -0.4631201866191704 0.0829865654058222
    outer loop
      vertex 1.1129402608199286 2.841879520410808 0.0
      vertex 1.4306989311841471 3.4473180832011425 0.0
      vertex 1.2350627987505916 3.163890204345511 0.4984963711731673
    endloop
  endfacet
  facet normal 0.7459583632939655 -0.6608056212070602 -0.08295812927579509
    outer loop
      vertex 1.4306989311841471 3.4473180832011425 0.0
      vertex 1.6884788715067416 3.6756911943787105 0.49884040461904655
      vertex 1.2350627987505916 3.163890204345511 0.4984963711731673
    endloop
  endfacet
  facet normal 0.9965503791055339 -9.385002666384245e-15 0.08299001087249344
    outer loop
      vertex 1.1129402608199221 2.1581204795892157 0.0
      vertex 1.1129402608199286 2.841879520410808 0.0
      vertex 1.0714285714285714 2.4999999906467907 0.49847553175795906
    endloop
  endfacet
  facet normal 0.9675931862444993 -0.23848767567134796 -0.08298827920914914
    outer loop
      vertex 1.1129402608199286 2.841879520410808 0.0
      vertex 1.2350627987505916 3.163890204345511 0.4984963711731673
      vertex 1.0714285714285714 2.4999999906467907 0.49847553175795906
    endloop
  endfacet
  facet normal 0.8824066502446134 0.4631227363681519 0.08292065281313081
    outer loop
      vertex 1.4306989311841305 1.5526819167988757 0.0
      vertex 1.1129402608199221 2.1581204795892157 0.0
      vertex 1.2350627137625636 1.836109957585684 0.49889536641817134
    endloop
  endfacet
  facet normal 0.9676074522259479 0.23844127820004604 -0.08295526051516151
    outer loop
      vertex 1.1129402608199221 2.1581204795892157 0.0
      vertex 1.0714285714285714 2.4999999906467907 0.49847553175795906
      vertex 1.2350627137625636 1.836109957585684 0.49889536641817134
    endloop
  endfacet
  facet normal 0.5661185552890781 0.8201643208224333 0.08270591398010048
    outer loop
      vertex 1.9934215899392203 1.1642625104494124 0.0
      vertex 1.4306989311841305 1.5526819167988757 0.0
      vertex 1.6884838917634022 1.3243053404037508 0.5001996619301571
    endloop
  endfacet
  facet normal 0.7460429948357414 0.6607280736794653 -0.08281462738152609
    outer loop
      vertex 1.6884838917634022 1.3243053404037508 0.5001996619301571
      vertex 1.4306989311841305 1.5526819167988757 0.0
      vertex 1.2350627137625636 1.836109957585684 0.49889536641817134
    endloop
  endfacet
  facet normal 0.12012313709121504 0.9893030397248771 0.08276428895654979
    outer loop
      vertex 2.6721952575075933 1.0818444655742065 0.0
      vertex 1.9934215899392203 1.1642625104494124 0.0
      vertex 2.3278013226558016 1.0818448808217338 0.4998444324902272
    endloop
  endfacet
  facet normal 0.35334818597329837 0.9318263439725659 -0.08273284805988936
    outer loop
      vertex 1.9934215899392203 1.1642625104494124 0.0
      vertex 1.6884838917634022 1.3243053404037508 0.5001996619301571
      vertex 2.3278013226558016 1.0818448808217338 0.4998444324902272
    endloop
  endfacet
  facet normal -0.353382354549074 0.9317926894283676 0.08296562795038764
    outer loop
      vertex 3.3115210667587878 1.3243087630090573 0.0
      vertex 2.6721952575075933 1.0818444655742065 0.0
      vertex 3.0059931411911496 1.1640406938839316 0.49862139857175525
    endloop
  endfacet
  facet normal -0.12005270010666938 0.9893155111958494 -0.08271740146059556
    outer loop
      vertex 2.6721952575075933 1.0818444655742065 0.0
      vertex 2.3278013226558016 1.0818448808217338 0.4998444324902272
      vertex 3.0059931411911496 1.1640406938839316 0.49862139857175525
    endloop
  endfacet
  facet normal -0.7459420994289214 0.6608470340281042 0.08277428293758136
    outer loop
      vertex 3.7649371795045834 1.836109754223184 0.0
      vertex 3.3115210667587878 1.3243087630090573 0.0
      vertex 3.562421678174137 1.5449730347910253 0.49933382491816053
    endloop
  endfacet
  facet normal -0.5629961524408384 0.8225201987707503 -0.08059686688040356
    outer loop
      vertex 3.562421678174137 1.5449730347910253 0.49933382491816053
      vertex 3.3115210667587878 1.3243087630090573 0.0
      vertex 3.0059931411911496 1.1640406938839316 0.49862139857175525
    endloop
  endfacet
  facet normal -0.8530507784401777 0.5200743850329097 -0.04274346073082414
    outer loop
      vertex 3.7649371795045834 1.836109754223184 0.0
      vertex 3.562421678174137 1.5449730347910253 0.49933382491816053
      vertex 3.8366874067110297 1.995933433690793 0.5126775948043949
    endloop
  endfacet
  facet normal -0.7459427952827317 -0.6608476505007791 -0.0827630895592036
    outer loop
      vertex 3.7649371795045856 3.1638902457768108 1.0
      vertex 3.3115210667587958 3.6756912369909363 1.0
      vertex 3.5624217826742237 3.455026848957628 0.5005981626891486
    endloop
  endfacet
  facet normal -0.8530537680497412 -0.5200696373287468 0.04274156226536216
    outer loop
      vertex 3.7649371795045856 3.1638902457768108 1.0
      vertex 3.5624217826742237 3.455026848957628 0.5005981626891486
      vertex 3.836687406711047 3.00406656630916 0.4873224051955597
    endloop
  endfacet
  facet normal -0.35338611797763814 -0.9318026127739175 -0.08283804952070996
    outer loop
      vertex 3.3115210667587958 3.6756912369909363 1.0
      vertex 2.672195257507609 3.91815553442579 1.0
      vertex 3.006578410060769 3.8357374895505902 0.5006037094932548
    endloop
  endfacet
  facet normal -0.5632556899307313 -0.8223631147621352 0.0803861632333261
    outer loop
      vertex 3.3115210667587958 3.6756912369909363 1.0
      vertex 3.006578410060769 3.8357374895505902 0.5006037094932548
      vertex 3.5624217826742237 3.455026848957628 0.5005981626891486
    endloop
  endfacet
  facet normal 0.12012349426642466 -0.989305981327494 -0.08272860106920787
    outer loop
      vertex 2.672195257507609 3.91815553442579 1.0
      vertex 1.993421589939241 3.8357374895505942 1.0
      vertex 2.3278100912943667 3.9181561838776986 0.49993845524949987
    endloop
  endfacet
  facet normal -0.12020477993048038 -0.9892916402308124 0.08278201164077673
    outer loop
      vertex 3.006578410060769 3.8357374895505902 0.5006037094932548
      vertex 2.672195257507609 3.91815553442579 1.0
      vertex 2.3278100912943667 3.9181561838776986 0.49993845524949987
    endloop
  endfacet
  facet normal 0.5661259656255 -0.8201750565481906 -0.08254857758173485
    outer loop
      vertex 1.993421589939241 3.8357374895505942 1.0
      vertex 1.4306989311841471 3.4473180832011425 1.0
      vertex 1.6884788715067416 3.6756911943787105 0.49884040461904655
    endloop
  endfacet
  facet normal 0.35326613264452095 -0.9318657123471903 0.08263978265972961
    outer loop
      vertex 2.3278100912943667 3.9181561838776986 0.49993845524949987
      vertex 1.993421589939241 3.8357374895505942 1.0
      vertex 1.6884788715067416 3.6756911943787105 0.49884040461904655
    endloop
  endfacet
  facet normal 0.8824381251046147 -0.46313925564903374 -0.08249233442394142
    outer loop
      vertex 1.4306989311841471 3.4473180832011425 1.0
      vertex 1.1129402608199286 2.841879520410808 1.0
      vertex 1.2350627987505916 3.163890204345511 0.4984963711731673
    endloop
  endfacet
  facet normal 0.745930351258501 -0.6608920396706067 0.08252043971886189
    outer loop
      vertex 1.6884788715067416 3.6756911943787105 0.49884040461904655
      vertex 1.4306989311841471 3.4473180832011425 1.0
      vertex 1.2350627987505916 3.163890204345511 0.4984963711731673
    endloop
  endfacet
  facet normal 0.9965919809154419 -9.385394450989518e-15 -0.08248893001509607
    outer loop
      vertex 1.1129402608199286 2.841879520410808 1.0
      vertex 1.1129402608199221 2.1581204795892157 1.0
      vertex 1.0714285714285714 2.4999999906467907 0.49847553175795906
    endloop
  endfacet
  facet normal 0.9676320961089862 -0.238502460448961 0.08249062334303031
    outer loop
      vertex 1.2350627987505916 3.163890204345511 0.4984963711731673
      vertex 1.1129402608199286 2.841879520410808 1.0
      vertex 1.0714285714285714 2.4999999906467907 0.49847553175795906
    endloop
  endfacet
  facet normal 0.8824333418876013 0.4631367452230662 -0.08255756990890845
    outer loop
      vertex 1.1129402608199221 2.1581204795892157 1.0
      vertex 1.4306989311841305 1.5526819167988757 1.0
      vertex 1.2350627137625636 1.836109957585684 0.49889536641817134
    endloop
  endfacet
  facet normal 0.967617967152666 0.2385485161189313 0.08252317917287455
    outer loop
      vertex 1.0714285714285714 2.4999999906467907 0.49847553175795906
      vertex 1.1129402608199221 2.1581204795892157 1.0
      vertex 1.2350627137625636 1.836109957585684 0.49889536641817134
    endloop
  endfacet
  facet normal 0.5661154601573807 0.8201598367500378 -0.08277154071870695
    outer loop
      vertex 1.4306989311841305 1.5526819167988757 1.0
      vertex 1.9934215899392203 1.1642625104494124 1.0
      vertex 1.6884838917634022 1.3243053404037508 0.5001996619301571
    endloop
  endfacet
  facet normal 0.7458429177591774 0.6609725347794663 0.08266589560202096
    outer loop
      vertex 1.4306989311841305 1.5526819167988757 1.0
      vertex 1.6884838917634022 1.3243053404037508 0.5001996619301571
      vertex 1.2350627137625636 1.836109957585684 0.49889536641817134
    endloop
  endfacet
  facet normal 0.12012364880144809 0.9893072540378004 -0.08271315558490938
    outer loop
      vertex 1.9934215899392203 1.1642625104494124 1.0
      vertex 2.6721952575075933 1.0818444655742065 1.0
      vertex 2.3278013226558016 1.0818448808217338 0.4998444324902272
    endloop
  endfacet
  facet normal 0.3534283544841947 0.9317952967065816 0.08274009476721784
    outer loop
      vertex 1.6884838917634022 1.3243053404037508 0.5001996619301571
      vertex 1.9934215899392203 1.1642625104494124 1.0
      vertex 2.3278013226558016 1.0818448808217338 0.4998444324902272
    endloop
  endfacet
  facet normal -0.35339569507638613 0.9318278655079385 -0.08251249459565031
    outer loop
      vertex 2.6721952575075933 1.0818444655742065 1.0
      vertex 3.3115210667587878 1.3243087630090573 1.0
      vertex 3.0059931411911496 1.1640406938839316 0.49862139857175525
    endloop
  endfacet
  facet normal -0.1197616372676819 0.9893718144029601 0.08246552676093821
    outer loop
      vertex 2.3278013226558016 1.0818448808217338 0.4998444324902272
      vertex 2.6721952575075933 1.0818444655742065 1.0
      vertex 3.0059931411911496 1.1640406938839316 0.49862139857175525
    endloop
  endfacet
  facet normal -0.745955682554506 0.6608590676273101 -0.0825555110177607
    outer loop
      vertex 3.3115210667587878 1.3243087630090573 1.0
      vertex 3.7649371795045834 1.836109754223184 1.0
      vertex 3.562421678174137 1.5449730347910253 0.49933382491816053
    endloop
  endfacet
  facet normal -0.5631512069929503 0.8224458276277864 0.08027190467422926
    outer loop
      vertex 3.3115210667587878 1.3243087630090573 1.0
      vertex 3.562421678174137 1.5449730347910253 0.49933382491816053
      vertex 3.0059931411911496 1.1640406938839316 0.49862139857175525
    endloop
  endfacet
  facet normal -0.8541392284060082 0.518164302929919 0.04418069337550095
    outer loop
      vertex 3.562421678174137 1.5449730347910253 0.49933382491816053
      vertex 3.7649371795045834 1.836109754223184 1.0
      vertex 3.8366874067110297 1.995933433690793 0.5126775948043949
    endloop
  endfacet
  facet normal 0.9846806664262147 0.14157570634859457 -0.10178558119066919
    outer loop
      vertex 4.898732434036243 3.204331392103575 0.0
      vertex 4.974553604702331 2.8557870956832128 0.24870159019667698
      vertex 5.0 2.4999999999999996 0.0
    endloop
  endfacet
  facet normal 0.9874129378367378 -0.14196854767072897 -0.06971815878870054
    outer loop
      vertex 5.0 2.4999999999999996 0.0
      vertex 4.956870474184722 2.03762842531213 0.33069675892864325
      vertex 4.898732434036245 1.795668607896427 0.0
    endloop
  endfacet
  facet normal 0.9974521146102534 0.07133918319923421 1.2672384599318713e-16
    outer loop
      vertex 5.0 2.4999999999999996 0.0
      vertex 4.974553604702331 2.8557870956832128 0.24870159019667698
      vertex 5.0 2.4999999999999987 0.5
    endloop
  endfacet
  facet normal 0.9956777063070884 -0.09287575121125846 -1.6498047587855506e-16
    outer loop
      vertex 5.0 2.4999999999999987 0.5
      vertex 4.956870474184722 2.03762842531213 0.33069675892864325
      vertex 5.0 2.4999999999999996 0.0
    endloop
  endfacet
  facet normal 0.9874215853560141 0.14196979099629967 0.06959304000748102
    outer loop
      vertex 5.0 2.4999999999999996 1.0
      vertex 4.956885340732851 2.9622925723954716 0.6686560225850879
      vertex 4.898732434036243 3.204331392103575 1.0
    endloop
  endfacet
  facet normal 0.9846806664262149 -0.14157570634859276 0.10178558119066991
    outer loop
      vertex 4.898732434036245 1.795668607896427 1.0
      vertex 4.974553604702332 2.144212904316788 0.7512984098033251
      vertex 5.0 2.4999999999999996 1.0
    endloop
  endfacet
  facet normal 0.9956791994144351 0.09285974291063882 -1.649520394242622e-16
    outer loop
      vertex 5.0 2.4999999999999987 0.5
      vertex 4.956885340732851 2.9622925723954716 0.6686560225850879
      vertex 5.0 2.4999999999999996 1.0
    endloop
  endfacet
  facet normal 0.9974521146102536 -0.07133918319923228 1.267238459931837e-16
    outer loop
      vertex 5.0 2.4999999999999996 1.0
      vertex 4.974553604702332 2.144212904316788 0.7512984098033251
      vertex 5.0 2.4999999999999987 0.5
    endloop
  endfacet
  facet normal 0.9085309470356874 0.41491218108302397 -0.049187399477559256
    outer loop
      vertex 4.603133832077952 3.851602043638996 0.0
      vertex 4.80027229394808 3.4791564602732494 0.4996032396918265
      vertex 4.898732434036243 3.204331392103575 0.0
    endloop
  endfacet
  facet normal 0.9670779947497387 0.24873642227148482 0.05376192245824074
    outer loop
      vertex 4.80027229394808 3.4791564602732494 0.4996032396918265
      vertex 4.974553604702331 2.8557870956832128 0.24870159019667698
      vertex 4.898732434036243 3.204331392103575 0.0
    endloop
  endfacet
  facet normal 0.754771555593421 0.6540132758649022 -0.05085797734423479
    outer loop
      vertex 4.13715183486321 4.389373935885648 0.0
      vertex 4.389373935885643 4.137151834863214 0.49969476443233424
      vertex 4.603133832077952 3.851602043638996 0.0
    endloop
  endfacet
  facet normal 0.8466729480809454 0.5287134846519396 0.060058056371517135
    outer loop
      vertex 4.389373935885643 4.137151834863214 0.49969476443233424
      vertex 4.80027229394808 3.4791564602732494 0.4996032396918265
      vertex 4.603133832077952 3.851602043638996 0.0
    endloop
  endfacet
  facet normal 0.5399420880284087 0.840166288619991 -0.05082468929597202
    outer loop
      vertex 3.5385375325047104 4.774079988386297 0.0
      vertex 3.8516051097412403 4.603131861610529 0.5000228920113564
      vertex 4.13715183486321 4.389373935885648 0.0
    endloop
  endfacet
  facet normal 0.6540321162410263 0.7547563864366624 0.05084081095297416
    outer loop
      vertex 4.13715183486321 4.389373935885648 0.0
      vertex 3.8516051097412403 4.603131861610529 0.5000228920113564
      vertex 4.389373935885643 4.137151834863214 0.49969476443233424
    endloop
  endfacet
  facet normal 0.28136849995705754 0.9582531097291631 -0.05082071355563546
    outer loop
      vertex 2.855787095683205 4.974553604702333 0.0
      vertex 3.2043316214224022 4.8987323667021485 0.500062110510689
      vertex 3.5385375325047104 4.774079988386297 0.0
    endloop
  endfacet
  facet normal 0.41488141204800394 0.9084549619518165 0.050823184101135496
    outer loop
      vertex 3.5385375325047104 4.774079988386297 0.0
      vertex 3.2043316214224022 4.8987323667021485 0.500062110510689
      vertex 3.8516051097412403 4.603131861610529 0.5000228920113564
    endloop
  endfacet
  facet normal -3.739722750264377e-15 0.9987070664069468 -0.050834983120194126
    outer loop
      vertex 2.1442129043167766 4.97455360470233 0.0
      vertex 2.4999960812418536 4.999999999996929 0.49992137767039346
      vertex 2.855787095683205 4.974553604702333 0.0
    endloop
  endfacet
  facet normal 0.14212020422497162 0.9885435334726459 0.05082843673051858
    outer loop
      vertex 2.4999960812418536 4.999999999996929 0.49992137767039346
      vertex 3.2043316214224022 4.8987323667021485 0.500062110510689
      vertex 2.855787095683205 4.974553604702333 0.0
    endloop
  endfacet
  facet normal -0.28136829535977437 0.9582524129347876 -0.05083498274802691
    outer loop
      vertex 1.461462467495273 4.7740799883862906 0.0
      vertex 1.7956668365900625 4.898731913933058 0.4999213813867936
      vertex 2.1442129043167766 4.97455360470233 0.0
    endloop
  endfacet
  facet normal -0.14213197626310134 0.9885415194678363 0.05083468905940586
    outer loop
      vertex 2.1442129043167766 4.97455360470233 0.0
      vertex 1.7956668365900625 4.898731913933058 0.4999213813867936
      vertex 2.4999960812418536 4.999999999996929 0.49992137767039346
    endloop
  endfacet
  facet normal -0.5399422434552256 0.8401665304688218 -0.05081903986224369
    outer loop
      vertex 0.8628481651367759 4.389373935885636 0.0
      vertex 1.1483946596935306 4.60313171343476 0.5000786223296065
      vertex 1.461462467495273 4.7740799883862906 0.0
    endloop
  endfacet
  facet normal -0.4148689021262116 0.9084604445004314 0.05082730394847414
    outer loop
      vertex 1.1483946596935306 4.60313171343476 0.5000786223296065
      vertex 1.7956668365900625 4.898731913933058 0.4999213813867936
      vertex 1.461462467495273 4.7740799883862906 0.0
    endloop
  endfacet
  facet normal -0.7547732350708729 0.6540147311403893 -0.050814319556726766
    outer loop
      vertex 0.39686616792203994 3.8516020436389833 0.0
      vertex 0.6106260641143451 4.137151834863202 0.5001251965767453
      vertex 0.8628481651367759 4.389373935885636 0.0
    endloop
  endfacet
  facet normal -0.6540127488972597 0.7547748311927993 0.05081612419037234
    outer loop
      vertex 0.8628481651367759 4.389373935885636 0.0
      vertex 0.6106260641143451 4.137151834863202 0.5001251965767453
      vertex 1.1483946596935306 4.60313171343476 0.5000786223296065
    endloop
  endfacet
  facet normal -0.9084566396629994 0.4148782460429699 -0.05081903986224376
    outer loop
      vertex 0.10126756596375282 3.204331392103562 0.0
      vertex 0.2259216395274542 3.5385410971312092 0.5000786223296063
      vertex 0.39686616792203994 3.8516020436389833 0.0
    endloop
  endfacet
  facet normal -0.8401680302946799 0.53994018408804 0.05081612419037223
    outer loop
      vertex 0.2259216395274542 3.5385410971312092 0.5000786223296063
      vertex 0.6106260641143451 4.137151834863202 0.5001251965767453
      vertex 0.39686616792203994 3.8516020436389833 0.0
    endloop
  endfacet
  facet normal -0.9885418596058484 0.14213086211674225 -0.05083118964733015
    outer loop
      vertex 0.0 2.4999999999999885 0.0
      vertex 0.0254463829894856 2.8557870100779144 0.4999587829434121
      vertex 0.10126756596375282 3.204331392103562 0.0
    endloop
  endfacet
  facet normal -0.9582550630096901 0.2813609501720421 0.05082568184078459
    outer loop
      vertex 0.10126756596375282 3.204331392103562 0.0
      vertex 0.0254463829894856 2.8557870100779144 0.4999587829434121
      vertex 0.2259216395274542 3.5385410971312092 0.5000786223296063
    endloop
  endfacet
  facet normal -0.9885423134566951 -0.1421309273706517 -0.050822180103215445
    outer loop
      vertex 0.10126756596375916 1.7956686078964152 0.0
      vertex 0.02544694515497056 2.144209079996225 0.500047643070002
      vertex 0.0 2.4999999999999885 0.0
    endloop
  endfacet
  facet normal -0.998707461512028 5.55817454226409e-06 0.05082721996438321
    outer loop
      vertex 0.02544694515497056 2.144209079996225 0.500047643070002
      vertex 0.0254463829894856 2.8557870100779144 0.4999587829434121
      vertex 0.0 2.4999999999999885 0.0
    endloop
  endfacet
  facet normal -0.9084588169667313 -0.414879240384278 -0.050771978231812405
    outer loop
      vertex 0.3968661679220523 1.1483979563609978 0.0
      vertex 0.22591997012161272 1.4614625583502943 0.500543355592536
      vertex 0.10126756596375916 1.7956686078964152 0.0
    endloop
  endfacet
  facet normal -0.9582640487612566 -0.2813356143435189 0.050796505328998015
    outer loop
      vertex 0.22591997012161272 1.4614625583502943 0.500543355592536
      vertex 0.02544694515497056 2.144209079996225 0.500047643070002
      vertex 0.10126756596375916 1.7956686078964152 0.0
    endloop
  endfacet
  facet normal -0.7547739362721452 -0.6540153387347605 -0.05079608079279468
    outer loop
      vertex 0.8628481651367921 0.6106260641143493 0.0
      vertex 0.6106260641143623 0.8628481651367781 0.500305235567665
      vertex 0.3968661679220523 1.1483979563609978 0.0
    endloop
  endfacet
  facet normal -0.8401588510167718 -0.5399574856027008 0.05078404079813671
    outer loop
      vertex 0.6106260641143623 0.8628481651367781 0.500305235567665
      vertex 0.22591997012161272 1.4614625583502943 0.500543355592536
      vertex 0.3968661679220523 1.1483979563609978 0.0
    endloop
  endfacet
  facet normal -0.5399435375381861 -0.8401685441012284 -0.05077197823181251
    outer loop
      vertex 1.4614624674952885 0.2259200116137015 0.0
      vertex 1.1483980403863157 0.3968661139222607 0.5005433555925364
      vertex 0.8628481651367921 0.6106260641143493 0.0
    endloop
  endfacet
  facet normal -0.6540285679599837 -0.7547632830844556 0.05078404079813626
    outer loop
      vertex 0.8628481651367921 0.6106260641143493 0.0
      vertex 1.1483980403863157 0.3968661139222607 0.5005433555925364
      vertex 0.6106260641143623 0.8628481651367781 0.500305235567665
    endloop
  endfacet
  facet normal -0.281369349807965 -0.9582560040555582 -0.0507613995090454
    outer loop
      vertex 2.1442129043167935 0.025446395297666426 0.0
      vertex 1.7956686078964317 0.1012675659637544 0.5006479388584093
      vertex 1.4614624674952885 0.2259200116137015 0.0
    endloop
  endfacet
  facet normal -0.41488612136934844 -0.9084559709133664 0.05076667417658121
    outer loop
      vertex 1.7956686078964317 0.1012675659637544 0.5006479388584093
      vertex 1.1483980403863157 0.3968661139222607 0.5005433555925364
      vertex 1.4614624674952885 0.2259200116137015 0.0
    endloop
  endfacet
  facet normal 3.116446370232821e-15 -0.9987105098022858 -0.050767288783807075
    outer loop
      vertex 2.855787095683219 0.025446395297668647 0.0
      vertex 2.49999993601099 0.0 0.5005897109965431
      vertex 2.1442129043167935 0.025446395297666426 0.0
    endloop
  endfacet
  facet normal -0.14212724695702783 -0.9885458148072883 0.05076433491547418
    outer loop
      vertex 2.1442129043167935 0.025446395297666426 0.0
      vertex 2.49999993601099 0.0 0.5005897109965431
      vertex 1.7956686078964317 0.1012675659637544 0.5006479388584093
    endloop
  endfacet
  facet normal 0.2813691628586984 -0.958255367364814 -0.05077445330794686
    outer loop
      vertex 3.5385375325047193 0.225920011613705 0.0
      vertex 3.2043307217268158 0.10126736912348079 0.5005188927998352
      vertex 2.855787095683219 0.025446395297668647 0.0
    endloop
  endfacet
  facet normal 0.14213615008060693 -0.9885442036879621 0.05077078091970085
    outer loop
      vertex 3.2043307217268158 0.10126736912348079 0.5005188927998352
      vertex 2.49999993601099 0.0 0.5005897109965431
      vertex 2.855787095683219 0.025446395297668647 0.0
    endloop
  endfacet
  facet normal 0.5399422434552223 -0.8401665304688238 -0.05081903986224446
    outer loop
      vertex 4.137151834863217 0.6106260641143572 0.0
      vertex 3.851598746968213 0.39686404928403235 0.5000786223296065
      vertex 3.5385375325047193 0.225920011613705 0.0
    endloop
  endfacet
  facet normal 0.4149064768816257 -0.908445019418982 0.050796280715446444
    outer loop
      vertex 3.851598746968213 0.39686404928403235 0.5000786223296065
      vertex 3.2043307217268158 0.10126736912348079 0.5005188927998352
      vertex 3.5385375325047193 0.225920011613705 0.0
    endloop
  endfacet
  facet normal 0.7547781644796843 -0.6540190024974439 -0.05068596252343789
    outer loop
      vertex 4.603133832077955 1.1483979563610074 0.0
      vertex 4.4018660099565805 0.877376913706748 0.49994817818136106
      vertex 4.137151834863217 0.6106260641143572 0.0
    endloop
  endfacet
  facet normal 0.656815233640863 -0.7521483055068232 0.05354134272235718
    outer loop
      vertex 4.137151834863217 0.6106260641143572 0.0
      vertex 4.4018660099565805 0.877376913706748 0.49994817818136106
      vertex 3.851598746968213 0.39686404928403235 0.5000786223296065
    endloop
  endfacet
  facet normal 0.9085322468630245 -0.4149127746942784 -0.04915837472414142
    outer loop
      vertex 4.898732434036245 1.795668607896427 0.0
      vertex 4.80018830294614 1.5206462482893317 0.5000118419500692
      vertex 4.603133832077955 1.1483979563610074 0.0
    endloop
  endfacet
  facet normal 0.8488269179894999 -0.5256123388646714 0.05678496746196604
    outer loop
      vertex 4.80018830294614 1.5206462482893317 0.5000118419500692
      vertex 4.4018660099565805 0.877376913706748 0.49994817818136106
      vertex 4.603133832077955 1.1483979563610074 0.0
    endloop
  endfacet
  facet normal 0.9595817651529853 -0.27917393668388063 0.03556331062071832
    outer loop
      vertex 4.898732434036245 1.795668607896427 0.0
      vertex 4.956870474184722 2.03762842531213 0.33069675892864325
      vertex 4.80018830294614 1.5206462482893317 0.5000118419500692
    endloop
  endfacet
  facet normal 0.9085344300013036 0.41491377170012433 0.049109587208440164
    outer loop
      vertex 4.898732434036243 3.204331392103575 1.0
      vertex 4.80027229394808 3.4791564602732494 0.4996032396918265
      vertex 4.603133832077952 3.851602043638996 1.0
    endloop
  endfacet
  facet normal 0.9595907437173828 0.2791512345527012 -0.03549919463344203
    outer loop
      vertex 4.898732434036243 3.204331392103575 1.0
      vertex 4.956885340732851 2.9622925723954716 0.6686560225850879
      vertex 4.80027229394808 3.4791564602732494 0.4996032396918265
    endloop
  endfacet
  facet normal 0.7547739362721457 0.65401533873476 0.05079608079279311
    outer loop
      vertex 4.603133832077952 3.851602043638996 1.0
      vertex 4.389373935885643 4.137151834863214 0.49969476443233424
      vertex 4.13715183486321 4.389373935885648 1.0
    endloop
  endfacet
  facet normal 0.8466696820260465 0.5287281412578979 -0.059975012962748035
    outer loop
      vertex 4.603133832077952 3.851602043638996 1.0
      vertex 4.80027229394808 3.4791564602732494 0.4996032396918265
      vertex 4.389373935885643 4.137151834863214 0.49969476443233424
    endloop
  endfacet
  facet normal 0.539941960302146 0.8401660898740468 0.05082933140255502
    outer loop
      vertex 4.13715183486321 4.389373935885648 1.0
      vertex 3.8516051097412403 4.603131861610529 0.5000228920113564
      vertex 3.5385375325047104 4.774079988386297 1.0
    endloop
  endfacet
  facet normal 0.653997644259554 0.7547881843536076 -0.05081218419964021
    outer loop
      vertex 4.389373935885643 4.137151834863214 0.49969476443233424
      vertex 3.8516051097412403 4.603131861610529 0.5000228920113564
      vertex 4.13715183486321 4.389373935885648 1.0
    endloop
  endfacet
  facet normal 0.28136831936877427 0.9582524947019513 0.050833308500216515
    outer loop
      vertex 3.5385375325047104 4.774079988386297 1.0
      vertex 3.2043316214224022 4.8987323667021485 0.500062110510689
      vertex 2.855787095683205 4.974553604702333 1.0
    endloop
  endfacet
  facet normal 0.4148761334401892 0.9084568904097512 -0.050831802729823836
    outer loop
      vertex 3.8516051097412403 4.603131861610529 0.5000228920113564
      vertex 3.2043316214224022 4.8987323667021485 0.500062110510689
      vertex 3.5385375325047104 4.774079988386297 1.0
    endloop
  endfacet
  facet normal -3.739725788592209e-15 0.9987078778038548 0.05081903986224552
    outer loop
      vertex 2.855787095683205 4.974553604702333 1.0
      vertex 2.4999960812418536 4.999999999996929 0.49992137767039346
      vertex 2.1442129043167766 4.97455360470233 1.0
    endloop
  endfacet
  facet normal 0.14214011663325188 0.9885407565923628 -0.05082676262840889
    outer loop
      vertex 2.855787095683205 4.974553604702333 1.0
      vertex 3.2043316214224022 4.8987323667021485 0.500062110510689
      vertex 2.4999960812418536 4.999999999996929 0.49992137767039346
    endloop
  endfacet
  facet normal -0.2813685239458944 0.9582531914276194 0.050819040243699
    outer loop
      vertex 2.1442129043167766 4.97455360470233 1.0
      vertex 1.7956668365900625 4.898731913933058 0.4999213813867936
      vertex 1.461462467495273 4.7740799883862906 1.0
    endloop
  endfacet
  facet normal -0.1421320922592963 0.9885423225019478 -0.05081874626995226
    outer loop
      vertex 2.4999960812418536 4.999999999996929 0.49992137767039346
      vertex 1.7956668365900625 4.898731913933058 0.4999213813867936
      vertex 2.1442129043167766 4.97455360470233 1.0
    endloop
  endfacet
  facet normal -0.5399418047809379 0.8401658478783063 0.05083498312019224
    outer loop
      vertex 1.461462467495273 4.7740799883862906 1.0
      vertex 1.1483946596935306 4.60313171343476 0.5000786223296065
      vertex 0.8628481651367759 4.389373935885636 1.0
    endloop
  endfacet
  facet normal -0.41488933533899236 0.9084511129224973 -0.05082730419612517
    outer loop
      vertex 1.461462467495273 4.7740799883862906 1.0
      vertex 1.7956668365900625 4.898731913933058 0.4999213813867936
      vertex 1.1483946596935306 4.60313171343476 0.5000786223296065
    endloop
  endfacet
  facet normal -0.7547722586032704 0.6540138850263952 0.05083970727294765
    outer loop
      vertex 0.8628481651367759 4.389373935885636 1.0
      vertex 0.6106260641143451 4.137151834863202 0.5001251965767453
      vertex 0.39686616792203994 3.8516020436389833 1.0
    endloop
  endfacet
  facet normal -0.6540170885292244 0.7547696792747776 -0.050836789426615334
    outer loop
      vertex 1.1483946596935306 4.60313171343476 0.5000786223296065
      vertex 0.6106260641143451 4.137151834863202 0.5001251965767453
      vertex 0.8628481651367759 4.389373935885636 1.0
    endloop
  endfacet
  facet normal -0.9084559015904108 0.41487790897651283 0.05083498312019226
    outer loop
      vertex 0.39686616792203994 3.8516020436389833 1.0
      vertex 0.2259216395274542 3.5385410971312092 0.5000786223296063
      vertex 0.10126756596375282 3.204331392103562 1.0
    endloop
  endfacet
  facet normal -0.8401635484097764 0.5399452127431887 -0.05083678942661515
    outer loop
      vertex 0.39686616792203994 3.8516020436389833 1.0
      vertex 0.6106260641143451 4.137151834863202 0.5001251965767453
      vertex 0.2259216395274542 3.5385410971312092 0.5000786223296063
    endloop
  endfacet
  facet normal -0.9885422806438123 0.14213092265286245 0.05082283153638695
    outer loop
      vertex 0.10126756596375282 3.204331392103562 1.0
      vertex 0.0254463829894856 2.8557870100779144 0.4999587829434121
      vertex 0.0 2.4999999999999885 1.0
    endloop
  endfacet
  facet normal -0.9582500545095344 0.28137732240823177 -0.050829474390834545
    outer loop
      vertex 0.2259216395274542 3.5385410971312092 0.5000786223296063
      vertex 0.0254463829894856 2.8557870100779144 0.4999587829434121
      vertex 0.10126756596375282 3.204331392103562 1.0
    endloop
  endfacet
  facet normal -0.9885418267761082 -0.14213085739654718 0.05083184129929718
    outer loop
      vertex 0.0 2.4999999999999885 1.0
      vertex 0.02544694515497056 2.144209079996225 0.500047643070002
      vertex 0.10126756596375916 1.7956686078964152 1.0
    endloop
  endfacet
  facet normal -0.9987074283450273 -7.13626677231183e-06 -0.050827871463750986
    outer loop
      vertex 0.0 2.4999999999999885 1.0
      vertex 0.0254463829894856 2.8557870100779144 0.4999587829434121
      vertex 0.02544694515497056 2.144209079996225 0.500047643070002
    endloop
  endfacet
  facet normal -0.90845371616658 -0.4148769109269018 0.05088216153901963
    outer loop
      vertex 0.10126756596375916 1.7956686078964152 1.0
      vertex 0.22591997012161272 1.4614625583502943 0.500543355592536
      vertex 0.3968661679220523 1.1483979563609978 1.0
    endloop
  endfacet
  facet normal -0.9582411715071665 -0.28140270272483286 -0.05085642661190902
    outer loop
      vertex 0.10126756596375916 1.7956686078964152 1.0
      vertex 0.02544694515497056 2.144209079996225 0.500047643070002
      vertex 0.22591997012161272 1.4614625583502943 0.500543355592536
    endloop
  endfacet
  facet normal -0.7547715555934206 -0.6540132758649027 0.05085797734423614
    outer loop
      vertex 0.3968661679220523 1.1483979563609978 1.0
      vertex 0.6106260641143623 0.8628481651367781 0.500305235567665
      vertex 0.8628481651367921 0.6106260641143493 1.0
    endloop
  endfacet
  facet normal -0.8401735584963701 -0.5399265010070597 -0.0508700807333763
    outer loop
      vertex 0.3968661679220523 1.1483979563609978 1.0
      vertex 0.22591997012161272 1.4614625583502943 0.500543355592536
      vertex 0.6106260641143623 0.8628481651367781 0.500305235567665
    endloop
  endfacet
  facet normal -0.5399405058717787 -0.8401638267362176 0.050882161539019886
    outer loop
      vertex 0.8628481651367921 0.6106260641143493 1.0
      vertex 1.1483980403863157 0.3968661139222607 0.5005433555925364
      vertex 1.4614624674952885 0.2259200116137015 1.0
    endloop
  endfacet
  facet normal -0.6539999918354304 -0.7547822504308354 -0.05087008073337589
    outer loop
      vertex 0.6106260641143623 0.8628481651367781 0.500305235567665
      vertex 1.1483980403863157 0.3968661139222607 0.5005433555925364
      vertex 0.8628481651367921 0.6106260641143493 1.0
    endloop
  endfacet
  facet normal -0.28136746589891476 -0.9582495880505466 0.05089279059533598
    outer loop
      vertex 1.4614624674952885 0.2259200116137015 1.0
      vertex 1.7956686078964317 0.1012675659637544 0.5006479388584093
      vertex 2.1442129043167935 0.025446395297666426 1.0
    endloop
  endfacet
  facet normal -0.41486997730991965 -0.9084565857572963 -0.05088746133442917
    outer loop
      vertex 1.4614624674952885 0.2259200116137015 1.0
      vertex 1.1483980403863157 0.3968661139222607 0.5005433555925364
      vertex 1.7956686078964317 0.1012675659637544 0.5006479388584093
    endloop
  endfacet
  facet normal 3.1164273792306122e-15 -0.9987044238597589 0.05088687220636904
    outer loop
      vertex 2.1442129043167935 0.025446395297666426 1.0
      vertex 2.49999993601099 0.0 0.5005897109965431
      vertex 2.855787095683219 0.025446395297668647 1.0
    endloop
  endfacet
  facet normal -0.14213457173243133 -0.9885383095866366 -0.05088982214582117
    outer loop
      vertex 1.7956686078964317 0.1012675659637544 0.5006479388584093
      vertex 2.49999993601099 0.0 0.5005897109965431
      vertex 2.1442129043167935 0.025446395297666426 1.0
    endloop
  endfacet
  facet normal 0.2813676541582118 -0.9582502292028193 0.050879675964468574
    outer loop
      vertex 2.855787095683219 0.025446395297668647 1.0
      vertex 3.2043307217268158 0.10126736912348079 0.5005188927998352
      vertex 3.5385375325047193 0.225920011613705 1.0
    endloop
  endfacet
  facet normal 0.14212532200164066 -0.9885399812133037 -0.05088318375191733
    outer loop
      vertex 2.855787095683219 0.025446395297668647 1.0
      vertex 2.49999993601099 0.0 0.5005897109965431
      vertex 3.2043307217268158 0.10126736912348079 0.5005188927998352
    endloop
  endfacet
  facet normal 0.5399418047809347 -0.8401658478783083 0.050834983120193
    outer loop
      vertex 3.5385375325047193 0.225920011613705 1.0
      vertex 3.851598746968213 0.39686404928403235 0.5000786223296065
      vertex 4.137151834863217 0.6106260641143572 1.0
    endloop
  endfacet
  facet normal 0.41484798397091965 -0.9084683427069555 -0.050856862806719735
    outer loop
      vertex 3.5385375325047193 0.225920011613705 1.0
      vertex 3.2043307217268158 0.10126736912348079 0.5005188927998352
      vertex 3.851598746968213 0.39686404928403235 0.5000786223296065
    endloop
  endfacet
  facet normal 0.7547785663423799 -0.6540193507134517 0.05067548403810855
    outer loop
      vertex 4.137151834863217 0.6106260641143572 1.0
      vertex 4.4018660099565805 0.877376913706748 0.49994817818136106
      vertex 4.603133832077955 1.1483979563610074 1.0
    endloop
  endfacet
  facet normal 0.6568007171184568 -0.7521607521321388 -0.053544569703155145
    outer loop
      vertex 3.851598746968213 0.39686404928403235 0.5000786223296065
      vertex 4.4018660099565805 0.877376913706748 0.49994817818136106
      vertex 4.137151834863217 0.6106260641143572 1.0
    endloop
  endfacet
  facet normal 0.9085321428616469 -0.41491272719844075 0.049160697675849865
    outer loop
      vertex 4.603133832077955 1.1483979563610074 1.0
      vertex 4.80018830294614 1.5206462482893317 0.5000118419500692
      vertex 4.898732434036245 1.795668607896427 1.0
    endloop
  endfacet
  facet normal 0.8488322061347099 -0.5256043739816832 -0.05677964318137591
    outer loop
      vertex 4.603133832077955 1.1483979563610074 1.0
      vertex 4.4018660099565805 0.877376913706748 0.49994817818136106
      vertex 4.80018830294614 1.5206462482893317 0.5000118419500692
    endloop
  endfacet
  facet normal 0.9670743140825441 -0.2487472188432339 -0.053778175494648674
    outer loop
      vertex 4.80018830294614 1.5206462482893317 0.5000118419500692
      vertex 4.974553604702332 2.144212904316788 0.7512984098033251
      vertex 4.898732434036245 1.795668607896427 1.0
    endloop
  endfacet
  facet normal 0.9961308061823203 0.0855255410776374 0.02021877340339588
    outer loop
      vertex 5.0 2.4999999999999987 0.5
      vertex 4.974553604702331 2.8557870956832128 0.24870159019667698
      vertex 4.956885340732851 2.9622925723954716 0.6686560225850879
    endloop
  endfacet
  facet normal 0.9961316213723512 -0.08551844133690525 -0.020208639078294437
    outer loop
      vertex 5.0 2.4999999999999987 0.5
      vertex 4.974553604702332 2.144212904316788 0.7512984098033251
      vertex 4.956870474184722 2.03762842531213 0.33069675892864325
    endloop
  endfacet
  facet normal 0.9593143263179654 -0.28065647163363644 0.030789093056892206
    outer loop
      vertex 4.956870474184722 2.03762842531213 0.33069675892864325
      vertex 4.974553604702332 2.144212904316788 0.7512984098033251
      vertex 4.80018830294614 1.5206462482893317 0.5000118419500692
    endloop
  endfacet
  facet normal 0.9593282497486344 0.2806071715933474 -0.030804617910365664
    outer loop
      vertex 4.956885340732851 2.9622925723954716 0.6686560225850879
      vertex 4.974553604702331 2.8557870956832128 0.24870159019667698
      vertex 4.80027229394808 3.4791564602732494 0.4996032396918265
    endloop
  endfacet
endsolid abc_50_023
