solid abc_50_025
  facet normal 0.1950903220161299 -0.9807852804032301 0.0
    outer loop
      vertex 4.468085106382978 0.0 0.0
      vertex 4.671640123598452 0.040489610366337345 0.13746933698349798
      vertex 4.468085106382978 0.0 0.26595744680851063
    endloop
  endfacet
  facet normal 0.3670917254488492 -0.8862378222135491 -0.2825352855577026
    outer loop
      vertex 4.844205734673696 0.1557942653263054 0.0
      vertex 4.671640123598452 0.040489610366337345 0.13746933698349798
      vertex 4.468085106382978 0.0 0.0
    endloop
  endfacet
  facet normal 0.9807852804032303 -0.19509032201612908 0.0
    outer loop
      vertex 5.0 0.5319148936170213 0.26595744680851063
      vertex 4.959510389633663 0.3283598764015479 0.12848810982501285
      vertex 5.0 0.5319148936170213 0.0
    endloop
  endfacet
  facet normal 0.8811638807972941 -0.3649900300995487 -0.3005536443069396
    outer loop
      vertex 5.0 0.5319148936170213 0.0
      vertex 4.959510389633663 0.3283598764015479 0.12848810982501285
      vertex 4.844205734673696 0.1557942653263054 0.0
    endloop
  endfacet
  facet normal 0.8862378222135496 -0.36709172544884827 0.2825352855577016
    outer loop
      vertex 4.844205734673696 0.1557942653263054 0.26595744680851063
      vertex 4.959510389633663 0.3283598764015479 0.12848810982501285
      vertex 5.0 0.5319148936170213 0.26595744680851063
    endloop
  endfacet
  facet normal 0.3649900300995495 -0.8811638807972932 0.30055364430694137
    outer loop
      vertex 4.468085106382978 0.0 0.26595744680851063
      vertex 4.671640123598452 0.040489610366337345 0.13746933698349798
      vertex 4.844205734673696 0.1557942653263054 0.26595744680851063
    endloop
  endfacet
  facet normal 0.5555702330196037 -0.8314696123025442 0.0
    outer loop
      vertex 4.844205734673696 0.1557942653263054 0.26595744680851063
      vertex 4.671640123598452 0.040489610366337345 0.13746933698349798
      vertex 4.844205734673696 0.1557942653263054 0.0
    endloop
  endfacet
  facet normal 0.8314696123025448 -0.5555702330196028 0.0
    outer loop
      vertex 4.844205734673696 0.1557942653263054 0.0
      vertex 4.959510389633663 0.3283598764015479 0.12848810982501285
      vertex 4.844205734673696 0.1557942653263054 0.26595744680851063
    endloop
  endfacet
  facet normal 0.0 -1.0 0.0
    outer loop
      vertex 4.468085106382978 0.0 0.0
      vertex 4.468085106382978 0.0 0.26595744680851063
      vertex 4.148936170212765 0.0 0.13297872340425532
    endloop
  endfacet
  facet normal 0.0 -1.0 0.0
    outer loop
      vertex 3.829787234042552 0.0 0.0
      vertex 4.468085106382978 0.0 0.0
      vertex 4.148936170212765 0.0 0.13297872340425532
    endloop
  endfacet
  facet normal -0.0 -1.0 0.0
    outer loop
      vertex 4.468085106382978 0.0 0.26595744680851063
      vertex 3.829787234042552 0.0 0.26595744680851063
      vertex 4.148936170212765 0.0 0.13297872340425532
    endloop
  endfacet
  facet normal 0.0 -1.0 0.0
    outer loop
      vertex 0.0 0.0 0.26595744680851063
      vertex 0.0 0.0 0.0
      vertex 0.3191489361702128 0.0 0.13297872340425532
    endloop
  endfacet
  facet normal 0.0 -1.0 0.0
    outer loop
      vertex 0.0 0.0 0.0
      vertex 0.6382978723404243 0.0 0.0
      vertex 0.3191489361702128 0.0 0.13297872340425532
    endloop
  endfacet
  facet normal -0.0 -1.0 0.0
    outer loop
      vertex 0.6382978723404243 0.0 0.26595744680851063
      vertex 0.0 0.0 0.26595744680851063
      vertex 0.3191489361702128 0.0 0.13297872340425532
    endloop
  endfacet
  facet normal 0.0 -1.0 0.0
    outer loop
      vertex 3.191489361702127 0.0 0.0
      vertex 3.829787234042552 0.0 0.0
      vertex 3.510638297872339 0.0 0.13297872340425532
    endloop
  endfacet
  facet normal 0.0 -1.0 0.0
    outer loop
      vertex 3.829787234042552 0.0 0.26595744680851063
      vertex 3.829787234042552 0.0 0.0
      vertex 4.148936170212765 0.0 0.13297872340425532
    endloop
  endfacet
  facet normal 0.0 -1.0 0.0
    outer loop
      vertex 3.829787234042552 0.0 0.0
      vertex 3.829787234042552 0.0 0.26595744680851063
      vertex 3.510638297872339 0.0 0.13297872340425532
    endloop
  endfacet
  facet normal 0.0 -1.0 0.0
    outer loop
      vertex 2.5531914893617014 0.0 0.0
      vertex 3.191489361702127 0.0 0.0
      vertex 2.872340425531914 0.0 0.13297872340425532
    endloop
  endfacet
  facet normal 0.0 -1.0 0.0
    outer loop
      vertex 3.191489361702127 0.0 0.0
      vertex 3.191489361702127 0.0 0.26595744680851063
      vertex 2.872340425531914 0.0 0.13297872340425532
    endloop
  endfacet
  facet normal 0.0 -1.0 0.0
    outer loop
      vertex 3.191489361702127 0.0 0.26595744680851063
      vertex 3.191489361702127 0.0 0.0
      vertex 3.510638297872339 0.0 0.13297872340425532
    endloop
  endfacet
  facet normal 0.0 -1.0 0.0
    outer loop
      vertex 1.914893617021276 0.0 0.0
      vertex 2.5531914893617014 0.0 0.0
      vertex 2.2340425531914887 0.0 0.13297872340425532
    endloop
  endfacet
  facet normal 0.0 -1.0 0.0
    outer loop
      vertex 2.5531914893617014 0.0 0.26595744680851063
      vertex 2.5531914893617014 0.0 0.0
      vertex 2.872340425531914 0.0 0.13297872340425532
    endloop
  endfacet
  facet normal 0.0 -1.0 0.0
    outer loop
      vertex 2.5531914893617014 0.0 0.0
      vertex 2.5531914893617014 0.0 0.26595744680851063
      vertex 2.2340425531914887 0.0 0.13297872340425532
    endloop
  endfacet
  facet normal 0.0 -1.0 0.0
    outer loop
      vertex 1.2765957446808511 0.0 0.0
      vertex 1.914893617021276 0.0 0.0
      vertex 1.5957446808510631 0.0 0.13297872340425532
    endloop
  endfacet
  facet normal 0.0 -1.0 0.0
    outer loop
      vertex 1.914893617021276 0.0 0.0
      vertex 1.914893617021276 0.0 0.26595744680851063
      vertex 1.5957446808510631 0.0 0.13297872340425532
    endloop
  endfacet
  facet normal 0.0 -1.0 0.0
    outer loop
      vertex 1.914893617021276 0.0 0.26595744680851063
      vertex 1.914893617021276 0.0 0.0
      vertex 2.2340425531914887 0.0 0.13297872340425532
    endloop
  endfacet
  facet normal 0.0 -1.0 0.0
    outer loop
      vertex 0.6382978723404243 0.0 0.0
      vertex 1.2765957446808511 0.0 0.0
      vertex 0.957446808510637 0.0 0.13297872340425532
    endloop
  endfacet
  facet normal 0.0 -1.0 0.0
    outer loop
      vertex 1.2765957446808511 0.0 0.26595744680851063
      vertex 1.2765957446808511 0.0 0.0
      vertex 1.5957446808510631 0.0 0.13297872340425532
    endloop
  endfacet
  facet normal 0.0 -1.0 0.0
    outer loop
      vertex 1.2765957446808511 0.0 0.0
      vertex 1.2765957446808511 0.0 0.26595744680851063
      vertex 0.957446808510637 0.0 0.13297872340425532
    endloop
  endfacet
  facet normal 0.0 -1.0 0.0
    outer loop
      vertex 0.6382978723404243 0.0 0.0
      vertex 0.6382978723404243 0.0 0.26595744680851063
      vertex 0.3191489361702128 0.0 0.13297872340425532
    endloop
  endfacet
  facet normal 0.0 -1.0 0.0
    outer loop
      vertex 0.6382978723404243 0.0 0.26595744680851063
      vertex 0.6382978723404243 0.0 0.0
      vertex 0.957446808510637 0.0 0.13297872340425532
    endloop
  endfacet
  facet normal -0.0 -1.0 0.0
    outer loop
      vertex 3.829787234042552 0.0 0.26595744680851063
      vertex 3.191489361702127 0.0 0.26595744680851063
      vertex 3.510638297872339 0.0 0.13297872340425532
    endloop
  endfacet
  facet normal -0.0 -1.0 0.0
    outer loop
      vertex 3.191489361702127 0.0 0.26595744680851063
      vertex 2.5531914893617014 0.0 0.26595744680851063
      vertex 2.872340425531914 0.0 0.13297872340425532
    endloop
  endfacet
  facet normal -0.0 -1.0 0.0
    outer loop
      vertex 2.5531914893617014 0.0 0.26595744680851063
      vertex 1.914893617021276 0.0 0.26595744680851063
      vertex 2.2340425531914887 0.0 0.13297872340425532
    endloop
  endfacet
  facet normal -0.0 -1.0 0.0
    outer loop
      vertex 1.914893617021276 0.0 0.26595744680851063
      vertex 1.2765957446808511 0.0 0.26595744680851063
      vertex 1.5957446808510631 0.0 0.13297872340425532
    endloop
  endfacet
  facet normal -0.0 -1.0 0.0
    outer loop
      vertex 1.2765957446808511 0.0 0.26595744680851063
      vertex 0.6382978723404243 0.0 0.26595744680851063
      vertex 0.957446808510637 0.0 0.13297872340425532
    endloop
  endfacet
  facet normal 0.0 0.0 1.0
    outer loop
      vertex 5.0 0.5319148936170213 0.26595744680851063
      vertex 4.600045531931035 0.40272220231770006 0.26595744680851063
      vertex 4.844205734673696 0.1557942653263054 0.26595744680851063
    endloop
  endfacet
  facet normal 0.0 0.0 1.0
    outer loop
      vertex 5.0 1.2145390070921989 0.26595744680851063
      vertex 4.539000648385733 0.8732269503546094 0.26595744680851063
      vertex 5.0 0.5319148936170213 0.26595744680851063
    endloop
  endfacet
  facet normal 0.0 0.0 1.0
    outer loop
      vertex 4.539000648385733 0.8732269503546094 0.26595744680851063
      vertex 4.600045531931035 0.40272220231770006 0.26595744680851063
      vertex 5.0 0.5319148936170213 0.26595744680851063
    endloop
  endfacet
  facet normal 0.0 0.0 1.0
    outer loop
      vertex 4.844205734673696 0.1557942653263054 0.26595744680851063
      vertex 4.600045531931035 0.40272220231770006 0.26595744680851063
      vertex 4.468085106382978 0.0 0.26595744680851063
    endloop
  endfacet
  facet normal 0.0 0.0 1.0
    outer loop
      vertex 4.468085106382978 0.0 0.26595744680851063
      vertex 4.148936170212766 0.45267490229056156 0.26595744680851063
      vertex 3.829787234042552 0.0 0.26595744680851063
    endloop
  endfacet
  facet normal 0.0 -0.0 1.0
    outer loop
      vertex 4.468085106382978 0.0 0.26595744680851063
      vertex 4.600045531931035 0.40272220231770006 0.26595744680851063
      vertex 4.148936170212766 0.45267490229056156 0.26595744680851063
    endloop
  endfacet
  facet normal 0.0 0.0 1.0
    outer loop
      vertex 0.6382978723404243 0.0 0.26595744680851063
      vertex 0.47719331756813627 0.4831416876048277 0.26595744680851063
      vertex 0.0 0.0 0.26595744680851063
    endloop
  endfacet
  facet normal 0.0 0.0 1.0
    outer loop
      vertex 0.0 0.0 0.26595744680851063
      vertex 0.47719331756813627 0.4831416876048277 0.26595744680851063
      vertex 0.0 0.6610942249240106 0.26595744680851063
    endloop
  endfacet
  facet normal 0.0 0.0 1.0
    outer loop
      vertex 5.0 4.627659574468085 0.26595744680851063
      vertex 4.308379553276734 4.112931530319487 0.26595744680851063
      vertex 5.0 3.9450354609929104 0.26595744680851063
    endloop
  endfacet
  facet normal -0.0 0.0 1.0
    outer loop
      vertex 4.374999999999997 4.627659574468085 0.26595744680851063
      vertex 4.308379553276734 4.112931530319487 0.26595744680851063
      vertex 5.0 4.627659574468085 0.26595744680851063
    endloop
  endfacet
  facet normal -0.0 0.0 1.0
    outer loop
      vertex 0.0 4.627659574468085 0.26595744680851063
      vertex 0.442709933562536 4.186012391807067 0.26595744680851063
      vertex 0.6249999999999979 4.627659574468085 0.26595744680851063
    endloop
  endfacet
  facet normal 0.0 0.0 1.0
    outer loop
      vertex 0.0 3.966565349544069 0.26595744680851063
      vertex 0.442709933562536 4.186012391807067 0.26595744680851063
      vertex 0.0 4.627659574468085 0.26595744680851063
    endloop
  endfacet
  facet normal 0.0 0.0 1.0
    outer loop
      vertex 3.829787234042552 0.0 0.26595744680851063
      vertex 3.5059853887441785 0.5468535063193277 0.26595744680851063
      vertex 3.191489361702127 0.0 0.26595744680851063
    endloop
  endfacet
  facet normal 0.0 0.0 1.0
    outer loop
      vertex 4.148936170212766 0.45267490229056156 0.26595744680851063
      vertex 3.5059853887441785 0.5468535063193277 0.26595744680851063
      vertex 3.829787234042552 0.0 0.26595744680851063
    endloop
  endfacet
  facet normal 0.0 0.0 1.0
    outer loop
      vertex 3.191489361702127 0.0 0.26595744680851063
      vertex 2.783170416218741 0.605226747049083 0.26595744680851063
      vertex 2.5531914893617014 0.0 0.26595744680851063
    endloop
  endfacet
  facet normal 0.0 -0.0 1.0
    outer loop
      vertex 3.191489361702127 0.0 0.26595744680851063
      vertex 3.5059853887441785 0.5468535063193277 0.26595744680851063
      vertex 2.783170416218741 0.605226747049083 0.26595744680851063
    endloop
  endfacet
  facet normal 0.0 0.0 1.0
    outer loop
      vertex 2.5531914893617014 0.0 0.26595744680851063
      vertex 2.2340425531914887 0.43141993051474786 0.26595744680851063
      vertex 1.914893617021276 0.0 0.26595744680851063
    endloop
  endfacet
  facet normal 0.0 0.0 1.0
    outer loop
      vertex 2.783170416218741 0.605226747049083 0.26595744680851063
      vertex 2.2340425531914887 0.43141993051474786 0.26595744680851063
      vertex 2.5531914893617014 0.0 0.26595744680851063
    endloop
  endfacet
  facet normal 0.0 0.0 1.0
    outer loop
      vertex 1.914893617021276 0.0 0.26595744680851063
      vertex 1.5946358382459753 0.6153046212248914 0.26595744680851063
      vertex 1.2765957446808511 0.0 0.26595744680851063
    endloop
  endfacet
  facet normal 0.0 -0.0 1.0
    outer loop
      vertex 1.914893617021276 0.0 0.26595744680851063
      vertex 2.2340425531914887 0.43141993051474786 0.26595744680851063
      vertex 1.5946358382459753 0.6153046212248914 0.26595744680851063
    endloop
  endfacet
  facet normal 0.0 0.0 1.0
    outer loop
      vertex 1.2765957446808511 0.0 0.26595744680851063
      vertex 0.9835559122417329 0.537708074560917 0.26595744680851063
      vertex 0.6382978723404243 0.0 0.26595744680851063
    endloop
  endfacet
  facet normal 0.0 0.0 1.0
    outer loop
      vertex 1.5946358382459753 0.6153046212248914 0.26595744680851063
      vertex 0.9835559122417329 0.537708074560917 0.26595744680851063
      vertex 1.2765957446808511 0.0 0.26595744680851063
    endloop
  endfacet
  facet normal 0.0 0.0 1.0
    outer loop
      vertex 0.9835559122417329 0.537708074560917 0.26595744680851063
      vertex 0.47719331756813627 0.4831416876048277 0.26595744680851063
      vertex 0.6382978723404243 0.0 0.26595744680851063
    endloop
  endfacet
  facet normal 0.0 0.0 1.0
    outer loop
      vertex 5.0 1.897163120567376 0.26595744680851063
      vertex 4.432746027152829 1.5652235228837297 0.26595744680851063
      vertex 5.0 1.2145390070921989 0.26595744680851063
    endloop
  endfacet
  facet normal 0.0 0.0 1.0
    outer loop
      vertex 4.432746027152829 1.5652235228837297 0.26595744680851063
      vertex 4.539000648385733 0.8732269503546094 0.26595744680851063
      vertex 5.0 1.2145390070921989 0.26595744680851063
    endloop
  endfacet
  facet normal 0.0 0.0 1.0
    outer loop
      vertex 5.0 2.5797872340425565 0.26595744680851063
      vertex 4.411308658038409 2.2434370206122694 0.26595744680851063
      vertex 5.0 1.897163120567376 0.26595744680851063
    endloop
  endfacet
  facet normal 0.0 0.0 1.0
    outer loop
      vertex 4.411308658038409 2.2434370206122694 0.26595744680851063
      vertex 4.432746027152829 1.5652235228837297 0.26595744680851063
      vertex 5.0 1.897163120567376 0.26595744680851063
    endloop
  endfacet
  facet normal 0.0 0.0 1.0
    outer loop
      vertex 5.0 3.2624113475177365 0.26595744680851063
      vertex 4.411870539444444 2.915470346774412 0.26595744680851063
      vertex 5.0 2.5797872340425565 0.26595744680851063
    endloop
  endfacet
  facet normal 0.0 0.0 1.0
    outer loop
      vertex 5.0 2.5797872340425565 0.26595744680851063
      vertex 4.411870539444444 2.915470346774412 0.26595744680851063
      vertex 4.411308658038409 2.2434370206122694 0.26595744680851063
    endloop
  endfacet
  facet normal 0.0 0.0 1.0
    outer loop
      vertex 5.0 3.9450354609929104 0.26595744680851063
      vertex 4.396396686387392 3.5695624053369945 0.26595744680851063
      vertex 5.0 3.2624113475177365 0.26595744680851063
    endloop
  endfacet
  facet normal 0.0 0.0 1.0
    outer loop
      vertex 4.396396686387392 3.5695624053369945 0.26595744680851063
      vertex 4.411870539444444 2.915470346774412 0.26595744680851063
      vertex 5.0 3.2624113475177365 0.26595744680851063
    endloop
  endfacet
  facet normal 0.0 0.0 1.0
    outer loop
      vertex 5.0 3.9450354609929104 0.26595744680851063
      vertex 4.308379553276734 4.112931530319487 0.26595744680851063
      vertex 4.396396686387392 3.5695624053369945 0.26595744680851063
    endloop
  endfacet
  facet normal -0.0 0.0 1.0
    outer loop
      vertex 3.7499999999999956 4.627659574468085 0.26595744680851063
      vertex 4.308379553276734 4.112931530319487 0.26595744680851063
      vertex 4.374999999999997 4.627659574468085 0.26595744680851063
    endloop
  endfacet
  facet normal -0.0 0.0 1.0
    outer loop
      vertex 3.124999999999994 4.627659574468085 0.26595744680851063
      vertex 3.343356140668546 4.150131513095022 0.26595744680851063
      vertex 3.7499999999999956 4.627659574468085 0.26595744680851063
    endloop
  endfacet
  facet normal 0.0 0.0 1.0
    outer loop
      vertex 3.7499999999999956 4.627659574468085 0.26595744680851063
      vertex 3.343356140668546 4.150131513095022 0.26595744680851063
      vertex 3.8157105202959776 3.880725990507184 0.26595744680851063
    endloop
  endfacet
  facet normal 0.0 -0.0 1.0
    outer loop
      vertex 3.8157105202959776 3.880725990507184 0.26595744680851063
      vertex 4.308379553276734 4.112931530319487 0.26595744680851063
      vertex 3.7499999999999956 4.627659574468085 0.26595744680851063
    endloop
  endfacet
  facet normal -0.0 0.0 1.0
    outer loop
      vertex 2.499999999999991 4.627659574468085 0.26595744680851063
      vertex 2.7605971785161634 4.030725261930699 0.26595744680851063
      vertex 3.124999999999994 4.627659574468085 0.26595744680851063
    endloop
  endfacet
  facet normal 0.0 0.0 1.0
    outer loop
      vertex 2.7605971785161634 4.030725261930699 0.26595744680851063
      vertex 3.343356140668546 4.150131513095022 0.26595744680851063
      vertex 3.124999999999994 4.627659574468085 0.26595744680851063
    endloop
  endfacet
  facet normal -0.0 0.0 1.0
    outer loop
      vertex 1.874999999999992 4.627659574468085 0.26595744680851063
      vertex 2.186472365847213 4.215995063713535 0.26595744680851063
      vertex 2.499999999999991 4.627659574468085 0.26595744680851063
    endloop
  endfacet
  facet normal 0.0 0.0 1.0
    outer loop
      vertex 2.499999999999991 4.627659574468085 0.26595744680851063
      vertex 2.186472365847213 4.215995063713535 0.26595744680851063
      vertex 2.7605971785161634 4.030725261930699 0.26595744680851063
    endloop
  endfacet
  facet normal -0.0 0.0 1.0
    outer loop
      vertex 1.2499999999999947 4.627659574468085 0.26595744680851063
      vertex 1.614483953925864 4.06712238545332 0.26595744680851063
      vertex 1.874999999999992 4.627659574468085 0.26595744680851063
    endloop
  endfacet
  facet normal 0.0 0.0 1.0
    outer loop
      vertex 1.614483953925864 4.06712238545332 0.26595744680851063
      vertex 2.186472365847213 4.215995063713535 0.26595744680851063
      vertex 1.874999999999992 4.627659574468085 0.26595744680851063
    endloop
  endfacet
  facet normal -0.0 0.0 1.0
    outer loop
      vertex 0.6249999999999979 4.627659574468085 0.26595744680851063
      vertex 0.9555926687547692 4.138120728282774 0.26595744680851063
      vertex 1.2499999999999947 4.627659574468085 0.26595744680851063
    endloop
  endfacet
  facet normal 0.0 0.0 1.0
    outer loop
      vertex 1.2499999999999947 4.627659574468085 0.26595744680851063
      vertex 0.9555926687547692 4.138120728282774 0.26595744680851063
      vertex 1.614483953925864 4.06712238545332 0.26595744680851063
    endloop
  endfacet
  facet normal 0.0 0.0 1.0
    outer loop
      vertex 0.6249999999999979 4.627659574468085 0.26595744680851063
      vertex 0.442709933562536 4.186012391807067 0.26595744680851063
      vertex 0.9555926687547692 4.138120728282774 0.26595744680851063
    endloop
  endfacet
  facet normal 0.0 0.0 1.0
    outer loop
      vertex 0.0 0.6610942249240106 0.26595744680851063
      vertex 0.5688721082611299 1.0524683301456117 0.26595744680851063
      vertex 0.0 1.3221884498480208 0.26595744680851063
    endloop
  endfacet
  facet normal -0.0 0.0 1.0
    outer loop
      vertex 0.0 0.6610942249240106 0.26595744680851063
      vertex 0.47719331756813627 0.4831416876048277 0.26595744680851063
      vertex 0.5688721082611299 1.0524683301456117 0.26595744680851063
    endloop
  endfacet
  facet normal 0.0 0.0 1.0
    outer loop
      vertex 0.0 1.3221884498480208 0.26595744680851063
      vertex 0.43072647037258605 1.6567161030364157 0.26595744680851063
      vertex 0.0 1.9832826747720302 0.26595744680851063
    endloop
  endfacet
  facet normal 0.0 0.0 1.0
    outer loop
      vertex 0.5688721082611299 1.0524683301456117 0.26595744680851063
      vertex 0.43072647037258605 1.6567161030364157 0.26595744680851063
      vertex 0.0 1.3221884498480208 0.26595744680851063
    endloop
  endfacet
  facet normal 0.0 0.0 1.0
    outer loop
      vertex 0.0 1.9832826747720302 0.26595744680851063
      vertex 0.5878455970099564 2.286793160180703 0.26595744680851063
      vertex 0.0 2.6443768996960397 0.26595744680851063
    endloop
  endfacet
  facet normal -0.0 0.0 1.0
    outer loop
      vertex 0.0 1.9832826747720302 0.26595744680851063
      vertex 0.43072647037258605 1.6567161030364157 0.26595744680851063
      vertex 0.5878455970099564 2.286793160180703 0.26595744680851063
    endloop
  endfacet
  facet normal 0.0 0.0 1.0
    outer loop
      vertex 0.0 2.6443768996960397 0.26595744680851063
      vertex 0.5405261241549054 2.993875712831287 0.26595744680851063
      vertex 0.0 3.3054711246200545 0.26595744680851063
    endloop
  endfacet
  facet normal 0.0 0.0 1.0
    outer loop
      vertex 0.5878455970099564 2.286793160180703 0.26595744680851063
      vertex 0.5405261241549054 2.993875712831287 0.26595744680851063
      vertex 0.0 2.6443768996960397 0.26595744680851063
    endloop
  endfacet
  facet normal 0.0 0.0 1.0
    outer loop
      vertex 0.0 3.3054711246200545 0.26595744680851063
      vertex 0.6046845063071968 3.6543889734692114 0.26595744680851063
      vertex 0.0 3.966565349544069 0.26595744680851063
    endloop
  endfacet
  facet normal -0.0 0.0 1.0
    outer loop
      vertex 0.0 3.3054711246200545 0.26595744680851063
      vertex 0.5405261241549054 2.993875712831287 0.26595744680851063
      vertex 0.6046845063071968 3.6543889734692114 0.26595744680851063
    endloop
  endfacet
  facet normal 0.0 0.0 1.0
    outer loop
      vertex 0.6046845063071968 3.6543889734692114 0.26595744680851063
      vertex 0.442709933562536 4.186012391807067 0.26595744680851063
      vertex 0.0 3.966565349544069 0.26595744680851063
    endloop
  endfacet
  facet normal 0.0 -0.0 1.0
    outer loop
      vertex 0.9969146465918467 1.638847900235713 0.26595744680851063
      vertex 1.1359488091262628 2.272682367087007 0.26595744680851063
      vertex 0.5878455970099564 2.286793160180703 0.26595744680851063
    endloop
  endfacet
  facet normal 0.0 0.0 1.0
    outer loop
      vertex 0.5878455970099564 2.286793160180703 0.26595744680851063
      vertex 0.43072647037258605 1.6567161030364157 0.26595744680851063
      vertex 0.9969146465918467 1.638847900235713 0.26595744680851063
    endloop
  endfacet
  facet normal 0.0 -0.0 1.0
    outer loop
      vertex 0.5878455970099564 2.286793160180703 0.26595744680851063
      vertex 0.9677970485612679 2.7056781900950124 0.26595744680851063
      vertex 0.5405261241549054 2.993875712831287 0.26595744680851063
    endloop
  endfacet
  facet normal 0.0 0.0 1.0
    outer loop
      vertex 1.1359488091262628 2.272682367087007 0.26595744680851063
      vertex 0.9677970485612679 2.7056781900950124 0.26595744680851063
      vertex 0.5878455970099564 2.286793160180703 0.26595744680851063
    endloop
  endfacet
  facet normal 0.0 0.0 1.0
    outer loop
      vertex 2.7605971785161634 4.030725261930699 0.26595744680851063
      vertex 2.719515411613341 3.2941428123595324 0.26595744680851063
      vertex 3.265473004530601 3.5838871641010552 0.26595744680851063
    endloop
  endfacet
  facet normal 0.0 -0.0 1.0
    outer loop
      vertex 3.265473004530601 3.5838871641010552 0.26595744680851063
      vertex 3.343356140668546 4.150131513095022 0.26595744680851063
      vertex 2.7605971785161634 4.030725261930699 0.26595744680851063
    endloop
  endfacet
  facet normal 0.0 0.0 1.0
    outer loop
      vertex 2.7605971785161634 4.030725261930699 0.26595744680851063
      vertex 2.1802254284884985 3.6782938687762843 0.26595744680851063
      vertex 2.719515411613341 3.2941428123595324 0.26595744680851063
    endloop
  endfacet
  facet normal 0.0 0.0 1.0
    outer loop
      vertex 2.7605971785161634 4.030725261930699 0.26595744680851063
      vertex 2.186472365847213 4.215995063713535 0.26595744680851063
      vertex 2.1802254284884985 3.6782938687762843 0.26595744680851063
    endloop
  endfacet
  facet normal 0.0 0.0 1.0
    outer loop
      vertex 2.683330640390942 1.2749075212606182 0.26595744680851063
      vertex 2.1660429597100945 0.9741319165948106 0.26595744680851063
      vertex 2.783170416218741 0.605226747049083 0.26595744680851063
    endloop
  endfacet
  facet normal 0.0 -0.0 1.0
    outer loop
      vertex 2.783170416218741 0.605226747049083 0.26595744680851063
      vertex 3.1914893617021263 1.0221149989909564 0.26595744680851063
      vertex 2.683330640390942 1.2749075212606182 0.26595744680851063
    endloop
  endfacet
  facet normal 0.0 0.0 1.0
    outer loop
      vertex 2.1660429597100945 0.9741319165948106 0.26595744680851063
      vertex 2.2340425531914887 0.43141993051474786 0.26595744680851063
      vertex 2.783170416218741 0.605226747049083 0.26595744680851063
    endloop
  endfacet
  facet normal 0.0 0.0 1.0
    outer loop
      vertex 3.5059853887441785 0.5468535063193277 0.26595744680851063
      vertex 3.1914893617021263 1.0221149989909564 0.26595744680851063
      vertex 2.783170416218741 0.605226747049083 0.26595744680851063
    endloop
  endfacet
  facet normal 0.0 0.0 1.0
    outer loop
      vertex 4.411870539444444 2.915470346774412 0.26595744680851063
      vertex 3.833641524634328 2.5813075715216147 0.26595744680851063
      vertex 4.411308658038409 2.2434370206122694 0.26595744680851063
    endloop
  endfacet
  facet normal 0.0 0.0 1.0
    outer loop
      vertex 3.833641524634328 2.5813075715216147 0.26595744680851063
      vertex 3.8272602455026656 1.913613404128525 0.26595744680851063
      vertex 4.411308658038409 2.2434370206122694 0.26595744680851063
    endloop
  endfacet
  facet normal -0.0 0.0 1.0
    outer loop
      vertex 3.8272602455026656 1.913613404128525 0.26595744680851063
      vertex 4.432746027152829 1.5652235228837297 0.26595744680851063
      vertex 4.411308658038409 2.2434370206122694 0.26595744680851063
    endloop
  endfacet
  facet normal 0.0 0.0 1.0
    outer loop
      vertex 1.614483953925864 4.06712238545332 0.26595744680851063
      vertex 1.615444839136743 3.404622936452672 0.26595744680851063
      vertex 2.1802254284884985 3.6782938687762843 0.26595744680851063
    endloop
  endfacet
  facet normal 0.0 -0.0 1.0
    outer loop
      vertex 2.1802254284884985 3.6782938687762843 0.26595744680851063
      vertex 2.186472365847213 4.215995063713535 0.26595744680851063
      vertex 1.614483953925864 4.06712238545332 0.26595744680851063
    endloop
  endfacet
  facet normal 0.0 0.0 1.0
    outer loop
      vertex 1.614483953925864 4.06712238545332 0.26595744680851063
      vertex 1.2174244092712108 3.732577617398233 0.26595744680851063
      vertex 1.615444839136743 3.404622936452672 0.26595744680851063
    endloop
  endfacet
  facet normal 0.0 0.0 1.0
    outer loop
      vertex 0.9555926687547692 4.138120728282774 0.26595744680851063
      vertex 1.2174244092712108 3.732577617398233 0.26595744680851063
      vertex 1.614483953925864 4.06712238545332 0.26595744680851063
    endloop
  endfacet
  facet normal 0.0 -0.0 1.0
    outer loop
      vertex 1.5946358382459753 0.6153046212248914 0.26595744680851063
      vertex 2.1660429597100945 0.9741319165948106 0.26595744680851063
      vertex 1.5799588932796818 1.3095030372891214 0.26595744680851063
    endloop
  endfacet
  facet normal 0.0 0.0 1.0
    outer loop
      vertex 1.5799588932796818 1.3095030372891214 0.26595744680851063
      vertex 1.1447874797240734 1.0307663926912511 0.26595744680851063
      vertex 1.5946358382459753 0.6153046212248914 0.26595744680851063
    endloop
  endfacet
  facet normal -0.0 0.0 1.0
    outer loop
      vertex 1.5946358382459753 0.6153046212248914 0.26595744680851063
      vertex 2.2340425531914887 0.43141993051474786 0.26595744680851063
      vertex 2.1660429597100945 0.9741319165948106 0.26595744680851063
    endloop
  endfacet
  facet normal 0.0 0.0 1.0
    outer loop
      vertex 1.5946358382459753 0.6153046212248914 0.26595744680851063
      vertex 1.1447874797240734 1.0307663926912511 0.26595744680851063
      vertex 0.9835559122417329 0.537708074560917 0.26595744680851063
    endloop
  endfacet
  facet normal 0.0 0.0 1.0
    outer loop
      vertex 3.842351747469692 1.1390668253275926 0.26595744680851063
      vertex 3.5059853887441785 0.5468535063193277 0.26595744680851063
      vertex 4.148936170212766 0.45267490229056156 0.26595744680851063
    endloop
  endfacet
  facet normal 0.0 -0.0 1.0
    outer loop
      vertex 4.148936170212766 0.45267490229056156 0.26595744680851063
      vertex 4.539000648385733 0.8732269503546094 0.26595744680851063
      vertex 3.842351747469692 1.1390668253275926 0.26595744680851063
    endloop
  endfacet
  facet normal -0.0 0.0 1.0
    outer loop
      vertex 4.148936170212766 0.45267490229056156 0.26595744680851063
      vertex 4.600045531931035 0.40272220231770006 0.26595744680851063
      vertex 4.539000648385733 0.8732269503546094 0.26595744680851063
    endloop
  endfacet
  facet normal 0.0 0.0 1.0
    outer loop
      vertex 4.396396686387392 3.5695624053369945 0.26595744680851063
      vertex 3.8327944065361423 3.24833398240479 0.26595744680851063
      vertex 4.411870539444444 2.915470346774412 0.26595744680851063
    endloop
  endfacet
  facet normal 0.0 0.0 1.0
    outer loop
      vertex 4.396396686387392 3.5695624053369945 0.26595744680851063
      vertex 3.8157105202959776 3.880725990507184 0.26595744680851063
      vertex 3.8327944065361423 3.24833398240479 0.26595744680851063
    endloop
  endfacet
  facet normal 0.0 0.0 1.0
    outer loop
      vertex 4.396396686387392 3.5695624053369945 0.26595744680851063
      vertex 4.308379553276734 4.112931530319487 0.26595744680851063
      vertex 3.8157105202959776 3.880725990507184 0.26595744680851063
    endloop
  endfacet
  facet normal 0.0 0.0 1.0
    outer loop
      vertex 0.9969146465918467 1.638847900235713 0.26595744680851063
      vertex 0.43072647037258605 1.6567161030364157 0.26595744680851063
      vertex 0.5688721082611299 1.0524683301456117 0.26595744680851063
    endloop
  endfacet
  facet normal -0.0 0.0 1.0
    outer loop
      vertex 0.5688721082611299 1.0524683301456117 0.26595744680851063
      vertex 1.1447874797240734 1.0307663926912511 0.26595744680851063
      vertex 0.9969146465918467 1.638847900235713 0.26595744680851063
    endloop
  endfacet
  facet normal 0.0 -0.0 1.0
    outer loop
      vertex 0.9835559122417329 0.537708074560917 0.26595744680851063
      vertex 1.1447874797240734 1.0307663926912511 0.26595744680851063
      vertex 0.5688721082611299 1.0524683301456117 0.26595744680851063
    endloop
  endfacet
  facet normal 0.0 0.0 1.0
    outer loop
      vertex 0.5688721082611299 1.0524683301456117 0.26595744680851063
      vertex 0.47719331756813627 0.4831416876048277 0.26595744680851063
      vertex 0.9835559122417329 0.537708074560917 0.26595744680851063
    endloop
  endfacet
  facet normal 0.0 0.0 1.0
    outer loop
      vertex 0.5405261241549054 2.993875712831287 0.26595744680851063
      vertex 1.058427526337467 3.2711848638839855 0.26595744680851063
      vertex 0.6046845063071968 3.6543889734692114 0.26595744680851063
    endloop
  endfacet
  facet normal 0.0 0.0 1.0
    outer loop
      vertex 0.9555926687547692 4.138120728282774 0.26595744680851063
      vertex 0.442709933562536 4.186012391807067 0.26595744680851063
      vertex 0.6046845063071968 3.6543889734692114 0.26595744680851063
    endloop
  endfacet
  facet normal 0.0 0.0 1.0
    outer loop
      vertex 0.6046845063071968 3.6543889734692114 0.26595744680851063
      vertex 1.2174244092712108 3.732577617398233 0.26595744680851063
      vertex 0.9555926687547692 4.138120728282774 0.26595744680851063
    endloop
  endfacet
  facet normal 0.0 -0.0 1.0
    outer loop
      vertex 1.058427526337467 3.2711848638839855 0.26595744680851063
      vertex 1.2174244092712108 3.732577617398233 0.26595744680851063
      vertex 0.6046845063071968 3.6543889734692114 0.26595744680851063
    endloop
  endfacet
  facet normal 0.0 0.0 1.0
    outer loop
      vertex 4.411870539444444 2.915470346774412 0.26595744680851063
      vertex 3.8327944065361423 3.24833398240479 0.26595744680851063
      vertex 3.833641524634328 2.5813075715216147 0.26595744680851063
    endloop
  endfacet
  facet normal 0.0 0.0 1.0
    outer loop
      vertex 3.833641524634328 2.5813075715216147 0.26595744680851063
      vertex 3.258784036493806 2.2494668398990325 0.26595744680851063
      vertex 3.8272602455026656 1.913613404128525 0.26595744680851063
    endloop
  endfacet
  facet normal 0.0 0.0 1.0
    outer loop
      vertex 3.833641524634328 2.5813075715216147 0.26595744680851063
      vertex 3.263886433558191 2.9171312157158034 0.26595744680851063
      vertex 3.258784036493806 2.2494668398990325 0.26595744680851063
    endloop
  endfacet
  facet normal 0.0 0.0 1.0
    outer loop
      vertex 3.833641524634328 2.5813075715216147 0.26595744680851063
      vertex 3.8327944065361423 3.24833398240479 0.26595744680851063
      vertex 3.263886433558191 2.9171312157158034 0.26595744680851063
    endloop
  endfacet
  facet normal 0.0 0.0 1.0
    outer loop
      vertex 3.258784036493806 2.2494668398990325 0.26595744680851063
      vertex 3.2463914814593857 1.5938318260164008 0.26595744680851063
      vertex 3.8272602455026656 1.913613404128525 0.26595744680851063
    endloop
  endfacet
  facet normal 0.0 0.0 1.0
    outer loop
      vertex 3.8272602455026656 1.913613404128525 0.26595744680851063
      vertex 3.842351747469692 1.1390668253275926 0.26595744680851063
      vertex 4.432746027152829 1.5652235228837297 0.26595744680851063
    endloop
  endfacet
  facet normal 0.0 0.0 1.0
    outer loop
      vertex 3.8272602455026656 1.913613404128525 0.26595744680851063
      vertex 3.2463914814593857 1.5938318260164008 0.26595744680851063
      vertex 3.842351747469692 1.1390668253275926 0.26595744680851063
    endloop
  endfacet
  facet normal 0.0 0.0 1.0
    outer loop
      vertex 3.263886433558191 2.9171312157158034 0.26595744680851063
      vertex 2.6945125611005545 2.5836410841048356 0.26595744680851063
      vertex 3.258784036493806 2.2494668398990325 0.26595744680851063
    endloop
  endfacet
  facet normal 0.0 0.0 1.0
    outer loop
      vertex 2.6945125611005545 2.5836410841048356 0.26595744680851063
      vertex 2.6889081638155394 1.9264712031857232 0.26595744680851063
      vertex 3.258784036493806 2.2494668398990325 0.26595744680851063
    endloop
  endfacet
  facet normal -0.0 0.0 1.0
    outer loop
      vertex 2.6889081638155394 1.9264712031857232 0.26595744680851063
      vertex 3.2463914814593857 1.5938318260164008 0.26595744680851063
      vertex 3.258784036493806 2.2494668398990325 0.26595744680851063
    endloop
  endfacet
  facet normal 0.0 0.0 1.0
    outer loop
      vertex 3.263886433558191 2.9171312157158034 0.26595744680851063
      vertex 2.719515411613341 3.2941428123595324 0.26595744680851063
      vertex 2.6945125611005545 2.5836410841048356 0.26595744680851063
    endloop
  endfacet
  facet normal 0.0 0.0 1.0
    outer loop
      vertex 3.8327944065361423 3.24833398240479 0.26595744680851063
      vertex 3.265473004530601 3.5838871641010552 0.26595744680851063
      vertex 3.263886433558191 2.9171312157158034 0.26595744680851063
    endloop
  endfacet
  facet normal 0.0 0.0 1.0
    outer loop
      vertex 3.265473004530601 3.5838871641010552 0.26595744680851063
      vertex 2.719515411613341 3.2941428123595324 0.26595744680851063
      vertex 3.263886433558191 2.9171312157158034 0.26595744680851063
    endloop
  endfacet
  facet normal 0.0 0.0 1.0
    outer loop
      vertex 2.6945125611005545 2.5836410841048356 0.26595744680851063
      vertex 2.1151288619578494 2.2799513341322823 0.26595744680851063
      vertex 2.6889081638155394 1.9264712031857232 0.26595744680851063
    endloop
  endfacet
  facet normal 0.0 0.0 1.0
    outer loop
      vertex 2.6945125611005545 2.5836410841048356 0.26595744680851063
      vertex 2.1276332747733155 2.9066478185114626 0.26595744680851063
      vertex 2.1151288619578494 2.2799513341322823 0.26595744680851063
    endloop
  endfacet
  facet normal 0.0 -0.0 1.0
    outer loop
      vertex 2.6945125611005545 2.5836410841048356 0.26595744680851063
      vertex 2.719515411613341 3.2941428123595324 0.26595744680851063
      vertex 2.1276332747733155 2.9066478185114626 0.26595744680851063
    endloop
  endfacet
  facet normal 0.0 0.0 1.0
    outer loop
      vertex 2.1151288619578494 2.2799513341322823 0.26595744680851063
      vertex 2.121119416933737 1.6084296422303985 0.26595744680851063
      vertex 2.6889081638155394 1.9264712031857232 0.26595744680851063
    endloop
  endfacet
  facet normal -0.0 0.0 1.0
    outer loop
      vertex 2.121119416933737 1.6084296422303985 0.26595744680851063
      vertex 2.683330640390942 1.2749075212606182 0.26595744680851063
      vertex 2.6889081638155394 1.9264712031857232 0.26595744680851063
    endloop
  endfacet
  facet normal 0.0 0.0 1.0
    outer loop
      vertex 2.683330640390942 1.2749075212606182 0.26595744680851063
      vertex 3.2463914814593857 1.5938318260164008 0.26595744680851063
      vertex 2.6889081638155394 1.9264712031857232 0.26595744680851063
    endloop
  endfacet
  facet normal 0.0 0.0 1.0
    outer loop
      vertex 2.1276332747733155 2.9066478185114626 0.26595744680851063
      vertex 1.5162371861777506 2.7038548464920797 0.26595744680851063
      vertex 2.1151288619578494 2.2799513341322823 0.26595744680851063
    endloop
  endfacet
  facet normal 0.0 0.0 1.0
    outer loop
      vertex 2.1151288619578494 2.2799513341322823 0.26595744680851063
      vertex 1.5704088135403185 1.9675110425590625 0.26595744680851063
      vertex 2.121119416933737 1.6084296422303985 0.26595744680851063
    endloop
  endfacet
  facet normal 0.0 0.0 1.0
    outer loop
      vertex 2.1151288619578494 2.2799513341322823 0.26595744680851063
      vertex 1.5162371861777506 2.7038548464920797 0.26595744680851063
      vertex 1.5704088135403185 1.9675110425590625 0.26595744680851063
    endloop
  endfacet
  facet normal 0.0 0.0 1.0
    outer loop
      vertex 2.719515411613341 3.2941428123595324 0.26595744680851063
      vertex 2.1802254284884985 3.6782938687762843 0.26595744680851063
      vertex 2.1276332747733155 2.9066478185114626 0.26595744680851063
    endloop
  endfacet
  facet normal 0.0 0.0 1.0
    outer loop
      vertex 2.1802254284884985 3.6782938687762843 0.26595744680851063
      vertex 1.615444839136743 3.404622936452672 0.26595744680851063
      vertex 2.1276332747733155 2.9066478185114626 0.26595744680851063
    endloop
  endfacet
  facet normal 0.0 0.0 1.0
    outer loop
      vertex 1.615444839136743 3.404622936452672 0.26595744680851063
      vertex 1.5162371861777506 2.7038548464920797 0.26595744680851063
      vertex 2.1276332747733155 2.9066478185114626 0.26595744680851063
    endloop
  endfacet
  facet normal 0.0 0.0 1.0
    outer loop
      vertex 1.5704088135403185 1.9675110425590625 0.26595744680851063
      vertex 1.5799588932796818 1.3095030372891214 0.26595744680851063
      vertex 2.121119416933737 1.6084296422303985 0.26595744680851063
    endloop
  endfacet
  facet normal 0.0 0.0 1.0
    outer loop
      vertex 2.121119416933737 1.6084296422303985 0.26595744680851063
      vertex 2.1660429597100945 0.9741319165948106 0.26595744680851063
      vertex 2.683330640390942 1.2749075212606182 0.26595744680851063
    endloop
  endfacet
  facet normal -0.0 0.0 1.0
    outer loop
      vertex 1.5799588932796818 1.3095030372891214 0.26595744680851063
      vertex 2.1660429597100945 0.9741319165948106 0.26595744680851063
      vertex 2.121119416933737 1.6084296422303985 0.26595744680851063
    endloop
  endfacet
  facet normal 0.0 0.0 1.0
    outer loop
      vertex 1.5704088135403185 1.9675110425590625 0.26595744680851063
      vertex 0.9969146465918467 1.638847900235713 0.26595744680851063
      vertex 1.5799588932796818 1.3095030372891214 0.26595744680851063
    endloop
  endfacet
  facet normal 0.0 0.0 1.0
    outer loop
      vertex 1.5704088135403185 1.9675110425590625 0.26595744680851063
      vertex 1.1359488091262628 2.272682367087007 0.26595744680851063
      vertex 0.9969146465918467 1.638847900235713 0.26595744680851063
    endloop
  endfacet
  facet normal 0.0 0.0 1.0
    outer loop
      vertex 1.5162371861777506 2.7038548464920797 0.26595744680851063
      vertex 1.1359488091262628 2.272682367087007 0.26595744680851063
      vertex 1.5704088135403185 1.9675110425590625 0.26595744680851063
    endloop
  endfacet
  facet normal -0.0 0.0 1.0
    outer loop
      vertex 2.683330640390942 1.2749075212606182 0.26595744680851063
      vertex 3.1914893617021263 1.0221149989909564 0.26595744680851063
      vertex 3.2463914814593857 1.5938318260164008 0.26595744680851063
    endloop
  endfacet
  facet normal 0.0 0.0 1.0
    outer loop
      vertex 0.9969146465918467 1.638847900235713 0.26595744680851063
      vertex 1.1447874797240734 1.0307663926912511 0.26595744680851063
      vertex 1.5799588932796818 1.3095030372891214 0.26595744680851063
    endloop
  endfacet
  facet normal -0.0 0.0 1.0
    outer loop
      vertex 3.842351747469692 1.1390668253275926 0.26595744680851063
      vertex 4.539000648385733 0.8732269503546094 0.26595744680851063
      vertex 4.432746027152829 1.5652235228837297 0.26595744680851063
    endloop
  endfacet
  facet normal 0.0 0.0 1.0
    outer loop
      vertex 3.2463914814593857 1.5938318260164008 0.26595744680851063
      vertex 3.1914893617021263 1.0221149989909564 0.26595744680851063
      vertex 3.842351747469692 1.1390668253275926 0.26595744680851063
    endloop
  endfacet
  facet normal 0.0 0.0 1.0
    outer loop
      vertex 3.842351747469692 1.1390668253275926 0.26595744680851063
      vertex 3.1914893617021263 1.0221149989909564 0.26595744680851063
      vertex 3.5059853887441785 0.5468535063193277 0.26595744680851063
    endloop
  endfacet
  facet normal 0.0 0.0 1.0
    outer loop
      vertex 3.8157105202959776 3.880725990507184 0.26595744680851063
      vertex 3.265473004530601 3.5838871641010552 0.26595744680851063
      vertex 3.8327944065361423 3.24833398240479 0.26595744680851063
    endloop
  endfacet
  facet normal 0.0 0.0 1.0
    outer loop
      vertex 3.8157105202959776 3.880725990507184 0.26595744680851063
      vertex 3.343356140668546 4.150131513095022 0.26595744680851063
      vertex 3.265473004530601 3.5838871641010552 0.26595744680851063
    endloop
  endfacet
  facet normal 0.0 0.0 1.0
    outer loop
      vertex 1.615444839136743 3.404622936452672 0.26595744680851063
      vertex 1.058427526337467 3.2711848638839855 0.26595744680851063
      vertex 1.5162371861777506 2.7038548464920797 0.26595744680851063
    endloop
  endfacet
  facet normal 0.0 0.0 1.0
    outer loop
      vertex 1.615444839136743 3.404622936452672 0.26595744680851063
      vertex 1.2174244092712108 3.732577617398233 0.26595744680851063
      vertex 1.058427526337467 3.2711848638839855 0.26595744680851063
    endloop
  endfacet
  facet normal 0.0 0.0 1.0
    outer loop
      vertex 1.058427526337467 3.2711848638839855 0.26595744680851063
      vertex 0.9677970485612679 2.7056781900950124 0.26595744680851063
      vertex 1.5162371861777506 2.7038548464920797 0.26595744680851063
    endloop
  endfacet
  facet normal 0.0 0.0 1.0
    outer loop
      vertex 1.5162371861777506 2.7038548464920797 0.26595744680851063
      vertex 0.9677970485612679 2.7056781900950124 0.26595744680851063
      vertex 1.1359488091262628 2.272682367087007 0.26595744680851063
    endloop
  endfacet
  facet normal -0.0 0.0 1.0
    outer loop
      vertex 0.5405261241549054 2.993875712831287 0.26595744680851063
      vertex 0.9677970485612679 2.7056781900950124 0.26595744680851063
      vertex 1.058427526337467 3.2711848638839855 0.26595744680851063
    endloop
  endfacet
  facet normal -0.0 0.0 -1.0
    outer loop
      vertex 4.844205734673696 0.1557942653263054 0.0
      vertex 4.468085106382978 0.0 0.0
      vertex 4.600045531931035 0.40272220231770006 0.0
    endloop
  endfacet
  facet normal 0.0 0.0 -1.0
    outer loop
      vertex 4.468085106382978 0.0 0.0
      vertex 3.829787234042552 0.0 0.0
      vertex 4.148936170212766 0.45267490229056156 0.0
    endloop
  endfacet
  facet normal 0.0 0.0 -1.0
    outer loop
      vertex 4.468085106382978 0.0 0.0
      vertex 4.148936170212766 0.45267490229056156 0.0
      vertex 4.600045531931035 0.40272220231770006 0.0
    endloop
  endfacet
  facet normal 0.0 0.0 -1.0
    outer loop
      vertex 5.0 0.5319148936170213 0.0
      vertex 4.844205734673696 0.1557942653263054 0.0
      vertex 4.600045531931035 0.40272220231770006 0.0
    endloop
  endfacet
  facet normal 0.0 -0.0 -1.0
    outer loop
      vertex 5.0 1.2145390070921989 0.0
      vertex 5.0 0.5319148936170213 0.0
      vertex 4.539000648385733 0.8732269503546094 0.0
    endloop
  endfacet
  facet normal 0.0 0.0 -1.0
    outer loop
      vertex 4.539000648385733 0.8732269503546094 0.0
      vertex 5.0 0.5319148936170213 0.0
      vertex 4.600045531931035 0.40272220231770006 0.0
    endloop
  endfacet
  facet normal 0.0 0.0 -1.0
    outer loop
      vertex 0.6382978723404243 0.0 0.0
      vertex 0.0 0.0 0.0
      vertex 0.47719331756813627 0.4831416876048277 0.0
    endloop
  endfacet
  facet normal 0.0 0.0 -1.0
    outer loop
      vertex 0.0 0.0 0.0
      vertex 0.0 0.6610942249240106 0.0
      vertex 0.47719331756813627 0.4831416876048277 0.0
    endloop
  endfacet
  facet normal 0.0 -0.0 -1.0
    outer loop
      vertex 5.0 4.627659574468085 0.0
      vertex 5.0 3.9450354609929104 0.0
      vertex 4.308379553276734 4.112931530319487 0.0
    endloop
  endfacet
  facet normal 0.0 -0.0 -1.0
    outer loop
      vertex 4.374999999999997 4.627659574468085 0.0
      vertex 5.0 4.627659574468085 0.0
      vertex 4.308379553276734 4.112931530319487 0.0
    endloop
  endfacet
  facet normal 0.0 0.0 -1.0
    outer loop
      vertex 0.0 3.966565349544069 0.0
      vertex 0.0 4.627659574468085 0.0
      vertex 0.442709933562536 4.186012391807067 0.0
    endloop
  endfacet
  facet normal 0.0 0.0 -1.0
    outer loop
      vertex 0.0 4.627659574468085 0.0
      vertex 0.6249999999999979 4.627659574468085 0.0
      vertex 0.442709933562536 4.186012391807067 0.0
    endloop
  endfacet
  facet normal 0.0 0.0 -1.0
    outer loop
      vertex 3.829787234042552 0.0 0.0
      vertex 3.191489361702127 0.0 0.0
      vertex 3.5059853887441785 0.5468535063193277 0.0
    endloop
  endfacet
  facet normal -0.0 0.0 -1.0
    outer loop
      vertex 4.148936170212766 0.45267490229056156 0.0
      vertex 3.829787234042552 0.0 0.0
      vertex 3.5059853887441785 0.5468535063193277 0.0
    endloop
  endfacet
  facet normal 0.0 0.0 -1.0
    outer loop
      vertex 3.191489361702127 0.0 0.0
      vertex 2.5531914893617014 0.0 0.0
      vertex 2.783170416218741 0.605226747049083 0.0
    endloop
  endfacet
  facet normal 0.0 0.0 -1.0
    outer loop
      vertex 3.191489361702127 0.0 0.0
      vertex 2.783170416218741 0.605226747049083 0.0
      vertex 3.5059853887441785 0.5468535063193277 0.0
    endloop
  endfacet
  facet normal 0.0 0.0 -1.0
    outer loop
      vertex 2.5531914893617014 0.0 0.0
      vertex 1.914893617021276 0.0 0.0
      vertex 2.2340425531914887 0.43141993051474786 0.0
    endloop
  endfacet
  facet normal 0.0 0.0 -1.0
    outer loop
      vertex 2.783170416218741 0.605226747049083 0.0
      vertex 2.5531914893617014 0.0 0.0
      vertex 2.2340425531914887 0.43141993051474786 0.0
    endloop
  endfacet
  facet normal 0.0 0.0 -1.0
    outer loop
      vertex 1.914893617021276 0.0 0.0
      vertex 1.2765957446808511 0.0 0.0
      vertex 1.5946358382459753 0.6153046212248914 0.0
    endloop
  endfacet
  facet normal 0.0 0.0 -1.0
    outer loop
      vertex 1.914893617021276 0.0 0.0
      vertex 1.5946358382459753 0.6153046212248914 0.0
      vertex 2.2340425531914887 0.43141993051474786 0.0
    endloop
  endfacet
  facet normal 0.0 0.0 -1.0
    outer loop
      vertex 1.2765957446808511 0.0 0.0
      vertex 0.6382978723404243 0.0 0.0
      vertex 0.9835559122417329 0.537708074560917 0.0
    endloop
  endfacet
  facet normal 0.0 0.0 -1.0
    outer loop
      vertex 1.5946358382459753 0.6153046212248914 0.0
      vertex 1.2765957446808511 0.0 0.0
      vertex 0.9835559122417329 0.537708074560917 0.0
    endloop
  endfacet
  facet normal 0.0 0.0 -1.0
    outer loop
      vertex 0.9835559122417329 0.537708074560917 0.0
      vertex 0.6382978723404243 0.0 0.0
      vertex 0.47719331756813627 0.4831416876048277 0.0
    endloop
  endfacet
  facet normal 0.0 -0.0 -1.0
    outer loop
      vertex 5.0 1.897163120567376 0.0
      vertex 5.0 1.2145390070921989 0.0
      vertex 4.432746027152829 1.5652235228837297 0.0
    endloop
  endfacet
  facet normal 0.0 0.0 -1.0
    outer loop
      vertex 4.432746027152829 1.5652235228837297 0.0
      vertex 5.0 1.2145390070921989 0.0
      vertex 4.539000648385733 0.8732269503546094 0.0
    endloop
  endfacet
  facet normal 0.0 -0.0 -1.0
    outer loop
      vertex 5.0 2.5797872340425565 0.0
      vertex 5.0 1.897163120567376 0.0
      vertex 4.411308658038409 2.2434370206122694 0.0
    endloop
  endfacet
  facet normal 0.0 0.0 -1.0
    outer loop
      vertex 4.411308658038409 2.2434370206122694 0.0
      vertex 5.0 1.897163120567376 0.0
      vertex 4.432746027152829 1.5652235228837297 0.0
    endloop
  endfacet
  facet normal 0.0 -0.0 -1.0
    outer loop
      vertex 5.0 3.2624113475177365 0.0
      vertex 5.0 2.5797872340425565 0.0
      vertex 4.411870539444444 2.915470346774412 0.0
    endloop
  endfacet
  facet normal -0.0 0.0 -1.0
    outer loop
      vertex 5.0 2.5797872340425565 0.0
      vertex 4.411308658038409 2.2434370206122694 0.0
      vertex 4.411870539444444 2.915470346774412 0.0
    endloop
  endfacet
  facet normal 0.0 -0.0 -1.0
    outer loop
      vertex 5.0 3.9450354609929104 0.0
      vertex 5.0 3.2624113475177365 0.0
      vertex 4.396396686387392 3.5695624053369945 0.0
    endloop
  endfacet
  facet normal 0.0 0.0 -1.0
    outer loop
      vertex 4.396396686387392 3.5695624053369945 0.0
      vertex 5.0 3.2624113475177365 0.0
      vertex 4.411870539444444 2.915470346774412 0.0
    endloop
  endfacet
  facet normal -0.0 0.0 -1.0
    outer loop
      vertex 5.0 3.9450354609929104 0.0
      vertex 4.396396686387392 3.5695624053369945 0.0
      vertex 4.308379553276734 4.112931530319487 0.0
    endloop
  endfacet
  facet normal 0.0 0.0 -1.0
    outer loop
      vertex 0.0 0.6610942249240106 0.0
      vertex 0.0 1.3221884498480208 0.0
      vertex 0.5688721082611299 1.0524683301456117 0.0
    endloop
  endfacet
  facet normal 0.0 0.0 -1.0
    outer loop
      vertex 0.0 0.6610942249240106 0.0
      vertex 0.5688721082611299 1.0524683301456117 0.0
      vertex 0.47719331756813627 0.4831416876048277 0.0
    endloop
  endfacet
  facet normal 0.0 0.0 -1.0
    outer loop
      vertex 0.0 1.3221884498480208 0.0
      vertex 0.0 1.9832826747720302 0.0
      vertex 0.43072647037258605 1.6567161030364157 0.0
    endloop
  endfacet
  facet normal 0.0 0.0 -1.0
    outer loop
      vertex 0.5688721082611299 1.0524683301456117 0.0
      vertex 0.0 1.3221884498480208 0.0
      vertex 0.43072647037258605 1.6567161030364157 0.0
    endloop
  endfacet
  facet normal 0.0 0.0 -1.0
    outer loop
      vertex 0.0 1.9832826747720302 0.0
      vertex 0.0 2.6443768996960397 0.0
      vertex 0.5878455970099552 2.286793160180703 0.0
    endloop
  endfacet
  facet normal 0.0 0.0 -1.0
    outer loop
      vertex 0.0 1.9832826747720302 0.0
      vertex 0.5878455970099552 2.286793160180703 0.0
      vertex 0.43072647037258605 1.6567161030364157 0.0
    endloop
  endfacet
  facet normal 0.0 0.0 -1.0
    outer loop
      vertex 0.0 2.6443768996960397 0.0
      vertex 0.0 3.3054711246200545 0.0
      vertex 0.5405261241549054 2.9938757128312865 0.0
    endloop
  endfacet
  facet normal 0.0 0.0 -1.0
    outer loop
      vertex 0.5878455970099552 2.286793160180703 0.0
      vertex 0.0 2.6443768996960397 0.0
      vertex 0.5405261241549054 2.9938757128312865 0.0
    endloop
  endfacet
  facet normal 0.0 0.0 -1.0
    outer loop
      vertex 0.0 3.3054711246200545 0.0
      vertex 0.0 3.966565349544069 0.0
      vertex 0.6046845063071968 3.6543889734692114 0.0
    endloop
  endfacet
  facet normal 0.0 0.0 -1.0
    outer loop
      vertex 0.0 3.3054711246200545 0.0
      vertex 0.6046845063071968 3.6543889734692114 0.0
      vertex 0.5405261241549054 2.9938757128312865 0.0
    endloop
  endfacet
  facet normal 0.0 0.0 -1.0
    outer loop
      vertex 0.6046845063071968 3.6543889734692114 0.0
      vertex 0.0 3.966565349544069 0.0
      vertex 0.442709933562536 4.186012391807067 0.0
    endloop
  endfacet
  facet normal 0.0 0.0 -1.0
    outer loop
      vertex 3.7499999999999956 4.627659574468085 0.0
      vertex 4.374999999999997 4.627659574468085 0.0
      vertex 4.308379553276734 4.112931530319487 0.0
    endloop
  endfacet
  facet normal 0.0 0.0 -1.0
    outer loop
      vertex 3.124999999999994 4.627659574468085 0.0
      vertex 3.7499999999999956 4.627659574468085 0.0
      vertex 3.343356140668546 4.150131513095022 0.0
    endloop
  endfacet
  facet normal 0.0 -0.0 -1.0
    outer loop
      vertex 3.7499999999999956 4.627659574468085 0.0
      vertex 3.8157105202959776 3.880725990507184 0.0
      vertex 3.343356140668546 4.150131513095022 0.0
    endloop
  endfacet
  facet normal 0.0 0.0 -1.0
    outer loop
      vertex 3.8157105202959776 3.880725990507184 0.0
      vertex 3.7499999999999956 4.627659574468085 0.0
      vertex 4.308379553276734 4.112931530319487 0.0
    endloop
  endfacet
  facet normal 0.0 0.0 -1.0
    outer loop
      vertex 2.499999999999991 4.627659574468085 0.0
      vertex 3.124999999999994 4.627659574468085 0.0
      vertex 2.7605971785161634 4.030725261930699 0.0
    endloop
  endfacet
  facet normal 0.0 0.0 -1.0
    outer loop
      vertex 2.7605971785161634 4.030725261930699 0.0
      vertex 3.124999999999994 4.627659574468085 0.0
      vertex 3.343356140668546 4.150131513095022 0.0
    endloop
  endfacet
  facet normal 0.0 0.0 -1.0
    outer loop
      vertex 1.874999999999992 4.627659574468085 0.0
      vertex 2.499999999999991 4.627659574468085 0.0
      vertex 2.186472365847213 4.215995063713535 0.0
    endloop
  endfacet
  facet normal 0.0 -0.0 -1.0
    outer loop
      vertex 2.499999999999991 4.627659574468085 0.0
      vertex 2.7605971785161634 4.030725261930699 0.0
      vertex 2.186472365847213 4.215995063713535 0.0
    endloop
  endfacet
  facet normal 0.0 0.0 -1.0
    outer loop
      vertex 1.2499999999999947 4.627659574468085 0.0
      vertex 1.874999999999992 4.627659574468085 0.0
      vertex 1.614483953925864 4.06712238545332 0.0
    endloop
  endfacet
  facet normal 0.0 0.0 -1.0
    outer loop
      vertex 1.614483953925864 4.06712238545332 0.0
      vertex 1.874999999999992 4.627659574468085 0.0
      vertex 2.186472365847213 4.215995063713535 0.0
    endloop
  endfacet
  facet normal 0.0 0.0 -1.0
    outer loop
      vertex 0.6249999999999979 4.627659574468085 0.0
      vertex 1.2499999999999947 4.627659574468085 0.0
      vertex 0.9555926687547692 4.138120728282774 0.0
    endloop
  endfacet
  facet normal 0.0 -0.0 -1.0
    outer loop
      vertex 1.2499999999999947 4.627659574468085 0.0
      vertex 1.614483953925864 4.06712238545332 0.0
      vertex 0.9555926687547692 4.138120728282774 0.0
    endloop
  endfacet
  facet normal 0.0 -0.0 -1.0
    outer loop
      vertex 0.6249999999999979 4.627659574468085 0.0
      vertex 0.9555926687547692 4.138120728282774 0.0
      vertex 0.442709933562536 4.186012391807067 0.0
    endloop
  endfacet
  facet normal 0.0 0.0 -1.0
    outer loop
      vertex 0.9969146465918467 1.638847900235713 0.0
      vertex 0.5878455970099552 2.286793160180703 0.0
      vertex 1.1359488091262628 2.272682367087007 0.0
    endloop
  endfacet
  facet normal 0.0 -0.0 -1.0
    outer loop
      vertex 0.5878455970099552 2.286793160180703 0.0
      vertex 0.9969146465918467 1.638847900235713 0.0
      vertex 0.43072647037258605 1.6567161030364157 0.0
    endloop
  endfacet
  facet normal 0.0 0.0 -1.0
    outer loop
      vertex 0.5878455970099552 2.286793160180703 0.0
      vertex 0.5405261241549054 2.9938757128312865 0.0
      vertex 0.9677970485612679 2.7056781900950124 0.0
    endloop
  endfacet
  facet normal 0.0 0.0 -1.0
    outer loop
      vertex 1.1359488091262628 2.272682367087007 0.0
      vertex 0.5878455970099552 2.286793160180703 0.0
      vertex 0.9677970485612679 2.7056781900950124 0.0
    endloop
  endfacet
  facet normal 0.0 -0.0 -1.0
    outer loop
      vertex 2.7605971785161634 4.030725261930699 0.0
      vertex 3.265473004530601 3.5838871641010552 0.0
      vertex 2.719515411613341 3.2941428123595324 0.0
    endloop
  endfacet
  facet normal 0.0 0.0 -1.0
    outer loop
      vertex 3.265473004530601 3.5838871641010552 0.0
      vertex 2.7605971785161634 4.030725261930699 0.0
      vertex 3.343356140668546 4.150131513095022 0.0
    endloop
  endfacet
  facet normal 0.0 0.0 -1.0
    outer loop
      vertex 2.7605971785161634 4.030725261930699 0.0
      vertex 2.719515411613341 3.2941428123595324 0.0
      vertex 2.1802254284884985 3.6782938687762843 0.0
    endloop
  endfacet
  facet normal -0.0 0.0 -1.0
    outer loop
      vertex 2.7605971785161634 4.030725261930699 0.0
      vertex 2.1802254284884985 3.6782938687762843 0.0
      vertex 2.186472365847213 4.215995063713535 0.0
    endloop
  endfacet
  facet normal 0.0 -0.0 -1.0
    outer loop
      vertex 2.683330640390942 1.2749075212606182 0.0
      vertex 2.783170416218741 0.605226747049083 0.0
      vertex 2.1660429597100945 0.9741319165948106 0.0
    endloop
  endfacet
  facet normal 0.0 0.0 -1.0
    outer loop
      vertex 2.783170416218741 0.605226747049083 0.0
      vertex 2.683330640390942 1.2749075212606182 0.0
      vertex 3.1914893617021263 1.0221149989909564 0.0
    endloop
  endfacet
  facet normal 0.0 0.0 -1.0
    outer loop
      vertex 2.1660429597100945 0.9741319165948106 0.0
      vertex 2.783170416218741 0.605226747049083 0.0
      vertex 2.2340425531914887 0.43141993051474786 0.0
    endloop
  endfacet
  facet normal 0.0 0.0 -1.0
    outer loop
      vertex 3.5059853887441785 0.5468535063193277 0.0
      vertex 2.783170416218741 0.605226747049083 0.0
      vertex 3.1914893617021263 1.0221149989909564 0.0
    endloop
  endfacet
  facet normal 0.0 0.0 -1.0
    outer loop
      vertex 4.411870539444444 2.915470346774412 0.0
      vertex 4.411308658038409 2.2434370206122694 0.0
      vertex 3.833641524634328 2.5813075715216147 0.0
    endloop
  endfacet
  facet normal 0.0 -0.0 -1.0
    outer loop
      vertex 3.833641524634328 2.5813075715216147 0.0
      vertex 4.411308658038409 2.2434370206122694 0.0
      vertex 3.8272602455026656 1.913613404128525 0.0
    endloop
  endfacet
  facet normal 0.0 0.0 -1.0
    outer loop
      vertex 3.8272602455026656 1.913613404128525 0.0
      vertex 4.411308658038409 2.2434370206122694 0.0
      vertex 4.432746027152829 1.5652235228837297 0.0
    endloop
  endfacet
  facet normal 0.0 0.0 -1.0
    outer loop
      vertex 1.614483953925864 4.06712238545332 0.0
      vertex 2.1802254284884985 3.6782938687762843 0.0
      vertex 1.615444839136743 3.404622936452672 0.0
    endloop
  endfacet
  facet normal 0.0 0.0 -1.0
    outer loop
      vertex 2.1802254284884985 3.6782938687762843 0.0
      vertex 1.614483953925864 4.06712238545332 0.0
      vertex 2.186472365847213 4.215995063713535 0.0
    endloop
  endfacet
  facet normal 0.0 -0.0 -1.0
    outer loop
      vertex 1.614483953925864 4.06712238545332 0.0
      vertex 1.615444839136743 3.404622936452672 0.0
      vertex 1.2174244092712108 3.732577617398233 0.0
    endloop
  endfacet
  facet normal 0.0 0.0 -1.0
    outer loop
      vertex 0.9555926687547692 4.138120728282774 0.0
      vertex 1.614483953925864 4.06712238545332 0.0
      vertex 1.2174244092712108 3.732577617398233 0.0
    endloop
  endfacet
  facet normal 0.0 0.0 -1.0
    outer loop
      vertex 1.5946358382459753 0.6153046212248914 0.0
      vertex 1.5799588932796818 1.3095030372891214 0.0
      vertex 2.1660429597100945 0.9741319165948106 0.0
    endloop
  endfacet
  facet normal 0.0 -0.0 -1.0
    outer loop
      vertex 1.5799588932796818 1.3095030372891214 0.0
      vertex 1.5946358382459753 0.6153046212248914 0.0
      vertex 1.1447874797240734 1.0307663926912511 0.0
    endloop
  endfacet
  facet normal 0.0 0.0 -1.0
    outer loop
      vertex 1.5946358382459753 0.6153046212248914 0.0
      vertex 2.1660429597100945 0.9741319165948106 0.0
      vertex 2.2340425531914887 0.43141993051474786 0.0
    endloop
  endfacet
  facet normal -0.0 0.0 -1.0
    outer loop
      vertex 1.5946358382459753 0.6153046212248914 0.0
      vertex 0.9835559122417329 0.537708074560917 0.0
      vertex 1.1447874797240734 1.0307663926912511 0.0
    endloop
  endfacet
  facet normal 0.0 -0.0 -1.0
    outer loop
      vertex 3.842351747469692 1.1390668253275926 0.0
      vertex 4.148936170212766 0.45267490229056156 0.0
      vertex 3.5059853887441785 0.5468535063193277 0.0
    endloop
  endfacet
  facet normal 0.0 0.0 -1.0
    outer loop
      vertex 4.148936170212766 0.45267490229056156 0.0
      vertex 3.842351747469692 1.1390668253275926 0.0
      vertex 4.539000648385733 0.8732269503546094 0.0
    endloop
  endfacet
  facet normal 0.0 0.0 -1.0
    outer loop
      vertex 4.148936170212766 0.45267490229056156 0.0
      vertex 4.539000648385733 0.8732269503546094 0.0
      vertex 4.600045531931035 0.40272220231770006 0.0
    endloop
  endfacet
  facet normal 0.0 -0.0 -1.0
    outer loop
      vertex 4.396396686387392 3.5695624053369945 0.0
      vertex 4.411870539444444 2.915470346774412 0.0
      vertex 3.8327944065361423 3.24833398240479 0.0
    endloop
  endfacet
  facet normal -0.0 0.0 -1.0
    outer loop
      vertex 4.396396686387392 3.5695624053369945 0.0
      vertex 3.8327944065361423 3.24833398240479 0.0
      vertex 3.8157105202959776 3.880725990507184 0.0
    endloop
  endfacet
  facet normal 0.0 0.0 -1.0
    outer loop
      vertex 4.396396686387392 3.5695624053369945 0.0
      vertex 3.8157105202959776 3.880725990507184 0.0
      vertex 4.308379553276734 4.112931530319487 0.0
    endloop
  endfacet
  facet normal -0.0 0.0 -1.0
    outer loop
      vertex 0.9969146465918467 1.638847900235713 0.0
      vertex 0.5688721082611299 1.0524683301456117 0.0
      vertex 0.43072647037258605 1.6567161030364157 0.0
    endloop
  endfacet
  facet normal 0.0 0.0 -1.0
    outer loop
      vertex 0.5688721082611299 1.0524683301456117 0.0
      vertex 0.9969146465918467 1.638847900235713 0.0
      vertex 1.1447874797240734 1.0307663926912511 0.0
    endloop
  endfacet
  facet normal 0.0 0.0 -1.0
    outer loop
      vertex 0.9835559122417329 0.537708074560917 0.0
      vertex 0.5688721082611299 1.0524683301456117 0.0
      vertex 1.1447874797240734 1.0307663926912511 0.0
    endloop
  endfacet
  facet normal 0.0 -0.0 -1.0
    outer loop
      vertex 0.5688721082611299 1.0524683301456117 0.0
      vertex 0.9835559122417329 0.537708074560917 0.0
      vertex 0.47719331756813627 0.4831416876048277 0.0
    endloop
  endfacet
  facet normal 0.0 0.0 -1.0
    outer loop
      vertex 0.5405261241549054 2.9938757128312865 0.0
      vertex 0.6046845063071968 3.6543889734692114 0.0
      vertex 1.058427526337467 3.2711848638839855 0.0
    endloop
  endfacet
  facet normal -0.0 0.0 -1.0
    outer loop
      vertex 0.9555926687547692 4.138120728282774 0.0
      vertex 0.6046845063071968 3.6543889734692114 0.0
      vertex 0.442709933562536 4.186012391807067 0.0
    endloop
  endfacet
  facet normal 0.0 0.0 -1.0
    outer loop
      vertex 0.6046845063071968 3.6543889734692114 0.0
      vertex 0.9555926687547692 4.138120728282774 0.0
      vertex 1.2174244092712108 3.732577617398233 0.0
    endloop
  endfacet
  facet normal 0.0 0.0 -1.0
    outer loop
      vertex 1.058427526337467 3.2711848638839855 0.0
      vertex 0.6046845063071968 3.6543889734692114 0.0
      vertex 1.2174244092712108 3.732577617398233 0.0
    endloop
  endfacet
  facet normal -0.0 0.0 -1.0
    outer loop
      vertex 4.411870539444444 2.915470346774412 0.0
      vertex 3.833641524634328 2.5813075715216147 0.0
      vertex 3.8327944065361423 3.24833398240479 0.0
    endloop
  endfacet
  facet normal 0.0 0.0 -1.0
    outer loop
      vertex 3.833641524634328 2.5813075715216147 0.0
      vertex 3.8272602455026656 1.913613404128525 0.0
      vertex 3.258784036493806 2.2494668398990325 0.0
    endloop
  endfacet
  facet normal -0.0 0.0 -1.0
    outer loop
      vertex 3.833641524634328 2.5813075715216147 0.0
      vertex 3.258784036493806 2.2494668398990325 0.0
      vertex 3.263886433558191 2.9171312157158034 0.0
    endloop
  endfacet
  facet normal 0.0 0.0 -1.0
    outer loop
      vertex 3.833641524634328 2.5813075715216147 0.0
      vertex 3.263886433558191 2.9171312157158034 0.0
      vertex 3.8327944065361423 3.24833398240479 0.0
    endloop
  endfacet
  facet normal 0.0 -0.0 -1.0
    outer loop
      vertex 3.258784036493806 2.2494668398990325 0.0
      vertex 3.8272602455026656 1.913613404128525 0.0
      vertex 3.2463914814593857 1.5938318260164008 0.0
    endloop
  endfacet
  facet normal 0.0 0.0 -1.0
    outer loop
      vertex 3.8272602455026656 1.913613404128525 0.0
      vertex 4.432746027152829 1.5652235228837297 0.0
      vertex 3.842351747469692 1.1390668253275926 0.0
    endloop
  endfacet
  facet normal 0.0 -0.0 -1.0
    outer loop
      vertex 3.8272602455026656 1.913613404128525 0.0
      vertex 3.842351747469692 1.1390668253275926 0.0
      vertex 3.2463914814593857 1.5938318260164008 0.0
    endloop
  endfacet
  facet normal 0.0 0.0 -1.0
    outer loop
      vertex 3.263886433558191 2.9171312157158034 0.0
      vertex 3.258784036493806 2.2494668398990325 0.0
      vertex 2.6945125611005545 2.5836410841048356 0.0
    endloop
  endfacet
  facet normal 0.0 -0.0 -1.0
    outer loop
      vertex 2.6945125611005545 2.5836410841048356 0.0
      vertex 3.258784036493806 2.2494668398990325 0.0
      vertex 2.6889081638155394 1.9264712031857232 0.0
    endloop
  endfacet
  facet normal 0.0 0.0 -1.0
    outer loop
      vertex 2.6889081638155394 1.9264712031857232 0.0
      vertex 3.258784036493806 2.2494668398990325 0.0
      vertex 3.2463914814593857 1.5938318260164008 0.0
    endloop
  endfacet
  facet normal -0.0 0.0 -1.0
    outer loop
      vertex 3.263886433558191 2.9171312157158034 0.0
      vertex 2.6945125611005545 2.5836410841048356 0.0
      vertex 2.719515411613341 3.2941428123595324 0.0
    endloop
  endfacet
  facet normal -0.0 0.0 -1.0
    outer loop
      vertex 3.8327944065361423 3.24833398240479 0.0
      vertex 3.263886433558191 2.9171312157158034 0.0
      vertex 3.265473004530601 3.5838871641010552 0.0
    endloop
  endfacet
  facet normal 0.0 0.0 -1.0
    outer loop
      vertex 3.265473004530601 3.5838871641010552 0.0
      vertex 3.263886433558191 2.9171312157158034 0.0
      vertex 2.719515411613341 3.2941428123595324 0.0
    endloop
  endfacet
  facet normal 0.0 0.0 -1.0
    outer loop
      vertex 2.6945125611005545 2.5836410841048356 0.0
      vertex 2.6889081638155394 1.9264712031857232 0.0
      vertex 2.1151288619578494 2.2799513341322823 0.0
    endloop
  endfacet
  facet normal -0.0 0.0 -1.0
    outer loop
      vertex 2.6945125611005545 2.5836410841048356 0.0
      vertex 2.1151288619578494 2.2799513341322823 0.0
      vertex 2.1276332747733155 2.9066478185114626 0.0
    endloop
  endfacet
  facet normal 0.0 0.0 -1.0
    outer loop
      vertex 2.6945125611005545 2.5836410841048356 0.0
      vertex 2.1276332747733155 2.9066478185114626 0.0
      vertex 2.719515411613341 3.2941428123595324 0.0
    endloop
  endfacet
  facet normal 0.0 0.0 -1.0
    outer loop
      vertex 2.1151288619578494 2.2799513341322823 0.0
      vertex 2.6889081638155394 1.9264712031857232 0.0
      vertex 2.121119416933737 1.6084296422303985 0.0
    endloop
  endfacet
  facet normal 0.0 0.0 -1.0
    outer loop
      vertex 2.121119416933737 1.6084296422303985 0.0
      vertex 2.6889081638155394 1.9264712031857232 0.0
      vertex 2.683330640390942 1.2749075212606182 0.0
    endloop
  endfacet
  facet normal 0.0 0.0 -1.0
    outer loop
      vertex 2.683330640390942 1.2749075212606182 0.0
      vertex 2.6889081638155394 1.9264712031857232 0.0
      vertex 3.2463914814593857 1.5938318260164008 0.0
    endloop
  endfacet
  facet normal 0.0 0.0 -1.0
    outer loop
      vertex 2.1276332747733155 2.9066478185114626 0.0
      vertex 2.1151288619578494 2.2799513341322823 0.0
      vertex 1.5162371861777506 2.7038548464920797 0.0
    endloop
  endfacet
  facet normal 0.0 -0.0 -1.0
    outer loop
      vertex 2.1151288619578494 2.2799513341322823 0.0
      vertex 2.121119416933737 1.6084296422303985 0.0
      vertex 1.5704088135403185 1.9675110425590625 0.0
    endloop
  endfacet
  facet normal -0.0 0.0 -1.0
    outer loop
      vertex 2.1151288619578494 2.2799513341322823 0.0
      vertex 1.5704088135403185 1.9675110425590625 0.0
      vertex 1.5162371861777506 2.7038548464920797 0.0
    endloop
  endfacet
  facet normal -0.0 0.0 -1.0
    outer loop
      vertex 2.719515411613341 3.2941428123595324 0.0
      vertex 2.1276332747733155 2.9066478185114626 0.0
      vertex 2.1802254284884985 3.6782938687762843 0.0
    endloop
  endfacet
  facet normal 0.0 0.0 -1.0
    outer loop
      vertex 2.1802254284884985 3.6782938687762843 0.0
      vertex 2.1276332747733155 2.9066478185114626 0.0
      vertex 1.615444839136743 3.404622936452672 0.0
    endloop
  endfacet
  facet normal 0.0 -0.0 -1.0
    outer loop
      vertex 1.615444839136743 3.404622936452672 0.0
      vertex 2.1276332747733155 2.9066478185114626 0.0
      vertex 1.5162371861777506 2.7038548464920797 0.0
    endloop
  endfacet
  facet normal 0.0 0.0 -1.0
    outer loop
      vertex 1.5704088135403185 1.9675110425590625 0.0
      vertex 2.121119416933737 1.6084296422303985 0.0
      vertex 1.5799588932796818 1.3095030372891214 0.0
    endloop
  endfacet
  facet normal 0.0 0.0 -1.0
    outer loop
      vertex 2.121119416933737 1.6084296422303985 0.0
      vertex 2.683330640390942 1.2749075212606182 0.0
      vertex 2.1660429597100945 0.9741319165948106 0.0
    endloop
  endfacet
  facet normal 0.0 0.0 -1.0
    outer loop
      vertex 1.5799588932796818 1.3095030372891214 0.0
      vertex 2.121119416933737 1.6084296422303985 0.0
      vertex 2.1660429597100945 0.9741319165948106 0.0
    endloop
  endfacet
  facet normal 0.0 -0.0 -1.0
    outer loop
      vertex 1.5704088135403185 1.9675110425590625 0.0
      vertex 1.5799588932796818 1.3095030372891214 0.0
      vertex 0.9969146465918467 1.638847900235713 0.0
    endloop
  endfacet
  facet normal -0.0 0.0 -1.0
    outer loop
      vertex 1.5704088135403185 1.9675110425590625 0.0
      vertex 0.9969146465918467 1.638847900235713 0.0
      vertex 1.1359488091262628 2.272682367087007 0.0
    endloop
  endfacet
  facet normal 0.0 -0.0 -1.0
    outer loop
      vertex 1.5162371861777506 2.7038548464920797 0.0
      vertex 1.5704088135403185 1.9675110425590625 0.0
      vertex 1.1359488091262628 2.272682367087007 0.0
    endloop
  endfacet
  facet normal 0.0 0.0 -1.0
    outer loop
      vertex 2.683330640390942 1.2749075212606182 0.0
      vertex 3.2463914814593857 1.5938318260164008 0.0
      vertex 3.1914893617021263 1.0221149989909564 0.0
    endloop
  endfacet
  facet normal 0.0 0.0 -1.0
    outer loop
      vertex 0.9969146465918467 1.638847900235713 0.0
      vertex 1.5799588932796818 1.3095030372891214 0.0
      vertex 1.1447874797240734 1.0307663926912511 0.0
    endloop
  endfacet
  facet normal 0.0 0.0 -1.0
    outer loop
      vertex 3.842351747469692 1.1390668253275926 0.0
      vertex 4.432746027152829 1.5652235228837297 0.0
      vertex 4.539000648385733 0.8732269503546094 0.0
    endloop
  endfacet
  facet normal 0.0 -0.0 -1.0
    outer loop
      vertex 3.2463914814593857 1.5938318260164008 0.0
      vertex 3.842351747469692 1.1390668253275926 0.0
      vertex 3.1914893617021263 1.0221149989909564 0.0
    endloop
  endfacet
  facet normal 0.0 0.0 -1.0
    outer loop
      vertex 3.842351747469692 1.1390668253275926 0.0
      vertex 3.5059853887441785 0.5468535063193277 0.0
      vertex 3.1914893617021263 1.0221149989909564 0.0
    endloop
  endfacet
  facet normal 0.0 -0.0 -1.0
    outer loop
      vertex 3.8157105202959776 3.880725990507184 0.0
      vertex 3.8327944065361423 3.24833398240479 0.0
      vertex 3.265473004530601 3.5838871641010552 0.0
    endloop
  endfacet
  facet normal -0.0 0.0 -1.0
    outer loop
      vertex 3.8157105202959776 3.880725990507184 0.0
      vertex 3.265473004530601 3.5838871641010552 0.0
      vertex 3.343356140668546 4.150131513095022 0.0
    endloop
  endfacet
  facet normal 0.0 0.0 -1.0
    outer loop
      vertex 1.615444839136743 3.404622936452672 0.0
      vertex 1.5162371861777506 2.7038548464920797 0.0
      vertex 1.058427526337467 3.2711848638839855 0.0
    endloop
  endfacet
  facet normal -0.0 0.0 -1.0
    outer loop
      vertex 1.615444839136743 3.404622936452672 0.0
      vertex 1.058427526337467 3.2711848638839855 0.0
      vertex 1.2174244092712108 3.732577617398233 0.0
    endloop
  endfacet
  facet normal 0.0 -0.0 -1.0
    outer loop
      vertex 1.058427526337467 3.2711848638839855 0.0
      vertex 1.5162371861777506 2.7038548464920797 0.0
      vertex 0.9677970485612679 2.7056781900950124 0.0
    endloop
  endfacet
  facet normal -0.0 0.0 -1.0
    outer loop
      vertex 1.5162371861777506 2.7038548464920797 0.0
      vertex 1.1359488091262628 2.272682367087007 0.0
      vertex 0.9677970485612679 2.7056781900950124 0.0
    endloop
  endfacet
  facet normal 0.0 0.0 -1.0
    outer loop
      vertex 0.5405261241549054 2.9938757128312865 0.0
      vertex 1.058427526337467 3.2711848638839855 0.0
      vertex 0.9677970485612679 2.7056781900950124 0.0
    endloop
  endfacet
  facet normal 1.0 -0.0 0.0
    outer loop
      vertex 5.0 0.5319148936170213 0.26595744680851063
      vertex 5.0 0.5319148936170213 0.0
      vertex 5.0 1.2145390070921989 0.26595744680851063
    endloop
  endfacet
  facet normal 1.0 0.0 0.0
    outer loop
      vertex 5.0 0.5319148936170213 0.0
      vertex 5.0 1.2145390070921989 0.0
      vertex 5.0 1.2145390070921989 0.26595744680851063
    endloop
  endfacet
  facet normal 1.0 0.0 0.0
    outer loop
      vertex 5.0 3.9450354609929104 0.0
      vertex 5.0 4.627659574468085 0.0
      vertex 5.0 4.627659574468085 0.26595744680851063
    endloop
  endfacet
  facet normal 1.0 0.0 0.0
    outer loop
      vertex 5.0 3.9450354609929104 0.0
      vertex 5.0 4.627659574468085 0.26595744680851063
      vertex 5.0 3.9450354609929104 0.26595744680851063
    endloop
  endfacet
  facet normal 1.0 -0.0 0.0
    outer loop
      vertex 5.0 1.2145390070921989 0.26595744680851063
      vertex 5.0 1.2145390070921989 0.0
      vertex 5.0 1.897163120567376 0.26595744680851063
    endloop
  endfacet
  facet normal 1.0 -0.0 0.0
    outer loop
      vertex 5.0 1.897163120567376 0.26595744680851063
      vertex 5.0 1.897163120567376 0.0
      vertex 5.0 2.5797872340425565 0.26595744680851063
    endloop
  endfacet
  facet normal 1.0 0.0 0.0
    outer loop
      vertex 5.0 1.2145390070921989 0.0
      vertex 5.0 1.897163120567376 0.0
      vertex 5.0 1.897163120567376 0.26595744680851063
    endloop
  endfacet
  facet normal 1.0 0.0 -0.0
    outer loop
      vertex 5.0 3.2624113475177365 0.0
      vertex 5.0 3.2624113475177365 0.26595744680851063
      vertex 5.0 2.5797872340425565 0.26595744680851063
    endloop
  endfacet
  facet normal 1.0 0.0 0.0
    outer loop
      vertex 5.0 1.897163120567376 0.0
      vertex 5.0 2.5797872340425565 0.0
      vertex 5.0 2.5797872340425565 0.26595744680851063
    endloop
  endfacet
  facet normal 1.0 0.0 0.0
    outer loop
      vertex 5.0 2.5797872340425565 0.26595744680851063
      vertex 5.0 2.5797872340425565 0.0
      vertex 5.0 3.2624113475177365 0.0
    endloop
  endfacet
  facet normal 1.0 0.0 0.0
    outer loop
      vertex 5.0 3.9450354609929104 0.26595744680851063
      vertex 5.0 3.2624113475177365 0.26595744680851063
      vertex 5.0 3.2624113475177365 0.0
    endloop
  endfacet
  facet normal 1.0 0.0 0.0
    outer loop
      vertex 5.0 3.9450354609929104 0.26595744680851063
      vertex 5.0 3.2624113475177365 0.0
      vertex 5.0 3.9450354609929104 0.0
    endloop
  endfacet
  facet normal 0.0 1.0 -0.0
    outer loop
      vertex 5.0 4.627659574468085 0.0
      vertex 4.687499999999999 4.627659574468085 0.13297872340425532
      vertex 5.0 4.627659574468085 0.26595744680851063
    endloop
  endfacet
  facet normal 0.0 1.0 0.0
    outer loop
      vertex 5.0 4.627659574468085 0.26595744680851063
      vertex 4.687499999999999 4.627659574468085 0.13297872340425532
      vertex 4.374999999999997 4.627659574468085 0.26595744680851063
    endloop
  endfacet
  facet normal 0.0 1.0 0.0
    outer loop
      vertex 0.0 4.627659574468085 0.26595744680851063
      vertex 0.3124999999999988 4.627659574468085 0.13297872340425532
      vertex 0.0 4.627659574468085 0.0
    endloop
  endfacet
  facet normal 0.0 1.0 0.0
    outer loop
      vertex 0.6249999999999979 4.627659574468085 0.26595744680851063
      vertex 0.3124999999999988 4.627659574468085 0.13297872340425532
      vertex 0.0 4.627659574468085 0.26595744680851063
    endloop
  endfacet
  facet normal 0.0 1.0 0.0
    outer loop
      vertex 4.374999999999997 4.627659574468085 0.0
      vertex 4.687499999999999 4.627659574468085 0.13297872340425532
      vertex 5.0 4.627659574468085 0.0
    endloop
  endfacet
  facet normal 0.0 1.0 0.0
    outer loop
      vertex 0.0 4.627659574468085 0.0
      vertex 0.3124999999999988 4.627659574468085 0.13297872340425532
      vertex 0.6249999999999979 4.627659574468085 0.0
    endloop
  endfacet
  facet normal 0.0 1.0 0.0
    outer loop
      vertex 4.374999999999997 4.627659574468085 0.26595744680851063
      vertex 4.0624999999999964 4.627659574468085 0.13297872340425532
      vertex 3.7499999999999956 4.627659574468085 0.26595744680851063
    endloop
  endfacet
  facet normal 0.0 1.0 0.0
    outer loop
      vertex 4.374999999999997 4.627659574468085 0.26595744680851063
      vertex 4.687499999999999 4.627659574468085 0.13297872340425532
      vertex 4.374999999999997 4.627659574468085 0.0
    endloop
  endfacet
  facet normal 0.0 1.0 -0.0
    outer loop
      vertex 4.374999999999997 4.627659574468085 0.0
      vertex 4.0624999999999964 4.627659574468085 0.13297872340425532
      vertex 4.374999999999997 4.627659574468085 0.26595744680851063
    endloop
  endfacet
  facet normal 0.0 1.0 0.0
    outer loop
      vertex 3.7499999999999956 4.627659574468085 0.26595744680851063
      vertex 3.4374999999999947 4.627659574468085 0.13297872340425532
      vertex 3.124999999999994 4.627659574468085 0.26595744680851063
    endloop
  endfacet
  facet normal 0.0 1.0 0.0
    outer loop
      vertex 3.7499999999999956 4.627659574468085 0.26595744680851063
      vertex 4.0624999999999964 4.627659574468085 0.13297872340425532
      vertex 3.7499999999999956 4.627659574468085 0.0
    endloop
  endfacet
  facet normal 0.0 1.0 -0.0
    outer loop
      vertex 3.7499999999999956 4.627659574468085 0.0
      vertex 3.4374999999999947 4.627659574468085 0.13297872340425532
      vertex 3.7499999999999956 4.627659574468085 0.26595744680851063
    endloop
  endfacet
  facet normal 0.0 1.0 0.0
    outer loop
      vertex 3.124999999999994 4.627659574468085 0.26595744680851063
      vertex 2.812499999999993 4.627659574468085 0.13297872340425532
      vertex 2.499999999999991 4.627659574468085 0.26595744680851063
    endloop
  endfacet
  facet normal 0.0 1.0 -0.0
    outer loop
      vertex 3.124999999999994 4.627659574468085 0.0
      vertex 2.812499999999993 4.627659574468085 0.13297872340425532
      vertex 3.124999999999994 4.627659574468085 0.26595744680851063
    endloop
  endfacet
  facet normal 0.0 1.0 0.0
    outer loop
      vertex 3.124999999999994 4.627659574468085 0.26595744680851063
      vertex 3.4374999999999947 4.627659574468085 0.13297872340425532
      vertex 3.124999999999994 4.627659574468085 0.0
    endloop
  endfacet
  facet normal 0.0 1.0 0.0
    outer loop
      vertex 2.499999999999991 4.627659574468085 0.26595744680851063
      vertex 2.1874999999999916 4.627659574468085 0.13297872340425532
      vertex 1.874999999999992 4.627659574468085 0.26595744680851063
    endloop
  endfacet
  facet normal 0.0 1.0 0.0
    outer loop
      vertex 2.499999999999991 4.627659574468085 0.26595744680851063
      vertex 2.812499999999993 4.627659574468085 0.13297872340425532
      vertex 2.499999999999991 4.627659574468085 0.0
    endloop
  endfacet
  facet normal 0.0 1.0 -0.0
    outer loop
      vertex 2.499999999999991 4.627659574468085 0.0
      vertex 2.1874999999999916 4.627659574468085 0.13297872340425532
      vertex 2.499999999999991 4.627659574468085 0.26595744680851063
    endloop
  endfacet
  facet normal 0.0 1.0 0.0
    outer loop
      vertex 1.874999999999992 4.627659574468085 0.26595744680851063
      vertex 1.5624999999999936 4.627659574468085 0.13297872340425532
      vertex 1.2499999999999947 4.627659574468085 0.26595744680851063
    endloop
  endfacet
  facet normal 0.0 1.0 -0.0
    outer loop
      vertex 1.874999999999992 4.627659574468085 0.0
      vertex 1.5624999999999936 4.627659574468085 0.13297872340425532
      vertex 1.874999999999992 4.627659574468085 0.26595744680851063
    endloop
  endfacet
  facet normal 0.0 1.0 0.0
    outer loop
      vertex 1.874999999999992 4.627659574468085 0.26595744680851063
      vertex 2.1874999999999916 4.627659574468085 0.13297872340425532
      vertex 1.874999999999992 4.627659574468085 0.0
    endloop
  endfacet
  facet normal 0.0 1.0 0.0
    outer loop
      vertex 1.2499999999999947 4.627659574468085 0.26595744680851063
      vertex 0.9374999999999967 4.627659574468085 0.13297872340425532
      vertex 0.6249999999999979 4.627659574468085 0.26595744680851063
    endloop
  endfacet
  facet normal 0.0 1.0 -0.0
    outer loop
      vertex 1.2499999999999947 4.627659574468085 0.0
      vertex 0.9374999999999967 4.627659574468085 0.13297872340425532
      vertex 1.2499999999999947 4.627659574468085 0.26595744680851063
    endloop
  endfacet
  facet normal 0.0 1.0 0.0
    outer loop
      vertex 1.2499999999999947 4.627659574468085 0.26595744680851063
      vertex 1.5624999999999936 4.627659574468085 0.13297872340425532
      vertex 1.2499999999999947 4.627659574468085 0.0
    endloop
  endfacet
  facet normal 0.0 1.0 -0.0
    outer loop
      vertex 0.6249999999999979 4.627659574468085 0.0
      vertex 0.3124999999999988 4.627659574468085 0.13297872340425532
      vertex 0.6249999999999979 4.627659574468085 0.26595744680851063
    endloop
  endfacet
  facet normal 0.0 1.0 0.0
    outer loop
      vertex 0.6249999999999979 4.627659574468085 0.26595744680851063
      vertex 0.9374999999999967 4.627659574468085 0.13297872340425532
      vertex 0.6249999999999979 4.627659574468085 0.0
    endloop
  endfacet
  facet normal 0.0 1.0 0.0
    outer loop
      vertex 3.7499999999999956 4.627659574468085 0.0
      vertex 4.0624999999999964 4.627659574468085 0.13297872340425532
      vertex 4.374999999999997 4.627659574468085 0.0
    endloop
  endfacet
  facet normal 0.0 1.0 0.0
    outer loop
      vertex 3.124999999999994 4.627659574468085 0.0
      vertex 3.4374999999999947 4.627659574468085 0.13297872340425532
      vertex 3.7499999999999956 4.627659574468085 0.0
    endloop
  endfacet
  facet normal 0.0 1.0 0.0
    outer loop
      vertex 2.499999999999991 4.627659574468085 0.0
      vertex 2.812499999999993 4.627659574468085 0.13297872340425532
      vertex 3.124999999999994 4.627659574468085 0.0
    endloop
  endfacet
  facet normal 0.0 1.0 0.0
    outer loop
      vertex 1.874999999999992 4.627659574468085 0.0
      vertex 2.1874999999999916 4.627659574468085 0.13297872340425532
      vertex 2.499999999999991 4.627659574468085 0.0
    endloop
  endfacet
  facet normal 0.0 1.0 0.0
    outer loop
      vertex 1.2499999999999947 4.627659574468085 0.0
      vertex 1.5624999999999936 4.627659574468085 0.13297872340425532
      vertex 1.874999999999992 4.627659574468085 0.0
    endloop
  endfacet
  facet normal 0.0 1.0 0.0
    outer loop
      vertex 0.6249999999999979 4.627659574468085 0.0
      vertex 0.9374999999999967 4.627659574468085 0.13297872340425532
      vertex 1.2499999999999947 4.627659574468085 0.0
    endloop
  endfacet
  facet normal -1.0 0.0 0.0
    outer loop
      vertex 0.0 0.0 0.0
      vertex 0.0 0.0 0.26595744680851063
      vertex 0.0 0.3305471124620053 0.13297872340425532
    endloop
  endfacet
  facet normal -1.0 0.0 0.0
    outer loop
      vertex 0.0 0.6610942249240106 0.0
      vertex 0.0 0.0 0.0
      vertex 0.0 0.3305471124620053 0.13297872340425532
    endloop
  endfacet
  facet normal -1.0 0.0 0.0
    outer loop
      vertex 0.0 0.0 0.26595744680851063
      vertex 0.0 0.6610942249240106 0.26595744680851063
      vertex 0.0 0.3305471124620053 0.13297872340425532
    endloop
  endfacet
  facet normal -1.0 0.0 -0.0
    outer loop
      vertex 0.0 4.627659574468085 0.26595744680851063
      vertex 0.0 4.627659574468085 0.0
      vertex 0.0 4.297112462006078 0.13297872340425532
    endloop
  endfacet
  facet normal -1.0 0.0 0.0
    outer loop
      vertex 0.0 3.966565349544069 0.26595744680851063
      vertex 0.0 4.627659574468085 0.26595744680851063
      vertex 0.0 4.297112462006078 0.13297872340425532
    endloop
  endfacet
  facet normal -1.0 0.0 0.0
    outer loop
      vertex 0.0 4.627659574468085 0.0
      vertex 0.0 3.966565349544069 0.0
      vertex 0.0 4.297112462006078 0.13297872340425532
    endloop
  endfacet
  facet normal -1.0 0.0 0.0
    outer loop
      vertex 0.0 0.6610942249240106 0.26595744680851063
      vertex 0.0 1.3221884498480208 0.26595744680851063
      vertex 0.0 0.9916413373860159 0.13297872340425532
    endloop
  endfacet
  facet normal -1.0 0.0 -0.0
    outer loop
      vertex 0.0 0.6610942249240106 0.26595744680851063
      vertex 0.0 0.6610942249240106 0.0
      vertex 0.0 0.3305471124620053 0.13297872340425532
    endloop
  endfacet
  facet normal -1.0 0.0 0.0
    outer loop
      vertex 0.0 0.6610942249240106 0.0
      vertex 0.0 0.6610942249240106 0.26595744680851063
      vertex 0.0 0.9916413373860159 0.13297872340425532
    endloop
  endfacet
  facet normal -1.0 0.0 0.0
    outer loop
      vertex 0.0 1.3221884498480208 0.26595744680851063
      vertex 0.0 1.9832826747720302 0.26595744680851063
      vertex 0.0 1.6527355623100253 0.13297872340425532
    endloop
  endfacet
  facet normal -1.0 0.0 0.0
    outer loop
      vertex 0.0 1.3221884498480208 0.0
      vertex 0.0 1.3221884498480208 0.26595744680851063
      vertex 0.0 1.6527355623100253 0.13297872340425532
    endloop
  endfacet
  facet normal -1.0 0.0 -0.0
    outer loop
      vertex 0.0 1.3221884498480208 0.26595744680851063
      vertex 0.0 1.3221884498480208 0.0
      vertex 0.0 0.9916413373860159 0.13297872340425532
    endloop
  endfacet
  facet normal -1.0 0.0 0.0
    outer loop
      vertex 0.0 1.9832826747720302 0.26595744680851063
      vertex 0.0 2.6443768996960397 0.26595744680851063
      vertex 0.0 2.3138297872340354 0.13297872340425532
    endloop
  endfacet
  facet normal -1.0 0.0 -0.0
    outer loop
      vertex 0.0 1.9832826747720302 0.26595744680851063
      vertex 0.0 1.9832826747720302 0.0
      vertex 0.0 1.6527355623100253 0.13297872340425532
    endloop
  endfacet
  facet normal -1.0 0.0 0.0
    outer loop
      vertex 0.0 1.9832826747720302 0.0
      vertex 0.0 1.9832826747720302 0.26595744680851063
      vertex 0.0 2.3138297872340354 0.13297872340425532
    endloop
  endfacet
  facet normal -1.0 0.0 0.0
    outer loop
      vertex 0.0 2.6443768996960397 0.26595744680851063
      vertex 0.0 3.3054711246200545 0.26595744680851063
      vertex 0.0 2.9749240121580476 0.13297872340425532
    endloop
  endfacet
  facet normal -1.0 0.0 0.0
    outer loop
      vertex 0.0 2.6443768996960397 0.0
      vertex 0.0 2.6443768996960397 0.26595744680851063
      vertex 0.0 2.9749240121580476 0.13297872340425532
    endloop
  endfacet
  facet normal -1.0 0.0 -0.0
    outer loop
      vertex 0.0 2.6443768996960397 0.26595744680851063
      vertex 0.0 2.6443768996960397 0.0
      vertex 0.0 2.3138297872340354 0.13297872340425532
    endloop
  endfacet
  facet normal -1.0 0.0 0.0
    outer loop
      vertex 0.0 3.3054711246200545 0.26595744680851063
      vertex 0.0 3.966565349544069 0.26595744680851063
      vertex 0.0 3.6360182370820624 0.13297872340425532
    endloop
  endfacet
  facet normal -1.0 0.0 -0.0
    outer loop
      vertex 0.0 3.3054711246200545 0.26595744680851063
      vertex 0.0 3.3054711246200545 0.0
      vertex 0.0 2.9749240121580476 0.13297872340425532
    endloop
  endfacet
  facet normal -1.0 0.0 0.0
    outer loop
      vertex 0.0 3.3054711246200545 0.0
      vertex 0.0 3.3054711246200545 0.26595744680851063
      vertex 0.0 3.6360182370820624 0.13297872340425532
    endloop
  endfacet
  facet normal -1.0 0.0 0.0
    outer loop
      vertex 0.0 3.966565349544069 0.0
      vertex 0.0 3.966565349544069 0.26595744680851063
      vertex 0.0 4.297112462006078 0.13297872340425532
    endloop
  endfacet
  facet normal -1.0 0.0 -0.0
    outer loop
      vertex 0.0 3.966565349544069 0.26595744680851063
      vertex 0.0 3.966565349544069 0.0
      vertex 0.0 3.6360182370820624 0.13297872340425532
    endloop
  endfacet
  facet normal -1.0 0.0 0.0
    outer loop
      vertex 0.0 1.3221884498480208 0.0
      vertex 0.0 0.6610942249240106 0.0
      vertex 0.0 0.9916413373860159 0.13297872340425532
    endloop
  endfacet
  facet normal -1.0 0.0 0.0
    outer loop
      vertex 0.0 1.9832826747720302 0.0
      vertex 0.0 1.3221884498480208 0.0
      vertex 0.0 1.6527355623100253 0.13297872340425532
    endloop
  endfacet
  facet normal -1.0 0.0 0.0
    outer loop
      vertex 0.0 2.6443768996960397 0.0
      vertex 0.0 1.9832826747720302 0.0
      vertex 0.0 2.3138297872340354 0.13297872340425532
    endloop
  endfacet
  facet normal -1.0 0.0 0.0
    outer loop
      vertex 0.0 3.3054711246200545 0.0
      vertex 0.0 2.6443768996960397 0.0
      vertex 0.0 2.9749240121580476 0.13297872340425532
    endloop
  endfacet
  facet normal -1.0 0.0 0.0
    outer loop
      vertex 0.0 3.966565349544069 0.0
      vertex 0.0 3.3054711246200545 0.0
      vertex 0.0 3.6360182370820624 0.13297872340425532
    endloop
  endfacet
endsolid abc_50_025
