solid abc_50_026
  facet normal 0.14559509185993885 -0.008142186766967258 0.9893107570530847
    outer loop
      vertex 0.22557471264367812 0.11794394605042852 0.4511494252873563
      vertex 0.2934023259387345 0.0624222414882154 0.4407104043802523
      vertex 0.28930958321574585 0.1408568780085764 0.44195825567819824
    endloop
  endfacet
  facet normal -0.2178892628770585 0.0 0.9759734981662628
    outer loop
      vertex 0.12963591684433998 0.08686625528978206 0.42973077658705183
      vertex 0.22557471264367812 0.05897197302521447 0.4511494252873563
      vertex 0.22557471264367812 0.11794394605042852 0.4511494252873563
    endloop
  endfacet
  facet normal 0.15211417258459808 0.0 0.988362928533291
    outer loop
      vertex 0.2934023259387345 0.0624222414882154 0.4407104043802523
      vertex 0.22557471264367812 0.11794394605042852 0.4511494252873563
      vertex 0.22557471264367812 0.05897197302521447 0.4511494252873563
    endloop
  endfacet
  facet normal -0.21571092829062066 -0.007040575238217542 0.9764318848318676
    outer loop
      vertex 0.12963591684433998 0.08686625528978206 0.42973077658705183
      vertex 0.22557471264367812 0.11794394605042852 0.4511494252873563
      vertex 0.1330870715020575 0.2011496570673974 0.4313172391838281
    endloop
  endfacet
  facet normal 0.4678758486997077 -0.06760054891226996 0.8812050589904077
    outer loop
      vertex 0.3710192733724977 0.13334355106544288 0.39799811806962004
      vertex 0.31806235296076113 0.20114942528735633 0.43131723953798806
      vertex 0.28930958321574585 0.1408568780085764 0.44195825567819824
    endloop
  endfacet
  facet normal 0.5136738001841095 0.09447640986515696 0.8527681015278459
    outer loop
      vertex 0.38216342051069724 0.244122089953906 0.38794443750892305
      vertex 0.2893019440879571 0.2614526563633392 0.4419605031977719
      vertex 0.31806235296076113 0.20114942528735633 0.43131723953798806
    endloop
  endfacet
  facet normal 0.5509162760213775 0.02029663082129973 0.834313672183335
    outer loop
      vertex 0.3710192733724977 0.13334355106544288 0.39799811806962004
      vertex 0.38216342051069724 0.244122089953906 0.38794443750892305
      vertex 0.31806235296076113 0.20114942528735633 0.43131723953798806
    endloop
  endfacet
  facet normal -0.21788926287705856 -1.0255112049637668e-16 0.9759734981662628
    outer loop
      vertex 0.22557471264367812 0.05897197302521447 0.4511494252873563
      vertex 0.12963591684433998 0.08686625528978206 0.42973077658705183
      vertex 0.22557471264367815 0.0 0.4511494252873563
    endloop
  endfacet
  facet normal 0.15211417258459806 8.037033559120717e-17 0.9883629285332909
    outer loop
      vertex 0.2934023259387345 0.0624222414882154 0.4407104043802523
      vertex 0.22557471264367812 0.05897197302521447 0.4511494252873563
      vertex 0.22557471264367815 0.0 0.4511494252873563
    endloop
  endfacet
  facet normal 0.4131472053620623 -0.3054529653752303 0.8579090118683893
    outer loop
      vertex 0.4019361246371847 0.0 0.36621824553422605
      vertex 0.2934023259387345 0.0624222414882154 0.4407104043802523
      vertex 0.22557471264367815 0.0 0.4511494252873563
    endloop
  endfacet
  facet normal -0.4202230051666851 -0.2489543494076224 0.872602061560542
    outer loop
      vertex 0.12963591684433998 0.08686625528978206 0.42973077658705183
      vertex 0.049213300650170544 0.0 0.36621824553422466
      vertex 0.22557471264367815 0.0 0.4511494252873563
    endloop
  endfacet
  facet normal -0.5980145621435079 0.519194378100479 0.6105864240328027
    outer loop
      vertex 0.00993826772052763 0.22338943610739814 0.29179309834722006
      vertex 0.1330870715020575 0.2011496570673974 0.4313172391838281
      vertex 0.22557471264367823 0.28435489666443614 0.4511494252873563
    endloop
  endfacet
  facet normal 0.5715646948052442 2.853207357607074e-17 0.8205570057297591
    outer loop
      vertex 0.43716443127697374 0.48736814860535205 0.30376513375113084
      vertex 0.2255747126436782 0.755919406997992 0.4511494252873563
      vertex 0.22557471264367823 0.28435489666443614 0.4511494252873563
    endloop
  endfacet
  facet normal -0.7071067811863674 -4.1619238308794373e-17 0.7071067811867279
    outer loop
      vertex 0.2255747126436782 0.755919406997992 0.4511494252873563
      vertex 0.0 0.5201371523290153 0.2255747126437931
      vertex 0.22557471264367823 0.28435489666443614 0.4511494252873563
    endloop
  endfacet
  facet normal 0.26231122121168127 0.3727836685020228 0.890070311674651
    outer loop
      vertex 0.2893019440879571 0.2614526563633392 0.4419605031977719
      vertex 0.43716443127697374 0.48736814860535205 0.30376513375113084
      vertex 0.22557471264367823 0.28435489666443614 0.4511494252873563
    endloop
  endfacet
  facet normal -0.6148626310638926 0.1520859043196578 0.7738306162387603
    outer loop
      vertex 0.00993826772052763 0.22338943610739814 0.29179309834722006
      vertex 0.22557471264367823 0.28435489666443614 0.4511494252873563
      vertex 0.0 0.5201371523290153 0.2255747126437931
    endloop
  endfacet
  facet normal 0.47604880157280144 5.603902846478988e-17 0.8794188640921342
    outer loop
      vertex 0.2255747126436782 4.528435489666444 0.4511494252873563
      vertex 0.4144467486323484 4.817888762297646 0.3489088320339443
      vertex 0.22557471264367815 5.0 0.4511494252873563
    endloop
  endfacet
  facet normal -0.6057077950469048 -5.384750224125739e-17 0.7956871665544296
    outer loop
      vertex 0.008141478981246937 4.852994045868053 0.2856308520748518
      vertex 0.2255747126436782 4.528435489666444 0.4511494252873563
      vertex 0.22557471264367815 5.0 0.4511494252873563
    endloop
  endfacet
  facet normal 0.4332091347819698 -0.055742186289017955 0.8995680375653514
    outer loop
      vertex 0.4144467486323484 4.817888762297646 0.3489088320339443
      vertex 0.4019361246371847 5.0 0.36621824553422605
      vertex 0.22557471264367815 5.0 0.4511494252873563
    endloop
  endfacet
  facet normal -0.4065671248914192 -0.34921768141183007 0.8442453339799224
    outer loop
      vertex 0.049213300650170544 5.0 0.36621824553422466
      vertex 0.008141478981246937 4.852994045868053 0.2856308520748518
      vertex 0.22557471264367815 5.0 0.4511494252873563
    endloop
  endfacet
  facet normal -0.3850681853437424 0.21406642506485593 -0.8977182510654608
    outer loop
      vertex 0.04429833535079047 0.3412572654139969 0.09132559339202491
      vertex 0.22557471264367912 0.2843548981985247 0.0
      vertex 0.13308710862301007 0.2011548643347641 0.019832168958812027
    endloop
  endfacet
  facet normal 0.40542580293532 0.24045331190586644 -0.8819365754450551
    outer loop
      vertex 0.22557471264367912 0.2843548981985247 0.0
      vertex 0.40970191713876736 0.3233066105065805 0.0952630725300583
      vertex 0.3180623442274346 0.20115310907704145 0.019832181851455223
    endloop
  endfacet
  facet normal -0.4704712361084656 -0.08994226500469209 -0.87781957426364
    outer loop
      vertex 0.22557471264367912 0.2843548981985247 0.0
      vertex 0.04429833535079047 0.3412572654139969 0.09132559339202491
      vertex 0.1550275733905186 0.5429376490044678 0.01131540216342556
    endloop
  endfacet
  facet normal 0.07706356519084391 0.06456226535114887 -0.9949336263353472
    outer loop
      vertex 0.3182513044992121 0.4806666739269932 0.01991722966209358
      vertex 0.22557471264367912 0.2843548981985247 0.0
      vertex 0.1550275733905186 0.5429376490044678 0.01131540216342556
    endloop
  endfacet
  facet normal 0.47795591563986206 -0.13761991236798668 -0.8675361101560491
    outer loop
      vertex 0.40970191713876736 0.3233066105065805 0.0952630725300583
      vertex 0.22557471264367912 0.2843548981985247 0.0
      vertex 0.3182513044992121 0.4806666739269932 0.01991722966209358
    endloop
  endfacet
  facet normal 0.4745269658825656 0.010757861918210609 0.8801752252007752
    outer loop
      vertex 0.28930958321574585 0.1408568780085764 0.44195825567819824
      vertex 0.2934023259387345 0.0624222414882154 0.4407104043802523
      vertex 0.3710192733724977 0.13334355106544288 0.39799811806962004
    endloop
  endfacet
  facet normal 0.9589793303944989 -0.1801384205139887 0.21888077423758262
    outer loop
      vertex 0.4454937962823943 0.0 0.1753796169092805
      vertex 0.4510337802213611 0.09925848692554677 0.2327968889970904
      vertex 0.4019361246371847 0.0 0.36621824553422605
    endloop
  endfacet
  facet normal 0.8119902305839146 0.04966466556692929 0.581554199048039
    outer loop
      vertex 0.3710192733724977 0.13334355106544288 0.39799811806962004
      vertex 0.4019361246371847 0.0 0.36621824553422605
      vertex 0.44017678287253087 0.2078788499546299 0.2950722121509881
    endloop
  endfacet
  facet normal 0.5337418488653272 -0.07695492496213396 0.8421386930273983
    outer loop
      vertex 0.2934023259387345 0.0624222414882154 0.4407104043802523
      vertex 0.4019361246371847 0.0 0.36621824553422605
      vertex 0.3710192733724977 0.13334355106544288 0.39799811806962004
    endloop
  endfacet
  facet normal 0.952505250132514 -0.07413294866374824 0.295360888393191
    outer loop
      vertex 0.4510337802213611 0.09925848692554677 0.2327968889970904
      vertex 0.44017678287253087 0.2078788499546299 0.2950722121509881
      vertex 0.4019361246371847 0.0 0.36621824553422605
    endloop
  endfacet
  facet normal 0.7790088725058166 -0.08489683955194804 -0.6212388455266677
    outer loop
      vertex 0.4321539730342421 0.173284577907598 0.13497140055871304
      vertex 0.4454937962823943 0.0 0.1753796169092805
      vertex 0.3234479124158872 0.0 0.022338919165690543
    endloop
  endfacet
  facet normal 0.9861546582611509 0.0382919330313357 -0.16134657682937212
    outer loop
      vertex 0.4510337802213611 0.09925848692554677 0.2327968889970904
      vertex 0.4454937962823943 0.0 0.1753796169092805
      vertex 0.4321539730342421 0.173284577907598 0.13497140055871304
    endloop
  endfacet
  facet normal 7.662417254032416e-15 -0.18609432534379866 -0.9825318834902187
    outer loop
      vertex 0.3234479124158872 0.0 0.022338919165690543
      vertex 0.12770151287147227 0.0 0.022338919165689017
      vertex 0.22557539538728202 0.1179439527444484 8.795570842387405e-12
    endloop
  endfacet
  facet normal 0.21517084756643015 -0.006408802601535029 -0.9765553919807921
    outer loop
      vertex 0.3234479124158872 0.0 0.022338919165690543
      vertex 0.22557539538728202 0.1179439527444484 8.795570842387405e-12
      vertex 0.3180623442274346 0.20115310907704145 0.019832181851455223
    endloop
  endfacet
  facet normal 0.7115379599075784 0.010295004513936841 -0.7025722343593003
    outer loop
      vertex 0.3180623442274346 0.20115310907704145 0.019832181851455223
      vertex 0.4321539730342421 0.173284577907598 0.13497140055871304
      vertex 0.3234479124158872 0.0 0.022338919165690543
    endloop
  endfacet
  facet normal -0.7742354248859034 -0.13905771957457339 -0.6174321480765833
    outer loop
      vertex 0.005655629004962838 0.0 0.1753796169092769
      vertex 0.039158992281382636 0.1545571547343146 0.09855845310937913
      vertex 0.12770151287147227 0.0 0.022338919165689017
    endloop
  endfacet
  facet normal -0.21516791615853156 -0.0064088663132680695 -0.9765560374543663
    outer loop
      vertex 0.22557539538728202 0.1179439527444484 8.795570842387405e-12
      vertex 0.12770151287147227 0.0 0.022338919165689017
      vertex 0.13308710862301007 0.2011548643347641 0.019832168958812027
    endloop
  endfacet
  facet normal -0.6445933136908408 0.007731069246743447 -0.7644865535203109
    outer loop
      vertex 0.039158992281382636 0.1545571547343146 0.09855845310937913
      vertex 0.13308710862301007 0.2011548643347641 0.019832168958812027
      vertex 0.12770151287147227 0.0 0.022338919165689017
    endloop
  endfacet
  facet normal -0.9703482326099016 -0.09681344457884823 0.22147565197921565
    outer loop
      vertex 0.00993826772052763 0.22338943610739814 0.29179309834722006
      vertex 0.005655629004962838 0.0 0.1753796169092769
      vertex 0.049213300650170544 0.0 0.36621824553422466
    endloop
  endfacet
  facet normal -0.9749077874387115 0.11728877339133183 -0.18920398946035116
    outer loop
      vertex 0.039158992281382636 0.1545571547343146 0.09855845310937913
      vertex 0.005655629004962838 0.0 0.1753796169092769
      vertex 0.00993826772052763 0.22338943610739814 0.29179309834722006
    endloop
  endfacet
  facet normal -0.6900772855676878 0.1166444710191722 0.7142740421744229
    outer loop
      vertex 0.049213300650170544 0.0 0.36621824553422466
      vertex 0.12963591684433998 0.08686625528978206 0.42973077658705183
      vertex 0.00993826772052763 0.22338943610739814 0.29179309834722006
    endloop
  endfacet
  facet normal -0.7486047913650734 0.01340452785066366 0.662880973462322
    outer loop
      vertex 0.12963591684433998 0.08686625528978206 0.42973077658705183
      vertex 0.1330870715020575 0.2011496570673974 0.4313172391838281
      vertex 0.00993826772052763 0.22338943610739814 0.29179309834722006
    endloop
  endfacet
  facet normal 0.880719373252085 0.0 0.4736384544971561
    outer loop
      vertex 0.2255747126436782 1.2274839173315484 0.4511494252873563
      vertex 0.2255747126436782 0.755919406997992 0.4511494252873563
      vertex 0.4137683401105545 1.08390726494136 0.10120787797648673
    endloop
  endfacet
  facet normal -0.5056243015983067 0.0 0.8627537688316549
    outer loop
      vertex 0.2255747126436782 1.2274839173315484 0.4511494252873563
      vertex 0.028770127370001276 1.2561298017645262 0.33581039742648344
      vertex 0.2255747126436782 0.755919406997992 0.4511494252873563
    endloop
  endfacet
  facet normal -0.8729638194332877 -0.24639172967219533 0.4209813362960289
    outer loop
      vertex 0.028770127370001276 1.2561298017645262 0.33581039742648344
      vertex 0.03258193737284002 0.8547476311467207 0.10879397931177218
      vertex 0.2255747126436782 0.755919406997992 0.4511494252873563
    endloop
  endfacet
  facet normal -0.8057934027809804 0.2635468839177919 0.5303206878973046
    outer loop
      vertex 0.0 0.5201371523290153 0.2255747126437931
      vertex 0.2255747126436782 0.755919406997992 0.4511494252873563
      vertex 0.03258193737284002 0.8547476311467207 0.10879397931177218
    endloop
  endfacet
  facet normal 0.9305388316690363 -0.22930410563263254 0.28551201357568734
    outer loop
      vertex 0.2255747126436782 0.755919406997992 0.4511494252873563
      vertex 0.3511581959624507 0.7513649851465496 0.03819077602743144
      vertex 0.4137683401105545 1.08390726494136 0.10120787797648673
    endloop
  endfacet
  facet normal 0.8223606075096245 0.5137922256382342 0.24441886197695786
    outer loop
      vertex 0.2255747126436782 0.755919406997992 0.4511494252873563
      vertex 0.43716443127697374 0.48736814860535205 0.30376513375113084
      vertex 0.3511581959624507 0.7513649851465496 0.03819077602743144
    endloop
  endfacet
  facet normal -0.5056243015983067 0.0 0.8627537688316549
    outer loop
      vertex 0.028770127370001276 1.2561298017645262 0.33581039742648344
      vertex 0.2255747126436782 1.2274839173315484 0.4511494252873563
      vertex 0.2255747126436782 1.699048427665105 0.4511494252873563
    endloop
  endfacet
  facet normal 0.7747554083010002 0.0 0.6322610673672312
    outer loop
      vertex 0.4465692125860497 1.484595782389797 0.1803488132109512
      vertex 0.2255747126436782 1.699048427665105 0.4511494252873563
      vertex 0.2255747126436782 1.2274839173315484 0.4511494252873563
    endloop
  endfacet
  facet normal 0.8366894194865205 -0.17124199068125823 0.5202182195452492
    outer loop
      vertex 0.4465692125860497 1.484595782389797 0.1803488132109512
      vertex 0.2255747126436782 1.2274839173315484 0.4511494252873563
      vertex 0.4137683401105545 1.08390726494136 0.10120787797648673
    endloop
  endfacet
  facet normal -0.7202292012344795 0.0 0.693736187386202
    outer loop
      vertex 0.00015832633030761335 1.8810793262573455 0.21712463775056182
      vertex 0.2255747126436782 1.699048427665105 0.4511494252873563
      vertex 0.2255747126436782 2.1706129379986616 0.4511494252873563
    endloop
  endfacet
  facet normal 0.7204184263829361 0.0 0.6935396823022703
    outer loop
      vertex 0.4509864550277492 1.988606698217354 0.2170016513669128
      vertex 0.2255747126436782 2.1706129379986616 0.4511494252873563
      vertex 0.2255747126436782 1.699048427665105 0.4511494252873563
    endloop
  endfacet
  facet normal -0.9139577034688935 0.40580786367429056 0.0011375631739310988
    outer loop
      vertex 0.2255747126436782 1.699048427665105 0.4511494252873563
      vertex 0.22500946396051885 1.6990400413765794 7.082056575114315e-07
      vertex 0.028770127370001276 1.2561298017645262 0.33581039742648344
    endloop
  endfacet
  facet normal -0.6287653233885666 -0.7775947045304392 0.0008022407931269716
    outer loop
      vertex 0.22500946396051885 1.6990400413765794 7.082056575114315e-07
      vertex 0.2255747126436782 1.699048427665105 0.4511494252873563
      vertex 0.00015832633030761335 1.8810793262573455 0.21712463775056182
    endloop
  endfacet
  facet normal 0.7520924407008193 -0.05435637850259442 0.656812259901387
    outer loop
      vertex 0.4509864550277492 1.988606698217354 0.2170016513669128
      vertex 0.2255747126436782 1.699048427665105 0.4511494252873563
      vertex 0.4465692125860497 1.484595782389797 0.1803488132109512
    endloop
  endfacet
  facet normal -0.7204184263829364 0.0 0.6935396823022699
    outer loop
      vertex 0.00016297025960712802 2.352619177779971 0.21700165136691246
      vertex 0.2255747126436782 2.1706129379986616 0.4511494252873563
      vertex 0.2255747126436782 2.642177448332218 0.4511494252873563
    endloop
  endfacet
  facet normal 0.7204184263829361 0.0 0.6935396823022704
    outer loop
      vertex 0.4509864550277492 2.4601712085509093 0.2170016513669128
      vertex 0.2255747126436782 2.642177448332218 0.4511494252873563
      vertex 0.2255747126436782 2.1706129379986616 0.4511494252873563
    endloop
  endfacet
  facet normal -0.7203453941458435 0.00018800213003714546 0.6936155114961519
    outer loop
      vertex 0.00015832633030761335 1.8810793262573455 0.21712463775056182
      vertex 0.2255747126436782 2.1706129379986616 0.4511494252873563
      vertex 0.00016297025960712802 2.352619177779971 0.21700165136691246
    endloop
  endfacet
  facet normal 0.7204184263829361 0.0 0.6935396823022703
    outer loop
      vertex 0.4509864550277492 2.4601712085509093 0.2170016513669128
      vertex 0.2255747126436782 2.1706129379986616 0.4511494252873563
      vertex 0.4509864550277492 1.988606698217354 0.2170016513669128
    endloop
  endfacet
  facet normal -0.7204184263829362 0.0 0.6935396823022704
    outer loop
      vertex 0.00016297025960712802 2.8241836881135263 0.21700165136691268
      vertex 0.2255747126436782 2.642177448332218 0.4511494252873563
      vertex 0.2255747126436782 3.1137419586657726 0.4511494252873563
    endloop
  endfacet
  facet normal 0.7204184263829365 0.0 0.69353968230227
    outer loop
      vertex 0.4509864550277492 2.931735718884467 0.2170016513669126
      vertex 0.2255747126436782 3.1137419586657726 0.4511494252873563
      vertex 0.2255747126436782 2.642177448332218 0.4511494252873563
    endloop
  endfacet
  facet normal -0.7204184263829362 -3.265655947003129e-16 0.6935396823022701
    outer loop
      vertex 0.00016297025960712802 2.352619177779971 0.21700165136691246
      vertex 0.2255747126436782 2.642177448332218 0.4511494252873563
      vertex 0.00016297025960712802 2.8241836881135263 0.21700165136691268
    endloop
  endfacet
  facet normal 0.7204184263829362 2.857448953627724e-16 0.6935396823022701
    outer loop
      vertex 0.4509864550277492 2.931735718884467 0.2170016513669126
      vertex 0.2255747126436782 2.642177448332218 0.4511494252873563
      vertex 0.4509864550277492 2.4601712085509093 0.2170016513669128
    endloop
  endfacet
  facet normal -0.7204184263829367 0.0 0.6935396823022697
    outer loop
      vertex 0.00016297025960712802 3.2957481984470833 0.21700165136691227
      vertex 0.2255747126436782 3.1137419586657726 0.4511494252873563
      vertex 0.2255747126436782 3.58530646899933 0.4511494252873563
    endloop
  endfacet
  facet normal 0.720577812908062 0.0 0.693374080525537
    outer loop
      vertex 0.45098249028775894 3.4033214173652344 0.2168980334497343
      vertex 0.2255747126436782 3.58530646899933 0.4511494252873563
      vertex 0.2255747126436782 3.1137419586657726 0.4511494252873563
    endloop
  endfacet
  facet normal -0.7204184263829364 6.12310490063084e-16 0.6935396823022698
    outer loop
      vertex 0.00016297025960712802 2.8241836881135263 0.21700165136691268
      vertex 0.2255747126436782 3.1137419586657726 0.4511494252873563
      vertex 0.00016297025960712802 3.2957481984470833 0.21700165136691227
    endloop
  endfacet
  facet normal 0.7204799446729707 0.0001584293784665166 0.6934757560464281
    outer loop
      vertex 0.45098249028775894 3.4033214173652344 0.2168980334497343
      vertex 0.2255747126436782 3.1137419586657726 0.4511494252873563
      vertex 0.4509864550277492 2.931735718884467 0.2170016513669126
    endloop
  endfacet
  facet normal -0.7502621140142668 0.0 0.6611404996480275
    outer loop
      vertex 0.00179166373149053 3.772953920701172 0.19720046368721372
      vertex 0.2255747126436782 3.58530646899933 0.4511494252873563
      vertex 0.2255747126436782 4.056870979332888 0.4511494252873563
    endloop
  endfacet
  facet normal 0.7285595905007937 0.0 0.6849824253871889
    outer loop
      vertex 0.45072106582882737 3.8764680717900126 0.21167972679604197
      vertex 0.2255747126436782 4.056870979332888 0.4511494252873563
      vertex 0.2255747126436782 3.58530646899933 0.4511494252873563
    endloop
  endfacet
  facet normal -0.7386412461772546 0.030463462941093807 0.6734100436371209
    outer loop
      vertex 0.00016297025960712802 3.2957481984470833 0.21700165136691227
      vertex 0.2255747126436782 3.58530646899933 0.4511494252873563
      vertex 0.00179166373149053 3.772953920701172 0.19720046368721372
    endloop
  endfacet
  facet normal 0.7236569531023825 0.00801105679004815 0.69011335097626
    outer loop
      vertex 0.45072106582882737 3.8764680717900126 0.21167972679604197
      vertex 0.2255747126436782 3.58530646899933 0.4511494252873563
      vertex 0.45098249028775894 3.4033214173652344 0.2168980334497343
    endloop
  endfacet
  facet normal 0.6855596116240756 -0.0 0.7280164963171141
    outer loop
      vertex 0.2255747126436782 4.056870979332888 0.4511494252873563
      vertex 0.4507428072297693 4.513373291539755 0.2391128131288676
      vertex 0.2255747126436782 4.528435489666444 0.4511494252873563
    endloop
  endfacet
  facet normal -0.9168217063173439 0.0 0.3992968304724618
    outer loop
      vertex 0.06041612578673412 4.225542890925733 0.07193034349304757
      vertex 0.2255747126436782 4.056870979332888 0.4511494252873563
      vertex 0.2255747126436782 4.528435489666444 0.4511494252873563
    endloop
  endfacet
  facet normal 0.9125314295142712 -0.35952667131101856 0.19500503266495314
    outer loop
      vertex 0.2255747126436782 4.056870979332888 0.4511494252873563
      vertex 0.3594593815396414 4.175870318009016 0.04402899823847313
      vertex 0.4507428072297693 4.513373291539755 0.2391128131288676
    endloop
  endfacet
  facet normal -0.845881809728133 0.2412349029632016 0.4756991544699163
    outer loop
      vertex 0.00179166373149053 3.772953920701172 0.19720046368721372
      vertex 0.2255747126436782 4.056870979332888 0.4511494252873563
      vertex 0.06041612578673412 4.225542890925733 0.07193034349304757
    endloop
  endfacet
  facet normal 0.792662944202752 0.46342811969558767 0.39613108280370646
    outer loop
      vertex 0.2255747126436782 4.056870979332888 0.4511494252873563
      vertex 0.45072106582882737 3.8764680717900126 0.21167972679604197
      vertex 0.3594593815396414 4.175870318009016 0.04402899823847313
    endloop
  endfacet
  facet normal -0.9187807248994091 0.00681150713209253 0.3947094918087296
    outer loop
      vertex 0.2255747126436782 4.528435489666444 0.4511494252873563
      vertex 0.0626767773797061 4.669245351527208 0.06953557117265895
      vertex 0.06041612578673412 4.225542890925733 0.07193034349304757
    endloop
  endfacet
  facet normal -0.8577117883879837 -0.47780422233738284 0.1898252174418762
    outer loop
      vertex 0.0626767773797061 4.669245351527208 0.06953557117265895
      vertex 0.2255747126436782 4.528435489666444 0.4511494252873563
      vertex 0.008141478981246937 4.852994045868053 0.2856308520748518
    endloop
  endfacet
  facet normal 0.6678349674093168 -0.18073482703722227 0.722032809920174
    outer loop
      vertex 0.4144467486323484 4.817888762297646 0.3489088320339443
      vertex 0.2255747126436782 4.528435489666444 0.4511494252873563
      vertex 0.4507428072297693 4.513373291539755 0.2391128131288676
    endloop
  endfacet
  facet normal 0.9739058805169046 0.045776973058877235 0.2222876618981793
    outer loop
      vertex 0.4144467486323484 4.817888762297646 0.3489088320339443
      vertex 0.4454937962823943 5.0 0.1753796169092805
      vertex 0.4019361246371847 5.0 0.36621824553422605
    endloop
  endfacet
  facet normal 0.7802954182100141 0.06265412845132087 -0.6222648314893462
    outer loop
      vertex 0.35440131581832235 4.793938007309406 0.04040544602861396
      vertex 0.3234479124158872 5.0 0.022338919165690543
      vertex 0.4454937962823943 5.0 0.1753796169092805
    endloop
  endfacet
  facet normal 0.937254723362644 -0.3106328302348848 -0.15830612216423817
    outer loop
      vertex 0.4144467486323484 4.817888762297646 0.3489088320339443
      vertex 0.35440131581832235 4.793938007309406 0.04040544602861396
      vertex 0.4454937962823943 5.0 0.1753796169092805
    endloop
  endfacet
  facet normal 7.768842735683261e-15 -0.08734015546627309 -0.9961785468695495
    outer loop
      vertex 0.3234479124158872 5.0 0.022338919165690543
      vertex 0.35440131581832235 4.793938007309406 0.04040544602861396
      vertex 0.12770151287147227 5.0 0.022338919165689017
    endloop
  endfacet
  facet normal -0.7046123628819855 -0.4333347545798101 -0.5619096088759479
    outer loop
      vertex 0.12770151287147227 5.0 0.022338919165689017
      vertex 0.008141478981246937 4.852994045868053 0.2856308520748518
      vertex 0.005655629004962838 5.0 0.1753796169092769
    endloop
  endfacet
  facet normal -0.04201320315383448 -0.13303870476194507 -0.9902199724283582
    outer loop
      vertex 0.0626767773797061 4.669245351527208 0.06953557117265895
      vertex 0.12770151287147227 5.0 0.022338919165689017
      vertex 0.35440131581832235 4.793938007309406 0.04040544602861396
    endloop
  endfacet
  facet normal -0.9282814332921118 0.1329371659577631 -0.34730575939978464
    outer loop
      vertex 0.008141478981246937 4.852994045868053 0.2856308520748518
      vertex 0.12770151287147227 5.0 0.022338919165689017
      vertex 0.0626767773797061 4.669245351527208 0.06953557117265895
    endloop
  endfacet
  facet normal -0.9640850195685217 0.14872720850114815 0.22004611447380548
    outer loop
      vertex 0.005655629004962838 5.0 0.1753796169092769
      vertex 0.008141478981246937 4.852994045868053 0.2856308520748518
      vertex 0.049213300650170544 5.0 0.36621824553422466
    endloop
  endfacet
  facet normal 0.5191181743212014 0.17233005620812814 0.8371491341551551
    outer loop
      vertex 0.2893019440879571 0.2614526563633392 0.4419605031977719
      vertex 0.38216342051069724 0.244122089953906 0.38794443750892305
      vertex 0.43716443127697374 0.48736814860535205 0.30376513375113084
    endloop
  endfacet
  facet normal -0.6387464837806187 -0.012220923708949621 -0.7693202054291799
    outer loop
      vertex 0.04429833535079047 0.3412572654139969 0.09132559339202491
      vertex 0.13308710862301007 0.2011548643347641 0.019832168958812027
      vertex 0.039158992281382636 0.1545571547343146 0.09855845310937913
    endloop
  endfacet
  facet normal 0.6975920187847439 -0.08393795876080641 -0.7115615183572637
    outer loop
      vertex 0.3180623442274346 0.20115310907704145 0.019832181851455223
      vertex 0.40970191713876736 0.3233066105065805 0.0952630725300583
      vertex 0.4321539730342421 0.173284577907598 0.13497140055871304
    endloop
  endfacet
  facet normal -0.16740517015419012 0.1645651765704336 -0.9720564858412235
    outer loop
      vertex 0.0626767773797061 4.669245351527208 0.06953557117265895
      vertex 0.35440131581832235 4.793938007309406 0.04040544602861396
      vertex 0.25451618834962303 4.464673674612528 0.0018643151020346657
    endloop
  endfacet
  facet normal -0.33585396481465596 -0.0033725449261051473 -0.9419080317414207
    outer loop
      vertex 0.0626767773797061 4.669245351527208 0.06953557117265895
      vertex 0.25451618834962303 4.464673674612528 0.0018643151020346657
      vertex 0.06041612578673412 4.225542890925733 0.07193034349304757
    endloop
  endfacet
  facet normal 0.776408250286129 -0.16431145396199373 -0.6084340350313477
    outer loop
      vertex 0.4507428072297693 4.513373291539755 0.2391128131288676
      vertex 0.25451618834962303 4.464673674612528 0.0018643151020346657
      vertex 0.35440131581832235 4.793938007309406 0.04040544602861396
    endloop
  endfacet
  facet normal 0.7408639371956676 0.17451731643797547 -0.6485864112253829
    outer loop
      vertex 0.25451618834962303 4.464673674612528 0.0018643151020346657
      vertex 0.4507428072297693 4.513373291539755 0.2391128131288676
      vertex 0.3594593815396414 4.175870318009016 0.04402899823847313
    endloop
  endfacet
  facet normal -0.12195514688306718 -0.18663824454517947 -0.9748297840247924
    outer loop
      vertex 0.06041612578673412 4.225542890925733 0.07193034349304757
      vertex 0.25451618834962303 4.464673674612528 0.0018643151020346657
      vertex 0.3594593815396414 4.175870318009016 0.04402899823847313
    endloop
  endfacet
  facet normal 0.9613804934915842 0.1872997648637276 -0.20165898149071002
    outer loop
      vertex 0.4507428072297693 4.513373291539755 0.2391128131288676
      vertex 0.35440131581832235 4.793938007309406 0.04040544602861396
      vertex 0.4144467486323484 4.817888762297646 0.3489088320339443
    endloop
  endfacet
  facet normal -0.132167248322754 0.24811335554965847 -0.9596726427635
    outer loop
      vertex 0.03258193737284002 0.8547476311467207 0.10879397931177218
      vertex 0.3511581959624507 0.7513649851465496 0.03819077602743144
      vertex 0.1550275733905186 0.5429376490044678 0.01131540216342556
    endloop
  endfacet
  facet normal -0.7969206576399609 -0.12841158030249594 -0.5902778426054192
    outer loop
      vertex 0.03258193737284002 0.8547476311467207 0.10879397931177218
      vertex 0.1550275733905186 0.5429376490044678 0.01131540216342556
      vertex 0.0 0.5201371523290153 0.2255747126437931
    endloop
  endfacet
  facet normal -0.14586784288048568 0.2106390292515677 -0.9666197658693676
    outer loop
      vertex 0.3511581959624507 0.7513649851465496 0.03819077602743144
      vertex 0.03258193737284002 0.8547476311467207 0.10879397931177218
      vertex 0.4137683401105545 1.08390726494136 0.10120787797648673
    endloop
  endfacet
  facet normal 0.14911490348585132 -0.27943881503084833 -0.9485139399147282
    outer loop
      vertex 0.03258193737284002 0.8547476311467207 0.10879397931177218
      vertex 0.18501299885952657 1.2928932208291253 0.003676766823599543
      vertex 0.4137683401105545 1.08390726494136 0.10120787797648673
    endloop
  endfacet
  facet normal -0.8925850654507672 0.21551618818748075 -0.39603620233936715
    outer loop
      vertex 0.18501299885952657 1.2928932208291253 0.003676766823599543
      vertex 0.03258193737284002 0.8547476311467207 0.10879397931177218
      vertex 0.028770127370001276 1.2561298017645262 0.33581039742648344
    endloop
  endfacet
  facet normal 0.074639862495034 0.058128998683175885 -0.9955148971455995
    outer loop
      vertex 0.3511581959624507 0.7513649851465496 0.03819077602743144
      vertex 0.3182513044992121 0.4806666739269932 0.01991722966209358
      vertex 0.1550275733905186 0.5429376490044678 0.01131540216342556
    endloop
  endfacet
  facet normal -0.8013930923691966 0.21920943946861993 -0.5565216376303708
    outer loop
      vertex 0.04429833535079047 0.3412572654139969 0.09132559339202491
      vertex 0.0 0.5201371523290153 0.2255747126437931
      vertex 0.1550275733905186 0.5429376490044678 0.01131540216342556
    endloop
  endfacet
  facet normal 0.9196435128096324 -0.0859239031655294 -0.38323999297041034
    outer loop
      vertex 0.3182513044992121 0.4806666739269932 0.01991722966209358
      vertex 0.3511581959624507 0.7513649851465496 0.03819077602743144
      vertex 0.43716443127697374 0.48736814860535205 0.30376513375113084
    endloop
  endfacet
  facet normal 0.4874217497854108 0.1306196527567809 -0.863341499147253
    outer loop
      vertex 0.18501299885952657 1.2928932208291253 0.003676766823599543
      vertex 0.4465692125860497 1.484595782389797 0.1803488132109512
      vertex 0.4137683401105545 1.08390726494136 0.10120787797648673
    endloop
  endfacet
  facet normal 0.8412740455737567 -0.03567495772550183 0.5394305123324488
    outer loop
      vertex 0.3710192733724977 0.13334355106544288 0.39799811806962004
      vertex 0.44017678287253087 0.2078788499546299 0.2950722121509881
      vertex 0.38216342051069724 0.244122089953906 0.38794443750892305
    endloop
  endfacet
  facet normal 0.8468025497238431 -0.007415355953701457 0.5318556705322208
    outer loop
      vertex 0.44017678287253087 0.2078788499546299 0.2950722121509881
      vertex 0.43716443127697374 0.48736814860535205 0.30376513375113084
      vertex 0.38216342051069724 0.244122089953906 0.38794443750892305
    endloop
  endfacet
  facet normal 0.9946312506415328 0.007510068791320318 0.10320985473301394
    outer loop
      vertex 0.44017678287253087 0.2078788499546299 0.2950722121509881
      vertex 0.44951910541809903 0.29771752996249207 0.1985033268429131
      vertex 0.43716443127697374 0.48736814860535205 0.30376513375113084
    endloop
  endfacet
  facet normal 0.9861564380921227 0.14484647371081738 -0.08071541775273616
    outer loop
      vertex 0.44017678287253087 0.2078788499546299 0.2950722121509881
      vertex 0.4510337802213611 0.09925848692554677 0.2327968889970904
      vertex 0.4321539730342421 0.173284577907598 0.13497140055871304
    endloop
  endfacet
  facet normal 0.9916492116486623 -0.12703171398589824 -0.022243755941641515
    outer loop
      vertex 0.44951910541809903 0.29771752996249207 0.1985033268429131
      vertex 0.44017678287253087 0.2078788499546299 0.2950722121509881
      vertex 0.4321539730342421 0.173284577907598 0.13497140055871304
    endloop
  endfacet
  facet normal -0.9051798462234303 0.08537160552346876 -0.41636658722965825
    outer loop
      vertex 0.028770127370001276 1.2561298017645262 0.33581039742648344
      vertex 0.22500946396051885 1.6990400413765794 7.082056575114315e-07
      vertex 0.18501299885952657 1.2928932208291253 0.003676766823599543
    endloop
  endfacet
  facet normal -0.6942895030917673 0.0008311260843100375 -0.7196953488289464
    outer loop
      vertex 0.00015832633030761335 1.8810793262573455 0.21712463775056182
      vertex 0.2255747126436782 2.170612937998662 0.0
      vertex 0.22500946396051885 1.6990400413765794 7.082056575114315e-07
    endloop
  endfacet
  facet normal 0.591049420374356 -0.0654820824920694 -0.8039730589687938
    outer loop
      vertex 0.22500946396051885 1.6990400413765794 7.082056575114315e-07
      vertex 0.4465692125860497 1.484595782389797 0.1803488132109512
      vertex 0.18501299885952657 1.2928932208291253 0.003676766823599543
    endloop
  endfacet
  facet normal 0.6585439421199435 0.04883964059214368 -0.7509557682073923
    outer loop
      vertex 0.22500946396051885 1.6990400413765794 7.082056575114315e-07
      vertex 0.4509864550277492 1.988606698217354 0.2170016513669128
      vertex 0.4465692125860497 1.484595782389797 0.1803488132109512
    endloop
  endfacet
  facet normal 0.6931907122191566 -0.0008319722824238283 -0.7207537334729665
    outer loop
      vertex 0.2255747126436782 2.170612937998662 0.0
      vertex 0.4509864550277492 1.988606698217354 0.2170016513669128
      vertex 0.22500946396051885 1.6990400413765794 7.082056575114315e-07
    endloop
  endfacet
  facet normal -0.6936155378147021 -0.00018104847408441697 -0.7203453705851601
    outer loop
      vertex 0.2255747126436782 2.170612937998662 0.0
      vertex 0.00015832633030761335 1.8810793262573455 0.21712463775056182
      vertex 0.00016297025960712802 2.352619177779971 0.21700165136691246
    endloop
  endfacet
  facet normal -0.06047618133755238 0.18669829772591176 -0.9805541173831632
    outer loop
      vertex 0.06041612578673412 4.225542890925733 0.07193034349304757
      vertex 0.3594593815396414 4.175870318009016 0.04402899823847313
      vertex 0.1751623189684762 3.91489308783989 0.00570533881409172
    endloop
  endfacet
  facet normal -0.6967305808189032 -0.10611454911097305 -0.7094407658280772
    outer loop
      vertex 0.1751623189684762 3.91489308783989 0.00570533881409172
      vertex 0.00179166373149053 3.772953920701172 0.19720046368721372
      vertex 0.06041612578673412 4.225542890925733 0.07193034349304757
    endloop
  endfacet
  facet normal 0.5511378418982621 -0.2734377955548754 -0.7883392995340373
    outer loop
      vertex 0.45072106582882737 3.8764680717900126 0.21167972679604197
      vertex 0.1751623189684762 3.91489308783989 0.00570533881409172
      vertex 0.3594593815396414 4.175870318009016 0.04402899823847313
    endloop
  endfacet
  facet normal -0.702850051454319 -0.09296805456476069 -0.7052366595697538
    outer loop
      vertex 0.226726679748288 3.568317330018092 2.9414575036508434e-06
      vertex 0.00179166373149053 3.772953920701172 0.19720046368721372
      vertex 0.1751623189684762 3.91489308783989 0.00570533881409172
    endloop
  endfacet
  facet normal 0.6046961998999408 0.10296268838972011 -0.789772872809729
    outer loop
      vertex 0.45072106582882737 3.8764680717900126 0.21167972679604197
      vertex 0.226726679748288 3.568317330018092 2.9414575036508434e-06
      vertex 0.1751623189684762 3.91489308783989 0.00570533881409172
    endloop
  endfacet
  facet normal -0.9873998992762404 0.02110469360978314 -0.15683121760959287
    outer loop
      vertex 0.00993826772052763 0.22338943610739814 0.29179309834722006
      vertex 0.04429833535079047 0.3412572654139969 0.09132559339202491
      vertex 0.039158992281382636 0.1545571547343146 0.09855845310937913
    endloop
  endfacet
  facet normal -0.9734945417066504 -0.08038297798056968 -0.21411901858156857
    outer loop
      vertex 0.0 0.5201371523290153 0.2255747126437931
      vertex 0.04429833535079047 0.3412572654139969 0.09132559339202491
      vertex 0.00993826772052763 0.22338943610739814 0.29179309834722006
    endloop
  endfacet
  facet normal 0.8688633003171012 0.3269631209427747 -0.37171451801810945
    outer loop
      vertex 0.43716443127697374 0.48736814860535205 0.30376513375113084
      vertex 0.40970191713876736 0.3233066105065805 0.0952630725300583
      vertex 0.3182513044992121 0.4806666739269932 0.01991722966209358
    endloop
  endfacet
  facet normal 0.9261791654460871 0.22732189768831826 -0.3008602804043289
    outer loop
      vertex 0.44951910541809903 0.29771752996249207 0.1985033268429131
      vertex 0.40970191713876736 0.3233066105065805 0.0952630725300583
      vertex 0.43716443127697374 0.48736814860535205 0.30376513375113084
    endloop
  endfacet
  facet normal 0.9358626860732453 0.047651340299406104 -0.3491280317926942
    outer loop
      vertex 0.40970191713876736 0.3233066105065805 0.0952630725300583
      vertex 0.44951910541809903 0.29771752996249207 0.1985033268429131
      vertex 0.4321539730342421 0.173284577907598 0.13497140055871304
    endloop
  endfacet
  facet normal -0.6734188143638977 -0.028353988928440304 -0.7387172339756047
    outer loop
      vertex 0.226726679748288 3.568317330018092 2.9414575036508434e-06
      vertex 0.00016297025960712802 3.2957481984470833 0.21700165136691227
      vertex 0.00179166373149053 3.772953920701172 0.19720046368721372
    endloop
  endfacet
  facet normal 0.6923063931151981 -0.007575570635413141 -0.7215639048493022
    outer loop
      vertex 0.226726679748288 3.568317330018092 2.9414575036508434e-06
      vertex 0.45072106582882737 3.8764680717900126 0.21167972679604197
      vertex 0.45098249028775894 3.4033214173652344 0.2168980334497343
    endloop
  endfacet
  facet normal -0.6928005530919006 0.0017603342863851661 -0.7211271003496934
    outer loop
      vertex 0.2255747126436782 3.1137419586657753 0.0
      vertex 0.00016297025960712802 3.2957481984470833 0.21700165136691227
      vertex 0.226726679748288 3.568317330018092 2.9414575036508434e-06
    endloop
  endfacet
  facet normal 0.694543061254156 -0.0017554284304599891 -0.7194489936991582
    outer loop
      vertex 0.45098249028775894 3.4033214173652344 0.2168980334497343
      vertex 0.2255747126436782 3.1137419586657753 0.0
      vertex 0.226726679748288 3.568317330018092 2.9414575036508434e-06
    endloop
  endfacet
  facet normal -0.6935396823022696 -6.583933660477703e-16 -0.7204184263829366
    outer loop
      vertex 0.2255747126436782 3.1137419586657753 0.0
      vertex 0.00016297025960712802 2.8241836881135263 0.21700165136691268
      vertex 0.00016297025960712802 3.2957481984470833 0.21700165136691227
    endloop
  endfacet
  facet normal 0.6934757747419714 -0.00015247531593839036 -0.7204799279628132
    outer loop
      vertex 0.2255747126436782 3.1137419586657753 0.0
      vertex 0.45098249028775894 3.4033214173652344 0.2168980334497343
      vertex 0.4509864550277492 2.931735718884467 0.2170016513669126
    endloop
  endfacet
  facet normal -0.6935396823022703 2.857448953627724e-16 -0.7204184263829362
    outer loop
      vertex 0.225574712643678 2.642177448332218 0.0
      vertex 0.00016297025960712802 2.8241836881135263 0.21700165136691268
      vertex 0.2255747126436782 3.1137419586657753 0.0
    endloop
  endfacet
  facet normal 0.69353968230227 -2.8216858544904415e-16 -0.7204184263829365
    outer loop
      vertex 0.4509864550277492 2.931735718884467 0.2170016513669126
      vertex 0.225574712643678 2.642177448332218 0.0
      vertex 0.2255747126436782 3.1137419586657753 0.0
    endloop
  endfacet
  facet normal -0.6935396823022703 3.2919668302388643e-16 -0.7204184263829361
    outer loop
      vertex 0.225574712643678 2.642177448332218 0.0
      vertex 0.00016297025960712802 2.352619177779971 0.21700165136691246
      vertex 0.00016297025960712802 2.8241836881135263 0.21700165136691268
    endloop
  endfacet
  facet normal 0.6935396823022699 -2.821685854490439e-16 -0.7204184263829365
    outer loop
      vertex 0.225574712643678 2.642177448332218 0.0
      vertex 0.4509864550277492 2.931735718884467 0.2170016513669126
      vertex 0.4509864550277492 2.4601712085509093 0.2170016513669128
    endloop
  endfacet
  facet normal -0.6935396823022698 -2.8574489536277336e-16 -0.7204184263829366
    outer loop
      vertex 0.2255747126436782 2.170612937998662 0.0
      vertex 0.00016297025960712802 2.352619177779971 0.21700165136691246
      vertex 0.225574712643678 2.642177448332218 0.0
    endloop
  endfacet
  facet normal 0.6935396823022701 2.82168585449045e-16 -0.7204184263829362
    outer loop
      vertex 0.4509864550277492 2.4601712085509093 0.2170016513669128
      vertex 0.2255747126436782 2.170612937998662 0.0
      vertex 0.225574712643678 2.642177448332218 0.0
    endloop
  endfacet
  facet normal 0.6935396823022705 0.0 -0.7204184263829361
    outer loop
      vertex 0.2255747126436782 2.170612937998662 0.0
      vertex 0.4509864550277492 2.4601712085509093 0.2170016513669128
      vertex 0.4509864550277492 1.988606698217354 0.2170016513669128
    endloop
  endfacet
  facet normal 0.9231404112721248 -0.37749717117333004 0.07285373588544397
    outer loop
      vertex 0.17474818600362219 0.1503801621261969 0.031364887986067014
      vertex 0.2255747126436783 0.2729885057471264 0.02263894113982555
      vertex 0.21790769086401296 0.27257820280969297 0.11766288681081935
    endloop
  endfacet
  facet normal -0.37765874994102 -0.9253031435547381 -0.034466811873248036
    outer loop
      vertex 0.2255747126436783 0.2729885057471264 0.02263894113982555
      vertex 0.27640101648192195 0.2519189246310481 0.03136476322981928
      vertex 0.21790769086401296 0.27257820280969297 0.11766288681081935
    endloop
  endfacet
  facet normal -0.38690685560118665 0.8948632390354254 0.22253734183689206
    outer loop
      vertex 0.2974137931034483 0.20114942528735633 0.040480738120801524
      vertex 0.17474818600362219 0.1503801621261969 0.031364887986067014
      vertex 0.21587801687885644 0.12996777334986748 0.18495578464211626
    endloop
  endfacet
  facet normal -0.6683094555769282 -0.7438833723013775 0.0
    outer loop
      vertex 0.2974137931034483 0.20114942528735633 0.040480738120801524
      vertex 0.2974137931034483 0.20114942528735633 0.22557470890073836
      vertex 0.21790769086401296 0.27257820280969297 0.11766288681081935
    endloop
  endfacet
  facet normal -0.6576556830719557 0.7533186593488572 0.0
    outer loop
      vertex 0.2974137931034483 0.20114942528735633 0.22557470890073836
      vertex 0.2974137931034483 0.20114942528735633 0.040480738120801524
      vertex 0.21587801687885644 0.12996777334986748 0.18495578464211626
    endloop
  endfacet
  facet normal -0.7976849399505678 -0.40962443441481655 -0.44261332933656733
    outer loop
      vertex 0.27640101648192195 0.2519189246310481 0.03136476322981928
      vertex 0.2974137931034483 0.20114942528735633 0.040480738120801524
      vertex 0.21790769086401296 0.27257820280969297 0.11766288681081935
    endloop
  endfacet
  facet normal -0.829155059657824 0.5590186821957117 0.0
    outer loop
      vertex 0.2974137931034483 0.20114942528735633 0.41066867968067466
      vertex 0.2974137931034483 0.20114942528735633 0.22557470890073836
      vertex 0.2525140966891049 0.1345527056342208 0.321072100986127
    endloop
  endfacet
  facet normal -0.8892054205025546 -0.45750816402428834 0.0
    outer loop
      vertex 0.2974137931034483 0.20114942528735633 0.22557470890073836
      vertex 0.2974137931034483 0.20114942528735633 0.41066867968067466
      vertex 0.26733998273723064 0.25960039358830006 0.34462718112194635
    endloop
  endfacet
  facet normal -0.714874251975758 -0.6523350921851117 -0.2518208318744542
    outer loop
      vertex 0.2974137931034483 0.20114942528735633 0.41066867968067466
      vertex 0.2255744586275024 0.27298850430721444 0.4285104850133463
      vertex 0.26733998273723064 0.25960039358830006 0.34462718112194635
    endloop
  endfacet
  facet normal -0.7174379101024133 0.6810093002920813 -0.1466600765838173
    outer loop
      vertex 0.22557514678238186 0.1293103312615215 0.4285104617523352
      vertex 0.2974137931034483 0.20114942528735633 0.41066867968067466
      vertex 0.2525140966891049 0.1345527056342208 0.321072100986127
    endloop
  endfacet
  facet normal 0.8146715539131624 -0.4978156424402301 0.29747242794338824
    outer loop
      vertex 0.17474818600362219 0.1503801621261969 0.031364887986067014
      vertex 0.21790769086401296 0.27257820280969297 0.11766288681081935
      vertex 0.1554259414187359 0.21664146766194453 0.19516896805542835
    endloop
  endfacet
  facet normal 0.804536209599503 0.5774811689440478 -0.1386974655798748
    outer loop
      vertex 0.21587801687885644 0.12996777334986748 0.18495578464211626
      vertex 0.17474818600362219 0.1503801621261969 0.031364887986067014
      vertex 0.1554259414187359 0.21664146766194453 0.19516896805542835
    endloop
  endfacet
  facet normal -0.5483314183940936 -0.8241934773482954 -0.14155482153019833
    outer loop
      vertex 0.21790769086401296 0.27257820280969297 0.11766288681081935
      vertex 0.2974137931034483 0.20114942528735633 0.22557470890073836
      vertex 0.189013895416262 0.2629892193116639 0.28541805924105795
    endloop
  endfacet
  facet normal -0.3071306381871473 -0.8826633776119006 0.3557753967175171
    outer loop
      vertex 0.189013895416262 0.2629892193116639 0.28541805924105795
      vertex 0.2974137931034483 0.20114942528735633 0.22557470890073836
      vertex 0.26733998273723064 0.25960039358830006 0.34462718112194635
    endloop
  endfacet
  facet normal -0.6937062545158583 0.7015525123979625 0.16308189597158207
    outer loop
      vertex 0.2974137931034483 0.20114942528735633 0.22557470890073836
      vertex 0.21587801687885644 0.12996777334986748 0.18495578464211626
      vertex 0.2525140966891049 0.1345527056342208 0.321072100986127
    endloop
  endfacet
  facet normal 0.7172139303662002 -0.6835556830924105 -0.13548360122441125
    outer loop
      vertex 0.2255744586275024 0.27298850430721444 0.4285104850133463
      vertex 0.1537356320349202 0.2011486581055124 0.41066867974792726
      vertex 0.189013895416262 0.2629892193116639 0.28541805924105795
    endloop
  endfacet
  facet normal -0.11767376277242228 -0.9880937797865975 0.09911391376600166
    outer loop
      vertex 0.2255744586275024 0.27298850430721444 0.4285104850133463
      vertex 0.189013895416262 0.2629892193116639 0.28541805924105795
      vertex 0.26733998273723064 0.25960039358830006 0.34462718112194635
    endloop
  endfacet
  facet normal 0.7175312794487088 0.6792123820386832 -0.1543353591956069
    outer loop
      vertex 0.1537356320349202 0.2011486581055124 0.41066867974792726
      vertex 0.22557514678238186 0.1293103312615215 0.4285104617523352
      vertex 0.16199638749189274 0.16770319900995437 0.3018846681259502
    endloop
  endfacet
  facet normal 0.9578604503347758 -0.2459551375133876 0.1483557481705071
    outer loop
      vertex 0.189013895416262 0.2629892193116639 0.28541805924105795
      vertex 0.1537356320349202 0.2011486581055124 0.41066867974792726
      vertex 0.16199638749189274 0.16770319900995437 0.3018846681259502
    endloop
  endfacet
  facet normal 0.31761159135340816 0.9398792883130412 0.12549820890405855
    outer loop
      vertex 0.22557514678238186 0.1293103312615215 0.4285104617523352
      vertex 0.2525140966891049 0.1345527056342208 0.321072100986127
      vertex 0.16199638749189274 0.16770319900995437 0.3018846681259502
    endloop
  endfacet
  facet normal 0.7209763393951009 -0.6877431220097743 0.08486763906630705
    outer loop
      vertex 0.21790769086401296 0.27257820280969297 0.11766288681081935
      vertex 0.189013895416262 0.2629892193116639 0.28541805924105795
      vertex 0.1554259414187359 0.21664146766194453 0.19516896805542835
    endloop
  endfacet
  facet normal 0.9343828154490847 -0.2985366189581236 -0.19443415681020038
    outer loop
      vertex 0.189013895416262 0.2629892193116639 0.28541805924105795
      vertex 0.16199638749189274 0.16770319900995437 0.3018846681259502
      vertex 0.1554259414187359 0.21664146766194453 0.19516896805542835
    endloop
  endfacet
  facet normal 0.3650618968372695 0.9219588176815573 -0.1293126056376546
    outer loop
      vertex 0.2525140966891049 0.1345527056342208 0.321072100986127
      vertex 0.21587801687885644 0.12996777334986748 0.18495578464211626
      vertex 0.16199638749189274 0.16770319900995437 0.3018846681259502
    endloop
  endfacet
  facet normal 0.8145816915735945 0.5446239578831891 0.19960313688104106
    outer loop
      vertex 0.16199638749189274 0.16770319900995437 0.3018846681259502
      vertex 0.21587801687885644 0.12996777334986748 0.18495578464211626
      vertex 0.1554259414187359 0.21664146766194453 0.19516896805542835
    endloop
  endfacet
  facet normal -0.24852841287480706 0.865647530405827 0.4346124493111332
    outer loop
      vertex 0.28930958321574585 0.1408568780085764 0.44195825567819824
      vertex 0.22557514678238186 0.1293103312615215 0.4285104617523352
      vertex 0.22557471264367812 0.11794394605042852 0.4511494252873563
    endloop
  endfacet
  facet normal 0.5777140042056688 0.7294566253043652 0.36625068074232925
    outer loop
      vertex 0.1330870715020575 0.2011496570673974 0.4313172391838281
      vertex 0.22557471264367812 0.11794394605042852 0.4511494252873563
      vertex 0.22557514678238186 0.1293103312615215 0.4285104617523352
    endloop
  endfacet
  facet normal -0.6419096158424203 0.4194092156571249 0.6419096158423799
    outer loop
      vertex 0.31806235296076113 0.20114942528735633 0.43131723953798806
      vertex 0.307738073032105 0.2011494252873566 0.4209929596093311
      vertex 0.28930958321574585 0.1408568780085764 0.44195825567819824
    endloop
  endfacet
  facet normal -0.6419012874212722 -0.419434708165535 0.6419012874212091
    outer loop
      vertex 0.31806235296076113 0.20114942528735633 0.43131723953798806
      vertex 0.2893019440879571 0.2614526563633392 0.4419605031977719
      vertex 0.307738073032105 0.2011494252873566 0.4209929596093311
    endloop
  endfacet
  facet normal 0.5777175364078602 -0.7294611896079197 0.3662360181394389
    outer loop
      vertex 0.22557471264367823 0.28435489666443614 0.4511494252873563
      vertex 0.1330870715020575 0.2011496570673974 0.4313172391838281
      vertex 0.2255744586275024 0.27298850430721444 0.4285104850133463
    endloop
  endfacet
  facet normal -0.24843246819769488 -0.8656662085536648 0.4346301003307576
    outer loop
      vertex 0.2893019440879571 0.2614526563633392 0.4419605031977719
      vertex 0.22557471264367823 0.28435489666443614 0.4511494252873563
      vertex 0.2255744586275024 0.27298850430721444 0.4285104850133463
    endloop
  endfacet
  facet normal -0.263053492232119 0.472025876497137 0.8414240501326284
    outer loop
      vertex 0.28930958321574585 0.1408568780085764 0.44195825567819824
      vertex 0.2974137931034483 0.20114942528735633 0.41066867968067466
      vertex 0.22557514678238186 0.1293103312615215 0.4285104617523352
    endloop
  endfacet
  facet normal -0.6419096158423969 0.4194092156571257 0.6419096158424028
    outer loop
      vertex 0.307738073032105 0.2011494252873566 0.4209929596093311
      vertex 0.2974137931034483 0.20114942528735633 0.41066867968067466
      vertex 0.28930958321574585 0.1408568780085764 0.44195825567819824
    endloop
  endfacet
  facet normal -0.26303278224620935 -0.472011647620434 0.8414385063535312
    outer loop
      vertex 0.2974137931034483 0.20114942528735633 0.41066867968067466
      vertex 0.2893019440879571 0.2614526563633392 0.4419605031977719
      vertex 0.2255744586275024 0.27298850430721444 0.4285104850133463
    endloop
  endfacet
  facet normal -0.6419012874212259 -0.41943470816553663 0.6419012874212545
    outer loop
      vertex 0.2974137931034483 0.20114942528735633 0.41066867968067466
      vertex 0.307738073032105 0.2011494252873566 0.4209929596093311
      vertex 0.2893019440879571 0.2614526563633392 0.4419605031977719
    endloop
  endfacet
  facet normal 0.5301096003393517 -0.6617655541704828 0.5301416442249058
    outer loop
      vertex 0.2255744586275024 0.27298850430721444 0.4285104850133463
      vertex 0.1330870715020575 0.2011496570673974 0.4313172391838281
      vertex 0.1537356320349202 0.2011486581055124 0.41066867974792726
    endloop
  endfacet
  facet normal 0.5301265427768711 0.6617897040689721 0.5300945540483741
    outer loop
      vertex 0.1330870715020575 0.2011496570673974 0.4313172391838281
      vertex 0.22557514678238186 0.1293103312615215 0.4285104617523352
      vertex 0.1537356320349202 0.2011486581055124 0.41066867974792726
    endloop
  endfacet
  facet normal 0.0 1.0 0.0
    outer loop
      vertex 0.4019361246371847 5.0 0.36621824553422605
      vertex 0.2255747126436786 5.0 0.2255747126436777
      vertex 0.22557471264367815 5.0 0.4511494252873563
    endloop
  endfacet
  facet normal 0.0 1.0 0.0
    outer loop
      vertex 0.22557471264367815 5.0 0.4511494252873563
      vertex 0.2255747126436786 5.0 0.2255747126436777
      vertex 0.049213300650170544 5.0 0.36621824553422466
    endloop
  endfacet
  facet normal 0.0 1.0 0.0
    outer loop
      vertex 0.4454937962823943 5.0 0.1753796169092805
      vertex 0.2255747126436786 5.0 0.2255747126436777
      vertex 0.4019361246371847 5.0 0.36621824553422605
    endloop
  endfacet
  facet normal 0.0 1.0 -0.0
    outer loop
      vertex 0.3234479124158872 5.0 0.022338919165690543
      vertex 0.2255747126436786 5.0 0.2255747126436777
      vertex 0.4454937962823943 5.0 0.1753796169092805
    endloop
  endfacet
  facet normal 0.0 1.0 0.0
    outer loop
      vertex 0.12770151287147227 5.0 0.022338919165689017
      vertex 0.2255747126436786 5.0 0.2255747126436777
      vertex 0.3234479124158872 5.0 0.022338919165690543
    endloop
  endfacet
  facet normal -0.0 1.0 0.0
    outer loop
      vertex 0.005655629004962838 5.0 0.1753796169092769
      vertex 0.2255747126436786 5.0 0.2255747126436777
      vertex 0.12770151287147227 5.0 0.022338919165689017
    endloop
  endfacet
  facet normal 0.0 1.0 0.0
    outer loop
      vertex 0.049213300650170544 5.0 0.36621824553422466
      vertex 0.2255747126436786 5.0 0.2255747126436777
      vertex 0.005655629004962838 5.0 0.1753796169092769
    endloop
  endfacet
  facet normal 0.577688086654996 -0.7294772219846252 -0.3662505387606738
    outer loop
      vertex 0.22557471264367912 0.2843548981985247 0.0
      vertex 0.22557471264367848 0.2786717019728256 0.011319470569912754
      vertex 0.13308710862301007 0.2011548643347641 0.019832168958812027
    endloop
  endfacet
  facet normal -0.65691962146977 -0.6323737304552607 0.41056068486657504
    outer loop
      vertex 0.22557471264367912 0.2843548981985247 0.0
      vertex 0.3180623442274346 0.20115310907704145 0.019832181851455223
      vertex 0.27640101648192195 0.2519189246310481 0.03136476322981928
    endloop
  endfacet
  facet normal -0.28156551813989916 -0.8575283506466945 -0.43054150419183734
    outer loop
      vertex 0.22557471264367912 0.2843548981985247 0.0
      vertex 0.27640101648192195 0.2519189246310481 0.03136476322981928
      vertex 0.22557471264367848 0.2786717019728256 0.011319470569912754
    endloop
  endfacet
  facet normal 0.12435745876497095 -0.12163582130875372 -0.9847537506524479
    outer loop
      vertex 0.2255747126436783 0.2729885057471264 0.02263894113982555
      vertex 0.17474818600362219 0.1503801621261969 0.031364887986067014
      vertex 0.13308710862301007 0.2011548643347641 0.019832168958812027
    endloop
  endfacet
  facet normal 0.5776880866549893 -0.7294772219846195 -0.3662505387606958
    outer loop
      vertex 0.2255747126436783 0.2729885057471264 0.02263894113982555
      vertex 0.13308710862301007 0.2011548643347641 0.019832168958812027
      vertex 0.22557471264367848 0.2786717019728256 0.011319470569912754
    endloop
  endfacet
  facet normal -0.2815655181399032 -0.8575283506466967 -0.4305415041918301
    outer loop
      vertex 0.22557471264367848 0.2786717019728256 0.011319470569912754
      vertex 0.27640101648192195 0.2519189246310481 0.03136476322981928
      vertex 0.2255747126436783 0.2729885057471264 0.02263894113982555
    endloop
  endfacet
  facet normal -0.5115485325149767 0.6904797916567755 -0.511425220531203
    outer loop
      vertex 0.22557539538728202 0.1179439527444484 8.795570842387405e-12
      vertex 0.2974137931034483 0.20114942528735633 0.040480738120801524
      vertex 0.3180623442274346 0.20115310907704145 0.019832181851455223
    endloop
  endfacet
  facet normal -0.16299559807736885 0.5418643981811476 -0.8245091927875539
    outer loop
      vertex 0.22557539538728202 0.1179439527444484 8.795570842387405e-12
      vertex 0.17474818600362219 0.1503801621261969 0.031364887986067014
      vertex 0.2974137931034483 0.20114942528735633 0.040480738120801524
    endloop
  endfacet
  facet normal -0.6519942344574962 -0.3869331061121103 -0.6520631024897957
    outer loop
      vertex 0.27640101648192195 0.2519189246310481 0.03136476322981928
      vertex 0.3180623442274346 0.20115310907704145 0.019832181851455223
      vertex 0.2974137931034483 0.20114942528735633 0.040480738120801524
    endloop
  endfacet
  facet normal 0.6569283761767611 0.6322931224595288 0.4106708120431048
    outer loop
      vertex 0.22557539538728202 0.1179439527444484 8.795570842387405e-12
      vertex 0.13308710862301007 0.2011548643347641 0.019832168958812027
      vertex 0.17474818600362219 0.1503801621261969 0.031364887986067014
    endloop
  endfacet
  facet normal -0.0 -1.0 0.0
    outer loop
      vertex 0.4019361246371847 0.0 0.36621824553422605
      vertex 0.22557471264367815 0.0 0.4511494252873563
      vertex 0.2255747126436786 0.0 0.2255747126436777
    endloop
  endfacet
  facet normal 0.0 -1.0 -0.0
    outer loop
      vertex 0.22557471264367815 0.0 0.4511494252873563
      vertex 0.049213300650170544 0.0 0.36621824553422466
      vertex 0.2255747126436786 0.0 0.2255747126436777
    endloop
  endfacet
  facet normal 0.0 -1.0 0.0
    outer loop
      vertex 0.4454937962823943 0.0 0.1753796169092805
      vertex 0.4019361246371847 0.0 0.36621824553422605
      vertex 0.2255747126436786 0.0 0.2255747126436777
    endloop
  endfacet
  facet normal 0.0 -1.0 0.0
    outer loop
      vertex 0.3234479124158872 0.0 0.022338919165690543
      vertex 0.4454937962823943 0.0 0.1753796169092805
      vertex 0.2255747126436786 0.0 0.2255747126436777
    endloop
  endfacet
  facet normal 0.0 -1.0 0.0
    outer loop
      vertex 0.12770151287147227 0.0 0.022338919165689017
      vertex 0.3234479124158872 0.0 0.022338919165690543
      vertex 0.2255747126436786 0.0 0.2255747126436777
    endloop
  endfacet
  facet normal 0.0 -1.0 0.0
    outer loop
      vertex 0.005655629004962838 0.0 0.1753796169092769
      vertex 0.12770151287147227 0.0 0.022338919165689017
      vertex 0.2255747126436786 0.0 0.2255747126436777
    endloop
  endfacet
  facet normal 0.0 -1.0 -0.0
    outer loop
      vertex 0.049213300650170544 0.0 0.36621824553422466
      vertex 0.005655629004962838 0.0 0.1753796169092769
      vertex 0.2255747126436786 0.0 0.2255747126436777
    endloop
  endfacet
endsolid abc_50_026
