solid abc_50_027
  facet normal -0.851224084858548 0.0 -0.5248023983907921
    outer loop
      vertex 0.1089521594820817 5.0 0.013857546554114187
      vertex 0.08711007961634104 4.5 0.04928517512847442
      vertex 0.08711007961634104 5.0 0.04928517512847442
    endloop
  endfacet
  facet normal -0.8512240848585478 0.0 -0.5248023983907921
    outer loop
      vertex 0.1089521594820817 0.0 0.013857546554114187
      vertex 0.08711007961634104 0.0 0.04928517512847442
      vertex 0.08711007961634104 0.5000000000000018 0.04928517512847442
    endloop
  endfacet
  facet normal -0.3329570128904234 0.0 -0.9429420064707513
    outer loop
      vertex 0.14819705370750713 4.5 0.0
      vertex 0.1089521594820817 5.0 0.013857546554114187
      vertex 0.14819705370750713 5.0 0.0
    endloop
  endfacet
  facet normal -0.3329570128904234 0.0 -0.9429420064707513
    outer loop
      vertex 0.14819705370750713 0.0 0.0
      vertex 0.1089521594820817 0.0 0.013857546554114187
      vertex 0.14819705370750713 0.5000000000000018 0.0
    endloop
  endfacet
  facet normal -0.6279183076068117 0.0 -0.7782792551341694
    outer loop
      vertex 0.14819705370750713 4.5 0.0
      vertex 0.08711007961634104 4.0 0.04928517512847442
      vertex 0.08711007961634104 4.5 0.04928517512847442
    endloop
  endfacet
  facet normal -0.627677286138977 -0.027704454889305754 -0.7779805188078268
    outer loop
      vertex 0.14819705370750713 4.5 0.0
      vertex 0.08711007961634104 4.5 0.04928517512847442
      vertex 0.1089521594820817 5.0 0.013857546554114187
    endloop
  endfacet
  facet normal -0.6279183076068117 0.0 -0.7782792551341694
    outer loop
      vertex 0.14819705370750713 4.0 0.0
      vertex 0.08711007961634104 3.5000000000000004 0.04928517512847442
      vertex 0.08711007961634104 4.0 0.04928517512847442
    endloop
  endfacet
  facet normal -0.6279183076068117 -0.0 -0.7782792551341694
    outer loop
      vertex 0.14819705370750713 4.5 0.0
      vertex 0.14819705370750713 4.0 0.0
      vertex 0.08711007961634104 4.0 0.04928517512847442
    endloop
  endfacet
  facet normal -0.6279183076068116 0.0 -0.7782792551341694
    outer loop
      vertex 0.14819705370750713 3.5000000000000004 0.0
      vertex 0.08711007961634104 3.0000000000000027 0.04928517512847442
      vertex 0.08711007961634104 3.5000000000000004 0.04928517512847442
    endloop
  endfacet
  facet normal -0.6279183076068117 0.0 -0.7782792551341694
    outer loop
      vertex 0.14819705370750713 3.5000000000000004 0.0
      vertex 0.08711007961634104 3.5000000000000004 0.04928517512847442
      vertex 0.14819705370750713 4.0 0.0
    endloop
  endfacet
  facet normal -0.6279183076068117 0.0 -0.7782792551341694
    outer loop
      vertex 0.14819705370750713 3.0000000000000027 0.0
      vertex 0.08711007961634104 2.5000000000000027 0.04928517512847442
      vertex 0.08711007961634104 3.0000000000000027 0.04928517512847442
    endloop
  endfacet
  facet normal -0.6279183076068116 -0.0 -0.7782792551341694
    outer loop
      vertex 0.14819705370750713 3.5000000000000004 0.0
      vertex 0.14819705370750713 3.0000000000000027 0.0
      vertex 0.08711007961634104 3.0000000000000027 0.04928517512847442
    endloop
  endfacet
  facet normal -0.6279183076068117 0.0 -0.7782792551341694
    outer loop
      vertex 0.14819705370750713 2.000000000000003 0.0
      vertex 0.08711007961634104 2.000000000000003 0.04928517512847442
      vertex 0.08711007961634104 2.5000000000000027 0.04928517512847442
    endloop
  endfacet
  facet normal -0.6279183076068117 -0.0 -0.7782792551341694
    outer loop
      vertex 0.14819705370750713 3.0000000000000027 0.0
      vertex 0.14819705370750713 2.5000000000000027 0.0
      vertex 0.08711007961634104 2.5000000000000027 0.04928517512847442
    endloop
  endfacet
  facet normal -0.6279183076068117 0.0 -0.7782792551341694
    outer loop
      vertex 0.14819705370750713 2.000000000000003 0.0
      vertex 0.08711007961634104 2.5000000000000027 0.04928517512847442
      vertex 0.14819705370750713 2.5000000000000027 0.0
    endloop
  endfacet
  facet normal -0.6279183076068116 0.0 -0.7782792551341693
    outer loop
      vertex 0.14819705370750713 1.5000000000000033 0.0
      vertex 0.08711007961634104 1.5000000000000033 0.04928517512847442
      vertex 0.08711007961634104 2.000000000000003 0.04928517512847442
    endloop
  endfacet
  facet normal -0.6279183076068116 0.0 -0.7782792551341693
    outer loop
      vertex 0.14819705370750713 1.5000000000000033 0.0
      vertex 0.08711007961634104 2.000000000000003 0.04928517512847442
      vertex 0.14819705370750713 2.000000000000003 0.0
    endloop
  endfacet
  facet normal -0.6279183076068118 0.0 -0.7782792551341694
    outer loop
      vertex 0.14819705370750713 1.000000000000004 0.0
      vertex 0.08711007961634104 1.000000000000004 0.04928517512847442
      vertex 0.08711007961634104 1.5000000000000033 0.04928517512847442
    endloop
  endfacet
  facet normal -0.6279183076068118 -0.0 -0.7782792551341694
    outer loop
      vertex 0.14819705370750713 1.5000000000000033 0.0
      vertex 0.14819705370750713 1.000000000000004 0.0
      vertex 0.08711007961634104 1.5000000000000033 0.04928517512847442
    endloop
  endfacet
  facet normal -0.6279183076068117 0.0 -0.7782792551341694
    outer loop
      vertex 0.14819705370750713 0.5000000000000018 0.0
      vertex 0.08711007961634104 0.5000000000000018 0.04928517512847442
      vertex 0.08711007961634104 1.000000000000004 0.04928517512847442
    endloop
  endfacet
  facet normal -0.6279183076068117 0.0 -0.7782792551341694
    outer loop
      vertex 0.14819705370750713 0.5000000000000018 0.0
      vertex 0.08711007961634104 1.000000000000004 0.04928517512847442
      vertex 0.14819705370750713 1.000000000000004 0.0
    endloop
  endfacet
  facet normal -0.627677286138977 0.027704454889305657 -0.7779805188078268
    outer loop
      vertex 0.14819705370750713 0.5000000000000018 0.0
      vertex 0.1089521594820817 0.0 0.013857546554114187
      vertex 0.08711007961634104 0.5000000000000018 0.04928517512847442
    endloop
  endfacet
  facet normal 0.33295701289041946 0.0 -0.9429420064707528
    outer loop
      vertex 0.6240915296119188 5.0 0.013857546554113925
      vertex 0.5848466353864936 4.5 0.0
      vertex 0.5848466353864936 5.0 0.0
    endloop
  endfacet
  facet normal 0.3329570128904194 0.0 -0.9429420064707527
    outer loop
      vertex 0.6240915296119188 0.0 0.013857546554113925
      vertex 0.5848466353864936 0.0 0.0
      vertex 0.5848466353864936 0.5000000000000018 0.0
    endloop
  endfacet
  facet normal 0.8512240848585442 0.0 -0.524802398390798
    outer loop
      vertex 0.64593360947766 5.0 0.04928517512847442
      vertex 0.64593360947766 4.5 0.04928517512847442
      vertex 0.6240915296119188 5.0 0.013857546554113925
    endloop
  endfacet
  facet normal 0.8512240848585443 0.0 -0.524802398390798
    outer loop
      vertex 0.64593360947766 0.0 0.04928517512847442
      vertex 0.6240915296119188 0.0 0.013857546554113925
      vertex 0.64593360947766 0.5000000000000018 0.04928517512847442
    endloop
  endfacet
  facet normal 0.6279183076068099 0.0 -0.7782792551341707
    outer loop
      vertex 0.64593360947766 4.0 0.04928517512847442
      vertex 0.5848466353864936 4.0 0.0
      vertex 0.5848466353864936 4.5 0.0
    endloop
  endfacet
  facet normal 0.6276772861389752 -0.02770445488930569 -0.7779805188078281
    outer loop
      vertex 0.64593360947766 4.5 0.04928517512847442
      vertex 0.5848466353864936 4.5 0.0
      vertex 0.6240915296119188 5.0 0.013857546554113925
    endloop
  endfacet
  facet normal 0.6279183076068099 0.0 -0.7782792551341707
    outer loop
      vertex 0.64593360947766 4.0 0.04928517512847442
      vertex 0.5848466353864936 4.5 0.0
      vertex 0.64593360947766 4.5 0.04928517512847442
    endloop
  endfacet
  facet normal 0.62791830760681 0.0 -0.7782792551341708
    outer loop
      vertex 0.64593360947766 4.0 0.04928517512847442
      vertex 0.5848466353864936 3.5000000000000004 0.0
      vertex 0.5848466353864936 4.0 0.0
    endloop
  endfacet
  facet normal 0.6279183076068099 0.0 -0.7782792551341708
    outer loop
      vertex 0.64593360947766 3.5000000000000004 0.04928517512847442
      vertex 0.5848466353864936 3.0000000000000027 0.0
      vertex 0.5848466353864936 3.5000000000000004 0.0
    endloop
  endfacet
  facet normal 0.62791830760681 0.0 -0.7782792551341708
    outer loop
      vertex 0.64593360947766 4.0 0.04928517512847442
      vertex 0.64593360947766 3.5000000000000004 0.04928517512847442
      vertex 0.5848466353864936 3.5000000000000004 0.0
    endloop
  endfacet
  facet normal 0.6279183076068099 0.0 -0.7782792551341707
    outer loop
      vertex 0.64593360947766 2.5000000000000027 0.04928517512847442
      vertex 0.5848466353864936 2.5000000000000027 0.0
      vertex 0.5848466353864936 3.0000000000000027 0.0
    endloop
  endfacet
  facet normal 0.6279183076068099 0.0 -0.7782792551341708
    outer loop
      vertex 0.64593360947766 3.5000000000000004 0.04928517512847442
      vertex 0.64593360947766 3.0000000000000027 0.04928517512847442
      vertex 0.5848466353864936 3.0000000000000027 0.0
    endloop
  endfacet
  facet normal 0.6279183076068099 0.0 -0.7782792551341707
    outer loop
      vertex 0.64593360947766 2.5000000000000027 0.04928517512847442
      vertex 0.5848466353864936 3.0000000000000027 0.0
      vertex 0.64593360947766 3.0000000000000027 0.04928517512847442
    endloop
  endfacet
  facet normal 0.62791830760681 0.0 -0.7782792551341708
    outer loop
      vertex 0.64593360947766 2.000000000000003 0.04928517512847442
      vertex 0.5848466353864936 2.000000000000003 0.0
      vertex 0.5848466353864936 2.5000000000000027 0.0
    endloop
  endfacet
  facet normal 0.62791830760681 0.0 -0.7782792551341708
    outer loop
      vertex 0.64593360947766 2.5000000000000027 0.04928517512847442
      vertex 0.64593360947766 2.000000000000003 0.04928517512847442
      vertex 0.5848466353864936 2.5000000000000027 0.0
    endloop
  endfacet
  facet normal 0.6279183076068099 0.0 -0.7782792551341707
    outer loop
      vertex 0.64593360947766 1.5000000000000033 0.04928517512847442
      vertex 0.5848466353864936 1.5000000000000033 0.0
      vertex 0.5848466353864936 2.000000000000003 0.0
    endloop
  endfacet
  facet normal 0.6279183076068099 0.0 -0.7782792551341707
    outer loop
      vertex 0.64593360947766 1.5000000000000033 0.04928517512847442
      vertex 0.5848466353864936 2.000000000000003 0.0
      vertex 0.64593360947766 2.000000000000003 0.04928517512847442
    endloop
  endfacet
  facet normal 0.62791830760681 0.0 -0.7782792551341707
    outer loop
      vertex 0.64593360947766 1.000000000000004 0.04928517512847442
      vertex 0.5848466353864936 1.000000000000004 0.0
      vertex 0.5848466353864936 1.5000000000000033 0.0
    endloop
  endfacet
  facet normal 0.62791830760681 0.0 -0.7782792551341707
    outer loop
      vertex 0.64593360947766 1.5000000000000033 0.04928517512847442
      vertex 0.64593360947766 1.000000000000004 0.04928517512847442
      vertex 0.5848466353864936 1.5000000000000033 0.0
    endloop
  endfacet
  facet normal 0.6279183076068099 0.0 -0.7782792551341707
    outer loop
      vertex 0.64593360947766 0.5000000000000018 0.04928517512847442
      vertex 0.5848466353864936 0.5000000000000018 0.0
      vertex 0.5848466353864936 1.000000000000004 0.0
    endloop
  endfacet
  facet normal 0.6279183076068099 0.0 -0.7782792551341707
    outer loop
      vertex 0.64593360947766 1.000000000000004 0.04928517512847442
      vertex 0.64593360947766 0.5000000000000018 0.04928517512847442
      vertex 0.5848466353864936 1.000000000000004 0.0
    endloop
  endfacet
  facet normal 0.6276772861389752 0.027704454889305594 -0.7779805188078281
    outer loop
      vertex 0.64593360947766 0.5000000000000018 0.04928517512847442
      vertex 0.6240915296119188 0.0 0.013857546554113925
      vertex 0.5848466353864936 0.5000000000000018 0.0
    endloop
  endfacet
  facet normal 0.0 1.0 0.0
    outer loop
      vertex 0.08711007961634104 5.0 0.04928517512847442
      vertex 0.14819705370750713 5.0 0.0
      vertex 0.1089521594820817 5.0 0.013857546554114187
    endloop
  endfacet
  facet normal -0.0 1.0 0.0
    outer loop
      vertex 0.08711007961634104 5.0 0.04928517512847442
      vertex 0.20421251025435408 5.0 0.27628073798142916
      vertex 0.14819705370750713 5.0 0.0
    endloop
  endfacet
  facet normal 0.0 1.0 0.0
    outer loop
      vertex 0.0 5.0 0.4519610507708349
      vertex 0.20421251025435408 5.0 0.27628073798142916
      vertex 0.08711007961634104 5.0 0.04928517512847442
    endloop
  endfacet
  facet normal 0.0 1.0 0.0
    outer loop
      vertex 0.14819705370750713 5.0 0.0
      vertex 0.3665218445470003 5.0 0.18907481514292518
      vertex 0.5848466353864936 5.0 0.0
    endloop
  endfacet
  facet normal 0.0 1.0 0.0
    outer loop
      vertex 0.14819705370750713 5.0 0.0
      vertex 0.20421251025435408 5.0 0.27628073798142916
      vertex 0.3665218445470003 5.0 0.18907481514292518
    endloop
  endfacet
  facet normal 0.0 1.0 -0.0
    outer loop
      vertex 0.6240915296119188 5.0 0.013857546554113925
      vertex 0.5848466353864936 5.0 0.0
      vertex 0.64593360947766 5.0 0.04928517512847442
    endloop
  endfacet
  facet normal 0.0 1.0 -0.0
    outer loop
      vertex 0.5848466353864936 5.0 0.0
      vertex 0.5486956481870294 5.0 0.21609696368054676
      vertex 0.64593360947766 5.0 0.04928517512847442
    endloop
  endfacet
  facet normal -0.0 1.0 0.0
    outer loop
      vertex 0.3665218445470003 5.0 0.18907481514292518
      vertex 0.5486956481870294 5.0 0.21609696368054676
      vertex 0.5848466353864936 5.0 0.0
    endloop
  endfacet
  facet normal 0.0 1.0 -0.0
    outer loop
      vertex 0.64593360947766 5.0 0.04928517512847442
      vertex 0.5486956481870294 5.0 0.21609696368054676
      vertex 0.7330436890940011 5.0 0.4519610507708356
    endloop
  endfacet
  facet normal 0.0 1.0 0.0
    outer loop
      vertex 0.07466712387168112 5.0 0.766719365352547
      vertex 0.34143155842019957 5.0 0.5837310803570364
      vertex 0.0 5.0 0.4519610507708349
    endloop
  endfacet
  facet normal 0.0 1.0 0.0
    outer loop
      vertex 0.34143155842019957 5.0 0.5837310803570364
      vertex 0.20421251025435408 5.0 0.27628073798142916
      vertex 0.0 5.0 0.4519610507708349
    endloop
  endfacet
  facet normal 0.0 1.0 0.0
    outer loop
      vertex 0.7330436890940011 5.0 0.4519610507708356
      vertex 0.34143155842019957 5.0 0.5837310803570364
      vertex 0.6583765652223187 5.0 0.7667193653525487
    endloop
  endfacet
  facet normal 0.0 1.0 0.0
    outer loop
      vertex 0.7330436890940011 5.0 0.4519610507708356
      vertex 0.43145288219465266 5.0 0.356781743236253
      vertex 0.34143155842019957 5.0 0.5837310803570364
    endloop
  endfacet
  facet normal 0.0 1.0 -0.0
    outer loop
      vertex 0.5486956481870294 5.0 0.21609696368054676
      vertex 0.43145288219465266 5.0 0.356781743236253
      vertex 0.7330436890940011 5.0 0.4519610507708356
    endloop
  endfacet
  facet normal 0.0 1.0 0.0
    outer loop
      vertex 0.36652184454699943 5.0 0.90625
      vertex 0.34143155842019957 5.0 0.5837310803570364
      vertex 0.07466712387168112 5.0 0.766719365352547
    endloop
  endfacet
  facet normal 0.0 1.0 0.0
    outer loop
      vertex 0.6583765652223187 5.0 0.7667193653525487
      vertex 0.34143155842019957 5.0 0.5837310803570364
      vertex 0.36652184454699943 5.0 0.90625
    endloop
  endfacet
  facet normal -0.0 1.0 0.0
    outer loop
      vertex 0.20421251025435408 5.0 0.27628073798142916
      vertex 0.43145288219465266 5.0 0.356781743236253
      vertex 0.3665218445470003 5.0 0.18907481514292518
    endloop
  endfacet
  facet normal 0.0 1.0 0.0
    outer loop
      vertex 0.3665218445470003 5.0 0.18907481514292518
      vertex 0.43145288219465266 5.0 0.356781743236253
      vertex 0.5486956481870294 5.0 0.21609696368054676
    endloop
  endfacet
  facet normal 0.0 1.0 0.0
    outer loop
      vertex 0.34143155842019957 5.0 0.5837310803570364
      vertex 0.43145288219465266 5.0 0.356781743236253
      vertex 0.20421251025435408 5.0 0.27628073798142916
    endloop
  endfacet
  facet normal -0.9773915854586644 2.9979420484988935e-15 -0.2114371979444439
    outer loop
      vertex 0.0 5.0 0.4519610507708349
      vertex 0.08711007961634104 5.0 0.04928517512847442
      vertex 0.04355503980816978 4.75 0.25062311294965456
    endloop
  endfacet
  facet normal -0.9773915854586638 -0.0 -0.21143719794444749
    outer loop
      vertex 0.08711007961634104 5.0 0.04928517512847442
      vertex 0.08711007961634104 4.5 0.04928517512847442
      vertex 0.04355503980816978 4.75 0.25062311294965456
    endloop
  endfacet
  facet normal -0.9773915854586646 -2.997942048498884e-15 -0.21143719794444393
    outer loop
      vertex 0.08711007961634104 0.0 0.04928517512847442
      vertex 0.0 0.0 0.4519610507708349
      vertex 0.04355503980816978 0.2500000000000008 0.25062311294965456
    endloop
  endfacet
  facet normal -0.9773915854586639 -0.0 -0.21143719794444749
    outer loop
      vertex 0.08711007961634104 0.5000000000000018 0.04928517512847442
      vertex 0.08711007961634104 0.0 0.04928517512847442
      vertex 0.04355503980816978 0.2500000000000008 0.25062311294965456
    endloop
  endfacet
  facet normal -0.9773915854586654 0.0 -0.2114371979444404
    outer loop
      vertex 0.0 4.5 0.4519610507708349
      vertex 0.0 5.0 0.4519610507708349
      vertex 0.04355503980816978 4.75 0.25062311294965456
    endloop
  endfacet
  facet normal -0.9773915854586653 0.0 -0.21143719794444038
    outer loop
      vertex 0.0 0.0 0.4519610507708349
      vertex 0.0 0.5000000000000018 0.4519610507708349
      vertex 0.04355503980816978 0.2500000000000008 0.25062311294965456
    endloop
  endfacet
  facet normal -0.9773915854586638 -0.0 -0.21143719794444749
    outer loop
      vertex 0.08711007961634104 4.5 0.04928517512847442
      vertex 0.08711007961634104 4.0 0.04928517512847442
      vertex 0.04355503980816978 4.25 0.25062311294965456
    endloop
  endfacet
  facet normal -0.9773915854586644 -2.9979420484988935e-15 -0.2114371979444439
    outer loop
      vertex 0.08711007961634104 4.5 0.04928517512847442
      vertex 0.0 4.5 0.4519610507708349
      vertex 0.04355503980816978 4.75 0.25062311294965456
    endloop
  endfacet
  facet normal -0.9773915854586644 2.9979420484988935e-15 -0.2114371979444439
    outer loop
      vertex 0.0 4.5 0.4519610507708349
      vertex 0.08711007961634104 4.5 0.04928517512847442
      vertex 0.04355503980816978 4.25 0.25062311294965456
    endloop
  endfacet
  facet normal -0.9773915854586637 -0.0 -0.2114371979444477
    outer loop
      vertex 0.08711007961634104 4.0 0.04928517512847442
      vertex 0.08711007961634104 3.5000000000000004 0.04928517512847442
      vertex 0.04355503980816978 3.7500000000000004 0.2506231129496543
    endloop
  endfacet
  facet normal -0.9773915854586644 -2.9979420484988935e-15 -0.2114371979444439
    outer loop
      vertex 0.08711007961634104 4.0 0.04928517512847442
      vertex 0.0 4.0 0.4519610507708349
      vertex 0.04355503980816978 4.25 0.25062311294965456
    endloop
  endfacet
  facet normal -0.9773915854586646 3.233735243324655e-15 -0.21143719794444393
    outer loop
      vertex 0.0 4.0 0.4519610507708349
      vertex 0.08711007961634104 4.0 0.04928517512847442
      vertex 0.04355503980816978 3.7500000000000004 0.2506231129496543
    endloop
  endfacet
  facet normal -0.9773915854586637 -0.0 -0.21143719794444746
    outer loop
      vertex 0.08711007961634104 3.5000000000000004 0.04928517512847442
      vertex 0.08711007961634104 3.0000000000000027 0.04928517512847442
      vertex 0.04355503980816978 3.2500000000000004 0.25062311294965456
    endloop
  endfacet
  facet normal -0.9773915854586644 -3.233735243324649e-15 -0.2114371979444439
    outer loop
      vertex 0.08711007961634104 3.5000000000000004 0.04928517512847442
      vertex 0.0 3.5000000000000004 0.4519610507708349
      vertex 0.04355503980816978 3.7500000000000004 0.2506231129496543
    endloop
  endfacet
  facet normal -0.9773915854586644 2.9979420484988935e-15 -0.2114371979444439
    outer loop
      vertex 0.0 3.5000000000000004 0.4519610507708349
      vertex 0.08711007961634104 3.5000000000000004 0.04928517512847442
      vertex 0.04355503980816978 3.2500000000000004 0.25062311294965456
    endloop
  endfacet
  facet normal -0.9773915854586638 -0.0 -0.21143719794444749
    outer loop
      vertex 0.08711007961634104 3.0000000000000027 0.04928517512847442
      vertex 0.08711007961634104 2.5000000000000027 0.04928517512847442
      vertex 0.04355503980816978 2.7500000000000027 0.25062311294965456
    endloop
  endfacet
  facet normal -0.9773915854586644 2.9979420484988935e-15 -0.2114371979444439
    outer loop
      vertex 0.0 3.0000000000000027 0.4519610507708349
      vertex 0.08711007961634104 3.0000000000000027 0.04928517512847442
      vertex 0.04355503980816978 2.7500000000000027 0.25062311294965456
    endloop
  endfacet
  facet normal -0.9773915854586646 -2.99794204849892e-15 -0.2114371979444439
    outer loop
      vertex 0.08711007961634104 3.0000000000000027 0.04928517512847442
      vertex 0.0 3.0000000000000027 0.4519610507708349
      vertex 0.04355503980816978 3.2500000000000004 0.25062311294965456
    endloop
  endfacet
  facet normal -0.9773915854586638 -0.0 -0.21143719794444746
    outer loop
      vertex 0.08711007961634104 2.5000000000000027 0.04928517512847442
      vertex 0.08711007961634104 2.000000000000003 0.04928517512847442
      vertex 0.04355503980816978 2.2500000000000027 0.25062311294965456
    endloop
  endfacet
  facet normal -0.9773915854586644 2.9979420484988935e-15 -0.2114371979444439
    outer loop
      vertex 0.0 2.5000000000000027 0.4519610507708349
      vertex 0.08711007961634104 2.5000000000000027 0.04928517512847442
      vertex 0.04355503980816978 2.2500000000000027 0.25062311294965456
    endloop
  endfacet
  facet normal -0.9773915854586644 -2.9979420484988935e-15 -0.2114371979444439
    outer loop
      vertex 0.08711007961634104 2.5000000000000027 0.04928517512847442
      vertex 0.0 2.5000000000000027 0.4519610507708349
      vertex 0.04355503980816978 2.7500000000000027 0.25062311294965456
    endloop
  endfacet
  facet normal -0.9773915854586638 -0.0 -0.21143719794444749
    outer loop
      vertex 0.08711007961634104 2.000000000000003 0.04928517512847442
      vertex 0.08711007961634104 1.5000000000000033 0.04928517512847442
      vertex 0.04355503980816978 1.750000000000003 0.25062311294965456
    endloop
  endfacet
  facet normal -0.9773915854586646 -2.997942048498899e-15 -0.21143719794444393
    outer loop
      vertex 0.08711007961634104 2.000000000000003 0.04928517512847442
      vertex 0.0 2.000000000000003 0.4519610507708349
      vertex 0.04355503980816978 2.2500000000000027 0.25062311294965456
    endloop
  endfacet
  facet normal -0.9773915854586644 2.9979420484988935e-15 -0.2114371979444439
    outer loop
      vertex 0.0 2.000000000000003 0.4519610507708349
      vertex 0.08711007961634104 2.000000000000003 0.04928517512847442
      vertex 0.04355503980816978 1.750000000000003 0.25062311294965456
    endloop
  endfacet
  facet normal -0.9773915854586639 -0.0 -0.21143719794444754
    outer loop
      vertex 0.08711007961634104 1.5000000000000033 0.04928517512847442
      vertex 0.08711007961634104 1.000000000000004 0.04928517512847442
      vertex 0.04355503980816978 1.2500000000000036 0.25062311294965456
    endloop
  endfacet
  facet normal -0.9773915854586646 -2.9979420484988963e-15 -0.2114371979444439
    outer loop
      vertex 0.08711007961634104 1.5000000000000033 0.04928517512847442
      vertex 0.0 1.5000000000000033 0.4519610507708349
      vertex 0.04355503980816978 1.750000000000003 0.25062311294965456
    endloop
  endfacet
  facet normal -0.9773915854586646 2.9979420484988963e-15 -0.2114371979444439
    outer loop
      vertex 0.0 1.5000000000000033 0.4519610507708349
      vertex 0.08711007961634104 1.5000000000000033 0.04928517512847442
      vertex 0.04355503980816978 1.2500000000000036 0.25062311294965456
    endloop
  endfacet
  facet normal -0.9773915854586638 -0.0 -0.21143719794444749
    outer loop
      vertex 0.08711007961634104 1.000000000000004 0.04928517512847442
      vertex 0.08711007961634104 0.5000000000000018 0.04928517512847442
      vertex 0.04355503980816978 0.750000000000003 0.25062311294965456
    endloop
  endfacet
  facet normal -0.9773915854586646 2.9979420484988817e-15 -0.21143719794444393
    outer loop
      vertex 0.0 1.000000000000004 0.4519610507708349
      vertex 0.08711007961634104 1.000000000000004 0.04928517512847442
      vertex 0.04355503980816978 0.750000000000003 0.25062311294965456
    endloop
  endfacet
  facet normal -0.9773915854586646 -2.997942048498899e-15 -0.21143719794444393
    outer loop
      vertex 0.08711007961634104 1.000000000000004 0.04928517512847442
      vertex 0.0 1.000000000000004 0.4519610507708349
      vertex 0.04355503980816978 1.2500000000000036 0.25062311294965456
    endloop
  endfacet
  facet normal -0.9773915854586646 -2.9979420484988793e-15 -0.21143719794444396
    outer loop
      vertex 0.08711007961634104 0.5000000000000018 0.04928517512847442
      vertex 0.0 0.5000000000000018 0.4519610507708349
      vertex 0.04355503980816978 0.750000000000003 0.25062311294965456
    endloop
  endfacet
  facet normal -0.9773915854586646 2.9979420484988817e-15 -0.21143719794444393
    outer loop
      vertex 0.0 0.5000000000000018 0.4519610507708349
      vertex 0.08711007961634104 0.5000000000000018 0.04928517512847442
      vertex 0.04355503980816978 0.2500000000000008 0.25062311294965456
    endloop
  endfacet
  facet normal -0.9773915854586654 0.0 -0.2114371979444404
    outer loop
      vertex 0.0 4.0 0.4519610507708349
      vertex 0.0 4.5 0.4519610507708349
      vertex 0.04355503980816978 4.25 0.25062311294965456
    endloop
  endfacet
  facet normal -0.9773915854586654 0.0 -0.21143719794444008
    outer loop
      vertex 0.0 3.5000000000000004 0.4519610507708349
      vertex 0.0 4.0 0.4519610507708349
      vertex 0.04355503980816978 3.7500000000000004 0.2506231129496543
    endloop
  endfacet
  facet normal -0.9773915854586653 0.0 -0.21143719794444035
    outer loop
      vertex 0.0 3.0000000000000027 0.4519610507708349
      vertex 0.0 3.5000000000000004 0.4519610507708349
      vertex 0.04355503980816978 3.2500000000000004 0.25062311294965456
    endloop
  endfacet
  facet normal -0.9773915854586654 0.0 -0.2114371979444404
    outer loop
      vertex 0.0 2.5000000000000027 0.4519610507708349
      vertex 0.0 3.0000000000000027 0.4519610507708349
      vertex 0.04355503980816978 2.7500000000000027 0.25062311294965456
    endloop
  endfacet
  facet normal -0.9773915854586652 0.0 -0.21143719794444032
    outer loop
      vertex 0.0 2.000000000000003 0.4519610507708349
      vertex 0.0 2.5000000000000027 0.4519610507708349
      vertex 0.04355503980816978 2.2500000000000027 0.25062311294965456
    endloop
  endfacet
  facet normal -0.9773915854586654 0.0 -0.21143719794444038
    outer loop
      vertex 0.0 1.5000000000000033 0.4519610507708349
      vertex 0.0 2.000000000000003 0.4519610507708349
      vertex 0.04355503980816978 1.750000000000003 0.25062311294965456
    endloop
  endfacet
  facet normal -0.9773915854586654 0.0 -0.2114371979444404
    outer loop
      vertex 0.0 1.000000000000004 0.4519610507708349
      vertex 0.0 1.5000000000000033 0.4519610507708349
      vertex 0.04355503980816978 1.2500000000000036 0.25062311294965456
    endloop
  endfacet
  facet normal -0.9773915854586654 0.0 -0.2114371979444404
    outer loop
      vertex 0.0 0.5000000000000018 0.4519610507708349
      vertex 0.0 1.000000000000004 0.4519610507708349
      vertex 0.04355503980816978 0.750000000000003 0.25062311294965456
    endloop
  endfacet
  facet normal -0.9612728032793364 0.1547748989172933 0.22803361230447577
    outer loop
      vertex 0.0 5.0 0.4519610507708349
      vertex 0.011258084659702775 4.776226535295325 0.6513027422041683
      vertex 0.07466712387168112 5.0 0.766719365352547
    endloop
  endfacet
  facet normal -0.9984090176872721 0.0 0.056386464694431926
    outer loop
      vertex 0.0 4.5 0.4519610507708349
      vertex 0.011258084659702775 4.776226535295325 0.6513027422041683
      vertex 0.0 5.0 0.4519610507708349
    endloop
  endfacet
  facet normal 0.9624701427675241 0.14670472695067557 0.22831764577314134
    outer loop
      vertex 0.6583765652223187 5.0 0.7667193653525487
      vertex 0.7313959660712112 4.752704917774038 0.6178056205103725
      vertex 0.7330436890940011 5.0 0.4519610507708356
    endloop
  endfacet
  facet normal 0.9999506481131565 -7.720933110548401e-18 0.009934854708462374
    outer loop
      vertex 0.7330436890940011 5.0 0.4519610507708356
      vertex 0.7313959660712112 4.752704917774038 0.6178056205103725
      vertex 0.7330436890940011 4.5 0.4519610507708352
    endloop
  endfacet
  facet normal -0.9999506481131565 0.0 0.009934854708460516
    outer loop
      vertex 0.0 0.0 0.4519610507708349
      vertex 0.001647723022789611 0.2472950822259631 0.6178056205103712
      vertex 0.0 0.5000000000000018 0.4519610507708349
    endloop
  endfacet
  facet normal -0.9624701427675251 -0.1467047269506738 0.22831764577313834
    outer loop
      vertex 0.07466712387168112 0.0 0.766719365352547
      vertex 0.001647723022789611 0.2472950822259631 0.6178056205103712
      vertex 0.0 0.0 0.4519610507708349
    endloop
  endfacet
  facet normal 0.9612728032790986 -0.1547748989188499 0.22803361230442226
    outer loop
      vertex 0.7330436890940011 0.0 0.4519610507708352
      vertex 0.7217856044349904 0.22377346470365297 0.6513027422021198
      vertex 0.6583765652223187 0.0 0.7667193653525487
    endloop
  endfacet
  facet normal 0.9984090176874345 0.0 0.056386464691554235
    outer loop
      vertex 0.7330436890940011 0.5000000000000018 0.4519610507708352
      vertex 0.7217856044349904 0.22377346470365297 0.6513027422021198
      vertex 0.7330436890940011 0.0 0.4519610507708352
    endloop
  endfacet
  facet normal -0.4306876685060137 0.054321715024315306 0.9008647420526963
    outer loop
      vertex 0.07466712387168112 5.0 0.766719365352547
      vertex 0.11252763324611514 4.629945442008202 0.8071339260008478
      vertex 0.36652184454699943 5.0 0.90625
    endloop
  endfacet
  facet normal -0.8506343477992006 -0.029701334838770927 0.5249181241422552
    outer loop
      vertex 0.07466712387168112 5.0 0.766719365352547
      vertex 0.011258084659702775 4.776226535295325 0.6513027422041683
      vertex 0.11252763324611514 4.629945442008202 0.8071339260008478
    endloop
  endfacet
  facet normal 0.42761239543364704 0.13091459541003841 0.8944322265997151
    outer loop
      vertex 0.36652184454699943 5.0 0.90625
      vertex 0.5282685415655084 4.722257601935969 0.8695738182623316
      vertex 0.6583765652223187 5.0 0.7667193653525487
    endloop
  endfacet
  facet normal -0.10448717945900242 -0.18976477319171342 0.9762539424679418
    outer loop
      vertex 0.36652184454699943 5.0 0.90625
      vertex 0.11252763324611514 4.629945442008202 0.8071339260008478
      vertex 0.5282685415655084 4.722257601935969 0.8695738182623316
    endloop
  endfacet
  facet normal 0.7789045337231618 -0.13835326533697462 0.6116911813293539
    outer loop
      vertex 0.5282685415655084 4.722257601935969 0.8695738182623316
      vertex 0.7313959660712112 4.752704917774038 0.6178056205103725
      vertex 0.6583765652223187 5.0 0.7667193653525487
    endloop
  endfacet
  facet normal -0.8829899638184621 0.0 0.46939186592427334
    outer loop
      vertex 0.0 4.0 0.4519610507708349
      vertex 0.22723609356021823 4.251360448907127 0.8794230598022313
      vertex 0.0 4.5 0.4519610507708349
    endloop
  endfacet
  facet normal -0.9086488454914634 -0.20595582791482014 0.3632347347583261
    outer loop
      vertex 0.22723609356021823 4.251360448907127 0.8794230598022313
      vertex 0.11252763324611514 4.629945442008202 0.8071339260008478
      vertex 0.0 4.5 0.4519610507708349
    endloop
  endfacet
  facet normal -0.9004054575032311 -0.22986155160539767 0.36936929920061856
    outer loop
      vertex 0.11252763324611514 4.629945442008202 0.8071339260008478
      vertex 0.011258084659702775 4.776226535295325 0.6513027422041683
      vertex 0.0 4.5 0.4519610507708349
    endloop
  endfacet
  facet normal -0.9382034408569728 0.0 0.34608424344967903
    outer loop
      vertex 0.0 3.5000000000000004 0.4519610507708349
      vertex 0.13928963311527934 3.7500000000000004 0.8295627923637362
      vertex 0.0 4.0 0.4519610507708349
    endloop
  endfacet
  facet normal -0.9038705590778997 0.11764814858140618 0.4113112271353314
    outer loop
      vertex 0.0 4.0 0.4519610507708349
      vertex 0.13928963311527934 3.7500000000000004 0.8295627923637362
      vertex 0.22723609356021823 4.251360448907127 0.8794230598022313
    endloop
  endfacet
  facet normal -0.9201102109043192 0.0 0.3916595457659741
    outer loop
      vertex 0.0 3.0000000000000027 0.4519610507708349
      vertex 0.16959355813408503 3.2500000000000004 0.8503804592333248
      vertex 0.0 3.5000000000000004 0.4519610507708349
    endloop
  endfacet
  facet normal -0.9283284127717085 -0.04087945293105635 0.36950673656757305
    outer loop
      vertex 0.16959355813408503 3.2500000000000004 0.8503804592333248
      vertex 0.13928963311527934 3.7500000000000004 0.8295627923637362
      vertex 0.0 3.5000000000000004 0.4519610507708349
    endloop
  endfacet
  facet normal -0.9382034408569727 0.0 0.3460842434496793
    outer loop
      vertex 0.0 2.5000000000000027 0.4519610507708349
      vertex 0.13928963311527948 2.7500000000000027 0.8295627923637362
      vertex 0.0 3.0000000000000027 0.4519610507708349
    endloop
  endfacet
  facet normal -0.9283284127717085 0.04087945293105625 0.3695067365675733
    outer loop
      vertex 0.0 3.0000000000000027 0.4519610507708349
      vertex 0.13928963311527948 2.7500000000000027 0.8295627923637362
      vertex 0.16959355813408503 3.2500000000000004 0.8503804592333248
    endloop
  endfacet
  facet normal -0.9201102109043187 0.0 0.3916595457659756
    outer loop
      vertex 0.0 2.000000000000003 0.4519610507708349
      vertex 0.16959355813408603 2.2500000000000027 0.8503804592333254
      vertex 0.0 2.5000000000000027 0.4519610507708349
    endloop
  endfacet
  facet normal -0.9283284127717082 -0.04087945293105747 0.369506736567574
    outer loop
      vertex 0.16959355813408603 2.2500000000000027 0.8503804592333254
      vertex 0.13928963311527948 2.7500000000000027 0.8295627923637362
      vertex 0.0 2.5000000000000027 0.4519610507708349
    endloop
  endfacet
  facet normal -0.9382034408569732 0.0 0.3460842434496783
    outer loop
      vertex 0.0 1.5000000000000033 0.4519610507708349
      vertex 0.1392896331152788 1.750000000000003 0.8295627923637356
      vertex 0.0 2.000000000000003 0.4519610507708349
    endloop
  endfacet
  facet normal -0.9283284127717082 0.040879452931058394 0.3695067365675735
    outer loop
      vertex 0.0 2.000000000000003 0.4519610507708349
      vertex 0.1392896331152788 1.750000000000003 0.8295627923637356
      vertex 0.16959355813408603 2.2500000000000027 0.8503804592333254
    endloop
  endfacet
  facet normal -0.9201102109043187 0.0 0.39165954576597534
    outer loop
      vertex 0.0 1.000000000000004 0.4519610507708349
      vertex 0.1695935581340859 1.2500000000000038 0.8503804592333254
      vertex 0.0 1.5000000000000033 0.4519610507708349
    endloop
  endfacet
  facet normal -0.9283284127717084 -0.04087945293105813 0.3695067365675735
    outer loop
      vertex 0.1695935581340859 1.2500000000000038 0.8503804592333254
      vertex 0.1392896331152788 1.750000000000003 0.8295627923637356
      vertex 0.0 1.5000000000000033 0.4519610507708349
    endloop
  endfacet
  facet normal -0.9602232901930503 0.0 0.2792332948823137
    outer loop
      vertex 0.0 0.5000000000000018 0.4519610507708349
      vertex 0.099675227519798 0.72724655256734 0.7947227366942119
      vertex 0.0 1.000000000000004 0.4519610507708349
    endloop
  endfacet
  facet normal -0.9353206033869503 0.08863102784188809 0.34251994070938646
    outer loop
      vertex 0.0 1.000000000000004 0.4519610507708349
      vertex 0.099675227519798 0.72724655256734 0.7947227366942119
      vertex 0.1695935581340859 1.2500000000000038 0.8503804592333254
    endloop
  endfacet
  facet normal -0.9718419720565735 0.12482387399276837 0.1998554023053359
    outer loop
      vertex 0.0 0.5000000000000018 0.4519610507708349
      vertex 0.001647723022789611 0.2472950822259631 0.6178056205103712
      vertex 0.099675227519798 0.72724655256734 0.7947227366942119
    endloop
  endfacet
  facet normal -0.42761239543365137 -0.1309145954100554 0.8944322265997106
    outer loop
      vertex 0.36652184454699943 0.0 0.90625
      vertex 0.2047751475284908 0.2777423980639924 0.8695738182623305
      vertex 0.07466712387168112 0.0 0.766719365352547
    endloop
  endfacet
  facet normal -0.7789045337231536 0.13835326533698367 0.6116911813293623
    outer loop
      vertex 0.2047751475284908 0.2777423980639924 0.8695738182623305
      vertex 0.001647723022789611 0.2472950822259631 0.6178056205103712
      vertex 0.07466712387168112 0.0 0.766719365352547
    endloop
  endfacet
  facet normal 0.4306876685060694 -0.054321715021718134 0.9008647420528264
    outer loop
      vertex 0.6583765652223187 0.0 0.7667193653525487
      vertex 0.6205160558501683 0.37005455799277737 0.8071339259987463
      vertex 0.36652184454699943 0.0 0.90625
    endloop
  endfacet
  facet normal 0.10448717946236641 0.1897647731936062 0.9762539424672141
    outer loop
      vertex 0.36652184454699943 0.0 0.90625
      vertex 0.6205160558501683 0.37005455799277737 0.8071339259987463
      vertex 0.2047751475284908 0.2777423980639924 0.8695738182623305
    endloop
  endfacet
  facet normal 0.850634347802564 0.029701334837356815 0.5249181241368845
    outer loop
      vertex 0.6583765652223187 0.0 0.7667193653525487
      vertex 0.7217856044349904 0.22377346470365297 0.6513027422021198
      vertex 0.6205160558501683 0.37005455799277737 0.8071339259987463
    endloop
  endfacet
  facet normal 0.9602232901974994 0.0 0.2792332948670139
    outer loop
      vertex 0.7330436890940011 4.5 0.4519610507708352
      vertex 0.6333684615825993 4.272753447431043 0.7947227366857081
      vertex 0.7330436890940011 4.0 0.4519610507708352
    endloop
  endfacet
  facet normal 0.9718419720602826 -0.12482387398435615 0.19985540229255466
    outer loop
      vertex 0.7330436890940011 4.5 0.4519610507708352
      vertex 0.7313959660712112 4.752704917774038 0.6178056205103725
      vertex 0.6333684615825993 4.272753447431043 0.7947227366857081
    endloop
  endfacet
  facet normal 0.9201102109039931 0.0 0.3916595457667402
    outer loop
      vertex 0.7330436890940011 4.0 0.4519610507708352
      vertex 0.5634501309593848 3.7500000000000004 0.8503804592336527
      vertex 0.7330436890940011 3.5000000000000004 0.4519610507708352
    endloop
  endfacet
  facet normal 0.9353206033879525 -0.08863102785308213 0.3425199407037531
    outer loop
      vertex 0.7330436890940011 4.0 0.4519610507708352
      vertex 0.6333684615825993 4.272753447431043 0.7947227366857081
      vertex 0.5634501309593848 3.7500000000000004 0.8503804592336527
    endloop
  endfacet
  facet normal 0.9382034408564663 0.0 0.3460842434510517
    outer loop
      vertex 0.7330436890940011 3.5000000000000004 0.4519610507708352
      vertex 0.593754055977849 3.2500000000000004 0.8295627923644008
      vertex 0.7330436890940011 3.0000000000000027 0.4519610507708352
    endloop
  endfacet
  facet normal 0.928328412771311 0.040879452930603466 0.3695067365686221
    outer loop
      vertex 0.5634501309593848 3.7500000000000004 0.8503804592336527
      vertex 0.593754055977849 3.2500000000000004 0.8295627923644008
      vertex 0.7330436890940011 3.5000000000000004 0.4519610507708352
    endloop
  endfacet
  facet normal 0.9201102109039931 0.0 0.39165954576673995
    outer loop
      vertex 0.7330436890940011 3.0000000000000027 0.4519610507708352
      vertex 0.5634501309593849 2.7500000000000027 0.8503804592336527
      vertex 0.7330436890940011 2.5000000000000027 0.4519610507708352
    endloop
  endfacet
  facet normal 0.9283284127713111 -0.04087945293060348 0.3695067365686219
    outer loop
      vertex 0.7330436890940011 3.0000000000000027 0.4519610507708352
      vertex 0.593754055977849 3.2500000000000004 0.8295627923644008
      vertex 0.5634501309593849 2.7500000000000027 0.8503804592336527
    endloop
  endfacet
  facet normal 0.9382034408564665 0.0 0.34608424345105177
    outer loop
      vertex 0.7330436890940011 2.5000000000000027 0.4519610507708352
      vertex 0.593754055977849 2.2500000000000027 0.8295627923644008
      vertex 0.7330436890940011 2.000000000000003 0.4519610507708352
    endloop
  endfacet
  facet normal 0.928328412771311 0.040879452930603265 0.36950673656862193
    outer loop
      vertex 0.5634501309593849 2.7500000000000027 0.8503804592336527
      vertex 0.593754055977849 2.2500000000000027 0.8295627923644008
      vertex 0.7330436890940011 2.5000000000000027 0.4519610507708352
    endloop
  endfacet
  facet normal 0.9201102109039928 0.0 0.39165954576674095
    outer loop
      vertex 0.7330436890940011 2.000000000000003 0.4519610507708352
      vertex 0.5634501309593843 1.750000000000003 0.8503804592336528
      vertex 0.7330436890940011 1.5000000000000033 0.4519610507708352
    endloop
  endfacet
  facet normal 0.9283284127713107 -0.040879452930604236 0.3695067365686224
    outer loop
      vertex 0.7330436890940011 2.000000000000003 0.4519610507708352
      vertex 0.593754055977849 2.2500000000000027 0.8295627923644008
      vertex 0.5634501309593843 1.750000000000003 0.8503804592336528
    endloop
  endfacet
  facet normal 0.9382034408564665 0.0 0.3460842434510517
    outer loop
      vertex 0.7330436890940011 1.5000000000000033 0.4519610507708352
      vertex 0.593754055977849 1.2500000000000036 0.8295627923644008
      vertex 0.7330436890940011 1.000000000000004 0.4519610507708352
    endloop
  endfacet
  facet normal 0.9283284127713107 0.0408794529306042 0.3695067365686225
    outer loop
      vertex 0.5634501309593843 1.750000000000003 0.8503804592336528
      vertex 0.593754055977849 1.2500000000000036 0.8295627923644008
      vertex 0.7330436890940011 1.5000000000000033 0.4519610507708352
    endloop
  endfacet
  facet normal 0.8829899638200615 0.0 0.4693918659212648
    outer loop
      vertex 0.7330436890940011 1.000000000000004 0.4519610507708352
      vertex 0.5058075955361557 0.7486395510927181 0.879423059801282
      vertex 0.7330436890940011 0.5000000000000018 0.4519610507708352
    endloop
  endfacet
  facet normal 0.9038705590789466 -0.11764814857713238 0.4113112271342535
    outer loop
      vertex 0.7330436890940011 1.000000000000004 0.4519610507708352
      vertex 0.593754055977849 1.2500000000000036 0.8295627923644008
      vertex 0.5058075955361557 0.7486395510927181 0.879423059801282
    endloop
  endfacet
  facet normal 0.9086488454928373 0.2059558279152319 0.3632347347546557
    outer loop
      vertex 0.5058075955361557 0.7486395510927181 0.879423059801282
      vertex 0.6205160558501683 0.37005455799277737 0.8071339259987463
      vertex 0.7330436890940011 0.5000000000000018 0.4519610507708352
    endloop
  endfacet
  facet normal 0.9004054575065995 0.22986155160029204 0.3693692991955848
    outer loop
      vertex 0.6205160558501683 0.37005455799277737 0.8071339259987463
      vertex 0.7217856044349904 0.22377346470365297 0.6513027422021198
      vertex 0.7330436890940011 0.5000000000000018 0.4519610507708352
    endloop
  endfacet
  facet normal -0.17600391668720175 0.13291563088810696 0.9753748286563382
    outer loop
      vertex 0.5282685415655084 4.722257601935969 0.8695738182623316
      vertex 0.11252763324611514 4.629945442008202 0.8071339260008478
      vertex 0.22723609356021823 4.251360448907127 0.8794230598022313
    endloop
  endfacet
  facet normal 0.20855394659906346 -0.11300420198643255 0.971460396357651
    outer loop
      vertex 0.22723609356021823 4.251360448907127 0.8794230598022313
      vertex 0.6333684615825993 4.272753447431043 0.7947227366857081
      vertex 0.5282685415655084 4.722257601935969 0.8695738182623316
    endloop
  endfacet
  facet normal 0.7716077974018214 0.0752327504026255 0.6316339448252968
    outer loop
      vertex 0.6333684615825993 4.272753447431043 0.7947227366857081
      vertex 0.7313959660712112 4.752704917774038 0.6178056205103725
      vertex 0.5282685415655084 4.722257601935969 0.8695738182623316
    endloop
  endfacet
  facet normal 0.19964631528189725 0.0772990085809597 0.9768143181110533
    outer loop
      vertex 0.5634501309593848 3.7500000000000004 0.8503804592336527
      vertex 0.6333684615825993 4.272753447431043 0.7947227366857081
      vertex 0.22723609356021823 4.251360448907127 0.8794230598022313
    endloop
  endfacet
  facet normal -0.04882015088317973 -0.09036021586082002 0.9947118297564022
    outer loop
      vertex 0.22723609356021823 4.251360448907127 0.8794230598022313
      vertex 0.13928963311527934 3.7500000000000004 0.8295627923637362
      vertex 0.5634501309593848 3.7500000000000004 0.8503804592336527
    endloop
  endfacet
  facet normal -0.04898418168970236 0.03858548384526152 0.9980539616576938
    outer loop
      vertex 0.5634501309593848 3.7500000000000004 0.8503804592336527
      vertex 0.13928963311527934 3.7500000000000004 0.8295627923637362
      vertex 0.16959355813408503 3.2500000000000004 0.8503804592333248
    endloop
  endfacet
  facet normal 0.04898418168741306 -0.03858548384476706 0.9980539616578252
    outer loop
      vertex 0.16959355813408503 3.2500000000000004 0.8503804592333248
      vertex 0.593754055977849 3.2500000000000004 0.8295627923644008
      vertex 0.5634501309593848 3.7500000000000004 0.8503804592336527
    endloop
  endfacet
  facet normal 0.04898418168741306 0.03858548384476723 0.9980539616578252
    outer loop
      vertex 0.5634501309593849 2.7500000000000027 0.8503804592336527
      vertex 0.593754055977849 3.2500000000000004 0.8295627923644008
      vertex 0.16959355813408503 3.2500000000000004 0.8503804592333248
    endloop
  endfacet
  facet normal -0.048984181689702366 -0.03858548384526171 0.9980539616576938
    outer loop
      vertex 0.16959355813408503 3.2500000000000004 0.8503804592333248
      vertex 0.13928963311527948 2.7500000000000027 0.8295627923637362
      vertex 0.5634501309593849 2.7500000000000027 0.8503804592336527
    endloop
  endfacet
  facet normal -0.048984181689702366 0.03858548384526255 0.9980539616576938
    outer loop
      vertex 0.5634501309593849 2.7500000000000027 0.8503804592336527
      vertex 0.13928963311527948 2.7500000000000027 0.8295627923637362
      vertex 0.16959355813408603 2.2500000000000027 0.8503804592333254
    endloop
  endfacet
  facet normal 0.048984181687414474 -0.03858548384476697 0.9980539616578251
    outer loop
      vertex 0.16959355813408603 2.2500000000000027 0.8503804592333254
      vertex 0.593754055977849 2.2500000000000027 0.8295627923644008
      vertex 0.5634501309593849 2.7500000000000027 0.8503804592336527
    endloop
  endfacet
  facet normal 0.04898418168741448 0.03858548384476717 0.9980539616578252
    outer loop
      vertex 0.5634501309593843 1.750000000000003 0.8503804592336528
      vertex 0.593754055977849 2.2500000000000027 0.8295627923644008
      vertex 0.16959355813408603 2.2500000000000027 0.8503804592333254
    endloop
  endfacet
  facet normal -0.04898418168970392 -0.03858548384526352 0.9980539616576936
    outer loop
      vertex 0.16959355813408603 2.2500000000000027 0.8503804592333254
      vertex 0.1392896331152788 1.750000000000003 0.8295627923637356
      vertex 0.5634501309593843 1.750000000000003 0.8503804592336528
    endloop
  endfacet
  facet normal -0.048984181689703914 0.03858548384526356 0.9980539616576936
    outer loop
      vertex 0.5634501309593843 1.750000000000003 0.8503804592336528
      vertex 0.1392896331152788 1.750000000000003 0.8295627923637356
      vertex 0.1695935581340859 1.2500000000000038 0.8503804592333254
    endloop
  endfacet
  facet normal 0.04898418168741443 -0.03858548384476717 0.9980539616578251
    outer loop
      vertex 0.1695935581340859 1.2500000000000038 0.8503804592333254
      vertex 0.593754055977849 1.2500000000000036 0.8295627923644008
      vertex 0.5634501309593843 1.750000000000003 0.8503804592336528
    endloop
  endfacet
  facet normal -0.19964631526335108 -0.07729900857059896 0.9768143181156638
    outer loop
      vertex 0.1695935581340859 1.2500000000000038 0.8503804592333254
      vertex 0.099675227519798 0.72724655256734 0.7947227366942119
      vertex 0.5058075955361557 0.7486395510927181 0.879423059801282
    endloop
  endfacet
  facet normal 0.04882015088090965 0.09036021585833698 0.9947118297567391
    outer loop
      vertex 0.5058075955361557 0.7486395510927181 0.879423059801282
      vertex 0.593754055977849 1.2500000000000036 0.8295627923644008
      vertex 0.1695935581340859 1.2500000000000038 0.8503804592333254
    endloop
  endfacet
  facet normal 0.17600391669173387 -0.13291563088993846 0.9753748286552707
    outer loop
      vertex 0.2047751475284908 0.2777423980639924 0.8695738182623305
      vertex 0.6205160558501683 0.37005455799277737 0.8071339259987463
      vertex 0.5058075955361557 0.7486395510927181 0.879423059801282
    endloop
  endfacet
  facet normal -0.20855394658052803 0.11300420197751447 0.9714603963626677
    outer loop
      vertex 0.5058075955361557 0.7486395510927181 0.879423059801282
      vertex 0.099675227519798 0.72724655256734 0.7947227366942119
      vertex 0.2047751475284908 0.2777423980639924 0.8695738182623305
    endloop
  endfacet
  facet normal -0.7716077974020816 -0.07523275040049617 0.6316339448252325
    outer loop
      vertex 0.099675227519798 0.72724655256734 0.7947227366942119
      vertex 0.001647723022789611 0.2472950822259631 0.6178056205103712
      vertex 0.2047751475284908 0.2777423980639924 0.8695738182623305
    endloop
  endfacet
  facet normal 0.9773915854586647 2.7958335957910986e-15 -0.21143719794444374
    outer loop
      vertex 0.64593360947766 5.0 0.04928517512847442
      vertex 0.7330436890940011 5.0 0.4519610507708356
      vertex 0.6894886492858312 4.75 0.2506231129496548
    endloop
  endfacet
  facet normal 0.977391585458664 0.0 -0.21143719794444707
    outer loop
      vertex 0.64593360947766 4.5 0.04928517512847442
      vertex 0.64593360947766 5.0 0.04928517512847442
      vertex 0.6894886492858312 4.75 0.2506231129496548
    endloop
  endfacet
  facet normal 0.9773915854586646 -2.829518337909055e-15 -0.21143719794444393
    outer loop
      vertex 0.7330436890940011 0.0 0.4519610507708352
      vertex 0.64593360947766 0.0 0.04928517512847442
      vertex 0.6894886492858312 0.250000000000001 0.25062311294965456
    endloop
  endfacet
  facet normal 0.9773915854586639 0.0 -0.21143719794444726
    outer loop
      vertex 0.64593360947766 0.0 0.04928517512847442
      vertex 0.64593360947766 0.5000000000000018 0.04928517512847442
      vertex 0.6894886492858312 0.250000000000001 0.25062311294965456
    endloop
  endfacet
  facet normal 0.9773915854586653 1.6431971179410136e-16 -0.21143719794444063
    outer loop
      vertex 0.7330436890940011 5.0 0.4519610507708356
      vertex 0.7330436890940011 4.5 0.4519610507708352
      vertex 0.6894886492858312 4.75 0.2506231129496548
    endloop
  endfacet
  facet normal 0.9773915854586652 0.0 -0.21143719794444055
    outer loop
      vertex 0.7330436890940011 0.5000000000000018 0.4519610507708352
      vertex 0.7330436890940011 0.0 0.4519610507708352
      vertex 0.6894886492858312 0.250000000000001 0.25062311294965456
    endloop
  endfacet
  facet normal 0.977391585458664 0.0 -0.2114371979444473
    outer loop
      vertex 0.64593360947766 4.0 0.04928517512847442
      vertex 0.64593360947766 4.5 0.04928517512847442
      vertex 0.6894886492858312 4.25 0.25062311294965456
    endloop
  endfacet
  facet normal 0.9773915854586647 2.8295183379090664e-15 -0.21143719794444393
    outer loop
      vertex 0.64593360947766 4.5 0.04928517512847442
      vertex 0.7330436890940011 4.5 0.4519610507708352
      vertex 0.6894886492858312 4.25 0.25062311294965456
    endloop
  endfacet
  facet normal 0.9773915854586647 -2.6274098852012757e-15 -0.21143719794444393
    outer loop
      vertex 0.7330436890940011 4.5 0.4519610507708352
      vertex 0.64593360947766 4.5 0.04928517512847442
      vertex 0.6894886492858312 4.75 0.2506231129496548
    endloop
  endfacet
  facet normal 0.9773915854586638 0.0 -0.21143719794444724
    outer loop
      vertex 0.64593360947766 3.5000000000000004 0.04928517512847442
      vertex 0.64593360947766 4.0 0.04928517512847442
      vertex 0.6894886492858312 3.7500000000000004 0.25062311294965456
    endloop
  endfacet
  facet normal 0.9773915854586647 -2.8295183379090664e-15 -0.21143719794444393
    outer loop
      vertex 0.7330436890940011 4.0 0.4519610507708352
      vertex 0.64593360947766 4.0 0.04928517512847442
      vertex 0.6894886492858312 4.25 0.25062311294965456
    endloop
  endfacet
  facet normal 0.9773915854586646 2.8295183379090715e-15 -0.21143719794444393
    outer loop
      vertex 0.64593360947766 4.0 0.04928517512847442
      vertex 0.7330436890940011 4.0 0.4519610507708352
      vertex 0.6894886492858312 3.7500000000000004 0.25062311294965456
    endloop
  endfacet
  facet normal 0.9773915854586639 0.0 -0.21143719794444726
    outer loop
      vertex 0.64593360947766 3.0000000000000027 0.04928517512847442
      vertex 0.64593360947766 3.5000000000000004 0.04928517512847442
      vertex 0.6894886492858312 3.2500000000000004 0.25062311294965456
    endloop
  endfacet
  facet normal 0.9773915854586647 -2.8295183379090664e-15 -0.21143719794444393
    outer loop
      vertex 0.7330436890940011 3.5000000000000004 0.4519610507708352
      vertex 0.64593360947766 3.5000000000000004 0.04928517512847442
      vertex 0.6894886492858312 3.7500000000000004 0.25062311294965456
    endloop
  endfacet
  facet normal 0.9773915854586647 2.8295183379090664e-15 -0.21143719794444393
    outer loop
      vertex 0.64593360947766 3.5000000000000004 0.04928517512847442
      vertex 0.7330436890940011 3.5000000000000004 0.4519610507708352
      vertex 0.6894886492858312 3.2500000000000004 0.25062311294965456
    endloop
  endfacet
  facet normal 0.977391585458664 0.0 -0.21143719794444707
    outer loop
      vertex 0.64593360947766 2.5000000000000027 0.04928517512847442
      vertex 0.64593360947766 3.0000000000000027 0.04928517512847442
      vertex 0.6894886492858312 2.7500000000000027 0.2506231129496548
    endloop
  endfacet
  facet normal 0.9773915854586647 2.6274098852012757e-15 -0.21143719794444393
    outer loop
      vertex 0.64593360947766 3.0000000000000027 0.04928517512847442
      vertex 0.7330436890940011 3.0000000000000027 0.4519610507708352
      vertex 0.6894886492858312 2.7500000000000027 0.2506231129496548
    endloop
  endfacet
  facet normal 0.9773915854586646 -2.8295183379090912e-15 -0.2114371979444439
    outer loop
      vertex 0.7330436890940011 3.0000000000000027 0.4519610507708352
      vertex 0.64593360947766 3.0000000000000027 0.04928517512847442
      vertex 0.6894886492858312 3.2500000000000004 0.25062311294965456
    endloop
  endfacet
  facet normal 0.9773915854586638 0.0 -0.21143719794444724
    outer loop
      vertex 0.64593360947766 2.000000000000003 0.04928517512847442
      vertex 0.64593360947766 2.5000000000000027 0.04928517512847442
      vertex 0.6894886492858312 2.2500000000000027 0.25062311294965456
    endloop
  endfacet
  facet normal 0.9773915854586647 2.8295183379090664e-15 -0.21143719794444393
    outer loop
      vertex 0.64593360947766 2.5000000000000027 0.04928517512847442
      vertex 0.7330436890940011 2.5000000000000027 0.4519610507708352
      vertex 0.6894886492858312 2.2500000000000027 0.25062311294965456
    endloop
  endfacet
  facet normal 0.9773915854586647 -2.6274098852012757e-15 -0.21143719794444393
    outer loop
      vertex 0.7330436890940011 2.5000000000000027 0.4519610507708352
      vertex 0.64593360947766 2.5000000000000027 0.04928517512847442
      vertex 0.6894886492858312 2.7500000000000027 0.2506231129496548
    endloop
  endfacet
  facet normal 0.9773915854586638 0.0 -0.21143719794444724
    outer loop
      vertex 0.64593360947766 1.5000000000000033 0.04928517512847442
      vertex 0.64593360947766 2.000000000000003 0.04928517512847442
      vertex 0.6894886492858312 1.750000000000003 0.25062311294965456
    endloop
  endfacet
  facet normal 0.9773915854586646 -2.8295183379090715e-15 -0.21143719794444393
    outer loop
      vertex 0.7330436890940011 2.000000000000003 0.4519610507708352
      vertex 0.64593360947766 2.000000000000003 0.04928517512847442
      vertex 0.6894886492858312 2.2500000000000027 0.25062311294965456
    endloop
  endfacet
  facet normal 0.9773915854586647 2.8295183379090664e-15 -0.21143719794444393
    outer loop
      vertex 0.64593360947766 2.000000000000003 0.04928517512847442
      vertex 0.7330436890940011 2.000000000000003 0.4519610507708352
      vertex 0.6894886492858312 1.750000000000003 0.25062311294965456
    endloop
  endfacet
  facet normal 0.977391585458664 0.0 -0.21143719794444707
    outer loop
      vertex 0.64593360947766 1.000000000000004 0.04928517512847442
      vertex 0.64593360947766 1.5000000000000033 0.04928517512847442
      vertex 0.6894886492858312 1.2500000000000036 0.2506231129496548
    endloop
  endfacet
  facet normal 0.9773915854586647 2.627409885201278e-15 -0.2114371979444439
    outer loop
      vertex 0.64593360947766 1.5000000000000033 0.04928517512847442
      vertex 0.7330436890940011 1.5000000000000033 0.4519610507708352
      vertex 0.6894886492858312 1.2500000000000036 0.2506231129496548
    endloop
  endfacet
  facet normal 0.9773915854586647 -2.8295183379090687e-15 -0.2114371979444439
    outer loop
      vertex 0.7330436890940011 1.5000000000000033 0.4519610507708352
      vertex 0.64593360947766 1.5000000000000033 0.04928517512847442
      vertex 0.6894886492858312 1.750000000000003 0.25062311294965456
    endloop
  endfacet
  facet normal 0.9773915854586638 0.0 -0.21143719794444726
    outer loop
      vertex 0.64593360947766 0.5000000000000018 0.04928517512847442
      vertex 0.64593360947766 1.000000000000004 0.04928517512847442
      vertex 0.6894886492858312 0.750000000000003 0.25062311294965456
    endloop
  endfacet
  facet normal 0.9773915854586646 2.829518337909055e-15 -0.21143719794444393
    outer loop
      vertex 0.64593360947766 1.000000000000004 0.04928517512847442
      vertex 0.7330436890940011 1.000000000000004 0.4519610507708352
      vertex 0.6894886492858312 0.750000000000003 0.25062311294965456
    endloop
  endfacet
  facet normal 0.9773915854586646 -2.6274098852012805e-15 -0.21143719794444393
    outer loop
      vertex 0.7330436890940011 1.000000000000004 0.4519610507708352
      vertex 0.64593360947766 1.000000000000004 0.04928517512847442
      vertex 0.6894886492858312 1.2500000000000036 0.2506231129496548
    endloop
  endfacet
  facet normal 0.9773915854586647 -2.8295183379090526e-15 -0.21143719794444396
    outer loop
      vertex 0.7330436890940011 0.5000000000000018 0.4519610507708352
      vertex 0.64593360947766 0.5000000000000018 0.04928517512847442
      vertex 0.6894886492858312 0.750000000000003 0.25062311294965456
    endloop
  endfacet
  facet normal 0.9773915854586646 2.8295183379090573e-15 -0.21143719794444393
    outer loop
      vertex 0.64593360947766 0.5000000000000018 0.04928517512847442
      vertex 0.7330436890940011 0.5000000000000018 0.4519610507708352
      vertex 0.6894886492858312 0.250000000000001 0.25062311294965456
    endloop
  endfacet
  facet normal 0.9773915854586653 0.0 -0.21143719794444057
    outer loop
      vertex 0.7330436890940011 4.5 0.4519610507708352
      vertex 0.7330436890940011 4.0 0.4519610507708352
      vertex 0.6894886492858312 4.25 0.25062311294965456
    endloop
  endfacet
  facet normal 0.9773915854586653 0.0 -0.21143719794444055
    outer loop
      vertex 0.7330436890940011 4.0 0.4519610507708352
      vertex 0.7330436890940011 3.5000000000000004 0.4519610507708352
      vertex 0.6894886492858312 3.7500000000000004 0.25062311294965456
    endloop
  endfacet
  facet normal 0.9773915854586653 0.0 -0.21143719794444057
    outer loop
      vertex 0.7330436890940011 3.5000000000000004 0.4519610507708352
      vertex 0.7330436890940011 3.0000000000000027 0.4519610507708352
      vertex 0.6894886492858312 3.2500000000000004 0.25062311294965456
    endloop
  endfacet
  facet normal 0.9773915854586652 0.0 -0.2114371979444408
    outer loop
      vertex 0.7330436890940011 3.0000000000000027 0.4519610507708352
      vertex 0.7330436890940011 2.5000000000000027 0.4519610507708352
      vertex 0.6894886492858312 2.7500000000000027 0.2506231129496548
    endloop
  endfacet
  facet normal 0.9773915854586653 0.0 -0.21143719794444055
    outer loop
      vertex 0.7330436890940011 2.5000000000000027 0.4519610507708352
      vertex 0.7330436890940011 2.000000000000003 0.4519610507708352
      vertex 0.6894886492858312 2.2500000000000027 0.25062311294965456
    endloop
  endfacet
  facet normal 0.9773915854586653 0.0 -0.21143719794444057
    outer loop
      vertex 0.7330436890940011 2.000000000000003 0.4519610507708352
      vertex 0.7330436890940011 1.5000000000000033 0.4519610507708352
      vertex 0.6894886492858312 1.750000000000003 0.25062311294965456
    endloop
  endfacet
  facet normal 0.9773915854586652 0.0 -0.21143719794444082
    outer loop
      vertex 0.7330436890940011 1.5000000000000033 0.4519610507708352
      vertex 0.7330436890940011 1.000000000000004 0.4519610507708352
      vertex 0.6894886492858312 1.2500000000000036 0.2506231129496548
    endloop
  endfacet
  facet normal 0.9773915854586653 0.0 -0.2114371979444406
    outer loop
      vertex 0.7330436890940011 1.000000000000004 0.4519610507708352
      vertex 0.7330436890940011 0.5000000000000018 0.4519610507708352
      vertex 0.6894886492858312 0.750000000000003 0.25062311294965456
    endloop
  endfacet
  facet normal 0.0 0.0 -1.0
    outer loop
      vertex 0.14819705370750713 5.0 0.0
      vertex 0.5848466353864936 5.0 0.0
      vertex 0.3665218445470004 4.75 0.0
    endloop
  endfacet
  facet normal 0.0 0.0 -1.0
    outer loop
      vertex 0.14819705370750713 4.5 0.0
      vertex 0.14819705370750713 5.0 0.0
      vertex 0.3665218445470004 4.75 0.0
    endloop
  endfacet
  facet normal 0.0 0.0 -1.0
    outer loop
      vertex 0.5848466353864936 0.0 0.0
      vertex 0.14819705370750713 0.0 0.0
      vertex 0.3665218445470004 0.2500000000000008 0.0
    endloop
  endfacet
  facet normal 0.0 0.0 -1.0
    outer loop
      vertex 0.14819705370750713 0.0 0.0
      vertex 0.14819705370750713 0.5000000000000018 0.0
      vertex 0.3665218445470004 0.2500000000000008 0.0
    endloop
  endfacet
  facet normal 0.0 -0.0 -1.0
    outer loop
      vertex 0.5848466353864936 5.0 0.0
      vertex 0.5848466353864936 4.5 0.0
      vertex 0.3665218445470004 4.75 0.0
    endloop
  endfacet
  facet normal 0.0 -0.0 -1.0
    outer loop
      vertex 0.5848466353864936 0.5000000000000018 0.0
      vertex 0.5848466353864936 0.0 0.0
      vertex 0.3665218445470004 0.2500000000000008 0.0
    endloop
  endfacet
  facet normal 0.0 0.0 -1.0
    outer loop
      vertex 0.14819705370750713 4.0 0.0
      vertex 0.14819705370750713 4.5 0.0
      vertex 0.3665218445470003 4.25 0.0
    endloop
  endfacet
  facet normal 0.0 0.0 -1.0
    outer loop
      vertex 0.5848466353864936 4.5 0.0
      vertex 0.14819705370750713 4.5 0.0
      vertex 0.3665218445470004 4.75 0.0
    endloop
  endfacet
  facet normal 0.0 0.0 -1.0
    outer loop
      vertex 0.14819705370750713 4.5 0.0
      vertex 0.5848466353864936 4.5 0.0
      vertex 0.3665218445470003 4.25 0.0
    endloop
  endfacet
  facet normal 0.0 0.0 -1.0
    outer loop
      vertex 0.14819705370750713 3.5000000000000004 0.0
      vertex 0.14819705370750713 4.0 0.0
      vertex 0.3665218445470004 3.7500000000000004 0.0
    endloop
  endfacet
  facet normal 0.0 0.0 -1.0
    outer loop
      vertex 0.5848466353864936 4.0 0.0
      vertex 0.14819705370750713 4.0 0.0
      vertex 0.3665218445470003 4.25 0.0
    endloop
  endfacet
  facet normal 0.0 0.0 -1.0
    outer loop
      vertex 0.14819705370750713 4.0 0.0
      vertex 0.5848466353864936 4.0 0.0
      vertex 0.3665218445470004 3.7500000000000004 0.0
    endloop
  endfacet
  facet normal 0.0 0.0 -1.0
    outer loop
      vertex 0.14819705370750713 3.0000000000000027 0.0
      vertex 0.14819705370750713 3.5000000000000004 0.0
      vertex 0.3665218445470004 3.2500000000000004 0.0
    endloop
  endfacet
  facet normal 0.0 0.0 -1.0
    outer loop
      vertex 0.5848466353864936 3.5000000000000004 0.0
      vertex 0.14819705370750713 3.5000000000000004 0.0
      vertex 0.3665218445470004 3.7500000000000004 0.0
    endloop
  endfacet
  facet normal 0.0 0.0 -1.0
    outer loop
      vertex 0.14819705370750713 3.5000000000000004 0.0
      vertex 0.5848466353864936 3.5000000000000004 0.0
      vertex 0.3665218445470004 3.2500000000000004 0.0
    endloop
  endfacet
  facet normal 0.0 0.0 -1.0
    outer loop
      vertex 0.14819705370750713 2.5000000000000027 0.0
      vertex 0.14819705370750713 3.0000000000000027 0.0
      vertex 0.3665218445470003 2.7500000000000027 0.0
    endloop
  endfacet
  facet normal 0.0 0.0 -1.0
    outer loop
      vertex 0.14819705370750713 3.0000000000000027 0.0
      vertex 0.5848466353864936 3.0000000000000027 0.0
      vertex 0.3665218445470003 2.7500000000000027 0.0
    endloop
  endfacet
  facet normal 0.0 0.0 -1.0
    outer loop
      vertex 0.5848466353864936 3.0000000000000027 0.0
      vertex 0.14819705370750713 3.0000000000000027 0.0
      vertex 0.3665218445470004 3.2500000000000004 0.0
    endloop
  endfacet
  facet normal 0.0 0.0 -1.0
    outer loop
      vertex 0.14819705370750713 2.000000000000003 0.0
      vertex 0.14819705370750713 2.5000000000000027 0.0
      vertex 0.3665218445470004 2.2500000000000027 0.0
    endloop
  endfacet
  facet normal 0.0 0.0 -1.0
    outer loop
      vertex 0.14819705370750713 2.5000000000000027 0.0
      vertex 0.5848466353864936 2.5000000000000027 0.0
      vertex 0.3665218445470004 2.2500000000000027 0.0
    endloop
  endfacet
  facet normal 0.0 0.0 -1.0
    outer loop
      vertex 0.5848466353864936 2.5000000000000027 0.0
      vertex 0.14819705370750713 2.5000000000000027 0.0
      vertex 0.3665218445470003 2.7500000000000027 0.0
    endloop
  endfacet
  facet normal 0.0 0.0 -1.0
    outer loop
      vertex 0.14819705370750713 1.5000000000000033 0.0
      vertex 0.14819705370750713 2.000000000000003 0.0
      vertex 0.3665218445470004 1.750000000000003 0.0
    endloop
  endfacet
  facet normal 0.0 0.0 -1.0
    outer loop
      vertex 0.5848466353864936 2.000000000000003 0.0
      vertex 0.14819705370750713 2.000000000000003 0.0
      vertex 0.3665218445470004 2.2500000000000027 0.0
    endloop
  endfacet
  facet normal 0.0 0.0 -1.0
    outer loop
      vertex 0.14819705370750713 2.000000000000003 0.0
      vertex 0.5848466353864936 2.000000000000003 0.0
      vertex 0.3665218445470004 1.750000000000003 0.0
    endloop
  endfacet
  facet normal 0.0 0.0 -1.0
    outer loop
      vertex 0.14819705370750713 1.000000000000004 0.0
      vertex 0.14819705370750713 1.5000000000000033 0.0
      vertex 0.3665218445470003 1.2500000000000036 0.0
    endloop
  endfacet
  facet normal 0.0 0.0 -1.0
    outer loop
      vertex 0.5848466353864936 1.5000000000000033 0.0
      vertex 0.14819705370750713 1.5000000000000033 0.0
      vertex 0.3665218445470004 1.750000000000003 0.0
    endloop
  endfacet
  facet normal 0.0 0.0 -1.0
    outer loop
      vertex 0.14819705370750713 1.5000000000000033 0.0
      vertex 0.5848466353864936 1.5000000000000033 0.0
      vertex 0.3665218445470003 1.2500000000000036 0.0
    endloop
  endfacet
  facet normal 0.0 0.0 -1.0
    outer loop
      vertex 0.14819705370750713 0.5000000000000018 0.0
      vertex 0.14819705370750713 1.000000000000004 0.0
      vertex 0.3665218445470004 0.7500000000000028 0.0
    endloop
  endfacet
  facet normal 0.0 0.0 -1.0
    outer loop
      vertex 0.14819705370750713 1.000000000000004 0.0
      vertex 0.5848466353864936 1.000000000000004 0.0
      vertex 0.3665218445470004 0.7500000000000028 0.0
    endloop
  endfacet
  facet normal 0.0 0.0 -1.0
    outer loop
      vertex 0.5848466353864936 1.000000000000004 0.0
      vertex 0.14819705370750713 1.000000000000004 0.0
      vertex 0.3665218445470003 1.2500000000000036 0.0
    endloop
  endfacet
  facet normal 0.0 0.0 -1.0
    outer loop
      vertex 0.5848466353864936 0.5000000000000018 0.0
      vertex 0.14819705370750713 0.5000000000000018 0.0
      vertex 0.3665218445470004 0.7500000000000028 0.0
    endloop
  endfacet
  facet normal 0.0 0.0 -1.0
    outer loop
      vertex 0.14819705370750713 0.5000000000000018 0.0
      vertex 0.5848466353864936 0.5000000000000018 0.0
      vertex 0.3665218445470004 0.2500000000000008 0.0
    endloop
  endfacet
  facet normal 0.0 -0.0 -1.0
    outer loop
      vertex 0.5848466353864936 4.5 0.0
      vertex 0.5848466353864936 4.0 0.0
      vertex 0.3665218445470003 4.25 0.0
    endloop
  endfacet
  facet normal 0.0 -0.0 -1.0
    outer loop
      vertex 0.5848466353864936 4.0 0.0
      vertex 0.5848466353864936 3.5000000000000004 0.0
      vertex 0.3665218445470004 3.7500000000000004 0.0
    endloop
  endfacet
  facet normal 0.0 -0.0 -1.0
    outer loop
      vertex 0.5848466353864936 3.5000000000000004 0.0
      vertex 0.5848466353864936 3.0000000000000027 0.0
      vertex 0.3665218445470004 3.2500000000000004 0.0
    endloop
  endfacet
  facet normal 0.0 -0.0 -1.0
    outer loop
      vertex 0.5848466353864936 3.0000000000000027 0.0
      vertex 0.5848466353864936 2.5000000000000027 0.0
      vertex 0.3665218445470003 2.7500000000000027 0.0
    endloop
  endfacet
  facet normal 0.0 -0.0 -1.0
    outer loop
      vertex 0.5848466353864936 2.5000000000000027 0.0
      vertex 0.5848466353864936 2.000000000000003 0.0
      vertex 0.3665218445470004 2.2500000000000027 0.0
    endloop
  endfacet
  facet normal 0.0 -0.0 -1.0
    outer loop
      vertex 0.5848466353864936 2.000000000000003 0.0
      vertex 0.5848466353864936 1.5000000000000033 0.0
      vertex 0.3665218445470004 1.750000000000003 0.0
    endloop
  endfacet
  facet normal 0.0 -0.0 -1.0
    outer loop
      vertex 0.5848466353864936 1.5000000000000033 0.0
      vertex 0.5848466353864936 1.000000000000004 0.0
      vertex 0.3665218445470003 1.2500000000000036 0.0
    endloop
  endfacet
  facet normal 0.0 -0.0 -1.0
    outer loop
      vertex 0.5848466353864936 1.000000000000004 0.0
      vertex 0.5848466353864936 0.5000000000000018 0.0
      vertex 0.3665218445470004 0.7500000000000028 0.0
    endloop
  endfacet
  facet normal 0.0 -1.0 0.0
    outer loop
      vertex 0.1089521594820817 0.0 0.013857546554114187
      vertex 0.14819705370750713 0.0 0.0
      vertex 0.08711007961634104 0.0 0.04928517512847442
    endloop
  endfacet
  facet normal 0.0 -1.0 0.0
    outer loop
      vertex 0.08711007961634104 0.0 0.04928517512847442
      vertex 0.14819705370750713 0.0 0.0
      vertex 0.18434804090697118 0.0 0.21609696368054654
    endloop
  endfacet
  facet normal 0.0 -1.0 0.0
    outer loop
      vertex 0.0 0.0 0.4519610507708349
      vertex 0.08711007961634104 0.0 0.04928517512847442
      vertex 0.18434804090697118 0.0 0.21609696368054654
    endloop
  endfacet
  facet normal 0.0 -1.0 0.0
    outer loop
      vertex 0.14819705370750713 0.0 0.0
      vertex 0.5848466353864936 0.0 0.0
      vertex 0.3665218445470004 0.0 0.18907481514292518
    endloop
  endfacet
  facet normal 0.0 -1.0 0.0
    outer loop
      vertex 0.14819705370750713 0.0 0.0
      vertex 0.3665218445470004 0.0 0.18907481514292518
      vertex 0.18434804090697118 0.0 0.21609696368054654
    endloop
  endfacet
  facet normal 0.0 -1.0 0.0
    outer loop
      vertex 0.64593360947766 0.0 0.04928517512847442
      vertex 0.5848466353864936 0.0 0.0
      vertex 0.6240915296119188 0.0 0.013857546554113925
    endloop
  endfacet
  facet normal 0.0 -1.0 0.0
    outer loop
      vertex 0.5848466353864936 0.0 0.0
      vertex 0.64593360947766 0.0 0.04928517512847442
      vertex 0.5288311788396468 0.0 0.2762807379814294
    endloop
  endfacet
  facet normal 0.0 -1.0 0.0
    outer loop
      vertex 0.3665218445470004 0.0 0.18907481514292518
      vertex 0.5848466353864936 0.0 0.0
      vertex 0.5288311788396468 0.0 0.2762807379814294
    endloop
  endfacet
  facet normal 0.0 -1.0 0.0
    outer loop
      vertex 0.64593360947766 0.0 0.04928517512847442
      vertex 0.7330436890940011 0.0 0.4519610507708352
      vertex 0.5288311788396468 0.0 0.2762807379814294
    endloop
  endfacet
  facet normal 0.0 -1.0 -0.0
    outer loop
      vertex 0.07466712387168112 0.0 0.766719365352547
      vertex 0.0 0.0 0.4519610507708349
      vertex 0.391612130673801 0.0 0.5837310803570366
    endloop
  endfacet
  facet normal 0.0 -1.0 0.0
    outer loop
      vertex 0.391612130673801 0.0 0.5837310803570366
      vertex 0.0 0.0 0.4519610507708349
      vertex 0.3015908068993479 0.0 0.3567817432362529
    endloop
  endfacet
  facet normal 0.0 -1.0 0.0
    outer loop
      vertex 0.0 0.0 0.4519610507708349
      vertex 0.18434804090697118 0.0 0.21609696368054654
      vertex 0.3015908068993479 0.0 0.3567817432362529
    endloop
  endfacet
  facet normal 0.0 -1.0 0.0
    outer loop
      vertex 0.7330436890940011 0.0 0.4519610507708352
      vertex 0.6583765652223187 0.0 0.7667193653525487
      vertex 0.391612130673801 0.0 0.5837310803570366
    endloop
  endfacet
  facet normal -0.0 -1.0 0.0
    outer loop
      vertex 0.7330436890940011 0.0 0.4519610507708352
      vertex 0.391612130673801 0.0 0.5837310803570366
      vertex 0.5288311788396468 0.0 0.2762807379814294
    endloop
  endfacet
  facet normal 0.0 -1.0 -0.0
    outer loop
      vertex 0.36652184454699943 0.0 0.90625
      vertex 0.07466712387168112 0.0 0.766719365352547
      vertex 0.391612130673801 0.0 0.5837310803570366
    endloop
  endfacet
  facet normal -0.0 -1.0 0.0
    outer loop
      vertex 0.6583765652223187 0.0 0.7667193653525487
      vertex 0.36652184454699943 0.0 0.90625
      vertex 0.391612130673801 0.0 0.5837310803570366
    endloop
  endfacet
  facet normal 0.0 -1.0 0.0
    outer loop
      vertex 0.18434804090697118 0.0 0.21609696368054654
      vertex 0.3665218445470004 0.0 0.18907481514292518
      vertex 0.3015908068993479 0.0 0.3567817432362529
    endloop
  endfacet
  facet normal 0.0 -1.0 0.0
    outer loop
      vertex 0.3665218445470004 0.0 0.18907481514292518
      vertex 0.5288311788396468 0.0 0.2762807379814294
      vertex 0.3015908068993479 0.0 0.3567817432362529
    endloop
  endfacet
  facet normal 0.0 -1.0 0.0
    outer loop
      vertex 0.5288311788396468 0.0 0.2762807379814294
      vertex 0.391612130673801 0.0 0.5837310803570366
      vertex 0.3015908068993479 0.0 0.3567817432362529
    endloop
  endfacet
endsolid abc_50_027
