solid abc_50_034
  facet normal -0.7022753884780343 0.11669857741850052 0.7022753881252883
    outer loop
      vertex 0.0 0.8138020831552906 1.464843749892357
      vertex 0.16276041666666619 0.8138020829995045 1.6276041666666634
      vertex 0.0671573068472657 1.0460774903706218 1.493403364116502
    endloop
  endfacet
  facet normal -0.7022753842722689 -0.11669862938224572 0.702275383696127
    outer loop
      vertex 0.16276041666666619 0.8138020829995045 1.6276041666666634
      vertex 0.0 0.8138020831552906 1.464843749892357
      vertex 0.0671573177293243 0.581526573979494 1.4934033406466527
    endloop
  endfacet
  facet normal -0.5044572909584326 0.26681659486508563 0.8211770493039122
    outer loop
      vertex 0.16276041666666619 0.8138020829995045 1.6276041666666634
      vertex 0.16276041666666183 1.2921429427758033 1.4721818012966872
      vertex 0.0671573068472657 1.0460774903706218 1.493403364116502
    endloop
  endfacet
  facet normal -0.5044573906904657 -0.2668165219498012 0.8211770117291266
    outer loop
      vertex 0.16276041666666255 0.33546131247860084 1.472181865659439
      vertex 0.16276041666666619 0.8138020829995045 1.6276041666666634
      vertex 0.0671573177293243 0.581526573979494 1.4934033406466527
    endloop
  endfacet
  facet normal -0.48982403017777404 0.2694076028806298 -0.8291513510635535
    outer loop
      vertex 0.16276041666666619 1.2921429430458748 0.15542236556619313
      vertex 0.16276041666666619 0.8138020832602578 0.0
      vertex 0.07364354613701184 1.0695274232420287 0.1357362987778122
    endloop
  endfacet
  facet normal -0.48385750350172413 -0.2704351746271478 -0.8323140829215033
    outer loop
      vertex 0.16276041666666619 0.8138020832602578 0.0
      vertex 0.16276041666666582 0.33546131263043566 0.15542230089690878
      vertex 0.07367897395655433 0.5909022575309395 0.12421113603008174
    endloop
  endfacet
  facet normal -0.7013039543067363 0.12784962724407936 -0.7013039544215368
    outer loop
      vertex 0.16276041666666619 0.8138020832602578 0.0
      vertex 0.08138020833333347 0.8138020833333319 0.08138020833333273
      vertex 0.07364354613701184 1.0695274232420287 0.1357362987778122
    endloop
  endfacet
  facet normal -0.7027563543882751 -0.11075654776844406 -0.7027563542888228
    outer loop
      vertex 0.08138020833333347 0.8138020833333319 0.08138020833333273
      vertex 0.16276041666666619 0.8138020832602578 0.0
      vertex 0.07367897395655433 0.5909022575309395 0.12421113603008174
    endloop
  endfacet
  facet normal -0.7013039548705656 0.12784962711228287 -0.7013039538817345
    outer loop
      vertex 0.08138020833333347 0.8138020833333319 0.08138020833333273
      vertex 0.0 0.813802083294359 0.16276041677430655
      vertex 0.07364354613701184 1.0695274232420287 0.1357362987778122
    endloop
  endfacet
  facet normal -0.7027563547836465 -0.11075654768144666 -0.7027563539071625
    outer loop
      vertex 0.0 0.813802083294359 0.16276041677430655
      vertex 0.08138020833333347 0.8138020833333319 0.08138020833333273
      vertex 0.07367897395655433 0.5909022575309395 0.12421113603008174
    endloop
  endfacet
  facet normal -0.8539520158778641 -0.1991299738805699 -0.48074235103686846
    outer loop
      vertex 3.642463991552344e-15 0.35344615149326164 0.3534460605034245
      vertex 0.0 0.813802083294359 0.16276041677430655
      vertex 0.07367897395655433 0.5909022575309395 0.12421113603008174
    endloop
  endfacet
  facet normal -0.857658558757903 0.1967833212709284 -0.47507696330057847
    outer loop
      vertex 0.0 0.813802083294359 0.16276041677430655
      vertex 2.5497247940866405e-15 1.2741580607155334 0.3534461060455521
      vertex 0.07364354613701184 1.0695274232420287 0.1357362987778122
    endloop
  endfacet
  facet normal -0.8640580799228862 -0.19263980440776318 0.46507369338386984
    outer loop
      vertex 0.0 0.8138020831552906 1.464843749892357
      vertex 2.4404508743400702e-14 0.3534461513870933 1.2741581060570701
      vertex 0.0671573177293243 0.581526573979494 1.4934033406466527
    endloop
  endfacet
  facet normal -0.864058101380166 0.19263981304144182 0.4650736499423089
    outer loop
      vertex 2.2947523146779764e-14 1.2741580605266916 1.2741580608099548
      vertex 0.0 0.8138020831552906 1.464843749892357
      vertex 0.0671573068472657 1.0460774903706218 1.493403364116502
    endloop
  endfacet
  facet normal -0.6268444484611571 0.6303410837448937 0.4579696011491817
    outer loop
      vertex 0.16276041666666183 1.2921429427758033 1.4721818012966872
      vertex 0.16276041666666402 1.5877738607151175 1.0652807477447475
      vertex 2.2947523146779764e-14 1.2741580605266916 1.2741580608099548
    endloop
  endfacet
  facet normal -0.7418591908610173 0.33817077778491506 0.5790383976796204
    outer loop
      vertex 0.16276041666666183 1.2921429427758033 1.4721818012966872
      vertex 2.2947523146779764e-14 1.2741580605266916 1.2741580608099548
      vertex 0.0671573068472657 1.0460774903706218 1.493403364116502
    endloop
  endfacet
  facet normal -0.6026944236209202 0.7979720745340947 1.6366515466050237e-10
    outer loop
      vertex 0.16276041666666402 1.5877738607151175 1.0652807477447475
      vertex 0.16276041666666582 1.587773860818276 0.5623234192394003
      vertex 1.16558847729675e-14 1.4648437499999971 0.8138020834668648
    endloop
  endfacet
  facet normal -0.790126529398389 0.5662862054010345 0.2345634266320186
    outer loop
      vertex 2.2947523146779764e-14 1.2741580605266916 1.2741580608099548
      vertex 0.16276041666666402 1.5877738607151175 1.0652807477447475
      vertex 1.16558847729675e-14 1.4648437499999971 0.8138020834668648
    endloop
  endfacet
  facet normal -0.6268444484611071 0.6303410839327849 -0.45796960089064015
    outer loop
      vertex 0.16276041666666582 1.587773860818276 0.5623234192394003
      vertex 0.16276041666666619 1.2921429430458748 0.15542236556619313
      vertex 2.5497247940866405e-15 1.2741580607155334 0.3534461060455521
    endloop
  endfacet
  facet normal -0.790126529398376 0.5662862054972821 -0.2345634263996989
    outer loop
      vertex 1.16558847729675e-14 1.4648437499999971 0.8138020834668648
      vertex 0.16276041666666582 1.587773860818276 0.5623234192394003
      vertex 2.5497247940866405e-15 1.2741580607155334 0.3534461060455521
    endloop
  endfacet
  facet normal -0.739727008561249 0.3471037131904298 -0.5764746005631486
    outer loop
      vertex 2.5497247940866405e-15 1.2741580607155334 0.3534461060455521
      vertex 0.16276041666666619 1.2921429430458748 0.15542236556619313
      vertex 0.07364354613701184 1.0695274232420287 0.1357362987778122
    endloop
  endfacet
  facet normal -0.6268444168928359 -0.630341064507055 -0.4579696708368287
    outer loop
      vertex 0.16276041666666582 0.33546131263043566 0.15542230089690878
      vertex 0.16276041666666546 0.03983031574919407 0.5623233887678531
      vertex 3.642463991552344e-15 0.35344615149326164 0.3534460605034245
    endloop
  endfacet
  facet normal -0.743662584072094 -0.3303597382321172 -0.5812300787179056
    outer loop
      vertex 0.16276041666666582 0.33546131263043566 0.15542230089690878
      vertex 3.642463991552344e-15 0.35344615149326164 0.3534460605034245
      vertex 0.07367897395655433 0.5909022575309395 0.12421113603008174
    endloop
  endfacet
  facet normal -0.6026943929634822 -0.7979720976891232 -9.201581217808367e-11
    outer loop
      vertex 0.16276041666666546 0.03983031574919407 0.5623233887678531
      vertex 0.16276041666666327 0.03983031569119867 1.0652807777203162
      vertex 1.3841363167898905e-14 0.16276041666666638 0.8138020832582611
    endloop
  endfacet
  facet normal -0.7901265458517508 -0.5662861742622011 -0.2345634463846854
    outer loop
      vertex 3.642463991552344e-15 0.35344615149326164 0.3534460605034245
      vertex 0.16276041666666546 0.03983031574919407 0.5623233887678531
      vertex 1.3841363167898905e-14 0.16276041666666638 0.8138020832582611
    endloop
  endfacet
  facet normal -0.6268444168928887 -0.6303410646126384 0.45796967069143346
    outer loop
      vertex 0.16276041666666327 0.03983031569119867 1.0652807777203162
      vertex 0.16276041666666255 0.33546131247860084 1.472181865659439
      vertex 2.4404508743400702e-14 0.3534461513870933 1.2741581060570701
    endloop
  endfacet
  facet normal -0.7901265458517667 -0.5662861743162643 0.23456344625411144
    outer loop
      vertex 1.3841363167898905e-14 0.16276041666666638 0.8138020832582611
      vertex 0.16276041666666327 0.03983031569119867 1.0652807777203162
      vertex 2.4404508743400702e-14 0.3534461513870933 1.2741581060570701
    endloop
  endfacet
  facet normal -0.7418591779425338 -0.3381707961361354 0.57903840351317
    outer loop
      vertex 2.4404508743400702e-14 0.3534461513870933 1.2741581060570701
      vertex 0.16276041666666255 0.33546131247860084 1.472181865659439
      vertex 0.0671573177293243 0.581526573979494 1.4934033406466527
    endloop
  endfacet
  facet normal 0.7022753885154419 0.1166985775308016 -0.7022753880692193
    outer loop
      vertex 4.99999999999999 0.8138020831552906 0.16276041677430655
      vertex 4.837239583333323 0.8138020831298811 0.0
      vertex 4.9328426933668945 1.0460774904795083 0.13420080281371116
    endloop
  endfacet
  facet normal 0.702275384234435 -0.11669862927503828 -0.7022753837517757
    outer loop
      vertex 4.837239583333323 0.8138020831298811 0.0
      vertex 4.99999999999999 0.8138020831552906 0.16276041677430655
      vertex 4.932842682057667 0.5815265740790367 0.13420082576089337
    endloop
  endfacet
  facet normal 0.5044572913444582 0.26681659502959726 -0.8211770490133198
    outer loop
      vertex 4.837239583333323 0.8138020831298811 0.0
      vertex 4.837239583333323 1.292142943045873 0.1554223655661915
      vertex 4.9328426933668945 1.0460774904795083 0.13420080281371116
    endloop
  endfacet
  facet normal 0.5044573902770401 -0.26681652180498533 -0.8211770120301518
    outer loop
      vertex 4.837239583333323 0.33546131272502683 0.15542230082818495
      vertex 4.837239583333323 0.8138020831298811 0.0
      vertex 4.932842682057667 0.5815265740790367 0.13420082576089337
    endloop
  endfacet
  facet normal 0.4898240304827055 0.26940760259121094 0.829151350977452
    outer loop
      vertex 4.837239583333323 1.2921429427758024 1.4721818012966876
      vertex 4.837239583333323 0.8138020831298811 1.6276041666666634
      vertex 4.926356453872151 1.0695274231574714 1.4918678679109374
    endloop
  endfacet
  facet normal 0.4838575033811673 -0.2704351748253386 0.8323140829271918
    outer loop
      vertex 4.837239583333323 0.8138020831298811 1.6276041666666634
      vertex 4.837239583333323 0.33546131245495586 1.4721818656422596
      vertex 4.926321026037157 0.5909022574785412 1.503393030626243
    endloop
  endfacet
  facet normal 0.7013039542059897 0.12784962722579923 0.7013039545256161
    outer loop
      vertex 4.837239583333323 0.8138020831298811 1.6276041666666634
      vertex 4.918619791666656 0.8138020833333319 1.5462239583333306
      vertex 4.926356453872151 1.0695274231574714 1.4918678679109374
    endloop
  endfacet
  facet normal 0.7027563544765082 -0.11075654777460808 0.7027563541996182
    outer loop
      vertex 4.918619791666656 0.8138020833333319 1.5462239583333306
      vertex 4.837239583333323 0.8138020831298811 1.6276041666666634
      vertex 4.926321026037157 0.5909022574785412 1.503393030626243
    endloop
  endfacet
  facet normal 0.7013039548744585 0.12784962706954295 0.7013039538856333
    outer loop
      vertex 4.918619791666656 0.8138020833333319 1.5462239583333306
      vertex 4.99999999999999 0.813802083294359 1.464843749892357
      vertex 4.926356453872151 1.0695274231574714 1.4918678679109374
    endloop
  endfacet
  facet normal 0.7027563547815922 -0.11075654770747745 0.7027563539051143
    outer loop
      vertex 4.99999999999999 0.813802083294359 1.464843749892357
      vertex 4.918619791666656 0.8138020833333319 1.5462239583333306
      vertex 4.926321026037157 0.5909022574785412 1.503393030626243
    endloop
  endfacet
  facet normal 0.8539520158782336 -0.19912997388033093 0.48074235103631097
    outer loop
      vertex 4.999999999999991 0.35344615149326164 1.2741581061632388
      vertex 4.99999999999999 0.813802083294359 1.464843749892357
      vertex 4.926321026037157 0.5909022574785412 1.503393030626243
    endloop
  endfacet
  facet normal 0.8576585587640737 0.1967833212669847 0.47507696329107235
    outer loop
      vertex 4.99999999999999 0.813802083294359 1.464843749892357
      vertex 4.999999999999991 1.2741580607155334 1.2741580606211111
      vertex 4.926356453872151 1.0695274231574714 1.4918678679109374
    endloop
  endfacet
  facet normal 0.8640580796107507 -0.1926398046127393 -0.46507369387888114
    outer loop
      vertex 4.99999999999999 0.8138020831552906 0.16276041677430655
      vertex 5.0 0.3534461513870933 0.3534460606095933
      vertex 4.932842682057667 0.5815265740790367 0.13420082576089337
    endloop
  endfacet
  facet normal 0.8640581016950462 0.19263981283455694 -0.4650736494429891
    outer loop
      vertex 4.999999999999999 1.2741580605266916 0.35344610585670866
      vertex 4.99999999999999 0.8138020831552906 0.16276041677430655
      vertex 4.9328426933668945 1.0460774904795083 0.13420080281371116
    endloop
  endfacet
  facet normal 0.6268444483396848 0.6303410838239548 0.4579696012066289
    outer loop
      vertex 4.837239583333324 1.5877738607151175 1.0652807477447477
      vertex 4.837239583333323 1.2921429427758024 1.4721818012966876
      vertex 4.999999999999991 1.2741580607155334 1.2741580606211111
    endloop
  endfacet
  facet normal 0.7397270086332025 0.3471037130854738 0.5764746005340141
    outer loop
      vertex 4.999999999999991 1.2741580607155334 1.2741580606211111
      vertex 4.837239583333323 1.2921429427758024 1.4721818012966876
      vertex 4.926356453872151 1.0695274231574714 1.4918678679109374
    endloop
  endfacet
  facet normal 0.6026944236208777 0.7979720745341267 1.6366554765115018e-10
    outer loop
      vertex 4.837239583333323 1.5877738608182757 0.5623234192393989
      vertex 4.837239583333324 1.5877738607151175 1.0652807477447477
      vertex 4.999999999999995 1.4648437499999971 0.8138020831997986
    endloop
  endfacet
  facet normal 0.7901265294354101 0.5662862054531692 0.23456342638144853
    outer loop
      vertex 4.999999999999995 1.4648437499999971 0.8138020831997986
      vertex 4.837239583333324 1.5877738607151175 1.0652807477447477
      vertex 4.999999999999991 1.2741580607155334 1.2741580606211111
    endloop
  endfacet
  facet normal 0.626844448582484 0.6303410838537827 -0.45796960083324306
    outer loop
      vertex 4.837239583333323 1.292142943045873 0.1554223655661915
      vertex 4.837239583333323 1.5877738608182757 0.5623234192393989
      vertex 4.999999999999999 1.2741580605266916 0.35344610585670866
    endloop
  endfacet
  facet normal 0.7901265293612886 0.5662862054452282 -0.23456342665029725
    outer loop
      vertex 4.999999999999999 1.2741580605266916 0.35344610585670866
      vertex 4.837239583333323 1.5877738608182757 0.5623234192393989
      vertex 4.999999999999995 1.4648437499999971 0.8138020831997986
    endloop
  endfacet
  facet normal 0.741859190754706 0.3381707780097774 -0.579038397684501
    outer loop
      vertex 4.837239583333323 1.292142943045873 0.1554223655661915
      vertex 4.999999999999999 1.2741580605266916 0.35344610585670866
      vertex 4.9328426933668945 1.0460774904795083 0.13420080281371116
    endloop
  endfacet
  facet normal 0.6268444167742128 -0.6303410645266908 -0.4579696709721672
    outer loop
      vertex 4.837239583333324 0.03983031577629137 0.5623233886844561
      vertex 4.837239583333323 0.33546131272502683 0.15542230082818495
      vertex 5.0 0.3534461513870933 0.3534460606095933
    endloop
  endfacet
  facet normal 0.7418591780413893 -0.3381707959225275 -0.5790384035112682
    outer loop
      vertex 5.0 0.3534461513870933 0.3534460606095933
      vertex 4.837239583333323 0.33546131272502683 0.15542230082818495
      vertex 4.932842682057667 0.5815265740790367 0.13420082576089337
    endloop
  endfacet
  facet normal 0.6026943929493346 -0.7979720976998088 -1.6366638041446634e-10
    outer loop
      vertex 4.837239583333323 0.03983031567313269 1.0652807776647177
      vertex 4.837239583333324 0.03983031577629137 0.5623233886844561
      vertex 4.999999999999996 0.16276041666666638 0.8138020834084023
    endloop
  endfacet
  facet normal 0.790126545882286 -0.5662861742799267 -0.23456344623903422
    outer loop
      vertex 4.999999999999996 0.16276041666666638 0.8138020834084023
      vertex 4.837239583333324 0.03983031577629137 0.5623233886844561
      vertex 5.0 0.3534461513870933 0.3534460606095933
    endloop
  endfacet
  facet normal 0.6268444169638958 -0.630341064591093 0.4579696706238975
    outer loop
      vertex 4.837239583333323 0.33546131245495586 1.4721818656422596
      vertex 4.837239583333323 0.03983031567313269 1.0652807776647177
      vertex 4.999999999999991 0.35344615149326164 1.2741581061632388
    endloop
  endfacet
  facet normal 0.7901265458243998 -0.5662861742947659 0.23456344639819943
    outer loop
      vertex 4.999999999999991 0.35344615149326164 1.2741581061632388
      vertex 4.837239583333323 0.03983031567313269 1.0652807776647177
      vertex 4.999999999999996 0.16276041666666638 0.8138020834084023
    endloop
  endfacet
  facet normal 0.7436625840166445 -0.33035973830547505 0.5812300787471559
    outer loop
      vertex 4.837239583333323 0.33546131245495586 1.4721818656422596
      vertex 4.999999999999991 0.35344615149326164 1.2741581061632388
      vertex 4.926321026037157 0.5909022574785412 1.503393030626243
    endloop
  endfacet
  facet normal 1.0 2.1386868164196532e-15 -5.054326094961782e-16
    outer loop
      vertex 4.999999999999991 0.35344615149326164 1.2741581061632388
      vertex 4.99999999999999 0.7158364449762672 1.0503120889022024
      vertex 4.99999999999999 0.813802083294359 1.464843749892357
    endloop
  endfacet
  facet normal 1.0 -2.5023804381578056e-15 -1.3834670750376998e-15
    outer loop
      vertex 4.99999999999999 0.813802083294359 1.464843749892357
      vertex 4.99999999999999 1.1052628841592074 0.9376567862603317
      vertex 4.999999999999991 1.2741580607155334 1.2741580606211111
    endloop
  endfacet
  facet normal 1.0 -0.0 0.0
    outer loop
      vertex 4.99999999999999 0.7158364449762672 1.0503120889022024
      vertex 4.99999999999999 1.1052628841592074 0.9376567862603317
      vertex 4.99999999999999 0.813802083294359 1.464843749892357
    endloop
  endfacet
  facet normal 1.0 2.750562877978455e-14 1.5168508183998042e-14
    outer loop
      vertex 4.99999999999999 0.8138020831552906 0.16276041677430655
      vertex 4.99999999999999 0.5201302013533772 0.6952867315522924
      vertex 5.0 0.3534461513870933 0.3534460606095933
    endloop
  endfacet
  facet normal 1.0 -2.059184793199041e-14 3.1349813742714985e-15
    outer loop
      vertex 4.999999999999999 1.2741580605266916 0.35344610585670866
      vertex 4.99999999999999 0.8862799767412749 0.6388250516081856
      vertex 4.99999999999999 0.8138020831552906 0.16276041677430655
    endloop
  endfacet
  facet normal 1.0 0.0 0.0
    outer loop
      vertex 4.99999999999999 0.8862799767412749 0.6388250516081856
      vertex 4.99999999999999 0.5201302013533772 0.6952867315522924
      vertex 4.99999999999999 0.8138020831552906 0.16276041677430655
    endloop
  endfacet
  facet normal 1.0 2.0995085453895747e-14 1.8343097462820315e-14
    outer loop
      vertex 5.0 0.3534461513870933 0.3534460606095933
      vertex 4.99999999999999 0.5201302013533772 0.6952867315522924
      vertex 4.999999999999996 0.16276041666666638 0.8138020834084023
    endloop
  endfacet
  facet normal 1.0 1.592368008615864e-14 3.050841936906296e-15
    outer loop
      vertex 4.999999999999996 0.16276041666666638 0.8138020834084023
      vertex 4.99999999999999 0.5201302013533772 0.6952867315522924
      vertex 4.999999999999991 0.35344615149326164 1.2741581061632388
    endloop
  endfacet
  facet normal 1.0 1.828338422567796e-15 -1.0078639098431546e-15
    outer loop
      vertex 4.999999999999991 0.35344615149326164 1.2741581061632388
      vertex 4.99999999999999 0.5201302013533772 0.6952867315522924
      vertex 4.99999999999999 0.7158364449762672 1.0503120889022024
    endloop
  endfacet
  facet normal 1.0 -1.1304924422227058e-14 3.034665436223551e-15
    outer loop
      vertex 4.999999999999991 1.2741580607155334 1.2741580606211111
      vertex 4.99999999999999 1.1052628841592074 0.9376567862603317
      vertex 4.999999999999995 1.4648437499999971 0.8138020831997986
    endloop
  endfacet
  facet normal 1.0 -7.90032216926994e-15 1.2919068657984868e-14
    outer loop
      vertex 4.999999999999995 1.4648437499999971 0.8138020831997986
      vertex 4.99999999999999 1.1052628841592074 0.9376567862603317
      vertex 4.999999999999999 1.2741580605266916 0.35344610585670866
    endloop
  endfacet
  facet normal 1.0 -1.4877289891240543e-14 1.0902028858064836e-14
    outer loop
      vertex 4.999999999999999 1.2741580605266916 0.35344610585670866
      vertex 4.99999999999999 1.1052628841592074 0.9376567862603317
      vertex 4.99999999999999 0.8862799767412749 0.6388250516081856
    endloop
  endfacet
  facet normal 1.0 0.0 0.0
    outer loop
      vertex 4.99999999999999 0.7158364449762672 1.0503120889022024
      vertex 4.99999999999999 0.5201302013533772 0.6952867315522924
      vertex 4.99999999999999 0.8862799767412749 0.6388250516081856
    endloop
  endfacet
  facet normal 1.0 0.0 -0.0
    outer loop
      vertex 4.99999999999999 0.8862799767412749 0.6388250516081856
      vertex 4.99999999999999 1.1052628841592074 0.9376567862603317
      vertex 4.99999999999999 0.7158364449762672 1.0503120889022024
    endloop
  endfacet
  facet normal -1.0 -8.770861287810239e-15 -2.0728043368445557e-15
    outer loop
      vertex 0.0 0.813802083294359 0.16276041677430655
      vertex 3.642463991552344e-15 0.35344615149326164 0.3534460605034245
      vertex 0.0 0.7158364449762674 0.5772920777644607
    endloop
  endfacet
  facet normal -1.0 7.183661350005725e-15 -3.971544225747818e-15
    outer loop
      vertex 2.5497247940866405e-15 1.2741580607155334 0.3534461060455521
      vertex 0.0 0.813802083294359 0.16276041677430655
      vertex 0.0 1.1052625931933378 0.6899492080863342
    endloop
  endfacet
  facet normal -1.0 0.0 0.0
    outer loop
      vertex 0.0 0.813802083294359 0.16276041677430655
      vertex 0.0 0.7158364449762674 0.5772920777644607
      vertex 0.0 1.1052625931933378 0.6899492080863342
    endloop
  endfacet
  facet normal -1.0 -6.870656793272824e-14 3.788941427654741e-14
    outer loop
      vertex 2.4404508743400702e-14 0.3534461513870933 1.2741581060570701
      vertex 0.0 0.8138020831552906 1.464843749892357
      vertex 0.0 0.520131062304807 0.9323169655860994
    endloop
  endfacet
  facet normal -1.0 5.320237315169959e-14 8.099754897083267e-15
    outer loop
      vertex 0.0 0.8138020831552906 1.464843749892357
      vertex 2.2947523146779764e-14 1.2741580605266916 1.2741580608099548
      vertex 0.0 0.886280127322826 0.9887794738615925
    endloop
  endfacet
  facet normal -1.0 0.0 -0.0
    outer loop
      vertex 0.0 0.8138020831552906 1.464843749892357
      vertex 0.0 0.886280127322826 0.9887794738615925
      vertex 0.0 0.520131062304807 0.9323169655860994
    endloop
  endfacet
  facet normal -1.0 -5.371983060140291e-14 4.519708641214069e-14
    outer loop
      vertex 1.3841363167898905e-14 0.16276041666666638 0.8138020832582611
      vertex 2.4404508743400702e-14 0.3534461513870933 1.2741581060570701
      vertex 0.0 0.520131062304807 0.9323169655860994
    endloop
  endfacet
  facet normal -1.0 -4.0513065420348704e-14 5.373309795724736e-15
    outer loop
      vertex 3.642463991552344e-15 0.35344615149326164 0.3534460605034245
      vertex 1.3841363167898905e-14 0.16276041666666638 0.8138020832582611
      vertex 0.0 0.520131062304807 0.9323169655860994
    endloop
  endfacet
  facet normal -1.0 -7.498112907778861e-15 -4.133290668534477e-15
    outer loop
      vertex 0.0 0.7158364449762674 0.5772920777644607
      vertex 3.642463991552344e-15 0.35344615149326164 0.3534460605034245
      vertex 0.0 0.520131062304807 0.9323169655860994
    endloop
  endfacet
  facet normal -1.0 2.9862464666958605e-14 7.411254523597635e-15
    outer loop
      vertex 1.16558847729675e-14 1.4648437499999971 0.8138020834668648
      vertex 2.5497247940866405e-15 1.2741580607155334 0.3534461060455521
      vertex 0.0 1.1052625931933378 0.6899492080863342
    endloop
  endfacet
  facet normal -1.0 2.0974390605984273e-14 3.321593562453245e-14
    outer loop
      vertex 2.2947523146779764e-14 1.2741580605266916 1.2741580608099548
      vertex 1.16558847729675e-14 1.4648437499999971 0.8138020834668648
      vertex 0.0 1.1052625931933378 0.6899492080863342
    endloop
  endfacet
  facet normal -1.0 3.8437867476012375e-14 2.816722389502368e-14
    outer loop
      vertex 0.0 0.886280127322826 0.9887794738615925
      vertex 2.2947523146779764e-14 1.2741580605266916 1.2741580608099548
      vertex 0.0 1.1052625931933378 0.6899492080863342
    endloop
  endfacet
  facet normal -1.0 0.0 0.0
    outer loop
      vertex 0.0 0.886280127322826 0.9887794738615925
      vertex 0.0 0.7158364449762674 0.5772920777644607
      vertex 0.0 0.520131062304807 0.9323169655860994
    endloop
  endfacet
  facet normal -1.0 0.0 0.0
    outer loop
      vertex 0.0 0.7158364449762674 0.5772920777644607
      vertex 0.0 0.886280127322826 0.9887794738615925
      vertex 0.0 1.1052625931933378 0.6899492080863342
    endloop
  endfacet
  facet normal -0.07820176640182382 0.30807064341463203 0.9481439565792367
    outer loop
      vertex 0.16276041666666183 1.2921429427758033 1.4721818012966872
      vertex 0.16276041666666619 0.8138020829995045 1.6276041666666634
      vertex 0.6651441227166617 1.0402186277406167 1.5954729726827654
    endloop
  endfacet
  facet normal -0.11116727462415525 -0.3071015513045401 0.9451616127620621
    outer loop
      vertex 0.16276041666666619 0.8138020829995045 1.6276041666666634
      vertex 0.16276041666666255 0.33546131247860084 1.472181865659439
      vertex 0.5188311378575959 0.5623234634510197 1.5877738751834989
    endloop
  endfacet
  facet normal 0.08226746743828112 -0.04122918842642676 0.9957571078445735
    outer loop
      vertex 0.6651441227166617 1.0402186277406167 1.5954729726827654
      vertex 0.16276041666666619 0.8138020829995045 1.6276041666666634
      vertex 0.5188311378575959 0.5623234634510197 1.5877738751834989
    endloop
  endfacet
  facet normal -0.08671983269077871 0.30785284444673716 -0.9474736390972238
    outer loop
      vertex 0.16276041666666619 0.8138020832602578 0.0
      vertex 0.16276041666666619 1.2921429430458748 0.15542236556619313
      vertex 0.5337188030091233 1.1680589371725862 0.08115215850866904
    endloop
  endfacet
  facet normal -0.08556712560960658 -0.30788357980338177 -0.9475684504574667
    outer loop
      vertex 0.16276041666666582 0.33546131263043566 0.15542230089690878
      vertex 0.16276041666666619 0.8138020832602578 0.0
      vertex 0.5356007611194592 0.45776708940334 0.0820146046655551
    endloop
  endfacet
  facet normal 3.1582315761858813e-11 -0.22447666496110283 -0.9744794645799063
    outer loop
      vertex 0.16276041666666619 0.8138020832602578 0.0
      vertex 0.6821469907407378 0.8138020833333319 0.0
      vertex 0.5356007611194592 0.45776708940334 0.0820146046655551
    endloop
  endfacet
  facet normal -3.141582082022529e-11 0.22329327392946982 -0.9747513087028192
    outer loop
      vertex 0.6821469907407378 0.8138020833333319 0.0
      vertex 0.16276041666666619 0.8138020832602578 0.0
      vertex 0.5337188030091233 1.1680589371725862 0.08115215850866904
    endloop
  endfacet
  facet normal 0.08671983272087408 0.30785284437002974 -0.947473639119393
    outer loop
      vertex 4.837239583333323 1.292142943045873 0.1554223655661915
      vertex 4.837239583333323 0.8138020831298811 0.0
      vertex 4.466281196990866 1.1680589371725842 0.08115215850866786
    endloop
  endfacet
  facet normal 0.08668846564723143 -0.30785362408845335 -0.9474762561981878
    outer loop
      vertex 4.837239583333323 0.8138020831298811 0.0
      vertex 4.837239583333323 0.33546131272502683 0.15542230082818495
      vertex 4.466230129971953 0.45949684707562355 0.0811755547404608
    endloop
  endfacet
  facet normal 8.74670237990485e-11 0.22329327390715434 -0.9747513087079311
    outer loop
      vertex 4.837239583333323 0.8138020831298811 0.0
      vertex 4.317853009259249 0.8138020833333319 0.0
      vertex 4.466281196990866 1.1680589371725842 0.08115215850866786
    endloop
  endfacet
  facet normal -8.74796313239396e-11 -0.22332545947134214 -0.9747439351706242
    outer loop
      vertex 4.317853009259249 0.8138020833333319 0.0
      vertex 4.837239583333323 0.8138020831298811 0.0
      vertex 4.466230129971953 0.45949684707562355 0.0811755547404608
    endloop
  endfacet
  facet normal 0.07410840453546289 0.3081672542203215 0.9484412938097516
    outer loop
      vertex 4.837239583333323 0.8138020831298811 1.6276041666666634
      vertex 4.837239583333323 1.2921429427758024 1.4721818012966876
      vertex 4.302714885073797 1.0526203969547514 1.5917735763307888
    endloop
  endfacet
  facet normal 0.0914432785468626 -0.3077222356740624 0.9470718834810575
    outer loop
      vertex 4.837239583333323 0.33546131245495586 1.4721818656422596
      vertex 4.837239583333323 0.8138020831298811 1.6276041666666634
      vertex 4.403490766279265 0.5623234634991214 1.5877738751991282
    endloop
  endfacet
  facet normal -0.07756707885522579 -0.024073939276764388 0.9966964401088055
    outer loop
      vertex 4.403490766279265 0.5623234634991214 1.5877738751991282
      vertex 4.837239583333323 0.8138020831298811 1.6276041666666634
      vertex 4.302714885073797 1.0526203969547514 1.5917735763307888
    endloop
  endfacet
  facet normal -0.10511872104844203 0.8045347830994435 0.584528730917712
    outer loop
      vertex 0.16276041666666402 1.5877738607151175 1.0652807477447475
      vertex 0.16276041666666183 1.2921429427758033 1.4721818012966872
      vertex 0.5395690203808572 1.4721818004668794 1.2921429439179366
    endloop
  endfacet
  facet normal 0.09999071179645715 0.5911017672523438 0.8003752609280187
    outer loop
      vertex 0.16276041666666183 1.2921429427758033 1.4721818012966872
      vertex 0.6651441227166617 1.0402186277406167 1.5954729726827654
      vertex 0.5395690203808572 1.4721818004668794 1.2921429439179366
    endloop
  endfacet
  facet normal -0.11405411787238413 0.9934745382727995 2.0376525751835072e-10
    outer loop
      vertex 0.16276041666666582 1.587773860818276 0.5623234192394003
      vertex 0.16276041666666402 1.5877738607151175 1.0652807477447475
      vertex 0.5091217757144403 1.627537274675703 0.8033680424734463
    endloop
  endfacet
  facet normal 0.11376695482434658 0.94885449476607 0.29450335779447606
    outer loop
      vertex 0.5091217757144403 1.627537274675703 0.8033680424734463
      vertex 0.16276041666666402 1.5877738607151175 1.0652807477447475
      vertex 0.5395690203808572 1.4721818004668794 1.2921429439179366
    endloop
  endfacet
  facet normal -0.0986397738031746 0.805071587380748 -0.584918741549885
    outer loop
      vertex 0.16276041666666619 1.2921429430458748 0.15542236556619313
      vertex 0.16276041666666582 1.587773860818276 0.5623234192394003
      vertex 0.5645511858341858 1.4735885607997214 0.3374034739838039
    endloop
  endfacet
  facet normal 0.10081405354641738 0.9481920103629841 -0.3012780079782504
    outer loop
      vertex 0.16276041666666582 1.587773860818276 0.5623234192394003
      vertex 0.5091217757144403 1.627537274675703 0.8033680424734463
      vertex 0.5645511858341858 1.4735885607997214 0.3374034739838039
    endloop
  endfacet
  facet normal 0.05966488317953898 0.6379269001885323 -0.7677821121457716
    outer loop
      vertex 0.16276041666666619 1.2921429430458748 0.15542236556619313
      vertex 0.5645511858341858 1.4735885607997214 0.3374034739838039
      vertex 0.5337188030091233 1.1680589371725862 0.08115215850866904
    endloop
  endfacet
  facet normal -0.0797965811916378 -0.8064371266253967 -0.5859109714199763
    outer loop
      vertex 0.16276041666666546 0.03983031574919407 0.5623233887678531
      vertex 0.16276041666666582 0.33546131263043566 0.15542230089690878
      vertex 0.651177617925242 0.13573567023970365 0.36380233858672417
    endloop
  endfacet
  facet normal 0.06146018070105184 -0.6446897071408919 -0.7619697026094836
    outer loop
      vertex 0.651177617925242 0.13573567023970365 0.36380233858672417
      vertex 0.16276041666666582 0.33546131263043566 0.15542230089690878
      vertex 0.5356007611194592 0.45776708940334 0.0820146046655551
    endloop
  endfacet
  facet normal -0.11833237382159308 -0.9929740426142803 -1.1449913585153508e-10
    outer loop
      vertex 0.16276041666666327 0.03983031569119867 1.0652807777203162
      vertex 0.16276041666666546 0.03983031574919407 0.5623233887678531
      vertex 0.4969924475301356 0.0 0.8138020832394933
    endloop
  endfacet
  facet normal 0.08240037661365174 -0.9615934672584598 -0.26181707671536947
    outer loop
      vertex 0.16276041666666546 0.03983031574919407 0.5623233887678531
      vertex 0.651177617925242 0.13573567023970365 0.36380233858672417
      vertex 0.4969924475301356 0.0 0.8138020832394933
    endloop
  endfacet
  facet normal -0.09144333802995626 -0.805627391894074 0.5853226643142151
    outer loop
      vertex 0.16276041666666255 0.33546131247860084 1.472181865659439
      vertex 0.16276041666666327 0.03983031569119867 1.0652807777203162
      vertex 0.5965092958138299 0.1554224076441249 1.2921430009611736
    endloop
  endfacet
  facet normal 0.10315231998326037 -0.9520910438503608 0.28789276319838525
    outer loop
      vertex 0.5965092958138299 0.1554224076441249 1.2921430009611736
      vertex 0.16276041666666327 0.03983031569119867 1.0652807777203162
      vertex 0.4969924475301356 0.0 0.8138020832394933
    endloop
  endfacet
  facet normal 0.10033808597133152 -0.5722110042951337 0.8139452285425378
    outer loop
      vertex 0.16276041666666255 0.33546131247860084 1.472181865659439
      vertex 0.5965092958138299 0.1554224076441249 1.2921430009611736
      vertex 0.5188311378575959 0.5623234634510197 1.5877738751834989
    endloop
  endfacet
  facet normal 0.09980683434104372 0.8049774386732159 0.5848503390149726
    outer loop
      vertex 4.837239583333323 1.2921429427758024 1.4721818012966876
      vertex 4.837239583333324 1.5877738607151175 1.0652807477447477
      vertex 4.440197278390509 1.4706947486235769 1.2941830333360862
    endloop
  endfacet
  facet normal -0.08905874465863697 0.5968710854917886 0.7973791114041562
    outer loop
      vertex 4.302714885073797 1.0526203969547514 1.5917735763307888
      vertex 4.837239583333323 1.2921429427758024 1.4721818012966876
      vertex 4.440197278390509 1.4706947486235769 1.2941830333360862
    endloop
  endfacet
  facet normal 0.09136468864527648 0.9958175001820121 2.0424517703896855e-10
    outer loop
      vertex 4.837239583333324 1.5877738607151175 1.0652807477447477
      vertex 4.837239583333323 1.5877738608182757 0.5623234192393989
      vertex 4.4034860741202495 1.6275700626905265 0.8212523592059914
    endloop
  endfacet
  facet normal -0.0935271642255269 0.9427923293674231 0.3199926455996754
    outer loop
      vertex 4.837239583333324 1.5877738607151175 1.0652807477447477
      vertex 4.4034860741202495 1.6275700626905265 0.8212523592059914
      vertex 4.440197278390509 1.4706947486235769 1.2941830333360862
    endloop
  endfacet
  facet normal 0.08104952509067082 0.8063553917676445 -0.5858514800269992
    outer loop
      vertex 4.837239583333323 1.5877738608182757 0.5623234192393989
      vertex 4.837239583333323 1.292142943045873 0.1554223655661915
      vertex 4.349768401676118 1.482379499376313 0.34982140529278966
    endloop
  endfacet
  facet normal -0.08235791076750718 0.9550566449985445 -0.2847524879226439
    outer loop
      vertex 4.4034860741202495 1.6275700626905265 0.8212523592059914
      vertex 4.837239583333323 1.5877738608182757 0.5623234192393989
      vertex 4.349768401676118 1.482379499376313 0.34982140529278966
    endloop
  endfacet
  facet normal -0.05867148728386583 0.6359723218114728 -0.7694783053924417
    outer loop
      vertex 4.349768401676118 1.482379499376313 0.34982140529278966
      vertex 4.837239583333323 1.292142943045873 0.1554223655661915
      vertex 4.466281196990866 1.1680589371725842 0.08115215850866786
    endloop
  endfacet
  facet normal 0.11566611720490798 -0.8035869450563178 -0.5838401930886525
    outer loop
      vertex 4.837239583333323 0.33546131272502683 0.15542230082818495
      vertex 4.837239583333324 0.03983031577629137 0.5623233886844561
      vertex 4.495194995035513 0.15531966313417253 0.3356026133144613
    endloop
  endfacet
  facet normal -0.06263429578893788 -0.6438339667027391 -0.7625973828376545
    outer loop
      vertex 4.837239583333323 0.33546131272502683 0.15542230082818495
      vertex 4.495194995035513 0.15531966313417253 0.3356026133144613
      vertex 4.466230129971953 0.45949684707562355 0.0811755547404608
    endloop
  endfacet
  facet normal 0.10222034096193601 -0.9947617814801821 -2.0402965881300963e-10
    outer loop
      vertex 4.837239583333324 0.03983031577629137 0.5623233886844561
      vertex 4.837239583333323 0.03983031567313269 1.0652807776647177
      vertex 4.450060145817325 4.429372939796655e-05 0.822292707373477
    endloop
  endfacet
  facet normal -0.11216099395119565 -0.9436177898347926 -0.3114568640168025
    outer loop
      vertex 4.837239583333324 0.03983031577629137 0.5623233886844561
      vertex 4.450060145817325 4.429372939796655e-05 0.822292707373477
      vertex 4.495194995035513 0.15531966313417253 0.3356026133144613
    endloop
  endfacet
  facet normal 0.09437351552538009 -0.8054061896075076 0.58516195135133
    outer loop
      vertex 4.837239583333323 0.03983031567313269 1.0652807776647177
      vertex 4.837239583333323 0.33546131245495586 1.4721818656422596
      vertex 4.417149461847805 0.15744114443319396 1.2949092945906568
    endloop
  endfacet
  facet normal -0.0963372865988485 -0.9463476015319066 0.30845638960083016
    outer loop
      vertex 4.450060145817325 4.429372939796655e-05 0.822292707373477
      vertex 4.837239583333323 0.03983031567313269 1.0652807776647177
      vertex 4.417149461847805 0.15744114443319396 1.2949092945906568
    endloop
  endfacet
  facet normal -0.09167946179647113 -0.5856420342595182 0.8053684150704463
    outer loop
      vertex 4.837239583333323 0.33546131245495586 1.4721818656422596
      vertex 4.403490766279265 0.5623234634991214 1.5877738751991282
      vertex 4.417149461847805 0.15744114443319396 1.2949092945906568
    endloop
  endfacet
  facet normal 0.0 0.2763583288520956 -0.9610546675783209
    outer loop
      vertex 1.2015335648148089 0.8138020833333319 0.0
      vertex 0.6821469907407378 0.8138020833333319 0.0
      vertex 0.9418402777777733 1.2460863637165522 0.12430652006172344
    endloop
  endfacet
  facet normal 0.0 -0.26744086215427093 -0.9635742759383836
    outer loop
      vertex 0.6821469907407378 0.8138020833333319 0.0
      vertex 1.2015335648148089 0.8138020833333319 0.0
      vertex 0.9670118170230564 0.39436989728737165 0.11641376098603443
    endloop
  endfacet
  facet normal 0.05550974944264813 0.24498961671377043 -0.9679353053893912
    outer loop
      vertex 0.9418402777777733 1.2460863637165522 0.12430652006172344
      vertex 0.6821469907407378 0.8138020833333319 0.0
      vertex 0.5337188030091233 1.1680589371725862 0.08115215850866904
    endloop
  endfacet
  facet normal 0.04195702429452921 -0.24064673000348008 -0.9697055014028643
    outer loop
      vertex 0.6821469907407378 0.8138020833333319 0.0
      vertex 0.9670118170230564 0.39436989728737165 0.11641376098603443
      vertex 0.5356007611194592 0.45776708940334 0.0820146046655551
    endloop
  endfacet
  facet normal 0.0 -0.272686379111219 -0.962102977153284
    outer loop
      vertex 1.2015335648148089 0.8138020833333319 0.0
      vertex 1.7209201388888806 0.8138020833333319 0.0
      vertex 1.4733636455042023 0.38679626111319354 0.12102516496221925
    endloop
  endfacet
  facet normal 0.0 0.2986670344910377 -0.9543573767244268
    outer loop
      vertex 1.7209201388888806 0.8138020833333319 0.0
      vertex 1.2015335648148089 0.8138020833333319 0.0
      vertex 1.4437455179652758 1.2777263794774236 0.14518554279243245
    endloop
  endfacet
  facet normal 0.00473217414220255 -0.2698937004454067 -0.9628784954436218
    outer loop
      vertex 1.2015335648148089 0.8138020833333319 0.0
      vertex 1.4733636455042023 0.38679626111319354 0.12102516496221925
      vertex 0.9670118170230564 0.39436989728737165 0.11641376098603443
    endloop
  endfacet
  facet normal 0.02164981512287951 0.28828468829049936 -0.9572999655292977
    outer loop
      vertex 1.2015335648148089 0.8138020833333319 0.0
      vertex 0.9418402777777733 1.2460863637165522 0.12430652006172344
      vertex 1.4437455179652758 1.2777263794774236 0.14518554279243245
    endloop
  endfacet
  facet normal 0.0 0.2763583288519906 -0.9610546675783511
    outer loop
      vertex 2.2403067129629517 0.8138020833333319 0.0
      vertex 1.7209201388888806 0.8138020833333319 0.0
      vertex 1.9806134259259163 1.2460863637164008 0.12430652006162873
    endloop
  endfacet
  facet normal 0.0 -0.2749217329431428 -0.9614666092774825
    outer loop
      vertex 1.7209201388888806 0.8138020833333319 0.0
      vertex 2.2403067129629517 0.8138020833333319 0.0
      vertex 1.9841619456300998 0.383580621110785 0.12301751179111438
    endloop
  endfacet
  facet normal -0.020293475011428377 0.2875425867137799 -0.957552837026714
    outer loop
      vertex 1.9806134259259163 1.2460863637164008 0.12430652006162873
      vertex 1.7209201388888806 0.8138020833333319 0.0
      vertex 1.4437455179652758 1.2777263794774236 0.14518554279243245
    endloop
  endfacet
  facet normal 0.0020279330647126996 -0.2737739154575033 -0.9617919373245717
    outer loop
      vertex 1.4733636455042023 0.38679626111319354 0.12102516496221925
      vertex 1.7209201388888806 0.8138020833333319 0.0
      vertex 1.9841619456300998 0.383580621110785 0.12301751179111438
    endloop
  endfacet
  facet normal 0.0 -0.2769129386963891 -0.9608950121540489
    outer loop
      vertex 2.2403067129629517 0.8138020833333319 0.0
      vertex 2.7596932870370243 0.8138020833333319 0.0
      vertex 2.4969756704339443 0.3807222304780586 0.12480594989822605
    endloop
  endfacet
  facet normal 0.0 0.2759109174616368 -0.9611832112690472
    outer loop
      vertex 2.7596932870370243 0.8138020833333319 0.0
      vertex 2.2403067129629517 0.8138020833333319 0.0
      vertex 2.5012613786455367 1.2454442409992887 0.12390435282311492
    endloop
  endfacet
  facet normal 0.0018141541521102642 -0.2759196045797797 -0.9611790055204339
    outer loop
      vertex 2.2403067129629517 0.8138020833333319 0.0
      vertex 2.4969756704339443 0.3807222304780586 0.12480594989822605
      vertex 1.9841619456300998 0.383580621110785 0.12301751179111438
    endloop
  endfacet
  facet normal -0.0004018409656191615 0.2761353315456847 -0.9611186800785807
    outer loop
      vertex 2.2403067129629517 0.8138020833333319 0.0
      vertex 1.9806134259259163 1.2460863637164008 0.12430652006162873
      vertex 2.5012613786455367 1.2454442409992887 0.12390435282311492
    endloop
  endfacet
  facet normal 0.0 0.2763583288521136 -0.9610546675783158
    outer loop
      vertex 3.279079861111099 0.8138020833333319 0.0
      vertex 2.7596932870370243 0.8138020833333319 0.0
      vertex 3.019386574074062 1.2460863637165775 0.12430652006173946
    endloop
  endfacet
  facet normal 0.0 -0.2770956864533091 -0.9608423286621844
    outer loop
      vertex 2.7596932870370243 0.8138020833333319 0.0
      vertex 3.279079861111099 0.8138020833333319 0.0
      vertex 3.0159743765929927 0.38046018125969283 0.12497073478357835
    endloop
  endfacet
  facet normal 0.00016521719260766338 -0.27700547338483367 -0.9608683262643865
    outer loop
      vertex 2.4969756704339443 0.3807222304780586 0.12480594989822605
      vertex 2.7596932870370243 0.8138020833333319 0.0
      vertex 3.0159743765929927 0.38046018125969283 0.12497073478357835
    endloop
  endfacet
  facet normal 0.0004037991224473372 0.2761342447421347 -0.9611189915025921
    outer loop
      vertex 3.019386574074062 1.2460863637165775 0.12430652006173946
      vertex 2.7596932870370243 0.8138020833333319 0.0
      vertex 2.5012613786455367 1.2454442409992887 0.12390435282311492
    endloop
  endfacet
  facet normal 0.0 -0.2773748100643251 -0.9607617887602419
    outer loop
      vertex 3.279079861111099 0.8138020833333319 0.0
      vertex 3.798466435185174 0.8138020833333319 0.0
      vertex 3.5360350577438675 0.3800600281991643 0.12522263225621777
    endloop
  endfacet
  facet normal 0.0 0.275740310977281 -0.9612321680541868
    outer loop
      vertex 3.798466435185174 0.8138020833333319 0.0
      vertex 3.279079861111099 0.8138020833333319 0.0
      vertex 3.5405155587777575 1.2451993114267992 0.12375117040665248
    endloop
  endfacet
  facet normal -0.0005543714128119 0.2760506708416162 -0.9611429237112606
    outer loop
      vertex 3.279079861111099 0.8138020833333319 0.0
      vertex 3.019386574074062 1.2460863637165775 0.12430652006173946
      vertex 3.5405155587777575 1.2451993114267992 0.12375117040665248
    endloop
  endfacet
  facet normal 0.0002520595491444184 -0.27723696309348506 -0.9608015418184368
    outer loop
      vertex 3.279079861111099 0.8138020833333319 0.0
      vertex 3.5360350577438675 0.3800600281991643 0.12522263225621777
      vertex 3.0159743765929927 0.38046018125969283 0.12497073478357835
    endloop
  endfacet
  facet normal 0.0 0.27635832885209777 -0.9610546675783204
    outer loop
      vertex 4.317853009259249 0.8138020833333319 0.0
      vertex 3.798466435185174 0.8138020833333319 0.0
      vertex 4.058159722222212 1.2460863637165542 0.12430652006172507
    endloop
  endfacet
  facet normal 0.0 -0.2759109174616466 -0.9611832112690444
    outer loop
      vertex 3.798466435185174 0.8138020833333319 0.0
      vertex 4.317853009259249 0.8138020833333319 0.0
      vertex 4.056898343576666 0.382159925667359 0.1239043528231243
    endloop
  endfacet
  facet normal -0.0013168856198962065 -0.2766390203767175 -0.9609730059774177
    outer loop
      vertex 3.5360350577438675 0.3800600281991643 0.12522263225621777
      vertex 3.798466435185174 0.8138020833333319 0.0
      vertex 4.056898343576666 0.382159925667359 0.1239043528231243
    endloop
  endfacet
  facet normal 0.0005581076753818 0.2760485969538389 -0.9611435171896232
    outer loop
      vertex 4.058159722222212 1.2460863637165542 0.12430652006172507
      vertex 3.798466435185174 0.8138020833333319 0.0
      vertex 3.5405155587777575 1.2451993114267992 0.12375117040665248
    endloop
  endfacet
  facet normal -0.055509749442651815 0.24498961671377054 -0.9679353053893912
    outer loop
      vertex 4.317853009259249 0.8138020833333319 0.0
      vertex 4.058159722222212 1.2460863637165542 0.12430652006172507
      vertex 4.466281196990866 1.1680589371725842 0.08115215850866786
    endloop
  endfacet
  facet normal -0.05480995733954249 -0.24474247653026046 -0.9680377000707526
    outer loop
      vertex 4.056898343576666 0.382159925667359 0.1239043528231243
      vertex 4.317853009259249 0.8138020833333319 0.0
      vertex 4.466230129971953 0.45949684707562355 0.0811755547404608
    endloop
  endfacet
  facet normal -0.0018062347704843398 -0.742888438339614 -0.6694128066427197
    outer loop
      vertex 1.9841619456300998 0.383580621110785 0.12301751179111438
      vertex 2.4969756704339443 0.3807222304780586 0.12480594989822605
      vertex 2.238604050126749 0.08283388220385444 0.4560880637936901
    endloop
  endfacet
  facet normal 0.0015307904173765968 -0.7441828806273993 -0.6679741737985113
    outer loop
      vertex 2.238604050126749 0.08283388220385444 0.4560880637936901
      vertex 2.4969756704339443 0.3807222304780586 0.12480594989822605
      vertex 2.752780461816815 0.08157833578054569 0.45866518809795226
    endloop
  endfacet
  facet normal -0.00016421712673943934 -0.7448294917222125 -0.667254824855966
    outer loop
      vertex 2.752780461816815 0.08157833578054569 0.45866518809795226
      vertex 2.4969756704339443 0.3807222304780586 0.12480594989822605
      vertex 3.0159743765929927 0.38046018125969283 0.12497073478357835
    endloop
  endfacet
  facet normal 0.00046390409126933113 0.7120880378143074 -0.7020900306903408
    outer loop
      vertex 3.5405155587777575 1.2451993114267992 0.12375117040665248
      vertex 3.019386574074062 1.2460863637165775 0.12430652006173946
      vertex 3.301127403344708 1.509634715923978 0.39179405229643094
    endloop
  endfacet
  facet normal 0.02462676804683299 0.6990266721100469 -0.714671416788387
    outer loop
      vertex 3.301127403344708 1.509634715923978 0.39179405229643094
      vertex 3.019386574074062 1.2460863637165775 0.12430652006173946
      vertex 2.7406499027875633 1.4731448468641226 0.3367895562260763
    endloop
  endfacet
  facet normal -0.00027970336704060723 0.6831000404296677 -0.7303247610008938
    outer loop
      vertex 3.019386574074062 1.2460863637165775 0.12430652006173946
      vertex 2.5012613786455367 1.2454442409992887 0.12390435282311492
      vertex 2.7406499027875633 1.4731448468641226 0.3367895562260763
    endloop
  endfacet
  facet normal -0.038167587224285905 -0.06255189066329137 0.997311634475365
    outer loop
      vertex 0.6651441227166617 1.0402186277406167 1.5954729726827654
      vertex 0.9850006676325823 0.5274249163516256 1.5755513524955689
      vertex 1.235969089775845 0.9682850052273916 1.612807000515163
    endloop
  endfacet
  facet normal 0.02443842936785226 -0.023583238571866397 0.9994231306251096
    outer loop
      vertex 0.9850006676325823 0.5274249163516256 1.5755513524955689
      vertex 0.6651441227166617 1.0402186277406167 1.5954729726827654
      vertex 0.5188311378575959 0.5623234634510197 1.5877738751834989
    endloop
  endfacet
  facet normal 0.031145835851265753 0.46087845839957725 0.8869165594870552
    outer loop
      vertex 0.6651441227166617 1.0402186277406167 1.5954729726827654
      vertex 1.235969089775845 0.9682850052273916 1.612807000515163
      vertex 0.9642176533495939 1.3554585530166297 1.4211587328300648
    endloop
  endfacet
  facet normal -0.09967429189554186 0.5522461672615214 0.827701157592571
    outer loop
      vertex 0.6651441227166617 1.0402186277406167 1.5954729726827654
      vertex 0.9642176533495939 1.3554585530166297 1.4211587328300648
      vertex 0.5395690203808572 1.4721818004668794 1.2921429439179366
    endloop
  endfacet
  facet normal 0.08630222441696427 0.009611705862429546 0.9962226363474672
    outer loop
      vertex 4.403490766279265 0.5623234634991214 1.5877738751991282
      vertex 4.302714885073797 1.0526203969547514 1.5917735763307888
      vertex 4.038451271375798 0.6902021774488908 1.6181632547625775
    endloop
  endfacet
  facet normal 0.08906509519984739 -0.5817781766188934 0.8084562833122381
    outer loop
      vertex 4.417149461847805 0.15744114443319396 1.2949092945906568
      vertex 4.403490766279265 0.5623234634991214 1.5877738751991282
      vertex 3.970795204888803 0.3367653936229681 1.4731273653511299
    endloop
  endfacet
  facet normal -0.05258333870807833 -0.37048075577147477 0.9273505281679136
    outer loop
      vertex 3.970795204888803 0.3367653936229681 1.4731273653511299
      vertex 4.403490766279265 0.5623234634991214 1.5877738751991282
      vertex 4.038451271375798 0.6902021774488908 1.6181632547625775
    endloop
  endfacet
  facet normal 0.012213580147414173 0.6868081223309359 -0.726736149892268
    outer loop
      vertex 1.9806134259259163 1.2460863637164008 0.12430652006162873
      vertex 1.4437455179652758 1.2777263794774236 0.14518554279243245
      vertex 1.7798609632276676 1.4701709460199326 0.3327056824601088
    endloop
  endfacet
  facet normal 0.00027103592438835355 0.6793542614833209 -0.7338104073560007
    outer loop
      vertex 2.5012613786455367 1.2454442409992887 0.12390435282311492
      vertex 1.9806134259259163 1.2460863637164008 0.12430652006162873
      vertex 2.2524138413886976 1.4682217800295234 0.33005763487553735
    endloop
  endfacet
  facet normal -0.0013002452769734136 0.680388073724145 -0.7328508569253142
    outer loop
      vertex 1.9806134259259163 1.2460863637164008 0.12430652006162873
      vertex 1.7798609632276676 1.4701709460199326 0.3327056824601088
      vertex 2.2524138413886976 1.4682217800295234 0.33005763487553735
    endloop
  endfacet
  facet normal -0.0020466501086157263 -0.74109250171992 -0.671399817633162
    outer loop
      vertex 1.4733636455042023 0.38679626111319354 0.12102516496221925
      vertex 1.9841619456300998 0.383580621110785 0.12301751179111438
      vertex 1.7209165127924342 0.08315738675106073 0.4554277564154113
    endloop
  endfacet
  facet normal 0.004816203682586216 -0.7385549057145776 -0.6741761308641973
    outer loop
      vertex 1.4733636455042023 0.38679626111319354 0.12102516496221925
      vertex 1.7209165127924342 0.08315738675106073 0.4554277564154113
      vertex 1.2320851950904785 0.08696790070877937 0.44776123615071245
    endloop
  endfacet
  facet normal -0.004818768835685348 -0.7350105159181209 -0.6780385836784554
    outer loop
      vertex 1.4733636455042023 0.38679626111319354 0.12102516496221925
      vertex 1.2320851950904785 0.08696790070877937 0.44776123615071245
      vertex 0.9670118170230564 0.39436989728737165 0.11641376098603443
    endloop
  endfacet
  facet normal -0.00025313709115067605 -0.7472923911304983 -0.6644953108036773
    outer loop
      vertex 3.0159743765929927 0.38046018125969283 0.12497073478357835
      vertex 3.5360350577438675 0.3800600281991643 0.12522263225621777
      vertex 3.245242416479802 0.07912834416196748 0.46376161737312693
    endloop
  endfacet
  facet normal 0.001357652110863581 -0.7511636599487207 -0.6601146209206311
    outer loop
      vertex 3.5360350577438675 0.3800600281991643 0.12522263225621777
      vertex 4.056898343576666 0.382159925667359 0.1239043528231243
      vertex 3.717593354956011 0.07483325855266387 0.4729224757884545
    endloop
  endfacet
  facet normal 0.006009490966964231 -0.7499445100672788 -0.6614734445450302
    outer loop
      vertex 3.5360350577438675 0.3800600281991643 0.12522263225621777
      vertex 3.717593354956011 0.07483325855266387 0.4729224757884545
      vertex 3.245242416479802 0.07912834416196748 0.46376161737312693
    endloop
  endfacet
  facet normal -0.08424618873061158 0.9431153131211778 -0.32161480973473366
    outer loop
      vertex 0.5645511858341858 1.4735885607997214 0.3374034739838039
      vertex 0.5091217757144403 1.627537274675703 0.8033680424734463
      vertex 0.9846187812702615 1.5811362265769886 0.5427446291834894
    endloop
  endfacet
  facet normal 0.1175924678839086 0.9923396759645916 0.03786791522464557
    outer loop
      vertex 0.9846187812702615 1.5811362265769886 0.5427446291834894
      vertex 0.5091217757144403 1.627537274675703 0.8033680424734463
      vertex 0.8361682724675225 1.577673709038609 1.0944690929373246
    endloop
  endfacet
  facet normal -0.13016802325575727 0.9425402014612562 0.30769181716624094
    outer loop
      vertex 0.5091217757144403 1.627537274675703 0.8033680424734463
      vertex 0.5395690203808572 1.4721818004668794 1.2921429439179366
      vertex 0.8361682724675225 1.577673709038609 1.0944690929373246
    endloop
  endfacet
  facet normal 0.061171267714926085 0.9519304095608048 -0.30014425091869934
    outer loop
      vertex 4.4034860741202495 1.6275700626905265 0.8212523592059914
      vertex 4.349768401676118 1.482379499376313 0.34982140529278966
      vertex 4.03539481137311 1.623667884841918 0.7338570122874831
    endloop
  endfacet
  facet normal 0.13831034705902187 0.9431811008754304 0.30212523702568134
    outer loop
      vertex 4.440197278390509 1.4706947486235769 1.2941830333360862
      vertex 4.4034860741202495 1.6275700626905265 0.8212523592059914
      vertex 4.145927279514736 1.5788753189829146 1.0911768747804789
    endloop
  endfacet
  facet normal -0.043110052069655104 0.9895789697435448 0.13738626587783856
    outer loop
      vertex 4.145927279514736 1.5788753189829146 1.0911768747804789
      vertex 4.4034860741202495 1.6275700626905265 0.8212523592059914
      vertex 4.03539481137311 1.623667884841918 0.7338570122874831
    endloop
  endfacet
  facet normal -0.004376523110623822 -0.6031114826603124 0.7976448993936723
    outer loop
      vertex 0.5965092958138299 0.1554224076441249 1.2921430009611736
      vertex 1.172170838286399 0.16064576586649493 1.299251005250799
      vertex 0.9850006676325823 0.5274249163516256 1.5755513524955689
    endloop
  endfacet
  facet normal 0.00421357322620728 -0.9375817518863595 0.347739420155915
    outer loop
      vertex 1.172170838286399 0.16064576586649493 1.299251005250799
      vertex 0.5965092958138299 0.1554224076441249 1.2921430009611736
      vertex 0.9648935057280453 0.0022891217849815445 0.8747983461425969
    endloop
  endfacet
  facet normal -0.023055653709460642 -0.590505952055597 0.8067038845939335
    outer loop
      vertex 0.5965092958138299 0.1554224076441249 1.2921430009611736
      vertex 0.9850006676325823 0.5274249163516256 1.5755513524955689
      vertex 0.5188311378575959 0.5623234634510197 1.5877738751834989
    endloop
  endfacet
  facet normal -0.03651298113455544 -0.948164963181333 0.31567388996242435
    outer loop
      vertex 0.9648935057280453 0.0022891217849815445 0.8747983461425969
      vertex 0.5965092958138299 0.1554224076441249 1.2921430009611736
      vertex 0.4969924475301356 0.0 0.8138020832394933
    endloop
  endfacet
  facet normal 0.07891960979231766 -0.9441491442398203 0.31992825542837455
    outer loop
      vertex 4.450060145817325 4.429372939796655e-05 0.822292707373477
      vertex 4.417149461847805 0.15744114443319396 1.2949092945906568
      vertex 3.9675692197809624 0.026051405809537364 1.0180634377263595
    endloop
  endfacet
  facet normal -0.0823865950818577 -0.9940687860046382 -0.07099082787292152
    outer loop
      vertex 4.450060145817325 4.429372939796655e-05 0.822292707373477
      vertex 3.9675692197809624 0.026051405809537364 1.0180634377263595
      vertex 4.155040348298548 0.04393986265946884 0.5500105140655114
    endloop
  endfacet
  facet normal 0.12724413284458042 -0.9483006065404591 -0.29074884400738094
    outer loop
      vertex 4.495194995035513 0.15531966313417253 0.3356026133144613
      vertex 4.450060145817325 4.429372939796655e-05 0.822292707373477
      vertex 4.155040348298548 0.04393986265946884 0.5500105140655114
    endloop
  endfacet
  facet normal -0.04935544760914931 -0.973363246439541 -0.22389289911021718
    outer loop
      vertex 0.9648935057280453 0.0022891217849815445 0.8747983461425969
      vertex 0.651177617925242 0.13573567023970365 0.36380233858672417
      vertex 1.2320851950904785 0.08696790070877937 0.44776123615071245
    endloop
  endfacet
  facet normal 0.04064612306869032 -0.9603684830683917 -0.2757540016181108
    outer loop
      vertex 0.651177617925242 0.13573567023970365 0.36380233858672417
      vertex 0.9648935057280453 0.0022891217849815445 0.8747983461425969
      vertex 0.4969924475301356 0.0 0.8138020832394933
    endloop
  endfacet
  facet normal 0.04059497924311979 -0.7160954863120953 -0.6968208536946167
    outer loop
      vertex 1.2320851950904785 0.08696790070877937 0.44776123615071245
      vertex 0.651177617925242 0.13573567023970365 0.36380233858672417
      vertex 0.9670118170230564 0.39436989728737165 0.11641376098603443
    endloop
  endfacet
  facet normal -0.03842820619603154 -0.6658073315732356 -0.7451334579737262
    outer loop
      vertex 0.9670118170230564 0.39436989728737165 0.11641376098603443
      vertex 0.651177617925242 0.13573567023970365 0.36380233858672417
      vertex 0.5356007611194592 0.45776708940334 0.0820146046655551
    endloop
  endfacet
  facet normal -0.023334950788968755 0.781546340460874 -0.623410617317264
    outer loop
      vertex 1.4437455179652758 1.2777263794774236 0.14518554279243245
      vertex 0.9418402777777733 1.2460863637165522 0.12430652006172344
      vertex 0.9846187812702615 1.5811362265769886 0.5427446291834894
    endloop
  endfacet
  facet normal 0.10978569688841286 0.7703715769278867 -0.6280722364667671
    outer loop
      vertex 0.9418402777777733 1.2460863637165522 0.12430652006172344
      vertex 0.5645511858341858 1.4735885607997214 0.3374034739838039
      vertex 0.9846187812702615 1.5811362265769886 0.5427446291834894
    endloop
  endfacet
  facet normal -0.04250966189522364 0.6445472225810936 -0.7633818222282687
    outer loop
      vertex 0.5645511858341858 1.4735885607997214 0.3374034739838039
      vertex 0.9418402777777733 1.2460863637165522 0.12430652006172344
      vertex 0.5337188030091233 1.1680589371725862 0.08115215850866904
    endloop
  endfacet
  facet normal -0.000491817699470077 0.7208928262779976 -0.6930463845488779
    outer loop
      vertex 4.058159722222212 1.2460863637165542 0.12430652006172507
      vertex 3.5405155587777575 1.2451993114267992 0.12375117040665248
      vertex 3.7396490932932234 1.5201038133430462 0.40955995660362604
    endloop
  endfacet
  facet normal -0.02556234935385618 0.7065190322101123 -0.7072322273626943
    outer loop
      vertex 4.058159722222212 1.2460863637165542 0.12430652006172507
      vertex 3.7396490932932234 1.5201038133430462 0.40955995660362604
      vertex 4.349768401676118 1.482379499376313 0.34982140529278966
    endloop
  endfacet
  facet normal 0.046604857042897206 0.6589676248653593 -0.7507260863186506
    outer loop
      vertex 4.058159722222212 1.2460863637165542 0.12430652006172507
      vertex 4.349768401676118 1.482379499376313 0.34982140529278966
      vertex 4.466281196990866 1.1680589371725842 0.08115215850866786
    endloop
  endfacet
  facet normal 0.0003913009243833766 -0.74205493794835 -0.6703389560140878
    outer loop
      vertex 1.9841619456300998 0.383580621110785 0.12301751179111438
      vertex 2.238604050126749 0.08283388220385444 0.4560880637936901
      vertex 1.7209165127924342 0.08315738675106073 0.4554277564154113
    endloop
  endfacet
  facet normal -0.0015233689271304369 -0.9844468944066913 -0.1756758134750837
    outer loop
      vertex 2.238604050126749 0.08283388220385444 0.4560880637936901
      vertex 2.752780461816815 0.08157833578054569 0.45866518809795226
      vertex 2.494534383864813 0.004079840467630423 0.8951883244691005
    endloop
  endfacet
  facet normal 0.0010026189608737445 -0.9841919267328596 -0.17710236054067952
    outer loop
      vertex 2.238604050126749 0.08283388220385444 0.4560880637936901
      vertex 2.494534383864813 0.004079840467630423 0.8951883244691005
      vertex 1.9809265280410466 0.003893730389648107 0.893314916698273
    endloop
  endfacet
  facet normal -0.000388029891614653 -0.9840491883552971 -0.1778961616507906
    outer loop
      vertex 2.238604050126749 0.08283388220385444 0.4560880637936901
      vertex 1.9809265280410466 0.003893730389648107 0.893314916698273
      vertex 1.7209165127924342 0.08315738675106073 0.4554277564154113
    endloop
  endfacet
  facet normal 0.00043407637801889216 -0.9846476083376248 -0.17455342727283635
    outer loop
      vertex 2.494534383864813 0.004079840467630423 0.8951883244691005
      vertex 2.752780461816815 0.08157833578054569 0.45866518809795226
      vertex 3.0137184766543417 0.0041629250589410695 0.896010746054527
    endloop
  endfacet
  facet normal -0.0031152142057155226 -0.9850047669556531 -0.17249899859156237
    outer loop
      vertex 3.0137184766543417 0.0041629250589410695 0.896010746054527
      vertex 2.752780461816815 0.08157833578054569 0.45866518809795226
      vertex 3.245242416479802 0.07912834416196748 0.46376161737312693
    endloop
  endfacet
  facet normal 0.003178145417187115 -0.7461345909543755 -0.6657875573882812
    outer loop
      vertex 2.752780461816815 0.08157833578054569 0.45866518809795226
      vertex 3.0159743765929927 0.38046018125969283 0.12497073478357835
      vertex 3.245242416479802 0.07912834416196748 0.46376161737312693
    endloop
  endfacet
  facet normal -0.00043436983683642713 -0.9297697081282195 0.368141414635749
    outer loop
      vertex 2.494534383864813 0.004079840467630423 0.8951883244691005
      vertex 3.0137184766543417 0.0041629250589410695 0.896010746054527
      vertex 2.7476299930663823 0.16760045230139897 1.3084709451887562
    endloop
  endfacet
  facet normal -0.0009977121125226262 -0.9306219449270446 0.3659806008393688
    outer loop
      vertex 1.9809265280410466 0.003893730389648107 0.893314916698273
      vertex 2.494534383864813 0.004079840467630423 0.8951883244691005
      vertex 2.235661682424543 0.16612795973775232 1.3065414266603783
    endloop
  endfacet
  facet normal 0.001291169679077063 -0.9301303106290313 0.36722736571503173
    outer loop
      vertex 2.235661682424543 0.16612795973775232 1.3065414266603783
      vertex 2.494534383864813 0.004079840467630423 0.8951883244691005
      vertex 2.7476299930663823 0.16760045230139897 1.3084709451887562
    endloop
  endfacet
  facet normal 0.0046776253202278125 -0.9856998694291779 -0.16844550225121901
    outer loop
      vertex 3.0137184766543417 0.0041629250589410695 0.896010746054527
      vertex 3.245242416479802 0.07912834416196748 0.46376161737312693
      vertex 3.4918895641482726 0.005034863233517446 0.9041868969343423
    endloop
  endfacet
  facet normal -0.004534398843697866 -0.931194481115384 0.36449455080615006
    outer loop
      vertex 3.0137184766543417 0.0041629250589410695 0.896010746054527
      vertex 3.4918895641482726 0.005034863233517446 0.9041868969343423
      vertex 3.2030536319304828 0.1615612287110143 1.3004803121449564
    endloop
  endfacet
  facet normal -0.005940000085567641 -0.9309639421704218 0.3650628093595552
    outer loop
      vertex 2.7476299930663823 0.16760045230139897 1.3084709451887562
      vertex 3.0137184766543417 0.0041629250589410695 0.896010746054527
      vertex 3.2030536319304828 0.1615612287110143 1.3004803121449564
    endloop
  endfacet
  facet normal 0.000828738241277651 -0.9310051416147428 0.36500512253917794
    outer loop
      vertex 1.9809265280410466 0.003893730389648107 0.893314916698273
      vertex 2.235661682424543 0.16612795973775232 1.3065414266603783
      vertex 1.7245422331123144 0.1651872396905103 1.3053024550970462
    endloop
  endfacet
  facet normal -0.0011554572330495893 -0.9314239106413724 0.3639342847329928
    outer loop
      vertex 1.9809265280410466 0.003893730389648107 0.893314916698273
      vertex 1.7245422331123144 0.1651872396905103 1.3053024550970462
      vertex 1.4536018433386966 0.003678329294334808 0.8910894301595362
    endloop
  endfacet
  facet normal 0.0011564257773020747 -0.9838876690935087 -0.17878399616622276
    outer loop
      vertex 1.9809265280410466 0.003893730389648107 0.893314916698273
      vertex 1.4536018433386966 0.003678329294334808 0.8910894301595362
      vertex 1.7209165127924342 0.08315738675106073 0.4554277564154113
    endloop
  endfacet
  facet normal -0.0008206817750815199 -0.6038824472819259 0.7970729680187479
    outer loop
      vertex 1.7245422331123144 0.1651872396905103 1.3053024550970462
      vertex 2.235661682424543 0.16612795973775232 1.3065414266603783
      vertex 1.9777668631130245 0.515478399792569 1.570952537784983
    endloop
  endfacet
  facet normal -0.0012755279068381589 -0.6024237154910069 0.7981754443996439
    outer loop
      vertex 2.235661682424543 0.16612795973775232 1.3065414266603783
      vertex 2.7476299930663823 0.16760045230139897 1.3084709451887562
      vertex 2.4890806465300472 0.5164011914369004 1.5713154761765726
    endloop
  endfacet
  facet normal 0.0005226035319156232 -0.6032521409094749 0.7975503629073738
    outer loop
      vertex 1.9777668631130245 0.515478399792569 1.570952537784983
      vertex 2.235661682424543 0.16612795973775232 1.3065414266603783
      vertex 2.4890806465300472 0.5164011914369004 1.5713154761765726
    endloop
  endfacet
  facet normal 0.0037100023264693698 -0.932493131453802 0.36116865267381676
    outer loop
      vertex 1.4536018433386966 0.003678329294334808 0.8910894301595362
      vertex 1.7245422331123144 0.1651872396905103 1.3053024550970462
      vertex 1.172170838286399 0.16064576586649493 1.299251005250799
    endloop
  endfacet
  facet normal -0.003729705210782079 -0.6061470500943625 0.7953438520293867
    outer loop
      vertex 1.172170838286399 0.16064576586649493 1.299251005250799
      vertex 1.7245422331123144 0.1651872396905103 1.3053024550970462
      vertex 1.4641352359528168 0.5152270451436666 1.5708534537222316
    endloop
  endfacet
  facet normal 0.00014203900019482357 -0.6043245474283928 0.7967382388215032
    outer loop
      vertex 1.4641352359528168 0.5152270451436666 1.5708534537222316
      vertex 1.7245422331123144 0.1651872396905103 1.3053024550970462
      vertex 1.9777668631130245 0.515478399792569 1.570952537784983
    endloop
  endfacet
  facet normal -0.009122991670963188 -0.9354117273300956 0.35344259986071064
    outer loop
      vertex 1.4536018433386966 0.003678329294334808 0.8910894301595362
      vertex 1.172170838286399 0.16064576586649493 1.299251005250799
      vertex 0.9648935057280453 0.0022891217849815445 0.8747983461425969
    endloop
  endfacet
  facet normal 0.009092284961811513 -0.9819307989976598 -0.18902178798749814
    outer loop
      vertex 1.4536018433386966 0.003678329294334808 0.8910894301595362
      vertex 0.9648935057280453 0.0022891217849815445 0.8747983461425969
      vertex 1.2320851950904785 0.08696790070877937 0.44776123615071245
    endloop
  endfacet
  facet normal -0.00480499273629984 -0.9832272578137856 -0.18232134141890116
    outer loop
      vertex 1.7209165127924342 0.08315738675106073 0.4554277564154113
      vertex 1.4536018433386966 0.003678329294334808 0.8910894301595362
      vertex 1.2320851950904785 0.08696790070877937 0.44776123615071245
    endloop
  endfacet
  facet normal -0.007567160096757266 -0.6041368516756888 0.7968446539542428
    outer loop
      vertex 1.172170838286399 0.16064576586649493 1.299251005250799
      vertex 1.4641352359528168 0.5152270451436666 1.5708534537222316
      vertex 0.9850006676325823 0.5274249163516256 1.5755513524955689
    endloop
  endfacet
  facet normal 0.0075144649607003025 -0.08845088128965363 0.9960521946240759
    outer loop
      vertex 0.9850006676325823 0.5274249163516256 1.5755513524955689
      vertex 1.4641352359528168 0.5152270451436666 1.5708534537222316
      vertex 1.235969089775845 0.9682850052273916 1.612807000515163
    endloop
  endfacet
  facet normal -0.004735670940929705 -0.09456972854677705 0.9955069763006827
    outer loop
      vertex 1.235969089775845 0.9682850052273916 1.612807000515163
      vertex 1.4641352359528168 0.5152270451436666 1.5708534537222316
      vertex 1.7329771152034885 0.9599284605906373 1.6143774468734087
    endloop
  endfacet
  facet normal -0.00014436757357744081 -0.09732052722113282 0.9952530804470813
    outer loop
      vertex 1.7329771152034885 0.9599284605906373 1.6143774468734087
      vertex 1.4641352359528168 0.5152270451436666 1.5708534537222316
      vertex 1.9777668631130245 0.515478399792569 1.570952537784983
    endloop
  endfacet
  facet normal 0.004584789019896556 0.4413186838613327 0.8973387314635116
    outer loop
      vertex 1.235969089775845 0.9682850052273916 1.612807000515163
      vertex 1.7329771152034885 0.9599284605906373 1.6143774468734087
      vertex 1.4708375334614914 1.3553758686094954 1.4212324628331712
    endloop
  endfacet
  facet normal -5.803433207999703e-05 0.44358753008548835 0.8962310526781987
    outer loop
      vertex 1.235969089775845 0.9682850052273916 1.612807000515163
      vertex 1.4708375334614914 1.3553758686094954 1.4212324628331712
      vertex 0.9642176533495939 1.3554585530166297 1.4211587328300648
    endloop
  endfacet
  facet normal -0.0003706040049595994 0.4386726907305181 0.8986468344460569
    outer loop
      vertex 1.4708375334614914 1.3553758686094954 1.4212324628331712
      vertex 1.7329771152034885 0.9599284605906373 1.6143774468734087
      vertex 1.976538792358867 1.354857943558787 1.4216938392844742
    endloop
  endfacet
  facet normal 0.002135174553933528 0.4374231857270522 0.8992532444300777
    outer loop
      vertex 1.976538792358867 1.354857943558787 1.4216938392844742
      vertex 1.7329771152034885 0.9599284605906373 1.6143774468734087
      vertex 2.2354317447864287 0.9560349549550841 1.6150783409797822
    endloop
  endfacet
  facet normal -0.0021507788131074033 -0.09841485759872683 0.995143150483547
    outer loop
      vertex 2.2354317447864287 0.9560349549550841 1.6150783409797822
      vertex 1.7329771152034885 0.9599284605906373 1.6143774468734087
      vertex 1.9777668631130245 0.515478399792569 1.570952537784983
    endloop
  endfacet
  facet normal 0.00037156336425175316 0.8425725663820756 0.5385827070385655
    outer loop
      vertex 1.4708375334614914 1.3553758686094954 1.4212324628331712
      vertex 1.976538792358867 1.354857943558787 1.4216938392844742
      vertex 1.718276243593616 1.5925822330027233 1.0499700517765371
    endloop
  endfacet
  facet normal 0.007518626624574105 0.8403801347145013 0.5419452919169213
    outer loop
      vertex 1.4708375334614914 1.3553758686094954 1.4212324628331712
      vertex 1.718276243593616 1.5925822330027233 1.0499700517765371
      vertex 1.2923345584498922 1.589026022286146 1.0613938346340455
    endloop
  endfacet
  facet normal 5.763284097744482e-05 0.8387174611004863 0.5445668160323488
    outer loop
      vertex 1.4708375334614914 1.3553758686094954 1.4212324628331712
      vertex 1.2923345584498922 1.589026022286146 1.0613938346340455
      vertex 0.9642176533495939 1.3554585530166297 1.4211587328300648
    endloop
  endfacet
  facet normal 0.0010965625260195956 0.8428005904735593 0.5382248250016405
    outer loop
      vertex 1.718276243593616 1.5925822330027233 1.0499700517765371
      vertex 1.976538792358867 1.354857943558787 1.4216938392844742
      vertex 2.229612679880644 1.5931786275496445 1.0479943828717855
    endloop
  endfacet
  facet normal -0.0005366672754581808 0.8433025297741981 0.5374388851438583
    outer loop
      vertex 2.229612679880644 1.5931786275496445 1.0479943828717855
      vertex 1.976538792358867 1.354857943558787 1.4216938392844742
      vertex 2.48771034523154 1.3556108577782608 1.4210228691865128
    endloop
  endfacet
  facet normal 0.0005378544514115748 0.4365849283617755 0.8996628874416975
    outer loop
      vertex 2.48771034523154 1.3556108577782608 1.4210228691865128
      vertex 1.976538792358867 1.354857943558787 1.4216938392844742
      vertex 2.2354317447864287 0.9560349549550841 1.6150783409797822
    endloop
  endfacet
  facet normal -0.0010900514365763019 0.9998055921086854 0.019687299867345083
    outer loop
      vertex 1.718276243593616 1.5925822330027233 1.0499700517765371
      vertex 2.229612679880644 1.5931786275496445 1.0479943828717855
      vertex 1.9722967679849195 1.6015332163678042 0.6094653688498665
    endloop
  endfacet
  facet normal -0.007682450939395147 0.9996641487856247 0.024750143035471617
    outer loop
      vertex 1.2923345584498922 1.589026022286146 1.0613938346340455
      vertex 1.718276243593616 1.5925822330027233 1.0499700517765371
      vertex 1.4594023912834861 1.601501976695858 0.6093449757671334
    endloop
  endfacet
  facet normal -6.565592574459969e-05 0.9997943821616424 0.02027779789126589
    outer loop
      vertex 1.4594023912834861 1.601501976695858 0.6093449757671334
      vertex 1.718276243593616 1.5925822330027233 1.0499700517765371
      vertex 1.9722967679849195 1.6015332163678042 0.6094653688498665
    endloop
  endfacet
  facet normal -0.0017950407889248017 0.8429063795968853 0.5380572581644425
    outer loop
      vertex 2.229612679880644 1.5931786275496445 1.0479943828717855
      vertex 2.48771034523154 1.3556108577782608 1.4210228691865128
      vertex 2.7347780501008105 1.5922082087789118 1.051199923901587
    endloop
  endfacet
  facet normal 0.0018197884545820503 0.9998717715698112 0.01591002161619746
    outer loop
      vertex 2.229612679880644 1.5931786275496445 1.0479943828717855
      vertex 2.7347780501008105 1.5922082087789118 1.051199923901587
      vertex 2.4837116156296055 1.5997986640326958 0.6028916616691119
    endloop
  endfacet
  facet normal 0.0036087960203203934 0.9998501476298256 0.016931003393171176
    outer loop
      vertex 2.229612679880644 1.5931786275496445 1.0479943828717855
      vertex 2.4837116156296055 1.5997986640326958 0.6028916616691119
      vertex 1.9722967679849195 1.6015332163678042 0.6094653688498665
    endloop
  endfacet
  facet normal -0.0009427293800488806 0.8426491883665036 0.5384621217937141
    outer loop
      vertex 2.7347780501008105 1.5922082087789118 1.051199923901587
      vertex 2.48771034523154 1.3556108577782608 1.4210228691865128
      vertex 2.99811960409633 1.3569432843783626 1.4198313454692721
    endloop
  endfacet
  facet normal 0.0009539523422686353 0.43833474056710753 0.8988112956493678
    outer loop
      vertex 2.99811960409633 1.3569432843783626 1.4198313454692721
      vertex 2.48771034523154 1.3556108577782608 1.4210228691865128
      vertex 2.744651913910827 0.9577760377698336 1.6147673330674175
    endloop
  endfacet
  facet normal -0.0009460789180295969 0.4373428532913051 0.8992943531512365
    outer loop
      vertex 2.744651913910827 0.9577760377698336 1.6147673330674175
      vertex 2.48771034523154 1.3556108577782608 1.4210228691865128
      vertex 2.2354317447864287 0.9560349549550841 1.6150783409797822
    endloop
  endfacet
  facet normal -0.0018313099427767262 0.8423599019177652 0.5389122766693912
    outer loop
      vertex 2.7347780501008105 1.5922082087789118 1.051199923901587
      vertex 2.99811960409633 1.3569432843783626 1.4198313454692721
      vertex 3.2427366211767787 1.591187389273155 1.054521664893532
    endloop
  endfacet
  facet normal 0.0016011153758507257 0.998082087298862 0.06188362822831296
    outer loop
      vertex 2.7347780501008105 1.5922082087789118 1.051199923901587
      vertex 3.2427366211767787 1.591187389273155 1.054521664893532
      vertex 2.987932011094214 1.6152721903013374 0.6726656299473814
    endloop
  endfacet
  facet normal -0.035758475157596094 0.9986777021558083 0.0369347894429924
    outer loop
      vertex 2.4837116156296055 1.5997986640326958 0.6028916616691119
      vertex 2.7347780501008105 1.5922082087789118 1.051199923901587
      vertex 2.987932011094214 1.6152721903013374 0.6726656299473814
    endloop
  endfacet
  facet normal -0.0006990135160872078 0.8420169700434255 0.5394505848907696
    outer loop
      vertex 3.2427366211767787 1.591187389273155 1.054521664893532
      vertex 2.99811960409633 1.3569432843783626 1.4198313454692721
      vertex 3.507571598626722 1.3579387235313731 1.4189377273270214
    endloop
  endfacet
  facet normal 0.0007127445014278321 0.4409516227099149 0.8975305891304031
    outer loop
      vertex 3.507571598626722 1.3579387235313731 1.4189377273270214
      vertex 2.99811960409633 1.3569432843783626 1.4198313454692721
      vertex 3.2556854764928707 0.9609035539081187 1.6141988525624473
    endloop
  endfacet
  facet normal -0.0016917876087939084 0.4396906783511413 0.8981476745089306
    outer loop
      vertex 3.2556854764928707 0.9609035539081187 1.6141988525624473
      vertex 2.99811960409633 1.3569432843783626 1.4198313454692721
      vertex 2.744651913910827 0.9577760377698336 1.6147673330674175
    endloop
  endfacet
  facet normal 0.005163903771599067 0.8439364245421588 0.5364183492656032
    outer loop
      vertex 3.2427366211767787 1.591187389273155 1.054521664893532
      vertex 3.507571598626722 1.3579387235313731 1.4189377273270214
      vertex 3.761828977329442 1.594079884286545 1.0449738466983431
    endloop
  endfacet
  facet normal -0.003597301142909794 0.9943943967954528 0.1056732844492625
    outer loop
      vertex 3.2427366211767787 1.591187389273155 1.054521664893532
      vertex 3.761828977329442 1.594079884286545 1.0449738466983431
      vertex 3.517533285395677 1.6248593951515868 0.7470198418029887
    endloop
  endfacet
  facet normal -0.029629741698351697 0.996142137298069 0.08260097279163342
    outer loop
      vertex 2.987932011094214 1.6152721903013374 0.6726656299473814
      vertex 3.2427366211767787 1.591187389273155 1.054521664893532
      vertex 3.517533285395677 1.6248593951515868 0.7470198418029887
    endloop
  endfacet
  facet normal -0.02101512809695144 0.4519225902681408 0.8918095855037682
    outer loop
      vertex 3.507571598626722 1.3579387235313731 1.4189377273270214
      vertex 3.2556854764928707 0.9609035539081187 1.6141988525624473
      vertex 3.750956389945007 1.0001504461709618 1.6059814307701392
    endloop
  endfacet
  facet normal 0.0007879507121127605 0.4637100106266315 0.8859866845378234
    outer loop
      vertex 3.507571598626722 1.3579387235313731 1.4189377273270214
      vertex 3.750956389945007 1.0001504461709618 1.6059814307701392
      vertex 4.018501364432616 1.3591420458786139 1.4178535348577703
    endloop
  endfacet
  facet normal -0.0008599104370247027 0.8457999451313123 0.5334994970662197
    outer loop
      vertex 3.507571598626722 1.3579387235313731 1.4189377273270214
      vertex 4.018501364432616 1.3591420458786139 1.4178535348577703
      vertex 3.761828977329442 1.594079884286545 1.0449738466983431
    endloop
  endfacet
  facet normal 0.022746886668461242 -0.07837200385085398 0.9966646417723937
    outer loop
      vertex 3.750956389945007 1.0001504461709618 1.6059814307701392
      vertex 3.2556854764928707 0.9609035539081187 1.6141988525624473
      vertex 3.5126884451652267 0.5230853007792283 1.5739057494072832
    endloop
  endfacet
  facet normal -0.0022465015314286673 -0.09295161730731652 0.9956680923233522
    outer loop
      vertex 3.5126884451652267 0.5230853007792283 1.5739057494072832
      vertex 3.2556854764928707 0.9609035539081187 1.6141988525624473
      vertex 3.001124530224093 0.5191338063277101 1.5723826244522094
    endloop
  endfacet
  facet normal 0.001689981110835159 -0.09519993039564578 0.9954567379934244
    outer loop
      vertex 3.001124530224093 0.5191338063277101 1.5723826244522094
      vertex 3.2556854764928707 0.9609035539081187 1.6141988525624473
      vertex 2.744651913910827 0.9577760377698336 1.6147673330674175
    endloop
  endfacet
  facet normal -0.002503626727901098 0.9015534444973414 -0.4326605119122687
    outer loop
      vertex 1.9722967679849195 1.6015332163678042 0.6094653688498665
      vertex 2.4837116156296055 1.5997986640326958 0.6028916616691119
      vertex 2.2524138413886976 1.4682217800295234 0.33005763487553735
    endloop
  endfacet
  facet normal 0.028327140054449168 0.9129174394835602 -0.40716006904301877
    outer loop
      vertex 2.4837116156296055 1.5997986640326958 0.6028916616691119
      vertex 2.987932011094214 1.6152721903013374 0.6726656299473814
      vertex 2.7406499027875633 1.4731448468641226 0.3367895562260763
    endloop
  endfacet
  facet normal -0.0031331356175534 0.9017597204563237 -0.4322263180600356
    outer loop
      vertex 2.2524138413886976 1.4682217800295234 0.33005763487553735
      vertex 2.4837116156296055 1.5997986640326958 0.6028916616691119
      vertex 2.7406499027875633 1.4731448468641226 0.3367895562260763
    endloop
  endfacet
  facet normal -0.0744183258570023 -0.029851066720513464 0.9967802298361904
    outer loop
      vertex 3.750956389945007 1.0001504461709618 1.6059814307701392
      vertex 3.5126884451652267 0.5230853007792283 1.5739057494072832
      vertex 4.038451271375798 0.6902021774488908 1.6181632547625775
    endloop
  endfacet
  facet normal -0.022770474854584832 0.4773119447783378 0.878438849805049
    outer loop
      vertex 4.018501364432616 1.3591420458786139 1.4178535348577703
      vertex 3.750956389945007 1.0001504461709618 1.6059814307701392
      vertex 4.302714885073797 1.0526203969547514 1.5917735763307888
    endloop
  endfacet
  facet normal 0.02019019292187843 0.05795624442582434 0.9981149381919056
    outer loop
      vertex 4.302714885073797 1.0526203969547514 1.5917735763307888
      vertex 3.750956389945007 1.0001504461709618 1.6059814307701392
      vertex 4.038451271375798 0.6902021774488908 1.6181632547625775
    endloop
  endfacet
  facet normal 0.0022972409884080016 -0.6044669728223072 0.7966268897362663
    outer loop
      vertex 3.5126884451652267 0.5230853007792283 1.5739057494072832
      vertex 3.001124530224093 0.5191338063277101 1.5723826244522094
      vertex 3.2030536319304828 0.1615612287110143 1.3004803121449564
    endloop
  endfacet
  facet normal 0.01422605228456215 -0.6108788973551268 0.7915962305383859
    outer loop
      vertex 3.5126884451652267 0.5230853007792283 1.5739057494072832
      vertex 3.2030536319304828 0.1615612287110143 1.3004803121449564
      vertex 3.668519902239038 0.14783640513419627 1.2815237380580586
    endloop
  endfacet
  facet normal -0.08947292441479263 -0.6350133397235941 0.7673021922096613
    outer loop
      vertex 3.970795204888803 0.3367653936229681 1.4731273653511299
      vertex 3.5126884451652267 0.5230853007792283 1.5739057494072832
      vertex 3.668519902239038 0.14783640513419627 1.2815237380580586
    endloop
  endfacet
  facet normal 0.045368162894301 -0.38666712989748286 0.9211027415291083
    outer loop
      vertex 3.5126884451652267 0.5230853007792283 1.5739057494072832
      vertex 3.970795204888803 0.3367653936229681 1.4731273653511299
      vertex 4.038451271375798 0.6902021774488908 1.6181632547625775
    endloop
  endfacet
  facet normal -0.0015561614923890828 -0.09708040949286754 0.9952753249498888
    outer loop
      vertex 3.001124530224093 0.5191338063277101 1.5723826244522094
      vertex 2.744651913910827 0.9577760377698336 1.6147673330674175
      vertex 2.4890806465300472 0.5164011914369004 1.5713154761765726
    endloop
  endfacet
  facet normal 0.005996679598703488 -0.6031320741122937 0.7976187942938613
    outer loop
      vertex 3.001124530224093 0.5191338063277101 1.5723826244522094
      vertex 2.7476299930663823 0.16760045230139897 1.3084709451887562
      vertex 3.2030536319304828 0.1615612287110143 1.3004803121449564
    endloop
  endfacet
  facet normal 0.0015422669999326276 -0.6010912160138413 0.7991789358106872
    outer loop
      vertex 2.7476299930663823 0.16760045230139897 1.3084709451887562
      vertex 3.001124530224093 0.5191338063277101 1.5723826244522094
      vertex 2.4890806465300472 0.5164011914369004 1.5713154761765726
    endloop
  endfacet
  facet normal -0.03296884378833987 0.8352158522984782 0.5489330882799714
    outer loop
      vertex 3.761828977329442 1.594079884286545 1.0449738466983431
      vertex 4.018501364432616 1.3591420458786139 1.4178535348577703
      vertex 4.145927279514736 1.5788753189829146 1.0911768747804789
    endloop
  endfacet
  facet normal 0.09490862993456305 0.5563824687357098 0.8254882800182574
    outer loop
      vertex 4.018501364432616 1.3591420458786139 1.4178535348577703
      vertex 4.302714885073797 1.0526203969547514 1.5917735763307888
      vertex 4.440197278390509 1.4706947486235769 1.2941830333360862
    endloop
  endfacet
  facet normal -0.06376213903847844 0.8394112510535299 0.5397435884102615
    outer loop
      vertex 4.018501364432616 1.3591420458786139 1.4178535348577703
      vertex 4.440197278390509 1.4706947486235769 1.2941830333360862
      vertex 4.145927279514736 1.5788753189829146 1.0911768747804789
    endloop
  endfacet
  facet normal -0.04441457741387072 0.998950905005037 0.011155030379387944
    outer loop
      vertex 1.2923345584498922 1.589026022286146 1.0613938346340455
      vertex 1.4594023912834861 1.601501976695858 0.6093449757671334
      vertex 0.9846187812702615 1.5811362265769886 0.5427446291834894
    endloop
  endfacet
  facet normal 0.019725401247031635 0.8302662998443461 0.5570177554516749
    outer loop
      vertex 0.9642176533495939 1.3554585530166297 1.4211587328300648
      vertex 1.2923345584498922 1.589026022286146 1.0613938346340455
      vertex 0.8361682724675225 1.577673709038609 1.0944690929373246
    endloop
  endfacet
  facet normal -0.024909693541595845 0.9996896136079069 -0.00042849986877221806
    outer loop
      vertex 1.2923345584498922 1.589026022286146 1.0613938346340455
      vertex 0.9846187812702615 1.5811362265769886 0.5427446291834894
      vertex 0.8361682724675225 1.577673709038609 1.0944690929373246
    endloop
  endfacet
  facet normal 0.045200694643691336 0.8186194972578539 -0.5725548147671333
    outer loop
      vertex 1.4594023912834861 1.601501976695858 0.6093449757671334
      vertex 1.4437455179652758 1.2777263794774236 0.14518554279243245
      vertex 0.9846187812702615 1.5811362265769886 0.5427446291834894
    endloop
  endfacet
  facet normal -0.15196245723180285 0.8130465057800799 -0.5620167177503486
    outer loop
      vertex 1.4437455179652758 1.2777263794774236 0.14518554279243245
      vertex 1.4594023912834861 1.601501976695858 0.6093449757671334
      vertex 1.7798609632276676 1.4701709460199326 0.3327056824601088
    endloop
  endfacet
  facet normal 4.563390864922233e-05 0.9033898848978932 -0.42882014152989345
    outer loop
      vertex 1.4594023912834861 1.601501976695858 0.6093449757671334
      vertex 1.9722967679849195 1.6015332163678042 0.6094653688498665
      vertex 1.7798609632276676 1.4701709460199326 0.3327056824601088
    endloop
  endfacet
  facet normal 0.011133411039048422 0.7167902012050926 -0.6972000104812094
    outer loop
      vertex 3.7396490932932234 1.5201038133430462 0.40955995660362604
      vertex 3.5405155587777575 1.2451993114267992 0.12375117040665248
      vertex 3.301127403344708 1.509634715923978 0.39179405229643094
    endloop
  endfacet
  facet normal -0.0104869147745664 0.953015147242096 -0.302741067160762
    outer loop
      vertex 3.7396490932932234 1.5201038133430462 0.40955995660362604
      vertex 3.301127403344708 1.509634715923978 0.39179405229643094
      vertex 3.517533285395677 1.6248593951515868 0.7470198418029887
    endloop
  endfacet
  facet normal 0.026514405634400773 0.9450088860593502 -0.3259680836565454
    outer loop
      vertex 4.349768401676118 1.482379499376313 0.34982140529278966
      vertex 3.7396490932932234 1.5201038133430462 0.40955995660362604
      vertex 4.03539481137311 1.623667884841918 0.7338570122874831
    endloop
  endfacet
  facet normal -0.005423104140098479 0.9540125267680948 -0.2997176816790111
    outer loop
      vertex 3.7396490932932234 1.5201038133430462 0.40955995660362604
      vertex 3.517533285395677 1.6248593951515868 0.7470198418029887
      vertex 4.03539481137311 1.623667884841918 0.7338570122874831
    endloop
  endfacet
  facet normal -0.02355292313664096 0.9267920983713038 -0.374835518872258
    outer loop
      vertex 2.987932011094214 1.6152721903013374 0.6726656299473814
      vertex 3.301127403344708 1.509634715923978 0.39179405229643094
      vertex 2.7406499027875633 1.4731448468641226 0.3367895562260763
    endloop
  endfacet
  facet normal 0.02837259957345491 0.9456255154097044 -0.3240175615604426
    outer loop
      vertex 3.301127403344708 1.509634715923978 0.39179405229643094
      vertex 2.987932011094214 1.6152721903013374 0.6726656299473814
      vertex 3.517533285395677 1.6248593951515868 0.7470198418029887
    endloop
  endfacet
  facet normal 0.003227118245668646 0.6811271801678825 -0.7321580090010471
    outer loop
      vertex 2.5012613786455367 1.2454442409992887 0.12390435282311492
      vertex 2.2524138413886976 1.4682217800295234 0.33005763487553735
      vertex 2.7406499027875633 1.4731448468641226 0.3367895562260763
    endloop
  endfacet
  facet normal 0.0009446151048812296 -0.09851464596366678 0.9951351527470814
    outer loop
      vertex 2.744651913910827 0.9577760377698336 1.6147673330674175
      vertex 2.2354317447864287 0.9560349549550841 1.6150783409797822
      vertex 2.4890806465300472 0.5164011914369004 1.5713154761765726
    endloop
  endfacet
  facet normal -0.0005269918298553412 -0.09935540673674671 0.9950518707242286
    outer loop
      vertex 2.2354317447864287 0.9560349549550841 1.6150783409797822
      vertex 1.9777668631130245 0.515478399792569 1.570952537784983
      vertex 2.4890806465300472 0.5164011914369004 1.5713154761765726
    endloop
  endfacet
  facet normal 0.05599319855223251 -0.7757037890254309 -0.6286082988693992
    outer loop
      vertex 3.717593354956011 0.07483325855266387 0.4729224757884545
      vertex 4.056898343576666 0.382159925667359 0.1239043528231243
      vertex 4.155040348298548 0.04393986265946884 0.5500105140655114
    endloop
  endfacet
  facet normal 0.040488721483561516 -0.6387939591311731 -0.7683117474112626
    outer loop
      vertex 4.495194995035513 0.15531966313417253 0.3356026133144613
      vertex 4.056898343576666 0.382159925667359 0.1239043528231243
      vertex 4.466230129971953 0.45949684707562355 0.0811755547404608
    endloop
  endfacet
  facet normal -0.1193899039254874 -0.7908576199866694 -0.6002418477161383
    outer loop
      vertex 4.056898343576666 0.382159925667359 0.1239043528231243
      vertex 4.495194995035513 0.15531966313417253 0.3356026133144613
      vertex 4.155040348298548 0.04393986265946884 0.5500105140655114
    endloop
  endfacet
  facet normal -0.005815632798273992 -0.9866535793962077 -0.1627295077108235
    outer loop
      vertex 3.245242416479802 0.07912834416196748 0.46376161737312693
      vertex 3.717593354956011 0.07483325855266387 0.4729224757884545
      vertex 3.4918895641482726 0.005034863233517446 0.9041868969343423
    endloop
  endfacet
  facet normal 0.07294596877148651 -0.9898427474282379 -0.12202549325328346
    outer loop
      vertex 3.4918895641482726 0.005034863233517446 0.9041868969343423
      vertex 3.717593354956011 0.07483325855266387 0.4729224757884545
      vertex 3.9675692197809624 0.026051405809537364 1.0180634377263595
    endloop
  endfacet
  facet normal -0.059454785545011345 -0.9963104770527166 -0.0618915324643439
    outer loop
      vertex 3.9675692197809624 0.026051405809537364 1.0180634377263595
      vertex 3.717593354956011 0.07483325855266387 0.4729224757884545
      vertex 4.155040348298548 0.04393986265946884 0.5500105140655114
    endloop
  endfacet
  facet normal -0.012887463694475335 -0.9331758320106427 0.3591890586178376
    outer loop
      vertex 3.2030536319304828 0.1615612287110143 1.3004803121449564
      vertex 3.4918895641482726 0.005034863233517446 0.9041868969343423
      vertex 3.668519902239038 0.14783640513419627 1.2815237380580586
    endloop
  endfacet
  facet normal -0.04843018295070053 -0.9264528573606141 0.37328222629495134
    outer loop
      vertex 3.4918895641482726 0.005034863233517446 0.9041868969343423
      vertex 3.9675692197809624 0.026051405809537364 1.0180634377263595
      vertex 3.668519902239038 0.14783640513419627 1.2815237380580586
    endloop
  endfacet
  facet normal 0.02527111806633544 0.992852260446401 0.11664372901339146
    outer loop
      vertex 3.761828977329442 1.594079884286545 1.0449738466983431
      vertex 4.145927279514736 1.5788753189829146 1.0911768747804789
      vertex 4.03539481137311 1.623667884841918 0.7338570122874831
    endloop
  endfacet
  facet normal 0.0048022760083313906 0.9950899396667532 0.09885823242986648
    outer loop
      vertex 3.517533285395677 1.6248593951515868 0.7470198418029887
      vertex 3.761828977329442 1.594079884286545 1.0449738466983431
      vertex 4.03539481137311 1.623667884841918 0.7338570122874831
    endloop
  endfacet
  facet normal 0.0013178214724416987 0.9030461315531246 -0.42954155518820686
    outer loop
      vertex 1.7798609632276676 1.4701709460199326 0.3327056824601088
      vertex 1.9722967679849195 1.6015332163678042 0.6094653688498665
      vertex 2.2524138413886976 1.4682217800295234 0.33005763487553735
    endloop
  endfacet
  facet normal 0.06479176983451722 0.8367385800875309 0.5437559886151264
    outer loop
      vertex 0.5395690203808572 1.4721818004668794 1.2921429439179366
      vertex 0.9642176533495939 1.3554585530166297 1.4211587328300648
      vertex 0.8361682724675225 1.577673709038609 1.0944690929373246
    endloop
  endfacet
  facet normal -0.10570189728083328 -0.8208772011360285 0.5612376765384809
    outer loop
      vertex 4.417149461847805 0.15744114443319396 1.2949092945906568
      vertex 3.970795204888803 0.3367653936229681 1.4731273653511299
      vertex 3.9675692197809624 0.026051405809537364 1.0180634377263595
    endloop
  endfacet
  facet normal 0.15757089379562456 -0.816055865361716 0.5560793450913176
    outer loop
      vertex 3.9675692197809624 0.026051405809537364 1.0180634377263595
      vertex 3.970795204888803 0.3367653936229681 1.4731273653511299
      vertex 3.668519902239038 0.14783640513419627 1.2815237380580586
    endloop
  endfacet
endsolid abc_50_034
