solid abc_50_039
  facet normal 0.0 -1.0 0.0
    outer loop
      vertex 4.999999999999999 0.0 0.0
      vertex 4.999999999999999 0.0 0.10416666666666664
      vertex 4.374999999999999 0.0 0.0
    endloop
  endfacet
  facet normal -0.0 -1.0 0.0
    outer loop
      vertex 0.6249999999999991 0.0 0.10416666666666664
      vertex 0.0 0.0 0.10416666666666664
      vertex 0.0 0.0 0.0
    endloop
  endfacet
  facet normal 0.0 -1.0 0.0
    outer loop
      vertex 0.0 0.0 0.0
      vertex 0.6249999999999991 0.0 0.0
      vertex 0.6249999999999991 0.0 0.10416666666666664
    endloop
  endfacet
  facet normal -0.0 -1.0 0.0
    outer loop
      vertex 4.999999999999999 0.0 0.10416666666666664
      vertex 4.374999999999999 0.0 0.10416666666666664
      vertex 4.374999999999999 0.0 0.0
    endloop
  endfacet
  facet normal 0.0 -1.0 0.0
    outer loop
      vertex 4.374999999999999 0.0 0.0
      vertex 4.374999999999999 0.0 0.10416666666666664
      vertex 3.749999999999998 0.0 0.0
    endloop
  endfacet
  facet normal 0.0 -1.0 0.0
    outer loop
      vertex 3.1249999999999973 0.0 0.10416666666666664
      vertex 3.1249999999999973 0.0 0.0
      vertex 3.749999999999998 0.0 0.0
    endloop
  endfacet
  facet normal -0.0 -1.0 0.0
    outer loop
      vertex 4.374999999999999 0.0 0.10416666666666664
      vertex 3.749999999999998 0.0 0.10416666666666664
      vertex 3.749999999999998 0.0 0.0
    endloop
  endfacet
  facet normal 0.0 -1.0 0.0
    outer loop
      vertex 3.749999999999998 0.0 0.0
      vertex 3.749999999999998 0.0 0.10416666666666664
      vertex 3.1249999999999973 0.0 0.10416666666666664
    endloop
  endfacet
  facet normal 0.0 -1.0 0.0
    outer loop
      vertex 2.499999999999998 0.0 0.10416666666666664
      vertex 2.499999999999998 0.0 0.0
      vertex 3.1249999999999973 0.0 0.0
    endloop
  endfacet
  facet normal 0.0 -1.0 0.0
    outer loop
      vertex 2.499999999999998 0.0 0.10416666666666664
      vertex 3.1249999999999973 0.0 0.0
      vertex 3.1249999999999973 0.0 0.10416666666666664
    endloop
  endfacet
  facet normal 0.0 -1.0 0.0
    outer loop
      vertex 1.8749999999999976 0.0 0.10416666666666664
      vertex 1.8749999999999976 0.0 0.0
      vertex 2.499999999999998 0.0 0.0
    endloop
  endfacet
  facet normal 0.0 -1.0 0.0
    outer loop
      vertex 1.8749999999999976 0.0 0.10416666666666664
      vertex 2.499999999999998 0.0 0.0
      vertex 2.499999999999998 0.0 0.10416666666666664
    endloop
  endfacet
  facet normal 0.0 -1.0 0.0
    outer loop
      vertex 1.2499999999999982 0.0 0.0
      vertex 1.8749999999999976 0.0 0.0
      vertex 1.8749999999999976 0.0 0.10416666666666664
    endloop
  endfacet
  facet normal 0.0 -1.0 0.0
    outer loop
      vertex 0.6249999999999991 0.0 0.10416666666666664
      vertex 0.6249999999999991 0.0 0.0
      vertex 1.2499999999999982 0.0 0.0
    endloop
  endfacet
  facet normal 0.0 -1.0 0.0
    outer loop
      vertex 1.2499999999999982 0.0 0.10416666666666664
      vertex 1.2499999999999982 0.0 0.0
      vertex 1.8749999999999976 0.0 0.10416666666666664
    endloop
  endfacet
  facet normal 0.0 -1.0 0.0
    outer loop
      vertex 0.6249999999999991 0.0 0.10416666666666664
      vertex 1.2499999999999982 0.0 0.0
      vertex 1.2499999999999982 0.0 0.10416666666666664
    endloop
  endfacet
  facet normal 0.0 0.0 1.0
    outer loop
      vertex 4.999999999999999 0.0 0.10416666666666664
      vertex 4.5424682452694505 0.45753175473054847 0.10416666666666664
      vertex 4.374999999999999 0.0 0.10416666666666664
    endloop
  endfacet
  facet normal 0.0 0.0 1.0
    outer loop
      vertex 5.0 0.6250000000000007 0.10416666666666664
      vertex 4.5424682452694505 0.45753175473054847 0.10416666666666664
      vertex 4.999999999999999 0.0 0.10416666666666664
    endloop
  endfacet
  facet normal 0.0 0.0 1.0
    outer loop
      vertex 0.6249999999999991 0.0 0.10416666666666664
      vertex 0.4531377837072769 0.45313778370727764 0.10416666666666664
      vertex 0.0 0.0 0.10416666666666664
    endloop
  endfacet
  facet normal 0.0 0.0 1.0
    outer loop
      vertex 0.0 0.0 0.10416666666666664
      vertex 0.4531377837072769 0.45313778370727764 0.10416666666666664
      vertex 0.0 0.6250000000000007 0.10416666666666664
    endloop
  endfacet
  facet normal 0.0 0.0 1.0
    outer loop
      vertex 4.999999999999999 3.749999999999999 0.10416666666666664
      vertex 4.5424682452694505 3.2924682452694514 0.10416666666666664
      vertex 4.999999999999999 3.1250000000000004 0.10416666666666664
    endloop
  endfacet
  facet normal -0.0 0.0 1.0
    outer loop
      vertex 4.374999999999998 3.749999999999999 0.10416666666666664
      vertex 4.5424682452694505 3.2924682452694514 0.10416666666666664
      vertex 4.999999999999999 3.749999999999999 0.10416666666666664
    endloop
  endfacet
  facet normal -0.0 0.0 1.0
    outer loop
      vertex 0.0 3.749999999999999 0.10416666666666664
      vertex 0.457531754730548 3.2924682452694505 0.10416666666666664
      vertex 0.6249999999999983 3.749999999999999 0.10416666666666664
    endloop
  endfacet
  facet normal 0.0 0.0 1.0
    outer loop
      vertex 0.0 3.1250000000000004 0.10416666666666664
      vertex 0.457531754730548 3.2924682452694505 0.10416666666666664
      vertex 0.0 3.749999999999999 0.10416666666666664
    endloop
  endfacet
  facet normal 0.0 0.0 1.0
    outer loop
      vertex 4.374999999999999 0.0 0.10416666666666664
      vertex 4.05985164419945 0.5292325281598957 0.10416666666666664
      vertex 3.749999999999998 0.0 0.10416666666666664
    endloop
  endfacet
  facet normal 0.0 -0.0 1.0
    outer loop
      vertex 4.374999999999999 0.0 0.10416666666666664
      vertex 4.5424682452694505 0.45753175473054847 0.10416666666666664
      vertex 4.05985164419945 0.5292325281598957 0.10416666666666664
    endloop
  endfacet
  facet normal 0.0 0.0 1.0
    outer loop
      vertex 3.749999999999998 0.0 0.10416666666666664
      vertex 3.437058607366573 0.5392603191643781 0.10416666666666664
      vertex 3.1249999999999973 0.0 0.10416666666666664
    endloop
  endfacet
  facet normal 0.0 0.0 1.0
    outer loop
      vertex 4.05985164419945 0.5292325281598957 0.10416666666666664
      vertex 3.437058607366573 0.5392603191643781 0.10416666666666664
      vertex 3.749999999999998 0.0 0.10416666666666664
    endloop
  endfacet
  facet normal 0.0 0.0 1.0
    outer loop
      vertex 3.1249999999999973 0.0 0.10416666666666664
      vertex 2.8124999999999973 0.5412658773652738 0.10416666666666664
      vertex 2.499999999999998 0.0 0.10416666666666664
    endloop
  endfacet
  facet normal 0.0 -0.0 1.0
    outer loop
      vertex 3.1249999999999973 0.0 0.10416666666666664
      vertex 3.437058607366573 0.5392603191643781 0.10416666666666664
      vertex 2.8124999999999973 0.5412658773652738 0.10416666666666664
    endloop
  endfacet
  facet normal 0.0 0.0 1.0
    outer loop
      vertex 2.499999999999998 0.0 0.10416666666666664
      vertex 2.215092702678109 0.53317504626994 0.10416666666666664
      vertex 1.8749999999999976 0.0 0.10416666666666664
    endloop
  endfacet
  facet normal 0.0 0.0 1.0
    outer loop
      vertex 2.8124999999999973 0.5412658773652738 0.10416666666666664
      vertex 2.215092702678109 0.53317504626994 0.10416666666666664
      vertex 2.499999999999998 0.0 0.10416666666666664
    endloop
  endfacet
  facet normal 0.0 0.0 1.0
    outer loop
      vertex 1.8749999999999976 0.0 0.10416666666666664
      vertex 1.5624999999999982 0.5412658773652731 0.10416666666666664
      vertex 1.2499999999999982 0.0 0.10416666666666664
    endloop
  endfacet
  facet normal 0.0 -0.0 1.0
    outer loop
      vertex 1.8749999999999976 0.0 0.10416666666666664
      vertex 2.215092702678109 0.53317504626994 0.10416666666666664
      vertex 1.5624999999999982 0.5412658773652731 0.10416666666666664
    endloop
  endfacet
  facet normal 0.0 0.0 1.0
    outer loop
      vertex 1.2499999999999982 0.0 0.10416666666666664
      vertex 0.9374999999999982 0.46937711374867025 0.10416666666666664
      vertex 0.6249999999999991 0.0 0.10416666666666664
    endloop
  endfacet
  facet normal 0.0 0.0 1.0
    outer loop
      vertex 1.5624999999999982 0.5412658773652731 0.10416666666666664
      vertex 0.9374999999999982 0.46937711374867025 0.10416666666666664
      vertex 1.2499999999999982 0.0 0.10416666666666664
    endloop
  endfacet
  facet normal 0.0 0.0 1.0
    outer loop
      vertex 0.9374999999999982 0.46937711374867025 0.10416666666666664
      vertex 0.4531377837072769 0.45313778370727764 0.10416666666666664
      vertex 0.6249999999999991 0.0 0.10416666666666664
    endloop
  endfacet
  facet normal 0.0 0.0 1.0
    outer loop
      vertex 4.999999999999999 1.250000000000001 0.10416666666666664
      vertex 4.4306439340469845 0.9825522059703549 0.10416666666666664
      vertex 5.0 0.6250000000000007 0.10416666666666664
    endloop
  endfacet
  facet normal 0.0 0.0 1.0
    outer loop
      vertex 4.4306439340469845 0.9825522059703549 0.10416666666666664
      vertex 4.5424682452694505 0.45753175473054847 0.10416666666666664
      vertex 5.0 0.6250000000000007 0.10416666666666664
    endloop
  endfacet
  facet normal 0.0 0.0 1.0
    outer loop
      vertex 4.999999999999999 1.8750000000000007 0.10416666666666664
      vertex 4.488416837349195 1.5979216070585422 0.10416666666666664
      vertex 4.999999999999999 1.250000000000001 0.10416666666666664
    endloop
  endfacet
  facet normal 0.0 0.0 1.0
    outer loop
      vertex 4.488416837349195 1.5979216070585422 0.10416666666666664
      vertex 4.4306439340469845 0.9825522059703549 0.10416666666666664
      vertex 4.999999999999999 1.250000000000001 0.10416666666666664
    endloop
  endfacet
  facet normal 0.0 0.0 1.0
    outer loop
      vertex 4.999999999999999 2.5 0.10416666666666664
      vertex 4.47361453266383 2.1929622085429994 0.10416666666666664
      vertex 4.999999999999999 1.8750000000000007 0.10416666666666664
    endloop
  endfacet
  facet normal 0.0 0.0 1.0
    outer loop
      vertex 4.999999999999999 1.8750000000000007 0.10416666666666664
      vertex 4.47361453266383 2.1929622085429994 0.10416666666666664
      vertex 4.488416837349195 1.5979216070585422 0.10416666666666664
    endloop
  endfacet
  facet normal 0.0 0.0 1.0
    outer loop
      vertex 4.999999999999999 3.1250000000000004 0.10416666666666664
      vertex 4.470767471840104 2.8098516441994525 0.10416666666666664
      vertex 4.999999999999999 2.5 0.10416666666666664
    endloop
  endfacet
  facet normal 0.0 0.0 1.0
    outer loop
      vertex 4.470767471840104 2.8098516441994525 0.10416666666666664
      vertex 4.47361453266383 2.1929622085429994 0.10416666666666664
      vertex 4.999999999999999 2.5 0.10416666666666664
    endloop
  endfacet
  facet normal 0.0 0.0 1.0
    outer loop
      vertex 4.999999999999999 3.1250000000000004 0.10416666666666664
      vertex 4.5424682452694505 3.2924682452694514 0.10416666666666664
      vertex 4.470767471840104 2.8098516441994525 0.10416666666666664
    endloop
  endfacet
  facet normal -0.0 0.0 1.0
    outer loop
      vertex 3.749999999999998 3.749999999999999 0.10416666666666664
      vertex 4.017128602112201 3.1786265119757786 0.10416666666666664
      vertex 4.374999999999998 3.749999999999999 0.10416666666666664
    endloop
  endfacet
  facet normal 0.0 0.0 1.0
    outer loop
      vertex 4.017128602112201 3.1786265119757786 0.10416666666666664
      vertex 4.5424682452694505 3.2924682452694514 0.10416666666666664
      vertex 4.374999999999998 3.749999999999999 0.10416666666666664
    endloop
  endfacet
  facet normal -0.0 0.0 1.0
    outer loop
      vertex 3.124999999999997 3.749999999999999 0.10416666666666664
      vertex 3.4010387472073975 3.2297850367495236 0.10416666666666664
      vertex 3.749999999999998 3.749999999999999 0.10416666666666664
    endloop
  endfacet
  facet normal -0.0 0.0 1.0
    outer loop
      vertex 3.4010387472073975 3.2297850367495236 0.10416666666666664
      vertex 4.017128602112201 3.1786265119757786 0.10416666666666664
      vertex 3.749999999999998 3.749999999999999 0.10416666666666664
    endloop
  endfacet
  facet normal -0.0 0.0 1.0
    outer loop
      vertex 2.4999999999999973 3.749999999999999 0.10416666666666664
      vertex 2.806423124534564 3.212242608320525 0.10416666666666664
      vertex 3.124999999999997 3.749999999999999 0.10416666666666664
    endloop
  endfacet
  facet normal 0.0 0.0 1.0
    outer loop
      vertex 3.124999999999997 3.749999999999999 0.10416666666666664
      vertex 2.806423124534564 3.212242608320525 0.10416666666666664
      vertex 3.4010387472073975 3.2297850367495236 0.10416666666666664
    endloop
  endfacet
  facet normal -0.0 0.0 1.0
    outer loop
      vertex 1.8749999999999973 3.749999999999999 0.10416666666666664
      vertex 2.1874999999999973 3.2087341226347252 0.10416666666666664
      vertex 2.4999999999999973 3.749999999999999 0.10416666666666664
    endloop
  endfacet
  facet normal 0.0 0.0 1.0
    outer loop
      vertex 2.1874999999999973 3.2087341226347252 0.10416666666666664
      vertex 2.806423124534564 3.212242608320525 0.10416666666666664
      vertex 2.4999999999999973 3.749999999999999 0.10416666666666664
    endloop
  endfacet
  facet normal -0.0 0.0 1.0
    outer loop
      vertex 1.2499999999999982 3.749999999999999 0.10416666666666664
      vertex 1.5665005261709144 3.2110763134749756 0.10416666666666664
      vertex 1.8749999999999973 3.749999999999999 0.10416666666666664
    endloop
  endfacet
  facet normal 0.0 0.0 1.0
    outer loop
      vertex 1.8749999999999973 3.749999999999999 0.10416666666666664
      vertex 1.5665005261709144 3.2110763134749756 0.10416666666666664
      vertex 2.1874999999999973 3.2087341226347252 0.10416666666666664
    endloop
  endfacet
  facet normal -0.0 0.0 1.0
    outer loop
      vertex 0.6249999999999983 3.749999999999999 0.10416666666666664
      vertex 0.9616719591217567 3.222689809740513 0.10416666666666664
      vertex 1.2499999999999982 3.749999999999999 0.10416666666666664
    endloop
  endfacet
  facet normal -0.0 0.0 1.0
    outer loop
      vertex 0.9616719591217567 3.222689809740513 0.10416666666666664
      vertex 1.5665005261709144 3.2110763134749756 0.10416666666666664
      vertex 1.2499999999999982 3.749999999999999 0.10416666666666664
    endloop
  endfacet
  facet normal 0.0 0.0 1.0
    outer loop
      vertex 0.6249999999999983 3.749999999999999 0.10416666666666664
      vertex 0.457531754730548 3.2924682452694505 0.10416666666666664
      vertex 0.9616719591217567 3.222689809740513 0.10416666666666664
    endloop
  endfacet
  facet normal 0.0 0.0 1.0
    outer loop
      vertex 0.0 0.6250000000000007 0.10416666666666664
      vertex 0.49231193573418974 0.90004342597806 0.10416666666666664
      vertex 0.0 1.2500000000000013 0.10416666666666664
    endloop
  endfacet
  facet normal -0.0 0.0 1.0
    outer loop
      vertex 0.0 0.6250000000000007 0.10416666666666664
      vertex 0.4531377837072769 0.45313778370727764 0.10416666666666664
      vertex 0.49231193573418974 0.90004342597806 0.10416666666666664
    endloop
  endfacet
  facet normal 0.0 0.0 1.0
    outer loop
      vertex 0.0 1.2500000000000013 0.10416666666666664
      vertex 0.5553393879488114 1.5682512493853582 0.10416666666666664
      vertex 0.0 1.8750000000000007 0.10416666666666664
    endloop
  endfacet
  facet normal -0.0 0.0 1.0
    outer loop
      vertex 0.0 1.2500000000000013 0.10416666666666664
      vertex 0.49231193573418974 0.90004342597806 0.10416666666666664
      vertex 0.5553393879488114 1.5682512493853582 0.10416666666666664
    endloop
  endfacet
  facet normal 0.0 0.0 1.0
    outer loop
      vertex 0.0 1.8750000000000007 0.10416666666666664
      vertex 0.41614095812501717 2.169363730769113 0.10416666666666664
      vertex 0.0 2.5000000000000004 0.10416666666666664
    endloop
  endfacet
  facet normal 0.0 0.0 1.0
    outer loop
      vertex 0.5553393879488114 1.5682512493853582 0.10416666666666664
      vertex 0.41614095812501717 2.169363730769113 0.10416666666666664
      vertex 0.0 1.8750000000000007 0.10416666666666664
    endloop
  endfacet
  facet normal 0.0 0.0 1.0
    outer loop
      vertex 0.0 2.5000000000000004 0.10416666666666664
      vertex 0.5767312517774049 2.7333446805321144 0.10416666666666664
      vertex 0.0 3.1250000000000004 0.10416666666666664
    endloop
  endfacet
  facet normal -0.0 0.0 1.0
    outer loop
      vertex 0.0 2.5000000000000004 0.10416666666666664
      vertex 0.41614095812501717 2.169363730769113 0.10416666666666664
      vertex 0.5767312517774049 2.7333446805321144 0.10416666666666664
    endloop
  endfacet
  facet normal 0.0 0.0 1.0
    outer loop
      vertex 0.5767312517774049 2.7333446805321144 0.10416666666666664
      vertex 0.457531754730548 3.2924682452694505 0.10416666666666664
      vertex 0.0 3.1250000000000004 0.10416666666666664
    endloop
  endfacet
  facet normal 0.0 0.0 1.0
    outer loop
      vertex 3.437058607366573 0.5392603191643781 0.10416666666666664
      vertex 3.150471261767048 1.0674491821666383 0.10416666666666664
      vertex 2.8124999999999973 0.5412658773652738 0.10416666666666664
    endloop
  endfacet
  facet normal 0.0 0.0 1.0
    outer loop
      vertex 3.150471261767048 1.0674491821666383 0.10416666666666664
      vertex 2.512287252832932 1.1224766453411072 0.10416666666666664
      vertex 2.8124999999999973 0.5412658773652738 0.10416666666666664
    endloop
  endfacet
  facet normal 0.0 0.0 1.0
    outer loop
      vertex 2.512287252832932 1.1224766453411072 0.10416666666666664
      vertex 2.215092702678109 0.53317504626994 0.10416666666666664
      vertex 2.8124999999999973 0.5412658773652738 0.10416666666666664
    endloop
  endfacet
  facet normal -0.0 0.0 1.0
    outer loop
      vertex 2.1874999999999973 3.2087341226347252 0.10416666666666664
      vertex 2.498987187422425 2.6680529928837515 0.10416666666666664
      vertex 2.806423124534564 3.212242608320525 0.10416666666666664
    endloop
  endfacet
  facet normal 0.0 0.0 1.0
    outer loop
      vertex 2.1874999999999973 3.2087341226347252 0.10416666666666664
      vertex 1.8748311979037358 2.6675657032051676 0.10416666666666664
      vertex 2.498987187422425 2.6680529928837515 0.10416666666666664
    endloop
  endfacet
  facet normal 0.0 0.0 1.0
    outer loop
      vertex 2.1874999999999973 3.2087341226347252 0.10416666666666664
      vertex 1.5665005261709144 3.2110763134749756 0.10416666666666664
      vertex 1.8748311979037358 2.6675657032051676 0.10416666666666664
    endloop
  endfacet
  facet normal 0.0 0.0 1.0
    outer loop
      vertex 1.2499999999999973 1.5849364905389045 0.10416666666666664
      vertex 0.9435748408016493 2.1339501854663143 0.10416666666666664
      vertex 0.5553393879488114 1.5682512493853582 0.10416666666666664
    endloop
  endfacet
  facet normal -0.0 0.0 1.0
    outer loop
      vertex 0.5553393879488114 1.5682512493853582 0.10416666666666664
      vertex 1.0078944427490508 1.0344944090270503 0.10416666666666664
      vertex 1.2499999999999973 1.5849364905389045 0.10416666666666664
    endloop
  endfacet
  facet normal 0.0 0.0 1.0
    outer loop
      vertex 0.9435748408016493 2.1339501854663143 0.10416666666666664
      vertex 0.41614095812501717 2.169363730769113 0.10416666666666664
      vertex 0.5553393879488114 1.5682512493853582 0.10416666666666664
    endloop
  endfacet
  facet normal 0.0 0.0 1.0
    outer loop
      vertex 0.5553393879488114 1.5682512493853582 0.10416666666666664
      vertex 0.49231193573418974 0.90004342597806 0.10416666666666664
      vertex 1.0078944427490508 1.0344944090270503 0.10416666666666664
    endloop
  endfacet
  facet normal -0.0 0.0 1.0
    outer loop
      vertex 2.806423124534564 3.212242608320525 0.10416666666666664
      vertex 3.0714127548135988 2.697755846192227 0.10416666666666664
      vertex 3.4010387472073975 3.2297850367495236 0.10416666666666664
    endloop
  endfacet
  facet normal 0.0 0.0 1.0
    outer loop
      vertex 3.0714127548135988 2.697755846192227 0.10416666666666664
      vertex 3.5618812992923083 2.776078627762639 0.10416666666666664
      vertex 3.4010387472073975 3.2297850367495236 0.10416666666666664
    endloop
  endfacet
  facet normal 0.0 0.0 1.0
    outer loop
      vertex 3.4010387472073975 3.2297850367495236 0.10416666666666664
      vertex 3.5618812992923083 2.776078627762639 0.10416666666666664
      vertex 4.017128602112201 3.1786265119757786 0.10416666666666664
    endloop
  endfacet
  facet normal 0.0 0.0 1.0
    outer loop
      vertex 4.47361453266383 2.1929622085429994 0.10416666666666664
      vertex 3.9786063346340192 1.90310040888628 0.10416666666666664
      vertex 4.488416837349195 1.5979216070585422 0.10416666666666664
    endloop
  endfacet
  facet normal 0.0 0.0 1.0
    outer loop
      vertex 4.488416837349195 1.5979216070585422 0.10416666666666664
      vertex 4.030303035105886 1.4318808263033382 0.10416666666666664
      vertex 4.4306439340469845 0.9825522059703549 0.10416666666666664
    endloop
  endfacet
  facet normal 0.0 0.0 1.0
    outer loop
      vertex 3.9786063346340192 1.90310040888628 0.10416666666666664
      vertex 4.030303035105886 1.4318808263033382 0.10416666666666664
      vertex 4.488416837349195 1.5979216070585422 0.10416666666666664
    endloop
  endfacet
  facet normal 0.0 0.0 1.0
    outer loop
      vertex 1.5624999999999982 0.5412658773652731 0.10416666666666664
      vertex 1.5580329975153606 1.136318509126892 0.10416666666666664
      vertex 1.0078944427490508 1.0344944090270503 0.10416666666666664
    endloop
  endfacet
  facet normal 0.0 0.0 1.0
    outer loop
      vertex 1.0078944427490508 1.0344944090270503 0.10416666666666664
      vertex 0.9374999999999982 0.46937711374867025 0.10416666666666664
      vertex 1.5624999999999982 0.5412658773652731 0.10416666666666664
    endloop
  endfacet
  facet normal 0.0 0.0 1.0
    outer loop
      vertex 2.215092702678109 0.53317504626994 0.10416666666666664
      vertex 2.0099468952661206 0.9883088799177532 0.10416666666666664
      vertex 1.5624999999999982 0.5412658773652731 0.10416666666666664
    endloop
  endfacet
  facet normal 0.0 -0.0 1.0
    outer loop
      vertex 1.5624999999999982 0.5412658773652731 0.10416666666666664
      vertex 2.0099468952661206 0.9883088799177532 0.10416666666666664
      vertex 1.5580329975153606 1.136318509126892 0.10416666666666664
    endloop
  endfacet
  facet normal 0.0 0.0 1.0
    outer loop
      vertex 0.9616719591217567 3.222689809740513 0.10416666666666664
      vertex 1.2556695946142526 2.6718045232485235 0.10416666666666664
      vertex 1.5665005261709144 3.2110763134749756 0.10416666666666664
    endloop
  endfacet
  facet normal 0.0 0.0 1.0
    outer loop
      vertex 0.9616719591217567 3.222689809740513 0.10416666666666664
      vertex 0.5767312517774049 2.7333446805321144 0.10416666666666664
      vertex 1.2556695946142526 2.6718045232485235 0.10416666666666664
    endloop
  endfacet
  facet normal 0.0 0.0 1.0
    outer loop
      vertex 0.9616719591217567 3.222689809740513 0.10416666666666664
      vertex 0.457531754730548 3.2924682452694505 0.10416666666666664
      vertex 0.5767312517774049 2.7333446805321144 0.10416666666666664
    endloop
  endfacet
  facet normal 0.0 0.0 1.0
    outer loop
      vertex 4.470767471840104 2.8098516441994525 0.10416666666666664
      vertex 3.977521222024473 2.5083544338566357 0.10416666666666664
      vertex 4.47361453266383 2.1929622085429994 0.10416666666666664
    endloop
  endfacet
  facet normal 0.0 0.0 1.0
    outer loop
      vertex 4.470767471840104 2.8098516441994525 0.10416666666666664
      vertex 4.017128602112201 3.1786265119757786 0.10416666666666664
      vertex 3.977521222024473 2.5083544338566357 0.10416666666666664
    endloop
  endfacet
  facet normal 0.0 -0.0 1.0
    outer loop
      vertex 4.470767471840104 2.8098516441994525 0.10416666666666664
      vertex 4.5424682452694505 3.2924682452694514 0.10416666666666664
      vertex 4.017128602112201 3.1786265119757786 0.10416666666666664
    endloop
  endfacet
  facet normal 0.0 0.0 1.0
    outer loop
      vertex 4.05985164419945 0.5292325281598957 0.10416666666666664
      vertex 3.765268962211547 1.0266282173229977 0.10416666666666664
      vertex 3.437058607366573 0.5392603191643781 0.10416666666666664
    endloop
  endfacet
  facet normal 0.0 -0.0 1.0
    outer loop
      vertex 4.05985164419945 0.5292325281598957 0.10416666666666664
      vertex 4.4306439340469845 0.9825522059703549 0.10416666666666664
      vertex 3.765268962211547 1.0266282173229977 0.10416666666666664
    endloop
  endfacet
  facet normal -0.0 0.0 1.0
    outer loop
      vertex 4.05985164419945 0.5292325281598957 0.10416666666666664
      vertex 4.5424682452694505 0.45753175473054847 0.10416666666666664
      vertex 4.4306439340469845 0.9825522059703549 0.10416666666666664
    endloop
  endfacet
  facet normal 0.0 0.0 1.0
    outer loop
      vertex 2.498987187422425 2.6680529928837515 0.10416666666666664
      vertex 3.0714127548135988 2.697755846192227 0.10416666666666664
      vertex 2.806423124534564 3.212242608320525 0.10416666666666664
    endloop
  endfacet
  facet normal -0.0 0.0 1.0
    outer loop
      vertex 1.8748311979037358 2.6675657032051676 0.10416666666666664
      vertex 2.187303064221025 2.1373519965517085 0.10416666666666664
      vertex 2.498987187422425 2.6680529928837515 0.10416666666666664
    endloop
  endfacet
  facet normal -0.0 0.0 1.0
    outer loop
      vertex 2.187303064221025 2.1373519965517085 0.10416666666666664
      vertex 2.7981679675506204 2.1305709136325284 0.10416666666666664
      vertex 2.498987187422425 2.6680529928837515 0.10416666666666664
    endloop
  endfacet
  facet normal 0.0 -0.0 1.0
    outer loop
      vertex 2.7981679675506204 2.1305709136325284 0.10416666666666664
      vertex 3.0714127548135988 2.697755846192227 0.10416666666666664
      vertex 2.498987187422425 2.6680529928837515 0.10416666666666664
    endloop
  endfacet
  facet normal 0.0 0.0 1.0
    outer loop
      vertex 1.8748311979037358 2.6675657032051676 0.10416666666666664
      vertex 1.5624390436874587 2.1280768823347187 0.10416666666666664
      vertex 2.187303064221025 2.1373519965517085 0.10416666666666664
    endloop
  endfacet
  facet normal 0.0 0.0 1.0
    outer loop
      vertex 1.8748311979037358 2.6675657032051676 0.10416666666666664
      vertex 1.2556695946142526 2.6718045232485235 0.10416666666666664
      vertex 1.5624390436874587 2.1280768823347187 0.10416666666666664
    endloop
  endfacet
  facet normal 0.0 0.0 1.0
    outer loop
      vertex 1.5665005261709144 3.2110763134749756 0.10416666666666664
      vertex 1.2556695946142526 2.6718045232485235 0.10416666666666664
      vertex 1.8748311979037358 2.6675657032051676 0.10416666666666664
    endloop
  endfacet
  facet normal 0.0 0.0 1.0
    outer loop
      vertex 2.187303064221025 2.1373519965517085 0.10416666666666664
      vertex 2.4810057658864664 1.6905122403187702 0.10416666666666664
      vertex 2.7981679675506204 2.1305709136325284 0.10416666666666664
    endloop
  endfacet
  facet normal -0.0 0.0 1.0
    outer loop
      vertex 1.5624390436874587 2.1280768823347187 0.10416666666666664
      vertex 1.9415015815920285 1.5268538911552485 0.10416666666666664
      vertex 2.187303064221025 2.1373519965517085 0.10416666666666664
    endloop
  endfacet
  facet normal 0.0 0.0 1.0
    outer loop
      vertex 1.9415015815920285 1.5268538911552485 0.10416666666666664
      vertex 2.4810057658864664 1.6905122403187702 0.10416666666666664
      vertex 2.187303064221025 2.1373519965517085 0.10416666666666664
    endloop
  endfacet
  facet normal 0.0 0.0 1.0
    outer loop
      vertex 2.7981679675506204 2.1305709136325284 0.10416666666666664
      vertex 3.4133089599053146 2.1526923521421915 0.10416666666666664
      vertex 3.0714127548135988 2.697755846192227 0.10416666666666664
    endloop
  endfacet
  facet normal -0.0 0.0 1.0
    outer loop
      vertex 2.4810057658864664 1.6905122403187702 0.10416666666666664
      vertex 2.9743090658134888 1.5752340545623615 0.10416666666666664
      vertex 2.7981679675506204 2.1305709136325284 0.10416666666666664
    endloop
  endfacet
  facet normal -0.0 0.0 1.0
    outer loop
      vertex 2.7981679675506204 2.1305709136325284 0.10416666666666664
      vertex 2.9743090658134888 1.5752340545623615 0.10416666666666664
      vertex 3.4133089599053146 2.1526923521421915 0.10416666666666664
    endloop
  endfacet
  facet normal 0.0 0.0 1.0
    outer loop
      vertex 1.5624390436874587 2.1280768823347187 0.10416666666666664
      vertex 1.2499999999999973 1.5849364905389045 0.10416666666666664
      vertex 1.9415015815920285 1.5268538911552485 0.10416666666666664
    endloop
  endfacet
  facet normal 0.0 0.0 1.0
    outer loop
      vertex 1.5624390436874587 2.1280768823347187 0.10416666666666664
      vertex 0.9435748408016493 2.1339501854663143 0.10416666666666664
      vertex 1.2499999999999973 1.5849364905389045 0.10416666666666664
    endloop
  endfacet
  facet normal 0.0 0.0 1.0
    outer loop
      vertex 1.5624390436874587 2.1280768823347187 0.10416666666666664
      vertex 1.2556695946142526 2.6718045232485235 0.10416666666666664
      vertex 0.9435748408016493 2.1339501854663143 0.10416666666666664
    endloop
  endfacet
  facet normal 0.0 0.0 1.0
    outer loop
      vertex 1.2499999999999973 1.5849364905389045 0.10416666666666664
      vertex 1.5580329975153606 1.136318509126892 0.10416666666666664
      vertex 1.9415015815920285 1.5268538911552485 0.10416666666666664
    endloop
  endfacet
  facet normal 0.0 0.0 1.0
    outer loop
      vertex 2.512287252832932 1.1224766453411072 0.10416666666666664
      vertex 2.4810057658864664 1.6905122403187702 0.10416666666666664
      vertex 1.9415015815920285 1.5268538911552485 0.10416666666666664
    endloop
  endfacet
  facet normal 0.0 0.0 1.0
    outer loop
      vertex 1.9415015815920285 1.5268538911552485 0.10416666666666664
      vertex 2.0099468952661206 0.9883088799177532 0.10416666666666664
      vertex 2.512287252832932 1.1224766453411072 0.10416666666666664
    endloop
  endfacet
  facet normal -0.0 0.0 1.0
    outer loop
      vertex 1.5580329975153606 1.136318509126892 0.10416666666666664
      vertex 2.0099468952661206 0.9883088799177532 0.10416666666666664
      vertex 1.9415015815920285 1.5268538911552485 0.10416666666666664
    endloop
  endfacet
  facet normal 0.0 0.0 1.0
    outer loop
      vertex 1.0078944427490508 1.0344944090270503 0.10416666666666664
      vertex 1.5580329975153606 1.136318509126892 0.10416666666666664
      vertex 1.2499999999999973 1.5849364905389045 0.10416666666666664
    endloop
  endfacet
  facet normal 0.0 0.0 1.0
    outer loop
      vertex 1.2556695946142526 2.6718045232485235 0.10416666666666664
      vertex 0.5767312517774049 2.7333446805321144 0.10416666666666664
      vertex 0.9435748408016493 2.1339501854663143 0.10416666666666664
    endloop
  endfacet
  facet normal 0.0 0.0 1.0
    outer loop
      vertex 0.5767312517774049 2.7333446805321144 0.10416666666666664
      vertex 0.41614095812501717 2.169363730769113 0.10416666666666664
      vertex 0.9435748408016493 2.1339501854663143 0.10416666666666664
    endloop
  endfacet
  facet normal 0.0 0.0 1.0
    outer loop
      vertex 1.0078944427490508 1.0344944090270503 0.10416666666666664
      vertex 0.49231193573418974 0.90004342597806 0.10416666666666664
      vertex 0.9374999999999982 0.46937711374867025 0.10416666666666664
    endloop
  endfacet
  facet normal 0.0 -0.0 1.0
    outer loop
      vertex 3.437058607366573 0.5392603191643781 0.10416666666666664
      vertex 3.765268962211547 1.0266282173229977 0.10416666666666664
      vertex 3.150471261767048 1.0674491821666383 0.10416666666666664
    endloop
  endfacet
  facet normal 0.0 0.0 1.0
    outer loop
      vertex 3.150471261767048 1.0674491821666383 0.10416666666666664
      vertex 2.9743090658134888 1.5752340545623615 0.10416666666666664
      vertex 2.512287252832932 1.1224766453411072 0.10416666666666664
    endloop
  endfacet
  facet normal 0.0 0.0 1.0
    outer loop
      vertex 3.765268962211547 1.0266282173229977 0.10416666666666664
      vertex 3.5398041777864537 1.5176784797517713 0.10416666666666664
      vertex 3.150471261767048 1.0674491821666383 0.10416666666666664
    endloop
  endfacet
  facet normal 0.0 0.0 1.0
    outer loop
      vertex 3.5398041777864537 1.5176784797517713 0.10416666666666664
      vertex 2.9743090658134888 1.5752340545623615 0.10416666666666664
      vertex 3.150471261767048 1.0674491821666383 0.10416666666666664
    endloop
  endfacet
  facet normal 0.0 0.0 1.0
    outer loop
      vertex 2.512287252832932 1.1224766453411072 0.10416666666666664
      vertex 2.0099468952661206 0.9883088799177532 0.10416666666666664
      vertex 2.215092702678109 0.53317504626994 0.10416666666666664
    endloop
  endfacet
  facet normal 0.0 -0.0 1.0
    outer loop
      vertex 2.512287252832932 1.1224766453411072 0.10416666666666664
      vertex 2.9743090658134888 1.5752340545623615 0.10416666666666664
      vertex 2.4810057658864664 1.6905122403187702 0.10416666666666664
    endloop
  endfacet
  facet normal 0.0 -0.0 1.0
    outer loop
      vertex 3.765268962211547 1.0266282173229977 0.10416666666666664
      vertex 4.030303035105886 1.4318808263033382 0.10416666666666664
      vertex 3.5398041777864537 1.5176784797517713 0.10416666666666664
    endloop
  endfacet
  facet normal 0.0 0.0 1.0
    outer loop
      vertex 4.4306439340469845 0.9825522059703549 0.10416666666666664
      vertex 4.030303035105886 1.4318808263033382 0.10416666666666664
      vertex 3.765268962211547 1.0266282173229977 0.10416666666666664
    endloop
  endfacet
  facet normal 0.0 0.0 1.0
    outer loop
      vertex 3.9786063346340192 1.90310040888628 0.10416666666666664
      vertex 3.4133089599053146 2.1526923521421915 0.10416666666666664
      vertex 3.5398041777864537 1.5176784797517713 0.10416666666666664
    endloop
  endfacet
  facet normal -0.0 0.0 1.0
    outer loop
      vertex 3.5398041777864537 1.5176784797517713 0.10416666666666664
      vertex 4.030303035105886 1.4318808263033382 0.10416666666666664
      vertex 3.9786063346340192 1.90310040888628 0.10416666666666664
    endloop
  endfacet
  facet normal 0.0 0.0 1.0
    outer loop
      vertex 3.4133089599053146 2.1526923521421915 0.10416666666666664
      vertex 2.9743090658134888 1.5752340545623615 0.10416666666666664
      vertex 3.5398041777864537 1.5176784797517713 0.10416666666666664
    endloop
  endfacet
  facet normal 0.0 0.0 1.0
    outer loop
      vertex 3.977521222024473 2.5083544338566357 0.10416666666666664
      vertex 3.9786063346340192 1.90310040888628 0.10416666666666664
      vertex 4.47361453266383 2.1929622085429994 0.10416666666666664
    endloop
  endfacet
  facet normal 0.0 0.0 1.0
    outer loop
      vertex 4.017128602112201 3.1786265119757786 0.10416666666666664
      vertex 3.5618812992923083 2.776078627762639 0.10416666666666664
      vertex 3.977521222024473 2.5083544338566357 0.10416666666666664
    endloop
  endfacet
  facet normal 0.0 0.0 1.0
    outer loop
      vertex 3.977521222024473 2.5083544338566357 0.10416666666666664
      vertex 3.4133089599053146 2.1526923521421915 0.10416666666666664
      vertex 3.9786063346340192 1.90310040888628 0.10416666666666664
    endloop
  endfacet
  facet normal 0.0 0.0 1.0
    outer loop
      vertex 3.977521222024473 2.5083544338566357 0.10416666666666664
      vertex 3.5618812992923083 2.776078627762639 0.10416666666666664
      vertex 3.4133089599053146 2.1526923521421915 0.10416666666666664
    endloop
  endfacet
  facet normal 0.0 -0.0 1.0
    outer loop
      vertex 3.4133089599053146 2.1526923521421915 0.10416666666666664
      vertex 3.5618812992923083 2.776078627762639 0.10416666666666664
      vertex 3.0714127548135988 2.697755846192227 0.10416666666666664
    endloop
  endfacet
  facet normal 0.0 0.0 1.0
    outer loop
      vertex 0.49231193573418974 0.90004342597806 0.10416666666666664
      vertex 0.4531377837072769 0.45313778370727764 0.10416666666666664
      vertex 0.9374999999999982 0.46937711374867025 0.10416666666666664
    endloop
  endfacet
  facet normal -1.0 0.0 0.0
    outer loop
      vertex 0.0 0.0 0.0
      vertex 0.0 0.0 0.10416666666666664
      vertex 0.0 0.6250000000000007 0.0
    endloop
  endfacet
  facet normal -1.0 0.0 0.0
    outer loop
      vertex 0.0 0.0 0.10416666666666664
      vertex 0.0 0.6250000000000007 0.10416666666666664
      vertex 0.0 0.6250000000000007 0.0
    endloop
  endfacet
  facet normal -1.0 0.0 -0.0
    outer loop
      vertex 0.0 3.749999999999999 0.10416666666666664
      vertex 0.0 3.749999999999999 0.0
      vertex 0.0 3.1250000000000004 0.0
    endloop
  endfacet
  facet normal -1.0 0.0 0.0
    outer loop
      vertex 0.0 3.1250000000000004 0.10416666666666664
      vertex 0.0 3.749999999999999 0.10416666666666664
      vertex 0.0 3.1250000000000004 0.0
    endloop
  endfacet
  facet normal -1.0 0.0 0.0
    outer loop
      vertex 0.0 0.6250000000000007 0.10416666666666664
      vertex 0.0 1.2500000000000013 0.10416666666666664
      vertex 0.0 1.2500000000000013 0.0
    endloop
  endfacet
  facet normal -1.0 0.0 0.0
    outer loop
      vertex 0.0 0.6250000000000007 0.0
      vertex 0.0 0.6250000000000007 0.10416666666666664
      vertex 0.0 1.2500000000000013 0.0
    endloop
  endfacet
  facet normal -1.0 0.0 0.0
    outer loop
      vertex 0.0 1.2500000000000013 0.10416666666666664
      vertex 0.0 1.8750000000000007 0.10416666666666664
      vertex 0.0 1.8750000000000007 0.0
    endloop
  endfacet
  facet normal -1.0 0.0 0.0
    outer loop
      vertex 0.0 1.2500000000000013 0.0
      vertex 0.0 1.2500000000000013 0.10416666666666664
      vertex 0.0 1.8750000000000007 0.0
    endloop
  endfacet
  facet normal -1.0 0.0 0.0
    outer loop
      vertex 0.0 1.8750000000000007 0.10416666666666664
      vertex 0.0 2.5000000000000004 0.10416666666666664
      vertex 0.0 2.5000000000000004 0.0
    endloop
  endfacet
  facet normal -1.0 0.0 0.0
    outer loop
      vertex 0.0 1.8750000000000007 0.0
      vertex 0.0 1.8750000000000007 0.10416666666666664
      vertex 0.0 2.5000000000000004 0.0
    endloop
  endfacet
  facet normal -1.0 0.0 0.0
    outer loop
      vertex 0.0 2.5000000000000004 0.0
      vertex 0.0 2.5000000000000004 0.10416666666666664
      vertex 0.0 3.1250000000000004 0.10416666666666664
    endloop
  endfacet
  facet normal -1.0 0.0 -0.0
    outer loop
      vertex 0.0 3.1250000000000004 0.10416666666666664
      vertex 0.0 3.1250000000000004 0.0
      vertex 0.0 2.5000000000000004 0.0
    endloop
  endfacet
  facet normal 1.0 -1.4210854715201987e-15 0.0
    outer loop
      vertex 4.999999999999999 0.0 0.10416666666666664
      vertex 4.999999999999999 0.0 0.0
      vertex 5.0 0.6250000000000007 0.10416666666666664
    endloop
  endfacet
  facet normal 1.0 -1.4210854715201987e-15 0.0
    outer loop
      vertex 5.0 0.6250000000000007 0.10416666666666664
      vertex 4.999999999999999 0.0 0.0
      vertex 5.0 0.6250000000000007 0.0
    endloop
  endfacet
  facet normal 1.0 0.0 0.0
    outer loop
      vertex 4.999999999999999 3.749999999999999 0.10416666666666664
      vertex 4.999999999999999 3.1250000000000004 0.0
      vertex 4.999999999999999 3.749999999999999 0.0
    endloop
  endfacet
  facet normal 1.0 -0.0 0.0
    outer loop
      vertex 4.999999999999999 3.1250000000000004 0.10416666666666664
      vertex 4.999999999999999 3.1250000000000004 0.0
      vertex 4.999999999999999 3.749999999999999 0.10416666666666664
    endloop
  endfacet
  facet normal 1.0 1.4210854715201993e-15 0.0
    outer loop
      vertex 4.999999999999999 1.250000000000001 0.10416666666666664
      vertex 5.0 0.6250000000000007 0.10416666666666664
      vertex 5.0 0.6250000000000007 0.0
    endloop
  endfacet
  facet normal 1.0 0.0 0.0
    outer loop
      vertex 4.999999999999999 1.8750000000000007 0.10416666666666664
      vertex 4.999999999999999 1.250000000000001 0.10416666666666664
      vertex 4.999999999999999 1.8750000000000007 0.0
    endloop
  endfacet
  facet normal 1.0 1.4210854715201993e-15 0.0
    outer loop
      vertex 4.999999999999999 1.250000000000001 0.10416666666666664
      vertex 5.0 0.6250000000000007 0.0
      vertex 4.999999999999999 1.250000000000001 0.0
    endloop
  endfacet
  facet normal 1.0 0.0 0.0
    outer loop
      vertex 4.999999999999999 1.8750000000000007 0.0
      vertex 4.999999999999999 1.250000000000001 0.10416666666666664
      vertex 4.999999999999999 1.250000000000001 0.0
    endloop
  endfacet
  facet normal 1.0 0.0 0.0
    outer loop
      vertex 4.999999999999999 2.5 0.10416666666666664
      vertex 4.999999999999999 1.8750000000000007 0.10416666666666664
      vertex 4.999999999999999 1.8750000000000007 0.0
    endloop
  endfacet
  facet normal 1.0 0.0 -0.0
    outer loop
      vertex 4.999999999999999 3.1250000000000004 0.0
      vertex 4.999999999999999 3.1250000000000004 0.10416666666666664
      vertex 4.999999999999999 2.5 0.10416666666666664
    endloop
  endfacet
  facet normal 1.0 0.0 0.0
    outer loop
      vertex 4.999999999999999 2.5 0.10416666666666664
      vertex 4.999999999999999 1.8750000000000007 0.0
      vertex 4.999999999999999 2.5 0.0
    endloop
  endfacet
  facet normal 1.0 0.0 0.0
    outer loop
      vertex 4.999999999999999 3.1250000000000004 0.0
      vertex 4.999999999999999 2.5 0.10416666666666664
      vertex 4.999999999999999 2.5 0.0
    endloop
  endfacet
  facet normal 0.0 1.0 0.0
    outer loop
      vertex 4.999999999999999 3.749999999999999 0.10416666666666664
      vertex 4.999999999999999 3.749999999999999 0.0
      vertex 4.374999999999998 3.749999999999999 0.10416666666666664
    endloop
  endfacet
  facet normal 0.0 1.0 0.0
    outer loop
      vertex 0.0 3.749999999999999 0.10416666666666664
      vertex 0.6249999999999983 3.749999999999999 0.0
      vertex 0.0 3.749999999999999 0.0
    endloop
  endfacet
  facet normal 0.0 1.0 0.0
    outer loop
      vertex 0.6249999999999983 3.749999999999999 0.10416666666666664
      vertex 0.6249999999999983 3.749999999999999 0.0
      vertex 0.0 3.749999999999999 0.10416666666666664
    endloop
  endfacet
  facet normal 0.0 1.0 0.0
    outer loop
      vertex 4.374999999999998 3.749999999999999 0.10416666666666664
      vertex 4.999999999999999 3.749999999999999 0.0
      vertex 4.374999999999998 3.749999999999999 0.0
    endloop
  endfacet
  facet normal -0.0 1.0 0.0
    outer loop
      vertex 3.749999999999998 3.749999999999999 0.10416666666666664
      vertex 4.374999999999998 3.749999999999999 0.10416666666666664
      vertex 4.374999999999998 3.749999999999999 0.0
    endloop
  endfacet
  facet normal 0.0 1.0 0.0
    outer loop
      vertex 3.749999999999998 3.749999999999999 0.10416666666666664
      vertex 3.124999999999997 3.749999999999999 0.0
      vertex 3.124999999999997 3.749999999999999 0.10416666666666664
    endloop
  endfacet
  facet normal 0.0 1.0 0.0
    outer loop
      vertex 3.749999999999998 3.749999999999999 0.10416666666666664
      vertex 4.374999999999998 3.749999999999999 0.0
      vertex 3.749999999999998 3.749999999999999 0.0
    endloop
  endfacet
  facet normal 0.0 1.0 0.0
    outer loop
      vertex 3.124999999999997 3.749999999999999 0.0
      vertex 3.749999999999998 3.749999999999999 0.10416666666666664
      vertex 3.749999999999998 3.749999999999999 0.0
    endloop
  endfacet
  facet normal 0.0 1.0 -0.0
    outer loop
      vertex 3.124999999999997 3.749999999999999 0.0
      vertex 2.4999999999999973 3.749999999999999 0.10416666666666664
      vertex 3.124999999999997 3.749999999999999 0.10416666666666664
    endloop
  endfacet
  facet normal 0.0 1.0 0.0
    outer loop
      vertex 2.4999999999999973 3.749999999999999 0.10416666666666664
      vertex 1.8749999999999973 3.749999999999999 0.0
      vertex 1.8749999999999973 3.749999999999999 0.10416666666666664
    endloop
  endfacet
  facet normal 0.0 1.0 0.0
    outer loop
      vertex 3.124999999999997 3.749999999999999 0.0
      vertex 2.4999999999999973 3.749999999999999 0.0
      vertex 2.4999999999999973 3.749999999999999 0.10416666666666664
    endloop
  endfacet
  facet normal 0.0 1.0 -0.0
    outer loop
      vertex 2.4999999999999973 3.749999999999999 0.0
      vertex 1.8749999999999973 3.749999999999999 0.0
      vertex 2.4999999999999973 3.749999999999999 0.10416666666666664
    endloop
  endfacet
  facet normal 0.0 1.0 0.0
    outer loop
      vertex 1.8749999999999973 3.749999999999999 0.10416666666666664
      vertex 1.2499999999999982 3.749999999999999 0.0
      vertex 1.2499999999999982 3.749999999999999 0.10416666666666664
    endloop
  endfacet
  facet normal 0.0 1.0 -0.0
    outer loop
      vertex 1.8749999999999973 3.749999999999999 0.0
      vertex 1.2499999999999982 3.749999999999999 0.0
      vertex 1.8749999999999973 3.749999999999999 0.10416666666666664
    endloop
  endfacet
  facet normal 0.0 1.0 -0.0
    outer loop
      vertex 1.2499999999999982 3.749999999999999 0.0
      vertex 0.6249999999999983 3.749999999999999 0.10416666666666664
      vertex 1.2499999999999982 3.749999999999999 0.10416666666666664
    endloop
  endfacet
  facet normal 0.0 1.0 0.0
    outer loop
      vertex 1.2499999999999982 3.749999999999999 0.0
      vertex 0.6249999999999983 3.749999999999999 0.0
      vertex 0.6249999999999983 3.749999999999999 0.10416666666666664
    endloop
  endfacet
  facet normal 0.0 0.0 -1.0
    outer loop
      vertex 4.999999999999999 0.0 0.0
      vertex 4.374999999999999 0.0 0.0
      vertex 4.5424682452694505 0.45753175473054847 0.0
    endloop
  endfacet
  facet normal 0.0 0.0 -1.0
    outer loop
      vertex 5.0 0.6250000000000007 0.0
      vertex 4.999999999999999 0.0 0.0
      vertex 4.5424682452694505 0.45753175473054847 0.0
    endloop
  endfacet
  facet normal 0.0 0.0 -1.0
    outer loop
      vertex 0.6249999999999991 0.0 0.0
      vertex 0.0 0.0 0.0
      vertex 0.4575317547305471 0.45753175473054686 0.0
    endloop
  endfacet
  facet normal 0.0 0.0 -1.0
    outer loop
      vertex 0.0 0.0 0.0
      vertex 0.0 0.6250000000000007 0.0
      vertex 0.4575317547305471 0.45753175473054686 0.0
    endloop
  endfacet
  facet normal 0.0 0.0 -1.0
    outer loop
      vertex 0.0 3.1250000000000004 0.0
      vertex 0.0 3.749999999999999 0.0
      vertex 0.457531754730548 3.2924682452694505 0.0
    endloop
  endfacet
  facet normal 0.0 0.0 -1.0
    outer loop
      vertex 0.0 3.749999999999999 0.0
      vertex 0.6249999999999983 3.749999999999999 0.0
      vertex 0.457531754730548 3.2924682452694505 0.0
    endloop
  endfacet
  facet normal 0.0 -0.0 -1.0
    outer loop
      vertex 4.999999999999999 3.749999999999999 0.0
      vertex 4.999999999999999 3.1250000000000004 0.0
      vertex 4.5424682452694505 3.2924682452694514 0.0
    endloop
  endfacet
  facet normal 0.0 0.0 -1.0
    outer loop
      vertex 4.374999999999998 3.749999999999999 0.0
      vertex 4.999999999999999 3.749999999999999 0.0
      vertex 4.5424682452694505 3.2924682452694514 0.0
    endloop
  endfacet
  facet normal 0.0 0.0 -1.0
    outer loop
      vertex 4.374999999999999 0.0 0.0
      vertex 3.749999999999998 0.0 0.0
      vertex 4.01609665518216 0.5674053380383676 0.0
    endloop
  endfacet
  facet normal 0.0 0.0 -1.0
    outer loop
      vertex 4.374999999999999 0.0 0.0
      vertex 4.01609665518216 0.5674053380383676 0.0
      vertex 4.5424682452694505 0.45753175473054847 0.0
    endloop
  endfacet
  facet normal 0.0 0.0 -1.0
    outer loop
      vertex 3.749999999999998 0.0 0.0
      vertex 3.1249999999999973 0.0 0.0
      vertex 3.4442069106648057 0.43583154369415755 0.0
    endloop
  endfacet
  facet normal 0.0 0.0 -1.0
    outer loop
      vertex 4.01609665518216 0.5674053380383676 0.0
      vertex 3.749999999999998 0.0 0.0
      vertex 3.4442069106648057 0.43583154369415755 0.0
    endloop
  endfacet
  facet normal 0.0 0.0 -1.0
    outer loop
      vertex 3.1249999999999973 0.0 0.0
      vertex 2.499999999999998 0.0 0.0
      vertex 2.8790384233193875 0.601209068617225 0.0
    endloop
  endfacet
  facet normal 0.0 0.0 -1.0
    outer loop
      vertex 3.1249999999999973 0.0 0.0
      vertex 2.8790384233193875 0.601209068617225 0.0
      vertex 3.4442069106648057 0.43583154369415755 0.0
    endloop
  endfacet
  facet normal 0.0 0.0 -1.0
    outer loop
      vertex 2.499999999999998 0.0 0.0
      vertex 1.8749999999999976 0.0 0.0
      vertex 2.2155284233083403 0.5386993909430683 0.0
    endloop
  endfacet
  facet normal 0.0 0.0 -1.0
    outer loop
      vertex 2.8790384233193875 0.601209068617225 0.0
      vertex 2.499999999999998 0.0 0.0
      vertex 2.2155284233083403 0.5386993909430683 0.0
    endloop
  endfacet
  facet normal 0.0 0.0 -1.0
    outer loop
      vertex 1.8749999999999976 0.0 0.0
      vertex 1.2499999999999982 0.0 0.0
      vertex 1.5624999999999982 0.5412658773652738 0.0
    endloop
  endfacet
  facet normal 0.0 0.0 -1.0
    outer loop
      vertex 1.8749999999999976 0.0 0.0
      vertex 1.5624999999999982 0.5412658773652738 0.0
      vertex 2.2155284233083403 0.5386993909430683 0.0
    endloop
  endfacet
  facet normal 0.0 0.0 -1.0
    outer loop
      vertex 1.2499999999999982 0.0 0.0
      vertex 0.6249999999999991 0.0 0.0
      vertex 0.9401483558005462 0.5292325281598941 0.0
    endloop
  endfacet
  facet normal 0.0 0.0 -1.0
    outer loop
      vertex 1.5624999999999982 0.5412658773652738 0.0
      vertex 1.2499999999999982 0.0 0.0
      vertex 0.9401483558005462 0.5292325281598941 0.0
    endloop
  endfacet
  facet normal 0.0 0.0 -1.0
    outer loop
      vertex 0.9401483558005462 0.5292325281598941 0.0
      vertex 0.6249999999999991 0.0 0.0
      vertex 0.4575317547305471 0.45753175473054686 0.0
    endloop
  endfacet
  facet normal 0.0 0.0 -1.0
    outer loop
      vertex 0.0 0.6250000000000007 0.0
      vertex 0.0 1.2500000000000013 0.0
      vertex 0.5289564478467266 0.9216265100057895 0.0
    endloop
  endfacet
  facet normal 0.0 0.0 -1.0
    outer loop
      vertex 0.0 0.6250000000000007 0.0
      vertex 0.5289564478467266 0.9216265100057895 0.0
      vertex 0.4575317547305471 0.45753175473054686 0.0
    endloop
  endfacet
  facet normal 0.0 0.0 -1.0
    outer loop
      vertex 0.0 1.2500000000000013 0.0
      vertex 0.0 1.8750000000000007 0.0
      vertex 0.541265877365274 1.5625000000000009 0.0
    endloop
  endfacet
  facet normal 0.0 0.0 -1.0
    outer loop
      vertex 0.0 1.2500000000000013 0.0
      vertex 0.541265877365274 1.5625000000000009 0.0
      vertex 0.5289564478467266 0.9216265100057895 0.0
    endloop
  endfacet
  facet normal 0.0 0.0 -1.0
    outer loop
      vertex 0.0 1.8750000000000007 0.0
      vertex 0.0 2.5000000000000004 0.0
      vertex 0.5432222057993987 2.099471334655382 0.0
    endloop
  endfacet
  facet normal 0.0 0.0 -1.0
    outer loop
      vertex 0.541265877365274 1.5625000000000009 0.0
      vertex 0.0 1.8750000000000007 0.0
      vertex 0.5432222057993987 2.099471334655382 0.0
    endloop
  endfacet
  facet normal 0.0 0.0 -1.0
    outer loop
      vertex 0.0 2.5000000000000004 0.0
      vertex 0.0 3.1250000000000004 0.0
      vertex 0.5830829487091609 2.7476798151429933 0.0
    endloop
  endfacet
  facet normal 0.0 0.0 -1.0
    outer loop
      vertex 0.5432222057993987 2.099471334655382 0.0
      vertex 0.0 2.5000000000000004 0.0
      vertex 0.5830829487091609 2.7476798151429933 0.0
    endloop
  endfacet
  facet normal 0.0 0.0 -1.0
    outer loop
      vertex 0.5830829487091609 2.7476798151429933 0.0
      vertex 0.0 3.1250000000000004 0.0
      vertex 0.457531754730548 3.2924682452694505 0.0
    endloop
  endfacet
  facet normal 0.0 -0.0 -1.0
    outer loop
      vertex 4.999999999999999 1.250000000000001 0.0
      vertex 5.0 0.6250000000000007 0.0
      vertex 4.484609215943039 0.9415179986878672 0.0
    endloop
  endfacet
  facet normal 0.0 0.0 -1.0
    outer loop
      vertex 4.484609215943039 0.9415179986878672 0.0
      vertex 5.0 0.6250000000000007 0.0
      vertex 4.5424682452694505 0.45753175473054847 0.0
    endloop
  endfacet
  facet normal 0.0 -0.0 -1.0
    outer loop
      vertex 4.999999999999999 1.8750000000000007 0.0
      vertex 4.999999999999999 1.250000000000001 0.0
      vertex 4.404872623191727 1.584630576523147 0.0
    endloop
  endfacet
  facet normal 0.0 0.0 -1.0
    outer loop
      vertex 4.404872623191727 1.584630576523147 0.0
      vertex 4.999999999999999 1.250000000000001 0.0
      vertex 4.484609215943039 0.9415179986878672 0.0
    endloop
  endfacet
  facet normal 0.0 -0.0 -1.0
    outer loop
      vertex 4.999999999999999 2.5 0.0
      vertex 4.999999999999999 1.8750000000000007 0.0
      vertex 4.581329386826368 2.1875000000000004 0.0
    endloop
  endfacet
  facet normal -0.0 0.0 -1.0
    outer loop
      vertex 4.999999999999999 1.8750000000000007 0.0
      vertex 4.404872623191727 1.584630576523147 0.0
      vertex 4.581329386826368 2.1875000000000004 0.0
    endloop
  endfacet
  facet normal 0.0 -0.0 -1.0
    outer loop
      vertex 4.999999999999999 3.1250000000000004 0.0
      vertex 4.999999999999999 2.5 0.0
      vertex 4.433939220349503 2.7551089880891237 0.0
    endloop
  endfacet
  facet normal 0.0 0.0 -1.0
    outer loop
      vertex 4.433939220349503 2.7551089880891237 0.0
      vertex 4.999999999999999 2.5 0.0
      vertex 4.581329386826368 2.1875000000000004 0.0
    endloop
  endfacet
  facet normal -0.0 0.0 -1.0
    outer loop
      vertex 4.999999999999999 3.1250000000000004 0.0
      vertex 4.433939220349503 2.7551089880891237 0.0
      vertex 4.5424682452694505 3.2924682452694514 0.0
    endloop
  endfacet
  facet normal 0.0 0.0 -1.0
    outer loop
      vertex 3.749999999999998 3.749999999999999 0.0
      vertex 4.374999999999998 3.749999999999999 0.0
      vertex 4.043363857453543 3.237296133696715 0.0
    endloop
  endfacet
  facet normal 0.0 0.0 -1.0
    outer loop
      vertex 4.043363857453543 3.237296133696715 0.0
      vertex 4.374999999999998 3.749999999999999 0.0
      vertex 4.5424682452694505 3.2924682452694514 0.0
    endloop
  endfacet
  facet normal 0.0 0.0 -1.0
    outer loop
      vertex 3.124999999999997 3.749999999999999 0.0
      vertex 3.749999999999998 3.749999999999999 0.0
      vertex 3.432391863992012 3.211683306333993 0.0
    endloop
  endfacet
  facet normal 0.0 0.0 -1.0
    outer loop
      vertex 3.432391863992012 3.211683306333993 0.0
      vertex 3.749999999999998 3.749999999999999 0.0
      vertex 4.043363857453543 3.237296133696715 0.0
    endloop
  endfacet
  facet normal 0.0 0.0 -1.0
    outer loop
      vertex 2.4999999999999973 3.749999999999999 0.0
      vertex 3.124999999999997 3.749999999999999 0.0
      vertex 2.8116486439986663 3.20922565325127 0.0
    endloop
  endfacet
  facet normal 0.0 -0.0 -1.0
    outer loop
      vertex 3.124999999999997 3.749999999999999 0.0
      vertex 3.432391863992012 3.211683306333993 0.0
      vertex 2.8116486439986663 3.20922565325127 0.0
    endloop
  endfacet
  facet normal 0.0 0.0 -1.0
    outer loop
      vertex 1.8749999999999973 3.749999999999999 0.0
      vertex 2.4999999999999973 3.749999999999999 0.0
      vertex 2.1874999999999973 3.2087341226347252 0.0
    endloop
  endfacet
  facet normal 0.0 0.0 -1.0
    outer loop
      vertex 2.1874999999999973 3.2087341226347252 0.0
      vertex 2.4999999999999973 3.749999999999999 0.0
      vertex 2.8116486439986663 3.20922565325127 0.0
    endloop
  endfacet
  facet normal 0.0 0.0 -1.0
    outer loop
      vertex 1.2499999999999982 3.749999999999999 0.0
      vertex 1.8749999999999973 3.749999999999999 0.0
      vertex 1.5629374511704532 3.2107419564403274 0.0
    endloop
  endfacet
  facet normal 0.0 -0.0 -1.0
    outer loop
      vertex 1.8749999999999973 3.749999999999999 0.0
      vertex 2.1874999999999973 3.2087341226347252 0.0
      vertex 1.5629374511704532 3.2107419564403274 0.0
    endloop
  endfacet
  facet normal 0.0 0.0 -1.0
    outer loop
      vertex 0.6249999999999983 3.749999999999999 0.0
      vertex 1.2499999999999982 3.749999999999999 0.0
      vertex 0.9401483558005469 3.2207674718401047 0.0
    endloop
  endfacet
  facet normal 0.0 0.0 -1.0
    outer loop
      vertex 0.9401483558005469 3.2207674718401047 0.0
      vertex 1.2499999999999982 3.749999999999999 0.0
      vertex 1.5629374511704532 3.2107419564403274 0.0
    endloop
  endfacet
  facet normal 0.0 -0.0 -1.0
    outer loop
      vertex 0.6249999999999983 3.749999999999999 0.0
      vertex 0.9401483558005469 3.2207674718401047 0.0
      vertex 0.457531754730548 3.2924682452694505 0.0
    endloop
  endfacet
  facet normal 0.0 0.0 -1.0
    outer loop
      vertex 2.1874999999999973 3.2087341226347252 0.0
      vertex 2.8116486439986663 3.20922565325127 0.0
      vertex 2.499858107333109 2.6675501670388755 0.0
    endloop
  endfacet
  facet normal 0.0 -0.0 -1.0
    outer loop
      vertex 2.1874999999999973 3.2087341226347252 0.0
      vertex 2.499858107333109 2.6675501670388755 0.0
      vertex 1.8749763512221829 2.6674818988976887 0.0
    endloop
  endfacet
  facet normal -0.0 0.0 -1.0
    outer loop
      vertex 2.1874999999999973 3.2087341226347252 0.0
      vertex 1.8749763512221829 2.6674818988976887 0.0
      vertex 1.5629374511704532 3.2107419564403274 0.0
    endloop
  endfacet
  facet normal 0.0 0.0 -1.0
    outer loop
      vertex 2.8790384233193875 0.601209068617225 0.0
      vertex 3.450899474822485 1.010543311815194 0.0
      vertex 3.4442069106648057 0.43583154369415755 0.0
    endloop
  endfacet
  facet normal -0.0 0.0 -1.0
    outer loop
      vertex 3.450899474822485 1.010543311815194 0.0
      vertex 2.8790384233193875 0.601209068617225 0.0
      vertex 2.947632416031992 1.1400840994055297 0.0
    endloop
  endfacet
  facet normal -0.0 0.0 -1.0
    outer loop
      vertex 2.8790384233193875 0.601209068617225 0.0
      vertex 2.2155284233083403 0.5386993909430683 0.0
      vertex 2.4999999999999973 1.0163161883953762 0.0
    endloop
  endfacet
  facet normal 0.0 0.0 -1.0
    outer loop
      vertex 2.8790384233193875 0.601209068617225 0.0
      vertex 2.4999999999999973 1.0163161883953762 0.0
      vertex 2.947632416031992 1.1400840994055297 0.0
    endloop
  endfacet
  facet normal 0.0 -0.0 -1.0
    outer loop
      vertex 0.541265877365274 1.5625000000000009 0.0
      vertex 1.2347926991839935 1.1054947771442907 0.0
      vertex 0.5289564478467266 0.9216265100057895 0.0
    endloop
  endfacet
  facet normal 0.0 0.0 -1.0
    outer loop
      vertex 1.2347926991839935 1.1054947771442907 0.0
      vertex 0.541265877365274 1.5625000000000009 0.0
      vertex 1.1390917818914352 1.7132559761939032 0.0
    endloop
  endfacet
  facet normal 0.0 0.0 -1.0
    outer loop
      vertex 0.541265877365274 1.5625000000000009 0.0
      vertex 0.5432222057993987 2.099471334655382 0.0
      vertex 1.1390917818914352 1.7132559761939032 0.0
    endloop
  endfacet
  facet normal 0.0 0.0 -1.0
    outer loop
      vertex 2.8116486439986663 3.20922565325127 0.0
      vertex 3.432391863992012 3.211683306333993 0.0
      vertex 3.1249185385807916 2.6678238755155212 0.0
    endloop
  endfacet
  facet normal 0.0 0.0 -1.0
    outer loop
      vertex 3.1249185385807916 2.6678238755155212 0.0
      vertex 3.432391863992012 3.211683306333993 0.0
      vertex 3.7540142315137977 2.690596843767052 0.0
    endloop
  endfacet
  facet normal 0.0 0.0 -1.0
    outer loop
      vertex 3.7540142315137977 2.690596843767052 0.0
      vertex 3.432391863992012 3.211683306333993 0.0
      vertex 4.043363857453543 3.237296133696715 0.0
    endloop
  endfacet
  facet normal 0.0 0.0 -1.0
    outer loop
      vertex 4.404872623191727 1.584630576523147 0.0
      vertex 3.7435024119873135 1.5973575384595264 0.0
      vertex 4.059232603509043 2.153514430882085 0.0
    endloop
  endfacet
  facet normal 0.0 0.0 -1.0
    outer loop
      vertex 3.7435024119873135 1.5973575384595264 0.0
      vertex 4.404872623191727 1.584630576523147 0.0
      vertex 3.9924958351445587 1.1208633976678632 0.0
    endloop
  endfacet
  facet normal 0.0 0.0 -1.0
    outer loop
      vertex 4.404872623191727 1.584630576523147 0.0
      vertex 4.059232603509043 2.153514430882085 0.0
      vertex 4.581329386826368 2.1875000000000004 0.0
    endloop
  endfacet
  facet normal 0.0 -0.0 -1.0
    outer loop
      vertex 4.404872623191727 1.584630576523147 0.0
      vertex 4.484609215943039 0.9415179986878672 0.0
      vertex 3.9924958351445587 1.1208633976678632 0.0
    endloop
  endfacet
  facet normal -0.0 0.0 -1.0
    outer loop
      vertex 1.5624999999999982 0.5412658773652738 0.0
      vertex 0.9401483558005462 0.5292325281598941 0.0
      vertex 1.2347926991839935 1.1054947771442907 0.0
    endloop
  endfacet
  facet normal 0.0 0.0 -1.0
    outer loop
      vertex 1.5624999999999982 0.5412658773652738 0.0
      vertex 1.2347926991839935 1.1054947771442907 0.0
      vertex 1.9766321165306633 1.0734052112805321 0.0
    endloop
  endfacet
  facet normal 0.0 0.0 -1.0
    outer loop
      vertex 1.5624999999999982 0.5412658773652738 0.0
      vertex 1.9766321165306633 1.0734052112805321 0.0
      vertex 2.2155284233083403 0.5386993909430683 0.0
    endloop
  endfacet
  facet normal 0.0 0.0 -1.0
    outer loop
      vertex 0.9401483558005469 3.2207674718401047 0.0
      vertex 1.5629374511704532 3.2107419564403274 0.0
      vertex 1.2532289858734578 2.706859982049657 0.0
    endloop
  endfacet
  facet normal 0.0 -0.0 -1.0
    outer loop
      vertex 0.9401483558005469 3.2207674718401047 0.0
      vertex 1.2532289858734578 2.706859982049657 0.0
      vertex 0.5830829487091609 2.7476798151429933 0.0
    endloop
  endfacet
  facet normal -0.0 0.0 -1.0
    outer loop
      vertex 0.9401483558005469 3.2207674718401047 0.0
      vertex 0.5830829487091609 2.7476798151429933 0.0
      vertex 0.457531754730548 3.2924682452694505 0.0
    endloop
  endfacet
  facet normal 0.0 0.0 -1.0
    outer loop
      vertex 4.433939220349503 2.7551089880891237 0.0
      vertex 4.059232603509043 2.153514430882085 0.0
      vertex 3.7540142315137977 2.690596843767052 0.0
    endloop
  endfacet
  facet normal 0.0 0.0 -1.0
    outer loop
      vertex 4.059232603509043 2.153514430882085 0.0
      vertex 4.433939220349503 2.7551089880891237 0.0
      vertex 4.581329386826368 2.1875000000000004 0.0
    endloop
  endfacet
  facet normal -0.0 0.0 -1.0
    outer loop
      vertex 4.433939220349503 2.7551089880891237 0.0
      vertex 3.7540142315137977 2.690596843767052 0.0
      vertex 4.043363857453543 3.237296133696715 0.0
    endloop
  endfacet
  facet normal 0.0 0.0 -1.0
    outer loop
      vertex 4.433939220349503 2.7551089880891237 0.0
      vertex 4.043363857453543 3.237296133696715 0.0
      vertex 4.5424682452694505 3.2924682452694514 0.0
    endloop
  endfacet
  facet normal 0.0 -0.0 -1.0
    outer loop
      vertex 3.450899474822485 1.010543311815194 0.0
      vertex 4.01609665518216 0.5674053380383676 0.0
      vertex 3.4442069106648057 0.43583154369415755 0.0
    endloop
  endfacet
  facet normal 0.0 0.0 -1.0
    outer loop
      vertex 4.01609665518216 0.5674053380383676 0.0
      vertex 3.450899474822485 1.010543311815194 0.0
      vertex 3.9924958351445587 1.1208633976678632 0.0
    endloop
  endfacet
  facet normal -0.0 0.0 -1.0
    outer loop
      vertex 4.484609215943039 0.9415179986878672 0.0
      vertex 4.01609665518216 0.5674053380383676 0.0
      vertex 3.9924958351445587 1.1208633976678632 0.0
    endloop
  endfacet
  facet normal 0.0 0.0 -1.0
    outer loop
      vertex 4.01609665518216 0.5674053380383676 0.0
      vertex 4.484609215943039 0.9415179986878672 0.0
      vertex 4.5424682452694505 0.45753175473054847 0.0
    endloop
  endfacet
  facet normal 0.0 0.0 -1.0
    outer loop
      vertex 2.499858107333109 2.6675501670388755 0.0
      vertex 2.8116486439986663 3.20922565325127 0.0
      vertex 3.1249185385807916 2.6678238755155212 0.0
    endloop
  endfacet
  facet normal 0.0 0.0 -1.0
    outer loop
      vertex 1.8749763512221829 2.6674818988976887 0.0
      vertex 2.499858107333109 2.6675501670388755 0.0
      vertex 2.1874724097592133 2.1372542248596496 0.0
    endloop
  endfacet
  facet normal 0.0 0.0 -1.0
    outer loop
      vertex 2.1874724097592133 2.1372542248596496 0.0
      vertex 2.499858107333109 2.6675501670388755 0.0
      vertex 2.8124717528487184 2.12805799769166 0.0
    endloop
  endfacet
  facet normal 0.0 0.0 -1.0
    outer loop
      vertex 2.8124717528487184 2.12805799769166 0.0
      vertex 2.499858107333109 2.6675501670388755 0.0
      vertex 3.1249185385807916 2.6678238755155212 0.0
    endloop
  endfacet
  facet normal 0.0 -0.0 -1.0
    outer loop
      vertex 1.8749763512221829 2.6674818988976887 0.0
      vertex 2.1874724097592133 2.1372542248596496 0.0
      vertex 1.5636575572071396 2.1668055416468444 0.0
    endloop
  endfacet
  facet normal -0.0 0.0 -1.0
    outer loop
      vertex 1.8749763512221829 2.6674818988976887 0.0
      vertex 1.5636575572071396 2.1668055416468444 0.0
      vertex 1.2532289858734578 2.706859982049657 0.0
    endloop
  endfacet
  facet normal 0.0 -0.0 -1.0
    outer loop
      vertex 1.5629374511704532 3.2107419564403274 0.0
      vertex 1.8749763512221829 2.6674818988976887 0.0
      vertex 1.2532289858734578 2.706859982049657 0.0
    endloop
  endfacet
  facet normal 0.0 0.0 -1.0
    outer loop
      vertex 2.1874724097592133 2.1372542248596496 0.0
      vertex 2.8124717528487184 2.12805799769166 0.0
      vertex 2.499999999999997 1.5849364905389038 0.0
    endloop
  endfacet
  facet normal 0.0 0.0 -1.0
    outer loop
      vertex 1.5636575572071396 2.1668055416468444 0.0
      vertex 2.1874724097592133 2.1372542248596496 0.0
      vertex 1.7669410940954073 1.6301920369440206 0.0
    endloop
  endfacet
  facet normal 0.0 -0.0 -1.0
    outer loop
      vertex 2.1874724097592133 2.1372542248596496 0.0
      vertex 2.499999999999997 1.5849364905389038 0.0
      vertex 1.7669410940954073 1.6301920369440206 0.0
    endloop
  endfacet
  facet normal 0.0 0.0 -1.0
    outer loop
      vertex 2.499999999999997 1.5849364905389038 0.0
      vertex 2.8124717528487184 2.12805799769166 0.0
      vertex 3.150540119347405 1.5999940750339114 0.0
    endloop
  endfacet
  facet normal 0.0 0.0 -1.0
    outer loop
      vertex 3.150540119347405 1.5999940750339114 0.0
      vertex 2.8124717528487184 2.12805799769166 0.0
      vertex 3.4417519786993522 2.1290212369512593 0.0
    endloop
  endfacet
  facet normal -0.0 0.0 -1.0
    outer loop
      vertex 3.4417519786993522 2.1290212369512593 0.0
      vertex 2.8124717528487184 2.12805799769166 0.0
      vertex 3.1249185385807916 2.6678238755155212 0.0
    endloop
  endfacet
  facet normal 0.0 -0.0 -1.0
    outer loop
      vertex 1.2532289858734578 2.706859982049657 0.0
      vertex 1.5636575572071396 2.1668055416468444 0.0
      vertex 1.0403710599569667 2.2275142777194548 0.0
    endloop
  endfacet
  facet normal 0.0 0.0 -1.0
    outer loop
      vertex 1.1390917818914352 1.7132559761939032 0.0
      vertex 1.5636575572071396 2.1668055416468444 0.0
      vertex 1.7669410940954073 1.6301920369440206 0.0
    endloop
  endfacet
  facet normal -0.0 0.0 -1.0
    outer loop
      vertex 1.5636575572071396 2.1668055416468444 0.0
      vertex 1.1390917818914352 1.7132559761939032 0.0
      vertex 1.0403710599569667 2.2275142777194548 0.0
    endloop
  endfacet
  facet normal 0.0 0.0 -1.0
    outer loop
      vertex 2.499999999999997 1.5849364905389038 0.0
      vertex 3.150540119347405 1.5999940750339114 0.0
      vertex 2.947632416031992 1.1400840994055297 0.0
    endloop
  endfacet
  facet normal -0.0 0.0 -1.0
    outer loop
      vertex 2.499999999999997 1.5849364905389038 0.0
      vertex 1.9766321165306633 1.0734052112805321 0.0
      vertex 1.7669410940954073 1.6301920369440206 0.0
    endloop
  endfacet
  facet normal 0.0 0.0 -1.0
    outer loop
      vertex 1.9766321165306633 1.0734052112805321 0.0
      vertex 2.499999999999997 1.5849364905389038 0.0
      vertex 2.4999999999999973 1.0163161883953762 0.0
    endloop
  endfacet
  facet normal 0.0 0.0 -1.0
    outer loop
      vertex 2.4999999999999973 1.0163161883953762 0.0
      vertex 2.499999999999997 1.5849364905389038 0.0
      vertex 2.947632416031992 1.1400840994055297 0.0
    endloop
  endfacet
  facet normal 0.0 0.0 -1.0
    outer loop
      vertex 3.150540119347405 1.5999940750339114 0.0
      vertex 3.4417519786993522 2.1290212369512593 0.0
      vertex 3.7435024119873135 1.5973575384595264 0.0
    endloop
  endfacet
  facet normal 0.0 0.0 -1.0
    outer loop
      vertex 3.150540119347405 1.5999940750339114 0.0
      vertex 3.7435024119873135 1.5973575384595264 0.0
      vertex 3.450899474822485 1.010543311815194 0.0
    endloop
  endfacet
  facet normal 0.0 -0.0 -1.0
    outer loop
      vertex 3.150540119347405 1.5999940750339114 0.0
      vertex 3.450899474822485 1.010543311815194 0.0
      vertex 2.947632416031992 1.1400840994055297 0.0
    endloop
  endfacet
  facet normal 0.0 0.0 -1.0
    outer loop
      vertex 3.7435024119873135 1.5973575384595264 0.0
      vertex 3.4417519786993522 2.1290212369512593 0.0
      vertex 4.059232603509043 2.153514430882085 0.0
    endloop
  endfacet
  facet normal -0.0 0.0 -1.0
    outer loop
      vertex 4.059232603509043 2.153514430882085 0.0
      vertex 3.4417519786993522 2.1290212369512593 0.0
      vertex 3.7540142315137977 2.690596843767052 0.0
    endloop
  endfacet
  facet normal 0.0 0.0 -1.0
    outer loop
      vertex 3.4417519786993522 2.1290212369512593 0.0
      vertex 3.1249185385807916 2.6678238755155212 0.0
      vertex 3.7540142315137977 2.690596843767052 0.0
    endloop
  endfacet
  facet normal 0.0 0.0 -1.0
    outer loop
      vertex 3.450899474822485 1.010543311815194 0.0
      vertex 3.7435024119873135 1.5973575384595264 0.0
      vertex 3.9924958351445587 1.1208633976678632 0.0
    endloop
  endfacet
  facet normal 0.0 0.0 -1.0
    outer loop
      vertex 1.2347926991839935 1.1054947771442907 0.0
      vertex 0.9401483558005462 0.5292325281598941 0.0
      vertex 0.5289564478467266 0.9216265100057895 0.0
    endloop
  endfacet
  facet normal 0.0 -0.0 -1.0
    outer loop
      vertex 0.5289564478467266 0.9216265100057895 0.0
      vertex 0.9401483558005462 0.5292325281598941 0.0
      vertex 0.4575317547305471 0.45753175473054686 0.0
    endloop
  endfacet
  facet normal 0.0 0.0 -1.0
    outer loop
      vertex 1.9766321165306633 1.0734052112805321 0.0
      vertex 1.2347926991839935 1.1054947771442907 0.0
      vertex 1.7669410940954073 1.6301920369440206 0.0
    endloop
  endfacet
  facet normal 0.0 0.0 -1.0
    outer loop
      vertex 1.2347926991839935 1.1054947771442907 0.0
      vertex 1.1390917818914352 1.7132559761939032 0.0
      vertex 1.7669410940954073 1.6301920369440206 0.0
    endloop
  endfacet
  facet normal 0.0 0.0 -1.0
    outer loop
      vertex 2.2155284233083403 0.5386993909430683 0.0
      vertex 1.9766321165306633 1.0734052112805321 0.0
      vertex 2.4999999999999973 1.0163161883953762 0.0
    endloop
  endfacet
  facet normal 0.0 0.0 -1.0
    outer loop
      vertex 1.1390917818914352 1.7132559761939032 0.0
      vertex 0.5432222057993987 2.099471334655382 0.0
      vertex 1.0403710599569667 2.2275142777194548 0.0
    endloop
  endfacet
  facet normal 0.0 0.0 -1.0
    outer loop
      vertex 0.5432222057993987 2.099471334655382 0.0
      vertex 0.5830829487091609 2.7476798151429933 0.0
      vertex 1.0403710599569667 2.2275142777194548 0.0
    endloop
  endfacet
  facet normal 0.0 0.0 -1.0
    outer loop
      vertex 0.5830829487091609 2.7476798151429933 0.0
      vertex 1.2532289858734578 2.706859982049657 0.0
      vertex 1.0403710599569667 2.2275142777194548 0.0
    endloop
  endfacet
endsolid abc_50_039
