solid abc_50_042
  facet normal 0.2257937237767163 -0.4226787502740759 -0.8777014688205719
    outer loop
      vertex 2.5000000000000004 0.3948046774578735 0.0
      vertex 2.8092362039940575 0.03533250606686606 0.25266545638376864
      vertex 2.5000000000000004 0.08613390109993001 0.14864801146160092
    endloop
  endfacet
  facet normal -0.2438127536220683 -0.42079013644999197 -0.8737797218049993
    outer loop
      vertex 2.5000000000000004 0.08613390109993001 0.14864801146160092
      vertex 2.163550829502826 0.029712706980827067 0.2696992078275779
      vertex 2.5000000000000004 0.3948046774578735 0.0
    endloop
  endfacet
  facet normal 0.39038694450597733 0.3994554440482397 -0.8294777765434772
    outer loop
      vertex 2.5000000000000004 0.7034754538158157 0.14864801146159926
      vertex 2.79237293078906 0.7787982338549483 0.32252448378311954
      vertex 2.5000000000000004 0.3948046774578735 0.0
    endloop
  endfacet
  facet normal -0.3652488439388353 0.4039066775346839 -0.8387208581192179
    outer loop
      vertex 2.5000000000000004 0.3948046774578735 0.0
      vertex 2.2135603913687865 0.7752755424515407 0.30796474940231877
      vertex 2.5000000000000004 0.7034754538158157 0.14864801146159926
    endloop
  endfacet
  facet normal 0.12966184181716972 -0.49311008055416206 -0.8602501120211766
    outer loop
      vertex 3.23895420184945 0.3948046774578735 0.11137942499678234
      vertex 2.8092362039940575 0.03533250606686606 0.25266545638376864
      vertex 2.5000000000000004 0.3948046774578735 0.0
    endloop
  endfacet
  facet normal 0.12112157407055163 0.5827298362162798 -0.803589137730233
    outer loop
      vertex 2.5000000000000004 0.3948046774578735 0.0
      vertex 2.79237293078906 0.7787982338549483 0.32252448378311954
      vertex 3.23895420184945 0.3948046774578735 0.11137942499678234
    endloop
  endfacet
  facet normal -0.1281903857599221 -0.5101352771360081 -0.8504876389578455
    outer loop
      vertex 2.5000000000000004 0.3948046774578735 0.0
      vertex 2.163550829502826 0.029712706980827067 0.2696992078275779
      vertex 1.7610457981505485 0.3948046774578735 0.11137942499678317
    endloop
  endfacet
  facet normal -0.12277793728219179 0.5669105972763067 -0.8145783896056605
    outer loop
      vertex 1.7610457981505485 0.3948046774578735 0.11137942499678317
      vertex 2.2135603913687865 0.7752755424515407 0.30796474940231877
      vertex 2.5000000000000004 0.3948046774578735 0.0
    endloop
  endfacet
  facet normal -0.08500348401993411 -0.9713993107616629 -0.22171555370843793
    outer loop
      vertex 2.5000000000000004 0.08613390109993001 0.14864801146160092
      vertex 2.8092362039940575 0.03533250606686606 0.25266545638376864
      vertex 2.5000000000000004 0.009898515075882557 0.48265706134897757
    endloop
  endfacet
  facet normal 0.08314178662533596 -0.9715524465642463 -0.22175050595607312
    outer loop
      vertex 2.5000000000000004 0.009898515075882557 0.48265706134897757
      vertex 2.163550829502826 0.029712706980827067 0.2696992078275779
      vertex 2.5000000000000004 0.08613390109993001 0.14864801146160092
    endloop
  endfacet
  facet normal 0.17117534103290893 -0.7702921040995521 0.6142874546856318
    outer loop
      vertex 2.5000000000000004 0.22350531998031237 0.7505115225539857
      vertex 2.1767943741088858 0.07543014379480063 0.6548945514679616
      vertex 2.5000000000000004 0.009898515075882557 0.48265706134897757
    endloop
  endfacet
  facet normal -0.17833799511141368 -0.7692981670496333 0.6134948163380973
    outer loop
      vertex 2.5000000000000004 0.009898515075882557 0.48265706134897757
      vertex 2.7919428911450606 0.07533307252954013 0.6495748449675566
      vertex 2.5000000000000004 0.22350531998031237 0.7505115225539857
    endloop
  endfacet
  facet normal -0.1347259092106035 -0.9834240398882408 0.12135109046592137
    outer loop
      vertex 2.1767943741088858 0.07543014379480063 0.6548945514679616
      vertex 2.163550829502826 0.029712706980827067 0.2696992078275779
      vertex 2.5000000000000004 0.009898515075882557 0.48265706134897757
    endloop
  endfacet
  facet normal 0.1594629351492866 -0.9815112135656644 0.10586458311650392
    outer loop
      vertex 2.5000000000000004 0.009898515075882557 0.48265706134897757
      vertex 2.8092362039940575 0.03533250606686606 0.25266545638376864
      vertex 2.7919428911450606 0.07533307252954013 0.6495748449675566
    endloop
  endfacet
  facet normal 0.21385759291037143 6.331242927153946e-15 0.9768648473328241
    outer loop
      vertex 2.5000000000000004 0.5661040349354395 0.7505115225539835
      vertex 2.2041515723903813 0.3929929549824547 0.8152793691682411
      vertex 2.5000000000000004 0.22350531998031237 0.7505115225539857
    endloop
  endfacet
  facet normal -0.21695204797731643 6.3268189653230834e-15 0.9761822621203727
    outer loop
      vertex 2.5000000000000004 0.22350531998031237 0.7505115225539857
      vertex 2.7766853207766955 0.38919245724436824 0.8120035710341308
      vertex 2.5000000000000004 0.5661040349354395 0.7505115225539835
    endloop
  endfacet
  facet normal -0.05992740249712382 -0.445887105444688 0.8930808449564381
    outer loop
      vertex 2.5000000000000004 0.22350531998031237 0.7505115225539857
      vertex 2.2041515723903813 0.3929929549824547 0.8152793691682411
      vertex 2.1767943741088858 0.07543014379480063 0.6548945514679616
    endloop
  endfacet
  facet normal 0.07556183991264716 -0.4554048694663154 0.8870720451098567
    outer loop
      vertex 2.7919428911450606 0.07533307252954013 0.6495748449675566
      vertex 2.7766853207766955 0.38919245724436824 0.8120035710341308
      vertex 2.5000000000000004 0.22350531998031237 0.7505115225539857
    endloop
  endfacet
  facet normal 0.17833799510972692 0.7692981670498797 0.6134948163382787
    outer loop
      vertex 2.5000000000000004 0.7797108398398651 0.48265706134897396
      vertex 2.20805710885519 0.7142762823923546 0.6495748449589465
      vertex 2.5000000000000004 0.5661040349354395 0.7505115225539835
    endloop
  endfacet
  facet normal -0.17423429400998441 0.7698727640473095 0.6139530421530607
    outer loop
      vertex 2.5000000000000004 0.5661040349354395 0.7505115225539835
      vertex 2.808004023834967 0.7146388811726601 0.6516634595619907
      vertex 2.5000000000000004 0.7797108398398651 0.48265706134897396
    endloop
  endfacet
  facet normal -0.0739410664780143 0.4578377349152513 0.8859556011312112
    outer loop
      vertex 2.20805710885519 0.7142762823923546 0.6495748449589465
      vertex 2.2041515723903813 0.3929929549824547 0.8152793691682411
      vertex 2.5000000000000004 0.5661040349354395 0.7505115225539835
    endloop
  endfacet
  facet normal 0.07841348406396126 0.43450793635441676 0.8972481143819567
    outer loop
      vertex 2.5000000000000004 0.5661040349354395 0.7505115225539835
      vertex 2.7766853207766955 0.38919245724436824 0.8120035710341308
      vertex 2.808004023834967 0.7146388811726601 0.6516634595619907
    endloop
  endfacet
  facet normal -0.11800131632327046 0.9681165185147166 -0.220966277800301
    outer loop
      vertex 2.5000000000000004 0.7797108398398651 0.48265706134897396
      vertex 2.79237293078906 0.7787982338549483 0.32252448378311954
      vertex 2.5000000000000004 0.7034754538158157 0.14864801146159926
    endloop
  endfacet
  facet normal 0.11974603938034788 0.9679128728081183 -0.2209197969966824
    outer loop
      vertex 2.5000000000000004 0.7034754538158157 0.14864801146159926
      vertex 2.2135603913687865 0.7752755424515407 0.30796474940231877
      vertex 2.5000000000000004 0.7797108398398651 0.48265706134897396
    endloop
  endfacet
  facet normal -0.12041651645017816 0.9775994877398083 0.17262417019892756
    outer loop
      vertex 2.5000000000000004 0.7797108398398651 0.48265706134897396
      vertex 2.2135603913687865 0.7752755424515407 0.30796474940231877
      vertex 2.20805710885519 0.7142762823923546 0.6495748449589465
    endloop
  endfacet
  facet normal 0.10464224649305831 0.9770586954972754 0.18548936843401218
    outer loop
      vertex 2.808004023834967 0.7146388811726601 0.6516634595619907
      vertex 2.79237293078906 0.7787982338549483 0.32252448378311954
      vertex 2.5000000000000004 0.7797108398398651 0.48265706134897396
    endloop
  endfacet
  facet normal 0.29972593852044715 -0.7230479791463981 -0.6223873244454349
    outer loop
      vertex 3.912249080017474 0.3948046774578735 0.43562114929560897
      vertex 3.498683132900478 0.0021476290011766506 0.6926209908122849
      vertex 3.23895420184945 0.3948046774578735 0.11137942499678234
    endloop
  endfacet
  facet normal 0.28027817574489733 0.7633583169897658 -0.5820036289265426
    outer loop
      vertex 3.23895420184945 0.3948046774578735 0.11137942499678234
      vertex 3.489749514326213 0.7803510131834916 0.7378402175178129
      vertex 3.912249080017474 0.3948046774578735 0.43562114929560897
    endloop
  endfacet
  facet normal 0.38749850553074144 -0.6993092020950707 -0.6006759093526205
    outer loop
      vertex 3.23895420184945 0.3948046774578735 0.11137942499678234
      vertex 3.1005985024783866 0.0 0.48175871568332834
      vertex 2.8092362039940575 0.03533250606686606 0.25266545638376864
    endloop
  endfacet
  facet normal 0.3442585039333757 0.7270276595130257 -0.5940680640907791
    outer loop
      vertex 2.79237293078906 0.7787982338549483 0.32252448378311954
      vertex 3.1136387415160844 0.7882412013322063 0.520252308269789
      vertex 3.23895420184945 0.3948046774578735 0.11137942499678234
    endloop
  endfacet
  facet normal 0.335203120807132 -0.7044135990158483 -0.6256519394381344
    outer loop
      vertex 3.23895420184945 0.3948046774578735 0.11137942499678234
      vertex 3.498683132900478 0.0021476290011766506 0.6926209908122849
      vertex 3.1005985024783866 0.0 0.48175871568332834
    endloop
  endfacet
  facet normal 0.3559735286469861 0.7255010500212805 -0.5890085511438973
    outer loop
      vertex 3.1136387415160844 0.7882412013322063 0.520252308269789
      vertex 3.489749514326213 0.7803510131834916 0.7378402175178129
      vertex 3.23895420184945 0.3948046774578735 0.11137942499678234
    endloop
  endfacet
  facet normal 0.37190804797792193 -0.8372732464740081 -0.4008215495555681
    outer loop
      vertex 4.4600594298729375 0.3948046774578735 0.9439148727811597
      vertex 3.817590526186171 0.04093568180803146 1.0869852416801475
      vertex 3.912249080017474 0.3948046774578735 0.43562114929560897
    endloop
  endfacet
  facet normal 0.37190804802901195 0.8372732464249549 -0.40082154961063005
    outer loop
      vertex 3.912249080017474 0.3948046774578735 0.43562114929560897
      vertex 3.817590526227265 0.7486736731376046 1.0869852416358599
      vertex 4.4600594298729375 0.3948046774578735 0.9439148727811597
    endloop
  endfacet
  facet normal 0.5234647758607303 -0.7782961259252014 -0.3467560652719694
    outer loop
      vertex 3.817590526186171 0.04093568180803146 1.0869852416801475
      vertex 3.498683132900478 0.0021476290011766506 0.6926209908122849
      vertex 3.912249080017474 0.3948046774578735 0.43562114929560897
    endloop
  endfacet
  facet normal 0.4693573670810431 0.8027213395003522 -0.3678887237705325
    outer loop
      vertex 3.912249080017474 0.3948046774578735 0.43562114929560897
      vertex 3.489749514326213 0.7803510131834916 0.7378402175178129
      vertex 3.817590526227265 0.7486736731376046 1.0869852416358599
    endloop
  endfacet
  facet normal 0.5723163187936138 0.7505145179519855 -0.3304269807171101
    outer loop
      vertex 4.4600594298729375 0.3948046774578735 0.9439148727811597
      vertex 4.265769647761297 0.7826719296615188 1.4883764374790354
      vertex 4.833709897805059 0.3948046774578735 1.5910964675114776
    endloop
  endfacet
  facet normal 0.6808648796844248 -0.617978441492703 -0.3930975215675666
    outer loop
      vertex 4.833709897805059 0.3948046774578735 1.5910964675114776
      vertex 4.311449671717745 0.00543786101812905 1.2986287176563565
      vertex 4.4600594298729375 0.3948046774578735 0.9439148727811597
    endloop
  endfacet
  facet normal 0.23723747406606702 -0.7021462741637406 -0.6713486356407746
    outer loop
      vertex 4.4600594298729375 0.3948046774578735 0.9439148727811597
      vertex 4.311449671717745 0.00543786101812905 1.2986287176563565
      vertex 3.817590526186171 0.04093568180803146 1.0869852416801475
    endloop
  endfacet
  facet normal 0.34835797347357206 0.8177257134589149 -0.4582263413047035
    outer loop
      vertex 3.817590526227265 0.7486736731376046 1.0869852416358599
      vertex 4.265769647761297 0.7826719296615188 1.4883764374790354
      vertex 4.4600594298729375 0.3948046774578735 0.9439148727811597
    endloop
  endfacet
  facet normal 0.5330756682875479 0.8372732464745292 -0.12167104264280255
    outer loop
      vertex 4.833709897805059 0.3948046774578735 1.5910964675114776
      vertex 4.388572871965717 0.7486736731073982 2.0759556747964045
      vertex 5.0 0.3948046774578735 2.3196610086851237
    endloop
  endfacet
  facet normal 0.7779967501388679 -0.6026516403558746 -0.17757268131594284
    outer loop
      vertex 5.0 0.3948046774578735 2.3196610086851237
      vertex 4.669723059884168 0.008498628741825809 2.183680564289839
      vertex 4.833709897805059 0.3948046774578735 1.5910964675114776
    endloop
  endfacet
  facet normal 0.5713602032377756 0.8175253153782086 -0.0721101717641014
    outer loop
      vertex 4.833709897805059 0.3948046774578735 1.5910964675114776
      vertex 4.265769647761297 0.7826719296615188 1.4883764374790354
      vertex 4.388572871965717 0.7486736731073982 2.0759556747964045
    endloop
  endfacet
  facet normal 0.5360267855943003 -0.8309377527001135 0.1490561513763427
    outer loop
      vertex 4.262030898574118 0.06555221056983977 1.8114627599409876
      vertex 4.311449671717745 0.00543786101812905 1.2986287176563565
      vertex 4.833709897805059 0.3948046774578735 1.5910964675114776
    endloop
  endfacet
  facet normal 0.30326439331835725 -0.8344820103414381 -0.4600766046668322
    outer loop
      vertex 4.833709897805059 0.3948046774578735 1.5910964675114776
      vertex 4.669723059884168 0.008498628741825809 2.183680564289839
      vertex 4.262030898574118 0.06555221056983977 1.8114627599409876
    endloop
  endfacet
  facet normal 0.6880789731766506 -0.7238013818022891 0.05156439055455876
    outer loop
      vertex 4.944154131125646 0.3948046774578735 3.0648723395659925
      vertex 4.5596868305101905 0.00251757119458628 2.6887584373064968
      vertex 5.0 0.3948046774578735 2.3196610086851237
    endloop
  endfacet
  facet normal 0.7511266669127099 0.6577539513304969 0.05628916202717247
    outer loop
      vertex 5.0 0.3948046774578735 2.3196610086851237
      vertex 4.62784621847992 0.7889589461641965 2.6799097863624888
      vertex 4.944154131125646 0.3948046774578735 3.0648723395659925
    endloop
  endfacet
  facet normal 0.5612827371198739 0.7807941621515457 -0.27444883924201285
    outer loop
      vertex 4.388572871965717 0.7486736731073982 2.0759556747964045
      vertex 4.62784621847992 0.7889589461641965 2.6799097863624888
      vertex 5.0 0.3948046774578735 2.3196610086851237
    endloop
  endfacet
  facet normal 0.7247946291493755 -0.6724511508867302 0.14994063901201446
    outer loop
      vertex 4.5596868305101905 0.00251757119458628 2.6887584373064968
      vertex 4.669723059884168 0.008498628741825809 2.183680564289839
      vertex 5.0 0.3948046774578735 2.3196610086851237
    endloop
  endfacet
  facet normal 0.508987525590692 0.8372732464738953 0.19976288326946076
    outer loop
      vertex 4.944154131125646 0.3948046774578735 3.0648723395659925
      vertex 4.303233743693781 0.7486736731077841 3.2147272014671153
      vertex 4.671134441707042 0.3948046774578735 3.7605151630992606
    endloop
  endfacet
  facet normal 0.6323558628904291 -0.7338474374603734 0.2481813877004965
    outer loop
      vertex 4.671134441707042 0.3948046774578735 3.7605151630992606
      vertex 4.422364011164565 0.003901754302948547 3.2385111990387423
      vertex 4.944154131125646 0.3948046774578735 3.0648723395659925
    endloop
  endfacet
  facet normal 0.5138459287320096 0.7739059219666757 0.37017831577558397
    outer loop
      vertex 4.944154131125646 0.3948046774578735 3.0648723395659925
      vertex 4.62784621847992 0.7889589461641965 2.6799097863624888
      vertex 4.303233743693781 0.7486736731077841 3.2147272014671153
    endloop
  endfacet
  facet normal 0.6251867560603097 -0.7642964855834679 0.15808985473946915
    outer loop
      vertex 4.944154131125646 0.3948046774578735 3.0648723395659925
      vertex 4.422364011164565 0.003901754302948547 3.2385111990387423
      vertex 4.5596868305101905 0.00251757119458628 2.6887584373064968
    endloop
  endfacet
  facet normal 0.5010028174185434 -0.7677023057866815 0.39953641464639283
    outer loop
      vertex 4.205199929276204 0.3948046774578735 4.344778561635749
      vertex 4.07052405679246 0.011077751196825974 3.776332116694322
      vertex 4.671134441707042 0.3948046774578735 3.7605151630992606
    endloop
  endfacet
  facet normal 0.5742501978238078 0.6786156449053081 0.45794925132493686
    outer loop
      vertex 4.671134441707042 0.3948046774578735 3.7605151630992606
      vertex 4.103128832601575 0.7895933588572904 3.8877510033066325
      vertex 4.205199929276204 0.3948046774578735 4.344778561635749
    endloop
  endfacet
  facet normal 0.5849954888594675 0.8013127375491187 0.12521251796689511
    outer loop
      vertex 4.303233743693781 0.7486736731077841 3.2147272014671153
      vertex 4.103128832601575 0.7895933588572904 3.8877510033066325
      vertex 4.671134441707042 0.3948046774578735 3.7605151630992606
    endloop
  endfacet
  facet normal 0.511724602870406 -0.7867211071609453 0.345264869867442
    outer loop
      vertex 4.07052405679246 0.011077751196825974 3.776332116694322
      vertex 4.422364011164565 0.003901754302948547 3.2385111990387423
      vertex 4.671134441707042 0.3948046774578735 3.7605151630992606
    endloop
  endfacet
  facet normal 0.42085776481466847 -0.6647089668663282 0.6172849675495913
    outer loop
      vertex 3.587750919982538 0.3948046774578735 4.765748168217797
      vertex 3.7250297111759028 0.0003270375591740798 4.24736899731838
      vertex 4.205199929276204 0.3948046774578735 4.344778561635749
    endloop
  endfacet
  facet normal 0.4586043154578465 0.580711132609195 0.672648988928985
    outer loop
      vertex 4.205199929276204 0.3948046774578735 4.344778561635749
      vertex 3.7508581082356103 0.7784599771039765 4.323326386720878
      vertex 3.587750919982538 0.3948046774578735 4.765748168217797
    endloop
  endfacet
  facet normal 0.5402670511102733 -0.751248497369742 0.3791269031397194
    outer loop
      vertex 4.205199929276204 0.3948046774578735 4.344778561635749
      vertex 3.7250297111759028 0.0003270375591740798 4.24736899731838
      vertex 4.07052405679246 0.011077751196825974 3.776332116694322
    endloop
  endfacet
  facet normal 0.5571152507817707 0.6859347123376707 0.4680984594683065
    outer loop
      vertex 4.103128832601575 0.7895933588572904 3.8877510033066325
      vertex 3.7508581082356103 0.7784599771039765 4.323326386720878
      vertex 4.205199929276204 0.3948046774578735 4.344778561635749
    endloop
  endfacet
  facet normal 0.16608242196505585 -0.8261441065263555 0.5384259878256163
    outer loop
      vertex 2.8736504679321344 0.3948046774578735 4.986018985905899
      vertex 3.1082749997402424 0.03443509778154912 4.360707016333718
      vertex 3.587750919982538 0.3948046774578735 4.765748168217797
    endloop
  endfacet
  facet normal 0.16116762030133258 0.8372732464941128 0.5224925921691274
    outer loop
      vertex 3.587750919982538 0.3948046774578735 4.765748168217797
      vertex 3.070982345772882 0.7486736730954653 4.358089409698464
      vertex 2.8736504679321344 0.3948046774578735 4.986018985905899
    endloop
  endfacet
  facet normal 0.06974600271368339 -0.7848601135891972 0.615735411684447
    outer loop
      vertex 3.1082749997402424 0.03443509778154912 4.360707016333718
      vertex 3.7250297111759028 0.0003270375591740798 4.24736899731838
      vertex 3.587750919982538 0.3948046774578735 4.765748168217797
    endloop
  endfacet
  facet normal 0.00040675926747043667 0.7554262145354552 0.6552335987566043
    outer loop
      vertex 3.587750919982538 0.3948046774578735 4.765748168217797
      vertex 3.7508581082356103 0.7784599771039765 4.323326386720878
      vertex 3.070982345772882 0.7486736730954653 4.358089409698464
    endloop
  endfacet
  facet normal 3.1298513146946118e-15 0.8500619899245028 0.5266826495011911
    outer loop
      vertex 2.8736504679321344 0.3948046774578735 4.986018985905899
      vertex 2.4010175784702903 0.7411118421776914 4.42708172483295
      vertex 2.1263495320678913 0.3948046774578735 4.986018985905903
    endloop
  endfacet
  facet normal 4.476142997091118e-15 -0.657753951328013 0.7532328587577589
    outer loop
      vertex 2.1263495320678913 0.3948046774578735 4.986018985905903
      vertex 2.513402068018364 0.0006504087516888689 4.641827246711377
      vertex 2.8736504679321344 0.3948046774578735 4.986018985905899
    endloop
  endfacet
  facet normal 0.04177635389300693 0.8647519781616004 0.500458542260001
    outer loop
      vertex 2.8736504679321344 0.3948046774578735 4.986018985905899
      vertex 3.070982345772882 0.7486736730954653 4.358089409698464
      vertex 2.4010175784702903 0.7411118421776914 4.42708172483295
    endloop
  endfacet
  facet normal 0.30795760178502785 -0.7697445644797672 0.5591559898245457
    outer loop
      vertex 2.8736504679321344 0.3948046774578735 4.986018985905899
      vertex 2.513402068018364 0.0006504087516888689 4.641827246711377
      vertex 3.1082749997402424 0.03443509778154912 4.360707016333718
    endloop
  endfacet
  facet normal -0.16116762031039614 -0.8372732464740198 0.52249259219853
    outer loop
      vertex 1.4122490800174876 0.3948046774578735 4.76574816821781
      vertex 1.9290176542198438 0.040935681808038575 4.358089409722119
      vertex 2.1263495320678913 0.3948046774578735 4.986018985905903
    endloop
  endfacet
  facet normal -0.22024617149456382 0.6645797744555313 0.714020551053415
    outer loop
      vertex 2.1263495320678913 0.3948046774578735 4.986018985905903
      vertex 1.8287979843267381 0.7892660150534826 4.527088755537122
      vertex 1.4122490800174876 0.3948046774578735 4.76574816821781
    endloop
  endfacet
  facet normal 0.16816733742826032 0.7988266329450175 0.5775774901431113
    outer loop
      vertex 2.4010175784702903 0.7411118421776914 4.42708172483295
      vertex 1.8287979843267381 0.7892660150534826 4.527088755537122
      vertex 2.1263495320678913 0.3948046774578735 4.986018985905903
    endloop
  endfacet
  facet normal -0.3156261360992322 -0.7807941621502821 0.539203689307768
    outer loop
      vertex 1.9290176542198438 0.040935681808038575 4.358089409722119
      vertex 2.513402068018364 0.0006504087516888689 4.641827246711377
      vertex 2.1263495320678913 0.3948046774578735 4.986018985905903
    endloop
  endfacet
  facet normal -0.30801479028385587 0.8372732464739132 0.4517747222957767
    outer loop
      vertex 1.4122490800174876 0.3948046774578735 4.76574816821781
      vertex 1.4087695955769215 0.7486736731077734 4.1075511491959436
      vertex 0.7948000707238163 0.3948046774578735 4.344778561635767
    endloop
  endfacet
  facet normal -0.3094118438529167 -0.8356483997928924 0.45382382353410733
    outer loop
      vertex 0.7948000707238163 0.3948046774578735 4.344778561635767
      vertex 1.4076433372778794 0.03995359774104516 4.1092030667217685
      vertex 1.4122490800174876 0.3948046774578735 4.76574816821781
    endloop
  endfacet
  facet normal -0.2203534095132866 -0.8574568518261719 0.46498615266717375
    outer loop
      vertex 1.4122490800174876 0.3948046774578735 4.76574816821781
      vertex 1.4076433372778794 0.03995359774104516 4.1092030667217685
      vertex 1.9290176542198438 0.040935681808038575 4.358089409722119
    endloop
  endfacet
  facet normal -0.4887858506663484 0.767311352614425 0.41511646599164886
    outer loop
      vertex 1.4122490800174876 0.3948046774578735 4.76574816821781
      vertex 1.8287979843267381 0.7892660150534826 4.527088755537122
      vertex 1.4087695955769215 0.7486736731077734 4.1075511491959436
    endloop
  endfacet
  facet normal -0.5913577044911884 0.6541383799221736 0.4715920326423108
    outer loop
      vertex 0.7948000707238163 0.3948046774578735 4.344778561635767
      vertex 0.8509347971927512 0.7887230105714783 3.8687709497176725
      vertex 0.328865558292971 0.3948046774578735 3.7605151630992815
    endloop
  endfacet
  facet normal -0.6088959991095826 -0.6272633598119354 0.48557835588685977
    outer loop
      vertex 0.328865558292971 0.3948046774578735 3.7605151630992815
      vertex 0.8243482422696033 0.0034015684942209122 3.876221709840756
      vertex 0.7948000707238163 0.3948046774578735 4.344778561635767
    endloop
  endfacet
  facet normal -0.2058671788126895 0.765693998250323 0.6093696790382161
    outer loop
      vertex 0.7948000707238163 0.3948046774578735 4.344778561635767
      vertex 1.4087695955769215 0.7486736731077734 4.1075511491959436
      vertex 0.8509347971927512 0.7887230105714783 3.8687709497176725
    endloop
  endfacet
  facet normal -0.20038301719946863 -0.7580788406020796 0.6206151124887663
    outer loop
      vertex 0.7948000707238163 0.3948046774578735 4.344778561635767
      vertex 0.8243482422696033 0.0034015684942209122 3.876221709840756
      vertex 1.4076433372778794 0.03995359774104516 4.1092030667217685
    endloop
  endfacet
  facet normal -0.5089875255906827 0.8372732464739008 0.19976288326946223
    outer loop
      vertex 0.328865558292971 0.3948046774578735 3.7605151630992815
      vertex 0.6967662563062328 0.7486736731077809 3.2147272014671286
      vertex 0.05584586887435995 0.3948046774578735 3.0648723395660125
    endloop
  endfacet
  facet normal -0.5766347771380094 -0.7850318454248889 0.22631247306278024
    outer loop
      vertex 0.05584586887435995 0.3948046774578735 3.0648723395660125
      vertex 0.67177937114737 0.01600268952324472 3.320258414376213
      vertex 0.328865558292971 0.3948046774578735 3.7605151630992815
    endloop
  endfacet
  facet normal -0.6121567372265809 0.7848584912912547 0.09623553250292793
    outer loop
      vertex 0.328865558292971 0.3948046774578735 3.7605151630992815
      vertex 0.8509347971927512 0.7887230105714783 3.8687709497176725
      vertex 0.6967662563062328 0.7486736731077809 3.2147272014671286
    endloop
  endfacet
  facet normal -0.6344983660376861 -0.7568177802913295 0.15696710142705586
    outer loop
      vertex 0.67177937114737 0.01600268952324472 3.320258414376213
      vertex 0.8243482422696033 0.0034015684942209122 3.876221709840756
      vertex 0.328865558292971 0.3948046774578735 3.7605151630992815
    endloop
  endfacet
  facet normal -0.3913097713835485 -0.9197916774294568 0.029324613403435732
    outer loop
      vertex 0.0 0.3948046774578735 2.3196610086851397
      vertex 0.6711402047454473 0.11791903965051115 2.5906488891036763
      vertex 0.05584586887435995 0.3948046774578735 3.0648723395660125
    endloop
  endfacet
  facet normal -0.7210598641877566 0.6907624675423917 0.054035966654444774
    outer loop
      vertex 0.05584586887435995 0.3948046774578735 3.0648723395660125
      vertex 0.4058870202360194 0.7894811063123531 2.690546865854669
      vertex 0.0 0.3948046774578735 2.3196610086851397
    endloop
  endfacet
  facet normal -0.5141951990937488 0.784599852793145 0.3464193531341968
    outer loop
      vertex 0.6967662563062328 0.7486736731077809 3.2147272014671286
      vertex 0.4058870202360194 0.7894811063123531 2.690546865854669
      vertex 0.05584586887435995 0.3948046774578735 3.0648723395660125
    endloop
  endfacet
  facet normal -0.4832402473998016 -0.8671273302484579 -0.12070234641116165
    outer loop
      vertex 0.6711402047454473 0.11791903965051115 2.5906488891036763
      vertex 0.67177937114737 0.01600268952324472 3.320258414376213
      vertex 0.05584586887435995 0.3948046774578735 3.0648723395660125
    endloop
  endfacet
  facet normal -0.5436922605963563 0.830059848850505 -0.1240942105575454
    outer loop
      vertex 0.0 0.3948046774578735 2.3196610086851397
      vertex 0.5789150894110373 0.7538143264919525 2.1846655196380516
      vertex 0.16629010219493742 0.3948046774578735 1.5910964675114876
    endloop
  endfacet
  facet normal -0.47753546639467137 -0.8718257332360398 -0.10899435399443892
    outer loop
      vertex 0.16629010219493742 0.3948046774578735 1.5910964675114876
      vertex 0.7022246366181332 0.06295650930553813 1.8974061381147742
      vertex 0.0 0.3948046774578735 2.3196610086851397
    endloop
  endfacet
  facet normal -0.5515822873265184 0.7973658205160826 -0.2448769662102999
    outer loop
      vertex 0.0 0.3948046774578735 2.3196610086851397
      vertex 0.4058870202360194 0.7894811063123531 2.690546865854669
      vertex 0.5789150894110373 0.7538143264919525 2.1846655196380516
    endloop
  endfacet
  facet normal -0.39958006783201133 -0.9150688653848 0.05463278315022882
    outer loop
      vertex 0.7022246366181332 0.06295650930553813 1.8974061381147742
      vertex 0.6711402047454473 0.11791903965051115 2.5906488891036763
      vertex 0.0 0.3948046774578735 2.3196610086851397
    endloop
  endfacet
  facet normal -0.20016510624880215 0.9729226966485439 -0.11556537797511554
    outer loop
      vertex 0.16629010219493742 0.3948046774578735 1.5910964675114876
      vertex 0.9508161147373251 0.5666100289908302 1.6786537743268384
      vertex 0.5399405701270591 0.3948046774578735 0.943914872781165
    endloop
  endfacet
  facet normal -0.6221866334045213 -0.6955897193151994 -0.3592196202822861
    outer loop
      vertex 0.5399405701270591 0.3948046774578735 0.943914872781165
      vertex 0.7472209403479984 0.00016675956589631935 1.3490681400348774
      vertex 0.16629010219493742 0.3948046774578735 1.5910964675114876
    endloop
  endfacet
  facet normal -0.1458628275536984 0.8881526479965237 -0.4357853937373341
    outer loop
      vertex 0.5789150894110373 0.7538143264919525 2.1846655196380516
      vertex 0.9508161147373251 0.5666100289908302 1.6786537743268384
      vertex 0.16629010219493742 0.3948046774578735 1.5910964675114876
    endloop
  endfacet
  facet normal -0.5466141514857603 -0.8358388576880572 0.05085639954052959
    outer loop
      vertex 0.16629010219493742 0.3948046774578735 1.5910964675114876
      vertex 0.7472209403479984 0.00016675956589631935 1.3490681400348774
      vertex 0.7022246366181332 0.06295650930553813 1.8974061381147742
    endloop
  endfacet
  facet normal -0.3719080479779088 -0.8372732464740215 -0.4008215495555522
    outer loop
      vertex 1.087750919982523 0.3948046774578735 0.43562114929561174
      vertex 1.1824094738138382 0.04093568180803954 1.0869852416801629
      vertex 0.5399405701270591 0.3948046774578735 0.943914872781165
    endloop
  endfacet
  facet normal -0.37190804797800586 0.8372732464739283 -0.4008215495556568
    outer loop
      vertex 0.5399405701270591 0.3948046774578735 0.943914872781165
      vertex 1.18240947381376 0.7486736731077642 1.0869852416800787
      vertex 1.087750919982523 0.3948046774578735 0.43562114929561174
    endloop
  endfacet
  facet normal -0.28465512282547206 -0.7554192107264394 -0.5901807156411152
    outer loop
      vertex 1.1824094738138382 0.04093568180803954 1.0869852416801629
      vertex 0.7472209403479984 0.00016675956589631935 1.3490681400348774
      vertex 0.5399405701270591 0.3948046774578735 0.943914872781165
    endloop
  endfacet
  facet normal -0.49364679557534324 0.8665573319612837 0.07342500692772805
    outer loop
      vertex 0.5399405701270591 0.3948046774578735 0.943914872781165
      vertex 0.9508161147373251 0.5666100289908302 1.6786537743268384
      vertex 1.18240947381376 0.7486736731077642 1.0869852416800787
    endloop
  endfacet
  facet normal -0.33758255843898677 -0.6282043086673157 -0.7009974057081867
    outer loop
      vertex 1.7610457981505485 0.3948046774578735 0.11137942499678317
      vertex 1.7339820697555135 0.004626061400117035 0.4740742486287923
      vertex 1.087750919982523 0.3948046774578735 0.43562114929561174
    endloop
  endfacet
  facet normal -0.28047630031887044 0.7629716688634428 -0.5824150388435825
    outer loop
      vertex 1.087750919982523 0.3948046774578735 0.43562114929561174
      vertex 1.5164572895328288 0.7803731829871992 0.7342670599775342
      vertex 1.7610457981505485 0.3948046774578735 0.11137942499678317
    endloop
  endfacet
  facet normal -0.3456581623398991 -0.8446954667593725 -0.4086685738394496
    outer loop
      vertex 1.087750919982523 0.3948046774578735 0.43562114929561174
      vertex 1.4972178076836724 0.03457358571499771 0.8338656159795315
      vertex 1.1824094738138382 0.04093568180803954 1.0869852416801629
    endloop
  endfacet
  facet normal -0.46604634947794626 0.8040876773133998 -0.36911218800118484
    outer loop
      vertex 1.18240947381376 0.7486736731077642 1.0869852416800787
      vertex 1.5164572895328288 0.7803731829871992 0.7342670599775342
      vertex 1.087750919982523 0.3948046774578735 0.43562114929561174
    endloop
  endfacet
  facet normal -0.4890928888401027 -0.8349277405286445 -0.25235652197194236
    outer loop
      vertex 1.7339820697555135 0.004626061400117035 0.4740742486287923
      vertex 1.4972178076836724 0.03457358571499771 0.8338656159795315
      vertex 1.087750919982523 0.3948046774578735 0.43562114929561174
    endloop
  endfacet
  facet normal -0.30003594975724146 -0.6382252313422876 -0.7089760101240052
    outer loop
      vertex 2.163550829502826 0.029712706980827067 0.2696992078275779
      vertex 1.7339820697555135 0.004626061400117035 0.4740742486287923
      vertex 1.7610457981505485 0.3948046774578735 0.11137942499678317
    endloop
  endfacet
  facet normal -0.3053196110311048 0.6978825422288469 -0.6478733613693471
    outer loop
      vertex 1.7610457981505485 0.3948046774578735 0.11137942499678317
      vertex 1.8781593630753566 0.7895525787142306 0.4814063701891037
      vertex 2.2135603913687865 0.7752755424515407 0.30796474940231877
    endloop
  endfacet
  facet normal -0.43061320920161417 0.6819401901852219 -0.5912104879577411
    outer loop
      vertex 1.7610457981505485 0.3948046774578735 0.11137942499678317
      vertex 1.5164572895328288 0.7803731829871992 0.7342670599775342
      vertex 1.8781593630753566 0.7895525787142306 0.4814063701891037
    endloop
  endfacet
  facet normal 0.41761186250564464 -0.19405245841831587 -0.8876620841718849
    outer loop
      vertex 2.4010175784702903 0.7411118421776914 4.42708172483295
      vertex 2.513402068018364 0.0006504087516888689 4.641827246711377
      vertex 1.9290176542198438 0.040935681808038575 4.358089409722119
    endloop
  endfacet
  facet normal -0.1525335423078495 0.19822891754695424 -0.9682142400931636
    outer loop
      vertex 1.9290176542198438 0.040935681808038575 4.358089409722119
      vertex 1.8287979843267381 0.7892660150534826 4.527088755537122
      vertex 2.4010175784702903 0.7411118421776914 4.42708172483295
    endloop
  endfacet
  facet normal -0.10233276710617781 -0.008988619730239636 -0.9947096106360578
    outer loop
      vertex 2.4010175784702903 0.7411118421776914 4.42708172483295
      vertex 3.070982345772882 0.7486736730954653 4.358089409698464
      vertex 3.1082749997402424 0.03443509778154912 4.360707016333718
    endloop
  endfacet
  facet normal -0.391651109527278 -0.3106247799804676 -0.8660956381763725
    outer loop
      vertex 3.1082749997402424 0.03443509778154912 4.360707016333718
      vertex 2.513402068018364 0.0006504087516888689 4.641827246711377
      vertex 2.4010175784702903 0.7411118421776914 4.42708172483295
    endloop
  endfacet
  facet normal 0.34282936485743243 0.42730847569794234 0.836585616173354
    outer loop
      vertex 2.20805710885519 0.7142762823923546 0.6495748449589465
      vertex 1.8823739057593045 0.6100729163232378 0.8362631457859145
      vertex 2.2041515723903813 0.3929929549824547 0.8152793691682411
    endloop
  endfacet
  facet normal -0.02660239490686506 0.8919112499438592 0.45142733059574736
    outer loop
      vertex 2.20805710885519 0.7142762823923546 0.6495748449589465
      vertex 1.8781593630753566 0.7895525787142306 0.4814063701891037
      vertex 1.8823739057593045 0.6100729163232378 0.8362631457859145
    endloop
  endfacet
  facet normal 0.13268584636809908 0.9753525715759367 0.17630038937503334
    outer loop
      vertex 2.2135603913687865 0.7752755424515407 0.30796474940231877
      vertex 1.8781593630753566 0.7895525787142306 0.4814063701891037
      vertex 2.20805710885519 0.7142762823923546 0.6495748449589465
    endloop
  endfacet
  facet normal -0.3462450045850761 0.4412153158374498 0.8279151175515158
    outer loop
      vertex 2.7766853207766955 0.38919245724436824 0.8120035710341308
      vertex 3.0991012325428273 0.6125307667453963 0.8278199461734008
      vertex 2.808004023834967 0.7146388811726601 0.6516634595619907
    endloop
  endfacet
  facet normal 0.004267032181125518 0.8682000360719889 0.49619601953357334
    outer loop
      vertex 3.0991012325428273 0.6125307667453963 0.8278199461734008
      vertex 3.1136387415160844 0.7882412013322063 0.520252308269789
      vertex 2.808004023834967 0.7146388811726601 0.6516634595619907
    endloop
  endfacet
  facet normal -0.14912392640342512 0.9691969579850991 0.19600844677323445
    outer loop
      vertex 2.808004023834967 0.7146388811726601 0.6516634595619907
      vertex 3.1136387415160844 0.7882412013322063 0.520252308269789
      vertex 2.79237293078906 0.7787982338549483 0.32252448378311954
    endloop
  endfacet
  facet normal 0.35515165953017 -0.4456237139501498 0.8217583612584914
    outer loop
      vertex 2.2041515723903813 0.3929929549824547 0.8152793691682411
      vertex 1.8779714171805117 0.20897187461803393 0.8564584648085433
      vertex 2.1767943741088858 0.07543014379480063 0.6548945514679616
    endloop
  endfacet
  facet normal -0.06001622221290525 -0.870802648121954 0.487955736819523
    outer loop
      vertex 1.8779714171805117 0.20897187461803393 0.8564584648085433
      vertex 1.7339820697555135 0.004626061400117035 0.4740742486287923
      vertex 2.1767943741088858 0.07543014379480063 0.6548945514679616
    endloop
  endfacet
  facet normal 0.11157947685983681 -0.9872710916936673 0.1133393658429385
    outer loop
      vertex 2.1767943741088858 0.07543014379480063 0.6548945514679616
      vertex 1.7339820697555135 0.004626061400117035 0.4740742486287923
      vertex 2.163550829502826 0.029712706980827067 0.2696992078275779
    endloop
  endfacet
  facet normal -0.33032469796811387 -0.4464352382571334 0.8316135953401501
    outer loop
      vertex 2.7919428911450606 0.07533307252954013 0.6495748449675566
      vertex 3.100708022683825 0.16867377588855387 0.8223273453677398
      vertex 2.7766853207766955 0.38919245724436824 0.8120035710341308
    endloop
  endfacet
  facet normal 0.022581985945008955 -0.8958902218176862 0.4437012106837624
    outer loop
      vertex 2.7919428911450606 0.07533307252954013 0.6495748449675566
      vertex 3.1005985024783866 0.0 0.48175871568332834
      vertex 3.100708022683825 0.16867377588855387 0.8223273453677398
    endloop
  endfacet
  facet normal -0.18954600036950947 -0.9777129678481201 0.09027550191243973
    outer loop
      vertex 2.8092362039940575 0.03533250606686606 0.25266545638376864
      vertex 3.1005985024783866 0.0 0.48175871568332834
      vertex 2.7919428911450606 0.07533307252954013 0.6495748449675566
    endloop
  endfacet
  facet normal 0.09785908297008664 0.04897323139579276 0.9939945787009644
    outer loop
      vertex 1.8823739057593045 0.6100729163232378 0.8362631457859145
      vertex 1.8779714171805117 0.20897187461803393 0.8564584648085433
      vertex 2.2041515723903813 0.3929929549824547 0.8152793691682411
    endloop
  endfacet
  facet normal -0.04034651452891997 -0.012509720013014352 0.9991074344986948
    outer loop
      vertex 2.7766853207766955 0.38919245724436824 0.8120035710341308
      vertex 3.100708022683825 0.16867377588855387 0.8223273453677398
      vertex 3.0991012325428273 0.6125307667453963 0.8278199461734008
    endloop
  endfacet
  facet normal 0.6726134774504147 0.2475663375163578 -0.6973535821093898
    outer loop
      vertex 1.4087695955769215 0.7486736731077734 4.1075511491959436
      vertex 1.8287979843267381 0.7892660150534826 4.527088755537122
      vertex 1.9290176542198438 0.040935681808038575 4.358089409722119
    endloop
  endfacet
  facet normal 0.43080070375439383 -0.0027880597562648553 -0.9024427850936116
    outer loop
      vertex 1.9290176542198438 0.040935681808038575 4.358089409722119
      vertex 1.4076433372778794 0.03995359774104516 4.1092030667217685
      vertex 1.4087695955769215 0.7486736731077734 4.1075511491959436
    endloop
  endfacet
  facet normal -0.717726763049972 -0.04002251926725387 -0.695173713220884
    outer loop
      vertex 3.1082749997402424 0.03443509778154912 4.360707016333718
      vertex 3.070982345772882 0.7486736730954653 4.358089409698464
      vertex 3.5786541085369934 0.4607193358804012 3.8505256939525454
    endloop
  endfacet
  facet normal -0.16943040525771794 -0.6738101008337081 -0.7192171339648921
    outer loop
      vertex 3.5786541085369934 0.4607193358804012 3.8505256939525454
      vertex 3.7250297111759028 0.0003270375591740798 4.24736899731838
      vertex 3.1082749997402424 0.03443509778154912 4.360707016333718
    endloop
  endfacet
  facet normal 0.986129680219141 0.16299979710103607 0.03129408787480061
    outer loop
      vertex 0.5789150894110373 0.7538143264919525 2.1846655196380516
      vertex 0.6711402047454473 0.11791903965051115 2.5906488891036763
      vertex 0.7022246366181332 0.06295650930553813 1.8974061381147742
    endloop
  endfacet
  facet normal 0.7790845197581179 -0.11703409010680293 0.6158979889771808
    outer loop
      vertex 0.7022246366181332 0.06295650930553813 1.8974061381147742
      vertex 0.9508161147373251 0.5666100289908302 1.6786537743268384
      vertex 0.5789150894110373 0.7538143264919525 2.1846655196380516
    endloop
  endfacet
  facet normal 0.9047109439560698 0.31461100294482647 0.2872595076097006
    outer loop
      vertex 0.5789150894110373 0.7538143264919525 2.1846655196380516
      vertex 0.4058870202360194 0.7894811063123531 2.690546865854669
      vertex 0.6711402047454473 0.11791903965051115 2.5906488891036763
    endloop
  endfacet
  facet normal -0.7374205807094378 0.6476895771486985 0.19159618680729473
    outer loop
      vertex 4.265769647761297 0.7826719296615188 1.4883764374790354
      vertex 4.0896376475308465 0.48030238840474576 1.8326329674596231
      vertex 4.388572871965717 0.7486736731073982 2.0759556747964045
    endloop
  endfacet
  facet normal -0.541850340463435 0.8251770577414996 0.15962779180562914
    outer loop
      vertex 4.388572871965717 0.7486736731073982 2.0759556747964045
      vertex 4.2122759256593625 0.49964937586242103 2.764824294002066
      vertex 4.62784621847992 0.7889589461641965 2.6799097863624888
    endloop
  endfacet
  facet normal -0.9410972584645928 0.31311215010195387 -0.12765865254247075
    outer loop
      vertex 4.212209065896018 0.2861700784142814 2.2417102006268483
      vertex 4.2122759256593625 0.49964937586242103 2.764824294002066
      vertex 4.388572871965717 0.7486736731073982 2.0759556747964045
    endloop
  endfacet
  facet normal -0.7710386046434082 0.45403170202477283 0.44649152702602746
    outer loop
      vertex 4.388572871965717 0.7486736731073982 2.0759556747964045
      vertex 4.0896376475308465 0.48030238840474576 1.8326329674596231
      vertex 4.212209065896018 0.2861700784142814 2.2417102006268483
    endloop
  endfacet
  facet normal 0.8188629625052242 0.3865523897943839 -0.424312029739222
    outer loop
      vertex 0.6711402047454473 0.11791903965051115 2.5906488891036763
      vertex 0.4058870202360194 0.7894811063123531 2.690546865854669
      vertex 0.6967662563062328 0.7486736731077809 3.2147272014671286
    endloop
  endfacet
  facet normal 0.999373872500826 -0.034910981627135844 -0.005752071325400982
    outer loop
      vertex 0.6967662563062328 0.7486736731077809 3.2147272014671286
      vertex 0.67177937114737 0.01600268952324472 3.320258414376213
      vertex 0.6711402047454473 0.11791903965051115 2.5906488891036763
    endloop
  endfacet
  facet normal 0.5679760842858905 -0.1362820648469446 -0.8116836615827129
    outer loop
      vertex 0.6967662563062328 0.7486736731077809 3.2147272014671286
      vertex 1.1833671488578268 0.4179104607092969 3.610761738488286
      vertex 0.67177937114737 0.01600268952324472 3.320258414376213
    endloop
  endfacet
  facet normal 0.6566536708215704 0.7273761812625352 -0.19932347460469457
    outer loop
      vertex 0.6967662563062328 0.7486736731077809 3.2147272014671286
      vertex 0.8509347971927512 0.7887230105714783 3.8687709497176725
      vertex 1.1833671488578268 0.4179104607092969 3.610761738488286
    endloop
  endfacet
  facet normal -0.5856281538339505 0.7535401858822951 -0.29869190430528053
    outer loop
      vertex 4.62784621847992 0.7889589461641965 2.6799097863624888
      vertex 4.2122759256593625 0.49964937586242103 2.764824294002066
      vertex 4.303233743693781 0.7486736731077841 3.2147272014671153
    endloop
  endfacet
  facet normal -0.685388934954549 0.6855580729896498 -0.24546310598659601
    outer loop
      vertex 4.303233743693781 0.7486736731077841 3.2147272014671153
      vertex 3.960635378194479 0.48292979074018927 3.4291393214901267
      vertex 4.103128832601575 0.7895933588572904 3.8877510033066325
    endloop
  endfacet
  facet normal -0.6847182963899676 0.6874329223817583 -0.24206782482291125
    outer loop
      vertex 4.2122759256593625 0.49964937586242103 2.764824294002066
      vertex 3.960635378194479 0.48292979074018927 3.4291393214901267
      vertex 4.303233743693781 0.7486736731077841 3.2147272014671153
    endloop
  endfacet
  facet normal 0.5410643522944938 -0.4876172021518199 0.6851852529365844
    outer loop
      vertex 1.1824094738138382 0.04093568180803954 1.0869852416801629
      vertex 1.4972178076836724 0.03457358571499771 0.8338656159795315
      vertex 1.5165364936687966 0.4264988593385584 1.097526943019075
    endloop
  endfacet
  facet normal 0.5949351820008745 -0.5320402038985989 0.6024826558940297
    outer loop
      vertex 1.5165364936687966 0.4264988593385584 1.097526943019075
      vertex 1.2433165323114297 0.391513818344354 1.3364296196096128
      vertex 1.1824094738138382 0.04093568180803954 1.0869852416801629
    endloop
  endfacet
  facet normal 0.46365194290671563 -0.5657321265679631 0.6818900474473271
    outer loop
      vertex 1.2433165323114297 0.391513818344354 1.3364296196096128
      vertex 0.7472209403479984 0.00016675956589631935 1.3490681400348774
      vertex 1.1824094738138382 0.04093568180803954 1.0869852416801629
    endloop
  endfacet
  facet normal 0.5690783341165062 0.03511773896167165 0.8215330754445629
    outer loop
      vertex 1.8823739057593045 0.6100729163232378 0.8362631457859145
      vertex 1.5165364936687966 0.4264988593385584 1.097526943019075
      vertex 1.8779714171805117 0.20897187461803393 0.8564584648085433
    endloop
  endfacet
  facet normal 0.27933525263428555 0.8581650535757493 0.4307256173680309
    outer loop
      vertex 1.8781593630753566 0.7895525787142306 0.4814063701891037
      vertex 1.5164572895328288 0.7803731829871992 0.7342670599775342
      vertex 1.8823739057593045 0.6100729163232378 0.8362631457859145
    endloop
  endfacet
  facet normal 0.13755861591080487 0.7095053418008888 0.6911438324579826
    outer loop
      vertex 1.8823739057593045 0.6100729163232378 0.8362631457859145
      vertex 1.5164572895328288 0.7803731829871992 0.7342670599775342
      vertex 1.5165364936687966 0.4264988593385584 1.097526943019075
    endloop
  endfacet
  facet normal -0.5795695005704008 -0.6193771619187263 0.5295952466762519
    outer loop
      vertex 3.415492674456727 0.3889128905331464 1.0539137304371284
      vertex 3.498683132900478 0.0021476290011766506 0.6926209908122849
      vertex 3.817590526186171 0.04093568180803146 1.0869852416801475
    endloop
  endfacet
  facet normal -0.5448133088575545 -0.5712003600470303 0.613928829078604
    outer loop
      vertex 3.817590526186171 0.04093568180803146 1.0869852416801475
      vertex 3.848856720024322 0.3948046774933414 1.4439717943302335
      vertex 3.415492674456727 0.3889128905331464 1.0539137304371284
    endloop
  endfacet
  facet normal -0.3373149205650043 -0.6536403569215904 0.6774754077954718
    outer loop
      vertex 3.817590526186171 0.04093568180803146 1.0869852416801475
      vertex 4.311449671717745 0.00543786101812905 1.2986287176563565
      vertex 3.848856720024322 0.3948046774933414 1.4439717943302335
    endloop
  endfacet
  facet normal -0.5870320503600174 -0.012142080561752686 0.8094726318596238
    outer loop
      vertex 3.100708022683825 0.16867377588855387 0.8223273453677398
      vertex 3.415492674456727 0.3889128905331464 1.0539137304371284
      vertex 3.0991012325428273 0.6125307667453963 0.8278199461734008
    endloop
  endfacet
  facet normal -0.09710446590571731 0.6363481460022139 0.7652658098861534
    outer loop
      vertex 3.415492674456727 0.3889128905331464 1.0539137304371284
      vertex 3.489749514326213 0.7803510131834916 0.7378402175178129
      vertex 3.0991012325428273 0.6125307667453963 0.8278199461734008
    endloop
  endfacet
  facet normal -0.2545356040877969 0.8448290577426849 0.47061182459142203
    outer loop
      vertex 3.0991012325428273 0.6125307667453963 0.8278199461734008
      vertex 3.489749514326213 0.7803510131834916 0.7378402175178129
      vertex 3.1136387415160844 0.7882412013322063 0.520252308269789
    endloop
  endfacet
  facet normal 0.7810139188206184 0.4416016737069299 0.4415939542019329
    outer loop
      vertex 0.9508161147373251 0.5666100289908302 1.6786537743268384
      vertex 1.2433165323114297 0.391513818344354 1.3364296196096128
      vertex 1.18240947381376 0.7486736731077642 1.0869852416800787
    endloop
  endfacet
  facet normal 0.5558893303121554 0.5954892755919318 0.5799823920603966
    outer loop
      vertex 1.5165364936687966 0.4264988593385584 1.097526943019075
      vertex 1.5164572895328288 0.7803731829871992 0.7342670599775342
      vertex 1.18240947381376 0.7486736731077642 1.0869852416800787
    endloop
  endfacet
  facet normal 0.5089664711722405 0.5495273057051929 0.6625502784746741
    outer loop
      vertex 1.18240947381376 0.7486736731077642 1.0869852416800787
      vertex 1.2433165323114297 0.391513818344354 1.3364296196096128
      vertex 1.5165364936687966 0.4264988593385584 1.097526943019075
    endloop
  endfacet
  facet normal -0.5560115825561207 0.565441976652568 0.6092015192878911
    outer loop
      vertex 3.415492674456727 0.3889128905331464 1.0539137304371284
      vertex 3.848856720024322 0.3948046774933414 1.4439717943302335
      vertex 3.817590526227265 0.7486736731376046 1.0869852416358599
    endloop
  endfacet
  facet normal -0.5669784951075266 0.579924397583995 0.5849983582647431
    outer loop
      vertex 3.817590526227265 0.7486736731376046 1.0869852416358599
      vertex 3.489749514326213 0.7803510131834916 0.7378402175178129
      vertex 3.415492674456727 0.3889128905331464 1.0539137304371284
    endloop
  endfacet
  facet normal -0.5786094845657455 0.5533417084205681 0.5991861297566637
    outer loop
      vertex 3.817590526227265 0.7486736731376046 1.0869852416358599
      vertex 3.848856720024322 0.3948046774933414 1.4439717943302335
      vertex 4.265769647761297 0.7826719296615188 1.4883764374790354
    endloop
  endfacet
  facet normal -0.6384098675309143 -0.7691635105877012 0.028641491224513503
    outer loop
      vertex 3.848856720024322 0.3948046774933414 1.4439717943302335
      vertex 4.311449671717745 0.00543786101812905 1.2986287176563565
      vertex 4.262030898574118 0.06555221056983977 1.8114627599409876
    endloop
  endfacet
  facet normal -0.7621337581102006 -0.34475649586268436 0.5479918733971384
    outer loop
      vertex 4.262030898574118 0.06555221056983977 1.8114627599409876
      vertex 4.0896376475308465 0.48030238840474576 1.8326329674596231
      vertex 3.848856720024322 0.3948046774933414 1.4439717943302335
    endloop
  endfacet
  facet normal -0.917845479889417 -0.38619046495577924 0.09174202866628106
    outer loop
      vertex 4.212209065896018 0.2861700784142814 2.2417102006268483
      vertex 4.0896376475308465 0.48030238840474576 1.8326329674596231
      vertex 4.262030898574118 0.06555221056983977 1.8114627599409876
    endloop
  endfacet
  facet normal -0.4484182511357781 -0.8153757680419357 0.3661740418685543
    outer loop
      vertex 4.262030898574118 0.06555221056983977 1.8114627599409876
      vertex 4.669723059884168 0.008498628741825809 2.183680564289839
      vertex 4.212209065896018 0.2861700784142814 2.2417102006268483
    endloop
  endfacet
  facet normal -0.8169571862096864 -0.5398983502639403 -0.20270847856620905
    outer loop
      vertex 4.422364011164565 0.003901754302948547 3.2385111990387423
      vertex 4.2122759256593625 0.49964937586242103 2.764824294002066
      vertex 4.5596868305101905 0.00251757119458628 2.6887584373064968
    endloop
  endfacet
  facet normal -0.778918760522743 -0.5806014568860806 0.237039053253835
    outer loop
      vertex 4.5596868305101905 0.00251757119458628 2.6887584373064968
      vertex 4.2122759256593625 0.49964937586242103 2.764824294002066
      vertex 4.212209065896018 0.2861700784142814 2.2417102006268483
    endloop
  endfacet
  facet normal -0.5262940659823087 -0.8411211006440628 -0.1246188194580965
    outer loop
      vertex 4.212209065896018 0.2861700784142814 2.2417102006268483
      vertex 4.669723059884168 0.008498628741825809 2.183680564289839
      vertex 4.5596868305101905 0.00251757119458628 2.6887584373064968
    endloop
  endfacet
  facet normal 0.9099441212730175 -0.3969532091175677 0.12012429367925767
    outer loop
      vertex 0.7022246366181332 0.06295650930553813 1.8974061381147742
      vertex 0.7472209403479984 0.00016675956589631935 1.3490681400348774
      vertex 0.9508161147373251 0.5666100289908302 1.6786537743268384
    endloop
  endfacet
  facet normal -0.05169747801719593 -0.6876357626663842 0.7242129719004498
    outer loop
      vertex 3.100708022683825 0.16867377588855387 0.8223273453677398
      vertex 3.498683132900478 0.0021476290011766506 0.6926209908122849
      vertex 3.415492674456727 0.3889128905331464 1.0539137304371284
    endloop
  endfacet
  facet normal -0.22441169480055567 -0.8732311978386048 0.43255828088027376
    outer loop
      vertex 3.1005985024783866 0.0 0.48175871568332834
      vertex 3.498683132900478 0.0021476290011766506 0.6926209908122849
      vertex 3.100708022683825 0.16867377588855387 0.8223273453677398
    endloop
  endfacet
  facet normal 0.3785177697925646 -0.868024280458641 0.3213380563915857
    outer loop
      vertex 1.8779714171805117 0.20897187461803393 0.8564584648085433
      vertex 1.4972178076836724 0.03457358571499771 0.8338656159795315
      vertex 1.7339820697555135 0.004626061400117035 0.4740742486287923
    endloop
  endfacet
  facet normal 0.20549197588427892 -0.5532211615446828 0.8072913936530768
    outer loop
      vertex 1.5165364936687966 0.4264988593385584 1.097526943019075
      vertex 1.4972178076836724 0.03457358571499771 0.8338656159795315
      vertex 1.8779714171805117 0.20897187461803393 0.8564584648085433
    endloop
  endfacet
  facet normal 0.4624884362419221 -0.5641905289125445 0.6839543065350819
    outer loop
      vertex 0.9508161147373251 0.5666100289908302 1.6786537743268384
      vertex 0.7472209403479984 0.00016675956589631935 1.3490681400348774
      vertex 1.2433165323114297 0.391513818344354 1.3364296196096128
    endloop
  endfacet
  facet normal -0.671897148688171 0.6919857413026546 0.26402642939395576
    outer loop
      vertex 3.848856720024322 0.3948046774933414 1.4439717943302335
      vertex 4.0896376475308465 0.48030238840474576 1.8326329674596231
      vertex 4.265769647761297 0.7826719296615188 1.4883764374790354
    endloop
  endfacet
  facet normal 0.6731674756501645 -0.7116878507413684 -0.20086302007566417
    outer loop
      vertex 1.1833671488578268 0.4179104607092969 3.610761738488286
      vertex 0.8243482422696033 0.0034015684942209122 3.876221709840756
      vertex 0.67177937114737 0.01600268952324472 3.320258414376213
    endloop
  endfacet
  facet normal 0.3173098420965148 0.7166243878897117 -0.6210989863060321
    outer loop
      vertex 0.8509347971927512 0.7887230105714783 3.8687709497176725
      vertex 1.4087695955769215 0.7486736731077734 4.1075511491959436
      vertex 1.1833671488578268 0.4179104607092969 3.610761738488286
    endloop
  endfacet
  facet normal 0.9112496662392539 -0.0024080598652959843 -0.4118473588922644
    outer loop
      vertex 1.4087695955769215 0.7486736731077734 4.1075511491959436
      vertex 1.4076433372778794 0.03995359774104516 4.1092030667217685
      vertex 1.1833671488578268 0.4179104607092969 3.610761738488286
    endloop
  endfacet
  facet normal 0.30621251331772037 -0.687149498182765 -0.6588318934560008
    outer loop
      vertex 1.4076433372778794 0.03995359774104516 4.1092030667217685
      vertex 0.8243482422696033 0.0034015684942209122 3.876221709840756
      vertex 1.1833671488578268 0.4179104607092969 3.610761738488286
    endloop
  endfacet
  facet normal -0.7224416589127549 -0.5109876617188317 -0.4658000204363537
    outer loop
      vertex 4.07052405679246 0.011077751196825974 3.776332116694322
      vertex 3.960635378194479 0.48292979074018927 3.4291393214901267
      vertex 4.422364011164565 0.003901754302948547 3.2385111990387423
    endloop
  endfacet
  facet normal -0.6311505308168116 -0.6117347252643603 -0.4768958307171436
    outer loop
      vertex 4.07052405679246 0.011077751196825974 3.776332116694322
      vertex 3.7250297111759028 0.0003270375591740798 4.24736899731838
      vertex 3.5786541085369934 0.4607193358804012 3.8505256939525454
    endloop
  endfacet
  facet normal -0.5986756584182207 -0.5604786737061298 -0.5722334421703502
    outer loop
      vertex 3.5786541085369934 0.4607193358804012 3.8505256939525454
      vertex 3.960635378194479 0.48292979074018927 3.4291393214901267
      vertex 4.07052405679246 0.011077751196825974 3.776332116694322
    endloop
  endfacet
  facet normal -0.7438275722663624 -0.5988419298313631 -0.29683140974664085
    outer loop
      vertex 4.422364011164565 0.003901754302948547 3.2385111990387423
      vertex 3.960635378194479 0.48292979074018927 3.4291393214901267
      vertex 4.2122759256593625 0.49964937586242103 2.764824294002066
    endloop
  endfacet
  facet normal -0.47599448388045185 0.8003544566267394 -0.36450239378239874
    outer loop
      vertex 3.5786541085369934 0.4607193358804012 3.8505256939525454
      vertex 3.7508581082356103 0.7784599771039765 4.323326386720878
      vertex 4.103128832601575 0.7895933588572904 3.8877510033066325
    endloop
  endfacet
  facet normal -0.4706017242859639 0.7940452047578987 -0.3847417704123955
    outer loop
      vertex 4.103128832601575 0.7895933588572904 3.8877510033066325
      vertex 3.960635378194479 0.48292979074018927 3.4291393214901267
      vertex 3.5786541085369934 0.4607193358804012 3.8505256939525454
    endloop
  endfacet
  facet normal -0.06438582134116563 0.8389633169050367 -0.5403656344531197
    outer loop
      vertex 3.070982345772882 0.7486736730954653 4.358089409698464
      vertex 3.7508581082356103 0.7784599771039765 4.323326386720878
      vertex 3.5786541085369934 0.4607193358804012 3.8505256939525454
    endloop
  endfacet
endsolid abc_50_042
