solid abc_50_043
  facet normal 0.0 0.0 -1.0
    outer loop
      vertex 3.6363636363636362 2.494171922976348 0.0
      vertex 3.455969923671797 3.1085364882667994 0.0
      vertex 4.035772213119963 2.9360341723836023 0.0
    endloop
  endfacet
  facet normal 0.0 0.0 -1.0
    outer loop
      vertex 3.4559699236717965 1.8798073576858965 0.0
      vertex 3.6363636363636362 2.494171922976348 0.0
      vertex 4.035772213119963 2.0523096735690936 0.0
    endloop
  endfacet
  facet normal 0.0 0.0 -1.0
    outer loop
      vertex 4.035772213119963 2.0523096735690936 0.0
      vertex 3.6363636363636362 2.494171922976348 0.0
      vertex 4.184069918266606 2.494171922976348 0.0
    endloop
  endfacet
  facet normal 0.0 0.0 -1.0
    outer loop
      vertex 3.6363636363636362 2.494171922976348 0.0
      vertex 4.035772213119963 2.9360341723836023 0.0
      vertex 4.184069918266606 2.494171922976348 0.0
    endloop
  endfacet
  facet normal 0.0 -0.0 -1.0
    outer loop
      vertex 4.907293218369498 3.1686638508689096 0.0
      vertex 5.0 2.494171922976348 0.0
      vertex 4.539984172168874 2.7753443825814257 0.0
    endloop
  endfacet
  facet normal 0.0 0.0 -1.0
    outer loop
      vertex 5.0 2.494171922976348 0.0
      vertex 4.907293218369498 1.8196799950837874 0.0
      vertex 4.541971211899723 2.213250562285854 0.0
    endloop
  endfacet
  facet normal -0.0 0.0 -1.0
    outer loop
      vertex 5.0 2.494171922976348 0.0
      vertex 4.541971211899723 2.213250562285854 0.0
      vertex 4.539984172168874 2.7753443825814257 0.0
    endloop
  endfacet
  facet normal 0.0 0.0 -1.0
    outer loop
      vertex 3.455969923671797 3.1085364882667994 0.0
      vertex 2.9720625147748723 3.527844644970118 0.0
      vertex 3.5599439306562393 3.6981183627339056 0.0
    endloop
  endfacet
  facet normal 0.0 0.0 -1.0
    outer loop
      vertex 3.455969923671797 3.1085364882667994 0.0
      vertex 3.5599439306562393 3.6981183627339056 0.0
      vertex 3.8714126163128695 3.3637700031035145 0.0
    endloop
  endfacet
  facet normal 0.0 0.0 -1.0
    outer loop
      vertex 4.035772213119963 2.9360341723836023 0.0
      vertex 3.455969923671797 3.1085364882667994 0.0
      vertex 3.8714126163128695 3.3637700031035145 0.0
    endloop
  endfacet
  facet normal 0.0 0.0 -1.0
    outer loop
      vertex 2.9720625147748723 3.527844644970118 0.0
      vertex 2.338278592871268 3.6189690160228625 0.0
      vertex 2.7322199079671856 4.1022354905482254 0.0
    endloop
  endfacet
  facet normal 0.0 0.0 -1.0
    outer loop
      vertex 2.9720625147748723 3.527844644970118 0.0
      vertex 2.7322199079671856 4.1022354905482254 0.0
      vertex 3.1799073587968194 3.958967961510414 0.0
    endloop
  endfacet
  facet normal -0.0 0.0 -1.0
    outer loop
      vertex 3.5599439306562393 3.6981183627339056 0.0
      vertex 2.9720625147748723 3.527844644970118 0.0
      vertex 3.1799073587968194 3.958967961510414 0.0
    endloop
  endfacet
  facet normal -0.0 0.0 -1.0
    outer loop
      vertex 2.338278592871268 3.6189690160228625 0.0
      vertex 1.7558400750621768 3.352978257469824 0.0
      vertex 1.7664534041652258 3.9594961883114674 0.0
    endloop
  endfacet
  facet normal 0.0 0.0 -1.0
    outer loop
      vertex 2.338278592871268 3.6189690160228625 0.0
      vertex 1.7664534041652258 3.9594961883114674 0.0
      vertex 2.126451202560279 4.3937142239949285 0.0
    endloop
  endfacet
  facet normal -0.0 0.0 -1.0
    outer loop
      vertex 2.7322199079671856 4.1022354905482254 0.0
      vertex 2.338278592871268 3.6189690160228625 0.0
      vertex 2.126451202560279 4.3937142239949285 0.0
    endloop
  endfacet
  facet normal 0.0 0.0 -1.0
    outer loop
      vertex 1.7558400750621768 3.352978257469824 0.0
      vertex 1.4096670754380713 2.8143225557507003 0.0
      vertex 1.1128147675181717 3.351909591559869 0.0
    endloop
  endfacet
  facet normal -0.0 0.0 -1.0
    outer loop
      vertex 1.7558400750621768 3.352978257469824 0.0
      vertex 1.1128147675181717 3.351909591559869 0.0
      vertex 1.1855602143403372 3.9131017281948397 0.0
    endloop
  endfacet
  facet normal 0.0 0.0 -1.0
    outer loop
      vertex 1.7664534041652258 3.9594961883114674 0.0
      vertex 1.7558400750621768 3.352978257469824 0.0
      vertex 1.1855602143403372 3.9131017281948397 0.0
    endloop
  endfacet
  facet normal 0.0 0.0 -1.0
    outer loop
      vertex 1.4096670754380713 2.8143225557507003 0.0
      vertex 1.409667075438071 2.1740212902019964 0.0
      vertex 0.8732638038250573 2.4941719229763453 0.0
    endloop
  endfacet
  facet normal -0.0 0.0 -1.0
    outer loop
      vertex 1.4096670754380713 2.8143225557507003 0.0
      vertex 0.8732638038250573 2.4941719229763453 0.0
      vertex 0.6453856542178479 3.0166233931220603 0.0
    endloop
  endfacet
  facet normal 0.0 -0.0 -1.0
    outer loop
      vertex 1.1128147675181717 3.351909591559869 0.0
      vertex 1.4096670754380713 2.8143225557507003 0.0
      vertex 0.6453856542178479 3.0166233931220603 0.0
    endloop
  endfacet
  facet normal 0.0 -0.0 -1.0
    outer loop
      vertex 1.409667075438071 2.1740212902019964 0.0
      vertex 1.7558400750621759 1.635365588482873 0.0
      vertex 1.1128147675181763 1.6364342543928225 0.0
    endloop
  endfacet
  facet normal 0.0 -0.0 -1.0
    outer loop
      vertex 0.8732638038250573 2.4941719229763453 0.0
      vertex 1.409667075438071 2.1740212902019964 0.0
      vertex 0.6453856542178519 1.9717204528306271 0.0
    endloop
  endfacet
  facet normal 0.0 0.0 -1.0
    outer loop
      vertex 1.409667075438071 2.1740212902019964 0.0
      vertex 1.1128147675181763 1.6364342543928225 0.0
      vertex 0.6453856542178519 1.9717204528306271 0.0
    endloop
  endfacet
  facet normal 0.0 0.0 -1.0
    outer loop
      vertex 1.7558400750621759 1.635365588482873 0.0
      vertex 2.338278592871267 1.3693748299298334 0.0
      vertex 1.7664534041652318 1.028847657641227 0.0
    endloop
  endfacet
  facet normal 0.0 0.0 -1.0
    outer loop
      vertex 1.1128147675181763 1.6364342543928225 0.0
      vertex 1.7558400750621759 1.635365588482873 0.0
      vertex 1.185560214340345 1.0752421177578513 0.0
    endloop
  endfacet
  facet normal 0.0 -0.0 -1.0
    outer loop
      vertex 1.7558400750621759 1.635365588482873 0.0
      vertex 1.7664534041652318 1.028847657641227 0.0
      vertex 1.185560214340345 1.0752421177578513 0.0
    endloop
  endfacet
  facet normal 0.0 0.0 -1.0
    outer loop
      vertex 2.338278592871267 1.3693748299298334 0.0
      vertex 2.9720625147748705 1.4604992009825772 0.0
      vertex 2.7291631686487494 0.8928016808705367 0.0
    endloop
  endfacet
  facet normal 0.0 0.0 -1.0
    outer loop
      vertex 1.7664534041652318 1.028847657641227 0.0
      vertex 2.338278592871267 1.3693748299298334 0.0
      vertex 2.126139290384936 0.5953126143522646 0.0
    endloop
  endfacet
  facet normal 0.0 -0.0 -1.0
    outer loop
      vertex 2.338278592871267 1.3693748299298334 0.0
      vertex 2.7291631686487494 0.8928016808705367 0.0
      vertex 2.126139290384936 0.5953126143522646 0.0
    endloop
  endfacet
  facet normal 0.0 0.0 -1.0
    outer loop
      vertex 2.9720625147748705 1.4604992009825772 0.0
      vertex 3.4559699236717965 1.8798073576858965 0.0
      vertex 3.550879023714304 1.3106657552077825 0.0
    endloop
  endfacet
  facet normal 0.0 0.0 -1.0
    outer loop
      vertex 2.7291631686487494 0.8928016808705367 0.0
      vertex 2.9720625147748705 1.4604992009825772 0.0
      vertex 3.183757986936383 1.0438628237227858 0.0
    endloop
  endfacet
  facet normal 0.0 0.0 -1.0
    outer loop
      vertex 2.9720625147748705 1.4604992009825772 0.0
      vertex 3.550879023714304 1.3106657552077825 0.0
      vertex 3.183757986936383 1.0438628237227858 0.0
    endloop
  endfacet
  facet normal 0.0 0.0 -1.0
    outer loop
      vertex 3.550879023714304 1.3106657552077825 0.0
      vertex 3.4559699236717965 1.8798073576858965 0.0
      vertex 3.859331862604366 1.6277121972934894 0.0
    endloop
  endfacet
  facet normal 0.0 0.0 -1.0
    outer loop
      vertex 3.4559699236717965 1.8798073576858965 0.0
      vertex 4.035772213119963 2.0523096735690936 0.0
      vertex 3.859331862604366 1.6277121972934894 0.0
    endloop
  endfacet
  facet normal 0.0 -0.0 -1.0
    outer loop
      vertex 4.63604851136622 3.7931317980649335 0.0
      vertex 4.907293218369498 3.1686638508689096 0.0
      vertex 4.341640710547805 3.304267385406059 0.0
    endloop
  endfacet
  facet normal -0.0 0.0 -1.0
    outer loop
      vertex 4.907293218369498 3.1686638508689096 0.0
      vertex 4.539984172168874 2.7753443825814257 0.0
      vertex 4.341640710547805 3.304267385406059 0.0
    endloop
  endfacet
  facet normal 0.0 -0.0 -1.0
    outer loop
      vertex 4.2063828580466325 4.32126183367166 0.0
      vertex 4.63604851136622 3.7931317980649335 0.0
      vertex 4.084490697312791 3.793072341935747 0.0
    endloop
  endfacet
  facet normal 0.0 0.0 -1.0
    outer loop
      vertex 4.084490697312791 3.793072341935747 0.0
      vertex 4.63604851136622 3.7931317980649335 0.0
      vertex 4.341640710547805 3.304267385406059 0.0
    endloop
  endfacet
  facet normal 0.0 0.0 -1.0
    outer loop
      vertex 3.6501625943278766 4.7138849689822875 0.0
      vertex 4.2063828580466325 4.32126183367166 0.0
      vertex 3.6634073329033887 4.169704614923424 0.0
    endloop
  endfacet
  facet normal 0.0 0.0 -1.0
    outer loop
      vertex 4.2063828580466325 4.32126183367166 0.0
      vertex 4.084490697312791 3.793072341935747 0.0
      vertex 3.6634073329033887 4.169704614923424 0.0
    endloop
  endfacet
  facet normal 0.0 0.0 -1.0
    outer loop
      vertex 3.0086400326315794 4.9418821421821555 0.0
      vertex 3.6501625943278766 4.7138849689822875 0.0
      vertex 3.1867278736149136 4.426438970355447 0.0
    endloop
  endfacet
  facet normal 0.0 0.0 -1.0
    outer loop
      vertex 3.1867278736149136 4.426438970355447 0.0
      vertex 3.6501625943278766 4.7138849689822875 0.0
      vertex 3.6634073329033887 4.169704614923424 0.0
    endloop
  endfacet
  facet normal 0.0 0.0 -1.0
    outer loop
      vertex 2.329393966588315 4.988343845952695 0.0
      vertex 3.0086400326315794 4.9418821421821555 0.0
      vertex 2.6445929051281145 4.60804537176527 0.0
    endloop
  endfacet
  facet normal 0.0 -0.0 -1.0
    outer loop
      vertex 3.0086400326315794 4.9418821421821555 0.0
      vertex 3.1867278736149136 4.426438970355447 0.0
      vertex 2.6445929051281145 4.60804537176527 0.0
    endloop
  endfacet
  facet normal 0.0 0.0 -1.0
    outer loop
      vertex 1.6628009695725268 4.8498242282733965 0.0
      vertex 2.329393966588315 4.988343845952695 0.0
      vertex 2.126451202560279 4.3937142239949285 0.0
    endloop
  endfacet
  facet normal 0.0 0.0 -1.0
    outer loop
      vertex 2.126451202560279 4.3937142239949285 0.0
      vertex 2.329393966588315 4.988343845952695 0.0
      vertex 2.6445929051281145 4.60804537176527 0.0
    endloop
  endfacet
  facet normal 0.0 0.0 -1.0
    outer loop
      vertex 1.0582991947128242 4.536596655502447 0.0
      vertex 1.6628009695725268 4.8498242282733965 0.0
      vertex 1.535972728139189 4.362710075263243 0.0
    endloop
  endfacet
  facet normal 0.0 -0.0 -1.0
    outer loop
      vertex 1.6628009695725268 4.8498242282733965 0.0
      vertex 2.126451202560279 4.3937142239949285 0.0
      vertex 1.535972728139189 4.362710075263243 0.0
    endloop
  endfacet
  facet normal 0.0 0.0 -1.0
    outer loop
      vertex 0.5607217732389453 4.071891783791473 0.0
      vertex 1.0582991947128242 4.536596655502447 0.0
      vertex 1.1855602143403372 3.9131017281948397 0.0
    endloop
  endfacet
  facet normal 0.0 0.0 -1.0
    outer loop
      vertex 1.1855602143403372 3.9131017281948397 0.0
      vertex 1.0582991947128242 4.536596655502447 0.0
      vertex 1.535972728139189 4.362710075263243 0.0
    endloop
  endfacet
  facet normal 0.0 0.0 -1.0
    outer loop
      vertex 0.20697174623636425 3.490174647591944 0.0
      vertex 0.5607217732389453 4.071891783791473 0.0
      vertex 0.712184600840234 3.5842653685596786 0.0
    endloop
  endfacet
  facet normal 0.0 0.0 -1.0
    outer loop
      vertex 0.5607217732389453 4.071891783791473 0.0
      vertex 1.1855602143403372 3.9131017281948397 0.0
      vertex 0.712184600840234 3.5842653685596786 0.0
    endloop
  endfacet
  facet normal 0.0 0.0 -1.0
    outer loop
      vertex 0.023285134909171872 2.834588545716957 0.0
      vertex 0.20697174623636425 3.490174647591944 0.0
      vertex 0.6453856542178479 3.0166233931220603 0.0
    endloop
  endfacet
  facet normal 0.0 0.0 -1.0
    outer loop
      vertex 0.6453856542178479 3.0166233931220603 0.0
      vertex 0.20697174623636425 3.490174647591944 0.0
      vertex 0.712184600840234 3.5842653685596786 0.0
    endloop
  endfacet
  facet normal 0.0 0.0 -1.0
    outer loop
      vertex 0.02328513490917389 2.153755300235724 0.0
      vertex 0.023285134909171872 2.834588545716957 0.0
      vertex 0.4065832550484001 2.494171922976342 0.0
    endloop
  endfacet
  facet normal 0.0 0.0 -1.0
    outer loop
      vertex 0.023285134909171872 2.834588545716957 0.0
      vertex 0.6453856542178479 3.0166233931220603 0.0
      vertex 0.4065832550484001 2.494171922976342 0.0
    endloop
  endfacet
  facet normal 0.0 0.0 -1.0
    outer loop
      vertex 0.2069717462363699 1.498169198360739 0.0
      vertex 0.02328513490917389 2.153755300235724 0.0
      vertex 0.6453856542178519 1.9717204528306271 0.0
    endloop
  endfacet
  facet normal 0.0 0.0 -1.0
    outer loop
      vertex 0.6453856542178519 1.9717204528306271 0.0
      vertex 0.02328513490917389 2.153755300235724 0.0
      vertex 0.4065832550484001 2.494171922976342 0.0
    endloop
  endfacet
  facet normal 0.0 0.0 -1.0
    outer loop
      vertex 0.5607217732389534 0.9164520621612127 0.0
      vertex 0.2069717462363699 1.498169198360739 0.0
      vertex 0.7121846008402399 1.404078477393008 0.0
    endloop
  endfacet
  facet normal 0.0 0.0 -1.0
    outer loop
      vertex 0.2069717462363699 1.498169198360739 0.0
      vertex 0.6453856542178519 1.9717204528306271 0.0
      vertex 0.7121846008402399 1.404078477393008 0.0
    endloop
  endfacet
  facet normal 0.0 0.0 -1.0
    outer loop
      vertex 1.0582991947128355 0.45174719045024075 0.0
      vertex 0.5607217732389534 0.9164520621612127 0.0
      vertex 1.185560214340345 1.0752421177578513 0.0
    endloop
  endfacet
  facet normal -0.0 0.0 -1.0
    outer loop
      vertex 1.185560214340345 1.0752421177578513 0.0
      vertex 0.5607217732389534 0.9164520621612127 0.0
      vertex 0.7121846008402399 1.404078477393008 0.0
    endloop
  endfacet
  facet normal 0.0 0.0 -1.0
    outer loop
      vertex 1.662800969572538 0.13851961767929577 0.0
      vertex 1.0582991947128355 0.45174719045024075 0.0
      vertex 1.5359499940156305 0.6256835514762203 0.0
    endloop
  endfacet
  facet normal 0.0 0.0 -1.0
    outer loop
      vertex 1.0582991947128355 0.45174719045024075 0.0
      vertex 1.185560214340345 1.0752421177578513 0.0
      vertex 1.5359499940156305 0.6256835514762203 0.0
    endloop
  endfacet
  facet normal 0.0 0.0 -1.0
    outer loop
      vertex 2.329393966588326 0.0 0.0
      vertex 1.662800969572538 0.13851961767929577 0.0
      vertex 2.126139290384936 0.5953126143522646 0.0
    endloop
  endfacet
  facet normal -0.0 0.0 -1.0
    outer loop
      vertex 2.126139290384936 0.5953126143522646 0.0
      vertex 1.662800969572538 0.13851961767929577 0.0
      vertex 1.5359499940156305 0.6256835514762203 0.0
    endloop
  endfacet
  facet normal -0.0 0.0 -1.0
    outer loop
      vertex 3.0086400326315874 0.046461703770541506 0.0
      vertex 2.329393966588326 0.0 0.0
      vertex 2.656043328322576 0.3945104642496323 0.0
    endloop
  endfacet
  facet normal 0.0 0.0 -1.0
    outer loop
      vertex 2.329393966588326 0.0 0.0
      vertex 2.126139290384936 0.5953126143522646 0.0
      vertex 2.656043328322576 0.3945104642496323 0.0
    endloop
  endfacet
  facet normal -0.0 0.0 -1.0
    outer loop
      vertex 3.6501625943278806 0.27445887697040966 0.0
      vertex 3.0086400326315874 0.046461703770541506 0.0
      vertex 3.186727873614918 0.5619048755972544 0.0
    endloop
  endfacet
  facet normal 0.0 0.0 -1.0
    outer loop
      vertex 3.186727873614918 0.5619048755972544 0.0
      vertex 3.0086400326315874 0.046461703770541506 0.0
      vertex 2.656043328322576 0.3945104642496323 0.0
    endloop
  endfacet
  facet normal -0.0 0.0 -1.0
    outer loop
      vertex 4.206382858046635 0.667082012281038 0.0
      vertex 3.6501625943278806 0.27445887697040966 0.0
      vertex 3.659050395806701 0.8264613721677089 0.0
    endloop
  endfacet
  facet normal 0.0 0.0 -1.0
    outer loop
      vertex 3.6501625943278806 0.27445887697040966 0.0
      vertex 3.186727873614918 0.5619048755972544 0.0
      vertex 3.659050395806701 0.8264613721677089 0.0
    endloop
  endfacet
  facet normal -0.0 0.0 -1.0
    outer loop
      vertex 4.636048511366221 1.195212047887764 0.0
      vertex 4.206382858046635 0.667082012281038 0.0
      vertex 4.075297768553165 1.2003772647944275 0.0
    endloop
  endfacet
  facet normal 0.0 -0.0 -1.0
    outer loop
      vertex 4.075297768553165 1.2003772647944275 0.0
      vertex 4.206382858046635 0.667082012281038 0.0
      vertex 3.659050395806701 0.8264613721677089 0.0
    endloop
  endfacet
  facet normal 0.0 0.0 -1.0
    outer loop
      vertex 4.907293218369498 1.8196799950837874 0.0
      vertex 4.636048511366221 1.195212047887764 0.0
      vertex 4.364530040755155 1.677301618937706 0.0
    endloop
  endfacet
  facet normal 0.0 0.0 -1.0
    outer loop
      vertex 4.636048511366221 1.195212047887764 0.0
      vertex 4.075297768553165 1.2003772647944275 0.0
      vertex 4.364530040755155 1.677301618937706 0.0
    endloop
  endfacet
  facet normal 0.0 -0.0 -1.0
    outer loop
      vertex 4.541971211899723 2.213250562285854 0.0
      vertex 4.907293218369498 1.8196799950837874 0.0
      vertex 4.364530040755155 1.677301618937706 0.0
    endloop
  endfacet
  facet normal 0.0 0.0 -1.0
    outer loop
      vertex 0.8732638038250573 2.4941719229763453 0.0
      vertex 0.6453856542178519 1.9717204528306271 0.0
      vertex 0.4065832550484001 2.494171922976342 0.0
    endloop
  endfacet
  facet normal 0.0 -0.0 -1.0
    outer loop
      vertex 0.6453856542178479 3.0166233931220603 0.0
      vertex 0.8732638038250573 2.4941719229763453 0.0
      vertex 0.4065832550484001 2.494171922976342 0.0
    endloop
  endfacet
  facet normal 0.0 0.0 -1.0
    outer loop
      vertex 0.6453856542178519 1.9717204528306271 0.0
      vertex 1.1128147675181763 1.6364342543928225 0.0
      vertex 0.7121846008402399 1.404078477393008 0.0
    endloop
  endfacet
  facet normal 0.0 -0.0 -1.0
    outer loop
      vertex 1.1128147675181763 1.6364342543928225 0.0
      vertex 1.185560214340345 1.0752421177578513 0.0
      vertex 0.7121846008402399 1.404078477393008 0.0
    endloop
  endfacet
  facet normal -0.0 0.0 -1.0
    outer loop
      vertex 1.1128147675181717 3.351909591559869 0.0
      vertex 0.6453856542178479 3.0166233931220603 0.0
      vertex 0.712184600840234 3.5842653685596786 0.0
    endloop
  endfacet
  facet normal 0.0 0.0 -1.0
    outer loop
      vertex 1.1855602143403372 3.9131017281948397 0.0
      vertex 1.1128147675181717 3.351909591559869 0.0
      vertex 0.712184600840234 3.5842653685596786 0.0
    endloop
  endfacet
  facet normal 0.0 0.0 -1.0
    outer loop
      vertex 1.185560214340345 1.0752421177578513 0.0
      vertex 1.7664534041652318 1.028847657641227 0.0
      vertex 1.5359499940156305 0.6256835514762203 0.0
    endloop
  endfacet
  facet normal 0.0 -0.0 -1.0
    outer loop
      vertex 1.7664534041652318 1.028847657641227 0.0
      vertex 2.126139290384936 0.5953126143522646 0.0
      vertex 1.5359499940156305 0.6256835514762203 0.0
    endloop
  endfacet
  facet normal -0.0 0.0 -1.0
    outer loop
      vertex 1.7664534041652258 3.9594961883114674 0.0
      vertex 1.1855602143403372 3.9131017281948397 0.0
      vertex 1.535972728139189 4.362710075263243 0.0
    endloop
  endfacet
  facet normal 0.0 0.0 -1.0
    outer loop
      vertex 2.126451202560279 4.3937142239949285 0.0
      vertex 1.7664534041652258 3.9594961883114674 0.0
      vertex 1.535972728139189 4.362710075263243 0.0
    endloop
  endfacet
  facet normal 0.0 0.0 -1.0
    outer loop
      vertex 2.126139290384936 0.5953126143522646 0.0
      vertex 2.7291631686487494 0.8928016808705367 0.0
      vertex 2.656043328322576 0.3945104642496323 0.0
    endloop
  endfacet
  facet normal 0.0 -0.0 -1.0
    outer loop
      vertex 2.7291631686487494 0.8928016808705367 0.0
      vertex 3.186727873614918 0.5619048755972544 0.0
      vertex 2.656043328322576 0.3945104642496323 0.0
    endloop
  endfacet
  facet normal 0.0 0.0 -1.0
    outer loop
      vertex 3.186727873614918 0.5619048755972544 0.0
      vertex 2.7291631686487494 0.8928016808705367 0.0
      vertex 3.183757986936383 1.0438628237227858 0.0
    endloop
  endfacet
  facet normal 0.0 0.0 -1.0
    outer loop
      vertex 2.7322199079671856 4.1022354905482254 0.0
      vertex 2.126451202560279 4.3937142239949285 0.0
      vertex 2.6445929051281145 4.60804537176527 0.0
    endloop
  endfacet
  facet normal -0.0 0.0 -1.0
    outer loop
      vertex 3.1867278736149136 4.426438970355447 0.0
      vertex 2.7322199079671856 4.1022354905482254 0.0
      vertex 2.6445929051281145 4.60804537176527 0.0
    endloop
  endfacet
  facet normal 0.0 0.0 -1.0
    outer loop
      vertex 2.7322199079671856 4.1022354905482254 0.0
      vertex 3.1867278736149136 4.426438970355447 0.0
      vertex 3.1799073587968194 3.958967961510414 0.0
    endloop
  endfacet
  facet normal 0.0 0.0 -1.0
    outer loop
      vertex 3.550879023714304 1.3106657552077825 0.0
      vertex 4.075297768553165 1.2003772647944275 0.0
      vertex 3.659050395806701 0.8264613721677089 0.0
    endloop
  endfacet
  facet normal 0.0 0.0 -1.0
    outer loop
      vertex 4.075297768553165 1.2003772647944275 0.0
      vertex 3.550879023714304 1.3106657552077825 0.0
      vertex 3.859331862604366 1.6277121972934894 0.0
    endloop
  endfacet
  facet normal 0.0 -0.0 -1.0
    outer loop
      vertex 3.550879023714304 1.3106657552077825 0.0
      vertex 3.659050395806701 0.8264613721677089 0.0
      vertex 3.183757986936383 1.0438628237227858 0.0
    endloop
  endfacet
  facet normal -0.0 0.0 -1.0
    outer loop
      vertex 4.084490697312791 3.793072341935747 0.0
      vertex 3.5599439306562393 3.6981183627339056 0.0
      vertex 3.6634073329033887 4.169704614923424 0.0
    endloop
  endfacet
  facet normal 0.0 0.0 -1.0
    outer loop
      vertex 3.5599439306562393 3.6981183627339056 0.0
      vertex 4.084490697312791 3.793072341935747 0.0
      vertex 3.8714126163128695 3.3637700031035145 0.0
    endloop
  endfacet
  facet normal 0.0 0.0 -1.0
    outer loop
      vertex 3.6634073329033887 4.169704614923424 0.0
      vertex 3.5599439306562393 3.6981183627339056 0.0
      vertex 3.1799073587968194 3.958967961510414 0.0
    endloop
  endfacet
  facet normal 0.0 0.0 -1.0
    outer loop
      vertex 4.035772213119963 2.0523096735690936 0.0
      vertex 4.541971211899723 2.213250562285854 0.0
      vertex 4.364530040755155 1.677301618937706 0.0
    endloop
  endfacet
  facet normal -0.0 0.0 -1.0
    outer loop
      vertex 4.541971211899723 2.213250562285854 0.0
      vertex 4.035772213119963 2.0523096735690936 0.0
      vertex 4.184069918266606 2.494171922976348 0.0
    endloop
  endfacet
  facet normal 0.0 -0.0 -1.0
    outer loop
      vertex 4.035772213119963 2.0523096735690936 0.0
      vertex 4.364530040755155 1.677301618937706 0.0
      vertex 3.859331862604366 1.6277121972934894 0.0
    endloop
  endfacet
  facet normal 0.0 0.0 -1.0
    outer loop
      vertex 4.539984172168874 2.7753443825814257 0.0
      vertex 4.035772213119963 2.9360341723836023 0.0
      vertex 4.341640710547805 3.304267385406059 0.0
    endloop
  endfacet
  facet normal 0.0 0.0 -1.0
    outer loop
      vertex 4.035772213119963 2.9360341723836023 0.0
      vertex 4.539984172168874 2.7753443825814257 0.0
      vertex 4.184069918266606 2.494171922976348 0.0
    endloop
  endfacet
  facet normal -0.0 0.0 -1.0
    outer loop
      vertex 4.341640710547805 3.304267385406059 0.0
      vertex 4.035772213119963 2.9360341723836023 0.0
      vertex 3.8714126163128695 3.3637700031035145 0.0
    endloop
  endfacet
  facet normal -0.0 0.0 -1.0
    outer loop
      vertex 3.659050395806701 0.8264613721677089 0.0
      vertex 3.186727873614918 0.5619048755972544 0.0
      vertex 3.183757986936383 1.0438628237227858 0.0
    endloop
  endfacet
  facet normal 0.0 -0.0 -1.0
    outer loop
      vertex 3.1867278736149136 4.426438970355447 0.0
      vertex 3.6634073329033887 4.169704614923424 0.0
      vertex 3.1799073587968194 3.958967961510414 0.0
    endloop
  endfacet
  facet normal 0.0 0.0 -1.0
    outer loop
      vertex 4.364530040755155 1.677301618937706 0.0
      vertex 4.075297768553165 1.2003772647944275 0.0
      vertex 3.859331862604366 1.6277121972934894 0.0
    endloop
  endfacet
  facet normal 0.0 -0.0 -1.0
    outer loop
      vertex 4.084490697312791 3.793072341935747 0.0
      vertex 4.341640710547805 3.304267385406059 0.0
      vertex 3.8714126163128695 3.3637700031035145 0.0
    endloop
  endfacet
  facet normal 0.0 -0.0 -1.0
    outer loop
      vertex 4.539984172168874 2.7753443825814257 0.0
      vertex 4.541971211899723 2.213250562285854 0.0
      vertex 4.184069918266606 2.494171922976348 0.0
    endloop
  endfacet
  facet normal 0.0 -0.0 1.0
    outer loop
      vertex 3.6363636363636362 2.494171922976348 0.3463636363636364
      vertex 4.035772213119963 2.9360341723836023 0.3463636363636364
      vertex 3.455969923671797 3.1085364882667994 0.3463636363636364
    endloop
  endfacet
  facet normal 0.0 0.0 1.0
    outer loop
      vertex 3.4559699236717965 1.8798073576858965 0.3463636363636364
      vertex 4.035772213119963 2.0523096735690936 0.3463636363636364
      vertex 3.6363636363636362 2.494171922976348 0.3463636363636364
    endloop
  endfacet
  facet normal 0.0 -0.0 1.0
    outer loop
      vertex 4.035772213119963 2.0523096735690936 0.3463636363636364
      vertex 4.184069918266606 2.494171922976348 0.3463636363636364
      vertex 3.6363636363636362 2.494171922976348 0.3463636363636364
    endloop
  endfacet
  facet normal 0.0 0.0 1.0
    outer loop
      vertex 3.6363636363636362 2.494171922976348 0.3463636363636364
      vertex 4.184069918266606 2.494171922976348 0.3463636363636364
      vertex 4.035772213119963 2.9360341723836023 0.3463636363636364
    endloop
  endfacet
  facet normal 0.0 0.0 1.0
    outer loop
      vertex 4.907293218369498 3.1686638508689096 0.3463636363636364
      vertex 4.539984172168874 2.7753443825814257 0.3463636363636364
      vertex 5.0 2.494171922976348 0.3463636363636364
    endloop
  endfacet
  facet normal 0.0 0.0 1.0
    outer loop
      vertex 5.0 2.494171922976348 0.3463636363636364
      vertex 4.541971211899723 2.213250562285854 0.3463636363636364
      vertex 4.907293218369498 1.8196799950837874 0.3463636363636364
    endloop
  endfacet
  facet normal 0.0 0.0 1.0
    outer loop
      vertex 5.0 2.494171922976348 0.3463636363636364
      vertex 4.539984172168874 2.7753443825814257 0.3463636363636364
      vertex 4.541971211899723 2.213250562285854 0.3463636363636364
    endloop
  endfacet
  facet normal 0.0 -0.0 1.0
    outer loop
      vertex 3.455969923671797 3.1085364882667994 0.3463636363636364
      vertex 3.5599439306562393 3.6981183627339056 0.3463636363636364
      vertex 2.9720625147748723 3.527844644970118 0.3463636363636364
    endloop
  endfacet
  facet normal 0.0 0.0 1.0
    outer loop
      vertex 3.455969923671797 3.1085364882667994 0.3463636363636364
      vertex 3.8714126163128695 3.3637700031035145 0.3463636363636364
      vertex 3.5599439306562393 3.6981183627339056 0.3463636363636364
    endloop
  endfacet
  facet normal 0.0 0.0 1.0
    outer loop
      vertex 4.035772213119963 2.9360341723836023 0.3463636363636364
      vertex 3.8714126163128695 3.3637700031035145 0.3463636363636364
      vertex 3.455969923671797 3.1085364882667994 0.3463636363636364
    endloop
  endfacet
  facet normal 0.0 0.0 1.0
    outer loop
      vertex 2.9720625147748723 3.527844644970118 0.3463636363636364
      vertex 2.7322199079671856 4.1022354905482254 0.3463636363636364
      vertex 2.338278592871268 3.6189690160228625 0.3463636363636364
    endloop
  endfacet
  facet normal 0.0 -0.0 1.0
    outer loop
      vertex 2.9720625147748723 3.527844644970118 0.3463636363636364
      vertex 3.1799073587968194 3.958967961510414 0.3463636363636364
      vertex 2.7322199079671856 4.1022354905482254 0.3463636363636364
    endloop
  endfacet
  facet normal 0.0 0.0 1.0
    outer loop
      vertex 3.5599439306562393 3.6981183627339056 0.3463636363636364
      vertex 3.1799073587968194 3.958967961510414 0.3463636363636364
      vertex 2.9720625147748723 3.527844644970118 0.3463636363636364
    endloop
  endfacet
  facet normal 0.0 0.0 1.0
    outer loop
      vertex 2.338278592871268 3.6189690160228625 0.3463636363636364
      vertex 1.7664534041652258 3.9594961883114674 0.3463636363636364
      vertex 1.7558400750621768 3.352978257469824 0.3463636363636364
    endloop
  endfacet
  facet normal 0.0 0.0 1.0
    outer loop
      vertex 2.338278592871268 3.6189690160228625 0.3463636363636364
      vertex 2.126451202560279 4.3937142239949285 0.3463636363636364
      vertex 1.7664534041652258 3.9594961883114674 0.3463636363636364
    endloop
  endfacet
  facet normal 0.0 0.0 1.0
    outer loop
      vertex 2.7322199079671856 4.1022354905482254 0.3463636363636364
      vertex 2.126451202560279 4.3937142239949285 0.3463636363636364
      vertex 2.338278592871268 3.6189690160228625 0.3463636363636364
    endloop
  endfacet
  facet normal 0.0 0.0 1.0
    outer loop
      vertex 1.7558400750621768 3.352978257469824 0.3463636363636364
      vertex 1.1128147675181717 3.351909591559869 0.3463636363636364
      vertex 1.4096670754380713 2.8143225557507003 0.3463636363636364
    endloop
  endfacet
  facet normal 0.0 0.0 1.0
    outer loop
      vertex 1.7558400750621768 3.352978257469824 0.3463636363636364
      vertex 1.1855602143403372 3.9131017281948397 0.3463636363636364
      vertex 1.1128147675181717 3.351909591559869 0.3463636363636364
    endloop
  endfacet
  facet normal 0.0 0.0 1.0
    outer loop
      vertex 1.7664534041652258 3.9594961883114674 0.3463636363636364
      vertex 1.1855602143403372 3.9131017281948397 0.3463636363636364
      vertex 1.7558400750621768 3.352978257469824 0.3463636363636364
    endloop
  endfacet
  facet normal 0.0 0.0 1.0
    outer loop
      vertex 1.4096670754380713 2.8143225557507003 0.3463636363636364
      vertex 0.8732638038250573 2.4941719229763453 0.3463636363636364
      vertex 1.409667075438071 2.1740212902019964 0.3463636363636364
    endloop
  endfacet
  facet normal 0.0 0.0 1.0
    outer loop
      vertex 1.4096670754380713 2.8143225557507003 0.3463636363636364
      vertex 0.6453856542178479 3.0166233931220603 0.3463636363636364
      vertex 0.8732638038250573 2.4941719229763453 0.3463636363636364
    endloop
  endfacet
  facet normal 0.0 0.0 1.0
    outer loop
      vertex 1.1128147675181717 3.351909591559869 0.3463636363636364
      vertex 0.6453856542178479 3.0166233931220603 0.3463636363636364
      vertex 1.4096670754380713 2.8143225557507003 0.3463636363636364
    endloop
  endfacet
  facet normal 0.0 0.0 1.0
    outer loop
      vertex 1.409667075438071 2.1740212902019964 0.3463636363636364
      vertex 1.1128147675181763 1.6364342543928225 0.3463636363636364
      vertex 1.7558400750621759 1.635365588482873 0.3463636363636364
    endloop
  endfacet
  facet normal 0.0 0.0 1.0
    outer loop
      vertex 0.8732638038250573 2.4941719229763453 0.3463636363636364
      vertex 0.6453856542178519 1.9717204528306271 0.3463636363636364
      vertex 1.409667075438071 2.1740212902019964 0.3463636363636364
    endloop
  endfacet
  facet normal 0.0 0.0 1.0
    outer loop
      vertex 1.409667075438071 2.1740212902019964 0.3463636363636364
      vertex 0.6453856542178519 1.9717204528306271 0.3463636363636364
      vertex 1.1128147675181763 1.6364342543928225 0.3463636363636364
    endloop
  endfacet
  facet normal 0.0 0.0 1.0
    outer loop
      vertex 1.7558400750621759 1.635365588482873 0.3463636363636364
      vertex 1.7664534041652318 1.028847657641227 0.3463636363636364
      vertex 2.338278592871267 1.3693748299298334 0.3463636363636364
    endloop
  endfacet
  facet normal 0.0 0.0 1.0
    outer loop
      vertex 1.1128147675181763 1.6364342543928225 0.3463636363636364
      vertex 1.185560214340345 1.0752421177578513 0.3463636363636364
      vertex 1.7558400750621759 1.635365588482873 0.3463636363636364
    endloop
  endfacet
  facet normal 0.0 0.0 1.0
    outer loop
      vertex 1.7558400750621759 1.635365588482873 0.3463636363636364
      vertex 1.185560214340345 1.0752421177578513 0.3463636363636364
      vertex 1.7664534041652318 1.028847657641227 0.3463636363636364
    endloop
  endfacet
  facet normal -0.0 0.0 1.0
    outer loop
      vertex 2.338278592871267 1.3693748299298334 0.3463636363636364
      vertex 2.7291631686487494 0.8928016808705361 0.3463636363636364
      vertex 2.9720625147748705 1.4604992009825772 0.3463636363636364
    endloop
  endfacet
  facet normal -0.0 0.0 1.0
    outer loop
      vertex 1.7664534041652318 1.028847657641227 0.3463636363636364
      vertex 2.126139290384936 0.5953126143522646 0.3463636363636364
      vertex 2.338278592871267 1.3693748299298334 0.3463636363636364
    endloop
  endfacet
  facet normal 0.0 0.0 1.0
    outer loop
      vertex 2.338278592871267 1.3693748299298334 0.3463636363636364
      vertex 2.126139290384936 0.5953126143522646 0.3463636363636364
      vertex 2.7291631686487494 0.8928016808705361 0.3463636363636364
    endloop
  endfacet
  facet normal -0.0 0.0 1.0
    outer loop
      vertex 2.9720625147748705 1.4604992009825772 0.3463636363636364
      vertex 3.550879023714303 1.310665755207782 0.3463636363636364
      vertex 3.4559699236717965 1.8798073576858965 0.3463636363636364
    endloop
  endfacet
  facet normal 0.0 0.0 1.0
    outer loop
      vertex 2.7291631686487494 0.8928016808705361 0.3463636363636364
      vertex 3.183757986936383 1.0438628237227854 0.3463636363636364
      vertex 2.9720625147748705 1.4604992009825772 0.3463636363636364
    endloop
  endfacet
  facet normal 0.0 0.0 1.0
    outer loop
      vertex 2.9720625147748705 1.4604992009825772 0.3463636363636364
      vertex 3.183757986936383 1.0438628237227854 0.3463636363636364
      vertex 3.550879023714303 1.310665755207782 0.3463636363636364
    endloop
  endfacet
  facet normal 0.0 -0.0 1.0
    outer loop
      vertex 3.550879023714303 1.310665755207782 0.3463636363636364
      vertex 3.859331862604366 1.6277121972934894 0.3463636363636364
      vertex 3.4559699236717965 1.8798073576858965 0.3463636363636364
    endloop
  endfacet
  facet normal -0.0 0.0 1.0
    outer loop
      vertex 3.4559699236717965 1.8798073576858965 0.3463636363636364
      vertex 3.859331862604366 1.6277121972934894 0.3463636363636364
      vertex 4.035772213119963 2.0523096735690936 0.3463636363636364
    endloop
  endfacet
  facet normal 0.0 0.0 1.0
    outer loop
      vertex 4.63604851136622 3.7931317980649335 0.3463636363636364
      vertex 4.341640710547805 3.304267385406059 0.3463636363636364
      vertex 4.907293218369498 3.1686638508689096 0.3463636363636364
    endloop
  endfacet
  facet normal 0.0 0.0 1.0
    outer loop
      vertex 4.907293218369498 3.1686638508689096 0.3463636363636364
      vertex 4.341640710547805 3.304267385406059 0.3463636363636364
      vertex 4.539984172168874 2.7753443825814257 0.3463636363636364
    endloop
  endfacet
  facet normal 0.0 0.0 1.0
    outer loop
      vertex 4.2063828580466325 4.32126183367166 0.3463636363636364
      vertex 4.084490697312791 3.793072341935747 0.3463636363636364
      vertex 4.63604851136622 3.7931317980649335 0.3463636363636364
    endloop
  endfacet
  facet normal -0.0 0.0 1.0
    outer loop
      vertex 4.084490697312791 3.793072341935747 0.3463636363636364
      vertex 4.341640710547805 3.304267385406059 0.3463636363636364
      vertex 4.63604851136622 3.7931317980649335 0.3463636363636364
    endloop
  endfacet
  facet normal 0.0 0.0 1.0
    outer loop
      vertex 3.6501625943278766 4.7138849689822875 0.3463636363636364
      vertex 3.6634073329033887 4.169704614923424 0.3463636363636364
      vertex 4.2063828580466325 4.32126183367166 0.3463636363636364
    endloop
  endfacet
  facet normal 0.0 0.0 1.0
    outer loop
      vertex 4.2063828580466325 4.32126183367166 0.3463636363636364
      vertex 3.6634073329033887 4.169704614923424 0.3463636363636364
      vertex 4.084490697312791 3.793072341935747 0.3463636363636364
    endloop
  endfacet
  facet normal 0.0 0.0 1.0
    outer loop
      vertex 3.0086400326315794 4.9418821421821555 0.3463636363636364
      vertex 3.1867278736149136 4.426438970355447 0.3463636363636364
      vertex 3.6501625943278766 4.7138849689822875 0.3463636363636364
    endloop
  endfacet
  facet normal -0.0 0.0 1.0
    outer loop
      vertex 3.1867278736149136 4.426438970355447 0.3463636363636364
      vertex 3.6634073329033887 4.169704614923424 0.3463636363636364
      vertex 3.6501625943278766 4.7138849689822875 0.3463636363636364
    endloop
  endfacet
  facet normal 0.0 0.0 1.0
    outer loop
      vertex 2.329393966588315 4.988343845952695 0.3463636363636364
      vertex 2.6445929051281145 4.60804537176527 0.3463636363636364
      vertex 3.0086400326315794 4.9418821421821555 0.3463636363636364
    endloop
  endfacet
  facet normal 0.0 0.0 1.0
    outer loop
      vertex 3.0086400326315794 4.9418821421821555 0.3463636363636364
      vertex 2.6445929051281145 4.60804537176527 0.3463636363636364
      vertex 3.1867278736149136 4.426438970355447 0.3463636363636364
    endloop
  endfacet
  facet normal -0.0 0.0 1.0
    outer loop
      vertex 1.6628009695725268 4.8498242282733965 0.3463636363636364
      vertex 2.126451202560279 4.3937142239949285 0.3463636363636364
      vertex 2.329393966588315 4.988343845952695 0.3463636363636364
    endloop
  endfacet
  facet normal 0.0 0.0 1.0
    outer loop
      vertex 2.126451202560279 4.3937142239949285 0.3463636363636364
      vertex 2.6445929051281145 4.60804537176527 0.3463636363636364
      vertex 2.329393966588315 4.988343845952695 0.3463636363636364
    endloop
  endfacet
  facet normal -0.0 0.0 1.0
    outer loop
      vertex 1.0582991947128242 4.536596655502447 0.3463636363636364
      vertex 1.535972728139189 4.362710075263243 0.3463636363636364
      vertex 1.6628009695725268 4.8498242282733965 0.3463636363636364
    endloop
  endfacet
  facet normal 0.0 0.0 1.0
    outer loop
      vertex 1.6628009695725268 4.8498242282733965 0.3463636363636364
      vertex 1.535972728139189 4.362710075263243 0.3463636363636364
      vertex 2.126451202560279 4.3937142239949285 0.3463636363636364
    endloop
  endfacet
  facet normal -0.0 0.0 1.0
    outer loop
      vertex 0.5607217732389453 4.071891783791473 0.3463636363636364
      vertex 1.1855602143403372 3.9131017281948397 0.3463636363636364
      vertex 1.0582991947128242 4.536596655502447 0.3463636363636364
    endloop
  endfacet
  facet normal 0.0 -0.0 1.0
    outer loop
      vertex 1.1855602143403372 3.9131017281948397 0.3463636363636364
      vertex 1.535972728139189 4.362710075263243 0.3463636363636364
      vertex 1.0582991947128242 4.536596655502447 0.3463636363636364
    endloop
  endfacet
  facet normal 0.0 0.0 1.0
    outer loop
      vertex 0.20697174623636425 3.490174647591944 0.3463636363636364
      vertex 0.712184600840234 3.5842653685596786 0.3463636363636364
      vertex 0.5607217732389453 4.071891783791473 0.3463636363636364
    endloop
  endfacet
  facet normal 0.0 0.0 1.0
    outer loop
      vertex 0.5607217732389453 4.071891783791473 0.3463636363636364
      vertex 0.712184600840234 3.5842653685596786 0.3463636363636364
      vertex 1.1855602143403372 3.9131017281948397 0.3463636363636364
    endloop
  endfacet
  facet normal 0.0 0.0 1.0
    outer loop
      vertex 0.023285134909171872 2.834588545716957 0.3463636363636364
      vertex 0.6453856542178479 3.0166233931220603 0.3463636363636364
      vertex 0.20697174623636425 3.490174647591944 0.3463636363636364
    endloop
  endfacet
  facet normal 0.0 -0.0 1.0
    outer loop
      vertex 0.6453856542178479 3.0166233931220603 0.3463636363636364
      vertex 0.712184600840234 3.5842653685596786 0.3463636363636364
      vertex 0.20697174623636425 3.490174647591944 0.3463636363636364
    endloop
  endfacet
  facet normal 0.0 -0.0 1.0
    outer loop
      vertex 0.02328513490917389 2.153755300235724 0.3463636363636364
      vertex 0.4065832550484001 2.494171922976342 0.3463636363636364
      vertex 0.023285134909171872 2.834588545716957 0.3463636363636364
    endloop
  endfacet
  facet normal -0.0 0.0 1.0
    outer loop
      vertex 0.023285134909171872 2.834588545716957 0.3463636363636364
      vertex 0.4065832550484001 2.494171922976342 0.3463636363636364
      vertex 0.6453856542178479 3.0166233931220603 0.3463636363636364
    endloop
  endfacet
  facet normal 0.0 -0.0 1.0
    outer loop
      vertex 0.2069717462363699 1.498169198360739 0.3463636363636364
      vertex 0.6453856542178519 1.9717204528306271 0.3463636363636364
      vertex 0.02328513490917389 2.153755300235724 0.3463636363636364
    endloop
  endfacet
  facet normal 0.0 0.0 1.0
    outer loop
      vertex 0.6453856542178519 1.9717204528306271 0.3463636363636364
      vertex 0.4065832550484001 2.494171922976342 0.3463636363636364
      vertex 0.02328513490917389 2.153755300235724 0.3463636363636364
    endloop
  endfacet
  facet normal 0.0 -0.0 1.0
    outer loop
      vertex 0.5607217732389534 0.9164520621612127 0.3463636363636364
      vertex 0.7121846008402399 1.404078477393008 0.3463636363636364
      vertex 0.2069717462363699 1.498169198360739 0.3463636363636364
    endloop
  endfacet
  facet normal -0.0 0.0 1.0
    outer loop
      vertex 0.2069717462363699 1.498169198360739 0.3463636363636364
      vertex 0.7121846008402399 1.404078477393008 0.3463636363636364
      vertex 0.6453856542178519 1.9717204528306271 0.3463636363636364
    endloop
  endfacet
  facet normal 0.0 -0.0 1.0
    outer loop
      vertex 1.0582991947128355 0.45174719045024075 0.3463636363636364
      vertex 1.185560214340345 1.0752421177578513 0.3463636363636364
      vertex 0.5607217732389534 0.9164520621612127 0.3463636363636364
    endloop
  endfacet
  facet normal 0.0 0.0 1.0
    outer loop
      vertex 1.185560214340345 1.0752421177578513 0.3463636363636364
      vertex 0.7121846008402399 1.404078477393008 0.3463636363636364
      vertex 0.5607217732389534 0.9164520621612127 0.3463636363636364
    endloop
  endfacet
  facet normal 0.0 0.0 1.0
    outer loop
      vertex 1.662800969572538 0.13851961767929577 0.3463636363636364
      vertex 1.5359499940156305 0.6256835514762203 0.3463636363636364
      vertex 1.0582991947128355 0.45174719045024075 0.3463636363636364
    endloop
  endfacet
  facet normal 0.0 0.0 1.0
    outer loop
      vertex 1.0582991947128355 0.45174719045024075 0.3463636363636364
      vertex 1.5359499940156305 0.6256835514762203 0.3463636363636364
      vertex 1.185560214340345 1.0752421177578513 0.3463636363636364
    endloop
  endfacet
  facet normal 0.0 0.0 1.0
    outer loop
      vertex 2.329393966588326 0.0 0.3463636363636364
      vertex 2.126139290384936 0.5953126143522646 0.3463636363636364
      vertex 1.662800969572538 0.13851961767929577 0.3463636363636364
    endloop
  endfacet
  facet normal 0.0 0.0 1.0
    outer loop
      vertex 2.126139290384936 0.5953126143522646 0.3463636363636364
      vertex 1.5359499940156305 0.6256835514762203 0.3463636363636364
      vertex 1.662800969572538 0.13851961767929577 0.3463636363636364
    endloop
  endfacet
  facet normal 0.0 0.0 1.0
    outer loop
      vertex 3.0086400326315874 0.046461703770541506 0.3463636363636364
      vertex 2.656043328322576 0.3945104642496323 0.3463636363636364
      vertex 2.329393966588326 0.0 0.3463636363636364
    endloop
  endfacet
  facet normal 0.0 -0.0 1.0
    outer loop
      vertex 2.329393966588326 0.0 0.3463636363636364
      vertex 2.656043328322576 0.3945104642496323 0.3463636363636364
      vertex 2.126139290384936 0.5953126143522646 0.3463636363636364
    endloop
  endfacet
  facet normal 0.0 0.0 1.0
    outer loop
      vertex 3.6501625943278806 0.27445887697040966 0.3463636363636364
      vertex 3.186727873614918 0.5619048755972544 0.3463636363636364
      vertex 3.0086400326315874 0.046461703770541506 0.3463636363636364
    endloop
  endfacet
  facet normal 0.0 0.0 1.0
    outer loop
      vertex 3.186727873614918 0.5619048755972544 0.3463636363636364
      vertex 2.656043328322576 0.3945104642496323 0.3463636363636364
      vertex 3.0086400326315874 0.046461703770541506 0.3463636363636364
    endloop
  endfacet
  facet normal 0.0 0.0 1.0
    outer loop
      vertex 4.206382858046635 0.667082012281038 0.3463636363636364
      vertex 3.659050395806701 0.8264613721677089 0.3463636363636364
      vertex 3.6501625943278806 0.27445887697040966 0.3463636363636364
    endloop
  endfacet
  facet normal 0.0 -0.0 1.0
    outer loop
      vertex 3.6501625943278806 0.27445887697040966 0.3463636363636364
      vertex 3.659050395806701 0.8264613721677089 0.3463636363636364
      vertex 3.186727873614918 0.5619048755972544 0.3463636363636364
    endloop
  endfacet
  facet normal 0.0 0.0 1.0
    outer loop
      vertex 4.636048511366221 1.195212047887764 0.3463636363636364
      vertex 4.075297768553165 1.2003772647944275 0.3463636363636364
      vertex 4.206382858046635 0.667082012281038 0.3463636363636364
    endloop
  endfacet
  facet normal 0.0 0.0 1.0
    outer loop
      vertex 4.075297768553165 1.2003772647944275 0.3463636363636364
      vertex 3.659050395806701 0.8264613721677089 0.3463636363636364
      vertex 4.206382858046635 0.667082012281038 0.3463636363636364
    endloop
  endfacet
  facet normal 0.0 0.0 1.0
    outer loop
      vertex 4.907293218369498 1.8196799950837874 0.3463636363636364
      vertex 4.364530040755156 1.677301618937706 0.3463636363636364
      vertex 4.636048511366221 1.195212047887764 0.3463636363636364
    endloop
  endfacet
  facet normal 0.0 0.0 1.0
    outer loop
      vertex 4.636048511366221 1.195212047887764 0.3463636363636364
      vertex 4.364530040755156 1.677301618937706 0.3463636363636364
      vertex 4.075297768553165 1.2003772647944275 0.3463636363636364
    endloop
  endfacet
  facet normal 0.0 0.0 1.0
    outer loop
      vertex 4.541971211899723 2.213250562285854 0.3463636363636364
      vertex 4.364530040755156 1.677301618937706 0.3463636363636364
      vertex 4.907293218369498 1.8196799950837874 0.3463636363636364
    endloop
  endfacet
  facet normal 0.0 0.0 1.0
    outer loop
      vertex 0.8732638038250573 2.4941719229763453 0.3463636363636364
      vertex 0.4065832550484001 2.494171922976342 0.3463636363636364
      vertex 0.6453856542178519 1.9717204528306271 0.3463636363636364
    endloop
  endfacet
  facet normal 0.0 0.0 1.0
    outer loop
      vertex 0.6453856542178479 3.0166233931220603 0.3463636363636364
      vertex 0.4065832550484001 2.494171922976342 0.3463636363636364
      vertex 0.8732638038250573 2.4941719229763453 0.3463636363636364
    endloop
  endfacet
  facet normal 0.0 0.0 1.0
    outer loop
      vertex 0.6453856542178519 1.9717204528306271 0.3463636363636364
      vertex 0.7121846008402399 1.404078477393008 0.3463636363636364
      vertex 1.1128147675181763 1.6364342543928225 0.3463636363636364
    endloop
  endfacet
  facet normal 0.0 0.0 1.0
    outer loop
      vertex 1.1128147675181763 1.6364342543928225 0.3463636363636364
      vertex 0.7121846008402399 1.404078477393008 0.3463636363636364
      vertex 1.185560214340345 1.0752421177578513 0.3463636363636364
    endloop
  endfacet
  facet normal 0.0 0.0 1.0
    outer loop
      vertex 1.1128147675181717 3.351909591559869 0.3463636363636364
      vertex 0.712184600840234 3.5842653685596786 0.3463636363636364
      vertex 0.6453856542178479 3.0166233931220603 0.3463636363636364
    endloop
  endfacet
  facet normal 0.0 0.0 1.0
    outer loop
      vertex 1.1855602143403372 3.9131017281948397 0.3463636363636364
      vertex 0.712184600840234 3.5842653685596786 0.3463636363636364
      vertex 1.1128147675181717 3.351909591559869 0.3463636363636364
    endloop
  endfacet
  facet normal 0.0 0.0 1.0
    outer loop
      vertex 1.185560214340345 1.0752421177578513 0.3463636363636364
      vertex 1.5359499940156305 0.6256835514762203 0.3463636363636364
      vertex 1.7664534041652318 1.028847657641227 0.3463636363636364
    endloop
  endfacet
  facet normal 0.0 0.0 1.0
    outer loop
      vertex 1.7664534041652318 1.028847657641227 0.3463636363636364
      vertex 1.5359499940156305 0.6256835514762203 0.3463636363636364
      vertex 2.126139290384936 0.5953126143522646 0.3463636363636364
    endloop
  endfacet
  facet normal 0.0 0.0 1.0
    outer loop
      vertex 1.7664534041652258 3.9594961883114674 0.3463636363636364
      vertex 1.535972728139189 4.362710075263243 0.3463636363636364
      vertex 1.1855602143403372 3.9131017281948397 0.3463636363636364
    endloop
  endfacet
  facet normal 0.0 0.0 1.0
    outer loop
      vertex 2.126451202560279 4.3937142239949285 0.3463636363636364
      vertex 1.535972728139189 4.362710075263243 0.3463636363636364
      vertex 1.7664534041652258 3.9594961883114674 0.3463636363636364
    endloop
  endfacet
  facet normal -0.0 0.0 1.0
    outer loop
      vertex 2.126139290384936 0.5953126143522646 0.3463636363636364
      vertex 2.656043328322576 0.3945104642496323 0.3463636363636364
      vertex 2.7291631686487494 0.8928016808705361 0.3463636363636364
    endloop
  endfacet
  facet normal 0.0 0.0 1.0
    outer loop
      vertex 2.7291631686487494 0.8928016808705361 0.3463636363636364
      vertex 2.656043328322576 0.3945104642496323 0.3463636363636364
      vertex 3.186727873614918 0.5619048755972544 0.3463636363636364
    endloop
  endfacet
  facet normal 0.0 0.0 1.0
    outer loop
      vertex 3.186727873614918 0.5619048755972544 0.3463636363636364
      vertex 3.183757986936383 1.0438628237227854 0.3463636363636364
      vertex 2.7291631686487494 0.8928016808705361 0.3463636363636364
    endloop
  endfacet
  facet normal 0.0 0.0 1.0
    outer loop
      vertex 2.7322199079671856 4.1022354905482254 0.3463636363636364
      vertex 2.6445929051281145 4.60804537176527 0.3463636363636364
      vertex 2.126451202560279 4.3937142239949285 0.3463636363636364
    endloop
  endfacet
  facet normal 0.0 0.0 1.0
    outer loop
      vertex 3.1867278736149136 4.426438970355447 0.3463636363636364
      vertex 2.6445929051281145 4.60804537176527 0.3463636363636364
      vertex 2.7322199079671856 4.1022354905482254 0.3463636363636364
    endloop
  endfacet
  facet normal -0.0 0.0 1.0
    outer loop
      vertex 2.7322199079671856 4.1022354905482254 0.3463636363636364
      vertex 3.1799073587968194 3.958967961510414 0.3463636363636364
      vertex 3.1867278736149136 4.426438970355447 0.3463636363636364
    endloop
  endfacet
  facet normal 0.0 0.0 1.0
    outer loop
      vertex 3.550879023714303 1.310665755207782 0.3463636363636364
      vertex 3.659050395806701 0.8264613721677089 0.3463636363636364
      vertex 4.075297768553165 1.2003772647944275 0.3463636363636364
    endloop
  endfacet
  facet normal 0.0 0.0 1.0
    outer loop
      vertex 4.075297768553165 1.2003772647944275 0.3463636363636364
      vertex 3.859331862604366 1.6277121972934894 0.3463636363636364
      vertex 3.550879023714303 1.310665755207782 0.3463636363636364
    endloop
  endfacet
  facet normal 0.0 0.0 1.0
    outer loop
      vertex 3.550879023714303 1.310665755207782 0.3463636363636364
      vertex 3.183757986936383 1.0438628237227854 0.3463636363636364
      vertex 3.659050395806701 0.8264613721677089 0.3463636363636364
    endloop
  endfacet
  facet normal 0.0 0.0 1.0
    outer loop
      vertex 4.084490697312791 3.793072341935747 0.3463636363636364
      vertex 3.6634073329033887 4.169704614923424 0.3463636363636364
      vertex 3.5599439306562393 3.6981183627339056 0.3463636363636364
    endloop
  endfacet
  facet normal -0.0 0.0 1.0
    outer loop
      vertex 3.5599439306562393 3.6981183627339056 0.3463636363636364
      vertex 3.8714126163128695 3.3637700031035145 0.3463636363636364
      vertex 4.084490697312791 3.793072341935747 0.3463636363636364
    endloop
  endfacet
  facet normal 0.0 0.0 1.0
    outer loop
      vertex 3.6634073329033887 4.169704614923424 0.3463636363636364
      vertex 3.1799073587968194 3.958967961510414 0.3463636363636364
      vertex 3.5599439306562393 3.6981183627339056 0.3463636363636364
    endloop
  endfacet
  facet normal -0.0 0.0 1.0
    outer loop
      vertex 4.035772213119963 2.0523096735690936 0.3463636363636364
      vertex 4.364530040755156 1.677301618937706 0.3463636363636364
      vertex 4.541971211899723 2.213250562285854 0.3463636363636364
    endloop
  endfacet
  facet normal 0.0 0.0 1.0
    outer loop
      vertex 4.541971211899723 2.213250562285854 0.3463636363636364
      vertex 4.184069918266606 2.494171922976348 0.3463636363636364
      vertex 4.035772213119963 2.0523096735690936 0.3463636363636364
    endloop
  endfacet
  facet normal 0.0 0.0 1.0
    outer loop
      vertex 4.035772213119963 2.0523096735690936 0.3463636363636364
      vertex 3.859331862604366 1.6277121972934894 0.3463636363636364
      vertex 4.364530040755156 1.677301618937706 0.3463636363636364
    endloop
  endfacet
  facet normal 0.0 0.0 1.0
    outer loop
      vertex 4.539984172168874 2.7753443825814257 0.3463636363636364
      vertex 4.341640710547805 3.304267385406059 0.3463636363636364
      vertex 4.035772213119963 2.9360341723836023 0.3463636363636364
    endloop
  endfacet
  facet normal 0.0 0.0 1.0
    outer loop
      vertex 4.035772213119963 2.9360341723836023 0.3463636363636364
      vertex 4.184069918266606 2.494171922976348 0.3463636363636364
      vertex 4.539984172168874 2.7753443825814257 0.3463636363636364
    endloop
  endfacet
  facet normal 0.0 0.0 1.0
    outer loop
      vertex 4.341640710547805 3.304267385406059 0.3463636363636364
      vertex 3.8714126163128695 3.3637700031035145 0.3463636363636364
      vertex 4.035772213119963 2.9360341723836023 0.3463636363636364
    endloop
  endfacet
  facet normal 0.0 0.0 1.0
    outer loop
      vertex 3.659050395806701 0.8264613721677089 0.3463636363636364
      vertex 3.183757986936383 1.0438628237227854 0.3463636363636364
      vertex 3.186727873614918 0.5619048755972544 0.3463636363636364
    endloop
  endfacet
  facet normal 0.0 0.0 1.0
    outer loop
      vertex 3.1867278736149136 4.426438970355447 0.3463636363636364
      vertex 3.1799073587968194 3.958967961510414 0.3463636363636364
      vertex 3.6634073329033887 4.169704614923424 0.3463636363636364
    endloop
  endfacet
  facet normal 0.0 0.0 1.0
    outer loop
      vertex 4.364530040755156 1.677301618937706 0.3463636363636364
      vertex 3.859331862604366 1.6277121972934894 0.3463636363636364
      vertex 4.075297768553165 1.2003772647944275 0.3463636363636364
    endloop
  endfacet
  facet normal 0.0 0.0 1.0
    outer loop
      vertex 4.084490697312791 3.793072341935747 0.3463636363636364
      vertex 3.8714126163128695 3.3637700031035145 0.3463636363636364
      vertex 4.341640710547805 3.304267385406059 0.3463636363636364
    endloop
  endfacet
  facet normal 0.0 0.0 1.0
    outer loop
      vertex 4.539984172168874 2.7753443825814257 0.3463636363636364
      vertex 4.184069918266606 2.494171922976348 0.3463636363636364
      vertex 4.541971211899723 2.213250562285854 0.3463636363636364
    endloop
  endfacet
  facet normal -0.9273261029381882 -0.2722875114159428 0.25676021875747357
    outer loop
      vertex 3.455969923671797 3.1085364882667994 0.0
      vertex 3.6363636363636362 2.494171922976348 0.0
      vertex 3.592307369633187 2.8075198514753477 0.1731818181818182
    endloop
  endfacet
  facet normal -0.9276247643192228 0.2723752063098328 0.2555856874110564
    outer loop
      vertex 3.6363636363636362 2.494171922976348 0.0
      vertex 3.4559699236717965 1.8798073576858965 0.0
      vertex 3.5834170386824526 2.1513456778577287 0.1731818181818182
    endloop
  endfacet
  facet normal -0.9882831057041698 0.15263191992411285 3.9139321568869835e-16
    outer loop
      vertex 3.6363636363636362 2.4941719229763475 0.1731818181818182
      vertex 3.6363636363636362 2.494171922976348 0.0
      vertex 3.5834170386824526 2.1513456778577287 0.1731818181818182
    endloop
  endfacet
  facet normal -0.9902601893636855 -0.13922915413589795 -3.570245750820674e-16
    outer loop
      vertex 3.6363636363636362 2.494171922976348 0.0
      vertex 3.6363636363636362 2.4941719229763475 0.1731818181818182
      vertex 3.592307369633187 2.8075198514753477 0.1731818181818182
    endloop
  endfacet
  facet normal -0.9273261029381882 -0.2722875114159428 -0.25676021875747357
    outer loop
      vertex 3.6363636363636362 2.494171922976348 0.3463636363636364
      vertex 3.455969923671797 3.1085364882667994 0.3463636363636364
      vertex 3.592307369633187 2.8075198514753477 0.1731818181818182
    endloop
  endfacet
  facet normal -0.9276247643192228 0.2723752063098328 -0.2555856874110564
    outer loop
      vertex 3.4559699236717965 1.8798073576858965 0.3463636363636364
      vertex 3.6363636363636362 2.494171922976348 0.3463636363636364
      vertex 3.5834170386824526 2.1513456778577287 0.1731818181818182
    endloop
  endfacet
  facet normal -0.9882831057041698 0.15263191992411285 -3.9139321568869835e-16
    outer loop
      vertex 3.6363636363636362 2.494171922976348 0.3463636363636364
      vertex 3.6363636363636362 2.4941719229763475 0.1731818181818182
      vertex 3.5834170386824526 2.1513456778577287 0.1731818181818182
    endloop
  endfacet
  facet normal -0.9902601893636855 -0.13922915413589795 3.570245750820674e-16
    outer loop
      vertex 3.6363636363636362 2.4941719229763475 0.1731818181818182
      vertex 3.6363636363636362 2.494171922976348 0.3463636363636364
      vertex 3.592307369633187 2.8075198514753477 0.1731818181818182
    endloop
  endfacet
  facet normal -0.6322443677416189 -0.7296488963843226 0.2605370366457341
    outer loop
      vertex 2.9720625147748723 3.527844644970118 0.0
      vertex 3.455969923671797 3.1085364882667994 0.0
      vertex 3.244159924937825 3.3529782574698226 0.17057455235714772
    endloop
  endfacet
  facet normal -0.7557495743542589 -0.6548607339452843 0.0
    outer loop
      vertex 3.455969923671797 3.1085364882667994 0.0
      vertex 3.455969923671797 3.1085364882667994 0.3463636363636364
      vertex 3.244159924937825 3.3529782574698226 0.17057455235714772
    endloop
  endfacet
  facet normal -0.9109223081630422 -0.41257793020339273 -0.0
    outer loop
      vertex 3.455969923671797 3.1085364882667994 0.3463636363636364
      vertex 3.455969923671797 3.1085364882667994 0.0
      vertex 3.592307369633187 2.8075198514753477 0.1731818181818182
    endloop
  endfacet
  facet normal -0.13739983217845864 -0.9556368236172098 0.26053703664573574
    outer loop
      vertex 2.338278592871268 3.6189690160228625 0.0
      vertex 2.9720625147748723 3.527844644970118 0.0
      vertex 2.661721407128733 3.6189690160228625 0.17057455235714733
    endloop
  endfacet
  facet normal -0.2817325568414305 -0.9594929736144971 0.0
    outer loop
      vertex 2.9720625147748723 3.527844644970118 0.0
      vertex 2.9720625147748723 3.527844644970118 0.3463636363636364
      vertex 2.661721407128733 3.6189690160228625 0.17057455235714733
    endloop
  endfacet
  facet normal -0.5406408174555983 -0.8412535328311807 -0.0
    outer loop
      vertex 2.9720625147748723 3.527844644970118 0.3463636363636364
      vertex 2.9720625147748723 3.527844644970118 0.0
      vertex 3.244159924937825 3.3529782574698226 0.17057455235714772
    endloop
  endfacet
  facet normal 0.40106817928053956 -0.8782168115587707 0.2605370366457322
    outer loop
      vertex 1.7558400750621768 3.352978257469824 0.0
      vertex 2.338278592871268 3.6189690160228625 0.0
      vertex 2.0279374852251304 3.527844644970119 0.1705745523571482
    endloop
  endfacet
  facet normal 0.0 -1.0 0.0
    outer loop
      vertex 2.338278592871268 3.6189690160228625 0.3463636363636364
      vertex 2.338278592871268 3.6189690160228625 0.0
      vertex 2.661721407128733 3.6189690160228625 0.17057455235714733
    endloop
  endfacet
  facet normal 0.2817325568414294 -0.9594929736144975 0.0
    outer loop
      vertex 2.338278592871268 3.6189690160228625 0.0
      vertex 2.338278592871268 3.6189690160228625 0.3463636363636364
      vertex 2.0279374852251304 3.527844644970119 0.1705745523571482
    endloop
  endfacet
  facet normal 0.8121998776303053 -0.5219691670138915 0.2605370366457353
    outer loop
      vertex 1.4096670754380713 2.8143225557507003 0.0
      vertex 1.7558400750621768 3.352978257469824 0.0
      vertex 1.5440300763282035 3.1085364882668003 0.17057455235714736
    endloop
  endfacet
  facet normal 0.7557495743542578 -0.6548607339452855 0.0
    outer loop
      vertex 1.7558400750621768 3.352978257469824 0.0
      vertex 1.7558400750621768 3.352978257469824 0.3463636363636364
      vertex 1.5440300763282035 3.1085364882668003 0.17057455235714736
    endloop
  endfacet
  facet normal 0.5406408174555958 -0.8412535328311823 0.0
    outer loop
      vertex 1.7558400750621768 3.352978257469824 0.3463636363636364
      vertex 1.7558400750621768 3.352978257469824 0.0
      vertex 2.0279374852251304 3.527844644970119 0.1705745523571482
    endloop
  endfacet
  facet normal 0.9654638535625552 -6.696099210423613e-16 0.26053703664573535
    outer loop
      vertex 1.409667075438071 2.1740212902019964 0.0
      vertex 1.4096670754380713 2.8143225557507003 0.0
      vertex 1.3636363636363635 2.4941719229763484 0.17057455235714733
    endloop
  endfacet
  facet normal 0.9096319953545182 -0.4154150130018867 0.0
    outer loop
      vertex 1.4096670754380713 2.8143225557507003 0.3463636363636364
      vertex 1.4096670754380713 2.8143225557507003 0.0
      vertex 1.5440300763282035 3.1085364882668003 0.17057455235714736
    endloop
  endfacet
  facet normal 0.9898214418809326 -0.14231483827328603 0.0
    outer loop
      vertex 1.4096670754380713 2.8143225557507003 0.0
      vertex 1.4096670754380713 2.8143225557507003 0.3463636363636364
      vertex 1.3636363636363635 2.4941719229763484 0.17057455235714733
    endloop
  endfacet
  facet normal 0.8130249508427889 0.5224994093708613 0.25687506012492084
    outer loop
      vertex 1.7558400750621759 1.635365588482873 0.0
      vertex 1.409667075438071 2.1740212902019964 0.0
      vertex 1.5442036598707003 1.8795373402810498 0.1731818181818182
    endloop
  endfacet
  facet normal 0.9898214418809328 0.14231483827328467 0.0
    outer loop
      vertex 1.409667075438071 2.1740212902019964 0.3463636363636364
      vertex 1.409667075438071 2.1740212902019964 0.0
      vertex 1.3636363636363635 2.4941719229763484 0.17057455235714733
    endloop
  endfacet
  facet normal 0.9095733131661384 0.4155434850601968 -0.0
    outer loop
      vertex 1.409667075438071 2.1740212902019964 0.0
      vertex 1.409667075438071 2.1740212902019964 0.3463636363636364
      vertex 1.5442036598707003 1.8795373402810498 0.1731818181818182
    endloop
  endfacet
  facet normal 0.40186614742091553 0.8799641180571872 0.2533115680124137
    outer loop
      vertex 2.338278592871267 1.3693748299298334 0.0
      vertex 1.7558400750621759 1.635365588482873 0.0
      vertex 2.027937485225128 1.4604992009825775 0.17578908400648902
    endloop
  endfacet
  facet normal 0.5406408174555987 0.8412535328311804 -0.0
    outer loop
      vertex 1.7558400750621759 1.635365588482873 0.0
      vertex 1.7558400750621759 1.635365588482873 0.3463636363636364
      vertex 2.027937485225128 1.4604992009825775 0.17578908400648902
    endloop
  endfacet
  facet normal 0.7556570744453598 0.6549674692995675 0.0
    outer loop
      vertex 1.7558400750621759 1.635365588482873 0.3463636363636364
      vertex 1.7558400750621759 1.635365588482873 0.0
      vertex 1.5442036598707003 1.8795373402810498 0.1731818181818182
    endloop
  endfacet
  facet normal -0.13739983217845816 0.9556368236172099 0.26053703664573513
    outer loop
      vertex 2.9720625147748705 1.4604992009825772 0.0
      vertex 2.338278592871267 1.3693748299298334 0.0
      vertex 2.6617214071287325 1.3693748299298334 0.1705745523571474
    endloop
  endfacet
  facet normal 0.28173255684143017 0.9594929736144973 0.0
    outer loop
      vertex 2.338278592871267 1.3693748299298334 0.3463636363636364
      vertex 2.338278592871267 1.3693748299298334 0.0
      vertex 2.027937485225128 1.4604992009825775 0.17578908400648902
    endloop
  endfacet
  facet normal 0.0 1.0 0.0
    outer loop
      vertex 2.338278592871267 1.3693748299298334 0.0
      vertex 2.338278592871267 1.3693748299298334 0.3463636363636364
      vertex 2.6617214071287325 1.3693748299298334 0.1705745523571474
    endloop
  endfacet
  facet normal -0.632244367741618 0.7296488963843228 0.2605370366457356
    outer loop
      vertex 3.4559699236717965 1.8798073576858965 0.0
      vertex 2.9720625147748705 1.4604992009825772 0.0
      vertex 3.244159924937824 1.635365588482873 0.17057455235714714
    endloop
  endfacet
  facet normal -0.5406408174555976 0.8412535328311811 0.0
    outer loop
      vertex 2.9720625147748705 1.4604992009825772 0.0
      vertex 2.9720625147748705 1.4604992009825772 0.3463636363636364
      vertex 3.244159924937824 1.635365588482873 0.17057455235714714
    endloop
  endfacet
  facet normal -0.2817325568414302 0.9594929736144971 0.0
    outer loop
      vertex 2.9720625147748705 1.4604992009825772 0.3463636363636364
      vertex 2.9720625147748705 1.4604992009825772 0.0
      vertex 2.6617214071287325 1.3693748299298334 0.1705745523571474
    endloop
  endfacet
  facet normal -0.7557495743542586 0.6548607339452847 0.0
    outer loop
      vertex 3.4559699236717965 1.8798073576858965 0.3463636363636364
      vertex 3.4559699236717965 1.8798073576858965 0.0
      vertex 3.244159924937824 1.635365588482873 0.17057455235714714
    endloop
  endfacet
  facet normal -0.9052493148092272 0.42488078096970294 0.0
    outer loop
      vertex 3.4559699236717965 1.8798073576858965 0.0
      vertex 3.4559699236717965 1.8798073576858965 0.3463636363636364
      vertex 3.5834170386824526 2.1513456778577287 0.1731818181818182
    endloop
  endfacet
  facet normal -0.6335022856928617 -0.7311006110878396 -0.2533115680124131
    outer loop
      vertex 3.455969923671797 3.1085364882667994 0.3463636363636364
      vertex 2.9720625147748723 3.527844644970118 0.3463636363636364
      vertex 3.244159924937825 3.3529782574698226 0.17057455235714772
    endloop
  endfacet
  facet normal -0.13767320387493165 -0.9575381655296586 -0.2533115680124136
    outer loop
      vertex 2.9720625147748723 3.527844644970118 0.3463636363636364
      vertex 2.338278592871268 3.6189690160228625 0.3463636363636364
      vertex 2.661721407128733 3.6189690160228625 0.17057455235714733
    endloop
  endfacet
  facet normal 0.40186614742091425 -0.8799641180571881 -0.25331156801241245
    outer loop
      vertex 2.338278592871268 3.6189690160228625 0.3463636363636364
      vertex 1.7558400750621768 3.352978257469824 0.3463636363636364
      vertex 2.0279374852251304 3.527844644970119 0.1705745523571482
    endloop
  endfacet
  facet normal 0.8138158363611327 -0.5230076806309087 -0.2533115680124134
    outer loop
      vertex 1.7558400750621768 3.352978257469824 0.3463636363636364
      vertex 1.4096670754380713 2.8143225557507003 0.3463636363636364
      vertex 1.5440300763282035 3.1085364882668003 0.17057455235714736
    endloop
  endfacet
  facet normal 0.9673847474046159 -6.709421817677803e-16 -0.25331156801241317
    outer loop
      vertex 1.4096670754380713 2.8143225557507003 0.3463636363636364
      vertex 1.409667075438071 2.1740212902019964 0.3463636363636364
      vertex 1.3636363636363635 2.4941719229763484 0.17057455235714733
    endloop
  endfacet
  facet normal 0.8130249508427889 0.5224994093708613 -0.25687506012492073
    outer loop
      vertex 1.409667075438071 2.1740212902019964 0.3463636363636364
      vertex 1.7558400750621759 1.635365588482873 0.3463636363636364
      vertex 1.5442036598707003 1.8795373402810498 0.1731818181818182
    endloop
  endfacet
  facet normal 0.40106817928054056 0.8782168115587691 -0.2605370366457357
    outer loop
      vertex 1.7558400750621759 1.635365588482873 0.3463636363636364
      vertex 2.338278592871267 1.3693748299298334 0.3463636363636364
      vertex 2.027937485225128 1.4604992009825775 0.17578908400648902
    endloop
  endfacet
  facet normal -0.13767320387493123 0.9575381655296588 -0.2533115680124132
    outer loop
      vertex 2.338278592871267 1.3693748299298334 0.3463636363636364
      vertex 2.9720625147748705 1.4604992009825772 0.3463636363636364
      vertex 2.6617214071287325 1.3693748299298334 0.1705745523571474
    endloop
  endfacet
  facet normal -0.6335022856928612 0.7311006110878402 -0.25331156801241295
    outer loop
      vertex 2.9720625147748705 1.4604992009825772 0.3463636363636364
      vertex 3.4559699236717965 1.8798073576858965 0.3463636363636364
      vertex 3.244159924937824 1.635365588482873 0.17057455235714714
    endloop
  endfacet
  facet normal 0.9818633967658811 0.13495401761050727 -0.13316036655908062
    outer loop
      vertex 4.907293218369498 3.1686638508689096 0.0
      vertex 4.977952191417848 2.82546173122207 0.1731818181818182
      vertex 5.0 2.494171922976348 0.0
    endloop
  endfacet
  facet normal 0.982104805398769 -0.1349871984633648 -0.1313339539633922
    outer loop
      vertex 5.0 2.494171922976348 0.0
      vertex 4.97074776049729 2.112851186590785 0.1731818181818182
      vertex 4.907293218369498 1.8196799950837874 0.0
    endloop
  endfacet
  facet normal 0.9977927832388696 0.06640453084263379 3.4056156635807125e-16
    outer loop
      vertex 5.0 2.494171922976348 0.0
      vertex 4.977952191417848 2.82546173122207 0.1731818181818182
      vertex 5.0 2.494171922976347 0.1731818181818182
    endloop
  endfacet
  facet normal 0.997070485020722 -0.07648822066528833 -3.9227667008812217e-16
    outer loop
      vertex 5.0 2.494171922976347 0.1731818181818182
      vertex 4.97074776049729 2.112851186590785 0.1731818181818182
      vertex 5.0 2.494171922976348 0.0
    endloop
  endfacet
  facet normal 0.9818633967658811 0.13495401761050727 0.13316036655908062
    outer loop
      vertex 5.0 2.494171922976348 0.3463636363636364
      vertex 4.977952191417848 2.82546173122207 0.1731818181818182
      vertex 4.907293218369498 3.1686638508689096 0.3463636363636364
    endloop
  endfacet
  facet normal 0.982104805398769 -0.1349871984633648 0.13133395396339223
    outer loop
      vertex 4.907293218369498 1.8196799950837874 0.3463636363636364
      vertex 4.97074776049729 2.112851186590785 0.1731818181818182
      vertex 5.0 2.494171922976348 0.3463636363636364
    endloop
  endfacet
  facet normal 0.9977927832388696 0.06640453084263379 -3.4056156635807125e-16
    outer loop
      vertex 5.0 2.494171922976347 0.1731818181818182
      vertex 4.977952191417848 2.82546173122207 0.1731818181818182
      vertex 5.0 2.494171922976348 0.3463636363636364
    endloop
  endfacet
  facet normal 0.997070485020722 -0.07648822066528833 3.9227667008812217e-16
    outer loop
      vertex 5.0 2.494171922976348 0.3463636363636364
      vertex 4.97074776049729 2.112851186590785 0.1731818181818182
      vertex 5.0 2.494171922976347 0.1731818181818182
    endloop
  endfacet
  facet normal 0.9089305119011939 0.3948042353398602 -0.134070654107235
    outer loop
      vertex 4.63604851136622 3.7931317980649335 0.0
      vertex 4.793028253763632 3.490174647591953 0.1721100835661829
      vertex 4.907293218369498 3.1686638508689096 0.0
    endloop
  endfacet
  facet normal 0.9422609221188206 0.3348796121709859 -0.0
    outer loop
      vertex 4.907293218369498 3.1686638508689096 0.0
      vertex 4.793028253763632 3.490174647591953 0.1721100835661829
      vertex 4.907293218369498 3.1686638508689096 0.3463636363636364
    endloop
  endfacet
  facet normal 0.9794572049615724 0.20165213524499123 0.0
    outer loop
      vertex 4.907293218369498 3.1686638508689096 0.3463636363636364
      vertex 4.977952191417848 2.82546173122207 0.1731818181818182
      vertex 4.907293218369498 3.1686638508689096 0.0
    endloop
  endfacet
  facet normal 0.7687973225086772 0.625463013983962 -0.13321672207942659
    outer loop
      vertex 4.2063828580466325 4.32126183367166 0.0
      vertex 4.44299053675897 4.067317743955791 0.1731818181818182
      vertex 4.63604851136622 3.7931317980649335 0.0
    endloop
  endfacet
  facet normal 0.8878852184023746 0.46006503773115326 0.0
    outer loop
      vertex 4.63604851136622 3.7931317980649335 0.3463636363636364
      vertex 4.793028253763632 3.490174647591953 0.1721100835661829
      vertex 4.63604851136622 3.7931317980649335 0.0
    endloop
  endfacet
  facet normal 0.8176487629551966 0.5757173789610982 -0.0
    outer loop
      vertex 4.63604851136622 3.7931317980649335 0.0
      vertex 4.44299053675897 4.067317743955791 0.1731818181818182
      vertex 4.63604851136622 3.7931317980649335 0.3463636363636364
    endloop
  endfacet
  facet normal 0.5714739226641486 0.8095941053528667 -0.1340706541072357
    outer loop
      vertex 3.6501625943278766 4.7138849689822875 0.0
      vertex 3.941700805287166 4.536596655502454 0.17211008356618226
      vertex 4.2063828580466325 4.32126183367166 0.0
    endloop
  endfacet
  facet normal 0.7316396319341 0.6816916084149304 0.0
    outer loop
      vertex 4.2063828580466325 4.32126183367166 0.3463636363636364
      vertex 4.44299053675897 4.067317743955791 0.1731818181818182
      vertex 4.2063828580466325 4.32126183367166 0.0
    endloop
  endfacet
  facet normal 0.6310879443260524 0.7757112907044201 -0.0
    outer loop
      vertex 4.2063828580466325 4.32126183367166 0.0
      vertex 3.941700805287166 4.536596655502454 0.17211008356618226
      vertex 4.2063828580466325 4.32126183367166 0.3463636363636364
    endloop
  endfacet
  facet normal 0.33185624382980433 0.933753978914377 -0.13407065410723817
    outer loop
      vertex 3.0086400326315794 4.9418821421821555 0.0
      vertex 3.337199030427462 4.8498242282734 0.17211008356617877
      vertex 3.6501625943278766 4.7138849689822875 0.0
    endloop
  endfacet
  facet normal 0.3984010898462404 0.9172113015054535 -0.0
    outer loop
      vertex 3.6501625943278766 4.7138849689822875 0.0
      vertex 3.337199030427462 4.8498242282734 0.17211008356617877
      vertex 3.6501625943278766 4.7138849689822875 0.3463636363636364
    endloop
  endfacet
  facet normal 0.5195839500354315 0.8544194045464898 0.0
    outer loop
      vertex 3.6501625943278766 4.7138849689822875 0.3463636363636364
      vertex 3.941700805287166 4.536596655502454 0.17211008356618226
      vertex 3.6501625943278766 4.7138849689822875 0.0
    endloop
  endfacet
  facet normal 0.06762630553190203 0.9886615915000251 -0.1340706541072403
    outer loop
      vertex 2.329393966588315 4.988343845952695 0.0
      vertex 2.670606033411672 4.988343845952697 0.17211008356618226
      vertex 3.0086400326315794 4.9418821421821555 0.0
    endloop
  endfacet
  facet normal 0.1361666490962477 0.9906859460363306 -0.0
    outer loop
      vertex 3.0086400326315794 4.9418821421821555 0.0
      vertex 2.670606033411672 4.988343845952697 0.17211008356618226
      vertex 3.0086400326315794 4.9418821421821555 0.3463636363636364
    endloop
  endfacet
  facet normal 0.26979677115702155 0.9629172873478 0.0
    outer loop
      vertex 3.0086400326315794 4.9418821421821555 0.3463636363636364
      vertex 3.337199030427462 4.8498242282734 0.17211008356617877
      vertex 3.0086400326315794 4.9418821421821555 0.0
    endloop
  endfacet
  facet normal -0.20161916647753944 0.9702446966699487 -0.13407065410723318
    outer loop
      vertex 1.6628009695725268 4.8498242282733965 0.0
      vertex 1.991359967368406 4.941882142182153 0.17211008356618232
      vertex 2.329393966588315 4.988343845952695 0.0
    endloop
  endfacet
  facet normal -5.206019986156758e-15 1.0 0.0
    outer loop
      vertex 2.329393966588315 4.988343845952695 0.3463636363636364
      vertex 2.670606033411672 4.988343845952697 0.17211008356618226
      vertex 2.329393966588315 4.988343845952695 0.0
    endloop
  endfacet
  facet normal -0.13616664909624956 0.9906859460363303 0.0
    outer loop
      vertex 2.329393966588315 4.988343845952695 0.0
      vertex 1.991359967368406 4.941882142182153 0.17211008356618232
      vertex 2.329393966588315 4.988343845952695 0.3463636363636364
    endloop
  endfacet
  facet normal -0.4559114672556567 0.879869191262004 -0.13407065410723218
    outer loop
      vertex 1.0582991947128242 4.536596655502447 0.0
      vertex 1.3498374056721114 4.713884968982281 0.17211008356618163
      vertex 1.6628009695725268 4.8498242282733965 0.0
    endloop
  endfacet
  facet normal -0.3984010898462463 0.9172113015054509 0.0
    outer loop
      vertex 1.6628009695725268 4.8498242282733965 0.0
      vertex 1.3498374056721114 4.713884968982281 0.17211008356618163
      vertex 1.6628009695725268 4.8498242282733965 0.3463636363636364
    endloop
  endfacet
  facet normal -0.26979677115702644 0.9629172873477986 0.0
    outer loop
      vertex 1.6628009695725268 4.8498242282733965 0.3463636363636364
      vertex 1.991359967368406 4.941882142182153 0.17211008356618232
      vertex 1.6628009695725268 4.8498242282733965 0.0
    endloop
  endfacet
  facet normal -0.6763909001636023 0.7242378130718731 -0.13407065410723795
    outer loop
      vertex 0.5607217732389453 4.071891783791473 0.0
      vertex 0.7936171419533578 4.321261833671652 0.17211008356618088
      vertex 1.0582991947128242 4.536596655502447 0.0
    endloop
  endfacet
  facet normal -0.519583950035436 0.854419404546487 0.0
    outer loop
      vertex 1.0582991947128242 4.536596655502447 0.3463636363636364
      vertex 1.3498374056721114 4.713884968982281 0.17211008356618163
      vertex 1.0582991947128242 4.536596655502447 0.0
    endloop
  endfacet
  facet normal -0.6310879443260543 0.7757112907044186 0.0
    outer loop
      vertex 1.0582991947128242 4.536596655502447 0.0
      vertex 0.7936171419533578 4.321261833671652 0.17211008356618088
      vertex 1.0582991947128242 4.536596655502447 0.3463636363636364
    endloop
  endfacet
  facet normal -0.846705514288888 0.514893029453738 -0.1340706541072343
    outer loop
      vertex 0.20697174623636425 3.490174647591944 0.0
      vertex 0.3639514886337752 3.7931317980649264 0.17211008356618232
      vertex 0.5607217732389453 4.071891783791473 0.0
    endloop
  endfacet
  facet normal -0.8169698930104433 0.5766803221148651 0.0
    outer loop
      vertex 0.5607217732389453 4.071891783791473 0.0
      vertex 0.3639514886337752 3.7931317980649264 0.17211008356618232
      vertex 0.5607217732389453 4.071891783791473 0.3463636363636364
    endloop
  endfacet
  facet normal -0.7308359642781278 0.6825531432186501 0.0
    outer loop
      vertex 0.5607217732389453 4.071891783791473 0.3463636363636364
      vertex 0.7936171419533578 4.321261833671652 0.17211008356618088
      vertex 0.5607217732389453 4.071891783791473 0.0
    endloop
  endfacet
  facet normal -0.9542238538393566 0.2673609853198949 -0.13407065410723235
    outer loop
      vertex 0.023285134909171872 2.834588545716957 0.0
      vertex 0.0927067816305009 3.1686638508689047 0.17211008356618127
      vertex 0.20697174623636425 3.490174647591944 0.0
    endloop
  endfacet
  facet normal -0.9422609221188215 0.3348796121709833 0.0
    outer loop
      vertex 0.20697174623636425 3.490174647591944 0.0
      vertex 0.0927067816305009 3.1686638508689047 0.17211008356618127
      vertex 0.20697174623636425 3.490174647591944 0.3463636363636364
    endloop
  endfacet
  facet normal -0.8878852184023768 0.4600650377311493 0.0
    outer loop
      vertex 0.20697174623636425 3.490174647591944 0.3463636363636364
      vertex 0.3639514886337752 3.7931317980649264 0.17211008356618232
      vertex 0.20697174623636425 3.490174647591944 0.0
    endloop
  endfacet
  facet normal -0.9909717754342243 -2.9390282930932667e-15 -0.1340706541072324
    outer loop
      vertex 0.02328513490917389 2.153755300235724 0.0
      vertex 0.0 2.49417192297634 0.1721100835661823
      vertex 0.023285134909171872 2.834588545716957 0.0
    endloop
  endfacet
  facet normal -0.979084087682323 0.20345601305263286 0.0
    outer loop
      vertex 0.023285134909171872 2.834588545716957 0.3463636363636364
      vertex 0.0927067816305009 3.1686638508689047 0.17211008356618127
      vertex 0.023285134909171872 2.834588545716957 0.0
    endloop
  endfacet
  facet normal -0.9976687691905395 0.0682424133646672 0.0
    outer loop
      vertex 0.023285134909171872 2.834588545716957 0.0
      vertex 0.0 2.49417192297634 0.1721100835661823
      vertex 0.023285134909171872 2.834588545716957 0.3463636363636364
    endloop
  endfacet
  facet normal -0.9542238538393548 -0.26736098531990055 -0.13407065410723332
    outer loop
      vertex 0.2069717462363699 1.498169198360739 0.0
      vertex 0.09270678163050454 1.8196799950837776 0.1721100835661812
      vertex 0.02328513490917389 2.153755300235724 0.0
    endloop
  endfacet
  facet normal -0.997668769190539 -0.06824241336467335 -0.0
    outer loop
      vertex 0.02328513490917389 2.153755300235724 0.3463636363636364
      vertex 0.0 2.49417192297634 0.1721100835661823
      vertex 0.02328513490917389 2.153755300235724 0.0
    endloop
  endfacet
  facet normal -0.9790840876823219 -0.20345601305263808 0.0
    outer loop
      vertex 0.02328513490917389 2.153755300235724 0.0
      vertex 0.09270678163050454 1.8196799950837776 0.1721100835661812
      vertex 0.02328513490917389 2.153755300235724 0.3463636363636364
    endloop
  endfacet
  facet normal -0.846705514288885 -0.5148930294537424 -0.1340706541072366
    outer loop
      vertex 0.5607217732389534 0.9164520621612127 0.0
      vertex 0.36395148863378 1.1952120478877613 0.17211008356618096
      vertex 0.2069717462363699 1.498169198360739 0.0
    endloop
  endfacet
  facet normal -0.8878852184023749 -0.4600650377311527 0.0
    outer loop
      vertex 0.2069717462363699 1.498169198360739 0.0
      vertex 0.36395148863378 1.1952120478877613 0.17211008356618096
      vertex 0.2069717462363699 1.498169198360739 0.3463636363636364
    endloop
  endfacet
  facet normal -0.9422609221188193 -0.3348796121709893 -0.0
    outer loop
      vertex 0.2069717462363699 1.498169198360739 0.3463636363636364
      vertex 0.09270678163050454 1.8196799950837776 0.1721100835661812
      vertex 0.2069717462363699 1.498169198360739 0.0
    endloop
  endfacet
  facet normal -0.6763909001635986 -0.7242378130718768 -0.13407065410723495
    outer loop
      vertex 1.0582991947128355 0.45174719045024075 0.0
      vertex 0.7936171419533704 0.6670820122810324 0.17211008356618226
      vertex 0.5607217732389534 0.9164520621612127 0.0
    endloop
  endfacet
  facet normal -0.7308359642781229 -0.6825531432186552 0.0
    outer loop
      vertex 0.5607217732389534 0.9164520621612127 0.0
      vertex 0.7936171419533704 0.6670820122810324 0.17211008356618226
      vertex 0.5607217732389534 0.9164520621612127 0.3463636363636364
    endloop
  endfacet
  facet normal -0.8169698930104403 -0.5766803221148694 -0.0
    outer loop
      vertex 0.5607217732389534 0.9164520621612127 0.3463636363636364
      vertex 0.36395148863378 1.1952120478877613 0.17211008356618096
      vertex 0.5607217732389534 0.9164520621612127 0.0
    endloop
  endfacet
  facet normal -0.456011685645134 -0.8800626039739835 -0.13245057810978042
    outer loop
      vertex 1.662800969572538 0.13851961767929577 0.0
      vertex 1.349837405672124 0.27445887697040766 0.17425355279745405
      vertex 1.0582991947128355 0.45174719045024075 0.0
    endloop
  endfacet
  facet normal -0.5195839500354323 -0.8544194045464893 0.0
    outer loop
      vertex 1.0582991947128355 0.45174719045024075 0.0
      vertex 1.349837405672124 0.27445887697040766 0.17425355279745405
      vertex 1.0582991947128355 0.45174719045024075 0.3463636363636364
    endloop
  endfacet
  facet normal -0.6310879443260504 -0.7757112907044218 -0.0
    outer loop
      vertex 1.0582991947128355 0.45174719045024075 0.3463636363636364
      vertex 0.7936171419533704 0.6670820122810324 0.17211008356618226
      vertex 1.0582991947128355 0.45174719045024075 0.0
    endloop
  endfacet
  facet normal -0.20161916647753586 -0.9702446966699493 -0.13407065410723465
    outer loop
      vertex 2.329393966588326 0.0 0.0
      vertex 1.9913599673684221 0.046461703770539486 0.17211008356618226
      vertex 1.662800969572538 0.13851961767929577 0.0
    endloop
  endfacet
  facet normal -0.2697967711570228 -0.9629172873477997 0.0
    outer loop
      vertex 1.662800969572538 0.13851961767929577 0.0
      vertex 1.9913599673684221 0.046461703770539486 0.17211008356618226
      vertex 1.662800969572538 0.13851961767929577 0.3463636363636364
    endloop
  endfacet
  facet normal -0.39840108984623934 -0.917211301505454 -0.0
    outer loop
      vertex 1.662800969572538 0.13851961767929577 0.3463636363636364
      vertex 1.349837405672124 0.27445887697040766 0.17425355279745405
      vertex 1.662800969572538 0.13851961767929577 0.0
    endloop
  endfacet
  facet normal 0.06762630553190524 -0.9886615915000252 -0.13407065410723826
    outer loop
      vertex 3.0086400326315874 0.046461703770541506 0.0
      vertex 2.6706060334116795 0.0 0.1721100835661784
      vertex 2.329393966588326 0.0 0.0
    endloop
  endfacet
  facet normal -0.1361666490962441 -0.9906859460363311 -0.0
    outer loop
      vertex 2.329393966588326 0.0 0.3463636363636364
      vertex 1.9913599673684221 0.046461703770539486 0.17211008356618226
      vertex 2.329393966588326 0.0 0.0
    endloop
  endfacet
  facet normal 0.0 -1.0 0.0
    outer loop
      vertex 2.329393966588326 0.0 0.0
      vertex 2.6706060334116795 0.0 0.1721100835661784
      vertex 2.329393966588326 0.0 0.3463636363636364
    endloop
  endfacet
  facet normal 0.3318948071079452 -0.9338624855797522 -0.13321672207942614
    outer loop
      vertex 3.6501625943278806 0.27445887697040966 0.0
      vertex 3.3316459145017205 0.1365534057236955 0.1731818181818182
      vertex 3.0086400326315874 0.046461703770541506 0.0
    endloop
  endfacet
  facet normal 0.13616664909624823 -0.9906859460363304 0.0
    outer loop
      vertex 3.0086400326315874 0.046461703770541506 0.3463636363636364
      vertex 2.6706060334116795 0.0 0.1721100835661784
      vertex 3.0086400326315874 0.046461703770541506 0.0
    endloop
  endfacet
  facet normal 0.2686620877491911 -0.9632344899380659 0.0
    outer loop
      vertex 3.0086400326315874 0.046461703770541506 0.0
      vertex 3.3316459145017205 0.1365534057236955 0.1731818181818182
      vertex 3.0086400326315874 0.046461703770541506 0.3463636363636364
    endloop
  endfacet
  facet normal 0.5715995439750279 -0.8097720702061321 -0.13245057810978147
    outer loop
      vertex 4.206382858046635 0.667082012281038 0.0
      vertex 3.9417008052871725 0.45174719045024636 0.17425355279745056
      vertex 3.6501625943278806 0.27445887697040966 0.0
    endloop
  endfacet
  facet normal 0.5195839500354358 -0.8544194045464872 0.0
    outer loop
      vertex 3.6501625943278806 0.27445887697040966 0.0
      vertex 3.9417008052871725 0.45174719045024636 0.17425355279745056
      vertex 3.6501625943278806 0.27445887697040966 0.3463636363636364
    endloop
  endfacet
  facet normal 0.39732016735469916 -0.9176800556911073 0.0
    outer loop
      vertex 3.6501625943278806 0.27445887697040966 0.3463636363636364
      vertex 3.3316459145017205 0.1365534057236955 0.1731818181818182
      vertex 3.6501625943278806 0.27445887697040966 0.0
    endloop
  endfacet
  facet normal 0.768876972248426 -0.6255278138536112 -0.13245057810978036
    outer loop
      vertex 4.636048511366221 1.195212047887764 0.0
      vertex 4.439278226761051 0.9164520621612184 0.17425355279744986
      vertex 4.206382858046635 0.667082012281038 0.0
    endloop
  endfacet
  facet normal 0.631087944326054 -0.7757112907044188 0.0
    outer loop
      vertex 4.206382858046635 0.667082012281038 0.3463636363636364
      vertex 3.9417008052871725 0.45174719045024636 0.17425355279745056
      vertex 4.206382858046635 0.667082012281038 0.0
    endloop
  endfacet
  facet normal 0.7308359642781252 -0.682553143218653 0.0
    outer loop
      vertex 4.206382858046635 0.667082012281038 0.0
      vertex 4.439278226761051 0.9164520621612184 0.17425355279744986
      vertex 4.206382858046635 0.667082012281038 0.3463636363636364
    endloop
  endfacet
  facet normal 0.9089305119011941 -0.39480423533985926 -0.13407065410723634
    outer loop
      vertex 4.907293218369498 1.8196799950837874 0.0
      vertex 4.793028253763633 1.4981691983607448 0.17211008356618226
      vertex 4.636048511366221 1.195212047887764 0.0
    endloop
  endfacet
  facet normal 0.8878852184023749 -0.46006503773115276 0.0
    outer loop
      vertex 4.636048511366221 1.195212047887764 0.0
      vertex 4.793028253763633 1.4981691983607448 0.17211008356618226
      vertex 4.636048511366221 1.195212047887764 0.3463636363636364
    endloop
  endfacet
  facet normal 0.8169698930104415 -0.576680322114868 0.0
    outer loop
      vertex 4.636048511366221 1.195212047887764 0.3463636363636364
      vertex 4.439278226761051 0.9164520621612184 0.17425355279744986
      vertex 4.636048511366221 1.195212047887764 0.0
    endloop
  endfacet
  facet normal 0.9422609221188212 -0.33487961217098433 0.0
    outer loop
      vertex 4.907293218369498 1.8196799950837874 0.3463636363636364
      vertex 4.793028253763633 1.4981691983607448 0.17211008356618226
      vertex 4.907293218369498 1.8196799950837874 0.0
    endloop
  endfacet
  facet normal 0.9773685720143296 -0.21154355210847317 0.0
    outer loop
      vertex 4.907293218369498 1.8196799950837874 0.0
      vertex 4.97074776049729 2.112851186590785 0.1731818181818182
      vertex 4.907293218369498 1.8196799950837874 0.3463636363636364
    endloop
  endfacet
  facet normal 0.9091303128682596 0.3948910211469045 0.13245057810978186
    outer loop
      vertex 4.907293218369498 3.1686638508689096 0.3463636363636364
      vertex 4.793028253763632 3.490174647591953 0.1721100835661829
      vertex 4.63604851136622 3.7931317980649335 0.3463636363636364
    endloop
  endfacet
  facet normal 0.7687973225086772 0.625463013983962 0.13321672207942648
    outer loop
      vertex 4.63604851136622 3.7931317980649335 0.3463636363636364
      vertex 4.44299053675897 4.067317743955791 0.1731818181818182
      vertex 4.2063828580466325 4.32126183367166 0.3463636363636364
    endloop
  endfacet
  facet normal 0.5715995439750258 0.8097720702061336 0.1324505781097816
    outer loop
      vertex 4.2063828580466325 4.32126183367166 0.3463636363636364
      vertex 3.941700805287166 4.536596655502454 0.17211008356618226
      vertex 3.6501625943278766 4.7138849689822875 0.3463636363636364
    endloop
  endfacet
  facet normal 0.33192919241891655 0.9339592365721917 0.13245057810977875
    outer loop
      vertex 3.6501625943278766 4.7138849689822875 0.3463636363636364
      vertex 3.337199030427462 4.8498242282734 0.17211008356617877
      vertex 3.0086400326315794 4.9418821421821555 0.3463636363636364
    endloop
  endfacet
  facet normal 0.06764117113611207 0.9888789189408976 0.13245057810978614
    outer loop
      vertex 3.0086400326315794 4.9418821421821555 0.3463636363636364
      vertex 2.670606033411672 4.988343845952697 0.17211008356618226
      vertex 2.329393966588315 4.988343845952695 0.3463636363636364
    endloop
  endfacet
  facet normal -0.2016634863720899 0.9704579757117971 0.13245057810977917
    outer loop
      vertex 2.329393966588315 4.988343845952695 0.3463636363636364
      vertex 1.991359967368406 4.941882142182153 0.17211008356618232
      vertex 1.6628009695725268 4.8498242282733965 0.3463636363636364
    endloop
  endfacet
  facet normal -0.4560116856451391 0.8800626039739813 0.13245057810977726
    outer loop
      vertex 1.6628009695725268 4.8498242282733965 0.3463636363636364
      vertex 1.3498374056721114 4.713884968982281 0.17211008356618163
      vertex 1.0582991947128242 4.536596655502447 0.3463636363636364
    endloop
  endfacet
  facet normal -0.6765395843085372 0.7243970149179358 0.13245057810978172
    outer loop
      vertex 1.0582991947128242 4.536596655502447 0.3463636363636364
      vertex 0.7936171419533578 4.321261833671652 0.17211008356618088
      vertex 0.5607217732389453 4.071891783791473 0.3463636363636364
    endloop
  endfacet
  facet normal -0.8468916369664302 0.5150062131612639 0.1324505781097805
    outer loop
      vertex 0.5607217732389453 4.071891783791473 0.3463636363636364
      vertex 0.3639514886337752 3.7931317980649264 0.17211008356618232
      vertex 0.20697174623636425 3.490174647591944 0.3463636363636364
    endloop
  endfacet
  facet normal -0.9544336111819678 0.2674197565710777 0.13245057810977665
    outer loop
      vertex 0.20697174623636425 3.490174647591944 0.3463636363636364
      vertex 0.0927067816305009 3.1686638508689047 0.17211008356618127
      vertex 0.023285134909171872 2.834588545716957 0.3463636363636364
    endloop
  endfacet
  facet normal -0.9911896106993785 -2.9396743498462355e-15 0.13245057810977834
    outer loop
      vertex 0.023285134909171872 2.834588545716957 0.3463636363636364
      vertex 0.0 2.49417192297634 0.1721100835661823
      vertex 0.02328513490917389 2.153755300235724 0.3463636363636364
    endloop
  endfacet
  facet normal -0.954433611181966 -0.26741975657108324 0.13245057810977764
    outer loop
      vertex 0.02328513490917389 2.153755300235724 0.3463636363636364
      vertex 0.09270678163050454 1.8196799950837776 0.1721100835661812
      vertex 0.2069717462363699 1.498169198360739 0.3463636363636364
    endloop
  endfacet
  facet normal -0.8468916369664274 -0.5150062131612684 0.1324505781097804
    outer loop
      vertex 0.2069717462363699 1.498169198360739 0.3463636363636364
      vertex 0.36395148863378 1.1952120478877613 0.17211008356618096
      vertex 0.5607217732389534 0.9164520621612127 0.3463636363636364
    endloop
  endfacet
  facet normal -0.6765395843085334 -0.7243970149179396 0.13245057810978084
    outer loop
      vertex 0.5607217732389534 0.9164520621612127 0.3463636363636364
      vertex 0.7936171419533704 0.6670820122810324 0.17211008356618226
      vertex 1.0582991947128355 0.45174719045024075 0.3463636363636364
    endloop
  endfacet
  facet normal -0.4559114672556517 -0.8798691912620062 0.13407065410723457
    outer loop
      vertex 1.0582991947128355 0.45174719045024075 0.3463636363636364
      vertex 1.349837405672124 0.27445887697040766 0.17425355279745405
      vertex 1.662800969572538 0.13851961767929577 0.3463636363636364
    endloop
  endfacet
  facet normal -0.20166348637208636 -0.9704579757117977 0.13245057810978053
    outer loop
      vertex 1.662800969572538 0.13851961767929577 0.3463636363636364
      vertex 1.9913599673684221 0.046461703770539486 0.17211008356618226
      vertex 2.329393966588326 0.0 0.3463636363636364
    endloop
  endfacet
  facet normal 0.06764117113611534 -0.9888789189408985 0.1324505781097783
    outer loop
      vertex 2.329393966588326 0.0 0.3463636363636364
      vertex 2.6706060334116795 0.0 0.1721100835661784
      vertex 3.0086400326315874 0.046461703770541506 0.3463636363636364
    endloop
  endfacet
  facet normal 0.3318948071079452 -0.9338624855797522 0.13321672207942614
    outer loop
      vertex 3.0086400326315874 0.046461703770541506 0.3463636363636364
      vertex 3.3316459145017205 0.1365534057236955 0.1731818181818182
      vertex 3.6501625943278806 0.27445887697040966 0.3463636363636364
    endloop
  endfacet
  facet normal 0.5714739226641512 -0.8095941053528657 0.13407065410723018
    outer loop
      vertex 3.6501625943278806 0.27445887697040966 0.3463636363636364
      vertex 3.9417008052871725 0.45174719045024636 0.17425355279745056
      vertex 4.206382858046635 0.667082012281038 0.3463636363636364
    endloop
  endfacet
  facet normal 0.768707994973733 -0.625390340643924 0.13407065410722802
    outer loop
      vertex 4.206382858046635 0.667082012281038 0.3463636363636364
      vertex 4.439278226761051 0.9164520621612184 0.17425355279744986
      vertex 4.636048511366221 1.195212047887764 0.3463636363636364
    endloop
  endfacet
  facet normal 0.90913031286826 -0.3948910211469036 0.13245057810978222
    outer loop
      vertex 4.636048511366221 1.195212047887764 0.3463636363636364
      vertex 4.793028253763633 1.4981691983607448 0.17211008356618226
      vertex 4.907293218369498 1.8196799950837874 0.3463636363636364
    endloop
  endfacet
endsolid abc_50_043
